<svg xmlns="http://www.w3.org/2000/svg" viewBox="0 0 600 1367.09"><defs><style>.cls-1{fill:#110828;}.cls-2{fill:#110b2d;}.cls-3{opacity:0.46;}.cls-4{opacity:0.62;}.cls-5{opacity:0.79;}</style></defs><g id="Layer_2" data-name="Layer 2"><g id="BG"><rect class="cls-1" width="600" height="1367"/><g id="What_is_Eli" data-name="What is Eli"><path class="cls-2" d="M487.53,130.67H483.1l-369.77.16v2.52c-.14.17-.3.05-.44,0s-.18-.27-.28.7c-.16,1.52-.29,4.76-.59,4.69,0,0-.15-.19-.21.07a14.24,14.24,0,0,0-.09,1.85c0,.56,0,1,0,1.55,0,.36,0,.65-.06,1-.2-.14-.43-.49-.63.05,0,.7,0,1.3,0,2,0,.22.08.47.11.77v.49a6.44,6.44,0,0,0,.13,1.16c.1.4.23,0,.34.11a22.52,22.52,0,0,0,.09,2.84,4.66,4.66,0,0,0,.28.82,3.39,3.39,0,0,1,.19,1.22c.06,1,.19,2.22.19,3.36,0,1.74-.24,3-.23,4.77,0,.36,0,.71,0,1.05,0,.75,0,1.53,0,2.32v2.47c0,.14-.1.19-.16.16a2.28,2.28,0,0,0-.2.45c0,.08-.09,0-.14.14a5.08,5.08,0,0,0-.13,1.4c0,1.09-.12,2.22-.19,3.22a9.88,9.88,0,0,1-.11,1.22c-.07.29-.19.27-.26.54a12.18,12.18,0,0,0-.23,2.89s.11-.15.17,0A8,8,0,0,1,111,178c0,.42,0,.84,0,1.26a8.41,8.41,0,0,0-.18,1.58c0,.14.06.31.08.52s0,.53,0,.8,0,.89.07,1.18c.16,1.4.53.75.51,3.35a18.87,18.87,0,0,1-.14,2,22.27,22.27,0,0,0-.13,3.16c0,.84.06,1.35.06,2.25s0,1.87-.09,2.79a5.77,5.77,0,0,1-.16,1.49,3,3,0,0,0-.23,1.06c0,.52,0,1,0,1.59a3.78,3.78,0,0,0,0,.95,11.06,11.06,0,0,0-.26,1.14v5.86c0,.58.07,1.24.09,1.56,0,.51,0,.9.07,1.35s0,.95,0,1.44a5.42,5.42,0,0,0,.08.54,13,13,0,0,0,.14,2,3.43,3.43,0,0,0,0-.56,27.11,27.11,0,0,0,.05,2.85c0,.46.14.6.2,1,.08,1,.1,2.06.08,3.09a21,21,0,0,0,.11,2.74c0,.32.08.7.11,1.06s0,.77,0,1.12c0,.82.15,1,.22,1.73s.05,2.17.07,3.17c0,.63.06,1.57,0,2.19l371.2-.16h3c0-.62,0-1.57-.05-2.2,0-1,0-2.4-.07-3.16s-.17-.92-.22-1.74a10.3,10.3,0,0,0,0-1.12c0-.33-.08-.74-.1-1-.09-.79-.11-1.74-.12-2.75a28.73,28.73,0,0,0-.08-3.08c-.06-.39-.15-.53-.19-1a27.3,27.3,0,0,1-.06-2.86,2.71,2.71,0,0,1,0,.57,11.79,11.79,0,0,1-.14-2,5.21,5.21,0,0,0-.08-.55c0-.48,0-1,0-1.44s0-.84-.08-1.34c0-.33,0-1-.08-1.56V203a8.58,8.58,0,0,1,.26-1.14,3.85,3.85,0,0,1,0-1c0-.62,0-1.07,0-1.59a2.91,2.91,0,0,1,.23-1,5.8,5.8,0,0,0,.16-1.5c.05-.91.09-1.77.09-2.79s0-1.4-.06-2.24a19.74,19.74,0,0,1,.13-3.17,17.46,17.46,0,0,0,.13-2c0-2.6-.34-1.94-.5-3.35,0-.29-.05-.81-.07-1.18s0-.53,0-.8a4.92,4.92,0,0,0-.08-.52,9.31,9.31,0,0,1,.17-1.58,8.83,8.83,0,0,0,0-1.26,7.21,7.21,0,0,0-.08-1.39c-.05-.18-.12,0-.17,0a12.83,12.83,0,0,1,.29-2.83c.08-.27.19-.25.25-.54a8.27,8.27,0,0,0,.13-1.22c.07-1,.15-2.13.19-3.23a5.37,5.37,0,0,1,.12-1.39c.06-.16.1-.07.15-.14a1.57,1.57,0,0,1,.2-.46s.11,0,.16-.16V164c0-.76,0-1.56,0-2.31,0-.34,0-.69,0-1.05,0-1.79.23-3,.23-4.77,0-1.14-.12-2.37-.18-3.36a3.56,3.56,0,0,0-.19-1.21,5.07,5.07,0,0,1-.28-.83,19.3,19.3,0,0,1-.09-2.84c-.12-.14-.24.29-.35-.11a9,9,0,0,1-.13-1.16v-.49a4,4,0,0,0-.1-.77,16.19,16.19,0,0,1,0-2c.19-.54.42-.19.63,0,0-.38.05-.7.06-1V140.5a11.41,11.41,0,0,1,.09-1.85c.05-.26.15-.08.21-.07.29.07.42-3.17.59-4.68.1-1,.11-.75.27-.7s.3.15.44,0A15.15,15.15,0,0,1,487.53,130.67Z"/><path class="cls-2" d="M487.5,128.67h-4.44l-369.78.17v2.52c-.13.16-.3,0-.43,0s-.19-.28-.29.69c-.16,1.52-.29,4.76-.58,4.69-.06,0-.16-.19-.22.07a12.67,12.67,0,0,0-.08,1.85c0,.56,0,1,0,1.55,0,.36-.05.66-.06,1-.21-.15-.43-.49-.63,0,0,.7,0,1.3,0,2,0,.22.07.47.1.77v.5a7.61,7.61,0,0,0,.12,1.16c.11.39.23,0,.34.09a20.69,20.69,0,0,0,.1,2.84,5.88,5.88,0,0,0,.27.84,3.1,3.1,0,0,1,.19,1.21c.07,1,.19,2.21.19,3.37,0,1.73-.24,3-.23,4.76l0,1.05c0,.75,0,1.52,0,2.31v2.47c0,.16-.1.21-.16.16a2,2,0,0,0-.18.46c-.06.08-.1,0-.16.14a5.49,5.49,0,0,0-.12,1.4c0,1.09-.12,2.22-.19,3.22a8.27,8.27,0,0,1-.12,1.22c-.07.29-.18.27-.26.54a12.83,12.83,0,0,0-.29,2.83c0,.06.12-.14.17,0a8.23,8.23,0,0,1,.09,1.4,8.8,8.8,0,0,1,0,1.26,7.64,7.64,0,0,0-.17,1.58c0,.13,0,.31.07.53s0,.53,0,.8,0,.89.07,1.17c.17,1.4.54.76.51,3.35a17.48,17.48,0,0,1-.14,2,22.27,22.27,0,0,0-.13,3.16c0,.85.07,1.35.06,2.25s0,1.87-.09,2.79a5.77,5.77,0,0,1-.16,1.49,2.91,2.91,0,0,0-.23,1.05c0,.52,0,1,0,1.59a3.82,3.82,0,0,0,.11,1,9.21,9.21,0,0,0-.26,1.13v5.85c0,.58.06,1.23.07,1.57s.05.9.08,1.34,0,1,0,1.44c0,.23.06.31.08.55a13,13,0,0,0,.14,2,2.79,2.79,0,0,0,0-.58c0,1,0,1.91.06,2.86,0,.47.15.6.2,1a29.88,29.88,0,0,1,.08,3.08,22.9,22.9,0,0,0,.11,2.74c0,.32.09.7.11,1.06s0,.76,0,1.12c.05.82.14,1.05.21,1.74s.06,2.17.08,3.16c0,.64.06,1.58,0,2.19l371.2-.16h3c0-.61,0-1.55,0-2.19,0-1,0-2.39-.08-3.16s-.17-.92-.22-1.74a10.3,10.3,0,0,0,0-1.12c0-.33-.07-.74-.1-1.06-.09-.77-.11-1.72-.12-2.74s0-2.31-.07-3.08c-.07-.4-.16-.53-.21-1-.06-.95-.08-1.9-.05-2.85a3.64,3.64,0,0,1,0,.57,14.39,14.39,0,0,1-.14-2c0-.24-.06-.32-.07-.55,0-.49,0-1,0-1.44s-.05-.85-.08-1.34c0-.33,0-1-.08-1.57v-5.86a10.88,10.88,0,0,1,.26-1.13,3.85,3.85,0,0,1,0-1c0-.62,0-1.07,0-1.59a2.91,2.91,0,0,1,.23-1,5.84,5.84,0,0,0,.16-1.5c.06-.91.09-1.77.09-2.79s0-1.4-.06-2.25a22.27,22.27,0,0,1,.13-3.16,20,20,0,0,0,.14-2c0-2.6-.35-1.94-.51-3.34,0-.3-.05-.83-.07-1.18s0-.55,0-.81a4.63,4.63,0,0,0-.07-.52,7.64,7.64,0,0,1,.17-1.58c0-.42,0-.84,0-1.26a8.16,8.16,0,0,0-.08-1.4c-.05-.18-.12,0-.17,0a12.86,12.86,0,0,1,.29-2.84c.08-.27.19-.25.26-.54a8.27,8.27,0,0,0,.12-1.22c.07-1,.15-2.1.19-3.22a5.49,5.49,0,0,1,.12-1.4c.06-.15.1-.06.15-.14a2.62,2.62,0,0,1,.19-.46c.06,0,.11,0,.16-.15V162c0-.77,0-1.57,0-2.32l0-1.05c0-1.8.23-3,.23-4.77,0-1.15-.13-2.37-.19-3.36a3.18,3.18,0,0,0-.19-1.22,5.19,5.19,0,0,1-.28-.87,22.4,22.4,0,0,1-.09-2.84c-.12-.13-.24.3-.35-.1a7.48,7.48,0,0,1-.12-1.16v-.49a3.23,3.23,0,0,0-.11-.77c0-.7,0-1.24,0-2,.21-.53.43-.19.63,0,0-.37.06-.7.06-1v-1.55a12.82,12.82,0,0,1,.1-1.85c.05-.25.15-.07.21-.06.3.06.42-3.18.58-4.69.11-1,.13-.75.29-.7s.3.15.43,0C487.51,130.35,487.5,129.51,487.5,128.67Z"/><g class="cls-3"><g class="cls-4"><path class="cls-2" d="M98.91,156.12l.8-.4.48-.24,55.44-27.71c0-.08-.09-.17-.14-.26a.34.34,0,0,1,.12-.06s.07,0,0-.12-.17-.55-.08-.58,0,0,.06,0a.66.66,0,0,0-.08-.21l-.08-.16a.17.17,0,0,0,0-.12s.16,0,.18-.09a.68.68,0,0,0-.1-.21l-.07-.07v0s-.06-.09-.1-.11h-.1a.84.84,0,0,0-.18-.28.42.42,0,0,0-.16,0c-.05,0-.05,0-.12-.1l-.23-.33c-.09-.19-.09-.35-.18-.55l-.07-.1-.14-.24c0-.08-.09-.18-.12-.26a0,0,0,0,1,0,0v-.07h0a.43.43,0,0,0,0-.17,1.79,1.79,0,0,1-.12-.37.38.38,0,0,1,0-.15s0-.05,0-.09a.7.7,0,0,0-.06-.35h-.05c-.05,0-.07-.08-.1-.14a.5.5,0,0,1-.08-.12.51.51,0,0,0,0-.2c0-.09,0,0-.06,0l0-.08a.44.44,0,0,0-.08-.11c-.12-.13-.2,0-.32-.29a.73.73,0,0,1-.07-.24,1.14,1.14,0,0,0-.13-.35l-.14-.23a2,2,0,0,1-.12-.31c0-.1,0-.14,0-.18a.19.19,0,0,0,0-.15.87.87,0,0,0-.07-.17s0-.07-.06-.11a.38.38,0,0,0,0-.15l-.31-.63-.11-.15-.09-.14a.67.67,0,0,0-.09-.14.12.12,0,0,0-.05,0s-.12-.21-.14-.19a.06.06,0,0,0,0,.06,1.69,1.69,0,0,0-.17-.29s-.07,0-.11-.08a1.5,1.5,0,0,1-.19-.32.8.8,0,0,0-.18-.27v-.12l-.07-.11a.75.75,0,0,0-.15-.16,3.37,3.37,0,0,1-.19-.32c0-.07-.1-.16-.13-.23L94.67,144.48l-.48.24-.39.19a1.71,1.71,0,0,0,.13.23,2.59,2.59,0,0,0,.19.33l.16.16.07.11.08.1a1.27,1.27,0,0,1,.18.27,2,2,0,0,0,.18.32s.07,0,.11.08a1.05,1.05,0,0,1,.17.29v-.06l.15.18c0,.05,0,0,0,.05s0,.1.09.15l.09.13.1.16.32.63v.15s0,.05,0,.1a.67.67,0,0,1,.07.18.17.17,0,0,1,0,.14.4.4,0,0,0,0,.19,1.88,1.88,0,0,0,.12.3,1.76,1.76,0,0,0,.14.23,1.11,1.11,0,0,1,.13.36,1.05,1.05,0,0,0,.06.24c.13.28.2.16.33.28l.08.11,0,.09,0,0c.06.09,0,.13,0,.2l.08.12a.17.17,0,0,0,.1.14s0,0,0,0a.62.62,0,0,1,.09.32s0,.06,0,.1v.15a1.14,1.14,0,0,0,.12.37c.05.12.06.12,0,.16h0a.11.11,0,0,1,0,.08.08.08,0,0,0,0,0l.13.27c0,.08.09.16.14.24l.07.1c.09.2.09.36.18.55a3.71,3.71,0,0,0,.23.32c.07.09.07.09.12.11l.13.05a1,1,0,0,1,.17.28s.06-.06.11,0,.06.06.1.1a0,0,0,0,0,0,0l.07.07a1,1,0,0,1,.1.21c0,.08-.11.08-.18.09v.12c0,.07.06.11.09.17a.66.66,0,0,1,.08.21h-.07a3.42,3.42,0,0,0,.09.58c0,.18,0,.09,0,.12a.22.22,0,0,0-.13.06Z"/></g><g class="cls-4"><path class="cls-2" d="M497.28,200.19l-.6.66-.35.4-41.4,46.15.23.2c0,.05-.06.08-.09.11s-.06,0,0,.12.36.45.29.52-.05,0,0,.05a1.15,1.15,0,0,0,.14.17.57.57,0,0,1,.15.12l.07.1a.13.13,0,0,0-.12.14.64.64,0,0,0,.17.16l.09,0,.05,0a.33.33,0,0,0,.13.07c.05,0,0-.06.08-.08a.9.9,0,0,0,.27.21h.14a.3.3,0,0,1,.15.05,3.29,3.29,0,0,1,.33.23c.15.13.21.29.37.43l.11.07.21.18.22.2v.17a.3.3,0,0,0,.1.15c.06.06.17.2.25.3a.57.57,0,0,1,.08.13v.1a.81.81,0,0,0,.19.29,0,0,0,0,1,0,0s.1,0,.15.09a.31.31,0,0,1,.11.09c.05,0,0,.11.11.16H459l.07.06.13.07c.15.08.18-.06.4.15a.75.75,0,0,1,.15.2,1.32,1.32,0,0,0,.25.28,1.16,1.16,0,0,1,.21.16,1.73,1.73,0,0,1,.23.24c.07.08.1.11.1.16a.24.24,0,0,0,.05.14.57.57,0,0,0,.13.14s0,.05.08.07a.88.88,0,0,0,.05.15l.52.47.16.11.13.08.13.11h.07s.18.15.2.12l0-.06a1.09,1.09,0,0,0,.26.22h.13a1.28,1.28,0,0,1,.29.23,1.85,1.85,0,0,0,.27.19l.11.06.11.07c.08.06.13.05.2.09l.3.23c0,.06.15.12.2.17l41.7-46.47.35-.4.29-.33-.2-.16-.29-.23a1.21,1.21,0,0,1-.2-.09s-.08-.06-.11-.08l-.12-.06a1.2,1.2,0,0,1-.27-.19,1.34,1.34,0,0,0-.29-.23.17.17,0,0,1-.13,0,1.33,1.33,0,0,1-.26-.21l0,.05-.21-.12h-.06l-.14-.11-.13-.08-.15-.11-.52-.47a.42.42,0,0,1,0-.15c-.06,0-.06,0-.09-.07a.58.58,0,0,1-.13-.14.14.14,0,0,1,0-.14.39.39,0,0,0-.1-.16l-.23-.24a1.16,1.16,0,0,0-.21-.16,1.2,1.2,0,0,1-.26-.29A.62.62,0,0,0,502,205c-.23-.21-.25-.07-.41-.15l-.12-.08-.07-.05h-.07c-.08-.06,0-.11-.1-.16l-.12-.09c-.05,0-.09-.1-.14-.09s0,0,0,0a.6.6,0,0,1-.19-.3V204a.5.5,0,0,0-.08-.12,3.5,3.5,0,0,0-.24-.3c-.09-.1-.1-.09-.1-.15v0a.17.17,0,0,1,0-.07.06.06,0,0,0,0-.06l-.22-.19a1.18,1.18,0,0,0-.21-.18l-.1-.07c-.16-.14-.22-.3-.38-.43a1.94,1.94,0,0,0-.33-.23c-.09,0-.09,0-.15,0h-.13c-.09,0-.18-.13-.28-.21s0,.08-.08.08l-.13-.07-.05,0-.08,0a.55.55,0,0,1-.18-.16c0-.08.07-.11.13-.15l-.08-.09a.71.71,0,0,0-.13-.12.8.8,0,0,1-.15-.17s0,0,0-.06-.19-.35-.29-.51,0-.09,0-.12a.19.19,0,0,0,.09-.11Z"/></g></g><path class="cls-2" d="M185.86,191.84l4.6-24.35h7l-7.59,34.23h-7.1l-5.57-22.9-5.58,22.9h-7.1L157,167.49h7l4.63,24.31,5.64-24.31h6Z"/><path class="cls-2" d="M207.49,179.05a9.06,9.06,0,0,1,3-2.38,8.29,8.29,0,0,1,3.82-.86,10.37,10.37,0,0,1,3.43.53,6.36,6.36,0,0,1,2.66,1.71,7.91,7.91,0,0,1,1.7,3.07,15.18,15.18,0,0,1,.6,4.56v16h-6.79V185.64a6.66,6.66,0,0,0-.27-2,3.19,3.19,0,0,0-.79-1.33,2.92,2.92,0,0,0-1.28-.71,6.15,6.15,0,0,0-1.73-.22,5.1,5.1,0,0,0-2.65.63,4.42,4.42,0,0,0-1.67,1.68v18.08h-6.8V165.6h6.8Z"/><path class="cls-2" d="M242.54,201.72a7.59,7.59,0,0,1-.68-2.28,8.83,8.83,0,0,1-2.6,1.95,8.33,8.33,0,0,1-3.82.8,10.06,10.06,0,0,1-3.42-.57,8.44,8.44,0,0,1-2.75-1.57,7.18,7.18,0,0,1-1.82-2.41,7.11,7.11,0,0,1-.66-3.07,8.22,8.22,0,0,1,.74-3.55,6.89,6.89,0,0,1,2.22-2.63,10.85,10.85,0,0,1,3.68-1.65,21,21,0,0,1,5.11-.56h3v-1.46a4.14,4.14,0,0,0-.91-2.82,3.53,3.53,0,0,0-2.85-1.06,4.05,4.05,0,0,0-2.7.82,2.8,2.8,0,0,0-1,2.26h-6.8a6.74,6.74,0,0,1,.77-3.13,7.82,7.82,0,0,1,2.17-2.58,10.86,10.86,0,0,1,3.41-1.75,14.19,14.19,0,0,1,4.47-.65,14.39,14.39,0,0,1,4.09.56,9.32,9.32,0,0,1,3.24,1.68,7.71,7.71,0,0,1,2.13,2.8,9.39,9.39,0,0,1,.77,3.92v10.76c0,.73,0,1.37.07,1.94s.11,1.09.18,1.56a9,9,0,0,0,.31,1.24,7.06,7.06,0,0,0,.45,1v.4ZM236.92,197a5.86,5.86,0,0,0,1.61-.21,5.53,5.53,0,0,0,1.33-.55,4.78,4.78,0,0,0,1-.79,4.15,4.15,0,0,0,.7-.92v-4.37h-2.8a8.48,8.48,0,0,0-2.33.29,4.42,4.42,0,0,0-1.62.83,3.3,3.3,0,0,0-.94,1.24,4,4,0,0,0-.31,1.57,2.72,2.72,0,0,0,.9,2.09A3.45,3.45,0,0,0,236.92,197Z"/><path class="cls-2" d="M261.75,170v6.26h4.35v5h-4.35V194a4.85,4.85,0,0,0,.16,1.32,1.68,1.68,0,0,0,1.31,1.21,5.43,5.43,0,0,0,1.14.1c.41,0,.78,0,1.12,0s.63-.07.88-.12v5.15a16.85,16.85,0,0,1-1.85.43,12.82,12.82,0,0,1-2.27.18,10.43,10.43,0,0,1-3-.41,5.58,5.58,0,0,1-3.76-3.64,10.29,10.29,0,0,1-.51-3.45V181.26h-3.72v-5H255V170Z"/><path class="cls-2" d="M281.83,169.7a3.36,3.36,0,0,1,1-2.52,3.84,3.84,0,0,1,2.79-1,4.57,4.57,0,0,1,1.57.26,3.45,3.45,0,0,1,1.2.73,3.25,3.25,0,0,1,.77,1.12,3.57,3.57,0,0,1,.27,1.4,3.67,3.67,0,0,1-.27,1.42,3.21,3.21,0,0,1-.77,1.11,3.31,3.31,0,0,1-1.2.73,4.35,4.35,0,0,1-1.57.26,4.4,4.4,0,0,1-1.58-.26,3.31,3.31,0,0,1-1.2-.73,3.18,3.18,0,0,1-.76-1.11A3.67,3.67,0,0,1,281.83,169.7Zm7.22,32h-6.82V176.28h6.82Z"/><path class="cls-2" d="M308.42,194.69a2.31,2.31,0,0,0-.21-1,2.15,2.15,0,0,0-.8-.83,7.11,7.11,0,0,0-1.6-.74,19.78,19.78,0,0,0-2.61-.69,25.14,25.14,0,0,1-3.61-1.05,11.4,11.4,0,0,1-2.87-1.58,7.14,7.14,0,0,1-1.89-2.19,6,6,0,0,1-.68-2.89,6.93,6.93,0,0,1,.69-3,7.68,7.68,0,0,1,2-2.53,9.88,9.88,0,0,1,3.2-1.73,13.45,13.45,0,0,1,4.27-.63,14.94,14.94,0,0,1,4.44.61,10.35,10.35,0,0,1,3.35,1.7,7.65,7.65,0,0,1,2.12,2.6A7.42,7.42,0,0,1,315,184h-6.8a3.29,3.29,0,0,0-.94-2.41,5,5,0,0,0-5.59-.17,2.43,2.43,0,0,0-.94,2,2,2,0,0,0,.24,1,2.44,2.44,0,0,0,.8.8,6.48,6.48,0,0,0,1.46.67,17.63,17.63,0,0,0,2.22.57,29.27,29.27,0,0,1,3.83,1,11.44,11.44,0,0,1,3.05,1.52,6.88,6.88,0,0,1,2,2.26,6.62,6.62,0,0,1,.73,3.21,6.48,6.48,0,0,1-.76,3.11,7.17,7.17,0,0,1-2.15,2.46,10.67,10.67,0,0,1-3.37,1.62,15.55,15.55,0,0,1-4.42.59,13.73,13.73,0,0,1-4.73-.75,10.94,10.94,0,0,1-3.44-2,8.05,8.05,0,0,1-2.1-2.75,7.14,7.14,0,0,1-.71-3.08h6.44a3.84,3.84,0,0,0,.44,1.7,3.3,3.3,0,0,0,1,1.17,4.29,4.29,0,0,0,1.47.66,7.11,7.11,0,0,0,1.75.21,5,5,0,0,0,2.95-.74A2.3,2.3,0,0,0,308.42,194.69Z"/><path class="cls-2" d="M338.79,147.13c.59,0,2.53,0,5.82-.1s5.9-.11,7.82-.11h5a30.46,30.46,0,0,1,3.8.14,2.17,2.17,0,0,1,1.2.55,2.48,2.48,0,0,1,.76,1.92,2.73,2.73,0,0,1-.42,1.44,13.7,13.7,0,0,1-1.91,2.19l-2.33,2.47h-7.47q-7.33,0-9.8.27l-2.27.21v14.53c2.11,0,5.28,0,9.53-.14s7.45-.14,9.59-.14l1.51,1.51a8.67,8.67,0,0,1,1.3,1.51,3.74,3.74,0,0,1,0,2.84,7.08,7.08,0,0,1-1.23,1.47l-1.44,1.51h-8.84q-8.43,0-9.66.21c-.37.09-.58.44-.65,1.06s-.11,2.73-.11,6.34V194h19.26l2.47,2.4a15,15,0,0,1,2,2.23,2.66,2.66,0,0,1,.42,1.47,2.93,2.93,0,0,1-.62,1.92,4,4,0,0,1-2.33.59c-1.23.06-5.26.14-12.06.24h-5.76c-5.34,0-8.2,0-8.56-.14s-.64-.57-.83-1.3-.34-1-.75-1a2.21,2.21,0,0,1-1.3-.62,2.8,2.8,0,0,1-.65-1.95q-.1-1.47-.11-9.56V177.42l2.33-2.33L331.39,174c-.5-.48-.89-.83-1.17-1.06V162.07q0-7.6.11-9.32a3.59,3.59,0,0,1,.58-2.19,1.83,1.83,0,0,1,1.3-.62c.46,0,.69-.21.69-.62a2.25,2.25,0,0,1,.82-1.37,2.69,2.69,0,0,1,1.4-.61A36.71,36.71,0,0,1,338.79,147.13Z"/><path class="cls-2" d="M372.09,149.53a2.59,2.59,0,0,1,1.65-.62q1.78,0,4.39,2.81l1.71,1.85v41.12h19.87l1.92,1.71q2.75,2.68,2.74,4.12a2.76,2.76,0,0,1-1,1.91l-1,1H375.73l-1-1q-1-1-1-1.5c0-.37-.23-.55-.69-.55a1.69,1.69,0,0,1-1.3-.89,5.24,5.24,0,0,1-.58-2.64c-.07-1.35-.1-5.08-.1-11.21V174.41l.13-24.2Z"/><path class="cls-2" d="M414,148.84c1.1-1.09,2-1.64,2.68-1.64a4.78,4.78,0,0,1,2.74,1.57l1.71,1.58v48.93l-1.71,1.58a4.78,4.78,0,0,1-2.74,1.57c-.69,0-1.58-.54-2.68-1.64l-1.64-1.65V150.49Z"/></g><path class="cls-2" d="M499,1153l-45.11-42.67-130.3-.21-14.38,0h0l-41.53-.06,106.08.17,5.07-106.1.24-5,2.35-49.35-15.49,0h0l-16.83,0-41-.07-2.53-41.7H304l-11.19,0-72-.11-10.53,0H208l5.35,41.7-71.47-.12,2.07,46.5.28,6.54L149,1109.83l-70.27-.12-38.57,42.54L44.08,1335l26.25,31.5,390.58.62,25.22-31.41,10.59-150.28h.18l.05-3.15h0ZM221.5,919.51l72.79.12,3.85,29.94-74.82-.12Z"/><polyline class="cls-2" points="453.89 1110.32 357.42 1110.32 358.86 1111.03 453.27 1112.35 496.96 1152.99 499 1152.99 453.89 1110.32"/><polyline class="cls-2" points="381.42 949.71 379.07 949.71 373.43 1110.18 373.76 1110.19 381.42 949.71"/><g class="cls-5"><circle class="cls-2" cx="116.26" cy="57.72" r="49.68"/><circle class="cls-2" cx="121.35" cy="72.61" r="34.8"/><path class="cls-2" d="M118.39,37.81H41l9.54,23.81s23.11,2.77,67.86,2.77,67.86-2.76,67.86-2.76l9.54-23.8Z"/><path class="cls-2" d="M186.25,61.62l9.54-23.8h-19.5c-2.72,7.69-6.49,17.13-9.88,25.34C179.55,62.42,186.25,61.62,186.25,61.62Z"/><path class="cls-2" d="M50.53,61.61s10.54,1.26,31.16,2.08a196.67,196.67,0,0,1-10-25.88H41Z"/><path class="cls-2" d="M153.18,63.77c2.5-.09,4.85-.19,7.07-.29,3.18-7.24,7.22-16.86,10.6-25.66h-3.14A126.2,126.2,0,0,1,153.18,63.77Z"/><rect class="cls-2" x="14.8" y="0.07" width="204.45" height="11.63"/><path class="cls-2" d="M116.65,6.7,10,6.68l13.13,32.8S55,43.29,116.64,43.3s93.49-3.8,93.49-3.8L223.28,6.71Z"/><path class="cls-2" d="M210.13,39.5,223.28,6.71H196.42c-3.76,10.58-8.95,23.6-13.62,34.91C200.91,40.6,210.13,39.5,210.13,39.5Z"/><path class="cls-2" d="M23.15,39.48s14.53,1.74,42.93,2.87A270.45,270.45,0,0,1,52.31,6.69H10Z"/><path class="cls-2" d="M164.57,42.46q5.16-.2,9.75-.4c4.37-10,9.94-23.23,14.6-35.35h-4.33A172.88,172.88,0,0,1,164.57,42.46Z"/><path class="cls-2" d="M125,77.31A15.55,15.55,0,0,1,138.71,90c0,.12,0,.23,0,.34v0c0,.31.08.62.1.94l56.22,245.09-16.75,5.93L108.48,92.5C107.91,84,116.48,76.44,125,77.31Z"/><g class="cls-5"><path class="cls-2" d="M120.44,77.62l63.12,262.85-5.23,1.85L108.48,92.5C108,85.52,113.68,79.2,120.44,77.62Z"/></g><circle class="cls-2" cx="196.99" cy="341.37" r="28.55"/><path class="cls-2" d="M211,316.48a28.56,28.56,0,0,1-.49,50c-.69,0-1.38,0-2.08-.12A25,25,0,0,1,211,316.48Z"/><ellipse class="cls-2" cx="179.25" cy="352.59" rx="3.7" ry="4.94" transform="translate(-147.34 129.45) rotate(-28.71)"/><path class="cls-2" d="M197.48,343.21A15.54,15.54,0,0,1,205,326.12l.3-.16h0l.86-.4L361,259l11.1,13.88-154.83,81C209.38,357.19,199.45,351.57,197.48,343.21Z"/><g class="cls-5"><path class="cls-2" d="M199.27,347.44l169.34-78.92,3.47,4.33-154.83,81C210.81,356.59,203,353.31,199.27,347.44Z"/></g><path class="cls-2" d="M365.61,245.19a12.34,12.34,0,0,1,12.27,8.33l.09.25h0c.07.24.13.49.19.74L407.92,385l-12.44,6.66-41-132.58C353,252.48,358.8,245.53,365.61,245.19Z"/><g class="cls-5"><path class="cls-2" d="M362.05,246,399.36,389.6l-3.88,2.08-41-132.58C353.24,253.68,356.94,248,362.05,246Z"/></g><polygon class="cls-2" points="413.83 312.94 411.33 300.58 377.25 297.08 353.17 311.54 357.67 321.99 413.83 312.94"/><polygon class="cls-2" points="413.83 312.94 411.33 300.58 377.25 297.08 353.17 311.54 357.67 321.99 413.83 312.94"/><path class="cls-2" d="M481.67,345.93s-40-42.8-99.85-32-79.33,75.94-79.33,75.94l178.18-34.21Z"/><path class="cls-2" d="M503,358l-21.35-12s-33.38-10.34-175.26,33.72l-24.87,26.1,9.17,18.17s31.68,17.77,105.55,8.3S501.89,381.1,501.89,381.1Z"/><path class="cls-2" d="M503,358l-33.09.3s0-21-141.9,23.09l-46.49,24.41,9.17,18.17s31.68,17.77,105.55,8.3S501.89,381.1,501.89,381.1Z"/><path class="cls-2" d="M476.46,365.45l25.43,15.65L503,358,479,351s-89.72-23.87-165.75,30.41l-31.72,24.33,9.17,18.17,23.87-24.3S376.71,350.63,476.46,365.45Z"/><path class="cls-2" d="M481.67,345.93h0l-35.4-9.44s-18.32-14.14-53.6-24C446.44,308.26,481.67,345.93,481.67,345.93Z"/><path class="cls-2" d="M300.09,443.66c3.62-23.18,40-46.43,98.92-58S508,386.34,515,410.6L519.42,460l-205.6,37.4S302.37,451.2,300.09,443.66Z"/><path class="cls-2" d="M312.19,422.85C327.91,407.44,358,393.72,399,385.66c58.93-11.58,109,.68,115.94,24.94L519.42,460l-4.41.8L509.85,423a29.5,29.5,0,0,0-22-24.62C455.63,390.19,387.13,381.23,312.19,422.85Z"/><path class="cls-2" d="M505.9,397.63c4.54,3.79,7.67,8.14,9.05,13L519.42,460l-2.47.45c-2-14.81-4.43-29.6-7-44.28C509,410,507.48,403.84,505.9,397.63Z"/><path class="cls-2" d="M308.61,426.66c6.14-7.2,15.37-14.11,27.36-20.34,4.73,6.74,9.35,13.54,14.11,20.1,14.13,19.31,29,38,44.43,56.31L332.57,494c-6.32-16.22-12.08-32.67-17.74-49.11C312.81,438.86,310.7,432.78,308.61,426.66Z"/><path class="cls-2" d="M519.05,457.11c5.21,26.54-36.51,57.07-93.18,68.2S319,524,313.82,497.41s36.51-57.07,93.18-68.2S513.83,430.57,519.05,457.11Z"/><path class="cls-2" d="M407,429.21c41.48-8.15,79.45-3.63,98.88,9.78a106.45,106.45,0,0,0-23.6-4.82c-33.92-2.65-69.55,7.45-98.41,24.49C363.5,470.33,336.57,493,348,519.6a50.76,50.76,0,0,0,3.24,6c-20.65-5-34.79-14.81-37.43-28.23C308.61,470.87,350.33,440.34,407,429.21Z"/><path class="cls-2" d="M418.67,439.53c.51,4-5.83,8-14.15,9.11s-15.48-1.28-16-5.24,5.83-8,14.15-9.11S418.16,435.57,418.67,439.53Z"/><path class="cls-2" d="M418.67,439.53a3.63,3.63,0,0,0-.43-1.26c.07,3.84-6.1,7.69-14.15,8.72-7.39.95-13.85-.8-15.57-4,0,.13,0,.26,0,.39.51,4,7.67,6.31,16,5.24S419.18,443.5,418.67,439.53Z"/><path class="cls-2" d="M513.12,460.61c.5,4-5.83,8.05-14.15,9.11s-15.48-1.28-16-5.24,5.83-8,14.15-9.11S512.61,456.65,513.12,460.61Z"/><path class="cls-2" d="M513.12,460.61a3.63,3.63,0,0,0-.43-1.26c.07,3.84-6.1,7.69-14.15,8.73-7.39.94-13.86-.8-15.57-4,0,.12,0,.25,0,.38.51,4,7.67,6.31,16,5.24S513.62,464.58,513.12,460.61Z"/><path class="cls-2" d="M349.08,498.81c.51,4-5.82,8-14.14,9.11s-15.48-1.28-16-5.24,5.83-8,14.15-9.11S348.58,494.85,349.08,498.81Z"/><path class="cls-2" d="M349.08,498.81a3.41,3.41,0,0,0-.42-1.26c.07,3.84-6.1,7.69-14.15,8.72-7.4,1-13.86-.8-15.57-4a2.54,2.54,0,0,0,0,.39c.51,4,7.67,6.31,16,5.24S349.59,502.78,349.08,498.81Z"/><path class="cls-2" d="M437.32,515.77c.32,2.53-3.72,5.14-9,5.82s-9.88-.82-10.2-3.35,3.72-5.13,9-5.81S437,513.24,437.32,515.77Z"/><path class="cls-2" d="M437.32,515.77a2.3,2.3,0,0,0-.27-.8c0,2.45-3.9,4.91-9,5.57-4.72.6-8.84-.52-9.94-2.54,0,.08,0,.16,0,.24.32,2.53,4.89,4,10.2,3.35S437.64,518.3,437.32,515.77Z"/><path class="cls-2" d="M480.23,472.08c2.62,16.92-24.05,35.07-59.56,40.55s-66.41-3.79-69-20.7,24-35.06,59.56-40.54S477.62,455.17,480.23,472.08Z"/><path class="cls-2" d="M480.23,472.08a15.46,15.46,0,0,0-2-5.36c.72,16.43-25.28,33.6-59.64,38.91-31.54,4.86-59.39-1.92-67.06-15.34a12.78,12.78,0,0,0,.08,1.64c2.6,16.91,33.51,26.18,69,20.7S482.85,489,480.23,472.08Z"/><path class="cls-2" d="M398,477.36s13.38-11.61,31.39-5.25l1.79,11.37s-6.53,5.9-13.84,7-16.53-1.94-16.53-1.94Z"/><path class="cls-2" d="M421.53,470.36c.12,1,.22,1.91.27,2.79.42,5.17.64,10.4,1,15.64a21.7,21.7,0,0,1-5.52,1.68,23.5,23.5,0,0,1-2.54.22c-2.26-6.2-5-12.35-7.86-18.34A32.39,32.39,0,0,1,421.53,470.36Z"/><path class="cls-2" d="M400.78,488.53s9.22,3,16.53,1.94,13.84-7,13.84-7C413.23,480.07,400.78,488.53,400.78,488.53Z"/><path class="cls-2" d="M445.65,616.09,422.83,487.24a3.23,3.23,0,0,0-.06-.33c-.71-2.85-11-.28-10.32,2.57L440.73,616l.76,3.06,2.51-1.67Z"/><path class="cls-2" d="M444,617.37,441.49,619l-.76-3.06-28.28-126.5c-.27-1.1,1.09-2.15,2.9-2.87L443.6,613l.76,3.07"/><path class="cls-2" d="M452.66,620.19a8.62,8.62,0,1,1-7.69-9.45A8.62,8.62,0,0,1,452.66,620.19Z"/></g></g></g></svg>