<?xml version="1.0" encoding="utf-8"?>
<!-- Generator: Adobe Illustrator 24.0.2, SVG Export Plug-In . SVG Version: 6.00 Build 0)  -->
<svg version="1.1" xmlns="http://www.w3.org/2000/svg" xmlns:xlink="http://www.w3.org/1999/xlink" x="0px" y="0px"
	 viewBox="0 0 1982.6 2048" enable-background="new 0 0 1982.6 2048" xml:space="preserve">
<g id="Layer_1">
	<g id="Layer_23">
	</g>
</g>
<g id="Layer_22">
</g>
<g id="Layer_21">
</g>
<g id="Layer_20">
</g>
<g id="Layer_19">
</g>
<g id="Layer_18">
</g>
<g id="Layer_17">
</g>
<g id="Layer_16">
</g>
<g id="Layer_15">
</g>
<g id="Layer_14">
</g>
<g id="Layer_13">
</g>
<g id="Layer_12">
</g>
<g id="Layer_11">
</g>
<g id="Layer_10">
</g>
<g id="Layer_9">
</g>
<g id="Layer_8">
</g>
<g id="Layer_7">
</g>
<g id="Layer_6">
</g>
<g id="Layer_5">
</g>
<g id="Layer_4">
	<path d="M1797.7,1167.4C1797.7,1167.4,1797.7,1167.4,1797.7,1167.4c-13-2.7-45.3-7.3-71.1,7.7
		c-16.1,9.5-26.7,24.8-31.4,45.6c-8.2,35.9,4.4,65.8,15.5,92.1c8.8,20.8,16.2,38.5,12.7,55.5c-1,5.3-3.1,10.5-6.5,15.8
		c-12.6,19.5-35.8,25.9-56.8,27.1l-7.6,0.2c0,0,0,0,0,0c5.2-16.8,9.3-34.7,12-53.8c1.2-8.4,2.3-17,3.3-25.7c0-0.2,0-0.3,0.1-0.5
		c0.2-1.9,0.4-3.8,0.7-5.7c0-0.3,0.1-0.7,0.1-1c0.2-1.9,0.4-3.9,0.6-5.8c0-0.3,0.1-0.6,0.1-0.9c0.2-1.9,0.4-3.7,0.6-5.6
		c0-0.4,0.1-0.8,0.1-1.2c0.2-1.9,0.4-3.7,0.6-5.6c0-0.4,0.1-0.8,0.1-1.3c0.2-1.9,0.3-3.7,0.5-5.6c0-0.5,0.1-0.9,0.1-1.4
		c0-0.4,0.1-0.9,0.1-1.3c0,0,0,0,0,0l0-0.2c0.1-1.4,0.3-2.8,0.4-4.3c0-0.4,0.1-0.8,0.1-1.2c0.2-2,0.3-4.1,0.5-6.1
		c0-0.3,0.1-0.6,0.1-0.9c0.2-2.1,0.3-4.2,0.5-6.3c0-0.3,0-0.5,0.1-0.8c0.2-2.2,0.3-4.5,0.5-6.7c0-0.1,0-0.3,0-0.4
		c0.1-1.4,0.2-2.9,0.3-4.3l0-0.3c0,0,0,0,0,0c0.1-0.8,0.1-1.5,0.2-2.3c0-0.1,0-0.2,0-0.3c0.2-2.3,0.3-4.7,0.5-7c0-0.1,0-0.1,0-0.2
		c6.3-101.1,4-215.4-7.2-325.4c0.1-0.3,0.3-0.6,0.5-0.8c1.5-1.4,3.1-2.5,4.8-3.2c2.3-0.9,4.8-1.3,6.7-1.5
		c11.6-0.7,24.5,6.7,24.5,6.7c2-39.8,52.6-17.1,52.6-17.1c-19.5-47.4,51.5-41.9,51.5-41.9c-23.3-43.3,60.3-59.1,60.3-59.1
		c-57.8-39.3-186.5-54.9-209.1-39.6c-15.8,10.6,18.8,45.8,3.2,84.3l-2.9,5.8c-22.4-163.4-65.3-308.6-129.2-374
		c0,0-56.3-48.8-174.2-98.3c7.9-70.3-30-138.6-30-138.6s-0.7,3-2.2,8.2c-0.1,0.3-0.2,0.6-0.3,0.9c-0.2,0.6-0.4,1.3-0.6,2
		c-0.1,0.2-0.1,0.3-0.2,0.5c-0.2,0.6-0.4,1.3-0.6,2c-0.4,1.5-0.9,3.2-1.5,4.9c-0.1,0.3-0.2,0.7-0.3,1c-6.5,21.2-18.7,56.5-37.2,91.5
		c-115.4-39.3-272.7-73.1-474.8-74.9c-13.7-0.1-27.3,1.9-40.4,5.9c-27.3,8.4-78,26.3-134.9,57.8c-27.6-17.6-54.5-38.1-68.2-58.1
		c-34.8-50.6-50.9-107.9-50.9-107.9S499,209.3,490,241.9c0,0.1,0,0.1,0,0.2c-0.8,3-1.6,6-2.3,9.1c0,0.2-0.1,0.3-0.1,0.5
		c-0.2,0.8-0.4,1.6-0.5,2.5c-0.1,0.3-0.1,0.5-0.2,0.8c-0.2,0.8-0.3,1.5-0.5,2.3c0,0.3-0.1,0.5-0.1,0.8c-0.2,0.9-0.3,1.8-0.5,2.8
		c0,0.1,0,0.2-0.1,0.3c-0.2,1-0.3,2.1-0.5,3.1c0,0.2-0.1,0.4-0.1,0.7c-0.1,0.8-0.2,1.6-0.3,2.4c0,0.3-0.1,0.7-0.1,1
		c-0.1,0.7-0.2,1.4-0.2,2.1c0,0.4-0.1,0.7-0.1,1.1c-0.1,0.7-0.1,1.5-0.2,2.2c0,0.3-0.1,0.7-0.1,1c-0.1,1-0.2,2.1-0.2,3.1
		c0,0.1,0,0.2,0,0.3c-0.1,0.9-0.1,1.9-0.1,2.8c0,0.4,0,0.7,0,1.1c0,0.7,0,1.4-0.1,2.1c0,0.4,0,0.8,0,1.2c0,0.7,0,1.4,0,2.1
		c0,0.4,0,0.8,0,1.2c0,0.8,0,1.6,0.1,2.4c0,0.3,0,0.5,0,0.8c0,1.1,0.1,2.1,0.2,3.2c0,0.3,0,0.6,0.1,0.9c0.1,0.8,0.1,1.6,0.2,2.4
		c0,0.4,0.1,0.8,0.1,1.2c0.1,0.7,0.1,1.4,0.2,2.1c0,0.4,0.1,0.8,0.1,1.2c0.1,0.7,0.2,1.5,0.3,2.2c0.1,0.4,0.1,0.7,0.2,1.1
		c0.2,1,0.3,2.1,0.5,3.1c0,0,0,0.1,0,0.1c3.6,20.1,10.9,42.8,20.1,64.5c0.1,0.3,0.2,0.5,0.3,0.8c0.8,1.8,1.5,3.6,2.3,5.4
		c0.6,1.3,1.1,2.5,1.7,3.7c0.9,1.9,1.7,3.8,2.6,5.7c1.5,3.1,3,6.2,4.5,9.2c0,0,0,0,0,0c1.3,2.6,2.6,5.1,3.9,7.6
		c0.4,0.8,0.8,1.5,1.2,2.3c2.6,4.9,5.3,9.6,8.1,14.1c-53.7,45.4-104,104.7-137.2,181L370,588.5l-9,51.8l-7.3,42l0,0l0,0l13.6-5.9
		l0.8-0.3c-5,19.8-8.9,40.5-11.5,62.2c-8.1,66.2-11.8,131.3-12.5,193.4c-7.6,2.2-15.8,4.1-24.4,5.6l-29.4-234.3l35.9-4.9l-60.4-69.4
		l0,0l-2.1-2.4l-1.6,3.5l-39.2,82.6h0l0,0l31.4-4.3l4.6-0.6l29.4,233.9c-1.6,0.1-3.1,0.2-4.6,0.3c0.1,0,0.2,0.1,0.2,0.1c0,0,0,0,0,0
		c-50.7,2.9-87.9-9.5-110.8-36.9c-49.7-59.6-23.8-174.8-15-207.5l35.3,5.5L154.1,616l-63.8,70.7l36.1,5.6c-0.1,0.4-0.2,0.9-0.4,1.4
		c-0.1,0.5-0.3,1.1-0.4,1.6c-0.1,0.4-0.2,0.8-0.3,1.3c-0.1,0.4-0.2,0.8-0.3,1.1c-0.1,0.4-0.2,0.9-0.3,1.3c-0.1,0.4-0.2,0.8-0.3,1.2
		c-0.1,0.5-0.2,0.9-0.3,1.4c-0.1,0.4-0.2,0.8-0.3,1.2c-0.1,0.5-0.3,1.1-0.4,1.6c-0.1,0.4-0.2,0.7-0.3,1.1c-0.2,0.7-0.3,1.5-0.5,2.3
		c-0.1,0.3-0.1,0.5-0.2,0.8c-0.2,0.9-0.4,1.8-0.6,2.7c-0.1,0.4-0.2,0.7-0.2,1.1c-0.1,0.7-0.3,1.3-0.4,2c-0.1,0.4-0.2,0.9-0.3,1.3
		c-0.1,0.7-0.3,1.3-0.4,2c-0.1,0.4-0.2,0.9-0.3,1.3c-0.1,0.7-0.3,1.4-0.4,2.2c-0.1,0.4-0.2,0.8-0.2,1.2c-0.2,0.9-0.3,1.8-0.5,2.7
		c0,0.3-0.1,0.5-0.1,0.8c-0.2,1.2-0.4,2.4-0.6,3.6c-0.1,0.3-0.1,0.6-0.2,0.9c-0.2,0.9-0.3,1.8-0.5,2.8c-0.1,0.4-0.1,0.9-0.2,1.3
		c-0.1,0.8-0.3,1.7-0.4,2.5c-0.1,0.5-0.1,0.9-0.2,1.4c-0.1,0.9-0.3,1.7-0.4,2.6c-0.1,0.5-0.1,0.9-0.2,1.4c-0.1,1-0.3,2-0.4,3
		c0,0.3-0.1,0.7-0.1,1c-0.2,1.4-0.4,2.7-0.6,4.1c0,0.1,0,0.3-0.1,0.4c-0.2,1.2-0.3,2.4-0.5,3.7c-0.1,0.4-0.1,0.9-0.2,1.3
		c-0.1,1-0.2,1.9-0.3,2.9c-0.1,0.5-0.1,1-0.2,1.5c-0.1,1-0.2,1.9-0.3,2.9c0,0.5-0.1,1-0.1,1.4c-0.1,1-0.2,2.1-0.3,3.1
		c0,0.4-0.1,0.8-0.1,1.2c-0.3,2.9-0.5,5.9-0.7,8.9c0,0.4,0,0.8-0.1,1.2c-0.1,1.1-0.1,2.2-0.2,3.3c0,0.5,0,1-0.1,1.5
		c0,1-0.1,2.1-0.1,3.1c0,0.5,0,1-0.1,1.5c0,1.1-0.1,2.1-0.1,3.2c0,0.5,0,0.9,0,1.4c0,1.3-0.1,2.7-0.1,4c0,0.2,0,0.4,0,0.6
		c0,1.6,0,3.1,0,4.7c0,0.3,0,0.6,0,0.9c0,1.2,0,2.5,0,3.7c0,0.5,0,1,0,1.5c0,1.1,0.1,2.2,0.1,3.2c0,0.5,0,1.1,0.1,1.6
		c0,1.1,0.1,2.1,0.1,3.2c0,0.5,0,1,0.1,1.5c0.1,1.2,0.1,2.4,0.2,3.7c0,0.3,0,0.7,0.1,1c0.1,1.6,0.2,3.2,0.4,4.8c0,0.2,0,0.3,0,0.5
		c0.1,1.4,0.3,2.8,0.4,4.2c0,0.5,0.1,0.9,0.2,1.4c0.1,1.1,0.3,2.2,0.4,3.3c0.1,0.5,0.1,1.1,0.2,1.6c0.1,1,0.3,2.1,0.4,3.1
		c0.1,0.5,0.2,1.1,0.2,1.6c0.2,1.1,0.3,2.2,0.5,3.4c0.1,0.4,0.1,0.9,0.2,1.3c0.5,3.1,1.1,6.2,1.8,9.3c0.1,0.4,0.2,0.9,0.3,1.3
		c0.2,1.1,0.5,2.2,0.8,3.3c0.1,0.5,0.3,1.1,0.4,1.6c0.3,1,0.5,2,0.8,3c0.1,0.5,0.3,1.1,0.4,1.6c0.3,1,0.6,2.1,0.9,3.1
		c0.1,0.5,0.3,1,0.4,1.5c0.4,1.2,0.8,2.5,1.2,3.7c0.1,0.2,0.2,0.5,0.2,0.7c0.5,1.5,1,3,1.5,4.4c0.1,0.4,0.3,0.7,0.4,1.1
		c0.4,1.1,0.8,2.2,1.2,3.3c0.2,0.5,0.4,1,0.6,1.5c0.4,1,0.8,1.9,1.2,2.8c0.2,0.5,0.5,1.1,0.7,1.6c0.4,0.9,0.8,1.9,1.3,2.8
		c0.2,0.5,0.5,1,0.7,1.5c0.5,1,1,2.1,1.5,3.1c0.2,0.4,0.4,0.7,0.5,1.1c0.7,1.4,1.4,2.8,2.2,4.1c0.1,0.2,0.3,0.5,0.4,0.7
		c0.6,1.1,1.3,2.2,1.9,3.3c0.3,0.4,0.5,0.9,0.8,1.3c0.5,0.9,1.1,1.8,1.7,2.6c0.3,0.5,0.6,1,1,1.4c0.6,0.8,1.1,1.7,1.7,2.5
		c0.3,0.5,0.7,0.9,1,1.4c0.6,0.9,1.3,1.7,1.9,2.6c0.3,0.4,0.6,0.8,0.9,1.2c1,1.2,1.9,2.5,2.9,3.7c1,1.2,2,2.4,3.1,3.5
		c0.4,0.4,0.7,0.8,1.1,1.2c0.7,0.8,1.4,1.5,2.1,2.2c0.5,0.5,0.9,0.9,1.4,1.4c0.6,0.6,1.2,1.2,1.9,1.9c0.5,0.5,1.1,1,1.6,1.5
		c0.6,0.5,1.2,1.1,1.8,1.6c0.6,0.5,1.2,1,1.8,1.5c0.6,0.5,1.1,1,1.7,1.4c0.6,0.5,1.3,1.1,2,1.6c0.5,0.4,1.1,0.8,1.6,1.2
		c0.7,0.5,1.4,1.1,2.1,1.6c0.5,0.4,1,0.7,1.5,1.1c0.8,0.6,1.6,1.1,2.4,1.6c0.4,0.3,0.9,0.6,1.3,0.9c0.9,0.6,1.7,1.1,2.6,1.7
		c0.4,0.2,0.7,0.4,1.1,0.6c1,0.6,2,1.2,3,1.8c0.2,0.1,0.4,0.2,0.6,0.4c28.5,16.2,65,22.6,109.1,19.1l16.7,133
		c-14.4,25.5-29.3,55.9-44.1,91.5c-19,45.7-23.2,88.1-17.8,122.6c-1.8,3.6-2.9,7.3-2.9,11l23.5,81.8l25.8,52.1l14.9-33.8l30.9,37.2
		l2.3-37.8l8.8,4.1l37.7,299.9c1.1,8.7,9.1,14.9,17.8,13.8l0,0c8.7-1.1,14.9-9.1,13.8-17.8l-40.2-319.8l15.3,1.7
		c1.8,7.9,2.9,12,2.9,12s19.2,137.7,335,205.1l-2.7,55.6l-2.8-0.2l-3.2,44.8c-54.7-1.7-100.4,45.6-124.4,77.7
		c-24,32-20.3,30.1-20.3,30.1l244.6-21.5l7.4-122.5l-9.1-0.7c0.3-15.1,0.5-30.3,1.1-44.7c29.3,5.8,68.2,13,110.7,19.6l-0.7,60.2
		l-7.6-0.2l0.3,58.1c-42.6,48.4-77.2,143.7-77.2,143.7c117.6-20,193.6-100.9,193.6-100.9v-44.1v-53.9l-8.6-0.2
		c0.6-17,1.2-34.1,1.6-49.5c58.8,5.8,115.4,7.8,155.7,1c69.1-11.6,191.1-27.1,294.4-81.3l30.5,3.3l-6.3,15.5l37.8-12.6
		c49.8-18.6,86.4-107.6,86.4-107.6l-2.7-36.3c5.8-10.8,10.9-22.3,15.5-34.3c2.9,0.1,5.9,0.1,9,0h0.1l0,0c16.3-0.4,34.5-3.3,50.3-12
		c9.7-5.3,18.5-12.8,25.2-23.2c2.1-3.3,3.9-6.5,5.2-9.8c11.3-26.5,0.5-52.3-10.1-77.4c-10.6-25.2-21.5-51.2-14.6-81.7
		c3.6-16,11.5-27.7,23.4-34.7l1.3-0.7c20.3-11.2,46.9-7.2,57.5-5c0,0,0,0,0,0l-5.4,24.8l55.2-21.1l-41.4-42.1L1797.7,1167.4z
		 M381.2,1374.3l-9.4-23.9l9.7-0.7c4.3,22.5,8.1,40.4,11,53.1L381.2,1374.3z M367.7,1309.7l-1.5-3.4l-11.1-88.4
		c1.4-3.3,3-6.5,4.6-9.7c1.7,14.5,3.6,28.4,5.4,41.8c0,0,0,0,0,0l0,0.1c1.3,9.1,2.6,17.8,3.8,26.3l0,0.2c0,0,0,0,0,0
		c2.3,14.8,4.5,28.8,6.8,41.7L367.7,1309.7z M287.9,941.4c-0.1,0-0.2,0-0.4,0C287.7,941.4,287.8,941.4,287.9,941.4z M323.8,968.9
		c7-1.2,13.8-2.6,20.3-4.3c0.2,28.7,0.9,56.7,2.2,83.8c-3.5,4.5-7,9.4-10.7,14.6L323.8,968.9z"/>
</g>
<g id="Layer_3">
</g>
<g id="Layer_2">
</g>
</svg>
