<?xml version="1.0" encoding="utf-8"?>
<!-- Generator: Adobe Illustrator 24.0.2, SVG Export Plug-In . SVG Version: 6.00 Build 0)  -->
<svg version="1.1" xmlns="http://www.w3.org/2000/svg" xmlns:xlink="http://www.w3.org/1999/xlink" x="0px" y="0px"
	 viewBox="0 0 1982.6 2048" enable-background="new 0 0 1982.6 2048" xml:space="preserve">
<g id="Layer_1">
	<g id="Layer_23">
	</g>
</g>
<g id="Layer_22">
</g>
<g id="Layer_21">
</g>
<g id="Layer_20">
</g>
<g id="Layer_19">
</g>
<g id="Layer_18">
</g>
<g id="Layer_17">
</g>
<g id="Layer_16">
</g>
<g id="Layer_15">
</g>
<g id="Layer_14">
</g>
<g id="Layer_13">
</g>
<g id="Layer_12">
</g>
<g id="Layer_11">
</g>
<g id="Layer_10">
</g>
<g id="Layer_9">
</g>
<g id="Layer_8">
</g>
<g id="Layer_7">
</g>
<g id="Layer_6">
</g>
<g id="Layer_5">
	<g>
		<rect x="262.7" y="889.5" opacity="0.3" width="4.9" height="4.9"/>
		<path d="M1678.6,1047.9l0.3-29c-1.6-0.2-3.2-0.4-4.8-0.6c-12.6-221.6-60.2-445-144.2-530.9c0,0-157.4-136.4-496.8-184.3
			c7.1-2,14.2-5,21.1-9.1c45.8-26.9,68.3-79,57.8-97.9c-9.7-17.3-66.6-22.7-102.1,0.3c-45.5,29.4-55.9,69.1-44.8,94
			c-1.2,1.4-2.4,2.8-3.6,4.2c-7.7-0.7-15.5-1.4-23.4-2.1c2.7-30.8-22.6-77.6-61.1-99.7c-29.1-16.7-98.8-16.2-107.5,5.1
			c-7.9,19.1,3,58,34.5,88.9c-12,0.3-24,2.3-35.5,5.8c-81.7,25-372.8,135.2-411,442.8c-17.6,17.6-32.1,38.3-42.7,61.4h-18V792H292
			v-4.9H101.9v4.9H97v4.9H77.5v4.9h-4.9v4.9h-4.9v43.9h4.9v4.9h4.9v4.9h4.9v4.9h185.2v24.4h4.9h4.9v-4.9h4.9v-4.9h4.9v-4.9h4.9v-9.7
			h4.4c-0.7,6.9-1,14-1,21.1c0,31.7,6.9,61.7,19.1,88.6l-189.2-83.1l0,0c-1.5-0.7-3.1-1.1-4.6-1.3c-0.1,0-0.2,0-0.3,0
			c-8-0.8-15.2,4.8-16.8,12.3c-0.6,2.8-0.5,5.8,0.7,8.9l12.5,33.3l4.8,12.7l0,0l57.4,152.6l7.3,7.5l76.9,82.2
			c-44.8,113.6,1.9,205.4,57.5,204.7c56.5-0.7,40.9-38.2,45.8-67c4.9-28.7-20.5-41.5-20.5-41.5c-0.8-3.2-1.4-6.4-1.9-9.6l33.4,35.7
			c11.1,63,20.7,100.1,20.7,100.1s19.2,137.5,334.4,204.9l-3.6,74.5c-3,2.1-6.2,4.8-7.1,8.5c0,0,0,0,0,0c-0.8,1.2-1.5,2.4-2.1,3.7
			c-3,6.1-6.3,10.9-9.7,14.9c-0.4-0.1-0.9-0.2-1.3-0.2c-1.1-0.2-2.2,0.6-2.4,1.8c-0.1,0.7,0.1,1.4,0.6,1.8c-3.3,3.3-6.8,5.9-10.3,8
			c-0.9-0.2-1.9-0.4-2.8-0.5c-1.1-0.2-2.2,0.6-2.4,1.8c-0.1,0.5,0,1,0.2,1.4c-4.1,2-8.2,3.4-12.1,4.6c-13.4,4.3-24.7,7.1-28.3,24.7
			c0.1,0.9,0.3,1.8,0.4,2.6c-0.2-0.9-0.3-1.7-0.4-2.6c-0.1,0.4-0.2,0.8-0.2,1.3c-0.4,2.1-0.5,4.2-0.4,6.3
			c2.6,53.5,82.2,53.4,155.7,22.6c0.5-0.2,1-0.4,1.5-0.7c14.5-7.5,23.6-22,27.9-38.6c1.4-5.4,2.3-11,2.7-16.7
			c0.4-5.7,0.3-11.4-0.2-17c-0.1-1.4-0.3-2.8-0.5-4.2c-0.2-1.1-0.4-2.2-0.7-3.3c-2.6-9.2-8-16.7-15.1-22.4c1.1,1.2,2.1,2.4,3,3.7
			c-0.9-1.2-1.9-2.5-3-3.7c0,0-0.1-0.1-0.1-0.1c0.4-17.9,0.6-36.3,1.3-53.6c29.2,5.8,68.1,13,110.6,19.6l-1.1,91.1
			c-1.7,1.8-3.3,3.6-4.8,5.6c-2.5,3.2-7.2,8.1-6.8,13.5c0,0,0,0,0,0c-0.4,1.4-0.7,2.9-1,4.3c-1.1,6.9-2.9,12.7-5,17.7
			c-0.5,0.1-0.9,0.1-1.4,0.2c-1.2,0.2-2,1.3-1.8,2.5c0.1,0.7,0.5,1.3,1.1,1.6c-2.3,4.3-4.9,7.9-7.8,11.1c-1,0.1-2,0.2-3,0.4
			c-1.2,0.2-2,1.3-1.8,2.5c0.1,0.5,0.3,0.9,0.7,1.3c-3.5,3.2-7.2,5.9-10.7,8.3c-12,8.4-22.5,14.6-20.6,33.1c0.4,0.9,0.8,1.7,1.2,2.5
			c-0.4-0.8-0.8-1.6-1.2-2.5c0,0.4,0.1,0.9,0.2,1.3c0.3,2.2,0.8,4.3,1.6,6.4c19.2,52,98.8,27.5,162.6-25.6c0.4-0.4,0.9-0.7,1.3-1.1
			c12.1-11.9,16.7-29,15.8-46.7c-0.3-5.8-1.1-11.6-2.5-17.3c-1.4-5.7-3.2-11.4-5.5-16.8c-0.6-1.4-1.2-2.7-1.8-4
			c-0.5-1.1-1.1-2.1-1.7-3c-2-3.1-4.4-5.8-7-8.2c0.9-21.9,1.7-44.8,2.2-64.9c58.8,5.9,115.5,7.8,155.7,1.1
			c80.1-13.5,231.3-32.1,342-110.4c4.4,0.8,9.4,1.3,15.3,1.4c36.1,0.5,68.4-37.9,74.5-95.9c20.2-33.5,34.7-72.7,41.2-118.9
			c0.1-0.7,0.2-1.4,0.3-2c2.7-19.3,4.8-38.6,6.7-59.6c0,0,0,0,0,0l-0.3-0.1l0.1-1c0,0,0,0,0,0l1.8-22c0,0,0,0,0,0l0.7-8.3l0.2-0.1
			c4.3-62.4,5.2-130.1,2.7-198.9c1.5,0,2.3,0,2.3,0l0.1-12.3l0,0L1678.6,1047.9z M924.7,1784.3c-0.2,0.4-0.3,0.7-0.4,1.1
			C924.5,1785,924.6,1784.7,924.7,1784.3z M925.4,1782.9c-0.2,0.3-0.3,0.6-0.5,1C925.1,1783.5,925.3,1783.2,925.4,1782.9z
			 M924.2,1785.8c-0.2,0.5-0.3,1-0.5,1.6C923.8,1786.9,924,1786.4,924.2,1785.8z M925.7,1782.3c0.2-0.3,0.3-0.5,0.5-0.8
			C926,1781.8,925.9,1782.1,925.7,1782.3z M926.6,1780.9c0.1-0.2,0.2-0.4,0.4-0.5C926.9,1780.6,926.8,1780.7,926.6,1780.9z
			 M927.7,1779.5c0,0,0.1-0.1,0.1-0.1C927.7,1779.5,927.7,1779.5,927.7,1779.5z M896.8,1825.6c0.5,0,0.9,0.1,1.4,0.1
			C897.7,1825.7,897.2,1825.6,896.8,1825.6C896.8,1825.6,896.8,1825.6,896.8,1825.6z M901.4,1826.1
			C901.4,1826.1,901.4,1826.1,901.4,1826.1c-0.3,0-0.5-0.1-0.8-0.1C900.9,1826,901.1,1826.1,901.4,1826.1z M896.9,1881.5
			c-0.6-0.2-1.3-0.4-1.9-0.6C895.6,1881.1,896.3,1881.3,896.9,1881.5z M894.3,1880.7c-0.8-0.3-1.6-0.6-2.4-0.9
			C892.7,1880.1,893.5,1880.4,894.3,1880.7z M902.2,1882.6C902.2,1882.6,902.2,1882.7,902.2,1882.6c-0.6-0.1-1.2-0.2-1.8-0.3
			C901,1882.4,901.6,1882.5,902.2,1882.6z M900.1,1882.3c-0.9-0.2-1.7-0.4-2.5-0.6C898.4,1881.9,899.3,1882.1,900.1,1882.3z
			 M1009.1,1846.1c1.6-1.1,3.2-2.2,4.8-3.4C1012.3,1843.9,1010.7,1845,1009.1,1846.1C1009.1,1846.1,1009.1,1846.1,1009.1,1846.1z
			 M1021.1,1837.4c-1,0.8-2,1.5-3,2.2C1019.1,1838.9,1020.1,1838.1,1021.1,1837.4z M1017.3,1840.2c-0.9,0.7-1.8,1.4-2.8,2
			C1015.5,1841.6,1016.4,1840.9,1017.3,1840.2z M894.3,1825.4c-0.2,0-0.4,0-0.5,0C893.9,1825.4,894.1,1825.4,894.3,1825.4z
			 M891.9,1879.7c-0.7-0.3-1.5-0.6-2.2-1C890.4,1879.1,891.1,1879.4,891.9,1879.7z M871.7,1861.6c0.3,0.6,0.7,1.2,1,1.8
			C872.4,1862.8,872,1862.2,871.7,1861.6z M878,1870.3c-0.5-0.5-0.9-1-1.3-1.5C877.1,1869.3,877.5,1869.8,878,1870.3z M876.2,1868.2
			c-0.5-0.6-0.9-1.1-1.4-1.7C875.2,1867.1,875.7,1867.6,876.2,1868.2z M874.6,1866.2c-0.5-0.7-1-1.4-1.5-2.2
			C873.6,1864.7,874.1,1865.5,874.6,1866.2z M878.4,1870.7c0.6,0.6,1.2,1.2,1.8,1.7C879.6,1871.9,879,1871.3,878.4,1870.7z
			 M880.6,1872.8c0.5,0.4,1,0.9,1.5,1.3C881.6,1873.6,881.1,1873.2,880.6,1872.8z M889,1878.4c-0.6-0.3-1.1-0.6-1.7-0.9
			C887.9,1877.8,888.5,1878.1,889,1878.4z M886.8,1877.2c-0.7-0.4-1.4-0.8-2.1-1.3C885.4,1876.4,886.1,1876.8,886.8,1877.2z
			 M884.3,1875.7c-0.6-0.4-1.1-0.8-1.7-1.2C883.2,1874.9,883.8,1875.3,884.3,1875.7z M721.7,1720.6c-0.3,0.4-0.6,0.9-0.9,1.3
			C721.1,1721.5,721.4,1721,721.7,1720.6z M724.8,1717.2c-0.2,0.2-0.4,0.4-0.6,0.5C724.4,1717.6,724.6,1717.4,724.8,1717.2z
			 M728.2,1714.9c-0.1,0.1-0.2,0.1-0.4,0.2c0,0,0.1,0,0.1,0C728,1715,728.1,1714.9,728.2,1714.9z M725.4,1716.8
			c0.2-0.2,0.4-0.3,0.6-0.5C725.8,1716.4,725.6,1716.6,725.4,1716.8z M726.6,1715.9c0.2-0.1,0.4-0.3,0.6-0.4
			C727,1715.6,726.8,1715.7,726.6,1715.9z M723.7,1718.2c-0.2,0.2-0.4,0.4-0.6,0.6C723.3,1718.7,723.5,1718.5,723.7,1718.2z
			 M722,1720.2c0.2-0.3,0.4-0.5,0.6-0.8C722.4,1719.6,722.2,1719.9,722,1720.2z M826.1,1724.8c0.2-0.3,0.4-0.5,0.6-0.8
			C826.5,1724.3,826.3,1724.5,826.1,1724.8z M827.1,1723.5c0.2-0.3,0.3-0.6,0.5-0.8C827.4,1722.9,827.2,1723.2,827.1,1723.5z
			 M827.8,1722.1c0.2-0.3,0.3-0.6,0.4-0.9C828.1,1721.5,828,1721.8,827.8,1722.1z M828.5,1720.7c0.2-0.5,0.3-0.9,0.5-1.4
			C828.8,1719.8,828.7,1720.3,828.5,1720.7z M824.2,1726.9c0.1-0.1,0.2-0.2,0.3-0.3C824.4,1726.7,824.3,1726.8,824.2,1726.9z
			 M825.2,1725.8c0.1-0.1,0.3-0.3,0.4-0.4C825.5,1725.6,825.4,1725.7,825.2,1725.8z M821.3,1729.2c0.2-0.1,0.3-0.2,0.5-0.3
			C821.7,1729,821.5,1729.1,821.3,1729.2z M822.7,1728.1c0.1-0.1,0.2-0.2,0.3-0.3C823,1728,822.8,1728.1,822.7,1728.1z M686.6,1750
			c-0.4-0.2-0.9-0.4-1.3-0.6c0,0,0,0,0.1,0C685.8,1749.7,686.2,1749.9,686.6,1750z M683.1,1748.6c-0.2-0.1-0.3-0.1-0.5-0.2
			C682.7,1748.5,682.9,1748.6,683.1,1748.6z M652.5,1777.6c-0.2-0.6-0.3-1.3-0.4-1.9C652.2,1776.3,652.4,1776.9,652.5,1777.6z
			 M659.6,1792.2c-0.4-0.5-0.8-1-1.2-1.6C658.8,1791.2,659.2,1791.7,659.6,1792.2z M658,1790.1c-0.4-0.5-0.7-1.1-1-1.6
			C657.3,1789,657.6,1789.5,658,1790.1z M656.7,1788c-0.4-0.7-0.8-1.4-1.1-2.1C655.9,1786.6,656.3,1787.3,656.7,1788z M655.3,1785.4
			c-0.3-0.6-0.5-1.1-0.8-1.7C654.8,1784.3,655,1784.8,655.3,1785.4z M654.3,1783c-0.3-0.7-0.5-1.3-0.7-2
			C653.7,1781.7,654,1782.4,654.3,1783z M653.4,1780.7c-0.3-0.8-0.5-1.6-0.7-2.4C652.9,1779.1,653.1,1779.9,653.4,1780.7z
			 M661.8,1794.8c0.3,0.3,0.5,0.5,0.8,0.8c0,0,0,0,0,0C662.3,1795.4,662,1795.1,661.8,1794.8z M659.8,1792.6c0.5,0.6,1,1.2,1.5,1.8
			C660.8,1793.8,660.3,1793.2,659.8,1792.6z"/>
	</g>
</g>
<g id="Layer_4">
</g>
<g id="Layer_3">
</g>
<g id="Layer_2">
</g>
</svg>
