<?xml version="1.0" encoding="utf-8"?>
<!-- Generator: Adobe Illustrator 24.0.2, SVG Export Plug-In . SVG Version: 6.00 Build 0)  -->
<svg version="1.1" xmlns="http://www.w3.org/2000/svg" xmlns:xlink="http://www.w3.org/1999/xlink" x="0px" y="0px"
	 viewBox="0 0 1982.6 2048" enable-background="new 0 0 1982.6 2048" xml:space="preserve">
<g id="Layer_1">
	<g id="Layer_23">
	</g>
</g>
<g id="Layer_22">
</g>
<g id="Layer_21">
</g>
<g id="Layer_20">
</g>
<g id="Layer_19">
</g>
<g id="Layer_18">
</g>
<g id="Layer_17">
</g>
<g id="Layer_16">
</g>
<g id="Layer_15">
</g>
<g id="Layer_14">
</g>
<g id="Layer_13">
</g>
<g id="Layer_12">
</g>
<g id="Layer_11">
</g>
<g id="Layer_10">
</g>
<g id="Layer_9">
</g>
<g id="Layer_8">
</g>
<g id="Layer_7">
</g>
<g id="Layer_6">
	<path d="M1705.5,1522.7l-55.3-105.2c-0.2-0.3-0.4-0.6-0.5-1c6.4-18.9,11.3-39.2,14.3-61c0.1-0.7,0.2-1.4,0.3-2
		c2.7-19.3,4.8-38.6,6.7-59.6c0,0,0,0,0,0l-2.4-1c0.8-8.9,1.3-19.6,1.9-28.7l3-1.7c4.9-71.6,5.4-150.2,1.4-229.4
		c1.7-8,3.2-16.1,4.4-24.4c0.6-4.3,1.2-8.7,1.7-13.1c0.5-4.7,1-9.4,1.4-14.2c0.7-8.6,1.1-17.3,1.4-26.1c0.1-4.6,0.2-9.1,0.2-13.7
		c0-0.8,0-1.5,0-2.3c1-115.1-36.8-242.1-71.8-334.6c-15.6-41.2-37.9-79-65.8-112.2c-36.2-43.1-81.7-78.3-133.7-102.6
		c-7.2-3.4-14.3-6.6-21.2-9.8c-40-18.3-74.7-33-86.2-37.8c0.2-1,1-5.1,1.8-11.4c0.4-3.3,0.8-7.2,1.1-11.7c0.2-2.6,0.3-5.5,0.4-8.4
		c0.1-2,0.1-4,0.1-6.1c0.1-7.6-0.3-15.9-1.3-24.6c-0.2-2-0.5-4-0.8-6c-3.3-22.1-11-46-27.5-65.5c-0.1-0.2-0.3-0.3-0.4-0.5
		c-14.7-17.2-36.2-31.1-67.4-37.4c-2.9-0.6-5.8-1.1-8.6-1.6c-0.3-0.1-0.6-0.1-0.9-0.1c-8.1-1.3-15.7-2.1-22.9-2.4
		c-123.7-8.9-130.5,111-130.8,118.3c-3.3-0.8-6.9-1.6-10.9-2.3c-23.8-5.2-63.5-10-96.5-13.5c-20.7-2.2-38.8-3.9-48.9-4.8
		c0.4-6.9,3.7-84.5-58-114.8c-16.1-7.9-36.7-12.6-63-11.9c-2.7-0.1-5.4-0.1-8.2,0c-2.1,0-4.3,0.1-6.6,0.2c-4.4,0.2-9.1,0.6-13.8,1.1
		c-1.9,0.2-3.7,0.4-5.5,0.7c-0.2,0-0.3,0-0.5,0.1c-1.8,0.3-3.5,0.5-5.2,0.8c-0.1,0-0.3,0.1-0.4,0.1c-1.8,0.3-3.5,0.7-5.2,1
		c0,0-0.1,0-0.1,0c-90.5,19.5-95.8,108-93,149.7c0,0,0,0.1,0,0.1c0.1,1.4,0.2,2.8,0.3,4.1c0,0.1,0,0.1,0,0.2
		c0.1,0.6,0.1,1.2,0.2,1.8c0,0.1,0,0.2,0,0.3c0.1,0.6,0.1,1.1,0.2,1.7c0,0.1,0,0.2,0,0.3c0,0.5,0.1,0.9,0.1,1.4c0,0.1,0,0.3,0,0.4
		c0.1,0.5,0.1,0.9,0.2,1.3c0,0.2,0,0.3,0.1,0.5c0,0.4,0.1,0.8,0.1,1.2c0,0.2,0,0.3,0.1,0.5c0,0.3,0.1,0.5,0.1,0.8
		c0,0.2,0,0.4,0.1,0.5c0,0.3,0.1,0.6,0.1,0.9c0,0.2,0.1,0.4,0.1,0.5c0,0.2,0.1,0.4,0.1,0.6c0,0.2,0.1,0.5,0.1,0.7
		c0,0.1,0,0.2,0.1,0.4c0,0.3,0.1,0.6,0.1,0.9c0,0.1,0,0.1,0,0.2c0,0.2,0.1,0.3,0.1,0.5c0,0,0,0.1,0,0.1c0,0.3,0.1,0.5,0.1,0.8
		c0,0,0,0.1,0,0.1c0,0.2,0.1,0.4,0.1,0.6c0,0,0,0,0,0.1c0,0.1,0,0.2,0,0.2c0,0,0,0.1,0,0.1c0,0.1,0,0.1,0,0.2c0,0.1,0,0.2,0,0.2
		c-415.2,184.4-345.1,600.1-302.8,753.5c-20.9,31.1-44.1,73.6-66.9,128.5c-0.7,1.6-1.3,3.2-1.9,4.8c-11.5-14.8-24.5-28.4-38.7-40.6
		c-6.1-5.2-12.4-10.1-19.4-14c-1.9-1.1-4.3,0.6-3.8,2.8c7.4,31.5,19.6,62.1,37.3,89.2c2.9,4.5,6.3,9.1,10,13.7
		c-1.1,6-1.9,11.9-2.4,17.7c-5.5-4-10.9-8.2-16-12.6c-11.4-9.8-22-20.5-32.4-31.3c1.6-15.6-3.1-32.3-14.5-42.8
		c-0.8-0.7-1.7-1.5-2.5-2.1c-0.5-0.4-1-0.8-1.6-1.1c-2.1-17.4-6.9-34.5-12.8-51.1c-4.7-13.2-10.2-26.3-18.6-37.5
		c-8-10.7-19.1-19.7-32.2-22.3c-2.6-0.5-5.5-0.7-7.7,0.7c-2.5,1.6-3.4,4.8-3.7,7.7c-0.8,7.8,1,15.5,4.3,22.7
		c-0.4-0.3-0.9-0.5-1.3-0.8c-8.4-4.5-18.6-5.7-27.5-2.4c-8.9,3.3-16.1,11.5-17.2,20.9c-0.6,4.8,0.4,9.6,2.2,14.1
		c-3.1,0.9-6,2.6-8,5.1c-3,4-3.3,9.5-1.8,14.3c1.5,4.8,4.5,8.9,7.7,12.7c9.6,11.5,21.3,21.4,34.8,27.6c17.1,7.9,36.3,9.8,54.7,14.2
		c0.2,2.3,1.3,4.6,2.8,6.4c2,2.4,4.6,4.2,7.3,5.7c8.9,5.1,20.4,9.1,31,10.5c16.3,17.1,33.2,33.8,52.5,47.4c-0.5,7-0.6,13.8-0.4,20.4
		c-4.2,0.1-8.3,0.3-12.4,0.7c-12.4,1.2-25.4,4.3-34.2,13.1c-0.9,0.9-1.8,2.3-1.1,3.4c0.5,0.7,1.4,0.9,2.3,1.1
		c16,2.5,32,5.1,48.1,7.3c9,51.2,39.3,84.3,72.8,83.9c53.3-0.7,42.4-34.1,45.1-62c6.3,4.9,12.4,10,18.3,15.3
		c8,41.1,14.1,64.4,14.1,64.4s19.2,137.5,334.4,204.9l-4.6,94.7c-0.1,3-1.5,5.8-3.7,7.7c-0.2-0.6-0.4-1.1-0.6-1.7
		c-1.9,0.5-3.1,2.3-4.4,3.7c-1.4,1.4-3.6,2.5-5.2,1.5c-0.8-0.5-1.2-1.3-1.6-2.1c-4.7-9-12.6-16.3-22-20.2c4.1,6.1,5.6,13.8,4.3,20.9
		c-2.2-2.8-4.5-5.6-6.7-8.5c-0.1,2-0.3,3.9-0.4,5.9c-2.2-2.6-4.9-4.7-8-6.2c-0.2,1.8-0.4,3.5-0.6,5.3c-0.9-0.6-1.7-1.3-2.6-1.9
		c0,1.4,0.1,2.9,0.1,4.3c-3.7-3.1-8.7-4.6-13.5-3.8c2.3,1.6,3.9,4.3,4.2,7.2c-8.5-3.2-18.1-3.7-26.9-1.4c3.6,0,6.9,3.3,6.8,7
		c-4.4-0.6-8.8-0.6-13.2,0c0.4,1.2,1.4,2.2,2.6,2.5c-3.8,1.5-7.6,3-11.4,4.5c-0.8,0.3-1.8,0.8-1.9,1.7c-0.1,0.4,0.3,0.8,0.7,1
		c-1.7,0.6-3.4,1.2-5.1,1.7c-2.2,2.8-5.7,4.7-9.3,5c1,1,2.1,2,3.1,3c-10.3,0.5-20.5,3.8-29,9.7c3.7-0.3,7.5,0,11.1,0.8
		c-5.4,2.5-10.8,5-16.2,7.6c2.8,1,5.5,2,8.3,2.9c-1.9,0.7-3.8,1.4-5.6,2.1c0.5-0.2,1,0,1.3,0.4c-4.2,0.3-8.6,1.9-11.6,3.3
		c-5.7,2.8-10.4,7.6-13.2,13.3c-1.7,3.5-2.7,7.4-3.7,11.2c-1,4.2-2,8.4-2.9,12.6c7.4-4.4,15.5-7.3,23.6-10.4c-2.6,1.8-5,4-7,6.5
		c0,0,0,0,0,0c0,0,0,0,0,0c4.5,0,9.1,0.9,13.3,2.6c-2.2,2.2-4,4.8-5.4,7.6c-1.7,3.5-2.7,7.4-3.7,11.2c-1,4.2-2,8.4-2.9,12.6
		c7.7-4.6,16.2-7.6,24.6-10.8c-0.5,1.3-1,2.6-1.5,3.8c0,0,0,0,0,0c0,0,0,0,0,0c3.5-2.3,8.1-2.9,12.1-1.6c-0.8,1.2-1.6,2.4-2.5,3.7
		c0,0,0,0,0,0c0,0,0,0,0,0c3.5-0.4,6.9-0.7,10.4-1.1c-0.2,2.1-0.4,4.2-0.6,6.3c0,0,0,0,0,0c0,0,0,0,0,0c1.5-3,6.9-2.4,7.8,0.9
		c2.4-1.6,5.3-2.3,8.2-2.4c-0.6,2-1.2,4.1-1.7,6.1c-1,4.2-2,8.4-2.9,12.6c11.6-6.9,25-10.2,37.1-16.1c0.9-0.4,1.8-0.9,2.6-1.5
		c3.3,0.7,6.6,1.7,9.8,2.8c-0.1,0-0.1-0.1-0.2-0.1c0.1,0,0.1,0,0.2,0.1c-1.6-0.6-3.2-1.3-4.8-1.9c9.6-1.9,19.9-0.2,28.4,4.6
		c0,0,0,0,0,0c0,0,0,0,0,0c-1.5-3-3-5.9-4.5-8.9c5.3,2,10.1,5,14.3,8.8c0,0,0,0,0,0c0,0,0,0,0,0c-1.8-3.2-3-6.8-3.7-10.4
		c-0.1-0.3-0.1-0.7-0.1-1c0-0.6,0.1-1.2,0.4-1.6c0.8-1.2,2.8-1.1,3.9-0.1c1.1,1,1.5,2.5,1.9,3.9c0.5-1.7,1-3.4,1.5-5.1
		c1.9,1.9,3.9,3.8,5.8,5.7c1.2-1.5,1.8-3.3,1.8-5.2c1.8,2,4,3.5,6.5,4.4c0.7-1.4,1.5-2.8,2.2-4.1c0.9,2.1,2.4,4,4.4,5.2
		c1.2-3,1.7-6.3,1.6-9.6c0-1.1-0.2-2.2-0.4-3.2c3.5,4.2,6,9.1,7.3,14.4c1.4-3.6,2.1-7.4,2-11.3c-0.1-2.3-0.4-4.6-1.1-6.8
		c4.8,2.8,9.5,5.6,14.3,8.4c0,0,0,0,0,0c0,0,0,0,0,0c-1.5-2.2-2.9-4.4-4.4-6.5c4.2-0.2,8.5,0.2,12.6,1.2c0,0,0,0,0,0c0,0,0,0,0,0
		c-1.3-1.8-2.7-3.7-4-5.5c3.1-0.4,6.1-0.7,9.2-1c9-2.8,19.2-1.2,26.9,4.2c0,0,0,0,0,0c0,0,0,0,0,0c-1-3.3-3-6.3-5.7-8.5
		c1.8-0.4,3.6-0.7,5.4-1.1c0.9,0.2,1.8,0.5,2.6,0.8c0,0-0.1,0-0.1-0.1c0,0,0.1,0,0.1,0c-0.7-0.3-1.3-0.6-1.9-1
		c9.9-2.3,19.5-5.3,28.8-9.2c8.7-3.6,17.1-8,24.1-14c10.6-9,17.4-21.8,17.5-34.9c0-2.4-0.2-4.7-0.6-7.1
		c-0.3-10.9-6.9-21.4-18.2-27.2c-6-3-12.9-4.7-20-5.7c-0.6-0.1-1.1-0.2-1.7-0.3l-3.4-0.3c1-25.7,1-54.3,2.1-80.4
		c29.2,5.8,68.1,13,110.6,19.6l-1.3,106.9c0,1.7-0.2,3.3-0.7,4.9c-6.3-6.7-14.8-11.3-23.8-13c5.2,5.1,8.4,12.3,8.6,19.6
		c-2.8-2.3-5.6-4.6-8.3-6.9c0.3,1.9,0.6,3.9,0.8,5.8c-2.7-2.1-5.8-3.6-9.1-4.3c0.2,1.8,0.4,3.5,0.5,5.3c-1-0.4-2-0.9-2.9-1.3
		c0.3,1.4,0.7,2.8,1,4.2c-4.3-2.3-9.5-2.6-14-0.9c2.6,1.1,4.7,3.4,5.6,6.1c-9-1.4-18.5,0.2-26.6,4.3c3.5-0.8,7.5,1.8,8.2,5.4
		c-4.4,0.3-8.7,1.3-12.9,2.8c0.6,1.1,1.8,1.8,3,1.9c-3.4,2.3-6.8,4.5-10.2,6.8c-0.7,0.5-1.6,1.2-1.5,2c0,0.4,0.4,0.7,0.8,0.8
		c-1.5,0.9-3.1,1.8-4.6,2.8c-1.6,3.2-4.6,5.8-8,6.8c1.2,0.8,2.5,1.5,3.7,2.3c-10,2.6-19.2,8-26.3,15.5c3.6-1.1,7.3-1.6,11-1.5
		c-4.8,3.6-9.5,7.2-14.3,10.8c2.9,0.4,5.8,0.8,8.7,1.1c-1.7,1.1-3.4,2.2-5.1,3.3c0.4-0.3,0.9-0.2,1.3,0.2c-4,1.2-8.1,3.6-10.7,5.7
		c-5,4-8.6,9.6-10.2,15.8c-1,3.8-1.1,7.8-1.2,11.8c-0.1,4.3-0.2,8.6-0.2,12.9c6.3-5.9,13.6-10.4,20.9-15.1c-2.2,2.3-4,5-5.5,7.8
		c0,0,0,0,0,0c0,0,0,0,0,0c4.4-1,9.1-1.1,13.6-0.3c-1.7,2.6-2.9,5.5-3.7,8.6c-1,3.8-1.1,7.8-1.2,11.8c-0.1,4.3-0.2,8.6-0.2,12.9
		c6.6-6.1,14.2-10.8,21.8-15.7c-0.2,1.4-0.5,2.7-0.7,4.1c0,0,0,0,0,0c0,0,0,0,0,0c2.9-3,7.3-4.6,11.5-4.1c-0.5,1.4-1.1,2.7-1.6,4.1
		c0,0,0,0,0,0c0,0,0,0,0,0c3.3-1.1,6.6-2.2,10-3.3c0.2,2.1,0.5,4.2,0.7,6.3c0,0,0,0,0,0c0,0,0,0,0,0c0.9-3.2,6.3-3.8,7.8-0.8
		c2-2.1,4.7-3.4,7.5-4c-0.2,2.1-0.3,4.2-0.3,6.3c-0.1,4.3-0.2,8.6-0.2,12.9c9.9-9.2,22.3-15.2,32.9-23.5c0.8-0.6,1.6-1.3,2.3-2
		c3.4,0,6.8,0.2,10.2,0.7c-0.1,0-0.2,0-0.2,0c0.1,0,0.1,0,0.2,0c-1.7-0.3-3.4-0.6-5.1-0.9c9-3.9,19.4-4.4,28.7-1.4c0,0,0,0,0,0
		c0,0,0,0,0,0c-2.1-2.6-4.2-5.2-6.3-7.7c5.6,0.9,11,2.8,15.8,5.6c0,0,0,0,0,0c0,0,0,0,0,0c-2.4-2.8-4.4-6-5.8-9.4
		c-0.1-0.3-0.3-0.7-0.3-1c-0.1-0.6-0.2-1.1,0-1.7c0.5-1.4,2.5-1.6,3.8-0.9c1.3,0.7,2,2.1,2.7,3.4c0.1-1.8,0.3-3.5,0.4-5.3
		c2.3,1.5,4.6,2.9,6.9,4.4c0.8-1.7,1.1-3.6,0.7-5.4c2.1,1.6,4.6,2.6,7.3,2.9c0.4-1.5,0.8-3,1.3-4.5c1.3,1.9,3.2,3.4,5.4,4.2
		c0.5-3.2,0.4-6.6-0.4-9.7c-0.3-1.1-0.6-2.1-1-3.1c4.3,3.3,7.8,7.7,10.1,12.5c0.6-3.8,0.5-7.7-0.4-11.4c-0.6-2.2-1.4-4.4-2.5-6.4
		c5.2,1.7,10.5,3.5,15.7,5.2c0,0,0,0,0,0c0,0,0,0,0,0c-1.9-1.8-3.8-3.6-5.6-5.5c4.1-1.1,8.4-1.6,12.6-1.5c0,0,0,0,0,0c0,0,0,0,0,0
		c-1.7-1.5-3.4-3-5.1-4.5c2.9-1,5.8-2,8.7-2.9c8.2-4.6,18.6-5.2,27.2-1.5c0,0,0,0,0,0c0,0,0,0,0,0c-2.4-4.4-6.8-7.7-11.6-8.8
		c4-0.8,8.1-0.9,12.1-0.4c0,0-0.1,0-0.1,0c0,0,0.1,0,0.1,0c-2.3-0.4-4.5-1.4-6.4-2.9c9.9-5,19.4-10.9,28.1-17.6
		c7.5-5.7,14.5-12.1,19.7-19.6c7.9-11.4,11.3-25.5,8.1-38.2c-0.6-2.3-1.4-4.5-2.4-6.7c-3-10.4-12.1-19-24.5-21.6
		c-7.1-1.5-14.5-2-22.2-1.1c-1.3,0.2-2.5,0.3-3.8,0.5c1-23,1.8-47.3,2.4-68.5c58.8,5.9,115.5,7.8,155.7,1.1
		c47.2-7.9,118.9-17.6,192.6-40.3c1.8,13.2,9.5,24.1,20.3,30.3c0.6,0.3,1.1,0.6,1.7,0.9c1.1,0.6,2.3,1.1,3.5,1.6
		c1.2,0.5,2.5,0.9,3.7,1.3c1.3,0.4,2.6,0.7,3.9,0.9c2.6,0.5,5.4,0.7,8.2,0.7c0.8,0,1.7,0,2.5-0.1c0.3,0,0.5,0,0.8-0.1
		c0.6,0,1.1-0.1,1.7-0.2c0.3,0,0.6-0.1,0.9-0.1c0.5-0.1,1.1-0.2,1.6-0.3c0.3-0.1,0.6-0.1,0.8-0.2c0.5-0.1,1.1-0.2,1.6-0.4
		c0.3-0.1,0.5-0.1,0.8-0.2c0.6-0.2,1.2-0.3,1.7-0.5c0.2-0.1,0.4-0.1,0.6-0.2c0.7-0.2,1.4-0.5,2-0.7c0.1,0,0.2-0.1,0.2-0.1
		c17.5-6.7,30.2-24.2,30-43.8l-0.3-22.2c22-10.6,43.3-22.8,63.3-36.9c4.4,0.8,9.4,1.3,15.3,1.4c20.2,0.3,39.2-11.7,53.1-32.4
		c5.2-2.1,9.5-5.6,12.7-9.9c0,0,0.1,0,0.1,0c4.6,0.5,8.9,3.2,11.5,7.5l18.1,30.2c0.3,0.6,0.7,1.1,1,1.6c0.1,0.2,0.2,0.3,0.3,0.5
		c0.2,0.4,0.5,0.7,0.8,1.1c0.1,0.2,0.3,0.4,0.4,0.5c0.3,0.3,0.5,0.7,0.8,1c0.1,0.2,0.3,0.3,0.4,0.5c0.3,0.4,0.7,0.7,1,1.1
		c0.1,0.1,0.2,0.2,0.2,0.3c0.4,0.4,0.8,0.9,1.3,1.3c0.1,0.1,0.2,0.2,0.4,0.3c0.3,0.3,0.6,0.6,0.9,0.9c0.2,0.1,0.3,0.3,0.5,0.4
		c0.3,0.3,0.6,0.5,0.9,0.7c0.2,0.1,0.3,0.3,0.5,0.4c0.3,0.3,0.7,0.5,1,0.7c0.1,0.1,0.3,0.2,0.4,0.3c0.5,0.3,1,0.6,1.4,0.9
		c0.1,0.1,0.2,0.1,0.4,0.2c0.4,0.2,0.8,0.4,1.1,0.6c0.2,0.1,0.4,0.2,0.5,0.3c0.3,0.2,0.7,0.3,1,0.5c0.2,0.1,0.4,0.2,0.6,0.3
		c0.3,0.2,0.7,0.3,1,0.4c0.2,0.1,0.4,0.2,0.5,0.2c0.5,0.2,1,0.4,1.5,0.6c0.1,0,0.2,0.1,0.2,0.1c0.4,0.1,0.9,0.3,1.3,0.4
		c0.2,0.1,0.4,0.1,0.6,0.2c0.3,0.1,0.7,0.2,1,0.3c0.2,0.1,0.4,0.1,0.7,0.1c0.3,0.1,0.7,0.1,1,0.2c0.2,0,0.4,0.1,0.6,0.1
		c0.4,0.1,0.8,0.1,1.2,0.2c0.1,0,0.3,0,0.4,0.1c0.5,0.1,1.1,0.1,1.6,0.1c0.2,0,0.4,0,0.6,0c0.3,0,0.7,0,1,0c0.2,0,0.5,0,0.7,0
		c0.3,0,0.7,0,1,0c0.2,0,0.5,0,0.7,0c0.4,0,0.7-0.1,1.1-0.1c0.2,0,0.4,0,0.6-0.1c0.5-0.1,1.1-0.1,1.6-0.2c0.2,0,0.4-0.1,0.6-0.1
		c0.4-0.1,0.7-0.1,1.1-0.2c0.2,0,0.5-0.1,0.7-0.2c0.3-0.1,0.6-0.2,1-0.2c0.2-0.1,0.5-0.1,0.7-0.2c0.3-0.1,0.7-0.2,1-0.3
		c0.2-0.1,0.4-0.1,0.6-0.2c0.5-0.2,1-0.4,1.5-0.6c3.5-1.4,6.9-3.5,10-6.2l0,0C1710.7,1562,1714.6,1539.9,1705.5,1522.7z
		 M167.6,1181.3c-5.6-10.6-11.6-20.9-17.9-31.1c8.1,8.8,15.7,17.9,21.5,28.2C169.9,1179.1,168.7,1180.1,167.6,1181.3z M366.7,1336.8
		c3-20.4-9.2-32.6-16.2-37.7c-1.2-10.2-3.9-20.2-7.6-29.8c0.2-22.4,7.2-44.1,17.4-63.8c1.8,14.8,3.6,29,5.5,42.5l4.5,1.8l3.2,23.3
		l-3.9,1.4l0,0l0,0c0,0,0,0,0,0c4.4,28.7,8.8,54,12.9,75.1C377.4,1345.2,372.1,1340.9,366.7,1336.8z"/>
</g>
<g id="Layer_5">
</g>
<g id="Layer_4">
</g>
<g id="Layer_3">
</g>
<g id="Layer_2">
</g>
</svg>
