<?xml version="1.0" encoding="utf-8"?>
<!-- Generator: Adobe Illustrator 24.0.2, SVG Export Plug-In . SVG Version: 6.00 Build 0)  -->
<svg version="1.1" xmlns="http://www.w3.org/2000/svg" xmlns:xlink="http://www.w3.org/1999/xlink" x="0px" y="0px"
	 viewBox="0 0 1982.6 2048" enable-background="new 0 0 1982.6 2048" xml:space="preserve">
<g id="Layer_1">
	<g id="Layer_23">
	</g>
</g>
<g id="Layer_22">
</g>
<g id="Layer_21">
</g>
<g id="Layer_20">
</g>
<g id="Layer_19">
</g>
<g id="Layer_18">
</g>
<g id="Layer_17">
</g>
<g id="Layer_16">
</g>
<g id="Layer_15">
</g>
<g id="Layer_14">
</g>
<g id="Layer_13">
</g>
<g id="Layer_12">
</g>
<g id="Layer_11">
</g>
<g id="Layer_10">
</g>
<g id="Layer_9">
</g>
<g id="Layer_8">
</g>
<g id="Layer_7">
	<g>
		<path d="M1025.8,1804.8C1025.8,1804.8,1025.8,1804.8,1025.8,1804.8C1025.8,1804.8,1025.8,1804.8,1025.8,1804.8
			C1025.8,1804.8,1025.8,1804.8,1025.8,1804.8C1025.8,1804.8,1025.8,1804.8,1025.8,1804.8z"/>
		<path d="M814.5,1734.1c1.7,4,2.8,4.2,7.7,2.1C819.7,1736.3,817.1,1737.1,814.5,1734.1z"/>
		<path d="M812,1739.1C812,1739.1,812,1739.1,812,1739.1C812.1,1739.1,812.1,1739.1,812,1739.1C812,1739,812,1739,812,1739.1
			C812,1739,812,1739.1,812,1739.1z"/>
		<path d="M746.8,1751.7c0.1,0.2,0.3,0.4,0.5,0.6c0.1-0.2,0.3-0.4,0.2-0.5c0-0.2-0.2-0.3-0.4-0.5
			C747,1751.4,746.8,1751.6,746.8,1751.7z"/>
		<path d="M560.8,394.4c0.1,0,0.2-0.3,0.3-0.5c-0.1-0.2-0.2-0.3-0.4-0.5c-0.1,0.2-0.3,0.3-0.4,0.5
			C560.1,394.5,560.5,394.5,560.8,394.4z"/>
		<path d="M1744.6,1092.2c-3.3-7.2-8.5-13-14.7-18c-1-1.3-2.3-2.2-4-2.6c-3-3.1-6.7-5.1-10.5-6.8c-10-4.4-20.7-5.3-31.5-5.5
			c-0.5-0.8-1.2-0.6-2-0.4c-1.1-0.1-2.4,0.1-3.3-0.3c-1.3-0.6-2.1-0.5-2.6-0.2c-5.3-138.1-24.2-280.2-57-392.2
			c0.6,0.6,1.2,1.2,1.8,1.8c1,1-0.2-2.2-1.1-5.1c-1.2-1.5-2-2.4-2.6-3c-4.8-15.9-9.8-31.1-15.2-45.6c0-1.3,0-2.7,0-4
			c0-1.5-0.6-2.2-1.4-4.4c-0.1,1.2-0.3,2.3-0.5,3.5c-13.9-36.7-29.6-68.6-47.3-94c0.1-0.8,0.2-1.5,0.4-2.3c0.4,0.6-0.6-1.5-2.4-3.8
			c-0.1,0.9-0.2,1.9-0.3,2.8c-6.6-9.2-13.4-17.4-20.5-24.7c0,0-117.6-101.9-368.8-160.5c-2.1-1.5-5.3-3.7-5.6-3.2
			c-0.1,0.2,0.9,1.2,2.1,2.4c-96.5-22.2-212.4-38-348.8-39.3c-13.7-0.1-27.3,1.9-40.4,5.9c-40.2,12.3-131.3,45.3-217.9,112.4
			c1.5-1.5,3.1-2.9,4.6-4.4c1.8-1.8,4.1-3.3,4.8-6.1c-1.2-0.1-1.8,0.5-2.3,1c-5.8,5.8-11.6,11.6-17.4,17.4c-1.1,1.1-2.6,1.9-3.5,3.1
			c0,0-0.1,0.1-0.1,0.1c-84.2,69.3-161.2,171.9-179.3,320.5c-13.2,108.5-14.7,214-10.4,308.4c-24.4,31.8-53.3,81-81.7,149.3
			c-48.3,116-1,210.6,55.6,209.9c56.6-0.7,41-38.3,45.8-67c4.9-28.8-20.5-41.6-20.5-41.6c-8-31.8,0-63.1,14.1-90.7
			c1.8,14.9,3.7,29.2,5.6,42.9l4.5,1.8l0.6,4.6l2.6,18.7l-1.5,0.5l-2.4,0.9v0l0,0c0,0,0,0,0,0c13.9,91.5,28.6,147.8,28.6,147.8
			s0.8,5.5,4.5,14.8c15.4,37.7,78.5,135.4,327.9,189.2c-0.2,6.6,0.1,13.2-0.6,19.7c0,0.7,0,1.4,0,2.1c-0.5,9,0.9,18,0.8,27
			c0,1.2-0.1,2.3-0.1,3.5c-0.3,5.4,0.2,10.8-0.6,16.2c0,0.5-0.1,1-0.1,1.5c0.3,3.6-1.4,7.1-0.6,10.7c-0.1,4,2.7,6.1,5.3,8.2
			c-0.2,3.3,0.4,6.9-4.2,8c-1.3,0.3-1.4,1.9-1.1,3.4c0.5,2.5,2.2,5.6-2.2,6.6c-0.5,0.1-0.9,0.8-0.6,1.4c0.2,0.3,0.8,0.4,1.2,0.4
			c1.9-0.4,3.4-0.9,3.5-3.5c0.2-3-2.5-7.4,3.2-8.4c0.4-0.1,0.5-1.4,1-2c0.5-0.6,0.5-1.9,1.8-1.7c0.4,1.5-0.3,2.8-0.9,4.1
			c-1.4,3-3.5,6.2-2.2,9.5c1.2,2.9,0.6,5.3-0.4,7.8c-0.7,1.8-1,3.6-1.3,5.4c-0.7,4.3-0.8,4.4,3.5,4.3c2.5-0.1,3.1,0.6,2.5,3.1
			c-0.4,1.7-0.1,3.9,2.8,2.6c1.4-0.6,2.6,0.1,3.3,1c0.7,0.9,1.1,1,1.8,0.2c0.8-0.9,0.1-1.5-0.5-1.9c-1.7-1.1-3.5-1.8-5.6-1.6
			c1-4.4,0.6-5.2-2-5.4c-5.8-0.4-5.8-0.4-4-6c0.4-1.4,1.1-2.6,1.7-3.9c0.5-1.1,1.1-2.4,0.7-3.5c-1.7-4.3,0.4-7.9,2-11.6
			c0.5,1.4,2.1,2.3,2.1,4.1c-2.3-0.3-3.2,1.3-3.2,2.9c0,2.2,0.3,4.6,1.2,6.7c0.7,1.5,0.8,2.4-0.5,3.4c-0.9,0.8-1.5,2.4,0,2.4
			c5.1-0.1,6.4,2.8,6.7,7.1c0,0.1,0.3,0.3,0.5,0.4c0.1-7.8,0.1-7.8-5.2-8.8c-1.3-4.2,2.6-4.9,4.5-7c1.4,0.9,2.1,2.6,3.8,3.2
			c0.6,0.2,1.1,0.7,0.8,1.8c-0.6,2.1,0.4,3.5,2.8,3.5l0,0c0.3,2.4,0.7,4.7,2.4,6.7c1.2-2.2-0.6-4-0.2-6c0.1-0.5,0.3-1,0.4-1.5
			c-0.1,0.5-0.2,1-0.4,1.5c1.5,0.4,3.1,0.9,4.6,1.3c0.4,1.9-0.8,4.6,2.2,5.4c3.2,0,5.6,2.3,8.7,2.8c0,0.2,0,0.4,0,0.6
			c-2.2,1.6-5.2,1.8-7.3,4.9c3.5-0.7,5.9-1.9,8.1-3.4c0,0,0.3,0,0.3,0l0.3,0c0,0.2,0.1,0.4,0.2,0.6c-1.9,3.9-3.9,7.9-5.8,11.8
			c3.7-2.7,4.3-7.2,7.1-10.4c0.8-0.2,0.5-0.8,0.7-1.3c0.9-0.4,1.4-1.6,2.5-1.7c0.3,0.3,0.5,0.6,0.8,0.8c-1.9,1.2-2.7,3.2-3.6,5.7
			c2.3-1.4,3.1-3.5,4.4-4.9c0.5,0,1.1-0.1,1.2,0.6c-3,3.7,0.1,7.6-0.3,11.4c2.1-3.6-0.8-7.6,1-11.2c0.4,0.1,1,0.4,1.1,0.3
			c0.7-0.7-0.3-1.1-0.4-1.7c0.8-0.3,0.8-2.1,2.2-1.4c1.2,0.7,0.1,1.5,0,2.3c-0.1,0.6-0.4,1.5,0.5,1.6c1.1,0.2,0.7-0.9,0.8-1.4
			c0.1-0.5,0.2-1.2,0.5-1.5c0.6-0.6-1.3-1.4,0.3-1.7c1.2-0.2,1.2,0.8,1.5,1.4c0.8,1.5,0.4,3.5,2.2,4.7c0.7-2.1-0.5-3.6-1.2-5.3
			c-0.7-1.7,0.3-1.5,1.3-1.4c0.1,0.9-0.2,2,1.3,2.4c0.1-1.1,0.1-2.1,0.2-3.1c1.9,1.5,3.7,3.1,5.7,4.5c0.3,0.2,1.1,1.1,1.6,0.4
			c0.4-0.5,0.2-1.4-0.5-1.8c-2-1-3.2-2.7-4.9-4.2c2.7-1,4.7-2.5,4.8-5.6c0-1.3,1.2-1.2,2.2-1.5c2-0.6,4.5-0.6,5.2-3.2
			c1.3,0,1,1.6,1.9,2c0.3,1-0.2,1.8-0.5,2.7c-1.5,2.4-4.4,3.7-5.8,6.9c3.8-1.1,5.5-3.9,7.7-6.1c1.3,1,0.7,3.2,2.9,4
			c-1.6-2.4-0.4-3.7,1.7-4.8c-2.4,0.2-4.5,0.3-4.7-2.7c0.8-2.3,3.9-1.3,4.8-3.4c-2.2-0.1-4.5-0.4-5.9,2c-0.5-1-1.7-1.5-1.6-2.7
			c1.3-2,3.8-2.1,5.5-3.4c0.9,1.3,2,2.4,2.1,4.1c0.8,0.1,0.4,1.6,1.8,1.2c-0.8-2-1.7-3.9-2.5-5.8c0.9-0.3,2.1,0.3,2.8-0.6
			c-0.5-1.5-2.2-0.1-2.8-1.5c-1.1-2.6,0.7-6.8,4.4-9.5c2.7-2,4.2,0.2,5.9,1.8c1.8,1.7,4.6,0.9,5.9-2c-2.5,1.2-4.8,2.4-6.2-0.9
			c-0.2-0.5-1.1-0.8-1.7-0.8c-1.2-0.1-1.7-0.5-1.4-1.6c0.3-1.4-0.6-2.6-0.8-3.9c0.3-0.9,1.2-1.1,1.9-1.6c2.3-1.6,3.7-3.6,3.4-6.6
			c0.4-2.3,0.3-4.5-0.6-6.7c0-0.7-0.1-1.4-0.1-2.1c-0.5-8.1-2-16.2-0.6-24.3c0-0.5-0.1-1-0.1-1.5c0.1-7.7,1.4-15.3,0.8-23
			c0.7-0.8,0.9-1.7,0.6-2.8c0.1-0.5,0.1-1,0.2-1.6c9.8,1.9,20.6,4,32.4,6.2c0,0,0,0,0,0l2.3,0.4c0,0,0,0,0,0
			c18,3.3,38,6.8,59.1,10.3c3,0.5,5.9,1,8.9,1.5l12.2,2.5c-0.6,8.2,0.4,16.3,0.7,24.4c0.3,7.1-1.2,14.2-0.6,21.3
			c0,0.7,0,1.4-0.1,2.1c0,9.5,0,18.9,0,28.4c0,0.9,0,1.9,0,2.8c0,4.7,0.2,9.4-0.2,14.1c-0.2,2.6,0.3,4.2,2.8,5
			c-0.1,1.1-0.9,2.9-1.4,2.4c-2.7-2.3-4.1,0.2-5.9,1.2c-0.3,0.2-1.6,0-1,1c0.3,0.6,1,0.9,1.6,0.3c2-2,4-1.6,6.1-0.2
			c0.2,1-0.2,1.8-0.7,2.6h0c-1,0.7-2,1.3-2,2.7c-2.8,1.1-5.1,2.7-6.4,5.5c-0.3,0.8-1.1,1.4-1.6,2.1c-3.1,4.2-7.1,7.7-9,12.7
			c-1.3,0.5-1.4,1.8-2,2.7c-4.9,7.1-9.1,14.6-13.1,22.2c-1.2,2.4-2.6,4.8-2.6,7.6c-0.8,0.5-0.9,1.3-1.2,2.1c-0.3,2.8-0.7,5.7-1,8.5
			c-0.6,5.7-2.1,11.4-0.3,17.1c-0.2,1-0.5,1.9,0.2,2.8c2.2,9.6,7.5,16.7,17.1,19.6c8.4,2.6,17.1,3.5,26,2.2
			c9.2-1.3,17.6-4.6,25.7-8.9c1.1-0.1,2-0.4,2.7-1.4c4.9-2.3,9.5-5.2,13.6-8.8c0.7-0.4,1.6-0.5,2-1.3c10.2-7.2,19.2-15.7,27.6-24.9
			c1.5-1.7,4-3,4.3-5.7c2.1-0.1,1.6-2.4,2.7-3.3c3.2-3,4.1-7.4,6.6-10.9c0.6-0.8,0.4-2.4-0.8-3.4c-0.9-0.8-1.7-1.8-2.5-2.7
			c0.6-0.3,1.1-0.6,1.8-0.8c4-1.2,3.7-6.5,8.3-8c-2.8-0.1-5.1-0.3-5.2,2.1c-0.2,3.1-2,3.2-4.2,3.3c0.7,0.8-0.1,1-0.6,1.4
			c-0.1-0.6-0.3-1.2,0.5-1.4c-0.4-4.8,3.8-8.7,1.4-14.3c-2.2-5.2-1.5-11.7-2.9-17.4c-0.6-2.5,0.2-4,1.3-5.7c1.1-1.6,2.3-3.1,3.5-4.7
			c0.1,2.8-0.5,5.7-0.3,8.3c0.2,4.1-3.5,9,1.7,12.4c0.2,0.1,0.2,0.9,0,1.3c-0.9,2.9,0.8,4.1,3.2,4.4c1.4,0.2,1.5,0.7,1.6,1.8
			c0.3,3.3,1.7,3.9,4.6,2.1c-0.9-1.5-4.1,1.1-3.9-2.1c0.1-1.7-0.2-3-2-3.8c-2.1-0.9-0.9-3.8-2.2-4.7c-2.8-1.9-2.1-4.5-1.8-6.9
			c0.6-5,1-10,1.1-15c2.2-1.6,3.7-3.5,3.5-6.4c-0.1-2.6-0.1-5.1-0.1-7.7c0.1-0.9,0.1-1.8,0.2-2.7c1.2-1.2,0.6-2.8,0.5-4.1
			c-0.5-10.2,0.9-20.3,1.3-30.5c0-0.7,0-1.4,0-2.1c0.2-10.4,0.3-20.9,0.5-31.3c2.4-1.8,4.9-3.5,7.4-5.1c4.1-2.7,6.5-3,9.7,0.8
			c3.8,4.5,7.3,4,12.1,2c7.8-3.2,15.7-6.3,24.5-5.2c1.8,0.2,3.5,0.8,5.3,0.8c10.1-0.5,20.2,0.9,30.4,0.7c17.4-0.4,34.7,1,52.1,0.8
			c3.6,0,7.5-0.1,11,0.8c2.3,0.5,3.6,0.1,4.9-1.5c2.7-3.4,5.8-6.4,8.2-10.1c2.1-3.3,2.8-3.2,5.8-0.6c4.1,3.6,4.1,3.6,8.5,0.3
			c0.3-0.2,0.5-0.5,0.7-0.7c4.7-2.7,8.5-7.6,15-6.1c1.4,0.3,2.8,0.6,4.3,0.7c7,0.3,13.8,1.8,20.7,3c10.1,1.7,20.1,3.9,30.1,6
			c1.1,0.2,1.9,0.1,2.7-0.4c6-3.7,12.9-5.7,19.2-8.8c5.3-2.6,6.1-2.2,9.4,2.7c1.1,1.5,2,1.8,3.3,0.4c0.5-0.6,1.3-0.9,1.9-1.4
			c4.2-3.7,8.6-5,13.7-1.7c3.3,2.1,6.8,1.5,10.5,0.8c10.6-2.1,21.1-4.4,31.4-7.8c4.8-1.6,9.9-2.5,14.3-4.9c5.2-2.9,9.4-7.1,14.6-10
			c2.2-0.8,4.4-1.5,6.6-2.3c5.4-1.9,10.8-4,16.2-6.1c0,0,0,0,0,0l2.6-1c0,0,0,0,0,0c20.5-8.1,40.8-17.5,60.3-28.3
			c0.1,0,0.1,0.1,0.2,0.1l1.9-1c-0.1,0-0.1-0.1-0.2-0.1c8.5-4.8,16.9-9.8,25.1-15.2c0.2,0,0.4,0,0.6-0.1l1.9-1.3c-0.1,0-0.3,0-0.4,0
			c70.3-46.6,126.1-115.6,140.7-220.1c0.1-0.8,0.2-1.7,0.3-2.5c2.6-19.1,4.8-38.3,6.6-59.1c0,0,0,0,0,0l-2.4-1l0,0
			c0.8-8.9,1.3-19.6,1.9-28.7l3-1.7c2.3-33.2,3.6-67.9,4-103.5c0.1,0,0.2,0,0.4-0.1c0.3,0,0.8,0.1,0.7-0.5c0.9,0.5,1.7-0.4,2.6-0.2
			c2.4-0.4,4.8-0.7,7.2-1.3c10.5-2.5,20.9-5.5,30.1-11.5c1,0,1.6-0.5,2.1-1.3c7-3.5,12.4-9,17.3-14.9c3.1-3.8,5.9-8,6.9-13
			c1-0.9,0.8-2.1,0.8-3.3C1747.9,1105.9,1747.6,1098.9,1744.6,1092.2z M1699.4,1096c0.5-1.2,0.8-2.5,0.8-3.7
			C1700.2,1093.5,1699.9,1094.8,1699.4,1096L1699.4,1096z M1684.9,1096.5c-1.3,0.7-2.6,1.3-3.9,1.9
			C1682.3,1097.8,1683.6,1097.2,1684.9,1096.5z M1016.3,1796.2c0-0.2,0-0.5,0-0.7C1016.3,1795.8,1016.3,1796,1016.3,1796.2
			C1016.3,1796.2,1016.3,1796.2,1016.3,1796.2z M1018.3,1793.5L1018.3,1793.5c0,0.1-0.1,0.2-0.2,0.2
			C1018.2,1793.7,1018.3,1793.6,1018.3,1793.5z M1019.6,1785.8c-0.8-0.8-1.2-1.6-1.1-2.5C1018.4,1784.2,1018.8,1785,1019.6,1785.8
			c0.8,0.3,1.5,0.8,2.2,1.3C1021.1,1786.6,1020.4,1786.1,1019.6,1785.8z M1008.4,1786c0,0,0.1,0,0.1,0.1
			C1008.5,1786,1008.4,1786,1008.4,1786z M1007.8,1785.9c0.2,0,0.3,0,0.5,0.1C1008.2,1785.9,1008,1785.9,1007.8,1785.9z
			 M1006.8,1793.2c0,0.3,0,0.6,0,0.8C1006.8,1793.8,1006.8,1793.5,1006.8,1793.2z M1010.1,1796.7c0.1,0.2,0.2,0.3,0.3,0.4
			C1010.3,1797,1010.2,1796.8,1010.1,1796.7c-1.2-0.3-2.1-0.7-2.6-1.3C1008,1796,1008.9,1796.4,1010.1,1796.7z M947.3,1773.6
			c0.6-0.4,1-0.8,1.5-1.3c0.5-0.5,0.9-1,1.4-1.5c-0.5,0.5-0.9,1-1.4,1.5C948.3,1772.8,947.8,1773.3,947.3,1773.6
			c-0.3,0.3-0.5,0.5-0.8,0.8C946.7,1774.2,947,1773.9,947.3,1773.6z M974.3,1776.7c0,0.3,0,0.6,0,0.9c0.4,0.3,0.9,0.6,1.3,0.8
			c0,0,0,0,0,0c-0.4-0.3-0.9-0.6-1.3-0.8C974.2,1777.2,974.2,1776.9,974.3,1776.7z M971.3,1779.1c1,0.3,2.4,0,4.3-0.7l0,0
			C973.7,1779.1,972.3,1779.4,971.3,1779.1z M970.8,1778.9c-0.2-0.1-0.5-0.3-0.7-0.5C970.4,1778.7,970.6,1778.8,970.8,1778.9z
			 M968.9,1776.4L968.9,1776.4c-1-0.4-1.6-1.1-2.1-1.9C967.3,1775.2,967.9,1776,968.9,1776.4z M974.7,1775.7
			c-0.2,0.2-0.4,0.5-0.5,0.9C974.4,1776.2,974.5,1775.9,974.7,1775.7c0.2-0.2,0.4-0.3,0.6-0.5
			C975.1,1775.3,974.9,1775.5,974.7,1775.7z M977.8,1782.8c-0.2-0.1-0.3-0.3-0.4-0.5C977.5,1782.5,977.7,1782.6,977.8,1782.8z
			 M985.8,1785.1c2.4,1.2,3.4,1.9,4.3,1.9c0.2,0,0.4-0.1,0.6-0.2c0.2-0.1,0.4-0.3,0.6-0.6c-0.2,0.3-0.4,0.4-0.6,0.6
			c-0.2,0.1-0.4,0.2-0.6,0.2C989.2,1787,988.2,1786.3,985.8,1785.1c-0.2,0-0.4,0-0.5,0C985.4,1785.1,985.6,1785.1,985.8,1785.1z
			 M994.6,1782c1.2-1.2,2.7-2,4.8-1.6c0,0,0,0,0,0c0.2,0,0.4,0,0.6,0c-0.2,0-0.4,0-0.6,0C997.3,1780,995.8,1780.8,994.6,1782z
			 M998.7,1779.3c0,0,0.1,0.1,0.1,0.1C998.7,1779.4,998.7,1779.4,998.7,1779.3z M996.7,1775.9c0.4,0.8,0.8,1.5,1.3,2.3
			C997.5,1777.4,997.1,1776.6,996.7,1775.9z M980.2,1773.5c0.1-0.1,0.3-0.3,0.4-0.3C980.4,1773.2,980.3,1773.3,980.2,1773.5z
			 M965.6,1771.7c0.1,0,0.1,0,0.1,0.1C965.7,1771.7,965.7,1771.7,965.6,1771.7z M946.5,1766.2c-0.5,1.3-0.7,2.6-0.6,3.8
			C945.7,1768.8,946,1767.5,946.5,1766.2c2.4,0.8,4.8,1.6,7.2,2.3C951.2,1767.8,948.8,1767,946.5,1766.2z M944.5,1766.9
			L944.5,1766.9L944.5,1766.9c0.2-0.2,0.4-0.5,0.6-0.7C944.9,1766.4,944.7,1766.7,944.5,1766.9z M944.6,1766.9
			C944.6,1766.9,944.6,1766.9,944.6,1766.9c-1,0.2-1.7,0.5-2.3,1C942.8,1767.4,943.6,1767.1,944.6,1766.9z M941.2,1769.9
			c0.1-0.5,0.3-1,0.6-1.4C941.5,1768.9,941.3,1769.3,941.2,1769.9z M941,1772.1c0-0.2,0-0.3,0.1-0.5h0
			C941,1771.8,941,1771.9,941,1772.1z M1015,1796.7c0.3-0.1,0.5-0.2,0.9-0.1c0,0,0,0,0,0c0,1-1.3,1.7-1.1,3.1
			c-0.1-1.5,1.2-2.1,1.1-3.1C1015.5,1796.5,1015.2,1796.5,1015,1796.7z M1021.1,1773.7c0.1-0.7,0-1.5-0.7-2.1l0,0
			C1021.1,1772.2,1021.1,1772.9,1021.1,1773.7z M1019,1766.2c-0.6,0-1,0.1-1.3,0.3c-0.2,0.2-0.3,0.5-0.2,0.9c0-0.4,0-0.7,0.2-0.9
			C1017.9,1766.3,1018.3,1766.2,1019,1766.2c0.6-0.6,1.2-0.8,1.5-0.7C1020.2,1765.4,1019.6,1765.7,1019,1766.2z M803.2,1736.3
			L803.2,1736.3C803.2,1736.3,803.2,1736.3,803.2,1736.3L803.2,1736.3z M743,1721.9c0.1,0.4,0.2,0.8,0.4,1.1
			C743.2,1722.7,743,1722.3,743,1721.9c-0.1-0.6-0.2-1.2-0.1-1.9l0,0C742.8,1720.7,742.8,1721.3,743,1721.9z M769.1,1729.3
			c0.3-1,0.3-2,0.2-3.1c0.2,0,0.4,0,0.6,0.1c-0.2,0-0.4,0-0.6-0.1C769.4,1727.3,769.4,1728.4,769.1,1729.3z M767.4,1735
			c0-0.7-0.1-1.4-0.1-2.1C767.3,1733.6,767.3,1734.3,767.4,1735c1,1.7,1.4,2.8,1.4,3.5C768.8,1737.8,768.3,1736.7,767.4,1735z
			 M768.6,1739.3c-0.1,0.2-0.2,0.3-0.4,0.4C768.4,1739.6,768.5,1739.5,768.6,1739.3z M757.1,1734.3c-0.2,0-0.4,0-0.7,0
			C756.6,1734.3,756.9,1734.3,757.1,1734.3z M756,1734.3c-0.1,0-0.2,0-0.3,0C755.9,1734.3,756,1734.3,756,1734.3z M755.8,1734.3
			c-0.1,0-0.2,0-0.3-0.1C755.6,1734.2,755.7,1734.3,755.8,1734.3z M759.8,1727.2c-0.1-0.7-0.3-1.5-0.5-2.2c-0.5-0.1-1-0.1-1.5-0.2
			l0,0c0.5,0.1,1,0.1,1.5,0.2C759.5,1725.8,759.6,1726.5,759.8,1727.2z M771.5,1732.8c0.1-2.3,1.1-4.4,2.6-6.5
			c0.5,0,0.9,0.1,1.4,0.1v0c-0.5,0-0.9-0.1-1.4-0.1C772.5,1728.4,771.5,1730.5,771.5,1732.8z M791,1729.9c0.2,0.8,0.4,1.6,0.6,2.4
			C791.4,1731.5,791.2,1730.7,791,1729.9z M795.8,1724.2c0.1-0.2,0.1-0.3,0.2-0.4C795.9,1723.9,795.8,1724,795.8,1724.2z
			 M789.6,1725.4c0.6,1.2,0.9,2.5,1.2,3.8C790.6,1727.9,790.2,1726.6,789.6,1725.4C789.6,1725.4,789.6,1725.4,789.6,1725.4z
			 M780.9,1726.3c-0.4,1.5-1.3,3-1.1,4.5C779.6,1729.3,780.5,1727.8,780.9,1726.3c0.8-0.1,1.6-0.2,2.3-0.2
			C782.5,1726.1,781.7,1726.2,780.9,1726.3z M785.6,1739c0.7,0,1.3,0,2,0c0.2-0.2,0.3-0.5,0.4-0.8c-0.1,0.3-0.3,0.5-0.4,0.8
			C786.9,1739,786.3,1739,785.6,1739z M789.7,1741.1c-0.2,0.4-0.5,0.9-0.7,1.3c0,0,0,0,0,0C789.2,1742,789.5,1741.6,789.7,1741.1z
			 M790.2,1742.7C790.1,1742.7,790.1,1742.7,790.2,1742.7C790.1,1742.7,790.1,1742.7,790.2,1742.7z M791.6,1744.6
			c0.1,0.4,0.2,0.8,0.2,1.3C791.7,1745.5,791.7,1745,791.6,1744.6c-0.1-0.5-0.3-1-0.7-1.4C791.2,1743.6,791.4,1744.1,791.6,1744.6z
			 M796.3,1723.6c0.1,0,0.3-0.1,0.4-0.1C796.6,1723.5,796.5,1723.5,796.3,1723.6z M819.3,1674.9c0.1-0.4,0.3-0.8,0.5-1.1
			C819.6,1674.1,819.5,1674.5,819.3,1674.9z M818.8,1676.7L818.8,1676.7c0.1-0.4,0.2-0.8,0.3-1.2
			C819,1675.9,818.9,1676.3,818.8,1676.7z M816.7,1679.7c0,0.2,0,0.4,0.1,0.6h0C816.7,1680.1,816.7,1679.9,816.7,1679.7z
			 M1142.9,1646.3c-0.1-0.1-0.2-0.2-0.4-0.2C1142.7,1646.1,1142.8,1646.2,1142.9,1646.3c0.3,0.2,0.3,0.7,0.3,1.1
			c0,0.5-0.1,1-0.5,1.2c0.4-0.2,0.5-0.7,0.5-1.2C1143.2,1647,1143.2,1646.6,1142.9,1646.3z M1259.1,1641.6c-0.4,0.4-0.7,0.7-1.1,1.1
			C1258.3,1642.4,1258.7,1642,1259.1,1641.6z M1263.2,1637.9c4.6-1.6,9.2-3.1,13.9-4.4h0C1272.4,1634.8,1267.8,1636.3,1263.2,1637.9
			c-0.9,0.8-1.8,1.6-2.7,2.4C1261.4,1639.5,1262.3,1638.7,1263.2,1637.9z M1287.8,1637.3c-3.1-0.1-6.2-0.1-9.2-0.1
			C1281.7,1637.2,1284.7,1637.2,1287.8,1637.3C1287.8,1637.3,1287.8,1637.3,1287.8,1637.3z M1259.6,1648.8c-0.2,0.2-0.3,0.5-0.3,0.7
			C1259.4,1649.3,1259.5,1649.1,1259.6,1648.8z M1074,1661.8c0.4,0.1,0.8,0.2,1.1,0.3C1074.8,1662,1074.4,1661.9,1074,1661.8
			c-0.3,0-0.5-0.1-0.7-0.1C1073.6,1661.7,1073.8,1661.8,1074,1661.8z M1075.1,1653.6c-1.1-0.1-2.3-0.2-3.4-0.1
			C1072.8,1653.4,1073.9,1653.5,1075.1,1653.6c2.8,0.3,5.7,0.8,8.5,0.6c-0.3-0.5-0.6-1-0.7-1.5c-0.1-0.3-0.1-0.7-0.1-1
			c0,0.3,0,0.7,0.1,1c0.1,0.5,0.4,1,0.7,1.5C1080.7,1654.3,1077.9,1653.8,1075.1,1653.6z M1097.9,1654.2c10.4,0.3,20.7,1.1,31.1,0.6
			c0.5-2.1,1.1-4.1,1.3-6.3c-0.3,2.1-0.8,4.2-1.3,6.3C1118.6,1655.3,1108.3,1654.5,1097.9,1654.2z M1223,1647.3
			c-1.4,1.3-2.9,2.4-4.5,3.4C1220.1,1649.7,1221.7,1648.7,1223,1647.3z M1234.7,1637.3c2.8,0,5.5,0,8.3-0.1
			c-0.7-0.7-1.2-1.5-1.4-2.2c0.2,0.8,0.7,1.5,1.4,2.2C1240.2,1637.2,1237.5,1637.2,1234.7,1637.3z M1260.6,1653.5
			C1260.6,1653.5,1260.6,1653.5,1260.6,1653.5c-0.8-1.6-1.3-2.7-1.3-3.5C1259.3,1650.8,1259.7,1651.9,1260.6,1653.5z M1677.2,1100
			c0.7-0.3,1.4-0.6,2.1-0.9C1678.6,1099.4,1677.9,1099.7,1677.2,1100L1677.2,1100z M740.3,1718.7c-0.4-0.8-1-0.8-1.6-0.8
			c-0.2,0-0.5,0.1-0.7,0.1c0.2,0,0.5-0.1,0.7-0.1C739.3,1717.9,739.8,1718,740.3,1718.7c0.5,0,1,0.2,1.4,0.4
			C741.3,1718.9,740.8,1718.8,740.3,1718.7z M742.9,1732.7c-1-2-3.5,0.8-4.1-2c-0.2-0.8,0.4-1.9,1.1-1.6
			C741.3,1729.6,743.3,1729.8,742.9,1732.7z M743.8,1733.4c-0.2-0.2-0.4-0.4-0.5-0.7c0-0.1,0.2-0.3,0.4-0.5c0.2,0.3,0.4,0.5,0.4,0.7
			C744.2,1733.1,743.9,1733.3,743.8,1733.4z M751.2,1737.6c0.1,0.3,0.3,0.7,0.5,1C751.5,1738.3,751.4,1737.9,751.2,1737.6z
			 M754.9,1741.6c0-0.2,0-0.5,0-0.7C755,1741.1,755,1741.4,754.9,1741.6z M765.3,1744.9c0,0.3,0,0.6,0.1,0.8
			C765.3,1745.5,765.3,1745.2,765.3,1744.9z M771.8,1756C771.8,1756,771.8,1756,771.8,1756c0,0-0.1,0-0.2,0L771.8,1756z
			 M772.6,1745.2L772.6,1745.2c0.5,0.6,0.9,1.4,1.3,2.1C773.5,1746.6,773.1,1745.8,772.6,1745.2z M787.6,1745.1
			c0.4-2.1,0.3-3.4-0.3-4C787.9,1741.8,787.9,1743,787.6,1745.1c-1.4,0.4-1.5,1.1-1.2,1.9C786.1,1746.3,786.1,1745.5,787.6,1745.1z
			 M791.7,1748.5c0.2-0.1,0.4,0,0.7-0.1c0-0.2-0.1-0.4-0.1-0.6c-1.3-0.4-2.7-0.8-3.7-1.7c1,0.9,2.4,1.2,3.7,1.7
			c0.1,0.2,0.1,0.4,0.1,0.6C792.2,1748.5,791.9,1748.4,791.7,1748.5z M810,1734.6c0-0.1,0-0.2,0.1-0.3c0,0,0,0,0,0
			C810,1734.5,810,1734.6,810,1734.6z M809.3,1725c-1.5,1.3-2.9,0.5-4.4-0.1C806.4,1725.5,807.8,1726.3,809.3,1725
			c0.8,0,1.4-0.4,1.8-0.9C810.7,1724.6,810.1,1724.9,809.3,1725z M815.1,1718.4c0-0.5-0.1-1.1-0.4-1.7c-2.2,1.1-4.5,2.2-6.7,3.3
			c-0.6,0.2-1.1,0.4-1.7,0.5c0.6-0.2,1.1-0.4,1.7-0.5c2.2-1.1,4.5-2.2,6.7-3.3l0,0C815,1717.3,815.1,1717.9,815.1,1718.4z
			 M939.3,1666.5c0.2,0.1,0.3,0.1,0.5,0.2c2,0.8,4.1,1.4,6.1,2c1.4,0.4,2.8,0.7,4.2,1s2.8,0.5,4.2,0.7c-1.4-0.2-2.8-0.5-4.2-0.7
			s-2.8-0.6-4.2-1c-2.1-0.6-4.1-1.2-6.1-2C939.6,1666.6,939.5,1666.6,939.3,1666.5L939.3,1666.5z M1054.6,1668.2
			c-3.3-2.6-6.4-2.8-10.2-0.5c-0.5,0.3-0.9,0.5-1.4,0.8c0.5-0.3,0.9-0.5,1.4-0.8C1048.1,1665.4,1051.3,1665.5,1054.6,1668.2
			c0.2,0.1,0.3,0.2,0.5,0.4C1054.9,1668.4,1054.7,1668.3,1054.6,1668.2z M1059.5,1669.8c0.9-0.1,1.9-0.4,3-0.9
			C1061.4,1669.4,1060.4,1669.7,1059.5,1669.8z M1083.6,1663.7c-7.3-0.2-14,1.9-20.4,5C1069.5,1665.6,1076.3,1663.4,1083.6,1663.7
			c2.4,0.1,4.7,0.1,7.1,0.2C1088.3,1663.8,1085.9,1663.7,1083.6,1663.7z M1119.2,1664.4c11.6,0.1,23.2,0.2,34.8,0.4
			C1142.3,1664.6,1130.8,1664.6,1119.2,1664.4z M1165.7,1665c4.2,0,8.3-0.2,12.5-0.4C1174,1664.8,1169.9,1665,1165.7,1665z
			 M1190.7,1663c-0.4,0.3-0.8,0.5-1.3,0.7C1189.9,1663.5,1190.3,1663.3,1190.7,1663c2.9-2.3,6-4.3,9.1-6.4
			C1196.7,1658.7,1193.6,1660.7,1190.7,1663z M1209.8,1653.2c-0.3-0.4-0.6-0.7-1-1C1209.1,1652.4,1209.4,1652.7,1209.8,1653.2
			c0.3,0.4,0.6,0.7,0.9,0.9C1210.4,1653.9,1210.1,1653.6,1209.8,1653.2z M1211.3,1654.5c0.8,0.3,1.6,0.1,2.6-0.6
			C1212.9,1654.6,1212.1,1654.8,1211.3,1654.5z M1224.3,1646.4C1224.3,1646.4,1224.3,1646.4,1224.3,1646.4
			C1224.3,1646.4,1224.3,1646.4,1224.3,1646.4z M1228.1,1646.7c3.7,0.9,7.3,1.8,11,2.5c2.6,0.5,5.2,1.2,7.7,1.9
			c-2.6-0.7-5.1-1.3-7.7-1.9C1235.5,1648.5,1231.8,1647.6,1228.1,1646.7z M1260.3,1653.5c0.1,0,0.2,0,0.3,0c0,0,0,0,0,0l0,0
			c0,0,0,0,0,0c0,0,0,0,0,0C1260.5,1653.5,1260.4,1653.5,1260.3,1653.5z M1321,1648.7c-6.3-2-11.1,2.8-16.9,3.4
			c-4.6,0.4-8.6,3.1-13.1,4.1c-2.6,0.6-5.2,0.8-7.8,0.7c2.6,0.1,5.2-0.1,7.8-0.7c4.5-1.1,8.5-3.7,13.1-4.1
			C1309.9,1651.6,1314.7,1646.7,1321,1648.7c0.3,0.1,0.8-0.1,1.2-0.3C1321.8,1648.6,1321.3,1648.8,1321,1648.7z M1330.4,1645.3
			c0.7,0,1.4,0,2.2,0.1C1331.8,1645.4,1331.1,1645.3,1330.4,1645.3z M1356.7,1647.2c-2.7,0.2-5.5,0.1-8.2-0.1
			C1351.2,1647.4,1354,1647.5,1356.7,1647.2c11.4-0.9,22-5.5,33.6-8.7c0,0,0,0,0,0C1378.7,1641.7,1368.1,1646.3,1356.7,1647.2z
			 M1678.4,1153.7c-0.1,1.6-0.1,3.2,0.1,4.8h0C1678.3,1156.8,1678.3,1155.2,1678.4,1153.7z M1677.4,1112.3c0-2.7-0.1-5.5-0.1-8.2
			c3.2,1,6.6,1,10,1.3c0.4,0,0.9,0,1.3,0c1.1,0.7,2.3,1.4,3.4,2.1c-0.2,0.4-0.5,0.9-0.7,1.3
			C1686.7,1110.4,1682.2,1111.8,1677.4,1112.3z"/>
	</g>
</g>
<g id="Layer_6">
</g>
<g id="Layer_5">
</g>
<g id="Layer_4">
</g>
<g id="Layer_3">
</g>
<g id="Layer_2">
</g>
</svg>
