<?xml version="1.0" encoding="utf-8"?>
<!-- Generator: Adobe Illustrator 24.0.2, SVG Export Plug-In . SVG Version: 6.00 Build 0)  -->
<svg version="1.1" xmlns="http://www.w3.org/2000/svg" xmlns:xlink="http://www.w3.org/1999/xlink" x="0px" y="0px"
	 viewBox="0 0 1982.6 2048" enable-background="new 0 0 1982.6 2048" xml:space="preserve">
<g id="Layer_1">
	<g id="Layer_23">
	</g>
</g>
<g id="Layer_22">
</g>
<g id="Layer_21">
</g>
<g id="Layer_20">
</g>
<g id="Layer_19">
</g>
<g id="Layer_18">
</g>
<g id="Layer_17">
</g>
<g id="Layer_16">
</g>
<g id="Layer_15">
</g>
<g id="Layer_14">
</g>
<g id="Layer_13">
</g>
<g id="Layer_12">
	<g>
		<path d="M1885.7,1249.5c-0.7-3.7-1.5-7.4-2.2-11c-0.2-1-0.4-2.1-0.6-3.1c-0.5-2.7-1.1-5.5-1.6-8.2c-0.2-1-0.4-2-0.6-3
			c-0.5-3-1.1-5.9-1.6-8.9c-0.1-0.6-0.2-1.3-0.3-1.9c-3.5-19.3-6.7-38.7-9.7-58.1c0,0,0,0,0-0.1c-3.5-22.2-6.8-44.4-10.1-66.6
			c-0.7-4.7-1.4-9.5-2.1-14.2c0,0,0,0,0,0c-17.8-119.8-34.4-239.8-57.3-358.8c-17.9-93.5-14.3-175.8-86.2-284
			c-73.5-110.6-390.8-323.3-770.1-238.7c-434.1,96.8-423.4,367.7-427.1,495.2c0,0.2,0,0.4,0,0.7c0,0.9-0.1,1.8-0.1,2.7
			c0,0.6,0,1.2-0.1,1.8c0,0.6,0,1.2-0.1,1.8c0,0.8-0.1,1.7-0.1,2.5c0,0.4,0,0.7,0,1.1c0,0.9-0.1,1.7-0.1,2.6c0,0.3,0,0.6,0,1
			c0,0.9-0.1,1.8-0.1,2.7c0,0.3,0,0.5,0,0.8c-0.1,0.9-0.1,1.8-0.2,2.7c0,0.2,0,0.4,0,0.7c-0.1,0.9-0.1,1.9-0.2,2.8
			c0,0.2,0,0.4,0,0.5c-0.1,1-0.1,1.9-0.2,2.8c0,0.1,0,0.2,0,0.4c-0.1,1-0.2,2-0.3,3c0,0.1,0,0.2,0,0.3c-0.1,0.9-0.2,1.9-0.3,2.8
			c0,0.1,0,0.2,0,0.3c-0.1,0.9-0.2,1.7-0.3,2.6c0,0.1,0,0.2,0,0.4c-0.1,0.8-0.2,1.6-0.4,2.4c0,0.1,0,0.2-0.1,0.4
			c-0.1,0.8-0.3,1.6-0.4,2.3c0,0.1,0,0.2-0.1,0.3c-0.1,0.8-0.3,1.5-0.4,2.3c0,0.1,0,0.2-0.1,0.3c-0.2,0.7-0.3,1.5-0.5,2.2
			c0,0.1,0,0.1-0.1,0.2c-0.2,0.7-0.4,1.5-0.6,2.2c0,0,0,0.1,0,0.1c-0.2,0.7-0.4,1.5-0.7,2.2c0,0,0,0,0,0c-0.2,0.7-0.5,1.4-0.7,2
			c0,0,0,0.1,0,0.1c-0.2,0.6-0.5,1.2-0.7,1.8c0,0.1-0.1,0.1-0.1,0.2c-0.2,0.6-0.5,1.1-0.8,1.6c0,0.1-0.1,0.1-0.1,0.2
			c-0.3,0.5-0.5,1-0.8,1.5c0,0.1-0.1,0.1-0.1,0.2c-0.3,0.5-0.6,0.9-0.9,1.4c0,0.1-0.1,0.1-0.1,0.2c-0.3,0.4-0.6,0.9-1,1.3
			c0,0-0.1,0.1-0.1,0.1c-0.3,0.4-0.7,0.8-1.1,1.2c0,0,0,0-0.1,0.1c-0.4,0.4-0.8,0.8-1.2,1.1c-51.5,41.8-11.2-37-109.5-87.2
			c-1.2-0.6-2.3-1.1-3.5-1.7c-0.2-0.1-0.4-0.2-0.6-0.3c-1.2-0.5-2.3-1-3.5-1.5c-0.1,0-0.2-0.1-0.3-0.1
			c-95.4-39.7-184.4,87.8-193.6,262.7c-0.1,1.4-0.2,2.9-0.3,4.3c0,0.5-0.1,0.9-0.1,1.4c-0.1,0.9-0.1,1.9-0.2,2.8
			c0,0.6-0.1,1.1-0.1,1.7c-0.1,0.8-0.1,1.6-0.2,2.5c-0.1,0.6-0.1,1.2-0.2,1.8c-0.1,0.8-0.2,1.5-0.2,2.3c-0.1,0.6-0.1,1.2-0.2,1.8
			c-0.1,0.7-0.2,1.4-0.3,2.2c-0.1,0.6-0.2,1.2-0.2,1.8c-0.1,0.7-0.2,1.4-0.3,2.1c-0.1,0.6-0.2,1.2-0.3,1.8c-0.1,0.7-0.2,1.4-0.3,2
			c-0.1,0.6-0.2,1.2-0.3,1.8c-0.1,0.7-0.2,1.3-0.3,2c-0.1,0.6-0.2,1.2-0.3,1.8c-0.1,0.6-0.2,1.3-0.4,1.9c-0.1,0.6-0.2,1.2-0.4,1.8
			c-0.1,0.6-0.2,1.2-0.4,1.9c-0.1,0.6-0.3,1.2-0.4,1.8c-0.1,0.6-0.3,1.2-0.4,1.8c-0.1,0.6-0.3,1.2-0.4,1.8c-0.1,0.6-0.3,1.2-0.4,1.8
			c-0.1,0.6-0.3,1.2-0.4,1.7c-0.1,0.6-0.3,1.2-0.4,1.7c-0.2,0.6-0.3,1.2-0.5,1.7c-0.2,0.6-0.3,1.1-0.5,1.7c-0.2,0.6-0.3,1.1-0.5,1.7
			c-0.2,0.6-0.3,1.1-0.5,1.7c-0.2,0.6-0.3,1.1-0.5,1.7c-0.2,0.5-0.3,1.1-0.5,1.6c-0.2,0.6-0.4,1.1-0.5,1.7c-0.2,0.5-0.3,1-0.5,1.6
			c-0.2,0.6-0.4,1.1-0.6,1.7c-0.2,0.5-0.4,1-0.5,1.5c-0.2,0.5-0.4,1.1-0.6,1.6c-0.2,0.5-0.4,1-0.5,1.5c-0.2,0.5-0.4,1.1-0.6,1.6
			c-0.2,0.5-0.4,1-0.6,1.4c-0.2,0.5-0.4,1.1-0.6,1.6c-0.2,0.5-0.4,0.9-0.6,1.4c-0.2,0.5-0.4,1.1-0.7,1.6c-0.2,0.4-0.4,0.9-0.5,1.3
			c-0.2,0.6-0.5,1.1-0.7,1.7c-0.2,0.4-0.3,0.7-0.5,1.1c-0.9,2.1-1.9,4.3-2.9,6.3c-0.2,0.4-0.3,0.7-0.5,1.1c-0.3,0.5-0.5,1-0.8,1.6
			c-0.2,0.4-0.4,0.8-0.6,1.2c-0.3,0.5-0.5,1-0.8,1.5c-0.2,0.4-0.4,0.8-0.6,1.2c-0.3,0.5-0.5,1-0.8,1.4c-0.2,0.4-0.4,0.8-0.7,1.2
			c-0.3,0.5-0.5,0.9-0.8,1.4c-0.2,0.4-0.5,0.8-0.7,1.2c-0.3,0.5-0.5,0.9-0.8,1.4c-0.2,0.4-0.5,0.8-0.7,1.2c-0.3,0.4-0.5,0.9-0.8,1.3
			c-0.2,0.4-0.5,0.8-0.7,1.2c-0.3,0.4-0.5,0.9-0.8,1.3c-0.2,0.4-0.5,0.8-0.7,1.2c-0.3,0.4-0.5,0.8-0.8,1.3c-0.3,0.4-0.5,0.8-0.8,1.2
			c-0.3,0.4-0.5,0.8-0.8,1.2c-0.3,0.4-0.5,0.8-0.8,1.2c-0.3,0.4-0.5,0.8-0.8,1.2c-0.3,0.4-0.5,0.8-0.8,1.2c-0.3,0.4-0.5,0.8-0.8,1.2
			c-0.3,0.4-0.6,0.8-0.8,1.2c-0.3,0.4-0.5,0.8-0.8,1.1c-0.3,0.4-0.6,0.8-0.8,1.2c-0.3,0.4-0.5,0.7-0.8,1.1c-0.3,0.4-0.6,0.8-0.9,1.2
			c-0.3,0.4-0.5,0.7-0.8,1.1c-0.3,0.4-0.6,0.8-0.9,1.2c-0.3,0.3-0.5,0.7-0.8,1c-0.3,0.4-0.6,0.8-0.9,1.2c-0.3,0.3-0.5,0.6-0.8,0.9
			c-0.3,0.4-0.7,0.8-1,1.2c-0.2,0.3-0.5,0.6-0.7,0.9c-0.3,0.4-0.7,0.8-1,1.2c-0.2,0.3-0.5,0.5-0.7,0.8c-0.4,0.4-0.7,0.9-1.1,1.3
			c-0.2,0.2-0.4,0.5-0.6,0.7c-0.4,0.5-0.8,0.9-1.2,1.4c-0.2,0.2-0.3,0.4-0.5,0.6c-0.5,0.6-1,1.1-1.5,1.6c-0.1,0.1-0.2,0.2-0.3,0.3
			c-2.9,3.2-5.8,6.2-8.8,9.2c-2.8,2.8-5.5,5.4-8.3,8c-0.1,0.1-0.2,0.2-0.3,0.3c-1.3,1.2-2.6,2.4-3.9,3.6c-0.1,0.1-0.1,0.1-0.2,0.2
			c-6.7,6.1-13.4,11.7-19.7,17c-27.3,23.2-47.9,41.2-40.5,70c0,0.1,0,0.1,0,0.2c0.4,1.7,1,3.4,1.6,5.1c0,0.1,0.1,0.3,0.1,0.4
			c0.6,1.7,1.3,3.4,2.1,5.1c0.1,0.2,0.2,0.4,0.3,0.6c0.4,0.9,0.8,1.7,1.3,2.6c41.1,81.5,86.6,55.7,158.4,19.5c0,0,0,0,0,0
			c1.8-0.9,3.6-1.8,5.5-2.8c38.6-19.4,76.1,4.2,110.3,37.6c0.1,0.2,0.2,0.3,0.3,0.5c1.6,2.3,2.6,3.6,2.6,3.6s1,1.3,2.9,3.3
			c1.9,2.1,4.7,5.1,8,8.6c3.4,3.3,7.4,7.2,11.9,11.1c23.8,26.5,45.6,53.7,64.5,68.2c15.5,11.9,37.9,17,54.7,7.1
			c10.8-6.4,17.6-17.7,27.1-25.9c7.3-6.4,18.3-10.6,27.1-8.2c2.5,0.7,4.9,2,6.9,3.9c5.6,5.2,6.8,13.5,7.4,21.1
			c7.9,96.1-26.1,197.4,9.4,287.1c7.1,18.1,17.9,36,35.2,44.9c17.3,8.9,42,5.2,51.2-11.9c5.3-10,4.9-23,12.7-31.2
			c14.9-15.6,42.4,2.8,46.4,24c3.9,21.2-4.6,42.7-3.4,64.2c0,0.8,0.1,1.7,0.2,2.5c0,0.2,0,0.3,0.1,0.5c0.1,0.7,0.1,1.3,0.2,2
			c0,0.1,0,0.2,0,0.3c0.1,0.7,0.2,1.4,0.3,2.1c0,0.1,0,0.1,0,0.2c5.5,30.8,33.2,53.5,64.5,60.6c0,0,0.1,0,0.1,0
			c2.3,0.5,4.7,1,7.1,1.3c0.1,0,0.2,0,0.3,0c2.3,0.3,4.6,0.6,7,0.7c0.2,0,0.3,0,0.5,0c1.2,0.1,2.3,0.1,3.5,0.2c0,0,0,0,0.1,0
			c1.1,0,2.2,0,3.3,0c0.2,0,0.4,0,0.6,0c1.1,0,2.3-0.1,3.4-0.1c0,0,0.1,0,0.1,0c1.1-0.1,2.1-0.2,3.2-0.3c0.2,0,0.5,0,0.7-0.1
			c1.1-0.1,2.2-0.3,3.3-0.4c0.1,0,0.1,0,0.2,0c1-0.2,2.1-0.3,3.1-0.5c0.3,0,0.5-0.1,0.8-0.2c1.1-0.2,2.1-0.5,3.2-0.7
			c0,0,0.1,0,0.1,0c1-0.3,2-0.5,3-0.8c0.3-0.1,0.5-0.2,0.8-0.2c1-0.3,2.1-0.7,3.1-1c0,0,0.1,0,0.1,0c1-0.4,2-0.7,3-1.1
			c0.3-0.1,0.5-0.2,0.8-0.3c1-0.4,2-0.9,3-1.3c29.9-14.1,58-44.4,89.6-34.6c13.8,4.2,24,15.5,35.4,24.3
			c49.4,38.6,123.4,31.7,176.5-1.7c10.1-6.4,20-13.7,31.7-16.2c16.6-3.6,33.4,3.2,50.1,6.4c35,6.8,72.8-3,100.1-25.9
			c8.9-7.4,16.9-16.3,27.6-20.7c25.4-10.4,52.5,8.2,75,24c0.7,0.5,1.4,1,2.2,1.5c0,0,0.1,0,0.1,0.1c22.3,15.1,53,27.1,73.1,9.7
			c8.4-7.3,12.5-18.3,18.5-27.8c0.1-0.1,0.1-0.2,0.2-0.3c0.4-0.6,0.7-1.1,1.1-1.7c0.1-0.2,0.2-0.3,0.3-0.5c0.4-0.5,0.7-1,1.1-1.5
			c0.1-0.2,0.3-0.4,0.4-0.5c0.5-0.7,1-1.3,1.6-1.9c13.1-15.4,35.5-19.9,55.5-17.4c20.1,2.5,38.8,10.9,58,17.4
			c53.1,17.8,122.2,15.4,152.8-31.5c1.7-2.6,3.2-5.2,4.6-7.9c3.2-2.5,6.1-5.2,8.4-8c2.4-2.3,3.6-4.8,5.1-6.9c1.5-2.1,2.6-4,3.2-5.7
			c1.5-3.2,2.4-5.1,2.4-5.1c0,0,0.6-1.9,1.4-5.3c1-3.4,1.6-8.2,2.1-14c0.7-11.6-1.3-26.6-5.2-40.9c-3.8-14.3-9.1-28.1-13.4-38.3
			c-2-4.8-3.8-8.8-5.3-11.6c-6.9-43.7-5-94.1,30.5-119.1c20.9-14.7,48.1-16.2,71.4-26.7C1931.6,1358.1,1894.7,1293.9,1885.7,1249.5z
			"/>
	</g>
</g>
<g id="Layer_11">
</g>
<g id="Layer_10">
</g>
<g id="Layer_9">
</g>
<g id="Layer_8">
</g>
<g id="Layer_7">
</g>
<g id="Layer_6">
</g>
<g id="Layer_5">
</g>
<g id="Layer_4">
</g>
<g id="Layer_3">
</g>
<g id="Layer_2">
</g>
</svg>
