<?xml version="1.0" encoding="utf-8"?>
<!-- Generator: Adobe Illustrator 24.0.2, SVG Export Plug-In . SVG Version: 6.00 Build 0)  -->
<svg version="1.1" xmlns="http://www.w3.org/2000/svg" xmlns:xlink="http://www.w3.org/1999/xlink" x="0px" y="0px"
	 viewBox="0 0 1982.6 2048" enable-background="new 0 0 1982.6 2048" xml:space="preserve">
<g id="Layer_1">
	<g id="Layer_23">
	</g>
</g>
<g id="Layer_22">
</g>
<g id="Layer_21">
</g>
<g id="Layer_20">
</g>
<g id="Layer_19">
</g>
<g id="Layer_18">
</g>
<g id="Layer_17">
</g>
<g id="Layer_16">
</g>
<g id="Layer_15">
</g>
<g id="Layer_14">
</g>
<g id="Layer_13">
</g>
<g id="Layer_12">
</g>
<g id="Layer_11">
</g>
<g id="Layer_10">
</g>
<g id="Layer_9">
</g>
<g id="Layer_8">
</g>
<g id="Layer_7">
</g>
<g id="Layer_6">
</g>
<g id="Layer_5">
</g>
<g id="Layer_4">
</g>
<g id="Layer_3">
</g>
<g id="Layer_2">
	<path fill="#081613" d="M1672,1262c18.9-276.1-27.7-656.3-143.5-774.6c0,0-226.1-196-720.6-200.4c-13.7-0.1-27.3,1.9-40.4,5.9
		c-81.7,25-373.3,135.4-410.9,443.7c-13.3,109-14.7,215-10.3,309.7c-24.3,31.8-53.1,80.8-81.3,148.7c-48.2,115.8-1,210.2,55.5,209.5
		s40.9-38.2,45.7-66.9c4.9-28.7-20.4-41.5-20.4-41.5c-7.9-31.7-0.1-62.8,13.9-90.2c1.7,14.5,3.6,28.4,5.4,41.7l4.5,1.8l3.2,23.3
		l-3.9,1.4l0,0l0,0c0,0,0,0,0,0c13.9,91.5,28.5,147.8,28.5,147.8s19.2,137.5,334.5,204.8l-4.6,94.8c-0.2,4.4-2.9,8.2-7,9.8
		c-16.8,6.6-59.7,26.5-59.2,58.4c0.7,44.8,116.3,27.2,141.7,12.7c20.9-11.9,17.2-92.4,19.7-157.2c29.2,5.8,68.1,13,110.5,19.5
		l-1.3,107c-0.1,4.5-1.6,8.8-4.5,12.2c-12.1,14.5-44.1,57.1-31.7,88.6c16.7,42.2,81.5,6.9,106.3-20.2c24.8-27.2,25.7-22.6,29-85.4
		c1.5-28.3,2.6-61.3,3.4-89c58.7,5.8,115.2,7.8,155.4,1c80-13.4,231-32.1,341.6-110.2c4.5,0.8,9.6,1.3,15.6,1.4
		c36.1,0.5,68.5-38.1,74.5-96.3c20.2-33.4,34.6-72.6,41-118.7c0.1-0.7,0.2-1.4,0.3-2c2.7-19.3,4.8-38.6,6.7-59.6c0,0,0,0,0,0l-2.4-1
		c0.8-8.9,1.3-19.6,1.9-28.7L1672,1262z"/>
</g>
</svg>
