<?xml version="1.0" encoding="utf-8"?>
<!-- Generator: Adobe Illustrator 24.0.2, SVG Export Plug-In . SVG Version: 6.00 Build 0)  -->
<svg version="1.1" xmlns="http://www.w3.org/2000/svg" xmlns:xlink="http://www.w3.org/1999/xlink" x="0px" y="0px"
	 viewBox="0 0 1982.6 2048" enable-background="new 0 0 1982.6 2048" xml:space="preserve">
<g id="Layer_1">
	<g id="Layer_23">
	</g>
</g>
<g id="Layer_22">
</g>
<g id="Layer_21">
</g>
<g id="Layer_20">
</g>
<g id="Layer_19">
</g>
<g id="Layer_18">
</g>
<g id="Layer_17">
</g>
<g id="Layer_16">
</g>
<g id="Layer_15">
</g>
<g id="Layer_14">
</g>
<g id="Layer_13">
</g>
<g id="Layer_12">
</g>
<g id="Layer_11">
</g>
<g id="Layer_10">
</g>
<g id="Layer_9">
</g>
<g id="Layer_8">
</g>
<g id="Layer_7">
</g>
<g id="Layer_6">
</g>
<g id="Layer_5">
</g>
<g id="Layer_4">
</g>
<g id="Layer_3">
	<path d="M1820,1346.4c-0.8-4.3-2.8-8.3-4.7-12.1c-15-29.9-35.9-55.7-51.4-85.5c-5-9.7-9.7-19.5-13.8-29.6
		c-1.3-3.1-2.1-8.2-4.1-10.9l0,0l0,0c0,0,0,0,0,0s-19.3-85.1-53.8-211.5c-0.1-0.4-0.2-0.8-0.3-1.1c-0.4-1.6-0.9-3.1-1.3-4.7
		c-0.2-0.6-0.3-1.1-0.5-1.7c-0.4-1.5-0.8-3.1-1.3-4.6c0,0,0-0.1,0-0.1c-0.1-0.5-0.3-1-0.4-1.5c-0.7-2.7-1.5-5.4-2.2-8.1
		c-0.2-0.9-0.5-1.7-0.7-2.6c-0.3-1.2-0.7-2.4-1-3.7c-0.3-1-0.6-2.1-0.9-3.1c-0.3-1.2-0.6-2.3-1-3.5c-0.3-1.2-0.7-2.3-1-3.5
		c-0.3-1.1-0.6-2.1-0.9-3.2c-0.5-1.7-1-3.4-1.4-5.1c-0.3-1.2-0.7-2.3-1-3.5c-0.5-1.6-0.9-3.3-1.4-4.9c-0.3-0.9-0.5-1.9-0.8-2.8
		c-0.4-1.4-0.8-2.9-1.2-4.3c-0.3-1-0.6-1.9-0.8-2.9c-0.4-1.5-0.9-3-1.3-4.6c-0.2-0.8-0.5-1.7-0.7-2.5c-0.7-2.4-1.4-4.8-2-7.2h0l0,0
		h0h0c0,0,0,0,0,0l0,0l-4.2-0.4c-2.3-22-5-43.8-8.1-65.3c51.9-52.4,125.3-143.2,116.3-231.2c-12.8-127-130.2-140.8-160-141.6
		c-0.1,0-0.3,0-0.4,0c-0.3,0-0.5,0-0.8,0c-0.4,0-0.7,0-1,0c-0.1,0-0.2,0-0.2,0c-0.3,0-0.6,0-0.9,0c0,0-0.1,0-0.1,0c-0.3,0-0.7,0-1,0
		c0,0-35.7-1.1-72.8,15.9c-2.3-2.6-4.6-5.1-6.9-7.5c0,0-226.2-196.1-721-200.5c-5.8-0.1-11.5,0.3-17.3,1l-0.8-2.4l-8.2-3h-14h-3.9
		l-7,13.7c-94,30.8-364.2,144.4-400.3,440.6c-5.7,47.1-9.3,93.6-11.1,138.9l-2,0l-0.1,3.1l-65-1.6c-0.4,0-0.9,0-1.3,0.1l-45.9,8
		c-1.7,0.3-3.2,1.3-4.2,2.7l-12.2,17.4c-0.8,1.1-1.2,2.4-1.2,3.8v15.2c0,1.7,0.7,3.4,1.9,4.6l19.3,19.4c1.3,1.3,3,1.9,4.6,1.9
		c1.7,0,3.3-0.6,4.6-1.9c2.6-2.5,2.6-6.7,0-9.2l-17.4-17.5v-10.5l9.5-13.5l42.6-7.4l66.1,1.6c-1,32.7-1.2,64.7-0.6,95.8
		c-1-1.8-1.5-2.8-1.5-2.8s-12.9,22.2-7.1,34.7c5.9,12.5,0.3,11.1-1.6,20.4c-1.9,9.3,2.3,17.5,2.3,17.5s-8.7,4-11.7,12.9
		c-0.3,0.8-0.2,2.9,0.2,5.9c-19.2,30.1-40,69.5-60.6,118.9c-4,9.6-7.3,19.1-10.1,28.4c-0.2,0-0.4,0-0.6,0
		c-11.7,0-21.6,11.3-25.7,27.2c-0.1,0.3-0.2,0.6-0.2,0.9c0,0.1-0.1,0.2-0.1,0.3c-1.1,4.5-1.6,9.3-1.6,14.4c0,0,0,0.1,0,0.1
		c0,0,0,0.1,0,0.1c0,19.3,8.1,35.6,19.3,41.1c5.8,58.7,38.3,97.6,74.6,97.1c56.5-0.7,40.9-38.2,45.8-67c2.6-15.3-3.4-26.1-9.6-32.9
		c2.7,0.9,5.4,1.8,8.2,2.8c2.4,0.9,6.1,2.5,10.6,4.4c11.8,69.1,22.5,110.3,22.5,110.3s8.6,61.8,109.3,122.9l-1.3,1.3l0,0l-14,13.6
		l-42.8-2.4l29.1,39.6l24.2,23.4l170.4,84.8l55,14.1l-0.1,2.4c-0.2,4.4-2.9,8.2-7,9.8c-2.4,0.9-5.3,2.1-8.5,3.6
		c-0.2-0.1-0.3-0.1-0.3-0.1l-7.2,2.8c0-0.2,0-0.4-0.1-0.6c-0.1-0.4-0.5-0.7-1-0.8c-1.1-0.7-3.4-0.6-5.8,0.3c-1.8,0.6-3.2,1.6-4,2.5
		c-0.9,0.9-1.4,1.7-1.1,2.4c0.1,0.2,0.3,0.5,0.5,0.6l-6.2,2.4c0.3,0.1,0.6,0.2,0.9,0.3c0,0-0.1,0-0.1,0.1c-0.5-0.2-0.7-0.4-0.7-0.4
		s-3.3,1.8-4.5,3.1c-13.3,7.4-23.9,17.1-28,29.6c-1.3,3.9-2,7.6-2.3,11.1c-0.6,3.5-0.9,7.7-0.7,12.1c-0.5,0.7-0.8,1.1-0.8,1.1
		s0.4,0.5,1,1.4c0.9,8.7,4.4,17.8,13.7,23.5c15.1,9.3,46.4,10.7,64.1,10.7c7.3,0,12.3-0.2,13-0.3c4.3-0.2,105.3-5.9,132-44.1
		c6.6-9.5,8.1-20.2,4.5-31.8c-0.8-2.6-1.9-5-3.4-7.2c-7.4-14.4-31.8-21.9-54.9-25.8c0.3-7.3,0.5-14.9,0.7-22.6l31.3-42l2.4-10.9
		c7.4,1.3,11.8,2.2,11.8,2.2l0.5-0.5c20.2,3.7,42.6,7.5,66,11.1l-1.3,106.9c-0.1,4.5-1.6,8.8-4.5,12.2c-4.8,5.8-12.8,16-19.8,28.2
		c-0.1,0-0.1,0-0.1,0l-0.9,1.4c-0.1,0-0.2,0-0.4,0c-1.9-0.3-4.1,0.8-5.6,3c-1,1.5-1.4,3.3-1.1,4.7c0,0.7,0.1,1.3,0.4,1.9
		c-0.8,1-1.7,2-2.5,3.1c-1.2,0.7-2.2,1.6-2.9,2.5c0,0-0.9,1.7-1.1,3.1c-2.6,4-4.9,8.2-6.6,12.5c-5.7,14.6-4.8,29.2,2.7,43.5
		c1.3,2.5,2.8,4.7,4.4,6.7c3.8,7.7,10.8,17.4,23.1,19.5c1.5,0.3,3.2,0.4,5,0.4c25,0,73.6-26.3,124.6-80.2
		c22.5-23.7,32.1-42.2,29.5-56.6c-1-5.6-3.8-10-7.3-13.5c-0.2-0.3-0.5-0.7-0.8-1c-9.4-10.4-23.7-12.2-36.1-11.3
		c1.1-24.5,2-51,2.6-73.9c58.8,5.9,115.5,7.8,155.7,1.1c80.1-13.5,231.3-32.1,342-110.4c4.4,0.8,9.4,1.3,15.3,1.4
		c23.2,0.3,44.9-15.5,59-42.3c15.4,5.8,28.4,6.2,38.9-9.6c5-7.6,6.5-12.4,15.8-16.3c8.6-3.6,18.2-4.5,27.4-5.3
		c15.3-1.3,32.6-3.9,41.2-16.6c6.5-9.6,5.9-22.3,4-33.8c-1.9-11.5-4.9-23.2-2.3-34.5c2.2-9.5,8.1-17.7,14.8-24.8
		c1.5-1.6,3.2-3.3,5.3-4.2c2.4-1,5-0.8,7.6-0.7c13.5,0.8,27.6,1.2,40-4.2c8.7-3.8,16.3-11.3,19.2-20
		C1820.4,1354.4,1820.8,1350.4,1820,1346.4z M896.4,1873c-1.2-3.1-2-6.3-2.4-9.5C894.5,1866.8,895.3,1869.9,896.4,1873
		c2.2,5.4,5.1,9.5,8.6,12.5c0,0,0,0,0,0c-2.6-2.2-4.8-5.1-6.7-8.5l0,0C897.6,1875.8,897,1874.4,896.4,1873z M898.1,1834.3
		C898.1,1834.3,898.1,1834.3,898.1,1834.3c-2.8,8.1-4.6,16.4-4.3,24.4c0,0.2,0,0.3,0,0.5C893.4,1851.1,895.1,1842.6,898.1,1834.3z
		 M346.8,1263.3c-0.6-7.7-1.5-13.6-1.5-13.6c-0.1,0.1-0.3,0.2-0.5,0.2c2.7-15.5,8.3-30.5,15.5-44.6c1.8,14.8,3.6,29,5.5,42.5
		l4.5,1.8l2.1,15.4C363.5,1264.2,354.7,1263.6,346.8,1263.3z M1670.8,1288.4c-0.1,1.4-0.3,2.8-0.4,4.3c0,0,0,0.5-0.1,1l-1.7-0.7
		c0.8-8.9,1.3-19.6,1.9-28.7l2.2-1.3l-0.1,1c0,0.3,0,0.5-0.1,0.8c-0.2,3.2-0.4,6.4-0.7,9.5c-0.1,1.7-0.3,3.4-0.4,5
		C1671.3,1282.3,1671,1285.4,1670.8,1288.4z M1669.8,917.7c-0.5,0.3-1.8,1-3.6,2c0,0,0,0,0,0L1669.8,917.7z M364.5,1288.4
		c-2.1,0-3.8-2.2-3.8-4.9c0-2.7,1.7-4.9,3.8-4.9c2.1,0,3.8,2.2,3.8,4.9C368.3,1286.2,366.6,1288.4,364.5,1288.4z M691.7,1746.5
		c0,0,0.1,0,0.1,0.1c-0.1,0.1-0.2,0.1-0.3,0.2c0,0-0.1,0-0.1-0.1C691.5,1746.6,691.6,1746.5,691.7,1746.5z M686.4,1750.1
		c0.1,0,0.1,0,0.2,0.1c-11.6,8.6-21.8,19.7-24.2,33.3c-0.1,0.1-0.1,0.2-0.2,0.3c0-0.1,0-0.3,0.1-0.4c0.1-0.4,0.2-0.8,0.2-1.1
		c0.1-0.3,0.1-0.7,0.2-1c0.1-0.4,0.2-0.8,0.3-1.2c0.1-0.3,0.2-0.6,0.3-0.9c0.1-0.4,0.3-0.9,0.4-1.3c0.1-0.2,0.2-0.5,0.3-0.7
		c0.2-0.5,0.3-0.9,0.5-1.4c0.1-0.2,0.2-0.4,0.3-0.6c0.2-0.5,0.4-1,0.6-1.4C669.8,1764.4,677.7,1756.5,686.4,1750.1z"/>
</g>
<g id="Layer_2">
</g>
</svg>
