<?xml version="1.0" encoding="utf-8"?>
<!-- Generator: Adobe Illustrator 24.0.2, SVG Export Plug-In . SVG Version: 6.00 Build 0)  -->
<svg version="1.1" xmlns="http://www.w3.org/2000/svg" xmlns:xlink="http://www.w3.org/1999/xlink" x="0px" y="0px"
	 viewBox="0 0 1982.6 2048" enable-background="new 0 0 1982.6 2048" xml:space="preserve">
<g id="Layer_1">
	<g id="Layer_23">
	</g>
</g>
<g id="Layer_22">
</g>
<g id="Layer_21">
</g>
<g id="Layer_20">
</g>
<g id="Layer_19">
</g>
<g id="Layer_18">
</g>
<g id="Layer_17">
</g>
<g id="Layer_16">
</g>
<g id="Layer_15">
</g>
<g id="Layer_14">
</g>
<g id="Layer_13">
</g>
<g id="Layer_12">
</g>
<g id="Layer_11">
	<path d="M1851.3,914.3c0-0.3,0-0.6,0-0.9c0-0.1,0-0.3,0-0.4c0-0.4-0.1-0.7-0.1-1c0-0.1,0-0.1,0-0.2c-0.1-0.4-0.2-0.7-0.3-1.1
		c0-0.1-0.1-0.3-0.1-0.4c-0.1-0.2-0.2-0.4-0.3-0.6c-0.1-0.1-0.1-0.3-0.2-0.4c-0.1-0.2-0.2-0.4-0.3-0.6c-0.1-0.2-0.2-0.3-0.3-0.5
		c-0.1-0.2-0.3-0.4-0.5-0.6c-0.1-0.1-0.3-0.3-0.4-0.4c-0.1-0.1-0.2-0.2-0.4-0.4c-0.1-0.1-0.3-0.3-0.5-0.4c-0.1-0.1-0.2-0.2-0.4-0.3
		c-0.4-0.3-0.7-0.5-1.1-0.8c-0.1,0-0.2-0.1-0.2-0.1c-0.2-0.1-0.5-0.2-0.7-0.4c-0.1-0.1-0.2-0.1-0.4-0.2c-0.2-0.1-0.5-0.2-0.7-0.3
		c-0.1,0-0.2-0.1-0.4-0.1c-24.1-9.2-100.9,17.8-126.4,36.8c-18,13.3-34.3,36.7-44.9,54.1c-0.1-0.9-0.1-1.9-0.2-2.8
		c1-1.6,2.1-3.1,3.1-4.7l-1.9-28.9c0-0.1,0.1-0.1,0.1-0.2c0,0,0,0,0,0c0.3-0.6,0.7-1.2,1-1.8c0-0.1,0.1-0.1,0.1-0.2
		c0.3-0.6,0.5-1.3,0.8-1.9c0-0.1,0.1-0.2,0.1-0.3c0.2-0.7,0.4-1.3,0.6-2c0-0.1,0.1-0.2,0.1-0.3c0.2-0.7,0.3-1.4,0.4-2.2
		c0-0.1,0-0.2,0.1-0.4c0.1-0.8,0.2-1.5,0.3-2.3c0-0.1,0-0.2,0-0.4c0.1-0.8,0.2-1.6,0.2-2.5c0-0.1,0-0.2,0-0.3c0-0.9,0.1-1.8,0.1-2.7
		c0,0,0-0.1,0-0.1c0-1,0-1.9,0-2.9c0,0,0,0,0-0.1c0-1-0.1-2-0.1-3c0-0.1,0-0.1,0-0.2c-0.1-1-0.1-2-0.2-3c0-0.1,0-0.2,0-0.3
		c-0.1-1-0.2-2-0.3-3c0-0.1,0-0.2,0-0.3c-0.1-1-0.3-2-0.4-3.1c0-0.1,0-0.1,0-0.2c-0.1-1.1-0.3-2.1-0.5-3.2c0,0,0,0,0,0
		c-0.5-3.3-1.2-6.7-1.9-10l0,0c0,0,0,0,0,0c0,0,0,0,0-0.1c-0.1-0.6-0.2-1.2-0.2-1.8c0-0.2-0.1-0.4-0.1-0.6c-0.1-0.5-0.1-0.9-0.2-1.4
		c0-0.2-0.1-0.4-0.1-0.6c-0.1-0.6-0.2-1.3-0.4-1.9c0,0,0-0.1,0-0.1c-0.1-0.6-0.3-1.3-0.4-1.9c0-0.2-0.1-0.4-0.1-0.6
		c-0.1-0.5-0.2-1-0.3-1.4c0-0.2-0.1-0.4-0.1-0.6c-0.2-0.7-0.3-1.3-0.5-2c0,0,0,0,0,0c-0.2-0.7-0.3-1.3-0.5-2c0-0.2-0.1-0.3-0.1-0.5
		c-0.1-0.5-0.3-1-0.4-1.6c0-0.1-0.1-0.3-0.1-0.4c-0.4-1.4-0.8-2.7-1.2-4c0,0,0-0.1,0-0.1c-1.2-4-2.5-7.7-3.6-10.6l1.8-5.3l4.7-13.7
		l-3.3-6.1c3-29.9,5.7-84.2-2.9-149.7c-3.2-39.8-12.2-84.2-30.5-130.7c-20.4-58.3-52.9-118.1-103-174.6c0-0.1-0.1-0.1-0.1-0.2
		c0,0-88.5-128.3-312.1-199.6c0,0,0,0,0,0c-0.3-0.3-3-3.2-8.4-7.6c0-1.2-0.1-1.8-0.1-1.8s-41.3-46.3-140.9-64.3
		c-0.3-0.1-0.6-0.1-0.9-0.2c-1.3-0.2-2.5-0.4-3.8-0.7c-0.2,0-0.4-0.1-0.6-0.1c-2.3-0.4-4.7-0.8-7.1-1.1c-0.6-0.1-1.2-0.2-1.8-0.3
		c-1-0.1-2-0.3-3-0.4c-0.8-0.1-1.7-0.2-2.5-0.3c-0.9-0.1-1.9-0.2-2.8-0.4c-1-0.1-2.1-0.3-3.1-0.4c-0.8-0.1-1.6-0.2-2.4-0.3
		c-1.8-0.2-3.5-0.4-5.3-0.6c-0.7-0.1-1.4-0.1-2.2-0.2c-1.1-0.1-2.1-0.2-3.2-0.3c-0.5-0.2-1-0.5-1.5-0.7c-0.3-0.1-0.5-0.2-0.8-0.3
		c-11.9-5.2-27-8.4-46.1-8.1c-1.4,0-2.7,0.1-4,0.1l-0.3,0c0,0,0,0,0,0c-17.9,0.7-31.9,4.4-42.7,9.8c-0.9,0.1-1.7,0.2-2.6,0.3
		c-0.8,0.1-1.7,0.2-2.5,0.3c-1.5,0.2-2.9,0.3-4.3,0.5c-0.8,0.1-1.6,0.2-2.3,0.3c-1.6,0.2-3.2,0.4-4.9,0.7c-0.5,0.1-1.1,0.1-1.6,0.2
		c-2.1,0.3-4.2,0.6-6.3,1c-0.4,0.1-0.9,0.2-1.3,0.2c-1.6,0.3-3.2,0.5-4.8,0.8c-0.7,0.1-1.4,0.3-2.1,0.4c-1.3,0.2-2.7,0.5-4,0.7
		c-0.7,0.1-1.5,0.3-2.2,0.4c-1.3,0.3-2.5,0.5-3.8,0.8c-0.7,0.1-1.4,0.3-2.1,0.4c-1.4,0.3-2.7,0.6-4,0.9c-0.6,0.1-1.1,0.2-1.7,0.4
		c-1.9,0.4-3.7,0.9-5.5,1.3c-0.1,0-0.3,0.1-0.4,0.1c-1.7,0.4-3.3,0.8-5,1.3c-0.6,0.1-1.1,0.3-1.7,0.5c-1.2,0.3-2.4,0.6-3.6,1
		c-0.6,0.2-1.2,0.3-1.9,0.5c-1.1,0.3-2.2,0.6-3.3,1c-0.6,0.2-1.2,0.4-1.8,0.5c-1.2,0.3-2.3,0.7-3.4,1c-0.5,0.2-1,0.3-1.5,0.5
		c-1.5,0.5-3,1-4.5,1.4c-0.1,0-0.2,0.1-0.3,0.1c-1.6,0.5-3.1,1.1-4.7,1.6c-0.4,0.1-0.8,0.3-1.2,0.4c-1.1,0.4-2.2,0.8-3.3,1.2
		c-0.5,0.2-1,0.4-1.5,0.5c-1,0.4-2,0.7-2.9,1.1c-0.5,0.2-1,0.4-1.5,0.6c-1,0.4-2,0.8-2.9,1.1c-0.4,0.2-0.8,0.3-1.3,0.5
		c-1.2,0.5-2.3,0.9-3.5,1.4c-0.2,0.1-0.4,0.1-0.5,0.2c-1.4,0.6-2.7,1.1-4,1.7c-0.2,0.1-0.4,0.2-0.6,0.2c-1.1,0.5-2.1,0.9-3.2,1.4
		c-0.4,0.2-0.7,0.3-1,0.5c-0.9,0.4-1.8,0.8-2.6,1.2c-0.4,0.2-0.7,0.3-1.1,0.5c-0.9,0.4-1.7,0.8-2.5,1.2c-0.3,0.1-0.6,0.3-0.9,0.4
		c-1,0.5-1.9,0.9-2.8,1.4c-0.1,0.1-0.3,0.1-0.4,0.2c-26.1,13.2-38.7,24.8-38.7,24.8s-0.6,1.6-1.2,4.6c-4.1,3-6.2,4.8-6.2,4.8
		s-0.1,0.3-0.3,1c-84,24.8-134.1,55.3-134.1,55.3C200.6,451.1,299.9,862,343.7,990.7c-3.5-2.3-6.9-4.7-10.4-7l-6.3,14.7
		c3.4,8.2,9.7,12.9,9.7,12.9s0.1,0.1,0.3,0.3c-0.1,0.4-0.1,0.8-0.2,1.2c-0.1,0.4-0.2,0.8-0.2,1.2c-0.2,0.8-0.3,1.7-0.4,2.5
		c-0.1,0.3-0.1,0.7-0.2,1c-0.2,0.9-0.3,1.9-0.4,2.8c0,0.2-0.1,0.4-0.1,0.6c-1.5,10-2.1,18.9-2.1,27c-19.2,15.6-31.8,31.8-31.8,31.8
		l2.3,12.6h-13.2l-61.9,88.8l2.3,12.6l-8,0.6l-15.7,83l11.2,11.5l-11.2,4c0,0-0.6,17.2,8.9,33.7l-8.9,15.4l6,14.6l3.6,3l-0.8,1.7
		v46.7l31.5,83l56.7,26.9l89.9-15.5l2.3-3.1c0.7-0.3,1.4-0.6,2-1c4.4-3,7.1-11,10.3-15.3c3.7-4.9,7.4-9.8,11.1-14.7
		c32,45.2,110.2,113.5,299.7,156.3l0.8,14l-1.8,19.8l5.6,5.6l-7.3,0.9l-1.3,43.4l4.3,6.4h-9.4l-24.5,12.2l-1.6,5.2l0,0l-1,3.1
		l-11.6-4.7c-26.4,3-46.8,23.4-48.5,55c-0.1,2.7,0,5.2,0.3,7.5v15.3l23.4,14.6l59.9,8.6l98.4-5.7l21.5-12.5l5-20.4l-1.9-3l5.6-4.7
		l17.2-98.1l-6.9-9.5l6.9-3.8l-2.2-22.7c20.4,3.8,43.6,7.9,68.3,11.9l0.8,14.6l0.1,0l1.9,31.3l8.2,6.4l-6.9,6l-4.3,56.7l6,7.3
		l-10.7,3l-22.8,43.4l3.4,4.3l-6.5,3.4c-4.8,26.5,3.2,44.1,21.9,52.4c1.8,1,18,9.5,42.3,3.6c8.4-1.8,13.5-4.5,13.5-4.5l0.8-7.3
		l4.8,2.6c0,0,6.2,3.3,26.5-16.4c0,0,0,0,0,0c20.3-18.1,43.1-44.6,43.1-44.6l-5.9-5.5l5.5-6.9l5.2-88.5l-5.2-6.6l5.2-5.9v-32.4
		c55,5,107.3,6.4,145.1,0c57.1-9.6,150.2-21.8,239.2-56.4l0.1,0.1l16.4-6.7l20.8,27.5l89.9,15.5l56.7-26.9l31.5-83v-46.7l-0.8-1.7
		l3.6-3l6-14.6l-8.9-15.4c9.5-16.5,8.9-33.7,8.9-33.7l-9.9-3.6c0.4-0.9,0.7-1.9,1.1-2.8l8.8-9.1l-2-10.6c5.1-16.5,9-34,11.6-52.7
		c0.1-0.6,0.2-1.2,0.2-1.8c2.7-19.4,4.9-38.8,6.7-59.9c0,0,0,0,0,0l-2.4-1c0.8-8.9,1.3-19.6,1.9-28.7l3-1.7
		c4.5-65,5.3-135.7,2.4-207.4c3.5-3.4,6.5-7,10.2-8.7h0l0,0c2.3-1,4.8-1.3,7.8-0.3c2.2,0.7,4,0.7,5.6,0.3c3.5-1,5.8-4.2,7.2-7.5
		c0.3-0.7,0.6-1.5,0.8-2.2c0.1-0.2,0.1-0.4,0.2-0.6c1-3.2,1.3-6,1.3-6s3.7,7.9,10.6,13.5c4.4,3.5,10,6,16.8,5c0,0,0.1,0,0.1,0
		c0.3,0,0.6-0.1,0.8-0.2c0.1,0,0.2,0,0.3-0.1c0.2-0.1,0.4-0.1,0.6-0.2c0.1,0,0.2,0,0.2-0.1c0.3-0.1,0.5-0.2,0.7-0.3c0,0,0,0,0,0
		c0.2-0.1,0.4-0.2,0.6-0.3c0.1,0,0.1-0.1,0.2-0.1c0.2-0.1,0.3-0.2,0.5-0.3c0,0,0.1,0,0.1-0.1c0.4-0.3,0.7-0.5,1-0.8c0,0,0,0,0,0
		c5.7-6.5-11.6-22.7-11.6-22.7c0,0,51.1,18.8,72.5-7.9c0,0,0,0,0.1-0.1c0.3-0.4,0.7-0.8,1-1.3c0.1-0.1,0.2-0.3,0.3-0.4
		c0.2-0.3,0.4-0.6,0.6-0.9c0.1-0.2,0.2-0.3,0.3-0.5c0.2-0.3,0.4-0.5,0.5-0.8c0.1-0.2,0.2-0.3,0.3-0.5c0.2-0.3,0.3-0.5,0.5-0.8
		c0.1-0.1,0.2-0.3,0.2-0.4c0.2-0.3,0.3-0.6,0.4-0.9c0.1-0.1,0.1-0.2,0.2-0.3c0.2-0.4,0.3-0.7,0.5-1.1c0,0,0-0.1,0-0.1
		c0.5-1.2,0.8-2.3,1-3.4c0,0,0,0,0,0c0.1-0.4,0.1-0.7,0.2-1.1c0,0,0,0,0,0c1.7-16.3-26.6-20.6-26.6-20.6s10.8-5.6,24-14.5
		c18.9-12.8,42.5-32.3,45.3-51.9c0.1-0.5,0.1-0.9,0.1-1.4C1851.3,914.6,1851.3,914.5,1851.3,914.3z M376.2,1314.6l-0.3-0.2
		l-3.7-11.5l-0.9-2.8l-7-2.9l-7.8-3.3l-0.6-3.9l-0.1-0.8l-4.6-8l-2.3-4h9.7l12.3-22.6l2.6,18.5l-3.9,1.4l0,0l0,0c0,0,0,0,0,0
		C371.9,1288.7,374.1,1302.1,376.2,1314.6z"/>
</g>
<g id="Layer_10">
</g>
<g id="Layer_9">
</g>
<g id="Layer_8">
</g>
<g id="Layer_7">
</g>
<g id="Layer_6">
</g>
<g id="Layer_5">
</g>
<g id="Layer_4">
</g>
<g id="Layer_3">
</g>
<g id="Layer_2">
</g>
</svg>
