<?xml version="1.0" encoding="utf-8"?>
<!-- Generator: Adobe Illustrator 24.0.2, SVG Export Plug-In . SVG Version: 6.00 Build 0)  -->
<svg version="1.1" xmlns="http://www.w3.org/2000/svg" xmlns:xlink="http://www.w3.org/1999/xlink" x="0px" y="0px"
	 viewBox="0 0 1982.6 2048" enable-background="new 0 0 1982.6 2048" xml:space="preserve">
<g id="Layer_1">
	<g id="Layer_23">
	</g>
</g>
<g id="Layer_22">
</g>
<g id="Layer_21">
</g>
<g id="Layer_20">
</g>
<g id="Layer_19">
</g>
<g id="Layer_18">
</g>
<g id="Layer_17">
</g>
<g id="Layer_16">
</g>
<g id="Layer_15">
</g>
<g id="Layer_14">
</g>
<g id="Layer_13">
</g>
<g id="Layer_12">
</g>
<g id="Layer_11">
</g>
<g id="Layer_10">
</g>
<g id="Layer_9">
</g>
<g id="Layer_8">
	<path d="M1679.8,1453.5c0-0.2,0.1-0.4,0.1-0.6c11.3-0.5,20.8-4.2,23.3-14.7c2.7-11.5-7.3-13.1-20.4-10.9c2-26.9,1.2-53.8-0.5-76.3
		c-0.1-1.2-0.2-2.5-0.3-3.7c-0.2-2.3-0.4-4.5-0.6-6.7c-2.5-28-6.1-47-6.1-47l6.9-5.1v0l0,0l-0.5-2.1l-6.7-25.9
		c-0.1,0.1-0.1,0.1-0.2,0.2l0.2-10.2c-0.2,0.2-0.5,0.4-0.7,0.7c14.9-242.1-19.6-558.9-105.9-711.1c0.7-0.9,1.1-1.4,1.1-1.4l-8.3-14
		l-4.1-6.8l0,0l-5.4-9c-2.9-36.9-42.3-316.2-583.2-318.6c-11.9-0.1-23.5,0.1-34.9,0.4h0c0,0,0,0,0,0c-4.2,0.1-8.5,0.2-12.6,0.4
		c0,0,0,0,0,0c-4.2,0.1-8.3,0.3-12.4,0.5c0,0,0,0,0,0c-54,2.5-102.3,8.8-145.5,18.1c0,0,0,0,0,0c0,0,0,0-0.1,0
		c-292.1,62.7-349.4,260.7-360.5,342.1c0,0,0,0,0,0c-0.1,0.9-0.2,1.8-0.4,2.7c0,0,0,0,0,0c-0.1,0.9-0.2,1.7-0.3,2.6c0,0,0,0,0,0
		c-0.1,0.8-0.2,1.7-0.3,2.5c0,0,0,0,0,0c-0.1,0.8-0.2,1.6-0.3,2.4c0,0,0,0,0,0.1c-0.1,0.8-0.2,1.5-0.2,2.3c0,0,0,0,0,0.1
		c-0.1,0.7-0.1,1.5-0.2,2.2c0,0,0,0,0,0c-1.2,13.1-1,20.6-1,20.6s-2.9,1.6-7.8,4.7c-0.7,0.4-1.4,0.9-2.2,1.4
		c-0.3,0.2-0.6,0.4-0.9,0.6c-1.8,1.2-3.9,2.6-6.1,4.2c0,0,0,0,0,0c-28.2,20.1-82.6,68-92.7,143.6c-0.2,1.6-0.4,3.2-0.6,4.8
		c0,0.5-0.1,0.9-0.1,1.4c-0.1,1.1-0.2,2.3-0.3,3.4c0,0.5-0.1,0.9-0.1,1.4c-0.1,1.1-0.1,2.2-0.2,3.3c0,0.4,0,0.9,0,1.3
		c0,1.1-0.1,2.2-0.1,3.3c0,0.4,0,0.8,0,1.2c0,1.1,0,2.3,0.1,3.4c0,0.3,0,0.6,0,1c0,1.2,0.1,2.3,0.2,3.5c0,0.3,0,0.5,0.1,0.8
		c0.1,1.2,0.2,2.4,0.3,3.6c0,0.2,0,0.4,0.1,0.6c0.1,1.2,0.3,2.5,0.5,3.7c0,0.1,0,0.2,0.1,0.4c0.2,1.3,0.4,2.6,0.6,3.8
		c0,0.1,0,0.1,0,0.2c1.5,7.8,3.8,15.2,7,22.1c9.4,20.5,26.2,37.1,49.7,50.7c-3.4,66.6-3,130.8-0.2,190.5
		c-24.4,31.8-53.3,81-81.7,149.2c-4.7,11.2-8.4,22.3-11.4,33c-0.4,0.2-0.8,0.5-1.2,0.8c-0.2,0.1-0.4,0.2-0.6,0.3
		c-0.4,0.3-0.8,0.5-1.2,0.8c-0.3,0.2-0.6,0.4-0.9,0.6c-0.4,0.3-0.7,0.5-1.1,0.8c-0.3,0.2-0.6,0.5-1,0.7c-0.3,0.3-0.7,0.5-1,0.8
		c-0.4,0.3-0.9,0.7-1.3,1.1c-0.4,0.3-0.7,0.6-1.1,0.9c-0.5,0.4-0.9,0.8-1.4,1.2c-0.3,0.2-0.5,0.5-0.7,0.7c-0.4,0.4-0.8,0.7-1.1,1.1
		c-0.2,0.2-0.5,0.5-0.7,0.7c-0.4,0.4-0.8,0.8-1.2,1.2c-0.2,0.2-0.4,0.4-0.6,0.7c-0.6,0.6-1.1,1.3-1.7,2c0,0-0.1,0.1-0.1,0.1
		c-0.5,0.7-1.1,1.4-1.6,2c-0.2,0.2-0.3,0.5-0.5,0.7c-0.4,0.5-0.7,1-1.1,1.6c-0.2,0.3-0.4,0.5-0.5,0.8c-0.4,0.6-0.7,1.1-1.1,1.7
		c-0.1,0.2-0.3,0.5-0.4,0.7c-0.5,0.8-1,1.6-1.4,2.5v0l0,0l3,23c-8.2-3.7-75.1-33-68.7-5.4c2.6,11,13,14.6,25.1,14.7
		c-16.9,5.3-30.9,13-25.5,23.9c4.6,9.4,17.2,5.6,30.7-2.3c14.5-17.1,34.5-28.1,38.5-30.2l0,0.1c-0.2,0.2-0.5,0.4-0.7,0.6
		c-2.3,1.8-4.5,3.8-6.8,5.8c-0.9,0.8-1.7,1.5-2.6,2.4l0,0c0,0,0,0,0,0l0.1,0.4c-8.2,6.9-18.7,15.1-28.6,20.9
		c-7.8,9.1-14,20-15.4,32.3l16.3,53.3c-8.4-52.4,12.4-87.5,28-105.7l2.2,6.5c0,0-4.7,7.6-10.1,20.1c-0.1,0.3-0.2,0.5-0.3,0.8
		c-1.8,4.3-3.8,9.2-5.6,14.6c-7.8,23.2-13.9,55.1-5.1,87.3c1.4,5.3,3.3,10.5,5.5,15.8l-22.2,4.6l-6.7,333.2l100.1,93.1l180-37.3
		l4.9-244.7c46.6,29.9,172.4,62,264.5,81.5l-1.7,34.5c-0.2,0.1-0.4,0.1-0.7,0.2c0,0,0,0,0,0c-14.4,4.7-25.2,16.1-28.6,30.3
		c-0.4,1.9-1,3.7-1.8,5.4c1.8,2.5,3.6,5,5.4,7.3c0,0,0,0,0,0c-1.9-2.3-3.7-4.8-5.4-7.3c-2.2,5.3-5.9,10.1-10.8,14.6
		c-0.7,0.7-1.5,1.3-2.3,1.9c-1.4,1.1-2.9,2.1-4.5,2.9c-5.7,2.8-10.6,5.8-14.8,8.7c-7.8,5.5-13,11.1-16.2,16.7
		c-9.2,16.4-0.4,32.5,17,43.9c12.7,8.3,27.8,12.6,43.1,12.5c48.9-0.4,116-28.9,117.2-62c-1,0.9-2,1.8-3,2.7c1-0.9,2-1.8,3-2.7
		c0.2-4.1,1.1-10.2-0.9-14.4c0,0,0,0,0,0c9-8.9,8.6-23.3-1-32.3l-1.3-1.2c0,0,0,0,0,0l-2.2-2.1c0.4-10.7,0.6-21.8,0.8-33
		c0.2-0.1,0.4-0.2,0.6-0.3v-9.4c7.5,1,12.3,1.4,13.7,1.1c0,0,0,0,0,0c0.1,0,0.1,0,0.2,0c0.1,0,0.1-0.1,0.2-0.1c0,0,0,0,0,0h0
		c4.7-4,3.3-24.7,2.7-30.8c17.6,3.4,37.8,7.1,59.5,10.7c-0.4,5.1-0.5,20.1,9,33c2,2.8,11.3,5.4,25.3,7.8l-0.6,49.3
		c-12.7,8.3-20.5,22.4-20.6,37.7c0,2-0.2,4.1-0.5,6.1c1.8,1.8,3.7,3.4,5.5,5.1c0,0,0,0,0,0c-1.9-1.6-3.7-3.3-5.5-5.1
		c-1,6-3.5,11.9-7.4,17.7c-0.6,0.8-1.2,1.7-1.8,2.5c-1.1,1.5-2.4,2.9-3.8,4.1c-4.9,4.3-9.1,8.5-12.5,12.5
		c-6.4,7.5-10.3,14.6-12.1,21.2c-5.4,19.1,6.8,33.8,26.4,41.6c14.3,5.7,30,6.5,44.9,2.8c47.7-11.9,107.1-57.3,101-91.9
		c-0.7,1.2-1.5,2.4-2.3,3.5c0.8-1.2,1.6-2.3,2.3-3.5c-0.8-4.3-2.6-8.5-5.5-12.3c0,0-0.1-0.1-0.1-0.1c0.1-0.2,0.3-0.4,0.4-0.6
		c8.2-11.5,4.8-27.5-7.2-34.9l-1.5-0.9c0,0,0,0,0,0l-0.1,0c0.5-11.4,1-23.4,1.4-35.2c0.2,0,0.3,0,0.3,0l0.6-9
		c67.8,4.8,138.9,7.5,147,7.7c5.6,0.2,61.2-14.9,132.4-37.6v1.2l36.8-13.2v0c30.1-9.9,61.7-20.9,92.8-32.3c0,0,0,0,0,0
		c0.1,0.1,3.3-1.2,5.5-2c0.3-0.1,0.7-0.2,1-0.4c14.1,13.2,28.7,21.4,32.8,23.6c0,0,0.1,0,0.1,0.1c0.1,0.1,0.2,0.1,0.3,0.1
		c0.5,0.3,0.8,0.4,0.8,0.4s20.1,6.9,47.3,8.8c35.4,2.5,82.7-3.6,112.7-44.8c9.1-12.5,15-25.5,18.6-38.5c6.9-25.4,4.7-50.5-0.4-71.4
		c2.2-4.3,4.1-8.9,5.9-13.5c5.1,16.8,7.4,37.2,3.6,61.2l16.3-53.3c-1.3-11-6.4-21-13.2-29.5c0.1-0.4,0.2-0.8,0.3-1.3
		c12.5,6.9,23.8,9.6,28.2,0.9C1708.8,1466.4,1695.9,1458.7,1679.8,1453.5z M365.9,1248l0.5,0.2c0.4,2.7,1.1,7.7,2.2,14.6
		c-3.6,0.8-6.3,1.7-7.7,2.7v-6.9c0,0-2.3-1.1-6.4-2.7l2.5-29.5c0,0-1.9-0.7-5.2-1.6c2.5-6.6,5.4-13.1,8.6-19.3
		C362.1,1220.2,364,1234.4,365.9,1248z M721.4,1722.6c-0.1,0-0.1,0-0.2,0C721.3,1722.6,721.3,1722.6,721.4,1722.6z M720.6,1722.6
		c-0.1,0-0.2,0-0.2,0C720.4,1722.7,720.5,1722.6,720.6,1722.6C720.6,1722.6,720.6,1722.6,720.6,1722.6z M714,1725.4
		C714,1725.4,714,1725.4,714,1725.4C714,1725.4,714,1725.4,714,1725.4c0.1-1,0-2-0.2-2.9C714.1,1723.4,714.1,1724.4,714,1725.4
		C714,1725.4,714,1725.4,714,1725.4z M713,1726.5C713,1726.5,713,1726.5,713,1726.5C713,1726.5,713,1726.5,713,1726.5z
		 M714.6,1724.9c0.1,0,0.1-0.1,0.2-0.1C714.7,1724.8,714.7,1724.8,714.6,1724.9z M715.3,1724.4c0.1,0,0.1-0.1,0.2-0.1
		C715.4,1724.3,715.4,1724.3,715.3,1724.4z M716,1723.9c0.1,0,0.1-0.1,0.2-0.1C716.2,1723.9,716.1,1723.9,716,1723.9z M716.9,1723.5
		C717,1723.5,717,1723.5,716.9,1723.5C717,1723.5,717,1723.5,716.9,1723.5z M717.8,1723.2c0.1,0,0.1,0,0.2-0.1
		C717.9,1723.1,717.9,1723.1,717.8,1723.2z M718.6,1722.9c0.1,0,0.2,0,0.3-0.1C718.8,1722.9,718.7,1722.9,718.6,1722.9z
		 M719.4,1722.8c0.1,0,0.2,0,0.3,0C719.6,1722.7,719.5,1722.7,719.4,1722.8z M815.5,1781.2c0.3-0.3,0.7-0.5,1-0.8
		C816.2,1780.7,815.8,1781,815.5,1781.2C815.5,1781.2,815.5,1781.2,815.5,1781.2z M718.6,1704.1c-2.8,2.5-5.1,5-6.2,7.4
		C713.5,1709.1,715.8,1706.5,718.6,1704.1z M668.3,1805.5c-0.2-0.1-0.5-0.3-0.7-0.4C667.8,1805.2,668,1805.3,668.3,1805.5z
		 M666.3,1804.3c-0.2-0.2-0.5-0.3-0.7-0.5C665.8,1804,666,1804.1,666.3,1804.3z M664.3,1803c-0.2-0.2-0.5-0.3-0.7-0.5
		C663.9,1802.6,664.1,1802.8,664.3,1803z M662.5,1801.6c-0.2-0.2-0.4-0.3-0.6-0.5C662.1,1801.3,662.3,1801.4,662.5,1801.6z
		 M650,1780.2c0-0.2-0.1-0.5-0.1-0.7C649.9,1779.7,650,1779.9,650,1780.2z M657.2,1796.6c-0.2-0.2-0.3-0.4-0.5-0.6
		C656.9,1796.2,657.1,1796.4,657.2,1796.6z M655.9,1794.9c-0.2-0.2-0.3-0.4-0.5-0.7C655.6,1794.5,655.7,1794.7,655.9,1794.9z
		 M654.7,1793.1c-0.1-0.2-0.3-0.4-0.4-0.6C654.4,1792.7,654.5,1792.9,654.7,1793.1z M653.5,1791.1c-0.1-0.2-0.2-0.3-0.3-0.5
		C653.3,1790.8,653.4,1791,653.5,1791.1z M652.3,1788.7c-0.1-0.1-0.1-0.3-0.2-0.4C652.2,1788.4,652.3,1788.6,652.3,1788.7z
		 M651.5,1786.7c-0.1-0.2-0.2-0.5-0.2-0.7C651.4,1786.3,651.5,1786.5,651.5,1786.7z M650.9,1784.7c-0.1-0.3-0.1-0.5-0.2-0.8
		C650.8,1784.1,650.8,1784.4,650.9,1784.7z M650.4,1782.5c-0.1-0.3-0.1-0.5-0.2-0.8C650.3,1782,650.3,1782.2,650.4,1782.5z
		 M658.2,1797.7c0.1,0.2,0.3,0.3,0.4,0.5C658.5,1798,658.4,1797.8,658.2,1797.7z M660.4,1799.9c-0.1-0.1-0.2-0.1-0.2-0.2
		C660.3,1799.7,660.4,1799.8,660.4,1799.9z M821,1776.9c0.7-0.6,1.4-1.2,2.1-1.8C822.4,1775.7,821.7,1776.3,821,1776.9z
		 M817.8,1779.5c0.7-0.5,1.3-1.1,2-1.6C819.1,1778.4,818.4,1778.9,817.8,1779.5z M821,1736.6c0.1-0.2,0.2-0.4,0.4-0.6
		C821.2,1736.2,821.1,1736.4,821,1736.6z M821.6,1735.6c0.1-0.2,0.2-0.4,0.3-0.6C821.8,1735.3,821.7,1735.5,821.6,1735.6z
		 M822.1,1734.7c0.1-0.2,0.2-0.4,0.3-0.6C822.2,1734.3,822.1,1734.5,822.1,1734.7z M822.5,1733.7c0.1-0.2,0.1-0.4,0.2-0.6
		C822.6,1733.3,822.6,1733.5,822.5,1733.7z M822.9,1732.6c0.1-0.2,0.1-0.4,0.2-0.6C823,1732.3,822.9,1732.4,822.9,1732.6z
		 M823.2,1731.6c0.1-0.2,0.1-0.4,0.1-0.6C823.3,1731.2,823.2,1731.4,823.2,1731.6z M823.5,1730.5c0-0.2,0.1-0.4,0.1-0.6
		C823.5,1730.1,823.5,1730.3,823.5,1730.5z M823.7,1729.4c0-0.2,0.1-0.4,0.1-0.6C823.7,1729,823.7,1729.2,823.7,1729.4z
		 M823.8,1728.3c0-0.2,0-0.4,0-0.6C823.8,1727.9,823.8,1728.1,823.8,1728.3z M823.9,1727.2c0-0.2,0-0.5,0-0.7
		C823.9,1726.7,823.9,1727,823.9,1727.2z M823.9,1726c0-0.3,0-0.5,0-0.8C823.9,1725.5,823.9,1725.8,823.9,1726z M823.8,1724.8
		c0-0.4-0.1-0.7-0.1-1.1C823.8,1724.1,823.8,1724.5,823.8,1724.8z M896.5,1875.7c-0.3-0.1-0.5-0.2-0.8-0.3
		C895.9,1875.5,896.2,1875.6,896.5,1875.7z M894.3,1874.8c-0.3-0.1-0.5-0.2-0.8-0.4C893.8,1874.6,894,1874.7,894.3,1874.8z
		 M897.9,1876.2L897.9,1876.2C897.9,1876.2,897.9,1876.2,897.9,1876.2C897.9,1876.2,897.9,1876.2,897.9,1876.2z M931.5,1778.2
		c-0.1,0-0.1,0-0.2,0.1C931.3,1778.3,931.4,1778.3,931.5,1778.2C931.5,1778.2,931.5,1778.2,931.5,1778.2z M930.7,1778.5
		c-0.1,0-0.2,0.1-0.3,0.1C930.5,1778.6,930.6,1778.5,930.7,1778.5z M929.9,1778.9c-0.1,0-0.2,0.1-0.3,0.1
		C929.7,1779,929.8,1778.9,929.9,1778.9z M929.1,1779.3c-0.1,0-0.1,0.1-0.2,0.1C928.9,1779.4,929,1779.4,929.1,1779.3z
		 M928.2,1779.9C928.2,1779.9,928.1,1779.9,928.2,1779.9C928.1,1779.9,928.2,1779.9,928.2,1779.9z M927.5,1780.5
		c-0.1,0.1-0.1,0.1-0.2,0.2C927.4,1780.6,927.5,1780.5,927.5,1780.5z M925.7,1782.6C925.7,1782.6,925.7,1782.6,925.7,1782.6
		C925.7,1782.7,925.7,1782.7,925.7,1782.6c-0.1-0.9-0.3-1.7-0.6-2.5C925.4,1780.9,925.6,1781.7,925.7,1782.6
		C925.7,1782.6,925.7,1782.6,925.7,1782.6z M926.9,1781.1c-0.1,0.1-0.1,0.1-0.2,0.2C926.8,1781.2,926.8,1781.1,926.9,1781.1z
		 M926.3,1781.8c0,0.1-0.1,0.1-0.1,0.2C926.2,1781.9,926.3,1781.8,926.3,1781.8z M925.4,1783.2c0,0-0.1,0.1-0.1,0.1
		C925.3,1783.3,925.3,1783.2,925.4,1783.2z M925,1783.9c0,0.1-0.1,0.1-0.1,0.2C925,1784,925,1784,925,1783.9z M924.7,1784.6
		c0,0.1,0,0.1-0.1,0.2C924.7,1784.7,924.7,1784.7,924.7,1784.6z M1015.9,1838.6c0.1-0.1,0.2-0.1,0.3-0.2
		C1016.1,1838.4,1016,1838.5,1015.9,1838.6C1015.9,1838.6,1015.9,1838.6,1015.9,1838.6z M1031.7,1772.1c0.2-0.5,0.4-1,0.6-1.5
		C1032.2,1771.1,1031.9,1771.6,1031.7,1772.1C1031.7,1772.1,1031.7,1772.1,1031.7,1772.1z M922.1,1765.3c-0.5,1.1-0.9,2.2-1.1,3.3
		C921.3,1767.5,921.6,1766.4,922.1,1765.3z M924.6,1760.7c-0.9,1.5-1.7,2.9-2.3,4.3C922.9,1763.6,923.7,1762.1,924.6,1760.7z
		 M907.5,1814.1C907.5,1814.1,907.5,1814.1,907.5,1814.1c-0.2-0.1-0.3-0.3-0.4-0.4C907.2,1813.8,907.3,1814,907.5,1814.1z
		 M892.2,1873.8c-0.2-0.1-0.5-0.2-0.7-0.3C891.7,1873.6,891.9,1873.7,892.2,1873.8z M889.8,1872.5c-0.1-0.1-0.2-0.1-0.3-0.2
		C889.6,1872.4,889.7,1872.5,889.8,1872.5z M887.7,1871.2c-0.2-0.1-0.3-0.3-0.5-0.4C887.3,1870.9,887.5,1871,887.7,1871.2z
		 M882.1,1866.3c0.2,0.2,0.4,0.4,0.5,0.6C882.5,1866.7,882.3,1866.5,882.1,1866.3z M875,1853.8c0.1,0.2,0.2,0.5,0.3,0.7
		C875.1,1854.3,875,1854.1,875,1853.8z M875.8,1856.1c0.1,0.3,0.2,0.5,0.3,0.8C876,1856.6,875.9,1856.3,875.8,1856.1z M876.7,1858.2
		c0.1,0.3,0.3,0.5,0.4,0.8C877,1858.7,876.8,1858.5,876.7,1858.2z M877.8,1860.3c0.1,0.2,0.3,0.5,0.4,0.7
		C878,1860.8,877.9,1860.5,877.8,1860.3z M879.1,1862.5c0.1,0.1,0.2,0.3,0.3,0.4C879.3,1862.7,879.2,1862.6,879.1,1862.5z
		 M880.7,1864.6c0.1,0.2,0.3,0.3,0.4,0.4C880.9,1864.9,880.8,1864.8,880.7,1864.6z M883.6,1867.9c0.2,0.2,0.4,0.4,0.6,0.6
		C884,1868.2,883.8,1868,883.6,1867.9z M885.9,1869.8c-0.2-0.2-0.4-0.3-0.6-0.5C885.5,1869.5,885.7,1869.7,885.9,1869.8z
		 M1023.9,1831.4c0.8-0.7,1.5-1.5,2.2-2.2C1025.3,1830,1024.6,1830.7,1023.9,1831.4z M1017.5,1837.2c0.7-0.6,1.3-1.2,2-1.7
		C1018.8,1836.1,1018.2,1836.7,1017.5,1837.2z M1020.7,1834.4c0.7-0.6,1.3-1.2,2-1.9C1022,1833.1,1021.4,1833.8,1020.7,1834.4z
		 M1026.9,1828.4c1-1,2-2,3-3.1C1028.9,1826.4,1027.9,1827.4,1026.9,1828.4z M1041.8,1810.9c0.6-0.8,1.1-1.6,1.6-2.3
		C1042.9,1809.3,1042.3,1810.1,1041.8,1810.9z M1030.5,1824.7c0.8-0.8,1.5-1.6,2.2-2.5C1032,1823,1031.2,1823.8,1030.5,1824.7z
		 M1033.7,1821c0.6-0.7,1.2-1.4,1.8-2.1C1034.9,1819.7,1034.3,1820.4,1033.7,1821z M1036.6,1817.7c0.6-0.7,1.1-1.4,1.6-2
		C1037.7,1816.3,1037.1,1817,1036.6,1817.7z M1039.2,1814.3c0.5-0.7,1.1-1.4,1.6-2.1C1040.3,1812.9,1039.8,1813.6,1039.2,1814.3z
		 M1032.4,1770.4c0.1-0.3,0.2-0.6,0.3-0.9C1032.6,1769.8,1032.5,1770.1,1032.4,1770.4z M1032.9,1769.1c0.1-0.2,0.2-0.5,0.2-0.7
		C1033,1768.6,1032.9,1768.9,1032.9,1769.1z M1033.2,1768c0.1-0.2,0.1-0.5,0.2-0.7C1033.3,1767.5,1033.3,1767.7,1033.2,1768z
		 M1033.5,1766.8c0-0.2,0.1-0.4,0.1-0.7C1033.6,1766.4,1033.5,1766.6,1033.5,1766.8z M1033.7,1765.7c0-0.2,0.1-0.4,0.1-0.6
		C1033.7,1765.2,1033.7,1765.5,1033.7,1765.7z M1033.8,1764.5c0-0.2,0-0.4,0.1-0.6C1033.9,1764.1,1033.8,1764.3,1033.8,1764.5z
		 M1033.9,1763.4c0-0.2,0-0.4,0-0.6C1033.9,1762.9,1033.9,1763.1,1033.9,1763.4z M1033.9,1762.2c0-0.2,0-0.4,0-0.7
		C1033.9,1761.8,1033.9,1762,1033.9,1762.2z M1033,1756.2c-0.1-0.4-0.2-0.8-0.4-1.2C1032.8,1755.4,1032.9,1755.8,1033,1756.2z
		 M1033.9,1761c0-0.2,0-0.4-0.1-0.7C1033.8,1760.6,1033.9,1760.8,1033.9,1761z M1033.8,1759.8c0-0.2-0.1-0.5-0.1-0.7
		C1033.7,1759.4,1033.7,1759.6,1033.8,1759.8z M1033.6,1758.6c0-0.2-0.1-0.5-0.1-0.7C1033.5,1758.1,1033.5,1758.4,1033.6,1758.6z
		 M1033.3,1757.4c-0.1-0.3-0.1-0.5-0.2-0.8C1033.2,1756.9,1033.3,1757.2,1033.3,1757.4z"/>
</g>
<g id="Layer_7">
</g>
<g id="Layer_6">
</g>
<g id="Layer_5">
</g>
<g id="Layer_4">
</g>
<g id="Layer_3">
</g>
<g id="Layer_2">
</g>
</svg>
