<?xml version="1.0" encoding="utf-8"?>
<!-- Generator: Adobe Illustrator 24.0.2, SVG Export Plug-In . SVG Version: 6.00 Build 0)  -->
<svg version="1.1" xmlns="http://www.w3.org/2000/svg" xmlns:xlink="http://www.w3.org/1999/xlink" x="0px" y="0px"
	 viewBox="0 0 1982.6 2048" enable-background="new 0 0 1982.6 2048" xml:space="preserve">
<g id="Layer_1">
	<g id="Layer_23">
	</g>
</g>
<g id="Layer_22">
</g>
<g id="Layer_21">
</g>
<g id="Layer_20">
</g>
<g id="Layer_19">
</g>
<g id="Layer_18">
</g>
<g id="Layer_17">
</g>
<g id="Layer_16">
</g>
<g id="Layer_15">
</g>
<g id="Layer_14">
</g>
<g id="Layer_13">
</g>
<g id="Layer_12">
</g>
<g id="Layer_11">
</g>
<g id="Layer_10">
</g>
<g id="Layer_9">
	<g>
		<g>
			<g>
				<defs>
					<path id="SVGID_215_" d="M1754.4,1260.6l-89.7,94.8c-6.5,46.3-21,85.6-41.2,119.1c-6,58.3-38.3,96.9-74.5,96.4
						c-6-0.1-11.1-0.6-15.6-1.4c-110.8,78.3-262.1,97-342.3,110.5c-40,6.7-97.6,4.7-156.1-1.1l-3.5,122.2l325.2,102.5l429.8,14.8
						l51.5-582.5L1754.4,1260.6z"/>
				</defs>
				<clipPath id="SVGID_1_">
					<use xlink:href="#SVGID_215_"  overflow="visible"/>
				</clipPath>
				<path clip-path="url(#SVGID_1_)" fill-rule="evenodd" clip-rule="evenodd" fill="#000" d="M1571.4,1750
					c0.5-6.5,0.8-12.7,1-18.6l1.3-25c0,0-0.4,0.8-1.2,2.4c-1-36.9-6.9-57.2-6.9-57.2c-2.9,1.3-5.9,2.5-9,3.7c0.1,0,0.1-0.1,0.1-0.1
					l10.6-39.1l3.2-49.4c0.5-0.9,0.7-1.4,0.7-1.4l2-39.1c-1.4,1-2.8,1.9-4.3,2.9c-2,1.3-4,2.6-6.2,3.9l1.2-22l1.8-35.6
					c-54.3,76.6-247.8,155.6-247.8,155.6c-1.4,1.2-2.7,2.5-4,3.7c-0.1,0.1-0.1,0.1-0.2,0.2c-1.2,1.2-2.4,2.4-3.6,3.6
					c-0.1,0.1-0.2,0.2-0.3,0.3c-1.1,1.2-2.2,2.3-3.3,3.5c-0.1,0.1-0.2,0.2-0.3,0.4c-1.1,1.2-2.1,2.3-3.1,3.5
					c-0.1,0.1-0.2,0.2-0.3,0.4c-1,1.2-2,2.4-3,3.5c-0.1,0.1-0.2,0.2-0.2,0.3c-1,1.2-2,2.4-2.9,3.7c0,0.1-0.1,0.1-0.1,0.2
					c-2,2.6-3.8,5.1-5.6,7.7c0,0,0,0,0,0c-0.9,1.3-1.7,2.5-2.5,3.7c0,0-0.1,0.1-0.1,0.1c-0.8,1.2-1.6,2.4-2.3,3.6
					c0,0-0.1,0.1-0.1,0.1c-0.7,1.2-1.5,2.4-2.2,3.6c0,0,0,0.1-0.1,0.1c-3.6,6.1-6.5,11.8-8.9,17v0l0,0v0c-4.1,1.5-5.9,3.5-6.6,5.5
					c-1.2,3.6,1.4,7,1.4,7s0,0,0,0c-0.2,0.5-0.4,1-0.5,1.5c0,0.1,0,0.1-0.1,0.2c-0.5,1.5-1,2.8-1.3,4c-0.4-0.3-0.9-0.4-1.3-0.6
					c-0.2,0-0.3-0.1-0.5-0.1c-0.1,0-0.1,0-0.2,0c-0.2,0-0.5-0.1-0.7-0.1c0,0,0,0,0,0c-0.3,0-0.6,0-0.9,0c0,0,0,0,0,0
					c-0.3,0-0.6,0.1-0.9,0.1c0,0,0,0-0.1,0c-0.3,0.1-0.6,0.1-0.8,0.2c0,0,0,0-0.1,0c-0.3,0.1-0.5,0.2-0.8,0.3
					c-0.1,0-0.1,0.1-0.2,0.1c-0.2,0.1-0.4,0.2-0.6,0.2c-0.1,0-0.2,0.1-0.2,0.1c-0.2,0.1-0.3,0.2-0.5,0.2c-0.1,0.1-0.3,0.1-0.4,0.2
					c-0.1,0.1-0.2,0.1-0.3,0.2c-0.2,0.1-0.3,0.2-0.5,0.3c0,0-0.1,0.1-0.1,0.1c-0.2,0.1-0.3,0.2-0.5,0.3c0,0,0,0,0,0
					c-0.1,0.1-0.3,0.2-0.4,0.3c0,0,0,0-0.1,0c-0.2,0.1-0.3,0.3-0.4,0.3c-0.1,0.1-0.1,0.1-0.1,0.1h0c0,0-0.6-11.3-15.8-7.2l-14.5-6.6
					l-19.1-8.7c0,0-7.7,7.7-14.5,51.5c-1.5,9.8-2.3,16.9-2.3,16.9l0,0v0v0l5-0.4c-1.7,0.2-3.3,0.3-5,0.5l0,0
					c-43.5,3.7-79.2-2.5-81.4-2.9c0,0,0,0,0,0c-0.1,0-0.1,0-0.1,0s-1.5-1.3-4.3-3.5c-1.1-0.8-2.3-1.8-3.7-2.9
					c-1.4-1.1-3-2.3-4.8-3.7c-29.2-22.4-104.4-75.3-180.6-92.3c-1.5-0.3-3-0.6-4.5-0.9c-0.5-0.1-0.9-0.2-1.4-0.3
					c-1.1-0.2-2.1-0.4-3.2-0.6c-0.6-0.1-1.2-0.2-1.8-0.3c-0.9-0.2-1.9-0.3-2.8-0.5c-0.7-0.1-1.3-0.2-2-0.3c-0.9-0.1-1.8-0.3-2.6-0.4
					c-0.7-0.1-1.4-0.2-2.2-0.3c-0.8-0.1-1.7-0.2-2.5-0.3c-0.8-0.1-1.5-0.2-2.3-0.2c-0.8-0.1-1.6-0.2-2.4-0.2
					c-0.8-0.1-1.6-0.1-2.4-0.2c-0.8-0.1-1.5-0.1-2.3-0.2c-0.8-0.1-1.7-0.1-2.5-0.2c-0.7-0.1-1.5-0.1-2.2-0.1
					c-0.9-0.1-1.8-0.1-2.6-0.2c-0.7,0-1.4-0.1-2.1-0.1c-0.9,0-1.8-0.1-2.8-0.1c-0.7,0-1.3,0-2-0.1c-1,0-1.9-0.1-2.9-0.1
					c-0.6,0-1.3,0-1.9,0c-1,0-2,0-3,0c-0.6,0-1.2,0-1.7,0c-1.1,0-2.1,0-3.2,0c-0.5,0-1.1,0-1.6,0c-1.1,0-2.2,0-3.4,0
					c-0.5,0-0.9,0-1.4,0c-1.2,0-2.4,0.1-3.6,0.1c-0.4,0-0.7,0-1.1,0c-1.3,0-2.6,0.1-3.9,0.1c0,0-0.1,0-0.1,0c0,0,0,0,0,0
					c-42.4,1.8-84.8,10-116,17.5c0,0,0,0,0,0l0,0c-29.6,7.1-49.2,13.7-49.2,13.7c-21.7-3.7-43.5-8.9-65-15.1l-2.8-4.5l-0.1,0
					c-2.9-1-56.2-19.2-113.3-43.9v0l0,0c-45.5-19.7-93.5-43.6-120.1-66.1l-8.2,0.9l-28.3-16.6c-0.1,0-0.1-0.1-0.1-0.1c0,0,0,0,0,0
					c0,0,0,0,0,0c0,0-12.1,28.2-13.7,67.1c-1.1,16.1,0.5,24.6,0.5,25.1c0,0,0,0,0,0c0,0,0,0,0,0c12.8,9.1,28.3,17.6,45.5,25.5
					c0.9,3.1,1.9,6.2,3,9.3l47.2,18l3-1c0,0,19.7,8.9,56.4,19.1l8.4-5.1c0,0,0-0.1-0.1-0.2c0,0,0.5,0.1,1.3,0.3
					c5.5,1.4,11,2.8,16.4,4.1c1.3,2.3,2.7,4.4,4.3,6.4l23.4,5l4.9-3c-0.3-0.3-0.5-0.7-0.8-1c1.2,0.3,2.4,0.5,3.5,0.8
					c0.8,1.3,1.6,2.5,2.4,3.7l58.3,12.8l18.5-1.2c6.9,1.2,13.3,2.2,19,3.1l1.3,0.2c6,0.9,11.3,1.8,15.8,2.4l3.1,0.4l2.8,0.4
					c1.8,0.3,3.3,0.5,4.7,0.7c4.1,0.6,6.3,0.9,6.3,0.9s19.4-6.7,47.8-14.7l0.4-0.1l20.5-5.5c0,0,0,0,0,0
					c37-9.5,83.1-19.1,122.4-20.2c0,0,0,0,0,0c0,0,0.1,0,0.1,0l10.2-0.1c0,0,0,0-0.1,0c13.3,0.2,25.5,1.4,36.1,4.1
					c18.2,4.6,38.3,13,58.4,23.1c0.1,0,0.1,0.1,0.2,0.2l14.4,7.5l0.8,0.4c3.4,1.9,6.8,3.8,10.2,5.7l4.5,2.6l2.8,1.7
					c51.2,29.9,94.7,63.8,94.7,63.8c16.3,2.8,35.8,3.1,55.5,1.9l0.6,0c8.6-0.5,17.3-1.3,25.8-2.3c4.7-0.5,9.3-1.1,13.7-1.7
					l21.5,33.7l27.5-13c0,0,0,0,0,0c0,0,7.8,5.6,12.5-5.9v0l3.5-1.6v0c-2.6,11.4,6.3,12.9,6.3,12.9s-2.4,3.6-0.9,8.5
					c1.5,4.9,10.9,4.9,10.9,4.9s16.5,31.8,31.5,38c151.3,66.9,249.9-26.6,249.9-26.6c8.8-34.1,13.3-64.4,15.3-90.2
					C1571.3,1751.5,1571.3,1750.7,1571.4,1750z M1216.7,1784.5c14.4-7.3,25.8-13,32.1-16.2c0,0,0,0,0,0L1216.7,1784.5z"/>
			</g>
			<g>
				<defs>
					<path id="SVGID_217_" d="M933.4,1788.5l0.8-122.8c-90-14-164.2-30.7-164.2-30.7c-351.8-64.2-372.5-212.8-372.5-212.8
						l-252.5-28.8l0.7,463.1"/>
				</defs>
				<clipPath id="SVGID_2_">
					<use xlink:href="#SVGID_217_"  overflow="visible"/>
				</clipPath>
				<g clip-path="url(#SVGID_2_)">
					<g>
						<path fill-rule="evenodd" clip-rule="evenodd" fill="#000" d="M297.8,1414.6c5.8,5.5,192.7,182.2,392.6,250.6
							c0,0,187.5-30.5,305,16.4c117.5,47,220.8,167.4,220.8,167.4s47.6,17,107.6,20.7c5.6,0.3,5.3-0.9,7.5,0.2l1.1,10.2l62.4,13.4
							c0,0-27,8.5-65,20.5l-0.2,0c-10.8-0.1-22.4-0.3-34.2-0.9c-10.8-0.5-21.8-1.3-32.7-2.4l-0.8-0.1c-24.9-2.6-49.2-6.8-69-13.7
							c0,0-47.5-51.2-105.4-99.1c0,0,0,0,0,0c-1.1-0.8-2.1-1.7-3.2-2.6l-5.1-4.2c-3.8-3.1-7.7-6.1-11.6-9.2l-0.9-0.7
							c-5.5-4.3-11.1-8.5-16.7-12.5c-23-16.7-46.5-31.3-68.3-40.8c-12.7-5.5-27.7-9.6-44.3-12.5c-4.1-0.7-8.4-1.4-12.7-1.9
							c0,0,0,0,0,0c-49.3-6.6-108.8-4.1-157.1,0.3c0,0,0,0,0,0c-9.4,0.8-18.3,1.7-26.7,2.7l-0.6,0.1c-37.2,4.1-62.8,8.6-62.8,8.6
							s-2.7-0.8-7.7-2.3c-1.7-0.5-3.6-1.1-5.7-1.8l-3.4-1.1l-3.8-1.2c-5.5-1.7-12-3.8-19.2-6.2l-1.6-0.5c-7-2.3-14.8-4.9-23.1-7.8
							l-1.4-0.5c-96.3-33.1-272.6-100.8-349.2-176.6c0,0-1.2-40.9,35.2-112.6C297.6,1414.4,297.7,1414.5,297.8,1414.6z"/>
						<path fill-rule="evenodd" clip-rule="evenodd" fill="#000" d="M1333,1960.3l-3.2-46.2l65-20.5l-62.4-13.4
							c0,0-6.4-56.6,20-93l67.2,44.9c0,0,22.7-55.3,82.2-93.8c0,0,248-35.1,340.4-78.9l-25.7,111.2c0,0-62.1,45-176.4,48.7
							c0,0,95.9,13.6,166.9-4.8c0,0,11.5,94.5-51,236.7c0,0-142.3,96.7-317.8-17.7c0,0-28.9-26.3-42.3-91.4L1333,1960.3z"/>
						<path fill-rule="evenodd" clip-rule="evenodd" fill="#000" d="M1501.8,1738.3c0,0,199.4-13.3,340.4-78.9l-10.4,48.5
							c0,0-43.7,76.4-327,46.5c0,0-62.2,60.2-85.2,110.7l0.1-33.1C1419.6,1832.1,1445.2,1776.9,1501.8,1738.3z"/>
						<path fill-rule="evenodd" clip-rule="evenodd" fill="#000" d="M1501.8,1738.3c0,0,258-59.4,341.5-144l-9.5,44.2
							c0,0-87.4,65.4-237.9,101.2L1501.8,1738.3z"/>
						<path fill-rule="evenodd" clip-rule="evenodd" fill="#000" d="M1352.4,1787.2c0,0-14,10-34.9,82.1l6.3,0.4l1.3,20.8
							l7.2-10.4C1332.4,1880.1,1333.6,1820.8,1352.4,1787.2z"/>
						<polygon fill-rule="evenodd" clip-rule="evenodd" fill="#000" points="1312.9,1913.8 1333,1960.3 1329.8,1914.1 						"/>
						<path fill-rule="evenodd" clip-rule="evenodd" fill="#000" d="M1833.8,1638.5l-6.7,30.3c0,0-75.9,35.8-157,48.8
							C1670.1,1717.6,1773.5,1681.5,1833.8,1638.5z"/>
						<path fill-rule="evenodd" clip-rule="evenodd" fill="#000" d="M1816.5,1770.7l-21.2,46.7c0,0-110.8,24.9-208.3,5.6
							C1586.9,1823,1740.6,1803.3,1816.5,1770.7z"/>
						<path fill-rule="evenodd" clip-rule="evenodd" fill="#000" d="M262.4,1527.1c0,0,45.2,2.8,35.2-112.7
							C297.6,1414.4,267.3,1462.1,262.4,1527.1z"/>
						<path opacity="0.3" fill-rule="evenodd" clip-rule="evenodd" fill="#000" d="M690.3,1665.2c0,0,187.5-30.5,305,16.4
							c117.5,47,220.8,167.4,220.8,167.4s47.6,17,107.6,20.7l1.4,20.8l42.6,11.6l-37.9,12l-0.2,0l-34.2-0.9c0,0-20.2-17.8-67.8-48.4
							c-46.1-29.6-69.5-64.9-70.9-67c0.3,1.1,4.4,14.4,36.7,52.1c33.9,39.4,69.2,61,69.2,61l-0.8-0.1l-18.4-2.3
							c0,0-54.4-54-98-111.2c-43.7-57.2-105-86.1-105-86.1c28.4,27.3,46.3,84.6,47,86.8c0,0,0,0,0,0l-3.2-2.7l-5.1-4.2
							c0,0-7.3-55.1-51.5-84.1c-44.1-29-94.6-31-94.6-31c89.4,38.3,134.5,105.9,134.5,105.9l-0.9-0.7l-16.5-12.3
							c-0.1-0.1-0.1-0.2-0.2-0.2c-63.9-74.2-152.4-104.2-168.7-104.2c-16.3,0-28,11.2-28,11.2c39.3,12.3,81.6,38.1,84.2,39.7
							c0.1,0.1,0.1,0.1,0.1,0.1l-12.7-1.9c0,0,0,0-0.1-0.1c0,0,0,0,0,0c-2.7-1.6-52.9-30.7-122.9-32.9c-72-2.2-129.1-8-129.1-8
							c26,35.1,92.5,41,94.8,41.2l-26.7,2.7l-0.6,0.1c-57.6-10.1-85-50.6-85-50.6l-48-9.7c19.2,35,65.2,67.4,65.2,67.4l-2.7-0.8
							l-5.7-1.8l-3.4-1.1l-3.8-1.2c0,0-99.5-101.6-152.6-134.3c-53.1-32.6-66.7-35-66.7-35s42.7,48.1,78.5,84.1
							c35.8,36,121.6,78.9,121.6,78.9l-1.6-0.5l-23.1-7.8l-1.4-0.5c0,0-100.7-57.1-165.1-119.3c-63.3-61.1-145.7-165.9-148.7-169.8
							C303.5,1420.1,490.5,1596.8,690.3,1665.2z"/>
						<path opacity="0.3" fill-rule="evenodd" clip-rule="evenodd" fill="#000" d="M411.2,1508.8c0,0,75.7,141.6,224.9,203.1
							l-23.1-7.8c0,0-112.1-30.8-315.2-289.5L411.2,1508.8z"/>
						<path opacity="0.3" fill-rule="evenodd" clip-rule="evenodd" fill="#000" d="M924.7,1713.4c0,0-110.3-59.9-234.3-48.3
							l64.3-7.1c0,0,88.7-1.8,182.7,57.3L924.7,1713.4z"/>
						<polygon fill-rule="evenodd" clip-rule="evenodd" fill="#000" points="1338.8,1827.1 1392.4,1850.4 1392.6,1840.9 
							1340.7,1818.6 						"/>
						<path fill-rule="evenodd" clip-rule="evenodd" fill="#000" d="M1794.7,1937c0,0-117.5,84.4-349,61.8c0,0-25-18.8-32.2-38.2
							l-1.9,5.3c0,0,10.6,38.9,31.9,56.7c0,0,162.7,49.7,329.3-13.1C1772.9,2009.5,1790.4,1956.6,1794.7,1937z"/>
						<path fill-rule="evenodd" clip-rule="evenodd" fill="#000" d="M1805.9,1884.8c0,0-96.4,143.5-343.5,115.6
							c0,0,142.1,40.7,332.3-63.4L1805.9,1884.8z"/>
						<path fill-rule="evenodd" clip-rule="evenodd" fill="#000" d="M1438.2,2033.7c0,0,17.4,0.8,42.6-58.7s26-156.2,26-156.2
							l-55.4,5.7l55.4-29.8l-2-40.3c0,0-61.8,27.7-85.1,85.2c0,0,4.2,71.3-13.1,140.2C1406.5,1979.8,1420.7,2022.9,1438.2,2033.7z"
							/>
						<path fill-rule="evenodd" clip-rule="evenodd" fill="#000" d="M340.2,1441.7c64.7,75.7,263.2,181.8,269.3,185.1l0.1,0.1
							l2.6,6.2c-24.3,45.6-15.4,61.6-12.1,65.4c0,0,0,0,0.1,0c0.1,0.2,0.2,0.4,0.4,0.5c0.4,0.3,0.5,0.5,0.5,0.5l-11.6,2.4
							l-70.2-27.9c-17.3-36.3-18.7-85.3-18.7-85.3c-2.8,18.5-1.3,34.9,1.5,48c0.1,0.2,0.1,0.4,0.1,0.7c3.6,16.2,9.1,27.2,10.8,30.3
							c0.3,0.6,0.5,0.9,0.5,0.9l-6.7,2.7l-28.2-11.1c-19.7-36.4-10.6-102-10.6-102c-11.9,29.7-14.8,54.5-15.1,69.4
							c0,1.7,0,3.2,0,4.7c0,0.9,0,1.7,0.1,2.6c0,0,0,0.1,0,0.1c0.1,2.7,0.2,4.6,0.3,5.9c0,0.1,0.1,0.2,0,0.3c0,0.3,0.1,0.5,0.1,0.7
							c0,0.2,0,0.3,0,0.4c0,0.2,0,0.3,0,0.3l-11.5,4.6c-43.8-20.1-66.6-35.3-66.6-35.3l-4,0.6l-55.3-32.1
							c-10.6-59.5,3.5-110.4,10.4-130.3c0.1-0.3,0.1-0.4,0.2-0.7l0.1-0.4c1.5-4.4,2.7-7.1,2.9-7.7l0.1-0.1L340.2,1441.7z"/>
						<path opacity="0.3" fill-rule="evenodd" clip-rule="evenodd" fill="#000" d="M340.2,1441.7
							c64.7,75.7,263.2,181.8,269.3,185.1l0.1,0.1l2.6,6.2c-23.4,45.5-15.3,61.4-12.1,65.4c0,0,0,0,0.1,0c0.2,0.2,0.3,0.4,0.4,0.5
							c0.4,0.3,0.5,0.5,0.5,0.5l-11.6,2.4c-13.4-24.2,1.4-62.7,1.4-62.7l-90.4-50.5c-1.9,19.8-0.8,35.7,1.5,48
							c0.1,0.2,0.1,0.4,0.1,0.7c3.3,17.7,8.9,27.6,10.8,30.3c0.3,0.6,0.5,0.9,0.5,0.9l-6.7,2.7c-25.4-53.8-9.3-91.1-9.3-91.1
							l-29.5-21.9c-12.6,24.7-3.8,71.7-3.9,88.4c0,0-10.8-4.4-10.8-4.3c0,0.2,0,0.3,0,0.3l-11.5,4.6c-5.2-60.3,10.2-88.5,10.2-88.5
							l-59.9-25.3c-16.9,44.9-16.9,78.5-16.9,78.5l-4,0.6c5.3-60,18.8-90.3,18.8-90.3l-63.7-72.1l-0.1,0l0.3-0.7l0.1-0.4l2.9-7.7
							l0.1-0.1L340.2,1441.7z"/>
						<path opacity="0.3" fill-rule="evenodd" clip-rule="evenodd" fill="#000" d="M375.3,1611.8l-4,0.6c0,0,4.1-55.8,19.8-92.1
							l24.2-13.5l-23.1,26.4C392.2,1533.3,378.1,1572,375.3,1611.8z"/>
						<path opacity="0.3" fill-rule="evenodd" clip-rule="evenodd" fill="#000" d="M441.9,1647.1l11.5-4.9c0,0-5.8-31.8,14.7-84
							l8.8-9.4l-24.8,9.8C452,1558.6,437.4,1586.4,441.9,1647.1z"/>
						<path opacity="0.3" fill-rule="evenodd" clip-rule="evenodd" fill="#000" d="M512.2,1573c0,0-9.4,6.6-11.6,15.7
							c0,0-6.9,44.3,12.9,79.9l-6.7,2.7c0,0-25-43.2-9.3-91.1C497.6,1580.1,500.4,1575.6,512.2,1573z"/>
						<path opacity="0.3" fill-rule="evenodd" clip-rule="evenodd" fill="#000" d="M609.7,1626.8c0,0-11.5,2.3-18.7,12.3
							s-10.9,46.3-1.4,62.7l23.4,2.3c0,0-17.1-23.8-0.7-71L609.7,1626.8z"/>
						<path fill-rule="evenodd" clip-rule="evenodd" fill="#000" d="M1352.4,1787.2c0,0-7.8,14.8-13.6,39.9l-6.4,53l-7.2,10.4
							l-1.4-20.8l-6.3-0.5C1317.5,1869.2,1335.7,1803.7,1352.4,1787.2z"/>
						<polygon fill-rule="evenodd" clip-rule="evenodd" fill="#000" points="1329.8,1914.1 1333,1960.3 1312.9,1913.8 						"/>
						<path fill-rule="evenodd" clip-rule="evenodd" fill="#000" d="M1409.5,1825.4c0,0,8.5-5.1,13.6-0.7c0,0,2.6,32.4-4.3,81.2
							c0,0,13.3-51,7.9-87.9c0,0-6.2-11.7,9-14.6c0,0,10.6,73.9-29.2,176.3c0,0-11.8-2-12.7-8.3c-0.8-6.4,2.9-10.4,2.9-10.4
							s-10.9-3.8-5.3-17.4C1391.5,1943.5,1415,1869.3,1409.5,1825.4z"/>
						<path fill-rule="evenodd" clip-rule="evenodd" fill="#000" d="M1370,1949.7c0,0,8.6,8.5,16.8-4.8c0,0,22.8-76.6,22.7-119.5
							c0,0,1.6-14.3-18.2-12.2C1391.3,1813.2,1400.6,1884.9,1370,1949.7z"/>
					</g>
					<path opacity="0.3" fill-rule="evenodd" clip-rule="evenodd" fill="#000" d="M1021.8,1749.6l13.1-49.3
						c-12.9-7-26.1-13.3-39.5-18.7c-73.9-29.5-175.4-28.4-240.6-23.5c0,0-0.1,0-0.1,0l-0.1,0c-38.4,2.9-64.2,7.1-64.2,7.1
						c-26.4-9-52.6-20-78.1-32.1l-2.6-6.2l-0.1-0.1c-3.1-1.6-54.5-29.1-113.2-65.7l8,23.3l130.4,91.8c0,0,47.4,32.6,97.2,18.1
						s139.2-23.1,181.9-11.9c25.3,6.6,38.9,24.5,45.7,37.9c7.9,2.1,15.4,4.6,22.1,7.6C994.6,1733.5,1008.1,1741,1021.8,1749.6z"/>
				</g>
			</g>
		</g>
		<g>
			<path d="M1842.9,1189.9c-0.5-0.1-1-0.2-1.5-0.4c-5.8-1.8-11.1-6.1-16.3-15.5l36.9-22.1l24-14.4v0v0l-83.6-16.2l17.1-24.4l18-25.6
				l0,0l0,0c0,0-6.1,3.7-14.1,7.3c-10.7,4.7-25,9.1-33,3.5c-5-3.5-7.5-12.9-8.7-23.5c-2.1-18.9,0.1-41.7,0.1-41.7v0v0l-37,14
				l-11.9,4.5l21-24.5h0l0,0l-48.1,3.7c0.1,0,38.7-14.2,47.3-34.4c0.2-0.6,0.5-1.1,0.6-1.7c0,0,0,0,0-0.1c0.2-0.7,0.4-1.4,0.6-2.1
				c0-0.1,0-0.3,0.1-0.4c0-0.2,0.1-0.5,0.1-0.7c0-0.1,0-0.2,0-0.2c0.1-0.7,0.2-1.3,0.2-2c0.6-16.9,14.6-88.8,22.8-129.9c0,0,0,0,0,0
				c0.4-1.8,0.7-3.6,1.1-5.3c0,0,0,0,0,0c0.5-2.4,0.9-4.6,1.4-6.7c0.1-0.3,0.1-0.6,0.2-0.9c0.2-1.1,0.5-2.2,0.7-3.3
				c0.2-1,0.4-1.9,0.6-2.7c0.2-0.9,0.4-1.8,0.5-2.6c0-0.2,0.1-0.4,0.1-0.6c0.2-0.8,0.3-1.6,0.5-2.3c0.6-3.1,1-4.8,1-4.8l0,0v0
				c0,0-12.6-4.6-30.4-10.2c-3.2-1-6.6-2.1-10.2-3.2c-26-8-58.9-16.7-80.3-17.9c-6.2-0.3-11.4,0-15.3,1.1c0,0-0.2,0.6-0.6,1.8
				c-3.8-20.7-8-41-12.6-60.6c0.3-0.4,0.5-0.7,0.8-1.1l-10.8-45.3c66.8-43.5,95.7-90.9,94.1-102.7c-3.2-23.9-65.1-55.5-181-86.3
				c-12.9-10.9-35.2-28.3-68.7-50.4c4.1-3.8,8.4-7.3,13.2-10.5c14.7-9.7,38.7-13,55.9-6.6c14.3,5.3,20.2,21.8,29.9,33.6
				c17.9,21.5,48.5,26,76.3,29c4.6,0.5,9.5,1,13.7-0.9c7.4-3.3,10.1-12.5,9.8-20.6c-0.9-20.7-15.6-37.8-28.8-53.8
				c-27.9-34.1-45.5-76.2-82.3-101.6c-2.4-1.7-4.9-3.3-7.4-4.9c0,0,0,0-0.1,0c-1.4-0.9-2.8-1.7-4.2-2.6c0,0-0.1,0-0.1-0.1
				c-1.4-0.8-2.8-1.7-4.2-2.5c0,0-0.1,0-0.1-0.1c-1.4-0.8-2.8-1.6-4.3-2.4c0,0-0.1,0-0.1,0c-1.4-0.8-2.9-1.6-4.3-2.4c0,0,0,0,0,0
				c-14.2-7.7-29-14.4-43.6-21.4c-0.4-0.2-0.8-0.4-1.1-0.5c-1.2-0.6-2.5-1.2-3.7-1.8c-0.3-0.1-0.6-0.3-0.9-0.4
				c-8.3-4.1-16.6-8.2-24.9-12.3c-6.6-3.3-13.2-6.6-19.8-10c-9.9-5-19.8-10.1-29.7-15.1c-7.5-3.8-15-7.7-22.4-11.5
				c-4.8-2.5-9.6-4.9-14.4-7.4c-2.5-1.3-5.1-2.6-7.6-3.9c-2.1-1.1-4.2-2.1-6.3-3.2c-5.2-2.7-10.4-5.3-15.7-7.9
				c-9.5-4.7-19.1-9.1-29-13.1c-9.6-3.8-19.4-7.2-29.3-10c-2-0.6-4-1.1-6-1.6c-52-13.7-107.6-13.6-159.5,0.4c-1.8,0.5-3.5,1-5.2,1.5
				c-28.2,8.2-54.8,21-81.8,32.8c0,0,0,0,0,0c-2.6,1.1-5.2,2.2-7.8,3.3c-5.5,2.3-11.1,4.7-16.6,7c-15,6.3-30.1,12.4-45.2,18.4
				c-9.6-4.2-19.9-7.2-30.8-8.7c-46.9-6.4-91,16.5-113.8,54.8c0,0,0-0.1,0-0.1c0-0.1,0-0.1,0-0.2c0-0.6-0.1-1.2-0.1-1.8
				c0-0.1,0-0.2,0-0.3c-2.7-32.1-20.9-59.3-46.8-74.6c0.2,0.3,0.4,0.5,0.6,0.8c-16.1-9.6-35.1-14.7-55.2-13.5
				c-52.8,3.3-92.9,48.8-89.7,101.6c0.4,6.6,1.5,13,3.1,19.1c-24.1-7.2-47.7-12.5-70.2-15.5c-62.2-8-112.9-2.8-149.4,5.1
				c-2.2,0.5-3.9,1.3-5.2,2.5c-53.5,10.6-90.5,39.8-96,56.1c-14.9,36.1,32.8,106.6,80,137.4c23.7,15.5-14.1,24.7,35.3,44.3
				c0,0,1.5-1.3,4.1-3.5c-34.4,54.4-60.1,119.7-69.6,197.5c-7.6,62.4-11.3,123.8-12.3,182.7c-0.5-5.5-0.8-8.9-0.8-8.9
				s-60.8,102.7-62.4,152.6c-0.2,6.3,3.1,12.1,8.2,15.6c7.4,6,13.3,15.9,18.1,26.9c-14,25-28.5,54.7-42.9,89.3
				c-14.4,34.6-20.3,67.2-20,96c-24-6.5-48-13.1-69.4-18.9c0-0.2,0-0.3,0-0.3l-56.8-15.1c-12.5-3.4-19.9-5.4-19.9-5.4l-4.8,4.4
				l0,0.1l-0.1,0.1l4.1,11.7l72,22.9l0,0l0,0c0,0,0,0,0,0l76.6,24.4c0.6,4.4,1.4,8.7,2.3,12.9l1.1,7.4l1.6,5.5l0.7,0.2
				c12.5,39.7,39,64.3,68,63.9c47.2-0.6,44.1-26.9,44.6-52.2l18.9,6c8,40.7,14,63.9,14,63.9s19.2,137.5,334.4,204.9l-4.6,94.7
				c-0.2,4.4-2.9,8.2-7,9.8c-16.8,6.6-59.8,26.5-59.3,58.5c0.7,44.8,116.4,27.2,141.8,12.8c20.9-11.9,17.2-92.4,19.7-157.2
				c29.2,5.8,68.1,13,110.6,19.6l-1.3,106.9c-0.1,4.5-1.6,8.8-4.5,12.2c-12.1,14.5-44.1,57.1-31.7,88.6c16.7,42.2,81.6,7,106.4-20.3
				c24.8-27.2,25.8-22.6,29-85.5c1.5-28.3,2.6-61.2,3.4-88.9c58.8,5.9,115.5,7.8,155.7,1.1c80.1-13.5,231.3-32.1,342-110.4
				c4.4,0.8,9.4,1.3,15.3,1.4c36.1,0.5,68.4-37.9,74.5-95.9c20.2-33.5,34.7-72.7,41.2-118.9c0.1-0.7,0.2-1.3,0.3-2
				c2.7-19.3,4.8-38.6,6.7-59.6c0,0,0,0,0,0l-2.4-1c0.8-8.9,1.3-19.6,1.9-28.7l3-1.7c1-15.3,1.9-30.9,2.5-46.8
				c2.6,0.2,5.1,0.4,7.7,0.5c0,0,0,0,0.1,0c11.6,0.8,23.2,1.3,34.8,1.6c0.3,0,0.6,0,0.9,0c1.8,0,3.7,0.1,5.5,0.1c0.5,0,1,0,1.4,0
				c2.1,0,4.3,0,6.4,0.1c0.1,0,0.2,0,0.3,0c15.7,0.1,31.5-0.5,47.2-1.7c0.3,0,0.7-0.1,1-0.1c9.4-0.7,18.8-1.7,28.2-3
				c4.8-0.7,9.7-1.4,14.5-2.2c8.4-1.4,16.8-3.1,25.1-5c11.1-2.6,18.4-10.5,27.6-17.1C1863.1,1188.4,1852.3,1192,1842.9,1189.9z
				 M378.5,1327.6c-3.4-1-7.4-2.1-11.8-3.3c-3.2-19.3-20.5-28.1-20.5-28.1c-7.8-31.4-0.2-62.2,13.5-89.4l0.2,1.8l0.9,0
				c1.7,13.6,3.4,26.7,5.1,39.3l4.5,1.8l3.2,23.3l-3.9,1.4c0,0,0,0,0,0l0,0c0,0,0,0,0,0C372.7,1293.9,375.7,1311.6,378.5,1327.6z"/>
			<path d="M81.6,1194.2c0.4,0.1,8-2,8.3-2c0.3-0.1,5,6.5,5.5,6.9c0.5,0.4,1.1-0.1,1.1-0.2c0-0.2,0.4-8.7,0.4-8.7s7.2-2.9,7.8-3.1
				c0.6-0.2,0.6-0.7,0.6-0.9c-0.1-0.2-8.4-3.1-8.4-3.1s-0.5-8.6-0.5-8.9s-0.6-0.5-0.8-0.4s-5.1,6.8-5.3,6.9
				c-0.2,0.1-8.8-2.7-8.8-2.7c-0.4,0.2-0.5,0.5-0.4,0.9c0.1,0.5,4.5,7.6,4.5,7.6s-4.6,6.6-4.6,6.9
				C80.9,1194,81.2,1194.1,81.6,1194.2z"/>
			<path d="M91.8,1279.8c0,0-0.6-10.9-0.7-11.3c-0.1-0.4-0.8-0.6-1-0.5s-6.4,8.6-6.7,8.7c-0.3,0.1-11.2-3.4-11.2-3.4
				c-0.4,0.3-0.6,0.6-0.5,1.2s5.7,9.6,5.7,9.6s-5.8,8.3-5.8,8.7c0,0.7,0.3,0.9,0.8,1.1c0.5,0.1,10.1-2.5,10.5-2.6
				c0.3-0.1,6.3,8.2,7,8.8c0.7,0.5,1.4-0.1,1.4-0.3c0-0.2,0.6-11,0.6-11s9.1-3.7,9.9-4c0.8-0.3,0.8-0.9,0.7-1.1
				S91.8,1279.8,91.8,1279.8z"/>
			<path d="M145.1,1239.5c0.1,0,3-0.7,3.1-0.8c0.1,0,1.9,2.5,2.1,2.6c0.2,0.2,0.4,0,0.4-0.1c0-0.1,0.2-3.3,0.2-3.3s2.7-1.1,2.9-1.2
				c0.2-0.1,0.2-0.3,0.2-0.3c0-0.1-3.2-1.2-3.2-1.2s-0.2-3.3-0.2-3.4s-0.2-0.2-0.3-0.1c-0.1,0-1.9,2.6-2,2.6c-0.1,0-3.3-1-3.3-1
				c-0.1,0.1-0.2,0.2-0.1,0.4c0,0.2,1.7,2.8,1.7,2.8s-1.7,2.5-1.7,2.6C144.9,1239.4,145,1239.4,145.1,1239.5z"/>
			<path d="M104.9,1215.9c0-0.2-0.5-0.4-0.6-0.3c-0.1,0.1-3.8,5.1-4,5.2s-6.7-2-6.7-2c-0.3,0.2-0.4,0.3-0.3,0.7
				c0.1,0.4,3.4,5.7,3.4,5.7s-3.5,4.9-3.5,5.2c0,0.4,0.2,0.5,0.5,0.6c0.3,0.1,6-1.5,6.2-1.5c0.2,0,3.8,4.9,4.2,5.2s0.8,0,0.9-0.2
				c0-0.1,0.3-6.5,0.3-6.5s5.4-2.2,5.9-2.4c0.5-0.2,0.5-0.5,0.4-0.6c-0.1-0.1-6.3-2.4-6.3-2.4S104.9,1216.2,104.9,1215.9z"/>
			<path d="M132,1186.5c0,0-0.5,12.9-0.2,13.4c0.5,0.8,0.9,0.8,1.6,0.6s9.1-9.7,9.5-10c0.3-0.3,12.5,4.5,13.6,4.6
				c1.1,0.1,1.5-1.1,1.3-1.3s-7-12.2-7-12.2s7.2-10.2,7.8-11.1c0.7-0.8,0.3-1.5,0-1.6c-0.2-0.2-14.1,3.1-14.1,3.1
				s-8.2-11.3-8.5-11.6c-0.3-0.4-1.3-0.1-1.4,0.2c-0.1,0.3-0.9,13.7-1.2,14c-0.2,0.3-14.3,4.1-14.3,4.1c-0.3,0.6-0.3,1,0.3,1.6
				C119.9,1180.7,132,1186.5,132,1186.5z"/>
			<path d="M177.1,1215.7c0.2,0.1-2.4,4.5-2.4,4.5s3-4.1,3.2-4.2c0.1-0.1,6.8,15.6,6.8,15.6s-5.9-15.4-5.8-15.5
				c0.1-0.1,3.8,2.1,3.8,2.1s-3.5-2.8-3.4-2.9c0.1-0.1,11.4-1,11.4-1s-10.2,0.6-11.3,0c-0.5-0.3,4.8-8.1,4.8-8.1l-5.9,6.9
				c-0.6-0.1-6.9-13.9-6.9-13.9s5.5,14.4,5.3,14.5s-8.3-0.4-8.3-0.4l8.2,1.6l-9.8,8.4C166.7,1223.3,176.9,1215.7,177.1,1215.7z"/>
		</g>
	</g>
</g>
<g id="Layer_8">
</g>
<g id="Layer_7">
</g>
<g id="Layer_6">
</g>
<g id="Layer_5">
</g>
<g id="Layer_4">
</g>
<g id="Layer_3">
</g>
<g id="Layer_2">
</g>
</svg>
