<?xml version="1.0" encoding="utf-8"?>
<!-- Generator: Adobe Illustrator 24.0.2, SVG Export Plug-In . SVG Version: 6.00 Build 0)  -->
<svg version="1.1" xmlns="http://www.w3.org/2000/svg" xmlns:xlink="http://www.w3.org/1999/xlink" x="0px" y="0px"
	 viewBox="0 0 1982.6 2048" enable-background="new 0 0 1982.6 2048" xml:space="preserve">
<g id="Layer_1">
	<g id="Layer_23">
	</g>
</g>
<g id="Layer_22">
</g>
<g id="Layer_21">
</g>
<g id="Layer_20">
</g>
<g id="Layer_19">
</g>
<g id="Layer_18">
</g>
<g id="Layer_17">
</g>
<g id="Layer_16">
</g>
<g id="Layer_15">
</g>
<g id="Layer_14">
</g>
<g id="Layer_13">
</g>
<g id="Layer_12">
</g>
<g id="Layer_11">
</g>
<g id="Layer_10">
	<path d="M1710.7,1415.8c-0.6-0.8-1.2-1.6-1.8-2.4c-0.7-0.9-1.4-1.8-2.2-2.7c-1.1-1.4-2.2-2.8-3.4-4.2
		c-1.7-2.1-3.6-4.2-5.5-6.4c-1.7-1.9-3.5-3.9-5.3-5.9c-1.1-1.2-2.3-2.4-3.4-3.6c-1.3-1.4-2.7-2.7-4.1-4.1c-0.1-0.1-0.1-0.1-0.2-0.2
		c-3.3-3.2-6.7-6.4-10.4-9.6c-2-1.8-4.1-3.5-6.2-5.3c-1.9-1.6-3.8-3.1-5.8-4.6c0.6-3.7,1.2-7.4,1.7-11.1c0.1-0.7,0.2-1.3,0.3-2
		c2.7-19.3,4.8-38.6,6.7-59.6c0,0,0,0,0,0l-2.4-1c0.8-8.9,1.3-19.6,1.9-28.7l3-1.7c9.9-144.1,1.9-316.5-24.4-465.3
		c0.2-0.1,0.4-0.3,0.6-0.4c50.5-36.9,18-43.5,14.7-62.4c6-11.7,11.5-23.8,13.4-35.9c10-24.8,11.8-50.4-19.8-73.6
		c-41.1-30.3-25.1-38.2-43.4-82.5c-18.3-44.4-47.8-81.5-104.8-100.1c-3.9-1.3-7.7-3-11.4-5.2c0,0,0,0,0,0
		c-22.7-13.2-43.7-41.8-77.1-68.8c0,0,0,0,0,0c-1.2-1-2.4-1.9-3.7-2.9c-0.1,0-0.1-0.1-0.2-0.1c-1.3-1-2.6-2-3.9-3c0,0,0,0,0,0
		c-0.6-0.5-1.3-1-2-1.5c-0.3-0.2-0.6-0.4-0.8-0.6c-1-0.7-2-1.5-3.1-2.2c-0.4-0.3-0.9-0.6-1.3-0.9c-0.9-0.6-1.8-1.2-2.7-1.8
		c-0.5-0.3-1-0.7-1.5-1c-0.8-0.6-1.7-1.1-2.5-1.7c-0.6-0.4-1.1-0.7-1.7-1.1c-0.8-0.5-1.6-1-2.4-1.5c-0.7-0.4-1.3-0.8-2-1.2
		c-0.7-0.4-1.3-0.8-2-1.2c-0.8-0.5-1.6-1-2.4-1.5c-0.5-0.3-1.1-0.6-1.6-0.9c-1-0.6-2-1.1-3-1.7c-0.5-0.3-1.1-0.6-1.6-0.9
		c-1-0.6-2.1-1.2-3.2-1.7c-0.5-0.3-1-0.5-1.5-0.8c-1.1-0.6-2.2-1.2-3.3-1.7c-0.5-0.2-1-0.5-1.5-0.7c-1.1-0.6-2.3-1.1-3.4-1.7
		c-0.5-0.2-1-0.5-1.4-0.7c-1.1-0.5-2.2-1-3.3-1.5c-0.5-0.2-1.1-0.5-1.6-0.7c-1.2-0.5-2.3-1-3.5-1.5c-0.4-0.2-0.8-0.4-1.2-0.5
		c-1.3-0.6-2.7-1.1-4.1-1.7c-0.4-0.2-0.9-0.4-1.3-0.5c-1.4-0.5-2.8-1.1-4.2-1.6c-0.5-0.2-0.9-0.3-1.4-0.5c-1.4-0.5-2.9-1-4.3-1.6
		c-0.5-0.2-0.9-0.3-1.4-0.5c-1.5-0.5-3-1-4.5-1.5c-0.4-0.1-0.9-0.3-1.3-0.4c-0.6-0.2-1.1-0.4-1.7-0.6
		c-41.2-64.7-152.5-133.7-331.8-135c-213.9-1.5-284.7,78.6-321.8,122.8C629,324.6,570,351,531,396.9c-1.2,1.4-2.4,2.9-3.6,4.2
		c-0.3,0.4-0.7,0.8-1,1.2c-0.8,1-1.7,2-2.5,2.9c-0.4,0.4-0.7,0.9-1.1,1.3c-0.8,0.9-1.6,1.9-2.3,2.8c-0.3,0.4-0.6,0.8-1,1.2
		c-0.9,1.1-1.8,2.2-2.7,3.3c-0.1,0.2-0.3,0.3-0.4,0.5c-1,1.3-2.1,2.5-3,3.8c-0.1,0.2-0.2,0.3-0.4,0.4c-0.8,1.1-1.7,2.1-2.5,3.1
		c-0.2,0.3-0.4,0.6-0.7,0.8c-0.7,0.9-1.4,1.8-2.1,2.7c-0.2,0.2-0.4,0.5-0.6,0.7c-0.8,1-1.6,2-2.3,3c-0.1,0.1-0.1,0.2-0.2,0.3
		c-2.6,3.4-5.1,6.6-7.3,9.6c0,0,0,0,0,0c-31.2,41.6-27.4,47-52.7,59c0,0,0,0,0,0c-7.2,3.4-16.8,7.3-30.2,12.8
		c-34.2,13.9-58.6,64.2-73.8,120c-1.9,5.9-3.6,11.9-5.3,17.8c-5.6,20.2-10.5,41.1-13.2,61.8c-3.2,25.1-1.3,52-1.8,77.3
		c-0.2,8.6-0.3,17.3,1,25.8c1,6.7,2.9,13.2,4.5,19.7c0.3,1.5,0.7,3,1,4.5c-0.9,37-8,71,3.2,75.9l-33,12.8l3.9,29.1l23.1,6l17-1.5
		l3.8-2.3c0.1,30.2,0.9,59.7,2.2,88.1c-24.4,31.8-53.4,81-81.8,149.3c-9.2,22-14.9,43.3-17.7,63.3c-42.6,36.7-61.3,89.4-32.9,102.8
		c35.3,16.7,43.9,2.7,45.6-1.7c14,28.6,36.4,45.6,60.5,45.3c56.5-0.7,40.9-38.2,45.8-67c2.5-14.8-3-25.4-8.9-32.1
		c3.1,0.7,6.3-1,8.4-7.8c1-3.3,3-8.5,5-14.8c13.5,86.5,27.3,139.4,27.3,139.4s19.2,137.5,334.4,204.9l-4.1,83
		c-1.7-0.9-3.5-1.5-5.2-2l-19.1,4.3l-3,14.6l-30.7,15.4l-34.7,36.9l4.2,50.6l36.8,14.6c0,0,9.6,0.8,24.3,0.4
		c8-0.2,15.6-0.8,22.7-1.7c29.7-3.4,67.4-12.8,94.3-37.2c1.3-1.1,2-1.8,2-1.8l29.8-38.6l14.9-3.4v44.6l17.9,2.6l14.8-3.4l8.5-12
		l3.5-55.3l14-39l7.4-34.9c1,0.2,2.1,0.3,3.1,0.5l-1.2,99.4l-0.1,0l-0.1,9.3c0,0.4-0.1,0.9-0.2,1.3l-0.5,2.1c0,0,0,0.1,0,0.1
		l-9.1-0.7l-5.5,11.9l-9.5,8.5l-30.9,65.8v64.7c0,0,27.5,17,59.4,9.3c0.9-0.2,1.5-0.3,1.5-0.3l49.7-28.7l64.3-59.1l5.5-23.5l0,0l0,0
		l10.4,2.9l12.2-5.3l2.8-46.9l-4-44.7l-1.6-34.2l-4.4-14.8l-37.4-3.2c0-0.2,0-0.5,0-0.7c58.8,5.9,115.5,7.8,155.8,1.1
		c60.3-10.1,160.8-23.2,254.1-62.4c0.5,0.5,1,0.9,1.6,1.4l9.6-4.1c2.8,2.1,5.8,3.9,8.9,5.5c0,0,26,47.6,48.3,61.3
		c22.3,13.7,25.4,7.7,25.4,7.7c-7.7-3.5-17.4-14.3-17.4-14.3c12,2.4,34.4-23.5,27.6-20.8c-2.9,1.1-26.2,19.4-19.3,9.1
		c6.8-10.2,8.3-17.7,8.3-17.7s-14.9,17.3-26.6,19.7s-42-47.4-42-47.4s-1.3-3.8-3.3-9.8c23.3-11,45.8-23.7,66.9-38.7
		c4.4,0.8,9.4,1.3,15.2,1.3c36.1,0.5,68.3-37.9,74.4-95.8c5.1-8.5,9.9-17.4,14.3-26.6c8.6-2.2,17.7-5.2,27.4-9.4l2.1,5.9
		c0,0,0,0,0,0l23.7,66.9l5.2-4.8l0.9,2.4l0,0l0,0l12.6-11.1l-1.7-4.4l-0.6-1.7l4.8,2.6l1.7-3.9l4.4,2.3l0,0l0,0l7.9-17.8l1.2-2.7v0
		l0,0l-3.7-4.1l-8.2-9.2h5.8v-0.1h6.1v-19.7v0C1726.6,1439.2,1721.1,1429.5,1710.7,1415.8z M866.9,1654l-44.6,34.6
		c0.3-14.4,0.5-29,1.1-42.8C836.1,1648.2,850.8,1651,866.9,1654z M362.9,1226.1c-2.9-1.6-6.3-2.9-10.3-3.7c2.3-5.8,4.9-11.5,7.7-17
		C361.2,1212.4,362,1219.3,362.9,1226.1z M345,1277.5c0,0,0.1,0,0.1,0c0,0,0.1,1.7,0.3,4.1c-0.6,0.4-1.2,1-1.6,1.6
		c0-0.3-0.1-0.6-0.1-0.8c1-1.2,1.5-2.1,1.4-2.7C345,1279,345,1278.3,345,1277.5z M345.4,1293c0.3,0.2,0.6,0.4,0.9,0.6
		c0.3,0.4,0.6,0.7,1,1c0.3,0.9,0.9,2.1,1.6,3.3c-1.7-1.1-2.8-1.7-2.8-1.7C345.8,1295.2,345.6,1294.1,345.4,1293z"/>
</g>
<g id="Layer_9">
</g>
<g id="Layer_8">
</g>
<g id="Layer_7">
</g>
<g id="Layer_6">
</g>
<g id="Layer_5">
</g>
<g id="Layer_4">
</g>
<g id="Layer_3">
</g>
<g id="Layer_2">
</g>
</svg>
