<svg xmlns="http://www.w3.org/2000/svg" viewBox="0 0 1920 1047.25"><defs><style>.cls-1{fill:#110828;}.cls-2{fill:#120a2d;}.cls-3{opacity:0.46;}.cls-4{opacity:0.62;}.cls-5{opacity:0.79;}</style></defs><g id="Layer_2" data-name="Layer 2"><g id="Lab_Light" data-name="Lab Light"><rect class="cls-1" width="1920" height="1047"/><g id="What_is_Eli" data-name="What is Eli"><path class="cls-2" d="M1197.46,118.67H1193l-369.78.16v2.52c-.14.17-.3.05-.44,0s-.17-.27-.28.7c-.16,1.52-.29,4.76-.58,4.69-.06,0-.16-.19-.21.07a14.24,14.24,0,0,0-.09,1.85c0,.56,0,1,0,1.55,0,.36,0,.65-.07,1-.2-.14-.42-.49-.63.05,0,.7,0,1.3,0,2a6.45,6.45,0,0,1,.11.77v.49a7.49,7.49,0,0,0,.13,1.16c.11.4.23,0,.34.11a22.52,22.52,0,0,0,.09,2.84,7.19,7.19,0,0,0,.28.82,3.18,3.18,0,0,1,.19,1.22c.07,1,.19,2.22.19,3.36,0,1.74-.24,3-.23,4.77,0,.36,0,.71,0,1.05,0,.75,0,1.53,0,2.32v2.47c0,.14-.1.19-.16.16a1.79,1.79,0,0,0-.19.45c0,.08-.09,0-.15.14a5.49,5.49,0,0,0-.12,1.4c0,1.09-.12,2.22-.19,3.22,0,.41-.06.82-.12,1.22s-.18.27-.26.54a12.72,12.72,0,0,0-.23,2.89c.06,0,.12-.15.17,0A7.16,7.16,0,0,1,821,166a10.61,10.61,0,0,1,0,1.26,9.31,9.31,0,0,0-.17,1.58,4.8,4.8,0,0,0,.08.52c0,.21,0,.53,0,.8s0,.89.08,1.18c.16,1.4.53.75.51,3.35,0,.79-.09,1.45-.14,2a22.28,22.28,0,0,0-.14,3.16c0,.84.06,1.35.06,2.25s0,1.87-.08,2.79a6.24,6.24,0,0,1-.16,1.49,2.77,2.77,0,0,0-.23,1.06c-.05.52,0,1-.05,1.59a3.78,3.78,0,0,0,0,.95,11,11,0,0,0-.25,1.14v5.86c0,.58.07,1.24.08,1.56,0,.51,0,.9.08,1.35s0,.95,0,1.44a3.53,3.53,0,0,0,.08.54,13,13,0,0,0,.13,2,2.59,2.59,0,0,0,0-.56,27.11,27.11,0,0,0,.06,2.85c0,.46.14.6.19,1a29,29,0,0,1,.08,3.09,19.25,19.25,0,0,0,.12,2.74c0,.32.07.7.1,1.06s0,.77,0,1.12c0,.82.15,1,.22,1.73s.06,2.17.07,3.17c0,.63.06,1.57,0,2.19l371.2-.16h3c0-.62,0-1.57-.05-2.2,0-1,0-2.4-.07-3.16s-.16-.92-.21-1.74a8.25,8.25,0,0,0,0-1.12c0-.33-.07-.74-.1-1-.08-.79-.1-1.74-.12-2.75a26.34,26.34,0,0,0-.08-3.08c0-.39-.14-.53-.19-1a27.3,27.3,0,0,1-.06-2.86,2.72,2.72,0,0,1,0,.57,14.39,14.39,0,0,1-.14-2c0-.23-.06-.32-.07-.55,0-.48,0-1,0-1.44s0-.84-.08-1.34c0-.33,0-1-.09-1.56V191c.07-.39.16-.77.26-1.14a3.85,3.85,0,0,1,0-1c0-.62,0-1.07,0-1.59a2.73,2.73,0,0,1,.24-1,6.82,6.82,0,0,0,.16-1.5c0-.91.08-1.77.08-2.79s0-1.4-.06-2.24a19.74,19.74,0,0,1,.14-3.17,20,20,0,0,0,.13-2c0-2.6-.34-1.94-.51-3.35,0-.29,0-.81-.07-1.18s0-.53,0-.8,0-.38-.07-.52a8.39,8.39,0,0,1,.17-1.58q0-.63,0-1.26a8.11,8.11,0,0,0-.08-1.39c-.06-.18-.13,0-.18,0a12.84,12.84,0,0,1,.3-2.83c.07-.27.19-.25.25-.54a8.27,8.27,0,0,0,.12-1.22c.07-1,.16-2.13.19-3.23a5,5,0,0,1,.13-1.39c0-.16.1-.07.15-.14a1.54,1.54,0,0,1,.19-.46c.06,0,.11,0,.16-.16V152c0-.76,0-1.56,0-2.31,0-.34,0-.69,0-1.05,0-1.79.23-3,.23-4.77,0-1.14-.13-2.37-.19-3.36a3.33,3.33,0,0,0-.19-1.21,5.07,5.07,0,0,1-.28-.83,22.52,22.52,0,0,1-.09-2.84c-.11-.14-.24.29-.35-.11a7.48,7.48,0,0,1-.12-1.16v-.49a4,4,0,0,0-.11-.77c0-.66,0-1.31,0-2,.2-.54.43-.19.63,0,0-.38.06-.7.06-1V128.5a14.24,14.24,0,0,1,.09-1.85c.06-.26.16-.08.21-.07.3.07.43-3.17.59-4.68.1-1,.12-.75.28-.7s.3.15.44,0A14.16,14.16,0,0,1,1197.46,118.67Z"/><path class="cls-2" d="M1197.44,116.67H1193l-369.78.17v2.52c-.13.16-.3,0-.43,0s-.18-.28-.29.69c-.16,1.52-.28,4.76-.58,4.69-.06,0-.16-.19-.21.07a14.24,14.24,0,0,0-.09,1.85c0,.56,0,1,0,1.55,0,.36,0,.66-.06,1-.2-.15-.42-.49-.63,0,0,.7,0,1.3,0,2,0,.22.07.47.1.77v.5a7.63,7.63,0,0,0,.13,1.16c.1.39.23,0,.34.09a22.4,22.4,0,0,0,.09,2.84,4.87,4.87,0,0,0,.28.84,3.3,3.3,0,0,1,.19,1.21c.07,1,.19,2.21.19,3.37,0,1.73-.24,3-.24,4.76l0,1.05c0,.75.05,1.52,0,2.31s0,1.71,0,2.47c-.05.16-.11.21-.16.16a2,2,0,0,0-.19.46c-.06.08-.1,0-.15.14a4.72,4.72,0,0,0-.12,1.4c0,1.09-.13,2.22-.2,3.22a8.27,8.27,0,0,1-.12,1.22c-.07.29-.18.27-.26.54a12.83,12.83,0,0,0-.29,2.83c.06.06.13-.14.18,0a9.39,9.39,0,0,1,.08,1.4,8.8,8.8,0,0,1,0,1.26,8.39,8.39,0,0,0-.17,1.58c0,.13,0,.31.07.53s0,.53,0,.8a11.69,11.69,0,0,0,.08,1.17c.16,1.4.53.76.51,3.35a20,20,0,0,1-.14,2,20.89,20.89,0,0,0-.13,3.16c0,.85.06,1.35,0,2.25s0,1.87-.08,2.79a6.24,6.24,0,0,1-.16,1.49,2.91,2.91,0,0,0-.23,1.05c0,.52,0,1,0,1.59a3.81,3.81,0,0,0,.1,1c-.1.38-.19.75-.26,1.13v5.85c0,.58.06,1.23.08,1.57s.05.9.08,1.34,0,1,0,1.44a5.52,5.52,0,0,0,.07.55,14.39,14.39,0,0,0,.14,2,2.24,2.24,0,0,0,0-.58c0,1,0,1.91.05,2.86,0,.47.15.6.21,1,.1.77.06,2.09.07,3.08a22.73,22.73,0,0,0,.12,2.74c0,.32.08.7.1,1.06s0,.76,0,1.12c0,.82.15,1.05.22,1.74s0,2.17.08,3.16c0,.64.05,1.58,0,2.19l371.2-.16h3c0-.61,0-1.55,0-2.19,0-1,0-2.39-.08-3.16s-.17-.92-.21-1.74a8.25,8.25,0,0,0,0-1.12c0-.33-.07-.74-.1-1.06-.08-.77-.11-1.72-.11-2.74s0-2.31-.08-3.08c-.06-.4-.15-.53-.2-1a27.11,27.11,0,0,1-.06-2.85,2.73,2.73,0,0,1,0,.57,11.79,11.79,0,0,1-.14-2,4.85,4.85,0,0,0-.08-.55c0-.49,0-1,0-1.44s0-.85-.08-1.34c0-.33,0-1-.07-1.57v-5.86a10.84,10.84,0,0,1,.25-1.13,5.13,5.13,0,0,1,0-1,15.86,15.86,0,0,1,0-1.59,2.72,2.72,0,0,1,.23-1,6.32,6.32,0,0,0,.16-1.5c0-.91.08-1.77.08-2.79s0-1.4,0-2.25a20.89,20.89,0,0,1,.13-3.16,20,20,0,0,0,.14-2c0-2.6-.35-1.94-.51-3.34,0-.3-.06-.83-.08-1.18s0-.55,0-.81a4.67,4.67,0,0,0-.08-.52,9.31,9.31,0,0,1,.17-1.58,10.61,10.61,0,0,0,0-1.26,8.16,8.16,0,0,0-.07-1.4c0-.18-.12,0-.18,0a12.86,12.86,0,0,1,.29-2.84c.08-.27.19-.25.26-.54a8.27,8.27,0,0,0,.12-1.22c.07-1,.15-2.1.2-3.22a5.07,5.07,0,0,1,.11-1.4c.06-.15.1-.06.16-.14a2,2,0,0,1,.19-.46s.11,0,.16-.15V150c0-.77,0-1.57,0-2.32l0-1.05c0-1.8.23-3,.23-4.77,0-1.15-.12-2.37-.18-3.36a3.39,3.39,0,0,0-.19-1.22,5.22,5.22,0,0,1-.29-.87,22.4,22.4,0,0,1-.09-2.84c-.11-.13-.24.3-.34-.1a9,9,0,0,1-.13-1.16v-.49a3.9,3.9,0,0,0-.1-.77c0-.7,0-1.24,0-2,.2-.53.42-.19.63,0,0-.37,0-.7.06-1v-1.55a14.41,14.41,0,0,1,.09-1.85c.06-.25.15-.07.22-.06.29.06.41-3.18.58-4.69.1-1,.12-.75.28-.7s.3.15.43,0C1197.44,118.35,1197.44,117.51,1197.44,116.67Z"/><g class="cls-3"><g class="cls-4"><path class="cls-2" d="M808.85,144.12l.8-.4.47-.24,55.44-27.71c0-.08-.09-.17-.14-.26a.31.31,0,0,1,.13-.06c.05,0,.06,0,0-.12s-.17-.55-.08-.58,0,0,.06,0a.49.49,0,0,0-.08-.21,1.19,1.19,0,0,1-.08-.16.2.2,0,0,0,0-.12s.15,0,.18-.09a.7.7,0,0,0-.11-.21l-.07-.07v0s-.06-.09-.09-.11h-.11a1,1,0,0,0-.17-.28.45.45,0,0,0-.16,0c-.05,0-.06,0-.12-.1a3.29,3.29,0,0,1-.23-.33c-.09-.19-.09-.35-.19-.55l-.06-.1c0-.08-.1-.16-.14-.24s-.09-.18-.13-.26v-.12h0a.43.43,0,0,0,0-.17c0-.08-.08-.26-.12-.37a.38.38,0,0,1,0-.15s0-.05,0-.09a.7.7,0,0,0-.06-.35h0s-.07-.08-.1-.14a.47.47,0,0,1-.07-.12.4.4,0,0,0,0-.2c0-.09,0,0,0,0l-.05-.08-.09-.11c-.12-.13-.19,0-.32-.29a1.09,1.09,0,0,1-.07-.24,1.14,1.14,0,0,0-.13-.35l-.13-.23a2,2,0,0,1-.13-.31c0-.1,0-.14,0-.18a.2.2,0,0,0,0-.15.87.87,0,0,0-.07-.17.11.11,0,0,0,0-.11v-.15l-.32-.63-.1-.15-.09-.14a1.7,1.7,0,0,0-.1-.14l0,0s-.12-.21-.15-.19a.06.06,0,0,0,0,.06,1.22,1.22,0,0,0-.17-.29s-.07,0-.11-.08a2,2,0,0,1-.18-.32,1.27,1.27,0,0,0-.18-.27v-.12l-.07-.11a1.21,1.21,0,0,0-.16-.16,2,2,0,0,1-.18-.32c0-.07-.11-.16-.14-.23L804.6,132.48l-.47.24-.4.19a1.76,1.76,0,0,0,.14.23,1.35,1.35,0,0,0,.19.33l.15.16.07.11.08.1a1.27,1.27,0,0,1,.18.27,1.5,1.5,0,0,0,.19.32s.07,0,.11.08a1.38,1.38,0,0,1,.17.29.06.06,0,0,1,0-.06l.14.18.05.05a.6.6,0,0,1,.09.15l.09.13.11.16.31.63a.38.38,0,0,1,0,.15s0,.05.05.1a1.42,1.42,0,0,1,.08.18.17.17,0,0,1,0,.14.52.52,0,0,0,0,.19c0,.1.08.2.13.3a1.71,1.71,0,0,0,.13.23.92.92,0,0,1,.13.36,2.17,2.17,0,0,0,.07.24c.13.28.2.16.32.28l.09.11,0,.09,0,0c.05.09,0,.13,0,.2a.37.37,0,0,0,.07.12.19.19,0,0,0,.1.14s0,0,.06,0a.72.72,0,0,1,.08.32s0,.06,0,.1a.38.38,0,0,0,0,.15,1.14,1.14,0,0,0,.12.37c0,.12,0,.12,0,.16h0v.08a.1.1,0,0,0-.05,0l.14.27c0,.08.08.16.13.24a.36.36,0,0,1,.07.1c.1.2.1.36.19.55a2.35,2.35,0,0,0,.23.32c.06.09.07.09.12.11l.12.05a1,1,0,0,1,.18.28s0-.06.1,0,.06.06.1.1v0l.07.07a1,1,0,0,1,.1.21c0,.08-.11.08-.18.09a.24.24,0,0,1,0,.12c0,.07.07.11.09.17a.49.49,0,0,1,.08.21h-.06a4.33,4.33,0,0,0,.08.58c0,.18,0,.09,0,.12a.22.22,0,0,0-.13.06Z"/></g><g class="cls-4"><path class="cls-2" d="M1207.21,188.19l-.59.66-.35.4-41.4,46.15.22.2c0,.05,0,.08-.09.11s-.06,0,0,.12.35.45.29.52,0,0,0,.05a.55.55,0,0,0,.14.17.75.75,0,0,1,.14.12l.08.1a.14.14,0,0,0-.13.14.55.55,0,0,0,.18.16l.08,0,0,0a.42.42,0,0,0,.13.07c.06,0,0-.06.08-.08a.83.83,0,0,0,.28.21h.13a.27.27,0,0,1,.15.05,1.94,1.94,0,0,1,.33.23c.16.13.22.29.38.43l.1.07.21.18.22.2a0,0,0,0,1,0,.05.22.22,0,0,0,0,.08v0s0,.09.1.15.17.2.24.3a.26.26,0,0,1,.08.13v.1a.61.61,0,0,0,.19.29,0,0,0,0,1,0,0s.09,0,.14.09a.47.47,0,0,1,.12.09s0,.11.1.16h.07l.07.06.12.07c.16.08.18-.06.41.15a1,1,0,0,1,.14.2,1.14,1.14,0,0,0,.26.28l.21.16a1.65,1.65,0,0,1,.22.24c.07.08.1.11.1.16a.24.24,0,0,0,0,.14.86.86,0,0,0,.13.14.1.1,0,0,0,.08.07l0,.15.52.47.16.11.13.08.14.11h.06s.19.15.2.12l0-.06a1.13,1.13,0,0,0,.27.22h.13a1.23,1.23,0,0,1,.28.23l.27.19.11.06.11.07a1.59,1.59,0,0,0,.2.09,2.37,2.37,0,0,1,.3.23l.2.17,41.7-46.47.36-.4.28-.33-.2-.16-.29-.23a1.21,1.21,0,0,1-.2-.09s-.08-.06-.11-.08l-.12-.06a1.15,1.15,0,0,1-.26-.19,2.09,2.09,0,0,0-.29-.23.19.19,0,0,1-.14,0,1.71,1.71,0,0,1-.26-.21l0,.05-.21-.12H1214l-.14-.11-.13-.08-.16-.11-.52-.47a.83.83,0,0,1,0-.15c-.06,0,0,0-.09-.07l-.13-.14a.22.22,0,0,1,0-.14.39.39,0,0,0-.1-.16l-.22-.24-.21-.16a1,1,0,0,1-.26-.29.9.9,0,0,0-.15-.19c-.23-.21-.24-.07-.41-.15l-.11-.08-.08-.05h-.06c-.09-.06-.06-.11-.11-.16a.27.27,0,0,0-.12-.09s-.09-.1-.14-.09,0,0,0,0a.67.67,0,0,1-.19-.3V192a.34.34,0,0,0-.09-.12,2.25,2.25,0,0,0-.24-.3c-.09-.1-.1-.09-.1-.15v0a.09.09,0,0,1,0-.07.13.13,0,0,0,0-.06l-.22-.19a.91.91,0,0,0-.21-.18l-.1-.07c-.16-.14-.21-.3-.37-.43a2.54,2.54,0,0,0-.34-.23c-.09,0-.09,0-.15,0h-.13c-.09,0-.18-.13-.27-.21s0,.08-.08.08l-.13-.07,0,0-.09,0a.44.44,0,0,1-.17-.16c0-.08.07-.11.13-.15l-.08-.09a.75.75,0,0,0-.14-.12.8.8,0,0,1-.15-.17s0,0,0-.06-.19-.35-.29-.51,0-.09,0-.12a.23.23,0,0,0,.08-.11Z"/></g></g><path class="cls-2" d="M895.79,179.84l4.61-24.35h7l-7.6,34.23h-7.1l-5.57-22.9-5.57,22.9h-7.1l-7.6-34.23h7l4.64,24.31,5.64-24.31h6Z"/><path class="cls-2" d="M917.42,167.05a9.27,9.27,0,0,1,3-2.38,8.29,8.29,0,0,1,3.82-.86,10.43,10.43,0,0,1,3.44.53,6.33,6.33,0,0,1,2.65,1.71,8.06,8.06,0,0,1,1.71,3.07,15.18,15.18,0,0,1,.6,4.56v16h-6.8V173.64a6.66,6.66,0,0,0-.27-2,3.28,3.28,0,0,0-.78-1.33,3,3,0,0,0-1.29-.71,6.08,6.08,0,0,0-1.72-.22,5.11,5.11,0,0,0-2.66.63,4.49,4.49,0,0,0-1.67,1.68v18.08h-6.79V153.6h6.79Z"/><path class="cls-2" d="M952.48,189.72a7.58,7.58,0,0,1-.69-2.28,8.78,8.78,0,0,1-2.59,1.95,8.39,8.39,0,0,1-3.82.8,10.08,10.08,0,0,1-3.43-.57,8.55,8.55,0,0,1-2.75-1.57,7.32,7.32,0,0,1-1.82-2.41,7.11,7.11,0,0,1-.66-3.07,8.22,8.22,0,0,1,.74-3.55,7,7,0,0,1,2.23-2.63,10.68,10.68,0,0,1,3.68-1.65,21,21,0,0,1,5.11-.56h3v-1.46a4.19,4.19,0,0,0-.9-2.82,3.56,3.56,0,0,0-2.86-1.06,4,4,0,0,0-2.69.82,2.8,2.8,0,0,0-1,2.26h-6.79a6.73,6.73,0,0,1,.76-3.13,7.85,7.85,0,0,1,2.18-2.58,10.75,10.75,0,0,1,3.41-1.75,14.17,14.17,0,0,1,4.46-.65,14.34,14.34,0,0,1,4.09.56,9.37,9.37,0,0,1,3.25,1.68,7.71,7.71,0,0,1,2.13,2.8,9.39,9.39,0,0,1,.76,3.92v10.76c0,.73,0,1.37.07,1.94s.11,1.09.19,1.56a9,9,0,0,0,.3,1.24,8.29,8.29,0,0,0,.45,1v.4ZM946.86,185a5.85,5.85,0,0,0,2.94-.76,4.78,4.78,0,0,0,1-.79,4.1,4.1,0,0,0,.69-.92v-4.37h-2.8a8.35,8.35,0,0,0-2.32.29,4.55,4.55,0,0,0-1.63.83,3.41,3.41,0,0,0-.94,1.24,4,4,0,0,0-.3,1.57,2.74,2.74,0,0,0,.89,2.09A3.47,3.47,0,0,0,946.86,185Z"/><path class="cls-2" d="M971.68,158v6.26H976v5h-4.35V182a4.46,4.46,0,0,0,.17,1.32,1.65,1.65,0,0,0,1.3,1.21,5.49,5.49,0,0,0,1.14.1c.41,0,.78,0,1.12,0s.63-.07.88-.12v5.15a16.65,16.65,0,0,1-1.84.43,13,13,0,0,1-2.27.18,10.38,10.38,0,0,1-3-.41,5.78,5.78,0,0,1-2.29-1.31,5.68,5.68,0,0,1-1.47-2.33,10,10,0,0,1-.52-3.45V169.26h-3.72v-5h3.72V158Z"/><path class="cls-2" d="M991.76,157.7a3.33,3.33,0,0,1,1-2.52,3.83,3.83,0,0,1,2.78-1,4.63,4.63,0,0,1,1.58.26,3.45,3.45,0,0,1,1.2.73,3.22,3.22,0,0,1,.76,1.12,3.57,3.57,0,0,1,.27,1.4,3.67,3.67,0,0,1-.27,1.42,3.18,3.18,0,0,1-.76,1.11,3.31,3.31,0,0,1-1.2.73,4.4,4.4,0,0,1-1.58.26A4.35,4.35,0,0,1,994,161a3.31,3.31,0,0,1-1.2-.73,3.21,3.21,0,0,1-.77-1.11A3.67,3.67,0,0,1,991.76,157.7Zm7.22,32h-6.82V164.28H999Z"/><path class="cls-2" d="M1018.35,182.69a2.31,2.31,0,0,0-.21-1,2,2,0,0,0-.8-.83,7,7,0,0,0-1.59-.74,20.42,20.42,0,0,0-2.62-.69,24.63,24.63,0,0,1-3.6-1.05,11.06,11.06,0,0,1-2.87-1.58,7,7,0,0,1-1.9-2.19,6,6,0,0,1-.68-2.89,6.8,6.8,0,0,1,.7-3,7.55,7.55,0,0,1,2-2.53,9.83,9.83,0,0,1,3.19-1.73,13.5,13.5,0,0,1,4.27-.63,14.85,14.85,0,0,1,4.44.61,10.25,10.25,0,0,1,3.35,1.7,7.54,7.54,0,0,1,2.12,2.6,7.42,7.42,0,0,1,.74,3.29h-6.79a3.33,3.33,0,0,0-.94-2.41,4,4,0,0,0-2.94-.95,4.06,4.06,0,0,0-2.66.78,2.43,2.43,0,0,0-.94,2,1.93,1.93,0,0,0,.25,1,2.34,2.34,0,0,0,.8.8,6.18,6.18,0,0,0,1.45.67,18.58,18.58,0,0,0,2.22.57,29.85,29.85,0,0,1,3.84,1,11.37,11.37,0,0,1,3,1.52,6.67,6.67,0,0,1,2,2.26,6.51,6.51,0,0,1,.73,3.21,6.58,6.58,0,0,1-.75,3.11,7.28,7.28,0,0,1-2.15,2.46,10.83,10.83,0,0,1-3.38,1.62,15.5,15.5,0,0,1-4.42.59,13.67,13.67,0,0,1-4.72-.75,11,11,0,0,1-3.45-2,8.18,8.18,0,0,1-2.1-2.75,7.28,7.28,0,0,1-.71-3.08h6.45a3.84,3.84,0,0,0,.43,1.7,3.41,3.41,0,0,0,1,1.17,4.47,4.47,0,0,0,1.47.66,7.17,7.17,0,0,0,1.75.21,5,5,0,0,0,3-.74A2.32,2.32,0,0,0,1018.35,182.69Z"/><path class="cls-2" d="M1048.72,135.13c.6,0,2.54,0,5.83-.1s5.89-.11,7.81-.11h5a30.78,30.78,0,0,1,3.81.14,2.24,2.24,0,0,1,1.2.55,2.48,2.48,0,0,1,.75,1.92,2.81,2.81,0,0,1-.41,1.44,14.5,14.5,0,0,1-1.92,2.19l-2.33,2.47H1061q-7.34,0-9.8.27l-2.26.21v14.53q3.15,0,9.53-.14t9.59-.14l1.51,1.51a9.15,9.15,0,0,1,1.3,1.51,3.87,3.87,0,0,1,0,2.84,7.22,7.22,0,0,1-1.24,1.47l-1.43,1.51h-8.84c-5.62,0-8.85.07-9.67.21-.36.09-.58.44-.65,1.06s-.1,2.73-.1,6.34V182h19.26l2.46,2.4a15.9,15.9,0,0,1,2.06,2.23,2.73,2.73,0,0,1,.41,1.47,2.88,2.88,0,0,1-.62,1.92,3.94,3.94,0,0,1-2.33.59q-1.85.09-12.06.24h-5.75q-8,0-8.57-.14c-.37-.14-.64-.57-.82-1.3s-.35-1-.76-1a2.24,2.24,0,0,1-1.3-.62,2.85,2.85,0,0,1-.65-1.95q-.1-1.47-.1-9.56V165.42l2.33-2.33-1.17-1.13c-.5-.48-.89-.83-1.16-1.06V150.07q0-7.6.1-9.32a3.66,3.66,0,0,1,.58-2.19,1.85,1.85,0,0,1,1.3-.62c.46,0,.69-.21.69-.62a2.25,2.25,0,0,1,.82-1.37,2.76,2.76,0,0,1,1.41-.61A36.43,36.43,0,0,1,1048.72,135.13Z"/><path class="cls-2" d="M1082,137.53a2.54,2.54,0,0,1,1.64-.62q1.78,0,4.39,2.81l1.71,1.85v41.12h19.88l1.92,1.71c1.82,1.79,2.74,3.16,2.74,4.12a2.76,2.76,0,0,1-1,1.91l-1,1h-26.73l-1-1q-1-1-1-1.5c0-.37-.23-.55-.68-.55a1.7,1.7,0,0,1-1.31-.89,5.24,5.24,0,0,1-.58-2.64c-.07-1.35-.1-5.08-.1-11.21V162.41l.14-24.2Z"/><path class="cls-2" d="M1124,136.84c1.09-1.09,2-1.64,2.67-1.64a4.75,4.75,0,0,1,2.74,1.57l1.71,1.58v48.93l-1.71,1.58a4.75,4.75,0,0,1-2.74,1.57c-.68,0-1.58-.54-2.67-1.64l-1.65-1.65V138.49Z"/></g><g id="Layer_2-2" data-name="Layer 2"><g id="Lab_Fan" data-name="Lab Fan"><polygon class="cls-2" points="825.22 911.91 923.32 911.71 927.02 799.11 821.22 799.31 825.22 911.91"/><polygon class="cls-2" points="915.72 809.81 832.62 809.91 835.82 901.21 912.62 901.11 915.72 809.81"/><path class="cls-2" d="M885.62,829c9.8-2,19.7-3.8,29.6-5.6l.4-13.6-83,.1,1.1,30.9C850.92,836.51,868.22,832.51,885.62,829Z"/><polygon class="cls-2" points="822.02 800.21 927.02 800.21 927.02 799.11 821.22 799.31 825.22 911.91 826.02 911.91 822.02 800.21"/><path class="cls-2" d="M904.52,858.41a29.63,29.63,0,0,1-26.7,29.5,27.15,27.15,0,0,1-2.9.1,29.6,29.6,0,0,1-.1-59.2,29.76,29.76,0,0,1,16.8,5.2h.1A29.57,29.57,0,0,1,904.52,858.41Z"/><path class="cls-2" d="M874.82,830.41a29.76,29.76,0,0,1,16.8,5.2h.1a29.5,29.5,0,0,1,12.9,23.8v-.9a29.41,29.41,0,0,0-12.9-24.4h-.1a29.56,29.56,0,0,0-46.3,24.4v.7A29.48,29.48,0,0,1,874.82,830.41Z"/><polygon class="cls-2" points="914.12 811.61 918.92 808.91 915.12 905.41 911.32 898.61 914.12 811.61"/><polygon class="cls-2" points="915.12 905.41 834.22 905.41 837.42 899.31 911.32 898.61 915.12 905.41"/><polygon class="cls-2" points="834.22 905.41 837.42 899.31 834.22 811.81 830.92 807.81 834.22 905.41"/><polygon class="cls-2" points="918.92 808.91 830.92 807.81 834.22 811.81 914.12 811.61 918.92 808.91"/></g></g><rect class="cls-2" x="825.12" y="803.24" width="3.2" height="3.2" transform="translate(-326.97 820.31) rotate(-45)"/><rect class="cls-2" x="849.62" y="803.23" width="3.2" height="3.2" transform="translate(-319.79 837.63) rotate(-45)"/><rect class="cls-2" x="874.12" y="803.22" width="3.2" height="3.2" transform="translate(-312.6 854.96) rotate(-45)"/><rect class="cls-2" x="898.63" y="803.21" width="3.2" height="3.2" transform="translate(-305.42 872.28) rotate(-45)"/><rect class="cls-2" x="919.61" y="803.25" width="3.2" height="3.2" transform="translate(-299.3 887.13) rotate(-45)"/><rect class="cls-2" x="829.37" y="907.23" width="3.2" height="3.2" transform="translate(-399.26 853.78) rotate(-45)"/><rect class="cls-2" x="827.75" y="885.43" width="3.2" height="3.2" transform="translate(-384.31 846.25) rotate(-45)"/><rect class="cls-2" x="826.82" y="863.51" width="3.2" height="3.2" transform="translate(-369.09 839.17) rotate(-45)"/><rect class="cls-2" x="825.58" y="841.75" width="3.2" height="3.2" transform="translate(-354.06 831.92) rotate(-45)"/><rect class="cls-2" x="825.07" y="819.92" width="3.2" height="3.2" transform="translate(-338.78 825.16) rotate(-45)"/><rect class="cls-2" x="918.65" y="885.41" width="3.2" height="3.2" transform="translate(-355.64 811.13) rotate(-40.54)"/><rect class="cls-2" x="919.42" y="863.49" width="3.2" height="3.2" transform="translate(-341.21 806.37) rotate(-40.54)"/><rect class="cls-2" x="919.85" y="841.73" width="3.2" height="3.2" transform="translate(-326.95 801.42) rotate(-40.54)"/><rect class="cls-2" x="921.06" y="819.91" width="3.2" height="3.2" transform="translate(-312.48 796.97) rotate(-40.54)"/><rect class="cls-2" x="849.58" y="907.22" width="3.2" height="3.2" transform="translate(-393.32 868.06) rotate(-45)"/><rect class="cls-2" x="874.09" y="907.21" width="3.2" height="3.2" transform="translate(-386.14 885.39) rotate(-45)"/><rect class="cls-2" x="898.59" y="907.2" width="3.2" height="3.2" transform="translate(-378.96 902.71) rotate(-45)"/><rect class="cls-2" x="917.29" y="907.18" width="3.2" height="3.2" transform="translate(-373.47 915.93) rotate(-45)"/><path class="cls-2" d="M878.92,858.61h-8l-3.3-24.4c5.3-2.1,10.1-2,14.6,0Z"/><path class="cls-2" d="M882,836l.2-1.7c-4.5-2-9.3-2.1-14.6,0l.2,1.7A17.94,17.94,0,0,1,882,836Z"/><path class="cls-2" d="M872.22,861.41l5.1-6.1,20.8,13.1a18.34,18.34,0,0,1-9.4,11.2Z"/><path class="cls-2" d="M877.32,855.31l-5.1,6.1,4.6,5.1c3.5-.8,6.9-3.3,7.1-7Z"/><path class="cls-2" d="M879.82,851.81c-1.4-1-3.2-2.5-5-2.5a8.44,8.44,0,0,0-4.9,1.6l1,7.6h8Z"/><path class="cls-2" d="M896.92,867.61a18.11,18.11,0,0,1-9.1,11l1,1a18.34,18.34,0,0,0,9.4-11.2Z"/><path class="cls-2" d="M872.82,855l4.4,6.6L858.92,878a17.83,17.83,0,0,1-8.1-12.2Z"/><path class="cls-2" d="M872.82,855l-7.6,3.7v.4c0,3.6,3.7,5.9,6.9,7.1l5.1-4.6Z"/><path class="cls-2" d="M852.62,864.91l-1.9.9a18.38,18.38,0,0,0,8.1,12.2l1.5-1.4A18.13,18.13,0,0,1,852.62,864.91Z"/><circle class="cls-2" cx="874.92" cy="858.41" r="7.4"/><circle class="cls-2" cx="874.92" cy="858.41" r="4.8"/><circle class="cls-2" cx="874.92" cy="858.41" r="2.8"/><path class="cls-2" d="M874.92,856.31a2.72,2.72,0,0,1,2.7,2.5v-.3a2.8,2.8,0,0,0-2.8-2.8,2.73,2.73,0,0,0-2.8,2.8v.3A3.08,3.08,0,0,1,874.92,856.31Z"/><path class="cls-2" d="M637,894.74l-32.13-30.39-92.81-.15-10.25,0h0l-29.58,0,75.56.12,3.62-75.57.17-3.58,1.67-35.16h-11l-12,0-29.2,0-1.81-29.7h-1.13l-8,0-51.28-.08h-9.12l3.82,29.7-50.91-.08,1.47,33.12.21,4.66L387.71,864l-50.06-.08-27.47,30.3L313,1024.37l18.71,22.43,278.21.45,18-22.37,7.54-107.05h.13l0-2.25h0ZM439.33,728.43l51.86.09,2.73,21.33-53.29-.09Z"/><polyline class="cls-2" points="604.87 864.35 536.15 864.35 537.17 864.86 604.43 865.79 635.55 894.74 637 894.75 604.87 864.35"/><polyline class="cls-2" points="553.25 749.94 551.58 749.94 547.56 864.25 547.79 864.25 553.25 749.94"/><g class="cls-5"><circle class="cls-2" cx="276.26" cy="57.72" r="49.68"/><circle class="cls-2" cx="281.35" cy="72.61" r="34.8"/><path class="cls-2" d="M278.39,37.81H201l9.54,23.81s23.11,2.77,67.86,2.77,67.86-2.76,67.86-2.76l9.54-23.8Z"/><path class="cls-2" d="M346.25,61.62l9.54-23.8h-19.5c-2.72,7.69-6.49,17.13-9.88,25.34C339.55,62.42,346.25,61.62,346.25,61.62Z"/><path class="cls-2" d="M210.53,61.61s10.54,1.26,31.16,2.08a196.67,196.67,0,0,1-10-25.88H201Z"/><path class="cls-2" d="M313.18,63.77c2.5-.09,4.85-.19,7.07-.29,3.18-7.24,7.22-16.86,10.6-25.66h-3.14A126.2,126.2,0,0,1,313.18,63.77Z"/><rect class="cls-2" x="174.8" y="0.07" width="204.45" height="11.63"/><path class="cls-2" d="M276.65,6.7,170,6.68l13.13,32.8S215,43.29,276.64,43.3s93.49-3.8,93.49-3.8L383.28,6.71Z"/><path class="cls-2" d="M370.13,39.5,383.28,6.71H356.42c-3.76,10.58-8.95,23.6-13.62,34.91C360.91,40.6,370.13,39.5,370.13,39.5Z"/><path class="cls-2" d="M183.15,39.48s14.53,1.74,42.93,2.87A270.45,270.45,0,0,1,212.31,6.69H170Z"/><path class="cls-2" d="M324.57,42.46q5.16-.2,9.75-.4c4.37-10,9.94-23.23,14.6-35.35h-4.33A172.88,172.88,0,0,1,324.57,42.46Z"/><path class="cls-2" d="M285,77.31A15.55,15.55,0,0,1,298.71,90c0,.12,0,.23.05.34v0c0,.31.08.62.1.94l56.22,245.09-16.75,5.93L268.48,92.5C267.91,84,276.48,76.44,285,77.31Z"/><g class="cls-5"><path class="cls-2" d="M280.44,77.62l63.12,262.85-5.23,1.85L268.48,92.5C268,85.52,273.68,79.2,280.44,77.62Z"/></g><circle class="cls-2" cx="356.99" cy="341.37" r="28.55"/><path class="cls-2" d="M371,316.48a28.56,28.56,0,0,1-.49,50c-.69,0-1.38,0-2.08-.12A25,25,0,0,1,371,316.48Z"/><ellipse class="cls-2" cx="339.25" cy="352.59" rx="3.7" ry="4.94" transform="translate(-127.67 206.31) rotate(-28.71)"/><path class="cls-2" d="M357.48,343.21A15.54,15.54,0,0,1,365,326.12l.3-.16h0l.86-.4L521,259l11.1,13.88-154.83,81C369.38,357.19,359.45,351.57,357.48,343.21Z"/><g class="cls-5"><path class="cls-2" d="M359.27,347.44l169.34-78.92,3.47,4.33-154.83,81C370.81,356.59,363,353.31,359.27,347.44Z"/></g><path class="cls-2" d="M525.61,245.19a12.34,12.34,0,0,1,12.27,8.33l.09.25h0c.07.24.13.49.19.74L567.92,385l-12.44,6.66-41-132.58C513,252.48,518.8,245.53,525.61,245.19Z"/><g class="cls-5"><path class="cls-2" d="M522.05,246,559.36,389.6l-3.88,2.08-41-132.58C513.24,253.68,516.94,248,522.05,246Z"/></g><polygon class="cls-2" points="573.83 312.94 571.33 300.58 537.25 297.08 513.17 311.54 517.67 321.99 573.83 312.94"/><polygon class="cls-2" points="573.83 312.94 571.33 300.58 537.25 297.08 513.17 311.54 517.67 321.99 573.83 312.94"/><path class="cls-2" d="M641.67,345.93s-40-42.8-99.85-32-79.33,75.94-79.33,75.94l178.18-34.21Z"/><path class="cls-2" d="M663,358l-21.35-12s-33.38-10.34-175.26,33.72l-24.87,26.1,9.17,18.17s31.68,17.77,105.55,8.3S661.89,381.1,661.89,381.1Z"/><path class="cls-2" d="M663,358l-33.09.3s0-21-141.9,23.09l-46.49,24.41,9.17,18.17s31.68,17.77,105.55,8.3S661.89,381.1,661.89,381.1Z"/><path class="cls-2" d="M636.46,365.45l25.43,15.65L663,358,639,351s-89.72-23.87-165.75,30.41l-31.72,24.33,9.17,18.17,23.87-24.3S536.71,350.63,636.46,365.45Z"/><path class="cls-2" d="M641.67,345.93h0l-35.4-9.44s-18.32-14.14-53.6-24C606.44,308.26,641.67,345.93,641.67,345.93Z"/><path class="cls-2" d="M460.09,443.66c3.62-23.18,40-46.43,98.92-58S668,386.34,675,410.6L679.42,460l-205.6,37.4S462.37,451.2,460.09,443.66Z"/><path class="cls-2" d="M472.19,422.85C487.91,407.44,518,393.72,559,385.66c58.93-11.58,109,.68,115.94,24.94L679.42,460l-4.41.8L669.85,423a29.5,29.5,0,0,0-22-24.62C615.63,390.19,547.13,381.23,472.19,422.85Z"/><path class="cls-2" d="M665.9,397.63c4.54,3.79,7.67,8.14,9.05,13L679.42,460l-2.47.45c-2-14.81-4.43-29.6-7-44.28C669,410,667.48,403.84,665.9,397.63Z"/><path class="cls-2" d="M468.61,426.66c6.14-7.2,15.37-14.11,27.36-20.34,4.73,6.74,9.35,13.54,14.11,20.1,14.13,19.31,29,38,44.43,56.31L492.57,494c-6.32-16.22-12.08-32.67-17.74-49.11C472.81,438.86,470.7,432.78,468.61,426.66Z"/><path class="cls-2" d="M679.05,457.11c5.21,26.54-36.51,57.07-93.18,68.2S479,524,473.82,497.41s36.51-57.07,93.18-68.2S673.83,430.57,679.05,457.11Z"/><path class="cls-2" d="M567,429.21c41.48-8.15,79.45-3.63,98.88,9.78a106.45,106.45,0,0,0-23.6-4.82c-33.92-2.65-69.55,7.45-98.41,24.49C523.5,470.33,496.57,493,508,519.6a50.76,50.76,0,0,0,3.24,6c-20.65-5-34.79-14.81-37.43-28.23C468.61,470.87,510.33,440.34,567,429.21Z"/><path class="cls-2" d="M578.67,439.53c.51,4-5.83,8-14.15,9.11s-15.48-1.28-16-5.24,5.83-8,14.15-9.11S578.16,435.57,578.67,439.53Z"/><path class="cls-2" d="M578.67,439.53a3.63,3.63,0,0,0-.43-1.26c.07,3.84-6.1,7.69-14.15,8.72-7.39.95-13.85-.8-15.57-4,0,.13,0,.26,0,.39.51,4,7.67,6.31,16,5.24S579.18,443.5,578.67,439.53Z"/><path class="cls-2" d="M673.12,460.61c.5,4-5.83,8.05-14.15,9.11s-15.48-1.28-16-5.24,5.83-8,14.15-9.11S672.61,456.65,673.12,460.61Z"/><path class="cls-2" d="M673.12,460.61a3.63,3.63,0,0,0-.43-1.26c.07,3.84-6.1,7.69-14.15,8.73-7.39.94-13.86-.8-15.57-4,0,.12,0,.25,0,.38.51,4,7.67,6.31,16,5.24S673.62,464.58,673.12,460.61Z"/><path class="cls-2" d="M509.08,498.81c.51,4-5.82,8-14.14,9.11s-15.48-1.28-16-5.24,5.83-8,14.15-9.11S508.58,494.85,509.08,498.81Z"/><path class="cls-2" d="M509.08,498.81a3.41,3.41,0,0,0-.42-1.26c.07,3.84-6.1,7.69-14.15,8.72-7.4,1-13.86-.8-15.57-4a2.54,2.54,0,0,0,0,.39c.51,4,7.67,6.31,16,5.24S509.59,502.78,509.08,498.81Z"/><path class="cls-2" d="M597.32,515.77c.32,2.53-3.72,5.14-9,5.82s-9.88-.82-10.2-3.35,3.72-5.13,9-5.81S597,513.24,597.32,515.77Z"/><path class="cls-2" d="M597.32,515.77a2.3,2.3,0,0,0-.27-.8c0,2.45-3.9,4.91-9,5.57-4.72.6-8.84-.52-9.94-2.54,0,.08,0,.16,0,.24.32,2.53,4.89,4,10.2,3.35S597.64,518.3,597.32,515.77Z"/><path class="cls-2" d="M640.23,472.08c2.62,16.92-24.05,35.07-59.56,40.55s-66.41-3.79-69-20.7,24.05-35.06,59.56-40.54S637.62,455.17,640.23,472.08Z"/><path class="cls-2" d="M640.23,472.08a15.46,15.46,0,0,0-2-5.36c.72,16.43-25.28,33.6-59.64,38.91-31.54,4.86-59.39-1.92-67.06-15.34a12.78,12.78,0,0,0,.08,1.64c2.6,16.91,33.51,26.18,69,20.7S642.85,489,640.23,472.08Z"/><path class="cls-2" d="M558,477.36s13.38-11.61,31.39-5.25l1.79,11.37s-6.53,5.9-13.84,7-16.53-1.94-16.53-1.94Z"/><path class="cls-2" d="M581.53,470.36c.12,1,.22,1.91.27,2.79.42,5.17.64,10.4,1,15.64a21.7,21.7,0,0,1-5.52,1.68,23.5,23.5,0,0,1-2.54.22c-2.26-6.2-5-12.35-7.86-18.34A32.39,32.39,0,0,1,581.53,470.36Z"/><path class="cls-2" d="M560.78,488.53s9.22,3,16.53,1.94,13.84-7,13.84-7C573.23,480.07,560.78,488.53,560.78,488.53Z"/><path class="cls-2" d="M605.65,616.09,582.83,487.24a3.23,3.23,0,0,0-.06-.33c-.71-2.85-11-.28-10.32,2.57L600.73,616l.76,3.06,2.51-1.67Z"/><path class="cls-2" d="M604,617.37,601.49,619l-.76-3.06-28.28-126.5c-.27-1.1,1.09-2.15,2.9-2.87L603.6,613l.76,3.07"/><path class="cls-2" d="M612.66,620.19a8.62,8.62,0,1,1-7.69-9.45A8.62,8.62,0,0,1,612.66,620.19Z"/></g></g></g></svg>