<?xml version="1.0" encoding="utf-8"?>
<!-- Generator: Adobe Illustrator 26.1.0, SVG Export Plug-In . SVG Version: 6.00 Build 0)  -->
<svg version="1.1" id="Layer_1" xmlns="http://www.w3.org/2000/svg" xmlns:xlink="http://www.w3.org/1999/xlink" x="0px" y="0px"
	 viewBox="0 0 1920.3 3109.4" style="enable-background:new 0 0 1920.3 3109.4;" xml:space="preserve">
<style type="text/css">
	.st0{fill:url(#SVGID_1_);}
	.st1{fill:url(#SVGID_00000142873225554957340580000017410153366155346048_);}
	.st2{fill-rule:evenodd;clip-rule:evenodd;fill:#2D1E63;}
	.st3{fill-rule:evenodd;clip-rule:evenodd;fill:#2B1C5E;}
	.st4{fill-rule:evenodd;clip-rule:evenodd;fill:#31206A;}
	.st5{fill-rule:evenodd;clip-rule:evenodd;fill:#251851;}
	.st6{fill-rule:evenodd;clip-rule:evenodd;fill:#2A1A5B;}
	.st7{fill-rule:evenodd;clip-rule:evenodd;fill:#2E1E64;}
	.st8{fill-rule:evenodd;clip-rule:evenodd;fill:#2F1F65;}
	.st9{fill-rule:evenodd;clip-rule:evenodd;fill:#342272;}
	.st10{opacity:0.61;fill-rule:evenodd;clip-rule:evenodd;fill:#2F1D63;enable-background:new    ;}
	.st11{fill-rule:evenodd;clip-rule:evenodd;fill:#362377;}
	.st12{fill-rule:evenodd;clip-rule:evenodd;fill:#362375;}
	.st13{fill:#33226F;}
	.st14{fill:#30206A;}
	.st15{opacity:0.46;fill:#2B1C5F;enable-background:new    ;}
	.st16{opacity:0.31;fill:#BE9F10;enable-background:new    ;}
	.st17{fill:#281A56;}
	.st18{fill:#362375;}
	.st19{fill:#2A1959;}
	.st20{fill:#24164E;}
	.st21{fill:#2F1D64;}
	.st22{fill:#221348;}
	.st23{opacity:0.29;fill:#2A1B5D;enable-background:new    ;}
	.st24{fill:#25164F;}
	.st25{fill:#261750;}
	.st26{opacity:0.29;fill:#261953;enable-background:new    ;}
	.st27{opacity:0.14;fill:url(#SVGID_00000109013586460300174850000009318938904344412841_);enable-background:new    ;}
	.st28{fill:#23144B;}
	.st29{fill:#25154E;}
	.st30{fill:url(#SVGID_00000179604137651658681360000001341773284188188345_);}
	
		.st31{opacity:0.48;fill-rule:evenodd;clip-rule:evenodd;fill:url(#SVGID_00000057843180761757694990000004106032884542812034_);enable-background:new    ;}
</style>
<g>
	<g id="Layer_2_00000127726070563694224110000002941111410655237511_">
		<g id="_1">
			
				<linearGradient id="SVGID_1_" gradientUnits="userSpaceOnUse" x1="960.26" y1="702.2661" x2="960.26" y2="3821.1782" gradientTransform="matrix(1 0 0 -1 0 3844.7803)">
				<stop  offset="0" style="stop-color:#04020F"/>
				<stop  offset="0.2" style="stop-color:#13092D"/>
				<stop  offset="0.3" style="stop-color:#150A2F"/>
				<stop  offset="0.35" style="stop-color:#1A0E38"/>
				<stop  offset="0.39" style="stop-color:#221445"/>
				<stop  offset="0.43" style="stop-color:#2F1E59"/>
				<stop  offset="0.46" style="stop-color:#3E2972"/>
				<stop  offset="0.47" style="stop-color:#422C78"/>
				<stop  offset="1" style="stop-color:#4949ED"/>
			</linearGradient>
			<rect x="0.3" class="st0" width="1920" height="3109.4"/>
			
				<radialGradient id="SVGID_00000126294754417016785030000009081091569725696703_" cx="927.61" cy="2280.6721" r="1624.0192" fx="949.6736" fy="2296.8862" gradientTransform="matrix(1 0 0 -0.6735 0 3612.9607)" gradientUnits="userSpaceOnUse">
				<stop  offset="0.11" style="stop-color:#F2D0EB"/>
				<stop  offset="0.19" style="stop-color:#F5C1EB;stop-opacity:0.96"/>
				<stop  offset="0.26" style="stop-color:#F8B2EC;stop-opacity:0.91"/>
				<stop  offset="0.33" style="stop-color:#EAA7EC;stop-opacity:0.78"/>
				<stop  offset="0.46" style="stop-color:#D396ED;stop-opacity:0.56"/>
				<stop  offset="0.59" style="stop-color:#BF87EE;stop-opacity:0.37"/>
				<stop  offset="0.71" style="stop-color:#B07CEE;stop-opacity:0.22"/>
				<stop  offset="0.82" style="stop-color:#A574EF;stop-opacity:0.12"/>
				<stop  offset="0.92" style="stop-color:#9E6FEF;stop-opacity:6.000000e-02"/>
				<stop  offset="1" style="stop-color:#9C6DEF;stop-opacity:4.000000e-02"/>
				<stop  offset="1" style="stop-color:#4A2447;stop-opacity:0"/>
			</radialGradient>
			<rect x="0.3" style="fill:url(#SVGID_00000126294754417016785030000009081091569725696703_);" width="1920" height="2072.5"/>
			<path class="st2" d="M1003,2434.4v-467.9l-13.6-32l-15.4,45.2c0,0-13.7-26.5-14.2-27s-8.3,35.3-8.8,32.3s-20.5-47-20.5-47
				l-16.6,54.2c-16.3-33.5-16.4-34-16.4-34l-17.7,52.7l-23.3-35.1l-94.4,48.6c6.5,25.6,14,384.7,21.7,410H1003z"/>
			<path class="st3" d="M172.5,2043.4l6.2,8.1c3.6,6.1,5.4,13.1,5.4,20.1c-1,8.4-1,350.6-0.5,359l0.2,3.8h517
				c-4.5-15-8.7-363.8-12.7-378.8c-1.6-6-3.1-12-4.6-18.1l-3.8-1c-0.1-0.1-93.4-8.4-93.4-8.4l-80.1,34l-57.6-3l-25.9-5.6l-25,7.6
				l-65.7-3.9l-128.8-26.4l-34.7,8.8C169.9,2040.7,171.3,2042,172.5,2043.4z"/>
			<path class="st4" d="M104.5,2434.4c-0.6-9.7-0.8-353.2,0.3-362.8c-0.2-5.3,0.9-10.6,3.4-15.4c1.6-4.9,4.4-9.3,8.2-12.9
				c2.7-2.9,5.9-5.3,9.5-7L78,1980.7l-54.3,36.7l-12.3-82.9L0,1941.4v493H104.5z"/>
			<path class="st5" d="M372.9,2434.4l0.2-1l-1.8-11l-4.3-353.1l2.1-14.1l-15.7,7.5c0,0,0.1-7,0.2-7.3s-3.6-15.2-3.6-15.2l-4.3,23.7
				l-1.6-4.9c0,0-1.9-10.1-1.7-10.7c0.2-0.6-5.9,9.2-5.9,9.2l-0.5-10.4l-5.5,9l-4.5-27l-16.8,26.5c0,0-4.7-19.1-4.9-19.5
				s-10.7,21.3-10.6,19.3s-5.9-33.2-5.9-33.2l-18.9,32.1c-5.3-24-5.3-24.3-5.3-24.3l-19.4,31l-9.5-26.1l-36.3,8.8l-13.7,390.8H372.9
				z"/>
			<polygon class="st6" points="598,2434.4 569.5,2065.1 414,2416 406.1,2416 385,2071.8 93.3,2020.6 61.2,2010.6 0,1987.5 
				0,2434.4 			"/>
			<polygon class="st7" points="583.4,2434.4 569.5,2065.1 406.1,2416 517.4,2434.4 			"/>
			<polygon class="st8" points="322.2,2434.4 274.1,2064.2 329.1,2434.4 424.4,2434.4 385,2071.8 93.3,2020.6 276,2434.4 			"/>
			<polygon class="st9" points="215.2,2434.4 215.3,2434.4 135.8,2047.9 66,2012.1 0,1987.4 0,1997.1 23.7,2017.4 			"/>
			<polygon class="st10" points="160.7,2434.4 0,2046.7 0,2075.4 155.6,2434.4 			"/>
			<polygon class="st11" points="404.2,2415.1 385,2071.8 93.3,2020.6 250.5,2066.6 			"/>
			<polygon class="st12" points="587.1,2434.4 598,2434.4 569.5,2065.1 414,2416 565.4,2414.6 			"/>
			<path class="st13" d="M1003,2434.4v-452.8l-316.1,39.8c-0.2-0.1-14.6,7.3-14.6,7.3c-12.5,12.2-51.7,41.4-51.7,41.4
				c-61,12.2-117,356.2-164.6,364.2H1003z"/>
			<path class="st14" d="M730.5,2434.4l11.5-378.2l-69.6-27.5c0,0-16.6,14.3-22.2,18.8c-7.3,5.9-29.5,22.7-29.5,22.7l89.5,364.3
				H730.5z"/>
			<path class="st15" d="M565.2,2434.4c49.2-9.9,91.6-18.2,91.6-18.2l54.6-372.1c44-8.7,204.9-34.5,291.7-48.3v-3.8
				c-117.6,19.3-309.6,45-309.6,45l-52.7,39.9c-35.5,9.6-71.7,351.2-106.3,357.4H565.2z"/>
			<path class="st15" d="M726.3,2050l276.7-50v-0.2L718.5,2047l-45,375c-26.3,3.2-55,7.7-82.3,12.5H608
				c40.2-6.8,71.2-10.6,71.2-10.6L726.3,2050z"/>
			<polygon class="st16" points="1003,2434.4 1003,2009.8 742,2056.2 730.5,2434.4 			"/>
			<polygon class="st17" points="742,2056.2 730.5,2434.4 1003,2434.4 1003,2005.6 816.1,2022.1 802.2,2015.8 741.3,2015.8 
				711.3,2020 753.5,2054.2 			"/>
			<path class="st18" d="M1003,1983.5v-1.8c-97.8,12.3-316.1,39.8-316.1,39.8l-14.6,7.3l-51.7,41.4l-144.6,360.8l173-13.2l-16.3-345
				l46.9-36.3l38.7,10.5l-15.6-13.5L1003,1983.5z"/>
			<polygon class="st19" points="161.9,2434.4 160.2,2431.7 155,2432.1 133.6,2075.2 108.8,2080.4 53.8,2074.1 37.9,2415.4 
				33.5,2074.7 0,2070 0,2434.4 			"/>
			<polygon class="st20" points="131.9,2434.4 119.2,2417.6 104.4,2417.6 97.4,2434.4 			"/>
			<polygon class="st20" points="76.6,2434.4 69.7,2422.1 35.7,2417.6 8.3,2428.8 33.1,2079.3 3.9,2417.6 0,2077.4 0,2434.4 			"/>
			<polygon class="st21" points="31.1,2076.7 33.1,2079.3 18.7,2422.2 35.7,2417.6 56,2076.7 92.2,2415.9 69.7,2422.1 76.6,2434.4 
				85.8,2434.4 104.4,2417.6 106.2,2415.9 122.5,2415.9 154.3,2433.2 156.3,2434.4 161.9,2434.4 160.2,2431.7 155,2432.1 
				133.6,2075.2 108.8,2080.4 53.8,2074.1 37.9,2415.4 33.5,2074.7 0,2070 0,2077.4 1,2079 			"/>
			<polygon class="st22" points="16.7,2434.4 8.3,2428.8 7.6,2434.4 			"/>
			<polygon class="st22" points="29.2,2434.4 31.5,2431.6 35,2434.4 40.2,2434.4 30.1,2426.2 22.4,2434.4 			"/>
			<polygon class="st19" points="257.3,2434.4 239.4,2426.2 202.5,2426.2 201.3,2434.4 			"/>
			<polygon class="st20" points="205.4,2434.4 202.5,2426.2 201.3,2434.4 			"/>
			<polygon class="st21" points="215.3,2434.4 225,2428 222.6,2434.3 223.4,2434.4 237.4,2434.4 240.3,2429.7 249.3,2434.4 
				257.3,2434.4 239.4,2426.2 202.5,2426.2 205.4,2434.4 			"/>
			<path class="st2" d="M1920,2434.4v-476.2l-13.6-32l-15.4,45.2c0,0-13.7-26.5-14.1-27s-8.3,35.3-8.8,32.3s-20.5-47-20.5-47
				l-16.6,54.2c-16.3-33.5-16.4-34-16.4-34l-17.7,52.7l-23.2-35.1l-94.4,48.7c7.3,28.4,15.6,390.3,24.3,418.3H1920z"/>
			<path class="st3" d="M1089.5,2035l6.2,8.1c3.6,6.1,5.4,13.1,5.4,20.2c-1,8.4-1,350.6-0.5,359c0.2,4,0.4,8,0.8,12.1h519
				c-5.4-17.7-10.5-369.3-15.2-387.2c-1.6-6-3.1-12-4.6-18.1c-2.3-0.6-3.7-1-3.8-1s-93.4-8.4-93.4-8.4l-80.1,34l-57.6-3l-25.9-5.6
				l-25,7.6l-65.8-3.9l-128.8-26.4l-34.7,8.8C1086.9,2032.4,1088.3,2033.7,1089.5,2035z"/>
			<path class="st4" d="M1022.1,2434.4c0-0.2,0-0.4,0-0.6c-1-12.2-1.7-358.3-0.3-370.5c-0.1-14.8,8-28.3,21.1-35.2l-47.9-55.7
				l-33.2,35.2v426.8H1022.1z"/>
			<path class="st5" d="M1287.9,2434.4l2.2-9.3l-1.7-344.8l-4.3-19.3l2.1-14.1l-15.7,7.5c0,0,0.1-7,0.2-7.3s-3.6-15.2-3.6-15.2
				l-4.3,23.7l-1.6-4.8c0,0-1.9-10.1-1.7-10.7s-5.8,9.2-5.8,9.2l-0.5-10.4l-5.5,9l-4.5-27l-16.8,26.5c0,0-4.7-19.1-4.9-19.5
				s-10.7,21.3-10.6,19.3s-5.9-33.2-5.9-33.2l-18.9,32c-5.3-24-5.3-24.3-5.3-24.3l-19.4,31l-9.5-26.1l-36.3,8.8l-15.7,399.1H1287.9z
				"/>
			<path class="st6" d="M1521.7,2434.4l-35.1-377.6l-155.5,17.1h-7.9l-21.1-10.4l-291.6-51.2l-27.2-8.4c-6.8,3-14,5-21.4,5.8
				l-130.6,43.4l-80.1,380.5l210.6,0.8L1521.7,2434.4z"/>
			<polygon class="st7" points="1501.6,2434.4 1503.3,2433.5 1486.5,2056.8 1323.1,2073.9 1484.8,2434.4 			"/>
			<polygon class="st8" points="1243.5,2429.4 1191.1,2055.9 1258.7,2434.4 1330,2434.4 1346.5,2429.8 1301.9,2063.5 1010.3,2012.3 
				1195.7,2427.2 			"/>
			<polygon class="st9" points="961.7,2018.2 1132.4,2426.1 1052.8,2039.6 983,2003.8 949,2009.8 			"/>
			<polygon class="st10" points="961.7,2053.4 751.1,2052.2 1082.4,2427.7 			"/>
			<polygon class="st11" points="1321.2,2073 1301.9,2063.5 1010.3,2012.3 1167.5,2058.3 			"/>
			<polygon class="st12" points="1513.2,2434.4 1521.7,2434.4 1486.5,2056.8 1330.9,2073.9 1482.3,2072.5 			"/>
			<path class="st13" d="M1920,2434.4v-461.1l-316.1,39.8c-0.2-0.1-14.6,7.3-14.6,7.3c-12.5,12.2-51.7,41.4-51.7,41.4
				c-84.1,16.8-159,363.6-215,372.6L1920,2434.4z"/>
			<path class="st15" d="M1643.3,2041.7l276.7-50v-0.2l-284.5,47.1l-45,41.1c-41.4,5-88.9,347.2-127.4,354.6h16.6
				c59.4-11.9,116.5-18.9,116.5-18.9L1643.3,2041.7z"/>
			<path class="st15" d="M1441.2,2434.4c64.1-13.1,132.5-360.3,132.5-360.3l54.6-38.3c44.1-8.7,204.8-34.5,291.7-48.3v-3.8
				c-117.6,19.3-309.6,45-309.6,45l-52.7,39.9c-53.4,14.5-108.7,358.6-157.1,365.8L1441.2,2434.4z"/>
			<polygon class="st16" points="1920,2434.4 1920,2001.5 1658.9,2047.9 1645.8,2432.4 1618.9,2434.4 			"/>
			<polygon class="st17" points="1658.9,2047.9 1645.8,2432.4 1618.9,2434.4 1920,2434.4 1920,1997.3 1733.1,2013.8 1719.2,2007.5 
				1658.3,2007.5 1628.3,2011.7 1670.5,2045.8 			"/>
			<path class="st23" d="M1658.9,2047.9l-69.6-27.5c0,0-16.6,14.3-22.2,18.8c-7.3,5.9-29.5,22.7-29.5,22.7l108.1,370.6
				L1658.9,2047.9z"/>
			<path class="st24" d="M1756,2417.2l-61.6,17.2h115.5l110.1-360.3v-31.9c-56.5,6.6-133.3,14.9-121.7,9.9
				c11-4.7,73.7-17.7,121.7-27.3v-2.2l-141.1,29.5l-14.4,24.6l-76.6-12l72.9,14.6l-86.2-10.6L1756,2417.2z"/>
			<polygon class="st25" points="1920,2434.4 1920,2052.5 1779.6,2064.6 1764.6,2417.9 1727.2,2434.4 			"/>
			<polygon class="st26" points="1920,2434.4 1920,2428.3 1865.3,2434.4 			"/>
			<polygon class="st26" points="1824.1,2434.4 1773.6,2426.1 1805.5,2434.4 			"/>
			
				<linearGradient id="SVGID_00000101088929739851827210000004364953783951948972_" gradientUnits="userSpaceOnUse" x1="1765.11" y1="1411.3901" x2="1872.83" y2="1411.3901" gradientTransform="matrix(1 0 0 -1 -53.67 3844.7803)">
				<stop  offset="0" style="stop-color:#FFFFFF"/>
				<stop  offset="0.65" style="stop-color:#837700"/>
			</linearGradient>
			
				<polygon style="opacity:0.14;fill:url(#SVGID_00000101088929739851827210000004364953783951948972_);enable-background:new    ;" points="
				1801.4,2434.4 1803.1,2433.8 1797.8,2432.4 1789.6,2434.4 			"/>
			<polygon class="st25" points="1920,2062.7 1826.2,2072.7 1800,2430.4 1806,2431.4 1835.1,2074.2 1920,2067.4 			"/>
			<polygon class="st25" points="1920,2072.5 1845.1,2075.9 1818.1,2432.4 1816.8,2433.2 1823.5,2434.3 1851.1,2077 1920,2074.4 			
				"/>
			<polygon class="st28" points="1920,2434.4 1920,2434 1734.1,2433.6 1713.6,2433.6 1335.6,2433.8 1335.2,2433.8 1309,2433.8 
				1307.5,2433.8 1299.2,2433.8 1298.4,2433.8 1213.4,2433.8 1191.2,2433.8 961.7,2433.9 961.7,2434.4 			"/>
			<path class="st29" d="M1888.1,2434.4c0,0-0.1-0.1-0.1-0.1c-0.8-0.4-7.4-1.1-9.5-0.9c-0.1,0-0.3,0-0.4,0.1
				c-0.7,0.1-1.3,0.4-1.8,0.9L1888.1,2434.4z"/>
			<path class="st29" d="M1874.7,2434.4c-0.4-0.5-1.1-0.9-1.8-1c-3-0.5-25-3.5-32.7-2.8c-7.4,0.7-6.6,2.7-5.6,3.7L1874.7,2434.4z"/>
			<path class="st18" d="M1920,1975.2v-1.8l-316.1,39.8l-14.6,7.3l-51.7,41.4l-144.6,360.8l173-347.1l-16.3-11.2l46.9-36.3
				l38.7,10.5l-15.7-13.5C1619.8,2025.1,1825.5,1990.9,1920,1975.2z"/>
			
				<linearGradient id="SVGID_00000015344746707802525960000014805055890936189103_" gradientUnits="userSpaceOnUse" x1="960" y1="738.2801" x2="960" y2="2473.5203" gradientTransform="matrix(1 0 0 -1 0 3844.7803)">
				<stop  offset="0" style="stop-color:#04020F"/>
				<stop  offset="0.44" style="stop-color:#2A1A5B"/>
				<stop  offset="0.57" style="stop-color:#2A1A5B;stop-opacity:0"/>
			</linearGradient>
			<rect y="2139.3" style="fill:url(#SVGID_00000015344746707802525960000014805055890936189103_);" width="1920" height="970.1"/>
			
				<linearGradient id="SVGID_00000008841348803176400750000013237713452164022436_" gradientUnits="userSpaceOnUse" x1="960" y1="2026.7002" x2="960" y2="-506.2697" gradientTransform="matrix(1 0 0 -1 0 3844.7803)">
				<stop  offset="0" style="stop-color:#55389B"/>
				<stop  offset="1" style="stop-color:#5D4195;stop-opacity:0"/>
			</linearGradient>
			
				<path style="opacity:0.48;fill-rule:evenodd;clip-rule:evenodd;fill:url(#SVGID_00000008841348803176400750000013237713452164022436_);enable-background:new    ;" d="
				M1920,1975.2v-1.8l0,0v-15.2l-13.6-32l-15.4,45.2c0,0-13.7-26.5-14.1-27s-8.3,35.3-8.8,32.3s-20.5-47-20.5-47l-16.6,54.2
				c-16.3-33.5-16.4-34-16.4-34l-12.9,38.3l-13.3,1.7l-14.8-22.4l-62.3,32.1l-107.4,13.5c-0.2-0.1-14.6,7.3-14.6,7.3l0,0l-7.9,6.3
				c-26.5-2.4-78.1-7-78.1-7l-80.1,34l-57.6-3l-25.9-5.6l-25,7.6l-29.2-1.7l0.6-4.2l-7.9,3.7l-7.8-0.5c0-1.5,0.1-2.9,0.1-3.1
				c0.1-0.3-3.6-15.2-3.6-15.2l-3.2,17.8l-2.8-0.2c-0.5-2.7-1.6-9.1-1.5-9.5s-5.2,8.1-5.8,9.1h-0.1l-0.5-10.3l-5.5,9l-4.5-27
				l-15.1,23.7l-2.5-0.5c-1.3-5.4-4-16-4.1-16.3s-4.3,8.1-7.3,13.9l-4.2-0.9c-1.7-9.7-5-27-5-27l-13.7,23.2l-7.6-1.5
				c-3-13.6-3-13.9-3-13.9l-7.4,11.7l-20.6-4.2l-1-2.6l-5.4,1.3l-26.2-5.4l-21.1,5.4l-66.4-11.7l-29.5-34.4v-15.2l-13.6-32
				l-15.4,45.2c0,0-13.7-26.5-14.2-27s-8.3,35.3-8.8,32.3s-20.5-47-20.5-47l-16.6,54.2c-16.3-33.5-16.4-34-16.4-34l-12.9,38.3
				l-13.3,1.7l-14.8-22.4l-62.3,32.1l-107.1,13.5h-0.3l0,0c-0.2-0.1-14.6,7.3-14.6,7.3l0,0l-7.9,6.3c-26.5-2.4-78.1-7-78.1-7
				l-80.1,34l-57.6-3l-25.9-5.6l-25,7.6l-29.2-1.7l0.6-4.2l-7.9,3.7l-7.8-0.5c0-1.5,0.1-2.9,0.1-3.1c0.1-0.3-3.6-15.2-3.6-15.2
				l-3.2,17.8l-2.8-0.2c-0.5-2.7-1.6-9-1.5-9.6c0.1-0.6-5.2,8.1-5.8,9.1h-0.1l-0.5-10.3l-5.5,9l-4.5-27l-15.1,23.8l-2.5-0.5
				c-1.3-5.4-4-16-4.1-16.3s-4.3,8.1-7.3,13.9l-4.2-0.9c-1.7-9.7-5-27-5-27l-13.7,23.2l-7.5-1.5c-3-13.6-3-13.9-3-13.9l-7.4,11.7
				l-20.6-4.2l-1-2.6l-5.4,1.3l-26.2-5.4l-21.1,5.4l-66.4-11.7L78,1980.7l-34.2,23.1l-23.4-8.8l-9-60.6L0,1941.4v1168h1920v-1035
				l0,0v-1.9l0,0v-5.1l0,0v-4.7l0,0V1975.2L1920,1975.2z"/>
		</g>
	</g>
</g>
</svg>
