<svg xmlns="http://www.w3.org/2000/svg" xmlns:xlink="http://www.w3.org/1999/xlink" viewBox="0 0 1920 4225.3"><defs><style>.cls-1{isolation:isolate;}.cls-2{fill:url(#radial-gradient);}.cls-3{fill:url(#radial-gradient-2);}.cls-4{fill:#2d1e63;}.cls-10,.cls-11,.cls-12,.cls-13,.cls-14,.cls-33,.cls-4,.cls-5,.cls-6,.cls-7,.cls-8,.cls-9{fill-rule:evenodd;}.cls-5{fill:#2b1c5e;}.cls-6{fill:#31206a;}.cls-7{fill:#251851;}.cls-8{fill:#2a1a5b;}.cls-9{fill:#2e1e64;}.cls-10{fill:#2f1f65;}.cls-11{fill:#342272;}.cls-12{fill:#2f1d63;opacity:0.61;}.cls-13{fill:#362377;}.cls-14,.cls-20{fill:#362375;}.cls-15{fill:#33226f;}.cls-16{fill:#30206a;}.cls-17{fill:#2b1c5f;opacity:0.46;}.cls-18{fill:#be9f10;opacity:0.31;}.cls-18,.cls-28,.cls-29{mix-blend-mode:multiply;}.cls-19{fill:#281a56;}.cls-21{fill:#2a1959;}.cls-22{fill:#24164e;}.cls-23{fill:#2f1d64;}.cls-24{fill:#221348;}.cls-25{fill:#2a1b5d;}.cls-25,.cls-28{opacity:0.29;}.cls-26{fill:#25164f;}.cls-27{fill:#261750;}.cls-28{fill:#261953;}.cls-29{opacity:0.14;fill:url(#Áåçûìÿííûé_ãðàäèåíò_306);}.cls-30{fill:#23144b;}.cls-31{fill:#25154e;}.cls-32{fill:url(#linear-gradient);}.cls-33{opacity:0.48;fill:url(#linear-gradient-2);}</style><radialGradient id="radial-gradient" cx="1002.61" cy="3167.27" r="1834.67" gradientUnits="userSpaceOnUse"><stop offset="0.13" stop-color="#d689e9"/><stop offset="1" stop-color="#8650ff"/></radialGradient><radialGradient id="radial-gradient-2" cx="942.33" cy="2980.42" r="1979.33" gradientTransform="translate(0 727.78) scale(1 0.76)" gradientUnits="userSpaceOnUse"><stop offset="0.11" stop-color="#f8e8f0"/><stop offset="0.17" stop-color="#f8d6ef" stop-opacity="0.97"/><stop offset="0.26" stop-color="#f8b2ec" stop-opacity="0.91"/><stop offset="0.33" stop-color="#eaa7ec" stop-opacity="0.78"/><stop offset="0.46" stop-color="#d396ed" stop-opacity="0.56"/><stop offset="0.59" stop-color="#bf87ee" stop-opacity="0.37"/><stop offset="0.71" stop-color="#b07cee" stop-opacity="0.22"/><stop offset="0.82" stop-color="#a574ef" stop-opacity="0.12"/><stop offset="0.92" stop-color="#9e6fef" stop-opacity="0.06"/><stop offset="1" stop-color="#9c6def" stop-opacity="0.04"/></radialGradient><linearGradient id="Áåçûìÿííûé_ãðàäèåíò_306" x1="1765.11" y1="3549.29" x2="1872.83" y2="3549.29" gradientTransform="translate(-53.67)" gradientUnits="userSpaceOnUse"><stop offset="0" stop-color="#fff"/><stop offset="0.65" stop-color="#837700"/></linearGradient><linearGradient id="linear-gradient" x1="960" y1="4222.41" x2="960" y2="2487.17" gradientUnits="userSpaceOnUse"><stop offset="0" stop-color="#04020f"/><stop offset="0.44" stop-color="#2a1a5b"/><stop offset="0.57" stop-color="#2a1a5b" stop-opacity="0"/></linearGradient><linearGradient id="linear-gradient-2" x1="960" y1="2933.99" x2="960" y2="5466.96" gradientUnits="userSpaceOnUse"><stop offset="0" stop-color="#55389b"/><stop offset="1" stop-color="#5d4195" stop-opacity="0"/></linearGradient></defs><g class="cls-1"><g id="Layer_2" data-name="Layer 2"><g id="_1" data-name="1"><rect class="cls-2" width="1920" height="4225.3"/><rect class="cls-3" width="1920" height="3248.69"/><path class="cls-4" d="M1003,3550.29V3082.37l-13.57-32L974,3095.54s-13.66-26.47-14.14-27-8.3,35.29-8.78,32.35-20.51-47-20.51-47L914,3108.09c-16.3-33.51-16.42-34-16.42-34l-17.7,52.73-23.26-35.14-94.44,48.67c6.55,25.56,14,384.73,21.73,409.95Z"/><path class="cls-5" d="M172.55,3159.26l6.21,8.08a40,40,0,0,1,5.42,20.14c-1,8.38-1,350.64-.51,359.05l.21,3.76h517c-4.45-14.95-8.74-363.77-12.73-378.85q-2.38-9-4.63-18.07c-2.3-.62-3.74-1-3.76-1s-93.43-8.41-93.43-8.41l-80.08,34-57.63-3-25.88-5.57-25,7.56L332,3173l-128.81-26.36-34.7,8.84A32.21,32.21,0,0,1,172.55,3159.26Z"/><path class="cls-6" d="M104.49,3550.29c-.63-9.66-.84-353.17.27-362.81a30.08,30.08,0,0,1,3.42-15.37,29.88,29.88,0,0,1,8.21-12.85,29.82,29.82,0,0,1,9.5-7L78,3096.56l-54.3,36.72-12.25-82.89L0,3057.27v493Z"/><path class="cls-7" d="M372.93,3550.29l.25-1-1.75-11-4.28-353.14,2.07-14.11-15.74,7.47s.09-7,.16-7.27-3.62-15.16-3.62-15.16l-4.28,23.69-1.57-4.85s-1.87-10.09-1.72-10.72-5.85,9.21-5.85,9.21l-.47-10.41-5.46,9-4.51-27-16.84,26.5s-4.67-19.07-4.91-19.46-10.73,21.31-10.59,19.35-5.91-33.25-5.91-33.25L269,3170.15c-5.28-24-5.29-24.32-5.28-24.32l-19.44,31-9.48-26.11-36.35,8.81-13.67,390.76Z"/><polygon class="cls-8" points="598 3550.28 569.55 3181.02 413.96 3531.94 406.09 3531.95 384.97 3187.71 93.34 3136.47 61.2 3126.51 0 3103.39 0 3550.28 598 3550.28"/><polygon class="cls-9" points="583.44 3550.28 569.55 3181.02 406.09 3531.95 517.37 3550.28 583.44 3550.28"/><polygon class="cls-10" points="322.19 3550.28 274.14 3180.15 329.1 3550.28 424.41 3550.28 384.97 3187.71 93.34 3136.47 276.03 3550.28 322.19 3550.28"/><polygon class="cls-11" points="215.22 3550.28 215.28 3550.28 135.8 3163.84 66.01 3128 0 3103.32 0 3113.03 23.68 3133.28 215.22 3550.28"/><polygon class="cls-12" points="160.72 3550.28 0 3162.64 0 3191.32 155.65 3550.28 160.72 3550.28"/><polygon class="cls-13" points="404.17 3531.01 384.97 3187.71 93.34 3136.47 250.48 3182.53 404.17 3531.01"/><polygon class="cls-14" points="587.11 3550.28 598 3550.28 569.55 3181.02 413.96 3531.94 565.37 3530.54 587.11 3550.28"/><path class="cls-15" d="M1003,3550.29V3097.52l-316.08,39.77c-.22-.08-14.58,7.31-14.58,7.31-12.5,12.19-51.67,41.44-51.67,41.44-61,12.21-117.05,356.18-164.62,364.25Z"/><path class="cls-16" d="M730.46,3550.29,742,3172.11l-69.59-27.51s-16.61,14.26-22.22,18.76c-7.3,5.86-29.45,22.68-29.45,22.68l89.51,364.25Z"/><path class="cls-17" d="M565.17,3550.29c49.24-9.92,91.58-18.17,91.58-18.17L711.32,3160c44-8.7,204.85-34.49,291.7-48.29v-3.78c-117.6,19.32-309.63,45-309.63,45l-52.68,39.93c-35.46,9.63-71.76,351.22-106.33,357.45Z"/><path class="cls-17" d="M726.34,3165.94l276.68-50v-.17l-284.51,47.11-45,375c-26.28,3.16-55,7.68-82.34,12.47H608c40.16-6.77,71.21-10.55,71.21-10.55Z"/><polygon class="cls-18" points="1003.02 3550.28 1003.02 3125.67 741.95 3172.11 730.46 3550.28 1003.02 3550.28"/><polygon class="cls-19" points="741.95 3172.11 730.46 3550.28 1003.02 3550.28 1003.02 3121.51 816.12 3137.98 802.16 3131.69 741.32 3131.69 711.32 3135.93 753.5 3170.06 741.95 3172.11"/><path class="cls-20" d="M1003,3099.38v-1.85c-97.84,12.32-316.08,39.76-316.08,39.76l-14.58,7.31L620.69,3186,476.11,3546.85l173-13.24-16.28-345,46.92-36.3,38.74,10.51-15.65-13.54Z"/><polygon class="cls-21" points="161.88 3550.28 160.17 3547.63 155 3548 133.57 3191.14 108.82 3196.34 53.78 3189.96 37.89 3531.29 33.48 3190.61 0 3185.94 0 3550.28 161.88 3550.28"/><polygon class="cls-22" points="131.94 3550.28 119.17 3533.52 104.39 3533.52 97.41 3550.28 131.94 3550.28"/><polygon class="cls-22" points="76.55 3550.28 69.66 3537.97 35.68 3533.52 8.34 3544.66 33.09 3195.23 3.91 3533.52 0 3193.32 0 3550.28 76.55 3550.28"/><polygon class="cls-23" points="31.06 3192.63 33.09 3195.23 18.73 3538.11 35.68 3533.52 55.99 3192.63 92.2 3531.85 69.66 3537.97 76.55 3550.28 85.76 3550.28 104.39 3533.52 106.24 3531.85 122.49 3531.85 154.26 3549.11 156.29 3550.28 161.88 3550.28 160.17 3547.63 155 3548 133.57 3191.14 108.82 3196.34 53.78 3189.96 37.89 3531.29 33.48 3190.61 0 3185.94 0 3193.32 0.96 3194.89 31.06 3192.63"/><polygon class="cls-24" points="16.68 3550.28 8.34 3544.66 7.63 3550.28 16.68 3550.28"/><polygon class="cls-24" points="29.22 3550.28 31.45 3547.46 34.96 3550.28 40.21 3550.28 30.14 3542.09 22.39 3550.28 29.22 3550.28"/><polygon class="cls-21" points="257.3 3550.28 239.41 3542.09 202.47 3542.09 201.33 3550.28 257.3 3550.28"/><polygon class="cls-22" points="205.39 3550.28 202.47 3542.09 201.33 3550.28 205.39 3550.28"/><polygon class="cls-23" points="215.31 3550.28 225 3543.91 222.6 3550.22 223.38 3550.28 237.38 3550.28 240.33 3545.58 249.29 3550.28 257.3 3550.28 239.41 3542.09 202.47 3542.09 205.39 3550.28 215.31 3550.28"/><path class="cls-4" d="M1920,3550.29V3074.06l-13.56-32L1891,3087.23s-13.65-26.47-14.14-27-8.29,35.3-8.78,32.35-20.51-47-20.51-47L1831,3099.78c-16.29-33.51-16.42-34-16.42-34l-17.69,52.73-23.26-35.14L1679.17,3132c7.27,28.37,15.59,390.29,24.3,418.26Z"/><path class="cls-5" d="M1089.53,3151l6.21,8.08a39.9,39.9,0,0,1,5.42,20.15c-1,8.37-1,350.63-.5,359,.21,4,.45,8,.75,12.07h519c-5.36-17.7-10.5-369.29-15.24-387.16q-2.39-9-4.63-18.07c-2.3-.62-3.73-1-3.76-1s-93.42-8.41-93.42-8.41l-80.08,34-57.63-3-25.89-5.57-25,7.56-65.84-3.87-128.82-26.36-34.7,8.84A30.91,30.91,0,0,1,1089.53,3151Z"/><path class="cls-6" d="M1022.1,3550.29c0-.19,0-.38-.05-.57-1-12.21-1.71-358.33-.31-370.54a39.36,39.36,0,0,1,21.13-35.18L995,3088.25l-33.24,35.19v426.85Z"/><path class="cls-7" d="M1287.92,3550.29l2.25-9.35-1.75-344.8-4.28-19.3,2.06-14.11-15.73,7.47s.08-7,.16-7.27-3.63-15.16-3.63-15.16l-4.28,23.69-1.57-4.85s-1.87-10.09-1.72-10.71-5.85,9.2-5.85,9.2l-.47-10.41-5.46,9-4.5-27-16.85,26.5s-4.67-19.07-4.9-19.46-10.74,21.31-10.6,19.35-5.9-33.25-5.9-33.25L1186,3161.84c-5.28-24-5.28-24.32-5.28-24.32l-19.44,31-9.48-26.11-36.34,8.81-15.68,399.07Z"/><path class="cls-8" d="M1521.66,3550.29l-35.12-377.58L1331,3189.8h-7.88L1302,3179.4l-291.63-51.24-27.17-8.42a74.49,74.49,0,0,1-21.43,5.82L831.2,3169l-80.13,380.48,210.65.83Z"/><polygon class="cls-9" points="1501.55 3550.28 1503.33 3549.39 1486.54 3172.71 1323.07 3189.81 1484.8 3550.28 1501.55 3550.28"/><polygon class="cls-10" points="1243.53 3545.27 1191.13 3171.84 1258.66 3550.28 1330.03 3550.28 1346.47 3545.67 1301.95 3179.4 1010.32 3128.16 1195.7 3543.15 1243.53 3545.27"/><polygon class="cls-11" points="961.72 3134.11 1132.37 3542.05 1052.79 3155.53 982.99 3119.69 949.05 3125.67 961.72 3134.11"/><polygon class="cls-12" points="961.72 3169.31 751.07 3168.1 1082.42 3543.56 961.72 3169.31"/><polygon class="cls-13" points="1321.16 3188.87 1301.95 3179.4 1010.32 3128.16 1167.46 3174.22 1321.16 3188.87"/><polygon class="cls-14" points="1513.24 3550.28 1521.66 3550.28 1486.54 3172.71 1330.95 3189.8 1482.35 3188.4 1513.24 3550.28"/><path class="cls-15" d="M1920,3550.29V3089.21L1603.93,3129c-.23-.08-14.59,7.31-14.59,7.31-12.5,12.19-51.67,41.44-51.67,41.44-84.14,16.85-159,363.58-215,372.56Z"/><path class="cls-17" d="M1643.33,3157.63l276.67-50v-.17l-284.51,47.11-45,41.14c-41.41,5-88.87,347.16-127.41,354.61h16.59c59.44-11.92,116.47-18.86,116.47-18.86Z"/><path class="cls-17" d="M1441.23,3550.29c64.06-13.14,132.51-360.32,132.51-360.32l54.57-38.28c44-8.7,204.85-34.49,291.69-48.28v-3.79c-117.6,19.32-309.63,45-309.63,45l-52.68,39.92c-53.37,14.49-108.65,358.58-157.06,365.76Z"/><polygon class="cls-18" points="1920 3550.28 1920 3117.36 1658.93 3163.8 1645.81 3548.3 1618.89 3550.28 1920 3550.28"/><polygon class="cls-19" points="1658.93 3163.8 1645.81 3548.3 1618.89 3550.28 1920 3550.28 1920 3113.2 1733.11 3129.68 1719.15 3123.38 1658.31 3123.38 1628.31 3127.62 1670.48 3161.75 1658.93 3163.8"/><path class="cls-25" d="M1658.93,3163.8l-69.59-27.51s-16.6,14.27-22.21,18.76c-7.31,5.87-29.46,22.68-29.46,22.68l108.14,370.57Z"/><path class="cls-26" d="M1756,3533.08l-61.61,17.21h115.46L1920,3190v-31.88c-56.46,6.6-133.32,14.93-121.68,9.9,11-4.73,73.7-17.72,121.68-27.27v-2.19L1778.94,3168l-14.37,24.55-76.64-12,72.89,14.62-86.24-10.61Z"/><polygon class="cls-27" points="1920 3550.28 1920 3168.43 1779.57 3180.52 1764.57 3533.78 1727.22 3550.28 1920 3550.28"/><polygon class="cls-28" points="1920 3550.28 1920 3544.23 1865.3 3550.28 1920 3550.28"/><polygon class="cls-28" points="1824.09 3550.28 1773.62 3542.04 1805.46 3550.28 1824.09 3550.28"/><polygon class="cls-29" points="1801.4 3550.28 1803.13 3549.68 1797.81 3548.3 1789.56 3550.28 1801.4 3550.28"/><polygon class="cls-27" points="1920 3178.59 1826.18 3188.57 1799.96 3546.34 1806.04 3547.34 1835.12 3190.11 1920 3183.32 1920 3178.59"/><polygon class="cls-27" points="1920 3188.41 1845.14 3191.85 1818.12 3548.3 1816.8 3549.09 1823.46 3550.18 1851.14 3192.88 1920 3190.3 1920 3188.41"/><polygon class="cls-30" points="1920 3550.28 1920 3549.88 1734.08 3549.47 1713.64 3549.47 1335.64 3549.66 1335.17 3549.66 1308.97 3549.67 1307.54 3549.67 1299.25 3549.67 1298.37 3549.67 1213.36 3549.71 1191.2 3549.72 961.72 3549.84 961.72 3550.28 1920 3550.28"/><path class="cls-31" d="M1888.14,3550.29s-.05-.09-.1-.12c-.85-.45-7.44-1.07-9.52-.85a2.32,2.32,0,0,0-.38.06,3.56,3.56,0,0,0-1.75.91Z"/><path class="cls-31" d="M1874.71,3550.29a2.71,2.71,0,0,0-1.75-.95c-3-.54-25-3.47-32.69-2.79-7.4.66-6.63,2.68-5.65,3.74Z"/><path class="cls-20" d="M1920,3091.07v-1.84L1603.93,3129l-14.59,7.31-51.67,41.44L1393.1,3538.54l173-347.08-16.28-11.13,46.93-36.3,38.73,10.51L1619.84,3141Z"/><rect class="cls-32" y="3255.16" width="1920" height="970.14"/><path class="cls-33" d="M1920,3091.07v-1.84h0v-15.17l-13.56-32L1891,3087.23s-13.65-26.47-14.14-27-8.29,35.3-8.78,32.35-20.51-47-20.51-47L1831,3099.78c-16.29-33.51-16.42-34-16.42-34l-12.86,38.32-13.26,1.67-14.83-22.4-62.31,32.11L1603.93,3129c-.23-.08-14.59,7.31-14.59,7.31h0l-7.9,6.34c-26.5-2.39-78.11-7-78.11-7l-80.08,34-57.63-3-25.89-5.57-25,7.56-29.19-1.71.61-4.16-7.86,3.73-7.81-.46c0-1.53.06-2.93.1-3.07.07-.31-3.63-15.16-3.63-15.16l-3.22,17.84-2.84-.17c-.49-2.67-1.63-9.05-1.51-9.54s-5.19,8.13-5.79,9.11h-.06l-.47-10.32-5.46,9-4.5-27L1228,3160.45l-2.49-.51c-1.34-5.44-4-16-4.12-16.27s-4.28,8.08-7.34,13.93l-4.17-.86c-1.65-9.68-5-27-5-27l-13.66,23.15-7.56-1.54c-3-13.62-3-13.86-3-13.86l-7.36,11.74-20.61-4.22-1-2.63-5.45,1.32-26.21-5.36-21.09,5.37-66.4-11.66L1003,3097.62v-15.25l-13.57-32L974,3095.54s-13.66-26.47-14.14-27-8.3,35.29-8.78,32.35-20.51-47-20.51-47L914,3108.09c-16.3-33.51-16.42-34-16.42-34l-12.86,38.32-13.27,1.67-14.83-22.4-62.3,32.11-107.09,13.47-.3,0h0c-.22-.08-14.58,7.31-14.58,7.31h0l-7.91,6.34c-26.5-2.39-78.11-7-78.11-7l-80.08,34-57.63-3-25.88-5.57-25,7.56-29.18-1.71.61-4.16-7.87,3.73-7.8-.46c0-1.53.06-2.93.09-3.07.08-.31-3.62-15.16-3.62-15.16l-3.23,17.83-2.84-.16c-.48-2.68-1.62-9.05-1.5-9.55s-5.2,8.14-5.79,9.12h-.06l-.47-10.32-5.46,9-4.51-27L311,3168.76l-2.48-.51c-1.34-5.44-4-16-4.13-16.27s-4.27,8.08-7.33,13.92l-4.17-.85c-1.66-9.68-5-27-5-27l-13.66,23.15-7.55-1.54c-3-13.62-3-13.86-3-13.86l-7.37,11.74-20.6-4.22-.95-2.63-5.45,1.32-26.21-5.36-21.1,5.37-66.39-11.66L78,3096.56l-34.2,23.13-23.4-8.75-8.95-60.55L0,3057.27v1168H1920v-1035h0v-1.89h0v-5.09h0v-4.72h0v-87.53Z"/></g></g></g></svg>