<svg xmlns="http://www.w3.org/2000/svg" xmlns:xlink="http://www.w3.org/1999/xlink" viewBox="0 0 1920.26 2374"><defs><style>.cls-1{isolation:isolate;}.cls-2{fill:url(#linear-gradient);}.cls-3{fill:url(#radial-gradient);}.cls-4{fill:#2d1e63;}.cls-10,.cls-11,.cls-12,.cls-13,.cls-14,.cls-33,.cls-4,.cls-5,.cls-6,.cls-7,.cls-8,.cls-9{fill-rule:evenodd;}.cls-5{fill:#2b1c5e;}.cls-6{fill:#31206a;}.cls-7{fill:#251851;}.cls-8{fill:#2a1a5b;}.cls-9{fill:#2e1e64;}.cls-10{fill:#2f1f65;}.cls-11{fill:#342272;}.cls-12{fill:#2f1d63;opacity:0.61;}.cls-13{fill:#362377;}.cls-14,.cls-20{fill:#362375;}.cls-15{fill:#33226f;}.cls-16{fill:#30206a;}.cls-17{fill:#2b1c5f;opacity:0.46;}.cls-18{fill:#be9f10;opacity:0.31;}.cls-18,.cls-28,.cls-29{mix-blend-mode:multiply;}.cls-19{fill:#281a56;}.cls-21{fill:#2a1959;}.cls-22{fill:#24164e;}.cls-23{fill:#2f1d64;}.cls-24{fill:#221348;}.cls-25{fill:#2a1b5d;}.cls-25,.cls-28{opacity:0.29;}.cls-26{fill:#25164f;}.cls-27{fill:#261750;}.cls-28{fill:#261953;}.cls-29{opacity:0.14;fill:url(#Áåçûìÿííûé_ãðàäèåíò_306);}.cls-30{fill:#23144b;}.cls-31{fill:#25154e;}.cls-32{fill:url(#linear-gradient-2);}.cls-33{opacity:0.48;fill:url(#linear-gradient-3);}</style><linearGradient id="linear-gradient" x1="960.26" y1="2399.29" x2="960.26" y2="18.02" gradientUnits="userSpaceOnUse"><stop offset="0" stop-color="#04020f"/><stop offset="0.2" stop-color="#13092d"/><stop offset="0.3" stop-color="#150a2f"/><stop offset="0.35" stop-color="#1a0e38"/><stop offset="0.39" stop-color="#221445"/><stop offset="0.43" stop-color="#2f1e59"/><stop offset="0.46" stop-color="#3e2972"/><stop offset="0.47" stop-color="#422c78"/><stop offset="1" stop-color="#4949ed"/></linearGradient><radialGradient id="radial-gradient" cx="927.61" cy="1315.16" fx="944.7473582838038" fy="1327.7540426901924" r="1261.42" gradientTransform="translate(0 568.33) scale(1 0.57)" gradientUnits="userSpaceOnUse"><stop offset="0.11" stop-color="#f2d0eb"/><stop offset="0.19" stop-color="#f5c1eb" stop-opacity="0.96"/><stop offset="0.26" stop-color="#f8b2ec" stop-opacity="0.91"/><stop offset="0.33" stop-color="#eaa7ec" stop-opacity="0.78"/><stop offset="0.46" stop-color="#d396ed" stop-opacity="0.56"/><stop offset="0.59" stop-color="#bf87ee" stop-opacity="0.37"/><stop offset="0.71" stop-color="#b07cee" stop-opacity="0.22"/><stop offset="0.82" stop-color="#a574ef" stop-opacity="0.12"/><stop offset="0.92" stop-color="#9e6fef" stop-opacity="0.06"/><stop offset="1" stop-color="#9c6def" stop-opacity="0.04"/><stop offset="1" stop-color="#4a2447" stop-opacity="0"/></radialGradient><linearGradient id="Áåçûìÿííûé_ãðàäèåíò_306" x1="1765.11" y1="1698" x2="1872.83" y2="1698" gradientTransform="translate(-53.67)" gradientUnits="userSpaceOnUse"><stop offset="0" stop-color="#fff"/><stop offset="0.65" stop-color="#837700"/></linearGradient><linearGradient id="linear-gradient-2" x1="960" y1="2371.11" x2="960" y2="635.87" gradientUnits="userSpaceOnUse"><stop offset="0" stop-color="#04020f"/><stop offset="0.44" stop-color="#2a1a5b"/><stop offset="0.57" stop-color="#2a1a5b" stop-opacity="0"/></linearGradient><linearGradient id="linear-gradient-3" x1="960" y1="1082.69" x2="960" y2="3615.66" gradientUnits="userSpaceOnUse"><stop offset="0" stop-color="#55389b"/><stop offset="1" stop-color="#5d4195" stop-opacity="0"/></linearGradient></defs><g class="cls-1"><g id="Layer_2" data-name="Layer 2"><g id="_1" data-name="1"><rect class="cls-2" x="0.26" width="1920" height="2374"/><rect class="cls-3" x="0.26" width="1920" height="1315.16"/><path class="cls-4" d="M1003,1699V1231.07l-13.56-32L974,1244.24s-13.66-26.47-14.15-27-8.29,35.29-8.77,32.35-20.51-47-20.51-47L914,1256.79c-16.3-33.51-16.42-34-16.42-34l-17.7,52.73-23.26-35.14L762.19,1289c6.55,25.56,13.95,384.73,21.73,410Z"/><path class="cls-5" d="M172.54,1308l6.21,8.08a39.91,39.91,0,0,1,5.43,20.15c-1,8.37-1,350.63-.51,359l.21,3.76h517c-4.46-15-8.74-363.77-12.73-378.85q-2.4-9-4.64-18.07l-3.75-1c-.12-.06-93.43-8.41-93.43-8.41l-80.08,33.95-57.63-3-25.88-5.57-25,7.56L332,1321.74l-128.82-26.36-34.69,8.84A31.47,31.47,0,0,1,172.54,1308Z"/><path class="cls-6" d="M104.49,1699c-.63-9.66-.84-353.17.26-362.8a30.3,30.3,0,0,1,3.42-15.38,30,30,0,0,1,8.22-12.85,29.82,29.82,0,0,1,9.5-7L78,1245.26,23.68,1282l-12.26-82.89L0,1206v493Z"/><path class="cls-7" d="M372.93,1699l.25-1-1.75-11-4.28-353.14,2.07-14.11-15.74,7.47s.09-7,.16-7.27-3.62-15.16-3.62-15.16l-4.28,23.69-1.57-4.85s-1.88-10.09-1.72-10.72-5.85,9.21-5.85,9.21l-.47-10.41-5.46,9-4.51-27-16.84,26.5s-4.67-19.07-4.91-19.46S293.68,1322,293.82,1320s-5.91-33.25-5.91-33.25L269,1318.85c-5.28-24-5.28-24.32-5.28-24.32l-19.44,31-9.48-26.11-36.34,8.81L184.77,1699Z"/><polygon class="cls-8" points="598 1698.99 569.55 1329.72 413.96 1680.64 406.09 1680.65 384.96 1336.41 93.34 1285.17 61.2 1275.21 0 1252.09 0 1698.99 598 1698.99"/><polygon class="cls-9" points="583.43 1698.99 569.55 1329.72 406.09 1680.65 517.37 1698.99 583.43 1698.99"/><polygon class="cls-10" points="322.19 1698.99 274.14 1328.85 329.1 1698.99 424.41 1698.99 384.96 1336.41 93.34 1285.17 276.03 1698.99 322.19 1698.99"/><polygon class="cls-11" points="215.22 1698.99 215.28 1698.99 135.8 1312.54 66.01 1276.7 0 1252.02 0 1261.72 23.68 1281.98 215.22 1698.99"/><polygon class="cls-12" points="160.71 1698.99 0 1311.34 0 1340.02 155.64 1698.99 160.71 1698.99"/><polygon class="cls-13" points="404.17 1679.71 384.96 1336.41 93.34 1285.17 250.48 1331.23 404.17 1679.71"/><polygon class="cls-14" points="587.11 1698.99 598 1698.99 569.55 1329.72 413.96 1680.64 565.37 1679.24 587.11 1698.99"/><path class="cls-15" d="M1003,1699V1246.22L686.94,1286c-.22-.08-14.58,7.31-14.58,7.31-12.5,12.19-51.67,41.44-51.67,41.44-61,12.21-117.05,356.18-164.62,364.25Z"/><path class="cls-16" d="M730.46,1699,742,1320.81l-69.59-27.51s-16.61,14.26-22.22,18.76c-7.3,5.86-29.45,22.68-29.45,22.68L710.2,1699Z"/><path class="cls-17" d="M565.17,1699c49.24-9.92,91.58-18.17,91.58-18.17l54.57-372.12c44-8.7,204.85-34.49,291.69-48.29v-3.78c-117.6,19.32-309.62,45-309.62,45l-52.68,39.93C605.25,1351.17,569,1692.76,534.38,1699Z"/><path class="cls-17" d="M726.34,1314.64l276.67-50v-.17l-284.5,47.11-45,375c-26.29,3.16-55,7.68-82.35,12.47H608c40.16-6.77,71.21-10.55,71.21-10.55Z"/><polygon class="cls-18" points="1003.01 1698.99 1003.01 1274.37 741.95 1320.81 730.46 1698.99 1003.01 1698.99"/><polygon class="cls-19" points="741.95 1320.81 730.46 1698.99 1003.01 1698.99 1003.01 1270.21 816.12 1286.68 802.16 1280.39 741.32 1280.39 711.32 1284.63 753.5 1318.76 741.95 1320.81"/><path class="cls-20" d="M1003,1248.08v-1.85C905.18,1258.55,686.94,1286,686.94,1286l-14.58,7.31-51.67,41.44L476.11,1695.55l173-13.24-16.28-345,46.92-36.3,38.74,10.51L702.86,1298Z"/><polygon class="cls-21" points="161.88 1698.99 160.17 1696.33 155 1696.7 133.57 1339.84 108.82 1345.04 53.77 1338.66 37.89 1679.99 33.48 1339.31 0 1334.64 0 1698.99 161.88 1698.99"/><polygon class="cls-22" points="131.94 1698.99 119.16 1682.22 104.39 1682.22 97.41 1698.99 131.94 1698.99"/><polygon class="cls-22" points="76.55 1698.99 69.66 1686.67 35.68 1682.22 8.34 1693.36 33.09 1343.93 3.91 1682.22 0 1342.02 0 1698.99 76.55 1698.99"/><polygon class="cls-23" points="31.06 1341.33 33.09 1343.93 18.72 1686.81 35.68 1682.22 55.99 1341.33 92.2 1680.55 69.66 1686.67 76.55 1698.99 85.76 1698.99 104.39 1682.22 106.23 1680.55 122.49 1680.55 154.26 1697.81 156.29 1698.99 161.88 1698.99 160.17 1696.33 155 1696.7 133.57 1339.84 108.82 1345.04 53.77 1338.66 37.89 1679.99 33.48 1339.31 0 1334.64 0 1342.02 0.96 1343.59 31.06 1341.33"/><polygon class="cls-24" points="16.68 1698.99 8.34 1693.36 7.62 1698.99 16.68 1698.99"/><polygon class="cls-24" points="29.22 1698.99 31.45 1696.16 34.96 1698.99 40.21 1698.99 30.14 1690.79 22.39 1698.99 29.22 1698.99"/><polygon class="cls-21" points="257.3 1698.99 239.41 1690.79 202.47 1690.79 201.33 1698.99 257.3 1698.99"/><polygon class="cls-22" points="205.39 1698.99 202.47 1690.79 201.33 1698.99 205.39 1698.99"/><polygon class="cls-23" points="215.31 1698.99 225 1692.61 222.6 1698.92 223.38 1698.99 237.38 1698.99 240.33 1694.28 249.29 1698.99 257.3 1698.99 239.41 1690.79 202.47 1690.79 205.39 1698.99 215.31 1698.99"/><path class="cls-4" d="M1920,1699V1222.76l-13.56-32L1891,1235.93s-13.65-26.47-14.14-27-8.29,35.3-8.78,32.35-20.51-47-20.51-47L1831,1248.48c-16.29-33.51-16.42-34-16.42-34l-17.7,52.73-23.25-35.14-94.45,48.67c7.27,28.37,15.59,390.29,24.3,418.26Z"/><path class="cls-5" d="M1089.53,1299.65l6.21,8.08a39.9,39.9,0,0,1,5.42,20.15c-1,8.37-1,350.63-.5,359,.21,4,.44,8,.75,12.07h519c-5.36-17.7-10.51-369.29-15.24-387.16q-2.39-9-4.63-18.07c-2.3-.62-3.73-1-3.76-1s-93.43-8.41-93.43-8.41l-80.07,34-57.63-3-25.89-5.57-25,7.56-65.84-3.87-128.82-26.36-34.7,8.84A32.21,32.21,0,0,1,1089.53,1299.65Z"/><path class="cls-6" d="M1022.09,1699c0-.19,0-.38,0-.57-1-12.21-1.71-358.33-.31-370.54a39.36,39.36,0,0,1,21.13-35.18L995,1237l-33.24,35.19V1699Z"/><path class="cls-7" d="M1287.92,1699l2.24-9.35-1.74-344.8-4.29-19.3,2.07-14.11-15.74,7.47s.09-7,.17-7.27-3.63-15.16-3.63-15.16l-4.28,23.69-1.57-4.85s-1.87-10.09-1.72-10.71-5.85,9.2-5.85,9.2l-.47-10.41-5.46,9-4.5-27-16.85,26.5s-4.67-19.07-4.9-19.46-10.74,21.31-10.6,19.35-5.9-33.25-5.9-33.25L1186,1310.54c-5.28-24-5.28-24.32-5.28-24.32l-19.44,31-9.48-26.11-36.34,8.81L1099.76,1699Z"/><path class="cls-8" d="M1521.66,1699l-35.12-377.58L1331,1338.5h-7.88L1302,1328.1l-291.63-51.24-27.18-8.42a74.34,74.34,0,0,1-21.42,5.82L831.2,1317.68l-80.13,380.49,210.65.82Z"/><polygon class="cls-9" points="1501.55 1698.99 1503.33 1698.09 1486.54 1321.41 1323.07 1338.51 1484.79 1698.99 1501.55 1698.99"/><polygon class="cls-10" points="1243.53 1693.97 1191.12 1320.54 1258.66 1698.99 1330.03 1698.99 1346.47 1694.37 1301.95 1328.1 1010.32 1276.86 1195.7 1691.85 1243.53 1693.97"/><polygon class="cls-11" points="961.72 1282.81 1132.37 1690.75 1052.79 1304.23 982.99 1268.39 949.04 1274.37 961.72 1282.81"/><polygon class="cls-12" points="961.72 1318.01 751.07 1316.8 1082.42 1692.26 961.72 1318.01"/><polygon class="cls-13" points="1321.16 1337.57 1301.95 1328.1 1010.32 1276.86 1167.46 1322.92 1321.16 1337.57"/><polygon class="cls-14" points="1513.24 1698.99 1521.66 1698.99 1486.54 1321.41 1330.95 1338.5 1482.35 1337.1 1513.24 1698.99"/><path class="cls-15" d="M1920,1699V1237.91l-316.07,39.77c-.23-.08-14.59,7.31-14.59,7.31-12.5,12.19-51.67,41.44-51.67,41.44-84.14,16.85-159,363.58-215,372.56Z"/><path class="cls-17" d="M1643.32,1306.33l276.68-50v-.17l-284.51,47.11-45,41.14c-41.41,5-88.87,347.17-127.41,354.61h16.59c59.44-11.92,116.47-18.86,116.47-18.86Z"/><path class="cls-17" d="M1441.23,1699c64.06-13.14,132.5-360.32,132.5-360.32l54.57-38.28c44.06-8.7,204.85-34.49,291.7-48.28v-3.79c-117.6,19.32-309.63,45-309.63,45l-52.68,39.92c-53.37,14.49-108.65,358.58-157.06,365.76Z"/><polygon class="cls-18" points="1920 1698.99 1920 1266.06 1658.93 1312.5 1645.81 1697.01 1618.88 1698.99 1920 1698.99"/><polygon class="cls-19" points="1658.93 1312.5 1645.81 1697.01 1618.88 1698.99 1920 1698.99 1920 1261.91 1733.11 1278.38 1719.15 1272.08 1658.31 1272.08 1628.3 1276.32 1670.48 1310.45 1658.93 1312.5"/><path class="cls-25" d="M1658.93,1312.5,1589.34,1285s-16.6,14.27-22.21,18.76c-7.31,5.87-29.46,22.68-29.46,22.68L1645.81,1697Z"/><path class="cls-26" d="M1756,1681.78l-61.6,17.21h115.46L1920,1338.66v-31.88c-56.47,6.6-133.32,14.93-121.68,9.9,11-4.73,73.7-17.72,121.68-27.27v-2.19l-141.06,29.46-14.37,24.55-76.64-12,72.89,14.62-86.24-10.61Z"/><polygon class="cls-27" points="1920 1698.99 1920 1317.13 1779.57 1329.22 1764.57 1682.48 1727.21 1698.99 1920 1698.99"/><polygon class="cls-28" points="1920 1698.99 1920 1692.93 1865.3 1698.99 1920 1698.99"/><polygon class="cls-28" points="1824.09 1698.99 1773.62 1690.74 1805.46 1698.99 1824.09 1698.99"/><polygon class="cls-29" points="1801.4 1698.99 1803.13 1698.38 1797.81 1697.01 1789.55 1698.99 1801.4 1698.99"/><polygon class="cls-27" points="1920 1327.3 1826.18 1337.27 1799.96 1695.04 1806.04 1696.04 1835.11 1338.82 1920 1332.02 1920 1327.3"/><polygon class="cls-27" points="1920 1337.11 1845.14 1340.55 1818.12 1697.01 1816.8 1697.79 1823.46 1698.88 1851.14 1341.58 1920 1339 1920 1337.11"/><polygon class="cls-30" points="1920 1698.99 1920 1698.58 1734.08 1698.16 1713.64 1698.17 1335.64 1698.36 1335.17 1698.36 1308.97 1698.37 1307.54 1698.37 1299.25 1698.37 1298.36 1698.37 1213.36 1698.41 1191.2 1698.43 961.72 1698.54 961.72 1698.99 1920 1698.99"/><path class="cls-31" d="M1888.14,1699s-.06-.09-.11-.12c-.84-.45-7.43-1.07-9.51-.85a2.32,2.32,0,0,0-.38.06,3.64,3.64,0,0,0-1.76.91Z"/><path class="cls-31" d="M1874.71,1699a2.74,2.74,0,0,0-1.75-1c-3-.54-25-3.47-32.7-2.79-7.39.66-6.62,2.68-5.64,3.74Z"/><path class="cls-20" d="M1920,1239.78v-1.85l-316.07,39.75-14.59,7.31-51.67,41.44-144.58,360.81,173-347.08L1549.83,1329l46.92-36.3,38.74,10.51-15.65-13.54S1825.5,1255.48,1920,1239.78Z"/><rect class="cls-32" y="1403.86" width="1920" height="970.14"/><path class="cls-33" d="M1920,1239.78v-1.85h0v-15.17l-13.56-32L1891,1235.93s-13.65-26.47-14.14-27-8.29,35.3-8.78,32.35-20.51-47-20.51-47L1831,1248.48c-16.29-33.51-16.42-34-16.42-34l-12.86,38.32-13.27,1.67-14.82-22.4-62.31,32.11-107.38,13.51c-.23-.08-14.59,7.31-14.59,7.31h0l-7.9,6.34c-26.5-2.39-78.12-7-78.12-7l-80.07,34-57.63-3-25.89-5.57-25,7.56-29.19-1.71.61-4.16-7.86,3.73-7.81-.46c0-1.53.06-2.93.1-3.07.07-.31-3.63-15.16-3.63-15.16l-3.22,17.84-2.84-.17c-.49-2.67-1.63-9.05-1.51-9.54s-5.19,8.13-5.79,9.11h-.06l-.47-10.32-5.46,9-4.5-27L1228,1309.15l-2.49-.51c-1.34-5.44-4-16-4.12-16.27s-4.28,8.09-7.34,13.93l-4.17-.86c-1.65-9.67-5-27-5-27l-13.66,23.15-7.56-1.54c-3-13.62-3-13.86-3-13.86l-7.36,11.74-20.61-4.22-1-2.63-5.45,1.32-26.21-5.36-21.09,5.37-66.4-11.66L1003,1246.32v-15.25l-13.56-32L974,1244.24s-13.66-26.47-14.15-27-8.29,35.29-8.77,32.35-20.51-47-20.51-47L914,1256.79c-16.3-33.51-16.42-34-16.42-34l-12.87,38.32-13.26,1.67-14.83-22.4-62.31,32.11L687.24,1286l-.3,0h0c-.22-.08-14.58,7.31-14.58,7.31h0l-7.91,6.34c-26.5-2.39-78.11-7-78.11-7l-80.08,33.95-57.63-3-25.88-5.57-25,7.56-29.18-1.71.61-4.16-7.87,3.73-7.81-.46c0-1.53.07-2.93.1-3.07.08-.31-3.62-15.16-3.62-15.16l-3.23,17.83-2.84-.16c-.48-2.68-1.62-9-1.5-9.55s-5.2,8.14-5.79,9.12h-.07l-.46-10.32-5.46,9-4.51-27L311,1317.46l-2.48-.51c-1.34-5.44-4-16-4.13-16.27s-4.27,8.08-7.33,13.92l-4.17-.85c-1.66-9.68-5-27-5-27l-13.66,23.15-7.55-1.54c-3-13.62-3-13.86-3-13.86l-7.36,11.74-20.6-4.22-1-2.63-5.44,1.32-26.22-5.36L182,1300.75l-66.4-11.66L78,1245.26l-34.2,23.13-23.39-8.75-9-60.55L0,1206V2374H1920V1339h0v-1.89h0V1332h0v-4.72h0v-87.52Z"/></g></g></g></svg>