<svg xmlns="http://www.w3.org/2000/svg" xmlns:xlink="http://www.w3.org/1999/xlink" viewBox="0 0 1920.13 4225.3"><defs><style>.cls-1{isolation:isolate;}.cls-2{fill:url(#radial-gradient);}.cls-3{fill:url(#linear-gradient);}.cls-4{fill:url(#radial-gradient-2);}.cls-5{fill:#512a4a;}.cls-10,.cls-19,.cls-20,.cls-21,.cls-5,.cls-6,.cls-7,.cls-8,.cls-9{fill-rule:evenodd;}.cls-6{fill:#4f2848;}.cls-11,.cls-7{fill:#532c4c;}.cls-15,.cls-8{fill:#4d2646;}.cls-18,.cls-9{fill:#542d4d;}.cls-10,.cls-27{fill:#552e4e;}.cls-12,.cls-21{fill:#502949;}.cls-13{fill:#522b4b;}.cls-14{fill:#be9f10;opacity:0.31;}.cls-14,.cls-23,.cls-24{mix-blend-mode:multiply;}.cls-16,.cls-19{fill:#4c2545;}.cls-17,.cls-20{fill:#4e2747;}.cls-22{fill:#4b2444;}.cls-23{fill:#261953;opacity:0.29;}.cls-24{opacity:0.14;fill:url(#Áåçûìÿííûé_ãðàäèåíò_306);}.cls-25{fill:#23144b;}.cls-26{fill:#25154e;}.cls-28{fill:url(#linear-gradient-2);}</style><radialGradient id="radial-gradient" cx="1008.62" cy="1984.66" r="1834.67" gradientUnits="userSpaceOnUse"><stop offset="0.13" stop-color="#eda5b2"/><stop offset="1" stop-color="#e47589"/></radialGradient><linearGradient id="linear-gradient" x1="960.13" y1="2675.06" x2="960.13" y2="-999.99" gradientUnits="userSpaceOnUse"><stop offset="0.11" stop-color="#f8e8f0"/><stop offset="0.18" stop-color="#f6d9e1" stop-opacity="0.96"/><stop offset="0.26" stop-color="#f3c5cd" stop-opacity="0.91"/><stop offset="0.32" stop-color="#f1bbc5" stop-opacity="0.8"/><stop offset="0.45" stop-color="#eda6b3" stop-opacity="0.57"/><stop offset="0.58" stop-color="#ea94a4" stop-opacity="0.38"/><stop offset="0.7" stop-color="#e78798" stop-opacity="0.23"/><stop offset="0.82" stop-color="#e57d90" stop-opacity="0.12"/><stop offset="0.92" stop-color="#e4778b" stop-opacity="0.06"/><stop offset="1" stop-color="#e47589" stop-opacity="0.04"/></linearGradient><radialGradient id="radial-gradient-2" cx="1261.08" cy="2437.25" r="1863.53" gradientUnits="userSpaceOnUse"><stop offset="0.11" stop-color="#f8e8f0"/><stop offset="0.18" stop-color="#f6d9e1" stop-opacity="0.96"/><stop offset="0.26" stop-color="#f3c5cd" stop-opacity="0.91"/></radialGradient><linearGradient id="Áåçûìÿííûé_ãðàäèåíò_306" x1="1765.11" y1="3549.29" x2="1872.83" y2="3549.29" gradientTransform="translate(-53.67)" gradientUnits="userSpaceOnUse"><stop offset="0" stop-color="#fff"/><stop offset="0.65" stop-color="#837700"/></linearGradient><linearGradient id="linear-gradient-2" x1="960" y1="4239.31" x2="960" y2="2830.64" gradientUnits="userSpaceOnUse"><stop offset="0" stop-color="#2f0828"/><stop offset="0.58" stop-color="#4d2646"/><stop offset="0.78" stop-color="#4d2646" stop-opacity="0"/></linearGradient></defs><g class="cls-1"><g id="Layer_2" data-name="Layer 2"><g id="_1" data-name="1"><rect class="cls-2" x="0.13" width="1920" height="4225.3"/><rect class="cls-3" x="0.13" width="1920" height="3570.52"/><rect class="cls-4" x="0.13" width="1920" height="3248.69"/><path class="cls-5" d="M1003,3550.29V3082.37l-13.56-32L974,3095.54s-13.66-26.47-14.15-27-8.29,35.29-8.77,32.35-20.51-47-20.51-47L914,3108.09c-16.3-33.51-16.42-34-16.42-34l-17.7,52.73-23.26-35.14-94.44,48.67c6.55,25.56,13.95,384.73,21.73,409.95Z"/><path class="cls-6" d="M172.54,3159.26l6.21,8.08a39.9,39.9,0,0,1,5.43,20.14c-1,8.38-1,350.64-.51,359.05l.21,3.76h517c-4.46-14.95-8.74-363.77-12.73-378.85q-2.4-9-4.64-18.07l-3.75-1c-.12-.06-93.43-8.41-93.43-8.41l-80.08,34-57.63-3-25.88-5.57-25,7.56L332,3173l-128.82-26.36-34.69,8.84A31.47,31.47,0,0,1,172.54,3159.26Z"/><path class="cls-7" d="M104.49,3550.29c-.63-9.66-.84-353.17.26-362.81a30.28,30.28,0,0,1,3.42-15.37,30,30,0,0,1,8.22-12.85,30,30,0,0,1,9.5-7L78,3096.56l-54.29,36.72-12.26-82.89L0,3057.27v493Z"/><path class="cls-8" d="M372.93,3550.29l.25-1-1.75-11-4.28-353.14,2.07-14.11-15.74,7.47s.09-7,.16-7.27-3.62-15.16-3.62-15.16l-4.28,23.69-1.57-4.85s-1.88-10.09-1.72-10.72-5.85,9.21-5.85,9.21l-.47-10.41-5.46,9-4.51-27-16.84,26.5s-4.67-19.07-4.91-19.46-10.73,21.31-10.59,19.35-5.91-33.25-5.91-33.25L269,3170.15c-5.28-24-5.28-24.32-5.28-24.32l-19.44,31-9.48-26.11-36.34,8.81-13.68,390.76Z"/><polygon class="cls-8" points="598 3550.28 569.55 3181.02 413.96 3531.94 406.09 3531.95 384.96 3187.71 93.34 3136.47 61.2 3126.51 0 3103.39 0 3550.28 598 3550.28"/><polygon class="cls-6" points="583.43 3550.28 569.55 3181.02 406.09 3531.95 517.37 3550.28 583.43 3550.28"/><polygon class="cls-6" points="322.19 3550.28 274.14 3180.15 329.1 3550.28 424.41 3550.28 384.96 3187.71 93.34 3136.47 276.03 3550.28 322.19 3550.28"/><polygon class="cls-9" points="215.22 3550.28 215.28 3550.28 135.8 3163.84 66.01 3128 0 3103.32 0 3113.03 23.68 3133.28 215.22 3550.28"/><polygon class="cls-8" points="160.71 3550.28 0 3162.64 0 3191.32 155.64 3550.28 160.71 3550.28"/><polygon class="cls-10" points="404.17 3531.01 384.96 3187.71 93.34 3136.47 250.48 3182.53 404.17 3531.01"/><polygon class="cls-9" points="587.11 3550.28 598 3550.28 569.55 3181.02 413.96 3531.94 565.37 3530.54 587.11 3550.28"/><path class="cls-11" d="M1003,3550.29V3097.52l-316.07,39.77c-.22-.08-14.58,7.31-14.58,7.31-12.5,12.19-51.67,41.44-51.67,41.44-61,12.21-117.05,356.18-164.62,364.25Z"/><path class="cls-12" d="M730.46,3550.29,742,3172.11l-69.59-27.51s-16.61,14.26-22.22,18.76c-7.3,5.86-29.45,22.68-29.45,22.68l89.51,364.25Z"/><path class="cls-13" d="M726.34,3165.94l276.67-50v-.17l-284.5,47.11-45,375c-26.29,3.16-55,7.68-82.35,12.47H608c40.16-6.77,71.21-10.55,71.21-10.55Z"/><polygon class="cls-14" points="1003.01 3550.28 1003.01 3125.67 741.95 3172.11 730.46 3550.28 1003.01 3550.28"/><polygon class="cls-15" points="741.95 3172.11 730.46 3550.28 1003.01 3550.28 1003.01 3121.51 816.12 3137.98 802.16 3131.69 741.32 3131.69 711.32 3135.93 753.5 3170.06 741.95 3172.11"/><path class="cls-11" d="M1003,3099.38v-1.85c-97.83,12.32-316.07,39.76-316.07,39.76l-14.58,7.31L620.69,3186,476.11,3546.85l173-13.24-16.28-345,46.92-36.3,38.74,10.51-15.65-13.54Z"/><polygon class="cls-15" points="161.88 3550.28 160.17 3547.63 155 3548 133.57 3191.14 108.82 3196.34 53.77 3189.96 37.89 3531.29 33.48 3190.61 0 3185.94 0 3550.28 161.88 3550.28"/><polygon class="cls-15" points="131.94 3550.28 119.16 3533.52 104.39 3533.52 97.41 3550.28 131.94 3550.28"/><polygon class="cls-16" points="76.55 3550.28 69.66 3537.97 35.68 3533.52 8.34 3544.66 33.09 3195.23 3.91 3533.52 0 3193.32 0 3550.28 76.55 3550.28"/><polygon class="cls-17" points="31.06 3192.63 33.09 3195.23 18.72 3538.11 35.68 3533.52 55.99 3192.63 92.2 3531.85 69.66 3537.97 76.55 3550.28 85.76 3550.28 104.39 3533.52 106.23 3531.85 122.49 3531.85 154.26 3549.11 156.29 3550.28 161.88 3550.28 160.17 3547.63 155 3548 133.57 3191.14 108.82 3196.34 53.77 3189.96 37.89 3531.29 33.48 3190.61 0 3185.94 0 3193.32 0.96 3194.89 31.06 3192.63"/><polygon class="cls-15" points="16.68 3550.28 8.34 3544.66 7.62 3550.28 16.68 3550.28"/><polygon class="cls-15" points="29.22 3550.28 31.45 3547.46 34.96 3550.28 40.21 3550.28 30.14 3542.09 22.39 3550.28 29.22 3550.28"/><polygon class="cls-18" points="257.29 3550.28 239.41 3542.09 202.47 3542.09 201.33 3550.28 257.29 3550.28"/><polygon class="cls-18" points="205.39 3550.28 202.47 3542.09 201.33 3550.28 205.39 3550.28"/><polygon class="cls-15" points="215.31 3550.28 225 3543.91 222.6 3550.22 223.38 3550.28 237.38 3550.28 240.33 3545.58 249.29 3550.28 257.29 3550.28 239.41 3542.09 202.47 3542.09 205.39 3550.28 215.31 3550.28"/><path class="cls-5" d="M1920,3550.29V3074.06l-13.56-32L1891,3087.23s-13.65-26.47-14.14-27-8.29,35.3-8.78,32.35-20.51-47-20.51-47L1831,3099.78c-16.29-33.51-16.42-34-16.42-34l-17.7,52.73-23.25-35.14L1679.17,3132c7.27,28.37,15.59,390.29,24.3,418.26Z"/><path class="cls-6" d="M1089.53,3151l6.21,8.08a39.9,39.9,0,0,1,5.42,20.15c-1,8.37-1,350.63-.5,359,.21,4,.44,8,.75,12.07h519c-5.36-17.7-10.51-369.29-15.24-387.16q-2.39-9-4.63-18.07c-2.3-.62-3.73-1-3.76-1s-93.43-8.41-93.43-8.41l-80.07,34-57.63-3-25.89-5.57-25,7.56-65.84-3.87-128.82-26.36-34.7,8.84A32.21,32.21,0,0,1,1089.53,3151Z"/><path class="cls-7" d="M1022.09,3550.29c0-.19,0-.38,0-.57-1-12.21-1.71-358.33-.31-370.54a39.36,39.36,0,0,1,21.13-35.18L995,3088.25l-33.24,35.19v426.85Z"/><path class="cls-19" d="M1287.92,3550.29l2.24-9.35-1.74-344.8-4.29-19.3,2.07-14.11-15.74,7.47s.09-7,.17-7.27-3.63-15.16-3.63-15.16l-4.28,23.69-1.57-4.85s-1.87-10.09-1.72-10.71-5.85,9.2-5.85,9.2l-.47-10.41-5.46,9-4.5-27-16.85,26.5s-4.67-19.07-4.9-19.46-10.74,21.31-10.6,19.35-5.9-33.25-5.9-33.25L1186,3161.84c-5.28-24-5.28-24.32-5.28-24.32l-19.44,31-9.48-26.11-36.34,8.81-15.68,399.07Z"/><path class="cls-20" d="M1521.66,3550.29l-35.12-377.58L1331,3189.8h-7.88L1302,3179.4l-291.63-51.24-27.18-8.42a74.34,74.34,0,0,1-21.42,5.82L831.2,3169l-80.13,380.48,210.65.83Z"/><polygon class="cls-21" points="1501.55 3550.28 1503.33 3549.39 1486.54 3172.71 1323.07 3189.81 1484.79 3550.28 1501.55 3550.28"/><polygon class="cls-5" points="1243.53 3545.27 1191.12 3171.84 1258.66 3550.28 1330.03 3550.28 1346.47 3545.67 1301.95 3179.4 1010.32 3128.16 1195.7 3543.15 1243.53 3545.27"/><polygon class="cls-9" points="961.72 3134.11 1132.37 3542.05 1052.78 3155.53 982.99 3119.69 949.04 3125.67 961.72 3134.11"/><polygon class="cls-6" points="961.72 3169.31 751.07 3168.09 1082.42 3543.56 961.72 3169.31"/><polygon class="cls-10" points="1321.16 3188.87 1301.95 3179.4 1010.32 3128.16 1167.46 3174.22 1321.16 3188.87"/><polygon class="cls-10" points="1513.24 3550.28 1521.66 3550.28 1486.54 3172.71 1330.95 3189.8 1482.35 3188.4 1513.24 3550.28"/><path class="cls-11" d="M1920,3550.29V3089.21L1603.93,3129c-.23-.08-14.59,7.31-14.59,7.31-12.5,12.19-51.67,41.44-51.67,41.44-84.14,16.85-159,363.58-215,372.56Z"/><path class="cls-12" d="M1643.32,3157.63l276.68-50v-.17l-284.51,47.11-45,41.14c-41.41,5-88.87,347.16-127.41,354.61h16.59c59.44-11.92,116.47-18.86,116.47-18.86Z"/><path class="cls-12" d="M1441.23,3550.29c64.06-13.14,132.5-360.32,132.5-360.32l54.57-38.28c44.06-8.7,204.85-34.49,291.7-48.28v-3.79c-117.6,19.32-309.63,45-309.63,45l-52.68,39.93c-53.37,14.49-108.65,358.58-157.06,365.76Z"/><polygon class="cls-14" points="1920 3550.28 1920 3117.36 1658.93 3163.8 1645.81 3548.3 1618.88 3550.28 1920 3550.28"/><polygon class="cls-17" points="1658.93 3163.8 1645.81 3548.3 1618.88 3550.28 1920 3550.28 1920 3113.2 1733.11 3129.68 1719.15 3123.38 1658.31 3123.38 1628.3 3127.62 1670.48 3161.75 1658.93 3163.8"/><path class="cls-22" d="M1756,3533.08l-61.6,17.21h115.46L1920,3190v-31.88c-56.47,6.6-133.32,14.93-121.68,9.9,11-4.73,73.7-17.72,121.68-27.27v-2.19L1778.94,3168l-14.37,24.55-76.64-12,72.89,14.62-86.24-10.61Z"/><polygon class="cls-22" points="1920 3550.28 1920 3168.43 1779.57 3180.52 1764.57 3533.78 1727.21 3550.28 1920 3550.28"/><polygon class="cls-23" points="1920 3550.28 1920 3544.23 1865.3 3550.28 1920 3550.28"/><polygon class="cls-23" points="1824.09 3550.28 1773.62 3542.04 1805.46 3550.28 1824.09 3550.28"/><polygon class="cls-24" points="1801.4 3550.28 1803.13 3549.68 1797.81 3548.3 1789.55 3550.28 1801.4 3550.28"/><polygon class="cls-22" points="1920 3178.59 1826.18 3188.57 1799.96 3546.34 1806.04 3547.34 1835.11 3190.11 1920 3183.32 1920 3178.59"/><polygon class="cls-22" points="1920 3188.41 1845.14 3191.85 1818.12 3548.3 1816.8 3549.09 1823.46 3550.18 1851.14 3192.88 1920 3190.3 1920 3188.41"/><polygon class="cls-25" points="1920 3550.28 1920 3549.88 1734.08 3549.47 1713.64 3549.47 1335.64 3549.66 1335.17 3549.66 1308.97 3549.67 1307.54 3549.67 1299.25 3549.67 1298.36 3549.67 1213.36 3549.71 1191.2 3549.72 961.72 3549.84 961.72 3550.28 1920 3550.28"/><path class="cls-26" d="M1888.14,3550.29s-.06-.09-.11-.12c-.84-.45-7.43-1.07-9.51-.85a2.32,2.32,0,0,0-.38.06,3.64,3.64,0,0,0-1.76.91Z"/><path class="cls-26" d="M1874.71,3550.29a2.74,2.74,0,0,0-1.75-.95c-3-.54-25-3.47-32.7-2.79-7.39.66-6.62,2.68-5.65,3.74Z"/><path class="cls-27" d="M1920,3091.07v-1.84L1603.93,3129l-14.59,7.31-51.67,41.44-144.58,360.81,173-347.08-16.28-11.13,46.92-36.3,38.74,10.51L1619.84,3141Z"/><rect class="cls-28" y="3255.16" width="1920" height="970.14"/></g></g></g></svg>