<svg xmlns="http://www.w3.org/2000/svg" viewBox="0 0 1599.67 361.15"><defs><style>.cls-1,.cls-2{fill:#feeef2;}.cls-1{fill-rule:evenodd;}</style></defs><g id="Layer_2" data-name="Layer 2"><g id="_2" data-name="2"><path class="cls-1" d="M169.42,280.31s339.05,45.28,613.48,59.28l-117.45-3.16S884,358.71,998.11,361.15C998.11,361.15,613.15,354.48,169.42,280.31Z"/><path class="cls-2" d="M1452.57,281.3c-9.5.16-19.07,1.13-28.5,1.62-27.31,1.42-54.65,1.35-82,1.57-53.95,3.33-107.81,8.05-161.47,14.47a6.64,6.64,0,0,1-3.08-.38c-42.84,3.95-89.09,7.77-138,11.16l129-7.32s-108.88,16.12-231,25.54c142.55-7.89,378.81-22.67,540.61-41.58l.06-2.5a84.4,84.4,0,0,0-18.36-2.52Z"/><path class="cls-2" d="M937.52,328c-74,4.1-122.71,6.34-122.71,6.34C854.84,333.49,896.91,331.1,937.52,328Z"/><path class="cls-2" d="M1039.57,309.74,892.49,318.1C943.46,315.87,992.72,313,1039.57,309.74Z"/><path class="cls-1" d="M215.1,241.64s-32.15-32-70.63-15.11C144.47,226.53,189.07,239.25,215.1,241.64Z"/><path class="cls-1" d="M770.92,350s49.51-11.93,96.19-10.67,69.32,20.19,69.32,20.19S842.43,355.33,770.92,350Z"/><path class="cls-1" d="M819.31,271.72c61-4.89,102.26-10.54,102.26-10.54s-10.23-6.82-36.15-6.09l-.73,0a107.15,107.15,0,0,0-38.7,8.32s-53.4-70.28-84.75-67.56h-.13a19.73,19.73,0,0,0-12.87,4.85c-22,14.91-18.87,56.35-17.75,66.33.21,1.32.28,2.18.28,2.18s-.12-.78-.28-2.18a34.94,34.94,0,0,0-1.74-6.88c-.76-2.87-2.16-5.3-4.66-6.23h0a5.72,5.72,0,0,0-2.83-.61c-6.9.31-14.63,12.62-17,16.58-1.22-7.49-6.34-19.6-11.93-28.79a46,46,0,0,0-6.54-9l-.16-.18-.13-.12-.44-.44-.62-.59-.54-.48-.26-.23c-6.73-5.75-13.45-6-19-4.27-.4.12-.63.21-.63.21a2.71,2.71,0,0,0-.58.21,33.69,33.69,0,0,0-12,8,14,14,0,0,0-1.4-6.62c-.68-1.89-1.46-2.37-2.24-2h0c-.75-.27-1.29.49-1.64,1.8a35.43,35.43,0,0,0-2.78,6.77c1.64-23.45-10.57-73.69-41.36-66.76-37.78,6.16-65.57,83.53-68.48,91.93-.58-1-1.19-1.95-1.83-2.94-6.14-13-17.81-23.14-29.17-19.67-16.17,4.95-24.8,30.3-24.8,30.3a42.85,42.85,0,0,0-3.09-5.45c-2.83-5.34-11.2-15.46-30-12.39l-.6.1-.92.17a65.89,65.89,0,0,0-21.41,8.69c-.74-2.26-2.78-7.34-6.28-7.49h0c-4.42-1.17-8,6.05-8,6.05a22.82,22.82,0,0,0-6.55-5.09c-19.17-11.11-52.21-5.66-52.21-5.66h0c-4.84.43-7.9.88-7.9.88s41.12,9.31,105.84,17.86q-15.68-1.53-31.26-3.33s57.87,18.21,223.79,23.05,436-33.92,436-33.92S968,265,819.31,271.72Z"/><path class="cls-1" d="M1599.67,99.69,1538.6,92A287.3,287.3,0,0,0,1500,89.74l-16.26.15c.32-.1,21.5-4.51,21.5-4.51l-21.18-7.3s-54.19-67.9-93.8-56.53c-28.41,4.8-45.26,47.33-53.24,74.62-10-5.54-20.34-9-30.81-9.33-36.18-1-48.12,32.79-50.93,43.17-.35.84-.7,1.7-1,2.59-.78-1-3-3.64-6.26-7.49-12-19.85-49.13-56.43-81.62-72-13.22-6.79-25.88-9.76-36.27-5.77a21.46,21.46,0,0,0-3.89,1.88c-38.42,22.85-31.17,83.76-28.68,99a33.58,33.58,0,0,0-12.23-3.27h0c-5.46-.42-6.54,5-6.73,7.86-21.43-14.3-55.71-32.11-86-25.2h0a66.92,66.92,0,0,0-18.49,6.33,72.82,72.82,0,0,0-7.31,4.32,66.39,66.39,0,0,0-11.92,9.89c-23.52,23.77-28.41,57.57-28.41,57.57s-1.49-.81-4-1.86c-5.54-2.42-14.19-5.26-23.65-4.87h-.4a37.49,37.49,0,0,0-12.49,2.42l-.77.3c-14,4.44-28.26,12.66-28.26,12.66h0c-3.2,1.62-5.07,2.63-5.07,2.63l13.37-1.48c-4.52.52-9,1-13.37,1.48,0,0,74.14,1.31,175.33-3.19l-.09,3.11s71.75-.66,171.15-7.58h0c65.42-4.55,142.8-11.8,219.62-23.36a333.18,333.18,0,0,0-18.3-28.29c34.29-8.59,65.6-16.72,83-21.9l21.48-4.4c.33-.11-20.79-2.89-20.79-2.89Z"/><path class="cls-1" d="M1174.2,225.64s78.31-6.51,148-12.84c0,0-48.3-7.92-77-2.07S1227.63,218.36,1174.2,225.64Z"/><path class="cls-1" d="M1329.25,213.3s38.55-13.29,49.47-3.62Z"/><path class="cls-1" d="M757.24,135.83c20.72,2.92,33.47,4,36.78,4.25q-34.83-2.52-68.29-5.56c11.1.6,21.63,1,31.51,1.31-12-.33-26.55-2.13-43.33-5.19-23.42-7-132.78-39.11-173.71-40.8h-.1c-44.61-2.7-78.24,11.24-78.24,11.24s-.37-.39-1-1c-13.26-13.36-21.12-16.37-25.76-15.34h0c-6.46,1.44-6.72,10.69-6.72,10.7h0S361.7,49.32,310.86,24.29C290.72,14.07,273.52,7.23,265.53,8.55c-25.82-.7-24.45,25.1-22.56,36.61C218.14,26.81,177,.57,144.36.55h0c-2.76-.23-5.65-.39-8.77-.5-14.2-.51-56.95,3.24-56.95,3.24L60.15,5.05c.71.24,19.54,7.49,20.26,7.74l-2.16-.74L0,0C377.59,110.72,794.91,140.14,794.91,140.14S781.23,138.67,757.24,135.83Z"/></g></g></svg>