<svg xmlns="http://www.w3.org/2000/svg" xmlns:xlink="http://www.w3.org/1999/xlink" viewBox="0 0 1920 1234.44"><defs><style>.cls-1{isolation:isolate;}.cls-2{fill:url(#linear-gradient);}.cls-3{fill:#461743;}.cls-10,.cls-11,.cls-12,.cls-24,.cls-3,.cls-4,.cls-5,.cls-6,.cls-7,.cls-8,.cls-9{fill-rule:evenodd;}.cls-4{fill:#45163b;}.cls-5{fill:#491a44;}.cls-6{fill:#3f1036;}.cls-7{fill:#431439;}.cls-8{fill:#48193c;}.cls-9{fill:#491a3d;}.cls-10{fill:#4d1e46;}.cls-11{fill:#4f2045;}.cls-12{fill:#4f2044;}.cls-13{fill:#4c1e41;}.cls-14{fill:#4a1b3e;}.cls-15,.cls-21,.cls-22,.cls-23{opacity:0.14;}.cls-15,.cls-17,.cls-21,.cls-22,.cls-23,.cls-24,.cls-27{mix-blend-mode:multiply;}.cls-15{fill:url(#Áåçûìÿííûé_ãðàäèåíò_305);}.cls-16{fill:#47183d;}.cls-17{fill:#be9f10;opacity:0.31;}.cls-18{fill:#421239;}.cls-19{fill:#3f1033;}.cls-20{fill:#36082b;}.cls-21{fill:url(#Áåçûìÿííûé_ãðàäèåíò_306);}.cls-22{fill:url(#Áåçûìÿííûé_ãðàäèåíò_306-2);}.cls-23{fill:url(#Áåçûìÿííûé_ãðàäèåíò_306-3);}.cls-24{fill:#150d2f;opacity:0.2;}.cls-25{fill:#350629;}.cls-26{fill:#3b0d2f;}.cls-27{fill:#261953;opacity:0.29;}.cls-28{fill:#4f1f48;}.cls-29{fill:#421436;}.cls-30{fill:#3d0f31;}.cls-31{fill:#47183b;}.cls-32{fill:#3a0b2e;}.cls-33{fill:#421336;}.cls-34{fill:#3d0e31;}.cls-35{fill:#47193c;}</style><linearGradient id="linear-gradient" x1="960" y1="1266.93" x2="960" y2="371.4" gradientUnits="userSpaceOnUse"><stop offset="0.02" stop-color="#0f000c"/><stop offset="0.31" stop-color="#26001e"/><stop offset="0.52" stop-color="#280020"/><stop offset="0.61" stop-color="#2e0023"/><stop offset="1" stop-color="#350629"/></linearGradient><linearGradient id="Áåçûìÿííûé_ãðàäèåíò_305" x1="-3773.37" y1="383.2" x2="-2311.23" y2="383.2" gradientTransform="matrix(-1, 0, 0, 1, -2503.07, 0)" gradientUnits="userSpaceOnUse"><stop offset="0.35" stop-color="#837700"/><stop offset="1" stop-color="#fff"/></linearGradient><linearGradient id="Áåçûìÿííûé_ãðàäèåíò_306" x1="-2902.31" y1="363.08" x2="-2696.11" y2="363.08" gradientTransform="matrix(-1, 0, 0, 1, -2503.07, 0)" gradientUnits="userSpaceOnUse"><stop offset="0" stop-color="#fff"/><stop offset="0.65" stop-color="#837700"/></linearGradient><linearGradient id="Áåçûìÿííûé_ãðàäèåíò_306-2" x1="-2902.31" y1="346.2" x2="-2696.11" y2="346.2" xlink:href="#Áåçûìÿííûé_ãðàäèåíò_306"/><linearGradient id="Áåçûìÿííûé_ãðàäèåíò_306-3" x1="-2902.31" y1="353.26" x2="-2696.11" y2="353.26" xlink:href="#Áåçûìÿííûé_ãðàäèåíò_306"/></defs><g class="cls-1"><g id="Layer_2" data-name="Layer 2"><g id="_4" data-name="4"><rect class="cls-2" y="275.15" width="1920" height="959.29"/><path class="cls-3" d="M406.83,355.9C426.27,294.71,445,233.25,461,171.08L280.21,78.51l-44.52,66.84L201.81,45.06s-.24.95-31.43,64.68L138.7,6.81S100.38,90.54,99.44,96.13,83.57,33.66,82.64,34.6,55.56,85.88,55.56,85.88L26,0,0,60.82V372.39H258.08c45.75-6.34,91.73-11.23,137.66-15.49Z"/><path class="cls-4" d="M1562.15,361c1-6.67,2.67-13.22,4-19.83,1-10.8,1.66-21.68,2.24-32.46a284.52,284.52,0,0,0-1-48,75.61,75.61,0,0,1,10.38-38.31q5.94-7.69,11.89-15.37a59.26,59.26,0,0,1,7.86-7.11l-66.42-16.83-246.58,50.15-126,7.36-47.76-14.38-49.56,10.6L950.9,242.49,797.61,177.91S619,193.8,618.77,193.92l-7.19,2q-4.29,17.2-8.87,34.36c-10.59,39.75-22.23,79.2-34.37,118.49q9.1.34,18.19,1.08c30,2.46,59.65,7,88,17.17,5.15,1.85,10.32,3.64,15.5,5.41h781.84c4-.47,8-.81,11.91-1.22,8.47-.89,16.94-.07,25.42,0a74.53,74.53,0,0,1,13,1.23h38.07C1560.91,368.36,1561.62,364.49,1562.15,361Z"/><path class="cls-5" d="M1898.13,0l-23.46,157.65L1770.74,87.81l-91.72,106a57.24,57.24,0,0,1,18.19,13.23,57,57,0,0,1,15.72,24.43,57.06,57.06,0,0,1,6.54,29.25c2.68,23.23,1.36,46.6-.59,69.84-1.17,13.94-2.21,28-4.45,41.79H1920V13.08Z"/><path class="cls-6" d="M1433.23,385.48a158.36,158.36,0,0,1,20.08-9c9.57-3.66,20.53-4.23,30.51-5.28,8.47-.89,16.94-.07,25.42,0a74.35,74.35,0,0,1,23.18,3.84L1578,364,1540.11,207.6l-69.56-16.76-18.15,49.65-37.21-59s0,.62-10.11,46.26l-36.21-61s-11.57,59.51-11.3,63.24-19.83-37.54-20.29-36.8-9.39,37-9.39,37l-32.24-50.4L1287,231.26l-10.45-17.06-.91,19.79s-11.48-18.7-11.19-17.51-3.29,20.38-3.29,20.38l-3,9.22L1250,201s-7.08,28.24-6.94,28.83.31,13.83.31,13.83l-30.13-14.21,4,26.84L1209,293l-3.34,20.86,19.65,81.24c20.93-.86,41.87-2.17,62.74-2.53,35.29-.61,70.59-.64,105.88-.64C1407.56,392,1420.46,389,1433.23,385.48Z"/><path class="cls-7" d="M1802.85,144.79l-61.52,18.93-558.24,97.47L1142.66,281l-15.08,0-297.84-32.5L760,334.77,749.89,357.6l-65.21,12.95q29.8,10.33,60.2,18.83L1000.36,378l1.38-.06,918.26-41v-236Z"/><polygon class="cls-8" points="1142.66 280.99 808.91 335.62 797.61 329.97 829.74 248.47 1142.66 280.99"/><polygon class="cls-9" points="1183.09 261.19 1097.87 322.89 1139.59 334.52 1264.77 332.44 1395.23 246.82 1294.92 322.12 1386.47 318.1 1741.33 163.72 1183.09 261.19"/><polygon class="cls-10" points="1660.05 215.79 1793.65 147.62 1920 100.67 1920 119.13 1874.67 157.65 1507.71 315.99 1660.05 215.79"/><polygon class="cls-4" points="1920 213.5 1920 268.06 1603.32 318.87 1920 213.5"/><polygon class="cls-11" points="1146.32 279.2 1183.09 261.19 1741.33 163.72 1440.53 251.35 1146.32 279.2"/><polygon class="cls-12" points="1127.58 280.97 837.76 278.3 749.89 357.6 760 334.77 829.74 248.47 1127.58 280.97"/><path class="cls-13" d="M395.74,356.9c31.23-2.89,62.52-5.16,93.78-5.57,32.31-2.67,64.7-4.18,97-1.52,23.43,1.92,46.6,5.11,69.13,11.25h686.42s-264-34.16-610.22-103c0,0-75-55.64-98.91-78.83,0,0-27.49-14.06-27.92-13.91L0,89.64V361.06H353.15Q374.43,358.87,395.74,356.9Z"/><path class="cls-14" d="M499.74,231.52,633,179.19s31.79,27.13,42.53,35.69C689.47,226,731.86,258,731.86,258l-207,69.88Z"/><path class="cls-15" d="M1049.39,381.86q10.59,1.63,21,2.68C1063.4,383.55,1056.41,382.64,1049.39,381.86Z"/><path class="cls-16" d="M619.93,295.81s232.78,28.11,372.77,72.82a360.85,360.85,0,0,0,35.5,9.36c23.36,1.14,46.63,4.74,69.91,8.43,96.35,3.44,172.18-25.36,172.18-25.36S968.71,345.16,693.54,271L592.7,195S225.12,146.19,0,109.44v7.2c166.24,26.24,474,75.29,558.37,91.85L662.83,281.3s303.55,58.81,419,85.49L1018,361.06s-219.55-48.92-387.25-68.91L544.61,213.9,0,124.3v.32l529.62,95.16Z"/><path class="cls-17" d="M395.74,356.9c31.23-2.89,62.52-5.16,93.78-5.57,32.31-2.67,64.7-4.18,97-1.52,23.43,1.92,46.6,5.11,69.13,11.25H978.34L524.87,327.9l-25.13-96.38L0,143.18V361.06H353.15Q374.43,358.87,395.74,356.9Z"/><path class="cls-18" d="M395.74,356.9c31.23-2.89,62.52-5.16,93.78-5.57,32.31-2.67,64.7-4.18,97-1.52,23.43,1.92,46.6,5.11,69.13,11.25H978.34L524.87,327.9l-25.13-96.38-22.1-3.91,80.73-64.92-57.43-8.05H384.48l-26.72,12L0,135.28V361.06H353.15Q374.43,358.87,395.74,356.9Z"/><path class="cls-19" d="M395.74,356.9c31.23-2.89,62.52-5.16,93.77-5.57q5.13-.42,10.26-.8l-185.89-51.6L469.8,271,304.71,291.13l139.53-27.81L297.53,286.17,270,239.47l-270-56v4.16c91.84,18.16,212,42.87,232.92,51.87C255.21,249,108.09,233.2,0,220.64v60.64l339.67,81.19Q367.71,359.47,395.74,356.9Z"/><path class="cls-19" d="M395.74,356.9q12.86-1.18,25.71-2.21L297.53,300.26l-28.71-36.94L0,240.33V366.79H301.47C332.86,363,364.31,359.81,395.74,356.9Z"/><path class="cls-20" d="M262.83,371.73,162.49,346.28,280.21,316,151.74,336.84,0,320.14v68.37l255.26-15.74Z"/><path class="cls-21" d="M375.29,361.6l-2.16-.52q-16.53,1.82-32.92,3.69l-2.64.3C350.13,363.8,362.71,362.67,375.29,361.6Z"/><path class="cls-22" d="M367.09,359.65,233.89,327.9l-10.17,2.61,97.43,34Q344.12,361.91,367.09,359.65Z"/><path class="cls-23" d="M301.84,366.75l-95.08-31.87L193,338.41l70.44,33.23Q282.64,369,301.84,366.75Z"/><polygon class="cls-19" points="0 259.66 179.59 278.63 229.78 324.16 218.14 326.05 162.49 281.57 0 268.64 0 259.66"/><polygon class="cls-19" points="0 278.32 143.3 284.87 195.02 327.9 197.55 329.4 184.79 331.47 131.82 286.84 0 281.92 0 278.32"/><path class="cls-24" d="M1877.27,434.93c14.82-.59,29.12-1.17,42.73-1.73V407.72l-92.63,1.68C1844.3,417.2,1860.69,426.29,1877.27,434.93Z"/><path class="cls-25" d="M0,330.35v82.28c63.62-5.31,126.33-18.43,189.13-29.48,68.33-12,137.54-19.85,206.61-26.25,31.23-2.89,62.52-5.16,93.78-5.57,32.31-2.67,64.7-4.18,97-1.52l1.5.13c1.83.15,3.66.31,5.48.48l.18,0,5.3.52.39.05c1.7.17,3.39.36,5.08.55l.6.07,4.87.59.78.11c1.56.2,3.12.4,4.67.62l1,.15,4.44.65,1.2.2c1.42.22,2.83.45,4.25.69l1.38.24c1.35.23,2.7.47,4,.72l1.61.31q1.91.36,3.81.75l1.8.38,3.6.76,2.05.48c1.11.25,2.23.5,3.34.77l2.26.57c1,.26,2.07.51,3.11.79l2.51.68c1,.26,1.9.51,2.84.78s1.88.56,2.82.84,1.68.48,2.51.74c1.11.34,2.21.7,3.31,1.06l2,.64q2.65.89,5.29,1.83Q714.73,381.4,756,392.44c4.69,1.27,9.39,2.49,14.09,3.69q7.27,1.1,14.6,2c2.82.34,5.65.65,8.47.93l1.44.15a382.22,382.22,0,0,0,85-.94c23.57-3,46.7-8.41,70-13l.49-.1,5.14-1,1.41-.27,4.54-.85,1.87-.34,4.26-.74,2.09-.36,4.37-.7,1.95-.31q3.15-.48,6.31-.91,2.79-.37,5.6-.67l1.59-.16c1.46-.15,2.93-.28,4.39-.4l1.34-.11q2.77-.21,5.55-.36l1.14-.05c1.51-.07,3-.12,4.55-.17l1.58,0c1.67,0,3.33-.06,5-.07h.6c1.86,0,3.72,0,5.59.05l1.45,0c1.47,0,2.94.07,4.41.13l1.39.05c1.86.08,3.72.17,5.58.28l.68.05c1.66.1,3.31.21,5,.33l1.49.12c1.61.12,3.22.26,4.82.41l.8.07q2.82.25,5.66.56l1.14.12c1.57.17,3.13.34,4.7.53l1.23.14q5.73.69,11.46,1.48l1.06.14,5.29.75.41.06c13.17,1.92,26.33,4.1,39.5,6.13l2.13.33,3,.45,2.81.41c19.3,2.85,38.63,5.17,58.05,5.58,35.6.76,71.49-2.61,107.12-3.23,35.29-.61,70.59-.64,105.88-.64,13.64,0,26.54-3,39.31-6.48a158.36,158.36,0,0,1,20.08-9l1.28-.46,1.74-.58h0l1.77-.52h0c.59-.16,1.19-.32,1.79-.46h0c7.82-1.91,16.16-2.44,23.91-3.26,8.47-.89,16.94-.07,25.42,0,1,0,2,0,3,.08l1,.06c.62,0,1.24.08,1.86.14.43,0,.86.07,1.28.12s1,.11,1.57.18l1.41.18,1.35.21,1.53.26.79.16c1.19.23,2.38.49,3.55.78l.87.21,1.65.46c1.6.45,3.19.94,4.76,1.5,1.28,0,2.56.08,3.84.1,16.94.3,33.68,1,50.54,2.88l9.21,1.06a58.09,58.09,0,0,1,23.37,2.48c.47.16.93.34,1.4.51,8.17,1,16.34,1.91,24.52,2.72h0l.2,0,2.33.22,5.29.49,2.39.2q3.46.3,6.94.54l2,.14,6.27.39,1.38.07q3.67.19,7.36.31l1.8.06c2.55.07,5.1.13,7.65.15,31.86.27,64.55-1.53,95.71,6.44,1.57.4,3.12.83,4.68,1.27l1.17.33c1.49.44,3,.88,4.47,1.35l.14,0c1.55.49,3.1,1,4.64,1.53l1,.35c1.5.53,3,1.06,4.49,1.61l.06,0q2.36.89,4.7,1.8l.74.3q4.59,1.81,9.11,3.8c15.2,6.66,29.9,14.5,44.62,22.29l3.82,2,.87.46c7.09,3.74,14.19,7.43,21.37,10.94h0c9.16,4.48,18.43,8.67,28,12.26V329.42Z"/><path class="cls-26" d="M1395.09,330.6l-42.42,0L1190,330.5h-20.3l-50.16,0h-.9L395,330.12l-39.12,0L0,330.9v40.56l278.63-1.83c39-5,78.05-9.11,117.11-12.73q11.47-1.06,22.95-2l-21.48-.39-60.4-1.12h-1l-1,0-4.35-.08-10.81-.2,10.86-.14,4.26-.05h1.92l60.82-.77L495,350.89c30.24-2.37,60.56-3.56,90.8-1.14l324.67-4.08,1.31,0,45.66-.57,140.35-1.77,16.79-.21,1.5,0,1.55,0,3.2,0,47.81-.6,4.43-.06,6.22-.08,10.44-.12,146.41-1.85,11.65-.14,36.78-.46,18.23-.23L1920,333v-2.12Z"/><path class="cls-19" d="M162,332.91,90.54,335l-13.37.39-14.84.44s-2.56-3.65-1.14-4.41c1.61-.86,14.22-2,18.21-1.62.25,0,.5.07.74.12a7.53,7.53,0,0,1,5.44,4.87,5.2,5.2,0,0,1,.91-2.91,5.26,5.26,0,0,1,3.56-2c5.64-1,47.77-6.6,62.58-5.3C172.1,326.28,162,332.91,162,332.91Z"/><path class="cls-27" d="M77.17,335.41c1-.79,3-2.8,3-5.47a7.53,7.53,0,0,1,5.44,4.87,5.2,5.2,0,0,1,.91-2.91c.42,1.38,2.29,2.41,4.05,3.12Z"/><path class="cls-28" d="M0,93.19V89.67c187.28,23.43,605,75.61,605,75.61L633,179.19,731.86,258l276.76,51.3L677.43,284.14,708.59,263l-89.82-69.05-74.16,20,30-25.75S180.89,123.06,0,93.19Z"/><polygon class="cls-29" points="1613.4 310.8 1623.3 311.51 1664.31 267.72 1711.69 277.61 1817.06 265.46 1847.46 279.73 1855.91 266.71 1920 257.83 1920 341.3 1908.99 343.88 1884.79 341.86 1778.16 375.77 1742.81 364.48 1625.42 379.66 1578.75 364.48 1613.4 310.8"/><polygon class="cls-30" points="1617.64 317.69 1666.43 317.16 1691.89 283.96 1720.18 283.96 1736.44 322.81 1767.56 326.34 1786.65 292.44 1851.71 283.96 1904.04 305.15 1856.66 275.49 1912.52 283.96 1920 271.87 1920 341.3 1908.99 343.88 1884.79 341.86 1778.16 375.77 1742.81 364.48 1625.42 379.66 1662.19 322.81 1617.64 317.69"/><polygon class="cls-31" points="1613.4 310.8 1623.3 311.51 1664.31 267.72 1711.69 277.61 1817.06 265.46 1847.46 279.73 1855.91 266.71 1920 257.83 1920 271.87 1918.15 274.85 1860.55 270.55 1856.66 275.49 1884.16 292.71 1851.71 283.96 1812.81 270.55 1743.51 280.79 1786.65 292.44 1767.56 326.34 1720.18 283.96 1716.64 280.79 1685.53 280.79 1624.71 313.63 1617.64 317.69 1662.19 322.81 1610.57 324.57 1578.75 364.48 1613.4 310.8"/><polygon class="cls-32" points="1674.32 367.59 1709.14 310.49 1709.14 337.92 1736.44 322.81 1767.56 326.34 1779.04 367.59 1862.31 300.27 1881.41 320.34 1904.04 305.15 1908.99 343.88 1884.79 341.86 1859.79 310.49 1778.16 375.77 1742.81 364.48 1708.05 360.3 1674.32 367.59"/><path class="cls-33" d="M1453.31,376.45c8.84-3.38,18.86-4.12,28.21-5V360.3l73.54-8.59L1536,325.52l-3.54-25.25h-70.71l-48.09,21.9L1400.9,360.3,1436,384A171.21,171.21,0,0,1,1453.31,376.45Z"/><path class="cls-34" d="M1443.26,380.56c3.17-1.4,6.49-2.75,10-4.11,8.84-3.38,18.86-4.12,28.21-5V360.3l73.54-8.59L1536,325.52l-3.54-25.25-9.19,25.65-34.65,12.49,4.24-16.24h-24.75l-12.73,21.71-31.82-18,28.29,25.79Z"/><polygon class="cls-35" points="1400.9 360.3 1417.52 328.46 1451.82 351.71 1423.53 325.92 1459.95 306.92 1467.02 318.08 1493.89 315.73 1489.29 303.74 1523.24 325.92 1532.43 300.27 1461.72 300.27 1413.63 322.17 1400.9 360.3"/><polygon class="cls-30" points="1481.52 360.3 1488.59 338.41 1549.26 349.36 1481.52 360.3"/></g></g></g></svg>