<svg xmlns="http://www.w3.org/2000/svg" xmlns:xlink="http://www.w3.org/1999/xlink" viewBox="0 0 1920 1364.94"><defs><style>.cls-1{fill:none;clip-rule:evenodd;}.cls-2{isolation:isolate;}.cls-10,.cls-100,.cls-101,.cls-102,.cls-103,.cls-104,.cls-105,.cls-106,.cls-107,.cls-108,.cls-109,.cls-110,.cls-111,.cls-114,.cls-115,.cls-116,.cls-117,.cls-118,.cls-119,.cls-12,.cls-120,.cls-121,.cls-122,.cls-123,.cls-124,.cls-125,.cls-126,.cls-127,.cls-128,.cls-129,.cls-13,.cls-130,.cls-131,.cls-132,.cls-133,.cls-134,.cls-135,.cls-136,.cls-137,.cls-138,.cls-139,.cls-14,.cls-140,.cls-141,.cls-142,.cls-143,.cls-144,.cls-145,.cls-147,.cls-148,.cls-149,.cls-15,.cls-150,.cls-151,.cls-152,.cls-153,.cls-154,.cls-155,.cls-16,.cls-17,.cls-18,.cls-19,.cls-21,.cls-22,.cls-23,.cls-24,.cls-25,.cls-26,.cls-27,.cls-28,.cls-29,.cls-3,.cls-30,.cls-31,.cls-32,.cls-33,.cls-34,.cls-35,.cls-36,.cls-37,.cls-39,.cls-4,.cls-40,.cls-41,.cls-42,.cls-43,.cls-44,.cls-45,.cls-46,.cls-47,.cls-48,.cls-49,.cls-5,.cls-50,.cls-51,.cls-52,.cls-53,.cls-54,.cls-55,.cls-56,.cls-57,.cls-58,.cls-59,.cls-6,.cls-62,.cls-63,.cls-64,.cls-65,.cls-66,.cls-67,.cls-68,.cls-69,.cls-7,.cls-70,.cls-71,.cls-72,.cls-73,.cls-74,.cls-75,.cls-76,.cls-77,.cls-78,.cls-79,.cls-8,.cls-80,.cls-82,.cls-83,.cls-84,.cls-85,.cls-86,.cls-88,.cls-89,.cls-9,.cls-90,.cls-91,.cls-92,.cls-93,.cls-94,.cls-95,.cls-96,.cls-97,.cls-98{fill-rule:evenodd;}.cls-3{fill:url(#linear-gradient);}.cls-4{fill:#2c1356;opacity:0.56;}.cls-5{fill:url(#linear-gradient-2);}.cls-6{fill:#643084;}.cls-7{fill:#472068;}.cls-8{fill:#472162;}.cls-9{fill:#5f2c80;}.cls-10{fill:#431d60;}.cls-11{opacity:0.57;}.cls-12{fill:#110b2d;}.cls-13{fill:#5c2c7d;}.cls-14{fill:url(#linear-gradient-3);}.cls-15{fill:url(#radial-gradient);}.cls-16{fill:#5b2c87;}.cls-17{fill:url(#linear-gradient-4);}.cls-18{fill:#43226b;}.cls-19{fill:#301150;}.cls-20,.cls-38{opacity:0.42;}.cls-20,.cls-41,.cls-81{mix-blend-mode:multiply;}.cls-21{fill:url(#Áåçûìÿííûé_ãðàäèåíò_297);}.cls-22{fill:url(#linear-gradient-5);}.cls-23{fill:#2d0f4c;}.cls-24{fill:#4d267a;}.cls-25{fill:#3f216b;}.cls-26{fill:#4f267c;}.cls-27{fill:#10092b;}.cls-28{fill:#381756;}.cls-29{fill:#3c1b5e;}.cls-30{fill:#412163;}.cls-31{fill:#2c124b;}.cls-32{fill:#37165d;}.cls-33{fill:#5c2c7f;}.cls-34{fill:#4e2674;}.cls-35{fill:#462470;}.cls-36{fill:#1a1345;}.cls-37{fill:url(#linear-gradient-6);}.cls-39{fill:url(#linear-gradient-7);}.cls-40{fill:#0c071f;}.cls-41{fill:url(#Áåçûìÿííûé_ãðàäèåíò_297-2);}.cls-42{fill:#603080;}.cls-43{fill:url(#linear-gradient-8);}.cls-44{fill:url(#linear-gradient-9);}.cls-45{fill:url(#linear-gradient-10);}.cls-46{fill:url(#linear-gradient-11);}.cls-47{fill:url(#linear-gradient-12);}.cls-48{fill:url(#linear-gradient-13);}.cls-49{fill:url(#linear-gradient-14);}.cls-50{fill:url(#radial-gradient-2);}.cls-51{fill:url(#linear-gradient-15);}.cls-52{fill:url(#linear-gradient-16);}.cls-53{fill:url(#linear-gradient-17);}.cls-54{fill:url(#linear-gradient-18);}.cls-55{fill:url(#linear-gradient-19);}.cls-56{fill:url(#linear-gradient-20);}.cls-57{fill:url(#linear-gradient-21);}.cls-58{fill:url(#linear-gradient-22);}.cls-59{fill:url(#linear-gradient-23);}.cls-60{fill:url(#linear-gradient-24);}.cls-61{fill:#6a3383;}.cls-62{fill:url(#linear-gradient-25);}.cls-63{fill:#4e266b;}.cls-64{fill:#55276c;}.cls-65{fill:#693283;}.cls-66{fill:#46215b;}.cls-67{fill:#3d1c61;}.cls-68{fill:#8b4290;}.cls-69{fill:#633082;}.cls-70{fill:url(#linear-gradient-26);}.cls-71{fill:#3d1b5e;}.cls-72{fill:#2e124c;}.cls-73{fill:#240f3f;}.cls-74{fill:#321752;}.cls-75{fill:#2c1045;}.cls-76{fill:#542a7f;}.cls-77{fill:#361358;}.cls-78{fill:#211853;}.cls-79{fill:#241b59;}.cls-80{fill:#512a7a;}.cls-82{fill:url(#Áåçûìÿííûé_ãðàäèåíò_297-3);}.cls-83{fill:#331b59;}.cls-84{fill:#331b5a;}.cls-85{fill:#351758;}.cls-86{fill:#1f174e;}.cls-87{opacity:0.35;}.cls-88{fill:url(#linear-gradient-27);}.cls-89{fill:#43266a;}.cls-90{fill:#4c2570;}.cls-91{fill:#482670;}.cls-92{fill:#47246e;}.cls-93{fill:#522975;}.cls-94{fill:url(#radial-gradient-3);}.cls-95{fill:url(#linear-gradient-28);}.cls-96{fill:url(#linear-gradient-29);}.cls-97{fill:url(#linear-gradient-30);}.cls-98{fill:url(#linear-gradient-31);}.cls-99{opacity:0.5;}.cls-100{fill:url(#linear-gradient-32);}.cls-101{fill:url(#linear-gradient-33);}.cls-102{fill:url(#linear-gradient-34);}.cls-103{fill:url(#linear-gradient-35);}.cls-104{fill:url(#linear-gradient-36);}.cls-105{fill:url(#linear-gradient-37);}.cls-106{fill:url(#linear-gradient-38);}.cls-107{fill:url(#linear-gradient-39);}.cls-108{fill:#572e85;}.cls-109{fill:url(#linear-gradient-40);}.cls-110{fill:url(#linear-gradient-41);}.cls-111{fill:#462167;}.cls-112{opacity:0.25;}.cls-113{fill:#f4ae85;}.cls-114{fill:#46245f;}.cls-115{fill:#3b1d58;}.cls-116{fill:#321454;}.cls-117{fill:#391a5e;}.cls-118{fill:#2a0f44;}.cls-119{fill:#6e3789;}.cls-120{fill:#723988;}.cls-121{fill:#5b2e83;}.cls-122{fill:#351753;}.cls-123{fill:#220b3c;}.cls-124{fill:url(#linear-gradient-42);}.cls-125{fill:#5f2e7c;}.cls-126{fill:#61307f;}.cls-127{fill:#402066;}.cls-128{fill:#402067;}.cls-129{fill:#45246a;}.cls-130{fill:#4c2475;}.cls-131{fill:#371a5a;}.cls-132{fill:#290c43;}.cls-133{fill:#6a3587;}.cls-134{fill:#6e388b;}.cls-135{fill:url(#linear-gradient-43);}.cls-136{fill:url(#linear-gradient-44);}.cls-137{fill:url(#linear-gradient-45);}.cls-138{fill:url(#linear-gradient-46);}.cls-139{fill:url(#linear-gradient-47);}.cls-140{fill:url(#linear-gradient-48);}.cls-141{fill:url(#linear-gradient-49);}.cls-142{fill:url(#linear-gradient-50);}.cls-143{fill:url(#linear-gradient-51);}.cls-144{fill:url(#linear-gradient-52);}.cls-145{fill:url(#linear-gradient-53);}.cls-146{clip-path:url(#clip-path);}.cls-147{fill:url(#linear-gradient-54);}.cls-148{fill:url(#linear-gradient-55);}.cls-149{fill:url(#linear-gradient-56);}.cls-150{fill:url(#linear-gradient-57);}.cls-151{fill:url(#linear-gradient-58);}.cls-152{fill:url(#linear-gradient-59);}.cls-153{fill:url(#linear-gradient-60);}.cls-154{fill:url(#linear-gradient-61);}.cls-155{fill:url(#linear-gradient-62);}</style><linearGradient id="linear-gradient" x1="960" y1="765.05" x2="960" y2="536.61" gradientUnits="userSpaceOnUse"><stop offset="0.03" stop-color="#2d1157"/><stop offset="0.2" stop-color="#31115b"/><stop offset="0.85" stop-color="#401a6f"/></linearGradient><linearGradient id="linear-gradient-2" x1="864.67" y1="228.1" x2="876.54" y2="11.94" gradientUnits="userSpaceOnUse"><stop offset="0" stop-color="#46216c"/><stop offset="0.41" stop-color="#4e2571"/><stop offset="0.54" stop-color="#522773"/><stop offset="1" stop-color="#5c2c7d"/></linearGradient><linearGradient id="linear-gradient-3" x1="803.36" y1="572.02" x2="950.74" y2="194.03" gradientUnits="userSpaceOnUse"><stop offset="0" stop-color="#351a5e"/><stop offset="0.33" stop-color="#3c1e66"/><stop offset="0.54" stop-color="#42226e"/><stop offset="1" stop-color="#562b7d"/></linearGradient><radialGradient id="radial-gradient" cx="1106.5" cy="177.15" r="331.85" gradientUnits="userSpaceOnUse"><stop offset="0" stop-color="#932d5b"/><stop offset="0.1" stop-color="#872b5e" stop-opacity="0.84"/><stop offset="0.3" stop-color="#682767" stop-opacity="0.45"/><stop offset="0.5" stop-color="#452370" stop-opacity="0"/></radialGradient><linearGradient id="linear-gradient-4" x1="715.64" y1="272.86" x2="1171.03" y2="108.59" gradientUnits="userSpaceOnUse"><stop offset="0.27" stop-color="#4a2447" stop-opacity="0"/><stop offset="0.34" stop-color="#562b4a" stop-opacity="0.14"/><stop offset="0.6" stop-color="#854457" stop-opacity="0.69"/><stop offset="0.72" stop-color="#984e5c" stop-opacity="0.91"/><stop offset="0.82" stop-color="#ab6067" stop-opacity="0.96"/><stop offset="0.92" stop-color="#bc7070"/></linearGradient><linearGradient id="Áåçûìÿííûé_ãðàäèåíò_297" x1="321.12" y1="875.66" x2="321.12" y2="495.75" gradientTransform="translate(198.34 -297.47) rotate(-2.05)" gradientUnits="userSpaceOnUse"><stop offset="0.01" stop-color="#fcddd8"/><stop offset="0.22" stop-color="#ebcfce"/><stop offset="0.63" stop-color="#beaab4"/><stop offset="0.99" stop-color="#92869a"/></linearGradient><linearGradient id="linear-gradient-5" x1="941.42" y1="547.49" x2="1081.72" y2="373.53" gradientUnits="userSpaceOnUse"><stop offset="0.08" stop-color="#321555"/><stop offset="0.7" stop-color="#3a1c5d"/><stop offset="1" stop-color="#402162"/></linearGradient><linearGradient id="linear-gradient-6" x1="807.93" y1="392.71" x2="1084.84" y2="368.23" gradientUnits="userSpaceOnUse"><stop offset="0.01" stop-color="#753a84" stop-opacity="0"/><stop offset="0.02" stop-color="#753a84" stop-opacity="0.02"/><stop offset="0.43" stop-color="#793b83" stop-opacity="0.66"/><stop offset="0.62" stop-color="#7a3b83" stop-opacity="0.91"/><stop offset="0.92" stop-color="#84447c"/></linearGradient><linearGradient id="linear-gradient-7" x1="2359.28" y1="-2571.62" x2="2632.82" y2="-2571.62" gradientTransform="matrix(0.96, 0.29, -0.29, 0.96, -2083.15, 2114.51)" gradientUnits="userSpaceOnUse"><stop offset="0.01" stop-color="#301c45"/><stop offset="0.22" stop-color="#402d53"/><stop offset="0.63" stop-color="#6a5a77"/><stop offset="0.99" stop-color="#92869a"/></linearGradient><linearGradient id="Áåçûìÿííûé_ãðàäèåíò_297-2" x1="490.12" y1="512.22" x2="708.77" y2="512.22" gradientTransform="matrix(1, 0, 0, 1, 0, 0)" xlink:href="#Áåçûìÿííûé_ãðàäèåíò_297"/><linearGradient id="linear-gradient-8" x1="847.83" y1="131.45" x2="856.23" y2="402.73" gradientUnits="userSpaceOnUse"><stop offset="0.08" stop-color="#492479"/><stop offset="1" stop-color="#512979"/></linearGradient><linearGradient id="linear-gradient-9" x1="577.17" y1="-25.44" x2="1213.69" y2="347.53" gradientUnits="userSpaceOnUse"><stop offset="0.01" stop-color="#4a2447" stop-opacity="0"/><stop offset="0.1" stop-color="#562b4a" stop-opacity="0.14"/><stop offset="0.46" stop-color="#854457" stop-opacity="0.69"/><stop offset="0.62" stop-color="#984e5c" stop-opacity="0.91"/><stop offset="0.77" stop-color="#ab6067" stop-opacity="0.96"/><stop offset="0.92" stop-color="#bc7070"/></linearGradient><linearGradient id="linear-gradient-10" x1="622.64" y1="-103.05" x2="1259.17" y2="269.91" xlink:href="#linear-gradient-9"/><linearGradient id="linear-gradient-11" x1="515.72" y1="79.43" x2="1152.25" y2="452.39" xlink:href="#linear-gradient-9"/><linearGradient id="linear-gradient-12" x1="525.61" y1="62.55" x2="1162.14" y2="435.51" xlink:href="#linear-gradient-9"/><linearGradient id="linear-gradient-13" x1="516.05" y1="78.87" x2="1152.58" y2="451.83" xlink:href="#linear-gradient-9"/><linearGradient id="linear-gradient-14" x1="632.39" y1="-119.68" x2="1268.91" y2="253.28" xlink:href="#linear-gradient-9"/><radialGradient id="radial-gradient-2" cx="652.49" cy="151.44" fx="659.5316189455111" fy="164.20071718978352" r="166.4" gradientTransform="matrix(0.9, 0.44, -0.73, 1.49, 177.57, -361.58)" gradientUnits="userSpaceOnUse"><stop offset="0" stop-color="#932d5b"/><stop offset="0.14" stop-color="#872b5e" stop-opacity="0.84"/><stop offset="0.45" stop-color="#682767" stop-opacity="0.45"/><stop offset="0.75" stop-color="#452370" stop-opacity="0"/></radialGradient><linearGradient id="linear-gradient-15" x1="1024.81" y1="321.43" x2="1100.41" y2="279.25" gradientUnits="userSpaceOnUse"><stop offset="0.25" stop-color="#1c0f30" stop-opacity="0"/><stop offset="0.29" stop-color="#1f1133" stop-opacity="0.07"/><stop offset="0.72" stop-color="#3b204d" stop-opacity="0.74"/><stop offset="0.92" stop-color="#462657"/></linearGradient><linearGradient id="linear-gradient-16" x1="682.33" y1="69.73" x2="885.06" y2="-13.95" gradientUnits="userSpaceOnUse"><stop offset="0.27" stop-color="#4a2447" stop-opacity="0"/><stop offset="0.34" stop-color="#562b4a" stop-opacity="0.14"/><stop offset="0.6" stop-color="#854457" stop-opacity="0.69"/><stop offset="0.72" stop-color="#984e5c" stop-opacity="0.91"/><stop offset="0.76" stop-color="#aa5c62" stop-opacity="0.93"/><stop offset="0.87" stop-color="#dc8474" stop-opacity="0.98"/><stop offset="0.92" stop-color="#f0947b"/></linearGradient><linearGradient id="linear-gradient-17" x1="1253.2" y1="605.92" x2="1215.61" y2="364.3" xlink:href="#linear-gradient-4"/><linearGradient id="linear-gradient-18" x1="1086.68" y1="447.18" x2="1149.72" y2="379.78" xlink:href="#linear-gradient-4"/><linearGradient id="linear-gradient-19" x1="997" y1="286.8" x2="1057.95" y2="257.28" gradientUnits="userSpaceOnUse"><stop offset="0.01" stop-color="#753a84" stop-opacity="0"/><stop offset="0.2" stop-color="#8d4e7e" stop-opacity="0.3"/><stop offset="0.49" stop-color="#b16c75" stop-opacity="0.74"/><stop offset="0.62" stop-color="#bf7871" stop-opacity="0.91"/><stop offset="0.81" stop-color="#d5a08f" stop-opacity="0.97"/><stop offset="0.92" stop-color="#e0b39d"/></linearGradient><linearGradient id="linear-gradient-20" x1="973.16" y1="328.93" x2="1140.05" y2="268.75" xlink:href="#linear-gradient-4"/><linearGradient id="linear-gradient-21" x1="1003.56" y1="222.96" x2="1062.1" y2="215.74" xlink:href="#linear-gradient-4"/><linearGradient id="linear-gradient-22" x1="848.19" y1="163.85" x2="979.26" y2="133.16" xlink:href="#linear-gradient-16"/><linearGradient id="linear-gradient-23" x1="857.94" y1="79.96" x2="944.3" y2="85.33" xlink:href="#linear-gradient-16"/><linearGradient id="linear-gradient-24" x1="459.07" y1="198.94" x2="419.1" y2="48.74" gradientUnits="userSpaceOnUse"><stop offset="0.01" stop-color="#40216b"/><stop offset="0.25" stop-color="#4a2670"/><stop offset="0.67" stop-color="#66337e"/><stop offset="1" stop-color="#80408b"/></linearGradient><linearGradient id="linear-gradient-25" x1="505.76" y1="347.09" x2="564.43" y2="127.4" gradientUnits="userSpaceOnUse"><stop offset="0.01" stop-color="#401f67"/><stop offset="0.25" stop-color="#4a246d"/><stop offset="0.67" stop-color="#66337c"/><stop offset="1" stop-color="#80408b"/></linearGradient><linearGradient id="linear-gradient-26" x1="513.42" y1="658.14" x2="513.42" y2="317.77" gradientUnits="userSpaceOnUse"><stop offset="0.08" stop-color="#301850"/><stop offset="0.39" stop-color="#381c58"/><stop offset="0.88" stop-color="#4d266e"/><stop offset="1" stop-color="#532975"/></linearGradient><linearGradient id="Áåçûìÿííûé_ãðàäèåíò_297-3" x1="836.13" y1="728.74" x2="820.42" y2="434.96" gradientTransform="matrix(1, 0, 0, 1, 0, 0)" xlink:href="#Áåçûìÿííûé_ãðàäèåíò_297"/><linearGradient id="linear-gradient-27" x1="525.02" y1="387.81" x2="702.81" y2="387.81" gradientUnits="userSpaceOnUse"><stop offset="0.01" stop-color="#100a2b"/><stop offset="0.36" stop-color="#150e35"/><stop offset="0.92" stop-color="#23184f"/></linearGradient><radialGradient id="radial-gradient-3" cx="579.92" cy="112.85" r="368.45" gradientUnits="userSpaceOnUse"><stop offset="0" stop-color="#462657"/><stop offset="0.23" stop-color="#3b204d" stop-opacity="0.74"/><stop offset="0.71" stop-color="#1f1133" stop-opacity="0.07"/><stop offset="0.75" stop-color="#1c0f30" stop-opacity="0"/></radialGradient><linearGradient id="linear-gradient-28" x1="830.36" y1="498.77" x2="447.66" y2="103.68" xlink:href="#linear-gradient-4"/><linearGradient id="linear-gradient-29" x1="779.91" y1="547.64" x2="397.21" y2="152.54" xlink:href="#linear-gradient-4"/><linearGradient id="linear-gradient-30" x1="852.73" y1="477.11" x2="470.02" y2="82.01" xlink:href="#linear-gradient-4"/><linearGradient id="linear-gradient-31" x1="411.39" y1="319.18" x2="543.53" y2="293.67" xlink:href="#linear-gradient-6"/><linearGradient id="linear-gradient-32" x1="536" y1="327.41" x2="582.09" y2="275.42" gradientUnits="userSpaceOnUse"><stop offset="0.01" stop-color="#713983" stop-opacity="0"/><stop offset="0.1" stop-color="#773c7d" stop-opacity="0.14"/><stop offset="0.46" stop-color="#8f4965" stop-opacity="0.69"/><stop offset="0.62" stop-color="#984e5c" stop-opacity="0.91"/><stop offset="0.77" stop-color="#ab6067" stop-opacity="0.96"/><stop offset="0.92" stop-color="#bc7070"/></linearGradient><linearGradient id="linear-gradient-33" x1="364.89" y1="160.6" x2="442.79" y2="138.06" xlink:href="#linear-gradient-9"/><linearGradient id="linear-gradient-34" x1="555.89" y1="273.73" x2="726.99" y2="190.87" xlink:href="#linear-gradient-9"/><linearGradient id="linear-gradient-35" x1="476.42" y1="178.79" x2="688.86" y2="185.92" xlink:href="#linear-gradient-9"/><linearGradient id="linear-gradient-36" x1="407.04" y1="130.31" x2="506.15" y2="117.26" xlink:href="#linear-gradient-9"/><linearGradient id="linear-gradient-37" x1="400.36" y1="413.8" x2="734.84" y2="389.91" xlink:href="#linear-gradient-6"/><linearGradient id="linear-gradient-38" x1="684.27" y1="398.17" x2="711.91" y2="398.17" xlink:href="#linear-gradient-32"/><linearGradient id="linear-gradient-39" x1="1606.99" y1="520.13" x2="1388" y2="390.26" gradientUnits="userSpaceOnUse"><stop offset="0" stop-color="#46206f"/><stop offset="1" stop-color="#703787"/></linearGradient><linearGradient id="linear-gradient-40" x1="1527.92" y1="554.61" x2="1576.92" y2="340.37" gradientUnits="userSpaceOnUse"><stop offset="0.36" stop-color="#381b56"/><stop offset="0.69" stop-color="#401f5e"/><stop offset="1" stop-color="#4c256b"/></linearGradient><linearGradient id="linear-gradient-41" x1="1479.01" y1="505.6" x2="1459.74" y2="373.11" gradientUnits="userSpaceOnUse"><stop offset="0.01" stop-color="#391858"/><stop offset="0.77" stop-color="#432161"/><stop offset="0.92" stop-color="#462363"/></linearGradient><linearGradient id="linear-gradient-42" x1="1481.67" y1="486.6" x2="1758.93" y2="444.42" gradientUnits="userSpaceOnUse"><stop offset="0.01" stop-color="#2e1152"/><stop offset="0.99" stop-color="#3a175c"/></linearGradient><linearGradient id="linear-gradient-43" x1="1508.34" y1="513.51" x2="1283.26" y2="270" gradientUnits="userSpaceOnUse"><stop offset="0.01" stop-color="#1c0f30" stop-opacity="0"/><stop offset="0.06" stop-color="#1f1133" stop-opacity="0.07"/><stop offset="0.64" stop-color="#3b204d" stop-opacity="0.74"/><stop offset="0.92" stop-color="#462657"/></linearGradient><linearGradient id="linear-gradient-44" x1="1676.59" y1="260.51" x2="1585.03" y2="233.66" gradientUnits="userSpaceOnUse"><stop offset="0.01" stop-color="#4a2447" stop-opacity="0"/><stop offset="0.4" stop-color="#703851" stop-opacity="0.47"/><stop offset="0.75" stop-color="#8e495a" stop-opacity="0.85"/><stop offset="0.92" stop-color="#9a4f5d"/></linearGradient><linearGradient id="linear-gradient-45" x1="1677.03" y1="259.02" x2="1585.47" y2="232.18" gradientUnits="userSpaceOnUse"><stop offset="0.01" stop-color="#4a2447" stop-opacity="0"/><stop offset="0.18" stop-color="#6a3953" stop-opacity="0.21"/><stop offset="0.54" stop-color="#a86369" stop-opacity="0.63"/><stop offset="0.8" stop-color="#d07d77" stop-opacity="0.9"/><stop offset="0.92" stop-color="#df877d"/></linearGradient><linearGradient id="linear-gradient-46" x1="1639.75" y1="280.55" x2="1394.99" y2="142.2" xlink:href="#linear-gradient-44"/><linearGradient id="linear-gradient-47" x1="1535.37" y1="229.42" x2="1520.06" y2="213.83" xlink:href="#linear-gradient-44"/><linearGradient id="linear-gradient-48" x1="1561.05" y1="204.12" x2="1546.71" y2="189.52" xlink:href="#linear-gradient-45"/><linearGradient id="linear-gradient-49" x1="1523.01" y1="241.46" x2="1508.67" y2="226.86" xlink:href="#linear-gradient-45"/><linearGradient id="linear-gradient-50" x1="1584.26" y1="378.72" x2="1339.5" y2="240.38" xlink:href="#linear-gradient-44"/><linearGradient id="linear-gradient-51" x1="1439.07" y1="300.09" x2="1428.53" y2="291.27" xlink:href="#linear-gradient-44"/><linearGradient id="linear-gradient-52" x1="1439.56" y1="299.51" x2="1429.01" y2="290.69" xlink:href="#linear-gradient-45"/><linearGradient id="linear-gradient-53" x1="1414.3" y1="329.68" x2="1403.76" y2="320.86" xlink:href="#linear-gradient-44"/><clipPath id="clip-path"><polygon class="cls-1" points="1484.79 330.72 1517.72 347.47 1539.63 367.86 1514.96 374.41 1498.37 376.98 1482.46 370.67 1472.46 369.39 1465.14 376.64 1451.26 385.33 1418.34 388.2 1393.14 387.16 1391.68 383.43 1386.29 330.19 1410.86 314 1484.79 330.72 1484.79 330.72"/></clipPath><linearGradient id="linear-gradient-54" x1="1467.71" y1="396.76" x2="1326.29" y2="291.74" gradientUnits="userSpaceOnUse"><stop offset="0.01" stop-color="#5d2d70" stop-opacity="0"/><stop offset="0.3" stop-color="#643175" stop-opacity="0.36"/><stop offset="0.72" stop-color="#6d357b" stop-opacity="0.82"/><stop offset="0.92" stop-color="#70377e"/></linearGradient><linearGradient id="linear-gradient-55" x1="1459.47" y1="407.85" x2="1318.06" y2="302.83" xlink:href="#linear-gradient-44"/><linearGradient id="linear-gradient-56" x1="1516.5" y1="440.23" x2="1307.79" y2="407.7" xlink:href="#linear-gradient-54"/><linearGradient id="linear-gradient-57" x1="1518.72" y1="426" x2="1310" y2="393.47" xlink:href="#linear-gradient-44"/><linearGradient id="linear-gradient-58" x1="1449.16" y1="537.32" x2="1262.28" y2="431.69" xlink:href="#linear-gradient-43"/><linearGradient id="linear-gradient-59" x1="1402.42" y1="516.95" x2="1337.92" y2="471.91" xlink:href="#linear-gradient-54"/><linearGradient id="linear-gradient-60" x1="1357.44" y1="499.99" x2="1316.1" y2="452.95" xlink:href="#linear-gradient-44"/><linearGradient id="linear-gradient-61" x1="1470.36" y1="488.1" x2="1362.56" y2="435.2" gradientUnits="userSpaceOnUse"><stop offset="0.01" stop-color="#4a2447" stop-opacity="0"/><stop offset="0.46" stop-color="#804859" stop-opacity="0.53"/><stop offset="0.77" stop-color="#a25f64" stop-opacity="0.87"/><stop offset="0.92" stop-color="#af6868"/></linearGradient><linearGradient id="linear-gradient-62" x1="1470.18" y1="327.5" x2="1389.39" y2="321.51" xlink:href="#linear-gradient-61"/></defs><g class="cls-2"><g id="Layer_2" data-name="Layer 2"><g id="_5" data-name="5"><polygon class="cls-3" points="1920 1364.94 0 1364.94 0 585.87 868.84 463.96 1308.72 499.5 1920 585.87 1920 1364.94"/><path class="cls-4" d="M20.64,604.61l63.21,26.66,4.89,27.32s18.94,19.86,26.15,20.69,4.77,24,4.77,24l58.44,29,60.34,31.46s-6.18,52.34-7.94,54.63c-30.1,39.1,99.06-7.47,162.47-35.6,70.76-31.38,78.8-47.53,84.67-54.63L553,690l3.54-33.11,26.31,2.49,30,3.31L664,647.83l36.87-4.66L937.19,618s50.7-22.61,46.56-22.46l10-7.23,29.82-3.26,36.36-1.67s38-1.31,50.46.53,41.15,5,41.15,5l14.24,4.5,27.38,2.12,12.53.69c33.33,12.13,66.63,23,99.39,12l82,49.56,65.48,15.73c10.34,2.48,37.62-4.14,56-7.45s48.26-2.49,52.73,3.31,35.35,17.38,35.35,17.38l13.92,7.39s84,40.62,85.62,44.76,31.08-40.56,31.08-40.56L1749.37,671l8.87-22.32,15.59-10.16,17.82-18.84s20.95,2.48,30.74-4.23,23.38-19.36,23.38-19.36S1446.51,548.28,1436,550.46s-88.94-4.15-112.65-5.42S1347.82,521.83,1339,522c-2.11,0,11.37-20.59-30.33-22.37C1176.3,494,797.61,520.47,797.61,520.47L650.3,527.68,247.44,561l-86.73,12.71Z"/><path class="cls-5" d="M1049.7,247.25,1038.77,183l-4.33-5.13-63.29-27.29-8.53-23.13L945.74,110.6l-14.54-7.72c7.94-13.42,9.74-28.25,7.32-44L907.31,28.09,890.35,17l-37.94,5.54L784.13,0c-15.23,19.93-23.4,45.68-41.57,53.28l-4.21,4.4L728.8,83.94l-8.65,11.25-.9.43-8.72,17.19-4.91,97.29-29.08,51,1.28,35.73,33-14.68,245.64-25.7L962,242.42l86.67,27.64,1-22.81Z"/><path class="cls-6" d="M774.37,25.72c3.48,2,11,7.85,14.43,3.89,2.15-2.51,1.89-6.35,4.41-8.81a8.61,8.61,0,0,1,4.6-2.29c1.86-.3,4.32.69,6,.07s3-2.77,4.91-3.57a19.6,19.6,0,0,1,6.62-1.13,11.4,11.4,0,0,0,5.47-1.77L784.13,0c-5.62,7.35-10.27,15.49-14.82,23.21C771,24,772.72,24.8,774.37,25.72Z"/><polygon class="cls-7" points="829.14 113.9 782.31 109.47 769.55 119.52 747.56 129.31 777.88 139.8 816.37 140.07 873.7 95.79 829.14 113.9 829.14 113.9"/><polygon class="cls-8" points="841.38 118.33 854.53 114.42 873.7 95.79 829.14 113.9 804.82 114.44 841.38 118.33 841.38 118.33"/><polygon class="cls-9" points="931.88 103.89 914.98 108.83 886.39 128.85 860.13 138.67 840.85 154.45 877.98 154.01 920.01 142.49 934.55 130.13 957.12 123.71 959.28 122.06 945.74 110.6 931.88 103.89 931.88 103.89"/><polygon class="cls-10" points="877.14 147.16 910.33 126.4 957.13 123.7 959.28 122.06 945.74 110.6 931.88 103.89 914.98 108.83 886.39 128.85 860.13 138.67 840.85 154.45 855.56 155.68 877.14 147.16 877.14 147.16"/><polyline class="cls-10" points="972.04 170.46 985.49 158.79 974.01 158.54 961.77 162.25 929.7 182.02 930.01 181.98"/><g class="cls-11"><polygon class="cls-12" points="726.32 149.43 709.15 140.04 705.62 210.09 703.84 217.69 707.55 217.55 729.06 184.17 736.5 179.72 736.64 168.87 725.13 155.08 726.32 149.43 726.32 149.43"/></g><polygon class="cls-13" points="840.45 49.06 855.45 50.64 883.96 65.58 903.85 63.15 897.27 23.5 890.35 17.01 852.41 22.55 831.72 46.24 840.45 49.06 840.45 49.06"/><polygon class="cls-13" points="764.34 54.52 742.56 53.28 738.35 57.68 728.8 83.94 720.15 95.19 719.61 95.49 743.31 96.04 779.84 80.06 804.26 68.67 846.58 41.29 764.34 54.52 764.34 54.52"/><path class="cls-14" d="M1173.33,464.48l-11.92-9.07-.59-21.7-60.12-66.66-3.36-38.86-27.84-62.81-41.27-18.33-48-42.86-17.65-6.33c-8.28,1.59-16.59,3-25,4-15,1.74-2.44-5.72-17.56-4.92-7.34.38-18.62-7.26-25.89-6.06-6.83,1.13-18.33-16.06-23.67-12-4.36,3.34-29.27-15.28-34.9-15.08-5.14.18-28.41,28.73-33.23,27.05-11.56-4-.74,19.85-12.25,15.72a65.76,65.76,0,0,0-22-3.8l-11.34,3.64-2.14,3.21-20,15.54-17.38,7.16-81.2,81.4-5,33.73-16,8.66L596.68,396l-51.06,18.3L532.8,430.8l-74.54,40-7.58,13.69L341.42,533.19l59-1.32.38,1.2,550.65,6.85,35.78-27.77,320.68-10.53.84-2.12Z"/><path class="cls-15" d="M1038.77,183l-4.33-5.13-63.29-27.29-.17-.45a83.73,83.73,0,0,0-2.14,12.76,39.87,39.87,0,0,0,3.7,20.09c3.15,6.64,6.73,13,9.53,19.83q.95,2.31,1.77,4.66l44.39,39.61,21.07,9.35.4-9.15Z"/><path class="cls-16" d="M848.85,197.42c-6.91-.41-12.41,2.81-18.52,5.62-4.46,2.05-9,3.66-13.83,3.23l-.23,1.31,11.34,28.26,26.07-38C852.07,197.67,850.46,197.52,848.85,197.42Z"/><path class="cls-16" d="M806.42,199.21c2.14,3.24,4.17,6.94,7.23,9.43,4.05,3.28,9.21,2.62,13.9,1.05,9.17-3.07,16.14-10.35,26.05-11.58,12-1.49,23.35,5.47,34.26,9.37,11.58,4.14,23.12,5.69,35.09,8.05,6.73,1.33,13.9,4.25,20.84,3.45,5.86-.66,10.68-2.51,16.7-1.63,5.46.8,10.41,3.2,15.36,5.5a100.48,100.48,0,0,0,17.48,6.23,105.22,105.22,0,0,0,18.13,3L980.2,204.19l-17.65-6.33c-8.28,1.59-16.59,3-25,4-15,1.74-2.44-5.72-17.56-4.92-7.34.38-18.62-7.25-25.89-6.06-6.83,1.13-18.33-16.06-23.67-12-4.36,3.34-29.27-15.28-34.9-15.08-5.14.18-28.41,28.73-33.23,27.05a5.65,5.65,0,0,0-3.14-.35A40.28,40.28,0,0,1,806.42,199.21Z"/><path class="cls-17" d="M836.68,180.51a143.85,143.85,0,0,0,18.49,8.31q4.76,1.73,9.62,3.12c3.4,1,6.88,1.65,10.27,2.62a126.3,126.3,0,0,1,33.12,15.23c2.11,1.35,4.19,2.74,6.26,4.14,2.82.52,5.65,1,8.51,1.6,6.73,1.33,13.9,4.25,20.84,3.45,5.86-.66,10.68-2.51,16.7-1.63,5.46.8,10.41,3.2,15.36,5.5a100.48,100.48,0,0,0,17.48,6.23,105.22,105.22,0,0,0,18.13,3L980.2,204.19l-17.65-6.33c-8.28,1.59-16.59,3-25,4-15,1.74-2.44-5.72-17.56-4.92-7.34.38-18.62-7.25-25.89-6.06-6.83,1.13-18.33-16.06-23.67-12-4.36,3.34-29.27-15.28-34.9-15.08-1.93.07-6.42,4.14-11.53,9.11A134.82,134.82,0,0,0,836.68,180.51Z"/><polygon class="cls-18" points="994.13 320.51 1001.12 379.58 1032.64 287.58 968.41 306.86 972.97 333.58 985.96 341.16 994.13 320.51"/><polygon class="cls-18" points="904.19 306.73 894.06 307.35 932.36 376.19 945.84 302.86 904.19 306.73 904.19 306.73"/><polygon class="cls-19" points="964.24 496.41 900.73 476.28 880.48 463.79 725.46 435.7 692.29 407.43 601.56 391.19 596.68 396.02 545.63 414.32 532.8 430.8 458.26 470.82 450.68 484.51 398.64 529.06 400.39 531.87 400.77 533.07 951.42 539.92 987.21 512.15 988.5 511.86 964.24 496.41 964.24 496.41"/><g class="cls-20"><polygon class="cls-21" points="523.58 449.86 545.43 455.16 558.13 443.82 578.11 407.37 579.16 402.68 545.63 414.32 532.8 430.8 511.89 445.64 523.58 449.86 523.58 449.86"/></g><polygon class="cls-22" points="1105.24 449.24 1083.13 377.92 1022.12 376.3 923.71 366.08 945.56 491.41 970.59 518.12 971.68 523.01 987.21 512.15 1137.92 507.2 1127.66 477 1105.24 449.24 1105.24 449.24"/><polygon class="cls-23" points="1219.59 502.76 1008.57 488.14 990 500.1 983.75 513.32 987.21 512.15 1299.65 502.45 1219.59 502.76 1219.59 502.76"/><polygon class="cls-24" points="791.56 299.67 787.34 299.75 779.84 302.16 763.35 292.64 695.35 290.47 683.29 298.6 664.55 297.54 658.14 293.45 641.81 303.15 781.68 303.07 791.28 300.53 791.56 299.67 791.56 299.67"/><polygon class="cls-25" points="818.64 303.98 793.18 289.58 678.79 278.71 650.3 297.05 790.17 296.97 815.85 306.07 828.63 321.64 818.64 303.98"/><path class="cls-26" d="M790.5,206.75l-.49-.19a65.72,65.72,0,0,0-22.72-3.8l-10.65,3.64-2.14,3.21-20,15.54-.81.33,14.81,17.87,50,12.46-.08-38Z"/><polygon class="cls-27" points="1225.19 483.57 1221.87 481.31 1171 463.26 1225.19 483.57 1225.19 483.57"/><polygon class="cls-28" points="1018.62 396.47 1019.6 388.79 1011.36 386.32 1004.32 387.64 1005.07 389.81 1002.4 436.28 1016.33 408.3 1018.62 396.47 1018.62 396.47"/><path class="cls-29" d="M1011.36,386.32l-.52.09a5.23,5.23,0,0,1,0,.56,3.08,3.08,0,0,1,3.94,2.93,25.61,25.61,0,0,1-1.76,10.89c-1.75,4.22-.9,8.47-1.82,12.89s-3.19,8.71-4.71,13.05c-.46,1.31-.89,2.63-1.32,4l11.15-22.39,2.29-11.83,1-7.68Z"/><polygon class="cls-30" points="1056.26 389.88 1049.58 394.64 1064.82 408.25 1083.88 416.39 1103.99 445.05 1080.35 370.33 1056.28 385.21 1056.26 389.88"/><polygon class="cls-31" points="848.45 524.03 785.18 486.46 768.23 482.63 760.89 474.15 759.07 467.56 749.71 462.57 731.12 467.14 723.41 477.47 660.29 536.21 825.07 538.35 868.84 538.89 848.45 524.03 848.45 524.03"/><path class="cls-32" d="M876.14,415.93a46.14,46.14,0,0,1,14.62-2.83l-7.18-8.93L839.37,382l-98.32-11.71-114.47-9,67,29.89,155.14,4.88,25.55,21.71A3.12,3.12,0,0,1,876.14,415.93Z"/><polygon class="cls-33" points="952.49 272.08 913.89 288.77 888.52 308.33 937.87 314.89 968.41 306.86 994.13 320.51 1031.37 287.69 1089.91 316.72 1090.77 313.65 1069.5 265.38 1039.92 252.34 952.49 272.08 952.49 272.08"/><polygon class="cls-34" points="920.21 305.39 929.28 299.22 936.94 290.49 1024.49 261.99 1064.82 263.4 1039.92 252.34 952.49 272.08 913.89 288.77 888.52 308.33 914.71 312.62 920.21 305.39 920.21 305.39"/><polygon class="cls-35" points="892.6 400.61 881.08 391.5 614.17 381.43 592.83 401.7 705.2 422.17 734.79 410.37 788.63 414.26 825.58 431.98 839.53 425.54 895.4 416.56 892.6 400.61 892.6 400.61"/><polygon class="cls-36" points="1065.54 383.25 1077.83 377.75 1081.09 369.78 925.32 358.2 923.74 360.11 923.71 366.08 930.49 379.63 935.42 385.24 982.71 396.96 1014.63 390.86 1015.27 390.42 1019.07 390.09 1033.56 380.49 1048.26 395.58 1065.54 383.25 1065.54 383.25"/><polygon class="cls-37" points="1065.54 383.25 1077.83 377.75 1081.09 369.78 925.32 358.2 923.74 360.11 923.71 366.08 930.49 379.63 935.42 385.24 982.71 396.96 1014.63 390.86 1015.27 390.42 1019.07 390.09 1033.56 380.49 1048.26 395.58 1065.54 383.25 1065.54 383.25"/><g class="cls-38"><polygon class="cls-39" points="922.38 369.9 950.72 366.08 969.83 371.88 1059.15 368.15 1007.79 364.33 961.02 360.86 925.32 358.2 922.08 367.52 922.38 369.9 922.38 369.9"/></g><polygon class="cls-40" points="719.7 482.01 677.98 480.93 665.7 471.14 497.18 507.47 505.41 512.87 683.79 504.63 719.7 482.01 719.7 482.01"/><polygon class="cls-41" points="490.12 509.75 502.42 531.35 648.57 533.74 661.78 527.04 663.35 521.74 708.77 490.69 490.12 509.75 490.12 509.75"/><polyline class="cls-42" points="954.78 216.66 958.53 221.28 958.62 254.82 975.7 221.03 965.1 218.92 959.61 215.21 953.76 216.7"/><path class="cls-43" d="M873.5,201.66s-20.33,79.79-16.82,106.62,2,23.16,3.5,31.25,1.5,7,.5,14.57-4.41,23.48-4.41,23.48-4.6-16-4.6-18.74,2-7.22,0-11.72-5.68-8.56-5.09-13.54-1.92-26.91-2.42-30.72,2.4-11.28-3.31-17.8-9.13-15.54-9.13-15.54a15.75,15.75,0,0,1-3.09-12.67c1.51-7.35,2.66-11.93,3.09-14.4s-4.11-6.61-4.11-6.61l26-37.73S865,198.13,873.5,201.66Z"/><path class="cls-44" d="M936.33,58.17c2.42,15.8.62,30.64-7.31,44.06L943.56,110l13.53,11.45-1.15.89,4.49,4.47L969,149.9l63.29,27.28,4.33,5.13,10.93,64.29-.4,9.15,20.2,9,27.85,62.82,3.36,38.85,60.11,66.67.59,21.69,11,8.33,2.49.88-.23-.17,3.12,1.17.94.25-4.13-1.47-10.95-8.33-.59-21.7-60.12-66.66-3.36-38.86-27.84-62.81-20.2-9,.4-9.15L1038.77,183l-4.33-5.13-63.29-27.29-8.53-23.13-4.49-4.48,1.15-.88L945.74,110.6l-14.54-7.72c7.94-13.42,9.74-28.25,7.32-44L907.31,28.09,890.35,17l-1,.14,15.74,10.28Z"/><path class="cls-45" d="M850.22,21.89l.14,0L784.13,0l0,.05,66.13,21.84Z"/><polygon class="cls-46" points="1170.24 463.14 1171.15 463.82 1173.15 464.34 1172.85 464.12 1170.24 463.14"/><polygon class="cls-47" points="1306.5 498.93 1306.54 498.85 1176.49 465.21 1177.43 465.54 1306.5 498.93"/><polygon class="cls-48" points="1172.66 463.96 1172.85 464.12 1174.14 464.6 1173.15 464.34 1173.33 464.48 1176.33 465.25 1175.55 464.96 1175.25 464.88 1172.66 463.96"/><polygon class="cls-49" points="852.41 22.55 889.38 17.15 888.16 16.35 850.36 21.87 852.41 22.55 852.41 22.55"/><path class="cls-50" d="M615.24,376.49c11.78,3.13,23.61,5.62,35.8,6.41A155.41,155.41,0,0,0,691.3,380c10.94-2.17,21.69-5.33,32.35-8.56,10.07-3.05,20.05-6.38,29.87-10.13,19.88-7.6,39.34-17,56.43-29.76,16.39-12.25,32-28.66,38.2-48.57,6.66-21.32,2.81-44.38-3.66-65.25-6.64-21.44-16.48-41.67-26.22-61.84-9.89-20.49-20.32-40.71-29.55-61.52-9.4-21.2-17.77-43.07-22.63-65.8-6.72,11-13.64,20.54-23.53,24.67h0l-4.21,4.4L728.8,83.94l-8.65,11.25-.9.43-8.72,17.19-4.13,81.77-1.95,17.56-27.91,49,.41,11.41-20.53,20.58-6.12,3.94h1.78l-10.27,6.1h4.6l-10.54,10.56-5,33.73-16,8.66-8.26,18C609.59,375,612.45,375.74,615.24,376.49Z"/><path class="cls-51" d="M1090.77,313.65l-.86,3.07-55.66-26.5s19.87-13.84,25.08-14.84c6.09-6.31,9.68-10.22,9.68-10.22a290.34,290.34,0,0,1,12.24,26.74c6.85,16.85,9.4,21.2,9.4,21.2"/><path class="cls-52" d="M791.53,4.33c6.49,2.74,13,5.43,18.94,9.17,2.87,1.79,5.66,3.68,8.56,5.42s5.94,3.29,9,4.86c3.32,1.73,6.65,3.44,10,5.18,1.4.74,2.91,1.83,4.5,2.07a3.3,3.3,0,0,0,2.49-1c1.85-1.45,3.72-2.87,5.43-4.48a25.53,25.53,0,0,0,3-3.13l-1,.14h0L784.13,0l-.33.44A48.61,48.61,0,0,0,791.53,4.33Z"/><path class="cls-53" d="M1160.41,459.23a40.11,40.11,0,0,0-.51,10.27c3.6-.09,7.22.2,10.24,2.38,3.41,2.46,6.09,6.53,10.24,7.76a15.83,15.83,0,0,0,5.49.33c2.57-.17,5.14-.46,7.72-.54,5.71-.18,11.31,1.64,16.86,2.74,12.19,2.42,24.46,4.42,36.72,6.4s24.5,3.95,36.68,6.3c8.26,1.59,16.52,3.34,24.83,4.72l0-.09-131.29-34-5.07-1.8-10.74-8.17A18.27,18.27,0,0,0,1160.41,459.23Zm15.92,6-3-.78-.9-.69Z"/><path class="cls-54" d="M1103.52,382.64c3.85,6.55,9.31,11.93,14.14,17.72,5.59,6.71,11.3,13.34,16.76,20.15,1.3,1.64,2.59,3.28,3.84,5s2.32,3.45,3.66,5a10.79,10.79,0,0,0,6.87,3.62,22.93,22.93,0,0,0,10.39-.21c.46-.14.91-.31,1.36-.49l-59.84-66.35v0a10.44,10.44,0,0,0-1,4C1099.58,375,1101.51,379.22,1103.52,382.64Z"/><path class="cls-55" d="M1059.33,275.38c3.41-3.2,6.47-6.79,9.68-10.22l-19.71-8.76,0-.95a124.6,124.6,0,0,1-16.67,5.07c-3.27.68-6.59,1.06-9.85,1.83s-6.17,1.65-9.23,2.54c-6.16,1.8-12.38,3.26-18.68,4.45-5.68,1.08-11.43,2.1-16.86,4.14a26.09,26.09,0,0,0,2.08,3c4.55,5.68,10.44,10.12,15.7,15.1a87.51,87.51,0,0,1,6.85,7.55c1.13,1.36,2.41,3.29,4.15,3.92s4.08-.55,5.67-1.3c3.77-1.78,7.49-3.7,11.16-5.69,3.84-2.08,7.63-4.24,11.46-6.34a65.62,65.62,0,0,0,6.72-4.07,114.64,114.64,0,0,1,13.36-8.55A20.39,20.39,0,0,1,1059.33,275.38Z"/><path class="cls-56" d="M1073.29,279.48c1.75,3.62,2.88,7.5,4.55,11.15.84,1.84,2,3.51,2.9,5.3a48.94,48.94,0,0,1,2.12,4.94,28.21,28.21,0,0,0,2.52,5.22c1.13,1.73,2.58,3.27,3.8,4.94.5.68,1,1.38,1.47,2.07l-20.28-45.76a14.34,14.34,0,0,0-.57,1.63A33.89,33.89,0,0,0,1073.29,279.48Z"/><path class="cls-57" d="M1037.47,191.68c.66,5,1.13,10,1.41,15.09.3,5.41,1.18,10.76,1.78,16.14.57,5.13,1,10.48,0,15.59-.91,4.69-3,9.12-3.56,13.87a44.86,44.86,0,0,0,12.21,4l.4-9.12L1038.77,183l-2.61-3.09C1036.45,183.83,1037,187.75,1037.47,191.68Z"/><path class="cls-58" d="M930.43,132.86c3.64,2,7.4,3.88,11.19,5.65s7.86,3.59,11.75,5.48,7.37,4.25,11.41,5.39a20.26,20.26,0,0,0,6.2.71l-8.36-22.67-4.35-4.33C948.83,125.86,939.12,128.19,930.43,132.86Z"/><path class="cls-59" d="M914.16,87.41a50.79,50.79,0,0,0-3.69,13.28,53.62,53.62,0,0,1-1.65,7.09c-.15.47-.29.93-.43,1.4,3.14-2.63,7.54-4,11.44-4.77s7.88-1.42,11.79-2.27c7.56-13.21,9.27-27.76,6.91-43.25a70.27,70.27,0,0,0-9.14,7.82C923.37,72.75,917.83,79.67,914.16,87.41Z"/><polygon class="cls-60" points="502.47 160.37 477.37 121.63 463.94 111.25 448.08 103.37 434.94 102.92 422.76 114.84 413.03 126.62 404.69 140.48 404.15 149.1 400.75 164.88 399.65 176.58 402.19 186.37 406.51 203.06 422.28 208.29 450.24 199.06 477.76 191.92 502.47 160.37 502.47 160.37"/><polygon class="cls-61" points="429.01 128.87 448.46 129.66 457.04 135.33 465.79 138.32 467.61 131.85 466.51 123.88 468.82 113.85 463.94 111.25 448.08 103.37 434.94 102.92 422.76 114.84 414.97 124.28 429.01 128.87 429.01 128.87"/><polygon class="cls-62" points="688.28 354.54 681.5 327.23 679.81 306.02 679.79 290.44 679.66 289.91 675.52 284.63 668.41 281.07 649.9 271.97 623.04 261.92 613.25 255.09 605.55 231.66 589.29 214.26 575.03 206.02 576.46 195.37 592.71 152.38 576.16 140.69 532.38 132.28 499.17 122.92 450.71 157.83 448.38 157.61 444.82 157.65 410.01 151.71 388.29 149.69 383.93 153.94 380.85 164.4 373.44 179.84 364.39 190.77 363.48 191.17 354.14 208.04 354.98 231.81 345.75 305.08 314.87 355.03 314.87 390.79 348.35 377.3 570.1 367.43 594.76 360.41 600.84 346.57 686.46 377.3 688.58 365.7 688.28 354.54 688.28 354.54"/><polygon class="cls-63" points="472.64 213.38 426 207.28 412.89 216.86 390.57 225.85 420.48 237.43 458.94 239.07 517.82 196.87 497.23 205.3 472.64 213.38 472.64 213.38"/><polygon class="cls-64" points="484.72 218.24 498 214.8 517.82 196.87 497.23 205.3 472.64 213.38 448.32 213.04 484.72 218.24 484.72 218.24"/><polygon class="cls-65" points="575.68 207.05 558.61 211.38 529.32 230.37 502.72 239.24 482.9 254.32 520.02 255.2 562.43 245.2 577.41 233.37 587.28 231.26 600.19 227.76 602.41 226.19 589.29 214.26 575.68 207.05 575.68 207.05"/><polygon class="cls-66" points="519.42 248.33 539.71 237.39 553.33 228.78 566.27 227.2 591.19 228.04 600.2 227.76 602.41 226.19 589.29 214.26 575.68 207.05 558.61 211.38 529.32 230.37 502.72 239.24 482.9 254.32 497.55 256.08 519.42 248.33 519.42 248.33"/><polyline class="cls-66" points="613.43 275.02 627.29 263.84 615.82 263.18 603.45 266.44 570.7 285.06 571.01 285.03"/><polygon class="cls-67" points="368.62 245.2 361.6 239.94 355.09 235.32 345.75 305.08 343.7 312.61 347.42 312.6 350.85 308.23 356.75 301.78 362.28 295.37 370.11 280.02 377.7 275.83 378.23 265 372.86 259.56 367.22 250.81 368.62 245.2 368.62 245.2"/><polygon class="cls-68" points="486.27 148.99 501.2 151.1 516.47 158.07 529.15 167.05 549.12 165.33 566.95 158.02 582.85 147.43 576.16 140.69 532.38 132.28 499.17 122.92 477.64 145.85 486.27 148.99 486.27 148.99"/><polygon class="cls-69" points="410.01 151.71 388.29 149.69 383.93 153.94 380.85 164.4 373.44 179.84 364.39 190.77 363.84 191.05 387.51 192.45 424.59 177.79 440.52 158.1 440.7 157.38 410.01 151.71 410.01 151.71"/><polygon class="cls-70" points="851.96 594.61 832.38 587.57 804.06 576.06 792.47 566.57 792.65 544.86 759.88 506.83 734.96 476.09 704.84 468.94 701 422 707.42 373.36 666.84 353.57 620.38 309.02 602.43 301.91 596.38 300.94 582.26 294.87 558.78 284.41 546.49 274.17 541.5 269.57 539.58 268.08 538.4 267.43 538.25 267.36 537.25 266.93 537.24 266.93 535.2 266.59 532.47 266.56 532.02 266.58 530.47 266.82 502.14 242.46 445.74 255.21 432.97 293.05 403.35 300.98 396.88 303.22 394.63 306.35 374.03 321.16 362.82 325.05 360.78 325.73 360.21 325.97 356.41 327.7 349.79 332.7 346.12 337.92 325.37 364.04 322.03 366.52 278.66 395.79 272.34 406.13 266.19 439.66 249.92 447.75 230.23 486.99 178.55 503.44 165.15 519.46 99.53 549.76 89.22 556.79 88.74 557.58 88.74 620.91 151.36 616.62 338.22 620.21 456.54 647.56 531.97 640.96 579.59 643.5 616.34 617.03 676.1 617.15 937.19 617.99 938.11 615.9 851.96 594.61"/><polygon class="cls-71" points="631.08 414.18 634.99 485.04 663.36 448.75 686.13 411.23 631.08 414.18 631.08 414.18"/><polygon class="cls-71" points="540.74 408.77 530.59 409.03 551.28 448.47 560.47 466.68 566.41 479.19 568.6 464.49 573.48 442.12 578.53 421.1 582.5 406.4 555.13 408.58 540.74 408.77 540.74 408.77"/><polygon class="cls-72" points="593.95 600.48 549.44 586.41 531.21 578.08 511.42 564.88 460.11 559.42 431.84 552.04 403.67 540.5 376.38 535.31 357.51 531.26 325.37 501.82 303.53 494.08 269.33 489.32 236.31 482.54 232.65 482.11 230.23 486.99 178.55 503.44 165.15 519.46 99.53 549.76 89.22 556.79 88.74 557.58 20.64 612.05 151.36 616.62 338.22 620.21 456.54 647.56 531.97 640.96 579.59 643.5 616.34 617.03 617.65 616.79 593.95 600.48"/><polygon class="cls-73" points="155.25 538.18 176.89 544.25 189.99 533.38 211.26 497.67 212.48 492.64 178.55 503.44 165.15 519.46 143.72 533.54 155.25 538.18 155.25 538.18"/><polygon class="cls-74" points="736.56 558.39 717.02 486.32 687.6 502.67 649.87 514.76 562.61 522.67 575.47 594.81 599.52 622.4 600.44 627.33 616.34 617.03 676.1 617.15 768.13 620.77 757.97 586.93 736.56 558.39 736.56 558.39"/><polygon class="cls-75" points="848.91 615.97 810.34 610.82 769.98 599.79 723.57 599.48 689.95 595.11 638.55 593.8 619.57 605.08 612.85 618.07 616.34 617.03 676.1 617.15 928.93 618.53 848.91 615.97 848.91 615.97"/><polygon class="cls-76" points="428.44 397.68 424.22 397.61 416.63 399.75 403.13 392.06 400.49 389.65 391.81 387.3 382.68 388.24 369.12 386.7 356.68 388.07 345.25 387.2 344.5 386.95 340.44 386.53 332.61 385.04 320.27 392.74 311.4 392.47 301.58 391 295.32 386.69 278.66 395.79 279.35 396.05 322.85 401.36 360.18 398.28 385.62 396.89 418.44 400.72 428.13 398.53 428.44 397.68 428.44 397.68"/><polygon class="cls-77" points="471.1 375.65 430.42 387.65 389.46 379.84 349.14 380.75 325.25 375.07 316.49 372.69 287.36 390 288.06 390.26 331.55 395.57 368.88 392.49 394.32 391.1 427.14 394.94 472.37 375.07 471.1 375.65 471.1 375.65"/><polygon class="cls-78" points="477.55 290.25 530.33 306.13 562.66 308.43 594.89 316.06 624.11 329.16 645.58 333.18 620.38 309.02 602.43 301.91 596.38 300.94 582.26 294.87 558.78 284.41 546.49 274.17 541.5 269.57 539.58 268.08 538.4 267.43 538.25 267.36 537.25 266.93 537.24 266.93 535.2 266.59 532.47 266.56 532.02 266.58 530.47 266.82 502.14 242.46 445.74 255.21 444.67 258.37 477.55 290.25 477.55 290.25"/><polygon class="cls-79" points="469.59 262.2 487.68 269.93 508.78 272.31 531.18 279.84 550.07 278.88 544.96 274.17 539.96 269.57 538.04 268.08 536.86 267.43 536.71 267.36 535.72 266.93 535.7 266.93 533.66 266.59 530.93 266.56 530.49 266.58 528.93 266.82 500.6 242.46 455.83 253.36 469.59 262.2 469.59 262.2"/><polygon class="cls-80" points="387.37 339.86 436.93 354.1 438.21 316.12 424.19 294.96 403.35 300.98 396.88 303.22 394.63 306.35 374.03 321.16 373.21 321.46 387.37 339.86 387.37 339.86"/><g class="cls-81"><polygon class="cls-82" points="855.2 596.99 851.96 594.61 832.38 587.57 804.06 576.06 801.77 574.75 855.2 596.99 855.2 596.99"/></g><polygon class="cls-83" points="667.23 524.54 664.01 517.5 655.7 519.74 650.42 524.58 652.2 526.03 668.28 554.61 674.44 566.91 671.52 535.8 667.23 524.54 667.23 524.54"/><polygon class="cls-84" points="689.68 498.55 685.74 509.25 690.22 517.51 696.08 533.57 717.55 512.16 726.41 521.54 724.74 509.4 714.51 478.64 689.68 498.55 689.68 498.55"/><polygon class="cls-73" points="477.25 623.94 465.36 616.09 453.64 611.38 428.9 593.66 415.37 584.13 405.83 580.62 398.57 579.69 391.54 570.95 389.95 564.3 380.78 558.98 362.03 562.88 353.96 572.92 328.49 590.64 300.06 608.71 292.35 615.02 338.22 620.21 456.54 647.56 496.9 644.98 477.25 623.94 477.25 623.94"/><polygon class="cls-85" points="522.32 532.81 482.1 496.06 464.55 496.32 395.01 482.96 376.45 480.73 365.41 474.32 335.5 465.57 261.35 453.37 379.6 448.23 419.06 454.24 518.19 479.71 516.65 505.41 543.98 542.04 553 595.7 527.13 532.21 522.32 532.81 522.32 532.81"/><polygon class="cls-86" points="590.25 375.87 551.08 391.17 525.02 409.8 554.36 415.79 574.1 418.13 593.02 412.37 604.91 411.2 613.62 417.82 630.13 425.76 669.29 428.38 699.27 427.43 701 424.02 707.42 375.38 678.18 360.59 590.25 375.87 590.25 375.87"/><g class="cls-87"><polygon class="cls-88" points="556.8 408 566.08 402.17 574.04 393.71 589.81 385.97 613.66 378.69 638.03 371.04 662.57 368.36 683.65 367.71 702.81 371.22 678.18 360.59 590.25 375.87 551.08 391.17 525.02 409.8 551.04 415.03 556.8 408 556.8 408"/></g><polygon class="cls-89" points="525.79 502.17 514.6 492.66 454.77 480.45 444.39 479.57 317.75 465.18 248.23 473.03 226.17 492.53 236.04 493.13 253.28 496.15 270.69 497.59 307.63 506.12 334.25 516.59 337.74 517 367.07 506.69 367.73 506.27 391.26 506.94 421.4 512.1 457.69 531.13 471.86 525.19 528.02 518.21 525.79 502.17 525.79 502.17"/><polygon class="cls-90" points="262.73 474.01 270.5 484.57 285.45 484.71 308.35 484.96 323.04 490.62 337.7 490.78 368.16 486.9 387.37 479.81 394.57 475.12 317.75 465.18 255.74 472.18 262.73 474.01 262.73 474.01"/><polygon class="cls-91" points="704.36 495.56 714.5 486.69 715.27 478.11 661.93 495.17 645.72 501.31 632.08 500.72 575.1 509.78 571.73 509.98 562.97 512.82 562.02 515.11 563.75 520.82 574.21 531.78 580.57 535.69 629.21 533 651.71 521.69 657.94 517.79 658.41 517.19 661.95 515.75 676.78 520.31 691.47 512.42 692.24 511.27 704.36 495.56 704.36 495.56"/><polygon class="cls-92" points="563.6 524.86 584.79 521.99 620.46 515.43 635.67 500.98 632.08 500.72 575.1 509.78 571.73 509.98 562.97 512.82 562.61 522.67 563.6 524.86 563.6 524.86"/><polygon class="cls-89" points="350.08 577.33 308.43 574.75 296.51 564.53 271.41 573.36 255.34 570.77 238.27 570.77 220.19 577.33 208.14 577.33 192.07 581.03 176 581.03 159.94 586.13 140.86 591.47 126.8 594.81 134.83 600.5 168.97 603.14 201.11 603.14 245.3 603.14 266.39 600.5 313.39 598.65 350.08 577.33 350.08 577.33"/><polygon class="cls-73" points="119.66 596.83 125.69 607.79 129.62 613.89 131.18 618.86 253.22 623.2 277.15 626.48 290.6 620.25 292.35 615.02 313.39 598.65 338.85 585.61 257.48 588.45 119.66 596.83 119.66 596.83"/><polyline class="cls-93" points="594.52 320.57 598.1 325.32 597.14 331.59 596.99 358.84 615.27 325.68 604.76 323.2 599.4 319.29 593.5 320.57"/><path class="cls-94" d="M936.57,617l-86.14-21.29-18.21-6.55L801.65,576.4l-10.72-8.77.19-21.71-32.77-38-24.92-30.75L703.3,470l-3.73-45.7,6.31-47.86-.25-.13.25-1.9L687,365.21l-.25-9.6L680,328.29l-1.69-21.21V291.5l-.13-.53L674,285.69l-7.11-3.56L648.37,273,621.51,263l-9.8-6.83L604,232.73l-4.33-4.64,1.18-.84-13.11-11.93-14.26-8.24,1.42-10.65,16.26-43-16.56-11.68-43.78-8.41L497.63,124h0l-14.29,10.3-7.51-11.59-8.77-6.78.23-1-4.89-2.61h0l-15.85-7.88-9.25-.31-3.9-.13-9.79,9.58-2.39,2.33L417,121l-3.61,4.37h0l-1.93,2.34-8.34,13.86-.55,8.62-.43,2-15.43-1.43L382.39,155l-3.07,10.46L371.9,180.9l-9,10.94-.91.39-9.34,16.88.84,23.77-9.23,73.27-30.89,49.94v16.33l-36.21,24.44-6.31,10.34-6.16,33.53-16.26,8.08-19.7,39.24h0l-25.84,8.23L177,504.51l-13.41,16-32.8,15.15L98,550.82l-10.31,7-.48.79h0L31.3,612.05l98.08,7,.27.84,122,4.35,23.93,3.27,13.44-6.22.32-1,47.31.91L395.85,635,455,648.62h0L495.36,646l-.82-.88,35.9-3.14,47.62,2.55,36.75-26.48,59.76.12h0l92,3.62-.94-3.12,161.74.88L907.87,619l27.78.09Zm-134-39.85L809.6,580l-7.07-2.88h0Z"/><polygon class="cls-95" points="437.41 103.18 446.66 103.49 462.52 111.37 462.52 111.38 467.4 113.98 467.17 114.97 475.95 121.75 483.45 133.34 484.48 132.6 477.37 121.63 468.59 114.85 468.82 113.85 463.94 111.25 463.94 111.25 448.08 103.37 438.83 103.06 434.94 102.92 434.77 103.09 437.41 103.18"/><polygon class="cls-96" points="402.29 151.25 402.34 151 388.29 149.69 388.05 149.93 402.29 151.25"/><polygon class="cls-97" points="666.99 281.19 674.1 284.75 678.24 290.03 678.37 290.56 678.39 306.14 680.08 327.35 686.86 354.67 687.06 362.38 688.49 362.38 688.28 354.54 681.5 327.23 679.81 306.02 679.79 290.44 679.66 289.91 675.52 284.63 668.41 281.07 649.9 271.97 623.04 261.92 613.25 255.09 605.55 231.66 601.22 227.03 602.41 226.19 589.29 214.26 575.03 206.02 576.46 195.37 592.71 152.38 576.16 140.69 532.38 132.28 499.17 122.92 499.17 122.92 498.64 123.29 530.96 132.41 574.74 140.82 591.29 152.5 575.03 195.49 573.61 206.15 587.87 214.38 600.99 226.31 599.8 227.16 604.13 231.79 611.82 255.21 621.62 262.05 648.48 272.1 666.99 281.19"/><polygon class="cls-98" points="477.55 290.25 530.33 306.13 562.66 308.43 594.89 316.06 624.11 329.16 645.58 333.18 620.38 309.02 602.43 301.91 596.38 300.94 582.26 294.87 558.78 284.41 546.49 274.17 541.5 269.57 539.58 268.08 538.4 267.43 538.25 267.36 537.25 266.93 537.24 266.93 535.2 266.59 532.47 266.56 532.02 266.58 530.47 266.82 502.14 242.46 445.74 255.21 444.67 258.37 477.55 290.25 477.55 290.25"/><g class="cls-99"><polygon class="cls-80" points="494.32 295.29 477.55 290.25 469.7 282.63 460.11 285.38 461.21 288.46 462.19 286.54 479.89 307 480.12 325.01 488.58 340.37 496.51 350.68 516.25 305.83 497 296.99 494.32 295.29"/></g><path class="cls-100" d="M495.82,244.57c11,10.2,24.43,17.25,37.32,24.76a195,195,0,0,1,19.21,12.43,109.83,109.83,0,0,0,9.18,6.6,78,78,0,0,0,9.87,5c13.63,5.76,28.36,8.46,41.75,14.83a52.62,52.62,0,0,1,10.5,7.06c4,3.28,7.94,6.71,11.88,10.1,3,2.6,6.05,5.21,9.19,7.68l.86.16L620.38,309l-18-7.11-6-1-14.12-6.07-23.48-10.46-12.29-10.24-5-4.6-1.92-1.49-1.18-.65-.15-.07-1-.43h0l-2-.34-2.73,0-.45,0-1.55.24-28.33-24.36-6.9,1.55Z"/><path class="cls-101" d="M403.5,151.27l0,0c0-.05-.05-.1-.08-.14l-15.1-1.41-4.36,4.25-1.48,5a45.34,45.34,0,0,0,13.33-3.64C398.41,154.09,401,152.66,403.5,151.27Z"/><path class="cls-102" d="M589.29,214.26l-13.41-7.75c-.68.82-1.34,1.66-2,2.51,3.77,2.09,7.63,4,11.27,6.34a31.7,31.7,0,0,1,9.16,8,13.41,13.41,0,0,1,2.54,5.76,12,12,0,0,1-.87,5.76,59.07,59.07,0,0,0-2.23,6,26.37,26.37,0,0,0-.48,7.78,141.77,141.77,0,0,0,1.94,14.5c8.34-3.42,17.16,1.05,24.86,4.37a58.56,58.56,0,0,0,10.49,3.45c4.26,1,8.57,1.4,12.75,2.69s8.5,3.05,12.9,4.05a57.62,57.62,0,0,0,6.65,1l1.14.12L649.9,272,623,261.92l-9.8-6.83-7.69-23.43L601.22,227l1.19-.84Z"/><path class="cls-103" d="M547.73,212.54c10-2.39,20.29-3.56,30.55-4.64L575,206l1.43-10.65,16.25-43-1.54-1.08a81.19,81.19,0,0,0-7.3,6.19,125.3,125.3,0,0,0-17.52,20.66c-4.45,6.53-8.48,13.6-10.82,21.2a2.35,2.35,0,0,1,1.9.37,1.08,1.08,0,0,1,.37,1.43C555.19,205.57,550.7,208.42,547.73,212.54Z"/><path class="cls-104" d="M442.41,108.23c10.61,13.2,25.31,22.36,35.64,35.83,4.86-4.14,8.94-9.31,12.73-14.41.36-.48.71-1,1.07-1.46l-7,5-7.5-11.59-8.78-6.78.23-1-4.88-2.6h0l-15.86-7.88-9.25-.32h-.22C439.81,104.82,441.07,106.56,442.41,108.23Z"/><polygon class="cls-105" points="590.25 375.87 551.08 391.17 525.02 409.8 554.36 415.79 574.1 418.13 593.02 412.37 604.91 411.2 613.62 417.82 630.13 425.76 669.29 428.38 699.27 427.43 701 424.02 707.42 373.36 678.92 358.92 590.25 375.87 590.25 375.87"/><path class="cls-106" d="M701.3,370.05c0,.24.06,2.8,0,3a55,55,0,0,0-.58,7.14c-.31,9.48.67,19-.26,28.45a172.82,172.82,0,0,0-.64,17.63L701,424l6.42-50.66Z"/><polygon class="cls-107" points="1836.77 586.57 1820.43 562.99 1813.01 547.88 1812.34 546.73 1812.34 546.73 1812.04 546.37 1809.77 543.55 1808.31 541.81 1808.16 541.7 1806.45 540.28 1794.34 532.66 1794.18 532.57 1793.62 532.3 1790.47 530.75 1781.8 526.38 1758.2 502.41 1754.47 474.85 1760.22 459.63 1761.83 456.35 1761.84 456.31 1762.13 454.57 1762.23 453.43 1762.37 448.73 1762.18 448.32 1754.85 435.91 1747.13 408.51 1749.17 386.88 1750.97 378.73 1751.43 375.49 1751.46 374.1 1751.33 371.81 1751.17 370.78 1749.84 364.23 1747.32 353.88 1710.28 320.49 1707.47 317.77 1690.03 289.18 1686.94 283.46 1681.38 278 1678.19 276.1 1677.7 275.84 1675.99 275.09 1666.57 270.84 1649.25 254.62 1647.36 251.2 1641.92 248.74 1617.01 240.06 1606.28 198.65 1558.87 184.69 1535.05 211.36 1533.74 211.09 1533.37 211.07 1531.07 211.11 1529.35 211.47 1529.34 211.48 1528.51 211.95 1528.38 212.02 1527.39 212.74 1525.78 214.36 1521.58 219.4 1511.24 230.61 1491.5 242.06 1479.64 248.71 1474.55 249.76 1459.46 257.55 1420.4 306.31 1386.29 327.98 1391.68 381.21 1388.45 432.6 1363.13 440.42 1342.18 474.07 1314.63 515.7 1314.79 539.46 1305.04 549.84 1281.23 562.45 1264.77 570.16 1192.35 593.46 1193.12 595.75 1412.61 594.83 1462.85 594.7 1493.75 623.67 1533.78 620.89 1597.2 628.11 1696.67 598.18 1845.77 593.23 1836.77 586.57 1836.77 586.57"/><polygon class="cls-108" points="1620.83 354.6 1624.37 354.52 1630.75 356.86 1642.1 348.44 1644.32 345.8 1651.61 343.24 1654.89 335.4 1667.4 343.79 1681.15 344.08 1690.76 343.12 1691.39 342.85 1694.8 342.39 1701.39 340.76 1711.76 349.18 1719.21 348.89 1727.47 347.29 1732.74 342.56 1746.75 352.53 1746.16 352.81 1709.6 358.63 1678.21 355.25 1656.82 353.73 1629.23 357.93 1621.09 355.53 1620.83 354.6 1620.83 354.6"/><path class="cls-109" d="M1836.77,586.57,1820.43,563,1813,547.88l-.67-1.15h0l-.3-.36-2.27-2.82-1.46-1.74-.15-.11-1.71-1.42-12.11-7.62-.16-.09-.56-.27-3.15-1.55-8.67-4.37-23.6-24-3.73-27.56,5.75-15.22,1.61-3.28v0l.29-1.74.1-1.14.14-4.7-.19-.41-7.33-12.41-7.22-25.62a24.7,24.7,0,0,1-9.51-1.8,16.35,16.35,0,0,1-7-5.44,77.82,77.82,0,0,1-15.74-9.56,11.49,11.49,0,0,1-1.91-1.12,20.71,20.71,0,0,1-4.06-4.18,74.79,74.79,0,0,1-7.46-8.64l-1.53-2.11-1.38-.27c-2.71-.52-5.37-.87-7.85-2.38-4.64-2.8-6.2-8.09-7.59-13.69-.41-1.65-.79-3.33-1.28-5-.14-.46-.49-1.35-.32-1.18-1.56-2.26-4-3.51-6.09-5-5.28-3.85-10.56-8-16.2-11.12a110.73,110.73,0,0,1-17.86,15.81c-4.79,3.33-10.07,6.35-15.52,7.69-6.47,1.59-12.12.3-17.9-3.42-1.53-1-3-2-4.51-3.1-14.24-.42-24.51-20.77-38.53-23.76-8.63-1.84-22.61,18.64-31.85,17.41,1.1,8.33,2.58,16.12,2,20.59-1.66,12.25-60-13.83-69.59-9.07-10.25,5.07-15.27,15.15-20.48,26.19-6.41,13.59-15.87,22.49-28.85,25.75-5.81,1.45-12.84,1.79-17.64,6.43-3.75,3.63-5.8,9.28-9.26,13.27-7.35,8.47-17.35,10.47-27.57,9.42l-19.92,32-27.55,41.63.16,23.76L1305,549.84l-23.81,12.6-16.46,7.72-72.42,23.3.77,2.29,219.49-.93,50.24-.13,30.9,29,40-2.78,63.42,7.22,99.47-29.93,149.1-4.95Z"/><path class="cls-110" d="M1539.63,367.86s-36,95-39.05,102.21-9.27,13.5-9.27,13.5-45.56-7.55-47.21-7.76-39.92-12.55-39.92-12.55l-16.76-32.92,4.17-47.76,24.3-30.73,63.64-2.59Z"/><path class="cls-111" d="M1534.34,365.64s16.42,33.84,15.51,47-22,58.73-23.54,61.14-21.7,24.83-23.07,28.11S1488.58,523,1488,520.55s-17.5-30.52-17.5-30.52l-3.32-46.44L1493.11,406Z"/><g class="cls-112"><polygon class="cls-113" points="1544.21 566.34 1549.52 561.56 1544.21 566.34 1544.21 566.34"/><polygon class="cls-113" points="1629.56 548.22 1623.89 546.1 1629.56 548.22 1629.56 548.22"/><polygon class="cls-113" points="1632.24 537.57 1630.21 544 1632.24 537.57 1632.24 537.57"/><polygon class="cls-113" points="1619.44 544.16 1616.88 538.11 1619.44 544.16 1619.44 544.16"/><polygon class="cls-113" points="1614.62 547.55 1611.59 553.89 1614.62 547.55 1614.62 547.55"/><polygon class="cls-113" points="1628.42 526.83 1627.45 527.08 1628.42 526.83 1628.42 526.83"/><polygon class="cls-113" points="1642.64 534.23 1639.23 530.98 1642.64 534.23 1642.64 534.23"/><polygon class="cls-113" points="1561.25 548.13 1557.63 548.34 1561.25 548.13 1561.25 548.13"/><polygon class="cls-113" points="1560.07 556.46 1563.63 559.79 1560.07 556.46 1560.07 556.46"/><polygon class="cls-113" points="1580.07 553.84 1569.96 554.57 1580.07 553.84 1580.07 553.84"/><polygon class="cls-113" points="1559.76 565.89 1565.36 568.58 1559.76 565.89 1559.76 565.89"/><polygon class="cls-113" points="1545.71 570.76 1548.28 576.81 1545.71 570.76 1545.71 570.76"/><polygon class="cls-113" points="1533.61 566.04 1535.97 571.59 1533.61 566.04 1533.61 566.04"/><polygon class="cls-113" points="1610.52 558.69 1606.28 560.17 1610.52 558.69 1610.52 558.69"/></g><polygon class="cls-114" points="1450.47 372.65 1447.17 450.22 1423.33 410.5 1404.18 369.42 1450.47 372.65 1450.47 372.65"/><polygon class="cls-115" points="1526.41 366.74 1534.94 367.02 1517.55 410.19 1509.82 430.12 1504.84 443.82 1502.99 427.73 1498.89 403.24 1494.64 380.23 1491.31 364.14 1514.31 366.53 1526.41 366.74 1526.41 366.74"/><polygon class="cls-116" points="1836.77 590.05 1820.43 566.47 1813.01 551.36 1812.34 550.21 1812.34 550.21 1812.04 549.86 1809.77 547.04 1808.31 545.29 1808.16 545.18 1806.45 543.77 1794.34 536.14 1794.18 536.06 1793.62 535.78 1790.47 534.24 1781.8 529.87 1758.2 505.89 1754.47 478.33 1760.22 463.11 1761.83 459.83 1761.84 459.79 1762.13 458.05 1762.23 456.91 1762.24 456.72 1754.58 458.39 1725.83 463.6 1707.48 472.07 1680.45 504.29 1664.59 508.73 1641.65 514.4 1617.97 527.04 1594.2 535.12 1551.06 541.1 1534.42 555.55 1519.1 564.66 1481.68 580.06 1461.76 597.91 1462.85 598.18 1493.75 627.16 1533.78 624.37 1597.2 631.59 1696.67 601.66 1845.77 596.71 1836.77 590.05 1836.77 590.05"/><polygon class="cls-117" points="1361.79 530.5 1378.21 451.62 1402.95 469.51 1434.67 482.75 1508.02 491.41 1497.22 570.37 1476.99 600.57 1476.22 605.97 1462.85 594.69 1412.61 594.83 1335.24 598.78 1343.79 561.74 1361.79 530.5 1361.79 530.5"/><polygon class="cls-118" points="1267.33 593.53 1299.76 587.89 1333.69 575.82 1372.71 575.49 1400.97 570.7 1444.18 569.27 1460.14 581.62 1465.79 595.83 1462.85 594.69 1412.61 594.83 1200.06 596.33 1267.33 593.53 1267.33 593.53"/><polygon class="cls-119" points="1579.53 237 1535.17 254.38 1507.98 256.9 1480.89 265.26 1456.33 279.6 1438.27 283.99 1459.46 257.55 1474.55 249.76 1479.64 248.71 1491.5 242.06 1511.24 230.61 1521.58 219.4 1525.78 214.36 1527.39 212.74 1528.38 212.02 1528.51 211.95 1529.34 211.48 1529.35 211.47 1531.07 211.11 1533.37 211.07 1533.74 211.09 1535.05 211.36 1558.87 184.69 1606.28 198.65 1608.48 200.46 1579.53 237 1579.53 237"/><polygon class="cls-120" points="1585.03 206.3 1569.83 214.76 1552.09 217.37 1533.25 225.6 1517.37 224.55 1521.67 219.4 1525.87 214.36 1527.48 212.74 1528.48 212.02 1528.6 211.95 1529.44 211.48 1529.45 211.47 1531.16 211.11 1533.46 211.07 1533.84 211.09 1535.14 211.36 1558.96 184.69 1596.6 196.62 1585.03 206.3 1585.03 206.3"/><polygon class="cls-121" points="1655.35 291.3 1613.68 306.89 1612.61 265.31 1624.4 242.16 1641.92 248.74 1647.36 251.2 1649.25 254.62 1666.57 270.84 1667.25 271.17 1655.35 291.3 1655.35 291.3"/><path class="cls-9" d="M1614.57,301.07l0,0,.16-.09a1.36,1.36,0,0,1,.12-.12l.16-.17.23-.42c.17-.28.47-1.05.56-1.25a60.56,60.56,0,0,0,1.82-9.59c1-7.09,2.5-14.78,8.08-18.79,3.51-2.52,7.53-2.56,11.42-1.65a19.68,19.68,0,0,1,2.87.78l0,0c-.24-.16,0-.13.07,0l.62-.33c1.24-.79,2.52-1.53,3.8-2.24,3.76-2.09,7.74-3.64,11.11-6.46l-6.43-6-1.89-3.42-5.44-2.46-17.52-6.58-11.79,23.15.93,36.07A9.37,9.37,0,0,0,1614.57,301.07Z"/><polygon class="cls-27" points="1262.04 572.76 1264.77 570.16 1281.23 562.45 1305.04 549.84 1306.96 548.42 1262.04 572.76 1262.04 572.76"/><polygon class="cls-122" points="1420.07 493.46 1422.78 485.74 1429.77 488.2 1434.2 493.5 1432.71 495.09 1419.19 526.37 1414.01 539.84 1416.47 505.78 1420.07 493.46 1420.07 493.46"/><polygon class="cls-122" points="1401.2 465.01 1404.51 476.72 1400.74 485.76 1395.82 503.34 1377.77 479.9 1370.32 490.17 1371.72 476.88 1380.33 443.21 1401.2 465.01 1401.2 465.01"/><polygon class="cls-123" points="1579.79 602.25 1589.78 593.66 1599.63 588.51 1620.44 569.12 1631.81 558.68 1639.83 554.84 1645.93 553.82 1651.85 544.26 1653.18 536.98 1660.89 531.15 1676.65 535.42 1683.43 546.41 1704.86 565.81 1717 574.21 1728.76 585.58 1745.89 600.11 1696.67 601.66 1597.2 631.59 1561.65 627.55 1579.79 602.25 1579.79 602.25"/><polygon class="cls-124" points="1747.7 413.51 1661.88 409.93 1628.7 416.5 1545.37 444.38 1546.66 472.51 1523.69 512.61 1518.82 530.21 1533.55 512.2 1537.85 501.85 1541.89 502.51 1575.71 462.29 1590.46 462.57 1648.92 447.94 1664.53 445.5 1673.81 438.49 1698.96 428.91 1748.55 418.28 1747.7 413.51 1747.7 413.51"/><polygon class="cls-125" points="1484.79 330.72 1517.72 347.47 1539.63 367.86 1514.96 374.41 1498.37 376.98 1482.46 370.67 1472.46 369.39 1465.14 376.64 1451.26 385.33 1418.34 388.2 1393.14 387.16 1391.68 383.43 1386.29 330.19 1410.86 314 1484.79 330.72 1484.79 330.72"/><polygon class="cls-126" points="1512.91 365.89 1505.11 359.5 1498.41 350.25 1485.16 341.78 1465.11 333.81 1444.62 325.44 1423.99 322.5 1406.27 321.79 1390.16 325.63 1410.86 314 1484.79 330.72 1517.72 347.47 1539.63 367.86 1517.76 373.59 1512.91 365.89 1512.91 365.89"/><polygon class="cls-127" points="1760.22 459.63 1761.83 456.35 1761.84 456.31 1762.13 454.57 1762.23 453.43 1762.37 448.73 1762.18 448.32 1754.85 435.91 1750.35 424.99 1713.88 428.48 1607.41 444.24 1598.69 445.2 1548.39 458.56 1538.98 468.97 1537.11 486.53 1584.32 494.16 1596.23 500.66 1626.74 479.83 1652.08 474.19 1671.86 473.46 1672.42 473.91 1697.07 485.2 1700.01 484.75 1722.38 473.29 1753.45 463.95 1758.52 463.05 1760.22 459.63 1760.22 459.63"/><polygon class="cls-128" points="1754.85 435.91 1750.35 425 1713.88 428.48 1649.3 439.36 1655.35 444.49 1671.5 452.26 1697.11 456.51 1709.44 456.33 1721.78 450.13 1741.03 449.86 1753.6 449.7 1758.09 441.48 1754.85 435.91 1754.85 435.91"/><polygon class="cls-129" points="1388.86 461.74 1380.33 452.03 1379.69 442.64 1424.53 461.31 1438.15 468.03 1449.62 467.38 1497.53 477.3 1500.36 477.52 1507.73 480.63 1508.52 483.13 1507.07 489.38 1498.27 501.38 1492.93 505.66 1452.04 502.71 1433.12 490.33 1427.88 486.07 1427.48 485.41 1424.51 483.83 1412.04 488.83 1399.69 480.19 1399.04 478.93 1388.86 461.74 1388.86 461.74"/><polygon class="cls-130" points="1507.2 493.81 1489.38 490.67 1459.39 483.49 1446.6 467.67 1449.62 467.38 1497.53 477.3 1500.36 477.52 1507.73 480.63 1508.02 491.41 1507.2 493.81 1507.2 493.81"/><polygon class="cls-131" points="1820.43 562.99 1816.36 554.18 1806.03 551.24 1795.9 551.24 1780.7 544.05 1766.35 544.05 1752.84 546.89 1731.73 537.23 1721.71 548.42 1688.59 551.08 1717.55 574.57 1757.06 576.6 1774.79 579.49 1811.94 579.49 1829.78 579.31 1820.43 562.99 1820.43 562.99"/><polygon class="cls-132" points="1836.77 586.57 1822.7 568.02 1764.55 563.41 1698.92 560.43 1717.55 574.57 1735.23 592.49 1736.71 598.22 1748.01 605.04 1768.13 601.45 1851.52 596.46 1836.77 586.57 1836.77 586.57"/><polyline class="cls-133" points="1592.45 232.94 1577.57 255.34 1577.38 275.05 1570.26 291.87 1563.59 303.14 1547 254.05 1563.19 244.38 1575.96 233.84 1585 228.24 1594.2 231.68 1593.27 235.05"/><polyline class="cls-134" points="1521.33 252.65 1518.32 257.85 1519.13 264.71 1519.26 294.54 1503.89 258.25 1512.73 255.53 1517.23 251.25 1522.19 252.65"/><polygon class="cls-118" points="1326.94 614.19 1338.36 574.41 1364.43 569.67 1402.54 588.97 1405.29 591.93 1417.34 613.24 1326.94 614.19"/><path class="cls-135" d="M1836.77,586.57,1820.43,563l-4.07-8.81-.3-.08-3-6.22-.67-1.15h0l-.3-.36-2.27-2.82-1.46-1.74-.15-.11-1.71-1.42-12.11-7.62-.16-.09-.56-.27-3.15-1.55-8.67-4.37-23.6-24-3.38-25,5.4-14.3,1.61-3.28v0l.29-1.74.1-1.14v-.19l-.66.14.25-.51v0l.29-1.74.1-1.14.14-4.7h0l-.19-.41-1.08-1.83-6.25-10.58-7.22-25.62h0l-.5-1.78,2-21.63,1.8-8.15.46-3.24,0-1.39-.13-2.29-.16-1-1.33-6.55-2.52-10.35-1.19-1.07h0l.59-.28-4.38-3.11-32.09-28.93-2.81-2.72L1690,289.18l-3.09-5.71-5.56-5.48-3.19-1.89-.49-.26-1.71-.75-9.42-4.25-17.32-16.22-1.89-3.42-2.72-1.23-2.72-1.23-8.76-3.29-8.76-3.29-.21.41-7.18-2.5-9.83-38,1.3-1.65-2.2-1.81h0l-46-13.56-1.27-.4,0,0-.07,0-23.81,26.65-1.22-.25h-1.24l-1.53,0-1.72.36h0l-.84.47-.12.07-1,.72-.81.81-.8.81-2.11,2.52-2.1,2.52-10.33,11.21-19.74,11.45-4.74,2.66-7.12,4-5.09,1-6.66,3.44-8.43,4.35L1438.27,284h0l-17.88,22.32L1386.29,328l.21,2.07-.21.14,5.3,52.39-3.14,50-25.32,7.82-21,33.65-27.55,41.63.16,23.76-9,9.6L1280.07,563l-12.46,5.84-2.84,1.33h0l-72.42,23.3.77,2.29h0l23.35-.1-16.41.68,132.27-.94-5.39,18.8,90.4-1-10.25-18.13,5.52-.29h0l50.24-.13,1.22,1.15-2.31,2.07,1.09.27,30.9,29,40-2.79,63.42,7.22,99.47-29.93,43.36-1.44,8,4.82,20.12-3.59,83.39-5ZM1305,549.84h0l-7.94,4.2,7.94-4.2Z"/><path class="cls-136" d="M1617,239.81c-.81.87-2,1.89-2.11,3.05-.29,2.77,4.78,4.16,6.68,4.71,3.35,1,6.8,1.48,10.21,2.18,1.81.37,3.58.88,5.39,1.24,2.78.55,5.59.94,8.4,1.29l2.61.32-.77-1.4-2.72-1.23-2.72-1.23-8.76-3.29-8.76-3.29-.21.41-7.18-2.5Z"/><path class="cls-137" d="M1635.09,246.18l-1.93-.73-8.76-3.29-.21.41-7.18-2.5-.06-.26a8.58,8.58,0,0,0-2,2.61Q1625,244.34,1635.09,246.18Z"/><path class="cls-138" d="M1492,245.66c5.37-.74,10.32-3.3,15-6,2.42-1.4,4.79-2.87,7.22-4.26s5.32-2.48,7.9-3.84a24.88,24.88,0,0,1,6.33-2.69c2-.46,4.06-.72,6.07-1.19,3.53-.82,4.26-4,4.16-7.25s-.58-6.75,1.14-9.74c2.22-3.84,6.9-5.1,10.93-6.06,4.35-1.05,8.73-1.94,11.9-5.37,2.91-3.16,4.71-7.38,6.36-11.3l.12-.29-8.83-2.6-1.27-.4,0,0-.07,0-23.81,26.65-1.22-.25h-1.24l-1.53,0-1.72.36h0l-.84.47-.12.07-1,.72-.81.81-.8.81-2.11,2.52-2.1,2.52-10.33,11.21-19.74,11.45-4.74,2.66-2,1.12A43.57,43.57,0,0,0,1492,245.66Z"/><path class="cls-139" d="M1492,245.66c5.37-.74,10.32-3.3,15-6,2.42-1.4,4.79-2.87,7.22-4.26s5.32-2.48,7.9-3.84a24.88,24.88,0,0,1,6.33-2.69c2-.46,4.06-.72,6.07-1.19,3.53-.82,4.26-4,4.16-7.25s-.58-6.75,1.14-9.74c2.22-3.84,6.9-5.1,10.93-6.06,4.35-1.05,8.73-1.94,11.9-5.37,2.91-3.16,4.71-7.38,6.36-11.3l.12-.29-8.83-2.6-1.27-.4,0,0-.07,0-23.81,26.65-1.22-.25h-1.24l-1.53,0-1.72.36h0l-.84.47-.12.07-1,.72-.81.81-.8.81-2.11,2.52-2.1,2.52-10.33,11.21-19.74,11.45-4.74,2.66-7.12,4C1482.06,248.78,1489.6,246,1492,245.66Z"/><path class="cls-140" d="M1550.15,203.77c3.21-.62,6.68-.79,9.66-2.24l.21-.13a13,13,0,0,0,2.56-2.12c.22-.25.43-.51.65-.77a22.75,22.75,0,0,0,2.8-5.71c.65-1.81,1.18-3.65,1.73-5.49l-7.53-2.22-1.27-.4,0,0-.07,0-19.11,21.39C1543.19,205.18,1546.68,204.45,1550.15,203.77Z"/><path class="cls-141" d="M1490.35,243.72c2.27-1,4.58-1.9,6.88-2.82a77.12,77.12,0,0,0,12.72-6.84,64.65,64.65,0,0,0,10-7.71c3.08-2.94,5.55-6.48,9-9a11.2,11.2,0,0,1,4.74-2.26c1.14-.19,3.14-.06,2.73-1.65-.23-.9-.68-1.73-1-2.61l-.45.5-1.22-.25h-1.24l-1.53,0-1.72.36h0l-.84.47-.12.07-1,.72-.81.81-.8.81-2.11,2.52-2.1,2.52-10.33,11.21-19.74,11.45-4.74,2.66-2,1.12.84,0C1487.19,245.19,1488.76,244.43,1490.35,243.72Z"/><path class="cls-142" d="M1467.89,253.2l-8.43,4.35L1438.27,284h0l-17.88,22.32L1386.29,328l.17,1.69a47.52,47.52,0,0,0,8.39-5.42,8.26,8.26,0,0,1,4.29-1.94,10.68,10.68,0,0,1,3.56.18c3-2.26,6.09-4.5,9.25-6.56,4.59-3,9.27-5.95,13.17-9.84,3.47-3.46,5.77-7.62,8.35-11.74a25.3,25.3,0,0,1,10-9.58c3.59-1.79,7.37-3.42,10.51-6a25.22,25.22,0,0,0,6.42-8.54c1-2,1.65-4.21,2.78-6.14a17.2,17.2,0,0,1,3-3.42,12,12,0,0,0,3.26-5c.45-1.3.81-2.63,1.25-3.93Z"/><path class="cls-143" d="M1467.89,253.2l-8.43,4.35L1438.27,284h0l-17.88,22.32L1386.29,328l.21,2.07-.21.14,0,.53c.12-.19.24-.38.38-.56a8.29,8.29,0,0,1,1.81-1.58c1.6-1.13,3.17-2.29,4.79-3.39,1.38-.93,2.8-2.4,4.5-2.66a12.65,12.65,0,0,1,2.3.05,18.28,18.28,0,0,1,2.22.17c3.16-2.35,6.32-4.68,9.61-6.82,4.59-3,9.27-5.95,13.17-9.84,3.47-3.46,5.77-7.62,8.35-11.74a25.3,25.3,0,0,1,10-9.58c3.59-1.79,7.37-3.42,10.51-6a25.22,25.22,0,0,0,6.42-8.54c1-2,1.65-4.21,2.78-6.14a17.2,17.2,0,0,1,3-3.42,12,12,0,0,0,3.26-5c.45-1.3.81-2.63,1.25-3.93Z"/><path class="cls-144" d="M1393.59,324c4-2.29,8.13-4.18,12.06-6.52a126.56,126.56,0,0,0,10.47-7.17c3.1-2.3,6.38-4.47,9.31-7s4.21-5.49,6.23-8.47a93.24,93.24,0,0,1,8-9.93c3-3.39,6-6.82,9-10.23a112.8,112.8,0,0,1,8.74-9.28c3.86-3.46,8.11-6.5,12-9.9.42-1.24.77-2.5,1.19-3.74l-2.77,1.43-8.43,4.35L1438.27,284h0l-17.88,22.32L1386.29,328l.08.79A71,71,0,0,1,1393.59,324Z"/><path class="cls-145" d="M1404.89,320.58l-3.8,2.05c.42,0,.83.06,1.25.12,1.5-1.11,3-2.22,4.51-3.31C1406.2,319.83,1405.55,320.21,1404.89,320.58Z"/><g class="cls-146"><path class="cls-147" d="M1479.53,349.26c-.79-3-2.75-5.38-4.34-8A26,26,0,0,1,1473,337a33.35,33.35,0,0,0-1.32-3.49c-1.2-2.29-3.71-3.87-6-5-4.81-2.31-10.34-3.05-15.59-3.55s-10.44-.8-15.66-1.12q-11.67-.71-23.37-.89c-5.57-.09-11.15-.12-16.72-.14l-8.08,5.14.21,2.07-.21.14,5.3,52.39-1.49,23.78c10.68,1.63,21.33,3.51,32.16,3.36a68.33,68.33,0,0,0,21.67-3.86c6.88-2.39,13.54-5.63,20.56-7.62,5-1.42,10.53-2.44,14.83-5.54a8.17,8.17,0,0,0,3.54-6.06,27,27,0,0,0-.86-8.38c-.62-2.79-1.43-5.55-1.88-8.38A46.42,46.42,0,0,1,1480,360C1480.15,356.47,1480.44,352.73,1479.53,349.26Z"/><path class="cls-148" d="M1391.59,382.58l0,.64a28.32,28.32,0,0,0,.77-5.75,73.2,73.2,0,0,0-.86-11.25c-.25-2.22-.45-4.45-.74-6.67s-.81-4.32-1.23-6.47a32.67,32.67,0,0,1-.73-6.38c0-2.25.19-4.5.15-6.75a24.5,24.5,0,0,0-1.19-6.84,30,30,0,0,1-1.22-5.27l-.21.14.21,2.07-.21.14Z"/></g><path class="cls-149" d="M1387,433.05l.12.12c4.32,4.34,13.29,13.9,18.51,17.05,11.33,6.83,18.95,12.18,31.22,17.16,5.61-8.46,13.25-21.87,15.17-32.13,1.68-8.93-1.4-17.63-6.52-24.87a82.75,82.75,0,0,0-8.5-9.91,48,48,0,0,0-9.2-7.74c-5.92-3.59-13-2.78-19.56-4-6.21-1.18-11.66-4.06-16.79-7.52l.14,1.4-3.14,50Z"/><path class="cls-150" d="M1392.5,394.62c-.13-2.17-.52-4.32-.72-6.48-.14-1.49-.21-3-.26-4.47l-2.79,44.58c.11-.6.22-1.2.34-1.8.41-2.13,1-4.21,1.44-6.34a46.79,46.79,0,0,0,.5-6.58,31.45,31.45,0,0,0,0-6.65,12.75,12.75,0,0,1,.3-5.92A17.15,17.15,0,0,0,1392.5,394.62Z"/><path class="cls-151" d="M1356.41,539.84c5.59-1.74,4.12-8.55,7.91-13,4.57-5.38,10.67-16.81,12.73-23.49,2.42-7.82,7.15-21.91,7.72-30.07.57-7.92,10.09-1.8,8.44-9.59a83.6,83.6,0,0,0-6.43-17.71,98.54,98.54,0,0,0-6-11l-17.67,5.46-21,33.65-27.55,41.63,0,5.72c10.26,7.37,19.2,17.21,32.15,19.59C1353.2,542.18,1350.22,541.76,1356.41,539.84Z"/><path class="cls-152" d="M1356.41,539.84c5.59-1.74,4.12-8.55,7.91-13,4.57-5.38,10.67-16.81,12.73-23.49,2.42-7.82,7.15-21.91,7.72-30.07.57-7.92,10.09-1.8,8.44-9.59a83.6,83.6,0,0,0-6.43-17.71,98.54,98.54,0,0,0-6-11l-17.67,5.46-21,33.65-27.55,41.63,0,5.72c10.26,7.37,19.2,17.21,32.15,19.59C1353.2,542.18,1350.22,541.76,1356.41,539.84Z"/><path class="cls-153" d="M1323.37,504.74c1.5-2.78,2.81-5.61,4.56-8.24a81,81,0,0,1,5.73-7.45,182.69,182.69,0,0,0,11.82-16.46c3.91-5.81,7.82-11.62,11.6-17.52,1-1.51,1.92-3,2.92-4.53a21.71,21.71,0,0,0,2.07-3.51c.92-2.13.84-4.47,1.31-6.69l-.25.08-21,33.65-27.55,41.63v2A76.49,76.49,0,0,0,1323.37,504.74Z"/><path class="cls-154" d="M1363.13,440.42l16.56,18.48s16.89,5.13,17.79,5.44,38.94,11.47,38.94,11.47l1.73-7.78s-31-16.84-32.52-17.81-17.18-17.62-17.18-17.62Z"/><path class="cls-155" d="M1386.29,330.19l30.76-2.34s46.72,0,53.32,4.11,6.94-4.11,6.94-4.11l-39-7.65-30-6.2-22,14Z"/></g></g></g></svg>