<svg xmlns="http://www.w3.org/2000/svg" xmlns:xlink="http://www.w3.org/1999/xlink" viewBox="0 0 1418.89 344.03"><defs><style>.cls-1{isolation:isolate;}.cls-2,.cls-3{fill:#27074b;}.cls-2,.cls-23,.cls-24,.cls-25,.cls-26,.cls-27,.cls-28,.cls-29,.cls-30,.cls-31,.cls-32,.cls-33,.cls-34,.cls-35,.cls-36,.cls-37,.cls-38,.cls-39,.cls-40,.cls-41,.cls-42,.cls-43,.cls-44,.cls-45,.cls-46,.cls-48,.cls-49,.cls-50,.cls-51,.cls-52,.cls-53,.cls-54,.cls-55,.cls-56,.cls-57{fill-rule:evenodd;}.cls-2,.cls-32{opacity:0.5;}.cls-14,.cls-16,.cls-4,.cls-6{fill:#7d3647;}.cls-5{fill:#974e5f;}.cls-53,.cls-6{opacity:0.38;}.cls-7{fill:#c58677;}.cls-8{fill:#e7ab86;}.cls-9{fill:#c58675;}.cls-10{fill:#eec79e;}.cls-11{fill:#daaf8d;}.cls-12{fill:#b9796f;}.cls-13{fill:#fad5cc;}.cls-14{opacity:0.56;}.cls-15{fill:#ddbac7;}.cls-16{opacity:0.3;}.cls-17{fill:#bb796d;}.cls-18,.cls-27,.cls-42,.cls-43{mix-blend-mode:multiply;}.cls-19{fill:url(#linear-gradient);}.cls-20{fill:url(#linear-gradient-2);}.cls-21{fill:url(#linear-gradient-3);}.cls-22{fill:url(#linear-gradient-4);}.cls-23{fill:url(#Áåçûìÿííûé_ãðàäèåíò_42);}.cls-24{fill:url(#Áåçûìÿííûé_ãðàäèåíò_83);}.cls-25{fill:url(#Áåçûìÿííûé_ãðàäèåíò_83-2);}.cls-26{fill:url(#Áåçûìÿííûé_ãðàäèåíò_66);}.cls-27{fill:#8b3d5c;}.cls-27,.cls-42{opacity:0.67;}.cls-28{fill:url(#Áåçûìÿííûé_ãðàäèåíò_17);}.cls-29{fill:#a42f38;}.cls-30{fill:#822b36;}.cls-31{fill:url(#Áåçûìÿííûé_ãðàäèåíò_83-3);}.cls-32,.cls-44,.cls-45,.cls-47{fill:#ffffe5;}.cls-32,.cls-45{mix-blend-mode:soft-light;}.cls-33{fill:#cebdac;}.cls-34{fill:#ffe86d;}.cls-35{fill:#ffffac;}.cls-36{fill:#ffa654;}.cls-37{fill:#ea6a5f;}.cls-38{fill:#e25b38;}.cls-39{fill:#ffffe8;}.cls-40{fill:#a27897;}.cls-41{fill:#d1dbe8;}.cls-42{fill:#8877bd;}.cls-43{fill:#b3d168;}.cls-46{fill:url(#Áåçûìÿííûé_ãðàäèåíò_17-2);}.cls-47{opacity:0.53;}.cls-48{fill:#ab275f;}.cls-49{fill:#ffa479;}.cls-50,.cls-53,.cls-55{fill:#9f2247;}.cls-50{opacity:0.23;}.cls-51{fill:#ffcf9d;}.cls-52{fill:#f9d1c7;}.cls-54{fill:#ffcf92;}.cls-55{opacity:0.2;}.cls-56{opacity:0.44;fill:url(#linear-gradient-5);}.cls-57{fill:url(#linear-gradient-6);}</style><linearGradient id="linear-gradient" x1="159.34" y1="116.89" x2="427.73" y2="116.89" gradientUnits="userSpaceOnUse"><stop offset="0" stop-color="#5f3484" stop-opacity="0.46"/><stop offset="0.42" stop-color="#61356f" stop-opacity="0.28"/><stop offset="1" stop-color="#64364d" stop-opacity="0"/></linearGradient><linearGradient id="linear-gradient-2" x1="402.52" y1="221.7" x2="433.36" y2="221.7" xlink:href="#linear-gradient"/><linearGradient id="linear-gradient-3" x1="251.65" y1="261.98" x2="299.49" y2="261.98" xlink:href="#linear-gradient"/><linearGradient id="linear-gradient-4" x1="182.58" y1="225.25" x2="225.19" y2="225.25" xlink:href="#linear-gradient"/><radialGradient id="Áåçûìÿííûé_ãðàäèåíò_42" cx="-7444.4" cy="-491.73" r="8.03" gradientTransform="matrix(-0.99, 0.14, 0.18, 1.25, -6201.01, 1778.29)" gradientUnits="userSpaceOnUse"><stop offset="0.02" stop-color="#371b32"/><stop offset="0.99" stop-color="#2a1032"/></radialGradient><linearGradient id="Áåçûìÿííûé_ãðàäèåíò_83" x1="-7452.91" y1="796.46" x2="-7452.91" y2="691.58" gradientTransform="matrix(-0.99, 0.14, 0.14, 0.99, -6388.15, 473.88)" gradientUnits="userSpaceOnUse"><stop offset="0.02" stop-color="#5a959c"/><stop offset="0.95" stop-color="#3e5e6b"/></linearGradient><linearGradient id="Áåçûìÿííûé_ãðàäèåíò_83-2" x1="20.53" y1="796.12" x2="20.53" y2="691.25" gradientTransform="translate(950 -578.43) rotate(-8.16)" xlink:href="#Áåçûìÿííûé_ãðàäèåíò_83"/><linearGradient id="Áåçûìÿííûé_ãðàäèåíò_66" x1="-7448.61" y1="2644.37" x2="-7448.61" y2="2585.97" gradientTransform="matrix(-0.99, 0.14, 0.11, 0.74, -6558.87, -716)" gradientUnits="userSpaceOnUse"><stop offset="0.03" stop-color="#ffdbc7"/><stop offset="1" stop-color="#ffe3ca"/></linearGradient><linearGradient id="Áåçûìÿííûé_ãðàäèåíò_17" x1="1105.32" y1="210.71" x2="1105.32" y2="198.66" gradientUnits="userSpaceOnUse"><stop offset="0" stop-color="#ffae86"/><stop offset="1" stop-color="#ffe588"/></linearGradient><linearGradient id="Áåçûìÿííûé_ãðàäèåíò_83-3" x1="-7453.44" y1="-496.04" x2="-7433.6" y2="-496.04" gradientTransform="matrix(-0.99, 0.14, 0.18, 1.25, -6201.01, 1778.29)" xlink:href="#Áåçûìÿííûé_ãðàäèåíò_83"/><linearGradient id="Áåçûìÿííûé_ãðàäèåíò_17-2" x1="1318.81" y1="133.83" x2="1318.81" y2="125.34" xlink:href="#Áåçûìÿííûé_ãðàäèåíò_17"/><linearGradient id="linear-gradient-5" x1="1346.34" y1="146.23" x2="1307.72" y2="93.65" gradientUnits="userSpaceOnUse"><stop offset="0" stop-color="#5f3484"/><stop offset="0.21" stop-color="#60347a" stop-opacity="0.82"/><stop offset="0.66" stop-color="#623562" stop-opacity="0.38"/><stop offset="1" stop-color="#64364d" stop-opacity="0"/></linearGradient><linearGradient id="linear-gradient-6" x1="1232.73" y1="271.66" x2="1069.99" y2="68.23" xlink:href="#linear-gradient"/></defs><g class="cls-1"><g id="Layer_2" data-name="Layer 2"><g id="_7" data-name="7"><path class="cls-2" d="M1373.64,253.86l-2.17.42,1.65,1.48,10.38,7.3-119.22-3.36a86.43,86.43,0,0,1,9.32,5.24l20.75,6.5h0l2.31.72,3.16.27,19.18,6s.74.6-1.3.9l13.81,4.61s-2,1.1-9.77.17h-.1c-1.72-.21-3.7-.51-6-.95l-9.69-3.26h0l-3.5-1.16c-4.85-.53-7.76-1.11-7.76-1.11l-17.24-5.95c.52-.07,1.12-.12,1.76-.15l-3.72-1.25-4.38-1.41-13-4.45-1.66-.38c-30.9-7-60.94-15.25-85.15-23.44l-66.69-22.55-38.16-6.81,20.7-3.41,20.77-.11,17-6.67,42.32,2.39-12.34-1.13,80.9,4.56,24,4.77,3.41,1.75,4.88.89,11,4.46,9.59,2.89,15.94,4.05,27.69,8.66.45.14,3.35.83,12.2-4.06,3.93.43,42.21,19Zm-234-37L1196.28,235l-37.21-13.68-17.73-4.71Zm90.21,29c7,2.39,13.33,4.74,19,7l3.62-1.81Zm-94.93-41.69,27,8.49h0l-27-8.49Zm255.95,46.26-1.46.29,3-.45Z"/><polygon class="cls-3" points="318.91 263.8 345.79 265.53 367.49 266.92 369.15 266.78 368.44 268.09 346.3 270.99 319.88 272.99 303.29 271.92 296.96 274.82 295.27 275.86 301.56 275.54 325.79 274.79 290.51 303.42 275.22 310.71 282.39 311.67 287.49 313.1 286.4 314.18 264.88 319.49 262.24 320.68 218.63 324.51 218.52 324.52 217.52 325.09 208.81 328.19 208.42 327.47 204.27 327.27 203.17 326.79 199 326.56 192.6 332.4 217.01 331.88 216.59 332.63 64.11 344.03 64.08 342.83 65.69 342.36 63.36 342.21 38.9 334.27 51.7 326.94 54.1 322.6 58.01 319.72 51.17 320.22 0 314.64 9.54 304.12 6.31 299.12 19.67 289.67 57.28 268.12 61.52 266.38 62.23 265.93 64.05 260.51 67.33 258.63 98.85 259.51 98.86 259.5 95.42 259.41 79.66 253.89 53.49 247.33 54.91 246.52 74.19 244.83 90.71 239.83 95.01 239.34 125.01 247.59 158.4 237.63 155.98 235.28 162.31 230.88 172.82 228.21 170.53 223.47 173.98 221.5 220.65 211.96 230.13 213.14 230.13 213.14 233.06 212.72 383.53 226.79 381.34 228.04 367.41 234.95 336.46 246.37 334.96 246.97 319.29 263.58 318.91 263.8"/><polygon class="cls-3" points="405.26 246.82 391.9 251.51 388.53 253.83 378.52 257.66 373.64 257.43 377.98 255.29 378.87 253.68 375.38 253.51 370.36 250.81 378.51 247.46 381.41 247.12 385.44 244.76 387.41 242.23 406.65 234.75 408.34 235.15 411.13 235.8 422.42 235.52 428.8 236.24 424.44 238.05 415.01 243.02 417.54 243.28 414.99 245.57 405.26 246.82"/><polygon class="cls-4" points="192.38 67.77 209.1 53.34 192.38 132.82 189.97 124.12 189.97 84.72 192.38 67.77"/><polygon class="cls-5" points="246.84 231.66 216.95 213.11 216.95 209.5 225.02 201.94 220.55 196.44 221.58 188.54 226.57 184.93 210.93 159.51 210.25 142.67 184.99 140.78 184.99 137.35 190.83 128.24 194.36 77.82 196.93 75.42 196.93 72.32 208.27 41.57 254.83 37.79 259.38 39.34 260.24 34.19 264.19 26.8 264.19 13.4 293.48 2.92 295.45 2.92 294.85 1.98 296.49 0 397.8 34.83 397.11 36.12 379.16 32.68 375.81 44.54 388.52 48.4 416.74 59.31 417.17 61.54 426.53 72.54 425.93 74.43 412.44 76.15 399.5 132.08 374.08 135.74 344.07 193.24 250.39 233.78 246.84 231.66"/><polygon class="cls-6" points="194.36 77.82 196.93 75.42 196.93 72.32 226.85 77.82 230.29 80.14 230.29 81.52 194.36 77.82"/><polygon class="cls-4" points="207.5 142.47 233.95 144.62 245.86 148.4 247.81 148.4 246.9 180.07 247.81 213.74 250.39 233.78 248.71 232.78 246.44 213.16 225.02 201.94 220.55 196.44 221.58 188.54 226.57 184.93 245.98 191.18 245.41 179.72 246.32 149.72 242.09 148.46 214.33 165.04 180.41 175.43 177.78 174.17 171.82 164.2 159.34 159.39 159.34 157.91 188.09 149.89 207.5 142.47"/><polygon class="cls-5" points="239.51 147.83 213.21 163.2 177.78 174.17 180.41 175.43 214.33 165.04 242.09 148.46 239.51 147.83"/><polygon class="cls-7" points="247.81 148.4 245.86 148.4 233.95 144.62 234.7 115.53 230.29 81.52 230.29 80.14 226.85 77.82 254.83 37.79 259.38 39.34 260.35 53.34 245.92 123.38 245.86 144.05 247.81 148.4"/><polygon class="cls-8" points="296.49 0 304.62 21.5 336.57 22.99 352.26 26.2 359.82 26.2 397.8 34.83 296.49 0"/><polygon class="cls-9" points="295.8 4.55 290.87 32.84 316.3 40.06 326.72 43.03 343.9 42.35 376.24 43.03 379.16 32.68 359.82 28.49 342.41 25.86 320.88 23.79 302.67 22.76 295.8 4.55"/><polygon class="cls-10" points="264.53 28.6 290.87 32.84 326.72 43.03 343.9 42.35 376.24 43.03 379.75 43.03 381.24 42.35 384.67 42.46 385.93 41.32 388.45 47.33 388.45 60.04 394.87 81.57 368.24 76.93 346.59 73.27 335.02 70.41 321.28 69.38 272.84 57.46 264.53 28.6"/><polygon class="cls-11" points="342.13 49.68 326.09 44.52 316.3 40.06 326.72 43.03 343.9 42.35 379.75 43.03 381.24 42.35 384.67 42.46 385.93 41.32 388.45 47.33 388.45 60.04 342.13 49.68"/><polygon class="cls-7" points="263.62 32.21 261.21 37.79 262.93 51.57 255.03 93.71 302.79 97.83 327.98 97.83 380.66 101.39 382.95 102.99 388.45 83.41 346.19 75.5 333.25 72.07 319.85 70.81 271.06 58.55 263.62 32.21"/><polygon class="cls-8" points="408.67 57.81 415.08 60.56 416.22 63.19 425.93 74.43 420.12 76.25 406.95 77.85 408.67 57.81"/><polygon class="cls-9" points="410.46 56.88 415.31 90.68 404.08 141.47 386.56 137.69 380.72 136.09 382.95 102.99 388.45 83.41 394.87 82.66 394.87 81.57 388.45 60.04 388.52 48.4 410.46 56.88"/><polygon class="cls-12" points="380.72 143.82 397.15 143.82 414.68 149.89 427.73 156.99 411.01 156.42 392 156.99 380.72 156.99 380.72 143.82"/><polygon class="cls-8" points="380.72 158.82 407 158.82 425.44 158.82 426.53 159.22 427.73 156.99 411.01 156.42 380.72 156.99 380.72 158.82"/><polygon class="cls-8" points="250.39 233.78 247.81 213.74 246.9 180.07 247.81 148.4 252.91 150.06 268.02 150.29 294.02 152.69 318.59 153.95 364.86 157.82 384.16 157.16 384.16 159.22 373.96 188.2 374.31 189.34 382.73 211.39 384.16 224.22 384.16 226.51 335.88 228.17 250.39 233.78"/><polygon class="cls-13" points="342.81 166.61 339.83 172.16 337.2 181.84 345.19 191.09 347.62 193.27 349.45 204.29 289.33 206.24 288.93 194.38 287.5 192.53 280.39 186.42 280.91 175.89 280.39 170.43 342.81 166.61"/><polygon class="cls-9" points="280.68 215.05 258.58 225.25 250.14 231.87 250.39 233.78 384.16 226.51 381.64 225.25 292.48 217.29 287.55 216.94 280.68 215.05"/><polygon class="cls-6" points="247.93 214.63 258.69 212.48 277.47 210.19 296.37 210.99 292.13 208.58 288.24 207.9 283.89 205.95 256.63 194.38 288.93 194.38 349.34 193.24 373.96 188.2 380.21 170.43 339.83 172.16 280.91 175.89 246.9 180.07 247.93 214.63"/><polygon class="cls-14" points="384.16 157.16 384.16 159.22 380.21 170.43 338.81 172.23 280.91 175.89 246.9 180.07 247.81 148.4 252.91 150.06 268.02 150.29 292.98 152.59 364.86 157.82 384.16 157.16"/><polygon class="cls-9" points="298.03 211.85 300.78 210.82 307.31 211.85 298.03 211.85"/><polygon class="cls-13" points="353.23 215.05 355.07 205.66 371.9 207.27 371.9 218.26 353.23 215.05"/><polygon class="cls-15" points="417.9 206.58 417.9 209.5 415.75 211.56 412.32 211.56 402.87 214.63 404.07 219.29 406.05 219.89 405.36 223.07 402.52 226.34 406.13 236.81 412.06 235.78 421.68 236.81 428.72 236.3 428.12 233.78 428.72 227.02 431.47 226.85 433.36 223.84 426.92 221.7 423.48 215.05 424.69 211.96 422.71 206.58 417.9 206.58"/><polygon class="cls-16" points="419.1 228.74 408.37 225.39 409.57 218.95 423.05 219.29 423.48 215.05 426.92 221.7 433.36 223.84 426.53 224.1 423.74 228.74 424.86 230.8 422.71 236.74 421.68 236.81 415.67 236.17 419.1 228.74"/><polygon class="cls-16" points="408.37 236.43 406.65 230.54 411.11 228.91 406.65 225.39 404.67 227.19 403.34 225.39 402.52 226.34 406.13 236.81 408.37 236.43"/><polygon class="cls-16" points="402.87 214.63 405.75 215.05 405.75 216.2 406.35 217.83 415.75 211.56 412.32 211.56 402.87 214.63"/><path class="cls-15" d="M283.52,239.13l3.26,2.92-.86,4.21s6.87,10.1,7.73,11.51l-5.07,5.84,2.06,5.24,7.65,1.81-1.63,5.67,2.83,6-9.88-1.72-11.68,1.72-1.2-3.52-11.68,6L262.56,280H251.65l11.08-4.55h1.72l5.06-2-3.95-7.3s1.55-5.93,2-6.1-1-9.62-1-9.62l9.8-2.66Z"/><path class="cls-16" d="M285.32,272.29l-5.84-16.92,10,3.86,4.21-1.46-5.07,5.84,2.06,5.24,7.65,1.81-1.63,5.67,2.83,6-9.88-1.72-11.68,1.72s2.45-9.23,2.75-9.28,5.33,6,5.33,6l5.06-4.21Z"/><polygon class="cls-16" points="276.73 278.82 274.84 269.37 262.56 280.02 265.05 284.83 276.73 278.82"/><polygon class="cls-16" points="267.54 260.09 268.57 252.71 273.04 256.4 271.92 260.61 266.32 267.58 265.56 266.19 267.54 260.09"/><polygon class="cls-16" points="276.39 247.81 279.13 249.18 283.51 239.13 276.39 247.81"/><path class="cls-15" d="M192.49,217.8l5.62-10,2.34,3.44,4.7-2.64,4.7,3.55-.35,9s6,7.08,7.62,7.62l-1.43,7.73,6.75,1.89,2.75,2.35-6.41.34-8.08,1.66L204.86,239s-1.57.43-1.77.86-7.27.51-7.27.51l-3-.91.52-2.23-3,2.8s-8-1.52-7.73-1.49,1.77-5.95,1.77-5.95l1.66-.92-1.6-6.41s5.58-3,6-3.09,2.4-.12,2.4-.12l2-1.2Z"/><polygon class="cls-16" points="195.3 237.96 200.28 225.25 201.2 224.9 201.71 231.43 209.9 235.67 209.62 237.22 210.7 242.71 204.86 238.99 203.09 239.85 195.82 240.37 195.3 237.96"/><polygon class="cls-16" points="193.3 237.22 192.21 228.45 188.37 235.04 184.36 232.58 182.59 238.53 190.32 240.02 193.3 237.22"/><polygon class="cls-16" points="184.42 225.25 191.35 225.65 193.01 225.25 195.59 223.47 195.87 220.38 192.49 217.8 194.78 220.84 192.78 222.04 190.38 222.16 184.42 225.25"/><polygon class="cls-16" points="215.69 236.47 216.43 239.22 222.44 238.36 215.69 236.47"/><polygon class="cls-16" points="217.12 228.74 210.7 233.49 209.04 228.74 207.73 225.65 203.43 219.01 206.07 215.57 203 211.56 200.45 211.22 205.15 208.58 209.84 212.13 209.5 221.12 217.12 228.74"/><polygon class="cls-17" points="415.31 90.68 410.46 56.88 388.52 48.4 388.45 60.04 394.87 82.66 388.45 83.41 382.95 102.99 380.72 136.09 386.56 137.69 415.31 90.68"/><polygon class="cls-11" points="264.53 28.6 321.28 69.38 272.84 57.46 264.53 28.6"/><polygon class="cls-8" points="255.03 93.71 302.79 97.83 327.98 97.83 380.66 101.39 382.95 102.99 383.47 110.66 382.1 138.38 383.47 146.17 382.44 154.53 384.16 157.16 364.86 157.82 318.59 153.95 291.96 152.58 268.02 150.29 252.91 150.06 247.81 148.4 247.3 125.77 255.03 93.71"/><polygon class="cls-13" points="258.86 118.74 259.67 135 276.96 130.99 279.82 113.7 258.86 118.74"/><polygon class="cls-13" points="286.12 139.92 291.85 108.66 350.6 106.94 342.93 144.96 286.12 139.92"/><g class="cls-18"><polygon class="cls-19" points="384.16 158.82 407 158.82 425.44 158.82 426.53 159.22 427.73 156.99 414.68 149.89 397.15 143.82 383.06 143.82 382.1 138.38 382.19 136.49 386.56 137.69 404.08 141.47 415.31 90.68 413.36 77.07 420.12 76.25 425.93 74.43 426.53 72.54 417.17 61.54 416.74 59.31 388.52 48.4 388.45 48.38 388.45 47.33 385.93 41.32 384.67 42.46 381.24 42.35 379.75 43.03 376.25 42.97 379.16 32.68 397.11 36.12 397.8 34.83 296.49 0 294.85 1.98 295.45 2.92 293.48 2.92 264.19 13.4 264.19 26.8 260.24 34.19 259.38 39.34 254.83 37.79 208.27 41.57 201.52 59.88 192.38 67.77 189.97 84.72 189.97 124.12 190.89 127.43 190.83 128.24 184.99 137.35 184.99 140.78 210.25 142.67 210.25 142.69 207.5 142.47 188.09 149.89 159.34 157.91 159.34 159.39 171.82 164.2 177.78 174.17 180.41 175.43 214.33 165.04 226.57 184.93 221.58 188.54 220.55 196.44 225.02 201.94 216.95 209.5 216.95 213.11 246.84 231.66 248.71 232.78 248.71 232.78 250.39 233.78 384.16 226.51 384.16 224.22 382.73 211.39 374.31 189.34 373.96 188.2 384.16 159.22 384.16 158.82"/><polygon class="cls-20" points="426.92 221.7 423.48 215.05 424.69 211.96 422.71 206.58 417.9 206.58 417.9 209.5 415.75 211.56 412.32 211.56 402.87 214.63 404.07 219.29 406.05 219.89 405.36 223.07 402.52 226.34 406.13 236.81 408.37 236.43 412.06 235.78 421.68 236.81 428.72 236.3 428.12 233.78 428.72 227.02 431.47 226.85 433.36 223.84 426.92 221.7"/><path class="cls-21" d="M298.29,270.66l-7.65-1.81-2.06-5.24,5.07-5.84c-.86-1.41-7.73-11.51-7.73-11.51l.86-4.21-3.26-2.92-7.13,8.68-9.8,2.66s1,7,1,9l-.08.57c-.43.17-2,6.1-2,6.1l.76,1.39h0l3.19,5.91-5.06,2h-1.72L251.65,280h10.91l2.49,4.81,11.68-6,1.2,3.52,11.68-1.72,9.88,1.72-2.83-6Z"/><path class="cls-22" d="M215.69,236.47l1.43-7.73-7.62-7.62.35-9-4.7-3.55-4.7,2.64-2.34-3.44-5.62,10,2.29,3-2,1.2s-2,.06-2.4.12-6,3.09-6,3.09l1.6,6.41-1.66.92-1.77,5.95c-.23,0,7.73,1.49,7.73,1.49l3-2.8-.52,2.23,3,.91s7.07-.08,7.27-.51l1.77-.86,5.84,3.72,8.08-1.66,6.41-.34-2.75-2.35Z"/></g><path class="cls-23" d="M1088.05,104.45s-10.12,3.44-18.08,2.59A23.86,23.86,0,0,1,1088.05,104.45Z"/><path class="cls-24" d="M1110.19,202.89l-4.43-44.5a67.08,67.08,0,0,0-18.91-40.4h0l-1.17-17.54-7.59,1.09L1093,205.3Z"/><path class="cls-25" d="M1075.78,207.83l-8.41-44.74a64.9,64.9,0,0,1,6.56-42.59l.38-.71-3.12-17.26,6.9-1L1093,205.3Z"/><path class="cls-26" d="M1096,193h0c-5.58.8-10.6-1.95-11.2-6.15l-4-28.19c-.54-3.81,2.75-7.62,7.73-8.8a25.12,25.12,0,0,1,3-.53c5.44-.59,10.23,2.38,10.65,6.47l2.88,28.39C1105.5,188.32,1101.49,192.22,1096,193Z"/><path class="cls-27" d="M1079,119.13l-2.91-10a28.41,28.41,0,0,1,10-2.78l0-.14c-.32-1,.51-3.56-.53-3.53-2,.06-9.34-.08-13.38,1-1.12.29.09,3.68.22,4.84l.36,3.4,1.61,7.89-.38.71a64.9,64.9,0,0,0-6.56,42.59l8.41,44.74,7.14-1-7.62-46.19A83.79,83.79,0,0,1,1079,119.13Z"/><polygon class="cls-28" points="1066.27 210.71 1079.94 198.66 1144.36 207.33 1066.27 210.71"/><path class="cls-29" d="M1084.45,98.57,1082,84.14s-7.64-2.42-12,2.25l2.53,13.89S1077,96.9,1084.45,98.57Z"/><path class="cls-30" d="M1071,92.19a12,12,0,0,1,9.68-2.86l-1-4.78s-1-1-7.19,0a16,16,0,0,1,9.45-.38l1.65,10-12,2Z"/><path class="cls-31" d="M1088.05,104.45A37.45,37.45,0,0,0,1070,107l-2.29-10.53s9.11-6.3,19.64-2.82Z"/><path class="cls-32" d="M1069.26,96s14.65-2.23,18.79,8.44l-.73-10.76A21.55,21.55,0,0,0,1069.26,96Z"/><path class="cls-32" d="M1083.49,109V121.6s10.7,12.39,10.65,35.91a276.69,276.69,0,0,0,2.86,41.15l10.47,1.47s2.11-62.89-21.39-80.64l-.58-12Z"/><path class="cls-33" d="M1067.68,96.51s2-2.47,9.42-3.87,10.22,1,10.22,1A30.17,30.17,0,0,0,1067.68,96.51Z"/><polygon class="cls-34" points="1373.36 124.14 1371.27 134.31 1333.2 133.31 1344.84 95.52 1347.96 97.13 1352.9 109.1 1354.27 109.74 1356.55 108.36 1370.79 108.77 1372.57 122.92 1373.36 124.14"/><path class="cls-35" d="M1373.36,124.14l-3.34.37s-12,7.63-12.24,7.71-6-2.66-6-2.66l.61-13-2.84-5-5.33,0-.68-1.58,1.26-14.38,3.13,1.61,4.94,12,1.37.64,2.28-1.38,14.24.41,1.78,14.15Z"/><polygon class="cls-36" points="1346.11 97.11 1347.65 97.7 1352.45 109.48 1354.17 110.18 1356.26 109.38 1369.71 109.91 1371.15 122.89 1369.34 123.4 1358 131.02 1352.75 129.42 1353.67 116.67 1349.92 110.88 1344.9 110.88 1344.39 109.75 1346.11 97.11"/><polygon class="cls-37" points="1347.65 97.7 1347.32 111 1344.9 110.88 1344.39 109.75 1346.11 97.11 1347.65 97.7"/><polygon class="cls-37" points="1357.78 132.22 1357.28 133.94 1371.27 134.31 1373.36 124.14 1370.02 124.51 1357.78 132.22"/><path class="cls-38" d="M1315.45,86.56l0-3.19a3.39,3.39,0,0,1,3.81-3.3,10.41,10.41,0,0,1,1.09.2,3.37,3.37,0,0,1,2.22,4.9l-1.34,2.47Z"/><polygon class="cls-39" points="1300.76 128.06 1302.5 99.17 1314.51 92.49 1318.82 93.28 1324.89 100.74 1317.65 130.98 1300.76 128.06"/><polygon class="cls-40" points="1318.82 93.28 1321.72 93.65 1331.66 101.59 1324.31 132.16 1316.7 130.81 1324.89 100.74 1318.82 93.28"/><polygon class="cls-40" points="1314.51 92.49 1314.55 86.7 1322.63 87.88 1321.72 93.65 1318.82 93.28 1314.51 92.49"/><path class="cls-41" d="M1313.62,84.09l.12,3.53s3.58-1,9.31,1.71l1-3.63S1319.13,81.23,1313.62,84.09Z"/><path class="cls-42" d="M1302.5,126.06c.68,1.75,18.81,5.38,20.7,3.81s5.72-25.19,5.72-28.28c0,0-3.08-3.08-8.55-8.2l.75-4.87a15,15,0,0,0-5.86-1.08l.16,5.33s-8.88,4.32-10.59,6.83S1302.12,125.07,1302.5,126.06Z"/><path class="cls-43" d="M1325,128.79l6.68-27.2-9.93-7.88.63-4.22h0l.69-.16,1-3.63s-4.93-4.47-10.44-1.61l.12,3.53.18,0-.18,0,.7.42h0l.07,4.45-12,6.68-1.74,28.89,16.89,2.92,6.66,1.18.5-2.52h0Z"/><path class="cls-38" d="M1313.74,87.62l.7.42,0-.14s4.88-.09,7.9,1.59l.69-.16S1318.43,86.27,1313.74,87.62Z"/><path class="cls-32" d="M1302.5,99.17s15.22-.65,22.39,1.57l-6.08-7.46-4.3-.79Z"/><polygon class="cls-44" points="1304.39 98.55 1313.14 93.91 1315.9 94.05 1312.13 98.51 1304.39 98.55"/><polygon class="cls-44" points="1316.38 94.79 1313.82 97.41 1316.77 97.95 1318.01 95.09 1316.38 94.79"/><polygon class="cls-45" points="1322.74 129.26 1325.27 115.62 1327.46 116.03 1324.82 129.65 1322.74 129.26"/><polygon class="cls-46" points="1284.39 132.64 1297.85 125.34 1353.23 133.83 1284.39 132.64"/><ellipse class="cls-47" cx="1309.9" cy="114.27" rx="8.53" ry="6" transform="translate(1067.55 1406.62) rotate(-84.36)"/><polygon class="cls-48" points="1140.36 125.86 1110.39 139.4 1102.34 155.55 1114.44 194.45 1109.06 219.3 1144.62 228.81 1138.9 150.09 1140.36 125.86"/><polygon class="cls-49" points="1110.39 139.4 1077.61 129.09 1191.94 115.59 1207.81 128.75 1238.94 133.93 1134.73 138.37 1131.73 141.71 1122.22 139.12 1117.98 144.78 1110.39 139.4"/><polygon class="cls-50" points="1122.22 139.12 1131.73 141.71 1134.73 138.37 1140.7 138.11 1142.19 126.57 1237.04 133.62 1207.81 128.75 1194.74 117.91 1193.98 127.02 1140.36 125.86 1137.79 131.29 1121.36 130.47 1120.13 134.25 1077.61 129.09 1110.39 139.4 1117.98 144.78 1122.22 139.12"/><polygon class="cls-51" points="1077.61 129.09 1191.94 115.59 1206.08 129.61 1238.84 133.75 1258.5 165.83 1239.51 133.01 1207.45 128.81 1192.25 114.05 1077.61 129.09"/><polygon class="cls-49" points="1144.62 228.81 1143.11 208.02 1141.24 203.96 1142.49 199.47 1137.79 193.59 1140.38 189.26 1137.79 175.43 1138.9 150.09 1140.36 125.86 1238.84 133.75 1232.38 162.62 1233.41 178.37 1231.15 185.8 1231.15 190.99 1234.61 198.77 1232.88 200.5 1235.05 203.49 1235.48 210.01 1144.62 228.81"/><polygon class="cls-52" points="1184.68 198.77 1181.88 165.06 1227.19 174.77 1222.51 205.69 1184.68 198.77"/><polygon class="cls-52" points="1175.83 191.86 1174.96 172.84 1149.89 170.24 1150.96 184.72 1175.83 191.86"/><polygon class="cls-53" points="1232.88 200.5 1234.61 198.77 1231.15 190.99 1231.15 185.8 1233.41 178.37 1232.38 162.62 1233.41 159.63 1233.21 159.61 1239.6 136.5 1156.1 129.2 1140.36 125.86 1138.9 150.09 1189.04 156.81 1227.19 174.77 1220.4 191.86 1227.19 197.04 1222.17 202.76 1204.53 204.77 1175.83 222.35 1235.48 210.01 1235.05 203.49 1232.88 200.5"/><polygon class="cls-54" points="1238.84 133.75 1258.5 165.83 1185.33 147.76 1152.82 153.67 1140.36 125.86 1238.84 133.75"/><polygon class="cls-48" points="1077.61 129.09 1076.58 131.39 1110.32 141.59 1110.39 139.4 1077.61 129.09"/><polygon class="cls-48" points="1258.5 165.83 1256.24 166.77 1185.33 149.49 1152.55 154.91 1139.7 129.43 1140.36 125.86 1152.79 152.93 1185.33 146.9 1258.5 165.83"/><polygon class="cls-55" points="1140.36 125.86 1187.06 147.76 1152.82 153.67 1140.36 125.86"/><polygon class="cls-53" points="1137.79 175.43 1116.17 178.89 1105.3 165.06 1114.44 194.45 1111.67 207.26 1143.11 208.02 1141.24 203.96 1142.49 199.47 1137.79 193.59 1140.38 189.26 1137.79 175.43"/><polygon class="cls-53" points="1137.79 175.43 1155.08 177.16 1181.88 187.53 1154.08 185.86 1140.38 189.26 1137.79 175.43"/><polygon class="cls-53" points="1233.41 178.37 1224.24 184.07 1203.49 193.59 1181.88 192.29 1206.08 197.04 1231.15 190.99 1231.15 185.8 1225.91 187.71 1233.41 178.37"/><polygon class="cls-53" points="1234.61 198.77 1215.28 198.77 1188.31 206.74 1216.46 200.5 1232.88 200.5 1234.61 198.77"/><polygon class="cls-53" points="1142.49 199.47 1172.37 202.23 1141.24 203.96 1142.49 199.47"/><polygon class="cls-53" points="1137.79 193.59 1151.06 191.86 1166.32 196.18 1146.86 197.04 1142.49 199.47 1137.79 193.59"/><polygon class="cls-53" points="1165.45 193.59 1175.83 201.72 1189.25 197.65 1200.7 199.47 1189.25 195.66 1175.83 195.66 1162.12 190 1158.53 190 1165.45 193.59"/><polygon class="cls-53" points="1109.06 219.3 1130 214.33 1144.21 223.2 1163.71 219.94 1187.06 213.24 1235.48 210.01 1144.62 228.81 1109.06 219.3"/><polygon class="cls-53" points="1110.39 139.4 1116.17 149.49 1118.31 170.24 1120.49 147.76 1122.22 139.12 1117.98 144.78 1110.39 139.4"/><polygon class="cls-53" points="1126.73 140.35 1130.87 171.97 1133.46 142.58 1134.73 138.37 1131.73 141.71 1126.73 140.35"/><path class="cls-56" d="M1373.36,124.14l-.79-1.22-1.78-14.15-14.24-.41-2.28,1.38-1.37-.64-4.94-12-3.13-1.61L1334,130.88l-9-1.38,6.71-27.91-9.93-7.93.31-2,.34-2.14.67-.16.5-1.81.51-1.82h0a9.31,9.31,0,0,0-1.28-.93,3.36,3.36,0,0,0-2.38-4.5,10.41,10.41,0,0,0-1.09-.2,3.39,3.39,0,0,0-3.81,3.3h0a8.08,8.08,0,0,0-1.88.71l.12,3.53.18,0h0l-.18,0,.7.42h0l.07,4.45-12,6.68-1.61,26.64-3-.47-13.46,7.3,68.14,1.18,18.74.49Z"/><path class="cls-57" d="M1211.07,129.29l-3.26-.54-3-2.46-12.61-12.24-98,12.86a67.11,67.11,0,0,0-7.35-8.92l-.78-11.62h0l-.09-1.3c1.28-.36,2.06-.62,2.06-.62l-.73-10.76a7.81,7.81,0,0,0-3.92-1.36L1082,84.14s-5.1-1.61-9.37.35l-.08,0h0a8.56,8.56,0,0,0-2.62,1.87l1.06,5.8h0l.33,2.07a9.72,9.72,0,0,0-3.69,2.25L1070,107c.68.07,1.36.11,2.06.13l.4,2.22.27,2.51,1.61,7.89-.38.71a64.9,64.9,0,0,0-6.56,42.59l7.53,40-8.63,7.6,45.07-2-2.28,10.54,35.56,9.51,31.2-6.46h0L1235.48,210l-.43-6.52-2.17-3,1.73-1.73-3.46-7.78V185.8l2.26-7.43-1-15.5,0-.25.53-1.54,23.34,5.69,2.25-.94-19-32.82Zm-100.9,73.44L1107,170.39l7.48,24.06-1.86,8.61ZM1104.6,151a66.6,66.6,0,0,0-3.91-12.34l8.74,2.64Zm39.61,72.18-1.1-15.18h0l1.1,15.18Zm92.71-89.6-2.21-.37,4.12.52Z"/><path class="cls-2" d="M1393.66,140.73l1.39.78,23.84,9.36-14.25-.1-4.92-1-.27.39L1416,158l-.36,1-75.7-23.79-7,.69,57.76,18.72,4,5,4,1.36,4.25,1.43,1,.12,3.83,1.22,3.83,1.22h0a1.3,1.3,0,0,1,.34.59c4.2,1.27,7,2.68,5.69,2.93a7.92,7.92,0,0,1-.8.1c-1.62.12-6.31-.95-10-2.29h0c-.92-.12-2-.28-3.26-.52l-6.3-2.35.26,0h0l-.26,0v-.25h0l-8-3-24.79-4.76-50.09-17.74L1312,138l-27.6-5.31,69.76,1.1,18.83.17Z"/></g></g></g></svg>