<svg xmlns="http://www.w3.org/2000/svg" xmlns:xlink="http://www.w3.org/1999/xlink" viewBox="0 0 1711.9 621.18"><defs><style>.cls-1,.cls-10,.cls-11,.cls-12,.cls-13,.cls-16,.cls-17,.cls-18,.cls-19,.cls-2,.cls-20,.cls-21,.cls-22,.cls-24,.cls-25,.cls-26,.cls-27,.cls-28,.cls-29,.cls-3,.cls-30,.cls-31,.cls-32,.cls-33,.cls-34,.cls-35,.cls-36,.cls-37,.cls-38,.cls-39,.cls-4,.cls-40,.cls-41,.cls-42,.cls-43,.cls-45,.cls-46,.cls-47,.cls-48,.cls-49,.cls-5,.cls-50,.cls-51,.cls-52,.cls-53,.cls-54,.cls-55,.cls-56,.cls-57,.cls-58,.cls-59,.cls-6,.cls-60,.cls-61,.cls-62,.cls-63,.cls-64,.cls-65,.cls-66,.cls-68,.cls-69,.cls-7,.cls-70,.cls-71,.cls-72,.cls-73,.cls-74,.cls-75,.cls-76,.cls-77,.cls-8,.cls-9{fill-rule:evenodd;}.cls-1{fill:url(#linear-gradient);}.cls-2{fill:#37191c;}.cls-3{fill:url(#linear-gradient-2);}.cls-4{fill:#1b0c12;}.cls-5{fill:#1c0c11;}.cls-6{fill:#371b16;}.cls-7{fill:#391c16;}.cls-8{fill:#1b0b0b;}.cls-9{fill:#441f1d;}.cls-10{fill:#421e1d;}.cls-11{fill:#251014;}.cls-12{fill:#3d1e17;}.cls-13{fill:#271312;}.cls-14,.cls-22{fill:#431f00;}.cls-15{fill:url(#Áåçûìÿííûé_ãðàäèåíò_106);}.cls-16{fill:url(#Áåçûìÿííûé_ãðàäèåíò_55);}.cls-17,.cls-36,.cls-68{fill:#160910;}.cls-17{opacity:0.53;}.cls-18{fill:#361a16;}.cls-19{fill:#2c1513;}.cls-20{fill:url(#Áåçûìÿííûé_ãðàäèåíò_55-2);}.cls-21{fill:#281313;}.cls-23{opacity:0.4;}.cls-24{fill:#30191e;}.cls-25{fill:#2f171d;}.cls-26{fill:#3e2021;}.cls-27{fill:#2d151c;}.cls-28{fill:#6c392c;}.cls-29{fill:#f4ae85;}.cls-30{fill:#2e181e;}.cls-31{fill:#52291c;}.cls-32{fill:#6c3422;}.cls-33{fill:url(#linear-gradient-3);}.cls-34{fill:#2d1419;}.cls-35{fill:url(#linear-gradient-4);}.cls-37{fill:url(#linear-gradient-5);}.cls-38{fill:#2b1513;}.cls-39{fill:#150909;}.cls-40{fill:#3a1b1b;}.cls-41{fill:#1e0d12;}.cls-42{fill:#321914;}.cls-43{fill:#200f10;}.cls-44{fill:#371a00;}.cls-45{fill:#231010;}.cls-46{fill:#1f0e10;}.cls-47{fill:#391c17;}.cls-48{fill:#331b1d;}.cls-49{fill:#341b1e;}.cls-50{fill:#422320;}.cls-51{fill:#5b3126;}.cls-52{fill:#241219;}.cls-53{fill:#452318;}.cls-54{fill:#6b301c;}.cls-55{fill:#361b16;}.cls-56{fill:url(#linear-gradient-6);}.cls-57{fill:#2c141b;}.cls-58{fill:url(#linear-gradient-7);}.cls-59{fill:#16090f;}.cls-60{fill:#15090f;}.cls-61{fill:#1b0c10;}.cls-62{fill:#130809;}.cls-63{fill:#37191a;}.cls-64{fill:#1c0c13;}.cls-65{fill:#311814;}.cls-66{fill:#1e0e11;}.cls-67{fill:#361900;}.cls-68{opacity:0.72;}.cls-69{fill:#211011;}.cls-70{fill:#1e0e10;}.cls-71{fill:#371b17;}.cls-72{fill:#25131a;}.cls-73{fill:#321a1d;}.cls-74{fill:#422221;}.cls-75{fill:#5d3128;}.cls-76{fill:#442219;}.cls-77{fill:#692f1d;}</style><linearGradient id="linear-gradient" x1="706.8" y1="275.83" x2="706.8" gradientUnits="userSpaceOnUse"><stop offset="0" stop-color="#321822"/><stop offset="0.31" stop-color="#3c1d22"/><stop offset="0.84" stop-color="#582c24"/><stop offset="1" stop-color="#623124"/></linearGradient><linearGradient id="linear-gradient-2" x1="638.1" y1="521.24" x2="638.1" y2="116.25" gradientUnits="userSpaceOnUse"><stop offset="0" stop-color="#1d0d18"/><stop offset="0.25" stop-color="#251119"/><stop offset="0.65" stop-color="#3c1d1c"/><stop offset="1" stop-color="#552a20"/></linearGradient><linearGradient id="Áåçûìÿííûé_ãðàäèåíò_106" x1="248.58" y1="486.74" x2="343.98" y2="486.74" gradientUnits="userSpaceOnUse"><stop offset="0" stop-color="#b17500"/><stop offset="1" stop-color="#b86600"/></linearGradient><linearGradient id="Áåçûìÿííûé_ãðàäèåíò_55" x1="360.45" y1="488.58" x2="360.45" y2="461.47" gradientUnits="userSpaceOnUse"><stop offset="0" stop-color="#b87251"/><stop offset="1" stop-color="#b67247"/></linearGradient><linearGradient id="Áåçûìÿííûé_ãðàäèåíò_55-2" x1="499.84" y1="482.9" x2="499.84" y2="455.36" xlink:href="#Áåçûìÿííûé_ãðàäèåíò_55"/><linearGradient id="linear-gradient-3" x1="-9657.91" y1="400.52" x2="-9657.91" y2="176.54" gradientTransform="matrix(-1, 0, 0, 1, -8281, 0)" gradientUnits="userSpaceOnUse"><stop offset="0.28" stop-color="#2a141d"/><stop offset="0.48" stop-color="#34191e"/><stop offset="0.82" stop-color="#502822"/><stop offset="1" stop-color="#623124"/></linearGradient><linearGradient id="linear-gradient-4" x1="1338.15" y1="627.88" x2="1338.15" y2="274.18" gradientUnits="userSpaceOnUse"><stop offset="0" stop-color="#140914"/><stop offset="0.27" stop-color="#170b15"/><stop offset="0.51" stop-color="#221017"/><stop offset="0.73" stop-color="#33191a"/><stop offset="0.94" stop-color="#4c251e"/><stop offset="1" stop-color="#552a20"/></linearGradient><linearGradient id="linear-gradient-5" x1="1586.28" y1="473.44" x2="1586.28" y2="459.26" xlink:href="#linear-gradient-4"/><linearGradient id="linear-gradient-6" x1="350.06" y1="421.64" x2="350.06" y2="145.82" gradientUnits="userSpaceOnUse"><stop offset="0" stop-color="#1d0d18"/><stop offset="0.26" stop-color="#210f19"/><stop offset="0.54" stop-color="#2e161a"/><stop offset="0.82" stop-color="#43211d"/><stop offset="1" stop-color="#552a20"/></linearGradient><linearGradient id="linear-gradient-7" x1="381.28" y1="637.49" x2="381.28" y2="65.72" gradientUnits="userSpaceOnUse"><stop offset="0.05" stop-color="#1d0d18"/><stop offset="0.3" stop-color="#200e18"/><stop offset="0.45" stop-color="#28131a"/><stop offset="0.58" stop-color="#361a1c"/><stop offset="0.69" stop-color="#4b251f"/><stop offset="0.73" stop-color="#552a20"/></linearGradient></defs><g id="Layer_2" data-name="Layer 2"><g id="Rocks"><path class="cls-1" d="M860.23,275.83,872.37,241l12.21-17s3.19-9.07-17.84-19.74c0,0,1.83-34.68-17.78-58.63H817.12L800,129.78S780.38,106.33,742.26,98l8.56-20.06L734.09,54.7S685.76,10.56,662.87,0c0,0-62,14.76-87.27,38.19l-8.88,25.25-37.21,43.2S523.63,199,547.16,225.73L570.21,192,578,169.11S830.11,275.62,860.23,275.83Z"/><path class="cls-2" d="M566.72,63.44l8.88,6s9.19,13,28.18,20,40.65,12.74,40.65,12.74-38.63,2-55.71,2.19l-36.21,2.23s2.23,16.68,7,19.64c0,0-.12,26.95-17.49,39.59,0,0-12.41-24.53-12.54-59.23Z"/><path class="cls-3" d="M156.9,495.66,297,482.59l31.73-17.17,19.91-15S366.5,415.86,390,395.85L417.82,402l5.45-11.18s8.87,1.59,24.86-25.51c0,0,14.87-47.14,28.44-65.74a86.7,86.7,0,0,0,33.68-22l16.07-15.4s1.26-2.31,10.56-4.27c0,0,3.32-41.33,24.28-78.74,0,0,26.13-31.75,91.48-42.87L665,145.69l4.64-25.21s21.3-17.82,41.63-8.46c0,0,16.48,27.36,25.38,59.91l10.85,7.27s28.71,1.67,46.32,10.89c0,0,9.8,15.71,13.28,53,0,0,46.78,10.29,83.29,33l6.24,13.66,42.78,8.6s19.76,36.35,16.37,72c0,0,28,49.73,51.79,73.11l25.47-1.74,86.3,43.8L896.67,474.79s54.82,2.53,59.07,7.8l14.43,13.07s-47.75,21.84-194.79,18.22-244.18.41-244.18.41-40.93-7.43-126.54-9.54Z"/><path class="cls-4" d="M896.67,474.79s-82.44-.6-114.79-9.17l-35.55,9.17s39-15.22,48.9-18.89H809L785.54,437s13.05-28.72,43.3-40.07c0,0,67-5.73,98.34,11.15l36,47.86H948.31l21.08,22.38Z"/><path class="cls-5" d="M685.77,512.48l-34.31-15.8H604l30.43-9.95s3.48-33.43-6.45-55.39l-8.35-3.75V412l-12.26-15.08,4.7,15.08-23.36,2.76S544.3,438.3,527.19,469.9L539,473.48l-28.81,8.74-95.74-4.37s57.15,35.54,101.23,41.45S685.77,512.48,685.77,512.48Z"/><path class="cls-6" d="M765.19,360.63s22.3-6.95,41.48-7.29,42.32,0,42.32,0l28.89,6.09s-18.39,1.61-46.56,7.23S765.19,360.63,765.19,360.63Z"/><path class="cls-7" d="M837.45,345.6s28-10.86,41.87-9.76a132,132,0,0,1,22.22,3.39S893,354.87,877,352.67,837.45,345.6,837.45,345.6Z"/><path class="cls-8" d="M781.88,465.62s-26.6,1.51-58.43,21.11l35.29-10.56s47.84,16.76,70.18,19.44,77.13-15,77.13-15l46,.13S833,463.47,781.88,465.62Z"/><polygon class="cls-9" points="597.46 169.11 624.07 198.68 689.32 204.89 691.4 180.24 665.8 167.81 642.31 155.06 597.46 169.11"/><path class="cls-10" d="M793.78,190.09s-29.11,12.53-43.2,12.26-31.3-6.12-31.3-6.12l-27.88-16-19-18.32L665,145.69a237.94,237.94,0,0,0,19.86,15.69c12,8.57,37.07,7.73,37.07,7.73l14.72,2.82,10.85,7.27S784.28,182.39,793.78,190.09Z"/><path class="cls-11" d="M494.39,343.55,515,346.92l8.55,6.42s37.26-4.64,51.56-17.15l7.76-10s15.8,7.94,42.73,3.52l6.21-4.71,29.87-1.18-57.64-4s-8.27-14.13-28.93-23.61a73.72,73.72,0,0,0-41.13,25l-16.44,16.26S510.22,341.62,494.39,343.55Z"/><path class="cls-12" d="M575.09,296.2s-18,17.42-39.23,24.55l-2.78,17.45-.72-19.35L534,307.7S560.66,292.4,575.09,296.2Z"/><path class="cls-13" d="M578,478.56l37.68-3.21L641,486.73l14.71-2.22,44.81,28.09a262.36,262.36,0,0,1-44.81-5.74C630.59,501.5,604,496.68,604,496.68l8-8.4Z"/><path class="cls-14" d="M807.06,243.09s-37.67,5-50.72,13.06a249.83,249.83,0,0,0-22.25,15.41h44.66l28.31-7.65-11.83,7.65s15.57,19.56,95.12,4.48C890.35,276,865.36,254.1,807.06,243.09Z"/><path class="cls-15" d="M276.16,477.93S333,489.8,344,494c0,0-56.87,1.87-67.82,1.62s-27.58-8.83-27.58-8.83S262.55,476.89,276.16,477.93Z"/><path class="cls-16" d="M330.86,488.58l15.41-12,4.6,1.26s10.83-6,13.7-11.68l25.47-4.7-23.13,20.85H355.45l-14.59,6.26Z"/><path class="cls-17" d="M604,341.62l30.54,2.7L654.44,340l104.3,6.89h48.71l35.72,6.27s-35.24-.35-42.73.48-35.25,7-35.25,7L785,378.58l27.2,18.31L778.75,384.7s-34.54-16.1-44.66-20.35S619.9,347.87,619.9,347.87,619.14,349.87,604,341.62Z"/><path class="cls-18" d="M523.52,353.34l51.56-17.15L604,341.62s11.5,6,24,5.3c0,0,103.13,12.13,118.34,17.21s32.42,20.57,32.42,20.57-6.62,10.09-65.13,6.67c0,0,.87-13.91-14.21-20.18,0,0-23.67,11.3-68.94,10.82s-98-15.42-98-15.42,4-9,12.71-12.83Z"/><polygon class="cls-19" points="987.44 449.64 1014.29 442.95 1031.87 446.17 1053.69 452.17 1020.95 457.68 987.44 449.64"/><path class="cls-20" d="M532.06,455.89l53.14-.53-40,13.41-18,1.13L539,473.48,513,482.76s-75.9,1.44-98.48-4.91L435,466.17l19.37-7-.05,7h24.81l5-5.5H534Z"/><polygon class="cls-21" points="865.18 478.28 853.02 493.97 893.53 490.79 955.74 482.59 961.16 487.5 961.16 472.19 954.04 470.9 953.65 475.35 898.59 485.43 865.18 478.28"/><polygon class="cls-22" points="525.01 262.64 526.32 262.21 539.84 264.82 582.84 261.38 604.13 248.65 634.44 238.06 612.08 227.68 616.47 239.82 592.6 243.09 568.48 247.96 539.42 259.4 535.87 250.59 525.01 262.64"/><g class="cls-23"><path class="cls-24" d="M684.41,442.13c1,1.94,2.53,4.06,4.19,1.33a3.26,3.26,0,0,0-.53-3.72,5.73,5.73,0,0,0-2.78-1.28c-1.76.35-1.32,3.4-1.32,4.58Z"/><path class="cls-24" d="M684.53,427.86a4.55,4.55,0,0,0-.76-1.85,11.26,11.26,0,0,0-1.09-1.71,6.39,6.39,0,0,0-3-1.83c-1.83-.37-2.71,1.09-3.29,2.69a.39.39,0,0,0-.24-.05,1.81,1.81,0,0,0-1.58,1.84,5.25,5.25,0,0,0,1.24,2.79c.3.46.58.93.9,1.37a1,1,0,0,0,.57.38,10.78,10.78,0,0,0,1.05,3.55c.64,1,1.51,2.39,2.71,1.57s1.88-2.52,2.53-3.8c.47-.9.62-1.88,1-2.72.22-.52.56-.71.48-1.36C685,428.35,684.64,428.22,684.53,427.86Z"/><path class="cls-24" d="M689.29,449c-.09.65-.87,4,.89,3.67.58-.12,1.3-1.14,1.51-1.62a1.83,1.83,0,0,0-2.33-2.42c0,.12-.05.25-.07.37Z"/><path class="cls-25" d="M560.3,361.73c1.77.59,3.59,1.14,5.45,1.63-.07-.16.77-.17,1-.24a1.82,1.82,0,0,0,.72-.37c.47-.44.15-1.16-.22-1.55A5.39,5.39,0,0,0,563.3,360a7.51,7.51,0,0,0-2.33.25,2.47,2.47,0,0,0-.89.44c-.26.24-.22.41-.22.7a1.24,1.24,0,0,0,.83,1.3,2.14,2.14,0,0,0,1.13.07c.25-.12.46-.61-.19-.49Z"/><path class="cls-26" d="M770.37,330.34c1.76,1.07,3.58,2.05,5.44,2.94-.07-.28.77-.31,1-.43a1.88,1.88,0,0,0,.72-.68,3.26,3.26,0,0,0-.22-2.79,4.18,4.18,0,0,0-3.93-2.22,4.25,4.25,0,0,0-2.33.46,2.32,2.32,0,0,0-.89.79,2,2,0,0,0-.22,1.25,2.74,2.74,0,0,0,.83,2.34c.21.14.87.35,1.13.12s.46-1.08-.19-.87Z"/><path class="cls-24" d="M718,448.12a.59.59,0,0,0-.27-.35.64.64,0,0,0-.45-.06,2.68,2.68,0,0,0-2,1.63.46.46,0,0,0-.22.14.63.63,0,0,0,0,.85c.05.06,0,0,0,0s0,0,0,.07a.08.08,0,0,1,0,.05l0,.12a.13.13,0,0,1,0,.06.59.59,0,0,0,.58.6A2.46,2.46,0,0,0,718,448.12Z"/><path class="cls-25" d="M565.27,365.3a.45.45,0,0,0-.27-.2,1,1,0,0,0-.45,0,2.81,2.81,0,0,0-2,.91.71.71,0,0,0-.22.07c-.23.14-.21.33,0,.47.06,0,0,0,0,0l0,0,0,0,0,.06v0c0,.18.27.33.58.33C564.49,367,565.7,366.11,565.27,365.3Z"/><path class="cls-24" d="M725,443.84a.62.62,0,0,0-.26-.35.64.64,0,0,0-.45-.06,2.7,2.7,0,0,0-2,1.63.43.43,0,0,0-.21.14.62.62,0,0,0,0,.85l0,0,0,.07,0,.05,0,.12v.06a.6.6,0,0,0,.59.6A2.46,2.46,0,0,0,725,443.84Z"/><path class="cls-24" d="M702.56,430.07a.61.61,0,0,0-.27-.36.64.64,0,0,0-.45-.06,2.71,2.71,0,0,0-2,1.64.45.45,0,0,0-.22.13.63.63,0,0,0,0,.85c.05.06,0,0,0,0s0,0,0,.06l0,.05,0,.12v.06a.6.6,0,0,0,.58.6A2.45,2.45,0,0,0,702.56,430.07Z"/><path class="cls-24" d="M711.8,437.79c-.59-1.1-1.45-2.74-2.88-2.67a3.42,3.42,0,0,0-2.73,2.47,5.87,5.87,0,0,0-.13,3.52,5.29,5.29,0,0,0,.31.87,3.39,3.39,0,0,0,1.17,2.45,3.2,3.2,0,0,0,3.49.39,3.54,3.54,0,0,0,1.84-3.08A7.86,7.86,0,0,0,711.8,437.79Z"/><path class="cls-27" d="M575.65,304.72c1,1.94,2.52,4.06,4.19,1.32a3.27,3.27,0,0,0-.54-3.71,5.73,5.73,0,0,0-2.78-1.28c-1.76.34-1.32,3.4-1.32,4.58Z"/><path class="cls-27" d="M580.52,311.54c-.09.65-.87,4,.9,3.67.57-.12,1.29-1.14,1.51-1.62a1.85,1.85,0,0,0-2.34-2.43c0,.13-.05.26-.07.38Z"/><path class="cls-28" d="M609.2,310.71a.59.59,0,0,0-.27-.35.63.63,0,0,0-.45-.06,2.68,2.68,0,0,0-2,1.63.52.52,0,0,0-.22.14.64.64,0,0,0,0,.85c.06.06,0,0,0,0s0,.05,0,.07l0,.05,0,.12v.06a.6.6,0,0,0,.59.6A2.46,2.46,0,0,0,609.2,310.71Z"/><path class="cls-28" d="M616.27,306.43a.65.65,0,0,0-.27-.36.7.7,0,0,0-.45-.06,2.7,2.7,0,0,0-2,1.64.46.46,0,0,0-.22.14.63.63,0,0,0,0,.85c0,.06,0,0,0,0s0,0,0,.07,0,0,0,.05l0,.12a.13.13,0,0,1,0,.06.59.59,0,0,0,.58.6A2.46,2.46,0,0,0,616.27,306.43Z"/><path class="cls-28" d="M603,300.38c-.58-1.1-1.45-2.74-2.87-2.67a3.42,3.42,0,0,0-2.73,2.47,5.8,5.8,0,0,0-.14,3.52,5.29,5.29,0,0,0,.31.87,3.43,3.43,0,0,0,1.17,2.45,3.2,3.2,0,0,0,3.49.39,3.52,3.52,0,0,0,1.84-3.08A7.86,7.86,0,0,0,603,300.38Z"/><path class="cls-29" d="M479.53,368.23h0Z"/><path class="cls-25" d="M481.67,369.24a2.37,2.37,0,0,0-1-.82.45.45,0,0,0-.12-.56,2.3,2.3,0,0,0-1.57-.45,2.09,2.09,0,0,0-1.5.65,1.36,1.36,0,0,0,.44,2.09,3.6,3.6,0,0,0,3.22.17C481.66,370.06,481.87,369.62,481.67,369.24Zm75.22-4.59a2.29,2.29,0,0,0-1-.81.44.44,0,0,0-.12-.57,2.28,2.28,0,0,0-1.57-.45,2.13,2.13,0,0,0-1.5.65,1.37,1.37,0,0,0,.45,2.09,3.58,3.58,0,0,0,3.21.17C556.89,365.47,557.09,365,556.89,364.65Zm-78.59,4.13s0-.11,0-.09,0,0,0,0l0-.09a1.36,1.36,0,0,1,.11-.2l.06-.06.05-.05.05,0,.08-.05s.15-.07.08-.05l.14,0H479c-.11,0,0,0,.07,0h.07l.14,0c-.1,0,.05,0,.09,0h0l0,0,0,0,0,0h0s0,0,0,0v0h0l-.06,0a.33.33,0,0,0-.14.15l-.15.08h0a.54.54,0,0,0-.2.1,1.74,1.74,0,0,0-.46.3.63.63,0,0,0-.15.26.19.19,0,0,1,0-.07V369A1.55,1.55,0,0,1,478.3,368.78Z"/><path class="cls-24" d="M706.76,427.47c-.21-.36-.42-.71-.64-1.05a14.08,14.08,0,0,0-1.45-2,3.49,3.49,0,0,0-.91-.71.67.67,0,0,0-.39-.15,1.71,1.71,0,0,0-.64-.07,1.9,1.9,0,0,0-1.57,1.29,1.73,1.73,0,0,0,0,1.23h0a.62.62,0,0,0,.21.82l0,0a1.9,1.9,0,0,0,.1.91,2.63,2.63,0,0,0,1.51,1.52,6.05,6.05,0,0,0,2.24.31,1.62,1.62,0,0,0,1.69-.92A1.56,1.56,0,0,0,706.76,427.47Z"/><path class="cls-24" d="M671,419.87c3.54,1.2,8,1.94,6.83-3.57a5.46,5.46,0,0,0-5.08-4,5.29,5.29,0,0,0-2.47.52c-.75.29-2,.58-2.54,1.34-1.79,2.63,2.38,5.92,3.78,7.4Z"/><path class="cls-24" d="M654.19,401.81a7.7,7.7,0,0,0-3.14-1.36,19.16,19.16,0,0,0-3.41-.79,11,11,0,0,0-5.94,1.46c-2.74,1.83-2.12,4.77-.94,7.49a.79.79,0,0,0-.36.24,3.26,3.26,0,0,0,.2,4.29c1.22,1.35,3.2,1.58,4.87,1.95.91.2,1.82.45,2.74.59a1.71,1.71,0,0,0,1.17-.23,17.72,17.72,0,0,0,5.53,3.13c2,.51,4.73,1.12,5.26-1.41s-.63-5.52-1.32-7.93c-.49-1.72-1.46-3.14-2-4.63-.34-.93-.15-1.59-1-2.32C655.35,401.87,654.75,402.13,654.19,401.81Z"/><path class="cls-24" d="M685.18,422.34c.66.92,3.7,6.15,5.48,3.48.58-.87.26-3.05,0-3.92a3.14,3.14,0,0,0-5.8-.13l.36.57Z"/><path class="cls-28" d="M670.93,246.3c1,1.94,2.53,4.06,4.19,1.32a3.25,3.25,0,0,0-.54-3.71,3.2,3.2,0,0,0-1.21-.8,3.11,3.11,0,0,0-1.57-.48c-1.75.34-1.31,3.4-1.31,4.58Z"/><path class="cls-28" d="M671.05,232a4.71,4.71,0,0,0-.76-1.84,11.42,11.42,0,0,0-1.1-1.72,6.44,6.44,0,0,0-3-1.83c-1.83-.37-2.72,1.1-3.29,2.69a.69.69,0,0,0-.24,0,1.81,1.81,0,0,0-1.58,1.85,5.21,5.21,0,0,0,1.24,2.79c.29.45.57.93.89,1.36a1.07,1.07,0,0,0,.57.39,10.72,10.72,0,0,0,1.06,3.54c.64,1,1.5,2.39,2.71,1.57s1.88-2.52,2.53-3.79c.46-.91.62-1.89,1-2.72.22-.52.56-.71.49-1.36C671.5,232.52,671.16,232.38,671.05,232Z"/><path class="cls-28" d="M675.8,253.12c-.08.65-.86,4,.9,3.67.58-.12,1.29-1.15,1.51-1.62a1.84,1.84,0,0,0-2.33-2.43c0,.13,0,.25-.08.38Z"/><path class="cls-28" d="M704.49,252.29a.66.66,0,0,0-.27-.36.7.7,0,0,0-.45-.06,2.73,2.73,0,0,0-2,1.64.43.43,0,0,0-.21.14.61.61,0,0,0,0,.84c0,.07,0,0,0,0l0,.06,0,.06,0,.11v.07a.61.61,0,0,0,.59.6A2.47,2.47,0,0,0,704.49,252.29Z"/><path class="cls-28" d="M711.55,248a.61.61,0,0,0-.27-.36.69.69,0,0,0-.45-.06,2.71,2.71,0,0,0-2,1.64.61.61,0,0,0-.22.13.63.63,0,0,0,0,.85c.06.07,0,0,0,0s0,0,0,.06l0,.06,0,.11v.07a.61.61,0,0,0,.58.6A2.46,2.46,0,0,0,711.55,248Z"/><path class="cls-28" d="M689.08,234.23a.61.61,0,0,0-.27-.36.7.7,0,0,0-.45-.06,2.73,2.73,0,0,0-2,1.64.49.49,0,0,0-.21.14.63.63,0,0,0,0,.85l0,0,0,.07,0,.05,0,.11s0,.05,0,.07a.59.59,0,0,0,.58.6A2.47,2.47,0,0,0,689.08,234.23Z"/><path class="cls-28" d="M698.31,242c-.58-1.1-1.44-2.75-2.87-2.68a3.44,3.44,0,0,0-2.73,2.48,5.88,5.88,0,0,0-.14,3.52,6.94,6.94,0,0,0,.31.87,3.49,3.49,0,0,0,1.17,2.45,3.22,3.22,0,0,0,3.5.38,3.52,3.52,0,0,0,1.84-3.07A7.84,7.84,0,0,0,698.31,242Z"/><path class="cls-28" d="M693.27,231.64c-.2-.36-.42-.71-.64-1.06a14.52,14.52,0,0,0-1.44-2,3.29,3.29,0,0,0-.91-.71.6.6,0,0,0-.39-.15,1.54,1.54,0,0,0-.64-.07,1.87,1.87,0,0,0-1.57,1.29,1.68,1.68,0,0,0,0,1.23h0a.61.61,0,0,0,.21.82l0,0a2,2,0,0,0,.09.91,2.6,2.6,0,0,0,1.52,1.51,5.83,5.83,0,0,0,2.23.32,1.64,1.64,0,0,0,1.7-.92A1.57,1.57,0,0,0,693.27,231.64Z"/><path class="cls-28" d="M657.49,224c3.54,1.2,8,1.93,6.83-3.58a5.46,5.46,0,0,0-5.08-4,5.17,5.17,0,0,0-2.47.52c-.75.29-2,.57-2.54,1.34-1.8,2.63,2.38,5.91,3.78,7.39Z"/><path class="cls-28" d="M640.71,206a7.9,7.9,0,0,0-3.14-1.36,20.16,20.16,0,0,0-3.42-.78,11,11,0,0,0-5.93,1.46c-2.74,1.83-2.12,4.77-1,7.49a.89.89,0,0,0-.35.23,3.24,3.24,0,0,0,.2,4.29c1.22,1.36,3.2,1.59,4.87,2,.91.2,1.82.44,2.74.59a1.78,1.78,0,0,0,1.17-.23,17.81,17.81,0,0,0,5.53,3.13c2,.51,4.72,1.12,5.26-1.41s-.63-5.52-1.32-7.93c-.5-1.72-1.46-3.14-2-4.63-.33-.93-.14-1.6-1-2.33C641.86,206,641.27,206.3,640.71,206Z"/><path class="cls-28" d="M671.69,226.51c.67.92,3.7,6.15,5.48,3.48.58-.87.27-3.05,0-3.92a3.14,3.14,0,0,0-5.8-.13l.35.57Z"/><path class="cls-28" d="M664.88,74.43c1,1.93,2.53,4.06,4.19,1.32a3.25,3.25,0,0,0-.54-3.71,3.15,3.15,0,0,0-1.22-.8c-.42-.18-1-.59-1.56-.49-1.75.35-1.31,3.4-1.31,4.59Z"/><path class="cls-28" d="M665,60.15a4.71,4.71,0,0,0-.76-1.84,11.42,11.42,0,0,0-1.1-1.72,6.44,6.44,0,0,0-3-1.83c-1.84-.37-2.72,1.09-3.29,2.69a.69.69,0,0,0-.24-.05A1.8,1.8,0,0,0,655,59.24a5.2,5.2,0,0,0,1.24,2.8c.29.45.57.93.89,1.36a1.07,1.07,0,0,0,.57.39,10.72,10.72,0,0,0,1.06,3.54c.64,1,1.5,2.39,2.7,1.57s1.89-2.52,2.54-3.79c.46-.91.62-1.89,1-2.72.22-.52.56-.72.49-1.37C665.45,60.65,665.1,60.51,665,60.15Z"/><path class="cls-28" d="M669.75,81.25c-.08.65-.87,4,.9,3.67.58-.12,1.29-1.15,1.51-1.63a1.84,1.84,0,0,0-2.33-2.42c0,.13-.05.25-.08.38Z"/><path class="cls-28" d="M707.9,58.85a.64.64,0,0,0-.26-.36.66.66,0,0,0-.46-.06,2.73,2.73,0,0,0-2,1.64.42.42,0,0,0-.21.13.62.62,0,0,0,0,.85c0,.06,0,0,0,0l0,.06,0,.05,0,.12v.06a.6.6,0,0,0,.59.6A2.45,2.45,0,0,0,707.9,58.85Z"/><path class="cls-28" d="M715,54.57a.61.61,0,0,0-.27-.36.64.64,0,0,0-.45-.06,2.7,2.7,0,0,0-2,1.63.55.55,0,0,0-.22.14.63.63,0,0,0,0,.85c.05.06,0,0,0,0l0,.06,0,.05,0,.12V57a.6.6,0,0,0,.58.6A2.45,2.45,0,0,0,715,54.57Z"/><path class="cls-28" d="M683,62.36a.6.6,0,0,0-.26-.36.7.7,0,0,0-.45-.06,2.73,2.73,0,0,0-2,1.64.43.43,0,0,0-.21.14.61.61,0,0,0,0,.84c0,.07,0,0,0,0l0,.07,0,.05,0,.11v.07a.6.6,0,0,0,.59.6A2.46,2.46,0,0,0,683,62.36Z"/><path class="cls-28" d="M701.73,48.52c-.58-1.11-1.44-2.75-2.87-2.68a3.42,3.42,0,0,0-2.73,2.47,5.8,5.8,0,0,0-.14,3.52,7.08,7.08,0,0,0,.31.88,3.41,3.41,0,0,0,1.17,2.44,3.2,3.2,0,0,0,3.49.39,3.53,3.53,0,0,0,1.85-3.07A7.81,7.81,0,0,0,701.73,48.52Z"/><path class="cls-28" d="M696.69,38.19c-.2-.36-.42-.71-.64-1a14.85,14.85,0,0,0-1.44-2,3.38,3.38,0,0,0-.92-.71.67.67,0,0,0-.38-.15,1.73,1.73,0,0,0-.64-.07,1.89,1.89,0,0,0-1.57,1.3,1.65,1.65,0,0,0,0,1.22h0a.61.61,0,0,0,.21.82l0,0a2,2,0,0,0,.09.91A2.62,2.62,0,0,0,693,40a6,6,0,0,0,2.23.32,1.65,1.65,0,0,0,1.7-.92A1.58,1.58,0,0,0,696.69,38.19Z"/><path class="cls-28" d="M651.43,52.17c3.54,1.19,8,1.93,6.83-3.58a5.46,5.46,0,0,0-5.07-4,5.3,5.3,0,0,0-2.47.53c-.75.29-2,.57-2.54,1.34-1.8,2.63,2.38,5.91,3.78,7.39Z"/><path class="cls-28" d="M634.66,34.1a7.75,7.75,0,0,0-3.15-1.36A18.94,18.94,0,0,0,628.1,32a11,11,0,0,0-5.93,1.45c-2.74,1.84-2.12,4.77-.95,7.5a.79.79,0,0,0-.35.23,3.25,3.25,0,0,0,.19,4.29c1.23,1.36,3.21,1.59,4.87,2,.91.2,1.83.44,2.74.59a1.79,1.79,0,0,0,1.18-.23,17.81,17.81,0,0,0,5.53,3.13c2,.5,4.72,1.12,5.26-1.42S640,44,639.32,41.54c-.5-1.72-1.47-3.14-2-4.63-.33-.93-.14-1.6-1-2.33C635.81,34.16,635.22,34.42,634.66,34.1Z"/><path class="cls-28" d="M665.64,54.64c.66.92,3.7,6.15,5.48,3.48.58-.87.27-3,0-3.92a3.13,3.13,0,0,0-5.8-.13l.35.57Z"/><path class="cls-26" d="M850.93,322.75c1,1.94,2.53,4.07,4.19,1.33a3.25,3.25,0,0,0-.53-3.71,3.15,3.15,0,0,0-1.22-.8c-.42-.18-1-.59-1.56-.49-1.76.35-1.32,3.4-1.32,4.58Z"/><path class="cls-26" d="M801.6,314a4.71,4.71,0,0,0-.76-1.84,11.42,11.42,0,0,0-1.1-1.72,6.44,6.44,0,0,0-3-1.83c-1.84-.37-2.72,1.09-3.3,2.69a.59.59,0,0,0-.23-.05,1.8,1.8,0,0,0-1.58,1.84,5.2,5.2,0,0,0,1.24,2.8c.29.45.57.93.89,1.36a1.07,1.07,0,0,0,.57.39,10.72,10.72,0,0,0,1.06,3.54c.64,1,1.5,2.39,2.7,1.57s1.89-2.52,2.54-3.79c.46-.91.62-1.89,1-2.72.22-.52.56-.72.49-1.37C802.05,314.46,801.7,314.32,801.6,314Z"/><path class="cls-26" d="M855.81,329.58c-.09.65-.87,4,.9,3.67.57-.12,1.29-1.15,1.5-1.63a1.83,1.83,0,0,0-2.33-2.42c0,.13,0,.25-.07.38Z"/><path class="cls-26" d="M884.49,328.75a.61.61,0,0,0-.27-.36.64.64,0,0,0-.45-.06,2.71,2.71,0,0,0-2,1.64.54.54,0,0,0-.22.13.63.63,0,0,0,0,.85c0,.07,0,0,0,0s0,0,0,.06l0,.06a.61.61,0,0,0,0,.11v.07a.61.61,0,0,0,.58.6A2.46,2.46,0,0,0,884.49,328.75Z"/><path class="cls-26" d="M869.08,310.69a.61.61,0,0,0-.27-.36.69.69,0,0,0-.45-.06,2.71,2.71,0,0,0-2,1.64.52.52,0,0,0-.22.14.62.62,0,0,0,0,.84c.06.07,0,0,0,0s0,.05,0,.06l0,.06,0,.11v.07a.6.6,0,0,0,.58.6A2.46,2.46,0,0,0,869.08,310.69Z"/><path class="cls-26" d="M878.32,318.42c-.58-1.1-1.45-2.75-2.88-2.68a3.43,3.43,0,0,0-2.72,2.48,5.79,5.79,0,0,0-.14,3.52,5.64,5.64,0,0,0,.31.87,3.41,3.41,0,0,0,1.17,2.45,3.2,3.2,0,0,0,3.49.38,3.5,3.5,0,0,0,1.84-3.07A7.83,7.83,0,0,0,878.32,318.42Z"/><path class="cls-26" d="M873.28,308.1c-.21-.36-.42-.71-.64-1.06a14,14,0,0,0-1.45-2,3.29,3.29,0,0,0-.91-.71.56.56,0,0,0-.39-.15,1.51,1.51,0,0,0-.64-.07,1.9,1.9,0,0,0-1.57,1.29,1.73,1.73,0,0,0,0,1.23h0a.62.62,0,0,0,.21.82l0,0a1.86,1.86,0,0,0,.1.9,2.63,2.63,0,0,0,1.51,1.52,5.86,5.86,0,0,0,2.24.32,1.63,1.63,0,0,0,1.69-.92A1.51,1.51,0,0,0,873.28,308.1Z"/><path class="cls-26" d="M851.7,303c.66.92,3.7,6.15,5.48,3.48.58-.87.26-3.05,0-3.93a3.14,3.14,0,0,0-5.81-.12l.36.57Z"/><path class="cls-30" d="M961,431.45c1,1.93,2.52,4.06,4.19,1.32a3.27,3.27,0,0,0-.54-3.71,3.15,3.15,0,0,0-1.22-.8c-.42-.18-1-.59-1.56-.49-1.76.35-1.32,3.4-1.32,4.58Z"/><path class="cls-30" d="M965.83,438.27c-.09.65-.87,4,.9,3.67.57-.12,1.29-1.15,1.51-1.63a1.84,1.84,0,0,0-2.34-2.42c0,.13,0,.25-.07.38Z"/><path class="cls-30" d="M994.51,437.44a.61.61,0,0,0-.27-.36.63.63,0,0,0-.45-.06,2.71,2.71,0,0,0-2,1.64.61.61,0,0,0-.22.13.64.64,0,0,0,0,.85c.06.07,0,0,0,0s0,.05,0,.06l0,.06,0,.11v.07a.61.61,0,0,0,.59.6A2.46,2.46,0,0,0,994.51,437.44Z"/><path class="cls-30" d="M979.1,419.38a.61.61,0,0,0-.27-.36.69.69,0,0,0-.45-.06,2.71,2.71,0,0,0-2,1.64.43.43,0,0,0-.21.14.61.61,0,0,0,0,.84c0,.07,0,0,0,0l0,.06,0,.06,0,.11v.07a.61.61,0,0,0,.59.6A2.46,2.46,0,0,0,979.1,419.38Z"/><path class="cls-30" d="M988.34,427.11c-.58-1.1-1.45-2.75-2.87-2.68a3.44,3.44,0,0,0-2.73,2.48,5.79,5.79,0,0,0-.14,3.52,5.64,5.64,0,0,0,.31.87,3.45,3.45,0,0,0,1.17,2.45,3.2,3.2,0,0,0,3.49.38,3.5,3.5,0,0,0,1.84-3.07A7.83,7.83,0,0,0,988.34,427.11Z"/><path class="cls-30" d="M983.3,416.79c-.2-.36-.42-.71-.64-1.06a15.43,15.43,0,0,0-1.44-2,3.2,3.2,0,0,0-.92-.71.55.55,0,0,0-.38-.15,1.54,1.54,0,0,0-.64-.07,1.9,1.9,0,0,0-1.58,1.29,1.68,1.68,0,0,0,0,1.23h0a.62.62,0,0,0,.21.82l0,0a2,2,0,0,0,.09.9,2.59,2.59,0,0,0,1.52,1.52,5.81,5.81,0,0,0,2.23.32,1.65,1.65,0,0,0,1.7-.92A1.55,1.55,0,0,0,983.3,416.79Z"/><path class="cls-30" d="M961.72,411.66c.66.92,3.7,6.15,5.48,3.48.58-.87.27-3.05,0-3.92a3.13,3.13,0,0,0-5.8-.13l.35.57Z"/><path class="cls-25" d="M551.91,382.48a1.73,1.73,0,0,0-.76-.07,1.44,1.44,0,0,0-.64.27,1.79,1.79,0,0,0-.54,2.53.32.32,0,0,0-.11.24c0,.34.43.56,1,.59.15,0,0,0-.07,0a.3.3,0,0,0,.13,0l.1,0,.17.06.08,0a1.64,1.64,0,0,0,1.45,0C554.59,385.17,554.17,383.2,551.91,382.48Z"/><path class="cls-25" d="M555.7,374.58a1.74,1.74,0,0,0-.76-.06,1.44,1.44,0,0,0-.64.27,1.78,1.78,0,0,0-.54,2.52.34.34,0,0,0-.11.25c0,.33.43.56,1,.59.15,0,0,0-.06,0l.12,0h.1l.17.06.08,0a1.64,1.64,0,0,0,1.45,0C558.38,377.28,558,375.3,555.7,374.58Z"/><path class="cls-29" d="M511.16,380.59a1.62,1.62,0,0,0-.76-.06,1.21,1.21,0,0,0-.64.27,1.79,1.79,0,0,0-.55,2.52.35.35,0,0,0-.11.24c0,.34.44.56,1,.59.14,0,0,0-.07,0h.12l.1,0,.18.06.08,0a1.65,1.65,0,0,0,1.44,0C513.84,383.28,513.42,381.31,511.16,380.59Z"/><path class="cls-25" d="M531.91,379.56c-2-.36-5.07-.91-6.78.13s-1.33,2.48-.49,3.62a8.36,8.36,0,0,0,4,2.55c.46.15.94.29,1.43.4a8.89,8.89,0,0,0,4.37.89,6.15,6.15,0,0,0,4.84-2.16c.79-1.2.1-2.48-1.33-3.42A17.06,17.06,0,0,0,531.91,379.56Z"/><path class="cls-29" d="M513.35,375.86c-.68-.11-1.37-.2-2.06-.29-1.35-.16-2.76-.33-4.14-.37a11,11,0,0,0-2,.14,1.69,1.69,0,0,0-.66.17,3.28,3.28,0,0,0-.89.39,1.3,1.3,0,0,0-.44,2,2.7,2.7,0,0,0,1.5.83h0a1.24,1.24,0,0,0,1.24.42H506a3.44,3.44,0,0,0,1.2.57,7.72,7.72,0,0,0,3.7,0,12.21,12.21,0,0,0,3.18-1.33c.83-.46,1.59-1.15,1-1.82A3,3,0,0,0,513.35,375.86Z"/><path class="cls-29" d="M534.23,377.59l-.64-.59a11.2,11.2,0,0,0-1.45-1.09,3.62,3.62,0,0,0-.91-.39.93.93,0,0,0-.39-.09,3.28,3.28,0,0,0-.64,0,2,2,0,0,0-1.57.72.59.59,0,0,0,0,.69h0c-.16.16-.06.36.21.45l0,0a.62.62,0,0,0,.1.5,2.41,2.41,0,0,0,1.51.84,10.33,10.33,0,0,0,2.24.18c.66,0,1.45-.11,1.69-.51C534.6,378,534.44,377.8,534.23,377.59Z"/><path class="cls-29" d="M515.94,369.29a2.86,2.86,0,0,0-2.18-1.24,2.78,2.78,0,0,0-.92.06.79.79,0,0,0-.8.1,4.06,4.06,0,0,0-3.25,1.55c-.63,1.16.5,2.18,2.08,2.85a6.28,6.28,0,0,0,2.72.58,2.82,2.82,0,0,0,2.06-.85,2.73,2.73,0,0,0,.56-1.42A2.41,2.41,0,0,0,515.94,369.29Z"/></g><polygon class="cls-31" points="817.12 145.69 791.63 155.06 761.85 162.23 802.1 159.39 817.12 156.98 848.96 145.69 817.12 145.69"/><path class="cls-2" d="M742.26,98S727.37,92,713,93.14l-25.83,9.22L658,98.1s23.47-3.3,27.75-5c0,0,15.77-18.93,27.25-24.16s37.8,8.92,37.8,8.92Z"/><path class="cls-32" d="M575.6,38.19a273.21,273.21,0,0,0,48.3-6.36l-8.2-2.67s18.82-2,35.44-6.78,16.34-9.47,16.34-9.47L662.87,0S595.73,15.84,575.6,38.19Z"/><polygon class="cls-31" points="857.59 159.39 857.59 159.39 840.35 153.09 805.41 150 791.63 155.06 820.23 156.98 844.12 160.27 854.51 159.38 857.59 159.39"/><polygon class="cls-22" points="534.02 263.86 547.16 259.87 535.87 267.43 517.51 286.37 508.61 286.37 510.22 284.19 513.14 284.19 534.02 263.86"/><path class="cls-33" d="M1223.48,400.52l-12.14-28.27-12.21-13.77s-3.19-7.37,17.84-16c0,0-1.83-28.16,17.77-47.61h31.84l17.17-12.92s19.58-19,57.7-25.83l-8.57-16.29L1349.61,221s48.34-35.84,71.23-44.41c0,0,62,12,87.27,31l8.88,20.5,37.21,35.08s5.88,75-17.66,96.71l-23-27.43-7.8-18.55S1253.6,400.35,1223.48,400.52Z"/><path class="cls-34" d="M1517,228.05l-8.88,4.88s-9.19,10.52-28.18,16.27-40.65,10.34-40.65,10.34,38.63,1.63,55.71,1.78l36.2,1.81s-2.22,13.54-7,15.95c0,0,.11,21.88,17.49,32.15,0,0,12.41-19.92,12.54-48.1Z"/><path class="cls-35" d="M1711.9,585.51c-6.68-2.49-86.11-155.6-138.44-183.54l-16.07-12.52s-1.26-1.87-10.56-3.46c0,0-3.32-33.56-24.29-63.94,0,0-26.13-25.78-91.47-34.81l-12.32,7.6-4.64-20.47s-21.3-14.47-41.64-6.87c0,0-16.48,22.22-25.37,48.65l-10.85,5.9s-28.72,1.36-46.32,8.85c0,0-9.8,12.75-13.28,43,0,0-46.78,8.36-83.3,26.76l-6.23,11.09-42.78,7s-19.76,29.51-16.37,58.46c0,0-28,40.38-51.79,59.37l-25.48-1.42-86.29,35.57,222.11-8.65.51,0-.51,0c-5.51.22-54.54,2.27-58.55,6.31L1113.54,579s47.75,17.73,194.79,14.79,244.17.33,244.17.33,15.74-2.32,48.07-4.48Z"/><path class="cls-36" d="M1187,562.08s82.45-.49,114.79-7.45l35.56,7.45s-39-12.36-48.9-15.34h-13.79l23.48-15.38s-13.05-23.32-43.31-32.54c0,0-67-4.65-98.33,9.05l-36,38.87h14.87l-21.08,18.17Z"/><path class="cls-36" d="M1600.57,567.11l-27.08,1-28.81-7.1,11.84-2.9c-17.11-25.66-61.53-44.8-61.53-44.8l-23.36-2.24,4.7-12.25-12.27,12.25v12.68l-8.35,3c-9.92,17.84-6.44,45-6.44,45l30.42,8.09h-47.44l-34.32,12.82s126,10.34,170.07,5.54c10.44-1.13,132.93-9.58,143.9-12.71Z"/><polygon class="cls-37" points="1600.58 469.66 1571.99 466.81 1600.58 472.64 1600.58 469.66"/><path class="cls-38" d="M1318.52,469.38s-22.31-5.64-41.48-5.92-42.33,0-42.33,0l-28.88,4.94s18.39,1.31,46.56,5.87S1318.52,469.38,1318.52,469.38Z"/><path class="cls-38" d="M1246.26,457.17s-28-8.82-41.87-7.92a159.94,159.94,0,0,0-22.22,2.75s8.53,12.7,24.57,10.92S1246.26,457.17,1246.26,457.17Z"/><path class="cls-39" d="M1301.82,554.63s26.61,1.22,58.43,17.14L1325,563.2s-47.84,13.61-70.19,15.79-77.13-12.18-77.13-12.18l-46,.11S1250.69,552.89,1301.82,554.63Z"/><polygon class="cls-40" points="1486.25 313.86 1459.64 337.87 1394.39 342.91 1392.31 322.89 1417.9 312.8 1441.4 302.45 1486.25 313.86"/><path class="cls-40" d="M1289.93,330.9s29.11,10.17,43.2,10,31.3-5,31.3-5l27.87-13,19-14.87,7.43-13.18s-7.85,5.78-19.87,12.74-37.06,6.28-37.06,6.28l-14.72,2.29-10.85,5.9S1299.42,324.64,1289.93,330.9Z"/><path class="cls-41" d="M1589.32,455.51l-20.58,2.73-8.55,5.22s-37.27-3.77-51.56-13.93l-7.76-8.12s-15.8,6.45-42.73,2.86l-6.21-3.83-29.88-1,57.64-3.25s8.28-11.48,28.94-19.17c0,0,24,3.21,41.13,20.3l16.44,13.21S1573.49,453.94,1589.32,455.51Z"/><path class="cls-42" d="M1508.62,417.06s18,14.14,39.22,19.93l2.79,14.17.72-15.71-1.6-9.05S1523.05,414,1508.62,417.06Z"/><path class="cls-43" d="M1505.69,565.14,1468,562.53l-25.26,9.24L1428,570l-44.81,22.81a321.18,321.18,0,0,0,44.81-4.66c25.08-4.35,51.65-8.26,51.65-8.26l-8-6.83Z"/><path class="cls-44" d="M1276.65,373.93s37.67,4.05,50.72,10.61,22.24,12.51,22.24,12.51H1305l-28.3-6.21,11.83,6.21s-15.58,15.88-95.13,3.64C1193.35,400.69,1218.35,382.88,1276.65,373.93Z"/><path class="cls-36" d="M1479.69,453.94l-30.54,2.19-19.88-3.48L1325,458.24h-48.71l-35.72,5.1s35.24-.29,42.73.39,35.25,5.65,35.25,5.65L1298.69,484l-27.21,14.87,33.47-9.9s34.54-13.07,44.66-16.52S1463.81,459,1463.81,459,1464.57,460.64,1479.69,453.94Z"/><path class="cls-38" d="M1560.19,463.46l-51.56-13.93-28.94,4.41s-11.49,4.86-24,4.3c0,0-103.13,9.85-118.33,14s-32.43,16.7-32.43,16.7,6.62,8.19,65.14,5.42c0,0-.87-11.3,14.21-16.39,0,0,23.67,9.18,68.94,8.79s98-12.52,98-12.52a25.17,25.17,0,0,0-12.72-10.42Z"/><polygon class="cls-45" points="1096.27 541.66 1069.42 536.22 1051.84 538.84 1030.01 543.71 1062.75 548.18 1096.27 541.66"/><path class="cls-43" d="M1695.17,562.53l-95.57-11.92h-49.84l1.89-3.88-53.14-.43,40,10.89,18,.92-11.84,2.9,26.07,7.54s124.32,17.09,141.15,17Z"/><polygon class="cls-46" points="1218.53 564.91 1230.69 577.65 1190.18 575.07 1127.97 568.41 1122.55 572.4 1122.55 559.97 1129.67 558.92 1130.06 562.53 1185.12 570.72 1218.53 564.91"/><polygon class="cls-47" points="1558.7 389.81 1557.39 389.45 1543.86 391.57 1500.87 388.78 1479.58 378.44 1449.27 369.85 1471.63 361.42 1467.24 371.27 1491.11 373.94 1515.23 377.89 1544.29 387.18 1547.84 380.02 1558.7 389.81"/><g class="cls-23"><path class="cls-48" d="M1313.34,444.78q-2.65,1.31-5.44,2.39c.07-.23-.77-.26-1-.35a1.85,1.85,0,0,1-.72-.55,2.24,2.24,0,0,1,.23-2.27,4.45,4.45,0,0,1,3.93-1.8,5.09,5.09,0,0,1,2.33.37,2.31,2.31,0,0,1,.89.64,1.44,1.44,0,0,1,.22,1,2,2,0,0,1-.83,1.9,1.48,1.48,0,0,1-1.13.1c-.25-.18-.46-.88.18-.71Z"/><path class="cls-49" d="M1508.06,424c-1,1.57-2.53,3.29-4.19,1.07a2.27,2.27,0,0,1,.54-3,3.14,3.14,0,0,1,1.22-.65,3.43,3.43,0,0,1,1.56-.39c1.75.28,1.31,2.76,1.31,3.71Z"/><path class="cls-49" d="M1503.19,429.52c.08.52.86,3.27-.9,3a3,3,0,0,1-1.51-1.32c-.62-1.12.78-2.43,2.33-2,0,.1.05.2.08.31Z"/><path class="cls-49" d="M1474.51,428.84a.52.52,0,0,1,.26-.29.86.86,0,0,1,.45-.05,2.7,2.7,0,0,1,2,1.33.6.6,0,0,1,.21.11.44.44,0,0,1,0,.69c-.05.05,0,0,0,0l0,.05,0,0,0,.09v.06a.55.55,0,0,1-.59.48C1475.29,431.35,1474.08,430,1474.51,428.84Z"/><path class="cls-49" d="M1467.44,425.37a.48.48,0,0,1,.27-.29.76.76,0,0,1,.45-.05,2.63,2.63,0,0,1,2,1.33.57.57,0,0,1,.22.11.44.44,0,0,1,0,.69c-.06,0,0,0,0,0s0,0,0,.05l0,0,0,.1v.05a.55.55,0,0,1-.58.49C1468.22,427.87,1467,426.55,1467.44,425.37Z"/><path class="cls-49" d="M1480.68,420.46c.58-.9,1.44-2.23,2.87-2.18a3.27,3.27,0,0,1,2.73,2,3.88,3.88,0,0,1,.14,2.86,4.93,4.93,0,0,1-.31.71,2.63,2.63,0,0,1-1.17,2,3.83,3.83,0,0,1-3.5.32,2.85,2.85,0,0,1-1.84-2.5A5.48,5.48,0,0,1,1480.68,420.46Z"/><path class="cls-50" d="M1412.78,376.54c-1,1.57-2.53,3.29-4.19,1.07a2.28,2.28,0,0,1,.53-3,3.14,3.14,0,0,1,1.22-.65,3.57,3.57,0,0,1,1.56-.4c1.76.29,1.32,2.77,1.32,3.72Z"/><path class="cls-50" d="M1412.66,364.94a3.37,3.37,0,0,1,.76-1.49,9.75,9.75,0,0,1,1.09-1.4,6.87,6.87,0,0,1,3-1.48c1.83-.3,2.72.89,3.29,2.18a.61.61,0,0,1,.24,0,1.61,1.61,0,0,1,1.58,1.5c0,.86-.7,1.59-1.24,2.27-.3.36-.57.75-.9,1.1a1.05,1.05,0,0,1-.57.32,7.46,7.46,0,0,1-1.05,2.87c-.64.85-1.51,2-2.71,1.28s-1.88-2.05-2.53-3.08c-.46-.74-.62-1.53-1-2.21-.22-.42-.55-.58-.48-1.11C1412.21,365.35,1412.55,365.24,1412.66,364.94Z"/><path class="cls-50" d="M1407.91,382.08c.08.52.86,3.27-.9,3a2.93,2.93,0,0,1-1.51-1.31c-.63-1.13.77-2.43,2.33-2,0,.1.05.2.08.31Z"/><path class="cls-50" d="M1379.22,381.4a.54.54,0,0,1,.27-.29.86.86,0,0,1,.45-.05,2.7,2.7,0,0,1,2,1.33.7.7,0,0,1,.21.11.44.44,0,0,1,0,.69l0,0,0,.05,0,0,0,.09s0,0,0,.06a.54.54,0,0,1-.58.48C1380,383.91,1378.8,382.58,1379.22,381.4Z"/><path class="cls-50" d="M1372.16,377.93a.48.48,0,0,1,.27-.29.75.75,0,0,1,.45-.05,2.64,2.64,0,0,1,2,1.33.57.57,0,0,1,.22.11.45.45,0,0,1,0,.69c-.06,0,0,0,0,0l0,.05,0,0,0,.1v.05a.56.56,0,0,1-.59.49C1372.94,380.43,1371.73,379.11,1372.16,377.93Z"/><path class="cls-50" d="M1394.63,366.74a.54.54,0,0,1,.27-.29.77.77,0,0,1,.45-.05,2.65,2.65,0,0,1,2,1.33.51.51,0,0,1,.22.11.44.44,0,0,1,0,.69c0,.05,0,0,0,0s0,0,0,.05,0,0,0,.05a.36.36,0,0,1,0,.09v.05a.54.54,0,0,1-.58.49C1395.41,369.25,1394.21,367.92,1394.63,366.74Z"/><path class="cls-50" d="M1385.4,373c.58-.89,1.44-2.23,2.87-2.17a3.25,3.25,0,0,1,2.73,2,4,4,0,0,1,.14,2.86,4.08,4.08,0,0,1-.32.71,2.59,2.59,0,0,1-1.17,2,3.8,3.8,0,0,1-3.49.32,2.85,2.85,0,0,1-1.84-2.5A5.46,5.46,0,0,1,1385.4,373Z"/><path class="cls-50" d="M1390.44,364.63c.2-.29.41-.57.64-.85a11.38,11.38,0,0,1,1.44-1.6,3.53,3.53,0,0,1,.91-.58.85.85,0,0,1,.39-.12,2.25,2.25,0,0,1,.64-.06,1.86,1.86,0,0,1,1.57,1.05,1.16,1.16,0,0,1,0,1h0a.45.45,0,0,1-.21.66l0,0a1.29,1.29,0,0,1-.1.74,2.42,2.42,0,0,1-1.51,1.23,7.25,7.25,0,0,1-2.23.26c-.67,0-1.46-.16-1.7-.75A1.06,1.06,0,0,1,1390.44,364.63Z"/><path class="cls-50" d="M1426.22,358.46c-3.54,1-8,1.57-6.83-2.9.5-1.92,3-3.21,5.08-3.24a6.32,6.32,0,0,1,2.47.42,5.87,5.87,0,0,1,2.54,1.09c1.79,2.14-2.38,4.8-3.78,6Z"/><path class="cls-50" d="M1443,343.79a8.71,8.71,0,0,1,3.14-1.1,23.28,23.28,0,0,1,3.41-.64,13.08,13.08,0,0,1,5.94,1.18c2.74,1.49,2.12,3.88,1,6.09a.92.92,0,0,1,.35.19,2.29,2.29,0,0,1-.2,3.48c-1.22,1.1-3.2,1.29-4.87,1.59-.91.16-1.82.36-2.74.48a2,2,0,0,1-1.17-.19,19,19,0,0,1-5.53,2.54c-2,.42-4.72.91-5.26-1.14s.63-4.48,1.32-6.44c.49-1.4,1.46-2.55,2-3.76.34-.75.15-1.3,1-1.89C1441.84,343.84,1442.44,344.05,1443,343.79Z"/><path class="cls-50" d="M1412,360.47c-.67.74-3.71,5-5.48,2.82-.59-.7-.27-2.47,0-3.18.85-2,4.51-2.26,5.8-.1l-.35.46Z"/><path class="cls-51" d="M1418.83,237c-1,1.58-2.53,3.3-4.19,1.08a2.28,2.28,0,0,1,.54-3,3.29,3.29,0,0,1,1.21-.64,3.57,3.57,0,0,1,1.56-.4c1.76.28,1.32,2.76,1.32,3.72Z"/><path class="cls-51" d="M1418.71,225.38a3.4,3.4,0,0,1,.76-1.5,9.59,9.59,0,0,1,1.1-1.39,6.73,6.73,0,0,1,3-1.48c1.83-.3,2.72.88,3.29,2.18a.49.49,0,0,1,.24,0,1.61,1.61,0,0,1,1.58,1.49c0,.86-.7,1.6-1.24,2.27-.29.37-.57.76-.89,1.11a1,1,0,0,1-.57.31,7.75,7.75,0,0,1-1.06,2.88c-.64.85-1.51,1.94-2.71,1.28s-1.88-2.05-2.53-3.08c-.46-.74-.62-1.54-1-2.21-.23-.42-.56-.58-.49-1.11C1418.26,225.79,1418.6,225.67,1418.71,225.38Z"/><path class="cls-51" d="M1414,242.51c.08.53.86,3.28-.9,3a3,3,0,0,1-1.51-1.32c-.62-1.12.77-2.42,2.33-2,0,.1,0,.2.08.3Z"/><path class="cls-51" d="M1375.8,224.32a.54.54,0,0,1,.27-.29.77.77,0,0,1,.45-.05,2.67,2.67,0,0,1,2,1.33.47.47,0,0,1,.21.11.44.44,0,0,1,0,.69l0,0,0,0,0,.05,0,.09v0a.56.56,0,0,1-.59.49C1376.59,226.83,1375.38,225.5,1375.8,224.32Z"/><path class="cls-51" d="M1368.74,220.85a.53.53,0,0,1,.27-.3.84.84,0,0,1,.45-.05,2.66,2.66,0,0,1,2,1.34.55.55,0,0,1,.22.1.45.45,0,0,1,0,.69l0,0,0,0,0,0,0,.1v0a.57.57,0,0,1-.59.49C1369.52,223.35,1368.31,222,1368.74,220.85Z"/><path class="cls-51" d="M1400.68,227.18a.48.48,0,0,1,.27-.29.77.77,0,0,1,.45,0,2.64,2.64,0,0,1,2,1.33.43.43,0,0,1,.21.11.43.43,0,0,1,0,.68c0,.06,0,0,0,0l0,.05s0,0,0,0l0,.1a.43.43,0,0,0,0,.05.55.55,0,0,1-.58.49C1401.46,229.68,1400.26,228.36,1400.68,227.18Z"/><path class="cls-51" d="M1382,215.93c.58-.89,1.44-2.23,2.87-2.17a3.25,3.25,0,0,1,2.73,2,4,4,0,0,1,.14,2.86,4.93,4.93,0,0,1-.31.71,2.65,2.65,0,0,1-1.17,2,3.79,3.79,0,0,1-3.5.31,2.83,2.83,0,0,1-1.84-2.49A5.44,5.44,0,0,1,1382,215.93Z"/><path class="cls-51" d="M1387,207.55a10.49,10.49,0,0,1,.64-.85,10.85,10.85,0,0,1,1.44-1.6,3.29,3.29,0,0,1,.91-.58.75.75,0,0,1,.39-.12,2,2,0,0,1,.64-.06,1.85,1.85,0,0,1,1.57,1,1.17,1.17,0,0,1,0,1h0a.46.46,0,0,1-.21.67l0,0a1.29,1.29,0,0,1-.1.74,2.43,2.43,0,0,1-1.51,1.23,7.25,7.25,0,0,1-2.23.26c-.67,0-1.46-.16-1.7-.75A1.06,1.06,0,0,1,1387,207.55Z"/><path class="cls-51" d="M1432.27,218.9c-3.54,1-8,1.57-6.83-2.91.5-1.91,3-3.21,5.08-3.23a6.14,6.14,0,0,1,2.47.42,5.87,5.87,0,0,1,2.54,1.09c1.79,2.14-2.38,4.8-3.78,6Z"/><path class="cls-51" d="M1449.05,204.23a9,9,0,0,1,3.14-1.11,23.14,23.14,0,0,1,3.42-.63,12.94,12.94,0,0,1,5.93,1.18c2.74,1.49,2.12,3.87,1,6.08a.92.92,0,0,1,.35.19,2.29,2.29,0,0,1-.2,3.49c-1.22,1.1-3.2,1.29-4.87,1.59-.91.16-1.82.36-2.74.48a2.14,2.14,0,0,1-1.17-.19,19,19,0,0,1-5.53,2.54c-2,.41-4.72.91-5.26-1.15s.63-4.48,1.32-6.44c.5-1.39,1.46-2.55,2-3.75.34-.76.15-1.3,1-1.89C1447.9,204.28,1448.49,204.49,1449.05,204.23Z"/><path class="cls-51" d="M1418.07,220.9c-.67.75-3.7,5-5.48,2.83-.58-.71-.27-2.48,0-3.19.86-2,4.52-2.25,5.8-.1l-.35.46Z"/><path class="cls-48" d="M1232.77,438.62c-1,1.58-2.52,3.3-4.19,1.08a2.29,2.29,0,0,1,.54-3,3.26,3.26,0,0,1,1.22-.64,3.57,3.57,0,0,1,1.56-.4c1.76.28,1.32,2.76,1.32,3.72Z"/><path class="cls-48" d="M1282.11,431.48a3.51,3.51,0,0,1,.76-1.5,9.59,9.59,0,0,1,1.1-1.39,6.73,6.73,0,0,1,3-1.48c1.83-.3,2.72.88,3.29,2.18a.49.49,0,0,1,.24,0,1.61,1.61,0,0,1,1.58,1.49c0,.86-.7,1.6-1.24,2.27-.29.37-.57.76-.89,1.11a1,1,0,0,1-.57.31,7.58,7.58,0,0,1-1.06,2.88c-.64.85-1.51,1.94-2.71,1.28s-1.88-2-2.53-3.08c-.46-.74-.62-1.54-1-2.21-.23-.42-.56-.58-.49-1.11C1281.66,431.89,1282,431.77,1282.11,431.48Z"/><path class="cls-48" d="M1227.9,444.16c.09.53.87,3.28-.9,3a3.07,3.07,0,0,1-1.51-1.32c-.62-1.12.78-2.42,2.34-2,0,.11.05.21.07.31Z"/><path class="cls-48" d="M1199.22,443.49a.51.51,0,0,1,.27-.29.75.75,0,0,1,.45-.05,2.65,2.65,0,0,1,2,1.33.57.57,0,0,1,.22.11.45.45,0,0,1,0,.69c-.06.05,0,0,0,0s0,0,0,.05l0,.05,0,.09v.05a.55.55,0,0,1-.58.49C1200,446,1198.79,444.67,1199.22,443.49Z"/><path class="cls-48" d="M1214.63,428.83a.53.53,0,0,1,.27-.3.75.75,0,0,1,.45,0,2.63,2.63,0,0,1,2,1.33.46.46,0,0,1,.22.11.44.44,0,0,1,0,.68l0,0,0,.05,0,0,0,.1v.05a.57.57,0,0,1-.59.49C1215.41,431.33,1214.2,430,1214.63,428.83Z"/><path class="cls-48" d="M1205.39,435.1c.58-.89,1.45-2.23,2.87-2.17a3.24,3.24,0,0,1,2.73,2,3.85,3.85,0,0,1,.14,2.85,4,4,0,0,1-.31.71,2.62,2.62,0,0,1-1.17,2,3.81,3.81,0,0,1-3.49.31,2.83,2.83,0,0,1-1.84-2.49A5.47,5.47,0,0,1,1205.39,435.1Z"/><path class="cls-48" d="M1210.43,426.72c.2-.29.42-.58.64-.86a12,12,0,0,1,1.44-1.59,3.2,3.2,0,0,1,.92-.58.64.64,0,0,1,.38-.12,2,2,0,0,1,.64-.06,1.86,1.86,0,0,1,1.58,1.05,1.13,1.13,0,0,1,0,1h0a.46.46,0,0,1-.21.67l0,0a1.24,1.24,0,0,1-.09.73,2.44,2.44,0,0,1-1.51,1.24,7.31,7.31,0,0,1-2.24.25c-.66,0-1.46-.15-1.7-.74A1.08,1.08,0,0,1,1210.43,426.72Z"/><path class="cls-48" d="M1232,422.55c-.66.75-3.7,5-5.48,2.83-.58-.71-.26-2.48,0-3.19.86-2,4.52-2.25,5.8-.1-.11.16-.23.31-.35.46Z"/><path class="cls-52" d="M1122.75,526.88c-1,1.58-2.53,3.3-4.19,1.08a2.28,2.28,0,0,1,.54-3,3.26,3.26,0,0,1,1.22-.64,3.57,3.57,0,0,1,1.56-.4c1.75.28,1.31,2.76,1.31,3.72Z"/><path class="cls-52" d="M1117.88,532.42c.08.53.87,3.28-.9,3a3,3,0,0,1-1.51-1.32c-.62-1.12.78-2.42,2.33-2,0,.11,0,.21.08.31Z"/><path class="cls-52" d="M1089.2,531.75a.47.47,0,0,1,.26-.29.77.77,0,0,1,.45-.05,2.64,2.64,0,0,1,2,1.33.47.47,0,0,1,.21.11.44.44,0,0,1,0,.69c0,.05,0,0,0,0l0,0,0,0,0,.1v0a.55.55,0,0,1-.59.49C1090,534.25,1088.77,532.93,1089.2,531.75Z"/><path class="cls-52" d="M1104.6,517.08a.58.58,0,0,1,.27-.29.86.86,0,0,1,.45,0,2.7,2.7,0,0,1,2,1.33.6.6,0,0,1,.21.11.44.44,0,0,1,0,.69c0,.06,0,0,0,0l0,0,0,0,0,.1v.05a.57.57,0,0,1-.59.49C1105.39,519.59,1104.18,518.27,1104.6,517.08Z"/><path class="cls-52" d="M1095.37,523.36c.58-.9,1.44-2.23,2.87-2.17a3.26,3.26,0,0,1,2.73,2,3.88,3.88,0,0,1,.14,2.86,4.93,4.93,0,0,1-.31.71,2.65,2.65,0,0,1-1.17,2,3.82,3.82,0,0,1-3.5.31,2.85,2.85,0,0,1-1.84-2.49A5.48,5.48,0,0,1,1095.37,523.36Z"/><path class="cls-52" d="M1100.41,515c.2-.29.42-.58.64-.86a12,12,0,0,1,1.44-1.6,3.4,3.4,0,0,1,.92-.57.64.64,0,0,1,.38-.12,2,2,0,0,1,.64-.06,1.83,1.83,0,0,1,1.57,1.05,1.13,1.13,0,0,1,0,1h0a.45.45,0,0,1-.21.67l0,0a1.32,1.32,0,0,1-.09.73,2.43,2.43,0,0,1-1.52,1.24,7.25,7.25,0,0,1-2.23.25c-.66,0-1.46-.16-1.7-.74A1.08,1.08,0,0,1,1100.41,515Z"/><path class="cls-52" d="M1122,510.81c-.67.75-3.7,5-5.48,2.83-.58-.71-.27-2.48,0-3.19.86-2,4.52-2.26,5.8-.1l-.35.46Z"/></g><polygon class="cls-53" points="1266.59 294.84 1292.08 302.45 1321.86 308.27 1281.61 305.96 1266.59 304.01 1234.74 294.84 1266.59 294.84"/><path class="cls-34" d="M1341.45,256.09s14.89-4.86,29.24-3.92l25.82,7.49,29.18-3.46s-23.47-2.68-27.76-4c0,0-15.76-15.38-27.24-19.62s-37.81,7.25-37.81,7.25Z"/><path class="cls-54" d="M1508.11,207.55a334.18,334.18,0,0,1-48.3-5.17l8.2-2.16a284,284,0,0,1-35.44-5.51c-16.62-3.91-16.35-7.69-16.35-7.69l4.62-10.48S1488,189.4,1508.11,207.55Z"/><polygon class="cls-53" points="1226.12 305.96 1226.12 305.96 1243.36 300.85 1278.3 298.34 1292.08 302.45 1263.48 304.01 1239.59 306.68 1229.2 305.96 1226.12 305.96"/><polygon class="cls-55" points="1549.69 390.8 1536.54 387.56 1547.84 393.7 1566.2 409.08 1575.1 409.08 1573.49 407.31 1570.56 407.31 1549.69 390.8"/><path class="cls-56" d="M503.49,376.15l12.14-34.81,12.21-17S531,315.3,510,304.63c0,0,1.83-34.67-17.77-58.62H460.39l-17.17-15.92s-19.58-23.45-57.69-31.81l8.56-20.06L377.36,155S329,110.88,306.13,100.32c0,0-62,14.75-87.27,38.19L210,163.75,172.77,207s-5.88,92.35,17.66,119.1l23-33.78,7.8-22.85S473.37,375.94,503.49,376.15Z"/><path class="cls-57" d="M210,163.75l8.88,6s9.19,12.95,28.18,20,40.65,12.74,40.65,12.74-38.63,2-55.71,2.19L195.78,207s2.22,16.68,7,19.65c0,0-.11,26.94-17.49,39.59,0,0-12.41-24.53-12.54-59.24Z"/><path class="cls-58" d="M540.47,575.13l-.53,0,.53,0,222.09,10.66L676.27,542l-25.48,1.75C627,520.34,599,470.62,599,470.62c3.39-35.66-16.37-72-16.37-72L539.85,390l-6.23-13.66c-36.52-22.66-83.3-32.94-83.3-32.94-3.48-37.3-13.28-53-13.28-53-17.6-9.22-46.32-10.9-46.32-10.9l-10.85-7.26C371,239.7,354.5,212.34,354.5,212.34c-20.34-9.36-41.64,8.46-41.64,8.46L308.22,246l-12.32-9.36c-65.34,11.11-91.47,42.86-91.47,42.86-21,37.42-24.29,78.75-24.29,78.75-9.3,2-10.56,4.26-10.56,4.26l-16.07,15.41a86.84,86.84,0,0,1-33.68,22C12.82,469.94-12.33,589.16,5,590.67l89.22,16.22c54.12,3,80.24,7.71,80.24,7.71s97.13-4,244.17-.4S613.43,596,613.43,596L599,582.91C595,577.94,546.12,575.41,540.47,575.13Z"/><path class="cls-59" d="M539.94,575.11s-82.45-.61-114.79-9.18l-35.56,9.18s39-15.23,48.9-18.9h13.79L428.8,537.28s13.05-28.73,43.31-40.07c0,0,67-5.73,98.34,11.14l36,47.86H591.57l21.08,22.39Z"/><path class="cls-60" d="M294.72,597H247.28l30.42-10s3.48-33.43-6.44-55.39l-8.35-3.75V512.29l-12.27-15.08,4.7,15.08L232,515.05s-44.42,23.57-61.53,55.17l11.84,3.58-28.81,8.74-136.4-3.62A11.75,11.75,0,0,0,5,590.67H5c19.42,9.28,132.8,26.11,154,29,44.08,5.91,170.07-6.83,170.07-6.83Z"/><path class="cls-61" d="M116.05,462.56H102.31v-8.9L81.9,432s-19.41,21.87-21.42,28v49.65l36.57-27.33,23.15-15.81L155,457.79Z"/><path class="cls-38" d="M408.45,461s22.31-6.95,41.48-7.29,42.33,0,42.33,0l28.88,6.08s-18.39,1.61-46.56,7.24S408.45,461,408.45,461Z"/><path class="cls-38" d="M480.71,445.91s28-10.86,41.87-9.76a132.52,132.52,0,0,1,22.22,3.4s-8.53,15.64-24.57,13.44S480.71,445.91,480.71,445.91Z"/><path class="cls-62" d="M425.15,565.93s-26.61,1.51-58.43,21.11L402,576.49s47.84,16.76,70.19,19.44,77.13-15,77.13-15l45.95.14S476.28,563.79,425.15,565.93Z"/><polygon class="cls-63" points="240.72 269.42 267.33 299 332.58 305.2 334.67 280.55 309.07 268.12 285.57 255.38 240.72 269.42"/><path class="cls-63" d="M437,290.41s-29.11,12.53-43.2,12.26-31.3-6.13-31.3-6.13l-27.87-16-19-18.32L308.22,246a239.3,239.3,0,0,0,19.87,15.69c12,8.57,37.06,7.72,37.06,7.72l14.72,2.83,10.85,7.26S427.55,282.7,437,290.41Z"/><path class="cls-64" d="M137.65,443.87l20.58,3.37,8.55,6.42s37.27-4.64,51.56-17.16l7.76-10s15.8,7.95,42.73,3.52l6.21-4.71,29.88-1.18-57.64-4S239,406,218.34,396.51a73.82,73.82,0,0,0-41.13,25l-16.44,16.27S153.48,441.93,137.65,443.87Z"/><path class="cls-65" d="M218.35,396.51s-18,17.42-39.22,24.56l-2.79,17.45-.72-19.35,1.6-11.15S203.92,392.72,218.35,396.51Z"/><path class="cls-66" d="M221.28,578.88,259,575.67,284.22,587l14.71-2.21,44.81,28.08a263,263,0,0,1-44.81-5.73C273.85,601.82,247.28,597,247.28,597l7.95-8.4Z"/><path class="cls-67" d="M450.32,343.41s-37.67,5-50.72,13.06a248.65,248.65,0,0,0-22.24,15.41H422l28.3-7.65-11.83,7.65s15.58,19.55,95.13,4.47C533.62,376.35,508.62,354.42,450.32,343.41Z"/><path class="cls-68" d="M247.28,441.93l30.54,2.71,19.88-4.29L402,447.24h48.71l35.72,6.27s-35.24-.36-42.73.48-35.25,7-35.25,7l19.83,17.95,27.21,18.31L422,485s-34.54-16.1-44.66-20.35-114.2-16.49-114.2-16.49S262.4,450.18,247.28,441.93Z"/><path class="cls-38" d="M166.78,453.66l51.56-17.16,28.94,5.43s11.49,6,24,5.31c0,0,103.13,12.12,118.33,17.2S422,485,422,485s-6.62,10.08-65.14,6.67c0,0,.87-13.92-14.21-20.18,0,0-23.67,11.3-68.94,10.82s-98-15.42-98-15.42,4-9,12.72-12.83Z"/><polygon class="cls-69" points="630.7 549.96 657.55 543.26 675.13 546.49 696.96 552.49 664.22 557.99 630.7 549.96"/><path class="cls-66" d="M228.46,555.68l-53.14.52,1.89,4.79H127.37l-5,5.5H97.6l.05-7-3.42,1.24L14.29,581.32c29,1.39,141.93,1.75,141.93,1.75l26.07-9.27-11.84-3.58,18-1.13Z"/><polygon class="cls-70" points="508.44 578.6 496.28 594.29 536.79 591.1 599 582.91 604.42 587.82 604.42 572.51 597.3 571.22 596.91 575.67 541.85 585.75 508.44 578.6"/><polygon class="cls-71" points="168.27 362.96 169.58 362.52 183.11 365.13 226.1 361.7 247.39 348.96 277.7 338.38 255.34 328 259.73 340.13 235.86 343.41 211.74 348.28 182.68 359.72 179.13 350.9 168.27 362.96"/><path class="cls-72" d="M327.68,542.45c1,1.94,2.52,4.06,4.19,1.32a3.27,3.27,0,0,0-.54-3.71,3.15,3.15,0,0,0-1.22-.8c-.42-.18-1.05-.58-1.56-.48-1.76.34-1.32,3.4-1.32,4.58Z"/><path class="cls-72" d="M327.8,528.17a4.74,4.74,0,0,0-.77-1.84,11.36,11.36,0,0,0-1.09-1.72,6.49,6.49,0,0,0-3-1.83c-1.84-.36-2.72,1.1-3.3,2.69a.59.59,0,0,0-.23-.05,1.82,1.82,0,0,0-1.59,1.85,5.28,5.28,0,0,0,1.24,2.79c.3.45.58.93.9,1.36a1,1,0,0,0,.57.39,10.64,10.64,0,0,0,1.05,3.54c.64,1,1.51,2.39,2.71,1.57s1.88-2.52,2.54-3.79c.46-.91.61-1.89,1-2.72.22-.52.56-.71.49-1.36C328.25,528.67,327.9,528.53,327.8,528.17Z"/><path class="cls-72" d="M332.55,549.27c-.09.65-.87,4,.9,3.67.57-.12,1.29-1.14,1.51-1.62a1.85,1.85,0,0,0-2.34-2.43c0,.13-.05.25-.07.38Z"/><path class="cls-72" d="M203.57,462.05q2.66.88,5.44,1.63c-.07-.16.78-.18,1-.24a2,2,0,0,0,.72-.38c.46-.44.14-1.15-.23-1.55a5.43,5.43,0,0,0-3.93-1.23,7.23,7.23,0,0,0-2.33.25,2.47,2.47,0,0,0-.89.44c-.25.24-.21.4-.22.7A1.22,1.22,0,0,0,204,463a2,2,0,0,0,1.13.07c.25-.12.46-.6-.18-.48Z"/><path class="cls-73" d="M413.63,430.66a60.65,60.65,0,0,0,5.44,2.93c-.07-.28.78-.31,1-.42a2,2,0,0,0,.72-.68,3.29,3.29,0,0,0-.23-2.79,4.18,4.18,0,0,0-3.93-2.22,4.34,4.34,0,0,0-2.33.45,2.43,2.43,0,0,0-.89.8,2.15,2.15,0,0,0-.22,1.25,2.71,2.71,0,0,0,.83,2.33c.22.15.87.36,1.13.13s.46-1.09-.18-.87Z"/><path class="cls-72" d="M361.23,548.44a.61.61,0,0,0-.27-.36.69.69,0,0,0-.45-.06,2.71,2.71,0,0,0-2,1.64.52.52,0,0,0-.22.14.62.62,0,0,0,0,.84c.06.07,0,0,0,0s0,0,0,.06l0,.06,0,.11v.07a.6.6,0,0,0,.58.6A2.46,2.46,0,0,0,361.23,548.44Z"/><path class="cls-72" d="M208.53,465.61a.49.49,0,0,0-.27-.2,1.31,1.31,0,0,0-.45,0,2.89,2.89,0,0,0-2,.91.72.72,0,0,0-.22.08c-.22.14-.21.33,0,.47.06,0,0,0,0,0l0,0,0,0,0,.07v0c0,.18.27.33.59.33C207.75,467.33,209,466.42,208.53,465.61Z"/><path class="cls-72" d="M368.3,544.16a.61.61,0,0,0-.27-.36.7.7,0,0,0-.45-.06,2.73,2.73,0,0,0-2,1.64.57.57,0,0,0-.21.13.63.63,0,0,0,0,.85c.05.07,0,0,0,0l0,.06,0,.06,0,.11s0,.05,0,.07a.6.6,0,0,0,.58.6A2.46,2.46,0,0,0,368.3,544.16Z"/><path class="cls-72" d="M345.82,530.38a.61.61,0,0,0-.27-.36.69.69,0,0,0-.45-.06,2.71,2.71,0,0,0-2,1.64.52.52,0,0,0-.22.14.64.64,0,0,0,0,.85c.06.06,0,0,0,0s0,.05,0,.07l0,0,0,.11v.07a.6.6,0,0,0,.59.6A2.46,2.46,0,0,0,345.82,530.38Z"/><path class="cls-72" d="M355.06,538.11c-.58-1.1-1.45-2.75-2.87-2.68a3.43,3.43,0,0,0-2.73,2.48,5.8,5.8,0,0,0-.14,3.52,5.64,5.64,0,0,0,.31.87,3.45,3.45,0,0,0,1.17,2.45,3.2,3.2,0,0,0,3.49.38,3.5,3.5,0,0,0,1.84-3.07A7.83,7.83,0,0,0,355.06,538.11Z"/><path class="cls-74" d="M218.91,405c1,1.94,2.53,4.06,4.19,1.32a3.25,3.25,0,0,0-.54-3.71,3.15,3.15,0,0,0-1.22-.8c-.42-.18-1.05-.59-1.56-.48-1.75.34-1.31,3.4-1.31,4.58Z"/><path class="cls-74" d="M223.78,411.86c-.08.65-.86,4,.9,3.67.58-.12,1.29-1.15,1.51-1.63a1.84,1.84,0,0,0-2.33-2.42c0,.13-.05.25-.08.38Z"/><path class="cls-74" d="M252.46,411a.6.6,0,0,0-.26-.36.7.7,0,0,0-.45-.06,2.73,2.73,0,0,0-2,1.64.5.5,0,0,0-.21.13.62.62,0,0,0,0,.85c0,.07,0,0,0,0l0,.06,0,.06,0,.11v.07a.61.61,0,0,0,.59.6A2.46,2.46,0,0,0,252.46,411Z"/><path class="cls-74" d="M259.53,406.75a.61.61,0,0,0-.27-.36.64.64,0,0,0-.45-.06,2.71,2.71,0,0,0-2,1.64.61.61,0,0,0-.22.13.63.63,0,0,0,0,.85c.06.07,0,0,0,0s0,.05,0,.06l0,.06,0,.11v.07a.61.61,0,0,0,.58.6A2.46,2.46,0,0,0,259.53,406.75Z"/><path class="cls-74" d="M246.29,400.7c-.58-1.1-1.44-2.75-2.87-2.68a3.44,3.44,0,0,0-2.73,2.48,5.87,5.87,0,0,0-.14,3.52,6.94,6.94,0,0,0,.31.87,3.49,3.49,0,0,0,1.17,2.45,3.22,3.22,0,0,0,3.5.38,3.52,3.52,0,0,0,1.84-3.07A7.84,7.84,0,0,0,246.29,400.7Z"/><path class="cls-72" d="M122.79,468.54h0v0Z"/><path class="cls-72" d="M124.93,469.55a2.29,2.29,0,0,0-1-.81.44.44,0,0,0-.12-.57,2.28,2.28,0,0,0-1.57-.44,2.08,2.08,0,0,0-1.5.64,1.37,1.37,0,0,0,.45,2.09,3.54,3.54,0,0,0,3.21.17C124.92,470.37,125.13,469.94,124.93,469.55ZM200.15,465a2.34,2.34,0,0,0-1-.82.44.44,0,0,0-.13-.56,2.27,2.27,0,0,0-1.56-.45,2.13,2.13,0,0,0-1.51.65,1.37,1.37,0,0,0,.45,2.09,3.59,3.59,0,0,0,3.22.17C200.15,465.79,200.36,465.35,200.15,465Zm-78.59,4.13s0-.11,0-.09,0,0,0,0l0-.08a2,2,0,0,1,.11-.2l.06-.07,0,0s.09-.07,0,0l.09-.05s.14-.06.07,0l.14-.05h.25l.15,0c-.11,0,0,0,.08,0h0l0,0,0,0,0,0h0s0,0,0,0,0,0,0,0h0l-.07,0a.37.37,0,0,0-.13.15l-.16.07h0a.55.55,0,0,0-.2.11,1.74,1.74,0,0,0-.46.3.63.63,0,0,0-.15.26.64.64,0,0,0,0-.07v-.08A1.62,1.62,0,0,1,121.56,469.1Z"/><path class="cls-72" d="M350,527.79c-.2-.36-.42-.71-.64-1.06a14.59,14.59,0,0,0-1.45-2,3.15,3.15,0,0,0-.91-.71.55.55,0,0,0-.38-.15,1.54,1.54,0,0,0-.64-.07,1.9,1.9,0,0,0-1.58,1.29,1.68,1.68,0,0,0,0,1.23h0a.62.62,0,0,0,.21.82l0,0a1.79,1.79,0,0,0,.09.91,2.61,2.61,0,0,0,1.51,1.51,5.88,5.88,0,0,0,2.24.32,1.63,1.63,0,0,0,1.69-.92A1.52,1.52,0,0,0,350,527.79Z"/><path class="cls-72" d="M314.23,520.19c3.54,1.2,8,1.93,6.83-3.58a5.44,5.44,0,0,0-5.07-4,5.19,5.19,0,0,0-2.48.52c-.74.29-2,.57-2.53,1.34-1.8,2.63,2.37,5.91,3.77,7.39Z"/><path class="cls-72" d="M297.45,502.12a7.78,7.78,0,0,0-3.14-1.36,19.83,19.83,0,0,0-3.41-.78,11,11,0,0,0-5.94,1.46c-2.74,1.83-2.11,4.77-.94,7.49a.82.82,0,0,0-.35.23,3.25,3.25,0,0,0,.19,4.29c1.23,1.36,3.21,1.59,4.87,2,.91.2,1.82.44,2.74.59a1.81,1.81,0,0,0,1.18-.23,17.88,17.88,0,0,0,5.52,3.13c2,.51,4.73,1.12,5.26-1.41s-.62-5.52-1.32-7.93c-.49-1.72-1.46-3.14-2-4.63-.34-.93-.15-1.6-1-2.33C298.61,502.18,298,502.45,297.45,502.12Z"/><path class="cls-72" d="M328.44,522.66c.66.92,3.7,6.15,5.48,3.48.58-.87.26-3,0-3.92a3.14,3.14,0,0,0-5.8-.13c.11.19.23.38.35.57Z"/><path class="cls-74" d="M314.19,346.61c1,1.94,2.53,4.06,4.19,1.33a3.25,3.25,0,0,0-.53-3.71,2.94,2.94,0,0,0-1.22-.8,3,3,0,0,0-1.56-.49c-1.76.35-1.32,3.4-1.32,4.58Z"/><path class="cls-74" d="M314.31,332.34a4.57,4.57,0,0,0-.76-1.84,12.2,12.2,0,0,0-1.09-1.72,6.39,6.39,0,0,0-3-1.83c-1.83-.37-2.72,1.09-3.29,2.69a.39.39,0,0,0-.24-.05,1.81,1.81,0,0,0-1.58,1.84,5.31,5.31,0,0,0,1.24,2.8c.3.45.57.92.9,1.36a.94.94,0,0,0,.57.38,10.7,10.7,0,0,0,1.05,3.55c.64,1,1.51,2.39,2.71,1.57s1.88-2.52,2.53-3.8c.46-.9.62-1.88,1-2.71.22-.52.55-.72.48-1.37C314.76,332.84,314.42,332.7,314.31,332.34Z"/><path class="cls-74" d="M319.06,353.44c-.08.64-.86,4,.9,3.66.58-.12,1.3-1.14,1.51-1.62a1.83,1.83,0,0,0-2.33-2.42c0,.12-.05.25-.08.38Z"/><path class="cls-74" d="M347.75,352.61a.61.61,0,0,0-.27-.36.64.64,0,0,0-.45-.06,2.7,2.7,0,0,0-2,1.64.54.54,0,0,0-.22.13.63.63,0,0,0,0,.85c.05.06,0,0,0,0s0,0,0,.06,0,0,0,.05l0,.12s0,0,0,.06a.59.59,0,0,0,.58.6A2.46,2.46,0,0,0,347.75,352.61Z"/><path class="cls-74" d="M354.81,348.33a.61.61,0,0,0-.27-.36.63.63,0,0,0-.45-.06,2.73,2.73,0,0,0-2,1.64.5.5,0,0,0-.21.13.62.62,0,0,0,0,.85l0,0,0,.06,0,.05,0,.12v.06a.6.6,0,0,0,.59.6A2.45,2.45,0,0,0,354.81,348.33Z"/><path class="cls-74" d="M332.34,334.55a.61.61,0,0,0-.27-.36.64.64,0,0,0-.45-.06,2.71,2.71,0,0,0-2,1.64.54.54,0,0,0-.22.13.63.63,0,0,0,0,.85c.05.07,0,0,0,0s0,0,0,.06a.14.14,0,0,1,0,.06.76.76,0,0,0,0,.11V337a.6.6,0,0,0,.58.6A2.47,2.47,0,0,0,332.34,334.55Z"/><path class="cls-74" d="M341.57,342.28c-.58-1.11-1.44-2.75-2.87-2.68a3.43,3.43,0,0,0-2.73,2.47,6,6,0,0,0-.14,3.52,5.81,5.81,0,0,0,.32.88,3.37,3.37,0,0,0,1.17,2.44,3.2,3.2,0,0,0,3.49.39,3.53,3.53,0,0,0,1.84-3.07A7.74,7.74,0,0,0,341.57,342.28Z"/><path class="cls-74" d="M336.53,332c-.2-.35-.41-.7-.64-1.05a13.26,13.26,0,0,0-1.44-2,3.72,3.72,0,0,0-.91-.71.62.62,0,0,0-.39-.14,1.71,1.71,0,0,0-.64-.08,1.91,1.91,0,0,0-1.57,1.3,1.73,1.73,0,0,0,0,1.23h0a.62.62,0,0,0,.21.82l0,0a1.9,1.9,0,0,0,.1.91,2.63,2.63,0,0,0,1.51,1.52,6,6,0,0,0,2.23.32,1.64,1.64,0,0,0,1.7-.92A1.54,1.54,0,0,0,336.53,332Z"/><path class="cls-74" d="M300.75,324.35c3.54,1.2,8,1.94,6.83-3.57a5.48,5.48,0,0,0-5.08-4,5.18,5.18,0,0,0-2.47.53c-.75.29-2,.57-2.54,1.33-1.79,2.64,2.38,5.92,3.78,7.4Z"/><path class="cls-74" d="M284,306.29a7.7,7.7,0,0,0-3.14-1.36,19.36,19.36,0,0,0-3.41-.79,11.09,11.09,0,0,0-5.94,1.46c-2.74,1.83-2.12,4.77-.94,7.5a.77.77,0,0,0-.36.23,3.26,3.26,0,0,0,.2,4.29c1.22,1.35,3.2,1.59,4.87,1.95.91.2,1.82.45,2.74.6a1.78,1.78,0,0,0,1.17-.23,17.92,17.92,0,0,0,5.53,3.13c2,.5,4.72,1.11,5.26-1.42s-.63-5.52-1.32-7.93c-.49-1.71-1.46-3.14-2-4.63-.34-.92-.15-1.59-1-2.32C285.13,306.35,284.53,306.61,284,306.29Z"/><path class="cls-74" d="M315,326.82c.67.93,3.71,6.15,5.48,3.49.59-.88.27-3.05,0-3.93a3.14,3.14,0,0,0-5.8-.12l.35.56Z"/><path class="cls-75" d="M308.14,174.74c1,1.94,2.53,4.06,4.19,1.33a3.24,3.24,0,0,0-.54-3.71,5.53,5.53,0,0,0-2.77-1.29c-1.76.35-1.32,3.4-1.32,4.58Z"/><path class="cls-75" d="M308.26,160.47a4.57,4.57,0,0,0-.76-1.84,11.42,11.42,0,0,0-1.1-1.72,6.36,6.36,0,0,0-3-1.83c-1.83-.37-2.72,1.09-3.29,2.69a.4.4,0,0,0-.24-.05,1.81,1.81,0,0,0-1.58,1.84,5.25,5.25,0,0,0,1.24,2.79c.29.46.57.93.89,1.37a1,1,0,0,0,.57.38,11,11,0,0,0,1.06,3.55c.64,1,1.51,2.39,2.71,1.57s1.88-2.52,2.53-3.8c.46-.9.62-1.88,1-2.71.23-.52.56-.72.49-1.37C308.71,161,308.37,160.83,308.26,160.47Z"/><path class="cls-75" d="M313,181.56c-.08.65-.86,4,.9,3.67.58-.12,1.29-1.14,1.51-1.62a1.83,1.83,0,0,0-2.33-2.42c0,.12,0,.25-.08.37Z"/><path class="cls-75" d="M351.17,159.16a.61.61,0,0,0-.27-.36.7.7,0,0,0-.45-.06,2.73,2.73,0,0,0-2,1.64.49.49,0,0,0-.21.14.63.63,0,0,0,0,.85l0,0,0,.07,0,0,0,.11s0,.05,0,.07a.59.59,0,0,0,.58.6A2.47,2.47,0,0,0,351.17,159.16Z"/><path class="cls-75" d="M358.23,154.88a.61.61,0,0,0-.27-.36.69.69,0,0,0-.45-.06,2.71,2.71,0,0,0-2,1.64.52.52,0,0,0-.22.14.63.63,0,0,0,0,.84c.06.07,0,0,0,0s0,0,0,.06l0,.06,0,.11v.07a.61.61,0,0,0,.59.6A2.46,2.46,0,0,0,358.23,154.88Z"/><path class="cls-75" d="M326.29,162.68a.61.61,0,0,0-.27-.36.64.64,0,0,0-.45-.06,2.7,2.7,0,0,0-2,1.64.54.54,0,0,0-.22.13.63.63,0,0,0,0,.85c.05.07,0,0,0,0s0,0,0,.06,0,0,0,.05l0,.12s0,0,0,.07a.6.6,0,0,0,.58.6A2.47,2.47,0,0,0,326.29,162.68Z"/><path class="cls-75" d="M345,148.83c-.58-1.1-1.44-2.74-2.87-2.67a3.42,3.42,0,0,0-2.73,2.47,6,6,0,0,0-.14,3.52,6.41,6.41,0,0,0,.31.87,3.47,3.47,0,0,0,1.17,2.45,3.22,3.22,0,0,0,3.5.38,3.52,3.52,0,0,0,1.84-3.07A7.77,7.77,0,0,0,345,148.83Z"/><path class="cls-75" d="M340,138.51c-.2-.36-.41-.71-.64-1a13.26,13.26,0,0,0-1.44-2,3.29,3.29,0,0,0-.91-.71.63.63,0,0,0-.39-.15,1.73,1.73,0,0,0-.64-.07,1.89,1.89,0,0,0-1.57,1.29,1.73,1.73,0,0,0,0,1.23h0a.63.63,0,0,0,.21.83l0,0a1.91,1.91,0,0,0,.1.91,2.59,2.59,0,0,0,1.51,1.51,5.83,5.83,0,0,0,2.23.32,1.63,1.63,0,0,0,1.7-.92A1.53,1.53,0,0,0,340,138.51Z"/><path class="cls-75" d="M294.7,152.48c3.54,1.2,8,1.94,6.83-3.57a5.48,5.48,0,0,0-5.08-4,5.29,5.29,0,0,0-2.47.52c-.75.3-2,.58-2.54,1.34-1.79,2.63,2.38,5.92,3.78,7.4Z"/><path class="cls-75" d="M277.92,134.42a7.76,7.76,0,0,0-3.14-1.36,19.27,19.27,0,0,0-3.42-.79,11.08,11.08,0,0,0-5.93,1.46c-2.74,1.83-2.12,4.77-.95,7.49a.92.92,0,0,0-.35.24,3.25,3.25,0,0,0,.2,4.29c1.22,1.35,3.2,1.59,4.87,1.95.91.2,1.82.45,2.74.59a1.77,1.77,0,0,0,1.17-.22,17.57,17.57,0,0,0,5.53,3.12c2,.51,4.72,1.12,5.26-1.41s-.63-5.52-1.32-7.93c-.5-1.71-1.46-3.14-2-4.63-.34-.92-.15-1.59-1-2.32C279.07,134.48,278.48,134.74,277.92,134.42Z"/><path class="cls-75" d="M308.9,155c.67.92,3.7,6.15,5.48,3.48.58-.87.27-3.05,0-3.92a3.14,3.14,0,0,0-5.8-.12c.12.18.24.37.35.56Z"/><path class="cls-73" d="M494.2,423.07c1,1.94,2.52,4.06,4.19,1.33a3.28,3.28,0,0,0-.54-3.72,5.73,5.73,0,0,0-2.78-1.28c-1.76.35-1.32,3.4-1.32,4.58Z"/><path class="cls-73" d="M444.86,414.28a4.57,4.57,0,0,0-.76-1.84,11.42,11.42,0,0,0-1.1-1.72,6.36,6.36,0,0,0-3-1.83c-1.83-.37-2.72,1.09-3.29,2.69a.4.4,0,0,0-.24-.05,1.81,1.81,0,0,0-1.58,1.84,5.25,5.25,0,0,0,1.24,2.79c.29.46.57.93.89,1.37a1,1,0,0,0,.57.38,11,11,0,0,0,1.06,3.55c.64,1,1.51,2.39,2.71,1.57s1.88-2.52,2.53-3.8c.46-.9.62-1.88,1-2.71.23-.52.56-.72.49-1.37C445.31,414.78,445,414.64,444.86,414.28Z"/><path class="cls-73" d="M499.07,429.89c-.09.65-.87,4,.9,3.67.57-.12,1.29-1.14,1.51-1.62a1.84,1.84,0,0,0-2.34-2.42c0,.12-.05.25-.07.37Z"/><path class="cls-73" d="M527.75,429.07a.61.61,0,0,0-.27-.36.63.63,0,0,0-.45-.06,2.71,2.71,0,0,0-2,1.64.5.5,0,0,0-.22.13.64.64,0,0,0,0,.85c.06.06,0,0,0,0l0,.06,0,.05,0,.12v.06a.6.6,0,0,0,.58.6A2.45,2.45,0,0,0,527.75,429.07Z"/><path class="cls-73" d="M512.34,411a.61.61,0,0,0-.27-.36.63.63,0,0,0-.45-.06,2.71,2.71,0,0,0-2,1.64.61.61,0,0,0-.22.13.64.64,0,0,0,0,.85c.06.07,0,0,0,0l0,.06,0,.05,0,.12v.06a.6.6,0,0,0,.59.6A2.45,2.45,0,0,0,512.34,411Z"/><path class="cls-73" d="M521.58,418.74c-.58-1.11-1.45-2.75-2.87-2.68a3.4,3.4,0,0,0-2.73,2.47,6,6,0,0,0,.17,4.4,3.41,3.41,0,0,0,1.17,2.44,3.2,3.2,0,0,0,3.49.39,3.52,3.52,0,0,0,1.84-3.07A7.81,7.81,0,0,0,521.58,418.74Z"/><path class="cls-73" d="M516.54,408.41c-.2-.36-.42-.71-.64-1.05a14.85,14.85,0,0,0-1.44-2,3.38,3.38,0,0,0-.92-.71.67.67,0,0,0-.38-.15,1.73,1.73,0,0,0-.64-.07,1.91,1.91,0,0,0-1.58,1.3,1.66,1.66,0,0,0,0,1.22h0a.62.62,0,0,0,.21.82l.05,0a2,2,0,0,0,.09.91,2.62,2.62,0,0,0,1.52,1.52,6,6,0,0,0,2.23.32,1.65,1.65,0,0,0,1.7-.92A1.58,1.58,0,0,0,516.54,408.41Z"/><path class="cls-73" d="M495,403.28c.66.92,3.7,6.15,5.48,3.48.58-.87.26-3.05,0-3.92a3.14,3.14,0,0,0-5.8-.13c.11.19.23.38.35.57Z"/><path class="cls-72" d="M604.22,531.76c1,1.94,2.53,4.06,4.19,1.33a3.24,3.24,0,0,0-.54-3.71,2.94,2.94,0,0,0-1.22-.8,3,3,0,0,0-1.56-.49c-1.75.35-1.31,3.4-1.31,4.58Z"/><path class="cls-72" d="M609.09,538.58c-.08.65-.86,4,.9,3.67.58-.12,1.29-1.14,1.51-1.62a1.84,1.84,0,0,0-2.33-2.42c0,.12,0,.25-.08.37Z"/><path class="cls-72" d="M637.77,537.76a.6.6,0,0,0-.26-.36.64.64,0,0,0-.45-.06,2.73,2.73,0,0,0-2,1.64.42.42,0,0,0-.21.13.62.62,0,0,0,0,.85c0,.06,0,0,0,0l0,.06,0,0,0,.12v.06a.6.6,0,0,0,.59.6A2.45,2.45,0,0,0,637.77,537.76Z"/><path class="cls-72" d="M622.37,519.7a.66.66,0,0,0-.27-.36.64.64,0,0,0-.45-.06,2.73,2.73,0,0,0-2,1.64.5.5,0,0,0-.21.13.63.63,0,0,0,0,.85c0,.07,0,0,0,0l0,.06,0,.05,0,.12v.06a.62.62,0,0,0,.59.61A2.48,2.48,0,0,0,622.37,519.7Z"/><path class="cls-72" d="M631.6,527.43c-.58-1.11-1.44-2.75-2.87-2.68a3.42,3.42,0,0,0-2.73,2.47,5.88,5.88,0,0,0-.14,3.52,7.08,7.08,0,0,0,.31.88,3.45,3.45,0,0,0,1.17,2.44,3.22,3.22,0,0,0,3.5.39,3.54,3.54,0,0,0,1.84-3.07A7.81,7.81,0,0,0,631.6,527.43Z"/><path class="cls-72" d="M626.56,517.1c-.2-.36-.42-.71-.64-1.05a14,14,0,0,0-1.44-2,3.38,3.38,0,0,0-.92-.71.67.67,0,0,0-.38-.15,1.73,1.73,0,0,0-.64-.07,1.89,1.89,0,0,0-1.57,1.3,1.65,1.65,0,0,0,0,1.22h0a.61.61,0,0,0,.21.82l0,0a2,2,0,0,0,.09.91,2.62,2.62,0,0,0,1.52,1.52,6,6,0,0,0,2.23.32,1.65,1.65,0,0,0,1.7-.92A1.58,1.58,0,0,0,626.56,517.1Z"/><path class="cls-72" d="M605,512c.67.92,3.7,6.15,5.48,3.48.58-.87.27-3.05,0-3.92a3.14,3.14,0,0,0-5.8-.13l.35.57Z"/><path class="cls-72" d="M195.18,482.79a2,2,0,0,0-.77-.06,1.35,1.35,0,0,0-.63.27,1.79,1.79,0,0,0-.55,2.52.38.38,0,0,0-.11.25c0,.33.44.56,1,.59h-.07l.12,0h.1a.64.64,0,0,0,.18.06l.08.05a1.62,1.62,0,0,0,1.44,0C197.86,485.49,197.43,483.51,195.18,482.79Z"/><path class="cls-72" d="M199,474.9a1.8,1.8,0,0,0-.77-.06,1.26,1.26,0,0,0-.63.27,1.79,1.79,0,0,0-.55,2.52.37.37,0,0,0-.11.24c0,.34.44.56,1,.59.14,0,0,0-.07,0H198l.1,0,.18.06.08,0a1.65,1.65,0,0,0,1.44,0C201.65,477.59,201.23,475.62,199,474.9Z"/><path class="cls-72" d="M154.42,480.91a1.76,1.76,0,0,0-.76-.07,1.44,1.44,0,0,0-.64.27,1.78,1.78,0,0,0-.54,2.52.39.39,0,0,0-.12.25c0,.33.44.56,1,.59.14,0,0,0-.07,0l.13,0,.09,0,.18.06.08,0a1.64,1.64,0,0,0,1.45,0C157.1,483.6,156.68,481.62,154.42,480.91Z"/><path class="cls-72" d="M175.18,479.88c-2-.37-5.07-.91-6.78.13s-1.34,2.48-.49,3.62a8.31,8.31,0,0,0,4,2.55,14.71,14.71,0,0,0,1.42.39,8.78,8.78,0,0,0,4.37.9c2.23-.11,4.07-1,4.84-2.16s.1-2.49-1.33-3.42A16.88,16.88,0,0,0,175.18,479.88Z"/><path class="cls-72" d="M156.61,476.18c-.68-.11-1.37-.2-2.05-.29a40.74,40.74,0,0,0-4.15-.37,10.2,10.2,0,0,0-2,.14,1.69,1.69,0,0,0-.66.17,3.28,3.28,0,0,0-.89.39,1.28,1.28,0,0,0-.43,2,2.65,2.65,0,0,0,1.49.84h0c.14.32.7.5,1.24.43h.08a3.43,3.43,0,0,0,1.2.56,7.59,7.59,0,0,0,3.7,0,12.41,12.41,0,0,0,3.18-1.33c.83-.46,1.6-1.15,1-1.82A3.07,3.07,0,0,0,156.61,476.18Z"/><path class="cls-72" d="M177.49,477.91c-.2-.2-.42-.4-.64-.59a10.07,10.07,0,0,0-1.44-1.09,3.7,3.7,0,0,0-.92-.4.92.92,0,0,0-.38-.08,3.39,3.39,0,0,0-.64,0,2,2,0,0,0-1.58.72.56.56,0,0,0,0,.68h0c-.16.16-.06.37.21.46h.05a.67.67,0,0,0,.09.51,2.45,2.45,0,0,0,1.52.84,10.23,10.23,0,0,0,2.23.18c.66,0,1.46-.11,1.7-.51S177.7,478.12,177.49,477.91Z"/><path class="cls-72" d="M159.2,469.61a2.88,2.88,0,0,0-2.18-1.25,2.8,2.8,0,0,0-.92.07.79.79,0,0,0-.8.1,4,4,0,0,0-3.25,1.55c-.63,1.15.5,2.18,2.09,2.85a6.5,6.5,0,0,0,2.71.58,2.85,2.85,0,0,0,2.07-.86,2.57,2.57,0,0,0,.55-1.42A2.27,2.27,0,0,0,159.2,469.61Z"/><path class="cls-72" d="M98.38,526.93c1.77.59,3.58,1.14,5.44,1.63-.07-.16.77-.17,1-.24a2,2,0,0,0,.72-.37c.46-.44.14-1.15-.23-1.55a5.39,5.39,0,0,0-3.93-1.24,7.51,7.51,0,0,0-2.33.25,2.48,2.48,0,0,0-.89.45c-.25.23-.22.4-.22.69a1.24,1.24,0,0,0,.83,1.3,2.15,2.15,0,0,0,1.13.07c.25-.12.46-.61-.18-.49Z"/><path class="cls-72" d="M103.34,530.5a.45.45,0,0,0-.27-.2,1,1,0,0,0-.45,0,2.81,2.81,0,0,0-2,.91.71.71,0,0,0-.22.07c-.22.14-.21.33,0,.47.06,0,0,0,0,0l0,0,0,0,0,.06v0c0,.18.27.33.59.33C102.56,532.21,103.77,531.31,103.34,530.5Z"/><path class="cls-72" d="M17.6,533.43h0Z"/><path class="cls-72" d="M19.74,534.44a2.37,2.37,0,0,0-1-.82.43.43,0,0,0-.12-.56,2.28,2.28,0,0,0-1.57-.45,2.09,2.09,0,0,0-1.5.65,1.37,1.37,0,0,0,.45,2.09,3.58,3.58,0,0,0,3.21.17C19.73,535.26,19.94,534.82,19.74,534.44ZM95,529.85a2.26,2.26,0,0,0-1-.81.45.45,0,0,0-.13-.57,2.32,2.32,0,0,0-1.56-.45,2.17,2.17,0,0,0-1.51.65,1.37,1.37,0,0,0,.45,2.09,3.59,3.59,0,0,0,3.22.17C95,530.67,95.17,530.24,95,529.85ZM16.37,534a.81.81,0,0,0,0-.09s0,0,0,0l0-.08a2.12,2.12,0,0,1,.11-.21l.06-.06.05,0s.09-.08.05-.05l.09,0,.07,0,.14-.05h.11c-.11,0,0,0,.07,0h.07l.15,0c-.11,0,.05,0,.08,0h0l0,0,0,0,0,0h0s0,0,0,0v0h0l-.07,0a.37.37,0,0,0-.13.15l-.16.08h0a.54.54,0,0,0-.2.1,2,2,0,0,0-.46.3.63.63,0,0,0-.15.26s0-.05,0-.07,0-.06,0-.08A1.55,1.55,0,0,1,16.37,534Z"/><path class="cls-72" d="M90,547.68a1.8,1.8,0,0,0-.77-.07,1.27,1.27,0,0,0-.63.28,1.79,1.79,0,0,0-.55,2.52.32.32,0,0,0-.11.24c0,.34.44.56,1,.59h0l.1,0,.18.06.08,0a1.65,1.65,0,0,0,1.44,0C92.66,550.37,92.24,548.4,90,547.68Z"/><path class="cls-72" d="M93.78,539.78a1.8,1.8,0,0,0-.77-.06,1.35,1.35,0,0,0-.63.27,1.79,1.79,0,0,0-.55,2.52.38.38,0,0,0-.11.25c0,.33.44.56,1,.59h-.07l.12,0h.1l.18.06.08.05a1.62,1.62,0,0,0,1.44,0C96.46,542.48,96,540.5,93.78,539.78Z"/><path class="cls-72" d="M49.23,545.79a1.76,1.76,0,0,0-.76-.06,1.25,1.25,0,0,0-.64.27,1.79,1.79,0,0,0-.55,2.52.41.41,0,0,0-.11.24c0,.34.44.56,1,.59h.06l.09,0,.18.06.08,0a1.67,1.67,0,0,0,1.45,0C51.91,548.48,51.49,546.51,49.23,545.79Z"/><path class="cls-72" d="M70,544.76c-2-.36-5.07-.91-6.78.13s-1.34,2.48-.49,3.62a8.31,8.31,0,0,0,4,2.55,12.31,12.31,0,0,0,1.42.4,8.78,8.78,0,0,0,4.37.89c2.23-.1,4.07-1,4.84-2.16s.1-2.48-1.33-3.42A17.07,17.07,0,0,0,70,544.76Z"/><path class="cls-72" d="M51.42,541.06c-.68-.11-1.37-.2-2.05-.29-1.36-.16-2.76-.33-4.15-.36a10.19,10.19,0,0,0-2,.13,1.69,1.69,0,0,0-.66.17,3.28,3.28,0,0,0-.89.39,1.3,1.3,0,0,0-.44,2,2.7,2.7,0,0,0,1.5.83h0a1.24,1.24,0,0,0,1.24.42h.08a3.44,3.44,0,0,0,1.2.57,7.72,7.72,0,0,0,3.7,0,12.07,12.07,0,0,0,3.18-1.33c.83-.46,1.6-1.15,1-1.82A3.07,3.07,0,0,0,51.42,541.06Z"/><path class="cls-72" d="M72.3,542.79c-.2-.2-.42-.39-.64-.59a11.8,11.8,0,0,0-1.44-1.09,3.69,3.69,0,0,0-.92-.39.92.92,0,0,0-.38-.09,3.39,3.39,0,0,0-.64,0,2,2,0,0,0-1.58.72.57.57,0,0,0,0,.69h0c-.16.16-.06.36.21.45l0,0a.62.62,0,0,0,.09.5,2.41,2.41,0,0,0,1.52.84,10.23,10.23,0,0,0,2.23.18c.66,0,1.46-.11,1.69-.51C72.67,543.24,72.51,543,72.3,542.79Z"/><path class="cls-72" d="M54,534.49a2.84,2.84,0,0,0-2.18-1.24,3.1,3.1,0,0,0-.92.06.84.84,0,0,0-.8.1A4.07,4.07,0,0,0,46.86,535c-.63,1.16.5,2.18,2.09,2.85a6.2,6.2,0,0,0,2.71.58,2.85,2.85,0,0,0,2.07-.85,2.71,2.71,0,0,0,.55-1.42A2.36,2.36,0,0,0,54,534.49Z"/><polygon class="cls-76" points="460.39 246.01 434.89 255.38 405.11 262.55 445.36 259.7 460.39 257.3 492.23 246.01 460.39 246.01"/><path class="cls-57" d="M385.53,198.28s-14.9-6-29.25-4.82l-25.82,9.22-29.18-4.26s23.47-3.3,27.76-5c0,0,15.76-18.94,27.24-24.16s37.81,8.92,37.81,8.92Z"/><path class="cls-77" d="M218.86,138.51a272.63,272.63,0,0,0,48.3-6.37l-8.2-2.66s18.82-2,35.44-6.78,16.35-9.47,16.35-9.47l-4.62-12.91S239,116.15,218.86,138.51Z"/><polygon class="cls-76" points="500.85 259.7 500.85 259.7 483.61 253.4 448.67 250.31 434.89 255.38 463.49 257.3 487.38 260.59 497.77 259.7 500.85 259.7"/><polygon class="cls-71" points="177.28 364.18 190.43 360.18 179.13 367.75 160.77 386.69 151.87 386.69 153.48 384.51 156.41 384.51 177.28 364.18"/></g></g></svg>