<svg xmlns="http://www.w3.org/2000/svg" xmlns:xlink="http://www.w3.org/1999/xlink" viewBox="0 0 1159.85 11583.84"><defs><style>.cls-1{fill:#06062d;}.cls-2{fill:url(#radial-gradient);}.cls-3{fill:#704de8;}.cls-10,.cls-3,.cls-4,.cls-5,.cls-6,.cls-7,.cls-8,.cls-9{fill-rule:evenodd;}.cls-4{fill:url(#radial-gradient-2);}.cls-5{fill:#3d35aa;}.cls-6{fill:#4737bc;}.cls-7{fill:#654ed8;}.cls-8{fill:#2924a0;}.cls-9{fill:url(#radial-gradient-3);}.cls-10{fill:url(#radial-gradient-4);}</style><radialGradient id="radial-gradient" cx="578.56" cy="6269.61" r="1721.07" gradientTransform="matrix(0.6, -0.07, 0.01, 0.45, 154.09, 3397.95)" gradientUnits="userSpaceOnUse"><stop offset="0.34" stop-color="#f8e8f0"/><stop offset="0.38" stop-color="#f8d6ef" stop-opacity="0.97"/><stop offset="0.45" stop-color="#f8b2ec" stop-opacity="0.91"/><stop offset="0.49" stop-color="#eba8ec" stop-opacity="0.78"/><stop offset="0.56" stop-color="#d699ed" stop-opacity="0.58"/><stop offset="0.64" stop-color="#c48bee" stop-opacity="0.4"/><stop offset="0.71" stop-color="#b680ee" stop-opacity="0.26"/><stop offset="0.78" stop-color="#aa78ef" stop-opacity="0.14"/><stop offset="0.85" stop-color="#a272ef" stop-opacity="0.06"/><stop offset="0.93" stop-color="#9e6eef" stop-opacity="0.02"/><stop offset="1" stop-color="#9c6def" stop-opacity="0"/></radialGradient><radialGradient id="radial-gradient-2" cx="562.44" cy="6302.25" r="1555.04" gradientTransform="matrix(0.6, -0.05, 0.02, 0.58, 114.76, 2649.03)" xlink:href="#radial-gradient"/><radialGradient id="radial-gradient-3" cx="30.07" cy="6925.67" r="862.16" gradientTransform="translate(230.31) scale(0.6 1)" xlink:href="#radial-gradient"/><radialGradient id="radial-gradient-4" cx="936.38" cy="5611.87" r="818.2" gradientTransform="translate(230.31) scale(0.6 1)" xlink:href="#radial-gradient"/></defs><g id="Layer_2" data-name="Layer 2"><g id="Layer_1-2" data-name="Layer 1"><rect class="cls-1" width="1159.26" height="11583.84"/><rect class="cls-2" y="5264.71" width="1159.26" height="1830.97"/><polygon class="cls-3" points="1159.26 4159.29 1159.26 2401.96 0 2600.85 0 3934.96 1159.26 4159.29"/><polygon class="cls-4" points="0 5735.89 0 6893.18 1159.26 7161.34 1159.26 5495.47 0 5735.89"/><polygon class="cls-5" points="1159.26 7090.37 1159.26 5566.27 0 5806.48 0 6822.45 1159.26 7090.37"/><polygon class="cls-6" points="0 5806.48 144.12 5943.39 144.12 6768 0 6805.31 0 5806.48"/><polygon class="cls-6" points="1159.85 7082.44 1015.72 6876.89 1015.72 5847.61 1159.85 5568.45 1159.85 7082.44"/><polygon class="cls-7" points="1015.72 5847.61 144.12 5943.39 144.12 6768 1015.72 6876.89 1015.72 5847.61"/><polygon class="cls-8" points="1015.72 5847.61 1159.85 5568.45 0 5806.48 144.12 5943.39 1015.72 5847.61"/><path class="cls-3" d="M0,5806.48v1016l1159.26,267.92V5566.27ZM1149,7067.23,10.26,6804.05v-979l1138.74-236Z"/><path class="cls-9" d="M0,6822.45l684.37,158.16S109.27,6844.18,0,6822.45Z"/><path class="cls-10" d="M1095.11,5579.56,518.17,5699.11S915.89,5622.86,1095.11,5579.56Z"/><polygon class="cls-5" points="0 8122.36 0 9591.24 1159.26 9717.9 1159.26 7946.1 0 8122.36"/></g></g></svg>