<svg xmlns="http://www.w3.org/2000/svg" xmlns:xlink="http://www.w3.org/1999/xlink" viewBox="0 0 1925.41 7287.29"><defs><style>.cls-1{fill:#06062d;}.cls-2{fill:url(#radial-gradient);}.cls-3{fill:#704de8;}.cls-10,.cls-3,.cls-4,.cls-5,.cls-6,.cls-7,.cls-8,.cls-9{fill-rule:evenodd;}.cls-4{fill:url(#radial-gradient-2);}.cls-5{fill:#3d35aa;}.cls-6{fill:#4737bc;}.cls-7{fill:#654ed8;}.cls-8{fill:#2924a0;}.cls-9{fill:url(#radial-gradient-3);}.cls-10{fill:url(#radial-gradient-4);}</style><radialGradient id="radial-gradient" cx="965.41" cy="3516.81" r="1721.07" gradientTransform="translate(-69.86 2261.09) rotate(-3.12) scale(1 0.37)" gradientUnits="userSpaceOnUse"><stop offset="0.34" stop-color="#f8e8f0"/><stop offset="0.38" stop-color="#f8d6ef" stop-opacity="0.97"/><stop offset="0.45" stop-color="#f8b2ec" stop-opacity="0.91"/><stop offset="0.49" stop-color="#eba8ec" stop-opacity="0.78"/><stop offset="0.56" stop-color="#d699ed" stop-opacity="0.58"/><stop offset="0.64" stop-color="#c48bee" stop-opacity="0.4"/><stop offset="0.71" stop-color="#b680ee" stop-opacity="0.26"/><stop offset="0.78" stop-color="#aa78ef" stop-opacity="0.14"/><stop offset="0.85" stop-color="#a272ef" stop-opacity="0.06"/><stop offset="0.93" stop-color="#9e6eef" stop-opacity="0.02"/><stop offset="1" stop-color="#9c6def" stop-opacity="0"/></radialGradient><radialGradient id="radial-gradient-2" cx="947.66" cy="3560.77" r="1405.13" gradientTransform="matrix(1, -0.05, 0.03, 0.58, -109.18, 1530.13)" xlink:href="#radial-gradient"/><radialGradient id="radial-gradient-3" cx="411.51" cy="3979.69" r="862.16" gradientTransform="matrix(1, 0, 0, 1, 0, 0)" xlink:href="#radial-gradient"/><radialGradient id="radial-gradient-4" cx="1317.82" cy="3062.43" r="818.2" gradientTransform="matrix(1, 0, 0, 1, 0, 0)" xlink:href="#radial-gradient"/></defs><g id="Layer_2" data-name="Layer 2"><g id="BG"><g id="Layer_29" data-name="Layer 29"><rect class="cls-1" width="1920" height="7287.29"/><rect class="cls-2" x="5.41" y="2759.74" width="1920" height="1514.14"/><polygon class="cls-3" points="1920 2190.47 1920 1174.57 0 1346.72 0 1972.4 1920 2190.47"/><polygon class="cls-4" points="0 3186.45 0 3947.19 1920 4215.35 1920 2946.03 0 3186.45"/><polygon class="cls-5" points="1920 4144.38 1920 3016.83 0 3257.04 0 3876.46 1920 4144.38"/><polygon class="cls-6" points="0 3257.04 238.7 3393.95 238.7 3708.58 0 3876.46 0 3257.04"/><polygon class="cls-6" points="1920.96 4143.66 1682.26 3817.47 1682.26 3298.17 1920.96 3019.01 1920.96 4143.66"/><polygon class="cls-7" points="1682.26 3298.17 238.7 3393.95 238.7 3708.58 1682.26 3817.47 1682.26 3298.17"/><polygon class="cls-8" points="1682.26 3298.17 1920.96 3019.01 0 3257.04 238.7 3393.95 1682.26 3298.17"/><path class="cls-3" d="M0,3257v619.42l1920,267.92V3016.83Zm1903,864.2L17,3858.07V3275.65l1886-236Z"/><path class="cls-9" d="M0,3876.46l1133.47,158.17S181,3898.2,0,3876.46Z"/><path class="cls-10" d="M1813.74,3030.13,858.21,3149.67S1516.91,3073.42,1813.74,3030.13Z"/><polygon class="cls-5" points="0 5064.01 0 5824.75 1920 6092.91 1920 4823.59 0 5064.01"/></g></g></g></svg>