<svg xmlns="http://www.w3.org/2000/svg" xmlns:xlink="http://www.w3.org/1999/xlink" viewBox="0 0 1159.85 11583.84"><defs><style>.cls-1{isolation:isolate;}.cls-2{fill:#06062d;}.cls-3{fill:url(#radial-gradient);}.cls-13,.cls-4{fill:#704de8;}.cls-10,.cls-11,.cls-4,.cls-5,.cls-6,.cls-7,.cls-8,.cls-9{fill-rule:evenodd;}.cls-5{fill:url(#radial-gradient-2);}.cls-6{fill:#3d35aa;}.cls-7{fill:#4737bc;}.cls-8{fill:#654ed8;}.cls-9{fill:#2924a0;}.cls-10{fill:url(#radial-gradient-3);}.cls-11{fill:url(#radial-gradient-4);}.cls-12{fill:#2a0fb2;}.cls-14{font-size:68.57px;font-family:EliMain-Regular, Eli Main;}.cls-14,.cls-20,.cls-21{fill:#fccf12;}.cls-15{opacity:0.28;}.cls-16{fill:#ffeed4;}.cls-17{mix-blend-mode:multiply;}.cls-18{font-size:61px;font-family:Roboto-Light, Roboto;font-weight:300;}.cls-18,.cls-19{fill:#fff;}.cls-19,.cls-21{font-size:60px;font-family:Roboto-Black, Roboto;font-weight:800;}.cls-22{font-family:Roboto-Bold, Roboto;font-weight:700;}</style><radialGradient id="radial-gradient" cx="578.56" cy="6269.61" r="1721.07" gradientTransform="matrix(0.6, -0.07, 0.01, 0.45, 154.09, 3397.95)" gradientUnits="userSpaceOnUse"><stop offset="0.34" stop-color="#f8e8f0"/><stop offset="0.38" stop-color="#f8d6ef" stop-opacity="0.97"/><stop offset="0.45" stop-color="#f8b2ec" stop-opacity="0.91"/><stop offset="0.49" stop-color="#eba8ec" stop-opacity="0.78"/><stop offset="0.56" stop-color="#d699ed" stop-opacity="0.58"/><stop offset="0.64" stop-color="#c48bee" stop-opacity="0.4"/><stop offset="0.71" stop-color="#b680ee" stop-opacity="0.26"/><stop offset="0.78" stop-color="#aa78ef" stop-opacity="0.14"/><stop offset="0.85" stop-color="#a272ef" stop-opacity="0.06"/><stop offset="0.93" stop-color="#9e6eef" stop-opacity="0.02"/><stop offset="1" stop-color="#9c6def" stop-opacity="0"/></radialGradient><radialGradient id="radial-gradient-2" cx="562.44" cy="6302.25" r="1555.04" gradientTransform="matrix(0.6, -0.05, 0.02, 0.58, 114.76, 2649.03)" xlink:href="#radial-gradient"/><radialGradient id="radial-gradient-3" cx="30.07" cy="6925.67" r="862.16" gradientTransform="translate(230.31) scale(0.6 1)" xlink:href="#radial-gradient"/><radialGradient id="radial-gradient-4" cx="936.38" cy="5611.87" r="818.2" gradientTransform="translate(230.31) scale(0.6 1)" xlink:href="#radial-gradient"/></defs><g class="cls-1"><g id="Layer_2" data-name="Layer 2"><g id="Layer_1-2" data-name="Layer 1"><rect class="cls-2" width="1159.26" height="11583.84"/><rect class="cls-3" y="5264.71" width="1159.26" height="1830.97"/><polygon class="cls-4" points="1159.26 4159.29 1159.26 2401.96 0 2600.85 0 3934.96 1159.26 4159.29"/><polygon class="cls-5" points="0 5735.89 0 6893.18 1159.26 7161.34 1159.26 5495.47 0 5735.89"/><polygon class="cls-6" points="1159.26 7090.37 1159.26 5566.27 0 5806.48 0 6822.45 1159.26 7090.37"/><polygon class="cls-7" points="0 5806.48 144.12 5943.39 144.12 6768 0 6805.31 0 5806.48"/><polygon class="cls-7" points="1159.85 7082.44 1015.72 6876.89 1015.72 5847.61 1159.85 5568.45 1159.85 7082.44"/><polygon class="cls-8" points="1015.72 5847.61 144.12 5943.39 144.12 6768 1015.72 6876.89 1015.72 5847.61"/><polygon class="cls-9" points="1015.72 5847.61 1159.85 5568.45 0 5806.48 144.12 5943.39 1015.72 5847.61"/><path class="cls-4" d="M0,5806.48v1016l1159.26,267.92V5566.27ZM1149,7067.23,10.26,6804.05v-979l1138.74-236Z"/><path class="cls-10" d="M0,6822.45l684.37,158.16S109.27,6844.18,0,6822.45Z"/><path class="cls-11" d="M1095.11,5579.56,518.17,5699.11S915.89,5622.86,1095.11,5579.56Z"/><polygon class="cls-6" points="0 8122.36 0 9591.24 1159.26 9717.9 1159.26 7946.1 0 8122.36"/><path class="cls-12" d="M777.61,114.75c-.06-.41-.11-.74-.19-1.11s0-.79-.11-1.19c0-.19-.16-.26-.2-.46-.11-.39-.11-1.66-.38-1.63a.73.73,0,0,0-.1.47,7.17,7.17,0,0,0-.13-2.36c-.14-.39-.39-.5-.55-.83a7.47,7.47,0,0,1-.19-2.55,7.82,7.82,0,0,0-.29-2.27,7.55,7.55,0,0,1-.28-.88c-.05-.27-.05-.63-.11-.92a8.11,8.11,0,0,0-.59-1.45,12.53,12.53,0,0,1-.17-2.61,16.15,16.15,0,0,1-.11-1.82L392.7,87.23,388,87.16l-3.82,0c0,.51.09,1.29.11,1.81a12.64,12.64,0,0,0,.18,2.62,10.25,10.25,0,0,1,.59,1.44c.05.29.05.65.11.93a7.38,7.38,0,0,0,.28.87,7.91,7.91,0,0,1,.29,2.27A7.48,7.48,0,0,0,386,99.6c.16.33.42.45.56.83a7.19,7.19,0,0,1,.12,2.36.94.94,0,0,1,.1-.47c.28,0,.28,1.24.38,1.64.05.19.17.27.21.45.07.4,0,.78.1,1.19s.13.7.2,1.11.12.82.21,1.3l-.05,4.84a4.89,4.89,0,0,1-.74.93c.21.37,0,.45,0,.79a5.39,5.39,0,0,1-.13,1.31,1.4,1.4,0,0,1-.66.86c-.29.24-.33.56-.47,1.23a12.84,12.84,0,0,0-.26,2.3,15.77,15.77,0,0,0,.14,1.85,5.27,5.27,0,0,1-.4,2.61,5.45,5.45,0,0,0-.41,1.68c-.09,2.14.95,1.62,1.4,2.78a6.81,6.81,0,0,1,.19,1q0,.35.09.66a1.64,1.64,0,0,0,.21.44c.09.72-.4.8-.5,1.3a2.88,2.88,0,0,0,.1,1c0,.45,0,.9.21,1.16s.33,0,.49,0a3.77,3.77,0,0,1-.86,2.32c-.21.23-.53.2-.72.44a2.76,2.76,0,0,0-.36,1c-.2.82-.44,1.75-.57,2.66-.08.58,0,.9-.36,1.16-.15.12-.26.05-.42.11a2.08,2.08,0,0,1-.54.37.51.51,0,0,0-.46.13c0,.62,0,1.41,0,2a12,12,0,0,0,.09,1.91,8,8,0,0,1,.11.87c0,1.48-.68,2.49-.69,3.93a13.44,13.44,0,0,0,.49,2.78c.15.73.2.71.52,1a3.89,3.89,0,0,1,.78.7,5.49,5.49,0,0,1,.23,2.35c.31.11.66-.24,1,.1a2.3,2.3,0,0,1,.34,1,2.7,2.7,0,0,0,.05.41,2.93,2.93,0,0,0,.28.64c0,.06.09.12.22.18H379.5l5.17,11.65,7.81.11,4.68.07,372.25,7.86v-2.09a3,3,0,0,1,1.22,0c.45,0,.5.23.8-.57.47-1.25.86-3.92,1.69-3.85.16,0,.43.16.6,0a3.48,3.48,0,0,0,.26-1.52,7.74,7.74,0,0,1-.06-1.28c0-.3.16-.54.2-.85.57.13,1.19.42,1.76,0a7.43,7.43,0,0,0,.06-1.31l0-12s-1.49-.11-3.15-.18a5.85,5.85,0,0,0,.11-1.06c0-.3-.06-.58-.11-.86a13.57,13.57,0,0,1-.1-1.92c0-.63,0-1.41,0-2a.51.51,0,0,1,.46-.12,2.23,2.23,0,0,0,.54-.38c.15-.05.26,0,.42-.1.34-.27.28-.58.36-1.17a23.38,23.38,0,0,1,.57-2.65,2.83,2.83,0,0,1,.35-1c.2-.23.51-.21.72-.43a3.74,3.74,0,0,0,.86-2.33c-.15-.05-.35.12-.49,0s-.17-.7-.21-1.16a2.87,2.87,0,0,1-.09-1c.09-.49.58-.57.49-1.29a1.5,1.5,0,0,1-.2-.44q-.06-.33-.09-.66a5.47,5.47,0,0,0-.2-1c-.44-1.17-1.48-.64-1.4-2.78a5.67,5.67,0,0,1,.41-1.68,5.2,5.2,0,0,0,.4-2.61,15.81,15.81,0,0,1-.13-1.86,13,13,0,0,1,.26-2.3c.13-.66.17-1,.47-1.23a1.37,1.37,0,0,0,.66-.85,5.94,5.94,0,0,0,.13-1.31c0-.35.19-.43,0-.8a4.76,4.76,0,0,0,.74-.92l.05-4.85C777.73,115.56,777.66,115,777.61,114.75Z"/><path class="cls-13" d="M379.5,160.88l7.82.11,4.67.07,377.51,7.86c0-.7,0-1.39,0-2.09a3,3,0,0,1,1.22,0c.46,0,.5.23.81-.57.46-1.24.86-3.92,1.68-3.85.17,0,.43.16.6,0a3.34,3.34,0,0,0,.26-1.52,9,9,0,0,1-.06-1.28c0-.3.16-.54.2-.85.57.13,1.19.43,1.76,0a4.64,4.64,0,0,0,0-1.62,3,3,0,0,1-.27-.65,1.77,1.77,0,0,1-.05-.41,2.41,2.41,0,0,0-.34-1c-.3-.33-.66,0-1-.09a5.37,5.37,0,0,0-.23-2.36,3.82,3.82,0,0,0-.77-.69c-.32-.3-.37-.29-.52-1a13.32,13.32,0,0,1-.49-2.78c0-1.43.69-2.44.69-3.93a8.08,8.08,0,0,0-.11-.86,12.23,12.23,0,0,1-.09-1.92c0-.63,0-1.41,0-2a.51.51,0,0,1,.46-.12,2.05,2.05,0,0,0,.54-.38c.15,0,.26,0,.42-.1.34-.27.28-.58.36-1.17a23.38,23.38,0,0,1,.57-2.65,2.64,2.64,0,0,1,.36-1c.19-.23.5-.21.72-.43a3.8,3.8,0,0,0,.85-2.33c-.15-.05-.34.12-.49,0s-.17-.71-.21-1.17a3.11,3.11,0,0,1-.09-1c.09-.49.58-.57.49-1.29a1.5,1.5,0,0,1-.2-.44q-.06-.33-.09-.66a5.47,5.47,0,0,0-.2-1c-.44-1.17-1.48-.64-1.39-2.78a5.11,5.11,0,0,1,.41-1.68,5.32,5.32,0,0,0,.39-2.61,18.3,18.3,0,0,1-.13-1.86,13,13,0,0,1,.26-2.3c.14-.66.18-1,.47-1.22a1.4,1.4,0,0,0,.66-.86,5.94,5.94,0,0,0,.13-1.31c0-.35.19-.43,0-.8a4.76,4.76,0,0,0,.74-.92l0-4.84c-.1-.49-.17-1-.22-1.3s-.11-.74-.19-1.11,0-.79-.11-1.19c0-.19-.15-.26-.2-.46-.11-.39-.1-1.65-.38-1.63a.82.82,0,0,0-.1.47,6.91,6.91,0,0,0-.13-2.36c-.14-.39-.39-.5-.55-.83a7.73,7.73,0,0,1-.19-2.55,7.87,7.87,0,0,0-.29-2.27,9.11,9.11,0,0,1-.28-.88c0-.27,0-.63-.11-.92a8.93,8.93,0,0,0-.58-1.45,12.49,12.49,0,0,1-.18-2.61,16.15,16.15,0,0,1-.11-1.82L392.79,75.58l-4.67-.07-3.81-.05a15.81,15.81,0,0,0,.1,1.81,12.64,12.64,0,0,0,.18,2.62,9.18,9.18,0,0,1,.59,1.44c.06.29.05.66.11.93a7.38,7.38,0,0,0,.28.87,7.91,7.91,0,0,1,.29,2.27,7.23,7.23,0,0,0,.19,2.55c.15.33.41.45.55.83a6.93,6.93,0,0,1,.12,2.36.94.94,0,0,1,.1-.47c.28,0,.28,1.24.38,1.64.05.19.17.27.21.45.07.4,0,.79.1,1.19s.13.7.2,1.11.12.82.21,1.3l0,4.84a4.86,4.86,0,0,1-.75.93c.21.37,0,.45,0,.79a5.94,5.94,0,0,1-.13,1.31,1.41,1.41,0,0,1-.67.86c-.29.24-.33.56-.46,1.23a11.24,11.24,0,0,0-.26,2.3,13.77,13.77,0,0,0,.13,1.85,5.27,5.27,0,0,1-.4,2.61,5.45,5.45,0,0,0-.41,1.68c-.09,2.14.95,1.62,1.4,2.78a5.67,5.67,0,0,1,.19,1q0,.35.09.66a1.64,1.64,0,0,0,.21.44c.09.72-.4.8-.49,1.3a2.89,2.89,0,0,0,.09,1c0,.45,0,.9.21,1.16s.34,0,.49,0a3.77,3.77,0,0,1-.86,2.32c-.21.23-.53.2-.72.44a2.83,2.83,0,0,0-.36,1,26,26,0,0,0-.56,2.66c-.08.58,0,.9-.37,1.16-.15.12-.26,0-.41.11a2.31,2.31,0,0,1-.55.37.52.52,0,0,0-.45.13c-.05.63,0,1.41,0,2a13.36,13.36,0,0,0,.09,1.91,8,8,0,0,1,.11.87c0,1.48-.68,2.49-.69,3.93a13.32,13.32,0,0,0,.49,2.78c.15.73.2.71.53,1a4.14,4.14,0,0,1,.77.7,5.49,5.49,0,0,1,.23,2.35c.31.12.67-.24,1,.1a2.3,2.3,0,0,1,.34,1c0,.14,0,.28,0,.41a2.93,2.93,0,0,0,.28.64,5,5,0,0,1,0,1.63c-.56.43-1.19.14-1.76,0,0,.31-.16.54-.19.85a6.78,6.78,0,0,0,.06,1.28,3.53,3.53,0,0,1-.27,1.52c-.16.21-.43.06-.6,0-.82-.06-1.21,2.61-1.68,3.85-.3.81-.35.61-.8.57a3.13,3.13,0,0,0-1.22,0C379.5,159.49,379.51,160.19,379.5,160.88Z"/><text class="cls-14" transform="translate(418.3 138.8)">Roadmap</text><g class="cls-15"><path class="cls-16" d="M420.08,173.71l-.67-.73-.4-.45-46.59-51.28-.2.28a.36.36,0,0,1-.1-.11s0-.08-.13,0-.44.45-.51.37,0-.07-.06-.05-.12.12-.16.18-.07.12-.12.18l-.1.09c0-.07-.06-.16-.15-.16a1.12,1.12,0,0,0-.16.22.49.49,0,0,1,0,.11l0,.06a.46.46,0,0,0-.06.16c0,.08.06.06.07.11a1.21,1.21,0,0,0-.2.34.86.86,0,0,0,0,.16.33.33,0,0,1-.05.19,3.42,3.42,0,0,1-.22.42c-.14.19-.3.27-.44.47l-.07.12a1.59,1.59,0,0,1-.18.27l-.19.28a0,0,0,0,1-.05,0h-.09s0,0,0,0-.08,0-.15.12-.2.21-.3.31a.48.48,0,0,1-.12.1s-.07,0-.11,0a.63.63,0,0,0-.29.24s0,0,0,0-.05.11-.09.17a.46.46,0,0,1-.09.15c0,.06-.1,0-.17.13a.24.24,0,0,1,0,.08s0,.07-.05.1a.55.55,0,0,0-.08.15c-.07.2.07.22-.14.51a1,1,0,0,1-.2.18,1.13,1.13,0,0,0-.28.32,2.33,2.33,0,0,1-.17.26,1.76,1.76,0,0,1-.24.29c-.07.08-.11.12-.16.12a.22.22,0,0,0-.14.06c-.05.05-.08.1-.13.16s-.06,0-.08.11l-.15.06-.47.65c0,.07-.08.15-.1.2l-.09.16c0,.07-.07.11-.1.17s0,.05,0,.09-.15.23-.12.25l0,0a1.31,1.31,0,0,0-.21.33c0,.06,0,.1,0,.16a1.56,1.56,0,0,1-.23.36,1.68,1.68,0,0,0-.19.34l-.06.14-.08.14a1.21,1.21,0,0,0-.08.25c0,.1-.16.25-.24.37s-.11.19-.16.25L410.8,184l.4.45.32.36c.06-.07.12-.19.17-.26a2.49,2.49,0,0,0,.23-.37A1.52,1.52,0,0,1,412,184s.06-.09.08-.14l.06-.14a1.4,1.4,0,0,1,.19-.33,1.8,1.8,0,0,0,.22-.37c0-.05,0-.09,0-.16a1.89,1.89,0,0,1,.22-.33s0,.05-.06.05.1-.19.13-.25,0-.05,0-.08.08-.11.11-.17a1.4,1.4,0,0,1,.09-.17l.1-.2.47-.65a.37.37,0,0,1,.15,0c0-.07,0-.07.07-.11a1.27,1.27,0,0,1,.14-.17.16.16,0,0,1,.14-.05c.05,0,.08,0,.16-.13a2.32,2.32,0,0,0,.24-.28c.07-.1.1-.17.16-.27a1.1,1.1,0,0,1,.29-.31,1.13,1.13,0,0,0,.19-.19c.21-.28.07-.31.15-.51,0,0,.05-.1.07-.15l.06-.1a.19.19,0,0,0,0-.07c.06-.11.11-.07.17-.13s.05-.1.09-.15.09-.12.09-.18,0,0,0,0a.72.72,0,0,1,.3-.24s.06,0,.1,0,.08-.06.13-.1l.3-.31c.06-.07.09-.12.14-.12s0,0,0,0h.08a.05.05,0,0,0,.05,0,2.83,2.83,0,0,0,.2-.28,2.33,2.33,0,0,0,.17-.26l.08-.13c.14-.2.29-.28.43-.47a2.82,2.82,0,0,0,.22-.42.34.34,0,0,0,.06-.19.76.76,0,0,1,0-.16,1.26,1.26,0,0,1,.21-.34s-.08,0-.08-.1a.56.56,0,0,1,.07-.16l0-.06a.56.56,0,0,0,0-.12,1.43,1.43,0,0,1,.15-.22c.09,0,.12.1.16.17l.1-.1a1.08,1.08,0,0,0,.11-.18.74.74,0,0,1,.17-.18s0,0,.06.05.35-.24.51-.37.09,0,.12,0,.06.1.11.11Z"/></g><g class="cls-17"><path class="cls-16" d="M737.4,73.63l.66.75.4.45,46.14,51.89.21-.28s.07.08.1.12,0,.07.12,0,.46-.44.52-.35,0,.06.06,0a.74.74,0,0,0,.17-.18,1.08,1.08,0,0,1,.11-.18.94.94,0,0,0,.1-.1c0,.07.07.17.16.17a1.07,1.07,0,0,0,.15-.22.76.76,0,0,1,0-.11l0-.06a.46.46,0,0,0,.06-.16c0-.07-.06-.06-.07-.1a1.21,1.21,0,0,0,.2-.34.48.48,0,0,0,0-.17c0-.07,0-.07.06-.18a2.82,2.82,0,0,1,.22-.42c.14-.19.3-.26.44-.46a.83.83,0,0,0,.07-.13l.18-.26.2-.28a.05.05,0,0,1,0,0,.11.11,0,0,0,.08,0s0,0,0,0,.08-.06.14-.13.21-.21.31-.3.09-.09.13-.1.06,0,.1,0a.61.61,0,0,0,.3-.23s0,0,0,0,0-.11.09-.18,0-.09.1-.15.1,0,.16-.12l0-.08,0-.1a.55.55,0,0,0,.08-.15c.08-.2-.06-.22.15-.5a.71.71,0,0,1,.2-.19,1.08,1.08,0,0,0,.28-.31l.17-.26a3.7,3.7,0,0,1,.24-.29c.08-.07.11-.11.16-.12a.15.15,0,0,0,.14,0,1.07,1.07,0,0,0,.14-.16s.06,0,.08-.11a.51.51,0,0,0,.15-.06l.47-.64c0-.07.08-.15.11-.19s.06-.11.09-.17l.1-.17s0,0,0-.08.15-.23.12-.26l0,.06a1.89,1.89,0,0,0,.22-.33c0-.06,0-.1,0-.16a1.29,1.29,0,0,1,.23-.36,2,2,0,0,0,.19-.33l.06-.15.08-.13a2,2,0,0,0,.09-.25,2.31,2.31,0,0,1,.24-.37c0-.07.11-.19.16-.25L746.77,63.44l-.4-.44-.32-.37a2.33,2.33,0,0,0-.17.26c-.07.11-.19.26-.24.36a1.21,1.21,0,0,1-.08.25,1,1,0,0,0-.08.14.42.42,0,0,0-.06.14,1.94,1.94,0,0,1-.2.33,1.81,1.81,0,0,0-.23.36c0,.06,0,.1,0,.16a1.36,1.36,0,0,1-.22.33.13.13,0,0,1,.06,0s-.1.19-.13.25,0,0,0,.08a1.63,1.63,0,0,0-.11.17l-.09.17-.11.19-.47.65-.15,0c0,.07,0,.07-.07.11s-.09.12-.14.16a.22.22,0,0,1-.14.06s-.09,0-.16.12a2.35,2.35,0,0,0-.25.28c-.07.1-.1.16-.16.26a1,1,0,0,1-.29.31,1.7,1.7,0,0,0-.2.19c-.21.28-.07.31-.14.51l-.08.14-.06.1a.31.31,0,0,0,0,.08c-.06.1-.11.07-.17.13a.46.46,0,0,0-.09.15.5.5,0,0,0-.1.17s0,0,0,.05a.64.64,0,0,1-.29.23s-.07,0-.11,0a.58.58,0,0,0-.13.11l-.3.3c-.06.07-.09.12-.14.12s0,0-.05,0h-.08s0,0-.06,0l-.19.27a2,2,0,0,0-.18.26s0,.09-.07.13c-.15.2-.3.27-.44.46a3.55,3.55,0,0,0-.23.42.27.27,0,0,0,0,.19.85.85,0,0,1,0,.16,1.26,1.26,0,0,1-.21.34s.08,0,.08.1a.71.71,0,0,1-.07.16l0,.06a.76.76,0,0,0,0,.11.89.89,0,0,1-.16.22c-.09,0-.12-.09-.15-.16l-.1.09a1.88,1.88,0,0,0-.12.18.74.74,0,0,1-.17.18s0,0-.06,0-.35.24-.51.36-.09,0-.13,0a.23.23,0,0,0-.1-.12Z"/></g><g class="cls-15"><path class="cls-16" d="M737.4,73.63l.66.75.4.45,46.14,51.89.21-.28s.07.08.1.12,0,.07.12,0,.46-.44.52-.35,0,.06.06,0a.74.74,0,0,0,.17-.18,1.08,1.08,0,0,1,.11-.18.94.94,0,0,0,.1-.1c0,.07.07.17.16.17a1.07,1.07,0,0,0,.15-.22.76.76,0,0,1,0-.11l0-.06a.46.46,0,0,0,.06-.16c0-.07-.06-.06-.07-.1a1.21,1.21,0,0,0,.2-.34.48.48,0,0,0,0-.17c0-.07,0-.07.06-.18a2.82,2.82,0,0,1,.22-.42c.14-.19.3-.26.44-.46a.83.83,0,0,0,.07-.13l.18-.26.2-.28a.05.05,0,0,1,0,0,.11.11,0,0,0,.08,0s0,0,0,0,.08-.06.14-.13.21-.21.31-.3.09-.09.13-.1.06,0,.1,0a.61.61,0,0,0,.3-.23s0,0,0,0,0-.11.09-.18,0-.09.1-.15.1,0,.16-.12l0-.08,0-.1a.55.55,0,0,0,.08-.15c.08-.2-.06-.22.15-.5a.71.71,0,0,1,.2-.19,1.08,1.08,0,0,0,.28-.31l.17-.26a3.7,3.7,0,0,1,.24-.29c.08-.07.11-.11.16-.12a.15.15,0,0,0,.14,0,1.07,1.07,0,0,0,.14-.16s.06,0,.08-.11a.51.51,0,0,0,.15-.06l.47-.64c0-.07.08-.15.11-.19s.06-.11.09-.17l.1-.17s0,0,0-.08.15-.23.12-.26l0,.06a1.89,1.89,0,0,0,.22-.33c0-.06,0-.1,0-.16a1.29,1.29,0,0,1,.23-.36,2,2,0,0,0,.19-.33l.06-.15.08-.13a2,2,0,0,0,.09-.25,2.31,2.31,0,0,1,.24-.37c0-.07.11-.19.16-.25L746.77,63.44l-.4-.44-.32-.37a2.33,2.33,0,0,0-.17.26c-.07.11-.19.26-.24.36a1.21,1.21,0,0,1-.08.25,1,1,0,0,0-.08.14.42.42,0,0,0-.06.14,1.94,1.94,0,0,1-.2.33,1.81,1.81,0,0,0-.23.36c0,.06,0,.1,0,.16a1.36,1.36,0,0,1-.22.33.13.13,0,0,1,.06,0s-.1.19-.13.25,0,0,0,.08a1.63,1.63,0,0,0-.11.17l-.09.17-.11.19-.47.65-.15,0c0,.07,0,.07-.07.11s-.09.12-.14.16a.22.22,0,0,1-.14.06s-.09,0-.16.12a2.35,2.35,0,0,0-.25.28c-.07.1-.1.16-.16.26a1,1,0,0,1-.29.31,1.7,1.7,0,0,0-.2.19c-.21.28-.07.31-.14.51l-.08.14-.06.1a.31.31,0,0,0,0,.08c-.06.1-.11.07-.17.13a.46.46,0,0,0-.09.15.5.5,0,0,0-.1.17s0,0,0,.05a.64.64,0,0,1-.29.23s-.07,0-.11,0a.58.58,0,0,0-.13.11l-.3.3c-.06.07-.09.12-.14.12s0,0-.05,0h-.08s0,0-.06,0l-.19.27a2,2,0,0,0-.18.26s0,.09-.07.13c-.15.2-.3.27-.44.46a3.55,3.55,0,0,0-.23.42.27.27,0,0,0,0,.19.85.85,0,0,1,0,.16,1.26,1.26,0,0,1-.21.34s.08,0,.08.1a.71.71,0,0,1-.07.16l0,.06a.76.76,0,0,0,0,.11.89.89,0,0,1-.16.22c-.09,0-.12-.09-.15-.16l-.1.09a1.88,1.88,0,0,0-.12.18.74.74,0,0,1-.17.18s0,0-.06,0-.35.24-.51.36-.09,0-.13,0a.23.23,0,0,0-.1-.12Z"/></g><text class="cls-18" transform="translate(217.12 1449.87)">After selecting under which <tspan x="-3.13" y="73.2">major each holder serves, </tspan><tspan x="694.35" y="73.2">1</tspan><tspan x="728.16" y="73.2"> </tspan><tspan x="-23.56" y="146.4">holder from each community </tspan><tspan x="-54.07" y="219.6">will be voted to represent them. </tspan><tspan x="-56.67" y="292.8">The person voted will be lended </tspan><tspan x="-24.75" y="366">the Eli major for </tspan><tspan x="411.42" y="366">3</tspan><tspan x="445.23" y="366" xml:space="preserve"> month and </tspan><tspan x="-22.44" y="439.2">will be leading his troops and </tspan><tspan x="47.97" y="512.4">shaping the community </tspan><tspan x="5.44" y="585.6">alongside the team, each </tspan><tspan x="685.79" y="585.6">3</tspan><tspan x="719.59" y="585.6"> </tspan><tspan x="8.13" y="658.8">month a new leader will be </tspan><tspan x="258.67" y="732">elected.</tspan></text><text class="cls-18" transform="translate(246.22 3189.6)">Elis get access to special <tspan x="-38.93" y="73.2">token gated tools to interact </tspan><tspan x="2.58" y="146.4">with and shape the story, </tspan><tspan x="6.96" y="219.6">which is then turned into </tspan><tspan x="22.58" y="292.8">animated episodes and </tspan><tspan x="-49.99" y="366">comic material for the brand, </tspan><tspan x="-24.35" y="439.2">while accumulating reward </tspan><tspan x="243.31" y="512.4">points.</tspan></text><text class="cls-19" transform="translate(356.17 3005.04)">Interactivity <tspan x="341.28" y="0">1.0</tspan><tspan x="428.91" y="0">:</tspan><tspan class="cls-20"><tspan x="-78.93" y="72">The journey continues</tspan></tspan></text><text class="cls-21" transform="translate(426.54 1259.91)">The majors<tspan x="-9.83" y="72">have landed</tspan></text><text class="cls-18" transform="translate(244.06 4821.21)">Holders can redeem their <tspan x="15.85" y="73.2">reward points inside our </tspan><tspan x="-59.59" y="146.4">marketplace, where we&apos;ll have </tspan><tspan x="-32.64" y="219.6">different rewards catered to </tspan><tspan x="-15.55" y="292.8">the community&apos;s interests.</tspan></text><text class="cls-21" transform="translate(351.13 4703.69)">The marketplace</text><text class="cls-18" transform="translate(181.14 7704.11)">New tools and minigames will <tspan x="7.51" y="73.2">be built in which the outcome </tspan><tspan x="1.97" y="146.4">will decide the fate of how the </tspan><tspan x="195.91" y="219.6">story plays out.</tspan></text><text class="cls-19" transform="translate(356.17 7532.06)">Interactivity <tspan x="341.28" y="0">2.0</tspan><tspan x="428.91" y="0">:</tspan><tspan class="cls-20"><tspan x="98.07" y="72">Let&apos;s play</tspan></tspan></text><text class="cls-18" transform="translate(191.93 10546.08)">Eli&apos;s brand will look to expand <tspan x="43.1" y="73.2">both inside and outside of </tspan><tspan x="52.09" y="146.4">web</tspan><tspan x="163.4" y="146.4">3</tspan><tspan x="197.21" y="146.4">, reaching out to the </tspan><tspan x="45.54" y="219.6">masses and helping bring </tspan><tspan x="12.72" y="292.8">global attention to the brand </tspan><tspan x="37.72" y="366">through partner marketing </tspan><tspan x="53.38" y="439.2">and having an offline and </tspan><tspan x="170.92" y="512.4">online presence.</tspan></text><text class="cls-21" transform="translate(387.34 10357.19)">Expanding the<tspan x="44.78" y="72">ecosystem</tspan></text><text class="cls-18" transform="translate(176.06 9053.13)">The holders will be able to hop <tspan x="16.32" y="73.2">into their </tspan><tspan class="cls-22" x="265.12" y="73.2">3</tspan><tspan class="cls-22" x="300.12" y="73.2">D Elis</tspan><tspan x="452.97" y="73.2" xml:space="preserve"> and play the </tspan><tspan x="69.34" y="146.4">story that they have been </tspan><tspan x="36.14" y="219.6">building in an immersive </tspan><tspan x="697.26" y="219.6">3</tspan><tspan x="731.06" y="219.6">D </tspan><tspan x="72.81" y="292.8">world we will be building.</tspan></text><text class="cls-19" transform="translate(356.17 8868.58)">Interactivity <tspan x="341.28" y="0">3.0</tspan><tspan x="428.91" y="0">:</tspan><tspan class="cls-20"><tspan x="3.81" y="72">Total immersion</tspan></tspan></text><text class="cls-18" transform="translate(187.18 6340.15)">Eli holders will get the chance <tspan x="2.84" y="73.2">to upgrade their Elis into a </tspan><tspan x="708.31" y="73.2">3</tspan><tspan x="742.11" y="73.2">D </tspan><tspan x="-7" y="146.4">character which they can then </tspan><tspan x="4.9" y="219.6">use in upcoming experiences </tspan><tspan x="100.27" y="292.8">or inside a metaverse.</tspan></text><text class="cls-21" transform="translate(347.67 6241.67)">A new dimension</text></g></g></g></svg>