<svg xmlns="http://www.w3.org/2000/svg" xmlns:xlink="http://www.w3.org/1999/xlink" viewBox="0 0 470.5 139.5"><defs><style>.cls-1,.cls-18,.cls-22{fill:none;}.cls-2{fill:#f5da1e;}.cls-3{fill:#7c7c7c;}.cls-4{fill:#f9d90b;}.cls-5{fill:#f0ad01;}.cls-6{fill:#fdfdef;}.cls-7{fill:#6020c5;}.cls-8{isolation:isolate;}.cls-9{fill:#ffd400;}.cls-10{fill:#704de8;}.cls-11{fill:#fff;}.cls-12{clip-path:url(#clip-path);}.cls-13{fill:#121266;}.cls-14{fill:#3737b7;}.cls-15{fill:#736cff;}.cls-16{fill:#f6f5fd;}.cls-17{fill:#d2f1fc;}.cls-18{stroke:#121266;stroke-linecap:round;stroke-linejoin:round;stroke-width:0.62px;}.cls-19{fill:#f83571;stroke:#f83571;stroke-width:0.71px;}.cls-19,.cls-22{stroke-miterlimit:10;}.cls-20{fill:#ffe000;}.cls-21{fill:#fde0da;}.cls-22{stroke:#3d3dd1;stroke-width:0.16px;}.cls-23{fill:#3d3dd1;}</style><clipPath id="clip-path"><polygon class="cls-1" points="332.8 78.1 437.6 79.6 436.9 20.9 332.8 18.3 332.8 78.1"/></clipPath></defs><g id="Layer_2" data-name="Layer 2"><g id="Chapter_0_Title" data-name="Chapter 0 Title"><g id="Layer_2-2" data-name="Layer 2"><g id="Chapter_0_Title-2" data-name="Chapter 0 Title"><path class="cls-2" d="M434.5,26.9l-2.2-1.8a2.48,2.48,0,0,1-.7-3,10.09,10.09,0,0,1,.7-1.5,10.46,10.46,0,0,0,.8-3.9,10.43,10.43,0,0,1,2.3-6.1,9.63,9.63,0,0,1,11.8-1.8,9.77,9.77,0,0,1,3.9,13,8.07,8.07,0,0,1-4.5,4c-1,.4-2.1.7-3.1,1a10.24,10.24,0,0,0-2.9,1.6,4.12,4.12,0,0,1-2.1,1,2.27,2.27,0,0,1-1.8-.5Zm-.4-.7.1.1a6,6,0,0,1,.8.8,13.3,13.3,0,0,0,1.9,1.4,2.31,2.31,0,0,0,2.4.2c.6-.3,1.1-.8,1.7-1.1a11.78,11.78,0,0,1,1.9-1.1,32.55,32.55,0,0,0,4.4-1.5,7.89,7.89,0,0,0,2.7-2.1,11.25,11.25,0,0,0,1.2-2.1c.1-.3.4-.6.3-1,.1-.3.4-.5.4-.9a11.33,11.33,0,0,0,.1-2.6,10.36,10.36,0,0,0-1.1-3.8,9.21,9.21,0,0,0-3-3.2,10.93,10.93,0,0,0-1.5-.8,9.91,9.91,0,0,0-4.5-.7,11,11,0,0,0-2.6.6,10.74,10.74,0,0,0-3.2,2,6.43,6.43,0,0,0-1.8,2.7,14.26,14.26,0,0,0-.9,5,4.15,4.15,0,0,1-.3,1.6c-.4.9-.8,1.9-1.2,2.8a2.19,2.19,0,0,0,.7,2.6l.9.6c0,.2.3.4.6.5Z"/><path class="cls-2" d="M452.8,27.4l-1.6-1.3a.77.77,0,0,1-.2-1.2.82.82,0,0,1,1.2-.1h0c1.1.9,2.2,1.8,3.2,2.6.5.4.5.9.2,1.2a.67.67,0,0,1-1,.1.1.1,0,0,1-.1-.1,8.85,8.85,0,0,1-1.7-1.2Z"/><path class="cls-2" d="M444.6,34.2a.82.82,0,0,1-1.2.1c-.1-.1-.2-.2-.2-.3a1.48,1.48,0,0,1-.1-.7c-.1-1.2-.2-2.4-.4-3.6a.82.82,0,0,1,.7-1,.8.8,0,0,1,1,.6v.2c.2,1.4.3,2.7.4,4.1A.85.85,0,0,1,444.6,34.2Z"/><path class="cls-2" d="M431.4,7.8,432.9,9a.8.8,0,0,1,.3,1.1.1.1,0,0,1-.1.1.79.79,0,0,1-1.1.1l-.1-.1-3.3-2.7a.91.91,0,0,1-.1-1.2.91.91,0,0,1,1.2,0C430.3,6.8,430.8,7.3,431.4,7.8Z"/><path class="cls-2" d="M441.9,5.6a.67.67,0,0,1-.8.3.75.75,0,0,1-.6-.7,11.08,11.08,0,0,1-.2-1.9,19.53,19.53,0,0,0-.2-2.3.89.89,0,0,1,.6-1h.1a.82.82,0,0,1,.9.8c.1.6.1,1.1.2,1.7.1.8.1,1.6.2,2.4A1,1,0,0,1,441.9,5.6Z"/><path class="cls-2" d="M425.5,19.6a.83.83,0,0,1-.3-.8.65.65,0,0,1,.6-.6c1.4-.2,2.8-.3,4.2-.4a.79.79,0,0,1,.8.8.87.87,0,0,1-.6.8c-1.4.2-2.7.3-4.1.4A1.42,1.42,0,0,1,425.5,19.6Z"/><path class="cls-2" d="M452.2,6.6,451,8.1a.83.83,0,0,1-1.5-.7c.1-.1.1-.2.2-.3.8-1,1.6-2,2.5-3a.77.77,0,0,1,1.2-.2.67.67,0,0,1,.1,1l-.1.1a16.67,16.67,0,0,1-1.2,1.6Z"/><path class="cls-3" d="M433.2,28l-2.4-2c-.3-.3-.5-.5-.1-.9s.6-.3.9,0l4.9,4c.3.3.4.5.1.9s-.6.3-.9,0A24.33,24.33,0,0,1,433.2,28Z"/><path class="cls-3" d="M432.9,28.4l2.5,2a.47.47,0,0,1,.1.8c-.3.3-.5.3-.9.1-1.6-1.4-3.3-2.7-4.9-4a.57.57,0,0,1-.2-.9c.3-.4.5-.4.9,0Z"/><path class="cls-2" d="M454.6,16.6c-.3-.3-.5-.5-.4-.9a.75.75,0,0,1,.7-.6l2.9-.3c.3,0,.6-.1.8-.1a.89.89,0,0,1,1,.8h0c0,.5-.3.8-1,.8l-3.6.3C455,16.7,454.8,16.7,454.6,16.6Z"/><path class="cls-3" d="M431.9,29.6l2.2,1.8a.57.57,0,0,1,.2.9c-.3.4-.6.2-.9,0l-4.3-3.5a.57.57,0,0,1-.2-.9c.3-.4.6-.2.9,0Z"/><path class="cls-3" d="M430.8,30.9c.6.5,1.3,1,1.9,1.6.1.1.3.1.2.3s-.2.2-.4.2a2.52,2.52,0,0,1-2-.6,6.36,6.36,0,0,1-2-2c-.1-.2-.2-.3-.2-.5s-.2-.6.1-.8.4.2.5.3A18.05,18.05,0,0,1,430.8,30.9Z"/><path class="cls-4" d="M433.4,25.6l-.9-.6a2.29,2.29,0,0,1-.7-2.7c.4-.9.8-1.8,1.2-2.8a4.53,4.53,0,0,0,.3-1.6,15.24,15.24,0,0,1,.9-5.1,8,8,0,0,1,1.8-2.7,9.62,9.62,0,0,1,3.2-2,11,11,0,0,1,2.6-.6,9.91,9.91,0,0,1,4.5.7,10.93,10.93,0,0,1,1.5.8,9.21,9.21,0,0,1,3,3.2,10.36,10.36,0,0,1,1.1,3.8,22.6,22.6,0,0,1-.1,2.6c0,.4-.3.6-.4.9a3.51,3.51,0,0,1-.5.8,8.06,8.06,0,0,1-3,2.5,16.91,16.91,0,0,1-4.3,1.5,7.1,7.1,0,0,0-1.8.8c-.7.5-1.4,1.1-2.1,1.5a4.19,4.19,0,0,1-2.5.5,6.4,6.4,0,0,1-2.6-1c-.1-.1-.2-.1-.4,0l-.1-.1Zm5.2-14.3c0,.2.1.4.3.4a2,2,0,0,0,1.1,0,7.6,7.6,0,0,1,1.1-.4,5.24,5.24,0,0,1,3.5.2.3.3,0,0,0,.4,0l.1.1a.83.83,0,0,0,.8.3.75.75,0,0,0,.9-.4.92.92,0,0,0-.1-1,6.42,6.42,0,0,0-1.3-1A6.13,6.13,0,0,0,441,9a4.4,4.4,0,0,0-2.3,1,.85.85,0,0,0-.1,1.3Zm-2.1,1.4a1.09,1.09,0,0,0,1.5,0,.35.35,0,0,0,.1-.2,1.36,1.36,0,0,0-.2-1.6,1.26,1.26,0,0,0-1.7.2,1,1,0,0,0,.1,1.4Z"/><path class="cls-5" d="M434.2,26.3c.1-.1.2-.1.4,0a5.89,5.89,0,0,0,2.6,1,4.34,4.34,0,0,0,2.5-.5c.8-.4,1.4-1.1,2.1-1.5a7.1,7.1,0,0,1,1.8-.8A17.61,17.61,0,0,0,448,23a8.06,8.06,0,0,0,3-2.5c.2-.3.3-.5.5-.8.2.4-.1.7-.3,1a8.78,8.78,0,0,1-1.2,2.1,7.05,7.05,0,0,1-2.7,2.1,23.17,23.17,0,0,1-4.4,1.6,7.24,7.24,0,0,0-1.9,1.1,16.29,16.29,0,0,1-1.7,1.1,2.11,2.11,0,0,1-2.4-.2c-.7-.4-1.3-1-1.9-1.4C434.7,26.9,434.5,26.5,434.2,26.3Z"/><path class="cls-5" d="M433.4,25.6l.7.6A1.06,1.06,0,0,1,433.4,25.6Z"/><path class="cls-6" d="M445.2,11.5l-.1-.1a3.37,3.37,0,0,0-1.7-.5,7,7,0,0,0-3.2.5,1.36,1.36,0,0,1-1.5-.1h0a1.76,1.76,0,0,1,1.1-1.6,6.39,6.39,0,0,1,4.5-.5,4.52,4.52,0,0,1,2.4,1.4.49.49,0,0,1,.1.7.67.67,0,0,1-.7.4C445.7,11.6,445.5,11.4,445.2,11.5Z"/><path class="cls-2" d="M445.2,11.5c.3-.1.5.1.8.1a.57.57,0,0,0,.7-.4.62.62,0,0,0-.1-.7,4.52,4.52,0,0,0-2.4-1.4,6.39,6.39,0,0,0-4.5.5,1.62,1.62,0,0,0-1.1,1.6.83.83,0,0,1,.2-1.2h0a4.47,4.47,0,0,1,2.3-1.1,6.69,6.69,0,0,1,4.4.5,6.42,6.42,0,0,1,1.3,1,.77.77,0,0,1,.1,1,.87.87,0,0,1-.9.4A.83.83,0,0,1,445.2,11.5Z"/><path class="cls-2" d="M438.6,11.3a1.38,1.38,0,0,0,1.5.1,7,7,0,0,1,3.2-.5,3.37,3.37,0,0,1,1.7.5.3.3,0,0,1-.4,0,6,6,0,0,0-3.5-.2c-.4.1-.8.3-1.1.4a2,2,0,0,1-1.1,0C438.7,11.7,438.6,11.5,438.6,11.3Z"/><path class="cls-2" d="M436.5,12.7a1,1,0,0,1-.3-1.4c0-.1.1-.1.1-.2a1.13,1.13,0,0,1,1.6-.2,1.36,1.36,0,0,1,.2,1.6,1.1,1.1,0,0,1-1.5.3A.1.1,0,0,0,436.5,12.7Zm.1-.2a.93.93,0,0,0,1.3-.1h0a.93.93,0,0,0-.1-1.3.85.85,0,0,0-1.3,0,1,1,0,0,0,.1,1.4Z"/><path class="cls-6" d="M436.6,12.5a.93.93,0,0,1,1.1-1.5.1.1,0,0,1,.1.1.93.93,0,0,1,.1,1.3.85.85,0,0,1-1.3.1Z"/><path class="cls-7" d="M321.9,35.6l-4.8-.1h-2.9l-84.3-1.1h0l-75.7-1v1h-.7c-.3,0-.3-.1-.5.3-.3.7-.5,2-1,2-.1,0-.3-.1-.4,0a1.88,1.88,0,0,0-.2.8v.7c0,.2-.1.3-.1.4a1.4,1.4,0,0,0-1.1,0,1.1,1.1,0,0,0,0,.8c.1.1.1.2.2.3v.2a.76.76,0,0,0,.2.5c.2.2.4,0,.6.1,0,.4-.1.9.1,1.2a2.18,2.18,0,0,0,.5.4.85.85,0,0,1,.3.5,4,4,0,0,1,.3,1.5c0,.8-.4,1.3-.4,2.1a.9.9,0,0,0,.1.5,3.4,3.4,0,0,1,.1,1v1.1a.37.37,0,0,1-.3.1c-.1.1-.2.1-.3.2h-.2a1.27,1.27,0,0,0-.2.6c-.1.5-.2.9-.3,1.4a.76.76,0,0,1-.2.5c-.1.1-.3.1-.4.2a1.85,1.85,0,0,0-.5,1.2c.1,0,.2-.1.3,0s.1.4.1.6.1.3.1.5-.4.3-.3.7c.1.1.1.1.1.2l.1.3a4.33,4.33,0,0,0,.1.5c.3.6.9.3.9,1.5a2.92,2.92,0,0,1-.2.9,2.2,2.2,0,0,0-.2,1.4c0,.3.1.7.1,1s-.1.8-.1,1.2-.1.5-.3.6a.7.7,0,0,0-.4.5,1.7,1.7,0,0,0-.1.7c0,.2-.1.2,0,.4a1,1,0,0,0-.4.5V67a1.7,1.7,0,0,1,.1.7c0,.2.1.4.1.6a1.27,1.27,0,0,0,.1.6c.1.2.1.1.1.2s.1.9.2.9a.31.31,0,0,0,.1-.2,2.46,2.46,0,0,0,.1,1.2,1.38,1.38,0,0,0,.3.4,2.88,2.88,0,0,1,.1,1.3,5,5,0,0,0,.2,1.2,1.69,1.69,0,0,0,.2.5c.1.2,0,.3.1.5a3,3,0,0,0,.4.8,6.6,6.6,0,0,1,.1,1.4c0,.3.1.7.1,1l117.2,1.6h0l45.4.6h5.2a2.77,2.77,0,0,0-.1-.9,6.6,6.6,0,0,0-.1-1.4,5.94,5.94,0,0,1-.4-.8.9.9,0,0,0-.1-.5c0-.2-.1-.3-.2-.5a5,5,0,0,1-.2-1.2,2.77,2.77,0,0,0-.1-1.3c-.1-.2-.2-.2-.3-.4a4.87,4.87,0,0,1-.1-1.2c0,.1,0,.2-.1.2s-.2-.7-.2-.9-.1-.1-.1-.2a1.49,1.49,0,0,0-.1-.6,1.27,1.27,0,0,1-.1-.6c0-.2-.1-.4-.1-.7V66.8c.1-.2.3-.3.5-.5-.1-.2,0-.2,0-.4a1.7,1.7,0,0,1,.1-.7c.1-.3.2-.3.4-.4s.2-.3.3-.6a4.87,4.87,0,0,0,.1-1.2,3.4,3.4,0,0,0-.1-1,2.3,2.3,0,0,1,.2-1.4,2.92,2.92,0,0,0,.2-.9c0-1.1-.6-.8-.9-1.5a.9.9,0,0,1-.1-.5l-.1-.3a.35.35,0,0,0-.1-.2c0-.4.2-.4.3-.7s0-.3-.1-.5,0-.5-.1-.6-.2,0-.3,0a1.66,1.66,0,0,1,.5-1.2c.1-.1.3-.1.4-.2s.2-.3.2-.5c.1-.4.2-.9.3-1.3s0-.5.2-.6.2,0,.2,0,.2-.1.3-.2a.37.37,0,0,0,.3-.1V50.2a3.4,3.4,0,0,0-.1-1,1.09,1.09,0,0,0-.1-.5c0-.8.4-1.3.4-2.1a4,4,0,0,0-.3-1.5c-.1-.4-.1-.4-.3-.5a1.76,1.76,0,0,1-.5-.4c-.2-.3-.1-.8-.1-1.2-.2-.1-.4.1-.6-.1a.76.76,0,0,1-.2-.5v-.2c0-.1-.1-.2-.2-.3a1.1,1.1,0,0,1,0-.8,1.39,1.39,0,0,1,1.1,0c0-.2.1-.3.1-.4V40a1.08,1.08,0,0,1,.2-.8c.1-.1.3,0,.4,0,.5,0,.7-1.4,1-2,.2-.4.2-.3.5-.3h.7Z"/><g class="cls-8"><path class="cls-9" d="M185,58.7a8.39,8.39,0,0,1-.8,3.2,6.42,6.42,0,0,1-1.8,2.5,8.54,8.54,0,0,1-2.8,1.6,11.22,11.22,0,0,1-3.8.6,9.35,9.35,0,0,1-3.9-.8,8.94,8.94,0,0,1-3-2.2,10.3,10.3,0,0,1-1.9-3.4,15.81,15.81,0,0,1-.6-4.5V54.2a12.51,12.51,0,0,1,.7-4.5,13.07,13.07,0,0,1,1.9-3.5,8.35,8.35,0,0,1,3-2.2,10.06,10.06,0,0,1,3.9-.8,11.22,11.22,0,0,1,3.8.6,8.75,8.75,0,0,1,2.8,1.7,7.25,7.25,0,0,1,1.8,2.5,11.56,11.56,0,0,1,.8,3.2h-4.7a8,8,0,0,0-.4-1.8,3.3,3.3,0,0,0-2.1-2.1,5.62,5.62,0,0,0-2-.3,3.9,3.9,0,0,0-3.5,1.7,9.44,9.44,0,0,0-1.2,5.3v1.5a14.16,14.16,0,0,0,.3,3.1,6.31,6.31,0,0,0,.8,2.2,3.48,3.48,0,0,0,1.4,1.3,4.64,4.64,0,0,0,2.1.4,10.07,10.07,0,0,0,1.9-.2,3.3,3.3,0,0,0,2.1-2.1,8,8,0,0,0,.4-1.8H185Z"/><path class="cls-9" d="M192.1,51.2a6.15,6.15,0,0,1,2-1.6,5.42,5.42,0,0,1,2.5-.6,5.87,5.87,0,0,1,2.3.4,4.18,4.18,0,0,1,1.8,1.1,4.33,4.33,0,0,1,1.1,2,8.72,8.72,0,0,1,.4,3V66.1h-4.5V55.6a5.9,5.9,0,0,0-.2-1.4,1.87,1.87,0,0,0-1.4-1.4,4.1,4.1,0,0,0-1.1-.1,3.42,3.42,0,0,0-1.8.4,2.91,2.91,0,0,0-1.1,1.1v12h-4.5v-24h4.5Z"/><path class="cls-9" d="M215.5,66.3a5.27,5.27,0,0,1-.5-1.5,7.63,7.63,0,0,1-1.7,1.3,4.87,4.87,0,0,1-2.5.5,5.87,5.87,0,0,1-2.3-.4,7.68,7.68,0,0,1-1.8-1,4.81,4.81,0,0,1-1.2-1.6,4.48,4.48,0,0,1-.4-2,6,6,0,0,1,.5-2.4,3.53,3.53,0,0,1,1.5-1.7,8.81,8.81,0,0,1,2.4-1.1,16.7,16.7,0,0,1,3.4-.4h2V55a2.88,2.88,0,0,0-.6-1.9,2.23,2.23,0,0,0-1.9-.7,3,3,0,0,0-1.8.5,2,2,0,0,0-.6,1.5h-4.5a5.37,5.37,0,0,1,.5-2.1,4.57,4.57,0,0,1,1.4-1.7,7.14,7.14,0,0,1,2.3-1.2,9.48,9.48,0,0,1,3-.4,7.66,7.66,0,0,1,2.7.4,5.7,5.7,0,0,1,2.2,1.1,4.5,4.5,0,0,1,1.4,1.9,6.69,6.69,0,0,1,.5,2.6v8.5c0,.4.1.7.1,1s.1.6.2.8.2.5.3.7v.3Zm-3.7-3.1a4.1,4.1,0,0,0,1.1-.1,3.55,3.55,0,0,0,.9-.4,4.23,4.23,0,0,0,.7-.5c.2-.2.3-.4.5-.6V58.7h-1.9a6.05,6.05,0,0,0-1.5.2,3.7,3.7,0,0,0-1.1.5,1.56,1.56,0,0,0-.6.8,3.55,3.55,0,0,0-.2,1,1.82,1.82,0,0,0,.6,1.4Q210.6,63.2,211.8,63.2Z"/><path class="cls-9" d="M238,58a12.2,12.2,0,0,1-.4,3.4,6.81,6.81,0,0,1-1.3,2.7,5.2,5.2,0,0,1-2.1,1.8,6.81,6.81,0,0,1-2.8.7,6,6,0,0,1-2.4-.5,4.63,4.63,0,0,1-1.8-1.3v8h-4.5V49.4h4.2l.2,1.7a6.55,6.55,0,0,1,1.8-1.5,6.18,6.18,0,0,1,2.5-.5,6.09,6.09,0,0,1,2.8.6,6.84,6.84,0,0,1,2.1,1.7,7.54,7.54,0,0,1,1.3,2.7,12.94,12.94,0,0,1,.4,3.5Zm-4.5-.3a11.08,11.08,0,0,0-.2-1.9,4.42,4.42,0,0,0-.6-1.6,2.4,2.4,0,0,0-1-1,3.31,3.31,0,0,0-1.5-.4,3.42,3.42,0,0,0-1.8.4,3.18,3.18,0,0,0-1.1,1.2v6.9a3.18,3.18,0,0,0,1.1,1.2,3.58,3.58,0,0,0,1.9.4,2.41,2.41,0,0,0,1.5-.4,3.57,3.57,0,0,0,1-1.1,7.58,7.58,0,0,0,.6-1.6,5.84,5.84,0,0,0,.2-1.9l-.1-.2Z"/><path class="cls-9" d="M246.3,45.2v4.2h2.9v3.3h-2.9v8.4a2.48,2.48,0,0,0,.1.9,1.2,1.2,0,0,0,.8.8c.2,0,.5.1.8.1h.7a1.27,1.27,0,0,0,.6-.1v3.4l-1.2.3a6.62,6.62,0,0,1-1.5.1,6.45,6.45,0,0,1-2-.3,3.77,3.77,0,0,1-1.5-.9,5.6,5.6,0,0,1-1-1.5,7.55,7.55,0,0,1-.3-2.3V52.7h-2.5V49.4h2.5V45.2Z"/><path class="cls-9" d="M259.4,66.6a9.51,9.51,0,0,1-3.5-.6,7.58,7.58,0,0,1-4.3-4.3,8.66,8.66,0,0,1-.6-3.2v-.6a9.51,9.51,0,0,1,.6-3.5,8.54,8.54,0,0,1,1.6-2.8,6.42,6.42,0,0,1,2.5-1.8,8.81,8.81,0,0,1,3.3-.6,7.94,7.94,0,0,1,3.2.6,6.58,6.58,0,0,1,2.3,1.7,7.22,7.22,0,0,1,1.4,2.6,12.13,12.13,0,0,1,.5,3.4v1.9H255.6a5.41,5.41,0,0,0,.4,1.5,3.13,3.13,0,0,0,.9,1.1,2.92,2.92,0,0,0,1.2.7,4.15,4.15,0,0,0,1.6.3,5.93,5.93,0,0,0,2.3-.5,4.89,4.89,0,0,0,1.8-1.4l2.2,2.5a5.24,5.24,0,0,1-1,1.1,17,17,0,0,1-1.4,1,10.66,10.66,0,0,1-1.9.7A16.41,16.41,0,0,1,259.4,66.6Zm-.5-13.9a2.77,2.77,0,0,0-1.3.3,3.59,3.59,0,0,0-1,.7,2.38,2.38,0,0,0-.6,1.1,5.73,5.73,0,0,0-.4,1.4h6.3v-.4a4.3,4.3,0,0,0-.2-1.2,2.55,2.55,0,0,0-1.4-1.7A5.9,5.9,0,0,0,258.9,52.7Z"/><path class="cls-9" d="M278.4,53.6c-.2,0-.5-.1-.8-.1h-.8a4.14,4.14,0,0,0-2.1.4,3,3,0,0,0-1.2,1.3V66.3H269V49.4h4.3l.1,2a5.23,5.23,0,0,1,1.6-1.7,4,4,0,0,1,2.2-.6,2.49,2.49,0,0,1,.8.1,3.54,3.54,0,0,1,.6.1Z"/><path class="cls-9" d="M303.7,56.9a14.18,14.18,0,0,1-.6,4.4,8.57,8.57,0,0,1-1.6,3,5.6,5.6,0,0,1-2.4,1.7,8.31,8.31,0,0,1-6.2,0,5.86,5.86,0,0,1-2.4-1.7,8.57,8.57,0,0,1-1.6-3,14.18,14.18,0,0,1-.6-4.4v-4a14.18,14.18,0,0,1,.6-4.4,8.57,8.57,0,0,1,1.6-3,5.6,5.6,0,0,1,2.4-1.7,8.31,8.31,0,0,1,6.2,0,5.86,5.86,0,0,1,2.4,1.7,8.57,8.57,0,0,1,1.6,3,14.18,14.18,0,0,1,.6,4.4Zm-4.6-4.6a15.74,15.74,0,0,0-.2-2.5,4.28,4.28,0,0,0-.6-1.7,2.84,2.84,0,0,0-1-.9,3,3,0,0,0-2.6,0,2.84,2.84,0,0,0-1,.9,3.78,3.78,0,0,0-.6,1.7,16.86,16.86,0,0,0-.2,2.5v5.2a18.36,18.36,0,0,0,.2,2.6,5.56,5.56,0,0,0,.6,1.7,2.19,2.19,0,0,0,1,.9,3,3,0,0,0,2.6,0,2.84,2.84,0,0,0,1-.9,3.78,3.78,0,0,0,.6-1.7,18.36,18.36,0,0,0,.2-2.6Z"/></g><path class="cls-7" d="M466.1,132.4c0-.1.1-.2.1-.3A9.16,9.16,0,0,1,464,126H3.9c-.3.2-.5.4-.8.6.1.2.3.3.4.4.3.2.5.3.8.5a5.26,5.26,0,0,1,1.2,1.4,4.89,4.89,0,0,0,1.3,1.2,2.65,2.65,0,0,1,.6.5l.5.5a10.47,10.47,0,0,0,1.1.8,5.26,5.26,0,0,1,1.2,1.4,7,7,0,0,1,.8,1l444.7,5.2h6.9l.6-.9a4.19,4.19,0,0,0,.9-1.4c.1-.3-.1-.4.1-.8a2.19,2.19,0,0,0,.3-.5.75.75,0,0,0,.1-.5,7.46,7.46,0,0,1,.7-1.2c.3-.4.9-1,.9-1.4C466.3,132.7,466.1,132.7,466.1,132.4Z"/><path class="cls-7" d="M466.1,130.2c0-.1.1-.2.1-.3a9.16,9.16,0,0,1-2.2-6.1H3.9c-.3.2-.5.4-.8.6l.4.4c.3.2.5.3.8.5a5.26,5.26,0,0,1,1.2,1.4,4.89,4.89,0,0,0,1.3,1.2,2.65,2.65,0,0,1,.6.5l.5.5a10.47,10.47,0,0,0,1.1.8,17.41,17.41,0,0,1,1.2,1.4,7,7,0,0,1,.8,1l444.7,5.2,3.8.1h3.1l.6-.9a4.19,4.19,0,0,0,.9-1.4c.1-.3-.1-.4.1-.8a2.19,2.19,0,0,0,.3-.5.75.75,0,0,0,.1-.5,4.73,4.73,0,0,1,.7-1.2c.3-.4.9-1,.9-1.4C466.3,130.5,466.1,130.4,466.1,130.2Z"/><path class="cls-10" d="M470.1,79.8l-6.5-.1h-3.9L6.7,74.3v1.3h-1c-.4,0-.4-.1-.7.3-.4.8-.7,2.4-1.4,2.4-.1,0-.4-.1-.5,0a2.92,2.92,0,0,0-.2.9A2.2,2.2,0,0,1,3,80c0,.2-.1.3-.2.5a2,2,0,0,0-1.5,0,1.7,1.7,0,0,0,0,1,.76.76,0,0,1,.2.4v.2a.86.86,0,0,0,.3.6c.2.2.5,0,.8.1,0,.5-.1,1.1.2,1.4a2.09,2.09,0,0,0,.6.4c.3.2.3.2.4.6a4.71,4.71,0,0,1,.4,1.7c0,.9-.6,1.5-.6,2.4a1.27,1.27,0,0,0,.1.6,4.87,4.87,0,0,1,.1,1.2v1.3c-.1.1-.2.1-.4.1s-.3.1-.5.2a.37.37,0,0,0-.3.1c-.3.2-.2.3-.3.7a7.49,7.49,0,0,1-.5,1.6.86.86,0,0,1-.3.6c-.2.1-.4.1-.6.3a2.1,2.1,0,0,0-.7,1.4c.1,0,.3-.1.4,0s.1.4.2.7a1.27,1.27,0,0,1,.1.6c0,.3-.5.4-.4.8.3.2.4.3.4.4s.1.3.1.4a1.42,1.42,0,0,0,.2.6c.4.7,1.2.4,1.2,1.7a2.93,2.93,0,0,1-.3,1,2.22,2.22,0,0,0-.3,1.6,4.48,4.48,0,0,1,.1,1.1,5.9,5.9,0,0,1-.2,1.4c-.1.4-.1.6-.4.8s-.4.2-.6.5a2.2,2.2,0,0,0-.1.8c0,.2-.2.3,0,.5l-.6.6v3a3.09,3.09,0,0,1,.2.8,1.85,1.85,0,0,0,.2.7c.1.2,0,.5.1.7a.77.77,0,0,0,.2.3c.1.1.1,1,.3,1,0-.1.1-.2.1-.3a3.21,3.21,0,0,0,.1,1.4c.1.2.3.3.5.5a4.14,4.14,0,0,1,.2,1.6,3.53,3.53,0,0,0,.3,1.4,1.69,1.69,0,0,1,.2.5,1.27,1.27,0,0,0,.1.6c.1.4.3.5.5.9a8.75,8.75,0,0,1,.2,1.6,4.1,4.1,0,0,1,.1,1.1l456.4,5.4,3.9.1h3.2a4.1,4.1,0,0,0-.1-1.1,4.4,4.4,0,0,0-.2-1.6c-.2-.4-.4-.5-.5-.9a1.27,1.27,0,0,0-.1-.6c-.1-.2-.1-.4-.2-.5a2.2,2.2,0,0,1-.2-1.4c0-.5.1-1.2-.2-1.6-.1-.2-.3-.3-.5-.5a3.44,3.44,0,0,1-.1-1.4.37.37,0,0,1-.1.3c-.2,0-.2-.8-.3-1a.77.77,0,0,0-.2-.3c-.1-.1,0-.5-.1-.7a6.37,6.37,0,0,1-.2-.7c-.1-.3-.1-.5-.2-.8v-3l.6-.6c-.2-.2,0-.3,0-.5a2.2,2.2,0,0,1,.1-.8.82.82,0,0,1,.5-.5c.2-.1.3-.3.4-.8a6.75,6.75,0,0,0,.2-1.4,3.75,3.75,0,0,0-.1-1.1,2.22,2.22,0,0,1,.3-1.6,1.69,1.69,0,0,0,.3-1c.1-1.3-.8-1-1.2-1.7-.1-.2-.1-.4-.2-.6a.6.6,0,0,0-.1-.4c0-.1-.1-.2-.2-.3-.1-.4.3-.5.4-.8a.61.61,0,0,0-.1-.6c-.1-.2,0-.6-.2-.7s-.3,0-.4,0a1.75,1.75,0,0,1,.7-1.4c.2-.1.4-.1.6-.3l.3-.6a9.83,9.83,0,0,0,.5-1.6c.1-.4,0-.6.3-.7s.2,0,.4-.1a.76.76,0,0,1,.5-.2.6.6,0,0,0,.4-.1V96.7a4.87,4.87,0,0,0-.1-1.2,4.33,4.33,0,0,0-.1-.5c0-.9.6-1.5.6-2.4a8.47,8.47,0,0,0-.4-1.7c-.1-.4-.2-.4-.4-.6a3.11,3.11,0,0,1-.6-.4c-.3-.3-.2-1-.2-1.4-.2-.1-.5.2-.8-.1l-.3-.6v-.2c-.1-.1-.1-.3-.2-.4a1.7,1.7,0,0,1,0-1,2,2,0,0,1,1.5,0c0-.2.1-.3.2-.5a2.2,2.2,0,0,0-.1-.8,2.92,2.92,0,0,1,.2-.9c.1-.1.4,0,.5,0,.7,0,1-1.6,1.4-2.4.2-.5.3-.4.7-.3h1A2.57,2.57,0,0,1,470.1,79.8Z"/><g class="cls-8"><path class="cls-11" d="M39.3,92.7H30.5v24H24.6v-24H15.9V87.9H39.4v4.8Z"/><path class="cls-11" d="M66.1,116.7H60.2V104.3H48.6v12.4H42.7V87.9h5.9V99.6H60.2V87.9h5.9Z"/><path class="cls-11" d="M88.7,104.2H77.3v7.7H90.7v4.8H71.3V87.9H90.6v4.8H77.3v6.9H88.7Z"/><path class="cls-11" d="M112,87.9l7.4,20.9,7.4-20.9h7.8v28.8h-6v-7.9l.6-13.6-7.8,21.5h-4.1l-7.8-21.5.6,13.6v7.9h-5.9V87.9Z"/><path class="cls-11" d="M156.1,110.8H145.7l-2,5.9h-6.3l10.7-28.8h5.5l10.8,28.8h-6.3Zm-8.9-4.9h7.2l-3.6-10.8Z"/><path class="cls-11" d="M178.7,87.9h5.9v20a8.85,8.85,0,0,1-2.7,6.8,7.93,7.93,0,0,1-3.1,1.8,12.09,12.09,0,0,1-3.8.6,16,16,0,0,1-3.9-.5A8.32,8.32,0,0,1,168,115a7.17,7.17,0,0,1-2-2.8,9.55,9.55,0,0,1-.7-4h6a6,6,0,0,0,.3,2,4,4,0,0,0,.7,1.3,2.4,2.4,0,0,0,1.2.7,7.72,7.72,0,0,0,1.5.2,3.42,3.42,0,0,0,2.7-1.2,4.83,4.83,0,0,0,1-3.3v-20Z"/><path class="cls-11" d="M213.4,102.9a17.84,17.84,0,0,1-.9,5.9,11.79,11.79,0,0,1-2.5,4.4,12.14,12.14,0,0,1-3.9,2.8,13,13,0,0,1-10,0,12.14,12.14,0,0,1-3.9-2.8,12.64,12.64,0,0,1-2.5-4.4,17.84,17.84,0,0,1-.9-5.9v-1.3a17.84,17.84,0,0,1,.9-5.9,13.11,13.11,0,0,1,2.5-4.5,10.8,10.8,0,0,1,3.9-2.8,13,13,0,0,1,10,0,11.37,11.37,0,0,1,6.4,7.3,18.27,18.27,0,0,1,.9,5.9Zm-6-1.3c0-3-.5-5.3-1.6-6.9a5.23,5.23,0,0,0-4.6-2.4,5.12,5.12,0,0,0-4.6,2.4c-1.1,1.6-1.6,3.9-1.6,6.9v1.3a16.43,16.43,0,0,0,.4,4,9.74,9.74,0,0,0,1.2,2.9,4.94,4.94,0,0,0,2,1.8,6,6,0,0,0,2.7.6,5.23,5.23,0,0,0,4.6-2.4c1.1-1.6,1.6-3.9,1.6-6.9l-.1-1.3Z"/><path class="cls-11" d="M228.4,106.1h-4.7v10.6h-5.9V87.9h10.7a15.32,15.32,0,0,1,4.5.6,8.62,8.62,0,0,1,3.3,1.7,7.05,7.05,0,0,1,2.1,2.7,8.9,8.9,0,0,1,.7,3.8,7.89,7.89,0,0,1-.4,2.8,7.39,7.39,0,0,1-1,2.2,6.48,6.48,0,0,1-1.6,1.7,10.71,10.71,0,0,1-2.1,1.3l6.2,11.8v.3h-6.4Zm-4.7-4.8h4.8a5.62,5.62,0,0,0,2-.3,3.77,3.77,0,0,0,1.5-.9,3.81,3.81,0,0,0,.9-1.3,4.84,4.84,0,0,0,.3-1.8,4.22,4.22,0,0,0-1.2-3.2,4.89,4.89,0,0,0-3.6-1.2h-4.8v8.7Z"/><path class="cls-11" d="M258.6,109.1a5.9,5.9,0,0,0-.2-1.4,2.1,2.1,0,0,0-.8-1.1,8.47,8.47,0,0,0-1.7-1,21.73,21.73,0,0,0-2.8-1,31.75,31.75,0,0,1-3.7-1.4,13.51,13.51,0,0,1-3.1-1.9,7.21,7.21,0,0,1-2.1-2.5,6.71,6.71,0,0,1-.8-3.3,7.31,7.31,0,0,1,.8-3.3,7.51,7.51,0,0,1,2.2-2.5,10.71,10.71,0,0,1,3.4-1.6,14.42,14.42,0,0,1,4.3-.6,12.69,12.69,0,0,1,4.4.7,8.94,8.94,0,0,1,3.3,1.9,8.26,8.26,0,0,1,2.1,2.8,8.63,8.63,0,0,1,.8,3.6h-5.9a4.67,4.67,0,0,0-.3-1.7,3,3,0,0,0-.9-1.3,3.77,3.77,0,0,0-1.5-.9,6.65,6.65,0,0,0-2.1-.3,5.62,5.62,0,0,0-2,.3,4.58,4.58,0,0,0-1.4.7,3.13,3.13,0,0,0-.9,1.1,2.77,2.77,0,0,0-.3,1.3,2.83,2.83,0,0,0,1.5,2.4,20.54,20.54,0,0,0,4.3,1.8,23.41,23.41,0,0,1,4.1,1.6,14.21,14.21,0,0,1,3,2,8.32,8.32,0,0,1,1.8,2.5,7.94,7.94,0,0,1,.6,3.2,7.39,7.39,0,0,1-.7,3.4,7.21,7.21,0,0,1-2.1,2.5,10.15,10.15,0,0,1-3.3,1.6,14.51,14.51,0,0,1-4.3.5,28.25,28.25,0,0,1-2.9-.2,10.67,10.67,0,0,1-2.7-.8,9.21,9.21,0,0,1-2.4-1.3,8.13,8.13,0,0,1-1.9-1.8,9.21,9.21,0,0,1-1.3-2.4,9.43,9.43,0,0,1-.5-3h6a4.81,4.81,0,0,0,.4,2.2,4.43,4.43,0,0,0,1.2,1.5,3.7,3.7,0,0,0,1.8.8,8.52,8.52,0,0,0,2.3.3,11.24,11.24,0,0,0,2-.2,4.58,4.58,0,0,0,1.4-.7,2.54,2.54,0,0,0,.8-1C258.5,110,258.6,109.6,258.6,109.1Z"/><path class="cls-11" d="M284.6,111.9h12.6v4.8H278.6V87.9h5.9v24Z"/><path class="cls-11" d="M316.9,110.8H306.5l-2,5.9h-6.3l10.7-28.8h5.5l10.8,28.8h-6.3Zm-8.8-4.9h7.2l-3.6-10.8Z"/><path class="cls-11" d="M351.4,116.7h-5.9l-11.6-19v19h-6V87.9h5.9l11.6,19v-19h5.9v28.8Z"/><path class="cls-11" d="M356.5,116.7V87.9h8.9a13.17,13.17,0,0,1,5.3,1,13.43,13.43,0,0,1,4.2,2.8,12.06,12.06,0,0,1,2.7,4.3,16.88,16.88,0,0,1,1,5.6v1.3a14.33,14.33,0,0,1-1,5.6,12.59,12.59,0,0,1-2.7,4.3,13.11,13.11,0,0,1-9.6,3.8l-8.8.1Zm6-24V112h2.9a6.8,6.8,0,0,0,5.4-2.3,10.78,10.78,0,0,0,1.8-6.6v-1.3c0-2.9-.6-5.2-1.8-6.7a6.46,6.46,0,0,0-5.3-2.3l-3-.1Z"/><path class="cls-11" d="M400.3,104.2H388.9v7.7h13.4v4.8H382.9V87.9h19.3v4.8H388.9v6.9h11.4Z"/><path class="cls-11" d="M405.7,116.7V87.9h8.9a13.17,13.17,0,0,1,5.3,1,13.43,13.43,0,0,1,4.2,2.8,12.06,12.06,0,0,1,2.7,4.3,16.88,16.88,0,0,1,1,5.6v1.3a14.33,14.33,0,0,1-1,5.6,11.24,11.24,0,0,1-2.7,4.3,13.11,13.11,0,0,1-9.6,3.8l-8.8.1Zm6-24V112h2.9a6.66,6.66,0,0,0,5.4-2.3,10.78,10.78,0,0,0,1.8-6.6v-1.3c0-2.9-.6-5.2-1.8-6.7a6.46,6.46,0,0,0-5.3-2.3l-3-.1Z"/></g><g class="cls-12"><path class="cls-13" d="M350.5,84.7h0a5,5,0,0,1-4.1-5.7l.7-4.2a5,5,0,0,1,5.7-4.1h0a5,5,0,0,1,4.1,5.7l-.7,4.2A5,5,0,0,1,350.5,84.7Z"/><path class="cls-13" d="M422.6,96.5h0a5,5,0,0,0,5.7-4.1l.7-4.2a5,5,0,0,0-4.1-5.7h0a5,5,0,0,0-5.7,4.1l-.7,4.2A5,5,0,0,0,422.6,96.5Z"/><path class="cls-14" d="M371.8,126.3l-4.6-.8,3.2-19.6a3.74,3.74,0,0,1,4.3-3.1h0a3.74,3.74,0,0,1,3.1,4.3L375,123.9A2.82,2.82,0,0,1,371.8,126.3Z"/><path class="cls-14" d="M371.4,126.2,364,125a2,2,0,0,1-1.6-2.2h0a3.74,3.74,0,0,1,4.3-3.1l8.7,1.4-.4,2.4A3.1,3.1,0,0,1,371.4,126.2Z"/><path class="cls-14" d="M389.2,129.1l4.6.8,3.2-19.6a3.76,3.76,0,0,0-3.1-4.3h0a3.76,3.76,0,0,0-4.3,3.1l-2.8,16.8A2.89,2.89,0,0,0,389.2,129.1Z"/><path class="cls-14" d="M389.6,129.2l7.4,1.2a1.9,1.9,0,0,0,2.2-1.6h0a3.76,3.76,0,0,0-3.1-4.3l-8.7-1.4-.4,2.4A3.17,3.17,0,0,0,389.6,129.2Z"/><path class="cls-15" d="M423.1,97.8l6.1-37a23.88,23.88,0,0,0-19.7-27.4l-14.3-2.3L382.5,29a23.17,23.17,0,0,0-26.6,19.1l-6.2,37.7.4.1-.3,1.7-.4-.1-.9,5.3a15.74,15.74,0,0,0,13,18.1l20.1,3.3,21.8,3.6A16.19,16.19,0,0,0,422,104.4l.8-4.9-.3-.1.3-1.7Z"/><path class="cls-16" d="M407.2,48.5l-14.4-2.4L380.1,44a12.2,12.2,0,0,0-14,10l-2.6,15.5a8.27,8.27,0,0,0,6.8,9.5l16.6,2.7,18.4,3a8.6,8.6,0,0,0,9.9-7.1l2.4-14.7A12.58,12.58,0,0,0,407.2,48.5Z"/><path class="cls-17" d="M407.4,50l-13.9-2.3-12.3-2a11.76,11.76,0,0,0-13.5,9.6l-2.5,14.9a7.92,7.92,0,0,0,6.6,9.1l16,2.6,17.8,2.9a8.43,8.43,0,0,0,9.6-6.8l2.3-14.1A12.23,12.23,0,0,0,407.4,50Z"/><circle cx="379.9" cy="57.3" r="3.5"/><circle cx="404" cy="61.3" r="3.5"/><rect class="cls-13" x="399.6" y="89.01" width="2.8" height="21.4" transform="translate(237.61 479.25) rotate(-80.67)"/><path class="cls-18" d="M388.9,59.4s-1.6,4.3,2.6,4.8,3.6-3.7,3.6-3.7"/><circle class="cls-19" cx="383.8" cy="100.3" r="2.1"/><circle class="cls-19" cx="386.7" cy="108.5" r="2.1"/><polygon class="cls-13" points="377.6 99 376.9 98.5 373.4 98.1 374 94.1 373.5 93.7 366.8 92.6 366.1 96.9 360.7 102.9 361.1 103.6 364.9 104.2 364.1 107.7 364.5 108.5 371.5 109.7 372.2 105.4 376.5 106.1 377.6 99"/><polygon class="cls-20" points="376.9 98.5 372.8 97.8 373.5 93.7 366.6 92.6 365.9 96.6 361.8 96 360.7 102.9 364.8 103.6 364.1 107.7 371 108.8 371.7 104.7 375.8 105.4 376.9 98.5"/><circle class="cls-13" cx="368.8" cy="100.6" r="2.1"/><circle class="cls-15" cx="369.1" cy="100.9" r="1.7"/><ellipse class="cls-21" cx="374.33" cy="61.36" rx="1.5" ry="3.7" transform="translate(253.1 420.79) rotate(-80.67)"/><ellipse class="cls-21" cx="407.76" cy="66.88" rx="1.5" ry="3.7" transform="translate(275.67 458.41) rotate(-80.67)"/><circle class="cls-13" cx="407.1" cy="113.7" r="1.5"/><circle class="cls-13" cx="408.4" cy="109.1" r="1.5"/><circle class="cls-13" cx="412.4" cy="111.8" r="1.5"/><path class="cls-22" d="M407.7,116a18.1,18.1,0,0,0,5.9-2.2,2.35,2.35,0,0,0,.6-3.6c-1.7-2-4.4-4.5-6.7-3.7-2.1.8-2.6,4.5-2.7,7.2A2.31,2.31,0,0,0,407.7,116Z"/><path class="cls-22" d="M388.2,112.4h0a3.53,3.53,0,0,1-4.4-2l-3.4-9.4a3.53,3.53,0,0,1,2-4.4h0a3.53,3.53,0,0,1,4.4,2l3.4,9.4A3.49,3.49,0,0,1,388.2,112.4Z"/><polygon class="cls-23" points="385.3 91.6 381.5 91 350 85.8 349.8 87.6 381.2 92.7 385 93.4 422.5 99.5 422.8 97.8 385.3 91.6"/></g><path class="cls-14" d="M417.8,88.4l10.6-4.7a4,4,0,0,0,2-5.3h0a4,4,0,0,0-5.3-2L414.5,81a4,4,0,0,0-2,5.3h0A4,4,0,0,0,417.8,88.4Z"/><path class="cls-14" d="M419.3,87.7,414.1,90a3.4,3.4,0,0,1-4.5-1.7h0a3.4,3.4,0,0,1,1.7-4.5l5.2-2.3a3.4,3.4,0,0,1,4.5,1.7h0A3.4,3.4,0,0,1,419.3,87.7Z"/><path class="cls-14" d="M416,83.2l-4.8.6a1.2,1.2,0,0,1-1.3-1h0a1.2,1.2,0,0,1,1-1.3l4.8-.6a1.2,1.2,0,0,1,1.3,1h0A1.3,1.3,0,0,1,416,83.2Z"/><path class="cls-14" d="M358.1,84.7l-10.9-4a4,4,0,0,1-2.4-5.2h0a4,4,0,0,1,5.2-2.4l10.9,4a4,4,0,0,1,2.4,5.2h0A4.07,4.07,0,0,1,358.1,84.7Z"/><path class="cls-14" d="M356.5,84.2l5.3,2a3.44,3.44,0,0,0,4.4-2h0a3.44,3.44,0,0,0-2-4.4l-5.3-2a3.44,3.44,0,0,0-4.4,2h0A3.36,3.36,0,0,0,356.5,84.2Z"/><path class="cls-14" d="M359.5,79.5l4.8.3a1.13,1.13,0,0,0,1.2-1.1h0a1.13,1.13,0,0,0-1.1-1.2l-4.8-.3a1.13,1.13,0,0,0-1.2,1.1h0A1.28,1.28,0,0,0,359.5,79.5Z"/></g></g></g></g></svg>