<svg xmlns="http://www.w3.org/2000/svg" xmlns:xlink="http://www.w3.org/1999/xlink" viewBox="0 0 315.39 103.75"><defs><style>.cls-1{fill:none;}.cls-2{isolation:isolate;}.cls-3,.cls-9{fill:#6020c5;}.cls-4{fill:#ffd400;}.cls-5{fill:#704de8;}.cls-6{fill:#fff;}.cls-7{fill:#7b6fd1;}.cls-8{clip-path:url(#clip-path);}.cls-9{opacity:0.55;}.cls-10{fill:#f7c434;}.cls-11,.cls-12,.cls-16,.cls-22{fill:#f89b33;}.cls-11,.cls-15{opacity:0.21;}.cls-11,.cls-12,.cls-15,.cls-21,.cls-22{mix-blend-mode:multiply;}.cls-12{opacity:0.1;}.cls-13{fill:#c18a00;}.cls-14,.cls-21,.cls-22{opacity:0.5;}.cls-14{mix-blend-mode:screen;}.cls-17{fill:#3d3dd1;}.cls-18{fill:#3030b7;}.cls-19{fill:#736cff;}.cls-20{fill:#d2f1fc;}.cls-21{fill:#e8882a;}</style><clipPath id="clip-path"><path class="cls-1" d="M292.16,43.32h-6.47L4,42.32c0,.43,0,.86,0,1.28a1.49,1.49,0,0,1-.63,0c-.24,0-.26-.14-.41.35-.24.77-.43,2.41-.85,2.38-.09,0-.23-.1-.31,0a2.4,2.4,0,0,0-.13.94,6.57,6.57,0,0,1,0,.78c0,.19-.08.33-.1.52-.29-.07-.62-.25-.91,0a3.35,3.35,0,0,0,0,1A1.76,1.76,0,0,1,.84,50l0,.25a1.65,1.65,0,0,0,.18.59c.15.2.34,0,.5,0a4.1,4.1,0,0,0,.13,1.45,2.05,2.05,0,0,0,.41.42c.17.18.19.17.27.62a8.89,8.89,0,0,1,.27,1.7c0,.88-.34,1.5-.33,2.42a4.52,4.52,0,0,0,.06.53,7.52,7.52,0,0,1,.06,1.17c0,.39,0,.87,0,1.26a.23.23,0,0,1-.24.07,1.46,1.46,0,0,0-.27.24c-.08,0-.14,0-.22.07s-.14.35-.18.71c-.06.56-.18,1.13-.28,1.64a2.09,2.09,0,0,1-.18.62C1,64,.79,64,.68,64.1a2.57,2.57,0,0,0-.43,1.43c.08,0,.18-.07.25,0s.1.43.12.71a1.87,1.87,0,0,1,.05.64c0,.31-.29.36-.24.8A1.16,1.16,0,0,1,.54,68c0,.13,0,.26,0,.4a3.41,3.41,0,0,0,.1.6c.24.71.78.38.74,1.7a3.69,3.69,0,0,1-.2,1A4,4,0,0,0,1,73.31a8.38,8.38,0,0,1,.08,1.14A8,8,0,0,1,1,75.86c-.06.41-.08.61-.23.76a.79.79,0,0,0-.34.53,3.38,3.38,0,0,0-.06.8c0,.21-.1.26,0,.49A3.06,3.06,0,0,0,0,79v3c0,.29.09.62.11.79s.07.45.11.68,0,.48.06.73.09.16.11.28.07,1,.21,1a.6.6,0,0,0,.05-.29,5.16,5.16,0,0,0,.08,1.45c.07.23.21.3.29.5a5.59,5.59,0,0,1,.11,1.57,6.4,6.4,0,0,0,.16,1.39c.05.16.12.35.16.53s0,.39.06.57a5.28,5.28,0,0,0,.31.88,9.85,9.85,0,0,1,.11,1.61c0,.32.08.8.07,1.11l283.78,1h4.4c0-.31-.06-.79-.07-1.12a9.81,9.81,0,0,0-.11-1.6,5.63,5.63,0,0,1-.31-.88c0-.18,0-.4-.06-.57s-.11-.37-.16-.53a6.4,6.4,0,0,1-.16-1.39,5.56,5.56,0,0,0-.11-1.57c-.08-.2-.22-.27-.29-.51a5.07,5.07,0,0,1-.08-1.44.63.63,0,0,1,0,.29c-.14,0-.15-.76-.21-1s-.09-.17-.11-.28,0-.48-.06-.73-.07-.43-.11-.68-.06-.5-.11-.8V80a3.06,3.06,0,0,1,.38-.57c-.11-.23,0-.28,0-.49a3.38,3.38,0,0,1,.06-.8.84.84,0,0,1,.34-.54c.15-.15.17-.34.23-.75a8.08,8.08,0,0,0,.12-1.42,8.23,8.23,0,0,0-.08-1.13,4,4,0,0,1,.19-1.61,3.43,3.43,0,0,0,.2-1c0-1.32-.5-1-.74-1.7a3.58,3.58,0,0,1-.1-.6c0-.14,0-.27,0-.41a1.27,1.27,0,0,0-.11-.26c-.05-.44.2-.5.24-.8a1.87,1.87,0,0,0-.05-.64c0-.28,0-.56-.11-.71s-.18,0-.26,0a2.57,2.57,0,0,1,.43-1.43c.11-.14.27-.13.37-.28a1.92,1.92,0,0,0,.18-.62c.1-.5.22-1.07.28-1.63,0-.36,0-.55.18-.72s.14,0,.22-.06a1.46,1.46,0,0,1,.27-.24.24.24,0,0,0,.24-.08c0-.38,0-.86,0-1.25a7.52,7.52,0,0,0-.06-1.17,4.69,4.69,0,0,1-.06-.54c0-.91.34-1.53.33-2.41a9.12,9.12,0,0,0-.27-1.71c-.08-.44-.1-.43-.27-.61a2.11,2.11,0,0,1-.41-.43,4,4,0,0,1-.13-1.44c-.16-.07-.35.15-.5,0a1.65,1.65,0,0,1-.18-.59l0-.25a1.76,1.76,0,0,0-.15-.39,3.35,3.35,0,0,1,0-1c.29-.27.62-.09.91,0,0-.19.08-.34.1-.52a6.85,6.85,0,0,0,0-.79,2.38,2.38,0,0,1,.13-.93c.08-.13.22,0,.31,0,.42,0,.61-1.6.85-2.37.15-.5.17-.38.41-.36a1.34,1.34,0,0,0,.63,0C292.17,44.17,292.16,43.75,292.16,43.32Z"/></clipPath></defs><g class="cls-2"><g id="Layer_2" data-name="Layer 2"><g id="Chapter_2_Title" data-name="Chapter 2 Title"><path class="cls-3" d="M290.18,95.46c-.59-.61-1.23-.68-1.59-1.7H2.36a4.74,4.74,0,0,1-.48.59,3.51,3.51,0,0,0,.38,1c.14.22.3.29.44.48a5.9,5.9,0,0,1,.54,1.45,6.25,6.25,0,0,0,.55,1.28,4.53,4.53,0,0,1,.29.49c.08.15.14.35.22.52a7.91,7.91,0,0,0,.55.8,8.89,8.89,0,0,1,.54,1.46c.1.29.3.73.37,1l279,.89h4.31c.1-.28.16-.71.23-1a8.74,8.74,0,0,0,.33-1.46,3.84,3.84,0,0,1-.07-.8c0-.16.07-.36.09-.52a4,4,0,0,0,0-.49,5.56,5.56,0,0,1,.22-1.27,4.73,4.73,0,0,0,.31-1.45c0-.18-.14-.25-.15-.46C290,96.28,290.18,95.48,290.18,95.46Z"/><path class="cls-3" d="M237.5,2.42l-4.93-.07-2.95,0-87.3-1.23v0L64,0c0,.39.06.77.08,1.15a2,2,0,0,1-.77,0c-.28,0-.32-.13-.48.32-.24.68-.38,2.16-.91,2.12-.1,0-.28-.09-.37,0a1.61,1.61,0,0,0-.11.84,3.37,3.37,0,0,1,.09.71c0,.17-.08.3-.09.47-.36-.07-.77-.23-1.11,0a2.46,2.46,0,0,0,.06.9,2.3,2.3,0,0,1,.2.35,1.55,1.55,0,0,1,0,.23,1.25,1.25,0,0,0,.25.53c.2.19.41,0,.61.06A2.83,2.83,0,0,0,61.76,9a2.36,2.36,0,0,0,.52.39c.21.16.24.16.37.56a6.7,6.7,0,0,1,.42,1.54c0,.79-.34,1.35-.28,2.18a4.15,4.15,0,0,0,.11.48A7.31,7.31,0,0,1,63,15.23c0,.34.07.78.07,1.13a.39.39,0,0,1-.29.07,1,1,0,0,0-.32.2c-.1,0-.17,0-.26.06s-.16.32-.18.65a13.06,13.06,0,0,1-.25,1.46,1.32,1.32,0,0,1-.19.56c-.11.13-.31.12-.44.24a1.83,1.83,0,0,0-.44,1.29c.09,0,.21-.06.31,0s.14.39.18.64a1.76,1.76,0,0,1,.1.58c0,.28-.35.32-.26.72a.89.89,0,0,1,.14.24c0,.12.06.24.09.37a3.08,3.08,0,0,0,.16.54c.33.64,1,.35,1,1.54a2.4,2.4,0,0,1-.19.93,2.51,2.51,0,0,0-.14,1.45,8.05,8.05,0,0,1,.16,1,5.91,5.91,0,0,1-.08,1.28c0,.37-.07.54-.24.68s-.3.16-.38.47a2.48,2.48,0,0,0,0,.73c0,.19-.11.23,0,.44a2.43,2.43,0,0,0-.44.51l.17,2.68c.08.27.15.57.19.72s.1.41.16.62.06.43.12.65.11.15.15.26.13.92.3.9a.41.41,0,0,0,.05-.26,3.56,3.56,0,0,0,.17,1.31c.11.21.27.28.38.46a3.54,3.54,0,0,1,.22,1.41,4,4,0,0,0,.28,1.26c.06.15.16.32.21.49s.06.35.11.51c.11.38.29.48.43.8a6.24,6.24,0,0,1,.21,1.45,7.07,7.07,0,0,1,.14,1L185.6,49v0l47,.66,2.95,0,2.41,0a7.07,7.07,0,0,0-.14-1,6.22,6.22,0,0,0-.22-1.45,6,6,0,0,1-.43-.8c0-.16-.06-.36-.1-.51s-.15-.34-.21-.49a4,4,0,0,1-.28-1.26,3.73,3.73,0,0,0-.22-1.41c-.11-.18-.28-.25-.38-.46a3.36,3.36,0,0,1-.17-1.31.41.41,0,0,1,0,.26c-.17,0-.22-.68-.3-.9s-.12-.15-.15-.26,0-.43-.12-.65-.11-.39-.17-.62-.1-.45-.18-.72l-.17-2.68a2.44,2.44,0,0,1,.43-.51c-.14-.21,0-.25,0-.44a3.42,3.42,0,0,1,0-.73c.09-.31.23-.35.39-.47s.18-.31.24-.68a5.36,5.36,0,0,0,.07-1.28,6.58,6.58,0,0,0-.16-1,2.59,2.59,0,0,1,.15-1.45,2.6,2.6,0,0,0,.19-.93c0-1.19-.67-.9-1-1.54a4.26,4.26,0,0,1-.17-.54c0-.13,0-.25-.08-.37a.89.89,0,0,0-.14-.24c-.09-.4.21-.44.25-.72s-.06-.37-.1-.58,0-.5-.18-.64-.21,0-.31,0a1.83,1.83,0,0,1,.45-1.29c.13-.12.32-.11.44-.24a1.32,1.32,0,0,0,.18-.56,11.11,11.11,0,0,0,.25-1.46c0-.33,0-.5.19-.65s.16,0,.25-.06a1.17,1.17,0,0,1,.33-.2.35.35,0,0,0,.28-.07c0-.35,0-.79-.06-1.13a6.15,6.15,0,0,0-.14-1.06,4.1,4.1,0,0,1-.1-.48c-.06-.83.33-1.39.28-2.18a7.24,7.24,0,0,0-.42-1.54c-.13-.4-.16-.4-.38-.56a2.56,2.56,0,0,1-.51-.39c-.25-.32-.19-.86-.24-1.3-.2-.07-.41.13-.61-.06a1.38,1.38,0,0,1-.26-.53,1,1,0,0,0,0-.23,1.66,1.66,0,0,0-.19-.35,2.26,2.26,0,0,1-.06-.9c.34-.24.75-.08,1.11,0,0-.17.08-.3.09-.47a4.18,4.18,0,0,0-.09-.71,1.61,1.61,0,0,1,.11-.84c.09-.12.26,0,.37,0,.52,0,.66-1.44.91-2.12.16-.45.19-.34.48-.32a2,2,0,0,0,.77,0C237.56,3.19,237.52,2.81,237.5,2.42Z"/><g class="cls-2"><path class="cls-4" d="M94.34,25.11a9.17,9.17,0,0,1-.78,3.18,7.4,7.4,0,0,1-1.81,2.49A8.3,8.3,0,0,1,89,32.41a11.21,11.21,0,0,1-3.76.58,9.7,9.7,0,0,1-3.93-.76,8.06,8.06,0,0,1-3-2.17,10,10,0,0,1-1.85-3.45,14.58,14.58,0,0,1-.65-4.53v-1.5A14.4,14.4,0,0,1,76.48,16a10.09,10.09,0,0,1,1.9-3.45,8.19,8.19,0,0,1,3-2.18,9.66,9.66,0,0,1,3.9-.77,10.87,10.87,0,0,1,3.76.6,8.08,8.08,0,0,1,2.77,1.67,7.66,7.66,0,0,1,1.78,2.55,10.37,10.37,0,0,1,.81,3.21H89.69a7.1,7.1,0,0,0-.35-1.8,3.51,3.51,0,0,0-.79-1.31,3.27,3.27,0,0,0-1.33-.8,6,6,0,0,0-2-.28,4,4,0,0,0-3.53,1.73,9.67,9.67,0,0,0-1.17,5.35v1.53a16.59,16.59,0,0,0,.26,3.09,6.59,6.59,0,0,0,.81,2.22,3.6,3.6,0,0,0,1.44,1.33,4.65,4.65,0,0,0,2.13.45,6.78,6.78,0,0,0,1.92-.25,3.45,3.45,0,0,0,1.34-.76,3.3,3.3,0,0,0,.83-1.27,6.15,6.15,0,0,0,.38-1.78Z"/><path class="cls-4" d="M101.53,17.63a6.12,6.12,0,0,1,2-1.59,5.58,5.58,0,0,1,2.54-.57,7.17,7.17,0,0,1,2.28.35A4.33,4.33,0,0,1,110.08,17a5.43,5.43,0,0,1,1.14,2,10.23,10.23,0,0,1,.39,3V32.68H107.1V22a4.39,4.39,0,0,0-.18-1.36,2.13,2.13,0,0,0-.52-.88,2,2,0,0,0-.85-.48,4.47,4.47,0,0,0-1.15-.14,3.51,3.51,0,0,0-1.77.41,3.11,3.11,0,0,0-1.1,1.12v12H97v-24h4.52Z"/><path class="cls-4" d="M124.81,32.68a4.88,4.88,0,0,1-.45-1.52,5.91,5.91,0,0,1-1.73,1.3,5.58,5.58,0,0,1-2.54.53,6.71,6.71,0,0,1-2.27-.37,5.69,5.69,0,0,1-1.83-1,4.88,4.88,0,0,1-1.21-1.6,4.75,4.75,0,0,1-.43-2,5.34,5.34,0,0,1,.49-2.35,4.58,4.58,0,0,1,1.47-1.75,7.1,7.1,0,0,1,2.45-1.1,13.68,13.68,0,0,1,3.39-.37h2v-1a2.76,2.76,0,0,0-.6-1.87,2.37,2.37,0,0,0-1.9-.71,2.72,2.72,0,0,0-1.79.55,1.85,1.85,0,0,0-.65,1.5h-4.51a4.47,4.47,0,0,1,.51-2.08,5.34,5.34,0,0,1,1.44-1.72,7.57,7.57,0,0,1,2.27-1.16,9.75,9.75,0,0,1,3-.43,9.41,9.41,0,0,1,2.72.38A6.32,6.32,0,0,1,126.78,17a5.22,5.22,0,0,1,1.41,1.86,6.22,6.22,0,0,1,.51,2.6v7.15c0,.48,0,.91,0,1.29s.08.72.13,1a5.62,5.62,0,0,0,.2.83,3.89,3.89,0,0,0,.3.69v.27Zm-3.73-3.14a4.07,4.07,0,0,0,1.07-.14A3.88,3.88,0,0,0,123,29a3.22,3.22,0,0,0,.68-.52,3.15,3.15,0,0,0,.46-.61V25h-1.86a5.52,5.52,0,0,0-1.55.19,2.92,2.92,0,0,0-1.07.55,2.11,2.11,0,0,0-.63.83,2.66,2.66,0,0,0-.2,1,1.81,1.81,0,0,0,.59,1.39A2.3,2.3,0,0,0,121.08,29.54Z"/><path class="cls-4" d="M147.37,24.39a12.81,12.81,0,0,1-.43,3.42,8.21,8.21,0,0,1-1.25,2.72,6.05,6.05,0,0,1-2.06,1.81,6,6,0,0,1-2.82.65,5.5,5.5,0,0,1-2.36-.47,5.31,5.31,0,0,1-1.77-1.31v8h-4.52V15.78h4.19l.15,1.66A5.49,5.49,0,0,1,138.32,16a5.41,5.41,0,0,1,2.46-.52,6.28,6.28,0,0,1,2.84.62,5.63,5.63,0,0,1,2.07,1.75,8.06,8.06,0,0,1,1.25,2.71,13.29,13.29,0,0,1,.43,3.51Zm-4.51-.33a9.77,9.77,0,0,0-.18-1.94,5.11,5.11,0,0,0-.57-1.57,2.93,2.93,0,0,0-1-1,2.83,2.83,0,0,0-1.5-.38,3.63,3.63,0,0,0-1.82.41,2.73,2.73,0,0,0-1.1,1.22v6.91a3,3,0,0,0,1.1,1.23,3.49,3.49,0,0,0,1.85.44,2.75,2.75,0,0,0,1.5-.39,2.87,2.87,0,0,0,1-1.07,5.17,5.17,0,0,0,.56-1.58,10.8,10.8,0,0,0,.17-1.92Z"/><path class="cls-4" d="M155.57,11.63v4.15h2.89v3.31h-2.89v8.44a3,3,0,0,0,.11.87,1.13,1.13,0,0,0,.33.54,1.05,1.05,0,0,0,.54.26,3.25,3.25,0,0,0,.75.08,5.86,5.86,0,0,0,.75,0l.58-.07v3.42a9.34,9.34,0,0,1-1.23.28,8.44,8.44,0,0,1-1.5.12,6.86,6.86,0,0,1-2-.27,3.73,3.73,0,0,1-2.5-2.41,6.8,6.8,0,0,1-.34-2.3V19.09h-2.47V15.78h2.47V11.63Z"/><path class="cls-4" d="M168.75,33a9.09,9.09,0,0,1-3.52-.64,7.76,7.76,0,0,1-2.64-1.75,7.52,7.52,0,0,1-1.66-2.6,8.85,8.85,0,0,1-.57-3.19V24.2a10.69,10.69,0,0,1,.56-3.52,8,8,0,0,1,1.58-2.76,7,7,0,0,1,2.48-1.8,8,8,0,0,1,3.27-.65,8.08,8.08,0,0,1,3.22.6,6.51,6.51,0,0,1,2.33,1.69,7.15,7.15,0,0,1,1.42,2.61,11.42,11.42,0,0,1,.48,3.41V25.7H164.94a4.76,4.76,0,0,0,.44,1.5,3.73,3.73,0,0,0,2.09,1.89,4.37,4.37,0,0,0,1.58.26,5.56,5.56,0,0,0,2.28-.46,4.53,4.53,0,0,0,1.79-1.43L175.34,30a6.55,6.55,0,0,1-1,1.12,6.66,6.66,0,0,1-1.43,1,8.74,8.74,0,0,1-1.87.68A9,9,0,0,1,168.75,33Zm-.52-13.86a3,3,0,0,0-1.28.25,2.82,2.82,0,0,0-1,.72,4.1,4.1,0,0,0-.65,1.1,6.56,6.56,0,0,0-.35,1.42h6.27v-.36a4.6,4.6,0,0,0-.19-1.25,2.67,2.67,0,0,0-.55-1,2.39,2.39,0,0,0-.94-.66A3.47,3.47,0,0,0,168.23,19.13Z"/><path class="cls-4" d="M187.75,20c-.23,0-.49-.06-.8-.09s-.58,0-.82,0a4.46,4.46,0,0,0-2.15.45,2.68,2.68,0,0,0-1.21,1.28V32.68h-4.51V15.78h4.26l.13,2a5,5,0,0,1,1.57-1.71,3.93,3.93,0,0,1,2.19-.62,5.17,5.17,0,0,1,.76.06c.26.05.48.09.65.14Z"/><path class="cls-4" d="M213.28,32.68H197.7V29.59l7.35-7.84a21.41,21.41,0,0,0,1.4-1.66,11.32,11.32,0,0,0,.92-1.37,5.27,5.27,0,0,0,.5-1.16,3.9,3.9,0,0,0,.15-1,3.45,3.45,0,0,0-.76-2.38,2.76,2.76,0,0,0-2.19-.87,3.32,3.32,0,0,0-1.41.29,2.81,2.81,0,0,0-1,.8,3.49,3.49,0,0,0-.64,1.21,5.24,5.24,0,0,0-.21,1.53h-4.53a7.73,7.73,0,0,1,.54-2.89,7,7,0,0,1,1.58-2.38,7.8,7.8,0,0,1,2.49-1.61,8.77,8.77,0,0,1,3.29-.59,10.35,10.35,0,0,1,3.18.45,6.28,6.28,0,0,1,2.31,1.27,5.35,5.35,0,0,1,1.43,2,7.22,7.22,0,0,1,.48,2.7,6.81,6.81,0,0,1-.36,2.2,10.81,10.81,0,0,1-1,2.13,17.88,17.88,0,0,1-1.59,2.14c-.62.73-1.31,1.48-2.07,2.26l-4,4.23h9.77Z"/></g><path class="cls-5" d="M292.16,43.32h-6.47L4,42.32c0,.43,0,.86,0,1.28a1.49,1.49,0,0,1-.63,0c-.24,0-.26-.14-.41.35-.24.77-.43,2.41-.85,2.38-.09,0-.23-.1-.31,0a2.4,2.4,0,0,0-.13.94,6.57,6.57,0,0,1,0,.78c0,.19-.08.33-.1.52-.29-.07-.62-.25-.91,0a3.35,3.35,0,0,0,0,1A1.76,1.76,0,0,1,.84,50l0,.25a1.65,1.65,0,0,0,.18.59c.15.2.34,0,.5,0a4.1,4.1,0,0,0,.13,1.45,2.05,2.05,0,0,0,.41.42c.17.18.19.17.27.62a8.89,8.89,0,0,1,.27,1.7c0,.88-.34,1.5-.33,2.42a4.52,4.52,0,0,0,.06.53,7.52,7.52,0,0,1,.06,1.17c0,.39,0,.87,0,1.26a.23.23,0,0,1-.24.07,1.46,1.46,0,0,0-.27.24c-.08,0-.14,0-.22.07s-.14.35-.18.71c-.06.56-.18,1.13-.28,1.64a2.09,2.09,0,0,1-.18.62C1,64,.79,64,.68,64.1a2.57,2.57,0,0,0-.43,1.43c.08,0,.18-.07.25,0s.1.43.12.71a1.87,1.87,0,0,1,.05.64c0,.31-.29.36-.24.8A1.16,1.16,0,0,1,.54,68c0,.13,0,.26,0,.4a3.41,3.41,0,0,0,.1.6c.24.71.78.38.74,1.7a3.69,3.69,0,0,1-.2,1A4,4,0,0,0,1,73.31a8.38,8.38,0,0,1,.08,1.14A8,8,0,0,1,1,75.86c-.06.41-.08.61-.23.76a.79.79,0,0,0-.34.53,3.38,3.38,0,0,0-.06.8c0,.21-.1.26,0,.49A3.06,3.06,0,0,0,0,79v3c0,.29.09.62.11.79s.07.45.11.68,0,.48.06.73.09.16.11.28.07,1,.21,1a.6.6,0,0,0,.05-.29,5.16,5.16,0,0,0,.08,1.45c.07.23.21.3.29.5a5.59,5.59,0,0,1,.11,1.57,6.4,6.4,0,0,0,.16,1.39c.05.16.12.35.16.53s0,.39.06.57a5.28,5.28,0,0,0,.31.88,9.85,9.85,0,0,1,.11,1.61c0,.32.08.8.07,1.11l283.78,1h4.4c0-.31-.06-.79-.07-1.12a9.81,9.81,0,0,0-.11-1.6,5.63,5.63,0,0,1-.31-.88c0-.18,0-.4-.06-.57s-.11-.37-.16-.53a6.4,6.4,0,0,1-.16-1.39,5.56,5.56,0,0,0-.11-1.57c-.08-.2-.22-.27-.29-.51a5.07,5.07,0,0,1-.08-1.44.63.63,0,0,1,0,.29c-.14,0-.15-.76-.21-1s-.09-.17-.11-.28,0-.48-.06-.73-.07-.43-.11-.68-.06-.5-.11-.8V80a3.06,3.06,0,0,1,.38-.57c-.11-.23,0-.28,0-.49a3.38,3.38,0,0,1,.06-.8.84.84,0,0,1,.34-.54c.15-.15.17-.34.23-.75a8.08,8.08,0,0,0,.12-1.42,8.23,8.23,0,0,0-.08-1.13,4,4,0,0,1,.19-1.61,3.43,3.43,0,0,0,.2-1c0-1.32-.5-1-.74-1.7a3.58,3.58,0,0,1-.1-.6c0-.14,0-.27,0-.41a1.27,1.27,0,0,0-.11-.26c-.05-.44.2-.5.24-.8a1.87,1.87,0,0,0-.05-.64c0-.28,0-.56-.11-.71s-.18,0-.26,0a2.57,2.57,0,0,1,.43-1.43c.11-.14.27-.13.37-.28a1.92,1.92,0,0,0,.18-.62c.1-.5.22-1.07.28-1.63,0-.36,0-.55.18-.72s.14,0,.22-.06a1.46,1.46,0,0,1,.27-.24.24.24,0,0,0,.24-.08c0-.38,0-.86,0-1.25a7.52,7.52,0,0,0-.06-1.17,4.69,4.69,0,0,1-.06-.54c0-.91.34-1.53.33-2.41a9.12,9.12,0,0,0-.27-1.71c-.08-.44-.1-.43-.27-.61a2.11,2.11,0,0,1-.41-.43,4,4,0,0,1-.13-1.44c-.16-.07-.35.15-.5,0a1.65,1.65,0,0,1-.18-.59l0-.25a1.76,1.76,0,0,0-.15-.39,3.35,3.35,0,0,1,0-1c.29-.27.62-.09.91,0,0-.19.08-.34.1-.52a6.85,6.85,0,0,0,0-.79,2.38,2.38,0,0,1,.13-.93c.08-.13.22,0,.31,0,.42,0,.61-1.6.85-2.37.15-.5.17-.38.41-.36a1.34,1.34,0,0,0,.63,0C292.17,44.17,292.16,43.75,292.16,43.32Z"/><g class="cls-2"><path class="cls-6" d="M61.2,62.17H52.36v24H46.42v-24H37.71V57.35H61.2Z"/><path class="cls-6" d="M88.05,86.19H82.11V73.83H70.52V86.19H64.58V57.35h5.94V69H82.11V57.35h5.94Z"/><path class="cls-6" d="M110.59,73.69H99.18v7.73h13.39v4.77H93.24V57.35h19.29v4.82H99.18V69h11.41Z"/><path class="cls-6" d="M141.11,78.62a4.06,4.06,0,0,0-.22-1.35,2.71,2.71,0,0,0-.84-1.12,7.82,7.82,0,0,0-1.73-1,27.11,27.11,0,0,0-2.84-1,34,34,0,0,1-3.73-1.43,13.8,13.8,0,0,1-3.07-1.87,8.42,8.42,0,0,1-2.08-2.48,6.8,6.8,0,0,1-.76-3.29,7,7,0,0,1,.78-3.3,7.31,7.31,0,0,1,2.2-2.54,10.74,10.74,0,0,1,3.36-1.64,14.94,14.94,0,0,1,4.29-.58,13.62,13.62,0,0,1,4.36.66,10,10,0,0,1,3.35,1.85,8.42,8.42,0,0,1,2.14,2.82,8.5,8.5,0,0,1,.75,3.58h-5.94a4.78,4.78,0,0,0-.29-1.68,3.44,3.44,0,0,0-.88-1.33,4,4,0,0,0-1.49-.86,6.28,6.28,0,0,0-2.1-.31,7.2,7.2,0,0,0-2,.26,4.11,4.11,0,0,0-1.42.71,3,3,0,0,0-.85,1.07,3,3,0,0,0-.29,1.31,2.79,2.79,0,0,0,1.45,2.38,16.36,16.36,0,0,0,4.27,1.8,27.46,27.46,0,0,1,4.15,1.62,12.21,12.21,0,0,1,3,2,7.66,7.66,0,0,1,1.81,2.54,7.84,7.84,0,0,1,.62,3.18,7.54,7.54,0,0,1-.74,3.39,7.08,7.08,0,0,1-2.11,2.51,9.9,9.9,0,0,1-3.3,1.56,16,16,0,0,1-4.31.55,17.15,17.15,0,0,1-2.85-.25,14.18,14.18,0,0,1-2.72-.76,12.34,12.34,0,0,1-2.41-1.29,9,9,0,0,1-1.93-1.82,8.21,8.21,0,0,1-1.29-2.39,9,9,0,0,1-.46-3h6a5.47,5.47,0,0,0,.41,2.22,3.86,3.86,0,0,0,1.16,1.47,4.76,4.76,0,0,0,1.79.82,9.42,9.42,0,0,0,2.34.26,7,7,0,0,0,2-.25A4,4,0,0,0,140,81a2.73,2.73,0,0,0,.82-1A3.12,3.12,0,0,0,141.11,78.62Z"/><path class="cls-6" d="M172.8,62.17H164v24H158v-24h-8.71V57.35H172.8Z"/><path class="cls-6" d="M199.31,72.42a18.26,18.26,0,0,1-.89,5.94,12.78,12.78,0,0,1-2.5,4.44A11,11,0,0,1,192,85.61a13.09,13.09,0,0,1-9.94,0,11.19,11.19,0,0,1-3.89-2.81,12.69,12.69,0,0,1-2.54-4.44,18,18,0,0,1-.91-5.94V71.16a18,18,0,0,1,.9-5.92,13.1,13.1,0,0,1,2.52-4.48,10.84,10.84,0,0,1,3.88-2.82,13.12,13.12,0,0,1,9.95,0,10.93,10.93,0,0,1,3.88,2.82,13.1,13.1,0,0,1,2.52,4.48,18.22,18.22,0,0,1,.9,5.92Zm-6-1.3c0-3-.54-5.32-1.62-6.89a5.73,5.73,0,0,0-9.27,0c-1.08,1.57-1.62,3.86-1.62,6.89v1.3a17.12,17.12,0,0,0,.42,4,9,9,0,0,0,1.23,2.91,5.31,5.31,0,0,0,2,1.78,5.77,5.77,0,0,0,2.67.6,5.24,5.24,0,0,0,4.62-2.37c1.07-1.59,1.6-3.89,1.6-6.92Z"/><path class="cls-6" d="M214.3,75.63h-4.73V86.19h-5.94V57.35h10.71a16.18,16.18,0,0,1,4.48.57,9.31,9.31,0,0,1,3.35,1.66,7.31,7.31,0,0,1,2.1,2.72,9.09,9.09,0,0,1,.73,3.77,10.36,10.36,0,0,1-.36,2.84,7.41,7.41,0,0,1-1,2.24A7.73,7.73,0,0,1,222,72.86a10.7,10.7,0,0,1-2.14,1.27l6.24,11.78v.28h-6.38Zm-4.73-4.81h4.79a6.06,6.06,0,0,0,2-.31,3.83,3.83,0,0,0,1.47-.87,3.6,3.6,0,0,0,.88-1.34,4.92,4.92,0,0,0,.3-1.76,4.37,4.37,0,0,0-1.16-3.21,4.86,4.86,0,0,0-3.56-1.16h-4.77Z"/><path class="cls-6" d="M246.86,73.69h-11.4v7.73h13.38v4.77H229.51V57.35H248.8v4.82H235.46V69h11.4Z"/></g><path class="cls-7" d="M290.07,93.44H1.93a1.93,1.93,0,0,0,0,.24c0,.32.08.8.07,1.11l283.78,1h4.4c0-.31-.06-.79-.07-1.12S290.11,93.82,290.07,93.44Z"/><g class="cls-8"><path class="cls-9" d="M238.52,43.32S242.9,60.76,252.71,70s3.4,17.89,14,25.82h27L289.41,64.2,276.05,46.36s-13.4-8.21-18.27-8.41S238.52,43.32,238.52,43.32Z"/></g><path class="cls-10" d="M297.17,27.32c-1.11-.84-2.21-1.61-3.29-2.32-32.09-21-56.06,14.7-55.36,18.32a222.22,222.22,0,0,0,19.1,18c12,10.08,28,21.21,42.58,24.1C300.2,85.38,329.31,51.68,297.17,27.32Z"/><path class="cls-11" d="M306.33,75.74A41.73,41.73,0,0,0,297.62,68,49.71,49.71,0,0,0,280,61a70.51,70.51,0,0,0-10.88-.52,43.9,43.9,0,0,0-11,1.29c12,10,27.69,20.81,42.06,23.66a56.7,56.7,0,0,0,6.28-9.49C306.43,75.84,306.38,75.8,306.33,75.74Z"/><path class="cls-11" d="M260.57,46.73c6.23-9.06,14.46-15,24.95-19.25a43.16,43.16,0,0,1,8.48-2.4l-.12-.08c-32.09-21-56.06,14.7-55.36,18.32a219.54,219.54,0,0,0,17.3,16.44A29.09,29.09,0,0,1,260.57,46.73Z"/><path class="cls-12" d="M250.82,44.47C254.1,34.19,262.05,26.66,272,22.85a41.14,41.14,0,0,1,12.23-2.63c-27.12-9.2-46.34,19.86-45.71,23.1,0,0,4.13,4.5,10.71,10.58A34.44,34.44,0,0,1,250.82,44.47Z"/><path class="cls-13" d="M312.18,97.37a19.42,19.42,0,0,0-3.13-4.64,20.25,20.25,0,0,0-9.48-5.23,37.16,37.16,0,0,0-9.45-1.08s-13.49,1.24-22.07-8.26a55.48,55.48,0,0,1-10.43-16.88s18.17-4.42,35.49,6.3c0,0,7.72,4.3,11.6,11.62s11.56,20.91,10.4,21.42c-.63.27-1.36.41-1.58-.17C313.1,99.38,312.67,98.36,312.18,97.37Z"/><path class="cls-10" d="M312.93,96.75c.34.82.6,1.48.81,2a5.88,5.88,0,0,0,.86,1.8h0c.13.08.28,0,.64-.14l.1,0a.08.08,0,0,0,0,0c.44-1.27-5.2-12.62-10.16-22A31.37,31.37,0,0,0,295.44,68c-1.07-.74-1.78-1.14-1.8-1.15-16.26-10.06-34-5.9-35.84-5.44A73.34,73.34,0,0,0,268.74,77.2a23.27,23.27,0,0,0,4,3.49c8.09,5.56,17.89,4.74,18,4.73,6.76,0,12.28,1.42,16.42,4.27A14.73,14.73,0,0,1,312.93,96.75Z"/><g class="cls-14"><path class="cls-10" d="M305,86.44a16.64,16.64,0,0,1,4.4,2.29c-.36-.86-.73-1.72-1.13-2.57a46,46,0,0,0-7.88-12.23c1,2.26,1.94,4.57,2.79,6.89C303.8,82.62,304.44,84.51,305,86.44Z"/></g><g class="cls-15"><path class="cls-16" d="M282.25,84.25c-3.62-2.48-7.24-5.87-8.77-10.09a7.12,7.12,0,0,1,.54-6.37,10.66,10.66,0,0,1,6.16-4.06,22.06,22.06,0,0,1,5.66-.71,50.78,50.78,0,0,0-28-1.65A73.34,73.34,0,0,0,268.74,77.2a22.79,22.79,0,0,0,4,3.48,27.33,27.33,0,0,0,10.51,4.22Z"/></g><path class="cls-17" d="M299.75,60l2.84-4.79c1.43-2.41,1-5.43-1-6.83L297,45.13a4.5,4.5,0,0,0-6.38,1.73l-3.81,6.42.13.07-.33.55-.13-.06A4.26,4.26,0,0,0,288.17,60l7.1,3.23a2.79,2.79,0,0,0,3.36-1.35l.83-1.41-.11-.06.28-.48Z"/><polygon class="cls-18" points="296.66 58.35 299.63 59.9 299.35 60.38 296.37 58.84 296.66 58.35"/><path class="cls-19" d="M296.66,58.35,300,52.71a4.19,4.19,0,0,0-.89-5.58l-2.39-1.64a4.09,4.09,0,0,0-5.79,1.59l-2,3.4h0l-1.78,3,.1,0-.33.56-.08,0a3.88,3.88,0,0,0,1.55,5.56l4.34,2a2.14,2.14,0,0,0,2.62-1l1-1.73-7.1-3.66.32-.53Z"/><path class="cls-17" d="M296.41,48.81h0A3,3,0,0,0,292.34,50l-1.2,2L296,54.79l1.13-1.9A3,3,0,0,0,296.41,48.81Z"/><path class="cls-20" d="M296.18,49.19h0a2.53,2.53,0,0,0-3.48,1.05l-1,1.61,4.17,2.38.91-1.54A2.57,2.57,0,0,0,296.18,49.19Z"/><path class="cls-17" d="M293.89,51.62a.61.61,0,0,1-.81.25.63.63,0,0,1,.64-1.08A.61.61,0,0,1,293.89,51.62Z"/><path class="cls-17" d="M296,52.83a.58.58,0,0,1-.78.25.58.58,0,0,1-.16-.8.55.55,0,1,1,.94.55Z"/><path class="cls-21" d="M296.55,25.31c-2-1-3.55-1.94-3.5-.64A8.26,8.26,0,0,0,296.7,30c2,1,3.55,1.08,3.51-.22l-4.46-3.68Z"/><ellipse class="cls-10" cx="296.64" cy="26.56" rx="1.95" ry="4.27" transform="translate(95.5 246.2) rotate(-52.63)"/><path class="cls-22" d="M297.35,28.08c-2-1-3.63-2.94-3.67-4.24a1.08,1.08,0,0,1,0-.19,1,1,0,0,0-.66,1c0,1.3,1.68,3.2,3.67,4.25s3.37.83,3.49-.29A3.79,3.79,0,0,1,297.35,28.08Z"/></g></g></g></svg>