<svg xmlns="http://www.w3.org/2000/svg" xmlns:xlink="http://www.w3.org/1999/xlink" viewBox="0 0 512.5 198.88"><defs><style>.cls-1,.cls-22,.cls-24,.cls-6{isolation:isolate;}.cls-2{fill:#3737b7;}.cls-3{fill:#736cff;}.cls-22,.cls-4{fill:#4848ed;}.cls-5{fill:#0c846e;}.cls-6,.cls-9{fill:#121266;}.cls-6{opacity:0.09;}.cls-7{fill:#3d3dd1;}.cls-8{fill:#8d8dff;}.cls-10{fill:none;stroke:#3d3dd1;stroke-miterlimit:10;stroke-width:0.32px;}.cls-11{fill:#ffe000;}.cls-12{fill:#c50e59;}.cls-13{fill:#f83571;}.cls-14{fill:#dceff5;}.cls-15{fill:#d33535;}.cls-16,.cls-18,.cls-19,.cls-22,.cls-23,.cls-24,.cls-25,.cls-26{fill-rule:evenodd;}.cls-17{fill:#f6f5fd;}.cls-18,.cls-21{fill:#a3f6ed;}.cls-19,.cls-20{fill:#009b5c;}.cls-22{opacity:0.51;}.cls-23,.cls-34{fill:#00cc82;}.cls-24{opacity:0.5;mix-blend-mode:screen;fill:url(#radial-gradient);}.cls-25,.cls-32{fill:#fff;}.cls-26{fill:#c5dbff;}.cls-27{fill:#10ad7f;}.cls-28{fill:#00af7b;}.cls-29{fill:#6020c5;}.cls-30{fill:#ffd400;}.cls-31{fill:#704de8;}.cls-33{fill:#e2e2e2;}.cls-35{fill:#00ba74;}.cls-36{fill:#00f193;}.cls-37{fill:#ffc63f;}.cls-38{fill:#ffdb61;}.cls-39{fill:#ffeb94;}</style><radialGradient id="radial-gradient" cx="1838.95" cy="-399.07" r="19.75" gradientTransform="matrix(0.86, 0.51, -0.51, 0.86, -1375.54, -506.67)" gradientUnits="userSpaceOnUse"><stop offset="0"/><stop offset="0.3" stop-color="#020202"/><stop offset="0.46" stop-color="#08080a"/><stop offset="0.58" stop-color="#121217"/><stop offset="0.68" stop-color="#21212a"/><stop offset="0.77" stop-color="#343443"/><stop offset="0.86" stop-color="#4b4c61"/><stop offset="0.93" stop-color="#676784"/><stop offset="1" stop-color="#8384a9"/></radialGradient></defs><g class="cls-1"><g id="Layer_2" data-name="Layer 2"><g id="Chapter_4_Title" data-name="Chapter 4 Title"><path class="cls-2" d="M358,93.88s5.5.3,4.3,8.9c0,0-10,7.6-8,15.6a3.52,3.52,0,0,1,1.7,3.5c-.4,2.4.9,5.6-3.8,5.6s-8.7-7.9-4.7-17.6S355.7,95.08,358,93.88Z"/><path class="cls-3" d="M465.5,115.48c1.6-23.1-2.3-55-12-64.9,0,0-19-16.4-60.4-16.8a13.32,13.32,0,0,0-3.4.5c-6.9,2.1-31.3,11.4-34.5,37.2a169.16,169.16,0,0,0,.7,42.8l.4.2.3,2-.3.1c1.2,7.7,2.4,12.4,2.4,12.4s1.7,12.4,31.2,17.8c0,0,24.6,5.5,35.3,3.8s36.5-4.7,39.6-27.1c.2-1.6.4-3.4.6-5.2l-.2-.1.2-2.4Z"/><path class="cls-4" d="M464.7,123.28c.2-1.7.4-3.3.6-5.2,0,0-.2,0-.2-.1.1-.7.1-1.6.2-2.4l.2-.1c1.5-22.9-2.3-54.6-11.8-64.7-4.9,3-19,11.4-28.6,14.8-.4.1-.8.3-1.3.4,0,0-.9.9,0,4.3s1.5,73.3,1.2,80.2C435.8,148.58,461.6,145.68,464.7,123.28Z"/><g id="Layer_2-2" data-name="Layer 2"><g id="Chapter_4_Title-2" data-name="Chapter 4 Title"><path class="cls-5" d="M386.9,143.78l-.5,10.4a.76.76,0,0,1-.6.8c-1.4.6-5,2.2-5,4.9.1,3.8,9.8,2.3,11.9,1.1,1.8-1,1.4-8.4,1.7-13.9.3-6.5-.3-7.7-3.9-7.8C386.3,139.08,386.9,143.78,386.9,143.78Z"/><path class="cls-5" d="M403.7,143.68l-.2,14.7a1.28,1.28,0,0,1-.4,1c-1,1.2-3.7,4.8-2.7,7.4,1.4,3.5,6.9.6,8.9-1.7s2.2-1.9,2.4-7.2.4-12.5.4-12.5.6-4.4-4.7-4.4C403.5,141.08,403.7,143.68,403.7,143.68Z"/><path class="cls-6" d="M443.8,142.48c-14.7,2.2-48.6-4.6-48.6-4.6-21.5-3.5-32.3-9.5-37.7-14.3.7,3.4,1.2,5.4,1.2,5.4s1.7,12.4,31.2,17.8c0,0,24.6,5.6,35.3,3.8,6.9-1.2,20-2.8,29.3-9.7C450.4,141.58,446.7,142.08,443.8,142.48Z"/><path class="cls-7" d="M465.3,115.78h0c-12.2,7.4-35.9,13.2-39.7,13.9-3,.6-12.6-.9-35.1-5.5-18.7-3.8-31.8-8.7-34.1-9.7l.3,2-.3.1c.1.1,13,5.5,33.8,9.7,19.7,4,29.4,5.6,34,5.6a10.32,10.32,0,0,0,1.9-.1c3.9-.7,26.9-6,39.4-13.5l-.2-.1Z"/><path class="cls-8" d="M424,131.88a10.32,10.32,0,0,0,1.9-.1c3.9-.7,26.9-6,39.4-13.5l-.2-.1c-13.1,8-40,13.3-40,13.3-6.5,0-26.4-3.6-38.8-6.3a218.46,218.46,0,0,1-29.7-8.6l-.3.1c.1.1,13,5.5,33.8,9.7C409.7,130.28,419.5,131.88,424,131.88Z"/><ellipse class="cls-7" cx="420.79" cy="146.11" rx="1.2" ry="1" transform="translate(267.74 564.43) rotate(-89.05)"/><path class="cls-9" d="M421,144.88a1.13,1.13,0,0,1,.8,1.2,1.2,1.2,0,0,1-.9,1.2,1.18,1.18,0,0,1-.7-1.2A1.24,1.24,0,0,1,421,144.88Z"/><ellipse class="cls-7" cx="419.46" cy="142.21" rx="1.2" ry="1" transform="translate(270.33 559.26) rotate(-89.05)"/><path class="cls-9" d="M419.6,141.08a1.13,1.13,0,0,1,.8,1.2,1.2,1.2,0,0,1-.9,1.2,1.18,1.18,0,0,1-.7-1.2A1.4,1.4,0,0,1,419.6,141.08Z"/><ellipse class="cls-7" cx="416.9" cy="144.87" rx="1.2" ry="1" transform="matrix(0.02, -1, 1, 0.02, 265.15, 559.31)"/><path class="cls-9" d="M417.1,143.68a1.13,1.13,0,0,1,.8,1.2,1.2,1.2,0,0,1-.9,1.2,1.18,1.18,0,0,1-.7-1.2A1.24,1.24,0,0,1,417.1,143.68Z"/><path class="cls-10" d="M422.6,147.48s-1.1-8.5-3.1-8.6c-1.8-.1-4.8,4.3-5.2,5.5a2.54,2.54,0,0,0,.6,2.7,8.09,8.09,0,0,0,6.5,1.4C421.5,148.58,422.7,148.38,422.6,147.48Z"/><path class="cls-7" d="M421.4,141.68s-.7-2.2-1.8-2.1-4.3,3.9-4.6,5.2a2,2,0,0,0,1.2,2.3,8.37,8.37,0,0,0,6.4.4s.2.9-1.5,1.1a9.68,9.68,0,0,1-3-.1s-3-.6-3.6-1.9a2.41,2.41,0,0,1-.3-1.9,13.45,13.45,0,0,1,1.1-2.2c.7-.9,2.4-3.3,3.6-3.5s1.5.7,1.8,1.3A5.11,5.11,0,0,1,421.4,141.68Z"/><path class="cls-9" d="M378.5,134.48l-.4-5.3-2.4-.5-.2-3.6-5.6-1.1-1.5.4.5,2.9-1.7-.4-1.3.4,3,6.1,6.3,5.2,1-.6-.2-3.3,1.4.7Zm-5.9-1.4c-.7.2-1.5-.6-1.8-1.9s0-2.5.7-2.5,1.4.6,1.7,1.9S373.3,132.88,372.6,133.08Z"/><path class="cls-11" d="M374.6,125.48l-6.1-1.3.8,12.3,6.1,1.9Zm-2,7.6c-1.6.6-2.8-4.3-1.1-4.4C372.9,128.38,374.2,132.78,372.6,133.08Z"/><path class="cls-11" d="M377.2,129.58l-11.1-2.5.4,5.5,11.2,2.6Zm-4.6,3.5c-1.6.6-2.8-4.3-1.1-4.4C372.9,128.38,374.2,132.78,372.6,133.08Z"/><path class="cls-3" d="M373.4,131.78v0Z"/><path class="cls-3" d="M373.1,130.38v.2C373.2,130.48,373.2,130.38,373.1,130.38Z"/><path class="cls-3" d="M373.2,130.68h0a3.4,3.4,0,0,1,.1,1A1.73,1.73,0,0,0,373.2,130.68Z"/><path class="cls-9" d="M372.6,133.08c-1.9.7-2.9-5.6-.5-4.2-1.5-.9-3,.4-2.3,2.6.5,2.2,3.3,2.9,3.5.4C373.3,132.58,373,133,372.6,133.08Z"/><path class="cls-3" d="M373.3,132Z"/><path class="cls-3" d="M373.1,130.38a2.84,2.84,0,0,0-1-1.5A2.38,2.38,0,0,1,373.1,130.38Z"/><path class="cls-10" d="M385.7,136.18l3.8,6.1a2.77,2.77,0,0,0,4,1h0c1.4-1.1,1-2.9.3-4.1l-3.1-5-2.6-4.3c-1.2-1.9-2.7-1.8-3.9-1.1h0c-1.5,1-1.2,2.8-.5,4Z"/><path class="cls-7" d="M384.5,128.58a2.85,2.85,0,0,0-.9,2.7c.4,1.6,4.8,8.1,4.8,8.1s1,3.1,3.1,3.7a2.4,2.4,0,0,0,2.4-.3,2.55,2.55,0,0,1-2.9.9c-1.8-.6-4-5.2-4-5.2l-3.7-6.3S382.2,129.58,384.5,128.58Z"/><path class="cls-12" d="M388.5,140.38c1.4,3.6,5.7,1.5,4.1-2C390.7,134.88,386.7,137,388.5,140.38Z"/><path class="cls-13" d="M388.2,140.38c1.7,3.5,5.5,1.8,3.8-1.8C390.4,135.18,386.5,137.08,388.2,140.38Z"/><path class="cls-12" d="M384.4,134c1.4,3.6,5.7,1.5,4.1-2C386.6,128.38,382.6,130.48,384.4,134Z"/><path class="cls-13" d="M384.1,134c1.7,3.5,5.5,1.8,3.8-1.8C386.3,128.78,382.4,130.58,384.1,134Z"/><path class="cls-7" d="M385.4,128.38a1.9,1.9,0,0,0-1.8,1.7s-.3-1.2.5-1.5A6.89,6.89,0,0,1,385.4,128.38Z"/><path class="cls-7" d="M394.2,141.88s-1.2,1.7-2.7,1.3a.81.81,0,0,0,.7.5,5.39,5.39,0,0,0,1.7-.8Z"/><path class="cls-4" d="M419.7,66.48a.75.75,0,0,1-.5-.1c-.2-.1-23.5-13.2-51.4-10.7a1.1,1.1,0,1,1-.2-2.2c28.6-2.6,52.4,10.8,52.6,10.9a1.13,1.13,0,0,1,.4,1.5,1,1,0,0,1-.9.6Z"/><ellipse class="cls-4" cx="406.7" cy="43.68" rx="5.5" ry="2.8"/><path class="cls-9" d="M406.7,46.48c2.3,0,4.2-.7,5-1.7-.1-.8-1-1.9-5-2.1,0,0-3.8-.2-5.1,2.1A7.06,7.06,0,0,0,406.7,46.48Z"/><path class="cls-4" d="M362.4,85.78s-1.3-17,8.1-18.3,28.9,3.8,28.9,3.8,15.4,3,15.7,15.2,3.2,28.8-9.2,29.2c0,0-7.2.2-20.4-3.7s-22.1-6.6-22.4-15.5Z"/><path class="cls-14" d="M415.1,86.48c-.3-12.3-15.7-15.2-15.7-15.2s-18-4.7-27.8-3.9c-1.4,2.7-3.3,8.4-3.7,20.3v6s-.5,8.1,8.8,11.2a196.86,196.86,0,0,0,19.9,5.8c7.5,1.6,14.4.9,18-2.1C416.3,102.48,415.3,93.68,415.1,86.48Z"/><path class="cls-15" d="M380.9,98.28s-1.5,2.3-.2,2.9,1.9-1.7,1.9-1.7Z"/><path d="M380,97.38a3.1,3.1,0,0,0,.6,1.3,3.75,3.75,0,0,0,3,1.4,6.7,6.7,0,0,0,3.1-.7.63.63,0,0,0-.4-1.2,5.73,5.73,0,0,1-1.4.4c-.3.1-.7.1-1,.2h-.8a1,1,0,0,1-.4-.1h-.3l-.3-.2-.1-.1h0l-.4-.4h0l-.1-.1c0-.1-.1-.1-.1-.2l-.1-.2h0a.6.6,0,0,1-.1-.4.63.63,0,1,0-1.2.4Z"/><path class="cls-16" d="M375.5,91a.66.66,0,0,0,.5-.4c.2-1.3.8-2.3,1.6-2.3s1.4,1,1.6,2.3a.46.46,0,0,0,.5.4h0a.47.47,0,0,0,.5-.5v-.1c-.3-2-1.3-3.5-2.5-3.5s-2.3,1.5-2.5,3.5a.37.37,0,0,0,.3.6Z"/><path class="cls-17" d="M405.9,111.38a17.75,17.75,0,0,0,4.6-.8s-2.3-.1-5.7-.3c-9.1-.7-16.1-3.5-27.3-7s-7.2-20.5-6-28.6a8.56,8.56,0,0,1,6.2-7.3,41.42,41.42,0,0,0-6.1-.1c-1.4,2.7-3.3,8.4-3.7,20.3v6s-.5,8.1,8.8,11.2a196.86,196.86,0,0,0,19.9,5.8A32.56,32.56,0,0,0,405.9,111.38Z"/><path class="cls-9" d="M431.5,135.18h0a.9.9,0,0,1,.9.9v8.3a.92.92,0,0,1-1,.9h0a1,1,0,0,1-1-.9v-8.3A1.17,1.17,0,0,1,431.5,135.18Z"/><path class="cls-9" d="M436.2,134.38h0a.9.9,0,0,1,.9.9v8.3a.92.92,0,0,1-1,.9h0a1,1,0,0,1-1-.9v-8.3A1.09,1.09,0,0,1,436.2,134.38Z"/><path class="cls-9" d="M440.8,133.38h0a.9.9,0,0,1,.9.9v8.3a.92.92,0,0,1-1,.9h0a1,1,0,0,1-1-.9v-8.3A1.17,1.17,0,0,1,440.8,133.38Z"/><path class="cls-9" d="M449.8,63.88h0a1,1,0,0,1,1.1.8L453.3,81a1,1,0,0,1-.8,1.1h0a1,1,0,0,1-1.1-.8L449,65A1,1,0,0,1,449.8,63.88Z"/><path class="cls-9" d="M454.1,61.38h0a1,1,0,0,1,1.1.8l2.4,16.3a1,1,0,0,1-.8,1.1h0a1,1,0,0,1-1.1-.8l-2.4-16.3A1,1,0,0,1,454.1,61.38Z"/><ellipse class="cls-9" cx="447.18" cy="112.97" rx="9.3" ry="7" transform="translate(230.16 519.95) rotate(-76.11)"/><path class="cls-9" d="M428.3,117.18l1,.8v2.4l-1,1.5Zm2.9,4-2.7.8,1-1.5,1.4-.4.7.5Zm0-3.7.5-.7.5.4v2.4l-.5.7-.5-.4Zm1.4,2.1,1.4-.4,1,.8-2.7.8-.4-.3Zm2.5-4.5v4.6l-1-.8v-2.4Z"/><path class="cls-9" d="M428.5,122.28c-.1,0-.2,0-.2-.1v-.1h0a.22.22,0,0,1-.2-.2v-4.7a.35.35,0,0,1,.1-.2h.3l1,.8c.1,0,.1.1.1.2v2.2l1.2-.4h.1v-2.6l.5-.7c0-.1.1-.1.2-.1s.1,0,.2.1l.5.4c.1.1.1.1.1.2v2.2l1.4-.4h0v-2.6l1-1.4a.37.37,0,0,1,.3-.1c.1,0,.2.1.2.3v4.6a.22.22,0,0,1-.2.2h0v.1a.22.22,0,0,1-.2.2l-2.7.8H432l-.4-.3h0l-.4.6-.1.1-2.7.8Zm1.2-1.5-.5.8,1.9-.6.2-.3-.3-.3Zm-1.1-3V121l.5-.7v-2.2Zm3.7,2.7h0l2.1-.5-.5-.4-1.2.3Zm-.8-.7.2.2.3-.4v-2.2l-.2-.2-.3.4Zm2.9-1,.5.4V116l-.5.7Z"/><path class="cls-9" d="M431.1,115.08l-2.9.8,1-1.4,1.6-.5.6.5Zm1.4-1.6,1.4-.4,1,.8-2.6.8-.4-.3Zm2.6-4.4v4.6l-1-.8v-2.3Z"/><path class="cls-9" d="M428.3,116.18c-.1,0-.2,0-.2-.1a.19.19,0,0,1,0-.3l1-1.4.1-.1,1.6-.5h.2l.6.5h0l.6-.9.1-.1,1.4-.4h0v-2.5l1-1.4c.1-.1.3-.2.4-.1s.1.1.1.2v4.6a.22.22,0,0,1-.2.2h0v.1a.22.22,0,0,1-.2.2l-2.6.8H432l-.4-.3h0l-.4.5a.1.1,0,0,1-.1.1l-2.8.9Zm1.2-1.5-.5.7,2-.6.2-.3-.3-.3Zm2.8-.3h0l2.1-.5-.5-.4-1.1.3Zm2.1-1.7.5.4v-3.2l-.5.7Z"/><path class="cls-9" d="M430.9,108.58l-1.5.5-1-.8,2.8-.8.4.3Zm1.3-1.6,2.8-.8-1,1.4-1.6.5-.6-.5Z"/><path class="cls-9" d="M429.3,109.28c-.1,0-.1,0-.2-.1l-1-.8a.37.37,0,0,1-.1-.3.22.22,0,0,1,.2-.2l2.8-.8c.1,0,.2,0,.2.1l.4.3h0l.4-.5.1-.1,2.8-.8a.37.37,0,0,1,.3.1.19.19,0,0,1,0,.3l-1,1.4-.1.1-1.6.5h-.2l-.6-.5h0l-.6.9-.1.1-1.7.3Zm-.4-1,.5.4,1.3-.4.4-.6-.1-.1Zm3.3-.8.3.3,1.3-.4.5-.7-2,.6Z"/><path class="cls-9" d="M431.7,101.08l.5.4v3.4l-.5.7-.5-.4v-3.4Z"/><path class="cls-9" d="M431.7,105.78c-.1,0-.1,0-.2-.1l-.5-.4c-.1,0-.1-.1-.1-.2v-3.6l.5-.7c0-.1.1-.1.2-.1h.2l.5.4c.1.1.1.1.1.2v3.6l-.5.7c-.1.1-.1.2-.2.2Zm-.3-.8.2.1.3-.4v-3.2l-.2-.2-.3.4Z"/><path class="cls-9" d="M430.8,99.68l-1.4.4-1-.8,2.6-.8.4.3Zm1.4-1.5,2.6-.8-1,1.4-1.4.4-.6-.5Z"/><path class="cls-9" d="M429.5,100.28c-.1,0-.1,0-.2-.1l-1-.8a.37.37,0,0,1-.1-.3.22.22,0,0,1,.2-.2l2.6-.8h.2l.4.3h0l.4-.4a.1.1,0,0,1,.1-.1l2.6-.8c.1,0,.3,0,.3.2v.2l-1,1.4-.1.1-1.4.4h-.2l-.6-.5h0l-.6.9-.1.1-1.5.4Zm-.5-1,.5.4,1.1-.3.4-.6-.1-.1Zm3.2-.6.3.3,1.1-.3.5-.7-1.8.5Z"/><path class="cls-9" d="M428.3,93.18l1,.8v2l-1,1.4Zm2.8,3.6-2.6.8,1-1.4,1.4-.4.6.5Zm-.3-3.5-1.4.4-1-.8,2.6-.7.4.3Zm1.4-1.4,2.6-.7-1,1.4-1.3.4-.6-.5Zm.2,3.4,1.4-.4,1,.8-2.6.7-.4-.3Zm2.5-4v4.2l-1-.8v-2Z"/><path class="cls-9" d="M428.5,97.78c-.1,0-.2,0-.2-.1h0c-.1,0-.2-.1-.2-.3v-4.3a.35.35,0,0,1,.1-.2h0a.22.22,0,0,1,.2-.2L431,92h.2l.4.3h0l.4-.5a.1.1,0,0,1,.1-.1l2.6-.7a.37.37,0,0,1,.3.1h0a.22.22,0,0,1,.2.2v4.2a.35.35,0,0,1-.1.2h0v.1a.22.22,0,0,1-.2.2l-2.6.7h-.2l-.3-.3h0l-.4.5-.1.1-2.8.8Zm1.1-1.4-.5.7,1.8-.5.2-.2-.3-.2Zm-1-2.7v2.8l.5-.6v-1.8Zm3.6,2.4h0l2.1-.5-.5-.4-1.1.3Zm-1.4-.6c.1,0,.1,0,.2.1l.6.5h0l.6-.9a.1.1,0,0,1,.1-.1l1.3-.4h0v-1.9l-1.2.3h-.2l-.6-.5h0l-.6.9-.1.1-1.3.4v1.9l1.2-.4Zm3.4-1,.5.4v-2.8l-.4.6ZM429,93l.5.4,1.1-.3.4-.6h0Zm3.1-.7.3.2,1.1-.3.5-.7-1.7.5Z"/><path class="cls-9" d="M430.4,89.28l-2.1-.8-.4-1.4,3.2,1.1.1.5Zm1.7-.7,3.2,1.1-1.3.8-2.1-.8-.2-.9Z"/><path class="cls-9" d="M434,90.78h0l-2.2-.8a.22.22,0,0,1-.2-.2l-.2-.8-.8.5h-.2l-2.2-.8a.22.22,0,0,1-.2-.2l-.4-1.4a.35.35,0,0,1,.4-.4l3.2,1.2c.1,0,.1.1.2.2l.1.4.5-.3h.2l3.2,1.1c.1,0,.2.2.2.3a.1.1,0,0,1-.1.1l-1.4.8C434.1,90.78,434,90.78,434,90.78Zm-1.9-1.3,1.9.7.7-.4-2.5-.9-.2.1Zm-3.6-1.2,1.9.7.6-.3v-.2l-2.6-.9Z"/><path class="cls-9" d="M430.8,85l-1.3.4-1-.8,2.6-.7.4.3Zm1.3-1.4,2.5-.7-1,1.3-1.3.4-.6-.5Z"/><path class="cls-9" d="M429.5,85.68c-.1,0-.1,0-.2-.1l-1-.8a.37.37,0,0,1-.1-.3.22.22,0,0,1,.2-.2l2.6-.7c.1,0,.2,0,.2.1l.4.3h0l.4-.5a.1.1,0,0,1,.1-.1l2.5-.7a.37.37,0,0,1,.3.1.19.19,0,0,1,0,.3l-1,1.3a.1.1,0,0,1-.1.1l-1.3.4h-.2l-.6-.5h0l-.6.8-.1.1-1.5.4Zm-.5-1,.5.4,1.1-.3.4-.6h0Zm3.1-.7.3.2,1.1-.3.5-.6-1.7.5Z"/><path class="cls-9" d="M428.3,78.68l1,.8v2l-1,1.3Zm2.5.2-1.3.4-1-.8,2.5-.7.4.3Zm.3,0,.5-.7.5.4v2.2l-.5.7-.5-.4Zm1.3,2,1.3-.4,1,.8-2.5.7-.4-.3Zm2.4-3.9v4l-1-.8v-2Z"/><path class="cls-9" d="M428.3,83.08h0c-.2,0-.3-.1-.3-.2v-4.1a.22.22,0,0,1,.2-.2h0a.22.22,0,0,1,.2-.2l2.5-.7h.2l.4.3.1.1h.1l.5.4c.1.1.1.1.1.2v2l1.3-.4v-2.2l1-1.3a.37.37,0,0,1,.3-.1c.1,0,.2.1.2.3v4.1a.35.35,0,0,1-.1.2h0v.1a.22.22,0,0,1-.2.2l-2.5.7c-.1,0-.2,0-.2-.1l-.4-.3-.1-.1h-.1l-.5-.4c-.1,0-.1-.1-.1-.2v-2l-1.3.4v2.2l-1,1.3C428.4,83,428.4,83.08,428.3,83.08Zm.2-3.8V82l.5-.6v-1.8Zm3.6,2.3h0l2-.5-.5-.4-1.1.3Zm-.7-.6.2.1.3-.4v-2l-.2-.1-.3.4Zm2.7-1,.4.3v-2.7l-.4.6Zm-5.1-1.4.5.4,1.1-.3.4-.5h-.1Z"/><path class="cls-18" d="M426.6,133.08l-5.2-10.4-.3-.6-3.3-6.7,5.1-2.1,2,3.1,8.7,13.6a8.64,8.64,0,0,1-1,1.6C431,133.88,429,134.08,426.6,133.08Z"/><path class="cls-19" d="M424.9,116.38l-2-3.1-5.1,2.1.1.3,3.9-1.6,2,3.1,8.7,13.5a8.64,8.64,0,0,1-1,1.6,6.47,6.47,0,0,1-.8.9,6.14,6.14,0,0,0,1.9-1.7,14,14,0,0,0,1-1.6Z"/><circle class="cls-20" cx="409.8" cy="93.88" r="24.8"/><circle class="cls-21" cx="407.8" cy="94.08" r="24.8"/><circle class="cls-14" cx="407.76" cy="94.1" r="20.3" transform="translate(112.91 391.06) rotate(-58.2)"/><path class="cls-22" d="M418.2,76.68a21.16,21.16,0,0,0-2.1-1.1,50.92,50.92,0,0,1-3.2,38.1,20.32,20.32,0,0,0,5.3-37Z"/><path class="cls-23" d="M387.5,95.38h0a21.08,21.08,0,0,0,9.2,16.1,20.12,20.12,0,0,0,27.9-5.5,2.19,2.19,0,0,1,.3-.5,21.09,21.09,0,0,0-5.9-28.9,19.94,19.94,0,0,0-16.1-2.8,20.34,20.34,0,0,0-12.1,8.8A21.22,21.22,0,0,0,387.5,95.38Zm16.3-20.5a18.71,18.71,0,0,1,15.1,2.6,19.82,19.82,0,0,1,5.5,27.1,18.69,18.69,0,0,1-25.9,5.9,1.38,1.38,0,0,1-.4-.3,19.68,19.68,0,0,1-8.6-15h0a20,20,0,0,1,3.1-12.1A18.71,18.71,0,0,1,403.8,74.88Z"/><path class="cls-24" d="M424.7,104.18a19.9,19.9,0,1,1,2.6-12.3h0A19.57,19.57,0,0,1,424.7,104.18Z"/><path class="cls-25" d="M413.4,79.08a2.05,2.05,0,0,1-2.7.7,1.94,1.94,0,0,1-.7-2.7,2.05,2.05,0,0,1,2.7-.7h0A1.9,1.9,0,0,1,413.4,79.08Z"/><path class="cls-25" d="M410.1,111.78c0,.6-1,1-2.1,1s-2-.6-2-1.2,1-1,2.1-1S410.1,111.18,410.1,111.78Z"/><path class="cls-26" d="M402.4,69.88l1.2,3.1a21.24,21.24,0,0,1,16.6,3.1l1.7-2.4A24.2,24.2,0,0,0,402.4,69.88Z"/><path class="cls-26" d="M400.9,73.78l-1.5-3a23.92,23.92,0,0,0-4.3,2l2.3,2.7A28.08,28.08,0,0,1,400.9,73.78Z"/><path class="cls-25" d="M395.7,111.58s2.9,1.2,3.5,2A6.49,6.49,0,0,1,395.7,111.58Z"/><ellipse cx="399.99" cy="94.27" rx="6.2" ry="10.9" transform="translate(-7.62 41.99) rotate(-5.95)"/><path class="cls-2" d="M451,113c.6-3-3.9-6.3-7.2-3,0,0-5.6,11.7-13.8,11.9a3.36,3.36,0,0,0-3.8-.7c-2.2,1-5.6.7-4.4,5.2s10,6.2,18.2-.3S450.5,115.38,451,113Z"/><ellipse class="cls-27" cx="419.45" cy="145.9" rx="1.2" ry="1.1" transform="translate(259.22 560.09) rotate(-88.03)"/><path class="cls-9" d="M419.7,144.78a1.11,1.11,0,0,1,.9,1.2,1.19,1.19,0,0,1-1,1.2,1.16,1.16,0,0,1-.8-1.2A1.2,1.2,0,0,1,419.7,144.78Z"/><ellipse class="cls-27" cx="417.98" cy="142.05" rx="1.2" ry="1.1" transform="translate(261.65 554.9) rotate(-88.03)"/><path class="cls-9" d="M418.2,140.88a1.15,1.15,0,0,1,.9,1.5,1.18,1.18,0,0,1-.9.9,1.3,1.3,0,0,1,0-2.4Z"/><ellipse class="cls-27" cx="415.16" cy="144.66" rx="1.2" ry="1.1" transform="translate(256.31 554.6) rotate(-88.03)"/><path class="cls-9" d="M415.4,143.48a1.26,1.26,0,1,1-.8,1.6c0-.1-.1-.3-.1-.4A1.26,1.26,0,0,1,415.4,143.48Z"/><path class="cls-28" d="M421.5,147.28c-.2-1.2-.5-2.5-.8-3.7a20.63,20.63,0,0,0-1.2-3.5,3.51,3.51,0,0,0-.5-.8,4.35,4.35,0,0,0-.7-.6,1.41,1.41,0,0,0-.9.1,5.94,5.94,0,0,0-.8.4,5.26,5.26,0,0,0-1.4,1.2c-.4.5-.8.9-1.2,1.4a8.64,8.64,0,0,0-1,1.6,3,3,0,0,0-.4.8,2.77,2.77,0,0,0-.1.9,2.92,2.92,0,0,0,.2.9,1.79,1.79,0,0,0,.5.7,5.07,5.07,0,0,0,1.6.9,11.08,11.08,0,0,0,3.6.8,12.1,12.1,0,0,0,1.9-.1,1.61,1.61,0,0,0,.9-.3c.1-.1.3-.2.3-.3Zm0,0a.9.9,0,0,1-.1.5,1.38,1.38,0,0,1-.4.3,3.18,3.18,0,0,1-.9.3,12.25,12.25,0,0,1-1.9.2,9.37,9.37,0,0,1-3.7-.7,5.56,5.56,0,0,1-1.7-.9,1.56,1.56,0,0,1-.6-.8,2.6,2.6,0,0,1,0-2c.1-.3.3-.6.4-.9a8.28,8.28,0,0,1,1.1-1.5,13.26,13.26,0,0,1,2.7-2.6c.3-.2.5-.3.8-.5a1.73,1.73,0,0,1,1-.1,1.56,1.56,0,0,1,.8.6,3.51,3.51,0,0,1,.5.8,21.72,21.72,0,0,1,1.2,3.6c.1.6.3,1.2.4,1.9s.3,1.2.4,1.8Z"/><path class="cls-28" d="M420.1,141.48s-.7-2.2-2-2.1-4.8,3.9-5.1,5.2a2,2,0,0,0,1.4,2.3,10.22,10.22,0,0,0,7.1.4s.2.9-1.7,1.1a12.17,12.17,0,0,1-3.3-.1s-3.3-.6-4-1.9a2.19,2.19,0,0,1-.3-1.9,9.41,9.41,0,0,1,1.2-2.2c.7-.9,2.7-3.3,4-3.5s1.7.7,2,1.4A2.39,2.39,0,0,1,420.1,141.48Z"/><path class="cls-29" d="M337.7,95.28l-4.9-.1h-3L242.5,94h0l-78.3-1.1a4.87,4.87,0,0,0,.1,1.2h-.8c-.3,0-.3-.1-.5.3-.2.7-.4,2.2-.9,2.1-.1,0-.3-.1-.4,0a2.49,2.49,0,0,0-.1.8c0,.2.1.5.1.7s-.1.3-.1.5a1.39,1.39,0,0,0-1.1,0,2.77,2.77,0,0,0,.1.9c.1.1.1.2.2.4s0,.2.1.2a.76.76,0,0,0,.2.5c.2.2.4,0,.6,0a2.74,2.74,0,0,0,.2,1.3c.2.1.3.3.5.4a1.54,1.54,0,0,1,.4.6,7.49,7.49,0,0,1,.4,1.6c.1.8-.3,1.3-.3,2.2,0,.2.1.3.1.5a3.75,3.75,0,0,1,.1,1.1c0,.3.1.8.1,1.1a.37.37,0,0,1-.3.1c-.1.1-.2.1-.3.2a.37.37,0,0,0-.3.1c-.1.1-.1.3-.2.6a7.72,7.72,0,0,1-.2,1.5,1.42,1.42,0,0,1-.2.6c-.1.1-.3.1-.4.2a1.57,1.57,0,0,0-.4,1.3c.1,0,.2-.1.3,0s.1.4.2.6a1.08,1.08,0,0,1,.1.6c0,.3-.3.3-.3.7a.31.31,0,0,1,.1.2c0,.1.1.2.1.4a.76.76,0,0,0,.2.5c.3.7,1,.4,1,1.6a2.92,2.92,0,0,1-.2.9,2.29,2.29,0,0,0-.1,1.4c.1.3.1.7.2,1a5.7,5.7,0,0,1-.1,1.3c-.1.4-.1.6-.2.7a1,1,0,0,0-.4.5v.7c0,.2-.1.2,0,.4a1.76,1.76,0,0,0-.4.5l.2,2.7c.1.3.1.6.2.7s.1.4.2.6a1.48,1.48,0,0,1,.1.7c0,.3.1.1.1.2s.1.9.3.9v-.3a3,3,0,0,0,.2,1.3c.1.2.3.3.4.5a3.4,3.4,0,0,1,.2,1.4,3.08,3.08,0,0,0,.3,1.3c.1.2.2.3.2.5s.1.4.1.5c.1.3.3.5.4.8a7.84,7.84,0,0,1,.2,1.4,3.4,3.4,0,0,1,.1,1l121.2,1.7h0l47,.7h5.4c0-.3-.1-.7-.1-1a5.9,5.9,0,0,0-.2-1.4,3,3,0,0,1-.4-.8,4.33,4.33,0,0,0-.1-.5c-.1-.2-.1-.3-.2-.5a5,5,0,0,1-.3-1.3,5.9,5.9,0,0,0-.2-1.4c-.1-.2-.3-.2-.4-.5a5.85,5.85,0,0,1-.2-1.3v.3c-.2,0-.2-.7-.3-.9s-.1-.1-.1-.2a2.25,2.25,0,0,0-.1-.7,4.17,4.17,0,0,0-.2-.6c-.1-.2-.1-.5-.2-.7l-.2-2.7a2.18,2.18,0,0,1,.4-.5c-.1-.2,0-.2,0-.4v-.7a.7.7,0,0,1,.4-.5c.2-.1.2-.3.2-.7a5.28,5.28,0,0,0,.1-1.3,3.55,3.55,0,0,0-.2-1,3.21,3.21,0,0,1,.1-1.4,2.92,2.92,0,0,0,.2-.9c0-1.2-.7-.9-1-1.6-.1-.2-.1-.4-.2-.5a.76.76,0,0,0-.1-.4.35.35,0,0,0-.1-.2c-.1-.4.2-.4.3-.7s-.1-.4-.1-.6,0-.5-.2-.6-.2,0-.3,0a1.66,1.66,0,0,1,.5-1.3c.1-.1.3-.1.4-.2a1.42,1.42,0,0,0,.2-.6,7.72,7.72,0,0,0,.2-1.5c0-.3,0-.5.2-.6s.2,0,.3-.1.2-.2.3-.2a.37.37,0,0,0,.3-.1,4.1,4.1,0,0,0-.1-1.1c0-.4-.1-.7-.1-1.1,0-.2-.1-.3-.1-.5-.1-.8.3-1.4.3-2.2a9.36,9.36,0,0,0-.4-1.6c-.1-.4-.1-.4-.4-.6a1,1,0,0,1-.5-.4,2,2,0,0,1-.2-1.3c-.2-.1-.4.1-.6,0s-.2-.3-.2-.5v-.2c-.1-.1-.1-.2-.2-.4a2.77,2.77,0,0,1-.1-.9,1.4,1.4,0,0,1,1.1,0c0-.2.1-.3.1-.5a1.7,1.7,0,0,0-.1-.7,2,2,0,0,1,.1-.8c.1-.1.3,0,.4,0,.5,0,.7-1.4.9-2.1.2-.4.2-.3.5-.3h.8A1.69,1.69,0,0,1,337.7,95.28Z"/><g class="cls-1"><path class="cls-30" d="M192,117.78a8.39,8.39,0,0,1-.8,3.2,6.42,6.42,0,0,1-1.8,2.5,8.54,8.54,0,0,1-2.8,1.6,11.22,11.22,0,0,1-3.8.6,9.35,9.35,0,0,1-3.9-.8,8.94,8.94,0,0,1-3-2.2,10.3,10.3,0,0,1-1.9-3.4,15.81,15.81,0,0,1-.6-4.5v-1.5a12.51,12.51,0,0,1,.7-4.5,13.07,13.07,0,0,1,1.9-3.5,8.35,8.35,0,0,1,3-2.2,10.06,10.06,0,0,1,3.9-.8,11.22,11.22,0,0,1,3.8.6,8.75,8.75,0,0,1,2.8,1.7,7.25,7.25,0,0,1,1.8,2.5,11.56,11.56,0,0,1,.8,3.2h-4.7a8,8,0,0,0-.4-1.8,3.3,3.3,0,0,0-2.1-2.1,5.62,5.62,0,0,0-2-.3,3.9,3.9,0,0,0-3.5,1.7,9.44,9.44,0,0,0-1.2,5.3v1.5a14.16,14.16,0,0,0,.3,3.1,6.31,6.31,0,0,0,.8,2.2,3.48,3.48,0,0,0,1.4,1.3,4.64,4.64,0,0,0,2.1.4,10.07,10.07,0,0,0,1.9-.2,3.3,3.3,0,0,0,2.1-2.1,8,8,0,0,0,.4-1.8H192Z"/><path class="cls-30" d="M199.2,110.28a6.15,6.15,0,0,1,2-1.6,5.42,5.42,0,0,1,2.5-.6,5.87,5.87,0,0,1,2.3.4,4.18,4.18,0,0,1,1.8,1.1,4.33,4.33,0,0,1,1.1,2,8.72,8.72,0,0,1,.4,3v10.6h-4.5v-10.7a5.9,5.9,0,0,0-.2-1.4,1.87,1.87,0,0,0-1.4-1.4,4.1,4.1,0,0,0-1.1-.1,3.42,3.42,0,0,0-1.8.4,2.91,2.91,0,0,0-1.1,1.1v12h-4.5v-24h4.5Z"/><path class="cls-30" d="M222.5,125.38a5.27,5.27,0,0,1-.5-1.5,7.63,7.63,0,0,1-1.7,1.3,4.87,4.87,0,0,1-2.5.5,5.87,5.87,0,0,1-2.3-.4,7.68,7.68,0,0,1-1.8-1,4.81,4.81,0,0,1-1.2-1.6,4.48,4.48,0,0,1-.4-2,6,6,0,0,1,.5-2.4,3.53,3.53,0,0,1,1.5-1.7,8.81,8.81,0,0,1,2.4-1.1,16.7,16.7,0,0,1,3.4-.4h2v-1a2.88,2.88,0,0,0-.6-1.9,2.23,2.23,0,0,0-1.9-.7,3,3,0,0,0-1.8.5,2,2,0,0,0-.6,1.5h-4.5a5.37,5.37,0,0,1,.5-2.1,4.57,4.57,0,0,1,1.4-1.7,7.14,7.14,0,0,1,2.3-1.2,9.48,9.48,0,0,1,3-.4,7.66,7.66,0,0,1,2.7.4,5.7,5.7,0,0,1,2.2,1.1,4.5,4.5,0,0,1,1.4,1.9,6.69,6.69,0,0,1,.5,2.6v8.5c0,.4.1.7.1,1s.1.6.2.8.2.5.3.7v.3Zm-3.8-3.2a4.1,4.1,0,0,0,1.1-.1,3.55,3.55,0,0,0,.9-.4,4.23,4.23,0,0,0,.7-.5c.2-.2.3-.4.5-.6v-2.9H220a6.05,6.05,0,0,0-1.5.2,3.7,3.7,0,0,0-1.1.5,1.56,1.56,0,0,0-.6.8,3.55,3.55,0,0,0-.2,1,1.82,1.82,0,0,0,.6,1.4C217.5,122.08,218,122.18,218.7,122.18Z"/><path class="cls-30" d="M245,117.08a12.2,12.2,0,0,1-.4,3.4,6.81,6.81,0,0,1-1.3,2.7,5.2,5.2,0,0,1-2.1,1.8,6.81,6.81,0,0,1-2.8.7,6,6,0,0,1-2.4-.5,4.63,4.63,0,0,1-1.8-1.3v8h-4.5v-23.4h4.2l.2,1.7a6.55,6.55,0,0,1,1.8-1.5,6.18,6.18,0,0,1,2.5-.5,6.09,6.09,0,0,1,2.8.6,6.84,6.84,0,0,1,2.1,1.7,7.54,7.54,0,0,1,1.3,2.7,12.94,12.94,0,0,1,.4,3.5Zm-4.5-.3a11.08,11.08,0,0,0-.2-1.9,4.42,4.42,0,0,0-.6-1.6,2.4,2.4,0,0,0-1-1,3.31,3.31,0,0,0-1.5-.4,3.42,3.42,0,0,0-1.8.4,3.18,3.18,0,0,0-1.1,1.2v6.9a3.18,3.18,0,0,0,1.1,1.2,3.58,3.58,0,0,0,1.9.4,2.41,2.41,0,0,0,1.5-.4,3.57,3.57,0,0,0,1-1.1,7.58,7.58,0,0,0,.6-1.6,5.84,5.84,0,0,0,.2-1.9v-.2Z"/><path class="cls-30" d="M253.2,104.28v4.2h2.9v3.3h-2.9v8.4a2.48,2.48,0,0,0,.1.9,1.2,1.2,0,0,0,.8.8c.2,0,.5.1.8.1h.7a1.27,1.27,0,0,0,.6-.1v3.4l-1.2.3a6.62,6.62,0,0,1-1.5.1,6.45,6.45,0,0,1-2-.3,3.77,3.77,0,0,1-1.5-.9,5.6,5.6,0,0,1-1-1.5,7.55,7.55,0,0,1-.3-2.3v-8.9h-2.5v-3.3h2.5v-4.2Z"/><path class="cls-30" d="M266.4,125.68a9.51,9.51,0,0,1-3.5-.6,7.58,7.58,0,0,1-4.3-4.3,8.66,8.66,0,0,1-.6-3.2V117a9.51,9.51,0,0,1,.6-3.5,9.7,9.7,0,0,1,1.6-2.8,6.42,6.42,0,0,1,2.5-1.8,8.81,8.81,0,0,1,3.3-.6,7.94,7.94,0,0,1,3.2.6,6.58,6.58,0,0,1,2.3,1.7,7.22,7.22,0,0,1,1.4,2.6,12.13,12.13,0,0,1,.5,3.4v1.9H262.6a5.41,5.41,0,0,0,.4,1.5,3.13,3.13,0,0,0,.9,1.1,2.92,2.92,0,0,0,1.2.7,4.15,4.15,0,0,0,1.6.3,5.93,5.93,0,0,0,2.3-.5,4.89,4.89,0,0,0,1.8-1.4l2.2,2.5a5.24,5.24,0,0,1-1,1.1,7.1,7.1,0,0,1-1.4,1,10.66,10.66,0,0,1-1.9.7A8.58,8.58,0,0,1,266.4,125.68Zm-.5-13.9a2.77,2.77,0,0,0-1.3.3,3.59,3.59,0,0,0-1,.7,2.38,2.38,0,0,0-.6,1.1,5.73,5.73,0,0,0-.4,1.4h6.3V115a4.3,4.3,0,0,0-.2-1.2,2.55,2.55,0,0,0-1.4-1.7A3.19,3.19,0,0,0,265.9,111.78Z"/><path class="cls-30" d="M285.4,112.68c-.2,0-.5-.1-.8-.1h-.8a4.14,4.14,0,0,0-2.1.4,3,3,0,0,0-1.2,1.3v11.1H276v-16.9h4.3l.1,2a5.23,5.23,0,0,1,1.6-1.7,4,4,0,0,1,2.2-.6,2.49,2.49,0,0,1,.8.1,3.54,3.54,0,0,1,.6.1Z"/><path class="cls-30" d="M308.7,116.78h2.6v3.6h-2.6v4.9h-4.5v-4.9h-9.3l-.2-2.8,9.5-15h4.6v14.2Zm-9.5,0h5v-8l-.3.5Z"/></g><path class="cls-31" d="M499.2,136.38h-11l-481.5.2v1.3H5.6c-.4,0-.4-.1-.7.4-.4.8-.7,2.4-1.5,2.4-.1,0-.4-.1-.5,0a1.49,1.49,0,0,0-.2.9,2.2,2.2,0,0,1,.1.8c0,.2-.1.3-.2.5a2.21,2.21,0,0,0-1.6,0,1.7,1.7,0,0,0,0,1,.52.52,0,0,1,.2.4v.3c0,.2.2.4.3.6.3.2.6,0,.9.1,0,.5-.1,1.1.2,1.4a1.61,1.61,0,0,0,.7.4c.3.2.3.2.5.6a8.45,8.45,0,0,1,.5,1.7c0,.9-.6,1.5-.6,2.4a4.33,4.33,0,0,0,.1.5,2,2,0,0,1,.2,1.1v1.2a.6.6,0,0,1-.4.1c-.2.1-.3.1-.5.2a.76.76,0,0,0-.4.1c-.3.2-.2.4-.3.7a7.49,7.49,0,0,1-.5,1.6l-.3.6c-.2.1-.5.1-.6.3a2.1,2.1,0,0,0-.7,1.4c.1,0,.3-.1.4,0a1.17,1.17,0,0,1,.2.7c0,.3.2.4.1.6s-.5.4-.4.8c.1.1.1.2.2.3l.1.4a1.42,1.42,0,0,0,.2.6c.4.7,1.3.4,1.3,1.7a2.93,2.93,0,0,1-.3,1,2.32,2.32,0,0,0-.3,1.6,4.48,4.48,0,0,1,.1,1.1,5.9,5.9,0,0,1-.2,1.4c-.1.4-.1.6-.4.8s-.4.2-.6.5a2.2,2.2,0,0,0-.1.8c0,.2-.2.3,0,.5-.2.2-.5.4-.6.6v3a3.09,3.09,0,0,1,.2.8c.1.2.1.5.2.7s0,.5.1.7.2.1.2.3.1,1,.4,1a.37.37,0,0,0,.1-.3,3.21,3.21,0,0,0,.1,1.4c.1.2.4.3.5.5.3.4.2,1.1.2,1.6a3.19,3.19,0,0,0,.3,1.4c.1.2.2.3.3.5a1.27,1.27,0,0,0,.1.6c.1.4.4.5.5.9a8.75,8.75,0,0,1,.2,1.6,4.1,4.1,0,0,1,.1,1.1l485-.2h7.6c0-.4-.1-.7-.1-1.1a4.4,4.4,0,0,0-.2-1.6,2.62,2.62,0,0,1-.5-.9,1.27,1.27,0,0,1-.1-.6,2.19,2.19,0,0,0-.3-.5,3.19,3.19,0,0,1-.3-1.4,3,3,0,0,0-.2-1.6c-.1-.2-.4-.3-.5-.5a2.29,2.29,0,0,1-.1-1.4.37.37,0,0,1-.1.3c-.2,0-.3-.8-.4-1a.77.77,0,0,0-.2-.3c-.1-.1,0-.5-.1-.7s-.1-.5-.2-.7a3.09,3.09,0,0,0-.2-.8v-3l.6-.6c-.2-.2,0-.3,0-.5a2.2,2.2,0,0,1,.1-.8c.1-.4.4-.4.6-.5s.3-.4.4-.8a6.75,6.75,0,0,0,.2-1.4c0-.4-.1-.8-.1-1.1a2.22,2.22,0,0,1,.3-1.6,1.69,1.69,0,0,0,.3-1c0-1.3-.9-1-1.3-1.7-.1-.2-.1-.4-.2-.6a.6.6,0,0,0-.1-.4c0-.1-.1-.2-.2-.3-.1-.4.3-.5.4-.8s-.1-.4-.1-.6,0-.6-.2-.7-.3,0-.4,0a1.75,1.75,0,0,1,.7-1.4c.2-.1.5-.1.6-.3a.86.86,0,0,0,.3-.6,9.83,9.83,0,0,0,.5-1.6c.1-.4,0-.6.3-.7.1-.1.2,0,.4-.1s.3-.2.5-.2a.6.6,0,0,0,.4-.1v-1.2a4.87,4.87,0,0,0-.1-1.2,1.09,1.09,0,0,1-.1-.5c0-.9.6-1.5.6-2.4a4.8,4.8,0,0,0-.5-1.7c-.1-.4-.2-.4-.5-.6s-.5-.3-.7-.4a2.2,2.2,0,0,1-.2-1.4c-.3-.1-.6.1-.9,0a.86.86,0,0,1-.3-.6v-.2c-.1-.1-.1-.3-.2-.4a1.7,1.7,0,0,1,0-1,2,2,0,0,1,1.5,0c0-.2.1-.3.2-.5a2.2,2.2,0,0,0-.1-.8,1.34,1.34,0,0,1,.2-.9c.1-.1.4,0,.5,0,.7,0,1-1.6,1.4-2.4.3-.5.3-.4.7-.4a2.05,2.05,0,0,0,1.1,0Z"/><g class="cls-1"><path class="cls-32" d="M21.7,175v-28.8h8.9a13.17,13.17,0,0,1,5.3,1,13.43,13.43,0,0,1,4.2,2.8,12.06,12.06,0,0,1,2.7,4.3,16.88,16.88,0,0,1,1,5.6v1.3a14.33,14.33,0,0,1-1,5.6,11.24,11.24,0,0,1-2.7,4.3,13.11,13.11,0,0,1-9.6,3.8H21.7Zm5.9-24v19.3h2.9a6.66,6.66,0,0,0,5.4-2.3,10.78,10.78,0,0,0,1.8-6.6v-1.3c0-2.9-.6-5.2-1.8-6.7a6.46,6.46,0,0,0-5.3-2.3h-3Z"/><path class="cls-32" d="M54.3,175H48.4v-28.8h5.9Z"/><path class="cls-32" d="M74.8,167.38a5.9,5.9,0,0,0-.2-1.4,2.1,2.1,0,0,0-.8-1.1,8.47,8.47,0,0,0-1.7-1,21.73,21.73,0,0,0-2.8-1,31.75,31.75,0,0,1-3.7-1.4,16.07,16.07,0,0,1-3.1-1.9,7.21,7.21,0,0,1-2.1-2.5,7,7,0,0,1-.8-3.3,7.31,7.31,0,0,1,.8-3.3,7.51,7.51,0,0,1,2.2-2.5,10.71,10.71,0,0,1,3.4-1.6,14.42,14.42,0,0,1,4.3-.6,12.69,12.69,0,0,1,4.4.7,9.55,9.55,0,0,1,3.3,1.9,8.26,8.26,0,0,1,2.1,2.8,8.63,8.63,0,0,1,.8,3.6H75a4.67,4.67,0,0,0-.3-1.7,3,3,0,0,0-.9-1.3,3.77,3.77,0,0,0-1.5-.9,6.65,6.65,0,0,0-2.1-.3,5.62,5.62,0,0,0-2,.3,4.58,4.58,0,0,0-1.4.7,3.13,3.13,0,0,0-.9,1.1,2.77,2.77,0,0,0-.3,1.3,2.83,2.83,0,0,0,1.5,2.4,16.29,16.29,0,0,0,4.3,1.8,23.41,23.41,0,0,1,4.1,1.6,14.21,14.21,0,0,1,3,2,8.32,8.32,0,0,1,1.8,2.5,7.94,7.94,0,0,1,.6,3.2,7.39,7.39,0,0,1-.7,3.4,7.21,7.21,0,0,1-2.1,2.5,10.15,10.15,0,0,1-3.3,1.6,14.51,14.51,0,0,1-4.3.5,28.25,28.25,0,0,1-2.9-.2,7.73,7.73,0,0,1-2.7-.8,9.21,9.21,0,0,1-2.4-1.3,8.13,8.13,0,0,1-1.9-1.8,9.21,9.21,0,0,1-1.3-2.4,9.43,9.43,0,0,1-.5-3h6a4.81,4.81,0,0,0,.4,2.2,4.43,4.43,0,0,0,1.2,1.5,3.7,3.7,0,0,0,1.8.8,8.52,8.52,0,0,0,2.3.3,11.24,11.24,0,0,0,2-.2,4.58,4.58,0,0,0,1.4-.7,2.54,2.54,0,0,0,.8-1C74.7,168.28,74.8,167.88,74.8,167.38Z"/><path class="cls-32" d="M107.4,165.38a10.25,10.25,0,0,1-1,4,10.45,10.45,0,0,1-2.3,3.2,10.68,10.68,0,0,1-3.6,2.1,14.26,14.26,0,0,1-4.8.7,11.76,11.76,0,0,1-5-1,9.34,9.34,0,0,1-3.7-2.8,14.27,14.27,0,0,1-2.4-4.4,17.32,17.32,0,0,1-.8-5.8v-1.9a18.08,18.08,0,0,1,.9-5.8,14.27,14.27,0,0,1,2.4-4.4,10.75,10.75,0,0,1,3.8-2.8,13.1,13.1,0,0,1,5-1,14.19,14.19,0,0,1,4.8.8,9.35,9.35,0,0,1,3.5,2.1,10.45,10.45,0,0,1,2.3,3.2,13,13,0,0,1,1,4.1h-5.9a13.66,13.66,0,0,0-.4-2.3,4.78,4.78,0,0,0-1-1.7,3.23,3.23,0,0,0-1.7-1,9,9,0,0,0-2.5-.3,5,5,0,0,0-4.5,2.2c-1,1.5-1.5,3.7-1.5,6.8v1.9a22.09,22.09,0,0,0,.3,3.9,9.13,9.13,0,0,0,1,2.8,4.85,4.85,0,0,0,1.8,1.7,5.4,5.4,0,0,0,2.7.6,8.75,8.75,0,0,0,2.4-.3,3.67,3.67,0,0,0,1.7-1,4.57,4.57,0,0,0,1.1-1.6,7.13,7.13,0,0,0,.5-2.3h5.9Z"/><path class="cls-32" d="M135,161.18a17.84,17.84,0,0,1-.9,5.9,11.79,11.79,0,0,1-2.5,4.4,12.14,12.14,0,0,1-3.9,2.8,13,13,0,0,1-10,0,12.14,12.14,0,0,1-3.9-2.8,12.64,12.64,0,0,1-2.5-4.4,17.84,17.84,0,0,1-.9-5.9V160a17.84,17.84,0,0,1,.9-5.9,13.11,13.11,0,0,1,2.5-4.5,10.8,10.8,0,0,1,3.9-2.8,13,13,0,0,1,10,0,11.37,11.37,0,0,1,6.4,7.3,18.27,18.27,0,0,1,.9,5.9Zm-6-1.3c0-3-.5-5.3-1.6-6.9a5.23,5.23,0,0,0-4.6-2.4,5.12,5.12,0,0,0-4.6,2.4c-1.1,1.6-1.6,3.9-1.6,6.9v1.3a16.43,16.43,0,0,0,.4,4,9.74,9.74,0,0,0,1.2,2.9,4.94,4.94,0,0,0,2,1.8,6,6,0,0,0,2.7.6,5.23,5.23,0,0,0,4.6-2.4c1.1-1.6,1.6-3.9,1.6-6.9v-1.3Z"/><path class="cls-32" d="M150,167.88l6.5-21.7h6.6l-10,28.8h-6.2l-10-28.8h6.6Z"/><path class="cls-32" d="M183.2,162.48H171.8v7.7h13.4V175H165.9v-28.8h19.3V151H171.9v6.9h11.4v4.6Z"/><path class="cls-32" d="M199.3,164.38h-4.7V175h-5.9v-28.8h10.7a15.32,15.32,0,0,1,4.5.6,8.62,8.62,0,0,1,3.3,1.7,7.05,7.05,0,0,1,2.1,2.7,8.9,8.9,0,0,1,.7,3.8,7.89,7.89,0,0,1-.4,2.8,7.39,7.39,0,0,1-1,2.2,6.48,6.48,0,0,1-1.6,1.7,10.71,10.71,0,0,1-2.1,1.3l6.2,11.8v.3h-6.4Zm-4.7-4.8h4.8a5.62,5.62,0,0,0,2-.3,3.77,3.77,0,0,0,1.5-.9,3.81,3.81,0,0,0,.9-1.3,4.84,4.84,0,0,0,.3-1.8,4.22,4.22,0,0,0-1.2-3.2,4.89,4.89,0,0,0-3.6-1.2h-4.8v8.7Z"/><path class="cls-32" d="M220.9,175H215v-28.8h5.9Z"/><path class="cls-32" d="M249.8,175h-5.9l-11.6-19v19h-5.9v-28.8h5.9l11.6,19v-19h5.9Z"/><path class="cls-32" d="M277.8,171.38a10.42,10.42,0,0,1-3.6,2.6,20.23,20.23,0,0,1-3.2,1,17.62,17.62,0,0,1-4.2.4,13.64,13.64,0,0,1-5.1-.9,10.9,10.9,0,0,1-4-2.7,11.79,11.79,0,0,1-2.5-4.4,17.84,17.84,0,0,1-.9-5.9v-1.7a18.89,18.89,0,0,1,.9-6,14.27,14.27,0,0,1,2.4-4.4,9.45,9.45,0,0,1,3.8-2.7,13.11,13.11,0,0,1,5-.9,14.48,14.48,0,0,1,4.9.7,8.77,8.77,0,0,1,3.4,2,9,9,0,0,1,2.1,3,12.44,12.44,0,0,1,1,3.9H272a6.64,6.64,0,0,0-.6-2,5.6,5.6,0,0,0-1-1.5,6.24,6.24,0,0,0-1.6-1,7.55,7.55,0,0,0-2.3-.3,5.26,5.26,0,0,0-4.6,2.3c-1.1,1.5-1.6,3.8-1.6,6.8v1.7a12.11,12.11,0,0,0,1.7,6.9,5.94,5.94,0,0,0,5.1,2.3,11.48,11.48,0,0,0,1.9-.1c.5-.1,1-.2,1.4-.3a1.93,1.93,0,0,0,.9-.5c.2-.2.5-.3.6-.5v-5h-5.4v-4.4h11.3Z"/><path class="cls-32" d="M314.4,151h-8.8v24h-5.9V151H291v-4.8h23.5V151Z"/><path class="cls-32" d="M341.3,175h-5.9v-12.4H323.8V175h-5.9v-28.8h5.9v11.7h11.6v-11.7h5.9Z"/><path class="cls-32" d="M363.8,162.48H352.4v7.7h13.4V175H346.5v-28.8h19.3V151H352.5v6.9h11.4v4.6Z"/><path class="cls-32" d="M385.3,170.18H398V175H379.4v-28.8h5.9Z"/><path class="cls-32" d="M417.6,169.08H407.2l-2,5.9h-6.3l10.7-28.8h5.5L426,175h-6.3Zm-8.8-4.9H416l-3.6-10.8Z"/><path class="cls-32" d="M428.7,175v-28.8h10.1a20,20,0,0,1,4.5.5,9.54,9.54,0,0,1,3.4,1.5,7.21,7.21,0,0,1,2.1,2.5,7.82,7.82,0,0,1,.7,3.5,11.08,11.08,0,0,1-.2,1.9,3.81,3.81,0,0,1-.8,1.7,8.64,8.64,0,0,1-1.3,1.4,7.84,7.84,0,0,1-1.8,1.1,5.54,5.54,0,0,1,2.2,1,5.36,5.36,0,0,1,1.5,1.5,6.63,6.63,0,0,1,.9,1.9,8.21,8.21,0,0,1-2.4,8.3c-1.8,1.4-4.4,2.1-7.7,2.1H428.7Zm5.9-16.8H439a4.94,4.94,0,0,0,3.4-1,3.31,3.31,0,0,0,1.1-2.6,3.47,3.47,0,0,0-1.1-2.8,6,6,0,0,0-3.6-.9h-4.2v7.3Zm0,4.2v7.8h5.1a6,6,0,0,0,2-.3,4.68,4.68,0,0,0,1.4-.8,2.55,2.55,0,0,0,.8-1.2,4,4,0,0,0,.3-1.5,8.81,8.81,0,0,0-.2-1.7,3.29,3.29,0,0,0-.7-1.3,2.87,2.87,0,0,0-1.3-.8,5.41,5.41,0,0,0-1.9-.3h-5.5Z"/></g><path class="cls-29" d="M496,190.58c-1-.6-2.1-.7-2.7-1.7H3c-.3.2-.5.4-.8.6a2.29,2.29,0,0,0,.7,1c.2.2.5.3.7.5a4.19,4.19,0,0,1,.9,1.4,6,6,0,0,0,.9,1.3c.2.2.4.3.5.5s.2.4.4.5a6.47,6.47,0,0,0,.9.8,4.62,4.62,0,0,1,.9,1.5c.2.3.4.7.6,1l477.9.9H494a4.18,4.18,0,0,0,.4-1,8.43,8.43,0,0,0,.6-1.4c0-.3-.2-.4-.1-.8a.76.76,0,0,1,.2-.5v-.5a3.26,3.26,0,0,1,.4-1.3c.2-.5.6-1.1.5-1.4s-.2-.2-.3-.5A9.44,9.44,0,0,1,496,190.58Z"/><path class="cls-33" d="M505.2,99.08a5.21,5.21,0,0,1-5.2,1.1L481.4,94a5.41,5.41,0,0,1-3.6-4,16.46,16.46,0,0,1,13.1-19.4,16.14,16.14,0,0,1,4.9-.2l9.8-29.6,6.7,2.3-9.8,29.6a16.51,16.51,0,0,1,5.8,22.7,17.93,17.93,0,0,1-3.1,3.7Z"/><path class="cls-21" d="M507.9,82.18l-22.2-7.3a14.58,14.58,0,0,1,9.9-2.6l1.5.2,10.3-31.1,3.1,1-10.3,31.1,1.3.8A14.34,14.34,0,0,1,507.9,82.18Z"/><path class="cls-21" d="M502.1,39.28l.4-1.3a.67.67,0,0,1,.7-.4l8.9,2.9a.67.67,0,0,1,.4.7l-.4,1.3a.67.67,0,0,1-.7.4L502.5,40C502.2,39.88,502.1,39.48,502.1,39.28Z"/><polygon class="cls-33" points="499.1 60.08 498 63.48 491.6 50.78 493.9 49.68 499.1 60.08"/><path class="cls-32" d="M490.9,50.18l2.9-1.5a.37.37,0,0,1,.3.1l.2.4a.37.37,0,0,1-.1.3L491.3,51a.37.37,0,0,1-.3-.1l-.2-.4A.37.37,0,0,1,490.9,50.18Z"/><path class="cls-34" d="M503.9,97.68a3.35,3.35,0,0,1-3.3.7L482,92.18a3.56,3.56,0,0,1-2.3-2.6,14.31,14.31,0,0,1,.5-7.4,13.9,13.9,0,0,1,5.5-7.3l22.2,7.3a13.81,13.81,0,0,1,.4,7.8A14.63,14.63,0,0,1,503.9,97.68Z"/><path class="cls-35" d="M487.5,94l-5.5-1.8a3.56,3.56,0,0,1-2.3-2.6,14.31,14.31,0,0,1,.5-7.4,13.9,13.9,0,0,1,5.5-7.3l4.1,1.4c-.1,0-.7.5-.8.5a7.69,7.69,0,0,0-1.8,1.8,13.83,13.83,0,0,0-3.3,7.5C483.6,88.78,484.4,93,487.5,94Z"/><path class="cls-36" d="M506.5,88.58c-.5,2.5-1.9,4.2-3.1,4s-1-2.3-.4-4.8,1.2-4.4,2.4-4.2S507.1,86.18,506.5,88.58Z"/><path class="cls-36" d="M502.5,96a1,1,0,0,1-1.3-.4.9.9,0,0,1,.4-1.3h0a1,1,0,0,1,1.3.4A.88.88,0,0,1,502.5,96Z"/><path class="cls-32" d="M487.6,88.68v-.2a.19.19,0,0,1,.3-.1h0l1.8.6a.22.22,0,1,1-.2.4l-1.8-.6A.1.1,0,0,0,487.6,88.68Z"/><path class="cls-32" d="M489.1,84.18V84c0-.1.1-.2.3-.1h0l1.8.6a.19.19,0,0,1,.1.3h0c0,.1-.1.2-.3.1h0l-1.8-.6A.1.1,0,0,1,489.1,84.18Z"/><path class="cls-32" d="M490.6,79.68v-.2a.19.19,0,0,1,.3-.1l1.8.6a.22.22,0,1,1-.2.4l-1.8-.6A.1.1,0,0,1,490.6,79.68Z"/><path class="cls-32" d="M486.9,90.88v-.2a.19.19,0,0,1,.3-.1h0l3.6,1.2a.22.22,0,0,1-.2.4h0L487,91A.1.1,0,0,1,486.9,90.88Z"/><path class="cls-32" d="M488.4,86.38v-.2a.19.19,0,0,1,.3-.1l3.6,1.2a.19.19,0,0,1,.1.3c-.1.1-.2.2-.3.1l-3.6-1.2A.1.1,0,0,1,488.4,86.38Z"/><path class="cls-32" d="M489.9,82v-.2c0-.1.1-.2.3-.1h0l3.6,1.2a.22.22,0,0,1-.2.4h0l-3.6-1.2A.1.1,0,0,1,489.9,82Z"/><path class="cls-33" d="M325.2,15.18,356,.08a.84.84,0,0,1,1.1.4l.9,1.8a.84.84,0,0,1-.4,1.1l-30.8,15.1a.84.84,0,0,1-1.1-.4l-.9-1.8A.84.84,0,0,1,325.2,15.18Z"/><path class="cls-33" d="M328.6,17.58l27.3-13.4h0l10.5,21.4a5.21,5.21,0,0,1-2.4,7h0l-17.9,8.8a5.21,5.21,0,0,1-7-2.4h0l-10.5-21.4Z"/><path class="cls-21" d="M353.8,5.28l10.6,21.5a2.66,2.66,0,0,1-1.2,3.6l-18.2,9a2.66,2.66,0,0,1-3.6-1.2l-10.6-21.5Z"/><path class="cls-37" d="M348.4,37.68l-3.4,1.7a2.66,2.66,0,0,1-3.6-1.2l-7.7-15.6,3.5-1.7,7.7,15.6A2.63,2.63,0,0,0,348.4,37.68Z"/><path class="cls-38" d="M356.7,11.18l7.7,15.6a2.66,2.66,0,0,1-1.2,3.6l-14.7,7.2a2.66,2.66,0,0,1-3.6-1.2l-7.7-15.6Z"/><path class="cls-32" d="M345.4,32.48a.1.1,0,0,1-.1-.1.19.19,0,0,1,.1-.3l1.9-.9c.1,0,.3,0,.3.1a.19.19,0,0,1-.1.3l-1.9.9Z"/><path class="cls-32" d="M343.1,27.88c-.1-.1-.2-.2-.1-.3a.1.1,0,0,1,.1-.1l1.9-.9a.22.22,0,1,1,.2.4h0l-1.9.9Z"/><path class="cls-32" d="M340.8,23.18c-.1-.1-.2-.2-.1-.3a.1.1,0,0,1,.1-.1l1.9-.9c.1,0,.3,0,.3.1a.37.37,0,0,1-.1.3l-1.9.9C341,23.28,340.9,23.28,340.8,23.18Z"/><path class="cls-32" d="M346.5,34.78a.1.1,0,0,1-.1-.1.19.19,0,0,1,.1-.3l3.7-1.8a.22.22,0,1,1,.2.4h0l-3.7,1.8Z"/><path class="cls-32" d="M344.2,30.18a.1.1,0,0,1-.1-.1.19.19,0,0,1,.1-.3L348,28a.22.22,0,0,1,.2.4l-3.7,1.8Z"/><path class="cls-32" d="M342,25.48a.1.1,0,0,1-.1-.1.19.19,0,0,1,.1-.3l3.7-1.8a.22.22,0,0,1,.2.4h0l-3.7,1.8C342.1,25.58,342.1,25.58,342,25.48Z"/><path class="cls-39" d="M354,15.28h0a1.53,1.53,0,0,1,2.1.7l3.2,6.5a1.53,1.53,0,0,1-.7,2.1h0a1.53,1.53,0,0,1-2.1-.7l-3.2-6.5A1.53,1.53,0,0,1,354,15.28Z"/><path class="cls-39" d="M361.1,26.88a1.27,1.27,0,1,1-1.7-.6,1.32,1.32,0,0,1,1.7.6Z"/></g></g></g></g></g></svg>