<svg xmlns="http://www.w3.org/2000/svg" xmlns:xlink="http://www.w3.org/1999/xlink" viewBox="0 0 400.04 137.85"><defs><style>.cls-1{isolation:isolate;}.cls-2{fill:url(#Áåçûìÿííûé_ãðàäèåíò_102);}.cls-3{fill:#a67438;}.cls-15,.cls-17,.cls-18,.cls-19,.cls-20,.cls-21,.cls-22,.cls-23,.cls-24,.cls-25,.cls-26,.cls-27,.cls-28,.cls-29,.cls-3,.cls-30,.cls-31,.cls-32,.cls-33,.cls-34,.cls-35,.cls-36,.cls-37,.cls-38,.cls-4,.cls-40,.cls-41,.cls-42,.cls-43,.cls-44,.cls-45,.cls-46,.cls-47,.cls-48,.cls-5,.cls-6,.cls-7,.cls-8,.cls-9{fill-rule:evenodd;}.cls-4{fill:#a69589;}.cls-5{fill:#9a5c66;}.cls-6{fill:#aed9fe;}.cls-7{fill:#f18664;}.cls-8{fill:#a6b3cd;}.cls-9{fill:#e8706f;}.cls-10,.cls-15,.cls-16{fill:#6020c5;}.cls-11{fill:#704de8;}.cls-12{fill:#ffd400;}.cls-13{fill:#fff;}.cls-14{fill:#7b6fd1;}.cls-15,.cls-16{opacity:0.57;}.cls-17{fill:#ab275f;}.cls-18{fill:#ffa479;}.cls-19,.cls-22,.cls-24{fill:#9f2247;}.cls-19{opacity:0.23;}.cls-20{fill:#ffcf9d;}.cls-21{fill:#f9d1c7;}.cls-22{opacity:0.38;}.cls-23{fill:#ffcf92;}.cls-24{opacity:0.2;}.cls-25{fill:#ffe86d;}.cls-26{fill:#ffffac;}.cls-27{fill:#ffa654;}.cls-28{fill:#ea6a5f;}.cls-29{fill:#e25b38;}.cls-30{fill:#ffffe8;}.cls-31{fill:#a27897;}.cls-32{fill:#d1dbe8;}.cls-33{fill:#8877bd;}.cls-33,.cls-44{opacity:0.67;}.cls-33,.cls-34,.cls-44{mix-blend-mode:multiply;}.cls-34{fill:#b3d168;}.cls-35,.cls-36,.cls-37,.cls-39{fill:#ffffe5;}.cls-35{opacity:0.5;}.cls-35,.cls-37{mix-blend-mode:soft-light;}.cls-38{fill:url(#Áåçûìÿííûé_ãðàäèåíò_17);}.cls-39{opacity:0.53;}.cls-40{fill:url(#Áåçûìÿííûé_ãðàäèåíò_42);}.cls-41{fill:url(#Áåçûìÿííûé_ãðàäèåíò_83);}.cls-42{fill:url(#Áåçûìÿííûé_ãðàäèåíò_83-2);}.cls-43{fill:url(#Áåçûìÿííûé_ãðàäèåíò_66);}.cls-44{fill:#8b3d5c;}.cls-45{fill:#a42f38;}.cls-46{fill:#822b36;}.cls-47{fill:url(#Áåçûìÿííûé_ãðàäèåíò_83-3);}.cls-48{fill:#cebdac;}</style><linearGradient id="Áåçûìÿííûé_ãðàäèåíò_102" x1="66.71" y1="79.65" x2="66.71" y2="78.55" gradientUnits="userSpaceOnUse"><stop offset="0.01" stop-color="#fb6b4f"/><stop offset="0.98" stop-color="#ff9c21"/></linearGradient><linearGradient id="Áåçûìÿííûé_ãðàäèåíò_17" x1="65.58" y1="75.7" x2="65.58" y2="66.81" gradientUnits="userSpaceOnUse"><stop offset="0" stop-color="#ffae86"/><stop offset="1" stop-color="#ffe588"/></linearGradient><radialGradient id="Áåçûìÿííûé_ãðàäèåíò_42" cx="1609.98" cy="-2104.06" r="5.24" gradientTransform="matrix(-0.04, -1, -1.27, 0.05, -2213.94, 1782.18)" gradientUnits="userSpaceOnUse"><stop offset="0.02" stop-color="#371b32"/><stop offset="0.99" stop-color="#2a1032"/></radialGradient><linearGradient id="Áåçûìÿííûé_ãðàäèåíò_83" x1="1604.41" y1="-645.05" x2="1604.41" y2="-713.5" gradientTransform="matrix(-0.04, -1, -1, 0.04, -261.42, 1705.34)" gradientUnits="userSpaceOnUse"><stop offset="0.02" stop-color="#5a959c"/><stop offset="0.95" stop-color="#3e5e6b"/></linearGradient><linearGradient id="Áåçûìÿííûé_ãðàäèåíò_83-2" x1="-1298.15" y1="-645.38" x2="-1298.15" y2="-713.83" gradientTransform="translate(-274.29 1386.67) rotate(87.75)" xlink:href="#Áåçûìÿííûé_ãðàäèåíò_83"/><linearGradient id="Áåçûìÿííûé_ãðàäèåíò_66" x1="1607.2" y1="1520.62" x2="1607.2" y2="1482.51" gradientTransform="matrix(-0.04, -1, -0.75, 0.03, 1532.46, 1634.75)" gradientUnits="userSpaceOnUse"><stop offset="0.03" stop-color="#ffdbc7"/><stop offset="1" stop-color="#ffe3ca"/></linearGradient><linearGradient id="Áåçûìÿííûé_ãðàäèåíò_83-3" x1="1604.08" y1="-2106.87" x2="1617.03" y2="-2106.87" gradientTransform="matrix(-0.04, -1, -1.27, 0.05, -2213.94, 1782.18)" xlink:href="#Áåçûìÿííûé_ãðàäèåíò_83"/></defs><g class="cls-1"><g id="Layer_2" data-name="Layer 2"><g id="Chapter_5_Title" data-name="Chapter 5 Title"><path class="cls-2" d="M66.78,78.59c-1.23-.34-.16,1.71.4.84C67.33,78.74,66.82,78.88,66.78,78.59Z"/><path class="cls-3" d="M15.09,77.72C11.51,51,55.25,60.94,65,61.86c9.64,7.59,0,5,6.51,10.14.54-4,16.22-6.59,18-7.43l10.94,5.76C145.49,91.35,13.4,71.75,15.09,77.72Z"/><path class="cls-3" d="M6.71,77.7C5,71.87,13,71,14.94,71.13l.15,6.59Z"/><path class="cls-4" d="M80.87,68.46c-3.12-6.66,12.4-6.91,13.27-8.75l-1.92,7.91Z"/><path class="cls-5" d="M88.58,73.57c3.21-.37,9.5-1.73,11.93,3.43C98.71,75.68,70.68,79.22,88.58,73.57Z"/><path class="cls-6" d="M28.71,62.64C18,58,19,60.45,27.61,49.76L40.35,60.33Z"/><path class="cls-5" d="M25.37,63.54c-1-.08-5.65-1.64-6.45-.18C19.62,63.17,25.24,66.09,25.37,63.54Z"/><path class="cls-5" d="M54.26,61.33c-2.1-5.29,10.37-4.16,11.06-5.46C60.85,64.15,60.23,63.1,54.26,61.33Z"/><path class="cls-7" d="M42.58,69.92c5.55-1.17,15.22-4.42,20,3.2C59.88,72.25,43,78.82,42.58,69.92Z"/><path class="cls-8" d="M61.16,64.2c3-.78,7.78-4.7,10.16,1.08C70.91,64.41,59.76,68.36,61.16,64.2Z"/><path class="cls-8" d="M36.08,62.05c3-4.3,5.45-10.34,9.82-7.86C43,58.49,40.22,63.21,36.08,62.05Z"/><path class="cls-9" d="M19.07,75.15c1.26-.62,2.88-1.37,3.71,1.09C22.48,75.81,18.36,77.34,19.07,75.15Z"/><path class="cls-9" d="M31,74.54c.38.24.89.67,1.08-.29Z"/><path class="cls-9" d="M16.33,75.38a2.06,2.06,0,0,1,1.32,0C17.58,75.75,15.52,76.09,16.33,75.38Z"/><path class="cls-9" d="M13.7,77.33c.38.25.89.68,1.07-.28Z"/><path class="cls-10" d="M394.28,129.57c-.81-.62.91-.69.42-1.71H3.28a6.06,6.06,0,0,1-.66.59,3,3,0,0,0,.52,1c.19.22.4.28.59.47a4.84,4.84,0,0,1,.74,1.45,5.5,5.5,0,0,0,.74,1.28,6.12,6.12,0,0,1,.4.49c.11.15.19.36.3.52a7.33,7.33,0,0,0,.75.81,8.19,8.19,0,0,1,.73,1.45c.14.3.41.73.5,1l379,.89h5.86a7.21,7.21,0,0,0,.31-1,6.75,6.75,0,0,0,.45-1.45c0-.32-.15-.42-.1-.8,0-.17.1-.37.12-.52a2.67,2.67,0,0,0,0-.49,3.8,3.8,0,0,1,.29-1.28,3.8,3.8,0,0,0,.43-1.44c0-.19-.19-.25-.21-.47C394.06,130.38,394.28,129.58,394.28,129.57Z"/><path class="cls-10" d="M291.13,30.92l-4.94-.07-2.95,0L196,29.58v0l-78.3-1.1c0,.38.06.77.08,1.15a2.21,2.21,0,0,1-.77,0c-.29,0-.32-.13-.48.31-.25.69-.39,2.17-.91,2.13-.1,0-.28-.09-.37,0a1.61,1.61,0,0,0-.11.84,3.37,3.37,0,0,1,.09.71c0,.17-.08.3-.09.47-.36-.07-.77-.23-1.11,0a2.46,2.46,0,0,0,.06.9,2.3,2.3,0,0,1,.2.35,1.57,1.57,0,0,1,0,.23,1.38,1.38,0,0,0,.26.53c.2.19.41,0,.61.06a2.83,2.83,0,0,0,.24,1.3,2.56,2.56,0,0,0,.51.39c.22.16.25.15.38.56A7.24,7.24,0,0,1,116.7,40c0,.79-.34,1.35-.28,2.17,0,.17.06.33.1.49a6,6,0,0,1,.14,1.06c0,.34.07.78.07,1.13a.34.34,0,0,1-.29.06,1.52,1.52,0,0,0-.33.21c-.09,0-.16,0-.25.06s-.16.32-.19.64a11,11,0,0,1-.25,1.47,1.32,1.32,0,0,1-.18.56c-.12.13-.31.12-.44.24a1.83,1.83,0,0,0-.45,1.29c.1,0,.22-.06.31,0s.14.39.18.64.14.32.1.58-.34.32-.25.72a.89.89,0,0,1,.14.24l.09.37a3.08,3.08,0,0,0,.16.54c.33.64,1,.35,1,1.54a2.6,2.6,0,0,1-.19.93,2.51,2.51,0,0,0-.14,1.45,8.07,8.07,0,0,1,.15,1,5.36,5.36,0,0,1-.07,1.28c-.06.37-.07.54-.24.68s-.3.16-.39.47a3.42,3.42,0,0,0,0,.73c0,.19-.1.23,0,.44a2.44,2.44,0,0,0-.43.51l.17,2.68c.08.27.15.57.19.72s.1.41.16.61,0,.44.12.66.11.15.15.26.13.92.3.9a.41.41,0,0,0,0-.26,3.39,3.39,0,0,0,.17,1.31c.1.21.27.28.38.46a3.54,3.54,0,0,1,.22,1.41,4,4,0,0,0,.28,1.26c.06.14.16.32.21.48s.06.36.11.52a5,5,0,0,0,.42.8,6.22,6.22,0,0,1,.22,1.45,7.07,7.07,0,0,1,.14,1l121.17,1.71v0l47,.67,2.95,0,2.41,0a7.07,7.07,0,0,0-.14-1,6.22,6.22,0,0,0-.22-1.45,6,6,0,0,1-.43-.8c-.05-.16-.06-.36-.1-.51a3.15,3.15,0,0,0-.22-.49,4.25,4.25,0,0,1-.27-1.26,3.94,3.94,0,0,0-.22-1.41c-.11-.18-.28-.25-.38-.46a3.38,3.38,0,0,1-.18-1.31.41.41,0,0,1,0,.26c-.18,0-.23-.68-.31-.9s-.12-.15-.15-.26,0-.43-.11-.66-.11-.38-.17-.61-.11-.45-.18-.72L288.25,64a2.17,2.17,0,0,1,.43-.51c-.14-.21,0-.25,0-.44a2.87,2.87,0,0,1,0-.73.75.75,0,0,1,.38-.47c.18-.14.19-.31.25-.68a5.93,5.93,0,0,0,.07-1.28,6.58,6.58,0,0,0-.16-1,2.59,2.59,0,0,1,.15-1.45,2.6,2.6,0,0,0,.19-.93c0-1.19-.67-.9-1-1.54-.06-.14-.11-.38-.16-.54s-.05-.25-.08-.37a.7.7,0,0,0-.15-.24c-.08-.4.22-.45.26-.72s-.06-.37-.1-.58,0-.5-.18-.64-.21,0-.31,0a1.79,1.79,0,0,1,.45-1.29c.12-.12.32-.11.43-.24a1.32,1.32,0,0,0,.19-.56,11,11,0,0,0,.25-1.47c0-.32,0-.49.18-.64s.17,0,.26-.06a1.52,1.52,0,0,1,.33-.21.32.32,0,0,0,.28-.06c0-.35,0-.79-.06-1.13a7.45,7.45,0,0,0-.14-1.07,3.39,3.39,0,0,1-.1-.48c-.06-.82.33-1.38.28-2.17a7.25,7.25,0,0,0-.43-1.54c-.12-.41-.15-.4-.37-.56a2.56,2.56,0,0,1-.51-.39c-.25-.32-.19-.86-.24-1.3-.2-.07-.42.13-.62-.06a1.38,1.38,0,0,1-.25-.53,1.55,1.55,0,0,0-.05-.23,1.46,1.46,0,0,0-.2-.35,2.3,2.3,0,0,1-.05-.91c.34-.23.74-.07,1.11,0,0-.17.08-.3.09-.47a5.51,5.51,0,0,0-.09-.71,1.62,1.62,0,0,1,.1-.84c.1-.12.27,0,.38,0,.52,0,.66-1.44.91-2.13.15-.44.19-.33.48-.31a2.21,2.21,0,0,0,.77,0C291.18,31.69,291.15,31.3,291.13,30.92Z"/><path class="cls-11" d="M0,128.16h8.8l383.27.11c0-.43,0-.85,0-1.28a2.76,2.76,0,0,1,.86,0c.32,0,.36.14.56-.35.32-.77.57-2.41,1.15-2.38.12,0,.31.1.42,0a2,2,0,0,0,.18-.94,4.08,4.08,0,0,1-.06-.79c0-.18.11-.33.13-.52.4.08.85.25,1.24,0a2.59,2.59,0,0,0,0-1,1.43,1.43,0,0,1-.2-.39,1,1,0,0,1,0-.25,1.46,1.46,0,0,0-.25-.59c-.22-.2-.46,0-.68,0,0-.49.06-1.09-.19-1.44a2.68,2.68,0,0,0-.55-.42c-.23-.18-.27-.17-.38-.62a7,7,0,0,1-.37-1.7c0-.88.46-1.51.45-2.42a4.51,4.51,0,0,0-.09-.53,6.45,6.45,0,0,1-.08-1.17c0-.39,0-.87,0-1.26a.44.44,0,0,1,.33-.08,1.33,1.33,0,0,0,.37-.23c.11,0,.19,0,.3-.07s.19-.36.24-.72a13.39,13.39,0,0,1,.38-1.63,1.41,1.41,0,0,1,.24-.62c.13-.15.35-.14.5-.27a2.16,2.16,0,0,0,.58-1.44c-.1,0-.24.07-.34,0s-.13-.43-.16-.71a1.61,1.61,0,0,1-.08-.64c.06-.3.41-.36.34-.8a.93.93,0,0,1-.15-.26c0-.14,0-.27-.07-.41a3.51,3.51,0,0,0-.15-.6c-.32-.71-1.05-.38-1-1.7a2.94,2.94,0,0,1,.27-1,2.9,2.9,0,0,0,.26-1.6,8.46,8.46,0,0,1-.12-1.14,7.18,7.18,0,0,1,.16-1.42c.09-.4.12-.6.32-.75a.88.88,0,0,0,.46-.54,2.9,2.9,0,0,0,.08-.8c0-.21.13-.26,0-.49a2.74,2.74,0,0,0,.52-.57l0-3c-.07-.29-.13-.62-.16-.79s-.09-.45-.15-.68,0-.48-.08-.73-.12-.16-.15-.28-.09-1-.29-1a.45.45,0,0,0-.06.29,3.68,3.68,0,0,0-.12-1.44c-.1-.24-.28-.31-.39-.51a3.91,3.91,0,0,1-.16-1.56,4.17,4.17,0,0,0-.23-1.39,4.3,4.3,0,0,1-.2-.54c0-.17,0-.39-.09-.57a5.14,5.14,0,0,0-.43-.88,7.19,7.19,0,0,1-.15-1.6,8.44,8.44,0,0,1-.09-1.11L8.55,75.69h-6a8.44,8.44,0,0,0,.09,1.11,7.14,7.14,0,0,0,.15,1.6,4.91,4.91,0,0,1,.43.89c0,.17,0,.4.09.56a4.3,4.3,0,0,0,.2.54,4.21,4.21,0,0,1,.23,1.39,3.91,3.91,0,0,0,.16,1.56c.11.2.29.27.39.51a3.51,3.51,0,0,1,.11,1.44A.47.47,0,0,1,4.49,85c.2,0,.21.75.28,1s.13.16.15.27,0,.48.09.73.1.43.15.68.09.5.16.8l0,3a3,3,0,0,1-.52.57c.15.23,0,.28,0,.49a3,3,0,0,1-.08.81c-.12.35-.28.39-.46.53s-.23.35-.32.76A7.08,7.08,0,0,0,3.82,96a10.25,10.25,0,0,0,.11,1.14,2.82,2.82,0,0,1-.25,1.6,2.94,2.94,0,0,0-.27,1c0,1.31.68,1,1,1.69a3.51,3.51,0,0,1,.15.6c0,.14,0,.27.06.41a2,2,0,0,0,.15.26c.07.45-.27.5-.33.8s0,.41.07.64,0,.56.16.71.24,0,.35,0a2.14,2.14,0,0,1-.58,1.44c-.15.14-.37.12-.5.27a1.55,1.55,0,0,0-.25.62,16.17,16.17,0,0,0-.37,1.63c-.05.36,0,.56-.25.72s-.18,0-.29.07a1.38,1.38,0,0,1-.38.23.42.42,0,0,0-.32.08c0,.39,0,.87,0,1.26a7.49,7.49,0,0,0,.09,1.17,3.08,3.08,0,0,1,.08.53c0,.92-.45,1.54-.45,2.42a7.54,7.54,0,0,0,.38,1.7c.11.45.15.44.38.62a3,3,0,0,1,.55.42c.25.35.16.95.18,1.44.22.07.47-.15.68,0a1.23,1.23,0,0,1,.25.59,1.87,1.87,0,0,0,0,.25,2.36,2.36,0,0,0,.2.39,2.58,2.58,0,0,1,0,1c-.4.27-.84.1-1.24,0,0,.19-.11.34-.13.53a4,4,0,0,0,.05.78,1.84,1.84,0,0,1-.17.94c-.11.13-.3,0-.42,0-.58,0-.83,1.61-1.15,2.38-.2.5-.24.38-.56.36a2.48,2.48,0,0,0-.86,0C0,127.31,0,127.74,0,128.16Z"/><g class="cls-1"><path class="cls-12" d="M151.2,59.27a9.64,9.64,0,0,1-.78,3.19A7.63,7.63,0,0,1,148.6,65a8.28,8.28,0,0,1-2.8,1.62,11.2,11.2,0,0,1-3.76.59,9.82,9.82,0,0,1-3.92-.76,8,8,0,0,1-3-2.18,9.81,9.81,0,0,1-1.86-3.44,14.9,14.9,0,0,1-.65-4.54v-1.5a14.34,14.34,0,0,1,.67-4.54,9.9,9.9,0,0,1,1.9-3.45,8.27,8.27,0,0,1,3-2.19,9.67,9.67,0,0,1,3.91-.76,10.85,10.85,0,0,1,3.75.6,7.92,7.92,0,0,1,2.77,1.67,7.65,7.65,0,0,1,1.79,2.54,11.13,11.13,0,0,1,.81,3.21h-4.69a7,7,0,0,0-.35-1.79,3.38,3.38,0,0,0-.79-1.31,3.14,3.14,0,0,0-1.32-.81,6.34,6.34,0,0,0-2-.27,4,4,0,0,0-3.54,1.72,9.7,9.7,0,0,0-1.16,5.35v1.53a15.64,15.64,0,0,0,.26,3.09,6.43,6.43,0,0,0,.81,2.22,3.67,3.67,0,0,0,1.43,1.34,4.79,4.79,0,0,0,2.13.44,6.43,6.43,0,0,0,1.92-.25,3.29,3.29,0,0,0,2.18-2,6.43,6.43,0,0,0,.37-1.78Z"/><path class="cls-12" d="M158.38,51.79a6.09,6.09,0,0,1,2-1.58,5.58,5.58,0,0,1,2.54-.57,6.9,6.9,0,0,1,2.28.35,4.17,4.17,0,0,1,1.77,1.14,5.43,5.43,0,0,1,1.13,2,10.3,10.3,0,0,1,.4,3V66.84H164V56.16a4.44,4.44,0,0,0-.18-1.36,2.19,2.19,0,0,0-.52-.88,1.91,1.91,0,0,0-.85-.47,4.06,4.06,0,0,0-1.15-.15,3.37,3.37,0,0,0-1.76.42,3,3,0,0,0-1.11,1.12v12h-4.51v-24h4.51Z"/><path class="cls-12" d="M181.66,66.84a4.81,4.81,0,0,1-.45-1.51,6.09,6.09,0,0,1-1.73,1.3,5.58,5.58,0,0,1-2.54.53,6.76,6.76,0,0,1-2.27-.38,5.53,5.53,0,0,1-1.82-1,4.71,4.71,0,0,1-1.21-1.59,4.62,4.62,0,0,1-.44-2,5.38,5.38,0,0,1,.49-2.36A4.59,4.59,0,0,1,173.17,58a7,7,0,0,1,2.44-1.09,13.74,13.74,0,0,1,3.4-.38h2v-1a2.78,2.78,0,0,0-.6-1.87,2.36,2.36,0,0,0-1.9-.7,2.73,2.73,0,0,0-1.79.54,1.87,1.87,0,0,0-.64,1.5h-4.52a4.43,4.43,0,0,1,.51-2.07,5.15,5.15,0,0,1,1.45-1.72,7.2,7.2,0,0,1,2.26-1.17,9.77,9.77,0,0,1,3-.42,9.39,9.39,0,0,1,2.71.37,6.08,6.08,0,0,1,2.16,1.12A5.1,5.1,0,0,1,185,53a6.25,6.25,0,0,1,.51,2.6v7.16a12.76,12.76,0,0,0,0,1.29c0,.37.07.72.12,1a5.33,5.33,0,0,0,.2.83,6.4,6.4,0,0,0,.3.7v.26Zm-3.73-3.13a4.09,4.09,0,0,0,1.95-.51,3,3,0,0,0,.68-.53,2.57,2.57,0,0,0,.46-.61v-2.9h-1.86a5.38,5.38,0,0,0-1.54.2,3,3,0,0,0-1.08.54,2.29,2.29,0,0,0-.63.83,2.71,2.71,0,0,0-.2,1,1.84,1.84,0,0,0,.59,1.39A2.34,2.34,0,0,0,177.93,63.71Z"/><path class="cls-12" d="M204.22,58.55A13.24,13.24,0,0,1,203.8,62a8.58,8.58,0,0,1-1.26,2.73,6,6,0,0,1-2.06,1.8,5.8,5.8,0,0,1-2.81.66,5.66,5.66,0,0,1-2.37-.47,5.31,5.31,0,0,1-1.77-1.31v8H189V50h4.18l.16,1.65a5.21,5.21,0,0,1,4.28-2,6.31,6.31,0,0,1,2.84.61A5.69,5.69,0,0,1,202.54,52a8.33,8.33,0,0,1,1.26,2.72,13.65,13.65,0,0,1,.42,3.5Zm-4.51-.33a9.92,9.92,0,0,0-.18-1.94,5,5,0,0,0-.57-1.56,2.94,2.94,0,0,0-1-1,2.89,2.89,0,0,0-1.51-.38,3.53,3.53,0,0,0-1.82.42,2.76,2.76,0,0,0-1.1,1.21v6.92a3,3,0,0,0,1.1,1.22,3.4,3.4,0,0,0,1.85.45,2.78,2.78,0,0,0,1.51-.39,3,3,0,0,0,1-1.07,5.23,5.23,0,0,0,.55-1.59,10.63,10.63,0,0,0,.17-1.92Z"/><path class="cls-12" d="M212.42,45.79V50h2.89v3.31h-2.89v8.43a2.93,2.93,0,0,0,.11.87,1.21,1.21,0,0,0,.33.54,1.25,1.25,0,0,0,.54.27,3.39,3.39,0,0,0,.76.07c.27,0,.51,0,.74,0s.42,0,.58-.08v3.42a11.54,11.54,0,0,1-1.22.29,8.56,8.56,0,0,1-1.51.12,6.9,6.9,0,0,1-2-.28,3.86,3.86,0,0,1-1.52-.86,3.93,3.93,0,0,1-1-1.55,6.8,6.8,0,0,1-.34-2.3V53.26h-2.47V50h2.47V45.79Z"/><path class="cls-12" d="M225.6,67.16a9.32,9.32,0,0,1-3.52-.64,7.86,7.86,0,0,1-2.64-1.75,7.59,7.59,0,0,1-1.65-2.6,8.91,8.91,0,0,1-.57-3.2v-.61a10.7,10.7,0,0,1,.55-3.52,8.19,8.19,0,0,1,1.58-2.75,7.26,7.26,0,0,1,2.48-1.81,8,8,0,0,1,3.27-.64,8.08,8.08,0,0,1,3.22.6,6.4,6.4,0,0,1,2.33,1.68,7.3,7.3,0,0,1,1.43,2.62,11.64,11.64,0,0,1,.47,3.4v1.92H221.79a4.69,4.69,0,0,0,.45,1.5,3.81,3.81,0,0,0,.86,1.15,3.66,3.66,0,0,0,1.22.74,4.4,4.4,0,0,0,1.58.27,5.73,5.73,0,0,0,2.28-.46A4.64,4.64,0,0,0,230,61.63l2.22,2.48a6.52,6.52,0,0,1-1,1.12,7,7,0,0,1-1.44,1,8.07,8.07,0,0,1-1.87.69A9.5,9.5,0,0,1,225.6,67.16Zm-.51-13.87a3.06,3.06,0,0,0-1.29.26,2.69,2.69,0,0,0-1,.72,3.41,3.41,0,0,0-.65,1.1,5.9,5.9,0,0,0-.36,1.42h6.28v-.36a4.48,4.48,0,0,0-.2-1.25,2.76,2.76,0,0,0-.54-1,2.57,2.57,0,0,0-.94-.66A3.67,3.67,0,0,0,225.09,53.29Z"/><path class="cls-12" d="M244.61,54.18l-.81-.09c-.3,0-.58,0-.82,0a4.49,4.49,0,0,0-2.15.45,2.69,2.69,0,0,0-1.2,1.29V66.84h-4.52V50h4.27l.12,2a5,5,0,0,1,1.58-1.71,3.87,3.87,0,0,1,2.18-.61,5.17,5.17,0,0,1,.76.06,4.73,4.73,0,0,1,.65.14Z"/><path class="cls-12" d="M255.22,55.66l1.32-11.55h12.74v3.76h-9l-.57,4.89c.16-.08.35-.18.58-.28s.49-.19.79-.28a8.23,8.23,0,0,1,1-.21,6.38,6.38,0,0,1,1.08-.09,7.69,7.69,0,0,1,2.93.52,5.81,5.81,0,0,1,2.18,1.51,6.71,6.71,0,0,1,1.36,2.4,10.34,10.34,0,0,1,.47,3.22,9,9,0,0,1-.47,2.89,6.68,6.68,0,0,1-3.82,4.09,8.42,8.42,0,0,1-3.4.63,9.12,9.12,0,0,1-2.84-.45,7.57,7.57,0,0,1-2.43-1.3,6.57,6.57,0,0,1-1.72-2.08,6.24,6.24,0,0,1-.7-2.81h4.46a3.4,3.4,0,0,0,1,2.21,3.18,3.18,0,0,0,2.23.79,3,3,0,0,0,1.46-.33,2.8,2.8,0,0,0,1-.89,3.71,3.71,0,0,0,.56-1.33,6.9,6.9,0,0,0,.18-1.67,6,6,0,0,0-.21-1.63,3.51,3.51,0,0,0-.67-1.27,3.37,3.37,0,0,0-1.14-.81,4.24,4.24,0,0,0-1.63-.29,4.79,4.79,0,0,0-1.08.11,4.9,4.9,0,0,0-.82.28,3.66,3.66,0,0,0-.64.4c-.18.15-.35.31-.5.46Z"/></g><g class="cls-1"><path class="cls-13" d="M67.56,92.79H58.73v24H52.78v-24H44.07V88H67.56Z"/><path class="cls-13" d="M94.41,116.81H88.47V104.46H76.89v12.35H71V88h5.94V99.66H88.47V88h5.94Z"/><path class="cls-13" d="M117,104.32H105.54V112h13.39v4.77H99.6V88h19.29v4.81H105.54v6.87H117Z"/><path class="cls-13" d="M140.28,88l7.41,20.91L155.06,88h7.8v28.83h-6v-7.88l.59-13.6-7.78,21.48h-4.08l-7.76-21.46.59,13.58v7.88h-5.94V88Z"/><path class="cls-13" d="M185.4,104.32H174V112h13.39v4.77H168.05V88h19.29v4.81H174v6.87H185.4Z"/><path class="cls-13" d="M213,92.79h-8.83v24h-5.94v-24h-8.71V88H213Z"/><path class="cls-13" d="M230.25,110.87H219.84l-2,5.94h-6.32L222.27,88h5.51l10.79,28.83h-6.32Zm-8.81-4.81h7.21L225,95.27Z"/><path class="cls-13" d="M241.27,116.81V88h8.87a13.84,13.84,0,0,1,5.34,1,11.87,11.87,0,0,1,4.15,2.81,12.87,12.87,0,0,1,2.71,4.35,15.74,15.74,0,0,1,1,5.62v1.31a15.65,15.65,0,0,1-1,5.61,12.55,12.55,0,0,1-2.72,4.34,12,12,0,0,1-4.18,2.8,14.18,14.18,0,0,1-5.37,1Zm5.94-24V112h2.87a6.45,6.45,0,0,0,5.37-2.33,10.52,10.52,0,0,0,1.84-6.64v-1.35q0-4.39-1.83-6.66a6.42,6.42,0,0,0-5.32-2.27Z"/><path class="cls-13" d="M289.45,88v19a11.08,11.08,0,0,1-.83,4.41,9,9,0,0,1-2.3,3.2,10,10,0,0,1-3.49,1.94,15.49,15.49,0,0,1-8.88,0,9.88,9.88,0,0,1-3.49-1.94,8.88,8.88,0,0,1-2.29-3.2,11.08,11.08,0,0,1-.82-4.41V88h5.94v19a5.48,5.48,0,0,0,1.36,4.13,6.06,6.06,0,0,0,7.5,0,5.56,5.56,0,0,0,1.34-4.13V88Z"/><path class="cls-13" d="M302.08,88l7.41,20.91L316.86,88h7.8v28.83h-6v-7.88l.6-13.6-7.79,21.48h-4.08l-7.76-21.46.59,13.58v7.88h-5.94V88Z"/><path class="cls-13" d="M335.79,106.65v10.16h-5.94V88H341.1a13.79,13.79,0,0,1,4.57.71,10,10,0,0,1,3.4,2,8.51,8.51,0,0,1,2.13,3,9.76,9.76,0,0,1,.73,3.81,9.42,9.42,0,0,1-.73,3.79,7.84,7.84,0,0,1-2.13,2.87,9.89,9.89,0,0,1-3.4,1.83,15,15,0,0,1-4.57.64Zm0-4.81h5.31a6.53,6.53,0,0,0,2.19-.32,4,4,0,0,0,1.5-.88,3.49,3.49,0,0,0,.87-1.35,5.36,5.36,0,0,0,.27-1.73,6,6,0,0,0-.27-1.79,4.34,4.34,0,0,0-.87-1.52,4,4,0,0,0-1.5-1.06,5.42,5.42,0,0,0-2.19-.4h-5.31Z"/></g><path class="cls-14" d="M0,127.5c0,.22,0,.44,0,.66h8.8l383.27.11c0-.26,0-.51,0-.77Z"/><polygon class="cls-15" points="282.79 75.9 295.52 100.55 341.98 77 282.79 75.9"/><path class="cls-16" d="M317.59,81.3v3.92s45,.8,52-8.1,1.16.23,0,0-49.39,1-49.39,1l-2.57,3.19"/><polygon class="cls-17" points="305.36 8.52 283.74 18.29 277.94 29.93 286.67 57.98 282.79 75.9 308.43 82.76 304.31 25.99 305.36 8.52"/><polygon class="cls-18" points="283.74 18.29 260.1 10.85 342.55 1.11 354 10.6 376.44 14.34 301.3 17.54 299.13 19.95 292.28 18.08 289.22 22.16 283.74 18.29"/><polygon class="cls-19" points="292.28 18.08 299.13 19.95 301.3 17.54 305.61 17.36 306.68 9.03 375.07 14.11 354 10.6 344.57 2.79 344.02 9.35 305.36 8.52 303.5 12.44 291.65 11.85 290.77 14.57 260.1 10.85 283.74 18.29 289.22 22.16 292.28 18.08"/><polygon class="cls-20" points="260.1 10.85 342.55 1.11 352.75 11.22 376.37 14.21 390.56 37.34 376.86 13.67 353.74 10.65 342.78 0 260.1 10.85"/><polygon class="cls-18" points="308.43 82.76 307.34 67.77 305.99 64.84 306.89 61.6 303.5 57.36 305.37 54.24 303.5 44.27 304.31 25.99 305.36 8.52 376.37 14.21 371.72 35.02 372.46 46.39 370.83 51.75 370.83 55.49 373.33 61.1 372.08 62.35 373.64 64.5 373.95 69.2 308.43 82.76"/><polygon class="cls-21" points="337.32 61.1 335.3 36.78 367.97 43.79 364.6 66.09 337.32 61.1"/><polygon class="cls-21" points="330.93 56.11 330.31 42.4 312.23 40.52 313 50.96 330.93 56.11"/><polygon class="cls-22" points="372.08 62.35 373.33 61.1 370.83 55.49 370.83 51.75 372.46 46.39 371.72 35.02 372.46 32.88 372.32 32.86 376.92 16.19 316.71 10.93 305.36 8.52 304.31 25.99 340.46 30.84 367.97 43.79 363.07 56.11 367.97 59.85 364.35 63.97 351.63 65.42 330.93 78.11 373.95 69.2 373.64 64.5 372.08 62.35"/><polygon class="cls-23" points="376.37 14.21 390.56 37.34 337.79 24.32 314.34 28.58 305.36 8.52 376.37 14.21"/><polygon class="cls-17" points="260.1 10.85 259.36 12.51 283.69 19.86 283.74 18.29 260.1 10.85"/><polygon class="cls-17" points="390.56 37.34 388.93 38.02 337.79 25.56 314.14 29.47 304.88 11.09 305.36 8.52 314.32 28.04 337.79 23.69 390.56 37.34"/><polygon class="cls-24" points="305.36 8.52 339.04 24.32 314.34 28.58 305.36 8.52"/><polygon class="cls-22" points="303.5 44.27 287.91 46.76 280.07 36.78 286.67 57.98 284.67 67.22 307.34 67.77 305.99 64.84 306.89 61.6 303.5 57.36 305.37 54.24 303.5 44.27"/><polygon class="cls-22" points="303.5 44.27 315.97 45.51 335.3 52.99 315.25 51.79 305.37 54.24 303.5 44.27"/><polygon class="cls-22" points="372.46 46.39 365.85 50.5 350.88 57.36 335.3 56.42 352.75 59.85 370.83 55.49 370.83 51.75 367.05 53.12 372.46 46.39"/><polygon class="cls-22" points="373.33 61.1 359.38 61.1 339.94 66.84 360.23 62.35 372.08 62.35 373.33 61.1"/><polygon class="cls-22" points="306.89 61.6 328.44 63.59 305.99 64.84 306.89 61.6"/><polygon class="cls-22" points="303.5 57.36 313.07 56.11 324.07 59.23 310.04 59.85 306.89 61.6 303.5 57.36"/><polygon class="cls-22" points="323.45 57.36 330.93 63.22 340.61 60.29 348.87 61.6 340.61 58.86 330.93 58.86 321.05 54.77 318.46 54.77 323.45 57.36"/><polygon class="cls-22" points="282.79 75.9 297.89 72.32 308.13 78.71 322.2 76.36 339.04 71.53 373.95 69.2 308.43 82.76 282.79 75.9"/><polygon class="cls-22" points="283.74 18.29 287.91 25.56 289.46 40.52 291.03 24.32 292.28 18.08 289.22 22.16 283.74 18.29"/><polygon class="cls-22" points="295.52 18.97 298.51 41.77 300.38 20.57 301.3 17.54 299.13 19.95 295.52 18.97"/><polygon class="cls-25" points="121.97 65.57 119.81 76.09 80.46 75.06 92.48 35.98 95.71 37.64 100.83 50.02 102.24 50.69 104.59 49.25 119.32 49.67 121.16 64.31 121.97 65.57"/><path class="cls-26" d="M122,65.57l-3.44.38s-12.42,7.89-12.67,8-6.16-2.76-6.16-2.76l.62-13.45-2.93-5.2-5.51,0-.7-1.63L92.48,36l3.23,1.66L100.83,50l1.41.67,2.35-1.44,14.73.43,1.84,14.63Z"/><polygon class="cls-27" points="93.8 37.62 95.4 38.24 100.35 50.41 102.13 51.13 104.29 50.31 118.2 50.86 119.69 64.28 117.82 64.81 106.09 72.69 100.67 71.03 101.62 57.85 97.74 51.86 92.55 51.86 92.02 50.7 93.8 37.62"/><polygon class="cls-28" points="95.4 38.24 95.06 51.99 92.55 51.86 92.02 50.7 93.8 37.62 95.4 38.24"/><polygon class="cls-28" points="105.86 73.93 105.35 75.71 119.81 76.09 121.97 65.57 118.53 65.95 105.86 73.93"/><path class="cls-29" d="M62.1,26.72l0-3.3A3.49,3.49,0,0,1,66.09,20c.37,0,.75.11,1.13.2a3.48,3.48,0,0,1,2.29,5.07l-1.38,2.55Z"/><polygon class="cls-30" points="46.91 69.62 48.71 39.76 61.13 32.84 65.58 33.66 71.86 41.38 64.37 72.65 46.91 69.62"/><polygon class="cls-31" points="65.58 33.66 68.58 34.05 78.86 42.26 71.26 73.86 63.39 72.47 71.86 41.38 65.58 33.66"/><polygon class="cls-31" points="61.13 32.84 61.16 26.86 69.53 28.08 68.58 34.05 65.58 33.66 61.13 32.84"/><path class="cls-32" d="M60.21,24.16l.13,3.65s3.7-1,9.62,1.77l1-3.75S65.9,21.2,60.21,24.16Z"/><path class="cls-33" d="M48.72,67.56c.69,1.8,19.44,5.56,21.39,3.93S76,45.45,76,42.26c0,0-3.19-3.19-8.85-8.49l.79-5a15.35,15.35,0,0,0-6.06-1.11l.16,5.5s-9.18,4.47-11,7.07S48.32,66.54,48.72,67.56Z"/><path class="cls-34" d="M72,70.38l6.9-28.12L68.59,34.11l.66-4.36h0l.71-.17,1-3.75s-5.1-4.63-10.79-1.67l.13,3.65.18,0-.18,0,.72.43h0l.07,4.6L48.71,39.76l-1.8,29.86,17.46,3,6.89,1.21.52-2.6h0Z"/><path class="cls-29" d="M60.34,27.81l.72.43,0-.14s5-.1,8.17,1.65l.71-.17S65.18,26.42,60.34,27.81Z"/><path class="cls-35" d="M48.71,39.76s15.74-.68,23.15,1.62l-6.28-7.72-4.45-.82Z"/><polygon class="cls-36" points="50.66 39.11 59.71 34.32 62.57 34.46 58.67 39.07 50.66 39.11"/><polygon class="cls-36" points="63.06 35.23 60.42 37.94 63.46 38.5 64.75 35.53 63.06 35.23"/><polygon class="cls-37" points="69.63 70.87 72.26 56.77 74.52 57.18 71.78 71.26 69.63 70.87"/><polygon class="cls-38" points="29.99 75.7 43.9 66.81 101.16 75.59 29.99 75.7"/><ellipse class="cls-39" cx="56.37" cy="55.37" rx="8.82" ry="6.2" transform="translate(-4.27 106.02) rotate(-84.36)"/><path class="cls-40" d="M385.69,74s-1.55-6.8-.47-11.91A15.55,15.55,0,0,1,385.69,74Z"/><path class="cls-41" d="M320.29,81.78l29.19.12A43.87,43.87,0,0,0,377,72.34h0l11.46.41-.19-5-68.37,2.69Z"/><path class="cls-42" d="M319.4,59.11,349,56.66a42.29,42.29,0,0,1,27.21,7.12l.43.29,11.42-.86.18,4.54-68.37,2.69Z"/><path class="cls-43" d="M327.66,73.25h0c-.14-3.68,2-6.76,4.75-6.87L351,65.65c2.52-.1,4.77,2.3,5.2,5.61a16.2,16.2,0,0,1,.13,2c0,3.57-2.22,6.48-4.91,6.48l-18.62,0C330.07,79.71,327.8,76.85,327.66,73.25Z"/><path class="cls-44" d="M376.77,67.13l6.67-1.22a18.58,18.58,0,0,1,1.14,6.7l.09,0c.67-.14,2.28.57,2.33-.11.1-1.32.68-6,.28-8.74-.12-.76-2.4-.2-3.16-.19h-2.23l-5.24.52-.43-.29A42.28,42.28,0,0,0,349,56.66L319.4,59.11l.18,4.7L350.09,62A54.56,54.56,0,0,1,376.77,67.13Z"/><path class="cls-45" d="M389.75,72.08l9.53-.6s2.08-4.8-.65-8l-9.19.72S391.34,67.35,389.75,72.08Z"/><path class="cls-46" d="M394.79,63.8A7.81,7.81,0,0,1,396,70.28l3.17-.3s.72-.58.5-4.66a10.38,10.38,0,0,1-.39,6.16l-6.58.4L392.19,64Z"/><path class="cls-47" d="M385.69,74a24.41,24.41,0,0,0-.47-11.91l7-.78s3.47,6.34.51,12.94Z"/><path class="cls-35" d="M392.43,62.39s.46,9.66-6.74,11.63l7,.25A14.07,14.07,0,0,0,392.43,62.39Z"/><path class="cls-35" d="M383.06,70.76l-8.2-.85s-8.76,6.11-24,4.5a181.15,181.15,0,0,0-26.91-.91l-1.65,6.7s40.68,5.6,53.79-8.47l7.84.43Z"/><path class="cls-48" d="M392.22,61.33s1.46,1.45,1.87,6.38-1.36,6.56-1.36,6.56A19.68,19.68,0,0,0,392.22,61.33Z"/></g></g></g></svg>