<svg xmlns="http://www.w3.org/2000/svg" viewBox="0 0 619.47 190.65"><defs><style>.cls-1{fill:#6020c5;}.cls-2{fill:#704de8;}.cls-3{isolation:isolate;}.cls-4{fill:#ffd400;}.cls-5{fill:#fff;}.cls-6{fill:#7b6fd1;}.cls-7,.cls-8{fill:none;stroke:#000;stroke-miterlimit:10;stroke-width:2px;}.cls-8{stroke-dasharray:5 5;}.cls-9{fill:#e54559;opacity:0.66;}.cls-10{fill:#c9a200;}</style></defs><g id="Layer_2" data-name="Layer 2"><g id="Chapter_1_Title" data-name="Chapter 1 Title"><path class="cls-1" d="M249.65,127.82l4.77.07,2.85,0,84.41,1.16v0l75.72,1c0-.36,0-.73,0-1.09a2.36,2.36,0,0,1,.75,0c.28,0,.3.13.49-.29.28-.65.51-2,1-2,.11,0,.27.09.37,0a1.66,1.66,0,0,0,.16-.8,3,3,0,0,1,0-.67c0-.16.09-.28.12-.44.34.06.73.22,1.07,0a2.21,2.21,0,0,0,0-.85,2.15,2.15,0,0,1-.17-.34l0-.21a1.08,1.08,0,0,0-.21-.51c-.18-.17-.4,0-.59,0,0-.42.07-.93-.14-1.23a2.69,2.69,0,0,0-.48-.37c-.2-.15-.23-.15-.32-.53a6.1,6.1,0,0,1-.31-1.46c0-.75.42-1.28.42-2,0-.16,0-.31-.07-.46a6.54,6.54,0,0,1-.07-1c0-.33,0-.74,0-1.07a.42.42,0,0,1,.28-.07,1.09,1.09,0,0,0,.33-.19c.09,0,.16,0,.26-.06s.17-.3.22-.61a11.76,11.76,0,0,1,.33-1.39,1.32,1.32,0,0,1,.22-.52c.12-.12.31-.11.44-.23a1.88,1.88,0,0,0,.52-1.22c-.1,0-.22.06-.3,0s-.11-.37-.14-.61a1.33,1.33,0,0,1,0-.54c0-.26.35-.3.29-.68a.71.71,0,0,1-.12-.23c0-.11,0-.23-.06-.35a2.71,2.71,0,0,0-.12-.51c-.28-.61-.91-.34-.86-1.46a2.59,2.59,0,0,1,.24-.88,2.37,2.37,0,0,0,.24-1.37,7.43,7.43,0,0,1-.09-1,5.11,5.11,0,0,1,.16-1.2c.08-.35.1-.52.28-.64s.3-.16.4-.45a2.51,2.51,0,0,0,.08-.69c0-.18.11-.22,0-.42a2.69,2.69,0,0,0,.45-.48V96.31c-.06-.25-.1-.53-.13-.68s-.08-.39-.12-.58,0-.41-.07-.62-.1-.14-.13-.24-.06-.87-.23-.86a.32.32,0,0,0-.06.25,3.1,3.1,0,0,0-.09-1.24c-.08-.2-.24-.26-.34-.43a3.63,3.63,0,0,1-.12-1.34,3.63,3.63,0,0,0-.18-1.19,3.61,3.61,0,0,1-.17-.46c0-.14,0-.33-.07-.49a4.76,4.76,0,0,0-.37-.75,5.4,5.4,0,0,1-.11-1.37,6.26,6.26,0,0,1-.07-1L302.93,83.74v0l-45.4-.63-2.85,0-2.33,0a6.26,6.26,0,0,0,.07,1,5.4,5.4,0,0,0,.11,1.37,4.48,4.48,0,0,1,.37.76c0,.15,0,.34.07.48a3.61,3.61,0,0,0,.17.46,3.38,3.38,0,0,1,.18,1.19,3.61,3.61,0,0,0,.12,1.34c.1.17.26.23.34.43a3.1,3.1,0,0,1,.09,1.24.34.34,0,0,1,.06-.25c.17,0,.17.65.23.86s.11.14.13.24,0,.41.07.62.08.37.12.58.07.43.13.68v2.54a2.38,2.38,0,0,1-.45.48c.12.2,0,.24,0,.42a2.51,2.51,0,0,1-.08.69c-.1.29-.24.33-.4.45s-.2.29-.28.64a5.19,5.19,0,0,0-.16,1.2,7.76,7.76,0,0,0,.09,1,2.35,2.35,0,0,1-.24,1.36,2.59,2.59,0,0,0-.24.88c0,1.12.58.85.86,1.46a2.71,2.71,0,0,1,.12.51l.06.35a.71.71,0,0,0,.12.23c.06.38-.24.42-.29.68s0,.35.06.54,0,.48.13.61.2,0,.3,0a1.88,1.88,0,0,1-.52,1.22c-.13.12-.32.11-.44.23a1.3,1.3,0,0,0-.22.53,11.31,11.31,0,0,0-.33,1.39c0,.3,0,.47-.22.6s-.16,0-.26.06a1.12,1.12,0,0,1-.33.2.36.36,0,0,0-.28.06c0,.33,0,.74,0,1.07a6.54,6.54,0,0,0,.07,1c0,.15.05.3.07.46,0,.78-.41,1.3-.42,2.05a6.1,6.1,0,0,0,.31,1.46c.09.38.12.38.32.54a2,2,0,0,1,.48.36c.21.3.13.81.14,1.23.19.06.41-.12.59,0a1.08,1.08,0,0,1,.21.51c0,.07,0,.15,0,.21a2.15,2.15,0,0,0,.17.34,2.21,2.21,0,0,1,0,.85c-.34.23-.73.07-1.07,0,0,.16-.1.28-.12.44a3,3,0,0,0,0,.67,1.66,1.66,0,0,1-.16.8c-.1.11-.26,0-.37,0-.5,0-.73,1.37-1,2-.18.42-.21.32-.49.3a2.1,2.1,0,0,0-.75,0C249.64,127.1,249.65,127.46,249.65,127.82Z"/><path class="cls-1" d="M615.65,176.82c-1.14-.62-2.36-.69-3-1.7H63.47a9.86,9.86,0,0,1-.94.58,2.75,2.75,0,0,0,.75,1c.27.22.56.28.82.47a4.45,4.45,0,0,1,1.05,1.45,5.4,5.4,0,0,0,1,1.28c.17.15.41.33.57.49s.26.36.41.52a11,11,0,0,0,1.06.81,7,7,0,0,1,1,1.46,8.31,8.31,0,0,1,.7,1l535.27.89h8.28a7.44,7.44,0,0,0,.45-1,5.08,5.08,0,0,0,.62-1.45c0-.32-.21-.42-.14-.8,0-.17.15-.37.18-.52a2,2,0,0,0,0-.49,2.82,2.82,0,0,1,.41-1.28c.24-.47.71-1.08.61-1.44-.06-.19-.27-.25-.29-.47C615.34,177.64,615.65,176.83,615.65,176.82Z"/><path class="cls-2" d="M619.45,124.68l-7.77,0H607l-540.46-1c0,.42,0,.85,0,1.28a5,5,0,0,1-1.22,0c-.45,0-.5-.14-.79.36-.45.76-.81,2.41-1.62,2.37-.17,0-.44-.1-.6,0a1.48,1.48,0,0,0-.25.94,3,3,0,0,1,.08.79c0,.18-.15.33-.19.52a3,3,0,0,0-1.75,0,1.84,1.84,0,0,0,0,1,1.91,1.91,0,0,1,.28.4.7.7,0,0,1,.05.25,1.24,1.24,0,0,0,.35.59c.3.2.65,0,1,.05,0,.49-.1,1.09.26,1.44a4.13,4.13,0,0,0,.77.42c.33.18.38.18.54.62a5.67,5.67,0,0,1,.52,1.71c0,.87-.66,1.5-.65,2.41a4.54,4.54,0,0,0,.12.53,4.64,4.64,0,0,1,.12,1.18c0,.38,0,.86,0,1.25a.82.82,0,0,1-.46.08,2.24,2.24,0,0,0-.53.23c-.15,0-.26,0-.42.07-.33.17-.27.36-.34.72a9.73,9.73,0,0,1-.54,1.63,1.29,1.29,0,0,1-.34.62c-.19.15-.5.13-.71.27a1.94,1.94,0,0,0-.83,1.44c.16,0,.35-.08.49,0s.18.43.22.71.19.35.11.64-.57.35-.48.79a1,1,0,0,1,.21.27c0,.13.07.27.1.41a2.82,2.82,0,0,0,.2.6c.46.71,1.49.38,1.42,1.7a2.25,2.25,0,0,1-.38,1,2.16,2.16,0,0,0-.37,1.6,6,6,0,0,1,.15,1.14,4.34,4.34,0,0,1-.23,1.41c-.12.41-.16.61-.45.76s-.48.18-.65.53a2.34,2.34,0,0,0-.11.81c0,.21-.19.26,0,.48a4.34,4.34,0,0,0-.73.58v3c.1.3.18.63.23.79s.13.46.21.69,0,.48.12.72.15.16.21.28.12,1,.39,1a.39.39,0,0,0,.1-.29c0,.58-.12,1,.15,1.45.14.24.4.31.55.51.31.39.19,1,.22,1.56a3.23,3.23,0,0,0,.31,1.39,2.81,2.81,0,0,1,.29.54c.06.17.06.39.12.57.15.41.41.53.61.88a5.05,5.05,0,0,1,.2,1.6,6.11,6.11,0,0,1,.13,1.12l544.44,1h8.44a6.1,6.1,0,0,0-.13-1.11,5.05,5.05,0,0,0-.2-1.6c-.2-.35-.46-.47-.61-.89-.06-.17-.06-.4-.12-.56a3.5,3.5,0,0,0-.29-.54,3.23,3.23,0,0,1-.31-1.39c0-.51.09-1.17-.22-1.56-.15-.21-.41-.27-.55-.51-.27-.45-.14-.88-.15-1.45a.39.39,0,0,1-.1.29c-.27,0-.29-.76-.39-1s-.18-.16-.21-.28,0-.48-.12-.73a6,6,0,0,1-.21-.68c0-.17-.13-.5-.23-.79v-3a4.34,4.34,0,0,1,.73-.58c-.21-.22,0-.27,0-.48a2.34,2.34,0,0,1,.11-.81c.17-.35.39-.4.65-.53s.33-.35.45-.76a4.39,4.39,0,0,0,.23-1.41,6,6,0,0,0-.15-1.14,2.11,2.11,0,0,1,.37-1.6,2.25,2.25,0,0,0,.38-1c.07-1.31-1-1-1.42-1.7a2.56,2.56,0,0,1-.2-.59c0-.14-.06-.28-.1-.41a1,1,0,0,0-.21-.27c-.09-.44.39-.49.48-.8s-.07-.4-.11-.63,0-.56-.22-.72-.34,0-.49,0a1.94,1.94,0,0,1,.83-1.44c.21-.14.52-.13.71-.27a1.33,1.33,0,0,0,.34-.62,10,10,0,0,0,.54-1.63c.07-.36,0-.56.34-.72.16-.07.27,0,.42-.07a2.24,2.24,0,0,1,.53-.23.82.82,0,0,0,.46-.08c0-.39,0-.87,0-1.25a4.59,4.59,0,0,0-.12-1.18,4.54,4.54,0,0,1-.12-.53c0-.91.65-1.54.65-2.42a6,6,0,0,0-.52-1.7c-.16-.45-.21-.44-.54-.62a4.13,4.13,0,0,1-.77-.42c-.36-.35-.22-1-.26-1.44-.31-.07-.66.15-1-.06a1.21,1.21,0,0,1-.35-.58,1.09,1.09,0,0,0-.05-.26,1.62,1.62,0,0,0-.28-.39,1.88,1.88,0,0,1,0-1,3.07,3.07,0,0,1,1.75,0c0-.19.16-.34.19-.53a2.91,2.91,0,0,0-.08-.78,1.46,1.46,0,0,1,.25-.94c.16-.13.43,0,.59,0,.82,0,1.18-1.61,1.63-2.37.29-.5.34-.38.79-.36a4.53,4.53,0,0,0,1.22,0C619.46,125.53,619.45,125.1,619.45,124.68Z"/><g class="cls-3"><path class="cls-4" d="M292.67,106.65a9.17,9.17,0,0,1-.78,3.18,7.4,7.4,0,0,1-1.81,2.49,8.35,8.35,0,0,1-2.81,1.63,11.14,11.14,0,0,1-3.75.58,9.67,9.67,0,0,1-3.93-.76,8.06,8.06,0,0,1-2.95-2.17,9.85,9.85,0,0,1-1.86-3.45,14.88,14.88,0,0,1-.65-4.53v-1.5a14.4,14.4,0,0,1,.68-4.55,10.07,10.07,0,0,1,1.89-3.45,8.31,8.31,0,0,1,3-2.18,9.59,9.59,0,0,1,3.9-.77,10.87,10.87,0,0,1,3.76.6,8.17,8.17,0,0,1,2.77,1.67A7.66,7.66,0,0,1,291.89,96a10.66,10.66,0,0,1,.81,3.21H288a7.08,7.08,0,0,0-.36-1.8,3.49,3.49,0,0,0-.78-1.31,3.34,3.34,0,0,0-1.33-.8,6,6,0,0,0-2-.28A4,4,0,0,0,280,96.74a9.76,9.76,0,0,0-1.16,5.35v1.53a16.59,16.59,0,0,0,.26,3.09,6.59,6.59,0,0,0,.81,2.22,3.6,3.6,0,0,0,1.44,1.33,4.62,4.62,0,0,0,2.13.45,6.7,6.7,0,0,0,1.91-.25,3.31,3.31,0,0,0,1.34-.76,3.44,3.44,0,0,0,.84-1.27,6.16,6.16,0,0,0,.37-1.78Z"/><path class="cls-4" d="M299.85,99.17a6.05,6.05,0,0,1,2-1.59,5.54,5.54,0,0,1,2.53-.57,7.09,7.09,0,0,1,2.28.35,4.36,4.36,0,0,1,1.77,1.14,5.28,5.28,0,0,1,1.13,2,9.89,9.89,0,0,1,.4,3v10.65h-4.51V103.54a4.39,4.39,0,0,0-.18-1.36,2.14,2.14,0,0,0-.53-.88,1.93,1.93,0,0,0-.85-.48,4.45,4.45,0,0,0-1.14-.14,3.51,3.51,0,0,0-1.77.41,3.06,3.06,0,0,0-1.11,1.12v12h-4.51v-24h4.51Z"/><path class="cls-4" d="M323.13,114.22a5.16,5.16,0,0,1-.45-1.52A5.86,5.86,0,0,1,321,114a5.61,5.61,0,0,1-2.54.53,6.71,6.71,0,0,1-2.27-.37,5.48,5.48,0,0,1-1.83-1,4.74,4.74,0,0,1-1.65-3.64,5.56,5.56,0,0,1,.49-2.36,4.56,4.56,0,0,1,1.48-1.74,7.13,7.13,0,0,1,2.44-1.1,13.82,13.82,0,0,1,3.4-.37h2v-1a2.76,2.76,0,0,0-.6-1.87,2.35,2.35,0,0,0-1.89-.71,2.72,2.72,0,0,0-1.79.55,1.85,1.85,0,0,0-.65,1.5h-4.51a4.59,4.59,0,0,1,.5-2.08A5.25,5.25,0,0,1,315,98.6a7.29,7.29,0,0,1,2.26-1.16,10.2,10.2,0,0,1,5.69,0,6.18,6.18,0,0,1,2.15,1.11,5.13,5.13,0,0,1,1.42,1.86,6.35,6.35,0,0,1,.5,2.6v7.15c0,.48,0,.91.05,1.29s.07.72.12,1a5.58,5.58,0,0,0,.21.83,5.28,5.28,0,0,0,.29.69v.27Zm-3.73-3.14a4,4,0,0,0,1.07-.14,3.7,3.7,0,0,0,.88-.37,3,3,0,0,0,.68-.52,2.51,2.51,0,0,0,.46-.61v-2.9h-1.85a5.48,5.48,0,0,0-1.55.19,2.89,2.89,0,0,0-1.08.55,2.09,2.09,0,0,0-.62.83,2.5,2.5,0,0,0-.21,1,1.78,1.78,0,0,0,.6,1.39A2.27,2.27,0,0,0,319.4,111.08Z"/><path class="cls-4" d="M345.7,105.93a12.81,12.81,0,0,1-.43,3.42,8.43,8.43,0,0,1-1.26,2.72,5.72,5.72,0,0,1-4.87,2.46,5.54,5.54,0,0,1-2.37-.47,5.31,5.31,0,0,1-1.77-1.31v8h-4.51V97.32h4.18l.16,1.66a5.49,5.49,0,0,1,1.82-1.45,5.38,5.38,0,0,1,2.46-.52,6.28,6.28,0,0,1,2.84.62A5.6,5.6,0,0,1,344,99.38a8.27,8.27,0,0,1,1.26,2.71,13.29,13.29,0,0,1,.43,3.51Zm-4.52-.33a9.8,9.8,0,0,0-.17-1.94,5.11,5.11,0,0,0-.57-1.57,2.93,2.93,0,0,0-1-1,2.84,2.84,0,0,0-1.51-.38,3.66,3.66,0,0,0-1.82.41,2.79,2.79,0,0,0-1.1,1.22v6.91a3.05,3.05,0,0,0,1.1,1.23,3.52,3.52,0,0,0,1.85.44,2.76,2.76,0,0,0,1.51-.39,3,3,0,0,0,1-1.07,5.16,5.16,0,0,0,.55-1.58,9.94,9.94,0,0,0,.17-1.92Z"/><path class="cls-4" d="M353.9,93.17v4.15h2.88v3.31H353.9v8.44a2.71,2.71,0,0,0,.11.87,1.2,1.2,0,0,0,.32.54,1.14,1.14,0,0,0,.54.26,3.45,3.45,0,0,0,.76.07,5.71,5.71,0,0,0,.74,0l.59-.07v3.42a10.14,10.14,0,0,1-1.23.28,8.48,8.48,0,0,1-1.51.12,6.79,6.79,0,0,1-2-.27,3.74,3.74,0,0,1-1.53-.87,3.87,3.87,0,0,1-1-1.54,6.79,6.79,0,0,1-.35-2.3v-8.92h-2.46V97.32h2.46V93.17Z"/><path class="cls-4" d="M367.08,114.53a9.14,9.14,0,0,1-3.53-.64,7.82,7.82,0,0,1-2.63-1.75,7.37,7.37,0,0,1-1.66-2.6,8.85,8.85,0,0,1-.57-3.19v-.61a10.7,10.7,0,0,1,.55-3.52,8.14,8.14,0,0,1,1.58-2.76,7.11,7.11,0,0,1,2.48-1.8,8.74,8.74,0,0,1,6.49,0,6.46,6.46,0,0,1,2.34,1.69,7.15,7.15,0,0,1,1.42,2.61,11.38,11.38,0,0,1,.47,3.41v1.92H363.27a4.76,4.76,0,0,0,.44,1.5,3.81,3.81,0,0,0,.86,1.15,4.07,4.07,0,0,0,1.22.74,4.4,4.4,0,0,0,1.58.26,5.56,5.56,0,0,0,2.28-.46,4.49,4.49,0,0,0,1.8-1.43l2.21,2.49a6.47,6.47,0,0,1-1,1.12,6.74,6.74,0,0,1-1.44,1,8.65,8.65,0,0,1-1.86.68A9.07,9.07,0,0,1,367.08,114.53Zm-.52-13.86a3.06,3.06,0,0,0-1.29.25,2.69,2.69,0,0,0-.95.72,3.72,3.72,0,0,0-.65,1.1,6.55,6.55,0,0,0-.36,1.42h6.28v-.36a4.6,4.6,0,0,0-.2-1.25,2.79,2.79,0,0,0-.54-1,2.46,2.46,0,0,0-.94-.66A3.47,3.47,0,0,0,366.56,100.67Z"/><path class="cls-4" d="M386.08,101.56c-.23,0-.5-.06-.81-.09s-.58,0-.81,0a4.43,4.43,0,0,0-2.15.45,2.68,2.68,0,0,0-1.21,1.28v11.06h-4.51V97.32h4.26l.12,2a5.13,5.13,0,0,1,1.58-1.71,3.88,3.88,0,0,1,2.19-.62,4.93,4.93,0,0,1,.75.06,6.27,6.27,0,0,1,.65.14Z"/><path class="cls-4" d="M407,114.22h-4.51V96.82l-5.39,1.67V94.82l9.41-3.37H407Z"/></g><g class="cls-3"><path class="cls-5" d="M113.49,144.66h-8.84v24H98.71v-24H90v-4.82h23.49Z"/><path class="cls-5" d="M140.34,168.68H134.4V156.32H122.81v12.36h-5.94V139.84h5.94v11.69H134.4V139.84h5.94Z"/><path class="cls-5" d="M162.88,156.18H151.47v7.73h13.39v4.77H145.53V139.84h19.29v4.82H151.47v6.87h11.41Z"/><path class="cls-5" d="M190.07,139.84H196v20a9.8,9.8,0,0,1-.73,3.88,8.46,8.46,0,0,1-2,2.92,8.87,8.87,0,0,1-3.07,1.83,11.36,11.36,0,0,1-3.83.64,13.25,13.25,0,0,1-3.89-.54,8.32,8.32,0,0,1-3.06-1.63,7.45,7.45,0,0,1-2-2.77,9.86,9.86,0,0,1-.73-4h6a6.42,6.42,0,0,0,.26,2,3.14,3.14,0,0,0,.74,1.28,2.8,2.8,0,0,0,1.17.7,5.63,5.63,0,0,0,1.54.2,3.42,3.42,0,0,0,2.71-1.16,5,5,0,0,0,1-3.33Z"/><path class="cls-5" d="M224.79,154.92a18.52,18.52,0,0,1-.89,5.93,12.8,12.8,0,0,1-2.51,4.44,11,11,0,0,1-3.87,2.81,13.09,13.09,0,0,1-9.94,0,11.1,11.1,0,0,1-3.89-2.81,12.87,12.87,0,0,1-2.55-4.44,18,18,0,0,1-.91-5.93v-1.27a18.22,18.22,0,0,1,.9-5.92,13,13,0,0,1,2.53-4.48,10.76,10.76,0,0,1,3.88-2.82,13.09,13.09,0,0,1,9.94,0,10.84,10.84,0,0,1,3.88,2.82,13.12,13.12,0,0,1,2.53,4.48,18.22,18.22,0,0,1,.9,5.92Zm-6-1.31q0-4.53-1.63-6.89a5.73,5.73,0,0,0-9.27,0q-1.62,2.35-1.62,6.89v1.31a16.54,16.54,0,0,0,.43,4,9,9,0,0,0,1.22,2.91,5.47,5.47,0,0,0,2,1.78,5.78,5.78,0,0,0,2.68.6,5.22,5.22,0,0,0,4.61-2.37q1.6-2.39,1.61-6.91Z"/><path class="cls-5" d="M250.93,139.84v19a11,11,0,0,1-.83,4.4,8.94,8.94,0,0,1-2.3,3.2,9.67,9.67,0,0,1-3.49,1.94,15.26,15.26,0,0,1-8.88,0,9.58,9.58,0,0,1-3.49-1.94,8.8,8.8,0,0,1-2.29-3.2,11,11,0,0,1-.82-4.4v-19h5.94v19a5.48,5.48,0,0,0,1.36,4.13,6.1,6.1,0,0,0,7.5,0,5.56,5.56,0,0,0,1.34-4.13v-19Z"/><path class="cls-5" d="M266.48,158.12h-4.74v10.56H255.8V139.84h10.72a16.16,16.16,0,0,1,4.47.57,9.48,9.48,0,0,1,3.35,1.66,7.34,7.34,0,0,1,2.1,2.73,9,9,0,0,1,.73,3.76,10.36,10.36,0,0,1-.36,2.84,7.65,7.65,0,0,1-1,2.24,7.77,7.77,0,0,1-1.63,1.71,10.7,10.7,0,0,1-2.14,1.27l6.24,11.78v.28h-6.38Zm-4.74-4.81h4.8a6.14,6.14,0,0,0,2-.31,3.87,3.87,0,0,0,1.46-.87,3.6,3.6,0,0,0,.88-1.34,4.89,4.89,0,0,0,.3-1.76,4.33,4.33,0,0,0-1.16-3.2,4.81,4.81,0,0,0-3.55-1.17h-4.78Z"/><path class="cls-5" d="M305.14,168.68h-5.95l-11.56-19v19h-5.94V139.84h5.94l11.58,19v-19h5.93Z"/><path class="cls-5" d="M327.67,156.18h-11.4v7.73h13.38v4.77H310.32V139.84h19.29v4.82H316.27v6.87h11.4Z"/><path class="cls-5" d="M343.08,152.84l6-13h6.5l-9.47,18.38v10.46h-6V158.22l-9.47-18.38h6.52Z"/><path class="cls-5" d="M391,159.07a11.93,11.93,0,0,1-1,4,9.34,9.34,0,0,1-2.3,3.16,10.43,10.43,0,0,1-3.55,2.06,14.09,14.09,0,0,1-4.77.75,12.36,12.36,0,0,1-5-1,10.19,10.19,0,0,1-3.74-2.77,12.6,12.6,0,0,1-2.36-4.36,19.08,19.08,0,0,1-.82-5.76v-1.9a18.49,18.49,0,0,1,.85-5.76,12.69,12.69,0,0,1,2.41-4.38,10.41,10.41,0,0,1,3.77-2.77,12.18,12.18,0,0,1,4.95-1,13.72,13.72,0,0,1,4.77.76,10.36,10.36,0,0,1,3.51,2.12,9.61,9.61,0,0,1,2.26,3.23,13.67,13.67,0,0,1,1,4.07h-5.94a9.21,9.21,0,0,0-.45-2.28,4.39,4.39,0,0,0-1-1.66,4.11,4.11,0,0,0-1.68-1,7.93,7.93,0,0,0-2.5-.35,5,5,0,0,0-4.48,2.19q-1.49,2.19-1.48,6.78v1.94a20.49,20.49,0,0,0,.33,3.92,8.34,8.34,0,0,0,1,2.82,4.54,4.54,0,0,0,1.82,1.69,5.91,5.91,0,0,0,2.7.56,8.3,8.3,0,0,0,2.43-.31,4.22,4.22,0,0,0,1.7-1,4.27,4.27,0,0,0,1.06-1.62,8,8,0,0,0,.48-2.26Z"/><path class="cls-5" d="M418.54,154.92a18.52,18.52,0,0,1-.89,5.93,12.8,12.8,0,0,1-2.51,4.44,11,11,0,0,1-3.87,2.81,13.09,13.09,0,0,1-9.94,0,11,11,0,0,1-3.89-2.81,12.87,12.87,0,0,1-2.55-4.44,18,18,0,0,1-.91-5.93v-1.27a18.22,18.22,0,0,1,.9-5.92,13,13,0,0,1,2.53-4.48,10.76,10.76,0,0,1,3.88-2.82,13.09,13.09,0,0,1,9.94,0,10.84,10.84,0,0,1,3.88,2.82,13.12,13.12,0,0,1,2.53,4.48,18.22,18.22,0,0,1,.9,5.92Zm-6-1.31q0-4.53-1.63-6.89a5.73,5.73,0,0,0-9.27,0q-1.62,2.35-1.62,6.89v1.31a16.54,16.54,0,0,0,.43,4,9,9,0,0,0,1.22,2.91,5.47,5.47,0,0,0,2,1.78,5.78,5.78,0,0,0,2.68.6,5.22,5.22,0,0,0,4.61-2.37q1.6-2.39,1.61-6.91Z"/><path class="cls-5" d="M446.3,168.68h-5.94l-11.56-19v19h-5.95V139.84h5.95l11.58,19v-19h5.92Z"/><path class="cls-5" d="M472.62,144.66h-8.83v24h-5.94v-24h-8.71v-4.82h23.48Z"/><path class="cls-5" d="M482.33,168.68h-5.94V139.84h5.94Z"/><path class="cls-5" d="M511.28,168.68h-5.94l-11.56-19v19h-5.95V139.84h5.95l11.58,19v-19h5.92Z"/><path class="cls-5" d="M538.3,139.84v19a10.83,10.83,0,0,1-.84,4.4,8.92,8.92,0,0,1-2.29,3.2,9.71,9.71,0,0,1-3.5,1.94,15.23,15.23,0,0,1-8.87,0,9.71,9.71,0,0,1-3.5-1.94,8.77,8.77,0,0,1-2.28-3.2,11,11,0,0,1-.83-4.4v-19h5.95v19a5.52,5.52,0,0,0,1.35,4.13,5.24,5.24,0,0,0,3.75,1.29A5.18,5.18,0,0,0,531,163a5.56,5.56,0,0,0,1.33-4.13v-19Z"/><path class="cls-5" d="M560.52,156.18H549.11v7.73H562.5v4.77H543.17V139.84h19.29v4.82H549.11v6.87h11.41Z"/><path class="cls-5" d="M580.94,161.11a4.06,4.06,0,0,0-.22-1.35,2.71,2.71,0,0,0-.84-1.12,7.82,7.82,0,0,0-1.73-1,27.11,27.11,0,0,0-2.84-1,34,34,0,0,1-3.73-1.43,13.44,13.44,0,0,1-3.07-1.87,8.42,8.42,0,0,1-2.08-2.48,6.8,6.8,0,0,1-.76-3.29,7,7,0,0,1,.78-3.3,7.31,7.31,0,0,1,2.2-2.54A10.74,10.74,0,0,1,572,140a14.89,14.89,0,0,1,4.29-.58,13.62,13.62,0,0,1,4.36.66A10,10,0,0,1,584,142a8.32,8.32,0,0,1,2.89,6.4H581a4.78,4.78,0,0,0-.29-1.68,3.44,3.44,0,0,0-.88-1.33,4,4,0,0,0-1.49-.86,6.28,6.28,0,0,0-2.1-.31,7.2,7.2,0,0,0-2,.26,4.11,4.11,0,0,0-1.42.71,3.13,3.13,0,0,0-.86,1.07,3.08,3.08,0,0,0-.28,1.31,2.82,2.82,0,0,0,1.45,2.39,16.74,16.74,0,0,0,4.27,1.79,28.56,28.56,0,0,1,4.15,1.62,12.5,12.5,0,0,1,3,2,7.66,7.66,0,0,1,1.81,2.54,7.84,7.84,0,0,1,.62,3.18,7.42,7.42,0,0,1-.75,3.39,7,7,0,0,1-2.1,2.51,10,10,0,0,1-3.3,1.56,16,16,0,0,1-4.31.55,17.15,17.15,0,0,1-2.85-.25,14.18,14.18,0,0,1-2.72-.76,12.34,12.34,0,0,1-2.41-1.29,9,9,0,0,1-1.93-1.82,8.21,8.21,0,0,1-1.29-2.39,9,9,0,0,1-.46-3h6a5.47,5.47,0,0,0,.41,2.22,3.86,3.86,0,0,0,1.16,1.47,4.93,4.93,0,0,0,1.79.83,9.94,9.94,0,0,0,2.34.25,7.4,7.4,0,0,0,2-.24,4.22,4.22,0,0,0,1.41-.69,2.73,2.73,0,0,0,.82-1A3.12,3.12,0,0,0,580.94,161.11Z"/></g><path class="cls-6" d="M615.48,175.14H62.67a5.11,5.11,0,0,1,.11,1l544.44,1h8.44a6.1,6.1,0,0,0-.13-1.11C615.51,175.76,615.51,175.44,615.48,175.14Z"/><path class="cls-7" d="M122.46,65.37s-.7-.56-2-1.5"/><path class="cls-8" d="M116.37,61c-14.59-9.7-52.27-30.36-78.66-5.87C4.36,86.11,45.8,108,62.53,88.84s-50-42.23-59.81,9.78C-5.29,141,16.8,175,25.27,186.09"/><path class="cls-7" d="M26.81,188.07c1,1.25,1.61,1.91,1.61,1.91"/><path class="cls-5" d="M255.61,46.55a.1.1,0,0,1,0-.06s-.06-.15-.07-.17c-.51-2.52-1-5-1.56-7.57a2.27,2.27,0,0,0-1-1.48A5.92,5.92,0,0,0,251,36.6a11.88,11.88,0,0,1-1.3-.35l-2-.7a31,31,0,0,1-6.88-3h0l-.37-.25c-5.4-3.78-3.87-8.36-1.94-14.15l.16-.5c.35-1,.67-2.23,1-3.5,1.35-4.95,3-11.12,7.18-13.1,2.07-1,4.85-.33,7,.36,1.78.56,3.57,1.09,5.37,1.61s3.89,1.14,5.81,1.75l1.87.57c3.17,1,7.51,2.26,10.64,4.3a9.15,9.15,0,0,1,3.8,4.21c1.44,3.88-.29,8.33-1.83,12.26-.28.73-.56,1.45-.81,2.14-.16.42-.31.84-.46,1.27-1.6,4.5-3.25,9.14-7.64,11.09-1.89.83-4.47.8-7.66-.1a4.3,4.3,0,0,1-1-.39c-.93-.48-1.22-.11-2,.91l-.14.17c-1.24,1.6-2.5,3.3-3.85,5.19l0,.06c-.08.07-.12.08-.16.08A.31.31,0,0,1,255.61,46.55Z"/><path class="cls-9" d="M279.28,28.49c1.63-4.5,4.44-10,2.64-14.8-2.1-5.61-11.75-7.88-16.68-9.44-3.71-1.18-7.47-2.2-11.19-3.36-2.25-.71-5.2-1.42-7.46-.33-5.5,2.62-6.82,11.88-8.5,16.94-2,6.08-3.93,11.17,2,15.32,2.72,1.9,1.22,1.27,4.3,2.39,1.63.59,3.87.87,4.21,2.52.53,2.52-.29,5,.23,7.48a.66.66,0,0,0,.12.33.76.76,0,0,0,.74.39.77.77,0,0,0,.59-.27l.07-.06h0c1.26-1.77,4.54-3.51,5.87-5.22s.69-1,2.48-.48c2.52.71,9.69,2.4,12.17,1.3C275.93,38.94,277.54,33.29,279.28,28.49Zm-7.09,10c-3.08,2.82-11.74.17-15.24-.86A.85.85,0,0,0,256,38c-1.33,1.62-4.59,3.29-5.82,5-.35-3.17,1.42-7-1.51-8-4.51-1.53-9.53-2.17-11-7.53-.8-2.86,1.16-6.77,2-9.43,1.05-3.2,2.17-6.39,3.28-9.57.79-2.25,1.65-4.7,3.73-6.07,2.81-1.85,7,.17,9.84,1a160.58,160.58,0,0,1,16.2,5.32,18.57,18.57,0,0,1,7.07,4.64c1.8,2.1,1.06,5.27.32,7.64-1.25,4-2.69,8-4.24,11.84A14.84,14.84,0,0,1,272.19,38.51Zm-2-19.23c-.93-4.77-6.77-4.56-10.18-2.31-.31-2-1.15-3.9-3.18-4.82s-4.28.47-5.58,2c-4,4.77,0,12.25,4,15.52a.52.52,0,0,0,.58.09C261.07,29.25,271.66,26.73,270.19,19.28Z"/><polygon class="cls-10" points="209.45 112.63 238.28 110.47 247.88 100.54 200.78 91.58 209.45 112.63"/><path class="cls-10" d="M154.74,50.75l-17.58,8.6L121.78,87.56l34.89,37.83L194.9,115l13.34,13.73,11.62.87-23.45-33.1s-15.26-17.12-18.13-19.07S154.74,50.75,154.74,50.75Z"/><polygon class="cls-4" points="221.32 129.41 195.48 105.37 163.16 115.38 138.96 83.58 156.2 50.62 244.44 42.48 262.89 70.78 248.59 102.03 211.09 102.89 221.32 129.41"/><path d="M214.48,119.61l-1.66-4.44q-2.53-6.7-5.08-13.41l38.62-.77c4.48-9.71,9.07-19.66,13.82-30l-3-4.6c-4.72-7.3-9.69-15-14.73-22.77l-42.57,3.94,42.52-3.83L260.12,71q-6.93,15-13.81,29.9l-38.87.64,5.11,13.61c-.71-1.7-1.47-3.49-2.26-5.36-.39-1-.79-1.94-1.21-3-.73-1.86-1.49-3.76-2.26-5.71l9.06-.25,30-.57Q250,91.52,254,82.81l.29.14q2.71-6,5.39-11.9L242.22,44.21,199.27,48l-22.06,2-21.55,2.08-2.27,4.45c.83-1.51.42-.57.3-.23l-.16.3.16-.3c-.11.3,0,.14,1.41-2.53-1.4,2.67-1.52,2.83-1.41,2.53l2.1-4,86.34-7.91,17.28,26.67L254.8,81l4.59-10q-8.69-13.36-17.3-26.6l-86.22,8Q147.8,67.9,139.64,83.54l22.75,29.85,7.73-2.39,12.34-3.82,5.54-1.62,6.45-1.91,10.58,10,9.94,9.29c-2.64-1.9,6.27,7.5-12.54-10.23l-.22.24c18.64,17.9,25,25.33,5.83,8l-14.49-13.3L161,117.68l-25.7-33.77q2.31-4.47,4.6-8.87Q146.69,62,153.49,48.88L179,46.52l24.46-2.16,40.4-3.55,19.41,30c-5.14,11.09-10.24,22.07-15.22,32.79l-3,.05-33.32.78c.23.63.43,1.2.62,1.7l.94,2.63c1.56,4.37,1.47,4.61,1,4-1.14-3-2.29-5.95-3.41-8.88l36.84-.81c2.21-4.8,4.37-9.52,6.53-14.21l8.31-18-19-29.41L219,43.55l24.54-2.09,19,29.38-8.28,18Q251,95.92,247.7,103l-37,.71,3.22,8.45c-.43-.66-.86-1.28-.55,0l3.49,9c4.27,12.21,2.58,9.39-.12,3.52Z"/><path d="M213.37,130.51l-2.7-.25-3-.26-13.11-13.69-28.25,7.57-9.92,2.63c-7.12-7.73-14.62-15.85-21.38-23.18l21.34,23.3,19.89-5.35,18.29-4.84,13,13.79,3.07.27h-1.21l-.72,0-1.23-.06-3.26-3.15q-1.46-1.42-3-3.06l-6.81-7.11-16.83,4.5-.08-.31-10.22,2.85-11,3-17.92-19.64c-2.89-3.15-5.77-6.3-8.68-9.46q-4.71-5.1-9.51-10.25l4.54-8.53c-.51.85-.29.3-.23.1l.09-.17-.09.17c0-.18,0-.1-.87,1.41.83-1.51.91-1.59.87-1.41l-4.6,8.46,18.31,19.85,18,19.66,20.29-5.44-20.31,5.5L119.61,87.83Q127.67,73,135.85,58c7.62-3.73,10.23-5.56,18-9.36-.9,1.71,3.28,1.52,2.37,3.27-1.18,2.24-3.52,6.73-4.69,9-3.64,6.43-7.13,12.94-10.55,19.47.5-1.82-3.64,4.35,3.35-8.66l-.29-.15c-7.2,12.9-10.76,17.28-4.21,4,1.9-3.81,4-7.92,6.24-12.24l3.44-6.6c.27-.53.55-1,.83-1.58l.11-.2-.25.11-3.38,1.64-8.31,4.06c-1.59,3-3.17,5.89-4.74,8.79Q129,78.41,124.2,87.26l6.73,7.32q3.82,4.19,7.64,8.4l18.65,20.51,15.6-4.17,16.26-4.25,6.24-1.69,8.1,8.28c2.34,2.39,4.29,4.43,5.22,5.52l.18.25.21.06.05,0,.12,0,.21,0a2.11,2.11,0,0,1,.52.15c.19.08.11.16-.08.23l-1.22-.09L195.17,114l-15.45,4.19-22.7,6-12.88-14.24L157,124.22l22.71-6.08L195.15,114l13.41,14,.9.08c-.22.06-.46.13-.5.21s0,.16.34.27l5.51.41c7.34,1,5.45,1.38,1.75,1.51Z"/><path d="M247.29,104l-.39.29c-2.32,1.85-4.43,3.93-6.94,6.06l-.5.42-.75.66-1.82.14-1.5.14-2.92.29,6.29-.47,2.27-2,2-1.74c1.34-1.15,2.68-2.25,4-3.27a5.35,5.35,0,0,1-1.15,1.55q-2,1.74-3.95,3.48l-.22-.24c-.39.41-.79.81-1.19,1.19L239,112l-1.22.1-.69,0-1.38.08-2.76.17a51.11,51.11,0,0,0-5.56.62c.18,0,.08.1,0,.16h0s0,.08.3,0c-.31,0-.33,0-.3,0,1.88-.21,3.72-.38,5.55-.54l6.09-.47c.52-.48,1.06-1,1.6-1.44l1.18-1-2.76,2.53-5.39.48-4.77.46-9.71,1-1.31.12a21.69,21.69,0,0,0-4,0c.29-.43-1.1-1.12,1.54-1.2l0-.32c-2.66-.16-3.75-1.2-1.16-1.76,2.92-.59,6.88-.63,10.46-1.13,2.62-.32,5.23-.64,7.86-.72.9,0,1.81-.07,2.74-.12l1.39-.09.7,0h.13l.11-.08.54-.47,1.07-.93c.72-.62,1.44-1.22,2.16-1.78,1-.84,2.53-2.59,3.18-2.87.42-.23.55-.12.63.07l-4.75,4.35L239,108.41c-.47.41-1.08,1-1.21,1s-1,0-1.61.06l-2,.07,2,0c.64,0,1.47-.06,1.64,0s.73-.62,1.2-1l1.46-1.31,4.81-4.19c0,.17.12.35.32.38l.72-.68c1.24-.6,1.38,0,1.18.78Z"/><path d="M159,80.46c.4,2.36.24,5.27.62,7.65a81.73,81.73,0,0,1,.84,8.54l-1.92.09a1.56,1.56,0,0,0-1-.13,7.42,7.42,0,0,1-.83,0h0v-.07c.16,0,.39.13.46,0,.2-.87.49-.94.8-1s0,.71.18.46l0,.37v.27s0,0,0,0,0,0,.06,0a2.08,2.08,0,0,1,.32.12h.44c-.07-.52-.16-.9-.24-.41a1.16,1.16,0,0,0,0,.43h-.15l-.1,0h0v-.5a.78.78,0,0,1,.1-.43c.22-.26.48.21.69,0l-.06-1c.13-.25.48.2.46,0a5.74,5.74,0,0,0,0-1.24l-.08-.71,0-.37,0-.2v-.11a1.58,1.58,0,0,0-.08-.31c.08,0,.13-.11.19-.13a.09.09,0,0,1,.11,0,2.64,2.64,0,0,1,.13.37,1.67,1.67,0,0,1,.05.19c.11.78.18,1.49.25,2.23l.11,1.11,0,.58,0,.32v.26a.37.37,0,0,1,0,.14c0,.21-.6.18-.68.37l0,1.38-1.44-2.22L158,98.67l-.92,1.41-.27-3.23c-.28-3.5-.56-7-.85-10.51-.11-1.76-.23-3.51-.34-5.26a43.6,43.6,0,0,1-.12-5.43c.17-1.09.39-.22.6.55-.07-.26.16-.25.1-.51.23,0,.57.54.67,1.51v-.73c.07-.25.23,0,.38,0,0,.24,0,.48.08.48h.31c0-.24,0-.71,0-1,0,.24,0,.47.06.47H158c.07.46-.06,1.16,0,1.64l.24,0c.05-.47-.05-1.17-.05-1.62.08.23.16.23.31.23a7.89,7.89,0,0,0,.16,2.09l0-.71C159.06,78.53,158.84,79.75,159,80.46Z"/><path d="M163.82,69.05a6,6,0,0,1,4.41,3.66,6.56,6.56,0,0,1,.5,3,8.12,8.12,0,0,1-.7,2.83,11.34,11.34,0,0,1-3.4,4.23,30.2,30.2,0,0,1-4,2.61l-.92.52L158.14,83a13,13,0,0,1,5.43-1.89,7.74,7.74,0,0,1,6.15,2.13,6.16,6.16,0,0,1,1.68,3.23,7.19,7.19,0,0,1-.28,3.44,8.32,8.32,0,0,1-1.58,2.81,11.58,11.58,0,0,1-2.17,2c-.09-.12.29-.69-.27-.37a5.22,5.22,0,0,1-2,.83.43.43,0,0,1-.48-.25c-.07-.12,1.53-.9.94-.73a11.11,11.11,0,0,0,2.21-1.76c.51-.57.65-.82,0-.23-.26.16-.8.65-1.4,1.07a5,5,0,0,1-1.53.83c-.61.08.25-.69-.35-.6-.49.28-1.48.81-2,1s.31-.65-.19-.41A40.52,40.52,0,0,1,156.48,96c0-.15-.59-.18.45-.49a26,26,0,0,0,6.52-2.58c2.05-1.13,3.78-2.57,4.22-4.29a2.92,2.92,0,0,0-.17-2.28,3.34,3.34,0,0,0-1.91-1.41c-1.65-.56-3.78,0-5.77,1.16l-1.76-3.36c2.3-1.18,4.43-2.34,5.76-4a6.33,6.33,0,0,0,1.34-2.61,3.38,3.38,0,0,0-.31-2.42,2.59,2.59,0,0,0-1.63-1.35,4.26,4.26,0,0,0-2.49.59,10.44,10.44,0,0,0-4.6,4.46c-.45.84-.58,1-.56.61a5.76,5.76,0,0,1,.53-1.79c-.21.47-.41.36-.59.86-.1-.05-.12-.36,0-.89a5.93,5.93,0,0,1,1.27-2.13,11.8,11.8,0,0,0-1.06,1.28c-.38.42-.19-.13-.31-.22.33-.47.7-.9.65-1l-.24-.2a13.1,13.1,0,0,0-1.37,1.92c.3-.51.64-1,.58-1l-.25-.18a12.75,12.75,0,0,1,3-3l-.14-.19a11.53,11.53,0,0,0-3.05,3.06c.3-.55.26-.59.13-.69a16.54,16.54,0,0,1,4.33-3.69,12.94,12.94,0,0,0-1.63,1,6.26,6.26,0,0,1,2.5-1.62A7.4,7.4,0,0,1,163.82,69.05Z"/><path d="M177,86a3,3,0,0,0,1.34.61,3.57,3.57,0,0,0,1.74-.18,3.92,3.92,0,0,0,2.55-2.5,2.89,2.89,0,0,0-.09-1.75,2.15,2.15,0,0,0-1-1.18,3.15,3.15,0,0,0-1.71-.3,2.23,2.23,0,0,0-1.39.57c-.12-.1-.15-.4-.33-.32a3.05,3.05,0,0,1-.73.34.78.78,0,0,1-.46-.09c-.17-.08.4-.68.13-.54.41-.74,1.74-1.38.89-1.12a1.56,1.56,0,0,0-.76.47c-.28.26-.5.57-.68.65-.37.18-.22-.53-.6-.34a3.92,3.92,0,0,0-.49,1.43c-.21.39-.41-.48-.46-.06a3.15,3.15,0,0,0-.08,1.08,3.27,3.27,0,0,0,.41,1.27,3.35,3.35,0,0,0,1,1.08,2.66,2.66,0,0,0,1.78.39c0,.07.1.14.11.2s0,.07-.06.11a2,2,0,0,1-.73.08,3.15,3.15,0,0,1-1.92-1,3.92,3.92,0,0,1-.91-1.56,4.64,4.64,0,0,1,.29-3.21,5.29,5.29,0,0,1,2-2.27,6.2,6.2,0,0,1,2.74-.87,6.91,6.91,0,0,1,2.77.34A5.41,5.41,0,0,1,185,79.12a6.23,6.23,0,0,1,1.08,5.65A7.65,7.65,0,0,1,182.69,89a7,7,0,0,1-5.54.87,5.76,5.76,0,0,1-2.63-1.63,5.09,5.09,0,0,1-1.33-3,8.48,8.48,0,0,1,.2-2.65,4.89,4.89,0,0,1,.58-1.56,3.39,3.39,0,0,1,1.49-1.34,1.94,1.94,0,0,1,1.1-.18c.05,0,.11.09-.07.16a3.36,3.36,0,0,0-1.57,1.16c.33-.41.47-.24.88-.53.06.11-.12.32-.37.71a4.11,4.11,0,0,0-.61,1.67,3.15,3.15,0,0,1,.42-1c.29-.27.18.13.32.21-.19.28-.28.59-.2.61l.29.1a1.63,1.63,0,0,1,.6-.88c-.22.15-.37.38-.31.42l.26.17a5.67,5.67,0,0,0-.28.79,3.47,3.47,0,0,0-.15,1l.23,0c.06-.26.11-.63.17-1a1.82,1.82,0,0,1,.23-.71c0,.18,0,.22.19.28-.06.21-.17.6-.26,1a1.88,1.88,0,0,0,0,1.11,3.31,3.31,0,0,1,0-.7,3.12,3.12,0,0,1,.23,1A1.3,1.3,0,0,0,177,86Z"/><path d="M192,83.35a3.37,3.37,0,0,0,1.72-.83,7.61,7.61,0,0,0,1.76-1.87,3.81,3.81,0,0,0,.68-2.12,2.4,2.4,0,0,0-.74-1.72,1.64,1.64,0,0,0-.37-.29h-.12a.8.8,0,0,1-.24.08,3.88,3.88,0,0,0-.63.21,5.08,5.08,0,0,0-1.14.63,2.9,2.9,0,0,0-.73.77c-.17.26-.18.47-.16.45s0,0,.1.09a1.19,1.19,0,0,0,.65.18,4.25,4.25,0,0,0,1.19-.19c0,.15-.23.46.11.45,1.44-.17,1.6.08,1.67.39,0,.15-1.1.33-.69.37-.55.17-1.25.38-1.68.46s-.63.15-.07.19c.39.15,1.82-.41,2.25-.32s-.23.55.2.66l1.47-.44c.41,0-.24.55.13.44a38.34,38.34,0,0,0,4-1.15c.05.14.46.18-.25.48l-4.79,1.53a17.87,17.87,0,0,1-2.74.72,5.07,5.07,0,0,1-3.67-.81,3.8,3.8,0,0,1-1.46-4.18,5.75,5.75,0,0,1,2.17-3,8.57,8.57,0,0,1,2.9-1.4,6.74,6.74,0,0,1,.86-.18,4,4,0,0,1,1.25,0,4.23,4.23,0,0,1,2,1.12,6.2,6.2,0,0,1,1.77,3.16,6.5,6.5,0,0,1-.24,3.54,8.79,8.79,0,0,1-1.62,2.8,10.77,10.77,0,0,1-2.3,2.06,6.67,6.67,0,0,1-1.58.79,5.38,5.38,0,0,1-2,.26,4.42,4.42,0,0,1-2.14-.75,4.29,4.29,0,0,1-1.45-1.77,7.19,7.19,0,0,1-.44-3.41,13.43,13.43,0,0,1,.22-1.51,5.25,5.25,0,0,1,.75-1.8,2.6,2.6,0,0,1,1-.88s.08,0,.08,0,0,.06-.08.17a4.83,4.83,0,0,0-.55.85,4.13,4.13,0,0,0-.37,1.16c.11-.52.31-.43.54-.95.09.07,0,.39,0,.88s-.07,1.14-.1,1.93a10.4,10.4,0,0,1,.18-1.21c.18-.38.22.06.38.09-.09.38-.13.77-.06.78l.31,0a4.58,4.58,0,0,1,.35-1.39c-.15.32-.23.67-.15.69l.3.07a8.71,8.71,0,0,0-.17,2.44l.23,0a13.38,13.38,0,0,1,.16-2.36c0,.33.09.35.24.37-.08,1-.33,2.14.16,2.7a2.87,2.87,0,0,1-.17-.75c.21.27.33.7.47.9a.85.85,0,0,0,.25.25A.8.8,0,0,0,192,83.35Z"/><path d="M203.05,80.61a2.09,2.09,0,0,0,1.62.33,3.57,3.57,0,0,0,1.88-1.16,4.88,4.88,0,0,0,1.16-2.21,2.77,2.77,0,0,0-.26-2,.8.8,0,0,0-.46-.36,1.22,1.22,0,0,0-.6.08,3.15,3.15,0,0,0-.91.52.08.08,0,0,0,0,.09.05.05,0,0,0,0,0h0l.09,0a.85.85,0,0,0,.22.09,2,2,0,0,0,.51.11,5.32,5.32,0,0,0,2.69-.77c.07.13-.14.51.21.41,1.39-.5,1.55-.3,1.73,0s-1,.61-.58.54c-1,.64-2.8,1.34-1.66,1.08.44,0,1.79-.85,2.24-.89s-.11.61.36.59c.36-.22,1-.7,1.38-1s-.05.63.28.37a12.57,12.57,0,0,0,3.38-3.35c.11.11.51-.17,0,.58a17.46,17.46,0,0,1-6.22,5.14,7.87,7.87,0,0,1-4.58.9,5.6,5.6,0,0,1-1.3-.36,4.08,4.08,0,0,1-.63-.31,5,5,0,0,1-.71-.49,3.68,3.68,0,0,1-1.43-3,3.85,3.85,0,0,1,1.7-2.72,6.35,6.35,0,0,1,2.18-1.12,4.47,4.47,0,0,1,2.94.12,4.36,4.36,0,0,1,2.19,2,6.59,6.59,0,0,1,.41,4.82,8.49,8.49,0,0,1-2.32,3.84,7.05,7.05,0,0,1-2,1.35,5.8,5.8,0,0,1-2.56.5,5.29,5.29,0,0,1-2.61-.79,4.79,4.79,0,0,1-1.86-2.21,6.88,6.88,0,0,1,0-4.74,7.53,7.53,0,0,1,1-2.08,4.19,4.19,0,0,1,2.53-1.7,2.44,2.44,0,0,1,1.4.08c.05,0,.06,0,0,.08s0,0-.19.05a4.58,4.58,0,0,0-1.06.19,3.49,3.49,0,0,0-1.24.71c.51-.39.6-.19,1.2-.44,0,.12-.29.31-.7.7a5.08,5.08,0,0,0-1.22,1.81,3.84,3.84,0,0,1,.78-1.12c.41-.27.15.17.27.27-.3.29-.51.66-.44.69l.26.16a2.46,2.46,0,0,1,1-1c-.33.14-.58.4-.53.45l.22.22a5,5,0,0,0-1,2.18l.23,0a5.81,5.81,0,0,1,1-2.06c-.13.24-.06.3.06.39a6.63,6.63,0,0,0-.61,1.25,2.58,2.58,0,0,0-.17,1.44,4.31,4.31,0,0,1,.12-.93,7.2,7.2,0,0,1,.09,1.39A1.45,1.45,0,0,0,203.05,80.61Z"/><path d="M215.31,73.28a17.84,17.84,0,0,1,2-5c.26-.4.52-.8.83-1.19l.22-.29.38-.41c.27-.27.53-.57.8-.82.57-.38,1.15-1,1.72-1a2.24,2.24,0,0,1,1.81.37,3.09,3.09,0,0,1,1.08,1.57,5,5,0,0,1,.23,1.08l.11,1.1.05.6.06.57,0,.24s0,.09,0,0l0-.15.15-.46.21-.62a5,5,0,0,1,.33-.58c.17-.27.34-.55.52-.81.35-.54.72-1.08,1.11-1.59.19-.27.39-.52.59-.78s.33-.41.81-1,.8-.86,1.2-1.29l.31-.32.3-.21.61-.42a2.77,2.77,0,0,1,1.14-.46,2.8,2.8,0,0,1,1.15,0,3,3,0,0,1,.61.23l.21.12.16.09.76.43-.13,2.85-.05,1.37,0,1c0,.92,0,1.82.05,2.71a24.07,24.07,0,0,0,.27,2.6c.07.42.14.84.23,1.25s.2.84.3,1.14c-.14.06-.53-.42-.44.15a11,11,0,0,0,.52,1.53.63.63,0,0,1,0,.49c0,.07-.38,0-.62-.33s-.39-.53-.29-.23a9.15,9.15,0,0,1-1.05-3c-.19-.84-.31-1.18-.21-.14a8.68,8.68,0,0,0,.41,2,6.22,6.22,0,0,0,.95,1.83c.21.31,0,.31-.22.27s-.49-.13-.23.26a2.64,2.64,0,0,0,1.77.63,3.78,3.78,0,0,0,1.66-.51c.38-.13.28.07.14.26s-.31.35.08.15a8.23,8.23,0,0,0,1.63-1.08,10.89,10.89,0,0,0,1.48-1.48,12.67,12.67,0,0,0,2.22-4c.07,0,.2-.12.27-.09s.08.19-.19,1a13,13,0,0,1-3.91,5.24,8.68,8.68,0,0,1-1.5,1,4.26,4.26,0,0,1-2.32.48,3.74,3.74,0,0,1-1.3-.38,3.85,3.85,0,0,1-1-.79,5.71,5.71,0,0,1-1.09-1.77,12.28,12.28,0,0,1-.5-1.63c-.12-.51-.23-1-.32-1.53a29.63,29.63,0,0,1-.35-3.08c-.07-1-.09-2-.08-3v-.67c0-.11-.12,0-.14,0l0,0v0h0s0,0,0,0l-.16.19c-.4.5-.81,1-1.18,1.54s-.74,1.07-1.09,1.62l-.3.5c-.18.28-.35.58-.52.88-.32.65-.66,1.21-1,1.92s-.63,1.37-1,2.27l-1,2.65-2,5.49q-.67-6.51-1.34-13l-.17-1.67,0-.39h0v0s0,0,0,0h0l-.19.25a5.89,5.89,0,0,0-.41.57,11,11,0,0,0-.73,1.25,16.47,16.47,0,0,0-1.1,2.8,45.15,45.15,0,0,0-1.3,6.29L213.52,80c-.05-2.57-.09-5.12-.14-7.67,0-2.81.37-.71.65,1.38-.09-.69.14-.7,0-1.4.23,0,.65,1.39.8,4.19l-.05-2.11c.06-.7.23,0,.38,0a4.67,4.67,0,0,0,.12,1.4h.31l-.08-2.81a4.78,4.78,0,0,0,.12,1.4h.3c.12,1.4,0,3.51.13,4.91h.23c0-1.41-.09-3.51-.12-4.91.09.7.17.7.32.69.1,1.62,0,3.25.11,4.86l-2.37-.14c.06-.48.11-1,.13-1.46l-.22,1.45,2.55.15v-.65a4.38,4.38,0,0,1,.13.65l-2.79-.17A35.55,35.55,0,0,1,215.31,73.28Z"/><path d="M127.22,83.9c1.73-.65,4-.61,5.73-1.24A44.89,44.89,0,0,1,139.44,81c.05.19-.06.53.13.59a1,1,0,0,1,1,.94c0,.2-.53.12-.31.28-.53.12-1.41.4-.83.49.22.16.9-.19,1.14.07s-.05.63.2.89l.72-.16c.23.16,0,.64.14.6a6.38,6.38,0,0,0,2-.4c0,.2.29.35-.06.54-3.21.93-6.39,1.67-9.6,2.36q-2.4.51-4.8.93l-2.38.4-1.19.18-.59.09-.3,0a2.66,2.66,0,0,1-.7,0,2.83,2.83,0,0,1-1.29-.46,2.88,2.88,0,0,1-.68-.67,2.67,2.67,0,0,1-.47-1.69,2.56,2.56,0,0,1,.14-.67,2.46,2.46,0,0,1,.22-.46,2.39,2.39,0,0,1,.48-.58,2.49,2.49,0,0,1,1.29-.64,2.59,2.59,0,0,1,1.13,0,2.53,2.53,0,0,1,1.06.62,2.28,2.28,0,0,1,.64,1.14.11.11,0,0,1-.09,0h-.06l0-.08-.08-.18a3.32,3.32,0,0,0-.27-.43,2.29,2.29,0,0,0-.6-.54,2.19,2.19,0,0,0-.44-.2,2.07,2.07,0,0,0-.43-.1,2,2,0,0,0-.41,0,2,2,0,0,0-.35.06,2,2,0,0,0-.49.19,2.09,2.09,0,0,0-.63.54,2.3,2.3,0,0,0-.44.89,2.1,2.1,0,0,0,0,.76,1.94,1.94,0,0,0,.31.82,1.89,1.89,0,0,0,.72.62,1.85,1.85,0,0,0,1.15.18,1.19,1.19,0,0,1-.92-.25,2.61,2.61,0,0,1-.46-.4l-.12-.14a2.32,2.32,0,0,1-.15-.23,1.79,1.79,0,0,1-.23-.92s.07.09.13.25A1.76,1.76,0,0,0,123,87a1.43,1.43,0,0,0,1.1.39,1.25,1.25,0,0,0,.64-.26,1.9,1.9,0,0,1,.45-.23l-.54.1c-.26-.06,0-.31-.09-.5.18,0,.36-.07.34-.17l-.07-.4-.37.07h-.14a.4.4,0,0,1,0,.12c.06-.2,0-.09.1-.13a.11.11,0,0,0,.07-.1l-.08-.41c.34-.16.92-.06,1.27-.23l-.06-.3a6.16,6.16,0,0,0-1.27.23c.17-.13.15-.23.11-.43.53-.2,1.13,0,1.61-.4l-.54.1C125.72,83.85,126.7,84.09,127.22,83.9Z"/><path d="M258.44,99.36c-1.66,3.9-4.13,8.44-5.81,12.38-.51,1.22-1,2.46-1.61,3.71l-.85,1.88L249,119.85l-8.12,2c0-.12.35-.4-.08-.36-1.71.21-1.76,0-1.82-.26s1.25-.3.81-.32c1.24-.29,3.31-.84,2-.67-.44,0-2.08.49-2.53.41s.33-.45-.13-.53l-1.66.39c-.45,0,.33-.45-.09-.36-1.27.18-2.92.63-4.59,1,0-.12-.47-.14.35-.39l13.79-3.4,2.92-6.29c1.09-2.3,2.17-4.6,3.26-6.89,2.2-4.6,4.36-9.13,6.72-13.64a4.07,4.07,0,0,1,.52-.78c.09-.06.11,0,.06.15-.15.43-.35,1.05-.54,1.63.14-.42.3-.33.45-.75.16.09,0,1-.67,2.56l.57-1.15c.24-.36.16.08.27.13-.19.39-.38.77-.33.8l.22.11c.2-.38.58-1.15.77-1.53-.2.38-.39.76-.33.79l.22.11c-.33.79-1,1.88-1.33,2.68l.17.08c.43-.74.94-1.92,1.32-2.68-.13.41-.08.44,0,.49a36.63,36.63,0,0,0-1.64,3.47l.56-1.15C260.09,96.37,258.94,98.18,258.44,99.36Z"/><path d="M135.52,52.55c-1.61.84-3.44,1.69-5.27,2.55l-1.37.64s-.12,0-.13.09l-.21.46c-.43.89-.83,1.77-1.19,2.62-1.68,4.09-3.75,8.4-5.65,12.39-.11-.06-.12-.47-.33-.16-.8,1.25-1,1.14-1.24,1s.47-1,.2-.72c.48-1,1.22-2.68.63-1.74-.27.28-.79,1.66-1.12,1.91s-.17-.49-.49-.24l-.64,1.33c-.27.28-.17-.49-.33-.16-.59,1-1.17,2.3-1.8,3.63-.11,0-.38.22-.12-.47l8.23-17.67,1-2.22.53-1.11.26-.55.13-.27.06-.14.14-.07,1-.48,4.42-2.12c1.48-.69,3-1.37,4.47-2,.75-.33,1.5-.65,2.27-1s1.51-.61,2.42-.88l.32-.07.33,0a2,2,0,0,1,.87.1s0,.05,0,.07h0s-.2,0-.33,0a1.46,1.46,0,0,0-.61.1l-.4.18c-.25.12-.52.26-.78.41.35-.19.4,0,.78-.2,0,.18-.62.69-1.95,1.31l1-.41c.37-.07.07.17.11.29-.35.13-.69.27-.66.32l.09.23c.34-.14,1-.4,1.36-.51-.34.11-.68.24-.66.3l.09.23c-.66.31-1.71.62-2.36,1l.07.17c.7-.24,1.68-.72,2.35-1-.31.19-.29.24-.24.36a21.47,21.47,0,0,0-3,1.33l1-.44C138.26,51.51,136.49,52,135.52,52.55Z"/></g></g></svg>