<svg xmlns="http://www.w3.org/2000/svg" xmlns:xlink="http://www.w3.org/1999/xlink" viewBox="0 0 470.16 532.95"><defs><style>.cls-1,.cls-21{fill:none;}.cls-2{isolation:isolate;}.cls-3,.cls-31{fill:#ddbac7;}.cls-10,.cls-22,.cls-23,.cls-24,.cls-25,.cls-26,.cls-27,.cls-28,.cls-29,.cls-3,.cls-30,.cls-4,.cls-5,.cls-6,.cls-7,.cls-8,.cls-9{fill-rule:evenodd;}.cls-4{fill:#bda4c7;}.cls-5{fill:url(#Áåçûìÿííûé_ãðàäèåíò_493);}.cls-16,.cls-19,.cls-20,.cls-6{fill:#9f2247;}.cls-16,.cls-18,.cls-6{opacity:0.38;}.cls-29,.cls-7{opacity:0.5;}.cls-10,.cls-24,.cls-27,.cls-7,.cls-9{mix-blend-mode:multiply;}.cls-7{fill:url(#Áåçûìÿííûé_ãðàäèåíò_25);}.cls-8{fill:url(#Áåçûìÿííûé_ãðàäèåíò_493-2);}.cls-10,.cls-24,.cls-27,.cls-32,.cls-9{opacity:0.3;}.cls-9{fill:url(#Áåçûìÿííûé_ãðàäèåíò_506);}.cls-10{fill:url(#Áåçûìÿííûé_ãðàäèåíò_506-2);}.cls-11{fill:url(#Áåçûìÿííûé_ãðàäèåíò_493-3);}.cls-12{fill:url(#Áåçûìÿííûé_ãðàäèåíò_493-4);}.cls-13{fill:url(#Áåçûìÿííûé_ãðàäèåíò_493-5);}.cls-14{fill:url(#Áåçûìÿííûé_ãðàäèåíò_493-6);}.cls-15{fill:url(#Áåçûìÿííûé_ãðàäèåíò_493-7);}.cls-17{clip-path:url(#clip-path);}.cls-19,.cls-21{stroke:#000;stroke-miterlimit:10;stroke-width:0.83px;}.cls-22{fill:url(#linear-gradient);}.cls-23{fill:url(#linear-gradient-2);}.cls-24{fill:url(#linear-gradient-3);}.cls-25{fill:url(#linear-gradient-4);}.cls-26{fill:url(#linear-gradient-5);}.cls-27{fill:url(#linear-gradient-6);}.cls-28{fill:url(#linear-gradient-7);}.cls-29{fill:#ffe148;mix-blend-mode:soft-light;}.cls-30{fill:url(#linear-gradient-8);}.cls-32{fill:#7d3647;}</style><linearGradient id="Áåçûìÿííûé_ãðàäèåíò_493" x1="215.78" y1="278.18" x2="215.78" y2="33.16" gradientTransform="matrix(0.97, -0.23, 0.23, 0.97, -31.46, 63.84)" gradientUnits="userSpaceOnUse"><stop offset="0" stop-color="#ffc7cb"/><stop offset="1" stop-color="#ffeab8"/></linearGradient><linearGradient id="Áåçûìÿííûé_ãðàäèåíò_25" x1="319.64" y1="132.29" x2="319.64" y2="70.24" gradientTransform="matrix(0.97, -0.23, 0.23, 0.97, -31.46, 63.84)" gradientUnits="userSpaceOnUse"><stop offset="0" stop-color="#890050"/><stop offset="1" stop-color="#db6d57"/></linearGradient><linearGradient id="Áåçûìÿííûé_ãðàäèåíò_493-2" x1="312.89" y1="110.58" x2="312.89" y2="64.51" xlink:href="#Áåçûìÿííûé_ãðàäèåíò_493"/><linearGradient id="Áåçûìÿííûé_ãðàäèåíò_506" x1="173.33" y1="178.35" x2="173.33" y2="34.17" gradientTransform="matrix(0.97, -0.23, 0.23, 0.97, -31.46, 63.84)" gradientUnits="userSpaceOnUse"><stop offset="0" stop-color="#794d6a"/><stop offset="1" stop-color="#7d2250"/></linearGradient><linearGradient id="Áåçûìÿííûé_ãðàäèåíò_506-2" x1="297.03" y1="222.02" x2="297.03" y2="154.81" xlink:href="#Áåçûìÿííûé_ãðàäèåíò_506"/><linearGradient id="Áåçûìÿííûé_ãðàäèåíò_493-3" x1="175.52" y1="316.82" x2="386.02" y2="316.82" xlink:href="#Áåçûìÿííûé_ãðàäèåíò_493"/><linearGradient id="Áåçûìÿííûé_ãðàäèåíò_493-4" x1="280.77" y1="389.69" x2="280.77" y2="243.96" xlink:href="#Áåçûìÿííûé_ãðàäèåíò_493"/><linearGradient id="Áåçûìÿííûé_ãðàäèåíò_493-5" x1="175.83" y1="389.69" x2="175.83" y2="243.96" xlink:href="#Áåçûìÿííûé_ãðàäèåíò_493"/><linearGradient id="Áåçûìÿííûé_ãðàäèåíò_493-6" x1="217.5" y1="389.69" x2="217.5" y2="243.96" xlink:href="#Áåçûìÿííûé_ãðàäèåíò_493"/><linearGradient id="Áåçûìÿííûé_ãðàäèåíò_493-7" x1="223.88" y1="389.69" x2="223.88" y2="243.96" xlink:href="#Áåçûìÿííûé_ãðàäèåíò_493"/><clipPath id="clip-path"><polygon class="cls-1" points="395.99 216.43 386.83 226.12 386.83 226.12 337.54 278.31 337.24 283.28 334.45 281.58 331.83 279.99 326.56 276.79 324.28 275.4 321.01 278.52 321.42 290.14 321.6 295.18 321.96 305.25 321.96 305.25 322.04 307.48 322.08 308.8 322.21 312.48 322.24 313.25 322.35 316.43 317.98 314.07 316.1 313.06 313.3 311.55 311.9 310.79 306.17 307.71 305.63 307.41 304.45 306.78 304.44 306.77 300.32 304.55 289.72 291.75 292.12 319.82 275.37 308.93 270.5 314.44 260.18 316.9 256.19 338.32 254.33 348.32 250.33 369.85 250.25 369.92 247.55 372.1 238.47 359.56 236.82 357.28 232 350.64 232.01 350.64 232 350.64 232.66 367.83 233.31 385.02 226.68 386.61 226.68 386.61 226.08 386.75 228.49 396.85 228.49 396.85 299.86 385.07 304.03 384.38 304.03 384.38 304.03 384.38 305.05 384.12 434 351.17 434 351.17 400.65 211.49 400.65 211.49 395.99 216.43"/></clipPath><linearGradient id="linear-gradient" x1="736.39" y1="294.67" x2="735.93" y2="282.28" gradientTransform="translate(-258.94 -59.15) rotate(17.7)" gradientUnits="userSpaceOnUse"><stop offset="0" stop-color="#b86600"/><stop offset="1" stop-color="#b88f00"/></linearGradient><linearGradient id="linear-gradient-2" x1="741.03" y1="266.87" x2="852.77" y2="266.87" xlink:href="#linear-gradient"/><linearGradient id="linear-gradient-3" x1="741.03" y1="265.58" x2="852.77" y2="265.58" gradientTransform="translate(-258.94 -59.15) rotate(17.7)" gradientUnits="userSpaceOnUse"><stop offset="0" stop-color="#685e5e"/><stop offset="1" stop-color="#b59945"/></linearGradient><linearGradient id="linear-gradient-4" x1="741.03" y1="269.78" x2="852.77" y2="269.78" xlink:href="#linear-gradient"/><linearGradient id="linear-gradient-5" x1="770.78" y1="304.37" x2="752.37" y2="236.49" xlink:href="#linear-gradient"/><linearGradient id="linear-gradient-6" x1="741.03" y1="266.29" x2="852.77" y2="266.29" xlink:href="#linear-gradient-3"/><linearGradient id="linear-gradient-7" x1="798.1" y1="315.16" x2="796.83" y2="280.81" xlink:href="#linear-gradient"/><linearGradient id="linear-gradient-8" x1="740.87" y1="278.74" x2="852.63" y2="278.74" gradientTransform="translate(-258.94 -59.15) rotate(17.7)" gradientUnits="userSpaceOnUse"><stop offset="0" stop-color="#965300"/><stop offset="1" stop-color="#b86500"/></linearGradient></defs><g class="cls-2"><g id="Layer_2" data-name="Layer 2"><g id="Comic"><path class="cls-3" d="M132.44,10S82.77,41,78.86,59.88L0,98.53C28.83,66,65.39,27.59,132.44,10Z"/><path class="cls-4" d="M119.47,31.8S81.9,17.21,38.35,59.9C64.11,37.64,75.59,17.18,171.28,0Z"/><path class="cls-5" d="M323.91,142.83,332,164.09,338.23,201l-4.16,3.81L324.64,181l-.08-.21-33.3-28.77,10.16,25.05v0l21,69.87-1,1.19-.26.29-19-25.16-7.82-15,18,42.33-.6,12-112.4,32.05-85.57-.5L101.8,66.12,110,64.65l49.21.37,13.26-2.35-1.36.75,6.15,9.31L204.4,114l0,.06,9.92,23.77-.51-13.6L205.77,74l10.84,30.51,2.51-33.7-2.71-8.86-2.8-9.16,49.22,7.12,9.33,3.65L308,84.2l20.53,7.32a.23.23,0,0,1,.13,0l3.8,21.38Z"/><polygon class="cls-6" points="308.02 84.2 309.37 82.83 319.58 98.57 319.59 98.61 313.43 140.66 315.12 148.81 324.64 181.04 324.56 180.83 291.26 152.06 301.42 177.11 301.43 177.14 322.4 247 321.35 248.2 302.13 223.33 294.31 208.37 312.28 250.7 202.18 282.56 120.33 279.09 114.54 75 123.3 73.4 167.88 74.44 177.24 72.73 204.4 113.98 204.41 114.04 214.34 137.81 213.83 124.21 205.77 73.99 216.61 104.5 219.12 70.8 216.41 61.94 267.96 65.11 272.16 63.55 308.02 84.2"/><polygon class="cls-7" points="272.17 63.56 332.49 112.95 328.69 91.55 272.17 63.56"/><path class="cls-8" d="M262.83,59.91s-1.24,23,2.83,33.49l63-1.85S285.83,67,262.83,59.91Z"/><polygon class="cls-9" points="110.66 65.04 212.95 188.85 158.76 64.57 110.66 65.04"/><polygon class="cls-10" points="332 164.09 338.23 201.02 334.07 204.83 324.64 181.04 324.56 180.83 291.26 152.06 301.42 177.11 262.71 159.91 313.43 140.66 323.91 142.83 332 164.09"/><path class="cls-6" d="M195,254.93a3.44,3.44,0,0,1,4.37.82,8.75,8.75,0,0,1,1.77,3.8c.21.89-15.24-1.94-15.17-1a11.37,11.37,0,0,1,.37,2.35c-.25,1.6-2.6,2.09-4,2.28a7.16,7.16,0,0,1-4.46-.64c-1-.54,14.17,1.5,14,.44a7.76,7.76,0,0,1,.48-3.3"/><path class="cls-6" d="M170.77,256c.53,1.21,1.88,4.62,3.76,2.61a4,4,0,0,0,.78-2.88,4.8,4.8,0,0,0-2-1.7c-1.16-.39-2,1.36-2.46,2.36Z"/><path class="cls-6" d="M269.94,113.76c1.16,2.64,4.1,10.11,8.21,5.72,1.05-1.13,2.3-4.86,1.71-6.3-.47-1.16-3.07-3.29-4.34-3.72-2.54-.86-4.4,3-5.38,5.16Z"/><path class="cls-6" d="M197.31,237.07a6,6,0,0,1-.13,2.87,7,7,0,0,0-.47,2.68c0,1.41.18,3.06,1.4,3.93,2.63,1.88,6.41,1.29,9.41,1.82,3.34.59,6.9-.85,10.1-1.59,3-.68,6.71-1.76,7.85-5,1.57-4.46-3-8.88-6.42-10.92-3.24-1.91-8.19-3.2-11.81-1.84a46.18,46.18,0,0,0-6.43,3.54,21.92,21.92,0,0,0-3.11,2.59C196.18,236.48,195.56,238.05,197.31,237.07Z"/><path class="cls-6" d="M259.87,130.45a113.32,113.32,0,0,0,13.18,18.3c-.26-2,2.89-1.94,3.33-4.14a14.68,14.68,0,0,0,.07-4,48.57,48.57,0,0,0-1.34-5.51c-.4-1.81-1.26-2.49-2.21-4a8.5,8.5,0,0,0-7.6-4c-2.06,0-2.94.34-4.07,2.2-.76,1.25-.12.6-1.36,1.18Z"/><path class="cls-11" d="M386.83,226.12h0l-49.29,52.19-.3,5-2.79-1.7L331.83,280l-5.27-3.2-2.28-1.39L321,278.52l.41,11.62.18,5,.36,10.07h0l.07,2.23.05,1.32.13,3.68,0,.77.11,3.18L318,314.07l-1.88-1-2.8-1.51-1.4-.76-5.73-3.08-.54-.3-1.18-.63h0l-4.12-2.22-10.6-12.8,2.4,28.07-16.75-10.89-4.87,5.51-10.32,2.46-4,21.42-5.86,31.53-2.78,2.25-9.08-12.54,7.37,25.83h0l-7.37-25.83L232,350.64l1.3,34.39-6.63,1.58,1.81,10.24L304,384.38l130-33.21L400.65,211.49ZM304.22,376.67l-15.12,2.26,15.12-2.26,8.81-1.31h0Zm18.06-4.2,95.63-29.92-12.23-45.82,12.23,45.82Z"/><polygon class="cls-12" points="386.83 226.12 417.91 342.56 313.03 375.36 304.22 376.67 311.36 382.37 228.49 396.85 304.03 384.38 434 351.17 400.65 211.49 386.83 226.12"/><polygon class="cls-13" points="226.08 386.75 228.49 396.85 226.68 386.61 226.08 386.75"/><polygon class="cls-14" points="304.22 376.67 245.84 385.39 238.47 359.56 232.01 350.64 233.31 385.03 226.68 386.61 228.49 396.85 311.36 382.37 304.22 376.67"/><polygon class="cls-15" points="295.95 370.07 293.63 370.63 275.21 375.02 279.88 368.68 279.89 368.68 285.19 361.48 256.19 338.32 250.33 369.85 247.55 372.1 238.47 359.56 245.84 385.39 304.22 376.67 295.95 370.07 295.95 370.07"/><polygon class="cls-16" points="386.83 226.12 337.54 278.31 337.24 283.28 334.45 281.58 334.45 281.58 331.83 279.99 326.56 276.79 324.28 275.4 321.01 278.52 321.42 290.14 321.6 295.18 321.96 305.25 321.96 305.25 322.04 307.48 322.08 308.8 322.21 312.48 322.24 313.25 322.35 316.43 317.98 314.07 316.1 313.06 313.3 311.55 311.9 310.79 306.17 307.71 305.63 307.41 304.45 306.78 304.44 306.77 300.32 304.55 289.72 291.75 292.12 319.82 275.37 308.93 270.5 314.44 260.18 316.9 256.19 338.32 250.33 369.85 247.55 372.1 238.47 359.56 245.84 385.39 304.22 376.67 313.03 375.36 417.91 342.56 386.83 226.12"/><g class="cls-17"><g class="cls-18"><rect class="cls-19" x="208.2" y="308.4" width="43.57" height="12.63" rx="5.87" transform="translate(-66.79 62.01) rotate(-13.43)"/><rect class="cls-19" x="204.87" y="314.04" width="19.59" height="10.68" rx="4.97" transform="translate(-68.29 58.58) rotate(-13.43)"/><rect class="cls-19" x="206.6" y="311.94" width="11.23" height="3.62" rx="1.68" transform="translate(17.09 -10.9) rotate(3.07)"/><path class="cls-19" d="M390.36,271.94l.16-.09a1.81,1.81,0,1,0-1.8-3.13l-4.82,2.77-.2,0-28.81,6.88a6.31,6.31,0,1,0,2.93,12.28l26.26-6.27,2.55-.61,6.11-1.46a5.34,5.34,0,0,0-2.38-10.41Z"/><rect class="cls-19" x="237.34" y="300.53" width="15.44" height="22.05" rx="7.18" transform="translate(-65.65 65.42) rotate(-13.43)"/><rect class="cls-19" x="348.8" y="273.92" width="15.44" height="22.05" rx="7.18" transform="translate(769.47 479.31) rotate(166.57)"/><path class="cls-19" d="M293.52,333.75a5.91,5.91,0,0,0-4.37,7.12l5.18,21.7-2,.48a5.9,5.9,0,0,0-4.37,7.11,3,3,0,0,0,3.57,2.19l4.88-1.16,6.52-1.56.66-.16a4.43,4.43,0,0,0,3.28-5.34l-.16-.66-.87-3.65-5.18-21.69A5.92,5.92,0,0,0,293.52,333.75Z"/><path class="cls-19" d="M337.63,352.23l-2,.48L330.43,331a5.91,5.91,0,1,0-11.49,2.74l5.18,21.7.87,3.64.15.67a4.43,4.43,0,0,0,5.34,3.28l.67-.16,6.52-1.56,4.87-1.16a3,3,0,0,0,2.2-3.57A5.9,5.9,0,0,0,337.63,352.23Z"/><path class="cls-19" d="M360.52,297.26l-13.64-57.15a37.4,37.4,0,0,0-45.07-27.69l-22,5.25-19.73,4.72a36.32,36.32,0,0,0-26.9,43.75l13.9,58.21.56-.14.65,2.7-.57.13,2,8.26a24.66,24.66,0,0,0,29.71,18.26l31.08-7.42,33.71-8.05A25.41,25.41,0,0,0,363,307.49l-1.8-7.54-.49.12-.64-2.7Z"/><path class="cls-19" d="M307.59,235.64,285.34,241l-19.69,4.7a19.08,19.08,0,0,0-14.13,23l5.73,24a13,13,0,0,0,15.61,9.6l25.65-6.12,28.46-6.8A13.5,13.5,0,0,0,337,273l-5.41-22.67A19.89,19.89,0,0,0,307.59,235.64Z"/><path class="cls-19" d="M308.77,237.63l-21.47,5.13-19,4.54a18.38,18.38,0,0,0-13.66,22.11l5.51,23.06a12.48,12.48,0,0,0,15.06,9.21L300,295.77l27.47-6.55a13,13,0,0,0,9.68-15.67l-5.2-21.78A19.18,19.18,0,0,0,308.77,237.63Z"/><circle class="cls-19" cx="275.97" cy="276.74" r="5.54"/><circle class="cls-19" cx="313.16" cy="267.86" r="5.54"/><rect class="cls-19" x="312.85" y="311.16" width="33.56" height="4.36" transform="translate(-63.75 85.11) rotate(-13.43)"/><path class="cls-19" d="M290.17,274.39s.23,7.16,6.7,5.27,3-7.58,3-7.58"/><circle class="cls-19" cx="305.15" cy="324.65" r="3.35"/><circle class="cls-19" cx="314.4" cy="334.71" r="3.35"/><polygon class="cls-19" points="295.52 326.56 294.14 326.16 288.81 327.78 287.35 321.65 286.32 321.36 275.98 323.83 277.56 330.47 273.35 342.46 274.32 343.26 280.26 341.75 281.17 347.27 282.27 348.19 293.09 345.7 291.51 339.06 298.13 337.48 295.52 326.56"/><polygon class="cls-19" points="294.14 326.16 287.83 327.67 286.32 321.36 275.6 323.92 277.1 330.23 270.79 331.74 273.35 342.46 279.66 340.95 281.17 347.27 291.89 344.71 290.39 338.39 296.7 336.89 294.14 326.16"/><circle class="cls-19" cx="283.66" cy="334.28" r="3.27"/><circle class="cls-19" cx="284.27" cy="334.37" r="2.71"/><ellipse class="cls-19" cx="270.27" cy="286.03" rx="5.82" ry="2.4" transform="translate(-59.03 70.58) rotate(-13.43)"/><ellipse class="cls-19" cx="321.94" cy="273.69" rx="5.82" ry="2.4" transform="translate(-54.75 82.24) rotate(-13.43)"/><circle class="cls-20" cx="347.05" cy="329.91" r="2.36"/><circle class="cls-21" cx="347.05" cy="329.91" r="2.36"/><circle class="cls-20" cx="346.1" cy="322.38" r="2.36"/><circle class="cls-21" cx="346.1" cy="322.38" r="2.36"/><circle class="cls-20" cx="353.46" cy="323.94" r="2.36"/><circle class="cls-21" cx="353.46" cy="323.94" r="2.36"/><path class="cls-21" d="M349.26,332.94a26.84,26.84,0,0,0,7.14-6.78,3.78,3.78,0,0,0-1.3-5.64c-3.65-1.82-9.15-3.85-11.91-1.3s-1.05,8.14.43,12A3.79,3.79,0,0,0,349.26,332.94Z"/><rect class="cls-21" x="304.56" y="316.63" width="10.67" height="26.43" rx="4.96" transform="translate(-141.59 298.31) rotate(-42.79)"/><polygon class="cls-19" points="302.11 311.2 296.26 312.6 247.61 324.21 248.26 326.91 296.91 315.29 302.75 313.9 360.68 300.07 360.04 297.37 302.11 311.2"/></g></g><path class="cls-22" d="M366.48,435.46S354,427.6,344.87,436l.93,4.09,1.53-.62-.47,1.93,1.49.48s3-7.8,17.51-4.49Z"/><path class="cls-23" d="M360.77,436.26s21.64-26.84,49.74-19c-7.16,3.38-7.46,7.15-7.46,7.15s14.84-9.09,44.06,8.39c0,0-12.43-2.48-17.14.93,0,0,28.7,5.13,40.19,27.31Z"/><path class="cls-24" d="M452.74,442.89A71.81,71.81,0,0,0,430,433.74c4.71-3.41,17.14-.93,17.14-.93a87.19,87.19,0,0,0-16.06-7.67,134.53,134.53,0,0,0-11.45,8.14c-4.93,3.88-9.73,8-14.4,12.17l-.77.7,33.51,7.6C443,450.33,447.92,446.67,452.74,442.89Z"/><path class="cls-25" d="M445.24,455.4l24.92,5.65a45.08,45.08,0,0,0-12.69-14.87C453.46,449.35,449.39,452.45,445.24,455.4Z"/><path class="cls-26" d="M408.18,416.7c-26.95-5.79-47.41,19.56-47.41,19.56l24,5.43A156.26,156.26,0,0,1,408.18,416.7Z"/><path class="cls-27" d="M390.63,443l7.31,1.66.65-.63A201.91,201.91,0,0,1,423.7,423.4l.38-.25a40.25,40.25,0,0,0-14-.8A151,151,0,0,0,390.63,443Z"/><path class="cls-28" d="M360.63,436.21s7.93,33.55,36.66,38.61c-5-6.15-3.64-9.67-3.64-9.67s9.46,14.61,43.35,11.46c0,0-12.27-3.14-15.05-8.25,0,0,28.11,7.77,48.05-7.27Z"/><path class="cls-29" d="M394.52,443.92l-30.72-7c2.3,6.86,7.31,13.13,11.68,18.46a92.29,92.29,0,0,0,10.1,11,67.6,67.6,0,0,0,11.23,7.83c-4.42-5.76-3.16-9.06-3.16-9.06s4.34,6.68,17.65,10A94.69,94.69,0,0,1,394.52,443.92Z"/><path class="cls-30" d="M360.63,436.21s59.49,8.73,109.37,24.88C470,461.09,369,440.08,360.63,436.21Z"/><path class="cls-31" d="M189.11,492.73l-3.77,6.83-7-.63s-14.25,15.31-16.28,17.26L151.35,508l-7.82,5.12L142.76,528l-9.52-1.74L124.41,533l0-19-6-21.6,5.3-3.09-12.84-20.6,7-5.82-3-20.55,10.35,19.8.47,3.24,4.56,9.08,10.59-9.15s9.91,1.52,10.3,2.29,15.13-4,15.13-4l7,17.82Z"/><path class="cls-32" d="M136.57,503.9l25.45-15-3.43,19.67,3.5,7.59L151.35,508l-7.82,5.12L142.76,528l-9.52-1.74L124.41,533l0-19-6-21.6s15.45,2.44,15.6,3-8.15,11.44-8.15,11.44l8.14,8.56Z"/><polygon class="cls-32" points="123.75 489.25 138.35 483.47 117.92 462.83 110.91 468.65 123.75 489.25"/><polygon class="cls-32" points="151.17 467.54 163.27 467.75 158.59 477.03 151.55 475.92 138.85 467 140.87 465.25 151.17 467.54"/><polygon class="cls-32" points="173.26 481.33 171.82 486.83 189.11 492.73 173.26 481.33"/></g></g></g></svg>