<svg xmlns="http://www.w3.org/2000/svg" xmlns:xlink="http://www.w3.org/1999/xlink" viewBox="0 0 641.34 528.39"><defs><style>.cls-1,.cls-11,.cls-12,.cls-13,.cls-139,.cls-14,.cls-141,.cls-144,.cls-15,.cls-152,.cls-154,.cls-16,.cls-17,.cls-18,.cls-19,.cls-2,.cls-20,.cls-43,.cls-46,.cls-47,.cls-56,.cls-57,.cls-58,.cls-59,.cls-60,.cls-61,.cls-62,.cls-63,.cls-64,.cls-65,.cls-66,.cls-67,.cls-68,.cls-69,.cls-70,.cls-71,.cls-72,.cls-73,.cls-74,.cls-75,.cls-76,.cls-77,.cls-78,.cls-79,.cls-80,.cls-81,.cls-82,.cls-83,.cls-84,.cls-85{isolation:isolate;}.cls-2{fill:#492035;opacity:0.35;}.cls-100,.cls-101,.cls-102,.cls-103,.cls-104,.cls-106,.cls-107,.cls-108,.cls-109,.cls-11,.cls-113,.cls-114,.cls-12,.cls-13,.cls-132,.cls-133,.cls-134,.cls-135,.cls-136,.cls-137,.cls-138,.cls-139,.cls-14,.cls-140,.cls-141,.cls-15,.cls-16,.cls-17,.cls-18,.cls-19,.cls-2,.cls-20,.cls-22,.cls-23,.cls-24,.cls-26,.cls-27,.cls-28,.cls-29,.cls-3,.cls-30,.cls-31,.cls-32,.cls-34,.cls-35,.cls-36,.cls-37,.cls-39,.cls-4,.cls-40,.cls-41,.cls-42,.cls-43,.cls-44,.cls-45,.cls-46,.cls-47,.cls-48,.cls-49,.cls-5,.cls-51,.cls-52,.cls-54,.cls-55,.cls-56,.cls-57,.cls-58,.cls-59,.cls-6,.cls-60,.cls-61,.cls-62,.cls-63,.cls-64,.cls-65,.cls-66,.cls-67,.cls-68,.cls-69,.cls-7,.cls-70,.cls-71,.cls-72,.cls-73,.cls-74,.cls-75,.cls-76,.cls-77,.cls-78,.cls-79,.cls-8,.cls-80,.cls-81,.cls-82,.cls-83,.cls-84,.cls-85,.cls-86,.cls-87,.cls-88,.cls-89,.cls-9,.cls-90,.cls-91,.cls-92,.cls-93,.cls-94,.cls-95,.cls-96,.cls-97,.cls-98,.cls-99{fill-rule:evenodd;}.cls-3{fill:url(#linear-gradient);}.cls-4{fill:url(#linear-gradient-2);}.cls-5{fill:url(#linear-gradient-3);}.cls-6{fill:url(#linear-gradient-4);}.cls-7{fill:#e09a86;}.cls-8{fill:#a0675a;}.cls-9{fill:url(#linear-gradient-5);}.cls-10{opacity:0.75;}.cls-11,.cls-12,.cls-13,.cls-14,.cls-15,.cls-16,.cls-17,.cls-18,.cls-19,.cls-20,.cls-53,.cls-56,.cls-57,.cls-58,.cls-59,.cls-60,.cls-61,.cls-62,.cls-63,.cls-64,.cls-65,.cls-66,.cls-67,.cls-68,.cls-69,.cls-70,.cls-71,.cls-72,.cls-73,.cls-74,.cls-75,.cls-76,.cls-77,.cls-78,.cls-79,.cls-80,.cls-81,.cls-82,.cls-83,.cls-84,.cls-85{opacity:0.19;}.cls-11{fill:url(#linear-gradient-6);}.cls-12{fill:url(#linear-gradient-7);}.cls-13{fill:url(#linear-gradient-8);}.cls-14{fill:url(#linear-gradient-9);}.cls-15{fill:url(#linear-gradient-10);}.cls-16{fill:url(#linear-gradient-11);}.cls-17{fill:url(#linear-gradient-12);}.cls-18{fill:url(#linear-gradient-13);}.cls-19{fill:url(#linear-gradient-14);}.cls-20{fill:url(#linear-gradient-15);}.cls-110,.cls-111,.cls-112,.cls-21,.cls-33{mix-blend-mode:multiply;}.cls-21{opacity:0.49;}.cls-22{fill:url(#linear-gradient-16);}.cls-23{fill:url(#linear-gradient-17);}.cls-24{fill:url(#linear-gradient-18);}.cls-25{opacity:0.72;}.cls-26{fill:#6f3443;}.cls-27{fill:#a56a57;}.cls-28{fill:url(#linear-gradient-19);}.cls-29{fill:url(#linear-gradient-20);}.cls-30{fill:url(#linear-gradient-21);}.cls-31{fill:url(#linear-gradient-22);}.cls-32{fill:url(#linear-gradient-23);}.cls-34{fill:url(#linear-gradient-24);}.cls-35{fill:url(#linear-gradient-25);}.cls-36{fill:url(#linear-gradient-26);}.cls-37{fill:url(#linear-gradient-27);}.cls-38{opacity:0.46;}.cls-39{fill:#8f514e;}.cls-40{fill:url(#linear-gradient-28);}.cls-41{fill:#5b2b6b;}.cls-42{fill:url(#linear-gradient-29);}.cls-43,.cls-46,.cls-47{opacity:0.71;}.cls-43{fill:url(#linear-gradient-30);}.cls-44{mix-blend-mode:screen;fill:url(#linear-gradient-31);}.cls-45{fill:#401851;}.cls-46{fill:url(#linear-gradient-32);}.cls-47{fill:url(#linear-gradient-33);}.cls-48{fill:#9a5646;}.cls-49{fill:url(#linear-gradient-34);}.cls-50{opacity:0.42;}.cls-51{fill:url(#linear-gradient-35);}.cls-52{fill:url(#linear-gradient-36);}.cls-54{fill:url(#linear-gradient-37);}.cls-55{fill:#a4604c;}.cls-56{fill:url(#linear-gradient-38);}.cls-57{fill:url(#linear-gradient-39);}.cls-58{fill:url(#linear-gradient-40);}.cls-59{fill:url(#linear-gradient-41);}.cls-60{fill:url(#linear-gradient-42);}.cls-61{fill:url(#linear-gradient-43);}.cls-62{fill:url(#linear-gradient-44);}.cls-63{fill:url(#linear-gradient-45);}.cls-64{fill:url(#linear-gradient-46);}.cls-65{fill:url(#linear-gradient-47);}.cls-66{fill:url(#linear-gradient-48);}.cls-67{fill:url(#linear-gradient-49);}.cls-68{fill:url(#linear-gradient-50);}.cls-69{fill:url(#linear-gradient-51);}.cls-70{fill:url(#linear-gradient-52);}.cls-71{fill:url(#linear-gradient-53);}.cls-72{fill:url(#linear-gradient-54);}.cls-73{fill:url(#linear-gradient-55);}.cls-74{fill:url(#linear-gradient-56);}.cls-75{fill:url(#linear-gradient-57);}.cls-76{fill:url(#linear-gradient-58);}.cls-77{fill:url(#linear-gradient-59);}.cls-78{fill:url(#linear-gradient-60);}.cls-79{fill:url(#linear-gradient-61);}.cls-80{fill:url(#linear-gradient-62);}.cls-81{fill:url(#linear-gradient-63);}.cls-82{fill:url(#linear-gradient-64);}.cls-83{fill:url(#linear-gradient-65);}.cls-84{fill:url(#linear-gradient-66);}.cls-85{fill:url(#linear-gradient-67);}.cls-86{fill:url(#linear-gradient-68);}.cls-87{fill:url(#linear-gradient-69);}.cls-88{fill:url(#linear-gradient-70);}.cls-89{fill:url(#linear-gradient-71);}.cls-90{fill:url(#linear-gradient-72);}.cls-91{fill:#337763;}.cls-92{fill:#9b4200;}.cls-93{fill:#4469b2;}.cls-94{fill:url(#linear-gradient-73);}.cls-95{fill:url(#linear-gradient-74);}.cls-96{fill:url(#linear-gradient-75);}.cls-97{fill:url(#linear-gradient-76);}.cls-98{fill:url(#linear-gradient-77);}.cls-99{fill:url(#linear-gradient-78);}.cls-100{fill:url(#linear-gradient-79);}.cls-101{fill:url(#linear-gradient-80);}.cls-102{fill:url(#linear-gradient-81);}.cls-103{fill:#8c2f38;}.cls-104{fill:url(#linear-gradient-82);}.cls-105,.cls-144{opacity:0.38;}.cls-106{fill:url(#linear-gradient-83);}.cls-107{fill:url(#linear-gradient-84);}.cls-108{fill:#ccc;}.cls-109{fill:url(#linear-gradient-85);}.cls-110{fill:url(#linear-gradient-86);}.cls-111{fill:url(#linear-gradient-87);}.cls-112{fill:url(#linear-gradient-88);}.cls-113{fill:url(#linear-gradient-89);}.cls-114{fill:url(#linear-gradient-90);}.cls-115{fill:#0d352e;}.cls-116{fill:#35e9a3;}.cls-117{fill:#3737b7;}.cls-118{fill:#736cff;}.cls-119{fill:#4848ed;}.cls-120{fill:#3d3dd1;}.cls-121{fill:#8d8dff;}.cls-122{fill:#121266;}.cls-123{fill:#d2f1fc;}.cls-124{fill:#f6f5fd;}.cls-125{fill:#041c16;}.cls-126{fill:#011d16;}.cls-127{fill:#fde0da;}.cls-128{fill:#ffe000;}.cls-129{fill:none;stroke:#3d3dd1;stroke-miterlimit:10;stroke-width:0.14px;}.cls-130{fill:#dd2265;}.cls-131{fill:#f83571;}.cls-132{fill:#733530;}.cls-133{fill:#53282b;}.cls-134{fill:url(#linear-gradient-91);}.cls-135{fill:url(#linear-gradient-92);}.cls-136{fill:#dd7266;}.cls-137{fill:#4c2121;}.cls-138{fill:url(#linear-gradient-93);}.cls-139,.cls-141{fill:#35332d;}.cls-139{opacity:0.66;}.cls-140{fill:url(#linear-gradient-94);}.cls-141{opacity:0.22;}.cls-142,.cls-144,.cls-152,.cls-154{fill:#7d3647;}.cls-143{fill:#974e5f;}.cls-145{fill:#c58677;}.cls-146{fill:#e7ab86;}.cls-147{fill:#c58675;}.cls-148{fill:#eec79e;}.cls-149{fill:#daaf8d;}.cls-150{fill:#b9796f;}.cls-151{fill:#fad5cc;}.cls-152{opacity:0.56;}.cls-153{fill:#ddbac7;}.cls-154{opacity:0.3;}.cls-155{fill:#bb796d;}</style><linearGradient id="linear-gradient" x1="320.68" y1="183.96" x2="320.68" y2="417.34" gradientTransform="matrix(1, 0, 0, -1, 0, 689.37)" gradientUnits="userSpaceOnUse"><stop offset="0" stop-color="#814c63"/><stop offset="0.28" stop-color="#8b5360"/><stop offset="0.75" stop-color="#a76657"/><stop offset="1" stop-color="#b87251"/></linearGradient><linearGradient id="linear-gradient-2" x1="320.68" y1="177.31" x2="320.68" y2="345.65" gradientTransform="matrix(1, 0, 0, -1, 0, 689.37)" gradientUnits="userSpaceOnUse"><stop offset="0.26" stop-color="#814c63"/><stop offset="0.88" stop-color="#b87251"/></linearGradient><linearGradient id="linear-gradient-3" x1="309.52" y1="332.34" x2="303.68" y2="463.73" xlink:href="#linear-gradient"/><linearGradient id="linear-gradient-4" x1="13570.53" y1="248.07" x2="13571.16" y2="228.18" gradientTransform="translate(13814.02 793.44) rotate(-179.43)" gradientUnits="userSpaceOnUse"><stop offset="0.27" stop-color="#a16152"/><stop offset="1" stop-color="#ffca63"/></linearGradient><linearGradient id="linear-gradient-5" x1="13676.24" y1="159.27" x2="13676.87" y2="139.36" xlink:href="#linear-gradient-4"/><linearGradient id="linear-gradient-6" x1="11470.72" y1="18822.39" x2="11495.46" y2="18822.39" gradientTransform="matrix(-0.99, -0.14, -0.14, 0.99, 14322.35, -16690.13)" gradientUnits="userSpaceOnUse"><stop offset="0" stop-color="#d88368"/><stop offset="1" stop-color="#d6a9ab"/></linearGradient><linearGradient id="linear-gradient-7" x1="11497.7" y1="18816.86" x2="11509.51" y2="18816.86" xlink:href="#linear-gradient-6"/><linearGradient id="linear-gradient-8" x1="11458.37" y1="18816.35" x2="11466.92" y2="18816.35" xlink:href="#linear-gradient-6"/><linearGradient id="linear-gradient-9" x1="11460.34" y1="18828.62" x2="11465.32" y2="18828.62" xlink:href="#linear-gradient-6"/><linearGradient id="linear-gradient-10" x1="11442.15" y1="18825.04" x2="11449.83" y2="18825.04" xlink:href="#linear-gradient-6"/><linearGradient id="linear-gradient-11" x1="11526.88" y1="18829.08" x2="11543.69" y2="18829.08" xlink:href="#linear-gradient-6"/><linearGradient id="linear-gradient-12" x1="11504.58" y1="18835.54" x2="11516.44" y2="18835.54" xlink:href="#linear-gradient-6"/><linearGradient id="linear-gradient-13" x1="11547.43" y1="18832.9" x2="11555.98" y2="18832.9" xlink:href="#linear-gradient-6"/><linearGradient id="linear-gradient-14" x1="11549.1" y1="18823.14" x2="11554.03" y2="18823.14" xlink:href="#linear-gradient-6"/><linearGradient id="linear-gradient-15" x1="11566.25" y1="18826.61" x2="11572.1" y2="18826.61" xlink:href="#linear-gradient-6"/><linearGradient id="linear-gradient-16" x1="2722.71" y1="-1038.04" x2="2722.71" y2="-859.55" gradientTransform="matrix(0.97, 0.26, 0.26, -0.97, -1987.84, -1260.98)" gradientUnits="userSpaceOnUse"><stop offset="0.01" stop-color="#fcddd8"/><stop offset="0.22" stop-color="#ebcfce"/><stop offset="0.63" stop-color="#beaab4"/><stop offset="0.99" stop-color="#92869a"/></linearGradient><linearGradient id="linear-gradient-17" x1="11033.61" y1="-630.36" x2="11033.61" y2="-383.56" gradientTransform="matrix(0.48, 0.88, 0.88, -0.48, -4536.46, -9578.34)" xlink:href="#linear-gradient-16"/><linearGradient id="linear-gradient-18" x1="108.59" y1="300.72" x2="150.88" y2="300.72" gradientTransform="matrix(1, 0, 0, -1, 0, 689.37)" gradientUnits="userSpaceOnUse"><stop offset="0" stop-color="#50261b"/><stop offset="1" stop-color="#64364d" stop-opacity="0"/></linearGradient><linearGradient id="linear-gradient-19" x1="202.02" y1="386.17" x2="286.3" y2="386.17" gradientTransform="matrix(1, 0, 0, -1, 0, 689.37)" gradientUnits="userSpaceOnUse"><stop offset="0" stop-color="#814c63"/><stop offset="0.3" stop-color="#804c59"/><stop offset="0.82" stop-color="#7d4d3d"/><stop offset="1" stop-color="#7c4d32"/></linearGradient><linearGradient id="linear-gradient-20" x1="297" y1="445.28" x2="386.62" y2="445.28" gradientTransform="matrix(1, 0, 0, -1, 0, 689.37)" gradientUnits="userSpaceOnUse"><stop offset="0" stop-color="#b87251"/><stop offset="0.19" stop-color="#c4754f"/><stop offset="0.7" stop-color="#e07c49"/><stop offset="1" stop-color="#ea7f47"/></linearGradient><linearGradient id="linear-gradient-21" x1="295.23" y1="459.08" x2="348.9" y2="459.08" xlink:href="#linear-gradient-20"/><linearGradient id="linear-gradient-22" x1="150.16" y1="220.58" x2="150.16" y2="456.03" gradientTransform="matrix(1, 0, 0, -1, 125.74, 689.37)" xlink:href="#linear-gradient-19"/><linearGradient id="linear-gradient-23" x1="400" y1="158.97" x2="389.38" y2="357.5" gradientTransform="matrix(1, 0, 0, -1, 125.74, 689.37)" gradientUnits="userSpaceOnUse"><stop offset="0" stop-color="#814c63"/><stop offset="0.29" stop-color="#8b5466"/><stop offset="0.8" stop-color="#a7696e"/><stop offset="1" stop-color="#b47372"/></linearGradient><linearGradient id="linear-gradient-24" x1="293.45" y1="208.65" x2="293.45" y2="463.74" gradientTransform="matrix(1, 0, 0, -1, 125.74, 689.37)" xlink:href="#linear-gradient-16"/><linearGradient id="linear-gradient-25" x1="318.69" y1="209.47" x2="318.69" y2="462.7" gradientTransform="matrix(1, 0, 0, -1, 125.74, 689.37)" xlink:href="#linear-gradient-16"/><linearGradient id="linear-gradient-26" x1="130.4" y1="206.93" x2="130.4" y2="467.51" gradientTransform="matrix(1, 0, 0, -1, 125.74, 689.37)" gradientUnits="userSpaceOnUse"><stop offset="0.01" stop-color="#7c483d"/><stop offset="0.88" stop-color="#6b3b48"/><stop offset="0.99" stop-color="#68394a"/></linearGradient><linearGradient id="linear-gradient-27" x1="169.85" y1="206.93" x2="169.85" y2="467.51" xlink:href="#linear-gradient-26"/><linearGradient id="linear-gradient-28" x1="180.78" y1="303.62" x2="354.13" y2="303.62" xlink:href="#linear-gradient-19"/><linearGradient id="linear-gradient-29" x1="17036.69" y1="3638.76" x2="17043.15" y2="3581.93" gradientTransform="translate(17391.04 -2555.18) rotate(158.3)" gradientUnits="userSpaceOnUse"><stop offset="0" stop-color="#77437f"/><stop offset="0.25" stop-color="#663671"/><stop offset="0.72" stop-color="#4a205a"/><stop offset="1" stop-color="#401851"/></linearGradient><linearGradient id="linear-gradient-30" x1="766.78" y1="-41.56" x2="877.32" y2="-19.97" gradientTransform="matrix(1, 0.07, 0.07, -1, -605.13, 235.69)" xlink:href="#linear-gradient-19"/><linearGradient id="linear-gradient-31" x1="16223.57" y1="2294.07" x2="16222.43" y2="2321.17" gradientTransform="translate(16448.64 -1246.31) rotate(166.66)" gradientUnits="userSpaceOnUse"><stop offset="0"/><stop offset="0.15" stop-color="#130c0f"/><stop offset="0.53" stop-color="#402931"/><stop offset="0.83" stop-color="#5c3b47"/><stop offset="1" stop-color="#66424f"/></linearGradient><linearGradient id="linear-gradient-32" x1="773.26" y1="-7.28" x2="843.92" y2="-7.28" gradientTransform="matrix(1, 0.07, 0.07, -1, -605.13, 235.69)" xlink:href="#linear-gradient-19"/><linearGradient id="linear-gradient-33" x1="773.3" y1="-45.26" x2="843.86" y2="-45.26" gradientTransform="matrix(1, 0.07, 0.07, -1, -605.13, 235.69)" xlink:href="#linear-gradient-19"/><linearGradient id="linear-gradient-34" x1="286.61" y1="152.76" x2="276.05" y2="350.23" gradientTransform="matrix(1, 0, 0, -1, 125.74, 689.37)" gradientUnits="userSpaceOnUse"><stop offset="0" stop-color="#814c63"/><stop offset="0.29" stop-color="#8b5462"/><stop offset="0.8" stop-color="#a7695e"/><stop offset="1" stop-color="#b4735c"/></linearGradient><linearGradient id="linear-gradient-35" x1="233.27" y1="304.67" x2="323.21" y2="304.67" gradientTransform="matrix(1, 0, 0, -1, 125.74, 689.37)" xlink:href="#linear-gradient-16"/><linearGradient id="linear-gradient-36" x1="96.04" y1="256.87" x2="231.47" y2="256.87" gradientTransform="matrix(1, 0, 0, -1, 0, 689.37)" xlink:href="#linear-gradient-26"/><linearGradient id="linear-gradient-37" x1="15802.56" y1="15985.39" x2="15824.69" y2="15985.39" gradientTransform="translate(16244.45 -15548.72) rotate(90)" xlink:href="#linear-gradient-6"/><linearGradient id="linear-gradient-38" x1="11570.77" y1="18910.74" x2="11590.36" y2="18910.74" xlink:href="#linear-gradient-6"/><linearGradient id="linear-gradient-39" x1="11591.98" y1="18906.17" x2="11601.47" y2="18906.17" xlink:href="#linear-gradient-6"/><linearGradient id="linear-gradient-40" x1="11560.81" y1="18905.88" x2="11567.62" y2="18905.88" xlink:href="#linear-gradient-6"/><linearGradient id="linear-gradient-41" x1="11562.65" y1="18915.94" x2="11566.62" y2="18915.94" xlink:href="#linear-gradient-6"/><linearGradient id="linear-gradient-42" x1="11548.04" y1="18913.05" x2="11554.14" y2="18913.05" xlink:href="#linear-gradient-6"/><linearGradient id="linear-gradient-43" x1="11615.61" y1="18916.1" x2="11628.91" y2="18916.1" xlink:href="#linear-gradient-6"/><linearGradient id="linear-gradient-44" x1="11597.98" y1="18921.42" x2="11607.46" y2="18921.42" xlink:href="#linear-gradient-6"/><linearGradient id="linear-gradient-45" x1="11632" y1="18919.16" x2="11638.81" y2="18919.16" xlink:href="#linear-gradient-6"/><linearGradient id="linear-gradient-46" x1="11633.1" y1="18911.18" x2="11637.04" y2="18911.18" xlink:href="#linear-gradient-6"/><linearGradient id="linear-gradient-47" x1="11646.87" y1="18913.97" x2="11651.55" y2="18913.97" xlink:href="#linear-gradient-6"/><linearGradient id="linear-gradient-48" x1="6013.38" y1="-2330.69" x2="6025.41" y2="-2330.69" gradientTransform="matrix(0.83, 0.56, 0.56, -0.83, -3364.3, -5033.7)" xlink:href="#linear-gradient-6"/><linearGradient id="linear-gradient-49" x1="6025.8" y1="-2332.78" x2="6032.33" y2="-2332.78" gradientTransform="matrix(0.83, 0.56, 0.56, -0.83, -3364.3, -5033.7)" xlink:href="#linear-gradient-6"/><linearGradient id="linear-gradient-50" x1="6006.77" y1="-2335.35" x2="6011.04" y2="-2335.35" gradientTransform="matrix(0.83, 0.56, 0.56, -0.83, -3364.3, -5033.7)" xlink:href="#linear-gradient-6"/><linearGradient id="linear-gradient-51" x1="6008.76" y1="-2327.87" x2="6011.23" y2="-2327.87" gradientTransform="matrix(0.83, 0.56, 0.56, -0.83, -3364.3, -5033.7)" xlink:href="#linear-gradient-6"/><linearGradient id="linear-gradient-52" x1="5999.29" y1="-2330.88" x2="6003.05" y2="-2330.88" gradientTransform="matrix(0.83, 0.56, 0.56, -0.83, -3364.3, -5033.7)" xlink:href="#linear-gradient-6"/><linearGradient id="linear-gradient-53" x1="6041.85" y1="-2323.78" x2="6049.95" y2="-2323.78" gradientTransform="matrix(0.83, 0.56, 0.56, -0.83, -3364.3, -5033.7)" xlink:href="#linear-gradient-6"/><linearGradient id="linear-gradient-54" x1="6031.15" y1="-2320.97" x2="6037.19" y2="-2320.97" gradientTransform="matrix(0.83, 0.56, 0.56, -0.83, -3364.3, -5033.7)" xlink:href="#linear-gradient-6"/><linearGradient id="linear-gradient-55" x1="6052.21" y1="-2320.3" x2="6056.54" y2="-2320.3" gradientTransform="matrix(0.83, 0.56, 0.56, -0.83, -3364.3, -5033.7)" xlink:href="#linear-gradient-6"/><linearGradient id="linear-gradient-56" x1="6052.26" y1="-2326.4" x2="6054.77" y2="-2326.4" gradientTransform="matrix(0.83, 0.56, 0.56, -0.83, -3364.3, -5033.7)" xlink:href="#linear-gradient-6"/><linearGradient id="linear-gradient-57" x1="6061.25" y1="-2323.31" x2="6064.3" y2="-2323.31" gradientTransform="matrix(0.83, 0.56, 0.56, -0.83, -3364.3, -5033.7)" xlink:href="#linear-gradient-6"/><linearGradient id="linear-gradient-58" x1="3390.92" y1="-1887.85" x2="3399.53" y2="-1887.85" gradientTransform="matrix(0.94, 0.35, 0.35, -0.94, -2189.18, -2726.77)" xlink:href="#linear-gradient-6"/><linearGradient id="linear-gradient-59" x1="3400.09" y1="-1889.37" x2="3404.49" y2="-1889.37" gradientTransform="matrix(0.94, 0.35, 0.35, -0.94, -2189.18, -2726.77)" xlink:href="#linear-gradient-6"/><linearGradient id="linear-gradient-60" x1="3386.37" y1="-1890.56" x2="3389.4" y2="-1890.56" gradientTransform="matrix(0.94, 0.35, 0.35, -0.94, -2189.18, -2726.77)" xlink:href="#linear-gradient-6"/><linearGradient id="linear-gradient-61" x1="3387.47" y1="-1885.99" x2="3389.22" y2="-1885.99" gradientTransform="matrix(0.94, 0.35, 0.35, -0.94, -2189.18, -2726.77)" xlink:href="#linear-gradient-6"/><linearGradient id="linear-gradient-62" x1="3380.87" y1="-1887.69" x2="3383.55" y2="-1887.69" gradientTransform="matrix(0.94, 0.35, 0.35, -0.94, -2189.18, -2726.77)" xlink:href="#linear-gradient-6"/><linearGradient id="linear-gradient-63" x1="3410.97" y1="-1884.14" x2="3416.83" y2="-1884.14" gradientTransform="matrix(0.94, 0.35, 0.35, -0.94, -2189.18, -2726.77)" xlink:href="#linear-gradient-6"/><linearGradient id="linear-gradient-64" x1="3403.23" y1="-1882.24" x2="3407.47" y2="-1882.24" gradientTransform="matrix(0.94, 0.35, 0.35, -0.94, -2189.18, -2726.77)" xlink:href="#linear-gradient-6"/><linearGradient id="linear-gradient-65" x1="3418.28" y1="-1882.23" x2="3421.33" y2="-1882.23" gradientTransform="matrix(0.94, 0.35, 0.35, -0.94, -2189.18, -2726.77)" xlink:href="#linear-gradient-6"/><linearGradient id="linear-gradient-66" x1="3418.62" y1="-1885.91" x2="3420.39" y2="-1885.91" gradientTransform="matrix(0.94, 0.35, 0.35, -0.94, -2189.18, -2726.77)" xlink:href="#linear-gradient-6"/><linearGradient id="linear-gradient-67" x1="3424.85" y1="-1884.2" x2="3426.97" y2="-1884.2" gradientTransform="matrix(0.94, 0.35, 0.35, -0.94, -2189.18, -2726.77)" xlink:href="#linear-gradient-6"/><linearGradient id="linear-gradient-68" x1="-70.48" y1="1069.2" x2="-67.48" y2="1092.67" gradientTransform="matrix(0.97, -0.25, -0.25, -0.97, 598.49, 1411.8)" gradientUnits="userSpaceOnUse"><stop offset="0" stop-color="#32c8b9"/><stop offset="1" stop-color="#2d2c6b"/></linearGradient><linearGradient id="linear-gradient-69" x1="1750.52" y1="-87.14" x2="1750.52" y2="-110.8" gradientTransform="matrix(1, -0.05, -0.05, -1, -1496.12, 361.72)" xlink:href="#linear-gradient-68"/><linearGradient id="linear-gradient-70" x1="-71.51" y1="1083.52" x2="-98.1" y2="1085.17" xlink:href="#linear-gradient-68"/><linearGradient id="linear-gradient-71" x1="-355.07" y1="1417.88" x2="-348.59" y2="1444.57" gradientTransform="matrix(0.96, -0.29, -0.29, -0.96, 1008.06, 1657.51)" xlink:href="#linear-gradient-19"/><linearGradient id="linear-gradient-72" x1="-349.18" y1="1430.96" x2="-348.37" y2="1433.99" gradientTransform="matrix(0.96, -0.29, -0.29, -0.96, 1008.06, 1657.51)" xlink:href="#linear-gradient-19"/><linearGradient id="linear-gradient-73" x1="19.3" y1="253.56" x2="73.16" y2="253.56" gradientTransform="matrix(1, 0, 0, -1, 0, 689.37)" gradientUnits="userSpaceOnUse"><stop offset="0" stop-color="#b87251"/><stop offset="1" stop-color="#b67247"/></linearGradient><linearGradient id="linear-gradient-74" x1="309.52" y1="217.63" x2="351.34" y2="217.63" xlink:href="#linear-gradient-73"/><linearGradient id="linear-gradient-75" x1="332.43" y1="220.44" x2="385.54" y2="220.44" xlink:href="#linear-gradient-73"/><linearGradient id="linear-gradient-76" x1="879.35" y1="17.74" x2="956.46" y2="17.74" gradientTransform="matrix(1, 0.04, 0.04, -1, -332.79, 429.26)" xlink:href="#linear-gradient-73"/><linearGradient id="linear-gradient-77" x1="4049.73" y1="317.94" x2="4049.3" y2="271.27" gradientTransform="matrix(0.98, 0.19, 0.19, -0.98, -3669.04, -77.73)" gradientUnits="userSpaceOnUse"><stop offset="0" stop-color="#9f274a"/><stop offset="1" stop-color="#e35b59"/></linearGradient><linearGradient id="linear-gradient-78" x1="4049.61" y1="350.03" x2="4049.61" y2="294.68" xlink:href="#linear-gradient-77"/><linearGradient id="linear-gradient-79" x1="3986.04" y1="282.25" x2="4012.32" y2="283.61" xlink:href="#linear-gradient-77"/><linearGradient id="linear-gradient-80" x1="1951.72" y1="1231.75" x2="1966.57" y2="1292.94" gradientTransform="matrix(1, -0.05, -0.05, -1, -1555.53, 1788.62)" xlink:href="#linear-gradient-19"/><linearGradient id="linear-gradient-81" x1="2011.64" y1="1220.84" x2="2026.49" y2="1282.03" gradientTransform="matrix(1, -0.05, -0.05, -1, -1555.53, 1788.62)" xlink:href="#linear-gradient-19"/><linearGradient id="linear-gradient-82" x1="1968.38" y1="1261.85" x2="1970.18" y2="1268.53" gradientTransform="matrix(1, -0.05, -0.05, -1, -1555.53, 1788.62)" xlink:href="#linear-gradient-19"/><linearGradient id="linear-gradient-83" x1="4995.32" y1="31.18" x2="5000.25" y2="49.51" gradientTransform="matrix(0.96, 0.3, 0.3, -0.96, -4436.14, -1033.27)" gradientUnits="userSpaceOnUse"><stop offset="0.01" stop-color="#7a5053"/><stop offset="0.3" stop-color="#845553"/><stop offset="0.81" stop-color="#a06352"/><stop offset="1" stop-color="#ac6952"/></linearGradient><linearGradient id="linear-gradient-84" x1="4982.59" y1="-35.52" x2="4992.44" y2="1.04" xlink:href="#linear-gradient-83"/><linearGradient id="linear-gradient-85" x1="164.04" y1="6053.36" x2="164.04" y2="6050.24" gradientTransform="matrix(1, -0.05, 0.05, 1, -134.22, -5785.01)" gradientUnits="userSpaceOnUse"><stop offset="0" stop-color="#cb8d72"/><stop offset="0.57" stop-color="#e08f6f"/><stop offset="1" stop-color="#ea906e"/></linearGradient><linearGradient id="linear-gradient-86" x1="177.74" y1="6015.26" x2="100.93" y2="6091.65" gradientTransform="matrix(1, -0.05, 0.05, 1, -134.22, -5785.01)" gradientUnits="userSpaceOnUse"><stop offset="0" stop-color="#795ea4"/><stop offset="0.37" stop-color="#a68cb3"/><stop offset="0.79" stop-color="#d2b9c1"/><stop offset="0.99" stop-color="#e3cac7"/></linearGradient><linearGradient id="linear-gradient-87" x1="321.28" y1="5989.83" x2="277.92" y2="6032.94" gradientTransform="translate(-8.4 -5734.42)" xlink:href="#linear-gradient-86"/><linearGradient id="linear-gradient-88" x1="335.92" y1="5979.6" x2="292.56" y2="6022.71" gradientTransform="translate(-8.4 -5734.42)" xlink:href="#linear-gradient-86"/><linearGradient id="linear-gradient-89" x1="96.46" y1="6024.4" x2="96.36" y2="6019.19" gradientTransform="matrix(1, -0.05, 0.05, 1, -134.22, -5785.01)" gradientUnits="userSpaceOnUse"><stop offset="0" stop-color="#7f4a3b"/><stop offset="1" stop-color="#61344f"/></linearGradient><linearGradient id="linear-gradient-90" x1="-985.12" y1="6048.18" x2="-985.22" y2="6042.23" gradientTransform="matrix(-1, 0.05, 0.05, 1, -953.29, -5751.02)" xlink:href="#linear-gradient-89"/><linearGradient id="linear-gradient-91" x1="9618.47" y1="-1323.59" x2="9643.92" y2="-1325.82" gradientTransform="translate(9784.25 2595.5) rotate(-158.3)" gradientUnits="userSpaceOnUse"><stop offset="0" stop-color="#b62820"/><stop offset="1" stop-color="#fab42d"/></linearGradient><linearGradient id="linear-gradient-92" x1="9625.09" y1="-1312.53" x2="9625.09" y2="-1262.36" xlink:href="#linear-gradient-91"/><linearGradient id="linear-gradient-93" x1="11536.89" y1="-654.77" x2="11580.32" y2="-654.77" gradientTransform="translate(11814.81 1835.16) rotate(-169.03)" xlink:href="#linear-gradient-73"/><linearGradient id="linear-gradient-94" x1="11536.91" y1="-657.27" x2="11580.39" y2="-657.27" gradientTransform="translate(11814.81 1835.16) rotate(-169.03)" xlink:href="#linear-gradient-73"/></defs><g class="cls-1"><g id="Layer_1" data-name="Layer 1"><g id="Layer_2" data-name="Layer 2"><g id="Dump"><g id="Layer_2-2" data-name="Layer 2-2"><g id="Layer_1-2" data-name="Layer 1-2"><g id="Layer_2-2-2" data-name="Layer 2-2-2"><g id="Dump-2"><path class="cls-2" d="M0,453.84s55.78,6.43,68.74,10,17.76,6.72,38.74,13.48,73.62,26.47,95.27,36.22,60.05,14.51,60.05,14.51,18.72,1.49,19.57-2.21,6.32-11.79,6.32-11.79,22-20.31,30.17-19.28,5.69.58,20.12-.1a106.08,106.08,0,0,0,25.91-4.62s93.3-22.94,102.38-22.52,25.08.25,30.58-.16,143-12.08,143-12.08-300.37-7.09-303.8-7.82-73.05-3.92-99.71-5.81-76.52-2.15-89.66-3.09-31.93,7.76-43.17,1.66S0,453.84,0,453.84Z"/><path class="cls-3" d="M535.15,439.82,523,435.05l-17.62-7.84L498,420.72l-.8-14.67-21-25.34L460.36,360.5l-18-4.66-1.8-14.79c-15-4.6-27.75-13.14-37.93-21.86a92.53,92.53,0,0,1-13.42-13.71c-2.83-3.69-6.48-8-7.18-12.19s2-8.5,3-12.55c1.62-6.61,2.42-13.41,1.08-20.06a26.24,26.24,0,0,0-3.52-8.63l-3.52-1.47L375.6,250l-8.15-3.7-13.53-6.36-7.1-6.19-1.29-1.25a60.91,60.91,0,0,1-6.53-1.73c-6.16-1.89-12.27-3.88-18.53-5.57-6.92-1.86-15.85-3.34-20.29,1.94-2.84,3.37-3.47,7.49-6.91,10.69-2.67,2.48-6.71,4.41-10.64,6.16l-.38,1.16-4.5,1.29a12.44,12.44,0,0,1,.21,2.44,7,7,0,0,1-1.84,3,1.61,1.61,0,0,1,.1.53,2.05,2.05,0,0,1,0,1.54,5.14,5.14,0,0,1-3,3.06c-3.47,1.64-6.61.17-10.19.08-2.05,0-4,.74-6.13.71a22.08,22.08,0,0,1-2.44-.19l-6.15,4.68-6.47,2.39-1.18.42-.33.15-2.2,1.07-3.86,3.08-2.17,3.23-7.57,10a18,18,0,0,0,.54,8.85c1.85,6,3.29,11.31-4.31,15.94-5.6,3.41-13.09,7.14-20.62,7.66a38.82,38.82,0,0,0-7.5,1.12c-.84.36-1.71.69-2.59,1a19.69,19.69,0,0,0-2.89,3.55l-3.25,16.14-9.74,5.21-12.61,25.55-31.16,10.83-8.52,10.61L81.47,409.38,75,414.11l-5.45,9.07L0,453.79l35.82.55.14.84,34.87,2.87,39.27-3,113.6,2.49,72,19,46.11-4.61L371,473.64,393,455.25l36.35.08,211.64.58.43-1.44Z"/><path class="cls-4" d="M535.15,439.82,523,435.05l-17.62-7.84L498,420.72l-.8-14.67-2-2.37a121.82,121.82,0,0,1-14.8-.39,38.49,38.49,0,0,1-11.54-3.06c-4.14-1.89-7.5-5-11.34-7.38-7.49-4.66-16.09-7.32-24.87-5.21a31.6,31.6,0,0,0-13.13,6.74c-3.41,2.85-6.66,6.21-10.79,8-8.59,3.76-18.46,2.42-27.52,1.54-9.54-.91-18.76-3.49-28.15-5.27s-18.74-2.59-27.87.92c-7.52,2.89-14.3,8.69-22.47,9.67-7.94.95-12.28-6.13-17.46-10.81-6.86-6.21-18.36-4.4-26.78-3.78-6.48.48-13.47-.13-19.74,1.8-2.5.77-5.08,2.29-5.48,5.13-.43,3.1,2.83,5.42,2.55,8.61-.62,7-10.65,5.16-15.31,5.59-10.23,1-20.52.52-30.76,1.35-20.42,1.66-38.76,11.14-58.33,16.32-7.93,2.1-16.08,3.6-24.29,2.48-9.59-1.31-17.55-6.51-26.49-9.76a100,100,0,0,0-11-3.28l-.14.23L0,453.79l35.82.55.14.84,34.87,2.87,39.27-3,113.6,2.49,72,19,46.11-4.61L371,473.64,393,455.25l36.35.08,211.64.58.43-1.44Z"/><path class="cls-5" d="M224,317.27c10.63,2.64,22.21.15,32.47,3.92s16.14-2.73,27-5.49c8.88-2.53.21-23.59,13.49-26.83,2.83.38,34.19.86,43.1,7.11,6.38,4.47,4.33,31.11,8.5,31.89,6,1.13,11.1.38,17.05-1.36,5.32-1.55,10.05-4.89,15-7.4s35,14.36,40.08,12.55c-2.28-2.3-29.57-23.72-31.45-26.18-2.83-3.69-6.48-8-7.18-12.19s2-8.5,3-12.55c1.62-6.61,2.42-13.41,1.08-20.06a26.22,26.22,0,0,0-3.55-8.63l-3.52-1.47L375.6,250l-8.15-3.7-13.53-6.36-7.1-6.19-1.29-1.25a60.91,60.91,0,0,1-6.53-1.73c-6.16-1.89-12.27-3.88-18.53-5.57-6.92-1.86-15.85-3.34-20.29,1.94-2.84,3.37-3.47,7.48-6.91,10.69-2.67,2.48-6.71,4.41-10.64,6.16l-.38,1.16-4.5,1.29a12.44,12.44,0,0,1,.21,2.44,7,7,0,0,1-1.84,3,1.61,1.61,0,0,1,.1.53,2.15,2.15,0,0,1,0,1.54,5.14,5.14,0,0,1-3,3.06c-3.47,1.64-6.61.17-10.19.08-2.05,0-4,.74-6.13.71a22.08,22.08,0,0,1-2.44-.19l-6.15,4.68-6.47,2.39-1.18.42-.33.15-2.2,1.07-3.86,3.08-2.17,3.23-7.57,10a18,18,0,0,0,.54,8.85c1.85,6,3.29,11.31-4.31,15.94-.62.37-24.23,19.11-24.89,19.49C198.18,327.34,221.81,316.71,224,317.27Z"/><path class="cls-6" d="M259.05,344.19l5.38.06-5.5,3.1s-5.72-.61-6.09-.47-7.36.84-7.36.84-13-3-12.53-3,22.8-.59,22.8-.59Z"/><polygon class="cls-7" points="234.98 331.22 239.85 330.36 244.51 333.54 247.84 332.3 258.24 336.04 257 337.9 259.11 340.73 257.11 341.34 261.72 344.07 257.5 346.02 251.54 344.12 248.97 346.07 237.29 344.98 237.81 341.47 240.5 340.92 236.92 340.7 235.81 334.97 237.98 334.86 234.98 331.22"/><polygon class="cls-8" points="237.81 341.47 246.6 342.98 246.57 343.64 247.52 342.99 242.69 341.52 243.82 341.2 240.15 340.9 237.81 341.47"/><path class="cls-8" d="M235.8,335c.58.34,6.68,2.55,6.42,2.65a39.48,39.48,0,0,1-4.24-2.76Z"/><polygon class="cls-8" points="243.32 336.97 243.69 336.44 245.5 336.35 247.11 337.09 255.29 335.62 259.11 340.73 257.11 341.34 261.72 344.07 257.85 345.8 256.47 343.79 255.5 343.41 255.28 342.7 253.44 342.6 254.47 340.42 246.3 338.16 245.69 337.7 243.3 337.03 243.32 336.97 243.32 336.97"/><path class="cls-7" d="M253.44,342.6s4-.89,3.77-.76-2.67,1.88-2.67,1.88l.61-.84-2.15.17Z"/><polygon class="cls-8" points="249.36 336.14 252.12 334.12 258.04 336.05 255.26 337.75 252.43 336.39 249.36 336.14 249.36 336.14"/><path class="cls-9" d="M152.48,431.43l5.39.06-5.52,3.1s-5.72-.61-6.09-.47-7.37.84-7.37.84-13-3-12.53-3,22.81-.6,22.81-.6Z"/><polygon class="cls-7" points="128.4 418.44 133.28 417.59 137.94 420.76 141.27 419.52 151.67 423.27 150.43 425.14 152.54 427.96 150.53 428.58 155.15 431.31 150.92 433.26 144.96 431.36 142.39 433.31 130.71 432.22 131.22 428.7 133.92 428.16 130.34 427.93 129.23 422.2 131.4 422.09 128.4 418.44"/><polygon class="cls-8" points="131.22 428.7 140.02 430.22 139.99 430.87 140.94 430.23 136.11 428.75 137.25 428.44 133.57 428.13 131.22 428.7"/><path class="cls-8" d="M129.23,422.2c.57.34,6.67,2.55,6.41,2.65a39.82,39.82,0,0,1-4.24-2.8Z"/><polygon class="cls-8" points="136.74 424.2 137.12 423.67 138.92 423.58 140.53 424.32 148.72 422.85 152.54 427.96 150.53 428.58 155.15 431.31 151.28 433.04 149.9 431.02 148.93 430.64 148.71 429.94 146.87 429.83 147.9 427.65 139.73 425.39 139.11 424.93 136.72 424.25 136.74 424.2 136.74 424.2"/><path class="cls-7" d="M146.87,429.83s4-.89,3.77-.75S148,431,148,431l.61-.84-2.14.16Z"/><polygon class="cls-8" points="142.79 423.37 145.55 421.35 151.48 423.28 148.69 424.98 145.85 423.62 142.79 423.37 142.79 423.37"/><path class="cls-7" d="M392.21,368.57c-3.35-.72-7,1.5-8.88,4.28-2.93-2.11-10.56,4.08-12.94,5.33,2.27,1.12.89,3.16.08,4.78,5.32-.54-1.69,2.64-1.89,3.82,3.06,1.74,7.46-.15,10-2.09,3,3.56,21.66-4.13,10.17-5.45l3.46-1c-.55-1.6,1.48-7.53-2.19-5.5Z"/><path class="cls-8" d="M391.47,379.2l-8.3,3.33c.5,1.2-.44.24-.9.21l4.43-2.46-1.17-.07C386.94,379.68,390,378.87,391.47,379.2Z"/><path class="cls-8" d="M392.14,372.42c-.49.46-6,3.9-5.75,3.94C387.87,375.29,390.1,372,392.14,372.42Z"/><path class="cls-8" d="M385.18,376c-.87-1.08-2.89.22-3.68.91-4.81-.43-10.11.23-11,6.09,5.31-.54-1.69,2.64-1.89,3.82,3.74,1.19,3.8.83,5.95-2,.41-2.13,3.25,0,.42-3.14A116.64,116.64,0,0,0,385.18,376Z"/><path class="cls-7" d="M376.39,383.6c-3.35.08-5-.33-.85,1.33C372.77,383.27,378.3,384.72,376.39,383.6Z"/><path class="cls-8" d="M379.11,376.42c-2.42-2.49-6.34.37-8.53,1.73C373.67,380.42,376,376.82,379.11,376.42Z"/><g class="cls-10"><path class="cls-11" d="M294.79,330.76a43.58,43.58,0,0,1,7.18,1.11c4.21,1.06,8.48,2.59,11.52,4.93l1.33-.41-.83-1.07,4.83-.12-1.29-2.67-5.1-.85-.24-2.09-8.11-3.3-1.26,1.37-3.63.2.27,1.19-4.61-1Z"/><polygon class="cls-12" points="281 326.59 283.41 326.92 285.61 325.28 287.27 325.83 292.27 323.81 291.61 322.92 292.57 321.51 291.57 321.24 293.75 319.83 291.64 318.96 288.79 319.99 287.49 319.09 281.82 319.82 282.15 321.52 283.48 321.74 281.74 321.91 281.32 324.73 282.38 324.75 281 326.59"/><polygon class="cls-13" points="330.88 332.64 331.84 331.37 330.48 329.74 331.5 328.95 330.38 325.66 329.2 325.81 327.81 324.93 327.27 325.43 326.17 323.87 324.67 324.83 325.17 326.68 323.82 327.19 323.32 330.54 325.35 330.77 325.91 330.08 325.69 331.1 328.83 332.02 329.1 331.42 330.88 332.64"/><polygon class="cls-14" points="327.76 342.91 328.31 342.17 327.52 341.21 328.12 340.75 327.47 338.83 326.78 338.92 325.97 338.4 325.66 338.69 325.02 337.78 324.14 338.35 324.44 339.43 323.65 339.72 323.36 341.68 324.54 341.81 324.87 341.41 324.74 342.01 326.56 342.54 326.72 342.2 327.76 342.91"/><polygon class="cls-15" points="347.12 339.17 346.55 338.43 344.99 338.35 344.76 337.74 342.14 337.04 341.86 337.49 340.81 337.67 340.98 338.02 339.55 337.87 339.73 338.7 341.17 339.14 341.09 339.77 343.25 341.04 344.06 340.43 343.76 340.01 344.39 340.42 346.03 339.66 345.7 339.37 347.12 339.17"/><path class="cls-16" d="M246.24,327.35l1.32,2.63,5.1.78.27,2.08,8.17,3.2.67-.76a1.86,1.86,0,0,1,.24-.72,3.36,3.36,0,0,0,.26-.54v-.1c0-.12,0-.13-.23-.54a17.18,17.18,0,0,0-1.28-1.67c-.73-.86-1.46-1.69-2.11-2.56a25.4,25.4,0,0,1-7.11-3.48l-1.32.43.84,1Z"/><path class="cls-17" d="M281.9,340.31l.81-.1c-.95-.37-1.94-.71-2.91-1.19a14.56,14.56,0,0,1-2.27-1.45l-1-.72-3.53,1.5.68.89-.92,1.44,1,.25-2.16,1.46,2.15.86,2.84-1.09,1.41.89,5.68-.83-.39-1.71Z"/><path class="cls-18" d="M234.44,333.11a5.59,5.59,0,0,1,1.52-.17,44.14,44.14,0,0,1,5.62.52l.2-1.4-2-.2-.56.7.21-1-3.14-.87-.27.6-1.78-1.2-1,1.29L234.6,333Z"/><polygon class="cls-19" points="237.3 319.84 236.75 320.58 237.54 321.51 236.95 321.98 237.6 323.87 238.28 323.77 239.09 324.27 239.4 323.98 240.04 324.87 240.91 324.3 240.62 323.23 241.4 322.93 241.68 320.99 240.5 320.87 240.18 321.28 240.3 320.69 238.49 320.19 238.33 320.53 237.3 319.84"/><path class="cls-20" d="M218,323.83l.57.72,1.55.06v.08a5,5,0,0,1,3.85-1.53h0l-2.13-1.23-.81.61.29.42-.62-.4-1.64.78.32.28Z"/></g><g class="cls-21"><path class="cls-22" d="M422.31,333.24l-6.17-1.19-3.51,19.58-29.56,5.66,46.66,1.21,7.37-8.06c-2.86-2.73-14.52-3.25-17-6.14S424.4,336.14,422.31,333.24Z"/></g><g class="cls-21"><polygon class="cls-23" points="383.82 298.46 380.69 293.52 368 318.9 357.21 326.09 351.89 332.96 360.82 329.51 374.84 325.04 388.12 321.09 397.51 318.55 378.28 313.12 383.82 298.46 383.82 298.46"/></g><polygon class="cls-24" points="115.32 401.61 128.08 405.68 136.27 398.39 150.03 374.7 150.88 371.64 130.41 378.51 121.89 389.12 108.59 398.51 115.32 401.61 115.32 401.61"/><g class="cls-25"><polygon class="cls-26" points="534.34 454.51 510.65 450.96 485.71 443.37 457.56 443.16 437.06 440.17 405.91 439.27 394.64 447.01 390.81 455.97 392.92 455.25 429.27 455.33 635.92 456.28 534.34 454.51 534.34 454.51"/></g><path class="cls-27" d="M276.86,310.05l-4.43,1.36-7.82-4.88-1.52-1.48-5-1.48-5.31.6-7.87-1-7.24.86-6.64-.55-.43-.16-2.35-.26-2.53-.53a12.26,12.26,0,0,1-4.92,4.92,69.48,69.48,0,0,1-8.14,4.3l5.14.69,21.79-2,14.83-.87,19.06,2.48,5.65-1.39.19-.53Z"/><path class="cls-28" d="M256.75,298.84l-23.41.57-6.84-1.77c.31,3.56-.82,6.82-5.73,9.81l-1.42.84,3.57.48,21.76-1.95,14.81-.88,7.47-1.28,18.7-5.48-17.17,2.1Z"/><path class="cls-29" d="M386.06,260.68a26.22,26.22,0,0,0-3.47-8.63l-3.52-1.47L375.6,250l-8.15-3.7-13.53-6.36-7.1-6.19-1.29-1.25a60.91,60.91,0,0,1-6.53-1.73c-6.16-1.89-12.27-3.88-18.53-5.57-6.92-1.86-15.85-3.34-20.29,1.94a26.68,26.68,0,0,0-3.18,5.31l10.69,11,30.24,9.68,18.52,1.41L375,259.21l11.62,5.51A34.13,34.13,0,0,0,386.06,260.68Z"/><path class="cls-30" d="M344.42,232.23c-1.82-.4-3.62-.91-5.46-1.47-6.16-1.89-12.27-3.88-18.53-5.57s-13.87-3-18.64.43l1.28.86,10.29,4.66,12,1.43,12.8,4.55,10.74-.58L346,233.7Z"/><path class="cls-31" d="M277.82,247.33a5.31,5.31,0,0,1,.1,1.54,7,7,0,0,1-1.84,3,1.61,1.61,0,0,1,.1.53,2.05,2.05,0,0,1,0,1.54,5.15,5.15,0,0,1-2.95,3.06c-3.47,1.64-6.61.17-10.19.08a36,36,0,0,0-4.85.63,10.78,10.78,0,0,1,1.39.82c1.85,1.3,2.87,2.84,5.34,3.7,1.74.61,3.77.82,5.55,1.39,3.75,1.22,6.13,3.23,6.7,6.11.2,1,0,2,.15,3a6,6,0,0,0,.89,2c2.14,1,13.29,2,15.4,3-10.34-6.18-12-12.36-8.45-18.52Z"/><polygon class="cls-32" points="537.23 441.45 535.15 439.82 522.97 435 505.35 427.16 503.92 426.27 537.23 441.45 537.23 441.45"/><g class="cls-33"><polygon class="cls-34" points="421.5 392.5 419.4 387.82 414.5 389.31 411.46 392.53 412.56 393.49 422.89 412.65 426.92 420.96 424.35 400.01 421.5 392.5 421.5 392.5"/></g><g class="cls-33"><polygon class="cls-35" points="434.18 375.28 432.13 382.35 435.03 387.83 438.98 398.52 451.16 384.28 456.74 390.5 455.35 382.45 448.32 362.21 434.18 375.28 434.18 375.28"/></g><path class="cls-36" d="M209.36,454.1a47,47,0,0,1,6.63-1.58,27.83,27.83,0,0,1,7.68.16c8.62,1.24,16.3,5.74,24.73,7.69s16.92-.41,25.4,0a47.45,47.45,0,0,1,13.77,2.94,144.34,144.34,0,0,0,14.65,4.56,65.28,65.28,0,0,0,14.18,1.95l-8.07-9.77-7.25-5.43L294,451.35l-15-12.18-8.14-6.51-5.75-2.4-4.38-.63-4.18-5.94-.89-4.5-5.48-3.6-11.31,2.64-5,6.8L218.23,437.1l-17.54,12.4-4.81,4.36,8.29,1.07A21.22,21.22,0,0,0,209.36,454.1Z"/><path class="cls-37" d="M288.83,474.66l6.89,1.82,6.63-.67Q295.58,475.26,288.83,474.66Z"/><g class="cls-38"><path class="cls-39" d="M234.54,430.05c1.45,1.12,3,2.17,4.5,3.19,6.47-.14,13.27-1.81,18.19,3.6.89,1,1.59,2.13,2.51,3.09a9.44,9.44,0,0,0,4.32,2.32c4,1.18,8.27,1.34,12,3.35,2.78,1.48,4.85,3.83,7.29,5.74,2.89,2.27,6.5,3.26,9.84,4.65a41.64,41.64,0,0,1,9.65,5.42c3.36,2.61,7.45,3.95,11.09,6.09.39.22.75.47,1.12.71l-6.72-8.16-7.25-5.43L294,451.35l-15-12.18-8.14-6.51-5.75-2.4-4.38-.63-4.18-5.94-.9-4.5-5.47-3.6-11.31,2.64-5,6.8-2.62,2c.06.06.11.13.16.19A23.33,23.33,0,0,0,234.54,430.05Z"/></g><path class="cls-40" d="M347.53,422.55c1.66,2.1,3.21,4.29,4.69,6.51l-4.12-24.87-16.65-24.38.73-16.9-58.56-16.58-23.18-3.89-69.66,3.33,43.48,7.92,17.56,5.7,6.47,4.19,11,1.46,41.19,8.77,10.42-.17,24.15,24.41,2.86-.41,9.29,24.6A3.26,3.26,0,0,1,347.53,422.55Z"/><path class="cls-41" d="M227.85,333.05c-3.19-11.43-7.52-24.1-20.07-29-5.23-2-11.58-2.55-15.82-5.76,3.23-3.87-4-10.72-4.47-15.18-5.81,1.43.73,5.67-5.2,6-3.78.23-2.21.7-5.92.36-1.08-.1-1.66,3.3-2.26,4.12-1,1.31,3,3.69,4.33,4.54,3.67,2.32,3.49,2.4,8.2,3-4.69,5.71-14.32,7.39-19.21,13-5.55,6.34-2.79,14.53-2.23,21.95.87,11.65-4.33,24.47,1.3,34.8,2.5-5.07,10.59-6.32,16.79-5.58s12.69,2.52,18.69.25c4.8-1.82,8.33-6,13.37-7.08,2.59-.57,5.22-.23,7.84-.39,6.39-.4,10.23-2.1,9.64-7.12C232.13,344.9,229.46,338.81,227.85,333.05Z"/><path class="cls-42" d="M164.16,321.67a47,47,0,0,1,5.81,9.19q.87-3.15,1.72-6.28c2.2,1.8,2.45,4.7,3.34,7.22s3.29,5.11,6.52,4.54a9.63,9.63,0,0,0-.38-11.22c-.56-.69-.67-2.14.35-2,.75,1.55.24-5,1.4-6.48.48-.63,4.25,5.15,4.79,4.55s1.8-.88,2.15-.25c-3,1.72.52,4.44-1.8,7.7a16.77,16.77,0,0,0,6.7-2.88c.88.62-1.59-11-.41-10.89-1-6,11.89,11.44,9,6,2.67,2.27-.3-7.66,1.76-5,3.9,5.12,4.46,7.18,10.14,10.95-.39-4.41.36-4.48,2.41-8.76.69-1.43,1.65-2.89,2.21-4.34,3.94,5.68,6.16,12.68,8,19.26,1.61,5.79,4.28,11.88,5,17.86.59,5-3.25,6.72-9.64,7.12-2.62.16-5.25-.18-7.84.39-5,1.09-8.57,5.26-13.37,7.08-6,2.27-12.49.5-18.69-.25s-14.29.51-16.79,5.58c-5.63-10.33-.43-23.15-1.3-34.8C164.84,331.31,163.62,326.31,164.16,321.67Z"/><path class="cls-43" d="M232.83,350.88c-.7-6-3.37-12.07-5-17.86q-.35-1.2-.69-2.43v-.11c-.23-.8-.47-1.59-.72-2.39V328c-3.14-9.92-7.86-19.78-18.59-24a65.23,65.23,0,0,0-7-2.08l-.39-.11-.69-.18-.85-.25-.42-.12c-.41-.13-.81-.25-1.2-.39l-.39-.13c-.32-.11-.62-.23-.93-.35l-.34-.13c-.39-.16-.78-.33-1.16-.52h-.1l-.38-.2c1-.78,1.9-1.74,1.19-2.4-.42-.39-1.34-.33-2.36-.08a2.66,2.66,0,0,1,.06-.89,3.21,3.21,0,0,1,0-.62h-.09c-.28-3.87-4.93-8.92-5.28-12.46-5.81,1.43.73,5.67-5.2,6-3.78.23-2.21.7-5.92.36-1.08-.1-1.66,3.3-2.26,4.12-1,1.31,3,3.69,4.33,4.54,2.48,1.57,3.21,2.11,4.87,2.48l-.39.25c-.55.35-1.15.91-.82,1.39a1.06,1.06,0,0,0,.59.35,5.53,5.53,0,0,0,2.59-.1l-.08.08-.84.72-.44.34c-.29.22-.6.44-.91.65l-.42.29q-.57.38-1.17.72c-4.76,2.83-10.55,4.83-14,8.77a13.41,13.41,0,0,0-3.27,7.62h0c-.07.57-.11,1.16-.13,1.75h0a57.45,57.45,0,0,0,.79,9.07c.07.55.14,1.09.2,1.63v.17c.07.57.12,1.14.17,1.7.87,11.65-4.33,24.47,1.3,34.8,2.35-4.75,9.6-6.15,15.61-5.69l1.18.11c3.1.38,6.27,1,9.42,1.26a22.34,22.34,0,0,0,8.14-.63c.38-.11.75-.24,1.13-.38,4.8-1.82,8.33-6,13.37-7.08,2.59-.57,5.22-.23,7.84-.39a22.74,22.74,0,0,0,5.19-.82C231.55,356.21,233.24,354.33,232.83,350.88Z"/><path class="cls-44" d="M186.64,301.05a6.42,6.42,0,0,1-.88-.12c1.09-.47,2.22-.88,3.27-1.42a19.14,19.14,0,0,1,3.12-1.52l-.19.24c3,2.27,7,3.19,11,4.25a6,6,0,0,0,.08,3,20.82,20.82,0,0,0,2,3.53,7.2,7.2,0,0,1,.71,4.47,32.73,32.73,0,0,0-11.38-9c-.67,2.44-1.31,4.88-1.94,7.31-2.47-.72-1.7-4.64-4.3-5l-2.47,3.09a1.5,1.5,0,0,0-.75-1.43c-.49.57-1.67,1.12-1.9.49a.82.82,0,0,1,0-.44c.24-.95.49-1.9.73-2.85a5.18,5.18,0,0,0-2.5-.23A20,20,0,0,0,186.64,301.05Z"/><path class="cls-45" d="M194.43,299.74c-2.84,1.83-6.13,2.46-9.45,3a14.81,14.81,0,0,0,1.66-1.7,6.42,6.42,0,0,1-.88-.12c1.09-.47,2.22-.88,3.27-1.42a19.14,19.14,0,0,1,3.12-1.52l-.19.24A14.26,14.26,0,0,0,194.43,299.74Z"/><path class="cls-45" d="M182.86,300.4a7.43,7.43,0,0,1,1.93-1.2c.35-.13.73-.22,1.08-.35a13.82,13.82,0,0,0,2.41-1.26,20.14,20.14,0,0,1,4.58-2.08,3.21,3.21,0,0,0,0,.62,2.82,2.82,0,0,0-.06,1c-.27.38-.55.75-.85,1.11.23.18.47.34.72.5-.43.35-.84.65-1.07.81a10.92,10.92,0,0,1-2.93,1.28l-2.59.85c.19-.2.37-.4.55-.62A34.15,34.15,0,0,1,182.86,300.4Z"/><path class="cls-41" d="M188.91,298.43a13.36,13.36,0,0,1-2.52,1c-.37.09-.75.14-1.12.23a8,8,0,0,0-2.35,1.19c-.55.35-1.15.91-.82,1.39a1.06,1.06,0,0,0,.59.35,6.25,6.25,0,0,0,2.82-.14l3.49-.74a11,11,0,0,0,3-1c1-.53,4.34-2.52,3.13-3.65C194.14,296.13,190,297.93,188.91,298.43Z"/><path class="cls-46" d="M178.44,298.11a25.68,25.68,0,0,0,3.55,2.07l1.08-.4h-.32a4.26,4.26,0,0,1-1.43-.45,22.58,22.58,0,0,1-3.13-2.37c-.49-.39-1-.69-1.5-1.1a10.8,10.8,0,0,1-1.18-1.26,5.59,5.59,0,0,1-.85-1.35c-.06-.13-.13-.26-.2-.38a4,4,0,0,1-.35.72C173.16,294.88,177.1,297.26,178.44,298.11Z"/><path class="cls-47" d="M185.28,302.25H185a5.16,5.16,0,0,1-.88.1.75.75,0,0,1-.49-.19.64.64,0,0,1-.18-.69,2.08,2.08,0,0,1,.7-.8h0a.35.35,0,0,1-.1-.26c-.33.14-.66.28-1,.4l-.16.11c-.55.35-1.15.91-.82,1.39a1.06,1.06,0,0,0,.59.35,5.53,5.53,0,0,0,2.59-.1l-.08.08-.84.72-.44.34c-.29.22-.6.44-.91.65l-.42.29q-.57.38-1.17.72c-4.76,2.83-10.55,4.83-14,8.77a13.41,13.41,0,0,0-3.27,7.62h0c-.07.57-.11,1.16-.13,1.75h0a57.45,57.45,0,0,0,.79,9.07c.07.55.14,1.09.2,1.63v.17c.07.57.12,1.14.17,1.7.8,10.71-3.52,22.39.14,32.23a4.25,4.25,0,0,1,.5-.7c1.46-1.68,1.91-4.49,2-7.16a4,4,0,0,1-1.9-4.83c.58-1.92.37-3.82.68-5.78.2-1.33,1.11-2.82,1-4.15-.06-1.11-1.17-2.14-1.18-3.51a18.13,18.13,0,0,1,.57-2.73c.24-1.69.24-.5-.55-2.54-.6-1.56-.14-2.53-.07-4.09,0,.2-.14-1.12-.21-1.62a10.8,10.8,0,0,1,.44-2.88c-.16-1.11-.61-2.09-.19-3.38.12-.37.87-2.51.83-1.24.1-3.12-.74-5.09,1.34-7.92,1.56-2.11,3.9-3.41,6.1-4.69a37.83,37.83,0,0,0,8.45-6.32,4.07,4.07,0,0,1,1.33-.92,9.9,9.9,0,0,0,.77-1.14.58.58,0,0,1,.08-.22A.45.45,0,0,1,185.28,302.25Z"/><polygon class="cls-27" points="336.87 377.67 330.14 371.4 294.65 363.4 288.51 362.82 213.79 353.43 172.58 358.55 159.02 371.32 164.86 371.71 175.02 373.7 185.32 374.65 207.12 380.28 222.8 387.21 224.88 387.49 242.47 380.65 242.87 380.38 256.86 380.82 274.77 384.23 296.39 396.89 304.85 392.93 338.33 388.29 336.87 377.67 336.87 377.67"/><polygon class="cls-48" points="181.13 359.19 185.49 366.09 194.35 366.19 207.91 366.35 216.52 370.07 225.22 370.17 243.32 367.62 254.76 362.98 259.05 359.91 213.79 353.43 172.58 358.55 181.13 359.19 181.13 359.19"/><polygon class="cls-49" points="442.81 373.31 448.56 367.49 448.76 361.87 417.62 373.05 408.13 377.1 400.01 376.71 366.28 382.7 364.27 382.83 359.1 384.71 358.56 386.23 359.66 390.02 366.06 397.33 369.92 399.94 398.97 398.14 412.17 390.6 415.79 388.01 416.06 387.61 418.13 386.66 427.09 389.69 435.63 384.45 436.06 383.68 442.81 373.31 442.81 373.31"/><g class="cls-50"><polygon class="cls-51" points="359.63 392.71 372.24 390.8 393.39 386.45 402.15 376.88 400.01 376.71 366.28 382.7 364.27 382.83 359.1 384.71 359.01 391.26 359.63 392.71 359.63 392.71"/></g><polygon class="cls-52" points="231.47 428.03 206.39 426.27 199.39 419.35 184.09 425.33 174.46 423.57 164.17 423.57 153.09 428.03 145.82 428.03 136.01 430.54 126.31 430.54 116.42 434.02 104.68 437.67 96.04 439.96 100.68 443.86 121.29 445.67 140.78 445.67 167.58 445.67 180.44 443.86 208.96 442.59 231.47 428.03 231.47 428.03"/><g class="cls-53"><polyline class="cls-54" points="234.3 274.09 252.63 281.11 268.87 281.19 272.2 290.14 287.74 295.33 254.23 289.67 243.5 287.95 234.91 281.89 230.38 277.62 233.28 273.27 236.04 273.71"/></g><path class="cls-55" d="M376.85,285.69l9.81-20.22v-.4l-5.88-1.48-3.13-2.4-3.37.79h.59L377,264.9l-.46,3.87Z"/><g class="cls-10"><path class="cls-56" d="M188.3,404.66a33.28,33.28,0,0,1,5.71.9,24.61,24.61,0,0,1,9.08,4l1.07-.34-.64-.87,3.87-.1-1-2.17-4-.7-.14-1.71-6.39-2.7-1,1.12-2.91.16.19,1-3.66-.83Z"/><polygon class="cls-57" points="177.38 401.25 179.3 401.52 181.11 400.18 182.42 400.63 186.47 398.98 185.97 398.25 186.77 397.09 185.98 396.87 187.75 395.72 186.09 395.01 183.78 395.85 182.76 395.11 178.22 395.71 178.44 397.1 179.49 397.28 178.09 397.42 177.69 399.73 178.54 399.74 177.38 401.25"/><polygon class="cls-58" points="217.1 406.2 217.9 405.16 216.86 403.82 217.7 403.17 216.89 400.49 215.94 400.61 214.85 399.89 214.41 400.3 213.57 399.02 212.35 399.81 212.7 401.32 211.6 401.74 211.11 404.48 212.72 404.67 213.2 404.1 212.99 404.93 215.47 405.68 215.71 405.2 217.1 406.2"/><polygon class="cls-59" points="214.32 414.58 214.78 413.97 214.18 413.19 214.67 412.81 214.2 411.25 213.65 411.32 213.01 410.9 212.76 411.14 212.27 410.39 211.56 410.85 211.76 411.74 211.13 411.98 210.84 413.58 211.78 413.68 212.05 413.36 211.93 413.84 213.37 414.28 213.51 413.99 214.32 414.58"/><polygon class="cls-60" points="229.88 411.52 229.45 410.92 228.21 410.86 228.04 410.36 225.97 409.79 225.74 410.15 224.89 410.3 225.01 410.58 223.88 410.47 224 411.14 225.14 411.5 225.06 412.01 226.74 413.05 227.4 412.55 227.18 412.21 227.67 412.55 229 411.92 228.75 411.69 229.88 411.52"/><path class="cls-61" d="M149.58,401.87l1,2.15,4.06.63.17,1.71,6.45,2.61.56-.62a1.38,1.38,0,0,1,.2-.59,2,2,0,0,0,.22-.44v-.09c0-.09,0-.1-.17-.43a15,15,0,0,0-1-1.37c-.56-.7-1.12-1.38-1.62-2.09a19.36,19.36,0,0,1-5.6-2.85l-1.07.36.65.86Z"/><path class="cls-62" d="M177.76,412.45l.65-.07a25,25,0,0,1-2.3-1,11.75,11.75,0,0,1-1.78-1.19l-.77-.59-2.85,1.22.52.73-.77,1.18.79.2-1.75,1.2,1.69.69,2.3-.88,1,.73L179,414l-.26-1.4Z"/><path class="cls-63" d="M140,406.58a4.2,4.2,0,0,1,1.22-.14,33.62,33.62,0,0,1,4.48.42l.2-1.14-1.62-.16-.47.57.2-.84-2.49-.71-.23.49-1.4-1-.79,1.05,1,1.32Z"/><polygon class="cls-64" points="142.61 395.73 142.15 396.33 142.76 397.09 142.28 397.48 142.76 399.02 143.31 398.94 143.94 399.35 144.2 399.11 144.69 399.84 145.4 399.37 145.18 398.5 145.81 398.25 146.09 396.66 145.15 396.57 144.88 396.9 144.99 396.42 143.55 396.01 143.42 396.29 142.61 395.73"/><path class="cls-65" d="M127.12,399l.43.59,1.24.05v.06a4.08,4.08,0,0,1,3.11-1.25h0l-1.68-1-.66.51.23.34-.5-.33-1.32.64.25.23Z"/></g><g class="cls-10"><path class="cls-66" d="M311.9,259.89a18.16,18.16,0,0,1-3.18-1.74,11.32,11.32,0,0,1-4-4.3h-.8v.65l-2.44-.75-.29,1.5,2.23,1.26-.62,1,2.87,3,1.11-.45,1.87.51.28-.63,1.94,1.27Z"/><polygon class="cls-67" points="317.32 264.24 316.23 263.67 314.56 264.1 313.93 263.55 310.74 263.69 310.76 264.24 309.79 264.77 310.19 265.07 308.62 265.39 309.36 266.17 311.15 266.15 311.48 266.81 314.56 267.41 314.99 266.52 314.4 266.19 315.33 266.4 316.51 265.09 315.99 264.9 317.32 264.24"/><polygon class="cls-68" points="294.69 252.95 293.77 253.4 293.86 254.41 293.07 254.62 292.46 256.39 293.1 256.52 293.48 257.18 293.92 257.03 293.91 257.97 295 257.75 295.41 256.77 296.25 256.75 297.69 255.22 296.76 254.77 296.24 255.01 296.71 254.56 295.48 253.59 295.14 253.83 294.69 252.95"/><polygon class="cls-69" points="299.83 248.56 299.3 248.82 299.36 249.41 298.9 249.53 298.55 250.55 298.92 250.62 299.14 251 299.39 250.92 299.39 251.46 300.02 251.34 300.25 250.77 300.74 250.76 301.57 249.87 301.04 249.61 300.73 249.75 301 249.49 300.29 248.93 300.09 249.07 299.83 248.56"/><polygon class="cls-70" points="289 247.13 289.01 247.58 289.75 247.87 289.65 248.2 290.69 248.97 290.99 248.8 291.57 248.89 291.61 248.69 292.26 249 292.46 248.57 291.91 248.13 292.17 247.84 291.56 246.88 290.95 247.04 290.94 247.28 290.78 246.99 289.7 247.08 289.76 247.27 289 247.13"/><path class="cls-71" d="M334.9,269.72l.23-1.51L332.85,267l.57-1.06-3-2.93-.59.25a1.38,1.38,0,0,1-.36.32,2.11,2.11,0,0,0-.31.21v.05a1,1,0,0,0-.06.3,6.73,6.73,0,0,0,.07,1c.07.54.15,1.07.18,1.61a9.11,9.11,0,0,1,2.37,2.9h.81l-.07-.66Z"/><path class="cls-72" d="M321.56,257.43l-.43-.09a12.53,12.53,0,0,1,1,1.06,5.54,5.54,0,0,1,.63,1.08c.08.18.16.35.25.52l2.25-.14v-.54l1-.54-.42-.29,1.56-.35-.77-.77-1.78.05-.36-.65-3.09-.55-.39.89Z"/><path class="cls-73" d="M342.73,268.88a2.55,2.55,0,0,1-.82-.17,17.84,17.84,0,0,1-2.63-1.2l-.57.65,1,.44.51-.24-.44.46,1.27,1,.34-.25.49.89.9-.47-.14-1Z"/><polygon class="cls-74" points="336.85 274.94 337.37 274.67 337.29 274.07 337.75 273.94 338.05 272.9 337.68 272.83 337.44 272.45 337.19 272.54 337.17 271.99 336.54 272.12 336.33 272.7 335.84 272.72 335.04 273.63 335.59 273.88 335.89 273.74 335.63 274.01 336.37 274.57 336.56 274.42 336.85 274.94"/><path class="cls-75" d="M347.84,276.23v-.45l-.76-.29h0a3.32,3.32,0,0,1-2.44.1h0l.66,1,.61-.17v-.25l.18.3,1.08-.11-.07-.19Z"/></g><g class="cls-10"><path class="cls-76" d="M323.94,240.18a14.86,14.86,0,0,1-2.45-.78,9.67,9.67,0,0,1-3.56-2.35l-.53.07.18.41-1.74-.22.16,1,1.72.57-.15.74,2.54,1.59.6-.4,1.33.12v-.43l1.55.61Z"/><polygon class="cls-77" points="328.43 242.39 327.6 242.14 326.63 242.6 326.09 242.31 324.07 242.75 324.21 243.09 323.71 243.54 324.04 243.69 323.1 244.06 323.76 244.48 324.9 244.28 325.27 244.67 327.39 244.72 327.46 244.1 327 243.95 327.65 243.99 328.11 243.02 327.73 242.96 328.43 242.39"/><polygon class="cls-78" points="311.23 237.56 310.74 237.95 311.04 238.59 310.58 238.81 310.6 240.01 311.04 240.03 311.43 240.41 311.69 240.27 311.9 240.87 312.55 240.61 312.58 239.94 313.13 239.84 313.69 238.7 312.99 238.51 312.71 238.72 312.91 238.38 311.89 237.89 311.73 238.08 311.23 237.56"/><polygon class="cls-79" points="313.53 234.19 313.25 234.41 313.42 234.78 313.15 234.91 313.17 235.61 313.42 235.61 313.65 235.84 313.8 235.75 313.92 236.1 314.3 235.96 314.32 235.57 314.63 235.51 314.96 234.85 314.55 234.74 314.39 234.86 314.5 234.66 313.91 234.38 313.82 234.49 313.53 234.19"/><polygon class="cls-80" points="306.2 234.42 306.31 234.71 306.86 234.82 306.87 235.04 307.72 235.43 307.87 235.29 308.27 235.28 308.25 235.16 308.74 235.28 308.77 234.99 308.31 234.76 308.41 234.55 307.8 233.99 307.44 234.16 307.49 234.32 307.31 234.14 306.64 234.32 306.72 234.43 306.2 234.42"/><path class="cls-81" d="M341,244.05l-.2-1-1.75-.55.12-.75-2.59-1.55-.32.22a.78.78,0,0,1-.16.24.8.8,0,0,0-.15.17h0v.2a2,2,0,0,0,.28.65c.1.22.35.67.49,1a7.71,7.71,0,0,1,2.19,1.61l.52-.08-.19-.42Z"/><path class="cls-82" d="M329.6,237.57h-.3a8.64,8.64,0,0,1,.91.57,4.92,4.92,0,0,1,.66.63l.28.3,1.42-.33-.15-.34.48-.45-.33-.14.93-.39-.68-.41-1.13.22-.38-.38h-2.12l-.05.61Z"/><path class="cls-83" d="M345.84,242.66a2.72,2.72,0,0,1-.57,0,17.16,17.16,0,0,1-2-.49l-.22.48.71.18.27-.22-.18.35,1,.47.16-.19.52.51.47-.39-.32-.64Z"/><polygon class="cls-84" points="343.44 247.16 343.71 246.93 343.53 246.56 343.79 246.43 343.75 245.72 343.49 245.72 343.25 245.5 343.11 245.59 342.97 245.24 342.6 245.39 342.6 245.78 342.28 245.85 341.98 246.52 342.39 246.62 342.55 246.5 342.44 246.7 343.05 246.97 343.14 246.86 343.44 247.16"/><path class="cls-85" d="M350.79,246.81l-.13-.28-.55-.11h0a2,2,0,0,1-1.54.33h0l.64.55.36-.17-.07-.16.19.17.67-.18-.09-.12Z"/></g><polygon class="cls-86" points="241.62 375.74 272.97 372.31 271.92 389.49 243.51 392.55 241.62 375.74"/><path class="cls-87" d="M263.47,362.21H258a2.62,2.62,0,0,1-2.45,2.79h-.13a2.51,2.51,0,0,1-2.78-2.21,2.33,2.33,0,0,1,0-.59h-5.37c-.22.74-5.62,13.54-5.62,13.54L273,372.31Z"/><polygon class="cls-88" points="241.62 375.74 235.22 376.89 239.04 392.27 243.51 392.55 241.62 375.74"/><path class="cls-89" d="M244.08,384.36c1.79,0,3.13,1.49,4.85,2,3.46.95,6.73-2.61,10.36-2.74,1.17,0,2.4.28,3.48-.17a9.45,9.45,0,0,0,1.74-1.2c2.78-2,6.62-1.06,9.8.06a18.7,18.7,0,0,1,5.9,3,6.49,6.49,0,0,1,2.57,5.64l-15.72,4.71a13.84,13.84,0,0,1-5.59.87c-1-.13-2.13-.49-3.09-.08-.78.34-1.26,1.09-1.92,1.61-1.73,1.35-4.22.84-6.42.71-3.34-.19-6.66.68-10,1.07-3.93.46-16.67,1.24-11.35-5.36,2-2.53,4.89-3.52,7.74-4.88C238.89,388.34,241.29,384.43,244.08,384.36Z"/><path class="cls-90" d="M239.19,389.05c2.35.16,4.72.65,7.08.3,1.4-.2,2.73-.79,4.11-1.08s2.81-.5,4.22-.71c2.74-.39,5.29-1.26,8-1.9s5.14-.42,7.83-.46c2.22,0,4.15-1.23,6.33-1.58.26,0,.51-.07.77-.09a33.61,33.61,0,0,0-3.19-1.27c-3.18-1.12-7-2-9.8-.06a9.45,9.45,0,0,1-1.74,1.2c-1.08.45-2.31.14-3.48.17-3.63.13-6.9,3.69-10.36,2.73-1.72-.47-3.06-2-4.85-2-2.48.06-4.65,3.15-6.83,4.67A15,15,0,0,0,239.19,389.05Z"/><path class="cls-91" d="M438.72,448.05c5.06,0,10.29.12,14.9,2.27,2.52,1.17,4.77,2.93,7.34,4,7.47,3,16.62-.25,23.55,3.92-7.46,4.52-16.8,2.7-25.46,2.45a131.16,131.16,0,0,0-13.15.52c-6,.44-28.93,7-31.89.59C408.3,449.41,433.69,448,438.72,448.05Z"/><path class="cls-92" d="M260.17,465.41c-2.93.78-6,1.62-8.25,3.67,1.17.94.16,2.86.33,4.38a3.46,3.46,0,0,0,2.82,2.74,9.8,9.8,0,0,0,4.1-.3c-.27,1,1.13,1.65,2.18,1.77l25.42,2.81c4.05.45,8.42.83,12-1.25-5-.91-10.07-2.16-15.14-2.64-3-.28-6.52.48-9.38-.42C266.58,473.76,270.53,462.65,260.17,465.41Z"/><path class="cls-93" d="M78.58,460.05c0,1,1.18,1.37,2.11,1.49l23,3.1a39.52,39.52,0,0,0,8.13.54c3.18-.22,40.14,3.59,41.58,1.08,2.08-3.65-24.83-9.45-27.1-10.64-7.55-4-12.58-1.66-20.24.82C103.57,457.27,78.59,459,78.58,460.05Z"/><path class="cls-94" d="M30.69,437.64a21.54,21.54,0,0,1,5.65-2.73,169.57,169.57,0,0,1,36.82-8.86c-2.55.08-4.47,2.27-6.47,3.9-5.4,4.4-12.71,5.16-19.06,7.92-2,.89-4,2-6,2.91-6.83,3.09-14.9,4.47-22.33,4.79.95-2.59,2.9-2,4.92-2.82C26.84,441.7,28.43,439.3,30.69,437.64Z"/><path class="cls-95" d="M351.34,471.35,329.8,475.2a20.77,20.77,0,0,1-4.24.46c-3.13-.09-12.29,0-14.53-2.2-4.51-4.47,2.25-5,5.43-5.26a97.27,97.27,0,0,1,17.57.05C338.88,468.69,346.8,472.17,351.34,471.35Z"/><path class="cls-96" d="M360.16,468.05a42.63,42.63,0,0,1,4.63.79,14.36,14.36,0,0,0,5,.71c2.34-.29,4.26-1.94,6.2-3.31a29.64,29.64,0,0,1,9.55-4.44,11.67,11.67,0,0,1-2.81,3.44L374.51,473a8.15,8.15,0,0,1-3.06,2.12c-3.48,1.07-7.16-2.73-10.58-1.48-1.15.43-2.05,1.37-3.16,1.89a9.52,9.52,0,0,1-5.18.34l-7-.86a35.39,35.39,0,0,1-9.59-2.1c-3.9-1.65-5.28-3.58-.29-4.4A85.31,85.31,0,0,1,360.16,468.05Z"/><path class="cls-97" d="M559.82,441.66a18.39,18.39,0,0,1,3.35-1.82c1.78-.56,3.68-.09,5.48.37a167.08,167.08,0,0,1,19.44,5.84,15.46,15.46,0,0,0,5.78,1.5c2.07,0,4.06-1,6.13-.95s4,1.18,6.12,1.27c1.89.08,3.7-.69,5.56-1.1s4-.34,5.34,1.06c.79.85,1.22,2.13,2.28,2.57a7.33,7.33,0,0,0,2.47.13c.84,0,1.81.6,1.72,1.45l-20.83.15a39.29,39.29,0,0,1-8.53-.57c-1.87-.4-3.68-1.07-5.58-1.32a30.84,30.84,0,0,0-6,.11c-10.63.75-21.28-.84-31.82-2.44a4.78,4.78,0,0,1-2.23-.72,5.18,5.18,0,0,1-1.49-2.7c-.31-1-.59-2.23.06-3.06,1.63-2.07,3.7.83,5.21,1.38C554.58,443.69,557.77,442.81,559.82,441.66Z"/><polygon class="cls-98" points="318.39 386.62 396.58 399.36 385.08 438.21 314.24 426.56 318.39 386.62"/><path class="cls-99" d="M378.7,369.83l-13.4-3.62c-.58,3.06-3.35,5.66-7.75,4.74-4.79-1-6.32-5.05-5.32-8.27l-13.09-3.54c-.92,1.55-20.75,27.48-20.75,27.48l78.19,12.74Z"/><polygon class="cls-100" points="318.39 386.62 302.19 385.07 303.5 422.98 314.24 426.56 318.39 386.62"/><path class="cls-101" d="M359.6,447.42c4.83.1,9.49-1.94,13.95-3.52s9.13-3,13.67-4.6a115.8,115.8,0,0,1,14.46-4.39,44.19,44.19,0,0,1,5.95-.86l-.14-.19c-3.35-4.32-8.1-7.6-12.84-10.68-7.16-4.65-16.06-9.27-23.86-6.57-1.61.55-3.11,1.42-4.85,1.61-2.88.33-5.7-1.21-8.57-1.89-8.92-2.1-18.75,3.94-26.69-.53-3.93-2.21-6.4-6.63-10.8-7.71-6.83-1.68-14.71,5.75-21.32,6.84-7.65,1.27-15.12,1.67-21.41,6.16-16.39,11.7,15.05,18.28,24.87,19.8,8.34,1.3,16.9,1.47,24.94,4.12,5.29,1.74,11.08,4.55,16,2.58,1.88-.76,3.44-2.18,5.51-2.44,2.57-.32,5,1.22,7.5,2.2a21.29,21.29,0,0,0,2.22.72A1.62,1.62,0,0,1,359.6,447.42Z"/><path class="cls-102" d="M404.65,436.81c-4.79,1.27-9.44,3-14.11,4.65-2,.7-4,1.36-6,2l5.49-1.65a145.69,145.69,0,0,1,19-4.61c2.3-.36,4.62-.61,6.94-.74-.18-.47-.39-.94-.61-1.41A45.74,45.74,0,0,0,404.65,436.81Z"/><path class="cls-103" d="M391,418.28c.07-.18.16-.33.24-.49-6-3.25-12.63-5.49-18.61-3.43a23,23,0,0,1-4.85,1.62c-2.88.33-5.7-1.21-8.58-1.89-8.91-2.1-18.75,3.94-26.69-.53-3.92-2.21-6.4-6.63-10.79-7.71-6.07-1.49-12.57,4.55-18.65,7.61,1.58.4,2.73-.49,4.29,0,5.63,1.89,11.15,4.6,17.1,5.34,3.51.44,7.05,0,10.58.21s7.1.69,10.64,1.15c6.9.89,13.55.58,20.43.87s12.73,2.4,19.31,4.07a19.84,19.84,0,0,0,3.16.52C389.3,423.17,390.09,420.71,391,418.28Z"/><path class="cls-104" d="M305.52,415.73c5.64,1.89,11.16,4.6,17.11,5.35,3.5.44,7.05,0,10.57.2s7.1.69,10.65,1.15c6.89.9,13.55.58,20.43.87s12.73,2.4,19.31,4.08c5.43,1.38,10.74-.1,16.26.53.64.08,1.27.18,1.91.28a86.4,86.4,0,0,0-7.11-5c-7.16-4.65-16.06-9.27-23.86-6.57-1.61.55-3.11,1.42-4.85,1.61-2.88.33-5.7-1.21-8.57-1.89-8.92-2.1-18.75,3.94-26.69-.53-3.93-2.21-6.4-6.63-10.8-7.71-6.06-1.49-13,4.2-19.06,6.26Q303.19,414.95,305.52,415.73Z"/><g class="cls-105"><path class="cls-106" d="M378.7,369.83l-13.4-3.62c-.58,3.06-3.35,5.66-7.75,4.74-4.79-1-6.32-5.05-5.32-8.27l-13.09-3.54c-.92,1.55-20.75,27.48-20.75,27.48l78.19,12.74Z"/><path class="cls-107" d="M359.6,447.42c4.83.1,9.49-1.94,13.95-3.52s9.13-3,13.67-4.6a115.8,115.8,0,0,1,14.46-4.39,44.19,44.19,0,0,1,5.95-.86l-.14-.19a34.16,34.16,0,0,0-5.73-5.67h0a86.4,86.4,0,0,0-7.11-5c-1.38-.9-2.84-1.8-4.34-2.65l6.27-21.17-78.19-12.74-16.2-1.58,1,28.34-.29.13-.73.31-.53.2-.69.26a14.75,14.75,0,0,1-2.37.62c-7.65,1.27-15.12,1.67-21.41,6.16-16.39,11.7,15.05,18.28,24.87,19.8,8.34,1.3,16.9,1.47,24.94,4.12,5.29,1.74,11.08,4.55,16,2.58,1.88-.76,3.44-2.18,5.51-2.44,2.57-.32,5,1.22,7.5,2.2a22.08,22.08,0,0,0,2.22.72A1.63,1.63,0,0,1,359.6,447.42Z"/></g><path class="cls-108" d="M265.77,249.25l2.4,1.5s3.3-5.5,12.8-8.6l-1.2-2.2C279.77,239.85,272.17,241.05,265.77,249.25Z"/><polygon class="cls-109" points="336.07 256.25 325.37 258.35 338.87 258.35 339.27 255.25 336.07 256.25"/><path class="cls-110" d="M271.27,277.25c17.4,4.2,35.9,8.7,51.1-2.7,16.7-12.6,21.7-12.8,17.9-21.9s-42.2-4.7-59.2,7.3S261.77,275,271.27,277.25Z"/><path class="cls-111" d="M299.07,264.65c14.5-.1,26.2,1.9,26.2,4.4s-11.7,4.5-26.2,4.6-26.2-1.9-26.2-4.4S284.57,264.75,299.07,264.65Z"/><path class="cls-112" d="M313.67,254.45c14.5-.1,26.2,1.9,26.2,4.4s-11.7,4.5-26.2,4.6-26.2-1.9-26.2-4.4S299.27,254.55,313.67,254.45Z"/><path class="cls-113" d="M262.17,233l-4-2.9,5.6,1.6.9-.9-1.1,1.6s2.8-3.2,4.4-4.6a30.44,30.44,0,0,1-1.3,4.4l1.2-.1a9.91,9.91,0,0,1-3.8,1.1Z"/><path class="cls-114" d="M337,252.75s1.5-.4-.3-5.3l-1.4,4.2-1-.8,1.2,1.5a35.4,35.4,0,0,0-4.5-4.9,28.14,28.14,0,0,0,1.4,5l-1.2.1a10,10,0,0,0,3.9.7Z"/><path class="cls-115" d="M260.17,219.25h-.1a.78.78,0,0,1-.9-.6l-2.6-14.6a.78.78,0,0,1,.6-.9h.1a.78.78,0,0,1,.9.6l2.6,14.6a.69.69,0,0,1-.44.87A.45.45,0,0,1,260.17,219.25Z"/><path class="cls-115" d="M256.37,219.85h-.1a.78.78,0,0,1-.9-.6l-2.7-14.6a.78.78,0,0,1,.6-.9h.1a.78.78,0,0,1,.9.6L257,219a.69.69,0,0,1-.44.87A.63.63,0,0,1,256.37,219.85Z"/><path class="cls-116" d="M340.87,238h0a3.09,3.09,0,0,0,.2.9A3.09,3.09,0,0,1,340.87,238Z"/><path class="cls-116" d="M340.87,237.65a2.65,2.65,0,0,1,.4-1.5A2.17,2.17,0,0,0,340.87,237.65Z"/><path class="cls-117" d="M344.27,204s-4.7,1.7-1.4,8.8c0,0,10.6,3.9,11,11.3a3.12,3.12,0,0,0-.6,3.4c.9,1.9.7,5,4.8,3.8s5.4-9-.6-16.3S346.47,204.35,344.27,204Z"/><path class="cls-118" d="M257.67,250.75c-7.4-19.4-12.4-47.8-6.7-58.9,0,0,12-19.1,47.4-30.3a10.53,10.53,0,0,1,3-.5c6.4,0,29.8,1.5,39.3,22.9a151.47,151.47,0,0,1,10.6,36.9l-.3.2.3,1.7h.3c1,6.9,1.2,11.3,1.2,11.3s1.8,11.1-22.1,23.4c0,0-19.6,11.2-29.3,12.5s-32.6,5.6-41.1-12.9c-.6-1.4-1.3-2.8-1.9-4.3l.1-.1-.8-2Z"/><path class="cls-119" d="M260.37,257.15c-.6-1.4-1.2-2.8-1.9-4.3,0,0,.2,0,.1-.1a16.35,16.35,0,0,0-.8-2l-.3-.1c-7.3-19.3-12.3-47.5-6.8-58.6,5,1.3,19.3,4.8,28.4,5.2h1.2s1,.5,1.1,3.7,18,63.3,20,69.1C291.87,271.35,269,275.65,260.37,257.15Z"/><path class="cls-120" d="M257.87,250.75h0c12.4,3.1,34.3,1.9,37.7,1.5,2.8-.3,10.5-4.1,28.7-13.9a199.11,199.11,0,0,0,26.8-17.2l.3,1.7h.3c-.1.1-9.7,8.1-26.4,17.2-15.9,8.6-23.8,12.5-27.7,13.7-.7.2-1.2.3-1.7.4-3.5.4-24.7,1.9-37.3-1.3l.1-.1Z"/><path class="cls-121" d="M297.57,253.85c-.7.2-1.2.3-1.7.4-3.5.4-24.7,1.9-37.3-1.3l.1-.1c13.3,3.4,37.8.9,37.8.9,5.6-1.7,21.7-10,31.6-15.6a199.84,199.84,0,0,0,23.3-15.2h.3c-.1.1-9.7,8.1-26.4,17.2C309.37,248.65,301.47,252.65,297.57,253.85Z"/><path class="cls-119" d="M284.27,196.65c.2,0,.3-.1.4-.3s16.6-17.5,41.2-22.6a.92.92,0,1,0-.4-1.8c-25.2,5.2-42.1,23-42.2,23.2a1.06,1.06,0,0,0,0,1.4A1.63,1.63,0,0,0,284.27,196.65Z"/><ellipse class="cls-119" cx="289.37" cy="173.63" rx="5" ry="2.5" transform="translate(-38.14 92.25) rotate(-17.01)"/><path class="cls-122" d="M290.07,176.15a6.43,6.43,0,0,1-4.8-.1c-.1-.7.3-1.9,3.8-3.2,0,0,3.2-1.1,4.9.4C293.57,174.35,292.07,175.55,290.07,176.15Z"/><path class="cls-119" d="M338.37,198.15s-3.4-14.9-11.7-13.6S303,195.35,303,195.35s-12.4,6.6-9.4,17.2,4.8,25.5,15.6,22.6c0,0,6.2-1.7,16.5-8.5s17.2-11.5,15.1-19.1Z"/><path class="cls-123" d="M293.47,212.55c-2.9-10.6,9.4-17.2,9.4-17.2s14.2-8.7,22.7-10.6c1.9,1.9,5.1,6.3,8.5,16.4l1.6,5.1s2.5,6.8-4.6,11.9a182.44,182.44,0,0,1-15.6,10.2c-6,3.3-12,4.5-16,2.9C296.57,226.55,295.17,218.85,293.47,212.55Z"/><path class="cls-124" d="M307.77,231.45a14.52,14.52,0,0,1-4.2.5l4.8-1.7c7.6-2.9,12.9-7.2,21.5-13.1s.8-19.4-2.3-26a8,8,0,0,0-7.2-4.7c1.9-.7,3.7-1.3,5.2-1.7,1.9,1.9,5.1,6.3,8.5,16.4l1.6,5.1s2.5,6.8-4.6,11.9a182.44,182.44,0,0,1-15.6,10.2A25.77,25.77,0,0,1,307.77,231.45Z"/><ellipse class="cls-122" cx="273" cy="243.6" rx="6.3" ry="8.3" transform="translate(-86.35 174.77) rotate(-30.9)"/><path class="cls-117" d="M269.57,239.75s4.8-1.2,6,6.5c0,0-6.6,9.1-2.8,15.5a3.07,3.07,0,0,1,2.4,2.5c.3,2.2,2.2,4.5-1.8,5.8s-9.5-4.5-8.6-13.9S268,241.45,269.57,239.75Z"/><circle class="cls-125" cx="328.37" cy="205.05" r="3"/><circle class="cls-125" cx="307.17" cy="216.05" r="3"/><path class="cls-126" d="M319,214.25c.2-.1.4-.1.6-.2a3.2,3.2,0,0,0,1.6-4.2.45.45,0,0,0-.8.4,2.33,2.33,0,0,1-1.16,3.08h0a1.88,1.88,0,0,1-1.6.2,2.58,2.58,0,0,1-1.2-1.3.47.47,0,1,0-.9.3,3.17,3.17,0,0,0,1.7,1.8A3.88,3.88,0,0,0,319,214.25Z"/><ellipse class="cls-127" cx="332.34" cy="208.74" rx="3" ry="1.2" transform="translate(-59.36 184.35) rotate(-28.57)"/><ellipse class="cls-127" cx="306.55" cy="221.89" rx="3" ry="1.2" transform="translate(-63.04 140.57) rotate(-23.49)"/><polygon class="cls-122" points="308.67 254.95 308.67 254.95 311.27 253.75 310.27 250.65 314.97 248.45 315.77 248.35 316.47 251.25 319.27 250.35 320.67 255.95 318.47 256.95 318.47 257.35 319.47 259.95 315.17 262.15 313.87 262.15 313.17 259.45 310.47 260.65 308.67 254.95"/><polygon class="cls-128" points="309.97 254.65 312.47 253.55 311.47 250.25 315.77 248.35 316.77 251.55 319.27 250.35 320.67 255.95 318.47 256.95 319.47 259.95 315.17 262.15 314.17 258.95 311.67 260.15 309.97 254.65"/><ellipse class="cls-122" cx="315.48" cy="255.23" rx="1.4" ry="1.7" transform="translate(-19.13 25.66) rotate(-4.52)"/><ellipse class="cls-118" cx="314.96" cy="255.55" rx="0.8" ry="1.4" transform="translate(-52.53 83.92) rotate(-14.02)"/><path class="cls-119" d="M346.47,241.75a9.11,9.11,0,0,0,3.3-2.7,2.75,2.75,0,0,0-.4-3.2c-1.4-1.4-3.5-3.2-4.6-2.2a1.54,1.54,0,0,1,1.8-.2,12.28,12.28,0,0,1,3,2.1,3.48,3.48,0,0,1,1,1.4,6.72,6.72,0,0,1,.1,1.1,4.76,4.76,0,0,1-.3.9c-.1.1-2,2.6-3.3,2.9Z"/><path class="cls-120" d="M346.07,238.15a.79.79,0,0,0-.8.2,1.5,1.5,0,0,0-.2,1.9,1.35,1.35,0,0,0,.8.7h.2a.7.7,0,0,0,.5-.2,1.49,1.49,0,0,0,.2-1.9A.85.85,0,0,0,346.07,238.15Z"/><path class="cls-120" d="M345.87,234.05a.79.79,0,0,0-.8.2,1.5,1.5,0,0,0-.2,1.9,1.35,1.35,0,0,0,.8.7h.2a.7.7,0,0,0,.5-.2,1.49,1.49,0,0,0,.2-1.9A1,1,0,0,0,345.87,234.05Z"/><path class="cls-120" d="M349.47,236.65a1.35,1.35,0,0,0-.8-.7.79.79,0,0,0-.8.2,1.5,1.5,0,0,0-.2,1.9,1.35,1.35,0,0,0,.8.7h.2a.7.7,0,0,0,.5-.2,1.36,1.36,0,0,0,.3-1.9Z"/><path class="cls-122" d="M346.27,238.85a1.58,1.58,0,0,0-.7-.7c-.1,0-.1.1-.2.1a1.5,1.5,0,0,0-.2,1.9,1.58,1.58,0,0,0,.7.7c.1,0,.1-.1.2-.1A1.45,1.45,0,0,0,346.27,238.85Z"/><path class="cls-122" d="M346,234.75a1.58,1.58,0,0,0-.7-.7c-.1,0-.1.1-.2.1a1.5,1.5,0,0,0-.2,1.9,1.58,1.58,0,0,0,.7.7c.1,0,.1-.1.2-.1A1.48,1.48,0,0,0,346,234.75Z"/><path class="cls-122" d="M348.87,236.65a1.58,1.58,0,0,0-.7-.7c-.1,0-.1.1-.2.1a1.5,1.5,0,0,0-.2,1.9,1.58,1.58,0,0,0,.7.7.35.35,0,0,0,.2-.1C349.17,238.25,349.17,237.35,348.87,236.65Z"/><path class="cls-129" d="M347,241.65a9.57,9.57,0,0,0,3.2-2.8,2.46,2.46,0,0,0-.4-3.2c-1.5-1.4-3.7-3.2-5-2.2s-.7,4.3-.2,6.5C345,241.35,346.07,242.15,347,241.65Z"/><path class="cls-129" d="M325.67,255.85h0c1.1.3,2-.7,2-2.1v-7.7a3.25,3.25,0,0,0-2-3.1h0c-1.1-.3-2,.7-2,2.1v7.7A3.16,3.16,0,0,0,325.67,255.85Z"/><path class="cls-130" d="M324.17,245a1.58,1.58,0,0,1,.7-.7,2.51,2.51,0,0,1,.9-.4c.7,0,1,.8,1.3,1.7a2.48,2.48,0,0,1,0,1.7c-.1.2.4.1.3.2a3,3,0,0,1-1,.4h-.1a2,2,0,0,1-2.1-2.9Z"/><path class="cls-130" d="M324.27,251.65a1.58,1.58,0,0,1,.7-.7,2.51,2.51,0,0,1,.9-.4c.7,0,1,.8,1.3,1.7a2.48,2.48,0,0,1,0,1.7c-.1.2.4.1.3.2a3,3,0,0,1-1,.4h-.1a2,2,0,0,1-2.1-2.9Z"/><path class="cls-131" d="M325.07,244.55a1.58,1.58,0,0,1,.7-.7,1.8,1.8,0,0,1,2.2,1.28h0a2.48,2.48,0,0,1,0,1.7,1.58,1.58,0,0,1-.7.7h-.1a1.79,1.79,0,0,1-2.17-1.28h0A3.2,3.2,0,0,1,325.07,244.55Z"/><path class="cls-131" d="M325.17,251.15a1.58,1.58,0,0,1,.7-.7,1.8,1.8,0,0,1,2.2,1.28h0a2.48,2.48,0,0,1,0,1.7,1.58,1.58,0,0,1-.7.7h-.1a1.8,1.8,0,0,1-2.19-1.28h0A3.38,3.38,0,0,1,325.17,251.15Z"/><polygon class="cls-122" points="340.47 233.85 341.67 236.25 331.67 242.65 330.57 240.35 340.47 233.85"/><polygon class="cls-120" points="340.47 233.85 341.67 236.25 340.87 236.65 339.97 234.65 330.67 240.65 330.57 240.35 340.47 233.85"/><path class="cls-117" d="M334.57,255.25l8.6-5.6a.74.74,0,0,0,.4-.8c-.1-1.4-.1-4.9,2.1-5.9,3.1-1.4,5.5,7,5.4,9.2-.1,1.9-6,4.1-10.4,6.1-5.2,2.4-11.8,1.8-13.3-1.2C325.67,253.65,334.57,255.25,334.57,255.25Z"/><path class="cls-118" d="M342.37,249.85s-9.4,7-15.1,10-.5-4.9-.5-4.9l3.9-.2Z"/><path class="cls-117" d="M321.87,259.25a5.09,5.09,0,0,1,.2-3.2,3.85,3.85,0,0,1,2.5-2.5c3-1,7.1,7.7,5.2,10.6s-22.6,8.1-24,5.2c0,0,12.8-5.4,16-7.6A4.11,4.11,0,0,0,321.87,259.25Z"/></g></g></g></g><path class="cls-132" d="M360.08,262.46l3.31-8c.89-4.71-22.07-9.88-23-4.89-.06.3-1.9,16.73-1.9,16.73Z"/><path class="cls-133" d="M335.65,254.05a37,37,0,0,1,4.21,0c0,.16-1.17,10.42-1.17,10.42l-4.17-1Z"/><polygon class="cls-134" points="361.81 258.31 354.95 257.53 349.04 280.33 352.15 281.49 361.81 258.31"/><path class="cls-135" d="M333.15,275.38l15.89,5,6-22.85s-11.28,7.29-19.38-3.28Z"/><path class="cls-136" d="M343.38,278.57c.63-4,2.22-13.68,3.12-18.59a16,16,0,0,0,3.89-.54c-1.26,4.43-4.2,15.24-5.39,19.64Z"/><path class="cls-136" d="M336.84,276.48c.47-3.85,1.56-13.81,2.17-18.91a12.63,12.63,0,0,0,3.24,1.68l-2.83,18Z"/><path class="cls-137" d="M361.81,258.31s-1.62-.92-1.78-.93l-6-.66.9.81Z"/><path class="cls-138" d="M359.58,276.81a2.34,2.34,0,0,0-.45-.94c-.72-.67-1.87.16-2.46.93a2.31,2.31,0,0,0-2.3-1.29c-.95,0-1.89.3-2.85.31-2.77,0-5.28-2.35-8-1.76a14.34,14.34,0,0,0-2.12.83c-.91.36-6.35-.87-7.33-.72-5.52.86-6.75,2.19-12.24,1.17,3.57,3,9.14,2,13.71,3.41,1.7.51,3.28,1.35,5,1.81a24.12,24.12,0,0,0,4,.59c6.47.55,14.81,1.52,20.68-1.76C363.28,279.13,360.42,279.05,359.58,276.81Z"/><path class="cls-139" d="M359.21,279.05a7.77,7.77,0,0,0-2.9-.5c-2.74-.19-4.45-1.32-7.1,0-1.07.54-1.8,1.48-3.18.51-.46-.33-.7-1.09-1.09-1.5a4.63,4.63,0,0,0-2.9-1.27,7.23,7.23,0,0,1-3-1.48,7.2,7.2,0,0,0,2.36.1,14.34,14.34,0,0,1,2.12-.83c2.7-.59,5.21,1.78,8,1.76,1,0,1.9-.3,2.85-.31a2.31,2.31,0,0,1,2.3,1.29c.59-.77,1.74-1.6,2.46-.93a2.34,2.34,0,0,1,.45.94c.84,2.19,3.7,2.32,5.71,2.58a16,16,0,0,1-3.17,1.32A33.34,33.34,0,0,0,359.21,279.05Z"/><path class="cls-140" d="M354.87,281.05c.72.13,1.38,0,2.1.14a3.86,3.86,0,0,1,1.1.32,48.39,48.39,0,0,1-8.68,0l.64-.37C352,280.11,352.92,280.69,354.87,281.05Z"/><path class="cls-141" d="M333.11,274.34a18.74,18.74,0,0,0,2.38,1.56c1.44.77,2.72,1.92,4.23,2.58a15.43,15.43,0,0,0,1.9.45c1.56.47,1.56,1.21,2.55,2.15h0a21.19,21.19,0,0,1-3.64-.55c-1.72-.46-3.3-1.3-5-1.81-4.57-1.36-10.14-.39-13.71-3.41C327,276.3,328.4,275.19,333.11,274.34Z"/></g></g><g id="Layer_2-2-2" data-name="Layer 2"><g id="Dump_Card_Box" data-name="Dump Card Box"><polygon class="cls-142" points="59.19 49.75 73.71 44.63 42.66 91.97 43.31 85.71 53.32 60.14 59.19 49.75"/><polygon class="cls-143" points="52.89 169.95 38.2 150.31 39.12 147.97 46.28 145.12 44.78 140.41 47.45 135.55 51.6 134.47 47.92 114 51.75 102.9 35.84 95.25 36.72 93.03 42.82 88.6 57.92 56.77 60.2 55.87 60.99 53.86 76.16 36.79 107.33 46.16 109.9 48.32 111.76 45.2 116.2 41.41 119.61 32.71 141.28 33.35 142.56 33.86 142.41 33.09 143.97 32.22 200.88 80.57 200.1 81.23 189.32 74.44 184.14 81.28 191.41 87.02 206.95 101.27 206.66 102.83 209.94 112.35 209.07 113.42 199.88 111.11 177.27 144.12 159.84 140.03 125.75 169.72 54.65 172.23 52.89 169.95"/><polygon class="cls-144" points="57.92 56.77 60.2 55.87 60.99 53.86 79.01 65.03 80.65 67.41 80.3 68.3 57.92 56.77"/><polygon class="cls-142" points="50.02 102.07 66.64 110.19 73.41 115.67 74.68 116.16 66.03 136.48 58.07 158.56 54.65 172.23 53.82 171.15 57.33 157.84 46.28 145.12 44.78 140.41 47.45 135.55 51.6 134.47 62.62 143.46 65.16 135.88 73.38 116.64 70.94 114.74 48.72 118.45 24.07 116.58 22.68 115.09 21.34 107.11 14.46 100.81 14.84 99.85 35.54 101.95 50.02 102.07"/><polygon class="cls-143" points="69.43 113.68 48.45 116.97 22.68 115.09 24.07 116.58 48.72 118.45 70.94 114.74 69.43 113.68"/><polygon class="cls-145" points="74.68 116.16 73.41 115.67 66.64 110.19 74.52 91.5 80.3 68.3 80.65 67.41 79.01 65.03 107.33 46.16 109.9 48.32 106.97 57.66 79.81 99.44 74.52 112.84 74.68 116.16"/><polygon class="cls-146" points="143.97 32.22 143.79 48.24 164.15 57.33 173.51 63.4 178.42 65.32 200.88 80.57 143.97 32.22"/><polygon class="cls-147" points="142.37 35 131.99 52.11 146.66 63.25 152.66 67.83 163.99 71.75 184.79 80.42 189.32 74.44 177.84 66.81 167.21 60.67 153.76 53.86 142.21 48.57 142.37 35"/><polygon class="cls-148" points="115.97 42.66 131.99 52.11 152.66 67.83 163.99 71.75 184.79 80.42 187.07 81.31 188.22 81.24 190.42 82.19 191.53 81.77 191.63 86.31 188.4 94.56 187.09 110.16 170.99 100.38 157.87 92.5 151.09 87.71 142.44 83.55 114.02 63.51 115.97 42.66"/><polygon class="cls-149" points="160.97 76.06 151.88 68.64 146.66 63.25 152.66 67.83 163.99 71.75 187.07 81.31 188.22 81.24 190.42 82.19 191.53 81.77 191.63 86.31 188.4 94.56 160.97 76.06"/><polygon class="cls-145" points="114.46 44.77 111.48 47.79 109.09 57.16 93.25 82.5 123.2 97.32 139.55 103.72 172.84 119.41 173.92 121.03 182.46 109.72 157.05 93.85 149.52 88.33 141.15 84.11 112.6 63.76 114.46 44.77"/><polygon class="cls-146" points="202.09 98.25 205.55 101.66 205.63 103.66 209.07 113.42 204.83 113.12 195.88 110.82 202.09 98.25"/><polygon class="cls-147" points="203.49 98.1 198.05 121.27 177.85 151.38 167.44 144.47 164.06 141.95 173.92 121.03 182.46 109.72 186.82 110.87 187.09 110.16 188.4 94.56 191.41 87.02 203.49 98.1"/><polygon class="cls-150" points="162.09 146.96 172.76 151.14 182.59 159.53 189.26 167.46 178.55 162.84 166.07 158.38 158.75 155.51 162.09 146.96"/><polygon class="cls-146" points="158.28 156.7 175.34 163.38 187.31 168.06 187.91 168.6 189.26 167.46 178.55 162.84 158.75 155.51 158.28 156.7"/><polygon class="cls-146" points="54.65 172.23 58.07 158.56 66.03 136.48 74.68 116.16 77.56 118.53 87.31 122.52 103.57 130.69 119.2 137.75 148.24 152.02 160.94 156.5 160.41 157.83 146.43 174.05 146.36 174.88 146.22 191.32 143.89 200.01 143.31 201.5 111.56 190.31 54.65 172.23"/><polygon class="cls-151" points="131.7 152.12 128.36 154.97 124.19 160.58 127.03 168.61 128.05 170.64 126.44 178.26 86.92 164.25 89.67 156.45 89.22 154.88 86.16 149.12 89.17 142.41 90.22 138.74 131.7 152.12"/><polygon class="cls-147" points="79.07 167.77 62.13 168.77 54.98 170.92 54.65 172.23 143.31 201.5 142 200.04 86.16 172.22 83.05 170.74 79.07 167.77"/><polygon class="cls-144" points="57.92 159.17 65.45 160.51 78.22 163.8 90.28 169.12 88.15 166.48 85.79 165.05 83.46 162.68 68.71 148.24 89.67 156.45 129.17 171.06 146.43 174.05 155 164.1 128.36 154.97 89.17 142.41 66.03 136.48 57.92 159.17"/><polygon class="cls-152" points="160.94 156.5 160.41 157.83 155 164.1 127.68 154.75 89.17 142.41 66.03 136.48 74.68 116.16 77.56 118.53 87.31 122.52 102.92 130.36 148.24 152.02 160.94 156.5"/><polygon class="cls-147" points="91.14 170.1 93.19 170.13 97.17 172.46 91.14 170.1"/><polygon class="cls-151" points="126.16 186.21 129.73 180.58 140.25 185.9 137.46 193.03 126.16 186.21"/><polygon class="cls-153" points="193.7 206.92 192.95 208.81 191.04 209.6 188.81 208.73 181.9 208.32 181.49 211.65 182.62 212.55 181.37 214.43 178.7 215.83 178.38 223.55 182.48 224.39 188.47 227.5 193.17 228.96 193.42 227.17 195.53 222.94 197.35 223.52 199.34 222.05 195.71 219.02 195.17 213.84 196.73 212.13 196.82 208.14 193.7 206.92"/><polygon class="cls-154" points="188.84 221.6 182.73 216.7 185.15 212.83 193.81 216.48 195.17 213.84 195.71 219.02 199.34 222.05 194.85 220.48 191.85 222.78 192.06 224.41 189.15 227.71 188.47 227.5 184.73 225.56 188.84 221.6"/><polygon class="cls-154" points="179.92 223.87 180.3 219.61 183.62 219.69 181.61 216.27 179.87 216.94 179.47 215.43 178.7 215.83 178.38 223.55 179.92 223.87"/><polygon class="cls-154" points="181.9 208.32 183.66 209.33 183.36 210.07 183.34 211.28 191.04 209.6 188.81 208.73 181.9 208.32"/><path class="cls-153" d="M50.46,231l1.37,2.72-1.62,2.52s1.89,8.29,2.09,9.43l-4.77,2.51v3.92L52,255.23l-2.5,3.27.31,4.62-6-3.63-8-1.85.11-2.59-9.11.93-.39-3.75-7.08-2.77,8.35-.14,1.11.43h3.79L31.93,244s2.51-3.46,2.83-3.46,1.84-6.48,1.84-6.48l7,.76Z"/><path class="cls-154" d="M43.2,253l.51-12.47,5.49,5,3.1.12-4.77,2.51v3.92L52,255.23l-2.5,3.27.31,4.62-6-3.63-8-1.85s3.93-5.37,4.14-5.32,1.93,5.25,1.93,5.25l4.35-1.44Z"/><polygon class="cls-154" points="35.97 255.05 37.15 248.44 26.47 252.23 26.86 255.98 35.97 255.05"/><polygon class="cls-154" points="34.76 240.56 37.31 236.03 39.27 239.56 37.48 242.01 32.07 245.11 31.93 244.02 34.76 240.56"/><polygon class="cls-154" points="43.63 234.84 45.06 236.43 50.46 231.02 43.63 234.84"/><path class="cls-153" d="M17.08,6.59l7.07,3.76L21.79,12l1.91,3.23-2.41,3.32L15,18.49s-4.83,4.32-5.19,5.42L4.43,23,3.21,27.77,1.62,29.72l-.34-4.46L0,19.66l2.5-4.13s-.32-1.09-.62-1.22-.47-5.06-.47-5.06L2,7.12l1.57.32-2-2S2.5-.16,2.48,0A38,38,0,0,0,6.66,1.15l.66,1.14,4.45-1.21S14,4.92,14,5.18s.12,1.67.12,1.67L15,8.23Z"/><polygon class="cls-154" points="3.08 8.85 12.01 12.13 12.26 12.76 7.72 13.22 4.9 18.99 3.81 18.82 0 19.66 2.5 15.53 1.88 14.31 1.41 9.25 3.08 8.85"/><polygon class="cls-154" points="3.56 7.45 9.65 6.55 5.01 3.98 6.66 1.15 2.48 0 1.56 5.41 3.56 7.45"/><polygon class="cls-154" points="11.77 1.08 11.6 5.91 11.9 7.06 13.18 8.83 15.34 8.98 17.08 6.59 15 8.23 14.13 6.85 14.02 5.18 11.77 1.08"/><polygon class="cls-154" points="4.42 23.04 2.52 23.59 3.21 27.77 4.42 23.04"/><polygon class="cls-154" points="9.83 23.91 6.42 19.52 9.71 18.29 11.85 17.32 16.41 14.23 18.84 16.01 21.59 13.82 21.79 12.04 23.7 15.27 21.29 18.59 15.02 18.49 9.83 23.91"/><polygon class="cls-155" points="198.05 121.27 203.49 98.1 191.41 87.02 188.4 94.56 186.82 110.87 182.46 109.72 173.92 121.03 164.06 141.95 167.44 144.47 198.05 121.27"/><polygon class="cls-149" points="115.97 42.66 142.44 83.55 114.02 63.51 115.97 42.66"/><polygon class="cls-146" points="93.25 82.5 123.2 97.32 139.55 103.72 172.84 119.41 173.92 121.03 172.31 126.14 164.37 143.78 163.28 149.19 160.49 154.35 160.94 156.5 148.24 152.02 119.2 137.75 102.27 130.09 87.31 122.52 77.56 118.53 74.68 116.16 80.09 101.34 93.25 82.5"/><polygon class="cls-151" points="89.39 99.72 85.77 110.48 98.02 112.27 104.27 101.78 89.39 99.72"/><polygon class="cls-151" points="101.69 120.4 113.35 101.56 151.92 115.38 137.28 138.1 101.69 120.4"/></g></g></g></g></svg>