<svg xmlns="http://www.w3.org/2000/svg" xmlns:xlink="http://www.w3.org/1999/xlink" viewBox="0 0 442.87 553.4"><defs><style>.cls-1,.cls-11{fill:none;}.cls-15,.cls-2,.cls-51,.cls-52{isolation:isolate;}.cls-3{fill:#3737b7;}.cls-4{fill:#736cff;}.cls-5{fill:#4848ed;}.cls-6{fill:#3d3dd1;}.cls-7{fill:#8d8dff;}.cls-8{fill:#121266;}.cls-9{fill:#d2f1fc;}.cls-10{fill:#f6f5fd;}.cls-11{stroke:#3d3dd1;stroke-miterlimit:10;stroke-width:0.65px;}.cls-12{fill:#ffe000;}.cls-13{fill:#c50e59;}.cls-14{fill:#f83571;}.cls-15{fill:#081613;opacity:0.18;}.cls-16{clip-path:url(#clip-path);}.cls-17{fill:#041c16;}.cls-18{fill:#ef78a9;}.cls-19{fill:#f06eaa;}.cls-20{fill:#e85497;}.cls-21{fill:#f49dc4;}.cls-22{fill:#fefefe;}.cls-23{fill:#dc1965;}.cls-24{fill:#ffaf00;}.cls-25{fill:#ffd400;}.cls-26{fill:#ffc000;}.cls-27{fill:#ffe976;}.cls-28{fill:#ff9700;}.cls-29{fill:#ffe464;}.cls-30{fill:#ffe669;}.cls-31{fill:#ffd30f;}.cls-32{fill:#ffe875;}.cls-33{fill:#fff8dc;}.cls-34{fill:#fff7da;}.cls-35{fill:#fff7d9;}.cls-36{fill:#ffe258;}.cls-37{fill:#ffeea4;}.cls-38{fill:#fff5cb;}.cls-39{fill:#fff0b2;}.cls-40{fill:#ffeea2;}.cls-41{fill:#ffe145;}.cls-42{fill:#ffde04;}.cls-43{fill:#ffc511;}.cls-44{fill:#ffd851;}.cls-45,.cls-51{fill:#e54559;}.cls-46{fill:#ccdd85;}.cls-47{fill:#7ca534;}.cls-48{fill:#f95f6a;}.cls-49{fill:#ff767d;}.cls-50{fill:#993833;}.cls-51{opacity:0.66;}.cls-52{fill:#546d1d;opacity:0.65;}.cls-53{fill:#ffaca6;}.cls-54{fill:#c62641;}.cls-55{fill:#f2f2f2;}.cls-56{fill:#ffa974;}.cls-56,.cls-57,.cls-58,.cls-59,.cls-61,.cls-63,.cls-64,.cls-65,.cls-66{fill-rule:evenodd;}.cls-57{fill:#ff9a5e;}.cls-58{fill:#fff;}.cls-59{fill:url(#Áåçûìÿííûé_ãðàäèåíò_116);}.cls-60{fill:url(#Áåçûìÿííûé_ãðàäèåíò_116-2);}.cls-61{fill:#197cb2;}.cls-62{fill:#6abfe5;}.cls-63{fill:url(#Áåçûìÿííûé_ãðàäèåíò_116-3);}.cls-64{fill:url(#Áåçûìÿííûé_ãðàäèåíò_116-4);}.cls-65,.cls-66{mix-blend-mode:screen;}.cls-65{fill:url(#Áåçûìÿííûé_ãðàäèåíò_44);}.cls-66{fill:url(#Áåçûìÿííûé_ãðàäèåíò_44-2);}</style><clipPath id="clip-path"><path class="cls-1" d="M234.68,112.5s4.1,4.6,8.2,3.6c0,0,13,6.9,40.8,3.3s55.5-16.5,55.5-16.5l17.1-.6-23.2-56.4-104.4,16L224.58,76Z"/></clipPath><linearGradient id="Áåçûìÿííûé_ãðàäèåíò_116" x1="257.59" y1="472.39" x2="257.59" y2="392.37" gradientTransform="translate(287.73 -9.78) rotate(31.48)" gradientUnits="userSpaceOnUse"><stop offset="0.01" stop-color="#940068"/><stop offset="0.09" stop-color="#a41369"/><stop offset="0.28" stop-color="#c5386c"/><stop offset="0.46" stop-color="#de566e"/><stop offset="0.65" stop-color="#f06b6f"/><stop offset="0.83" stop-color="#fb7870"/><stop offset="1" stop-color="#ff7c70"/></linearGradient><linearGradient id="Áåçûìÿííûé_ãðàäèåíò_116-2" x1="314.52" y1="427.51" x2="314.52" y2="470.36" gradientTransform="translate(-120.21 847.81) rotate(-90)" xlink:href="#Áåçûìÿííûé_ãðàäèåíò_116"/><linearGradient id="Áåçûìÿííûé_ãðàäèåíò_116-3" x1="315" y1="444.27" x2="289.13" y2="444.27" xlink:href="#Áåçûìÿííûé_ãðàäèåíò_116"/><linearGradient id="Áåçûìÿííûé_ãðàäèåíò_116-4" x1="250.47" y1="447.41" x2="295.45" y2="443.56" xlink:href="#Áåçûìÿííûé_ãðàäèåíò_116"/><linearGradient id="Áåçûìÿííûé_ãðàäèåíò_44" x1="272.99" y1="511.68" x2="455.98" y2="496.01" gradientUnits="userSpaceOnUse"><stop offset="0"/><stop offset="0.27" stop-color="#4a3021"/><stop offset="0.53" stop-color="#89593d"/><stop offset="0.74" stop-color="#b77752"/><stop offset="0.9" stop-color="#d3895e"/><stop offset="1" stop-color="#dd9063"/></linearGradient><linearGradient id="Áåçûìÿííûé_ãðàäèåíò_44-2" x1="279.29" y1="523.98" x2="413.96" y2="512.45" gradientTransform="matrix(-0.43, -0.9, -0.9, 0.43, 856.56, 528.46)" xlink:href="#Áåçûìÿííûé_ãðàäèåíò_44"/></defs><g class="cls-2"><g id="Layer_2" data-name="Layer 2"><g id="Eli_Traits" data-name="Eli Traits"><g id="Layer_2-2" data-name="Layer 2"><g id="Eli_Traits-2" data-name="Eli Traits"><path class="cls-3" d="M85.08,264l-12,17.5a2,2,0,0,1-1.9.8c-3.1-.6-11.1-1.5-13.9,3.2-3.9,6.6,14.5,14.5,19.6,14.6,4.3.2,11.5-13.1,17.9-22.4,7.5-10.9,7.8-13.7,1.5-17.8C89,255.3,85.08,264,85.08,264Z"/><path class="cls-3" d="M114.48,281.9l-16.1,25.4a3.19,3.19,0,0,1-1.8,1.4c-3.1,1-11.6,4.4-12.6,10.1-1.4,7.7,11.3,8.4,17.4,6.6s5.8-1,11.9-9.9,14.1-21.3,14.1-21.3,5.8-7-3.4-12.6C116.88,277.3,114.48,281.9,114.48,281.9Z"/><path class="cls-3" d="M88.28,146.2s9.3,6.4-2,20.2c0,0-25.6,2.4-30.7,18.6a6.9,6.9,0,0,1-.8,7.9c-3.3,3.7-4.4,10.6-12.7,5.7s-6.7-23,10.8-35.6S83.08,145.9,88.28,146.2Z"/><path class="cls-4" d="M252.58,299.6c27.7-38.7,55.1-98.4,48.9-126.2,0,0-15.4-49-87.31-94.3a22.62,22.62,0,0,0-6.39-2.8c-14.2-3.7-66.8-13.9-100.1,27.8-21.2,26.5-35.9,55-44.9,75.5l.5.7-1.6,3.7-.7-.1c-6.2,14.6-9.2,24.2-9.2,24.2S41.48,231.6,87,272.7c0,0,36.9,36.1,57.4,44.5s68.7,31.1,98.3-4.7q3.3-3.9,6.6-8.4l-.3-.4,2.9-4Z"/><path class="cls-5" d="M242.78,312.3c2.2-2.7,4.3-5.4,6.6-8.4,0,0-.4-.2-.3-.4.9-1.2,1.9-2.7,2.9-4h.6c27.3-38.4,54.7-97.7,49-125.6-11.8,0-45.4-.5-65.7-5-.9-.2-1.8-.4-2.6-.6,0,0-2.4.6-4.6,7.5s-76.3,129.3-84.1,141.1C165.08,325.4,213.18,348.1,242.78,312.3Z"/><path class="cls-6" d="M252,299.6h0c-29.11-.3-76.81-15.7-84.2-18.5-5.9-2.3-20.9-15.1-55.3-47.3-28.5-26.6-46-49.4-49.1-53.6l-1.6,3.7-.7-.1c.2.2,16.8,23.6,48.5,53.2,30.1,28.1,45.3,41.4,53.2,46.3a16.44,16.44,0,0,0,3.5,1.8c7.5,2.9,53.4,18.5,83.2,18.8l-.3-.4Z"/><path class="cls-7" d="M162.58,283.4a16.68,16.68,0,0,0,3.5,1.8c7.5,2.9,53.4,18.5,83.2,18.8l-.3-.4c-31.4-.2-84-19.8-84-19.8-11.4-6.9-42.1-34.7-60.9-52.8a427.43,427.43,0,0,1-42.6-47l-.7-.1c.2.2,16.8,23.6,48.5,53.2C139.48,265.2,154.68,278.5,162.58,283.4Z"/><path class="cls-5" d="M225.08,164.8a3,3,0,0,1-.8-.8c-.3-.5-26.7-48.2-78-73.7a2.24,2.24,0,1,1,2-4c52.59,26.1,79.59,75.1,79.9,75.5a2.18,2.18,0,0,1-.9,3A2,2,0,0,1,225.08,164.8Z"/><ellipse class="cls-5" cx="227.04" cy="111.2" rx="5.7" ry="11.3" transform="translate(13.19 246.03) rotate(-58.33)"/><path class="cls-8" d="M224,116c3.89,2.4,8,3.3,10.6,2.5.6-1.5.4-4.4-6.5-9.1,0,0-6.4-4.4-11.1-1.9C217.28,110.2,220,113.6,224,116Z"/><path class="cls-5" d="M104.68,136.9s16.1-31,33.8-23.2,46.19,37.5,46.19,37.5,23.5,21.7,10.9,43.4-25.4,53.6-47.4,41c0,0-12.7-7.4-31.5-28.3s-31.3-35.2-22.3-51Z"/><path class="cls-9" d="M195.58,194.6c12.6-21.7-10.9-43.4-10.9-43.4s-26.3-27.5-44.1-36.5c-5.4,3.1-14.8,11.1-28.3,31.4l-6.5,10.5s-9.5,13.6,3.3,28.8c0,0,15.3,18.8,28.5,31.4,11.2,10.8,24,17,33.6,15.6C180.58,223.8,188.18,207.4,195.58,194.6Z"/><path class="cls-10" d="M152.88,228.2s2.1,1.4,8.9,3.6c0,0-4-2.6-9.5-6.6-15.2-10.9-24.3-23.3-40-41.5s9.39-43.4,20.2-56.2c6.1-7.2,13.39-7.3,18.6-6.1a82.89,82.89,0,0,0-10.6-6.7c-5.4,3.1-14.81,11.1-28.31,31.4l-6.5,10.5s-9.5,13.6,3.31,28.8c0,0,15.3,18.8,28.5,31.4A72.65,72.65,0,0,0,152.88,228.2Z"/><polygon class="cls-8" points="112.88 245.8 143.18 273.9 139.28 280.2 109.67 252.1 112.88 245.8"/><polygon class="cls-7" points="112.67 251.8 114.88 247.8 112.88 245.8 109.67 252.1 139.28 280.2 140.88 277.6 112.67 251.8"/><path class="cls-8" d="M160.88,314.8h0a2,2,0,0,1-.6-2.7l9-14.5a2,2,0,0,1,2.7-.6h0a2,2,0,0,1,.6,2.7l-9,14.5A2,2,0,0,1,160.88,314.8Z"/><path class="cls-8" d="M169.78,318.5h0a2,2,0,0,1-.61-2.7l9-14.5a2,2,0,0,1,2.7-.6h0a2,2,0,0,1,.61,2.7l-9,14.5A2.16,2.16,0,0,1,169.78,318.5Z"/><path class="cls-8" d="M179,321.6h0a2,2,0,0,1-.61-2.7l9-14.5a2,2,0,0,1,2.7-.6h0a2,2,0,0,1,.6,2.7l-9,14.5A1.94,1.94,0,0,1,179,321.6Z"/><path class="cls-8" d="M265.18,227.2h0a2,2,0,0,1-1-2.6l13.4-31a2,2,0,0,1,2.6-1h0a2,2,0,0,1,1,2.6l-13.4,31A2.08,2.08,0,0,1,265.18,227.2Z"/><path class="cls-8" d="M275.48,227.4h0a2,2,0,0,1-1-2.6l13.39-31a2,2,0,0,1,2.61-1h0a2,2,0,0,1,1,2.6l-13.4,31A2,2,0,0,1,275.48,227.4Z"/><ellipse class="cls-8" cx="222.88" cy="275.13" rx="19" ry="14.4" transform="translate(-128.88 234.73) rotate(-44.44)"/><path class="cls-8" d="M185.58,262.2l.9,2.6-2.5,4.1-3.31,1.4Zm.7,10.1-5.5-1.5,3.3-1.4,2.9.8.6,1.6Zm4.1-6.3,1.7-.7.4,1.3-2.61,4.3-1.7.7-.39-1.3Zm0,5.1,2.9.8.89,2.6-5.5-1.5-.3-1Zm9.3-5.1-4.9,8.1-.9-2.6,2.5-4.1Z"/><path class="cls-8" d="M180.48,271.3a1.39,1.39,0,0,1-.31-.4v-.1h0a.5.5,0,0,1-.1-.6l5-8.1a.55.55,0,0,1,.5-.3.66.66,0,0,1,.5.4l.9,2.6c.1.2,0,.3-.1.5l-2.29,3.7,2.5.7a.35.35,0,0,1,.2.1l2.5-4.1c.1-.1.1-.2.3-.2l1.7-.7a.29.29,0,0,1,.39,0l.31.3.39,1.3c.11.2,0,.3-.1.5l-2.3,3.8,2.8.8h0l2.5-4.1c.1-.1.1-.2.3-.2l3.3-1.4a.64.64,0,0,1,.61.1.5.5,0,0,1,.1.6l-4.9,8.1a.55.55,0,0,1-.5.3h-.1l-.1.1a.81.81,0,0,1-.5.2l-5.5-1.5c-.2,0-.31-.2-.4-.4l-.3-.9h-.11l-1.3.5c-.1,0-.2.1-.39,0l-5.5-1.5C180.58,271.4,180.48,271.4,180.48,271.3Zm3.6-1.3-1.7.7,3.8,1,.6-.3-.3-.9Zm1.4-6.5-3.5,5.7,1.6-.7,2.3-3.8Zm3.5,8.8.1.2,4.2,1.1-.5-1.3-2.4-.6Zm-.6-2,.2.5,1-.4,2.4-3.9-.2-.5-1,.4Zm6.1,1.4.39,1.2,3.4-5.6-1.6.7Z"/><path class="cls-8" d="M192.88,261.6,187,260l3.3-1.4,3.2.9.6,1.6Zm4.1-1.2,2.8.8.89,2.5-5.39-1.5-.3-1Zm9.2-5-4.9,8-.9-2.5,2.5-4.1Z"/><path class="cls-8" d="M186.68,260.5c-.1-.1-.2-.3-.3-.4s.1-.5.3-.5l3.3-1.4c.1,0,.2-.1.4,0l3.2.9c.2,0,.3.2.4.3l.5,1.5h.1l2.1-.9c.1,0,.2-.1.4,0l2.8.8h0l2.5-4.1c.1-.1.1-.2.3-.2l3.3-1.4a.61.61,0,0,1,.6.1.47.47,0,0,1,.1.6l-4.9,8a.55.55,0,0,1-.5.3h-.1a.1.1,0,0,1-.1.1.76.76,0,0,1-.5.2l-5.4-1.5c-.2,0-.3-.2-.4-.4l-.3-.9h-.1l-1.3.5c-.1,0-.2.1-.4,0l-5.9-1.6Zm3.7-1.3-1.7.7,4.1,1.1.6-.3-.3-.8Zm5.2,2.4.1.2,4.2,1.1-.4-1.3-2.4-.6Zm5.4-.6.39,1.2,3.4-5.5-1.5.7Z"/><path class="cls-8" d="M199.38,250l-3.2-.9-.9-2.5,5.8,1.6.4,1Zm4-1.2,5.8,1.6-3.2,1.4-3.2-.9-.6-1.6Z"/><path class="cls-8" d="M195.88,249.6c-.1-.1-.2-.2-.2-.3l-.9-2.5a.66.66,0,0,1,.1-.6c.1-.2.4-.2.5-.2l5.8,1.6c.2,0,.3.2.4.3l.3.9h.1l1.2-.5c.1,0,.2-.1.4,0l5.8,1.6a.66.66,0,0,1,.4.5c0,.2-.1.5-.3.5l-3.2,1.4c-.1,0-.2.1-.4,0l-3.2-.9c-.2,0-.3-.2-.4-.3l-.5-1.5h-.1l-2.1.9c-.1,0-.2.1-.4,0l-3.2-.9Zm.3-2.2.4,1.3,2.7.8,1.39-.6-.1-.2Zm6.7,2.2.3.8,2.7.8,1.6-.7-4.1-1.1Z"/><path class="cls-8" d="M208.78,237.8l.39,1.2-3.59,6-1.6.7-.4-1.3,3.6-5.9Z"/><path class="cls-8" d="M203.68,246.1c-.1-.1-.2-.2-.2-.3l-.4-1.3c-.1-.2,0-.3,0-.5l3.6-5.9c.1-.1.2-.2.3-.2l1.6-.7a.3.3,0,0,1,.4,0l.3.3.4,1.2c.1.2,0,.3,0,.5l-3.6,5.9c-.1.1-.1.2-.3.2l-1.6.7c-.1.2-.3.2-.5.1Zm.5-1.7.2.5.9-.4,3.39-5.5-.19-.4-.9.4Z"/><path class="cls-8" d="M208.78,234.5l-2.8-.8-.9-2.5,5.3,1.5.3.9Zm4-1.1,5.3,1.5-3.2,1.3-2.8-.8-.5-1.6Z"/><path class="cls-8" d="M205.78,234.2c-.11-.1-.2-.2-.2-.3l-.9-2.5a.66.66,0,0,1,.1-.6c.1-.2.4-.2.6-.2l5.3,1.5a1.38,1.38,0,0,1,.4.3l.3.9h.1l1.2-.5c.1,0,.2-.1.4,0l5.3,1.5a.66.66,0,0,1,.4.5c0,.2-.1.5-.3.5l-3.2,1.3c-.1,0-.2.1-.4,0l-2.8-.8c-.2,0-.3-.2-.4-.3l-.5-1.5h-.1l-2,.8c-.1,0-.2.1-.4,0l-2.8-.8C205.88,234.3,205.78,234.2,205.78,234.2Zm.3-2.1.4,1.2,2.3.6,1.39-.6-.1-.2Zm6.2,2.1.3.8,2.3.6,1.6-.7-3.6-1Z"/><path class="cls-8" d="M211.38,220.4l.9,2.5-2.2,3.6-3.2,1.3Zm1,9.4-5.3-1.5,3.2-1.3,2.8.8.6,1.6Zm3.2-6.4-2.8-.8-.8-2.5,5.3,1.5.3.9Zm4-1.1,5.3,1.5-3.2,1.3-2.7-.8-.5-1.5Zm-3.3,6.3,2.8.8.9,2.5-5.31-1.5-.3-.9Zm8.7-4.3-4.5,7.3-.9-2.5,2.2-3.6Z"/><path class="cls-8" d="M206.68,228.7c-.1-.1-.2-.3-.3-.4v-.1h0a.38.38,0,0,1,0-.6l4.5-7.4a.55.55,0,0,1,.5-.3h.1a.1.1,0,0,1,.1-.1,1.06,1.06,0,0,1,.5-.2l5.3,1.5c.2,0,.3.2.4.3l.3.9h.1l1.2-.5c.1,0,.2-.1.4,0l5.3,1.5a.66.66,0,0,1,.4.5v.1l.1.1a.47.47,0,0,1,.1.6l-4.5,7.3a.55.55,0,0,1-.5.3h-.1a.1.1,0,0,1-.1.1,1.07,1.07,0,0,1-.6.2l-5.3-1.5a1.38,1.38,0,0,1-.4-.3l-.3-.8h-.1l-1.2.5c-.1,0-.2.1-.4,0l-5.3-1.5Zm3.5-1.2-1.6.6,3.6,1,.6-.2-.3-.8Zm1.1-5.8-3,4.9,1.5-.6,2-3.2Zm3.7,8.1.1.2,4,1.1-.4-1.2-2.3-.6Zm-1.7-2.6c.1.1.2.2.2.3l.6,1.5h.1l2-.8c.1,0,.2-.1.4,0l2.7.8h0l2-3.3-2.4-.7c-.2,0-.3-.2-.4-.3l-.5-1.5h-.1l-2,.8c-.1,0-.2.1-.4,0l-2.7-.8-2,3.3,2.4.7Zm7,2,.39,1.1,3-4.9-1.39.6Zm-7.4-8.2.4,1.2,2.3.7,1.3-.5-.1-.2Zm6.2,2.1.3.8,2.3.6,1.5-.6-3.6-1Z"/><path class="cls-8" d="M219.28,215.9l-2.9-3.6.9-2.8,4.39,5.4-.3,1Zm3.7.7,4.39,5.4-3.2-.1-2.89-3.6.5-1.7Z"/><path class="cls-8" d="M223.88,222.4a.1.1,0,0,1-.1-.1l-2.9-3.6a.44.44,0,0,1-.1-.5l.5-1.6h-1.9a.52.52,0,0,1-.4-.2l-2.9-3.6a.44.44,0,0,1-.1-.5l.9-2.8a.78.78,0,0,1,.4-.4c.2,0,.39,0,.5.2l4.39,5.4a.44.44,0,0,1,.11.5l-.3.9h1.1a.52.52,0,0,1,.4.2l4.39,5.4a.67.67,0,0,1,.11.6.57.57,0,0,1-.5.3l-3.2-.1A.76.76,0,0,0,223.88,222.4Zm-2-4.2,2.6,3.2h1.8l-3.5-4.3h-.5Zm-4.9-6,2.6,3.2h1.3l.1-.4-3.6-4.4Z"/><path class="cls-8" d="M224.48,208.9l-2.7-.8-.9-2.4,5.2,1.5.3.9Zm3.9-1,5.2,1.5-3.1,1.3-2.7-.8-.5-1.5Z"/><path class="cls-8" d="M221.48,208.6c-.11-.1-.2-.2-.2-.3l-.9-2.4a.66.66,0,0,1,.1-.6c.1-.2.4-.2.6-.2l5.2,1.5c.2,0,.3.2.4.3l.3.8h.1l1.2-.5c.1,0,.2-.1.4,0l5.2,1.5a.66.66,0,0,1,.4.5.57.57,0,0,1-.3.5l-3.11,1.3c-.1,0-.2.1-.39,0l-2.7-.8c-.2,0-.3-.2-.4-.3l-.5-1.4h-.1l-2,.8c-.11,0-.2.1-.4,0l-2.7-.8C221.58,208.7,221.48,208.6,221.48,208.6Zm.3-2.1.39,1.1,2.31.7,1.3-.5-.11-.2Zm6.1,2.2.3.8,2.3.6,1.5-.6-3.5-1Z"/><path class="cls-8" d="M226.88,195.3l.9,2.4-2.11,3.5-3.1,1.3Zm4.2,2.9-2.7-.8-.8-2.4,5.2,1.5.3.9Zm.5.3,1.6-.6.4,1.2-2.4,3.9-1.6.6-.4-1.2Zm.2,4.8,2.7.8.89,2.4-5.2-1.5-.3-.9Zm8.5-4.2-4.3,7.1-.9-2.4,2.1-3.4Z"/><path class="cls-8" d="M222.18,202.8l-.1-.1a.37.37,0,0,1,0-.6l4.4-7.1a.55.55,0,0,1,.5-.3h.1l.1-.1a1.07,1.07,0,0,1,.6-.2l5.2,1.5c.2,0,.3.2.4.3l.3.9v.2c.1.1.1.1.1.2l.4,1.2c.1.2,0,.3,0,.5l-2.1,3.4,2.6.8,2.1-3.4c.1-.1.2-.2.3-.2l3.1-1.3a.48.48,0,0,1,.6.2.47.47,0,0,1,.1.6l-4.3,7.1a.55.55,0,0,1-.5.3H236a.1.1,0,0,1-.1.1c-.1.2-.4.2-.6.2l-5.2-1.5c-.2,0-.3-.2-.4-.3l-.3-.9v-.2c-.1-.1-.1-.1-.1-.2l-.4-1.2c-.1-.2,0-.3,0-.5l2.1-3.4-2.6-.8-2.1,3.4c-.11.1-.2.2-.3.2l-3.11,1.3A1.46,1.46,0,0,1,222.18,202.8Zm4.6-6.3-2.9,4.7,1.4-.6,1.89-3.1Zm3.8,7.9.1.1,3.9,1.1-.4-1.1-2.2-.6Zm-.7-1.9.2.4.9-.3,2.19-3.5-.19-.4-.9.3Zm5.8,1.4.4,1.1,2.9-4.7-1.4.6Zm-7.3-8,.4,1.1,2.2.7,1.3-.5-.11-.1Z"/><path class="cls-3" d="M232.48,268.6s-9.9-5.4-17.11,10.9c0,0,9.3,24-2.8,35.8,0,0-4.9-.4-6.7,4.2s-7.5,8.7.7,13.9,23.6-4.3,27-25.6S235.18,273.1,232.48,268.6Z"/><ellipse class="cls-6" cx="141.78" cy="304.68" rx="2.5" ry="2.1" transform="translate(-191.26 259.84) rotate(-57.38)"/><path class="cls-8" d="M143.38,302.8a2.38,2.38,0,0,1,.1,3,2.44,2.44,0,0,1-2.8,1.1,2.69,2.69,0,0,1,2.7-4.1Z"/><ellipse class="cls-6" cx="143.47" cy="296.53" rx="2.5" ry="2.1" transform="translate(-183.62 257.5) rotate(-57.38)"/><path class="cls-8" d="M145.08,294.6a2.38,2.38,0,0,1,.1,3,2.44,2.44,0,0,1-2.8,1.1,2.53,2.53,0,0,1,0-2.9A2.64,2.64,0,0,1,145.08,294.6Z"/><ellipse class="cls-6" cx="136.23" cy="298.29" rx="2.5" ry="2.1" transform="translate(-188.44 252.22) rotate(-57.38)"/><path class="cls-8" d="M137.78,296.4a2.38,2.38,0,0,1,.1,3,2.44,2.44,0,0,1-2.8,1.1,2.53,2.53,0,0,1,0-2.9A2.64,2.64,0,0,1,137.78,296.4Z"/><path class="cls-11" d="M143.38,309s7.2-16.1,3.9-18.4c-3.11-2.1-13,2.2-15.11,4.1a5.14,5.14,0,0,0-1.8,5.4,16.68,16.68,0,0,0,9.7,9.5C140.28,309.6,142.58,310.7,143.38,309Z"/><path class="cls-6" d="M147.48,297.6s1.3-4.6-1-5.6-11.7,2.2-13.61,4.2c-1.8,1.8-1.1,3.9-.3,5.3s4.7,6.6,10.8,7.5c0,0-.7,1.8-3.89.3a19.74,19.74,0,0,1-5.11-3.4s-4.5-4.3-4.2-7.1,1.61-3.7,1.61-3.7a20.7,20.7,0,0,1,4.39-2.6c2.1-.8,7.81-3.1,10.11-2.2s1.89,2.8,1.7,4.3A18,18,0,0,1,147.48,297.6Z"/><path class="cls-8" d="M80.58,238.9l5.1-9.7-3.6-3.5,3.5-6.5-8.5-8-3-1-2.2,5.6-2.6-2.5-2.6-.7-1.2,13.9,5.3,15.8h2.5l3.1-5.9,1.8,2.7Zm-8.9-8.8c-1.3-.4-2-2.7-1.1-5.3s2.8-4.4,4-3.6c1,.6,1.7,2.6.9,5.2S73.08,230.5,71.68,230.1Z"/><path class="cls-12" d="M83.38,219.1l-9.3-8.8-11.9,22.3,8.6,9.8Zm-11.7,11c-3.4-.8-.2-10.5,2.9-8.9C77.38,222.2,74.78,231.2,71.68,230.1Z"/><path class="cls-12" d="M83.48,228.9l-16.8-16.3-5.2,9.9,16.7,16.6Zm-11.8,1.2c-3.4-.8-.2-10.5,2.9-8.9C77.38,222.2,74.78,231.2,71.68,230.1Z"/><path class="cls-4" d="M74.48,228.5c-.1.1-.1.2-.2.2C74.38,228.7,74.38,228.6,74.48,228.5Z"/><path class="cls-4" d="M75.58,225.9c0,.1-.1.2-.1.3C75.48,226.1,75.58,226,75.58,225.9Z"/><path class="cls-4" d="M75.38,226.5h0a5.57,5.57,0,0,1-.9,1.9A5.57,5.57,0,0,0,75.38,226.5Z"/><path class="cls-8" d="M71.68,230.1c-4-.9.9-13,3.7-7.8-1.6-3.1-5.6-2.5-6.9,2.1-1.4,4.3,2.6,8.7,5.69,4.5A2.24,2.24,0,0,1,71.68,230.1Z"/><path class="cls-4" d="M75.48,226.4v0Z"/><path class="cls-4" d="M74.18,228.9l.1-.1A.1.1,0,0,1,74.18,228.9Z"/><path class="cls-4" d="M75.58,225.9a5.38,5.38,0,0,0-.1-3.6A6.22,6.22,0,0,1,75.58,225.9Z"/><path class="cls-11" d="M91.28,249.6v14.7c.2,4.6,3.1,5.9,5.9,5.9h0c3.7-.3,4.9-3.9,5-6.7V251.4l.1-10.4c0-4.6-2.8-6.1-5.6-6.2h0c-3.7.2-5.1,3.7-5.3,6.5Z"/><path class="cls-6" d="M97.28,235.1s-3.5.5-4.4,3.7-.3,19.4-.3,19.4-1.7,6.5,1.3,9.7a4.87,4.87,0,0,0,4.5,2,5.26,5.26,0,0,1-5.9-1.6c-2.5-3-1.4-13.4-1.4-13.4l.19-14.9C91.48,240,92.08,234.2,97.28,235.1Z"/><path class="cls-13" d="M91.58,260c-1.3,7.7,8.4,8.9,9.4.9C101.38,252.6,92.08,251.9,91.58,260Z"/><path class="cls-14" d="M90.88,259.6c-.7,7.9,7.7,9,8.6.9C100.38,252.9,91.68,251.9,90.88,259.6Z"/><path class="cls-13" d="M91.38,244.3c-1.3,7.7,8.4,8.9,9.4.9C101.18,237,91.88,236.2,91.38,244.3Z"/><path class="cls-14" d="M90.78,243.9c-.7,7.9,7.7,9,8.6.9C100.18,237.2,91.48,236.3,90.78,243.9Z"/><path class="cls-6" d="M99.08,235.7a4.06,4.06,0,0,0-5,1.1s.8-2.4,2.5-2A9,9,0,0,1,99.08,235.7Z"/><path class="cls-6" d="M100,268.6s-3.9,1.6-6-.7a1.62,1.62,0,0,0,.7,1.6c1,.6,3.9.4,3.9.4Z"/><path class="cls-15" d="M271.37,127.2a105.06,105.06,0,0,0-13.1-11.9c-3.7-2.7-5.2-5-9-7.6a9.28,9.28,0,0,1-1.79-1.6c-6.21,1.7-10.61,4.2-9.4,8,2.1,6.8,19.29,16,40.1,21.2C275.48,132.1,274.18,130.2,271.37,127.2Z"/><g class="cls-16"><path class="cls-17" d="M238.78,75.5a1.7,1.7,0,0,0-.7-.1,1.37,1.37,0,0,0-1,.8,21.5,21.5,0,0,0-1,7.6,24.44,24.44,0,0,0,1.5,7.6,16.91,16.91,0,0,0,4.29,6.5,13.29,13.29,0,0,0,6.71,3.3,1.32,1.32,0,1,0,.4-2.6c-.3-.1-.71-.1-1-.2a12,12,0,0,1-2.4-1,12.18,12.18,0,0,1-2.21-1.7,14.35,14.35,0,0,1-2.1-2.7,19,19,0,0,1-1.9-4.6,26.08,26.08,0,0,1-.8-5.6h0a18.35,18.35,0,0,1,.6-4.7c.11-.3.2-.7.31-1a1.22,1.22,0,0,0-.7-1.6m.6,13,.1.2Z"/><path class="cls-17" d="M230.18,69.1c.2-.1.4-.1.5-.2a3.28,3.28,0,0,1,1.9.4,12.42,12.42,0,0,1,2.3,1.7,22.84,22.84,0,0,1,2.2,2.2,17.38,17.38,0,0,1,1.3,1.5,1.35,1.35,0,0,1,0,1.7.37.37,0,0,1-.1.3,1.24,1.24,0,0,1-.7.7,1.7,1.7,0,0,1-1,0c-.9-.3-1.8-.6-2.7-1a15.72,15.72,0,0,1-3.1-1.8,4.85,4.85,0,0,1-1.9-2.8,2.79,2.79,0,0,1,1.3-2.7m2.1,3.1h0a8.74,8.74,0,0,0,1,.8c-.4-.3-.7-.6-1-.8"/><path class="cls-17" d="M234.48,64.3a1.64,1.64,0,0,0-.81,1,11,11,0,0,0,.5,5.4,27.68,27.68,0,0,0,2.4,5.2,1.21,1.21,0,0,0,.7.7,1.7,1.7,0,0,0,1,0,1,1,0,0,0,.5-.4,1.59,1.59,0,0,0,.8-1,17.45,17.45,0,0,0-.5-6,8.8,8.8,0,0,0-.5-1.5,6.38,6.38,0,0,0-.8-1.4,5.5,5.5,0,0,0-2.3-2,1.48,1.48,0,0,0-.7-.1.34.34,0,0,1-.29.1"/><path class="cls-17" d="M241,70.7a4.76,4.76,0,0,1,1.29-.4h.8a2,2,0,0,1,1.5.6,2.59,2.59,0,0,1,.9,1.7,2,2,0,0,1-.2,1.1,3.51,3.51,0,0,1-.5.8,9,9,0,0,1-5.1,2.4h-.3a1.28,1.28,0,0,1-1.8-.3,1.32,1.32,0,0,1-.2-1.2A8.55,8.55,0,0,1,241,70.7m1.6,2.2h-.21c-.2.1-.29.1-.5.2a2.89,2.89,0,0,0-.6.5,3,3,0,0,0,.8-.4,2.07,2.07,0,0,0,.51-.3"/><path class="cls-17" d="M242.18,71.3a22.61,22.61,0,0,1-2.6,1.6,1.34,1.34,0,0,0,1.19,2.4h0c.9-.5,1.71-1,2.6-1.6a2.88,2.88,0,0,0,.71-.8,1.18,1.18,0,0,0-.1-1,1.91,1.91,0,0,0-.8-.7h-.6c-.1.1-.21.1-.4.1"/><path class="cls-17" d="M230.18,71.7a1.48,1.48,0,0,0,.8,1.7c.4.1.7.3,1.1.4.6.3,1.3.7,1.9,1a1.25,1.25,0,0,0,1.8-.5,1.17,1.17,0,0,0-.4-1.7,23.13,23.13,0,0,0-3.5-1.8,1.27,1.27,0,0,0-.6-.1,1.57,1.57,0,0,0-1.1,1"/><path class="cls-17" d="M233.48,64.7A2.31,2.31,0,0,1,235,64a2.1,2.1,0,0,1,1.1.1,3.39,3.39,0,0,1,2,1.7,10.44,10.44,0,0,1,1.1,2.4,15.69,15.69,0,0,1,.9,4.3,1.2,1.2,0,0,1-.21,1,1.46,1.46,0,0,1-.89.6,1.22,1.22,0,0,1-1-.2,1.58,1.58,0,0,1-.61-.8,15.77,15.77,0,0,0-.89-4.2,8.33,8.33,0,0,0-.81-1.7c-.1-.1-.19-.3-.39-.4l-.11-.1h0c0,.1-.1.1-.1.2v.6a10.46,10.46,0,0,0,.4,1.7,8.86,8.86,0,0,0,.8,1.7h0a1.21,1.21,0,0,1,.3,1,1.49,1.49,0,0,1-.4.9,1.38,1.38,0,0,1-1.89-.1,6.26,6.26,0,0,1-1.11-2.1,10.75,10.75,0,0,1-.69-3.1,4.47,4.47,0,0,1,1-2.8"/><path class="cls-18" d="M275.58,60.6a9.6,9.6,0,0,1,5.79.6,7,7,0,0,1,2.21,1.6,9.19,9.19,0,0,1,1.6,2.7c.1,0,.1,0,.2.1a6.41,6.41,0,0,1,.8-3,6.25,6.25,0,0,1,1.8-2.2,11.66,11.66,0,0,1,5.39-2.2h.21a18.52,18.52,0,0,1,9.6,1.4,21.48,21.48,0,0,1,2.6,1.4,10.63,10.63,0,0,1,1.1.9,4.81,4.81,0,0,1,.9,1.1,7.5,7.5,0,0,1,1,2,6.47,6.47,0,0,1,.4,2,4.23,4.23,0,0,1,.7-.5,8.86,8.86,0,0,1,1.7-.8,4,4,0,0,1,1.5-.3,16.2,16.2,0,0,1,2.2-.1,5.82,5.82,0,0,1,1.9.3c.6.2,1.3.4,1.9.6a14.13,14.13,0,0,1,3.4,1.9,13.31,13.31,0,0,1,3.8,4.4,13.09,13.09,0,0,1,.9,2.8,7,7,0,0,1-.1,2.5,3.48,3.48,0,0,1,1-.2,9.42,9.42,0,0,1,2.9.1,9.28,9.28,0,0,1,3.6,1.7,6.62,6.62,0,0,1,2.1,3.1,5.84,5.84,0,0,1,.2,1.9,6.53,6.53,0,0,1-.5,2,5.39,5.39,0,0,1-.7,1.3,12.92,12.92,0,0,1,4.8,2.8,12.39,12.39,0,0,1,2.1,2.4,8.25,8.25,0,0,1,1.2,2.7,5,5,0,0,1,.2,1.2V98a6,6,0,0,1-.8,2.1,7.87,7.87,0,0,1-3.9,2.8,6.21,6.21,0,0,1,2,5.8.6.6,0,0,1-.1.4.85.85,0,0,1,0,.7l-.3.4a8.3,8.3,0,0,1-1.9,2.7.52.52,0,0,1-.4.2h-.1c-.9,1-1.8,2.1-2.8,3.2a79.29,79.29,0,0,1-7.1,7.1,55.16,55.16,0,0,1-8.2,6.2A37.51,37.51,0,0,1,316,132a21.81,21.81,0,0,1-4.5,1.6,22.11,22.11,0,0,1-2.5.5,19.06,19.06,0,0,1-6.3-.2,18.66,18.66,0,0,1-2.2-.7,20,20,0,0,1-2.1-1,15.39,15.39,0,0,1-3.4-2.8,15,15,0,0,1-1.1-1.3l-.6,1.5a16.33,16.33,0,0,1-4.2,5.2,12.74,12.74,0,0,1-1.9,1.3,18.47,18.47,0,0,1-6,2,21.05,21.05,0,0,1-2.5.2,38.66,38.66,0,0,1-4.8-.3,43.11,43.11,0,0,1-4.9-1.1,65.63,65.63,0,0,1-9.6-3.7,94.16,94.16,0,0,1-8.8-4.9c-1.1-.7-2.3-1.5-3.5-2.3h0a.6.6,0,0,1-.4-.1,7.21,7.21,0,0,1-2.5-2.1l-.4-.3a.62.62,0,0,1-.2-.7c-.1-.1-.1-.2-.2-.3a6.94,6.94,0,0,1-.5-1.3,5.67,5.67,0,0,1,.1-2.9,9.62,9.62,0,0,1,.7-1.8,7.49,7.49,0,0,1-4.5-1.6,4.63,4.63,0,0,1-1.3-1.8,4.48,4.48,0,0,1-.5-2.3,9.25,9.25,0,0,1,.4-2.9,11.08,11.08,0,0,1,1.4-2.9,13.22,13.22,0,0,1,3.8-4,5.24,5.24,0,0,1-1.1-1,6.37,6.37,0,0,1-1-1.8,5.66,5.66,0,0,1-.3-1.8,6.63,6.63,0,0,1,1.1-3.6,9.72,9.72,0,0,1,3-2.7,14.26,14.26,0,0,1,2.7-.9,3.4,3.4,0,0,1,1-.1,11.28,11.28,0,0,1-.8-2.4,9.42,9.42,0,0,1,.1-2.9,12.79,12.79,0,0,1,2.4-5.3,12.4,12.4,0,0,1,2.8-2.8,9.91,9.91,0,0,1,1.7-1.1,14.17,14.17,0,0,1,1.8-.8,16.55,16.55,0,0,1,2.1-.6,7.57,7.57,0,0,1,1.5-.1,6.28,6.28,0,0,1,1.9.3,2.35,2.35,0,0,0,.8.2,6.73,6.73,0,0,1-.1-2,5.45,5.45,0,0,1,.5-2.2c.2-.4.4-.9.6-1.3s.5-.8.8-1.2a10.45,10.45,0,0,1,2.1-2.1,19.49,19.49,0,0,1,8.9-4l.1-.2"/><path class="cls-19" d="M279.58,60.9h-.21c-.1,0-.2,0-.2.1a1.38,1.38,0,0,0-.3.4.66.66,0,0,0,.5.8h0c.5.1.9.2,1.3.3a8,8,0,0,1,1.6.8,4.89,4.89,0,0,1,1.3,1.2,4.19,4.19,0,0,1,.9,1.4,5,5,0,0,1,.4,1.3c0,.3.1.5.1.8s.4.6.7.5a.56.56,0,0,0,.5-.6,7.67,7.67,0,0,0-6.59-7"/><path class="cls-19" d="M280.18,61.2a4.94,4.94,0,0,1,3,1.4,26.22,26.22,0,0,1,2.2,2.5.65.65,0,1,1-1.1.7h0a10.63,10.63,0,0,0-.9-1.1,12.09,12.09,0,0,0-1.6-1.6,3.13,3.13,0,0,0-1-.5c-.3-.1-.6-.1-.9-.2s-.3-.1-.4-.3a.75.75,0,0,1-.1-.5c0-.2.1-.3.3-.4a.35.35,0,0,0,.2-.1.37.37,0,0,0,.3.1"/><path class="cls-19" d="M244.58,114.6h-.21c-.1,0-.2.1-.29.1a3.41,3.41,0,0,0-1.5,2.2,6.3,6.3,0,0,0,0,2.8,9.61,9.61,0,0,0,1.1,2.8,3.92,3.92,0,0,0,.8,1c.2.2.39.3.5.5l.5.3a.45.45,0,0,0,.5,0c.2-.1.29-.2.29-.3a.45.45,0,0,0,0-.5l-.29-.3h0c-.21-.2-.5-.3-.71-.5a4.41,4.41,0,0,1-.79-1.1,9.32,9.32,0,0,1-.71-1.7,7.77,7.77,0,0,1-.2-1.6,3.4,3.4,0,0,1,.1-1c.1-.2.2-.5.3-.7a1,1,0,0,1,.4-.5,2.18,2.18,0,0,1,.5-.4.63.63,0,0,0,.1-.9.76.76,0,0,0-.4-.2m-.7,2.9h0"/><path class="cls-19" d="M338.37,102.6h-.29a.65.65,0,0,0-.5.4.6.6,0,0,0,.4.8c.2.1.39.1.6.2a2.65,2.65,0,0,1,.6.5,1.79,1.79,0,0,1,.5.7,4.18,4.18,0,0,1,.4,1,5.85,5.85,0,0,1,.2,1.3,4.87,4.87,0,0,1-.1,1.2,3.55,3.55,0,0,1-.4.9,2.65,2.65,0,0,1-.5.6h0a.76.76,0,0,0-.2.4.75.75,0,0,0,.1.5.76.76,0,0,0,.4.2.75.75,0,0,0,.5-.1,3.88,3.88,0,0,0,.79-1,5.56,5.56,0,0,0,.5-1.2,6.16,6.16,0,0,0,.11-2.7,5.24,5.24,0,0,0-1-2.4,5.36,5.36,0,0,0-2.11-1.3"/><path class="cls-20" d="M293.37,58.2h.11a17.73,17.73,0,0,1,6.5.4,16,16,0,0,1,3.1,1,22.26,22.26,0,0,1,2.6,1.4,10.63,10.63,0,0,1,1.1.9,4.81,4.81,0,0,1,.9,1.1,7.5,7.5,0,0,1,1,2,11.7,11.7,0,0,1,.5,2c.2-.2.4-.3.6-.5a8.86,8.86,0,0,1,1.7-.8,8,8,0,0,1,1.5-.3,16.2,16.2,0,0,1,2.2-.1,10.79,10.79,0,0,1,1.9.3c.6.2,1.3.4,1.9.6a14.13,14.13,0,0,1,3.4,1.9,13.31,13.31,0,0,1,3.8,4.4,13.09,13.09,0,0,1,.9,2.8,11.3,11.3,0,0,1,0,2.6,3.48,3.48,0,0,1,1-.2,9.42,9.42,0,0,1,2.9.1,9.28,9.28,0,0,1,3.6,1.7,6.62,6.62,0,0,1,2.1,3.1,5.84,5.84,0,0,1,.2,1.9,6.53,6.53,0,0,1-.5,2,5.39,5.39,0,0,1-.7,1.3,12.92,12.92,0,0,1,4.8,2.8,12.39,12.39,0,0,1,2.1,2.4,6.6,6.6,0,0,1,1.2,2.7,5,5,0,0,1,.2,1.2,4.87,4.87,0,0,1-.1,1.2,5.39,5.39,0,0,1-.8,2.1,7.87,7.87,0,0,1-3.9,2.8c.1.1.2.1.2.2a4.74,4.74,0,0,1,1,1,5.6,5.6,0,0,1,1,2.4,8.17,8.17,0,0,1-.1,2.7c0,.1-.1.2-.1.3s0,.1-.1.2a1.61,1.61,0,0,1-.4.7c-.1.2-.3.4-.4.6a8.62,8.62,0,0,1-1.4,1.8.52.52,0,0,1-.4.2h-.1c-.8,1-1.8,2.1-2.8,3.2a95.12,95.12,0,0,1-7.1,7.1,55.16,55.16,0,0,1-8.2,6.2,37.51,37.51,0,0,1-4.4,2.4,21.81,21.81,0,0,1-4.5,1.6,22.11,22.11,0,0,1-2.5.5,19.06,19.06,0,0,1-6.3-.2,18.66,18.66,0,0,1-2.2-.7,20,20,0,0,1-2.1-1,15.39,15.39,0,0,1-3.4-2.8,4.35,4.35,0,0,1-.6-.7,22.5,22.5,0,0,0,2.4-.8c2.3-.8,4.6-1.7,6.9-2.6A64.2,64.2,0,0,0,310,122a34.26,34.26,0,0,0,5.4-4,18.26,18.26,0,0,0,3.7-4.6,11.66,11.66,0,0,0,1-2.6,12.59,12.59,0,0,0,.4-2.7,9.67,9.67,0,0,0-.4-2.9,10.21,10.21,0,0,0-1.1-2.9,22.88,22.88,0,0,0,2.8-.8,11.4,11.4,0,0,0,1.9-1,10.1,10.1,0,0,0,1.6-1.3,4.05,4.05,0,0,0,.5-.9,3.55,3.55,0,0,0,.4-.9,4.25,4.25,0,0,0,.2-1.1V95.2a2.66,2.66,0,0,0-.3-1.2,4.67,4.67,0,0,0-.5-1,8.65,8.65,0,0,0-.7-1,6,6,0,0,0-.8-.8,25.45,25.45,0,0,0-3.9-2.4,13,13,0,0,0,1-1.5c.3-.5.5-1,.8-1.5a10.24,10.24,0,0,0,.8-3V81.4l-.3-1.2a11.18,11.18,0,0,0-1.1-2.5,11.42,11.42,0,0,0-2.9-2.9,13.84,13.84,0,0,0-3.9-1.8,17,17,0,0,0-2.2-.4,16.2,16.2,0,0,0-2.2-.1,16,16,0,0,0-2.3.3,11.76,11.76,0,0,0-2,.7,7.49,7.49,0,0,0-.2-2.1,8.78,8.78,0,0,0-.7-2.3,13.16,13.16,0,0,0-2.61-4,21,21,0,0,0-4.29-3.6,3.13,3.13,0,0,0-1-.5l-.9-.4a18,18,0,0,0-2.1-.8,18.92,18.92,0,0,0-2.3-.5,4.87,4.87,0,0,0-1.2-.1h-.3a13.65,13.65,0,0,1,2.9-.7Z"/><path class="cls-21" d="M282.18,67.8c.2,0,.4,0,.5.2a.76.76,0,0,1,.2.5.9.9,0,0,1-.1.5,1.79,1.79,0,0,0-.5.7,8.26,8.26,0,0,0-.7,1.3,4,4,0,0,0-.3,1.6,10.87,10.87,0,0,0,.1,1.8,4.92,4.92,0,0,0,.6,1.7c.3.5.6,1,.9,1.4l.3.3a.64.64,0,0,1,.1.9c-.1.1-.2.2-.3.2a.76.76,0,0,0-.4.2,6.73,6.73,0,0,0-1.1.7,3.92,3.92,0,0,0-.8,1,5.17,5.17,0,0,0-.6,1.3,4.67,4.67,0,0,0-.3,1.7,13.4,13.4,0,0,0,.1,2,4.92,4.92,0,0,0,.6,1.7,8.34,8.34,0,0,0,.8,1.2,9,9,0,0,0,1,.9,10.91,10.91,0,0,0,1.1.6.68.68,0,0,1,.4.6.86.86,0,0,1-.3.6c-.2.1-.4.3-.6.4a10.59,10.59,0,0,0-1,1.2,9.14,9.14,0,0,0-.7,1.4,4.15,4.15,0,0,0-.3,1.6,8.6,8.6,0,0,0,.1,1.6,5.82,5.82,0,0,0,1.2,2.5,9,9,0,0,0,1,.9,8.26,8.26,0,0,0,1.3.7h.2c.2,0,.3.1.4.3a.85.85,0,0,1,0,.7,21,21,0,0,0-1.3,2.6,6.87,6.87,0,0,0-.5,2.4,10.87,10.87,0,0,0,.1,1.8,6.47,6.47,0,0,0,.4,1.3,6.73,6.73,0,0,0,.7,1.1,9,9,0,0,0,1,.9,8,8,0,0,0,1.6.8l.3.1a.62.62,0,0,1,.5.8c0,.1-.1.2-.1.3l-.3.4a5.56,5.56,0,0,0-.9,1.7c-.1.4-.2.9-.3,1.3a5.7,5.7,0,0,0,.1,1.3,6.47,6.47,0,0,0,.4,1.3c.3.5.6,1,.9,1.4a9.34,9.34,0,0,0,1.8,1.6,21.16,21.16,0,0,0,2.1,1.1q.3.15.3.3a.45.45,0,0,1,0,.5.55.55,0,0,1-.5.3.6.6,0,0,1-.4-.1,13.85,13.85,0,0,1-3.3-2,8,8,0,0,1-1.3-1.3,5.07,5.07,0,0,1-.9-1.6,5.81,5.81,0,0,1-.5-3.4,9.77,9.77,0,0,1,1.1-3,8,8,0,0,1-2.7-1.8,5.55,5.55,0,0,1-.6-.8c-.2-.3-.3-.5-.5-.8a8.45,8.45,0,0,1-.5-1.7,9.26,9.26,0,0,1,.2-3.7,12,12,0,0,1,1.3-3.1c-.1,0-.1,0-.2-.1a5.3,5.3,0,0,1-1-.6,6.81,6.81,0,0,1-2.9-4.8,8.17,8.17,0,0,1,.5-3.8,6.77,6.77,0,0,1,1.8-2.6,7.16,7.16,0,0,1-3.3-5.1,7.81,7.81,0,0,1,1.7-6.4,4.81,4.81,0,0,1,1.6-1.2,1.38,1.38,0,0,1-.3-.4c-.3-.4-.5-.9-.8-1.3a7.52,7.52,0,0,1,1.2-8.2c.1-.1.2-.2.3-.2l.3-.2"/><path class="cls-21" d="M270.58,74.6h.29a6.71,6.71,0,0,1,3.11.7.75.75,0,0,1,.39.9.65.65,0,0,1-.5.4h-.29a5.54,5.54,0,0,0-1.21-.4c-.39-.1-.7-.1-1.1-.2h-.4a.71.71,0,0,0-.39.1c-.21.1-.4.1-.61.2a1.9,1.9,0,0,0-.5.4,1.71,1.71,0,0,0-.39.5,4.5,4.5,0,0,0-.3.8,4.87,4.87,0,0,0-.1,1.2,9.85,9.85,0,0,0,.2,1.7,1.07,1.07,0,0,1-.2.6.38.38,0,0,1-.3.1.9.9,0,0,1-.5-.1,5.55,5.55,0,0,0-.8-.6l-.6-.3a4.33,4.33,0,0,1-.5-.1h-.2l-.3.1a1.42,1.42,0,0,1-.6.2,4.35,4.35,0,0,0-.7.6,4.44,4.44,0,0,0-.8,1.1,14.17,14.17,0,0,0-.8,1.8,5.54,5.54,0,0,0-.2,1.8c0,.4.1.7.1,1.1a.45.45,0,0,1,0,.5c-.1.2-.2.3-.4.3h-.5a1.38,1.38,0,0,1-.4-.3,7.77,7.77,0,0,1-.2-1.6,11,11,0,0,1,.2-1.8,10.39,10.39,0,0,1,1.5-3.4,12,12,0,0,1,1.1-1.2,5.07,5.07,0,0,1,1.5-.7h.2a2.62,2.62,0,0,1,1.5.2c.1,0,.2.1.4.2a8.6,8.6,0,0,1,.1-1.6,5.64,5.64,0,0,1,.4-1.2,4.44,4.44,0,0,1,.8-1.1,3.59,3.59,0,0,1,1-.7,2.91,2.91,0,0,1,1-.2"/><path class="cls-21" d="M254.37,99.3h.21a.74.74,0,0,1,.79.6c0,.3-.2.7-.5.7h-.29l-.4.1a4.88,4.88,0,0,1-.7.3,2.69,2.69,0,0,0-.61.5,6.39,6.39,0,0,0-.6.8,4.64,4.64,0,0,0-.4,1,3.4,3.4,0,0,0-.1,1,2,2,0,0,0,.1.8c.11.2.11.4.21.5a1.59,1.59,0,0,0,.29.4c.11.1.3.2.4.3a1.47,1.47,0,0,0,.6.2l.21.1a.69.69,0,0,1,.6.4.78.78,0,0,1-.2.8,2.69,2.69,0,0,0-.61.5,6.39,6.39,0,0,0-.6.8,6.12,6.12,0,0,0-.5,1.2,7.84,7.84,0,0,0-.2,1.4,4.87,4.87,0,0,0,.1,1.2,3.38,3.38,0,0,0,.6,1.2c.1.1.21.2.3.2s.2.1.4.2h.8a.6.6,0,0,0,.4-.1c.2-.1.4-.1.6-.2h.2a.67.67,0,0,1,.7.4c.1.3.3.6.4.9a4.81,4.81,0,0,0,.9,1.1,5.5,5.5,0,0,0,.9.7c.2.1.5.2.7.3s.4.1.6.1h.6c.2-.1.3-.1.5-.2a1.47,1.47,0,0,0,.6-.5.37.37,0,0,1,.3-.1h.2a.52.52,0,0,1,.4.2.44.44,0,0,1,.1.5.52.52,0,0,1-.2.4,3.65,3.65,0,0,1-4.3.7,6.55,6.55,0,0,1-1.8-1.5,4.19,4.19,0,0,1-.9-1.4c-.2.1-.5.1-.8.2a3.21,3.21,0,0,1-1.7-.2,3.39,3.39,0,0,1-1.7-2,6.13,6.13,0,0,1-.2-3A7,7,0,0,1,252,108l.2-.2c-.1,0-.2-.1-.3-.2a5,5,0,0,1-1-1,4.92,4.92,0,0,1-.6-2.9,5.07,5.07,0,0,1,1.21-2.7,4,4,0,0,1,2.6-1.4"/><path class="cls-21" d="M297.18,76.1a3.67,3.67,0,0,1,1.8.1,5.37,5.37,0,0,1,3.89,2.8,4.58,4.58,0,0,1,1.11-.3l.5-.1a5.57,5.57,0,0,1,1.29-.1,6.36,6.36,0,0,1,3.21,1,5.52,5.52,0,0,1,2,2.5,6.26,6.26,0,0,1,.29,1.9,7.79,7.79,0,0,1-.4,2.1.65.65,0,0,1-.5.4H310a.68.68,0,0,1-.4-.8c0-.1.1-.3.1-.4a7.72,7.72,0,0,0,.2-1.5c0-.4-.1-.7-.1-1.1a3.55,3.55,0,0,0-.4-.9,4.35,4.35,0,0,0-.6-.7,5.55,5.55,0,0,0-.8-.6,5.36,5.36,0,0,0-1.1-.5h0c-.5-.1-1-.1-1.4-.2a2.2,2.2,0,0,0-.8.1,2.35,2.35,0,0,0-.8.2c-.4.1-.8.3-1.2.4h-.1a.69.69,0,0,1-.71-.4c-.1-.2-.2-.5-.29-.7s-.4-.5-.6-.8a6,6,0,0,0-.9-.7,5.61,5.61,0,0,0-1.1-.5,4.18,4.18,0,0,0-1.11-.1h-.5l-.39.1a5.05,5.05,0,0,1-.71.3,1.9,1.9,0,0,0-.5.4,2.32,2.32,0,0,0-.4.6v.1c-.1.2-.2.3-.29.3h-.5a.75.75,0,0,1-.4-.4.3.3,0,0,1,0-.4c.1-.2.3-.5.4-.7s.29-.4.5-.6a4,4,0,0,1,1.1-.7c.4,0,.69-.1,1-.1"/><path class="cls-21" d="M330.87,95.7a.89.89,0,0,1,.5.1l.71.7a2.18,2.18,0,0,1,.5.8,4.65,4.65,0,0,1,.5,1.5,3.39,3.39,0,0,1-1,2.7,6.42,6.42,0,0,1-1.3,1,4.71,4.71,0,0,1-1.5.6,4.33,4.33,0,0,0-.5.1,4.3,4.3,0,0,1-1.6,0,2.2,2.2,0,0,1,.1.8,6.48,6.48,0,0,1-.2,2,4.43,4.43,0,0,1-1.8,2.6,4.38,4.38,0,0,1-1.9.7,2.85,2.85,0,0,1-1.3,0,4.92,4.92,0,0,1-1.7-.6,6.73,6.73,0,0,1-1.1-.7,3.74,3.74,0,0,1-1.2,1.3,3.1,3.1,0,0,1-1.3.6h-.2a5,5,0,0,1-1.21-.1.5.5,0,0,1-.39-.2.43.43,0,0,1-.11-.5c0-.3.3-.5.5-.6h.21c.2,0,.4.1.6.1h.2a.37.37,0,0,0,.3-.1c.2,0,.3-.1.5-.2a2.18,2.18,0,0,0,.5-.4,5.55,5.55,0,0,0,.6-.8c.1-.2.2-.3.2-.5a.66.66,0,0,1,.5-.4h.4c.1,0,.2.1.3.2l1.2.9a4.18,4.18,0,0,0,1,.4,2.77,2.77,0,0,0,.9.1h.4a.6.6,0,0,0,.4-.1,2.85,2.85,0,0,0,1.4-.8,1.9,1.9,0,0,0,.5-.7c.1-.3.29-.6.39-.9a4.44,4.44,0,0,0,.11-1.2,5.88,5.88,0,0,0-.21-1.4c0-.1-.1-.3-.1-.4a.62.62,0,0,1,.1-.7.76.76,0,0,1,.4-.2h.4l.3.1a4.87,4.87,0,0,0,1.2.1,1.27,1.27,0,0,0,.6-.1c.2,0,.4-.1.7-.1s.71-.3,1.11-.4.5-.4.79-.6a1.9,1.9,0,0,0,.4-.6,1.69,1.69,0,0,0,.2-.5c0-.2.11-.3.11-.5a1.17,1.17,0,0,0-.11-.6c-.1-.2-.2-.5-.29-.7s-.5-.6-.71-.9h0a.52.52,0,0,1-.2-.4.9.9,0,0,1,.1-.5c-.19.2-.09.1.1,0"/><path class="cls-22" d="M297.87,102a8.8,8.8,0,1,1,6-10.9h0a8.84,8.84,0,0,1-6,10.9"/><path class="cls-22" d="M262.68,105.6a8.8,8.8,0,1,0-8.8-8.8h0a8.86,8.86,0,0,0,8.8,8.8h0"/><path class="cls-17" d="M294.48,101.5a7.8,7.8,0,1,0-7.8-7.8h0a7.81,7.81,0,0,0,7.8,7.8"/><path class="cls-17" d="M261.68,104.7a7.8,7.8,0,1,0-7.8-7.8,7.81,7.81,0,0,0,7.8,7.8h0"/><path class="cls-22" d="M260.28,101.8a4.9,4.9,0,1,0-4.9-4.9,4.91,4.91,0,0,0,4.9,4.9h0"/><path class="cls-22" d="M292.78,98.9a4.9,4.9,0,1,0-4.9-4.9h0a4.9,4.9,0,0,0,4.9,4.9h0"/><path class="cls-23" d="M279.08,98h.4a6.51,6.51,0,0,1,1.39.1,7.84,7.84,0,0,1,1.4.5,9,9,0,0,1,1.21.8c.1,0,.1,0,.2.1a.57.57,0,0,1,.2.7h0a3.9,3.9,0,0,1-2.7,1.8,4.25,4.25,0,0,1-1.1.2l-.5.1h-1c-.5,0-.9-.1-1.4-.1a6.47,6.47,0,0,1-1.3-.4c-.4-.1-.6-.4-.8-.8v-.6l.3-.6c.2-.2.4-.5.7-.6a4.05,4.05,0,0,1,.9-.5,13.36,13.36,0,0,1,1.8-.7s.09-.1.3,0"/><path class="cls-17" d="M274.37,94.1a.34.34,0,0,0-.29.1,4.44,4.44,0,0,0-1.1.8,3.53,3.53,0,0,0-.71,2.8,4.15,4.15,0,0,0,.5,1.4,3.58,3.58,0,0,0,.9,1.2,11.41,11.41,0,0,0,1.1,1.1,5.67,5.67,0,0,0,1.3.8,5,5,0,0,0,1.3.4c.2,0,.5.1.7.1h.8a2.77,2.77,0,0,0,.9-.1,7.42,7.42,0,0,0,2.1-.7,6.77,6.77,0,0,0,2.4-2,5.8,5.8,0,0,0,1.2-2.9,7.52,7.52,0,0,0,0-1.5,5,5,0,0,0-.4-1.3,3.92,3.92,0,0,0-.8-1,2.18,2.18,0,0,0-1.1-.5,2,2,0,0,0-1.1,0l-.2.1c-.3.1-.5.2-.8.3a4.7,4.7,0,0,0-.9.6c-.2.1-.4.3-.6.4a4.37,4.37,0,0,0-.8.7l-.29.2h-.21c-.2,0-.4.1-.6.1a3.58,3.58,0,0,1-1.1-.4,5.64,5.64,0,0,0-1.2-.4,1.41,1.41,0,0,0-1-.3M279,98.5h0l.6-.1.6-.1a4.1,4.1,0,0,1,1.1.1l.9.3a5.55,5.55,0,0,1,.8.6,2.84,2.84,0,0,1,.7.8h.1a12,12,0,0,1-1.2,1.1,7.26,7.26,0,0,1-1.8.8h0a3,3,0,0,1-1,.2,2.77,2.77,0,0,1-.9.1,7.57,7.57,0,0,1-1.5-.1h-.1c-.4-.1-.8-.3-1.1-.4a.76.76,0,0,0-.4-.2v-.1c.1-.1.1-.3.2-.4a8.34,8.34,0,0,1,.8-1.2h0a9,9,0,0,1,1-.9l1.2-.6h0Z"/><path class="cls-17" d="M327.58,64.6l.6-.3a1.15,1.15,0,0,1,1.2.5,20,20,0,0,1,3.1,7,24.84,24.84,0,0,1,.6,7.7,17.34,17.34,0,0,1-2.3,7.4,12.92,12.92,0,0,1-5.6,5,1.44,1.44,0,0,1-1.8-.6,1.37,1.37,0,0,1,.6-1.8h.1c.3-.2.6-.3.9-.5a15.58,15.58,0,0,0,2-1.6,11.22,11.22,0,0,0,1.6-2.2,16.92,16.92,0,0,0,1.3-3.1,20.53,20.53,0,0,0,.6-4.9,21,21,0,0,0-.8-5.6c0,.1,0,.2.1.2s0-.2-.1-.2v0a23.93,23.93,0,0,0-1.8-4.4l-.6-.9a1.17,1.17,0,0,1,.3-1.7"/><path class="cls-17" d="M334.08,56h-.6a3.14,3.14,0,0,0-1.71.9A12.32,12.32,0,0,0,330,59.1c-.61.9-1.11,1.8-1.61,2.7l-.89,1.8a1.36,1.36,0,0,0,.5,1.6c0,.1.1.2.2.3a1.35,1.35,0,0,0,.9.5,1.69,1.69,0,0,0,1-.3,19.41,19.41,0,0,0,2.29-1.7,15.39,15.39,0,0,0,2.5-2.6,4.61,4.61,0,0,0,1-3.2,2.34,2.34,0,0,0-1.79-2.2m-1,3.5h0a4.14,4.14,0,0,1-.8,1,3.92,3.92,0,0,1,.8-1"/><path class="cls-17" d="M328.58,52.7a1.61,1.61,0,0,1,1,.8,11.2,11.2,0,0,1,1,5.4,26.18,26.18,0,0,1-.9,5.6,1.29,1.29,0,0,1-1.5,1.1h0a.86.86,0,0,1-.6-.3,1.19,1.19,0,0,1-1-.8,16.9,16.9,0,0,1-1.1-5.9,7.57,7.57,0,0,1,.1-1.5,9.36,9.36,0,0,1,.4-1.6,4.77,4.77,0,0,1,1.7-2.5l.6-.3c0-.1.2-.1.3,0"/><path class="cls-17" d="M324.08,60.6a2.85,2.85,0,0,0-1.3,0,2.35,2.35,0,0,0-.8.2,2.56,2.56,0,0,0-1.3,1,2.32,2.32,0,0,0-.4,1.8,3.13,3.13,0,0,0,.5,1,4.35,4.35,0,0,0,.7.6c1.6,1.1,3.7,1,5.6.9a.37.37,0,0,0,.3-.1,1.38,1.38,0,0,0,1.7-.8,1.32,1.32,0,0,0-.2-1.2,8.27,8.27,0,0,0-4.8-3.4m-1,2.6h.2a.9.9,0,0,1,.5.1c.2.1.5.2.7.3-.3,0-.6-.1-.8-.1-.2-.2-.4-.2-.6-.3"/><path class="cls-17" d="M323.08,61.5a24.54,24.54,0,0,0,2.9.8,1.34,1.34,0,1,1-.61,2.6h0c-1-.2-1.89-.5-2.89-.8a1.52,1.52,0,0,1-.8-.6,1.3,1.3,0,0,1,.4-1.8,1.42,1.42,0,0,1,.6-.2h.4"/><path class="cls-17" d="M334.68,58.6a1.38,1.38,0,0,1-.3,1.8c-.3.2-.6.5-.9.7L332,62.6a1.35,1.35,0,0,1-2-1.8,18.57,18.57,0,0,1,2.9-2.7,1.69,1.69,0,0,1,.5-.2,1.43,1.43,0,0,1,1.3.7"/><path class="cls-17" d="M329.58,52.7a2.51,2.51,0,0,0-1.71-.3,3.08,3.08,0,0,0-1,.4,4.35,4.35,0,0,0-1.5,2.2,10.87,10.87,0,0,0-.39,2.6,16.31,16.31,0,0,0,.29,4.4,1.22,1.22,0,0,0,.5.9,1.21,1.21,0,0,0,1,.3,1.18,1.18,0,0,0,.9-.5,1.21,1.21,0,0,0,.3-1,14.89,14.89,0,0,1-.3-4.2,6.28,6.28,0,0,1,.3-1.9c.1-.2.1-.3.2-.5l.1-.1h.1c0,.1.11.1.11.2s.1.4.2.6a9.7,9.7,0,0,1,.1,1.7,5.82,5.82,0,0,1-.3,1.9h0a1.73,1.73,0,0,0-.1,1,1.21,1.21,0,0,0,.7.7,1.44,1.44,0,0,0,1.8-.6,6.87,6.87,0,0,0,.5-2.4,8.66,8.66,0,0,0-.2-3.2,3,3,0,0,0-1.6-2.2"/></g><path class="cls-24" d="M28.48,311.6c0-.1-.1-.1-.2-.1a9.55,9.55,0,0,1-2.4-2.1l-.7-.7c-.2-.5-.8-.7-.9-1.2a3.45,3.45,0,0,0-1.2-1.2c-1.4-1.9-3.5-3-4.9-4.8a19.47,19.47,0,0,0-2.6-2.4c-.4-.9-1.5-1.3-2-2.2l-2.2-2.1c-.6-1.1-1.9-1.6-2.5-2.7l-1.2-1.2c-.21-.5-.8-.7-1-1.3l-.6-.7c-.11-.4-.61-.6-.71-1l-.4-.5a4.38,4.38,0,0,0-.39-.7A13.73,13.73,0,0,0,2.87,285c-.2-.5-.79-.7-.9-1.2l-.7-.7c-.1-.3-.3-.5-.4-.8,0-.1,0-.2-.1-.2-.1-.3-.4-.5-.4-.8h0c0-.3-.29-.5-.29-.8h0a.41.41,0,0,1,0-.5h0a.41.41,0,0,1,0-.5h0c-.11-.3.2-.5.1-.8h0a.75.75,0,0,1,.1-.5h0c-.1-.3.2-.5.2-.8h0c-.1-.3.2-.5.3-.8a.37.37,0,0,0,.1-.3l.1-.5H1c-.1-.3.2-.5.3-.8l.1-.1v-.1c0-.3.3-.5.3-.8l.1-.1v-.1c0-.3.3-.5.3-.8l.1-.1v-.2c.1-.3.29-.5.29-.8l.11-.1v-.1c0-.4.5-.6.5-1l.39-.5c.11-.4.5-.6.61-1l.6-.8c.1-.5.7-.7.79-1.3l.9-1.1c.21-.8,1.1-1.1,1.3-1.8L9,262.6c.6-1.2,1.9-2,2.5-3.2l6.1-6.7c.8-.2,1-1.1,1.7-1.4l.7-.7c.4-.1.6-.5,1-.7l.5-.4a4.35,4.35,0,0,0,.7-.4c.1,0,.2-.1.3-.2.3,0,.5-.3.7-.4h.1l.1-.1c.2-.1.3-.1.5-.2s.2-.1.3-.1c.3-.1.5-.4.8-.3h0l.5-.1c.1,0,.2,0,.2-.1a1.27,1.27,0,0,1,.6-.1h0c.3,0,.5-.3.8-.2h0a.9.9,0,0,1,.5-.1h2c.3-.1.5.2.8.2h0c.3,0,.5.2.8.3.1.1.2.2.3.2.7.2,1,.9,1.6,1.1l1.1,1c.3.7,1.2,1,1.5,1.7l.4.5c.1.4.6.6.7,1a.22.22,0,0,0,.2.2c.1.3.4.5.4.8h0c0,.3.3.5.3.8h0c0,.3.3.5.3.8h0c0,.3.3.5.2.8h0a.9.9,0,0,1,.1.5h0c0,.3.3.5.2.8h0a.9.9,0,0,1,.1.5h0c0,.3.3.5.2.8v-.1a1.09,1.09,0,0,1,.1.5h0a.45.45,0,0,1,0,.5h0a.9.9,0,0,0,.1.5h0v.5h0v.5h0c-.1.3.3.5.2.8v-.1a.45.45,0,0,1,0,.5h0a.45.45,0,0,1,0,.5h0a.45.45,0,0,1,0,.5h0a.45.45,0,0,1,0,.5h0a.45.45,0,0,1,0,.5h0a.45.45,0,0,1,0,.5h0a.45.45,0,0,1,0,.5h0c.1.3-.2.5-.1.8h0v.5h0v.5h0a.64.64,0,0,1,0,.6.37.37,0,0,0-.1.3v.5h0a1.27,1.27,0,0,1-.1.6.37.37,0,0,0-.1.3v.4h0a1.27,1.27,0,0,1-.1.6c-.1,0-.1.1-.1.2a.9.9,0,0,1-.1.5h0c.1.3-.2.5-.2.8h0c0,.3-.2.5-.2.8h0c0,.3-.2.5-.2.8h0c0,.3-.2.5-.2.8h0c0,.3-.2.5-.3.8a.37.37,0,0,0-.1.3l-.1.5h0v.5h0c0,.1.1.2.2.3s.21.1.21,0l.79.6c.5.2.8.7,1.3.9l2.7,2.5a2.22,2.22,0,0,0,1.21,1.1,11.15,11.15,0,0,0,1.59,1.4,38.84,38.84,0,0,1,5.2,4.8l.4.5a5.26,5.26,0,0,0,.4.7c0,.1,0,.2.1.2.1.3.4.5.4.8h0c0,.3.31.5.2.8v-.1a.64.64,0,0,1,0,.6c-.1.1-.1.1-.1.2a.75.75,0,0,1-.1.5l-1.8,2c-.4,0-.6.5-1,.6a2.7,2.7,0,0,0-.8.7c-.7.1-.8.9-1.4,1.1l-.8.7c-.7.1-.8,1-1.5,1.1l-.7.7c-.7.3-1,1.1-1.7,1.5a3.45,3.45,0,0,0-1.2,1.2c-1,.5-1.4,1.7-2.4,2.2A18.78,18.78,0,0,0,36,307c-.6.3-.9,1-1.5,1.2a4.74,4.74,0,0,0-1,1c-.6.2-.8,1-1.5,1.2l-1,.9a3,3,0,0,0-.7.5c-.1,0-.2.1-.3.2-.3,0-.5.4-.8.3h.41a.64.64,0,0,1-.6,0h0C28.78,312,28.58,311.8,28.48,311.6Z"/><path class="cls-25" d="M37.08,256.2c.1.4.2.8.3,1.1-.5,2.2-.2,4.5-.9,6.6,0,.1.4.1.5.4a9.51,9.51,0,0,1-2.9,5.7,10.86,10.86,0,0,0-2.5,2.3c-1.3,1.4-.6,4,1.3,4.9a9.68,9.68,0,0,0,2.4.8,8.42,8.42,0,0,1,5,3.2,39.45,39.45,0,0,0,7.5,6.6c1.6,1.2,1.6,1.5,0,2.7a33.15,33.15,0,0,0-2.7,2.6,135.48,135.48,0,0,0-11.2,10.2c-1,1-2,1.7-3.5,1.3-.8-.3-1.3-1-2.1-1.3a27.46,27.46,0,0,1-2.6-2.2,47.16,47.16,0,0,1-4.1-4.8,1.13,1.13,0,0,1-.3-1.1c1.5-.2,2.2,1,3.2,1.8.2.3.3.6.5.9l.2.2-.3-.3c-1.9-2.4-4-4.6-5.7-7.1a9.71,9.71,0,0,1-2-7.5,3.45,3.45,0,0,0-.8-2.9,2,2,0,0,1,.1-1.7c.2-1-.4-1.6-1.2-2.4-.3,1.3.4,2.2.6,3.2.5,1.2,2,2.1,1.3,3.8a5.85,5.85,0,0,0-.5,5,3.19,3.19,0,0,1,.3,1.9c-.1.2-.2.3-.4.3a3.83,3.83,0,0,1-2-4.2,16.07,16.07,0,0,0-1-7.8,11.34,11.34,0,0,1,.4-8.3c.1-.4.6-.8.1-1.2A25,25,0,0,1,21,258.6c1.7-1.6,3.1-3.6,5.2-4.8a25.43,25.43,0,0,0,2.8-1.6c3-2,4.3-1.8,6.7,1A9.23,9.23,0,0,1,37.08,256.2Z"/><path class="cls-26" d="M26.58,253.9c-2.3,1.6-3.8,4.2-6.2,5.8-.7.5-.8,1.4-1.3,1.9-2.1,1.9-3.1,4.6-4.4,7a2,2,0,0,0-.4.8.61.61,0,0,1-.1.6,10,10,0,0,0-.3,9.9,6.44,6.44,0,0,1,.6,4.3c-1,3.7.6,6.5,3.3,8.8a51.55,51.55,0,0,1,7.1,6.9c1,1.4,2.6,2.2,3.8,3.3.7.1,1.2.8,1.9,1a2.93,2.93,0,0,0,3-1.1c2.5-2.9,5.5-5.3,8.3-8a39.19,39.19,0,0,1,3.2-2.5c1.4-.9,2.6-2,4.4-2,.6,0,1.3-.2,1.8.5.1.6-.3,1-.8,1.3a65.14,65.14,0,0,0-7.6,6.3c-2.4,2.2-4.7,4.5-7.1,6.7-1.6,1.5-3.3,2.9-5,4.3-1.4,1.2-2.5,1-3.6-.5-1.6-2.1-3.5-3.8-5.2-5.8-2.1-2.5-4.8-4.4-6.9-7a39.71,39.71,0,0,0-4-4.2,39.14,39.14,0,0,1-5.6-6.6A9.64,9.64,0,0,1,4,281a.45.45,0,0,1,0-.5.78.78,0,0,0,.2-.8c-.1,0-.2,0-.2-.1v-.1H4c0-.3.2-.5.2-.8h0a23.55,23.55,0,0,1,4.4-9.8c3-4.1,6.2-8,9.4-12a7.69,7.69,0,0,1,1.8-1.8c1.4-.7,2.6-1.8,4-2.5s2.7-1.4,4-2.2a1.4,1.4,0,0,1,1.4-.2l1.8.2c-.1,1.4-1.6,1.5-2.4,2.4A19.83,19.83,0,0,1,26.58,253.9Z"/><path class="cls-27" d="M51.08,291.2a7,7,0,0,0-4.9,1c-.4.2-.8.6-1.3.5a14.44,14.44,0,0,1,3.9-3.5c-1.2-.9-2.2-1.8-3.3-2.5a22.4,22.4,0,0,1-5.1-4.6c-1.8-2.4-4.4-3.4-7.2-4.1-2.4-.6-3.8-3.7-2.3-5.6a7.58,7.58,0,0,1,3-2.6A3.1,3.1,0,0,1,33,272c-1.4,2-1,3.5,1.3,4.1a13.26,13.26,0,0,1,3.8,1.8c3.6,3.5,7.7,6.3,11.3,9.8C50.38,288.6,51.28,289.6,51.08,291.2Z"/><path class="cls-26" d="M38.08,277.9a12.81,12.81,0,0,0-3.9-1.3,4.33,4.33,0,0,1-2-1.1,2.21,2.21,0,0,1-.2-3.1v-.1a24,24,0,0,0,1.8-2.6,12.23,12.23,0,0,0,2.8-5.7,2.72,2.72,0,0,1,1-2.9c.8,1.5.6,3.2.5,4.9a43.07,43.07,0,0,1-1.3,8C36.28,276.8,36.08,276,38.08,277.9Z"/><path class="cls-28" d="M20.08,255.2a70.84,70.84,0,0,0-6.6,7.9c-1.7,2.1-3.4,4.2-5,6.5a26.32,26.32,0,0,0-3.8,7.7,4.71,4.71,0,0,1-.6,1.5,12.13,12.13,0,0,1,1.6-5.9,58.32,58.32,0,0,1,6.6-9.6,55.94,55.94,0,0,0,4.8-6.1,14.53,14.53,0,0,1,4.2-4,16,16,0,0,1,6.9-3.1c.3-.1.7-.3.8.3l-1.2.3c-1,1.1-2.5,1.3-3.7,2.1A14.68,14.68,0,0,0,20.08,255.2Z"/><path class="cls-29" d="M26.58,253.9l4.1-3.5a4.9,4.9,0,0,1,5.2,2.8c0,.2,0,.3-.2.2l-.9-.8c-1.9-1.7-2.8-1.8-5-.4C28.68,252.8,27.88,253.8,26.58,253.9Z"/><path class="cls-30" d="M37.68,261.1c-.3,1-.7,1.9-1,2.9a1.42,1.42,0,0,1-.4.2c.3-2.3.2-4.6,1-6.9h.2A9.86,9.86,0,0,1,37.68,261.1Z"/><path class="cls-31" d="M35.68,253.4l.1-.1.1-.1a4.71,4.71,0,0,1,1.2,3C36.58,255.3,36.08,254.3,35.68,253.4Z"/><path class="cls-28" d="M3.78,280.5v.5c-.2.1-.3,0-.4-.2S3.48,280.4,3.78,280.5Z"/><path class="cls-28" d="M4,278.7a.78.78,0,0,1-.2.8A.78.78,0,0,1,4,278.7Z"/><path class="cls-28" d="M3.68,279.5c.1.1.2.2.3.2C3.68,279.8,3.68,279.7,3.68,279.5Z"/><path class="cls-32" d="M24.58,300c-1.1-1.1-2.3-2.2-3.3-3.4a30.13,30.13,0,0,0-2.8-2.2,22,22,0,0,1-3.3-3.5,7.33,7.33,0,0,1-1.5-5.7l.3-1.8a4.78,4.78,0,0,0-.5-3.1,11.11,11.11,0,0,1-.7-1.6,9.11,9.11,0,0,1,1.4-9.5c.2,0,.4.1.3.3a12.22,12.22,0,0,0-.1,10.4,10.36,10.36,0,0,1,.5,5.8,5.39,5.39,0,0,0,1.6,4.5,13,13,0,0,1,1.5,1c.8,1.5,2.5,2.3,3.3,3.9.2,1,1.2,1.5,1.8,2.4a27.89,27.89,0,0,0,2.8,3.2C25.08,301.2,25,300.4,24.58,300Z"/><path class="cls-33" d="M21.38,295.1c-.1-.1-.1-.2-.2-.3-1.7-.7-2.6-2.3-3.6-3.6a1.1,1.1,0,0,1-.8-1.2,13.82,13.82,0,0,1-.8-2.7,4.58,4.58,0,0,1,.8-4.2c.2-.4.4-.8.8-.3v1c-.5,2.3.5,4.1,1.7,5.9,1.8,2.8,4,5.2,6,7.8-.5.5-.6.1-.8-.2C23.48,296.6,22.48,295.8,21.38,295.1Z"/><path class="cls-34" d="M30.08,270.8a4.74,4.74,0,0,1,1.3-2.4,10.21,10.21,0,0,0,2.7-7.6v-2.3c0-.3,0-.6.3-.7a.78.78,0,0,1,.8.2c.6.4.5,1,.6,1.6A11.2,11.2,0,0,1,30.08,270.8Z"/><path class="cls-35" d="M15.38,279.4c-.1-1-.8-2-.8-3,0-.3-.1-.7.3-.9s.7.1.9.4c.4.5.8,1.1,1.2,1.7a1.05,1.05,0,0,1,0,1.3,1.06,1.06,0,0,0-.3,1.3C15.78,280.6,15.68,279.9,15.38,279.4Z"/><path class="cls-36" d="M24.58,300c.4.2.7.8,1.3.7l2.7,2.4c.4.1.3.3,0,.5-.9-.6-1.7-1.3-2.6-1.9A2.69,2.69,0,0,1,24.58,300Z"/><path class="cls-37" d="M15.38,279.4c.4.3.6.8,1.2.7a3.78,3.78,0,0,1,1,2.7.76.76,0,0,0-.8.3,2.19,2.19,0,0,0-.7-2.6A1.29,1.29,0,0,1,15.38,279.4Z"/><path class="cls-38" d="M14.88,273.2a.91.91,0,0,1,1.2.1.65.65,0,0,1,.2.9c0,.1-.1.1-.2.2-.3.3-.6.4-.9.1A1.44,1.44,0,0,1,14.88,273.2Z"/><path class="cls-39" d="M33.18,255.7a.67.67,0,0,1,1,0h0a.61.61,0,0,1,0,.8h0c-.2.3-.5.5-.9.1A.94.94,0,0,1,33.18,255.7Z"/><path class="cls-40" d="M24.48,297.5a1.08,1.08,0,0,0,.8.2c.4.4,1,.6.9,1.3A2.56,2.56,0,0,1,24.48,297.5Z"/><path class="cls-41" d="M28.68,303.5V303c.9,0,1.2.8,1.8,1.2C29.78,304.3,29.28,303.7,28.68,303.5Z"/><path class="cls-42" d="M16.78,290l.8,1.2c-.7,0-1-.3-1-1C16.68,290.1,16.78,290.1,16.78,290Z"/><path class="cls-43" d="M20.08,255.2a10,10,0,0,1,3.9-2.8c.1.2,0,.3,0,.5C22.48,253.4,21.58,254.9,20.08,255.2Z"/><path class="cls-44" d="M24,252.9v-.5a25.83,25.83,0,0,1,3.7-1.9c.1.4-.2.6-.5.7Z"/><path class="cls-45" d="M192.68,366.2c.4-.2,1.4.2,1.8.3s1.4.2,2.1.3l.9.3c21.9,14.1,24.6,33.4,24.6,33.4,2.3,20.7-1.8,26.2-1.8,26.2-1.1,0-2.2-.2-3.3-.3-4.5-.7-11.1-2.4-17.1-4-7.6-2-14.1-4.1-14.1-4.1h-.11c-4.1-1-8.3-2-12.39-3.1l-4.61-1.2c-.39-.1-.89-.2-1.3-.3-.1-.1-.2-.1-.2-.2l-.1-.1c-.5-.5-1.2-1.5-1.1-1.9,2.7-6.4,6.6-12.4,10-18.4V393a2.19,2.19,0,0,1,.3-.5c2-3.8,4.1-7.5,6.3-11.2,2-3.3,4-6.5,6.1-9.7.81-1.2,1.61-2.5,2.4-3.7C191.68,367.3,192.18,366.7,192.68,366.2Z"/><path class="cls-46" d="M192.68,366.2c.4-.2,1.4.2,1.8.3.2,0,.3.1.5.1l.8.1.5.1.4.1.9.3c21.9,14.1,24.6,33.4,24.6,33.4,2.3,20.7-1.8,26.2-1.8,26.2-.6,0-1.3-.1-1.9-.1a7.84,7.84,0,0,1-1.4-.2c-1.3-1.9-1.2-4.5-.8-6.7a28.3,28.3,0,0,0,1.1-5.8c-.1-2.8-1.6-5.4-2-8.2-.5-3.2.4-6.5-.4-9.6-1.4-5.5-7.5-8.7-9.3-14.1-.5-1.6-.7-3.4-1.8-4.7-1.8-2.2-5.2-2-7.5-3.7-.7-.5-1.3-1.2-2-1.6-.2-.1-.5-.2-.7-.3a9.75,9.75,0,0,0-4.8,0l1.4-2.1a8.34,8.34,0,0,1,.8-1.2,1.38,1.38,0,0,0,.3-.4A7,7,0,0,1,192.68,366.2Z"/><path class="cls-47" d="M192.68,366.2c.4-.2,1.4.2,1.8.3.8.2,2.4.2,3.1.7.2.1.3.2.5.3.7.5,1.4.9,2.1,1.4s1.1.8,1.7,1.2,1.3,1,2,1.5,1.3,1.1,1.9,1.6,1.2,1.1,1.8,1.7,1.1,1,1.6,1.6,1.2,1.2,1.7,1.9.9,1,1.3,1.5c.5.7,1.1,1.3,1.6,2s.9,1.2,1.2,1.7.9,1.4,1.4,2.1a21.16,21.16,0,0,1,1.2,2c.4.7.8,1.5,1.2,2.2a20,20,0,0,1,1,2.1,13.57,13.57,0,0,1,.9,2.3c.2.7.5,1.4.7,2.1.3.9.5,1.8.7,2.4a11.63,11.63,0,0,1,.4,1.8c0,.3.1.5.1.8a22.86,22.86,0,0,1,.2,2.5c.1,1,.2,2,.2,3s.1,1.7.1,2.5a28,28,0,0,1,0,2.9,20.83,20.83,0,0,0,0,2.5c0,.8-.1,1.8-.1,2.5a21.83,21.83,0,0,1-.31,2.5c-.1,1-.3,1.8-.39,2.6s-.4,1.6-.61,2.4a9.45,9.45,0,0,1-.89,2.1c-.61,0-1.3-.1-1.9-.1.1-.5.4-1.4.6-2.5.2-.7.3-1.5.5-2.5a22.31,22.31,0,0,1,.4-2.3,19,19,0,0,0,.3-2.5,17,17,0,0,0,.1-2.3c0-.8.1-1.6.1-2.5a20.9,20.9,0,0,0-.1-2.5c-.1-.9-.1-1.6-.2-2.5s-.2-1.9-.3-2.8-.2-1.6-.4-2.5-.3-1.5-.5-2.2-.4-1.6-.6-2.4c-.2-.6-.4-1.2-.6-1.9a10.66,10.66,0,0,0-.7-1.9,1.09,1.09,0,0,1-.2-.4,19.34,19.34,0,0,0-1-1.9,21.82,21.82,0,0,1-1.2-2.2l-1-1.6c-.4-.7-.9-1.4-1.4-2.1a7.1,7.1,0,0,0-1-1.4c-.5-.7-1-1.3-1.5-2l-1.1-1.4-1.6-1.9c-.4-.5-.9-.9-1.3-1.4s-1.2-1.2-1.8-1.8a14.62,14.62,0,0,0-1.9-1.6c-.7-.5-1.3-1.1-2-1.5s-1.1-.8-1.7-1.1a15.92,15.92,0,0,0-2.2-1.3,4.67,4.67,0,0,0-1-.5l-4.2-.8c.1-.1.2-.3.3-.4A3.21,3.21,0,0,1,192.68,366.2Z"/><path class="cls-48" d="M182.88,381.4a5.43,5.43,0,0,1,3.5.7,16.67,16.67,0,0,0,1.6,1.2,20.62,20.62,0,0,0,2.6,1.2,11.44,11.44,0,0,1,6.7,9c.3,2.2-.1,4.6.8,6.7s3.3,3.7,4.4,5.9a7,7,0,0,1,.5,4.7c-.4,1.2-1.1,2.4-1,3.7a16,16,0,0,0,.5,2.1,6.15,6.15,0,0,1-2.3,5.9c-7.6-2-14.1-4.1-14.1-4.1H186c-4.11-1-8.31-2-12.4-3.1l-4.6-1.2-1.31-.3c-.1-.1-.19-.1-.19-.2l-.11-.1c-.5-.5-1.2-1.5-1.1-1.9,2.7-6.4,6.6-12.4,10-18.4v-.1a2.19,2.19,0,0,1,.3-.5C178.48,388.9,180.58,385.1,182.88,381.4Z"/><path class="cls-49" d="M176.48,392.7a5,5,0,0,1,2.3.9,6.15,6.15,0,0,0,1.3,1,9.83,9.83,0,0,0,1.6.5,6,6,0,0,1,3.9,4c.5,1.8.1,3.9,1,5.5.5.8,1.2,1.4,1.7,2.1a6.25,6.25,0,0,1,1,4.6,14,14,0,0,1-1.61,4.5,10.34,10.34,0,0,1-1.89,2.7c-4.11-1-8.3-2-12.4-3.1l-4.6-1.2-1.3-.3c-.11-.1-.2-.1-.2-.2l-.11-.1c-.5-.5-1.19-1.5-1.1-1.9,2.7-6.4,6.6-12.4,10-18.4v-.1A6.25,6.25,0,0,0,176.48,392.7Z"/><path class="cls-50" d="M196.58,417.1a4.25,4.25,0,0,0,1.1-.2,1.78,1.78,0,0,0,.7-.8,2.77,2.77,0,0,0-.1-.9c-.3-.8-1.3-.9-2-.8-.3,0-3.3,1-2.5,1.6A3.25,3.25,0,0,0,196.58,417.1Z"/><path class="cls-50" d="M190.68,407.4a3,3,0,0,0,1-.4,1.19,1.19,0,0,0,.5-.9,1.14,1.14,0,0,0-.3-.8c-.4-.7-1.4-.6-2.1-.4-.3.1-3.11,1.5-2.2,2A4.88,4.88,0,0,0,190.68,407.4Z"/><path class="cls-50" d="M209.78,413.1a3.08,3.08,0,0,0,1-.4,1.12,1.12,0,0,0,.2-1.7c-.4-.7-1.4-.6-2.11-.5-.3.1-3.1,1.5-2.2,2A4.22,4.22,0,0,0,209.78,413.1Z"/><path class="cls-50" d="M189.48,396a1.16,1.16,0,0,0,.69-.7,1.38,1.38,0,0,0-.5-1.6,1.91,1.91,0,0,0-1.8,0c-.39.2-2.8,2.7-1.7,2.9A4.73,4.73,0,0,0,189.48,396Z"/><path class="cls-50" d="M201.78,397.7a2.18,2.18,0,0,0,.8-.5,1.36,1.36,0,0,0-.2-1.6,1.53,1.53,0,0,0-1.7-.2c-.5.1-3.2,2.2-2.2,2.5A7.31,7.31,0,0,0,201.78,397.7Z"/><path class="cls-50" d="M195.28,381.4a2.34,2.34,0,0,0,.7-.7,1.25,1.25,0,0,0-.61-1.5,1.72,1.72,0,0,0-1.7.2c-.39.3-2.6,2.9-1.5,3A5,5,0,0,0,195.28,381.4Z"/><path class="cls-50" d="M181.08,404.8a1.61,1.61,0,0,0,.7-.4,1,1,0,0,0-.11-1.3,1.7,1.7,0,0,0-1.39-.3c-.4.1-2.61,1.6-1.8,1.9A3.34,3.34,0,0,0,181.08,404.8Z"/><path class="cls-51" d="M189,371.7a9.75,9.75,0,0,1,4.8,0c-3.7,5.9-7.7,11.7-11.2,17.7-2.3,3.9-4.2,8.1-6.7,11.9-.5.8-1.1,1.6-1.6,2.3-1.9,2.4-3.7,4.8-5.4,7.4a20.13,20.13,0,0,1-1.4,2.5c-.5-.5-1.2-1.5-1.1-1.9,2.7-6.4,6.6-12.4,10-18.4v-.1A221.74,221.74,0,0,1,189,371.7Z"/><path class="cls-52" d="M192.68,366.2c.4-.2,1.4.2,1.8.3l.5.1.8.1.5.1.4.1c-.5.8-.9,1.5-1.4,2.3s-1.1,1.7-1.6,2.5a9.75,9.75,0,0,0-4.8,0l1.4-2.1.8-1.2.2-.4A8.62,8.62,0,0,1,192.68,366.2Z"/><path class="cls-53" d="M181.58,414.5a2.57,2.57,0,0,0,2.1-1.2.64.64,0,0,0,0-.6,1.38,1.38,0,0,0-.4-.3c-.9-.5-1.9-1-2.8-1.5a14.29,14.29,0,0,0-3-1.6c-2.7-.8-5.1,2.4-2.8,4.4C176.58,415.2,179.48,414.8,181.58,414.5Z"/><path class="cls-50" d="M178.78,413.3a1.45,1.45,0,0,0,.7-.2,1.07,1.07,0,0,0,.1-1.3,1.3,1.3,0,0,0-1.3-.5c-.4,0-2.8,1.1-2.11,1.6A4.67,4.67,0,0,0,178.78,413.3Z"/><path class="cls-54" d="M211.38,416.4c-1.2.2-.6,2.5.9,1.9.1,0,.2-.1.3-.2a.88.88,0,0,0,.1-.7c-.1-.2-.3-.4-.4-.6A.87.87,0,0,0,211.38,416.4Z"/><path class="cls-54" d="M210.48,406a1.24,1.24,0,0,0,.89.4.81.81,0,0,0,.9-.3,1,1,0,0,0,.2-.9,3.55,3.55,0,0,0-.4-.9,2.76,2.76,0,0,0-1.5-1.5,1.34,1.34,0,0,0-.9.1,1,1,0,0,0-.3.9A3.39,3.39,0,0,0,210.48,406Z"/><path class="cls-54" d="M205.78,403.3a1.33,1.33,0,0,0,.6,1c.2.1.5.1.6-.1v-.3a2.57,2.57,0,0,0-.5-1.2l-.2-.2C205.88,402.3,205.68,402.8,205.78,403.3Z"/><path class="cls-54" d="M209.38,394.1a2,2,0,0,0,1.5,0c.1-.1.3-.2.3-.3v-.3c-.2-1.1-2.4-4.5-3.8-3.4-.7.6-.4,1.9,0,2.5A3.7,3.7,0,0,0,209.38,394.1Z"/><path class="cls-54" d="M201.08,381.6a1,1,0,0,0,.9.3.79.79,0,0,0,.5-.8c.19-1-.4-4.6-2.2-3.7C199.18,378,200,380.7,201.08,381.6Z"/><path class="cls-54" d="M191,373.2c-.11-.9-.81-.9-1.7-.3a7.28,7.28,0,0,0-1.7,1.8,10.14,10.14,0,0,0-.9,1.3c-.2.5-.4,1.7.3,1.9.5.2,1.4-.5,1.8-.7a4.91,4.91,0,0,0,2.2-3.4Z"/><path class="cls-54" d="M204.08,421.1a2.7,2.7,0,0,0,.7.8.91.91,0,0,0,1,0,1.45,1.45,0,0,0,.39-1.3,2.82,2.82,0,0,0-.39-1.2,1.3,1.3,0,0,0-1.3-.5C203.18,419.2,203.68,420.5,204.08,421.1Z"/><path class="cls-45" d="M200.38,410.3a2.57,2.57,0,0,0,.1-1.5,4.19,4.19,0,0,0-1-2.8,1.39,1.39,0,0,0-1-.5,1,1,0,0,0-1,.5,1.15,1.15,0,0,0-.1,1l.3.9a17,17,0,0,0,.4,2.2,1.35,1.35,0,0,0,1.6,1h.1A1.24,1.24,0,0,0,200.38,410.3Z"/><path class="cls-45" d="M195.28,394.2a.85.85,0,0,0,.5-.5,1.7,1.7,0,0,0,.1-.7,9.85,9.85,0,0,0-.2-1.7,1.37,1.37,0,0,0-.8-1.1.87.87,0,0,0-.9.6,1.67,1.67,0,0,0,.1,1.2C194.18,392.8,194.18,394.5,195.28,394.2Z"/><path class="cls-45" d="M187.28,389c.6.8,2.2,1.3,2.8.4a1.18,1.18,0,0,0,.1-1,3.38,3.38,0,0,0-2.2-2.3,1.28,1.28,0,0,0-1.2,0c-1,.7,0,2,.4,2.8C187.28,388.9,187.28,388.9,187.28,389Z"/><path class="cls-45" d="M196.58,411.7c-.2-.7-1.2-1.4-1.6-.4-.2.5,0,1.6.6,1.8a.88.88,0,0,0,1-.5A1.39,1.39,0,0,0,196.58,411.7Z"/><path class="cls-45" d="M182.78,383.9a2.23,2.23,0,0,1,.7-.7.92.92,0,0,1,1,.1,1,1,0,0,1,.19.9l-.3.9c-.2.6-.3,1.8-1.1,2.1s-1.3-.5-1.3-1.1A4,4,0,0,1,182.78,383.9Z"/><path class="cls-48" d="M187.38,410.9c0-.7.1-2.6-.8-2.9s-1,.8-1.2,1.3a2.32,2.32,0,0,0,.3,2.4C186.58,412.6,187.38,411.8,187.38,410.9Z"/><path class="cls-48" d="M182.48,407c-.2.7.39,2.8,1.19,1.5a2.54,2.54,0,0,0-.19-1.9.22.22,0,0,0-.2-.2.49.49,0,0,0-.61.1A1.38,1.38,0,0,1,182.48,407Z"/><path class="cls-48" d="M183,400.6a.92.92,0,0,0,1,.1c.3-.2.3-.7.19-1.1a3.94,3.94,0,0,0-1.6-2.4,1.08,1.08,0,0,0-.7-.3.91.91,0,0,0-.7.3,1.4,1.4,0,0,0-.19.6A3.85,3.85,0,0,0,183,400.6Z"/><path class="cls-52" d="M219.68,421.7l2.4.6-.6,2.4-2.2-.6C219.38,423.5,219.48,422.6,219.68,421.7Z"/><path class="cls-52" d="M220.28,416.9l2.5.4c-.11.9-.2,1.7-.3,2.5l-2.5-.4C220.08,418.6,220.18,417.8,220.28,416.9Z"/><path class="cls-52" d="M220.48,412.1l2.5.1v2.5l-2.5-.1Z"/><path class="cls-52" d="M220.28,407.1l2.5-.3a21.75,21.75,0,0,1,.1,2.5l-2.5.3A10.68,10.68,0,0,0,220.28,407.1Z"/><path class="cls-52" d="M219.58,401.8l2.8-.4a22.86,22.86,0,0,1,.2,2.5l-2.6.4A21.66,21.66,0,0,0,219.58,401.8Z"/><path class="cls-52" d="M218.58,397.2l2.7-.8c.3.9.5,1.8.7,2.4l-2.81.8Z"/><path class="cls-52" d="M217.38,387.7c.4.8.8,1.5,1.2,2.2l-2.4,1.1a21.82,21.82,0,0,1-1.2-2.2Z"/><path class="cls-52" d="M214.88,383.6c.5.7.9,1.4,1.4,2.1l-2.4,1.5c-.4-.7-.9-1.4-1.4-2.1Z"/><path class="cls-52" d="M198.08,367.5c.7.5,1.4.9,2.1,1.4l-1.6,2a15.92,15.92,0,0,0-2.2-1.3Z"/><path class="cls-52" d="M201.88,370.1c.7.5,1.3,1,2,1.5l-1.5,1.9a14.91,14.91,0,0,0-2-1.5Z"/><path class="cls-52" d="M205.68,373.3c.6.6,1.2,1.1,1.8,1.7l-1.6,2-1.8-1.8Z"/><path class="cls-52" d="M209.18,376.6a15.37,15.37,0,0,1,1.7,1.9l-1.9,1.9-1.6-1.9Z"/><path class="cls-52" d="M212.08,379.9c.5.7,1.1,1.3,1.6,2l-2.1,1.8c-.5-.7-1-1.3-1.5-2Z"/><path class="cls-52" d="M217.08,392.9l2.5-.9a13.57,13.57,0,0,1,.9,2.3l-2.5.9a14.58,14.58,0,0,0-.7-1.9C217.28,393.4,217.28,393.2,217.08,392.9Z"/><g id="Pixel_glasses" data-name="Pixel glasses"><path class="cls-17" d="M77,119.6l78.2,35.5,1.5-3.3,3.3,1.5-5.9,13-3.3-1.5-1.5,3.3-3.3-1.5-1.4,3.4-26.1-11.8,1.5-3.3-3.31-1.5,1.5-3.3-3.3-1.5,3-6.5-6.5-3-3,6.5-3.3-1.5-1.5,3.3-3.3-1.5-1.5,3.3-26.1-11.9,1.5-3.3-3.3-1.5,1.5-3.3-3.3-1.5,5.9-13,3.3,1.5Z"/><path class="cls-55" d="M146.68,156.5,150,158l-1.5,3.3-3.3-1.5ZM99.58,139l3.3,1.5,1.5-3.3-3.3-1.5Zm-6.5-3,3.3,1.5,1.5-3.3-3.2-1.4Zm47.4,25.5,3.3,1.5,1.5-3.2-3.3-1.5Zm-6.5-3,3.3,1.5,1.5-3.3-3.3-1.5Zm-39.1-17.7,3.3,1.5,1.4-3.2-3.3-1.5Zm-6.5-3,3.3,1.5,1.5-3.3-3.3-1.5Zm40.9,22.5,3.3,1.5,1.5-3.3-3.3-1.5Zm-39.1-17.8,3.3,1.5,1.5-3.3-3.3-1.4Zm-6.6-3,3.3,1.5,1.5-3.3-3.3-1.5Zm55.2,17.2,3.3,1.5,1.5-3.3-3.3-1.5Zm-3,6.5,3.3,1.5,1.5-3.3-3.2-1.4Z"/></g><polygon class="cls-56" points="371.98 327 395.98 327.6 388.48 331.5 372.07 329.6 371.98 327"/><polygon class="cls-57" points="266.68 10.8 288.07 0 283.38 6.9 267.98 13 266.68 10.8"/><polygon class="cls-58" points="412.27 231.6 412.07 230.9 414.18 229.9 416.07 230.6 412.27 231.6"/><polygon class="cls-58" points="423.88 230.9 428.98 226.6 432.98 226.2 425.88 230.9 423.88 230.9"/><polygon class="cls-58" points="423.77 224.6 421.88 223.1 423.07 222 425.38 224.2 423.77 224.6"/><polygon class="cls-58" points="438.27 224 438.77 223.5 442.88 222.8 441.48 223.6 438.27 224"/></g></g><path class="cls-59" d="M266.27,512.45c4.87,13.81,19.4,29,35.87,38.2a121.4,121.4,0,0,1,27.31-44.6c-15.67-10.49-35.82-16.52-50.33-14.58-9.32-4.35-24.22-42.25-37.88-20l-1,.92A26.66,26.66,0,0,0,232,486.55h0C218.38,508.85,258.16,506.14,266.27,512.45Z"/><rect class="cls-60" x="312.14" y="527.19" width="23.69" height="12.19" transform="translate(947.97 535.49) rotate(121.48)"/><path class="cls-61" d="M321.75,546.94a38.73,38.73,0,0,1,13.38-21.85l10.4,6.37-13.38,21.85Z"/><ellipse class="cls-62" cx="338.84" cy="542.38" rx="12.81" ry="2.73" transform="translate(-300.66 548.1) rotate(-58.52)"/><path class="cls-63" d="M318.09,543.74l.55-1.69a43.15,43.15,0,0,1,10.65-17.39l1.25-1.25-1.09-17.36a85.72,85.72,0,0,0-16.21,20.74,85.5,85.5,0,0,0-11.1,23.86Z"/><path class="cls-64" d="M280.69,491.32c-.53,0-1.06.08-1.57.15a8.79,8.79,0,0,1-1.76-1.15A57.18,57.18,0,0,0,265.53,512a5.9,5.9,0,0,1,.74.48A48.35,48.35,0,0,0,271,522C267.33,507.91,277.54,494.9,280.69,491.32Z"/><path class="cls-65" d="M320.59,509a38.67,38.67,0,0,0-9.1,13.07s-16.85-16-33.7-18.11l3.17-6.59S304.52,497.94,320.59,509Z"/><path class="cls-66" d="M250.1,469.56a28.44,28.44,0,0,1-5.8,10.19s16,6.13,22.71,16.64l3.37-4.19S262.52,476.74,250.1,469.56Z"/></g></g></g></svg>