<svg xmlns="http://www.w3.org/2000/svg" xmlns:xlink="http://www.w3.org/1999/xlink" viewBox="0 0 897.38 910.24"><defs><style>.cls-1{isolation:isolate;}.cls-2{fill:url(#radial-gradient);}.cls-3{fill:#729281;}.cls-4{fill:#fffbe9;}.cls-5{fill:#b1ceb6;}.cls-6{fill:#0b2822;}.cls-7{fill:#0d352e;}.cls-61,.cls-8{fill:#081613;}.cls-8{opacity:0.3;}.cls-9{fill:#dceff5;}.cls-10{fill:#f6f5fd;}.cls-11{fill:#041c16;}.cls-12,.cls-57,.cls-62{fill:#fff;}.cls-13{fill:#fde0da;}.cls-14{fill:#9ab29d;}.cls-15{fill:#334056;}.cls-16{fill:#009599;}.cls-17{fill:#f0544a;}.cls-18{fill:#3d4b60;}.cls-19{fill:url(#Безымянный_градиент_20);}.cls-20,.cls-22,.cls-25,.cls-31,.cls-33,.cls-36,.cls-43,.cls-46,.cls-47,.cls-48,.cls-52{mix-blend-mode:multiply;}.cls-20{fill:url(#Áåçûìÿííûé_ãðàäèåíò_15);}.cls-21{fill:#c45562;}.cls-22,.cls-25,.cls-28,.cls-31,.cls-33,.cls-35,.cls-36,.cls-43,.cls-46,.cls-47,.cls-48,.cls-52{opacity:0.5;}.cls-22{fill:url(#Áåçûìÿííûé_ãðàäèåíò_15-2);}.cls-23,.cls-28{fill:#790e40;}.cls-24{fill:url(#Áåçûìÿííûé_ãðàäèåíò_56);}.cls-25{fill:url(#Áåçûìÿííûé_ãðàäèåíò_15-3);}.cls-26{opacity:0.36;fill:url(#linear-gradient);}.cls-27{fill:url(#Áåçûìÿííûé_ãðàäèåíò_18);}.cls-29{fill:url(#Áåçûìÿííûé_ãðàäèåíò_2);}.cls-30,.cls-33,.cls-34,.cls-35,.cls-42{fill-rule:evenodd;}.cls-30{fill:url(#Áåçûìÿííûé_ãðàäèåíò_168);}.cls-32,.cls-33{fill:#c1748d;}.cls-34{fill:#8f3455;opacity:0.56;}.cls-35{fill:#ffffce;}.cls-36{fill:url(#Áåçûìÿííûé_ãðàäèåíò_15-4);}.cls-37{fill:url(#Áåçûìÿííûé_ãðàäèåíò_2-2);}.cls-38{mix-blend-mode:overlay;}.cls-39{fill:#5a4153;}.cls-40{fill:url(#Áåçûìÿííûé_ãðàäèåíò_56-2);}.cls-41,.cls-45{fill:#791b40;}.cls-41,.cls-44{opacity:0.31;}.cls-42{fill:#e3d9d2;}.cls-43{fill:url(#Áåçûìÿííûé_ãðàäèåíò_15-5);}.cls-46{fill:url(#Áåçûìÿííûé_ãðàäèåíò_15-6);}.cls-47{fill:url(#Áåçûìÿííûé_ãðàäèåíò_15-7);}.cls-48{fill:url(#Áåçûìÿííûé_ãðàäèåíò_15-8);}.cls-49{fill:url(#Áåçûìÿííûé_ãðàäèåíò_18-2);}.cls-50{fill:url(#Áåçûìÿííûé_ãðàäèåíò_18-3);}.cls-51{fill:url(#Áåçûìÿííûé_ãðàäèåíò_18-4);}.cls-52{fill:url(#Áåçûìÿííûé_ãðàäèåíò_15-9);}.cls-53{fill:url(#Áåçûìÿííûé_ãðàäèåíò_18-5);}.cls-54{fill:#6bbdff;opacity:0.13;}.cls-54,.cls-55,.cls-58,.cls-60{stroke:#617585;stroke-miterlimit:10;}.cls-54,.cls-55{stroke-width:2.62px;}.cls-55,.cls-56,.cls-58,.cls-64{fill:none;}.cls-56,.cls-64{stroke:#fff;stroke-linecap:round;stroke-linejoin:round;}.cls-56{stroke-width:5.94px;}.cls-57{opacity:0.62;}.cls-58,.cls-64{stroke-width:3.73px;}.cls-59{fill:#617585;}.cls-60,.cls-63{fill:#93b2c9;}.cls-60{stroke-width:1.51px;}.cls-61{opacity:0.29;}.cls-62{opacity:0.64;}</style><radialGradient id="radial-gradient" cx="443.96" cy="426.68" r="378.01" gradientUnits="userSpaceOnUse"><stop offset="0.34" stop-color="#f8e8f0"/><stop offset="0.38" stop-color="#f8d6ef" stop-opacity="0.97"/><stop offset="0.45" stop-color="#f8b2ec" stop-opacity="0.91"/><stop offset="0.49" stop-color="#eba8ec" stop-opacity="0.78"/><stop offset="0.56" stop-color="#d699ed" stop-opacity="0.58"/><stop offset="0.64" stop-color="#c48bee" stop-opacity="0.4"/><stop offset="0.71" stop-color="#b680ee" stop-opacity="0.26"/><stop offset="0.78" stop-color="#aa78ef" stop-opacity="0.14"/><stop offset="0.85" stop-color="#a272ef" stop-opacity="0.06"/><stop offset="0.93" stop-color="#9e6eef" stop-opacity="0.02"/><stop offset="1" stop-color="#9c6def" stop-opacity="0"/></radialGradient><linearGradient id="Безымянный_градиент_20" x1="-7320.7" y1="-885.63" x2="-7320.7" y2="-1015.55" gradientTransform="matrix(-0.94, -0.34, -0.34, 0.94, -6447.4, -1288.61)" gradientUnits="userSpaceOnUse"><stop offset="0" stop-color="#53688c"/><stop offset="1" stop-color="#223551"/></linearGradient><linearGradient id="Áåçûìÿííûé_ãðàäèåíò_15" x1="690.13" y1="507.67" x2="299.63" y2="558" gradientTransform="translate(25.99 137.92) rotate(3.19)" gradientUnits="userSpaceOnUse"><stop offset="0" stop-color="#d3b8d6"/><stop offset="1" stop-color="#fff"/></linearGradient><linearGradient id="Áåçûìÿííûé_ãðàäèåíò_15-2" x1="468.52" y1="613.01" x2="720.53" y2="613.01" xlink:href="#Áåçûìÿííûé_ãðàäèåíò_15"/><radialGradient id="Áåçûìÿííûé_ãðàäèåíò_56" cx="628.69" cy="546.84" r="169.58" gradientTransform="matrix(1, 0.05, -0.06, 0.84, 25.99, 168.43)" gradientUnits="userSpaceOnUse"><stop offset="0" stop-color="#ffcf84"/><stop offset="0.98" stop-color="#ffb88b"/></radialGradient><linearGradient id="Áåçûìÿííûé_ãðàäèåíò_15-3" x1="503.36" y1="480.29" x2="755.51" y2="480.29" xlink:href="#Áåçûìÿííûé_ãðàäèåíò_15"/><linearGradient id="linear-gradient" x1="563.87" y1="364.12" x2="744.23" y2="545.78" gradientTransform="translate(25.99 137.92) rotate(3.19)" gradientUnits="userSpaceOnUse"><stop offset="0" stop-color="#791b40"/><stop offset="1" stop-color="#9e5b75" stop-opacity="0"/></linearGradient><radialGradient id="Áåçûìÿííûé_ãðàäèåíò_18" cx="799.23" cy="565.66" r="18.78" gradientTransform="matrix(1, 0.05, -0.06, 0.84, 25.99, 168.43)" gradientUnits="userSpaceOnUse"><stop offset="0.02" stop-color="#bd4d4d"/><stop offset="1" stop-color="#9f3e54"/></radialGradient><radialGradient id="Áåçûìÿííûé_ãðàäèåíò_2" cx="401.25" cy="561.74" r="187.02" gradientTransform="matrix(1, 0.05, -0.06, 0.84, 25.99, 168.43)" gradientUnits="userSpaceOnUse"><stop offset="0.02" stop-color="#ffa874"/><stop offset="1" stop-color="#f49372"/></radialGradient><linearGradient id="Áåçûìÿííûé_ãðàäèåíò_168" x1="712.22" y1="3854.88" x2="712.22" y2="3826.03" gradientTransform="translate(-2386.38 -1992.57) rotate(-34.17)" gradientUnits="userSpaceOnUse"><stop offset="0.03" stop-color="#ecc5c4"/><stop offset="1" stop-color="#fff2e3"/></linearGradient><linearGradient id="Áåçûìÿííûé_ãðàäèåíò_15-4" x1="396.44" y1="307.35" x2="491.55" y2="488.35" xlink:href="#Áåçûìÿííûé_ãðàäèåíò_15"/><radialGradient id="Áåçûìÿííûé_ãðàäèåíò_2-2" cx="658.26" cy="467.66" r="143.33" xlink:href="#Áåçûìÿííûé_ãðàäèåíò_2"/><radialGradient id="Áåçûìÿííûé_ãðàäèåíò_56-2" cx="658.26" cy="467.66" r="143.33" xlink:href="#Áåçûìÿííûé_ãðàäèåíò_56"/><linearGradient id="Áåçûìÿííûé_ãðàäèåíò_15-5" x1="520.25" y1="741.94" x2="370.8" y2="658.96" xlink:href="#Áåçûìÿííûé_ãðàäèåíò_15"/><linearGradient id="Áåçûìÿííûé_ãðàäèåíò_15-6" x1="705.2" y1="616.63" x2="724.9" y2="622.64" xlink:href="#Áåçûìÿííûé_ãðàäèåíò_15"/><linearGradient id="Áåçûìÿííûé_ãðàäèåíò_15-7" x1="595.35" y1="424.37" x2="652.6" y2="424.37" xlink:href="#Áåçûìÿííûé_ãðàäèåíò_15"/><linearGradient id="Áåçûìÿííûé_ãðàäèåíò_15-8" x1="688.46" y1="436.11" x2="743.56" y2="436.11" xlink:href="#Áåçûìÿííûé_ãðàäèåíò_15"/><radialGradient id="Áåçûìÿííûé_ãðàäèåíò_18-2" cx="536.59" cy="540.9" r="32.78" xlink:href="#Áåçûìÿííûé_ãðàäèåíò_18"/><radialGradient id="Áåçûìÿííûé_ãðàäèåíò_18-3" cx="676.3" cy="714.02" r="41.11" xlink:href="#Áåçûìÿííûé_ãðàäèåíò_18"/><radialGradient id="Áåçûìÿííûé_ãðàäèåíò_18-4" cx="547.54" cy="632.81" r="15.8" xlink:href="#Áåçûìÿííûé_ãðàäèåíò_18"/><linearGradient id="Áåçûìÿííûé_ãðàäèåíò_15-9" x1="539.82" y1="535.34" x2="584.97" y2="535.34" xlink:href="#Áåçûìÿííûé_ãðàäèåíò_15"/><radialGradient id="Áåçûìÿííûé_ãðàäèåíò_18-5" cx="523.94" cy="448.63" r="30.58" xlink:href="#Áåçûìÿííûé_ãðàäèåíò_18"/></defs><g class="cls-1"><g id="Layer_2" data-name="Layer 2"><g id="_1" data-name="1"><rect class="cls-2" width="897.38" height="858.84"/><path class="cls-3" d="M594,447.89S747.5,320.16,757,326.54c8.12,5.46-4.46,13-4.46,13s3.85,10.71.78,19.12c-7.94,21.71-57.56,59.74-148.29,115.42S594,447.89,594,447.89Z"/><g id="Layer-2"><path class="cls-4" d="M596.07,320.07c-11.32-17.37-26.38-30.2-47.34-33.94-97.75-17.45-202.79,9.65-201.82,12.08.15.39-.84.1-1.23.25-5.93,2.24-53.91,21.3-69.17,56.35a52.58,52.58,0,0,0-3.95,26.26c1.43,14.33,5.56,48.47,14.92,80.88,1,3.55,12.27,41.71,16.86,53.44,0,.09,2.09,5.9,3.19,8.92h2.06c.51,1.37,1.54,5,2,6.23l-1.55.67c2.42,6.64,4.73,13,7.16,19.58,0,.08.06.32.13.39.65.6,1.27,1.24,2,1.79a1.88,1.88,0,0,0,.75.11c103.18,2.4,218.76,59.06,321.94,61.48,4.08.08,1.49-48,.46-54.17,0-.35-.07-.71-.09-1.06-1.34-16.72-3.77-35.31-5.35-52l-1.93-.7-1.3-8.92,2.28-1.69c-2.15-23.83-5.61-39-11.22-77.93C620.12,385.42,614.43,348.23,596.07,320.07Z"/><path class="cls-5" d="M416,549.7l-.27-1c-.09-.34-.17-.66-.27-1-.17-.65-.36-1.31-.53-2s-.35-1.29-.53-1.94c-.27-1-.5-2-.77-3q-5.7-21.12-11.38-42.22-20.91-77.57-41.84-155.12-4.63-17.19-9.26-34.35c-.62-2.29-1.23-4.59-1.85-6.89-.26-1-.44-2.39-1.2-3.13a3.55,3.55,0,0,0-1.25-.77,1.38,1.38,0,0,0-1,0c-5.18,1.95-55.5,21.62-70.06,58.14A52.05,52.05,0,0,0,272.55,381c1.42,14.29,5.56,48.49,14.93,80.95.78,2.73,7.4,27.4,10.44,36.27,1.35,3.94,2.75,7.86,4.24,11.75.52,1.36,1.06,2.72,1.61,4.07.17.43.36.88.54,1.3l.12.33a.46.46,0,0,1,0,.08c.73,2,2.34,6.57,3.06,8.56h2.06c.68,1.86,1.32,4.37,2,6.23l-1.55.67c.45,1.21,1.63,4.31,2.08,5.52,1.22,3.33,2.46,6.66,3.68,10,.26.74.52,1.49.79,2.23.42,1.14.75,2.47,1.74,3.26,1.43,1.15,4.4.87,6.06.91l1.46,0,16.1.38q25.62.63,51.23,1.22l14.65.36c.48,0,1,0,1.48,0l1.45.05a10.83,10.83,0,0,0,3.64-.16,3.4,3.4,0,0,0,1.08-.68,3.25,3.25,0,0,0,1-2.28A9.78,9.78,0,0,0,416,549.7Z"/><path class="cls-6" d="M330.23,463.43l1.51-4.63,7.7-1.27s17.2-.87,22.89,21.45c3.78,14.89-2.51,24-9.18,28.72-3.61,2.57-5.06,3.56-9.47,3.95l-4,.5-2.57-4.67Z"/><path class="cls-7" d="M314.93,488c-1.83-14.79,6.49-28,18.57-29.47s23.35,9.27,25.18,24.06-6.47,28-18.55,29.48S316.76,502.76,314.93,488Z"/><polygon class="cls-8" points="307.53 524.31 401.87 497.32 636.05 495.98 632.14 499.79 402.16 500.29 309.59 524.3 307.53 524.31"/><path class="cls-7" d="M402.16,500.29c74.63-3.73,157.09,1.6,231.72-2.18l1.19,8.48c-61.22,1.79-168.54,1.7-229.75,3.52,0,0-56.38,13.78-93.73,20.42l-2-6.23C339.77,516.05,372,508.59,402.16,500.29Z"/><path class="cls-9" d="M408.39,319.22c-23.12,11.11-14.09,38.39-10.2,57.1q3.17,15.4,6.38,30.81c2,9.47,2.6,19.54,8.86,27.6,12.45,17.61,36.69,21.19,57.75,20.16,13.67,0,27.32-.16,41-.46,14-.29,28-.7,41.9-1.56,23.91,0,41.66-11.39,39.82-35.52q-4.2-25.23-7.09-50.68c-.59-23.28-14.18-50.46-42.68-49.33q-46.08-.25-92.14-.58C444.78,316.72,416.29,315.44,408.39,319.22Z"/><path class="cls-10" d="M393.19,348.89s4.73-12.42,45.6-11,95.59.92,95.59.92,25.68-.54,27.45,18.66,9.2,58.21,9.2,58.21,8.87,28.25-16.78,37.22c0,0,27.18.78,31.64-20.08s-8.51-84-8.51-84l-24.55-22.51-148.39,1.94-11.23,15.13Z"/><path class="cls-5" d="M544.12,317.34q-46.08-.25-92.14-.58c-7.2,0-35.69-1.32-43.59,2.46-11,5.29-14.71,14.23-15.18,24.16,6.13-9.63,30.88-9.95,30.88-9.95L540,333c23.56.14,26.67,20.38,26.67,20.38s3.86,20.95,10.52,54.79c7.78,39.55-11.3,43.57-22.94,44.72,23.81-.05,41.48-11.45,39.64-35.52q-4.2-25.23-7.09-50.68C586.21,343.39,572.62,316.21,544.12,317.34Z"/></g><path class="cls-11" d="M497.75,379a4.82,4.82,0,0,0-.34-.92,2.48,2.48,0,0,0-.71-1.13,2.2,2.2,0,0,0-1.21-.53,7.92,7.92,0,0,0-2.43-.2c-.74,0-1.48,0-2.23.07a48.84,48.84,0,0,0-9.48,1.38,2,2,0,0,1,0-.24,1,1,0,0,0-2-.26,12.26,12.26,0,0,0-1.07,2.75c-.22.9-.45,1.8-.61,2.71l-1,5.44c-.66,3.62-1.17,7.28-1.75,10.92-.33,2-.52,4.1-.76,6.15a1.85,1.85,0,0,0,1.59,2.07c2.5.09,5,.32,7.5.51l1.47.1,1.58.47q2.21.67,4.38,1.41a2.45,2.45,0,0,0,.71.11l.73.27a1.72,1.72,0,0,0,2.33-1.34c.31-1.51.65-3,1-4.51s.57-3,.82-4.54c.52-3.05,1-6.12,1.27-9.2a84.27,84.27,0,0,0,.38-9.53A9.19,9.19,0,0,0,497.75,379Z"/><path class="cls-12" d="M495.28,378.43c0-.79-.37-1.3-.84-1.41-.93-.22-2-.6-2.93-.1a6,6,0,0,1-3.11.65c-2.35,0-5.35-1.82-7.7-.08-.55.4-.12,2.9.1,3.59,1.29,4,5.84,4.07,8.5,3.73C491.22,384.57,495.52,382.86,495.28,378.43Z"/><path class="cls-11" d="M478.34,377.4a26.38,26.38,0,0,0,4.59.7c1.59.06,3.19.06,4.78,0a51.17,51.17,0,0,0,9.23-1.21l-.66-.09-.1-.05c-.09-.11-.1-.11,0,0l-.05-.09.09.21c.12.29,0-.2,0,.12,0,.12,0,.23,0,.34.08.69.13,1.38.18,2.07.09,1.36.16,2.73.19,4.09a76.28,76.28,0,0,1-.23,7.84,81.9,81.9,0,0,1-2.76,15.76,7.57,7.57,0,0,1-.55,1.6c.12-.21-.09.12-.11.14.18-.19-.19.12,0,0,0,0-.38.12-.13.07-.06,0-.53,0-.28,0a8.37,8.37,0,0,1-1.65-.28l-2.15-.48-8.13-1.78-4.15-.93-.44-.11c.24.07-.2-.08-.2-.07-.25-.08,0,.07-.18-.1.17.15-.07-.1-.09-.13.15.25,0-.09,0-.13s0,.22,0,0,0-.24,0-.37h0v-.25c.12-2.76.45-5.52.83-8.26.42-3.05,1-6.07,1.61-9.09.32-1.53.67-3.05,1.05-4.57s.73-2.89,1.13-4.55a1.39,1.39,0,0,0-2.66-.72,71.29,71.29,0,0,0-2.77,10.68c-.67,3.54-1.17,7.12-1.51,10.71-.16,1.77-.3,3.54-.37,5.32a5.19,5.19,0,0,0,.32,2.4,3.11,3.11,0,0,0,2.06,1.68c1.78.5,3.62.78,5.42,1.17l5.31,1.16c1.77.38,3.55.79,5.33,1.15a4.66,4.66,0,0,0,2.43,0,3.2,3.2,0,0,0,1.82-1.79,18.69,18.69,0,0,0,.76-2.55c.23-.84.44-1.69.64-2.54.4-1.7.74-3.41,1-5.13a84.57,84.57,0,0,0,.86-21.14,8.21,8.21,0,0,0-.38-2.31,2.59,2.59,0,0,0-.7-1,1.63,1.63,0,0,0-1.58-.34c-1.7.38-3.41.73-5.13,1a81.27,81.27,0,0,1-10.22.62c-.84,0-1.68,0-2.53,0a.61.61,0,0,0-.53.63.63.63,0,0,0,.54.62Z"/><path class="cls-11" d="M518.74,375a25.81,25.81,0,0,0,21-11.28c1.79-2.68-2.09-5.91-3.9-3.21A21.17,21.17,0,0,1,518.25,370c-3.25,0-2.74,5,.49,5Z"/><path class="cls-11" d="M455,364.36a43.72,43.72,0,0,1-23.38-8.67c-2.57-1.93-6,1.78-3.4,3.74a49.92,49.92,0,0,0,27,10,2.55,2.55,0,0,0,2.41-2.64,2.59,2.59,0,0,0-2.64-2.41Z"/><path class="cls-11" d="M517.4,386.07a172,172,0,0,1,25.86,1.44c2.17.29,2.45-4.76.29-5A172,172,0,0,0,517.69,381c-2.18,0-2.48,5.09-.29,5Z"/><path class="cls-11" d="M518.05,388.48l12.51,1.31,6.15.64a14.48,14.48,0,0,1,5.77,1.34c.25-1.64.49-3.28.74-4.93l-11.89-.3c-3.94-.11-7.91-.46-11.85.47-1.91.46-1.72,4.92.17,5a95.85,95.85,0,0,1,20.85,2.91l-.17-5c-6.24,1.93-12.55,1.14-18.77.36l-.29,5q7.59.27,15.2.12c2.18-.05,2.48-5.09.29-5.05q-7.6.17-15.2-.11c-2.19-.08-2.45,4.77-.29,5,6.53.82,13.13,1.54,19.69-.49,2-.63,1.57-4.54-.17-5a96.53,96.53,0,0,0-20.85-2.9c0,1.66.11,3.32.17,5,3.76-.89,7.61-.43,11.38-.33l11.44.29c1.93.05,2.5-3.95.73-4.92a14.93,14.93,0,0,0-5.75-1.48l-6.6-.69-13-1.35c-2.18-.23-2.46,4.81-.29,5Z"/><path class="cls-11" d="M517.6,397.54c.39.21.68.51,1,.73s.66.39,1,.56c.7.34,1.41.67,2.13,1a24.86,24.86,0,0,0,4.51,1.5.87.87,0,0,0,1.07-.53.85.85,0,0,0-.53-1.06c-1.48-.49-3-.92-4.45-1.42-.71-.24-1.41-.51-2.12-.78l-1-.38a10.26,10.26,0,0,1-1.23-.37c-.44-.2-.81.54-.38.78Z"/><path class="cls-11" d="M517.1,400.54c.6.51,1.22,1,1.87,1.43.32.21.64.43,1,.61a5,5,0,0,0,.65.33l.56.18a.71.71,0,0,0,.62-1.25l-.48-.35c-.17-.12-.35-.2-.52-.3-.33-.18-.66-.34-1-.53a22.07,22.07,0,0,1-2-1.22.66.66,0,1,0-.73,1.1Z"/><path class="cls-11" d="M454.36,381.64a172.11,172.11,0,0,0-25.89.07c-2.19.17-2.2-4.88,0-5a172.11,172.11,0,0,1,25.89-.06c2.18.15,2.21,5.2,0,5Z"/><path class="cls-11" d="M453.59,384l-12.57.64-6.16.32a14.59,14.59,0,0,0-5.84,1c-.16-1.65-.32-3.3-.47-5l11.89.33c3.93.11,7.92,0,11.8,1.1,1.89.56,1.46,5-.44,5a96.83,96.83,0,0,0-21,1.8l.43-5c6.14,2.26,12.48,1.81,18.73,1.35l0,5.05c-5.06-.08-10.13-.31-15.18-.69-2.18-.16-2.21-5.21,0-5.05,5.05.38,10.12.61,15.18.69,2.19,0,2.2,4.89,0,5.05-6.56.48-13.19.84-19.63-1.53-2-.74-1.34-4.61.43-5a97.49,97.49,0,0,1,21-1.8c-.15,1.66-.29,3.31-.44,5-3.71-1.09-7.58-.83-11.34-.93l-11.44-.32c-1.94,0-2.3-4.08-.47-4.95a14.62,14.62,0,0,1,5.82-1.17l6.63-.34,13-.67c2.18-.11,2.2,4.94,0,5.05Z"/><path class="cls-11" d="M453.56,393.08c-.4.19-.7.48-1.09.68a11,11,0,0,1-1,.51c-.72.3-1.44.59-2.18.85a24.28,24.28,0,0,1-4.58,1.26.87.87,0,0,1-1-.59.85.85,0,0,1,.58-1c1.51-.41,3-.76,4.53-1.18.72-.2,1.43-.44,2.15-.67l1.08-.32a10.66,10.66,0,0,0,1.24-.3c.45-.18.78.58.34.79Z"/><path class="cls-11" d="M453.9,396.11q-.94.7-1.95,1.32c-.33.2-.66.4-1,.57a5.65,5.65,0,0,1-.67.29l-.58.14a.7.7,0,0,1-.54-1.27l.5-.33c.16-.1.35-.18.53-.27l1-.47c.7-.34,1.37-.71,2-1.11a.65.65,0,0,1,.9.23.67.67,0,0,1-.23.9Z"/><ellipse class="cls-13" cx="423.97" cy="398.94" rx="15.15" ry="6.68"/><ellipse class="cls-13" cx="549.28" cy="403.02" rx="6.68" ry="13.44" transform="translate(114.65 927.64) rotate(-86.63)"/><path class="cls-14" d="M299.43,406.64l-1.87,1a2.42,2.42,0,0,1-3.68-1.83l-9.6-42.61c-.51-2.19.32-4.94,1.84-6.08l1.78-1.31c1.54-1.11,3.23-.17,3.76,2.08l9.95,43.64A4.86,4.86,0,0,1,299.43,406.64Z"/><path class="cls-14" d="M314.78,398l-1.88,1a2.41,2.41,0,0,1-3.67-1.83l-9.6-42.61c-.51-2.2.31-4.94,1.84-6.08l1.78-1.31c1.53-1.11,3.23-.17,3.75,2.08L317,392.88A4.85,4.85,0,0,1,314.78,398Z"/><path class="cls-7" d="M288,364.06c-.54-2.28.3-5.13,1.87-6.3l1.36-1a4.37,4.37,0,0,1,.44,1.14l9.95,43.64a4.86,4.86,0,0,1-2.18,5.1l-1.45.78Z"/><path class="cls-7" d="M303.13,355.76c-.55-2.28.29-5.13,1.86-6.3l1.65-1.21a4.52,4.52,0,0,1,.36,1L317,392.88a4.85,4.85,0,0,1-2.17,5.1l-1.72.93Z"/><polygon class="cls-7" points="624.55 518.99 625.42 530.3 549.52 531.54 548.23 520.01 624.55 518.99"/><polygon class="cls-5" points="624.55 518.99 625.42 530.3 620.96 530.37 620.47 523.1 548.66 523.82 548.23 520.01 624.55 518.99"/><polygon class="cls-5" points="401.87 497.32 636.05 495.98 633.93 499.11 402.45 500.29 401.87 497.32"/><path class="cls-15" d="M809.84,285.22l-.72.74a5.94,5.94,0,0,1-3.61-1.85,6.11,6.11,0,0,1-1.73-4.69,144.21,144.21,0,0,0,20.88-24.22l4.28,4.46.81.85h0l.81.85,4.28,4.46A129.32,129.32,0,0,0,809.84,285.22Z"/><path class="cls-16" d="M809.84,285.22l-.72.74a5.94,5.94,0,0,1-3.61-1.85,6.11,6.11,0,0,1-1.73-4.69,144.21,144.21,0,0,0,20.88-24.22l4.28,4.46.81.85h0l.81.85,4.28,4.46A129.32,129.32,0,0,0,809.84,285.22Z"/><path class="cls-15" d="M809.84,285.22l-.72.74a5.94,5.94,0,0,1-3.61-1.85,6.11,6.11,0,0,1-1.73-4.69,144.21,144.21,0,0,0,20.88-24.22l4.28,4.46.81.85h0l.81.85,4.28,4.46A129.32,129.32,0,0,0,809.84,285.22Z"/><path class="cls-17" d="M809.84,285.22l-.72.74a5.94,5.94,0,0,1-3.61-1.85,6.11,6.11,0,0,1-1.73-4.69,144.21,144.21,0,0,0,20.88-24.22l4.28,4.46.81.85h0l.81.85,4.28,4.46A129.32,129.32,0,0,0,809.84,285.22Z"/><path class="cls-17" d="M811.07,284.05l-1.26,1.25a4.72,4.72,0,0,1-4.3-1.19c-1.31-1.37-1.43-3.34-.68-5.69a421.31,421.31,0,0,0,37.49-40.17l4.28,4.46.81.85h0l.81.85,5.25,5.47A285.32,285.32,0,0,0,811.07,284.05Z"/><path class="cls-15" d="M869.44,274.18c12.42-11.92,10.56-34-4.15-49.34s-36.71-18.1-49.13-6.18-10.56,34,4.15,49.34S857,286.1,869.44,274.18ZM835,219.29a1.61,1.61,0,1,1,.14-2.37A1.69,1.69,0,0,1,835,219.29Zm-6.32,6.23a1.61,1.61,0,1,1,.14-2.37A1.69,1.69,0,0,1,828.7,225.52Zm-7.2-2.63a1.61,1.61,0,1,1,.14-2.37A1.68,1.68,0,0,1,821.5,222.89Zm-6.24,14.2a1.61,1.61,0,1,1,.14-2.37A1.68,1.68,0,0,1,815.26,237.09Zm-1.68,7.47a1.61,1.61,0,1,1,.14-2.36A1.68,1.68,0,0,1,813.58,244.56Zm14.16-26.51a1.61,1.61,0,1,1,.14-2.37A1.68,1.68,0,0,1,827.74,218.05Zm38.18,44.77a1.61,1.61,0,1,1,.14-2.36A1.68,1.68,0,0,1,865.92,262.82Zm-.6,9.14a1.61,1.61,0,1,1,.14-2.36A1.68,1.68,0,0,1,865.32,272Zm6.92-6.81a1.61,1.61,0,1,1,.14-2.37A1.68,1.68,0,0,1,872.24,265.15Zm-9.12-35.45a1.61,1.61,0,1,1,.14-2.36A1.68,1.68,0,0,1,863.12,229.7Zm-6.23-5.1a1.61,1.61,0,1,1,.15-2.36A1.68,1.68,0,0,1,856.89,224.6Zm15.59,32.53a1.61,1.61,0,1,1,.14-2.36A1.68,1.68,0,0,1,872.48,257.13Zm-52-26.57a1.61,1.61,0,1,1,.14-2.37A1.68,1.68,0,0,1,820.44,230.56ZM859.53,268a1.61,1.61,0,1,1,.14-2.36A1.68,1.68,0,0,1,859.53,268Zm-4.64,7.2a1.61,1.61,0,1,1-2.22-2.32,1.61,1.61,0,1,1,2.22,2.32Zm13.44-39.17a1.61,1.61,0,1,1,.14-2.37A1.68,1.68,0,0,1,868.33,236.05Zm-23.7-15.89a1.61,1.61,0,1,1,.14-2.36A1.68,1.68,0,0,1,844.63,220.16Zm-6.28,6a1.61,1.61,0,1,1,.14-2.37A1.68,1.68,0,0,1,838.35,226.19Zm-6.41,6.15a1.61,1.61,0,1,1-2.22-2.32,1.66,1.66,0,0,1,2.36-.05A1.68,1.68,0,0,1,831.94,232.34Zm-6.15,5.9a1.61,1.61,0,1,1,.14-2.36A1.68,1.68,0,0,1,825.79,238.24Zm-5.38,5.2a1.61,1.61,0,1,1,.14-2.36A1.68,1.68,0,0,1,820.41,243.44ZM850,225.73a1.61,1.61,0,1,1,.14-2.37A1.68,1.68,0,0,1,850,225.73Zm-6.28,6a1.61,1.61,0,1,1,.14-2.37A1.68,1.68,0,0,1,843.69,231.76Zm-6.41,6.14a1.61,1.61,0,1,1,.15-2.36A1.68,1.68,0,0,1,837.28,237.9Zm-6.15,5.91a1.61,1.61,0,1,1,.14-2.36A1.68,1.68,0,0,1,831.13,243.81Zm-5.6,6.08a1.61,1.61,0,1,1,.14-2.36A1.68,1.68,0,0,1,825.53,249.89Zm-8.31,2.27a1.61,1.61,0,1,1,.15-2.37A1.68,1.68,0,0,1,817.22,252.16Zm38.09-20.87a1.61,1.61,0,1,1,.15-2.36A1.68,1.68,0,0,1,855.31,231.29Zm-6.28,6a1.61,1.61,0,1,1,.14-2.36A1.68,1.68,0,0,1,849,237.32Zm-6.41,6.15a1.61,1.61,0,1,1,.15-2.37A1.68,1.68,0,0,1,842.62,243.47Zm-6.15,5.91a1.61,1.61,0,1,1,.14-2.37A1.68,1.68,0,0,1,836.47,249.38Zm-4.93,6.18a1.61,1.61,0,1,1,.15-2.36A1.68,1.68,0,0,1,831.54,255.56ZM822.05,258a1.61,1.61,0,1,1,.15-2.37A1.68,1.68,0,0,1,822.05,258Zm5,5.21a1.61,1.61,0,1,1,.15-2.36A1.68,1.68,0,0,1,827,263.2Zm33.64-26.34a1.61,1.61,0,1,1,.15-2.37A1.69,1.69,0,0,1,860.65,236.86Zm-6.28,6a1.61,1.61,0,1,1,.15-2.37A1.68,1.68,0,0,1,854.37,242.89ZM848,249a1.61,1.61,0,1,1,.14-2.37A1.68,1.68,0,0,1,848,249Zm-6.16,5.9a1.61,1.61,0,1,1,.14-2.36A1.68,1.68,0,0,1,841.81,254.94Zm-4.41,6.47a1.61,1.61,0,1,1,.14-2.37A1.68,1.68,0,0,1,837.4,261.41Zm-5.69,7.16a1.61,1.61,0,1,1,.15-2.36A1.68,1.68,0,0,1,831.71,268.57ZM866,242.43a1.61,1.61,0,1,1,.14-2.37A1.68,1.68,0,0,1,866,242.43Zm-6.29,6a1.66,1.66,0,0,1-2.36.05,1.75,1.75,0,1,1,2.36-.05Zm-6.4,6.15a1.61,1.61,0,1,1,.14-2.36A1.68,1.68,0,0,1,853.31,254.6Zm-6.16,5.91a1.61,1.61,0,1,1,.15-2.37A1.69,1.69,0,0,1,847.15,260.51Zm-4.08,8.56a1.61,1.61,0,1,1,.14-2.37A1.68,1.68,0,0,1,843.07,269.07ZM871.34,248a1.61,1.61,0,1,1,.14-2.36A1.68,1.68,0,0,1,871.34,248Zm-6.28,6a1.61,1.61,0,1,1,.14-2.37A1.69,1.69,0,0,1,865.06,254Zm-6.41,6.15a1.61,1.61,0,1,1,.14-2.37A1.68,1.68,0,0,1,858.65,260.17Zm-6.16,5.9a1.61,1.61,0,1,1,.15-2.36A1.66,1.66,0,0,1,852.49,266.07Zm-6,9.66a1.61,1.61,0,1,1,.15-2.36A1.68,1.68,0,0,1,846.45,275.73Zm-9.16-1.52a1.61,1.61,0,1,1,.15-2.36A1.68,1.68,0,0,1,837.29,274.21Z"/><path class="cls-18" d="M808.27,234.45a21.79,21.79,0,0,1,9.73-3.92v0a1.75,1.75,0,0,1,2.59-2.32,1.65,1.65,0,0,1,.1,2.08h0a29.54,29.54,0,0,1,8.48.9,1.77,1.77,0,0,1,.56-1.15,1.66,1.66,0,0,1,2.36-.05,1.63,1.63,0,0,1,.08,2.11A39.49,39.49,0,0,1,856.34,258l.08-.1a1.61,1.61,0,1,1,2.23,2.32,1.75,1.75,0,0,1-1.69.44,30,30,0,0,1,.52,4.95,1.65,1.65,0,0,1,2.19.1,1.68,1.68,0,0,1-.14,2.36,1.73,1.73,0,0,1-2.12.26A22.39,22.39,0,0,1,852,281.52a27.07,27.07,0,0,0,17.4-7.34c12.42-11.92,10.56-34-4.15-49.34s-36.71-18.1-49.13-6.18A26.93,26.93,0,0,0,808.27,234.45Zm60.06,1.6a1.61,1.61,0,1,1,.14-2.37A1.68,1.68,0,0,1,868.33,236.05Zm4.15,21.08a1.61,1.61,0,1,1,.14-2.36A1.68,1.68,0,0,1,872.48,257.13Zm-2.47,5.7a1.61,1.61,0,1,1-.14,2.36A1.68,1.68,0,0,1,870,262.83Zm-6.92,6.82A1.61,1.61,0,1,1,863,272,1.68,1.68,0,0,1,863.09,269.65Zm.6-9.15a1.61,1.61,0,1,1-.14,2.37A1.68,1.68,0,0,1,863.69,260.5Zm5.42-14.83A1.61,1.61,0,1,1,869,248,1.68,1.68,0,0,1,869.11,245.67Zm-6.28,6a1.61,1.61,0,1,1-.14,2.37A1.68,1.68,0,0,1,862.83,251.7Zm.94-11.59a1.61,1.61,0,1,1-.14,2.36A1.68,1.68,0,0,1,863.77,240.11Zm-6.28,6a1.61,1.61,0,1,1,2.22,2.32,1.66,1.66,0,0,1-2.36.05A1.68,1.68,0,0,1,857.49,246.13Zm.94-11.59a1.61,1.61,0,1,1-.15,2.36A1.68,1.68,0,0,1,858.43,234.54Zm2.46-7.16a1.61,1.61,0,1,1-.14,2.37A1.68,1.68,0,0,1,860.89,227.38Zm-8.74,13.19a1.61,1.61,0,1,1-.15,2.36A1.68,1.68,0,0,1,852.15,240.57Zm.94-11.6a1.61,1.61,0,1,1-.15,2.37A1.68,1.68,0,0,1,853.09,229Zm1.58-6.69a1.61,1.61,0,1,1-.15,2.37A1.68,1.68,0,0,1,854.67,222.28ZM846.81,235a1.61,1.61,0,1,1-.15,2.37A1.68,1.68,0,0,1,846.81,235Zm.94-11.59a1.66,1.66,0,0,1,2.36,0,1.75,1.75,0,1,1-2.36,0Zm-6.29,6a1.61,1.61,0,1,1-.14,2.36A1.68,1.68,0,0,1,841.46,229.44Zm.94-11.6a1.61,1.61,0,1,1-.14,2.37A1.68,1.68,0,0,1,842.4,217.84Zm-6.28,6a1.61,1.61,0,1,1-.14,2.36A1.68,1.68,0,0,1,836.12,223.87Zm-3.33-6.9a1.61,1.61,0,1,1-.14,2.37A1.68,1.68,0,0,1,832.79,217Zm-6.32,6.23a1.61,1.61,0,1,1-.14,2.37A1.68,1.68,0,0,1,826.47,223.2Zm-1-7.47a1.61,1.61,0,1,1-.14,2.37A1.68,1.68,0,0,1,825.51,215.73Zm-6.24,4.84a1.61,1.61,0,1,1-.14,2.37A1.68,1.68,0,0,1,819.27,220.57Z"/><path class="cls-19" d="M704.74,380.48h0c3,3.16,9.37,5.71,19.32-3.2,1.25-1.12,3.39-3.29,6.21-6.27-5.06-1.27-6-4.07-6-4.07-6.73-6.56,5-6.76,10.11-14.08,4-5.72,15.2-5.73,19.79-6,17.55-19.27,38.63-44.3,54.93-60.93a5.94,5.94,0,0,1-3.61-1.85,6.11,6.11,0,0,1-1.73-4.69l0,0C785.5,296,756.66,319.54,736,337c1.46,3.73,4.24,8.3-1.51,12.68s-9.34,1.7-11.39-1.08c-7.16,6.11-12.38,10.68-14.4,12.75C699.42,370.88,701.71,377.3,704.74,380.48ZM709.3,367a6.82,6.82,0,1,1-.2,9.64A6.82,6.82,0,0,1,709.3,367Z"/><polyline class="cls-20" points="519.29 910.24 518.23 889.77 709.17 828.02 708.86 811.48 726.07 793.64 744.68 699.45 741.75 680.76 756.73 638.44 743.98 587.88 635.34 514.31 501.7 481.81 344.88 543.24"/><polygon class="cls-21" points="756.73 638.44 743.98 587.88 635.34 514.31 501.7 481.81 344.88 543.24 344.88 543.24 243.23 575.49 267.86 662.5 286.88 750.42 322.04 835.12 519.29 910.24 518.23 889.77 709.17 828.02 708.86 811.48 726.07 793.64 744.68 699.45 741.75 680.76 756.73 638.44"/><polygon class="cls-22" points="709.17 828.02 709.17 828.02 664.8 786.78 543.84 739.24 459.65 776.29 534.63 778.51 563.24 823.35 640.52 809.31 709.17 828.02"/><polygon class="cls-23" points="614.38 768.58 671.08 792.16 709.17 828.02 703.32 824.4 665.97 796.74 614.38 768.58"/><polygon class="cls-24" points="744.68 699.45 741.75 680.76 756.73 638.44 743.98 587.88 635.34 514.31 502.5 482 533.09 604.17 543.84 739.24 671.08 792.16 709.17 828.02 708.86 811.48 726.07 793.64 744.68 699.45"/><path class="cls-25" d="M533.09,604.17s122.55,75,134.1,119.54c10.93,42.17,41.67,87.77,41.67,87.77l17.21-17.84,18.61-94.19-2.93-18.69,12.69-36.46-244-152.79L515.51,536Z"/><polygon class="cls-26" points="506.33 482.09 508.69 499.13 564.24 581.03 569.63 621.7 678.69 647.82 722.85 713.54 738.41 729.17 744.68 699.45 741.75 680.76 749.15 648.24 506.33 482.09"/><polygon class="cls-27" points="797.45 697.53 777.57 661.12 808.15 686.86 797.45 697.53"/><polygon class="cls-28" points="721.35 668.45 698.9 628.65 729.2 624.72 721.35 668.45"/><polygon class="cls-29" points="543.84 739.24 539.74 687.69 523.77 608.23 509.53 483.71 501.7 481.81 344.88 543.24 246.75 577.84 267.86 662.5 285.11 746.16 322.04 835.12 543.84 739.24"/><polygon class="cls-30" points="337.54 782.7 345.78 801.05 380.66 788.29 372.75 767.93 337.54 782.7"/><g class="cls-31"><path class="cls-32" d="M377.71,787.53l-.15.05-29.68,10.91-.05-.11-7-15.22.16-.07,30.48-12.55,0,.14Zm-29.65,10.6,29.26-10.75-6-16.46-30,12.37Z"/></g><polygon class="cls-33" points="348.83 782.61 363.77 776.6 365.21 779.87 350.15 785.62 348.83 782.61"/><polygon class="cls-33" points="354.28 794.68 354.01 794.11 367.89 788.41 368.2 789.08 354.28 794.68"/><polygon class="cls-34" points="336.1 784.66 376.38 767 375.54 762.31 333.97 781.49 336.1 784.66"/><polygon class="cls-34" points="368.72 761.71 380.52 790.67 383.35 789.41 372.99 761.35 368.72 761.71"/><polygon class="cls-34" points="338.68 777.59 348.13 802.55 345.07 804 334.92 778.75 338.68 777.59"/><polygon class="cls-34" points="342.19 804.37 384.1 788.35 383.67 785.27 341.68 802.02 342.19 804.37"/><polygon class="cls-35" points="475.62 621.32 511.74 605.52 515.2 618.5 478.06 630.49 475.62 621.32"/><path class="cls-36" d="M344.88,543.24l68.28,11.91S340.87,602.88,439,668.59c90.87,60.82,104.81,70.65,104.81,70.65l-6-84.84-14.08-46.17L506.33,482.09S376.92,519.31,344.88,543.24Z"/><polygon class="cls-37" points="501.7 481.81 593.9 584.42 588.71 638.13 712.14 641.07 721.35 668.45 808.15 686.86 797.45 697.53 801.73 699.45 813.55 687.24 813.64 681.47 743.98 587.88 635.34 514.31 501.7 481.81"/><polygon class="cls-37" points="501.7 481.81 593.9 584.42 588.71 638.13 712.14 641.07 721.35 668.45 808.15 686.86 797.45 697.53 801.73 699.45 813.55 687.24 813.64 681.47 743.98 587.88 635.34 514.31 501.7 481.81"/><g class="cls-38"><polygon class="cls-39" points="707.28 634.38 709.55 634.4 707.4 627.65 705.67 627.64 707.28 634.38"/><polygon class="cls-39" points="704.39 628.37 709.22 628.4 705.13 623.15 704.39 628.37"/><polygon class="cls-39" points="700.33 634.34 702.6 634.35 700.41 627.6 698.68 627.59 700.33 634.34"/><polygon class="cls-39" points="697.41 628.33 702.24 628.36 698.12 623.11 697.41 628.33"/><path class="cls-39" d="M683.77,624.08l6.33,0s1.76,5.17-1.39,5.29S683.77,624.08,683.77,624.08Z"/><polygon class="cls-39" points="687.89 628.71 689.8 632.66 688.14 633.99 692.46 634.01 690.31 632.66 689.23 629.41 687.89 628.71"/></g><polygon class="cls-40" points="813.64 681.47 813.55 687.24 801.73 699.45 797.45 697.53 808.15 686.86 721.35 668.45 712.14 641.07 588.71 638.13 593.9 584.42 501.7 481.81 506.33 482.09 600.82 581.03 594.58 634.61 719.15 637.33 726.36 663.07 813.64 681.47"/><polygon class="cls-41" points="691.28 636.72 684.14 603.76 693.76 607.62 697.17 605.46 699.85 607.97 710.24 612.05 716.16 622.02 718.58 624.03 719.1 621.02 730.14 663.86 725.91 669.42 721.35 668.45 712.14 641.07 688.79 640.51 691.28 636.72"/><g class="cls-31"><g class="cls-31"><path class="cls-42" d="M648.28,838c-1.45-1.54-3.07-1.94-5.25-.28a2.53,2.53,0,0,0-.49,3.91,4.22,4.22,0,0,0,5.12.48A2.89,2.89,0,0,0,648.28,838Z"/><path class="cls-42" d="M578.17,848.37c1.06,2-.58,4.29-2.43,5.5a9,9,0,0,1-5.27,1.39c-1.9,0-3.9-.78-4.16-2.6a6.8,6.8,0,0,1,.15-2.58c.4-.89,2.08-1.32,3-1.64a6.81,6.81,0,0,1,4.11-.14C575,848.56,577.12,846.64,578.17,848.37Z"/><path class="cls-42" d="M640.36,832.06c-.12,2.67-3.93,1.67-3-.28a1.83,1.83,0,0,1,3-.3Z"/><path class="cls-42" d="M641.34,841.42c-.09,1.76-2.61,1.1-2-.18a1.22,1.22,0,0,1,2-.2Z"/><path class="cls-42" d="M504.25,875.42c.29-3.29-5.21-4.06-4.62-.58.32,1.86,3.07,2.87,3.94.93Z"/><path class="cls-42" d="M485.34,870.32c.57.3.73,0,.8-.37.12-.71-.26-.65-.85-.83a1.78,1.78,0,0,0-2.5,1c-.47.86-.9,2.78,1,2.63a2.61,2.61,0,0,0,1.88-1.72Z"/><path class="cls-42" d="M489.06,875.52c1,1.05-2,.62-1.62-.43s1.57-.06,1.67.51Z"/><path class="cls-42" d="M493.81,876.6c-1.07-.45-1.4,1.16-.66,1.44.89.33.87-1,.85-1.34Z"/><path class="cls-42" d="M498.92,857c.35,1.13-1.61,1-2.21.44a1.92,1.92,0,0,1,.17-2.93c1.5-1,3.46,1,2.41,2.19Z"/><path class="cls-42" d="M483,863.19c.06-1.69-3.28-.24-2.27,1.09a1.34,1.34,0,0,0,2.32-1Z"/><path class="cls-42" d="M512.8,879.31a1.2,1.2,0,0,1,0,2.29c-1.39.52-2.51-1-2.62-2-.25-2.15,3.21-2.41,3.26-.25Z"/><path class="cls-42" d="M501.14,888.93c-.55-2.84-4.25.21-3.15,2.14C499.31,893.39,502.27,891.05,501.14,888.93Z"/><path class="cls-42" d="M570.68,858.49c.41-3.13-5.14-1.64-3.71,1.27a3.11,3.11,0,0,0,4.08-1.77Z"/><path class="cls-42" d="M581.32,788.51a15.75,15.75,0,0,1-15.91,12.61c-2.08-.09-5.25-.56-4.45-3,.71-2.09,8.95-4.82,11-5.94C575,790.61,578.05,788.85,581.32,788.51Z"/><path class="cls-42" d="M591.57,807.6c-1.68-1.93-5.47,1.09-3.74,2.49,1.14.94,3.65,0,3.37-1.33Z"/><path class="cls-42" d="M541.1,840.52c1.52,3.61-5.9.8-1.75-.89a3.68,3.68,0,0,0,.75.48Z"/><path class="cls-42" d="M563.68,854.81c-.91-2.42-3.8-.32-2.63,1.4,1,1.42,3.47.78,2.93-.94Z"/><path class="cls-42" d="M527.84,876.85a1.49,1.49,0,0,1-.51,1.15c-2.83-.94-.26-3.9.35-1.36Z"/><path class="cls-42" d="M602.67,840.46c3.2-7.37-8.71.58-1.47-.05Z"/><path class="cls-42" d="M619.76,818.81c.68-2.1-1.56-4.54-3.62-2.14-1.56,1.82.79,4.64,2.65,2.34Z"/><path class="cls-42" d="M402.31,775.78c-1.77-1.68-3.54-2.11-5.51-.3-1.27,1.16-1.22,2.9.17,4.24a4.41,4.41,0,0,0,5.42.52C403.91,779.06,403.22,776.49,402.31,775.78Z"/><path class="cls-42" d="M393,769.38c.34,2.91-3.81,1.82-3.22-.31.4-1.43,2.2-1.28,3.13-.31Z"/><path class="cls-42" d="M395.68,779.55c.22,1.92-2.52,1.2-2.13-.2.27-.94,1.46-.84,2.07-.21Z"/><path class="cls-42" d="M355.21,778.51c2.05-8-9,.63-1.54,0Z"/><path class="cls-42" d="M369.73,751.36c.34-2.29-2.43-4.94-4.15-2.34-1.31,2,1.64,5.05,3.17,2.55Z"/><path class="cls-42" d="M601.94,811.15c.42,1.71-1.67,2.85-2.48,1.33-.69-1.28.8-1.89,1.78-1.28Z"/><path class="cls-42" d="M639.83,595.62c-1.65,9.1-9.8,17.13-18.87,16.66-2.38-.13-6-.75-5-3.91.9-2.76,10.5-6.36,12.94-7.83C632.46,598.41,636,596.08,639.83,595.62Z"/><path class="cls-42" d="M658.74,588.38c-1.84-2.56-6.35,1.43-4.42,3.29,1.27,1.24,4.2,0,3.94-1.76Z"/><path class="cls-42" d="M688.32,592.06c.9-2.78-1.56-6-4.05-2.84-1.89,2.41.67,6.14,2.93,3.1Z"/><path class="cls-42" d="M669.36,591.08c.4,2.25-2.06,3.76-2.92,1.76-.72-1.69,1-2.5,2.12-1.69Z"/><path class="cls-42" d="M543.32,867a3.55,3.55,0,0,0-.6,1.9c1.42.21,1.09-.36,1.06-1.23Z"/><path class="cls-42" d="M699.13,718.72c1,2.4-1,5.09-3.13,6.52a9.84,9.84,0,0,1-5.86,1.65c-2.07,0-4.18-.94-4.3-3.08a8.44,8.44,0,0,1,.4-3.06c.5-1.06,2.38-1.57,3.39-2a6.82,6.82,0,0,1,4.49-.16C695.67,718.94,698.15,716.66,699.13,718.72Z"/><path class="cls-42" d="M625.29,755.34c1.22.44,1,2.24-.2,2.71-1.55.6-2.64-1.17-2.68-2.33-.08-2.55,3.69-2.85,3.56-.3Z"/><path class="cls-42" d="M690.07,730.71c.73-3.71-5.44-2-4.15,1.51a3.55,3.55,0,0,0,4.6-2.1Z"/><path class="cls-42" d="M682.78,726.35c-.77-2.87-4.11-.38-3,1.66.93,1.68,3.71.93,3.28-1.12Z"/><path class="cls-42" d="M659.54,740.8a4.8,4.8,0,0,0-.81,2.25c1.52.24,1.22-.43,1.26-1.47Z"/><path class="cls-42" d="M426.29,658.61c-1.89-2-3.78-2.45-5.93-.36a3.36,3.36,0,0,0,.11,4.92,4.48,4.48,0,0,0,5.82.61C428,662.4,427.26,659.43,426.29,658.61Z"/><path class="cls-42" d="M416.4,651.18c.32,3.37-4.13,2.11-3.46-.36.45-1.65,2.39-1.48,3.37-.36Z"/><path class="cls-42" d="M419.09,663c.21,2.21-2.74,1.38-2.29-.24.3-1.09,1.58-1,2.23-.24Z"/><path class="cls-42" d="M375.54,661.77c2.32-9.29-9.67.72-1.65-.07Z"/><path class="cls-42" d="M391.58,630.26c.4-2.66-2.54-5.74-4.44-2.71-1.43,2.3,1.69,5.87,3.39,3Z"/><path class="cls-42" d="M372.88,629.33c.77,2.15-1.38,3.59-2.56,1.67-1-1.61.57-2.39,1.78-1.61Z"/><path class="cls-42" d="M386.2,553.86a2,2,0,0,1,.25,3.45c-1.66.77-3.2-1.49-3.44-3-.54-3.25,3.68-3.64,4-.38Z"/><path class="cls-42" d="M422.41,535.27a6,6,0,0,0-.53,2.88c1.76.3,1.3-.55,1.17-1.88Z"/></g></g><polygon class="cls-41" points="322.04 835.12 405.71 864.76 454.17 881.93 513.11 907.54 519.29 910.24 451.45 875.86 333.99 829.96 312.06 775.95 294.96 770.35 322.04 835.12"/><polygon class="cls-43" points="518.23 889.77 519.29 910.24 347.75 835.86 418.11 852.51 452.09 863.86 518.23 889.77"/><g class="cls-44"><path class="cls-45" d="M428.86,850.27h0Z"/><path class="cls-45" d="M570.5,831c.1-.14.48-.12.58-.26l-.17-.27c-.4-.25-1.3-.5-1.62-.66s-.82-.36-.72-.51.68-.1.85-.22l-.72-.27a1.3,1.3,0,0,0,.49-.21,3.23,3.23,0,0,1-.3-.19s.1-.18,0-.29-.51-.1-.57-.24.91-.08.4-.4c-.12-.07-.86-.08-.91-.2s1-.12,1.06-.19c.44-.26-.14-.12-.28-.33s.12-.1.07-.22c-.16-.34.07-.63,0-1-.06-.2.14-.24-.24-.46s-1-.2-1.15-.34,1.28-.33,1.55-.53c0,0-.13,0-.23-.07-4.56,0-13.55.06-23.26.06-2.08,0-4,.39-6.15.39-1.59,0-3.34-.4-4.9-.4h-.73l8.69-6.46c-.42-.05-.64.08-1,0-.16,0-.77-.22-1-.26-.36-.09-.8-.16-1.18-.25a11.11,11.11,0,0,1-2.11-.69,9.24,9.24,0,0,0-1.44-.63c-.87-.23-1.92-.15-2.69-.35-.06,0-.24-.21-.4-.27s-.55,0-.87-.17-.33-.2-.35-.25l-.55-.15h0c-1.05-.13-1.62.23-2.63-.08l.15-.12.48-.41-.13,0a2.08,2.08,0,0,1-.59.17c.22,0-.21-.27-.24-.28-.44-.17-.46-.07-.88-.34a3,3,0,0,0-.34-.26c-.14-.15,0-.57-.34-.67s-.91,0-1.26,0-.12-.22-.56-.27-.77.25-1.17.24c-.76,0-.15,0-.43-.23s-.06-.07-.32-.23c.15-.11.11-.17-.13-.17a2,2,0,0,0-.49,0,3.5,3.5,0,0,1-.78-.42c.24.16-.69-.39-.53-.39-.59-.13-1.06.28-1.66.4h0c.17-.14.35-.28.51-.43s.16-.12.29-.22a1.36,1.36,0,0,0-.78-.11l.15-.12-.91-.19c-1.67,1.3-4.68,3.54-7.91,6-1.09.82-1.37,1.89-2.46,2.71s-2.94,1.35-3.93,2.11c-1.19.9-2.3,1.76-3.27,2.51l-10.85-.07c-14.57-.07-30.86-.06-34.79-.08-5.51,0-11.69-.21-13.23-.26a.39.39,0,0,1,.15.06,1.38,1.38,0,0,0,.43.28c.56.25.41,0,.6.34,0,.06-.18.23-.18.32s.15.33.21.44a3,3,0,0,0,.27.23c.13.11-.12.1.15.24s.66.11.8.22-.1.08-.05.16-.13.32-.09.35-.07,0,.77.12a3.55,3.55,0,0,1,.64.06c.28,0,.28.06,0,.1-.05-.06-.28.08-.27.13s.36.32.51.47-.06.1,0,.14l.38,0c.22,0,.17,0-.16,0,0,0-.24,0-.26.09s.54.56.43.48c.12.09,0,.13.23.23s.83,0,1.05.14,0,0,.12.16c-.27-.27-.31.39-.1.2,0,0-.11.16-.19.23s-.56,0-.61.18c-.09.29,1,.3.85.54a2.35,2.35,0,0,1-.54,0c-.09.07,0,.22,0,.37l.18.09c.1,0,0,.08-.09.11a.38.38,0,0,1,.06.13,8,8,0,0,1,1,.25c.3.16,0-.13.28.15,0,0-.06.2-.14.33h0c.41.13.45.22.39.35.52.13,1,0,1.09.32s-1,.45-1.08.69.4.53.64.88a3,3,0,0,1,.42.94,2.63,2.63,0,0,0,.08.3,1.74,1.74,0,0,0,.09.28c0,.37,0,.47.59.77a3.66,3.66,0,0,1,.67.35l19.7,0c2.4,0,5,.21,7.59.21,1.66,0,3.25-.18,4.95-.18h2.37c-1.75,1.29-3.23,2.34-4,2.84-1.29.82-1.63,2.64-3,4a18.77,18.77,0,0,1-4,2.6c-.22.24-1.8,1.46-2.72,2.16a.68.68,0,0,1,.18.15c.11.16-.11.17.12.31s.41,0,.56,0c.54.22.7.62,1.22.86.1.05.1.14.22.19s.39,0,.49.06.4.22.64.31,1,.14,1.35.31-.11.32.32.4.41-.11.68-.1a1.34,1.34,0,0,1,.43.06h.14c-.13,0,.19.29.36.32.62.13.91-.26,1.31-.27s.26,0,.06.17-.62.69-.25.87.38,0,.82.12.22.3.59.39.66-.12,1.07,0c.24.06,0,.25.31.31.14,0,.66,0,.73,0,.29,0,.4,0,.32.15l-.06.1c.47.12-.09,0,.59.09.22,0,.52-.18.77,0s-.27.32-.36.39a5.47,5.47,0,0,1-.52.4l-.16.13c.09.19.44.34.87.46l.19.17a2.93,2.93,0,0,0,.74,0c.23.07.21.2.28.22a2.81,2.81,0,0,0,.44,0c.13,0,.09.24.3.24.48,0,1.13-.64,1.39-.28s-.34.57-.64.87a.53.53,0,0,1,.21.62.52.52,0,0,1,.38.14,2,2,0,0,0,.05.24c0,.09.07.18.28.25l.68.12a2.39,2.39,0,0,1,.38.33,8.52,8.52,0,0,1,1.3.25.92.92,0,0,1,.36.25l21.71-17c.57-.44.29-1.09.78-1.48.91-.7,2.5-1.07,3.11-1.54l1.37-1.06,6.72,0c13.13.15,34.42.63,38.23.6,2.83,0,5.12,0,6.11,0a.23.23,0,0,0,.09-.26c-.09-.22-.64-.14-.4-.4s.69,0,.65-.28-.46-.21-.48-.36.17-.06.28-.09c0-.1-.12-.21-.19-.32a1.64,1.64,0,0,1-.65-.31c-.23-.25.23-.28.14-.52s-.51-.25-.47-.33.6-.08.87-.18a1.09,1.09,0,0,1,.13-.17c0-.1,0-.23,0-.27,0-.43-.34-.56.32-.91a5.13,5.13,0,0,0,1.07-.74c.07-.08.24-.21.29-.26S570.47,831,570.5,831Z"/></g><polygon class="cls-46" points="708.86 811.48 688.36 776.31 726.07 793.64 708.86 811.48"/><polygon class="cls-47" points="600.82 581.03 656.18 558.11 594.58 634.61 600.82 581.03"/><polygon class="cls-48" points="719.15 637.33 691.97 560.22 741.25 666.21 726.36 663.07 719.15 637.33"/><polygon class="cls-23" points="515.51 536 533.09 604.17 539.51 684.87 523.77 608.23 515.51 536"/><polygon class="cls-49" points="539.51 684.87 529.63 637.19 523.77 608.23 530.51 637.34 539.51 684.87"/><polygon class="cls-50" points="614.91 768.9 665.97 796.74 703.32 824.4 708.08 827.26 703.68 823.94 666.43 796.02 618.68 770.37 614.91 768.9"/><polygon class="cls-23" points="541.16 705.59 534.08 734.18 536.02 742.62 543.84 739.24 541.16 705.59"/><polygon class="cls-51" points="537.24 742.09 535.34 734.02 541.29 707.15 541.16 705.59 534.08 734.18 536.02 742.62 537.24 742.09"/><polygon class="cls-52" points="577.57 753.07 555.33 711.8 537.85 654.4 543.84 739.24 577.57 753.07"/><polygon class="cls-53" points="533.09 604.17 528.35 588.34 517.06 542 515.2 533.18 529.47 589.69 533.09 604.17"/><path class="cls-3" d="M323.18,481.19a46.3,46.3,0,0,0,17.65,25.48s70.45,11.66,133.5,21.88c0,0,11.67,1.2,13.41,5.59,3.18,8,1.42,23.45,24.71,22,12.83-.83,12.91-20.87,10.91-25.56s-7.94-28.52-77.12-29.06c-70.49-.56-79-6.06-93.2-24.78S321,469.3,323.18,481.19Z"/><polygon class="cls-8" points="295.23 489.57 293.13 482.76 391.33 458.21 631.73 455.61 631.27 459.75 392.94 463.97 295.23 489.57"/><path class="cls-54" d="M284.41,459.72s-83.68-128.21,52.4-208.67S652.24,242,626.5,429.42Z"/><path class="cls-55" d="M284.41,459.72s-83.68-128.21,52.4-208.67S652.24,242,626.5,429.42Z"/><path class="cls-12" d="M336.81,251.05c-136.08,80.46-52.4,208.67-52.4,208.67l342.09-30.3C652.24,242,472.89,170.59,336.81,251.05Zm284.4,167.89h0l-241.27,4.49-90.1,32.18S209,331.76,340.45,254,636.05,243.38,621.21,418.94Z"/><path class="cls-8" d="M384.36,432.38S355,353.58,346.85,282.87c-2.06-17.79,11.76-33.83,20.74-47.18,0,0-120.64,40.17-108.64,155.49,0,0,11.07,55.71,25.46,68.54Z"/><path class="cls-56" d="M350.72,338.81s-20.16-61.42-6.26-77.46"/><path class="cls-56" d="M518.17,251.05s50.26,1.44,70.92,60.33"/><line class="cls-56" x1="354.11" y1="351.32" x2="359.57" y2="373.03"/><path class="cls-57" d="M267.81,320.39S247,387.63,279.32,371.77s72.88-110.3,19.15-90.68C298.47,281.09,278.42,303.19,267.81,320.39Z"/><path class="cls-58" d="M284.41,459.72s-83.68-128.21,52.4-208.67S652.24,242,626.5,429.42Z"/><path class="cls-59" d="M294.48,487s42.33-17.11,98-24.63c0,0,131.05-4.86,238.47-4.86,0,0,8.56-16.79-4.42-28.1l-242.14,3S314.68,447.43,287.48,462C287.48,462,278.11,479.35,294.48,487Z"/><path class="cls-59" d="M287.48,462l-3.07-2.23a1.16,1.16,0,0,1,.34-2.05l98.1-30.89,244.55-.93a1,1,0,0,1,.77,1.73l-1.67,1.84-242.14,3Z"/><path class="cls-60" d="M329.91,252.93s49.89-56.62,137-34.5C466.87,218.43,398.33,215.22,329.91,252.93Z"/><path class="cls-60" d="M363.13,228.69S392,214.91,421.81,213.4c0,0-15-9-34.82-2.07S363.13,228.69,363.13,228.69Z"/><path class="cls-61" d="M405.67,215.31s-29.19,5.13-23.76-2c0,0-14.79,6.4-18.78,15.39C363.13,228.69,384.24,219.64,405.67,215.31Z"/><path class="cls-61" d="M358.26,231.32s39.39-13.9,71.88-10.64c0,0-72.84,15.51-100.23,32.25C329.91,252.93,343.23,237.91,358.26,231.32Z"/><path class="cls-62" d="M398.33,214.13s.63-2.06-3.15-2.4,16-2.32,14.1,0S396.49,216.28,398.33,214.13Z"/><path class="cls-62" d="M430.8,218.69c-1.22-.16-10.2-1.33-16.34-1.81a.63.63,0,0,1,0-1.25c5.17-.79,14.38-1.49,27.83.12a.63.63,0,0,1,0,1.26c-4,.28-8.84.78-11.15,1.65A.49.49,0,0,1,430.8,218.69Z"/><path class="cls-63" d="M287.83,470.94s46.34-18.07,94.9-30.62c0,0,191.28-6.24,250.41,0,0,0,2.22,3.54,0,10.37,0,0-93.15-4.77-246.25,4.36,0,0-36.17,6-99.06,26.9,0,0-3.81-4.66-3-9.87Z"/><path class="cls-8" d="M382.85,426.78l9.6,35.6s-37.46,2.89-98,24.63c0,0-16.82-5.14-7-25.06Z"/><line class="cls-64" x1="628.99" y1="445.48" x2="545.75" y2="443.9"/><line class="cls-64" x1="536.75" y1="443.9" x2="519.17" y2="443.9"/></g></g></g></svg>