<svg xmlns="http://www.w3.org/2000/svg" viewBox="0 0 74.84 82.36"><defs><style>.cls-1{fill:#482fc1;}.cls-1,.cls-3{fill-rule:evenodd;}.cls-2{fill:#704de8;}.cls-3{fill:#7b65ea;}.cls-4{fill:#fff;}</style></defs><g id="Layer_2" data-name="Layer 2"><g id="_7_icon" data-name="#7 icon"><path class="cls-1" d="M0,46.2c.14,20,16.83,36.16,37.41,36.16S74.7,66.19,74.83,46.2V37.42H0Z"/><circle class="cls-2" cx="37.42" cy="37.42" r="37.42"/><path class="cls-3" d="M37.42,74.2A37.41,37.41,0,0,1,0,37.1c0,.11,0,.21,0,.32a37.42,37.42,0,0,0,74.84,0V37.1A37.43,37.43,0,0,1,37.42,74.2Z"/><path class="cls-4" d="M27.5,20.06q.33-.14,9.27-.14t9.27.42a1.21,1.21,0,0,1,.42.84q0,.42.33.42a1.62,1.62,0,0,1,.93.47l.61.56V37.24l-.65.66a2.93,2.93,0,0,1-1.13.84c-.37.15-.4.23-.09.23s.64.25,1.08.75l.79.8v14.6l-.61.52a1.8,1.8,0,0,1-1.12.51,2.64,2.64,0,0,1-1-.32,8.73,8.73,0,0,1-1.78-1.55c-.81-.84-1.22-1.37-1.22-1.59v-.37c0-.22,0-.52,0-.89s0-.79,0-1.25V41.45l1.12-1.17A7,7,0,0,1,45.2,39c.28-.12.32-.18.14-.18s-.82-.43-1.6-1.27L42.53,36.3V31l0-5.33-6,0H30.12c-.31,0-.95-.48-1.92-1.45a5.15,5.15,0,0,1-1.54-2.06,1.13,1.13,0,0,1-.05-.42C26.61,20.85,26.91,20.28,27.5,20.06Z"/></g></g></svg>