<svg xmlns="http://www.w3.org/2000/svg" viewBox="0 0 74.84 82.36"><defs><style>.cls-1{fill:#af9010;}.cls-1,.cls-3{fill-rule:evenodd;}.cls-2{fill:#fccf12;}.cls-3{fill:#ffe36c;}.cls-4{fill:#3737b7;}</style></defs><g id="Layer_2" data-name="Layer 2"><g id="_4_icon" data-name="#4 icon"><path class="cls-1" d="M0,46.2c.14,20,16.83,36.16,37.41,36.16S74.7,66.19,74.83,46.2V37.42H0Z"/><circle class="cls-2" cx="37.42" cy="37.42" r="37.42"/><path class="cls-3" d="M37.42,74.2A37.41,37.41,0,0,1,0,37.1c0,.11,0,.21,0,.32a37.42,37.42,0,0,0,74.84,0V37.1A37.43,37.43,0,0,1,37.42,74.2Z"/><path class="cls-4" d="M26.59,21.84a2.37,2.37,0,0,1,.84-.24c.47,0,1.26.55,2.39,1.64l1.68,1.59V36H43.39V24.83l1.73-1.59c1.13-1.09,1.92-1.64,2.39-1.64a1.81,1.81,0,0,1,1.17.66l.7.65v7q0,4.81-.07,6a3.77,3.77,0,0,1-.39,1.69,2.39,2.39,0,0,1-1.22,1.07c-.25.16-.38.27-.38.33.25,0,.66.31,1.22.94l.84.89v14l-.7.66a1.84,1.84,0,0,1-1.26.65c-.69,0-1.64-.65-2.86-2l-1.17-1.27V42h-13l-1-.94a3.37,3.37,0,0,1-1.17-1.54,1.44,1.44,0,0,0-.94-.85A2.13,2.13,0,0,1,26,37.57a3.7,3.7,0,0,1-.39-1.66c-.05-.77-.07-2.73-.07-5.88q0-5.34.16-6.6A1.86,1.86,0,0,1,26.59,21.84Z"/></g></g></svg>