<svg xmlns="http://www.w3.org/2000/svg" viewBox="0 0 74.84 82.36"><defs><style>.cls-1{fill:#482fc1;}.cls-1,.cls-3{fill-rule:evenodd;}.cls-2{fill:#704de8;}.cls-3{fill:#7b65ea;}.cls-4{fill:#fff;}</style></defs><g id="Layer_2" data-name="Layer 2"><g id="_5_icon" data-name="#5 icon"><path class="cls-1" d="M0,46.2c.14,20,16.83,36.16,37.41,36.16S74.7,66.19,74.83,46.2V37.42H0Z"/><circle class="cls-2" cx="37.42" cy="37.42" r="37.42"/><path class="cls-3" d="M37.42,74.2A37.41,37.41,0,0,1,0,37.1c0,.11,0,.21,0,.32a37.42,37.42,0,0,0,74.84,0V37.1A37.43,37.43,0,0,1,37.42,74.2Z"/><path class="cls-4" d="M28.34,20q.38-.09,9.65-.09c4,0,6.75,0,8.19,0a1.07,1.07,0,0,1,.82.56,2,2,0,0,1,.4,1.17,1.77,1.77,0,0,1-.29,1,10.07,10.07,0,0,1-1.31,1.47l-1.54,1.64c-1.41,0-3.52,0-6.35-.05s-4.93,0-6.34,0V36H44.68l1,1c.69.68,1,1.18,1,1.49a.41.41,0,0,0,.47.47c.31,0,.73.27,1.27.8l.79.79v7.17q0,5.81-.16,6.92A1.46,1.46,0,0,1,48,56c-.38.1-.56.27-.56.52s-.21.54-.61.89l-.52.56h-8.8q-6.51,0-7.72-.07a3.47,3.47,0,0,1-1.69-.4,1.67,1.67,0,0,1-.61-1.4A2.06,2.06,0,0,1,27.71,55,9.63,9.63,0,0,1,29,53.58L30.59,52H43.28V42H37c-4.09,0-6.36-.1-6.79-.28a5.41,5.41,0,0,1-1.15-1,4.65,4.65,0,0,1-.91-1.27,1.31,1.31,0,0,0-.56-.56A2.86,2.86,0,0,1,26.37,38l-.74-.7V29.94c0-3.94,0-6.25.14-6.93a1.44,1.44,0,0,1,1.07-1.31h.05c.22-.06.47-.35.75-.85S28.15,20.07,28.34,20Z"/></g></g></svg>