<svg xmlns="http://www.w3.org/2000/svg" viewBox="0 0 74.84 82.36"><defs><style>.cls-1{fill:#482fc1;}.cls-1,.cls-3{fill-rule:evenodd;}.cls-2{fill:#704de8;}.cls-3{fill:#7b65ea;}.cls-4{fill:#fff;}</style></defs><g id="Layer_2" data-name="Layer 2"><g id="_1_icon" data-name="#1 icon"><path class="cls-1" d="M0,46.2c.14,20,16.83,36.16,37.41,36.16S74.7,66.19,74.83,46.2V37.42H0Z"/><circle class="cls-2" cx="37.42" cy="37.42" r="37.42"/><path class="cls-3" d="M37.42,74.2A37.41,37.41,0,0,1,0,37.1c0,.11,0,.21,0,.32a37.42,37.42,0,0,0,74.84,0V37.1A37.43,37.43,0,0,1,37.42,74.2Z"/><path class="cls-4" d="M36.21,23.48l.28-.29c.59-.59,1-1,1.19-1.12a1,1,0,0,1,.63-.23,1.47,1.47,0,0,1,.42,0,1.73,1.73,0,0,1,1.31.71q.38.8.38,7v.89q0,5.14-.07,6.39A3.33,3.33,0,0,1,40,38.5a1.31,1.31,0,0,0-.33.59,1.1,1.1,0,0,0,.33.54,2.59,2.59,0,0,1,.37,1.52c0,.76.05,3,.05,6.58v7.53l-.56.57a1.71,1.71,0,0,1-1.13.6c-.56,0-1.42-.57-2.57-1.73l-1.69-1.64V41c.66-.68,1.3-1.37,1.92-2.06-.4-.43-1-1.09-1.92-2V25.16Z"/></g></g></svg>