<svg xmlns="http://www.w3.org/2000/svg" viewBox="0 0 74.84 82.36"><defs><style>.cls-1{fill:#af9010;}.cls-1,.cls-3{fill-rule:evenodd;}.cls-2{fill:#fccf12;}.cls-3{fill:#ffe36c;}.cls-4{fill:#3737b7;}</style></defs><g id="Layer_2" data-name="Layer 2"><g id="_6_icon" data-name="#6 icon"><path class="cls-1" d="M0,46.2c.14,20,16.83,36.16,37.41,36.16S74.7,66.19,74.83,46.2V37.42H0Z"/><circle class="cls-2" cx="37.42" cy="37.42" r="37.42"/><path class="cls-3" d="M37.42,74.2A37.41,37.41,0,0,1,0,37.1c0,.11,0,.21,0,.32a37.42,37.42,0,0,0,74.84,0V37.1A37.43,37.43,0,0,1,37.42,74.2Z"/><path class="cls-4" d="M28.34,20q.38-.09,9.51-.09,6,0,8.09,0a1.05,1.05,0,0,1,.82.57,2,2,0,0,1,.4,1.17,1.76,1.76,0,0,1-.28,1,10.74,10.74,0,0,1-1.31,1.47L44,25.77q-2.06,0-6.22-.05t-6.23,0V36H44.4l1,.94c.68.62,1,1.12,1,1.5s.15.51.47.51a2.13,2.13,0,0,1,1.17.66,2.28,2.28,0,0,1,.65.86A7.76,7.76,0,0,1,49,42.11c.12,1.37.18,3.81.18,7.3A49.77,49.77,0,0,1,49,54.87,1.27,1.27,0,0,1,48,56c-.38.1-.56.27-.56.52s-.21.54-.61.89l-.52.56h-8.8c-4.31,0-6.87,0-7.7-.07a3.53,3.53,0,0,1-1.71-.4,1.16,1.16,0,0,1-.61-.94q0-.42-.33-.42a1.65,1.65,0,0,1-.89-.46l-.6-.47V40.61l.7-.84c.47-.53.84-.8,1.12-.8s.28,0,0-.14A3.23,3.23,0,0,1,26.38,38l-.75-.7V29.94c0-3.94,0-6.24.14-6.93a1.44,1.44,0,0,1,1.07-1.31h.05c.22-.07.47-.35.75-.85S28.15,20.07,28.34,20ZM43.28,52V42H31.57V52Z"/></g></g></svg>