<svg xmlns="http://www.w3.org/2000/svg" viewBox="0 0 74.84 82.36"><defs><style>.cls-1{fill:#af9010;}.cls-1,.cls-3{fill-rule:evenodd;}.cls-2{fill:#fccf12;}.cls-3{fill:#ffe36c;}.cls-4{fill:#3737b7;}</style></defs><g id="Layer_2" data-name="Layer 2"><g id="_2_icon" data-name="#2 icon"><path class="cls-1" d="M0,46.2c.14,20,16.83,36.16,37.41,36.16S74.7,66.19,74.83,46.2V37.42H0Z"/><circle class="cls-2" cx="37.42" cy="37.42" r="37.42"/><path class="cls-3" d="M37.42,74.2A37.41,37.41,0,0,1,0,37.1c0,.11,0,.21,0,.32a37.42,37.42,0,0,0,74.84,0V37.1A37.43,37.43,0,0,1,37.42,74.2Z"/><path class="cls-4" d="M28.44,20.34a91.41,91.41,0,0,1,9.26-.19l8.81.05.51.61q.79.89,1.59,1.68l.75.66v6.93c0,3.24,0,5.26-.07,6a3.67,3.67,0,0,1-.4,1.68,2.36,2.36,0,0,1-1.26,1.08c-.53.22-.83.5-.89.84a4.33,4.33,0,0,1-1.08,1.45l-.93.89-6.6.1-6.65,0V52.27H44.21l1.5,1.54c1.15,1.16,1.73,2,1.73,2.62a1.38,1.38,0,0,1-.19.71,1.35,1.35,0,0,1-.89.79q-.93.28-8.94.28-6.22,0-7.58-.07a3.1,3.1,0,0,1-1.73-.4,2.48,2.48,0,0,1-.59-.81,1.52,1.52,0,0,0-.82-.78,1.52,1.52,0,0,1-.93-.84,51.54,51.54,0,0,1-.24-7.4V41l.84-.89c.57-.62,1-.93,1.22-.93s.44-.18.56-.52a4.38,4.38,0,0,1,1-1.5l.89-.93h13.3V25.91H37.1a50.41,50.41,0,0,1-6.75-.19,8,8,0,0,1-1.66-1.61,5.91,5.91,0,0,1-1.24-1.8.6.6,0,0,0,0-.12.35.35,0,0,1,0-.12A1.79,1.79,0,0,1,28.44,20.34Z"/></g></g></svg>