<svg xmlns="http://www.w3.org/2000/svg" viewBox="0 0 74.84 82.36"><defs><style>.cls-1{fill:#482fc1;}.cls-1,.cls-3{fill-rule:evenodd;}.cls-2{fill:#704de8;}.cls-3{fill:#7b65ea;}.cls-4{fill:#fff;}</style></defs><g id="Layer_2" data-name="Layer 2"><g id="_3_icon" data-name="#3 icon"><path class="cls-1" d="M0,46.2c.14,20,16.83,36.16,37.41,36.16S74.7,66.19,74.83,46.2V37.42H0Z"/><circle class="cls-2" cx="37.42" cy="37.42" r="37.42"/><path class="cls-3" d="M37.42,74.2A37.41,37.41,0,0,1,0,37.1c0,.11,0,.21,0,.32a37.42,37.42,0,0,0,74.84,0V37.1A37.43,37.43,0,0,1,37.42,74.2Z"/><path class="cls-4" d="M27.5,20.25q.38-.11,8-.1c4.21,0,7.54,0,10,.05.35,0,.61.23.8.7a1.13,1.13,0,0,0,.79.84,2.18,2.18,0,0,1,.68.31,2,2,0,0,1,.35,1.07,17.32,17.32,0,0,1,.17,2.32c0,.94,0,2.45,0,4.54v7.17l-.75.79c-.47.53-.82.8-1.07.8s-.14.15.32.47A3,3,0,0,1,48,40.33a44.72,44.72,0,0,1,.33,7.49,64.33,64.33,0,0,1-.19,6.81A1.49,1.49,0,0,1,47.07,56c-.31,0-.53.27-.66.71a1.62,1.62,0,0,1-.75,1c-.4.25-3.48.4-9.22.47-1.72,0-3.6,0-5.66,0a22.94,22.94,0,0,1-2.67-.09,1.74,1.74,0,0,1-.89-.38,1.6,1.6,0,0,1-.66-1.4,2.06,2.06,0,0,1,.26-1.08,10.16,10.16,0,0,1,1.29-1.45l1.59-1.54H42.34V42.2H29.51l-1.17-1.12a5.79,5.79,0,0,1-1-1.08,1.73,1.73,0,0,1-.19-.89,2.84,2.84,0,0,1,1-1.87l1-1H42.34V25.91H36L29.7,26l-1.59-1.55c-1-1-1.55-1.81-1.55-2.34C26.56,21.07,26.87,20.46,27.5,20.25Z"/></g></g></svg>