<svg xmlns="http://www.w3.org/2000/svg" viewBox="0 0 1402.49 122.11"><defs><style>.cls-1{fill:#fff;}</style></defs><g id="Ebene_2" data-name="Ebene 2"><g id="Layer_1" data-name="Layer 1"><path class="cls-1" d="M1399.26,58.15c-.6,2.2-.1,4-.2,6.2-.1,3.7-2.1,7.2-2.1,10.8,0,2.9,1.5,5.6,2.9,8.4,2.7,5.4,2.8,10.7,1.9,16.3-1.17,7.64-2.63,14.78-1.53,22.26H4.49A35.91,35.91,0,0,1,5.66,117c1-3.3-1.2-7.7-1.8-11,7,0,14.4-.4,21.3.2,2.8.2,6.2.5,9,.9,1.8.3,2.6.9,4.6.8,2.2-.1,2.9-.9,5.3-.8s2.5.7,5,.6c5.8-.1,12.1-2,16.9,1-3.5-2.6-15.8-3.8-21.8-4.7-9.4-1.4-18.7-3.4-28.5-4.2-3.5-.3-6.9-.1-10.3-.4-4.7-.5-4.9-1-5.2-3.7-.4-4.2.1-8.4.1-12.7V70.25c-.1-9.9,3.2-19.7,3.6-29.6.2-5.1.4-10-1.4-14.9a6,6,0,0,1,.4-5.8c2.3-4.09,4.69-7.49,4.5-11.78,0,2.67,23.11.18,27.4,0,5.1-.2,9.6-.7,14.6-1.2,12.2-1.4,26.5-.7,38.8-.7,7.9,0,14.8,1,22.7,1,11.6,0,23,.2,34.5-.7,10.9-.8,22.6-.2,33.7-.2h24.1c3.1,0,4.6-.5,7.3-.7,10.5-1,21.7.1,32.2-.2,7.4-.2,14.3-1,21.9-1,8.7,0,17.3.1,25.9.7,5.9.4,11,1.5,16.9,2.1,9.5,1,18.7.9,28.5.9h44.5c11.8,0,23.2-.1,35-.7,12.2-.6,24.8-1.1,37.1-1.1,18.9.1,37.7,2.2,56.4,1.9,7.9-.1,15.6-.9,23.6-.9,5.1,0,10.2-.5,13.5,2-2.8,4-16.7,4.3-23,6.4a118.45,118.45,0,0,0-13,4.7c-3.7,1.7-15.8,6.2-14.9,9.1,4.5-.6,9-2.7,12.9-3.9,4.6-1.5,9.5-2.7,14.4-4,14.2-3.6,29.2-6.3,43.3-10,4.5-1.2,8.7-2.7,13.2-3.7a98.74,98.74,0,0,1,20.3-1.6c11.4.2,22.5,1,34,1h27.2c7.5,0,14.9-.1,22.3,0,12.3.1,24.5-.2,36.8-1.1,8.7-.7,20.6.8,28.2-1.7a210.23,210.23,0,0,1,23.8.7c12.6,1.3,27,.2,39.8.2,9.1,0,18.2-.1,27.2.2,9.9.3,19.6,1.4,29.5,1.7,4.4.1,8.1.8,10.6,2.8s2.1,4.3,2.2,6.4a84,84,0,0,1,0,9,2.69,2.69,0,0,0-.13,1.92c.05-.64.1-1.28.13-1.92.82-2.1,3.37-4.43,3.67-6.48.6-4.3-1.3-8.6-2.3-12.8,9.7-.9,19-.8,28.5-2.2,6.5-1,13.2-.3,19.7,0,25,1.2,50.7.4,75.7.5,28.8.2,57.5-3.7,86.3-3.7,15.3,0,30.8.6,46-.4,20.6-1.3,40.9.6,61.6,1.2,11.3.3,22.2,1.6,33.4,2,10.6.3,21.5,0,32.1,0,24.5,0,48.4.8,72.7,2.8,13.3,1.1,24.5,2.1,37.9,1.7,8.3-.2,16.3-.9,24.6-.8,0,3.1-.3,6.3.4,9.4,1.8,7.5,1.4,14.9,1.4,22.4C1402.46,45.75,1401.06,51.65,1399.26,58.15Z"/></g></g></svg>