<svg xmlns="http://www.w3.org/2000/svg" viewBox="0 0 1411.51 331.65"><defs><style>.cls-1{fill:#fff;}</style></defs><g id="Ebene_2" data-name="Ebene 2"><g id="Layer_1" data-name="Layer 1"><path class="cls-1" d="M1411.51,278.68c-6.9-.5-14.1,1.8-21.2,1.9-6.3.1-8.4-.1-13.9,1.7-5.3,1.7-7.2,4.6-12,6.3-2.4.9-4.8.5-7.2,1.2-2,.6-3.4,1.8-5.4,2.4-6,1.7-12.8.9-19.8,1-9.2.1-16.3,2-24.8,3.8-18,3.7-37.6,1.1-55.4-2-6.1-1.1-13.5-1.5-18.9-3.1s-7-3.4-14.1-4c-3.5-.3-8.2.4-11.4-.3-2.6-.6-2.1-1.6-4.7-2.5-8.7-2.9-15,1.1-23.5,2.7-18,3.5-43.9,3.3-61.4-.8-10.7-2.5-19-6.9-32.1-4.6-5.8,9.6-3.3,20.7-6.8,30.7-7.9,1.1-16.5-.1-24.6.2-4.6.2-8.3,1-12.8,1.5-10,1-20.5.1-30.7.6-14,.7-28.6,3.3-42.8,1.4-7.7-1.1-12.7-4-20.3-5-5.5-.7-10.1-.2-15.5.1-21.4,1.2-35.1-11.9-52.6-16.8-6.1-1.7-10.8-3.5-17.6-2.6-5,.7-8.4,4-13.8,4.6s-11.6-1-17-.3c-6.4.8-6.3,2.2-12.3,3.9-8.4,2.4-22.5,3.1-30.7.8-4-1.1-6.8-4.3-10.2-5.3s-5.3-.9-9.5-1c-10.6-.2-16.7,1.2-26.3,2-6.9.6-9.4-.9-15.4-1.5-9.1-1-19.3.6-27.6-2.2-10.6-3.6-5.9-4.7-19.4-1.3-9.3,2.4-11,4.6-17.3,8.9-7.6,5.1-15,6.7-27.3,6.9-16.1.3-24.5,4.7-37.9,8.2-8.6,2.2-23.9,1.2-33.6.5-15.6-1.1-24.5-1.6-39.3,0-4.1.4-18.6,1.7-22.8.1-2.8-1-3.6-4-6.2-5.3-6.4-3.2-17.8-3.6-25.6-6.3-9.9-3.4-18.6-4.6-30.6-4.6-7.5-.1-15.3.6-22.7-.2-8.7-1-15.2-4.3-23.7-5.3-6.7-4.4-10.9-8.7-22.2-9.2-18-.8-30.6-2.1-45-7.2-3.8-1.4-10.6-4.5-15.1-5.3-5.1-.9-8.5-.4-13-1.6-4-1.1-6-3-9.5-4.3-6.4-2.3-13.6-2-21.3-1.8s-15,.2-19.6,4.1c-2.7,2.2-1.5,5.2-3.8,7.6-2.8,2.9-8.9,5.1-11.8,8.5-2.5,2.9-4.7,5.9-3,9.1,2.1,4.1,12.3,7.1,15.5,11.1,1.5,1.8.2,5.4,2.3,6.8s7.9,1.1,9.6,2.5c2.4,1.9-1.1,5.9-2.9,7.7-9.8,10.2-42,8.4-60.7,8.4-5.5,0-11,.3-16.6.1s-9.3-1.5-14.6-2c-5.7-.5-14.1.1-19.7.1-3.7,0-7.5,0-11.3-.1a63.31,63.31,0,0,0-9.7,1.6c-5.5-.3-4.7-1.7-10-3.5s-9.3-1.5-15-1.7c-12.9-.5-25.5-2.2-38.5-1.9-10.7.3-20.8,3.1-31.8,2a90.62,90.62,0,0,1-10.4-1.9c-4.2-1-9.3-3.7-14-3.7,0-6.2-1.6-14,0-20,.5-2,.2-3.9.9-6,1.2-3.6,3.8-7.3,4.5-10.9,1.8-10.2,1.8-20.3,1.7-30.6a35.79,35.79,0,0,1,4.3-18.7,11.45,11.45,0,0,0,.8-7.3c-.8-5.1-4.1-10.4-2.1-15.3,1.4-3.5.8-7.6.1-11.1-1-5.3-3-10.5-4.5-15.8a11,11,0,0,1,0-6.7c.8-1.9.9-3.8,1.7-5.6.5-1.2,2.3-2.2,2.9-3.3.8-1.7.3-3.8.2-5.5-.3-4.3,4.7-6.4,6.8-10.2,1.3-2.2.8-2.6,5.6-3-2.6-2-13.3-3-17.6-3.6-.7-2.1.8-4.1,1.4-6.1.7-2.3.1-4.5.8-6.8a102.32,102.32,0,0,0,3-15.6c.5-4.4-1.6-8.4-1.7-12.8-.2-5.3,1.9-10.5,1.9-15.8,0-5.1-.2-11.1-2.2-16.2-1.1-3-2.8-5.3-3.3-8.4-.2-1.2-.9-1.6-1.3-2.6C4.44,62.21,4,39.9,3.38,0H1399.12c.56,38.61,7.53,60.15,7.49,60.48-.3,2.4-2.8,4.5-3.6,6.8-2.6,7.5,2.9,16,3.4,23.6.2,2.9-.8,5.8-1.3,8.7-.5,3.3-.9,6.5-1.4,9.8a152.76,152.76,0,0,1-4.3,22.4c.4,3,1.1,5.8.2,8.8s.2,5.6.9,8.6c.8,3.4.7,6.7,1.7,10,1.2,4.1,2.4,7.8,2.3,11.9-.1,9.3-3.4,18.3-5.1,27.5-1.1,6.1,1.5,11.9,3.3,17.9a77.39,77.39,0,0,1,3.4,18.5c.4,6.7-.8,13.5.4,20.2C1407.91,262.38,1410.21,271.38,1411.51,278.68Z"/></g></g></svg>