<svg xmlns="http://www.w3.org/2000/svg" viewBox="0 0 679.28 122.19"><defs><style>.cls-1{isolation:isolate;}.cls-2{fill:#2a0fb2;}.cls-3{fill:#704de8;}.cls-4{fill:#fff;}.cls-5{mix-blend-mode:multiply;}.cls-6{fill:#ffeed4;}</style></defs><g class="cls-1"><g id="Layer_2" data-name="Layer 2"><g id="The_War_Roadmap_Title" data-name="The War Roadmap Title"><path class="cls-2" d="M15.54,98.89l7.82.11,4.67.07,627.41,7.86c0-.7,0-1.39,0-2.09a3,3,0,0,1,1.22,0c.45,0,.5.23.8-.57.47-1.25.86-3.92,1.69-3.85.16,0,.43.16.59-.05a3.34,3.34,0,0,0,.27-1.52,7.74,7.74,0,0,1-.06-1.28c0-.3.16-.54.2-.85.56.13,1.19.42,1.75,0a4.91,4.91,0,0,0,0-1.62,3.26,3.26,0,0,1-.28-.65,2.59,2.59,0,0,1,0-.41,2.41,2.41,0,0,0-.35-1c-.29-.33-.65,0-1-.09a5.52,5.52,0,0,0-.23-2.36,4.44,4.44,0,0,0-.77-.69c-.33-.3-.38-.29-.53-1a14,14,0,0,1-.49-2.78c0-1.43.7-2.44.7-3.93a8.09,8.09,0,0,0-.12-.86,15.25,15.25,0,0,1-.09-1.92c0-.63,0-1.41,0-2a.51.51,0,0,1,.46-.12,2.23,2.23,0,0,0,.54-.38c.15,0,.26,0,.41-.1.35-.27.29-.58.37-1.17a25.8,25.8,0,0,1,.56-2.65,2.82,2.82,0,0,1,.36-1c.2-.23.51-.21.72-.43a3.8,3.8,0,0,0,.86-2.33c-.15,0-.35.12-.49,0s-.17-.71-.21-1.17a2.87,2.87,0,0,1-.09-1c.09-.49.58-.57.49-1.29a1.5,1.5,0,0,1-.2-.44q-.06-.33-.09-.66a6.51,6.51,0,0,0-.2-1c-.44-1.17-1.48-.64-1.4-2.78a5.67,5.67,0,0,1,.41-1.68,5.31,5.31,0,0,0,.4-2.61,13.92,13.92,0,0,1-.13-1.86,11.33,11.33,0,0,1,.26-2.3c.13-.66.17-1,.46-1.22a1.38,1.38,0,0,0,.67-.86,5.94,5.94,0,0,0,.13-1.31c0-.35.19-.43,0-.8a4.4,4.4,0,0,0,.75-.92l0-4.85c-.09-.48-.17-1-.21-1.29s-.12-.74-.19-1.11,0-.79-.11-1.19c0-.19-.16-.26-.21-.46-.1-.39-.1-1.66-.38-1.63a.91.91,0,0,0-.1.47,6.93,6.93,0,0,0-.12-2.36c-.14-.39-.4-.5-.55-.83a7.47,7.47,0,0,1-.19-2.55,7.87,7.87,0,0,0-.29-2.27,7,7,0,0,1-.28-.88c-.06-.27-.05-.63-.11-.92a8.92,8.92,0,0,0-.59-1.45,12.49,12.49,0,0,1-.18-2.61,16.11,16.11,0,0,1-.1-1.82L28.83,13.59l-4.67-.07-3.82,0c0,.51.09,1.29.11,1.81a12.64,12.64,0,0,0,.18,2.62,9.18,9.18,0,0,1,.59,1.44c.06.29.05.65.11.93a7.38,7.38,0,0,0,.28.87,7.91,7.91,0,0,1,.29,2.27A7.23,7.23,0,0,0,22.09,26c.15.33.41.45.55.83a7.19,7.19,0,0,1,.12,2.36.94.94,0,0,1,.1-.47c.28,0,.28,1.24.38,1.64.05.19.17.27.21.45.07.4,0,.79.1,1.19s.13.7.2,1.11.12.82.21,1.3l0,4.84a4.86,4.86,0,0,1-.75.93c.21.37,0,.45,0,.79a5.94,5.94,0,0,1-.13,1.31,1.44,1.44,0,0,1-.67.86c-.29.24-.33.56-.47,1.23a12.84,12.84,0,0,0-.26,2.3,15.77,15.77,0,0,0,.14,1.85,5.27,5.27,0,0,1-.4,2.61A5.45,5.45,0,0,0,21,52.77c-.09,2.14,1,1.62,1.4,2.78a6.81,6.81,0,0,1,.19,1l.09.66a1.64,1.64,0,0,0,.21.44c.09.72-.4.8-.49,1.3a2.89,2.89,0,0,0,.09,1c0,.45,0,.9.21,1.16s.34,0,.49,0a3.77,3.77,0,0,1-.86,2.32c-.21.23-.53.2-.72.44a2.83,2.83,0,0,0-.36,1c-.2.82-.44,1.76-.57,2.66-.07.58,0,.9-.36,1.16-.15.12-.26,0-.41.11a2.31,2.31,0,0,1-.55.37.52.52,0,0,0-.46.13c0,.63,0,1.41,0,2A12,12,0,0,0,19,73.31a8,8,0,0,1,.11.87c0,1.48-.68,2.49-.69,3.93a13.32,13.32,0,0,0,.49,2.78c.15.73.2.71.53,1a4.14,4.14,0,0,1,.77.7A5.49,5.49,0,0,1,20.4,85c.31.12.66-.24,1,.1a2.3,2.3,0,0,1,.34,1,2.7,2.7,0,0,0,.05.41,2.93,2.93,0,0,0,.28.64,5,5,0,0,1,0,1.63c-.56.43-1.19.14-1.76,0,0,.31-.16.54-.19.85a6.78,6.78,0,0,0,.06,1.28,3.53,3.53,0,0,1-.27,1.52c-.16.21-.43.06-.6,0-.82-.06-1.21,2.61-1.68,3.85-.3.81-.35.61-.8.57a3.13,3.13,0,0,0-1.22,0C15.54,97.5,15.55,98.19,15.54,98.89Z"/><path class="cls-3" d="M15.63,98.25l7.82.11,4.67.07,627.41,7.85V104.2a3,3,0,0,1,1.22,0c.45,0,.5.23.8-.58.47-1.24.87-3.91,1.69-3.84.16,0,.43.16.6-.05a3.54,3.54,0,0,0,.26-1.52,7.74,7.74,0,0,1-.06-1.28c0-.3.16-.54.2-.85.57.13,1.19.42,1.76,0a4.7,4.7,0,0,0,0-1.63,2.52,2.52,0,0,1-.27-.64,1.84,1.84,0,0,1,0-.41,2.35,2.35,0,0,0-.34-1c-.3-.33-.66,0-1-.1a5.34,5.34,0,0,0-.23-2.35,3.51,3.51,0,0,0-.77-.69c-.33-.31-.37-.29-.53-1a14.77,14.77,0,0,1-.49-2.78c0-1.43.7-2.44.7-3.93,0-.3-.06-.59-.11-.87a13.35,13.35,0,0,1-.1-1.91c0-.63,0-1.41,0-2a.54.54,0,0,1,.46-.13,2.17,2.17,0,0,0,.54-.37c.15-.06.26,0,.42-.11.34-.26.28-.58.36-1.16a23.38,23.38,0,0,1,.57-2.65,2.83,2.83,0,0,1,.35-1c.2-.23.51-.21.72-.43a3.74,3.74,0,0,0,.86-2.33c-.15,0-.35.11-.49,0s-.17-.7-.21-1.16a2.89,2.89,0,0,1-.09-1c.09-.5.58-.58.49-1.29a1.63,1.63,0,0,1-.2-.44c0-.22-.07-.44-.09-.67a5.54,5.54,0,0,0-.2-1c-.44-1.17-1.48-.64-1.4-2.79a5.75,5.75,0,0,1,.41-1.68,5.14,5.14,0,0,0,.4-2.6,16,16,0,0,1-.13-1.86,13,13,0,0,1,.26-2.3c.13-.66.17-1,.47-1.23a1.37,1.37,0,0,0,.66-.85,6,6,0,0,0,.13-1.32c0-.34.19-.42,0-.79a4.89,4.89,0,0,0,.74-.93l.05-4.84c-.1-.48-.17-1-.22-1.29s-.11-.75-.19-1.11,0-.79-.11-1.19c0-.19-.16-.27-.2-.46-.11-.4-.11-1.66-.38-1.63a.73.73,0,0,0-.1.47,6.89,6.89,0,0,0-.13-2.36c-.14-.39-.39-.51-.55-.83a7.53,7.53,0,0,1-.19-2.56,7.8,7.8,0,0,0-.29-2.26,8.21,8.21,0,0,1-.28-.88c0-.27,0-.63-.11-.93a8.31,8.31,0,0,0-.59-1.44,12.58,12.58,0,0,1-.17-2.61,16.15,16.15,0,0,1-.11-1.82L28.92,13l-4.67-.07-3.81-.05a16.06,16.06,0,0,0,.1,1.81,12.49,12.49,0,0,0,.18,2.61,9.31,9.31,0,0,1,.59,1.45c.06.29.05.65.11.93a7.38,7.38,0,0,0,.28.87A7.87,7.87,0,0,1,22,22.77a7.23,7.23,0,0,0,.19,2.55c.15.33.41.45.55.83a6.93,6.93,0,0,1,.12,2.36A.91.91,0,0,1,23,28c.28,0,.28,1.24.38,1.64.05.19.17.26.21.45.07.4,0,.78.11,1.19s.13.7.19,1.11.12.82.21,1.3l0,4.84a4.74,4.74,0,0,1-.75.92c.21.38,0,.46,0,.8a5.94,5.94,0,0,1-.13,1.31,1.38,1.38,0,0,1-.67.86c-.29.24-.33.56-.46,1.23a11.24,11.24,0,0,0-.26,2.3,13.89,13.89,0,0,0,.13,1.85,5.31,5.31,0,0,1-.4,2.61,5.38,5.38,0,0,0-.41,1.68c-.09,2.14,1,1.62,1.4,2.78a5.67,5.67,0,0,1,.19,1l.09.66A1.8,1.8,0,0,0,23,57c.09.72-.4.8-.49,1.29a2.92,2.92,0,0,0,.09,1c0,.45,0,.9.21,1.16s.34,0,.49,0a3.78,3.78,0,0,1-.86,2.33c-.21.22-.52.2-.72.44a2.76,2.76,0,0,0-.36,1,25.8,25.8,0,0,0-.56,2.65c-.08.59,0,.9-.37,1.17-.15.12-.26,0-.41.11a2.31,2.31,0,0,1-.55.37.49.49,0,0,0-.45.12c0,.63,0,1.42,0,2a15.16,15.16,0,0,0,.09,1.92,8,8,0,0,1,.11.87c0,1.48-.68,2.49-.69,3.92A13.42,13.42,0,0,0,19,80.25c.15.72.2.71.53,1a4.14,4.14,0,0,1,.77.7,5.48,5.48,0,0,1,.23,2.35c.31.11.67-.24,1,.09a2.4,2.4,0,0,1,.34,1c0,.14,0,.28.05.41a3.16,3.16,0,0,0,.28.64,4.91,4.91,0,0,1,0,1.62c-.56.44-1.19.14-1.75,0,0,.31-.17.55-.2.85a6.78,6.78,0,0,0,.06,1.28,3.34,3.34,0,0,1-.27,1.52c-.16.22-.43.07-.6,0-.82-.07-1.21,2.61-1.68,3.85-.3.8-.35.61-.8.57a3.13,3.13,0,0,0-1.22,0C15.63,96.86,15.64,97.55,15.63,98.25Z"/><path class="cls-4" d="M101.82,38l-15-.11-.3,40.85-10.11-.08.31-40.85-14.82-.11.06-8.18,39.94.29Z"/><path class="cls-4" d="M118.44,46.49a13.21,13.21,0,0,1,4.29-3.39,12,12,0,0,1,5.48-1.19,15.27,15.27,0,0,1,4.91.8,9.11,9.11,0,0,1,3.79,2.48,11.42,11.42,0,0,1,2.4,4.42,21.93,21.93,0,0,1,.82,6.54l-.18,23L130.22,79l.17-23a9.6,9.6,0,0,0-.36-2.94,4.68,4.68,0,0,0-1.12-1.91,4.27,4.27,0,0,0-1.82-1,9.38,9.38,0,0,0-2.48-.32,7.51,7.51,0,0,0-3.81.86,6.65,6.65,0,0,0-2.41,2.39L118.2,79l-9.73-.07.38-51.73,9.73.07Z"/><path class="cls-4" d="M166.13,80a19.66,19.66,0,0,1-7.58-1.44,16.65,16.65,0,0,1-5.67-3.81,16.25,16.25,0,0,1-3.52-5.63,19,19,0,0,1-1.18-6.9V60.89a23.23,23.23,0,0,1,1.25-7.59,17.36,17.36,0,0,1,3.45-5.92,15.37,15.37,0,0,1,5.38-3.85,18.86,18.86,0,0,1,14,0,13.93,13.93,0,0,1,5,3.67,15.46,15.46,0,0,1,3,5.66,24.63,24.63,0,0,1,1,7.35l0,4.15L158,64.19a10,10,0,0,0,.94,3.24,8.08,8.08,0,0,0,4.46,4.11,9.58,9.58,0,0,0,3.4.6,12.13,12.13,0,0,0,4.92-1,10,10,0,0,0,3.9-3.05l4.74,5.39a14,14,0,0,1-2.21,2.41A14.92,14.92,0,0,1,175.07,78a18.2,18.2,0,0,1-4,1.45A20.05,20.05,0,0,1,166.13,80Zm-.89-29.91a6.57,6.57,0,0,0-2.78.53,6.16,6.16,0,0,0-2.07,1.54A8.08,8.08,0,0,0,159,54.5a13.69,13.69,0,0,0-.8,3.06l13.54.1v-.77a9.32,9.32,0,0,0-.4-2.7A6,6,0,0,0,170.16,52a5.2,5.2,0,0,0-2-1.42A7.56,7.56,0,0,0,165.24,50.07Z"/><path class="cls-4" d="M239.75,66.62l4.95-23.17,9.4.07-9.57,36.37-8.15-.06-6.73-23-7.08,22.88-8.11-.06-9-36.51,9.4.07,4.58,23.21,6.84-23.13,7,.06Z"/><path class="cls-4" d="M281.83,80.17a10.8,10.8,0,0,1-1-3.28,12.44,12.44,0,0,1-3.74,2.77,12,12,0,0,1-5.48,1.11,14.68,14.68,0,0,1-4.89-.85,12.19,12.19,0,0,1-3.93-2.28,10.44,10.44,0,0,1-2.58-3.48,10.17,10.17,0,0,1-.91-4.4,11.56,11.56,0,0,1,1.1-5.07,9.84,9.84,0,0,1,3.21-3.75,15.25,15.25,0,0,1,5.28-2.32,29.44,29.44,0,0,1,7.34-.75l4.34,0,0-2.09a6,6,0,0,0-1.27-4.05,5.12,5.12,0,0,0-4.08-1.55,5.82,5.82,0,0,0-3.87,1.15A4,4,0,0,0,270,54.59l-9.73-.08A9.63,9.63,0,0,1,261.39,50a11.31,11.31,0,0,1,3.14-3.68,15.77,15.77,0,0,1,4.9-2.47,20.75,20.75,0,0,1,6.41-.88,20.51,20.51,0,0,1,5.85.85,13.29,13.29,0,0,1,4.63,2.44,11.07,11.07,0,0,1,3,4A13.39,13.39,0,0,1,290.39,56l-.11,15.42c0,1,0,2,.08,2.78s.14,1.56.25,2.23a12.78,12.78,0,0,0,.42,1.79,11.83,11.83,0,0,0,.63,1.5v.57Zm-8-6.83A8.44,8.44,0,0,0,278,72.28a6.77,6.77,0,0,0,1.48-1.12,5.93,5.93,0,0,0,1-1.31l.05-6.26-4,0a11.54,11.54,0,0,0-3.34.4,6.44,6.44,0,0,0-2.33,1.16,4.74,4.74,0,0,0-1.36,1.77,5.5,5.5,0,0,0-.45,2.24,3.9,3.9,0,0,0,1.25,3A5,5,0,0,0,273.83,73.34Z"/><path class="cls-4" d="M320.43,53.14c-.49-.07-1.07-.13-1.73-.2s-1.25-.09-1.77-.09a9.62,9.62,0,0,0-4.63.92,5.87,5.87,0,0,0-2.63,2.76l-.18,23.84-9.73-.07L300,43.86l9.19.07.24,4.35a10.72,10.72,0,0,1,3.43-3.66,8.37,8.37,0,0,1,4.72-1.3,9.41,9.41,0,0,1,1.63.15,10.1,10.1,0,0,1,1.4.31Z"/><path class="cls-4" d="M366.9,53.49c-.49-.07-1.07-.14-1.73-.2s-1.25-.09-1.77-.1a9.73,9.73,0,0,0-4.63.93,5.87,5.87,0,0,0-2.63,2.76L356,80.72l-9.73-.07.27-36.44,9.19.07.24,4.34A10.91,10.91,0,0,1,359.36,45a8.27,8.27,0,0,1,4.72-1.29,10.46,10.46,0,0,1,1.63.14,10.27,10.27,0,0,1,1.4.32Z"/><path class="cls-4" d="M370.86,62.27a22.94,22.94,0,0,1,1.2-7.36,16.88,16.88,0,0,1,3.38-5.86,15.34,15.34,0,0,1,5.43-3.84,18,18,0,0,1,7.34-1.36,18.37,18.37,0,0,1,7.36,1.46A15.51,15.51,0,0,1,401,49.24a16.83,16.83,0,0,1,3.31,5.91,22.84,22.84,0,0,1,1.09,7.38v.71a23.2,23.2,0,0,1-1.19,7.38,17,17,0,0,1-3.4,5.84,15.37,15.37,0,0,1-5.43,3.83,20.06,20.06,0,0,1-14.7-.11,15.39,15.39,0,0,1-5.4-3.91,16.9,16.9,0,0,1-3.3-5.89,22.84,22.84,0,0,1-1.09-7.4Zm9.73.78a20.65,20.65,0,0,0,.37,4.18,10.46,10.46,0,0,0,1.27,3.4,6.84,6.84,0,0,0,2.31,2.29,6.91,6.91,0,0,0,3.51.86,6.74,6.74,0,0,0,3.46-.81,7,7,0,0,0,2.36-2.26,10.12,10.12,0,0,0,1.34-3.37,20.45,20.45,0,0,0,.43-4.17v-.71a20.1,20.1,0,0,0-.38-4.1A10.65,10.65,0,0,0,394,55a6.89,6.89,0,0,0-2.34-2.34,6.78,6.78,0,0,0-3.5-.88,6.55,6.55,0,0,0-3.46.83,6.63,6.63,0,0,0-2.34,2.31A10.71,10.71,0,0,0,381,58.26a20.59,20.59,0,0,0-.44,4.09Z"/><path class="cls-4" d="M434.42,81.3a10.83,10.83,0,0,1-.95-3.27,13.06,13.06,0,0,1-3.74,2.77,11.91,11.91,0,0,1-5.48,1.1,14.44,14.44,0,0,1-4.9-.84,12.16,12.16,0,0,1-3.92-2.29,10.17,10.17,0,0,1-3.5-7.87,11.75,11.75,0,0,1,1.1-5.08,9.93,9.93,0,0,1,3.21-3.75,15.5,15.5,0,0,1,5.29-2.32,29.84,29.84,0,0,1,7.33-.75l4.35,0V56.94a6,6,0,0,0-1.27-4,5.09,5.09,0,0,0-4.08-1.54A5.81,5.81,0,0,0,424,52.5a4,4,0,0,0-1.42,3.22l-9.73-.07A9.62,9.62,0,0,1,414,51.18a11.12,11.12,0,0,1,3.15-3.68A15.56,15.56,0,0,1,422,45a21,21,0,0,1,6.4-.88,20.28,20.28,0,0,1,5.86.86,13.21,13.21,0,0,1,4.63,2.44,10.85,10.85,0,0,1,3,4A13.47,13.47,0,0,1,443,57.08l-.12,15.43c0,1,0,2,.08,2.78s.15,1.56.26,2.22a10.25,10.25,0,0,0,.42,1.79,10.07,10.07,0,0,0,.63,1.5v.58Zm-8-6.83a8.24,8.24,0,0,0,4.22-1.06,6.64,6.64,0,0,0,1.47-1.12,5.94,5.94,0,0,0,1-1.3l0-6.27-4,0a11.85,11.85,0,0,0-3.34.4,6.36,6.36,0,0,0-2.33,1.16A4.59,4.59,0,0,0,422.13,68a5.63,5.63,0,0,0-.46,2.23,3.88,3.88,0,0,0,1.26,3A5,5,0,0,0,426.42,74.47Z"/><path class="cls-4" d="M451,62.94a27.94,27.94,0,0,1,1-7.57,18.06,18.06,0,0,1,2.82-5.88,12.68,12.68,0,0,1,4.51-3.77,13.24,13.24,0,0,1,6.07-1.3,11.24,11.24,0,0,1,5,1.08,11.9,11.9,0,0,1,3.8,3l.14-18.59,9.76.07-.38,51.73-8.79-.07-.44-3.87a12.6,12.6,0,0,1-4,3.32A11.45,11.45,0,0,1,465,82.2a12.55,12.55,0,0,1-6-1.44,13.09,13.09,0,0,1-4.43-3.89A18.13,18.13,0,0,1,451.87,71a27,27,0,0,1-.9-7.37Zm9.73.78a21.69,21.69,0,0,0,.34,4.14,10.91,10.91,0,0,0,1.17,3.36,6.23,6.23,0,0,0,2.14,2.27,6,6,0,0,0,3.24.85,7.08,7.08,0,0,0,3.93-1A6.82,6.82,0,0,0,474,70.58l.1-14.38a6.66,6.66,0,0,0-2.42-2.83,7,7,0,0,0-3.85-1,6.15,6.15,0,0,0-3.27.8,6.33,6.33,0,0,0-2.19,2.26,11.48,11.48,0,0,0-1.24,3.39,22.18,22.18,0,0,0-.41,4.21Z"/><path class="cls-4" d="M502.68,45.37l.27,4.08A12.92,12.92,0,0,1,507.41,46a13.77,13.77,0,0,1,6.05-1.21,12.31,12.31,0,0,1,5.77,1.35,8.92,8.92,0,0,1,3.86,4.28,13,13,0,0,1,4.52-4,13.31,13.31,0,0,1,6.46-1.43,14.69,14.69,0,0,1,4.83.78,8.91,8.91,0,0,1,3.69,2.42,11,11,0,0,1,2.32,4.31,21.83,21.83,0,0,1,.78,6.49l-.17,23.2-9.77-.07.17-23.21a9.84,9.84,0,0,0-.36-3A4.45,4.45,0,0,0,534.48,54a3.84,3.84,0,0,0-1.71-.92,8.94,8.94,0,0,0-2.29-.27,6.09,6.09,0,0,0-3.78,1.1,6.9,6.9,0,0,0-2.32,3c0,.11,0,.23,0,.37s0,.26,0,.37L524.23,82l-9.73-.07.17-23.14a10.2,10.2,0,0,0-.35-3,4.32,4.32,0,0,0-1.06-1.86,3.85,3.85,0,0,0-1.73-.95,9,9,0,0,0-2.3-.29,6.86,6.86,0,0,0-3.65.88,6.59,6.59,0,0,0-2.37,2.51L503,81.81l-9.74-.07.27-36.44Z"/><path class="cls-4" d="M576.18,82.36a10.8,10.8,0,0,1-1-3.28,12.44,12.44,0,0,1-3.74,2.77A11.88,11.88,0,0,1,566,83a14.43,14.43,0,0,1-4.89-.84,12.14,12.14,0,0,1-3.93-2.29,10.4,10.4,0,0,1-2.58-3.47,10.17,10.17,0,0,1-.91-4.4,11.6,11.6,0,0,1,1.1-5.08A10,10,0,0,1,558,63.13a15,15,0,0,1,5.29-2.32,29.28,29.28,0,0,1,7.33-.76l4.34,0L575,58a6,6,0,0,0-1.27-4,5.12,5.12,0,0,0-4.08-1.55,5.82,5.82,0,0,0-3.87,1.15,4,4,0,0,0-1.42,3.22l-9.73-.07a9.63,9.63,0,0,1,1.13-4.47,11.31,11.31,0,0,1,3.14-3.68,15.55,15.55,0,0,1,4.9-2.47,20.5,20.5,0,0,1,6.41-.88,20.16,20.16,0,0,1,5.85.85,13.29,13.29,0,0,1,4.63,2.44,11,11,0,0,1,3,4,13.36,13.36,0,0,1,1,5.62l-.11,15.42c0,1,0,2,.08,2.78s.14,1.56.25,2.23a11.07,11.07,0,0,0,.43,1.78,10.62,10.62,0,0,0,.62,1.51v.57Zm-8-6.83a8.5,8.5,0,0,0,2.31-.29,8.2,8.2,0,0,0,1.91-.77,7.3,7.3,0,0,0,1.47-1.12,6.17,6.17,0,0,0,1-1.31l0-6.26-4,0a11.92,11.92,0,0,0-3.34.39,6.45,6.45,0,0,0-2.33,1.17,4.74,4.74,0,0,0-1.36,1.77,5.5,5.5,0,0,0-.45,2.24,3.9,3.9,0,0,0,1.25,3A5,5,0,0,0,568.18,75.53Z"/><path class="cls-4" d="M627,64.85a28.18,28.18,0,0,1-1,7.37,18.35,18.35,0,0,1-2.75,5.86,13,13,0,0,1-4.46,3.85,12.66,12.66,0,0,1-6.09,1.37,12,12,0,0,1-5.1-1,11.42,11.42,0,0,1-3.8-2.85l-.13,17.17L594,96.5l.38-50.45,9,.07.31,3.57a12.1,12.1,0,0,1,3.95-3.1A11.74,11.74,0,0,1,613,45.52a13.45,13.45,0,0,1,6.12,1.37,12.18,12.18,0,0,1,4.42,3.81,17.48,17.48,0,0,1,2.67,5.88,28.86,28.86,0,0,1,.87,7.56Zm-9.73-.78a21.33,21.33,0,0,0-.35-4.19,10.62,10.62,0,0,0-1.21-3.38,6.31,6.31,0,0,0-2.15-2.26,6.24,6.24,0,0,0-3.25-.83,7.73,7.73,0,0,0-3.93.87A6,6,0,0,0,604,56.87l-.11,14.92a6.52,6.52,0,0,0,2.35,2.66,7.59,7.59,0,0,0,4,1,6,6,0,0,0,3.25-.82,6.48,6.48,0,0,0,2.18-2.29,11.43,11.43,0,0,0,1.22-3.41,22.71,22.71,0,0,0,.4-4.14Z"/><g class="cls-5"><path class="cls-6" d="M56.21,111.08l-.67-.74-.4-.44L8.55,58.62c-.06.09-.13.18-.19.28s-.08-.08-.11-.12,0-.07-.12,0-.45.45-.52.36,0-.06-.05,0a1,1,0,0,0-.17.18c0,.07-.07.12-.12.18l-.1.1c0-.07-.06-.17-.15-.16a1.12,1.12,0,0,0-.16.22l0,.11,0,.06a.4.4,0,0,0-.06.16c0,.07.06.06.07.1a1.21,1.21,0,0,0-.2.34,1,1,0,0,0,0,.17.24.24,0,0,1,0,.18,2.92,2.92,0,0,1-.22.43c-.14.19-.3.26-.44.46,0,0,0,.09-.07.13s-.11.18-.17.27l-.2.27s0,0,0,0H5.31s0,0,0,0-.08.06-.14.13-.21.21-.31.3a.57.57,0,0,1-.12.11s-.07,0-.11,0A.6.6,0,0,0,4.3,63s0,0,0,.05a.54.54,0,0,1-.1.18.46.46,0,0,1-.09.15c-.05.06-.1,0-.16.13l0,.08,0,.1a1.09,1.09,0,0,0-.08.15c-.07.2.07.22-.14.5a1.14,1.14,0,0,1-.2.19,1,1,0,0,0-.28.32,1.92,1.92,0,0,1-.17.26,2.31,2.31,0,0,1-.24.29c-.07.08-.11.12-.16.12a.22.22,0,0,0-.14.06,1.12,1.12,0,0,0-.13.16s-.06,0-.08.11a.51.51,0,0,0-.15.06l-.46.65-.11.19-.09.17-.1.17s0,.05,0,.08-.15.24-.12.26a.1.1,0,0,0,.05-.06,2.56,2.56,0,0,0-.21.33c0,.07,0,.11,0,.17a1.81,1.81,0,0,1-.23.36,2,2,0,0,0-.19.33l-.06.15-.08.13a1.77,1.77,0,0,0-.08.25,2.58,2.58,0,0,1-.24.37,2.26,2.26,0,0,1-.16.26l46.93,51.66.4.44.33.36c.05-.06.11-.18.16-.25a4.23,4.23,0,0,0,.23-.37,2.5,2.5,0,0,1,.09-.25s.06-.1.08-.14l.06-.14a1.68,1.68,0,0,1,.19-.34,1.51,1.51,0,0,0,.22-.36.94.94,0,0,1,0-.16,1.08,1.08,0,0,1,.21-.33l0,.05s.09-.19.12-.25,0-.06,0-.09a1,1,0,0,0,.11-.17s0-.1.09-.16a1.85,1.85,0,0,1,.1-.2l.47-.65.15-.06c0-.07,0-.06.07-.11l.14-.16a.22.22,0,0,1,.14-.06c.05,0,.08,0,.16-.12a2.47,2.47,0,0,0,.24-.29c.07-.1.1-.16.16-.26a1.16,1.16,0,0,1,.29-.32.79.79,0,0,0,.19-.18c.21-.29.07-.31.15-.51a1,1,0,0,1,.07-.15l.06-.1a.24.24,0,0,0,0-.08c.06-.1.11-.07.17-.13a.46.46,0,0,0,.09-.15c0-.06.09-.12.09-.17s0,0,0,0a.65.65,0,0,1,.3-.24s.06,0,.1,0,.08-.06.13-.1l.3-.31c.06-.07.09-.12.14-.12s0,0,0,0h.08a.05.05,0,0,0,.05,0l.2-.28c.06-.09.12-.17.18-.27a.75.75,0,0,1,.07-.12c.14-.2.3-.28.43-.47s.16-.3.23-.42a.35.35,0,0,0,0-.19.43.43,0,0,1,0-.16,1.21,1.21,0,0,1,.2-.34s-.08,0-.08-.11a1,1,0,0,1,.07-.16l0-.06a.76.76,0,0,0,0-.11,1.07,1.07,0,0,1,.15-.22c.09,0,.12.09.16.16a.43.43,0,0,1,.1-.09,1.74,1.74,0,0,0,.11-.18c0-.06.13-.17.17-.18s0,0,.06.05.35-.24.51-.37.09,0,.13,0a.27.27,0,0,0,.1.11Z"/></g><g class="cls-5"><path class="cls-6" d="M623.43,11l.66.75.4.44,46.14,51.9.2-.28a.29.29,0,0,1,.11.11s0,.08.12,0,.45-.44.52-.36,0,.07,0,0,.13-.12.17-.18.07-.11.12-.17.07-.06.1-.1.06.17.15.16a.78.78,0,0,0,.16-.21.49.49,0,0,1,0-.11l0-.06c0-.06.05-.12.06-.16s-.06-.06-.08-.11a1.13,1.13,0,0,0,.21-.33,1,1,0,0,0,0-.17.35.35,0,0,1,0-.19,4.23,4.23,0,0,1,.23-.41c.14-.19.3-.27.44-.47a.75.75,0,0,0,.07-.12l.18-.27c.06-.08.13-.19.2-.27a.05.05,0,0,1,.05,0h.08s0,0,.05,0,.08-.05.14-.12.21-.21.31-.3a.33.33,0,0,1,.12-.1s.07,0,.11,0a.65.65,0,0,0,.3-.24s0,0,0-.05.05-.11.09-.17,0-.1.09-.15.11,0,.17-.13a.41.41,0,0,1,0-.08.41.41,0,0,1,.05-.09l.08-.15c.07-.2-.07-.23.15-.51a1,1,0,0,1,.19-.18,1.09,1.09,0,0,0,.29-.31c.06-.1.1-.17.17-.27a3.48,3.48,0,0,1,.24-.28c.08-.08.11-.12.16-.12s.07,0,.14,0a1.27,1.27,0,0,0,.14-.17s.06,0,.07-.1l.16-.06.47-.64.1-.2a.89.89,0,0,0,.09-.16c0-.07.08-.11.11-.17s0-.05,0-.08.15-.24.12-.26l0,0a1.17,1.17,0,0,0,.21-.32,1.36,1.36,0,0,0,0-.17,1.66,1.66,0,0,1,.23-.36,1.86,1.86,0,0,0,.19-.33l.06-.14.08-.13c.05-.11.05-.16.09-.25a2.49,2.49,0,0,1,.23-.37c0-.07.12-.19.17-.25L632.8.81l-.4-.45L632.08,0a2.2,2.2,0,0,0-.17.25c-.08.12-.19.27-.24.37a2,2,0,0,1-.09.25L631.5,1l-.06.15a2,2,0,0,1-.19.33,1.56,1.56,0,0,0-.23.36c0,.06,0,.1,0,.16a1.89,1.89,0,0,1-.22.33.17.17,0,0,1,.06-.06s-.1.2-.13.26a.26.26,0,0,1,0,.08l-.1.17-.09.17-.11.19-.47.64a.51.51,0,0,1-.15.06c0,.07,0,.06-.08.11s-.08.11-.13.16a.16.16,0,0,1-.14,0s-.09,0-.16.12a3.74,3.74,0,0,0-.25.29c-.07.1-.1.16-.16.26a1.1,1.1,0,0,1-.29.31,1.14,1.14,0,0,0-.2.19c-.21.28-.07.3-.15.5a1,1,0,0,1-.07.15l-.06.1a.24.24,0,0,0,0,.08c-.06.1-.11.07-.17.12a.85.85,0,0,0-.09.15.66.66,0,0,0-.1.18s0,0,0,0a.61.61,0,0,1-.3.23s-.06,0-.1,0-.08.06-.13.1l-.3.3c-.07.08-.09.12-.15.13s0,0,0,0h-.09s0,0-.05,0l-.2.27a2.33,2.33,0,0,0-.17.26l-.08.13c-.14.2-.3.27-.43.46a2.18,2.18,0,0,0-.23.42.24.24,0,0,0-.05.18,1,1,0,0,1,0,.17,1.57,1.57,0,0,1-.21.34s.08,0,.07.1a.4.4,0,0,1-.06.16l0,.06a.61.61,0,0,0,0,.11,1.77,1.77,0,0,1-.16.22c-.09,0-.12-.09-.15-.17a.94.94,0,0,0-.1.1.71.71,0,0,0-.12.18.74.74,0,0,1-.17.18s0,0-.06,0-.35.23-.51.35-.09.05-.13,0-.06-.1-.1-.12Z"/></g><g class="cls-5"><path class="cls-6" d="M623.43,11l.66.75.4.44,46.14,51.9.2-.28a.29.29,0,0,1,.11.11s0,.08.12,0,.45-.44.52-.36,0,.07,0,0,.13-.12.17-.18.07-.11.12-.17.07-.06.1-.1.06.17.15.16a.78.78,0,0,0,.16-.21.49.49,0,0,1,0-.11l0-.06c0-.06.05-.12.06-.16s-.06-.06-.08-.11a1.13,1.13,0,0,0,.21-.33,1,1,0,0,0,0-.17.35.35,0,0,1,0-.19,4.23,4.23,0,0,1,.23-.41c.14-.19.3-.27.44-.47a.75.75,0,0,0,.07-.12l.18-.27c.06-.08.13-.19.2-.27a.05.05,0,0,1,.05,0h.08s0,0,.05,0,.08-.05.14-.12.21-.21.31-.3a.33.33,0,0,1,.12-.1s.07,0,.11,0a.65.65,0,0,0,.3-.24s0,0,0-.05.05-.11.09-.17,0-.1.09-.15.11,0,.17-.13a.41.41,0,0,1,0-.08.41.41,0,0,1,.05-.09l.08-.15c.07-.2-.07-.23.15-.51a1,1,0,0,1,.19-.18,1.09,1.09,0,0,0,.29-.31c.06-.1.1-.17.17-.27a3.48,3.48,0,0,1,.24-.28c.08-.08.11-.12.16-.12s.07,0,.14,0a1.27,1.27,0,0,0,.14-.17s.06,0,.07-.1l.16-.06.47-.64.1-.2a.89.89,0,0,0,.09-.16c0-.07.08-.11.11-.17s0-.05,0-.08.15-.24.12-.26l0,0a1.17,1.17,0,0,0,.21-.32,1.36,1.36,0,0,0,0-.17,1.66,1.66,0,0,1,.23-.36,1.86,1.86,0,0,0,.19-.33l.06-.14.08-.13c.05-.11.05-.16.09-.25a2.49,2.49,0,0,1,.23-.37c0-.07.12-.19.17-.25L632.8.81l-.4-.45L632.08,0a2.2,2.2,0,0,0-.17.25c-.08.12-.19.27-.24.37a2,2,0,0,1-.09.25L631.5,1l-.06.15a2,2,0,0,1-.19.33,1.56,1.56,0,0,0-.23.36c0,.06,0,.1,0,.16a1.89,1.89,0,0,1-.22.33.17.17,0,0,1,.06-.06s-.1.2-.13.26a.26.26,0,0,1,0,.08l-.1.17-.09.17-.11.19-.47.64a.51.51,0,0,1-.15.06c0,.07,0,.06-.08.11s-.08.11-.13.16a.16.16,0,0,1-.14,0s-.09,0-.16.12a3.74,3.74,0,0,0-.25.29c-.07.1-.1.16-.16.26a1.1,1.1,0,0,1-.29.31,1.14,1.14,0,0,0-.2.19c-.21.28-.07.3-.15.5a1,1,0,0,1-.07.15l-.06.1a.24.24,0,0,0,0,.08c-.06.1-.11.07-.17.12a.85.85,0,0,0-.09.15.66.66,0,0,0-.1.18s0,0,0,0a.61.61,0,0,1-.3.23s-.06,0-.1,0-.08.06-.13.1l-.3.3c-.07.08-.09.12-.15.13s0,0,0,0h-.09s0,0-.05,0l-.2.27a2.33,2.33,0,0,0-.17.26l-.08.13c-.14.2-.3.27-.43.46a2.18,2.18,0,0,0-.23.42.24.24,0,0,0-.05.18,1,1,0,0,1,0,.17,1.57,1.57,0,0,1-.21.34s.08,0,.07.1a.4.4,0,0,1-.06.16l0,.06a.61.61,0,0,0,0,.11,1.77,1.77,0,0,1-.16.22c-.09,0-.12-.09-.15-.17a.94.94,0,0,0-.1.1.71.71,0,0,0-.12.18.74.74,0,0,1-.17.18s0,0-.06,0-.35.23-.51.35-.09.05-.13,0-.06-.1-.1-.12Z"/></g></g></g></g></svg>