<svg xmlns="http://www.w3.org/2000/svg" viewBox="0 0 429.38 122.19"><defs><style>.cls-1{isolation:isolate;}.cls-2{fill:#2a0fb2;}.cls-3{fill:#704de8;}.cls-4{fill:#fccf12;}.cls-5{opacity:0.28;}.cls-6{fill:#ffeed4;}.cls-7{mix-blend-mode:multiply;}</style></defs><g class="cls-1"><g id="Layer_2" data-name="Layer 2"><g id="The_War_Roadmap_Title" data-name="The War Roadmap Title"><path class="cls-2" d="M413.74,52.12c-.06-.42-.11-.75-.19-1.12s0-.78-.11-1.19c0-.18-.15-.26-.2-.45-.11-.4-.11-1.66-.38-1.63a.79.79,0,0,0-.1.46,6.85,6.85,0,0,0-.13-2.35c-.14-.39-.39-.51-.55-.84a7.45,7.45,0,0,1-.19-2.55,7.8,7.8,0,0,0-.29-2.26c-.08-.27-.22-.59-.28-.88s-.05-.63-.11-.93a8.31,8.31,0,0,0-.59-1.44,13.36,13.36,0,0,1-.17-2.61,16.15,16.15,0,0,1-.11-1.82L28.83,24.6l-4.67-.07-3.82-.06c0,.51.09,1.29.11,1.82a12.49,12.49,0,0,0,.18,2.61,9.31,9.31,0,0,1,.59,1.45c.06.29.05.65.11.92a7,7,0,0,0,.28.88,7.87,7.87,0,0,1,.29,2.27A7.23,7.23,0,0,0,22.09,37c.15.33.41.44.55.83a7.19,7.19,0,0,1,.12,2.36.91.91,0,0,1,.1-.47c.28,0,.28,1.24.38,1.63.05.2.17.27.21.46.07.4,0,.78.1,1.19s.13.7.2,1.11.12.82.21,1.3l0,4.84a5.14,5.14,0,0,1-.75.92c.21.37,0,.45,0,.8a5.94,5.94,0,0,1-.13,1.31,1.44,1.44,0,0,1-.67.86c-.29.24-.33.56-.47,1.22a13.05,13.05,0,0,0-.26,2.3,15.78,15.78,0,0,0,.14,1.86,5.31,5.31,0,0,1-.4,2.61A5.38,5.38,0,0,0,21,63.78c-.09,2.14,1,1.61,1.4,2.78a6.55,6.55,0,0,1,.19,1l.09.66a1.8,1.8,0,0,0,.21.44c.09.72-.4.8-.49,1.29a3,3,0,0,0,.09,1c0,.45,0,.9.21,1.16s.34,0,.49,0a3.78,3.78,0,0,1-.86,2.33c-.21.22-.53.2-.72.44a2.76,2.76,0,0,0-.36,1c-.2.82-.44,1.75-.57,2.65-.07.59,0,.9-.36,1.17-.15.12-.26,0-.42.11a2.08,2.08,0,0,1-.54.37.51.51,0,0,0-.46.12c0,.63,0,1.41,0,2A12.18,12.18,0,0,0,19,84.32a8.08,8.08,0,0,1,.11.86c0,1.49-.68,2.5-.69,3.93a13.42,13.42,0,0,0,.49,2.79c.15.72.2.71.52,1a3.89,3.89,0,0,1,.78.7A5.46,5.46,0,0,1,20.4,96c.31.11.67-.24,1,.09a2.4,2.4,0,0,1,.34,1c0,.14,0,.27.05.41a3.16,3.16,0,0,0,.28.64c0,.06.09.12.22.18H15.63L20.8,109.9l7.81.11,4.68.07,372.25,7.85v-2.08a3.13,3.13,0,0,1,1.22,0c.46.05.5.24.81-.57.46-1.24.86-3.91,1.68-3.84.17,0,.43.16.6,0a3.54,3.54,0,0,0,.26-1.52,7.74,7.74,0,0,1-.06-1.28c0-.3.16-.54.2-.85.57.13,1.19.42,1.76,0a7.47,7.47,0,0,0,.06-1.31l0-12s-1.48-.11-3.15-.17a5.85,5.85,0,0,0,.11-1.06,8,8,0,0,0-.11-.87,12,12,0,0,1-.09-1.91c0-.63,0-1.41,0-2a.54.54,0,0,1,.46-.13,2.17,2.17,0,0,0,.54-.37c.15-.06.26,0,.42-.11.34-.26.28-.58.36-1.16a23.38,23.38,0,0,1,.57-2.65,2.64,2.64,0,0,1,.36-1c.19-.23.5-.21.71-.43a3.74,3.74,0,0,0,.86-2.33c-.15,0-.34.11-.49,0s-.17-.71-.21-1.16a3.13,3.13,0,0,1-.09-1c.09-.5.58-.58.49-1.3a1.43,1.43,0,0,1-.2-.43c0-.22-.07-.44-.09-.67a5.54,5.54,0,0,0-.2-1c-.44-1.17-1.48-.64-1.39-2.79a5.45,5.45,0,0,1,.4-1.68,5.16,5.16,0,0,0,.4-2.61,15.64,15.64,0,0,1-.13-1.85,13,13,0,0,1,.26-2.3c.13-.67.18-1,.47-1.23a1.4,1.4,0,0,0,.66-.86,5.94,5.94,0,0,0,.13-1.31c0-.34.19-.42,0-.79a4.89,4.89,0,0,0,.74-.93l0-4.84C413.86,52.93,413.79,52.39,413.74,52.12Z"/><path class="cls-3" d="M15.63,98.25l7.82.11,4.67.07,377.51,7.85c0-.69,0-1.39,0-2.08a3,3,0,0,1,1.23,0c.45,0,.49.23.8-.58.46-1.24.86-3.91,1.68-3.84.17,0,.43.16.6-.05a3.53,3.53,0,0,0,.27-1.52,7.73,7.73,0,0,1-.07-1.28c0-.3.16-.54.2-.85.57.13,1.19.42,1.76,0a4.7,4.7,0,0,0,0-1.63,3.52,3.52,0,0,1-.27-.64,2.7,2.7,0,0,1,0-.41,2.35,2.35,0,0,0-.34-1c-.3-.33-.66,0-1-.1a5.2,5.2,0,0,0-.23-2.35,3.3,3.3,0,0,0-.77-.69c-.32-.31-.37-.29-.52-1a13.32,13.32,0,0,1-.49-2.78c0-1.43.69-2.44.69-3.93a8,8,0,0,0-.11-.87,12,12,0,0,1-.09-1.91c0-.63,0-1.41,0-2a.54.54,0,0,1,.46-.13,1.86,1.86,0,0,0,.54-.37c.15-.06.26,0,.42-.11.34-.26.28-.58.36-1.16a25.78,25.78,0,0,1,.57-2.65,2.82,2.82,0,0,1,.36-1c.19-.23.5-.21.72-.43a3.8,3.8,0,0,0,.85-2.33c-.15,0-.34.11-.48,0s-.18-.7-.22-1.16a3.13,3.13,0,0,1-.09-1c.09-.5.58-.58.49-1.29a1.63,1.63,0,0,1-.2-.44c0-.22-.07-.44-.09-.67a6.67,6.67,0,0,0-.19-1c-.45-1.17-1.49-.64-1.4-2.79a5.18,5.18,0,0,1,.41-1.68,5.15,5.15,0,0,0,.39-2.6,18.51,18.51,0,0,1-.13-1.86,13,13,0,0,1,.26-2.3c.14-.66.18-1,.47-1.23a1.37,1.37,0,0,0,.66-.85,5.42,5.42,0,0,0,.13-1.32c0-.34.19-.42,0-.79a4.89,4.89,0,0,0,.74-.93l.05-4.84c-.1-.48-.17-1-.21-1.29s-.12-.75-.2-1.11,0-.79-.11-1.19c0-.19-.15-.27-.2-.46-.1-.4-.1-1.66-.38-1.63a.8.8,0,0,0-.1.47,6.89,6.89,0,0,0-.13-2.36c-.14-.39-.39-.51-.55-.83A7.54,7.54,0,0,1,412,30.8a8.55,8.55,0,0,0-.29-2.26,8.24,8.24,0,0,1-.29-.88c-.05-.27-.05-.63-.11-.93a9.18,9.18,0,0,0-.58-1.44,12.54,12.54,0,0,1-.18-2.61,16.15,16.15,0,0,1-.11-1.82L28.92,13l-4.67-.07-3.81-.05a16.06,16.06,0,0,0,.1,1.81,12.49,12.49,0,0,0,.18,2.61,9.31,9.31,0,0,1,.59,1.45c.06.29.05.65.11.93a7.38,7.38,0,0,0,.28.87A7.87,7.87,0,0,1,22,22.77a7.23,7.23,0,0,0,.19,2.55c.15.33.41.45.55.83a6.93,6.93,0,0,1,.12,2.36A.91.91,0,0,1,23,28c.28,0,.28,1.24.38,1.64.05.19.17.26.21.45.07.4,0,.78.11,1.19s.13.7.19,1.11.12.82.21,1.3l0,4.84a4.74,4.74,0,0,1-.75.92c.21.38,0,.46,0,.8a5.94,5.94,0,0,1-.13,1.31,1.38,1.38,0,0,1-.67.86c-.29.24-.33.56-.46,1.23a11.24,11.24,0,0,0-.26,2.3,13.89,13.89,0,0,0,.13,1.85,5.31,5.31,0,0,1-.4,2.61,5.38,5.38,0,0,0-.41,1.68c-.09,2.14,1,1.62,1.4,2.78a5.67,5.67,0,0,1,.19,1l.09.66A1.8,1.8,0,0,0,23,57c.09.72-.4.8-.49,1.29a2.92,2.92,0,0,0,.09,1c0,.45,0,.9.21,1.16s.34,0,.49,0a3.78,3.78,0,0,1-.86,2.33c-.21.22-.52.2-.72.44a2.76,2.76,0,0,0-.36,1,25.8,25.8,0,0,0-.56,2.65c-.08.59,0,.9-.37,1.17-.15.12-.26,0-.41.11a2.31,2.31,0,0,1-.55.37.49.49,0,0,0-.45.12c0,.63,0,1.42,0,2a15.16,15.16,0,0,0,.09,1.92,8,8,0,0,1,.11.87c0,1.48-.68,2.49-.69,3.92A13.42,13.42,0,0,0,19,80.25c.15.72.2.71.53,1a4.14,4.14,0,0,1,.77.7,5.48,5.48,0,0,1,.23,2.35c.31.11.67-.24,1,.09a2.4,2.4,0,0,1,.34,1c0,.14,0,.28.05.41a3.16,3.16,0,0,0,.28.64,4.91,4.91,0,0,1,0,1.62c-.56.44-1.19.14-1.75,0,0,.31-.17.55-.2.85a6.78,6.78,0,0,0,.06,1.28,3.34,3.34,0,0,1-.27,1.52c-.16.22-.43.07-.6,0-.82-.07-1.21,2.61-1.68,3.85-.3.8-.35.61-.8.57a3.13,3.13,0,0,0-1.22,0C15.63,96.86,15.64,97.55,15.63,98.25Z"/><path class="cls-4" d="M61.77,32.28A3.81,3.81,0,0,1,64,31.7q1.78-.11,9.94-.1H85.56l1.37,1.23a4.36,4.36,0,0,1,1.51,2,1.31,1.31,0,0,0,1,1,4.86,4.86,0,0,1,2.12,1.65L93,39V56.76l-1,1.17a3.86,3.86,0,0,1-1.85,1.37c-.55.14-.83.41-.83.82s-.57,1.08-1.71,2.13L86,63.83H75.69L93,81.1v2.2a5,5,0,0,1-.76,3.08,2,2,0,0,1-1,.76,10,10,0,0,1-2.12.14h-2.4L67.8,68.35V66.09c0-1.51-.14-2.26-.41-2.26s-.27.18-.41.54q-.14.28-.14,8.64v8L64.51,83.3a17.23,17.23,0,0,1-2.16,1.92,2.61,2.61,0,0,1-1.41.41,2.51,2.51,0,0,1-1.85-.69,3.5,3.5,0,0,1-.58-2.12q-.1-1.65-.17-9.19V62.32q0-.62,1.44-1.92l1.3-1.17-.82-.41a2.72,2.72,0,0,1-1.61-2.26q-.24-1.65-.24-10.36,0-10.7.55-11.31a1.63,1.63,0,0,1,1.37-.62c.5,0,.75-.2.75-.61A2,2,0,0,1,61.77,32.28ZM84.26,55.12V40.31H66.77v7.4l.07,7.41Z"/><path class="cls-4" d="M107,43.39,108.53,42h19.2l1.64,1.51c1.1,1,1.65,1.69,1.65,2.06s.25.55.76.82A12.77,12.77,0,0,1,134,48.12l1.44,1.37V79l-1.51,1.51c-1,1-1.65,1.44-2.06,1.44s-.66.36-.89,1.09a6.49,6.49,0,0,1-1.71,2.2L128,86.32H108.53l-1.65-1.58c-1.09-1-1.64-1.72-1.64-2.13s-.28-.68-.82-.82a5.13,5.13,0,0,1-2.2-1.71l-1.37-1.51V49.7l1.37-1.51a5.13,5.13,0,0,1,2.2-1.71,1.06,1.06,0,0,0,1-.89A4.78,4.78,0,0,1,107,43.39ZM126.7,77.54V50.73H109.56V77.54Z"/><path class="cls-4" d="M149.46,43.05,151,41.68h10.42q7.2,0,9,.1a6.76,6.76,0,0,1,2.71.58,3.43,3.43,0,0,1,1.51,1.17q.21.82.2,17.14v9c0,2,0,3.64.07,4.87a18.6,18.6,0,0,0,.17,2.26c.07.28.18.42.31.42.37,0,1.37.82,3,2.46a16.71,16.71,0,0,1,2.09,2.16,3.15,3.15,0,0,1-.31,3.47c-.32.32-1.24.51-2.77.58s-5.91.1-13.13.1H149.05l-.75-.75a3.08,3.08,0,0,1-.62-2.2c0-1-.23-1.44-.68-1.44s-1.19-.54-2.2-1.64l-1.51-1.65V49.36l1.51-1.65c1-1.1,1.74-1.64,2.2-1.64s.68-.28.82-.83A4.72,4.72,0,0,1,149.46,43.05ZM166.13,77.2V50.39H152V77.2Z"/><path class="cls-4" d="M217.21,29c1.65-1.64,2.88-2.47,3.7-2.47a2.53,2.53,0,0,1,1.72.9l.82.82V81.31l-.82.75c-.51.6-1,.9-1.38.9s-.47.13-.47.41a2.39,2.39,0,0,1-.69,1.37l-.69.89H206.17q-9.39,0-11.42-.1a4.34,4.34,0,0,1-2.5-.59,1.78,1.78,0,0,1-.62-1.23c0-.27-.34-.55-1-.82a2.09,2.09,0,0,1-1.38-1q-.34-.69-.34-11.25V60.05l1-1a2.91,2.91,0,0,1,1.65-1.1,1,1,0,0,0,.89-1,5.18,5.18,0,0,1,1.71-2.2l1.51-1.37h19.13v-22Zm-2.47,47.93V62.11H197.32v7.41l-.06,7.4Z"/><path class="cls-4" d="M235.93,43.87l1.64-1.51h20.85c.27.28.69.67,1.27,1.17l1.26,1.1,1.24-1.17,1.3-1.1h20.78l1.64,1.51c1.15,1.05,1.72,1.78,1.72,2.2s.25.61.75.75a3.86,3.86,0,0,1,1.85,1.37l1,1.24V67.32q0,18-.34,18.79a2.55,2.55,0,0,1-2.54,1.44,1.67,1.67,0,0,1-.55-.07,11.08,11.08,0,0,1-3-2.54l-2.27-2.26V51.07H265.14V68.63q0,12.2-.11,15c-.06,1.85-.24,2.89-.51,3.12a3.8,3.8,0,0,1-1.65.75,1.35,1.35,0,0,1-.48.07c-.5,0-1.55-.78-3.15-2.33l-2.54-2.47.07-15.29q0-15.43-.2-15.84c-.1-.23-.62-.38-1.58-.45s-3.34-.1-7.13-.1h-8.57V82.54l-2.06,2.34q-2.4,2.67-3.63,2.67a2.59,2.59,0,0,1-1.31-.41l-1-.55V48.47l1-.9a3,3,0,0,1,1.51-.89c.32,0,.48-.2.48-.61S234.83,44.88,235.93,43.87Z"/><path class="cls-4" d="M305.32,43.05l1.51-1.37h10.42c4.8,0,7.8,0,9,.1a6.71,6.71,0,0,1,2.7.58,3.31,3.31,0,0,1,1.51,1.17q.21.82.21,17.14v9c0,2,0,3.64.07,4.87a15,15,0,0,0,.17,2.26c.07.28.17.42.31.42.36,0,1.37.82,3,2.46a16,16,0,0,1,2.09,2.16,2.61,2.61,0,0,1,.38,1.48,2.73,2.73,0,0,1-.68,2c-.32.32-1.25.51-2.78.58s-5.91.1-13.13.1H304.91l-.76-.75a3.08,3.08,0,0,1-.62-2.2c0-1-.22-1.44-.68-1.44s-1.19-.54-2.2-1.64l-1.5-1.65V49.36l1.5-1.65c1-1.1,1.74-1.64,2.2-1.64s.68-.28.82-.83A4.69,4.69,0,0,1,305.32,43.05ZM322,77.2V50.39H307.85V77.2Z"/><path class="cls-4" d="M348,43.32a3.76,3.76,0,0,1,2.3-.54q1.82-.08,11.49-.07H367c3.88,0,6.24,0,7.06.1a2.77,2.77,0,0,1,1.72.58,2.3,2.3,0,0,1,.82,1.37c0,.42.18.62.55.62a2.06,2.06,0,0,1,1.37.76l.75.68V68.08l-1.37,1.23c-.91.82-1.53,1.23-1.85,1.23s-.48.21-.48.62-.55,1.19-1.65,2.2l-1.64,1.5H353.38V86.11l-2.47,2.4a20.61,20.61,0,0,1-2.22,2,2.34,2.34,0,0,1-1.34.45,2.57,2.57,0,0,1-1.92-.76l-.76-.68V68.08q0-15.84.11-18.69c.07-1.89.26-3,.58-3.32a1.93,1.93,0,0,1,1.3-.69.61.61,0,0,0,.69-.69A2,2,0,0,1,348,43.32Zm22.5,22.84V51.41H353.38V66.16Z"/><g class="cls-5"><path class="cls-6" d="M56.21,111.08l-.67-.74-.4-.44L8.55,58.62c-.06.09-.13.18-.19.28s-.08-.08-.11-.12,0-.07-.12,0-.45.45-.52.36,0-.06-.05,0a1,1,0,0,0-.17.18c0,.07-.07.12-.12.18l-.1.1c0-.07-.06-.17-.15-.16a1.12,1.12,0,0,0-.16.22l0,.11,0,.06a.4.4,0,0,0-.06.16c0,.07.06.06.07.1a1.21,1.21,0,0,0-.2.34,1,1,0,0,0,0,.17.24.24,0,0,1,0,.18,2.92,2.92,0,0,1-.22.43c-.14.19-.3.26-.44.46,0,0,0,.09-.07.13s-.11.18-.17.27l-.2.27s0,0,0,0H5.31s0,0,0,0-.08.06-.14.13-.21.21-.31.3a.57.57,0,0,1-.12.11s-.07,0-.11,0A.6.6,0,0,0,4.3,63s0,0,0,.05a.54.54,0,0,1-.1.18.46.46,0,0,1-.09.15c-.05.06-.1,0-.16.13l0,.08,0,.1a1.09,1.09,0,0,0-.08.15c-.07.2.07.22-.14.5a1.14,1.14,0,0,1-.2.19,1,1,0,0,0-.28.32,1.92,1.92,0,0,1-.17.26,2.31,2.31,0,0,1-.24.29c-.07.08-.11.12-.16.12a.22.22,0,0,0-.14.06,1.12,1.12,0,0,0-.13.16s-.06,0-.08.11a.51.51,0,0,0-.15.06l-.46.65-.11.19-.09.17-.1.17s0,.05,0,.08-.15.24-.12.26a.1.1,0,0,0,.05-.06,2.56,2.56,0,0,0-.21.33c0,.07,0,.11,0,.17a1.81,1.81,0,0,1-.23.36,2,2,0,0,0-.19.33l-.06.15-.08.13a1.77,1.77,0,0,0-.08.25,2.58,2.58,0,0,1-.24.37,2.26,2.26,0,0,1-.16.26l46.93,51.66.4.44.33.36c.05-.06.11-.18.16-.25a4.23,4.23,0,0,0,.23-.37,2.5,2.5,0,0,1,.09-.25s.06-.1.08-.14l.06-.14a1.68,1.68,0,0,1,.19-.34,1.51,1.51,0,0,0,.22-.36.94.94,0,0,1,0-.16,1.08,1.08,0,0,1,.21-.33l0,.05s.09-.19.12-.25,0-.06,0-.09a1,1,0,0,0,.11-.17s0-.1.09-.16a1.85,1.85,0,0,1,.1-.2l.47-.65.15-.06c0-.07,0-.06.07-.11l.14-.16a.22.22,0,0,1,.14-.06c.05,0,.08,0,.16-.12a2.47,2.47,0,0,0,.24-.29c.07-.1.1-.16.16-.26a1.16,1.16,0,0,1,.29-.32.79.79,0,0,0,.19-.18c.21-.29.07-.31.15-.51a1,1,0,0,1,.07-.15l.06-.1a.24.24,0,0,0,0-.08c.06-.1.11-.07.17-.13a.46.46,0,0,0,.09-.15c0-.06.09-.12.09-.17s0,0,0,0a.65.65,0,0,1,.3-.24s.06,0,.1,0,.08-.06.13-.1l.3-.31c.06-.07.09-.12.14-.12s0,0,0,0h.08a.05.05,0,0,0,.05,0l.2-.28c.06-.09.12-.17.18-.27a.75.75,0,0,1,.07-.12c.14-.2.3-.28.43-.47s.16-.3.23-.42a.35.35,0,0,0,0-.19.43.43,0,0,1,0-.16,1.21,1.21,0,0,1,.2-.34s-.08,0-.08-.11a1,1,0,0,1,.07-.16l0-.06a.76.76,0,0,0,0-.11,1.07,1.07,0,0,1,.15-.22c.09,0,.12.09.16.16a.43.43,0,0,1,.1-.09,1.74,1.74,0,0,0,.11-.18c0-.06.13-.17.17-.18s0,0,.06.05.35-.24.51-.37.09,0,.13,0a.27.27,0,0,0,.1.11Z"/></g><g class="cls-7"><path class="cls-6" d="M373.53,11l.66.75.4.44,46.14,51.9.21-.28a.36.36,0,0,1,.1.11s0,.08.13,0,.45-.44.51-.36,0,.07.06,0,.13-.12.17-.18a.88.88,0,0,1,.12-.17l.09-.1c0,.07.07.17.16.16a1,1,0,0,0,.15-.21s0-.07,0-.11l0-.06a.46.46,0,0,0,.06-.16c0-.08-.06-.06-.07-.11a1.32,1.32,0,0,0,.2-.33.48.48,0,0,0,0-.17.39.39,0,0,1,.06-.19,2.73,2.73,0,0,1,.22-.41c.14-.19.3-.27.44-.47l.08-.12c.05-.09.11-.18.17-.27l.2-.27a0,0,0,0,1,.05,0H424s0,0,0,0,.08-.05.15-.12a2.83,2.83,0,0,1,.3-.3.35.35,0,0,1,.13-.1s.06,0,.1,0a.65.65,0,0,0,.3-.24s0,0,0-.05a.56.56,0,0,1,.09-.17.78.78,0,0,1,.1-.15c.05-.06.1,0,.16-.13l0-.08.06-.09s.06-.11.07-.15c.08-.2-.06-.23.15-.51a1.54,1.54,0,0,1,.2-.18,1.07,1.07,0,0,0,.28-.31c.07-.1.1-.17.17-.27a3.48,3.48,0,0,1,.24-.28c.08-.08.12-.12.16-.12s.07,0,.14,0A.79.79,0,0,0,427,57s.06,0,.08-.1l.15-.06.47-.64a1.63,1.63,0,0,1,.11-.2l.09-.16c0-.07.07-.11.1-.17s0-.05,0-.08.15-.24.12-.26l-.05,0a1.53,1.53,0,0,0,.22-.32c0-.07,0-.11,0-.17a1.66,1.66,0,0,1,.23-.36,1.4,1.4,0,0,0,.19-.33l.06-.14.08-.13a2,2,0,0,0,.09-.25,1.94,1.94,0,0,1,.24-.37c0-.07.11-.19.16-.25L382.9.81l-.4-.45L382.18,0c-.05.06-.12.18-.17.25a4.23,4.23,0,0,0-.23.37c0,.09,0,.14-.09.25l-.08.13a.47.47,0,0,0-.06.15,3.24,3.24,0,0,1-.2.33,1.56,1.56,0,0,0-.23.36.45.45,0,0,1,0,.16,1.89,1.89,0,0,1-.22.33.17.17,0,0,1,.06-.06s-.1.2-.13.26,0,.05,0,.08-.08.11-.11.17a1.4,1.4,0,0,1-.09.17s-.07.12-.1.19l-.48.64a.42.42,0,0,1-.15.06c0,.07,0,.06-.07.11l-.14.16a.16.16,0,0,1-.14,0c-.05,0-.08,0-.16.12a2.31,2.31,0,0,0-.24.29,1.92,1.92,0,0,0-.17.26,1.1,1.1,0,0,1-.29.31.85.85,0,0,0-.19.19c-.22.28-.08.3-.15.5l-.08.15-.06.1a.24.24,0,0,0,0,.08c-.06.1-.11.07-.17.12a.85.85,0,0,0-.09.15c0,.07-.09.12-.09.18s0,0,0,0a.64.64,0,0,1-.29.23s-.07,0-.11,0a.76.76,0,0,0-.13.1l-.3.3c-.06.08-.09.12-.14.13s0,0-.05,0h-.08a0,0,0,0,0-.05,0,2.69,2.69,0,0,0-.2.27,1.51,1.51,0,0,0-.18.26l-.07.13c-.15.2-.3.27-.44.46a4.36,4.36,0,0,0-.23.42.24.24,0,0,0-.05.18,1,1,0,0,1,0,.17,1.26,1.26,0,0,1-.21.34s.08,0,.08.1a.71.71,0,0,1-.07.16l0,.06a.76.76,0,0,0,0,.11,1.12,1.12,0,0,1-.16.22c-.09,0-.11-.09-.15-.17l-.1.1c-.05.06-.07.11-.12.18a.74.74,0,0,1-.17.18s0,0,0,0-.36.23-.52.35-.09.05-.12,0-.06-.1-.11-.12Z"/></g><g class="cls-5"><path class="cls-6" d="M373.53,11l.66.75.4.44,46.14,51.9.21-.28a.36.36,0,0,1,.1.11s0,.08.13,0,.45-.44.51-.36,0,.07.06,0,.13-.12.17-.18a.88.88,0,0,1,.12-.17l.09-.1c0,.07.07.17.16.16a1,1,0,0,0,.15-.21s0-.07,0-.11l0-.06a.46.46,0,0,0,.06-.16c0-.08-.06-.06-.07-.11a1.32,1.32,0,0,0,.2-.33.48.48,0,0,0,0-.17.39.39,0,0,1,.06-.19,2.73,2.73,0,0,1,.22-.41c.14-.19.3-.27.44-.47l.08-.12c.05-.09.11-.18.17-.27l.2-.27a0,0,0,0,1,.05,0H424s0,0,0,0,.08-.05.15-.12a2.83,2.83,0,0,1,.3-.3.35.35,0,0,1,.13-.1s.06,0,.1,0a.65.65,0,0,0,.3-.24s0,0,0-.05a.56.56,0,0,1,.09-.17.78.78,0,0,1,.1-.15c.05-.06.1,0,.16-.13l0-.08.06-.09s.06-.11.07-.15c.08-.2-.06-.23.15-.51a1.54,1.54,0,0,1,.2-.18,1.07,1.07,0,0,0,.28-.31c.07-.1.1-.17.17-.27a3.48,3.48,0,0,1,.24-.28c.08-.08.12-.12.16-.12s.07,0,.14,0A.79.79,0,0,0,427,57s.06,0,.08-.1l.15-.06.47-.64a1.63,1.63,0,0,1,.11-.2l.09-.16c0-.07.07-.11.1-.17s0-.05,0-.08.15-.24.12-.26l-.05,0a1.53,1.53,0,0,0,.22-.32c0-.07,0-.11,0-.17a1.66,1.66,0,0,1,.23-.36,1.4,1.4,0,0,0,.19-.33l.06-.14.08-.13a2,2,0,0,0,.09-.25,1.94,1.94,0,0,1,.24-.37c0-.07.11-.19.16-.25L382.9.81l-.4-.45L382.18,0c-.05.06-.12.18-.17.25a4.23,4.23,0,0,0-.23.37c0,.09,0,.14-.09.25l-.08.13a.47.47,0,0,0-.06.15,3.24,3.24,0,0,1-.2.33,1.56,1.56,0,0,0-.23.36.45.45,0,0,1,0,.16,1.89,1.89,0,0,1-.22.33.17.17,0,0,1,.06-.06s-.1.2-.13.26,0,.05,0,.08-.08.11-.11.17a1.4,1.4,0,0,1-.09.17s-.07.12-.1.19l-.48.64a.42.42,0,0,1-.15.06c0,.07,0,.06-.07.11l-.14.16a.16.16,0,0,1-.14,0c-.05,0-.08,0-.16.12a2.31,2.31,0,0,0-.24.29,1.92,1.92,0,0,0-.17.26,1.1,1.1,0,0,1-.29.31.85.85,0,0,0-.19.19c-.22.28-.08.3-.15.5l-.08.15-.06.1a.24.24,0,0,0,0,.08c-.06.1-.11.07-.17.12a.85.85,0,0,0-.09.15c0,.07-.09.12-.09.18s0,0,0,0a.64.64,0,0,1-.29.23s-.07,0-.11,0a.76.76,0,0,0-.13.1l-.3.3c-.06.08-.09.12-.14.13s0,0-.05,0h-.08a0,0,0,0,0-.05,0,2.69,2.69,0,0,0-.2.27,1.51,1.51,0,0,0-.18.26l-.07.13c-.15.2-.3.27-.44.46a4.36,4.36,0,0,0-.23.42.24.24,0,0,0-.05.18,1,1,0,0,1,0,.17,1.26,1.26,0,0,1-.21.34s.08,0,.08.1a.71.71,0,0,1-.07.16l0,.06a.76.76,0,0,0,0,.11,1.12,1.12,0,0,1-.16.22c-.09,0-.11-.09-.15-.17l-.1.1c-.05.06-.07.11-.12.18a.74.74,0,0,1-.17.18s0,0,0,0-.36.23-.52.35-.09.05-.12,0-.06-.1-.11-.12Z"/></g></g></g></g></svg>