<svg xmlns="http://www.w3.org/2000/svg" xmlns:xlink="http://www.w3.org/1999/xlink" viewBox="0 0 469.84 638.84"><defs><style>.cls-1{fill:none;}.cls-2{isolation:isolate;}.cls-3{fill:#3737b7;}.cls-4{fill:#121266;}.cls-5{fill:#736cff;}.cls-6{fill:#fff;}.cls-7{fill:url(#linear-gradient);}.cls-8{fill:url(#linear-gradient-2);}.cls-9{fill:url(#linear-gradient-3);}.cls-10{fill:url(#linear-gradient-4);}.cls-11{fill:url(#Áåçûìÿííûé_ãðàäèåíò_116);}.cls-12{fill:url(#Áåçûìÿííûé_ãðàäèåíò_116-2);}.cls-13{fill:url(#Áåçûìÿííûé_ãðàäèåíò_116-3);}.cls-14{fill:url(#Áåçûìÿííûé_ãðàäèåíò_116-4);}.cls-15{fill:url(#Áåçûìÿííûé_ãðàäèåíò_116-5);}.cls-16{fill:#3d3dd1;}.cls-17{fill:#3030b7;}.cls-18{fill:#d2f1fc;}.cls-19{clip-path:url(#clip-path);}.cls-20{fill:#d45a27;}.cls-21{fill:#c4480a;}.cls-22{fill:#e68a5c;}.cls-23,.cls-48,.cls-49{mix-blend-mode:overlay;}.cls-24{fill:#b9adbb;}.cls-25{fill:#9f8fa2;}.cls-26{fill:#d5ced6;}.cls-27,.cls-28,.cls-29,.cls-32,.cls-33,.cls-34,.cls-35,.cls-36,.cls-37,.cls-38,.cls-39,.cls-40,.cls-42,.cls-43{fill-rule:evenodd;}.cls-27,.cls-59,.cls-61{opacity:0.5;}.cls-27,.cls-45{mix-blend-mode:multiply;}.cls-27{fill:url(#Áåçûìÿííûé_ãðàäèåíò_73);}.cls-28{fill:url(#Áåçûìÿííûé_ãðàäèåíò_408);}.cls-29{fill:url(#linear-gradient-5);}.cls-30,.cls-32{fill:#ffe8e3;}.cls-31{fill:url(#linear-gradient-6);}.cls-33,.cls-34,.cls-35,.cls-59,.cls-61{mix-blend-mode:screen;}.cls-33{fill:url(#linear-gradient-7);}.cls-34{fill:url(#linear-gradient-8);}.cls-35{fill:url(#linear-gradient-9);}.cls-36{fill:#dbcbc8;}.cls-37{fill:#9e8b88;}.cls-38{fill:url(#linear-gradient-10);}.cls-39{fill:url(#linear-gradient-11);}.cls-40{fill:#d33200;}.cls-41{fill:#ff6f48;}.cls-42{fill:url(#linear-gradient-12);}.cls-43{fill:url(#linear-gradient-13);}.cls-44{fill:#394549;}.cls-45{fill:#606060;opacity:0.35;}.cls-46{fill:#492626;}.cls-47{fill:#664646;}.cls-48,.cls-49{fill:#ffd8b7;}.cls-49{opacity:0.44;}.cls-50{fill:url(#linear-gradient-14);}.cls-51{fill:url(#linear-gradient-15);}.cls-52{fill:url(#Áåçûìÿííûé_ãðàäèåíò_91);}.cls-53{fill:url(#linear-gradient-16);}.cls-54{fill:url(#linear-gradient-17);}.cls-55{fill:url(#linear-gradient-18);}.cls-56{fill:#f95338;}.cls-57{fill:url(#Áåçûìÿííûé_ãðàäèåíò_91-2);}.cls-58{fill:url(#Áåçûìÿííûé_ãðàäèåíò_215);}.cls-59{fill:url(#Áåçûìÿííûé_ãðàäèåíò_97);}.cls-60{fill:url(#linear-gradient-19);}.cls-61{fill:url(#Áåçûìÿííûé_ãðàäèåíò_97-2);}.cls-62{fill:url(#linear-gradient-20);}</style><linearGradient id="linear-gradient" x1="22.25" y1="633.35" x2="354.11" y2="292.87" gradientTransform="translate(612.05 -33.03) rotate(90)" gradientUnits="userSpaceOnUse"><stop offset="0" stop-color="#53d8ff"/><stop offset="1" stop-color="#3840f7"/></linearGradient><linearGradient id="linear-gradient-2" x1="326.85" y1="288.89" x2="325.76" y2="352.67" gradientTransform="translate(605.2 1.07) rotate(90)" gradientUnits="userSpaceOnUse"><stop offset="0" stop-color="#fdf53f"/><stop offset="1" stop-color="#d93c65"/></linearGradient><linearGradient id="linear-gradient-3" x1="343.51" y1="299.8" x2="341.6" y2="345.24" gradientTransform="translate(621.35 -12.37) rotate(90)" gradientUnits="userSpaceOnUse"><stop offset="0" stop-color="#b37cff"/><stop offset="1" stop-color="#f895e7"/></linearGradient><linearGradient id="linear-gradient-4" x1="360.57" y1="335.02" x2="365.77" y2="406.19" gradientTransform="translate(637.5 -25.8) rotate(90)" xlink:href="#linear-gradient"/><linearGradient id="Áåçûìÿííûé_ãðàäèåíò_116" x1="130.07" y1="278.59" x2="151.95" y2="239.12" gradientUnits="userSpaceOnUse"><stop offset="0.01" stop-color="#940068"/><stop offset="0.09" stop-color="#a41369"/><stop offset="0.28" stop-color="#c5386c"/><stop offset="0.46" stop-color="#de566e"/><stop offset="0.65" stop-color="#f06b6f"/><stop offset="0.83" stop-color="#fb7870"/><stop offset="1" stop-color="#ff7c70"/></linearGradient><linearGradient id="Áåçûìÿííûé_ãðàäèåíò_116-2" x1="221.79" y1="296.65" x2="218.41" y2="253.56" xlink:href="#Áåçûìÿííûé_ãðàäèåíò_116"/><linearGradient id="Áåçûìÿííûé_ãðàäèåíò_116-3" x1="161.8" y1="350.41" x2="168.65" y2="319.62" xlink:href="#Áåçûìÿííûé_ãðàäèåíò_116"/><linearGradient id="Áåçûìÿííûé_ãðàäèåíò_116-4" x1="173.97" y1="460.11" x2="210.57" y2="273.01" gradientTransform="translate(25.24 -43.34) rotate(10.49)" xlink:href="#Áåçûìÿííûé_ãðàäèåíò_116"/><linearGradient id="Áåçûìÿííûé_ãðàäèåíò_116-5" x1="183.07" y1="251.95" x2="187.81" y2="228.03" xlink:href="#Áåçûìÿííûé_ãðàäèåíò_116"/><clipPath id="clip-path" transform="translate(5.81)"><path class="cls-1" d="M258.43,599.13h0l19.15,12.17,13.23,8.39,6.76,4.29-18.36-61.41-10.54-6.64-10.18-6.43-30-19-10.2-6.43-30.09-19L178,498.68l-30.13-19-10.22-6.45-30.15-19-10.24-6.45L67,428.65l-10.25-6.46-2-1.27L1,435.68H1l-1,1.6L19.11,448.4l9.38.52L27,453.33,241.55,589.84l5.38.11,10.57,10.11,37.62,25.34,2.44-1.41-39.13-24.85ZM120,511.33l-.7-.45.46.3ZM6.7,439.07l9.16,5.48,3.91,2.34h0Z"/></clipPath><linearGradient id="Áåçûìÿííûé_ãðàäèåíò_73" x1="180.78" y1="532.24" x2="196.2" y2="532.24" gradientTransform="translate(5.66 -7.2) rotate(1.1)" gradientUnits="userSpaceOnUse"><stop offset="0" stop-color="#b16d98"/><stop offset="0.17" stop-color="#b072a0"/><stop offset="0.43" stop-color="#ad7fb6"/><stop offset="0.75" stop-color="#a894d9"/><stop offset="1" stop-color="#a4a7fa"/></linearGradient><linearGradient id="Áåçûìÿííûé_ãðàäèåíò_408" x1="180.78" y1="531.6" x2="194.59" y2="531.6" gradientTransform="translate(5.66 -7.2) rotate(1.1)" gradientUnits="userSpaceOnUse"><stop offset="0" stop-color="#ffcc1b"/><stop offset="1" stop-color="#ff9d31"/></linearGradient><linearGradient id="linear-gradient-5" x1="-3377.78" y1="-11759.2" x2="-3388.42" y2="-11759.2" gradientTransform="translate(6843.29 10819.06) rotate(-16.68)" gradientUnits="userSpaceOnUse"><stop offset="0" stop-color="#32c8b9"/><stop offset="1" stop-color="#2d2c6b"/></linearGradient><linearGradient id="linear-gradient-6" x1="202.11" y1="505" x2="209.9" y2="505" gradientTransform="translate(727.33 307.52) rotate(90)" gradientUnits="userSpaceOnUse"><stop offset="0" stop-color="#325eb9"/><stop offset="1" stop-color="#26224f"/></linearGradient><linearGradient id="linear-gradient-7" x1="219.86" y1="496.49" x2="218.93" y2="507.14" gradientTransform="translate(646.35 171.33) rotate(73.32)" gradientUnits="userSpaceOnUse"><stop offset="0" stop-color="#325eb9"/><stop offset="1" stop-color="#2d2c6b"/></linearGradient><linearGradient id="linear-gradient-8" x1="213.32" y1="495.81" x2="212.53" y2="504.84" xlink:href="#linear-gradient-7"/><linearGradient id="linear-gradient-9" x1="215.96" y1="497.21" x2="215.62" y2="501.07" xlink:href="#linear-gradient-7"/><linearGradient id="linear-gradient-10" x1="2244.84" y1="-12707.06" x2="2244.84" y2="-12738.41" gradientTransform="matrix(1, -0.08, -0.08, -1, -3158.06, -12060.19)" gradientUnits="userSpaceOnUse"><stop offset="0" stop-color="#074c7f"/><stop offset="1" stop-color="#9dc682"/></linearGradient><linearGradient id="linear-gradient-11" x1="2268.53" y1="-12724.54" x2="2268.53" y2="-12707.41" gradientTransform="matrix(1, -0.08, -0.08, -1, -3152.25, -12060.19)" xlink:href="#linear-gradient-10"/><linearGradient id="linear-gradient-12" x1="2268.95" y1="-12718.01" x2="2257.46" y2="-12718.01" xlink:href="#linear-gradient-10"/><linearGradient id="linear-gradient-13" x1="2241.6" y1="-12717.59" x2="2261.98" y2="-12719.34" xlink:href="#linear-gradient-10"/><linearGradient id="linear-gradient-14" x1="-1059.73" y1="-92.84" x2="-1054" y2="-92.84" gradientTransform="matrix(-0.63, 0.78, -0.78, -0.63, -669.47, 871.96)" gradientUnits="userSpaceOnUse"><stop offset="0" stop-color="#883036"/><stop offset="1" stop-color="#8c3314"/></linearGradient><linearGradient id="linear-gradient-15" x1="-1193.6" y1="-122.37" x2="-1050.97" y2="-122.37" gradientTransform="translate(-973.66 320.09) rotate(161.12)" xlink:href="#linear-gradient-14"/><linearGradient id="Áåçûìÿííûé_ãðàäèåíò_91" x1="-1059.13" y1="-97.09" x2="-1041.9" y2="-97.09" gradientTransform="matrix(-0.63, 0.78, -0.78, -0.63, -669.47, 871.96)" gradientUnits="userSpaceOnUse"><stop offset="0" stop-color="#dd5936"/><stop offset="1" stop-color="#ff8e1f"/></linearGradient><linearGradient id="linear-gradient-16" x1="-1055.06" y1="-97.03" x2="-1041.9" y2="-97.03" xlink:href="#linear-gradient-14"/><linearGradient id="linear-gradient-17" x1="-1132.25" y1="-123.2" x2="-1117.13" y2="-123.2" xlink:href="#linear-gradient-14"/><linearGradient id="linear-gradient-18" x1="-1224.89" y1="-156.14" x2="-1203.46" y2="-156.14" xlink:href="#linear-gradient-14"/><linearGradient id="Áåçûìÿííûé_ãðàäèåíò_91-2" x1="-1223.68" y1="-155.81" x2="-1193.41" y2="-155.81" xlink:href="#Áåçûìÿííûé_ãðàäèåíò_91"/><linearGradient id="Áåçûìÿííûé_ãðàäèåíò_215" x1="-1223.68" y1="-142.69" x2="-1194.07" y2="-142.69" gradientTransform="matrix(-0.63, 0.78, -0.78, -0.63, -669.47, 871.96)" gradientUnits="userSpaceOnUse"><stop offset="0" stop-color="#8f182c"/><stop offset="1" stop-color="#e25e1a"/></linearGradient><linearGradient id="Áåçûìÿííûé_ãðàäèåíò_97" x1="-1216.1" y1="-157.59" x2="-1197.85" y2="-157.59" gradientTransform="matrix(-0.63, 0.78, -0.78, -0.63, -669.47, 871.96)" gradientUnits="userSpaceOnUse"><stop offset="0" stop-color="#ffb034"/><stop offset="0.06" stop-color="#eaa130"/><stop offset="0.26" stop-color="#a47121"/><stop offset="0.45" stop-color="#694915"/><stop offset="0.63" stop-color="#3c290c"/><stop offset="0.78" stop-color="#1b1306"/><stop offset="0.91" stop-color="#070501"/><stop offset="1"/></linearGradient><linearGradient id="linear-gradient-19" x1="-1198.92" y1="-147.03" x2="-1186.95" y2="-147.03" xlink:href="#linear-gradient-14"/><linearGradient id="Áåçûìÿííûé_ãðàäèåíò_97-2" x1="-1195.31" y1="-149.84" x2="-1188.53" y2="-149.84" gradientTransform="matrix(-0.63, 0.78, -0.78, -0.63, -663.67, 871.96)" xlink:href="#Áåçûìÿííûé_ãðàäèåíò_97"/><linearGradient id="linear-gradient-20" x1="-1192.22" y1="-145.64" x2="-1186.71" y2="-145.64" xlink:href="#linear-gradient-14"/></defs><g class="cls-2"><g id="Layer_2" data-name="Layer 2"><g id="Store"><rect class="cls-3" x="178.4" y="382.87" width="63.78" height="17.88" transform="translate(80.64 -31.73) rotate(10.49)"/><polygon class="cls-4" points="184.84 385.54 247.55 397.15 247.2 399.07 183.79 391.2 184.84 385.54"/><rect class="cls-3" x="149.64" y="400.53" width="116.68" height="7.46" transform="translate(82.87 -31.1) rotate(10.49)"/><rect class="cls-3" x="73.67" y="173.65" width="309.54" height="219.25" rx="33.5" transform="translate(61.19 -36.85) rotate(10.49)"/><rect class="cls-5" x="89.84" y="188.47" width="277.2" height="189.61" rx="25.81" transform="translate(61.19 -36.85) rotate(10.49)"/><path class="cls-6" d="M356.6,210.58,278.38,196.1,243.87,382.54,322.08,397a25.82,25.82,0,0,0,30.08-20.68l25.12-135.68A25.82,25.82,0,0,0,356.6,210.58Z" transform="translate(5.81)"/><rect class="cls-7" x="252.04" y="281.95" width="120.81" height="65.15" rx="2.58" transform="translate(-47.88 564.5) rotate(-79.51)"/><rect class="cls-6" x="321.5" y="233.19" width="2.37" height="56.03" rx="1.18" transform="translate(12.92 530.96) rotate(-79.51)"/><path class="cls-6" d="M314.59,268.33a1.27,1.27,0,0,1-1.48,1l-18.49-3.42a1.28,1.28,0,0,1-1-1.49h0a1.28,1.28,0,0,1,1.49-1l18.48,3.43a1.27,1.27,0,0,1,1,1.48Z" transform="translate(5.81)"/><rect class="cls-6" x="313.26" y="277.69" width="2.37" height="56.03" rx="1.18" transform="translate(-37.58 559.26) rotate(-79.51)"/><path class="cls-6" d="M306.36,312.84a1.28,1.28,0,0,1-1.49,1l-18.49-3.42a1.28,1.28,0,0,1-1-1.49h0a1.28,1.28,0,0,1,1.49-1l18.48,3.42a1.28,1.28,0,0,1,1,1.49Z" transform="translate(5.81)"/><rect class="cls-6" x="290.32" y="276.29" width="12.96" height="12.96" rx="2.55" transform="translate(-29.46 523.13) rotate(-79.51)"/><rect class="cls-6" x="306.47" y="279.28" width="12.96" height="12.96" rx="2.55" transform="matrix(0.18, -0.98, 0.98, 0.18, -19.19, 541.46)"/><rect class="cls-6" x="322.62" y="282.26" width="12.96" height="12.96" rx="2.55" transform="translate(-8.92 559.79) rotate(-79.51)"/><rect class="cls-8" x="282.05" y="320.97" width="12.96" height="12.96" rx="2.55" transform="translate(-80.16 551.55) rotate(-79.51)"/><rect class="cls-9" x="298.2" y="323.96" width="12.96" height="12.96" rx="2.55" transform="translate(-69.89 569.88) rotate(-79.51)"/><rect class="cls-10" x="314.35" y="326.95" width="12.96" height="12.96" rx="2.55" transform="translate(-59.62 588.2) rotate(-79.51)"/><path class="cls-11" d="M145.74,238.4S127.22,252.8,123.92,261c3.18,4.64,17.24,16.84,17.24,16.84l8.53-5.81Z" transform="translate(5.81)"/><path class="cls-12" d="M222.41,253.31s12.09,19.35,12.23,28.21c-4.63,3.19-22.13,9.55-22.13,9.55l-5.88-8.48Z" transform="translate(5.81)"/><path class="cls-13" d="M130.91,336.62s50.24,14.62,65.31,11.7l-19.61-9.63s-14.44-4.25-15.24-4.12-15.79-1.46-15.79-1.46Z" transform="translate(5.81)"/><path class="cls-14" d="M222.32,253.29c-2.57,12.21-6.92,22.33-13.94,29.33-7.39,25.49-6.33,45.7-12.16,65.7L166.89,340a86.68,86.68,0,0,0-29-3.13l-7-.23c6.61-16.14,11.57-39,16.13-63.52-2.89-10.54-3.3-22.16-1.72-34.65l24.32-5.87,1.93-.46.31-.07s.19.55,1.34,1.35c1.6,1.12,5,2.74,12.39,4.1,8.5,1.57,12.25.95,13.79.38a2.51,2.51,0,0,0,1-.55l.86.62,1.53,1.13Z" transform="translate(5.81)"/><path class="cls-15" d="M201.2,238.17a15.11,15.11,0,0,1-29.72-5.5c0-.18.07-.36.12-.54l.29-.07s.19.54,1.34,1.34c1.59,1.12,5,2.74,12.38,4.1,8.5,1.57,12.25.95,13.79.38a2.4,2.4,0,0,0,1-.55l.86.62A1.7,1.7,0,0,1,201.2,238.17Z" transform="translate(5.81)"/><path class="cls-16" d="M194.25,297.18,197,282.54a13.53,13.53,0,0,0-10.78-15.8l-15.47-2.93A11.59,11.59,0,0,0,157.24,273l-3.16,16.75.34.07-.27,1.45-.34-.07a11.58,11.58,0,0,0,9.29,13.17l21.84,4.13a7,7,0,0,0,8.22-5.61l.81-4.3-.4-.08.27-1.45Z" transform="translate(5.81)"/><polygon class="cls-17" points="189.27 295.15 199.65 297.1 199.38 298.55 189 296.58 189.27 295.15"/><path class="cls-5" d="M183.46,295.15l3.13-16.55a10.55,10.55,0,0,0-8.4-12.32l-7.7-1.45a10.54,10.54,0,0,0-12.31,8.4l-1.68,8.91h0L155,290l.27.05-.27,1.45-.24,0a10.55,10.55,0,0,0,8.46,11.94l13,2.45a5.18,5.18,0,0,0,6.05-4.13l1-5.1-21.8-4.12.27-1.43Z" transform="translate(5.81)"/><path class="cls-16" d="M171.68,272.4h0a7.59,7.59,0,0,1,7.59,7.59v5.53a0,0,0,0,1,0,0H164.08a0,0,0,0,1,0,0V280a7.59,7.59,0,0,1,7.59-7.59Z" transform="translate(60.62 -27.04) rotate(10.71)"/><path class="cls-18" d="M171.68,273.48h0a6.51,6.51,0,0,1,6.51,6.51v4.45a0,0,0,0,1,0,0h-13a0,0,0,0,1,0,0V280A6.51,6.51,0,0,1,171.68,273.48Z" transform="translate(60.62 -27.04) rotate(10.71)"/><circle class="cls-16" cx="173.61" cy="280.69" r="1.5"/><circle class="cls-16" cx="180.04" cy="281.91" r="1.5"/><path class="cls-4" d="M375.09,252.47l2.19-11.81a25.82,25.82,0,0,0-20.68-30.08L134.79,169.52a25.82,25.82,0,0,0-30.08,20.68L102.53,202Z" transform="translate(5.81)"/><path class="cls-16" d="M153,197.24l1.55-8.2a7.58,7.58,0,0,0-6-8.85l-8.67-1.64a6.48,6.48,0,0,0-7.57,5.17l-1.78,9.38.19,0-.15.81-.19,0a6.49,6.49,0,0,0,5.2,7.38l12.24,2.31a4,4,0,0,0,4.6-3.14l.45-2.41-.22,0,.15-.81Z" transform="translate(5.81)"/><polygon class="cls-17" points="152.74 196.1 158.55 197.2 158.4 198.01 152.58 196.91 152.74 196.1"/><path class="cls-5" d="M146.93,196.1l1.75-9.27a5.9,5.9,0,0,0-4.7-6.89l-4.31-.82a5.91,5.91,0,0,0-6.9,4.71l-.94,5h0L131,193.2l.15,0L131,194l-.13,0a5.9,5.9,0,0,0,4.74,6.69l7.25,1.37a2.9,2.9,0,0,0,3.39-2.31l.54-2.85-12.2-2.31.15-.8Z" transform="translate(5.81)"/><path class="cls-16" d="M140.33,183.36h0a4.25,4.25,0,0,1,4.25,4.25v3.1a0,0,0,0,1,0,0h-8.51a0,0,0,0,1,0,0v-3.1A4.25,4.25,0,0,1,140.33,183.36Z" transform="translate(43 -22.81) rotate(10.71)"/><path class="cls-18" d="M140.33,184h0a3.64,3.64,0,0,1,3.64,3.64v2.49a0,0,0,0,1,0,0h-7.29a0,0,0,0,1,0,0v-2.49A3.64,3.64,0,0,1,140.33,184Z" transform="translate(43 -22.81) rotate(10.71)"/><circle class="cls-16" cx="143.97" cy="188" r="0.84"/><circle class="cls-16" cx="147.57" cy="188.69" r="0.84"/><path class="cls-6" d="M159.41,185.66a.41.41,0,0,1,.26,0c.13,0,.47.07,1,.18l1.19.22.15.21c.1.13.14.21.13.26a.06.06,0,0,0,0,.08s.11.08.2.21l.14.2-.36,1.93-.15.09c-.1.07-.17.1-.22.09a.07.07,0,0,0-.09.06c0,.07-.07.13-.19.21l-.18.12-2-.39-.17.87a6.06,6.06,0,0,1-.2.88.75.75,0,0,1-.31.31.72.72,0,0,1-.42.17l-.06,0c-.09,0-.14-.09-.15-.13a5.18,5.18,0,0,1,.14-1l.05-.23.23-1.21.31-.19c-.1-.13-.17-.24-.22-.31l.43-2.29.11-.05c.07,0,.12-.06.15,0s.06,0,.07-.06A.18.18,0,0,1,159.41,185.66Zm1.91,2.87.3-1.58-1.82-.34-.3,1.57Z" transform="translate(5.81)"/><path class="cls-6" d="M163.89,186.56a.45.45,0,0,1,.25,0c.13,0,.48.08,1.06.19l1.23.23.12.16a.44.44,0,0,1,.12.24.13.13,0,0,0,.08.13c.06,0,.12.09.2.21l.11.19-.35,1.88-.14.11a.41.41,0,0,1-.22.11c-.06,0-.1,0-.1.07s-.09.1-.23.19l-.2.13-1.09-.2,1.49,2.18-.05.23a.47.47,0,0,1-.14.31.17.17,0,0,1-.11.06l-.23,0-.26-.05-1.62-2.38,0-.24c0-.16,0-.24,0-.25s0,0,0,0-.08.32-.19.91l-.16.85-.29.2-.27.16a.29.29,0,0,1-.16,0,.25.25,0,0,1-.18-.11.38.38,0,0,1,0-.23c0-.12.07-.45.17-1l.22-1.2s.08-.1.19-.18l.17-.09-.08-.06a.32.32,0,0,1-.13-.28c0-.11.07-.48.18-1.1a5.72,5.72,0,0,1,.29-1.19.17.17,0,0,1,.16,0,.07.07,0,0,0,.09-.05A.22.22,0,0,1,163.89,186.56Zm1.93,2.88.29-1.57-1.85-.36-.15.79-.14.79Z" transform="translate(5.81)"/><path class="cls-6" d="M168.77,187.42a.78.78,0,0,1,.28,0c.12,0,.41.06.86.15l1,.19.15.2c.09.13.14.22.13.27a.05.05,0,0,0,.05.07s.11.09.2.23l.13.21-.81,4.32-.18.13a.6.6,0,0,1-.26.14.14.14,0,0,0-.13.08.54.54,0,0,1-.22.2l-.19.12-2-.39-.15-.2c-.09-.13-.14-.21-.13-.24a.14.14,0,0,0-.06-.11.78.78,0,0,1-.2-.23l-.13-.17.83-4.38.14-.11a.7.7,0,0,1,.27-.14c.08,0,.12,0,.13-.07a.38.38,0,0,1,.11-.14A1.13,1.13,0,0,1,168.77,187.42Zm1.09,5.35.77-4.11-1.82-.34-.77,4.1Z" transform="translate(5.81)"/><path class="cls-6" d="M175.5,189.11c.21-.15.36-.21.44-.19a.26.26,0,0,1,.17.13l.07.1-1,5.13-.1.06a.3.3,0,0,1-.14.06s-.08,0-.13.1a.23.23,0,0,1-.16.13,9,9,0,0,1-1.43-.22l-1.15-.23a.48.48,0,0,1-.27-.12.22.22,0,0,1-.06-.18c0-.06,0-.09-.07-.1a.23.23,0,0,1-.11,0,.27.27,0,0,1,0-.13,1.28,1.28,0,0,1,0-.26c0-.1,0-.27.09-.49l.05-.3a2.69,2.69,0,0,1,.13-.49.37.37,0,0,1,.19-.15.35.35,0,0,1,.19,0c.07,0,.17.1.29.27l.17.24-.09.46-.09.45,1.85.35.82-4.35Z" transform="translate(5.81)"/><path class="cls-6" d="M178,189.12l.63.1.83.15.53.1.4.09a.24.24,0,0,1,.11.08.27.27,0,0,1,.05.22.29.29,0,0,1-.08.14,1.52,1.52,0,0,1-.24.2l-.3.21-.79-.15c-.52-.09-.87-.15-1.05-.16l-.24,0-.29,1.54c.22,0,.56.1,1,.18l1,.18.13.19a1.75,1.75,0,0,1,.11.18.42.42,0,0,1,0,.16.3.3,0,0,1-.06.15l-.16.13-.18.13-.94-.18c-.6-.11-.94-.17-1-.17s-.07,0-.09.1-.07.29-.14.67l-.14.76,2,.39.21.3a1.84,1.84,0,0,1,.18.28.29.29,0,0,1,0,.16.32.32,0,0,1-.1.2.5.5,0,0,1-.26,0l-1.29-.22-.61-.11c-.56-.11-.87-.17-.9-.19s-.06-.07-.06-.15,0-.12-.06-.13-.08,0-.13-.09a.33.33,0,0,1,0-.22c0-.1.07-.44.18-1l.22-1.15.29-.2a.77.77,0,0,0-.1-.15l-.1-.13.22-1.15c.1-.54.16-.87.19-1a.4.4,0,0,1,.11-.22.21.21,0,0,1,.15,0,.07.07,0,0,0,.09-.05s0-.08.11-.13a.29.29,0,0,1,.16,0C177.65,189.07,177.79,189.08,178,189.12Z" transform="translate(5.81)"/><path class="cls-6" d="M182,190.05l.19-.13,1.29.24c.61.12,1,.19,1.11.23a.45.45,0,0,1,.24.1.31.31,0,0,1,0,.24.34.34,0,0,1-.06.16l-.25.19-.29.19-2.08-.39-.77,4.07,1,.19a5.71,5.71,0,0,1,1.1.26,1.41,1.41,0,0,1,.24.3,1.45,1.45,0,0,1,.11.22.42.42,0,0,1,0,.16.29.29,0,0,1-.1.2.49.49,0,0,1-.27,0l-1.11-.2-1.29-.25-.13-.19a.46.46,0,0,1-.11-.26.07.07,0,0,0-.06-.09c-.05,0-.11-.07-.2-.2l-.13-.18.83-4.38.18-.12q.19-.13.27-.12c.05,0,.07,0,.08-.06S181.89,190.13,182,190.05Z" transform="translate(5.81)"/><path class="cls-6" d="M185.83,190.68a17.25,17.25,0,0,1,1.81.3,16.21,16.21,0,0,1,1.8.38.1.1,0,0,1,0,.09q0,.11-.42.39l-.41.28-.85-.16a.64.64,0,0,0,.06.1l.06.1-.84,4.42-.2.17c-.14.1-.23.15-.29.14s-.15-.1-.26-.25l-.15-.23c.09-.49.23-1.23.4-2.21s.31-1.72.41-2.21l.1-.07.09-.08-.85-.16-.28-.41c-.18-.27-.27-.44-.25-.52A.1.1,0,0,1,185.83,190.68Z" transform="translate(5.81)"/><path class="cls-5" d="M159.39,193.1l1,.17,1.35.23.85.16c.35.07.56.12.65.15a.4.4,0,0,1,.19.13.44.44,0,0,1,.06.36.45.45,0,0,1-.11.23,2.67,2.67,0,0,1-.4.31l-.48.35-1.28-.24c-.84-.16-1.4-.25-1.69-.27l-.39,0-.47,2.49,1.63.28,1.65.29.21.31a1.25,1.25,0,0,1,.17.3.4.4,0,0,1,0,.25.6.6,0,0,1-.1.24,1.4,1.4,0,0,1-.26.21l-.29.21-1.52-.29c-1-.18-1.51-.27-1.66-.27s-.11.05-.14.16-.11.46-.23,1.08l-.23,1.23,3.3.63.34.49a2.13,2.13,0,0,1,.28.44.5.5,0,0,1,0,.27.53.53,0,0,1-.17.31.74.74,0,0,1-.42,0c-.21,0-.9-.14-2.07-.35l-1-.18-1.46-.3c-.06,0-.09-.12-.1-.25s0-.19-.1-.2a.5.5,0,0,1-.2-.15.53.53,0,0,1,0-.36c0-.17.12-.72.29-1.64l.35-1.85.48-.33-.16-.23-.17-.22.35-1.85c.17-.87.27-1.4.32-1.6a.65.65,0,0,1,.17-.35.35.35,0,0,1,.24-.07c.08,0,.13,0,.14-.08s.08-.13.19-.21a.53.53,0,0,1,.26-.06A4.44,4.44,0,0,1,159.39,193.1Z" transform="translate(5.81)"/><path class="cls-5" d="M165,194.58a.46.46,0,0,1,.3-.05q.31.06.66.63l.24.37-1.34,7,3.41.65.27.35c.26.37.37.63.34.79a.49.49,0,0,1-.23.3l-.2.15-4.57-.87-.14-.21a.5.5,0,0,1-.11-.29c0-.06,0-.1-.1-.11s-.14-.08-.19-.2a.82.82,0,0,1,0-.47c0-.23.15-.87.35-1.92l.36-1.93.81-4.13Z" transform="translate(5.81)"/><path class="cls-5" d="M172.23,195.83a.75.75,0,0,1,.51-.2c.12,0,.25.14.42.36l.24.32-1.59,8.39-.34.21a.86.86,0,0,1-.52.18c-.12,0-.25-.14-.41-.37l-.22-.33,1.57-8.34Z" transform="translate(5.81)"/><polygon points="380.17 417.88 377.38 408.75 380.33 405.58 380.48 405.54 372.45 379.29 368.72 380.44 367.57 376.7 363.84 377.84 362.7 374.11 355.23 376.39 354.09 372.66 342.89 376.09 341.75 372.35 334.28 374.64 329.71 359.7 325.98 360.85 324.84 357.11 317.26 359.43 314.67 364.31 314.68 364.34 309.3 370.06 317.29 396.17 308.87 398.74 303.5 404.5 304.68 408.34 306.96 415.81 310.69 414.67 311.84 418.4 315.57 417.26 317.86 424.73 321.59 423.59 323.88 431.05 327.61 429.91 329.89 437.38 333.63 436.24 335.91 443.7 337.05 447.44 370.66 437.16 374.49 435.98 379.87 430.22 377.07 421.09 380.03 417.92 380.17 417.88"/><polygon class="cls-6" points="335.1 433.45 331.37 434.6 329.09 427.13 325.35 428.27 323.07 420.8 319.33 421.95 317.05 414.48 313.32 415.62 312.17 411.89 308.44 413.03 306.01 405.08 310.1 400.7 320.07 397.65 311.81 370.65 317.19 364.91 323.36 359.89 324.5 363.63 328.24 362.49 332.8 377.42 340.27 375.14 341.41 378.87 352.61 375.44 353.75 379.18 361.22 376.89 362.36 380.63 366.1 379.48 367.24 383.22 370.98 382.08 377.95 404.87 374.87 408.17 377.64 417.22 374.57 420.52 377.36 429.64 373.27 434.03 338.53 444.65 335.1 433.45"/><path class="cls-6" d="M362.87,380.51l-1.14-3.74L358,377.91l-1.15-3.73-7.46,2.28-1.14-3.73L337,376.16l-1.14-3.74-7.46,2.29-4.57-14.94-3.74,1.15L319,357.18l-7.47,2.29,1.15,3.73-3.74,1.14L319.21,398l-3.73,1.14-1.14-3.74-11.21,3.43,1.15,3.73.57,1.87,1.71,5.6,3.73-1.14,1.15,3.73,3.73-1.14,2.29,7.47,3.73-1.14,2.28,7.46,3.74-1.14,2.28,7.47,3.73-1.14,2.29,7.46,1.14,3.74,33.6-10.28,3.74-1.14L370.56,419l3.73-1.14-3.42-11.2,3.73-1.14-8-26.14Z" transform="translate(5.81)"/><rect x="315.7" y="362.75" width="3.91" height="46.85" transform="translate(-93.25 109.8) rotate(-17.01)"/><rect x="311.92" y="358.24" width="7.81" height="3.9" transform="translate(-85.74 108.15) rotate(-17.01)"/><rect x="325.19" y="359.58" width="3.9" height="35.14" transform="translate(-90.21 112.21) rotate(-17.01)"/><rect x="328.84" y="373.48" width="7.81" height="3.9" transform="translate(-89.49 113.81) rotate(-17.02)"/><rect x="339.81" y="379.06" width="3.91" height="11.71" transform="translate(-91.74 116.64) rotate(-16.99)"/><rect x="337.36" y="374.36" width="11.71" height="3.9" transform="translate(-89.25 116.84) rotate(-17.01)"/><rect x="352.16" y="379.37" width="3.9" height="11.71" transform="translate(-91.39 120.44) rotate(-17.01)"/><rect x="349.79" y="375.24" width="7.81" height="3.91" transform="translate(-89.04 119.94) rotate(-17.01)"/><rect x="358.48" y="377.26" width="3.9" height="3.9" transform="matrix(0.96, -0.29, 0.29, 0.96, -89.39, 122.1)"/><rect x="366.79" y="379.34" width="3.91" height="27.33" transform="translate(-93.03 125.06) rotate(-17.01)"/><rect x="368.76" y="406.96" width="3.9" height="11.71" transform="translate(-98.78 126.58) rotate(-17.02)"/><rect x="368.45" y="419.3" width="3.91" height="11.71" transform="translate(-102.38 126.99) rotate(-17.01)"/><rect x="335.31" y="432.65" width="35.14" height="3.9" transform="matrix(0.96, -0.29, 0.29, 0.96, -105.88, 122.23)"/><rect x="315.96" y="398.43" width="3.91" height="3.9" transform="translate(-97.32 110.39) rotate(-16.99)"/><rect x="303.45" y="396.98" width="11.71" height="3.9" transform="translate(-97.33 107.88) rotate(-17)"/><rect x="305.33" y="401.77" width="3.91" height="7.81" transform="translate(-99.45 107.67) rotate(-17.01)"/><rect x="310.78" y="408.18" width="3.9" height="3.9" transform="translate(-100.54 109.49) rotate(-17.02)"/><rect x="316.23" y="410.69" width="3.9" height="7.81" transform="matrix(0.96, -0.29, 0.29, 0.96, -101.57, 111.23)"/><rect x="322.24" y="417.01" width="3.9" height="7.81" transform="translate(-103.14 113.25) rotate(-17.01)"/><rect x="328.26" y="423.34" width="3.91" height="7.81" transform="translate(-104.68 115.22) rotate(-17)"/><rect x="334.28" y="429.66" width="3.9" height="7.81" transform="translate(-106.22 117.19) rotate(-16.99)"/><rect class="cls-5" x="414.91" y="287.42" width="47.94" height="47.94" rx="16.47" transform="translate(-41.27 80.26) rotate(-9.92)"/><polygon class="cls-6" points="457.68 309.78 440.14 325.52 437.99 313.22 435.84 300.93 457.68 309.78"/><g class="cls-19"><path class="cls-20" d="M307.86,637.69c-3.69-2.16-11.53-6.87-22.41-13.49l-.19-.12L275,617.78l-.26-.16-5.67-3.49-.25-.16C204,573.2,84.26,493.11,29.33,454.14l-.18-.13-4.53-3.28-.18-.13-10.78-7.86-.13-.1c-9.35-6.87-14.74-10.85-14.74-10.85l2.63-1.22.85-.39,3.47-1.61.8-.38,3.4-1.58.7-.32,3.77-1.76,1.05-.49,2.87-1.34,1.17-.55L24,420.07l1.16-.55,3.53-1.65,1.37-.65,3.63-1.7.63-.3h0L37,413.94l.89-.42,2.36-1.11.92-.43,2.14-1,.62-.29,1.77-.84.77-.36.17.1c1.48.92,4.51,3,8.82,5.93l.22.15L60.51,419l.24.16,2.83,2h0l.26.18C109.32,452.34,232,533.85,280.15,566l.45.29,2.37,1.56.45.3c2.27,1.5,4.33,2.87,6.15,4.1l1.78,1.2c4.65,3.17,7.35,5.16,7.62,5.7l0,0a8.88,8.88,0,0,1,.52,1.36A18.15,18.15,0,0,1,300,583l.06.37c.05.4.11.81.17,1.21l.33,2.32c.07.52.15,1,.22,1.56.13.87.25,1.74.38,2.61h0c.06.46.13.93.19,1.39.2,1.37.4,2.74.59,4.11.09.61.18,1.22.26,1.82l.57,4c.08.57.17,1.14.25,1.71l.69,4.86c.08.54.16,1.07.23,1.6.16,1.09.32,2.18.47,3.27.08.52.15,1.05.23,1.57.19,1.35.39,2.69.58,4,.07.46.13.93.2,1.39.18,1.21.35,2.41.52,3.62.07.46.14.92.2,1.38.18,1.23.36,2.46.53,3.69.07.45.14.91.2,1.36.2,1.41.41,2.81.61,4.21.09.6.17,1.19.26,1.79C307.77,637.11,307.82,637.4,307.86,637.69Z" transform="translate(5.81)"/><path class="cls-21" d="M309.46,585.18c.1-.18-.43-.79-1.42-1.59a24.21,24.21,0,0,0-4.14-2.6,22.78,22.78,0,0,0-4.48-1.72c-1.2-.3-2-.34-2-.14-.12.43,2.63,1.62,5.91,3.28S309.25,585.56,309.46,585.18Z" transform="translate(5.81)"/><path class="cls-21" d="M308.69,587.17c.1-.42-2.4-1.42-5.42-2.76s-5.45-2.5-5.65-2.12c-.1.19.4.73,1.31,1.41a20.6,20.6,0,0,0,3.8,2.15,20,20,0,0,0,4.12,1.34C307.94,587.39,308.64,587.38,308.69,587.17Z" transform="translate(5.81)"/><path class="cls-21" d="M308.85,590.88c.11-.43-2.26-1.44-5.15-2.69s-5.24-2.26-5.43-1.88c-.09.19.38.7,1.26,1.33a21,21,0,0,0,3.64,2,19.37,19.37,0,0,0,3.92,1.25C308.13,591.09,308.8,591.08,308.85,590.88Z" transform="translate(5.81)"/><path class="cls-21" d="M309.82,595.67c.16-.4-2.07-1.81-5-3.15s-5.36-2.11-5.51-1.71,2.06,1.81,4.95,3.15S309.67,596.06,309.82,595.67Z" transform="translate(5.81)"/><path class="cls-21" d="M308.8,600.37c.12-.42-2.25-1.52-5.12-3s-5.19-2.64-5.4-2.27c-.1.18.35.73,1.21,1.43a19.55,19.55,0,0,0,3.59,2.26,19.06,19.06,0,0,0,3.94,1.48C308.06,600.56,308.74,600.58,308.8,600.37Z" transform="translate(5.81)"/><path class="cls-21" d="M309.84,605.87c.1-.43-2.09-1.29-4.71-2.47s-4.74-2.23-4.95-1.85c-.1.18.31.69,1.09,1.32a15.58,15.58,0,0,0,3.3,2,15,15,0,0,0,3.64,1.13C309.17,606.12,309.8,606.07,309.84,605.87Z" transform="translate(5.81)"/><path class="cls-21" d="M311.91,612c.08-.43-2.49-1.31-5.64-2.33s-5.75-1.81-5.91-1.4,2.24,1.85,5.47,2.89S311.83,612.45,311.91,612Z" transform="translate(5.81)"/><path class="cls-21" d="M312,617.35c.12-.41-2.06-1.43-4.77-2.53s-5-1.85-5.14-1.46,1.86,1.81,4.63,2.92S311.85,617.76,312,617.35Z" transform="translate(5.81)"/><path class="cls-21" d="M312.21,623.07c.15-.4-1.62-1.56-4-2.59s-4.35-1.55-4.5-1.15,1.61,1.56,3.95,2.59S312.06,623.47,312.21,623.07Z" transform="translate(5.81)"/><path class="cls-21" d="M314.89,629.83c.19-.37-2-2.08-5-3.66s-5.54-2.41-5.7-2,2.13,1.86,5.06,3.42S314.69,630.22,314.89,629.83Z" transform="translate(5.81)"/><path class="cls-21" d="M316,634.86c.19-.38-2.1-2.14-5.21-3.7s-5.82-2.33-6-1.93,2.28,1.79,5.34,3.34S315.77,635.24,316,634.86Z" transform="translate(5.81)"/><path class="cls-21" d="M313.79,638.7c.13-.42-1.91-1.49-4.43-2.75s-4.59-2.22-4.8-1.85c-.1.19.29.67,1,1.29a18.08,18.08,0,0,0,3.15,2,17.3,17.3,0,0,0,3.44,1.3C313.12,638.89,313.72,638.9,313.79,638.7Z" transform="translate(5.81)"/><path class="cls-21" d="M34.85,403.19c-.2.4,1.94,2.06,4.44,4.28s4.48,4.14,4.76,3.8c.13-.16-.2-.86-.88-1.82a20.66,20.66,0,0,0-3-3.3,18.3,18.3,0,0,0-3.55-2.48C35.62,403.17,35,403,34.85,403.19Z" transform="translate(5.81)"/><path class="cls-21" d="M37.76,402.47c-.2.41,1.94,2.07,4.44,4.28s4.48,4.15,4.76,3.81c.14-.16-.19-.86-.88-1.82a20.2,20.2,0,0,0-3-3.3A18.3,18.3,0,0,0,39.51,403C38.53,402.45,37.86,402.28,37.76,402.47Z" transform="translate(5.81)"/><path class="cls-21" d="M33.63,405c-.14.15.11.82.68,1.73a18,18,0,0,0,2.57,3.14A15.9,15.9,0,0,0,40,412.26c.87.5,1.47.68,1.58.49.21-.39-1.61-2.05-3.77-4.17S33.92,404.65,33.63,405Z" transform="translate(5.81)"/><path class="cls-21" d="M30.74,406.81c-.13.16.11.79.65,1.65a17.47,17.47,0,0,0,2.43,3,16.12,16.12,0,0,0,2.91,2.34c.81.48,1.38.66,1.49.48.23-.39-1.45-2-3.49-4.09S31,406.48,30.74,406.81Z" transform="translate(5.81)"/><path class="cls-21" d="M26.72,408.47c-.25.36,1.26,2.26,3.37,4.24s4,3.31,4.28,3-1.28-2.25-3.39-4.24S27,408.12,26.72,408.47Z" transform="translate(5.81)"/><path class="cls-21" d="M23.49,412c-.13.16.13.78.71,1.62a16.25,16.25,0,0,0,2.6,2.87,15,15,0,0,0,3.08,2.15c.86.43,1.46.56,1.56.37.21-.4-1.61-1.91-3.77-3.83S23.77,411.61,23.49,412Z" transform="translate(5.81)"/><path class="cls-21" d="M18.88,413.92c-.14.15.05.76.52,1.57a13.82,13.82,0,0,0,2.21,2.77,12.09,12.09,0,0,0,2.75,2c.78.4,1.32.5,1.43.31.21-.4-1.4-1.79-3.27-3.61S19.18,413.6,18.88,413.92Z" transform="translate(5.81)"/><path class="cls-21" d="M13.37,415.31c-.29.29.88,2.74,2.87,5.17s4,3.88,4.25,3.53-1.31-2.34-3.26-4.72S13.67,415,13.37,415.31Z" transform="translate(5.81)"/><path class="cls-21" d="M9.24,418.11c-.27.32.88,2.34,2.75,4.3s3.72,3.09,4,2.73-1.18-2.06-3-4S9.53,417.78,9.24,418.11Z" transform="translate(5.81)"/><path class="cls-21" d="M4.72,420.93c-.25.36.87,1.94,2.52,3.55s3.19,2.61,3.45,2.26-.88-1.94-2.53-3.54S5,420.58,4.72,420.93Z" transform="translate(5.81)"/><path class="cls-21" d="M-1.49,422.09c-.23.39,1.49,2.08,3.76,3.94s4.24,3.2,4.49,2.84-1.33-2.29-3.63-4.17S-1.27,421.72-1.49,422.09Z" transform="translate(5.81)"/><path class="cls-21" d="M-5.79,423.79c-.23.39,1.56,2.13,3.85,4.12s4.26,3.48,4.53,3.12S1.28,428.6-1,426.59-5.57,423.42-5.79,423.79Z" transform="translate(5.81)"/><path class="cls-22" d="M66.5,423.15c0-.06-.32,0-.72.1a2.67,2.67,0,0,0-1.32,1.06,2.92,2.92,0,0,0-.42,1.2,7.75,7.75,0,0,0,.07,1.71,2.71,2.71,0,0,1-.16,1.59,1,1,0,0,1-.59.4,2.77,2.77,0,0,1-1,0,22.7,22.7,0,0,1-3-.8c-.55-.17-1.14-.35-1.74-.48a7.25,7.25,0,0,0-.89-.16,8.6,8.6,0,0,0-.86-.08,6.77,6.77,0,0,0-3,.46,3.88,3.88,0,0,0-2,1.76,4.74,4.74,0,0,0-.4,3c.11.61.29,1.21.43,1.77a5.07,5.07,0,0,1,.22,1.49,1.45,1.45,0,0,1-.13.57,1.21,1.21,0,0,1-.32.42,2.08,2.08,0,0,1-1.24.36,9,9,0,0,1-1.83-.18c-.68-.12-1.39-.28-2.13-.46-1.48-.36-3-.76-4.5-1a10.46,10.46,0,0,0-2.14-.1,3.68,3.68,0,0,0-1.73.54,2.6,2.6,0,0,0-1,1.19,4.79,4.79,0,0,0-.32,1.51,20.47,20.47,0,0,0,.15,3.15,13.27,13.27,0,0,1,.08,2.78,3.23,3.23,0,0,1-.28,1.09,1.87,1.87,0,0,1-.64.75,3.44,3.44,0,0,1-2.23.43,17.49,17.49,0,0,1-2.86-.58l-2.85-.81a25.7,25.7,0,0,0-2.57-.59,8.34,8.34,0,0,0-3.57.11,4.28,4.28,0,0,0-1.62.8c-.29.26-.38.44-.32.49s.28,0,.67-.16a8.13,8.13,0,0,1,1.83-.45,9.89,9.89,0,0,1,3.45.18c.74.16,1.56.4,2.45.68s1.87.62,2.9.93a18.2,18.2,0,0,0,3.24.76,4.59,4.59,0,0,0,2.94-.44,2.38,2.38,0,0,0,.88-.93,4,4,0,0,0,.4-1.27,13.73,13.73,0,0,0,0-2.94,19.91,19.91,0,0,1-.09-3,2.61,2.61,0,0,1,1-2.13,2.84,2.84,0,0,1,1.29-.38,9.16,9.16,0,0,1,1.76.1c1.29.18,2.75.56,4.27.93.75.18,1.52.36,2.28.5a10.91,10.91,0,0,0,2.24.2,3.08,3.08,0,0,0,1.82-.57,1.79,1.79,0,0,0,.49-.67,2.17,2.17,0,0,0,.19-.86,6.62,6.62,0,0,0-.29-1.86c-.16-.6-.33-1.17-.43-1.67a4,4,0,0,1,.26-2.54,3.26,3.26,0,0,1,1.61-1.54,5.58,5.58,0,0,1,2.48-.47,5.65,5.65,0,0,1,.71,0,6.13,6.13,0,0,1,.73.11,14.52,14.52,0,0,1,1.55.38,21.88,21.88,0,0,0,3.21.76,3.48,3.48,0,0,0,1.39-.09,1.42,1.42,0,0,0,.83-.67,2.12,2.12,0,0,0,.17-1,8.2,8.2,0,0,0-.12-1A9,9,0,0,1,65,426a3.16,3.16,0,0,1,.2-1.18,3.37,3.37,0,0,1,.9-1.26C66.4,423.33,66.56,423.21,66.5,423.15Z" transform="translate(5.81)"/><path class="cls-22" d="M280.76,621.33c.08,0,0-.23-.14-.7s-.42-1.18-.65-2a6.68,6.68,0,0,1-.22-1.35,2.43,2.43,0,0,1,.26-1.31,1.83,1.83,0,0,1,.44-.53,2.58,2.58,0,0,1,.72-.39,16.62,16.62,0,0,1,2.09-.53,7.93,7.93,0,0,0,1.18-.33,2.7,2.7,0,0,0,1-.61,1.79,1.79,0,0,0,.5-1.07,3.38,3.38,0,0,0-.23-1.47,15.24,15.24,0,0,0-2-3.37c-.82-1.13-1.72-2.28-2.53-3.4a12.88,12.88,0,0,1-1.8-3.2,2.08,2.08,0,0,1,.43-2.29,7.32,7.32,0,0,1,2.46-1.35,13,13,0,0,0,2.92-1.38,3,3,0,0,0,1-1.17,2.43,2.43,0,0,0,.22-.78c0-.14,0-.29,0-.43a3.73,3.73,0,0,0,0-.46,6.45,6.45,0,0,0-.7-2,15.16,15.16,0,0,0-1.31-2.07c-1-1.36-2.15-2.65-3.27-3.89s-2.22-2.42-3.22-3.55a30.42,30.42,0,0,1-2.54-3.25c-.17-.25-.3-.5-.45-.74s-.27-.49-.36-.71a5.17,5.17,0,0,1-.41-1.29,3,3,0,0,1,0-1.08,2.89,2.89,0,0,1,.32-.91,5,5,0,0,1,1.2-1.4c.47-.39,1-.74,1.46-1.07a14.32,14.32,0,0,0,1.28-1,3.94,3.94,0,0,0,1.29-2.21,3.63,3.63,0,0,0,0-.56,2.32,2.32,0,0,0-.05-.53,4,4,0,0,0-.28-.9,1.89,1.89,0,0,0-.51-.81c-.08,0,0,.22.06.65a3.64,3.64,0,0,1,0,.76,1.65,1.65,0,0,1-.06.43,2.92,2.92,0,0,1-.13.46,4.13,4.13,0,0,1-1.57,1.82c-.41.29-.88.57-1.4.87a18,18,0,0,0-1.63,1,5.32,5.32,0,0,0-1.46,1.42,3.29,3.29,0,0,0-.44,1,3.45,3.45,0,0,0-.06,1.3,6.18,6.18,0,0,0,.44,1.56,9.07,9.07,0,0,0,.4.84,9.83,9.83,0,0,0,.51.87,31.61,31.61,0,0,0,2.71,3.59c1,1.2,2.13,2.4,3.2,3.61a44.47,44.47,0,0,1,3,3.6,7.88,7.88,0,0,1,1.6,3.26,2.18,2.18,0,0,1-1,2.21,13.41,13.41,0,0,1-2.74,1.3,7.67,7.67,0,0,0-2.68,1.53,2.57,2.57,0,0,0-.67,1.31,3.57,3.57,0,0,0,.19,1.76,15,15,0,0,0,2.18,3.77c.88,1.2,1.81,2.35,2.61,3.42a13.71,13.71,0,0,1,1.8,2.92,2.64,2.64,0,0,1,.23,1.12,1.39,1.39,0,0,1-.31.82,2,2,0,0,1-.77.54,8.51,8.51,0,0,1-1,.36,12.44,12.44,0,0,0-2.06.68,2.92,2.92,0,0,0-.77.53,2.1,2.1,0,0,0-.43.69,3.13,3.13,0,0,0-.08,1.61,7.42,7.42,0,0,0,.44,1.52,16.68,16.68,0,0,0,1.1,2.21A2.74,2.74,0,0,0,280.76,621.33Z" transform="translate(5.81)"/><path class="cls-22" d="M82.26,434.08c-.26-.22-2.64,1.3-6.38,3.84l-6.59,4.47-8.15,5.44-8.28,5.36L46,457.54c-3.9,2.48-6.25,4.07-6,4.31s3-1,7.24-3.15c2.1-1.09,4.55-2.45,7.22-4s5.51-3.33,8.43-5.25,5.62-3.81,8-5.58,4.5-3.4,6.22-4.82C80.58,436.21,82.51,434.3,82.26,434.08Z" transform="translate(5.81)"/><path class="cls-22" d="M49.78,468.82c.51.44,9.54-6.12,20.1-14.64s18.48-15.79,18-16.23S78.5,444.07,68,452.6,49.27,468.39,49.78,468.82Z" transform="translate(5.81)"/><path class="cls-22" d="M258.91,607.85c.33.15.63-2.81.91-7.69s.56-11.66.86-19.16.54-14.29.65-19.24.05-8.07-.27-8.23-.84,2.67-1.36,7.42-1.05,11.42-1.35,18.93-.33,14.42-.19,19.5S258.59,607.7,258.91,607.85Z" transform="translate(5.81)"/><path class="cls-22" d="M246.92,600.37c.32.16,1.17-2.49,2.18-7s2.17-10.77,3.13-17.89S253.74,561.81,254,557s.17-8-.14-8.12-.83,2.66-1.48,7.3-1.49,11.09-2.44,18.2-1.86,13.54-2.46,18.22S246.6,600.19,246.92,600.37Z" transform="translate(5.81)"/><path class="cls-22" d="M98.17,469.24a18.61,18.61,0,0,0,1.43,2.37c.49.77,1.16,1.74,2,2.88.4.56.81,1.18,1.28,1.83s1,1.36,1.52,2.09c4.31,5.92,11.13,14.44,20.05,24.89,4.49,5.23,9.51,10.94,14.86,17.06,1.35,1.53,2.69,3.09,4.08,4.68a31.25,31.25,0,0,0,2.36,2.51,17.91,17.91,0,0,0,1.52,1.27,16.3,16.3,0,0,0,1.74,1.1,30.35,30.35,0,0,0,3.33,1.51l3.15,1.26,6.44,2.54c17.45,6.81,36.69,13.87,56.83,20.64l5.23,1.75-4.2-4.54-2.69-2.91-2.68-2.88-2.67-2.87q-5.32-5.7-10.52-11.2c-6.9-7.33-13.62-14.37-20.08-21.05-1.62-1.67-3.17-3.31-4.82-5a50.39,50.39,0,0,0-5.42-4.76,33.25,33.25,0,0,0-3.08-2c-1-.6-2.07-1.12-3.08-1.6-2-.95-3.91-1.69-5.75-2.49l-1.38-.59-1.37-.6c-.91-.41-1.81-.8-2.7-1.21-1.79-.82-3.54-1.62-5.27-2.43-3.43-1.6-6.73-3.18-9.88-4.68-6.27-3-11.94-5.71-16.9-8s-9.21-4.2-12.67-5.66c-.87-.37-1.68-.69-2.45-1s-1.48-.61-2.14-.85l-1.82-.69c-.56-.2-1.06-.4-1.51-.54a19.58,19.58,0,0,0-2.69-.83,26.19,26.19,0,0,0,2.76,1.14c.44.17.95.39,1.51.62l1.82.76c.66.26,1.37.59,2.14.91s1.57.68,2.43,1.07c3.45,1.54,7.69,3.51,12.63,5.88s10.61,5.15,16.89,8.22c3.15,1.53,6.45,3.14,9.91,4.78,1.73.83,3.5,1.65,5.3,2.49l2.74,1.24,1.39.62,1.4.61c1.89.84,3.77,1.58,5.63,2.48a30,30,0,0,1,5.41,3.2,44.66,44.66,0,0,1,4.91,4.36c1.56,1.57,3.13,3.23,4.73,4.9,6.39,6.67,13.06,13.69,19.92,21q5.16,5.47,10.45,11.17l2.66,2.86,2.67,2.87,2.68,2.9,1.2,1.31h0l-1.13-.38c-20.07-6.75-39.22-13.74-56.6-20.46l-6.41-2.5-3.14-1.24a26.52,26.52,0,0,1-2.88-1.29A10.39,10.39,0,0,1,148,528a12.76,12.76,0,0,1-1.15-.94,29.92,29.92,0,0,1-2.11-2.23c-1.39-1.58-2.77-3.15-4.13-4.68-5.44-6.12-10.48-11.82-15-17-9.05-10.4-16-18.86-20.51-24.73l-1.58-2.08c-.51-.65-.94-1.26-1.36-1.83-.84-1.13-1.56-2.09-2.1-2.86A25.85,25.85,0,0,0,98.17,469.24Z" transform="translate(5.81)"/><path class="cls-22" d="M127.31,491.69a8.8,8.8,0,0,0,.74,1.19c.26.39.6.87,1,1.44s.89,1.23,1.44,2c2.22,3,5.71,7.24,10.25,12.49,2.27,2.62,4.81,5.48,7.5,8.55l2.05,2.35a16.81,16.81,0,0,0,1.19,1.25,6.93,6.93,0,0,0,.76.64,7.53,7.53,0,0,0,.87.56,14.73,14.73,0,0,0,1.67.75l1.57.63,3.21,1.28c8.69,3.41,18.25,7,28.22,10.35l2.58.88-2.05-2.28L187,532.28l-2.63-2.88q-2.61-2.86-5.18-5.62c-3.41-3.68-6.75-7.21-10-10.56-.81-.83-1.58-1.66-2.41-2.48a22.67,22.67,0,0,0-2.72-2.39,15.09,15.09,0,0,0-1.54-1c-.52-.3-1-.57-1.55-.8-1-.48-2-.85-2.89-1.25-1.86-.8-3.67-1.62-5.4-2.43s-3.41-1.59-5-2.34c-3.17-1.51-6.05-2.87-8.57-4s-4.68-2.11-6.44-2.84l-1.24-.51-1.09-.42c-.68-.25-1.25-.47-1.7-.62a14,14,0,0,0-1.37-.42,12,12,0,0,0,1.41.58c.45.17,1,.42,1.69.69.34.13.7.29,1.09.46l1.24.53c1.76.77,3.91,1.76,6.42,2.95s5.38,2.58,8.56,4.12c1.59.77,3.26,1.58,5,2.4s3.57,1.67,5.46,2.49c.95.42,1.89.79,2.83,1.24a15.08,15.08,0,0,1,2.72,1.61,21,21,0,0,1,2.46,2.18c.78.79,1.56,1.62,2.36,2.46,3.18,3.34,6.5,6.87,9.89,10.53,1.7,1.84,3.41,3.71,5.15,5.61l2.61,2.87c.44.49.88,1,1.31,1.46l.59.65h0l-.55-.19c-9.94-3.39-19.46-6.89-28.12-10.26l-3.2-1.26-1.56-.62a12.16,12.16,0,0,1-1.45-.64,5.59,5.59,0,0,1-1.19-.87c-.37-.34-.71-.72-1.06-1.11l-2.08-2.35-7.6-8.54c-4.6-5.22-8.16-9.46-10.47-12.4-.57-.74-1.09-1.39-1.51-2s-.81-1.05-1.09-1.44A11.76,11.76,0,0,0,127.31,491.69Z" transform="translate(5.81)"/><path class="cls-22" d="M142.62,503.3c4.06,1.35,11.37,5.22,15.52,6.95a11.76,11.76,0,0,1,2,1,12.53,12.53,0,0,1,2.17,1.92q5.37,5.63,10.42,11.32-8.3-2.84-16.69-6.19a4.93,4.93,0,0,1-1-.51,5,5,0,0,1-1-.95c-3.32-3.8-8.49-9.37-11.4-13.54Z" transform="translate(5.81)"/><path class="cls-22" d="M106.52,469.23c.2-.06.15-.34,0-.73a8.67,8.67,0,0,0-.93-1.44,12.26,12.26,0,0,0-1.26-1.42,2.27,2.27,0,0,0-1-.65c-.25,0-.34.2-.24.6a4.86,4.86,0,0,0,.87,1.6,8.68,8.68,0,0,0,1.54,1.55C105.94,469.11,106.33,469.29,106.52,469.23Z" transform="translate(5.81)"/><path class="cls-22" d="M116.75,473.3c.28.07.44-.12.43-.49a3.67,3.67,0,0,0-.55-1.6,7.76,7.76,0,0,0-1.3-1.69,2.07,2.07,0,0,0-1.09-.69c-.24,0-.27.26-.17.65a6.76,6.76,0,0,0,.66,1.49,10.84,10.84,0,0,0,1,1.54A2.44,2.44,0,0,0,116.75,473.3Z" transform="translate(5.81)"/><path class="cls-22" d="M129.18,478.83c.55.11.5-.84-.21-2.14s-1.78-2.4-2.29-2.45-.31.93.36,2.16S128.63,478.71,129.18,478.83Z" transform="translate(5.81)"/><path class="cls-22" d="M143.16,484.7a.37.37,0,0,0,.53-.31,2.11,2.11,0,0,0-.29-1.24,5.29,5.29,0,0,0-1-1.37,2,2,0,0,0-1-.61c-.25,0-.36.17-.34.46a3,3,0,0,0,.37,1.14,5.8,5.8,0,0,0,.82,1.24A2.2,2.2,0,0,0,143.16,484.7Z" transform="translate(5.81)"/><path class="cls-22" d="M155.11,490.85c.58.18.74-.61.36-1.76a4,4,0,0,0-1.75-2.4c-.58-.19-.74.6-.36,1.75A4,4,0,0,0,155.11,490.85Z" transform="translate(5.81)"/><path class="cls-22" d="M162.46,541.38c.27,0,.38-.18.29-.56a4.58,4.58,0,0,0-.84-1.53,8.36,8.36,0,0,0-1.51-1.52,1.9,1.9,0,0,0-1.11-.52c-.21,0-.2.31,0,.68a6.84,6.84,0,0,0,.88,1.4,11.79,11.79,0,0,0,1.26,1.39A2.39,2.39,0,0,0,162.46,541.38Z" transform="translate(5.81)"/><path class="cls-22" d="M175.37,546.09c.28,0,.44-.1.42-.42a2.84,2.84,0,0,0-.61-1.3,6.62,6.62,0,0,0-1.31-1.33,1.69,1.69,0,0,0-1-.44c-.22,0-.24.26-.13.57a4.38,4.38,0,0,0,.65,1.16,7.87,7.87,0,0,0,1,1.16A2.46,2.46,0,0,0,175.37,546.09Z" transform="translate(5.81)"/><path class="cls-22" d="M189.52,550.52c.29.08.48,0,.51-.33a2.3,2.3,0,0,0-.49-1.25,5.88,5.88,0,0,0-1.27-1.31,1.68,1.68,0,0,0-1-.43c-.21,0-.24.26-.16.55a4.07,4.07,0,0,0,.56,1.06,6.16,6.16,0,0,0,.92,1.09A2.3,2.3,0,0,0,189.52,550.52Z" transform="translate(5.81)"/><path class="cls-22" d="M206.94,556.85c.29.06.46-.07.45-.38a2.6,2.6,0,0,0-.64-1.31,6.1,6.1,0,0,0-1.41-1.31c-.46-.31-.84-.44-1-.37s-.18.3,0,.61a4.86,4.86,0,0,0,.68,1.08,7.48,7.48,0,0,0,1,1.08A2.45,2.45,0,0,0,206.94,556.85Z" transform="translate(5.81)"/><path class="cls-22" d="M220.23,561.86c.3.08.49-.05.52-.32a2.07,2.07,0,0,0-.37-1.19A5.56,5.56,0,0,0,219.3,559a2.11,2.11,0,0,0-1-.57c-.27,0-.38.15-.36.43a2.93,2.93,0,0,0,.42,1.11,6,6,0,0,0,.92,1.2A2.44,2.44,0,0,0,220.23,561.86Z" transform="translate(5.81)"/><path class="cls-22" d="M189.62,511.72a5.07,5.07,0,0,0-2.86-1.12c-1.27-.18-2.19-.06-2,.42a2.26,2.26,0,0,0,1.05.76,7.23,7.23,0,0,0,1.94.57,3.35,3.35,0,0,0,1.57-.05C189.68,512.18,189.79,512,189.62,511.72Z" transform="translate(5.81)"/><path class="cls-22" d="M198.9,522.05a3.72,3.72,0,0,0-2.19-1.31c-1-.25-1.65-.08-1.44.39a3.65,3.65,0,0,0,2.18,1.31C198.46,522.69,199.1,522.52,198.9,522.05Z" transform="translate(5.81)"/><path class="cls-22" d="M207.51,533.14a2.35,2.35,0,0,0-.77-.72,5.35,5.35,0,0,0-1.18-.56,3.43,3.43,0,0,0-1.09-.23c-.28,0-.49.07-.5.26s.2.47.57.77a5.17,5.17,0,0,0,1.46.79,2.45,2.45,0,0,0,1.29.18C207.56,533.55,207.64,533.37,207.51,533.14Z" transform="translate(5.81)"/><path class="cls-22" d="M216.94,543a3.59,3.59,0,0,0-2.12-1.28c-.95-.23-1.55,0-1.34.43a3.5,3.5,0,0,0,2.12,1.27C216.55,543.6,217.15,543.42,216.94,543Z" transform="translate(5.81)"/><path class="cls-22" d="M225.86,551.84a4.32,4.32,0,0,0-2.62-1.35c-1.23-.24-1.92,0-1.6.54a4.49,4.49,0,0,0,2.54,1.19C225.28,552.43,226.06,552.31,225.86,551.84Z" transform="translate(5.81)"/><path class="cls-22" d="M97.38,475.85a1.85,1.85,0,0,0-.83-.72,4.2,4.2,0,0,0-1.48-.46,1.62,1.62,0,0,0-1.12.17.41.41,0,0,0-.06.62,2.12,2.12,0,0,0,.9.63,4.54,4.54,0,0,0,1.29.34,2.43,2.43,0,0,0,1.06-.07C97.38,476.26,97.49,476.09,97.38,475.85Z" transform="translate(5.81)"/><path class="cls-22" d="M103.09,486a2.56,2.56,0,0,0-1.78-1c-.71-.09-1.06.23-.79.72a2.63,2.63,0,0,0,1.78,1C103,486.79,103.37,486.47,103.09,486Z" transform="translate(5.81)"/><path class="cls-22" d="M111.51,496.81a3.18,3.18,0,0,0-2-1.25c-.91-.21-1.49,0-1.28.47a3.18,3.18,0,0,0,2,1.24C111.14,497.49,111.71,497.28,111.51,496.81Z" transform="translate(5.81)"/><path class="cls-22" d="M122,507.2a2,2,0,0,0-.9-.79,7.1,7.1,0,0,0-1.79-.68,3.61,3.61,0,0,0-1.52-.09c-.34.09-.47.27-.34.51a4.69,4.69,0,0,0,2.61,1.29C121.3,507.72,122.18,507.66,122,507.2Z" transform="translate(5.81)"/><path class="cls-22" d="M131.93,518.94a3.51,3.51,0,0,0-2.31-1.1c-1-.12-1.57.18-1.29.67a3.56,3.56,0,0,0,2.32,1.09C131.65,519.72,132.22,519.43,131.93,518.94Z" transform="translate(5.81)"/></g><g class="cls-23"><polygon class="cls-24" points="303.37 623.98 296.62 619.69 283.39 611.3 264.24 599.13 252.98 587.63 247.44 588.48 244.19 586.41 230.92 577.99 191.6 553.05 178.29 544.62 138.89 519.62 125.58 511.18 86.09 486.13 72.72 477.65 34 453.09 34.23 452.82 38.03 448.39 38.5 447.86 37.79 447.8 25.58 446.89 21.67 444.55 6.83 435.68 60.58 420.92 62.59 422.19 72.84 428.65 103.04 447.72 113.28 454.18 143.43 473.21 153.65 479.66 183.78 498.68 193.98 505.11 224.07 524.11 234.27 530.54 264.3 549.5 274.48 555.93 285.02 562.57 303.37 623.98"/><polygon class="cls-25" points="6.84 435.68 5.81 437.29 24.92 448.4 34.3 448.92 32.84 453.33 247.36 589.84 252.74 589.95 263.31 600.06 300.93 625.4 303.37 623.99 264.24 599.14 252.98 587.63 247.44 588.47 34.01 453.09 38.5 447.87 25.58 446.89 6.84 435.68"/><polygon class="cls-26" points="50.84 438.18 38.5 447.87 25.58 446.89 50.84 438.18"/><polygon class="cls-25" points="247.44 588.47 248.48 566.43 252.98 587.63 247.44 588.47"/><polygon class="cls-25" points="34.01 453.09 50.84 438.18 38.5 447.87 34.01 453.09"/><polygon class="cls-26" points="252.98 587.63 248.48 566.43 264.24 599.14 252.98 587.63"/></g><polygon class="cls-27" points="184.25 527.32 176.15 528.74 183.62 529.83 191.59 527.83 184.25 527.32"/><polygon class="cls-28" points="176.16 528.4 181.79 527.16 182.52 526.16 190 526.54 189.24 528.07 183.91 529.68 176.16 528.4"/><path class="cls-29" d="M232.68,534.83a12.71,12.71,0,0,1-8.42,2.52l-9.39-19.43a30.67,30.67,0,0,0,15-4.49l-.27,4.39,1.24,2.89-.37,4.88,1.16,2.18Z" transform="translate(5.81)"/><ellipse class="cls-30" cx="222.24" cy="515.3" rx="8" ry="1.87" transform="translate(-132.75 85.47) rotate(-16.68)"/><ellipse class="cls-31" cx="222.33" cy="515.59" rx="7.81" ry="1.87" transform="translate(-132.83 85.51) rotate(-16.68)"/><path class="cls-32" d="M230,513.2a.47.47,0,0,0-.12-.2c-.13,1.11-3.16,2.85-7.14,4s-7.46,1.41-8.18.55a.44.44,0,0,0,0,.23c.32,1.09,4,.93,8.29-.34S230.34,514.29,230,513.2Z" transform="translate(5.81)"/><path class="cls-33" d="M222.73,526.46s4.93-.15,7.8-2l-.09,1.17A13.7,13.7,0,0,1,222.73,526.46Z" transform="translate(5.81)"/><path class="cls-34" d="M223.24,519.89a14.05,14.05,0,0,0,6.3-2l.44.94S227.66,520.64,223.24,519.89Z" transform="translate(5.81)"/><path class="cls-35" d="M228.12,522.15s.15,0,2.69-1.44l0,.51A10.46,10.46,0,0,1,228.12,522.15Z" transform="translate(5.81)"/><polygon class="cls-36" points="173.93 468.3 179.38 470.71 180.65 470.17 181.89 470.46 182.06 474.69 185.09 476.15 184.81 479.7 176.47 479.43 175.03 477.19 170.53 478.4 167.93 475.97 171.63 473.79 170.34 472.95 173.93 468.3 173.93 468.3"/><polygon class="cls-37" points="182.06 471.03 181.89 470.46 180.65 470.17 179.38 470.71 173.93 468.3 170.34 472.95 171.63 473.79 170.68 474.35 167.93 475.97 170.32 478.13 171.64 476.29 173.97 475.46 173.64 473.17 179.76 471.87 180.27 471.49 182.06 471.09 182.06 471.03 182.06 471.03"/><path class="cls-36" d="M167.52,475.06l-1.69-1.27-1.25.73C164.65,474.48,167.52,475.06,167.52,475.06Z" transform="translate(5.81)"/><path class="cls-36" d="M174.23,472s-4.24-1.34-4.09-1.19,2.94,2,2.94,2Z" transform="translate(5.81)"/><path class="cls-37" d="M179.29,476.15c-.2-.09-5.55.59-5.55.59s-2.31,2.11-2.3,2.13l1.53-2.59s3.5-.59,3.33-.58a6.28,6.28,0,0,1-1.19-.18,12.7,12.7,0,0,0,1.14-.82Z" transform="translate(5.81)"/><path class="cls-38" d="M80.64,437.6c4.63-4.19,13-7.34,20.92-8A35,35,0,0,0,100.7,440,32.78,32.78,0,0,0,102.22,450c-7.86,1.27-16.41.21-21.27-2.81-4.28.08-17.54,11.33-17.87,1.12l-.18-.5a9.84,9.84,0,0,1,0-6.39h0C62.54,431.23,76.39,438.58,80.64,437.6Z" transform="translate(5.81)"/><polygon class="cls-39" points="109 435.03 109.29 444.28 114.38 443.65 114.09 434.4 109 435.03"/><path class="cls-40" d="M107.9,434.07a14.23,14.23,0,0,0,.32,10l5.09-.63-.32-10Z" transform="translate(5.81)"/><ellipse class="cls-41" cx="113.15" cy="438.45" rx="1.14" ry="5.01" transform="translate(-5.95 3.2) rotate(-1.54)"/><path class="cls-42" d="M105.91,434.64l-.15.69a15.79,15.79,0,0,0,.25,8l.2.65-4,6.07A30.33,30.33,0,0,1,100.64,440a32.59,32.59,0,0,1,.92-10.36Z" transform="translate(5.81)"/><path class="cls-43" d="M81.49,447.52c-.18-.1-.37-.2-.54-.31a4.36,4.36,0,0,0-.88.13,21.27,21.27,0,0,1,.2-9.68,3.58,3.58,0,0,0,.37-.06,23.72,23.72,0,0,1,3.72-2.69C80.09,439.41,81.09,445.72,81.49,447.52Z" transform="translate(5.81)"/><path class="cls-44" d="M210.11,19.26l-5.61,3.09,3.2,5.81,5.59-3.08a7.91,7.91,0,1,0-3.18-5.82Z" transform="translate(5.81)"/><path class="cls-45" d="M210.11,19.26l-5.61,3.09.6,1.1,5.61-3.09a7.9,7.9,0,0,1,14.49-4.88c-.09-.19-.17-.38-.28-.57a7.9,7.9,0,0,0-14.81,4.35Z" transform="translate(5.81)"/><path class="cls-46" d="M202.45,23.41l5-2.75c.15-.09.57.35,1.09,1.1.31.45.65,1,1,1.63a16,16,0,0,1,.94,1.95c.29.7.39,1.19.26,1.27l-5,2.75a2.2,2.2,0,0,1-3-.86l-1.17-2.12A2.19,2.19,0,0,1,202.45,23.41Z" transform="translate(5.81)"/><path class="cls-47" d="M207.35,22.35c.4-.22.8-.42,1.19-.59.31.45.65,1,1,1.63a16,16,0,0,1,.94,1.95,10.72,10.72,0,0,1-1.1.67c-2.81,1.55-5.54,2-6.1,1S204.54,23.9,207.35,22.35Z" transform="translate(5.81)"/><path class="cls-48" d="M216.4,14.48A6,6,0,0,1,224.49,17a5.86,5.86,0,1,1-10.26,5.65A6,6,0,0,1,216.4,14.48Z" transform="translate(5.81)"/><path class="cls-49" d="M220.18,17a3.42,3.42,0,1,1-1.34,4.64A3.41,3.41,0,0,1,220.18,17Z" transform="translate(5.81)"/><path class="cls-50" d="M65,107c-1.31.84-2.75.93-3.21.21l-.49-.78c-.46-.72.24-2,1.56-2.81h0c1.31-.84,2.75-.93,3.21-.21l.49.78c.46.71-.24,2-1.56,2.81Z" transform="translate(5.81)"/><rect class="cls-51" x="53" y="71.19" width="149.69" height="3.08" transform="matrix(0.84, -0.54, 0.54, 0.84, -13.26, 79.86)"/><path class="cls-52" d="M69.6,129.06,52.09,101.48c3.95-2.5,8.27-2.79,9.63-.64l12.56,19.77C75.64,122.77,73.55,126.55,69.6,129.06Z" transform="translate(5.81)"/><path class="cls-53" d="M54.62,100.19a15.11,15.11,0,0,0-2.53,1.29L69.6,129.06a14.32,14.32,0,0,0,2.24-1.74Z" transform="translate(5.81)"/><path class="cls-54" d="M128.77,75.25c-2.24,1.42-4.68,1.58-5.45.36h0c-.78-1.22.41-3.37,2.65-4.79l5.24-3.33c2.24-1.42,4.68-1.58,5.46-.36h0c.77,1.22-.41,3.36-2.65,4.79Z" transform="translate(5.81)"/><path class="cls-55" d="M200.59,8.84A146.16,146.16,0,0,0,208,24.15a144,144,0,0,0,9,14.46c4,5.46,5.51,6.14,6.75,5.46s1.51-2.37-1-8.63a146.11,146.11,0,0,0-7.43-15.3,144.27,144.27,0,0,0-9-14.47C202.4.21,200.83-.46,199.6.22S198.09,2.58,200.59,8.84Zm12.6,12.46c5.31,9.65,8.26,16.87,8.91,19.8C220,39,215.45,32.64,210.14,23s-8.26-16.86-8.91-19.8C203.36,5.3,207.88,11.65,213.19,21.3Z" transform="translate(5.81)"/><path class="cls-56" d="M193.72,32a24.09,24.09,0,0,0,29.43,11c1.43-.79-2.56-10.77-8.9-22.29S201.61.49,200.18,1.28A24.08,24.08,0,0,0,193.72,32Z" transform="translate(5.81)"/><path class="cls-57" d="M193.72,32a24.09,24.09,0,0,0,29.43,11c1.43-.79-2.56-10.77-8.9-22.29S201.61.49,200.18,1.28A24.08,24.08,0,0,0,193.72,32Z" transform="translate(5.81)"/><path class="cls-58" d="M193.72,32a24.24,24.24,0,0,0,2.09,3.18c-3-9,1.11-20,10.11-28.05-2.82-4-5-6.29-5.74-5.87A24.08,24.08,0,0,0,193.72,32Z" transform="translate(5.81)"/><rect x="187.25" y="34.17" width="2.4" height="0.73" transform="translate(254.89 216.27) rotate(-118.83)"/><path class="cls-59" d="M201.49,16.32c3.86-2.12,10,1.68,13.78,8.5s3.67,14.07-.18,16.19-10-1.68-13.78-8.5S197.64,18.44,201.49,16.32Z" transform="translate(5.81)"/><path class="cls-60" d="M184.84,29.16l6.29,11.42a37.37,37.37,0,0,1,6.41-3.53v0c.57-.41-.33-3.19-2-6.29s-3.57-5.35-4.22-5.09v0A37.46,37.46,0,0,1,184.84,29.16Z" transform="translate(5.81)"/><polygon class="cls-61" points="196.84 38.48 201.97 35.65 201.12 33.2 195.19 35.6 196.84 38.48"/><path class="cls-62" d="M184.88,29.16c.62-.35,2.52,1.93,4.26,5.08s2.63,6,2,6.31-2.53-1.93-4.26-5.08S184.26,29.5,184.88,29.16Z" transform="translate(5.81)"/></g></g></g></svg>