<svg xmlns="http://www.w3.org/2000/svg" xmlns:xlink="http://www.w3.org/1999/xlink" viewBox="0 0 600 4883.97"><defs><style>.cls-1{fill:#120a2d;}.cls-2{opacity:0.3;}.cls-3{fill:url(#radial-gradient);}.cls-4{fill:#0c0623;}.cls-10,.cls-11,.cls-12,.cls-4,.cls-5{fill-rule:evenodd;}.cls-5{fill:#0d0723;}.cls-10,.cls-6{fill:#110828;}.cls-7{opacity:0.03;}.cls-8{fill:url(#radial-gradient-2);}.cls-9{fill:url(#radial-gradient-3);}.cls-11{opacity:0;fill:url(#radial-gradient-4);}.cls-12,.cls-13,.cls-14{opacity:0.05;}.cls-12{fill:url(#radial-gradient-5);}.cls-13{fill:url(#radial-gradient-6);}.cls-14{fill:url(#radial-gradient-7);}</style><radialGradient id="radial-gradient" cx="298.93" cy="2789.04" r="890.77" gradientTransform="matrix(0.6, -0.07, 0.01, 0.45, 85.64, 1321.06)" gradientUnits="userSpaceOnUse"><stop offset="0.34" stop-color="#f8e8f0"/><stop offset="0.38" stop-color="#f8d6ef" stop-opacity="0.97"/><stop offset="0.45" stop-color="#f8b2ec" stop-opacity="0.91"/><stop offset="0.49" stop-color="#eba8ec" stop-opacity="0.78"/><stop offset="0.56" stop-color="#d699ed" stop-opacity="0.58"/><stop offset="0.64" stop-color="#c48bee" stop-opacity="0.4"/><stop offset="0.71" stop-color="#b680ee" stop-opacity="0.26"/><stop offset="0.78" stop-color="#aa78ef" stop-opacity="0.14"/><stop offset="0.85" stop-color="#a272ef" stop-opacity="0.06"/><stop offset="0.93" stop-color="#9e6eef" stop-opacity="0.02"/><stop offset="1" stop-color="#9c6def" stop-opacity="0"/></radialGradient><radialGradient id="radial-gradient-2" cx="1615.37" cy="2631.39" r="92.4" gradientTransform="matrix(0.98, 0.21, -0.27, 1.25, -598.73, 635.71)" xlink:href="#radial-gradient"/><radialGradient id="radial-gradient-3" cx="23.63" cy="5278.47" r="126.54" gradientTransform="matrix(0.98, 0.21, -0.27, 1.25, 1812.92, -2226.5)" xlink:href="#radial-gradient"/><radialGradient id="radial-gradient-4" cx="231.49" cy="3564.5" fy="3576.079493272608" r="206.5" gradientTransform="matrix(0.92, -0.36, 0.34, 0.8, -1134.41, 822.09)" xlink:href="#radial-gradient"/><radialGradient id="radial-gradient-5" cx="-77.71" cy="2929.48" fy="2936.758270801105" r="129.85" gradientTransform="matrix(0.98, -0.16, 0.16, 0.85, -89.46, 410.22)" xlink:href="#radial-gradient"/><radialGradient id="radial-gradient-6" cx="373.09" cy="1549.32" r="173.73" gradientTransform="matrix(1, 0, 0, 1, 0, 0)" xlink:href="#radial-gradient"/><radialGradient id="radial-gradient-7" cx="282.23" cy="317.6" r="161.31" gradientTransform="matrix(1, 0, 0, 1, 0, 0)" xlink:href="#radial-gradient"/></defs><g id="Layer_2" data-name="Layer 2"><g id="BG"><rect class="cls-1" width="600" height="4883.97"/><g class="cls-2"><rect class="cls-3" y="2082.19" width="600" height="947.66"/></g><polygon class="cls-4" points="600 1730.69 600 821.15 0 924.1 0 1614.59 600 1730.69"/><polygon class="cls-5" points="600 3027.09 600 2238.26 0 2362.59 0 2888.42 600 3027.09"/><polygon class="cls-5" points="0 3495.01 0 4255.26 600 4320.81 600 3403.78 0 3495.01"/><path class="cls-6" d="M402,49.43s0-.08,0-.12c-.08-.2-.21-.26-.29-.43a4,4,0,0,1-.1-1.32,3.82,3.82,0,0,0-.15-1.17c0-.14-.11-.3-.14-.45s0-.33-.06-.49a5.17,5.17,0,0,0-.3-.74,6.37,6.37,0,0,1-.09-1.35,7.66,7.66,0,0,1-.06-.94l-5.12-.11L386.53,32l-.21-.23-.16-.19a4.53,4.53,0,0,0-.21.32,1.12,1.12,0,0,1-.05.13l0,.07,0,.07a.75.75,0,0,1-.1.17,1,1,0,0,0-.12.19s0,0,0,.08a.45.45,0,0,1-.11.17l0,0s-.05.1-.06.13,0,0,0,0,0,.05-.05.09l-.05.08a.93.93,0,0,1-.05.1l-.25.34-.08,0s0,0,0,0a.31.31,0,0,1-.07.09.07.07,0,0,1-.07,0l-.08.07a.86.86,0,0,0-.13.14,1,1,0,0,0-.08.14.79.79,0,0,1-.15.16.31.31,0,0,0-.1.1c-.12.14,0,.15-.08.26l0,.07,0,0a.09.09,0,0,0,0,.05s-.06,0-.09.06a.35.35,0,0,0-.05.08.41.41,0,0,0-.05.09s0,0,0,0a.25.25,0,0,1-.15.12h-.05l-.07,0c-.05.05-.11.1-.16.16s0,.06-.07.06h-.07s0,0,0,0l-.1.14-.09.13a.16.16,0,0,1,0,.07c-.07.1-.15.14-.23.24a2.12,2.12,0,0,0-.11.21c0,.06,0,.06,0,.1a.27.27,0,0,1,0,.09.69.69,0,0,1-.11.17s0,0,0,.05a.32.32,0,0,1,0,.09l0,0,0,.06a.76.76,0,0,1-.08.11c-.05,0-.06-.05-.08-.09l0,.05a.47.47,0,0,0-.06.09.45.45,0,0,1-.09.1s0,0,0,0-.18.12-.27.19,0,0-.06,0,0,0,0-.06l-.11.14.34.39.21.23L386,42.11,203.32,38.32l-2.42,0-2,0a7.66,7.66,0,0,0,.06.94,6.37,6.37,0,0,0,.09,1.35,4.87,4.87,0,0,1,.3.75c0,.15,0,.33.06.48s.1.31.14.45a3.82,3.82,0,0,1,.15,1.17c0,.28,0,.61,0,.9h-.86c0,.26.05.66.06.94a6.37,6.37,0,0,0,.09,1.35,4,4,0,0,1,.3.75c0,.15,0,.33.06.48a3.39,3.39,0,0,0,.15.45,4.15,4.15,0,0,1,.15,1.17,4,4,0,0,0,.09,1.32c.08.17.22.23.29.43a3.45,3.45,0,0,1,.06,1.22.43.43,0,0,1,.06-.24c.13,0,.14.56.18.8a1.62,1.62,0,0,1,0,.19.67.67,0,0,1-.34.44c-.15.13-.17.29-.24.64a6.46,6.46,0,0,0-.14,1.19c0,.38,0,.6.07,1a2.72,2.72,0,0,1-.2,1.35,2.7,2.7,0,0,0-.22.87c0,.9.31.89.57,1.17a2.22,2.22,0,0,0-.13.49,6.38,6.38,0,0,0-.13,1.19,7.48,7.48,0,0,0,.07,1,2.83,2.83,0,0,1-.21,1.35,2.71,2.71,0,0,0-.21.87,1.47,1.47,0,0,0,.08.66c-.08.32-.15.65-.2,1s0,.46-.19.6-.13,0-.21.06a1.54,1.54,0,0,1-.28.19.28.28,0,0,0-.24.06,5.55,5.55,0,0,0,0,.71L192.78,62l-.1.14s0,0-.06-.06,0,0-.06,0-.23.23-.27.18,0,0,0,0a.36.36,0,0,0-.08.09l-.06.1a.12.12,0,0,0-.05.05s0-.09-.08-.09a.32.32,0,0,0-.08.12.08.08,0,0,0,0,.05s0,0,0,0a.16.16,0,0,0,0,.09s0,0,0,.05-.09.12-.1.18a.21.21,0,0,0,0,.08s0,0,0,.1a1.5,1.5,0,0,1-.11.22c-.07.1-.15.13-.23.24l0,.06-.09.14a1.71,1.71,0,0,1-.11.14s0,0,0,0h-.07s0,0-.07.06-.11.11-.16.16a.19.19,0,0,1-.07.06h-.05a.3.3,0,0,0-.15.12s0,0,0,0,0,.06,0,.09a.35.35,0,0,1-.05.08s-.05,0-.08.07,0,0,0,0,0,0,0,0a.13.13,0,0,0,0,.07c0,.11,0,.12-.08.27a.41.41,0,0,1-.1.09.89.89,0,0,0-.15.17.91.91,0,0,1-.08.13.64.64,0,0,1-.13.15s-.05.06-.08.07a.07.07,0,0,0-.07,0l-.07.09s0,0,0,.06l-.08,0-.24.33-.05.1,0,.09a.41.41,0,0,0-.05.09s0,0,0,0-.07.12-.06.13l0,0a.58.58,0,0,0-.11.18s0,0,0,.08a1,1,0,0,1-.12.19l-.1.17a.16.16,0,0,1,0,.08l0,.07s0,.08,0,.12a1.06,1.06,0,0,1-.12.2s-.06.1-.09.13l9.56,10.52c.06.34.15.67.21,1v.06a10.9,10.9,0,0,0-.64,1.86c-.15.41-.18.31-.41.29a1.67,1.67,0,0,0-.63,0c0,.36,0,.72,0,1.08h0l2.67,6,4,.06,2.42,0,1.78,0,5.28,5.82.21.23.17.18a.57.57,0,0,0,.08-.13,1.45,1.45,0,0,0,.12-.19.69.69,0,0,1,.05-.13l0-.07,0-.08a1.06,1.06,0,0,1,.1-.17,1,1,0,0,0,.12-.19s0-.05,0-.08a1.63,1.63,0,0,1,.11-.17s0,0,0,0,0-.1.06-.14,0,0,0,0a.7.7,0,0,0,.06-.09.3.3,0,0,1,0-.08.53.53,0,0,1,.06-.1l.24-.34.08,0s0,0,0-.06l.07-.08a.1.1,0,0,1,.08,0s0,0,.08-.06l.12-.15a1.1,1.1,0,0,0,.09-.14.39.39,0,0,1,.15-.16l.1-.1c.11-.15,0-.16.07-.26l0-.08,0,0a.08.08,0,0,0,0,0c0-.06.06,0,.09-.07a.3.3,0,0,0,0-.08.14.14,0,0,0,0-.09l0,0a.33.33,0,0,1,.16-.13s0,0,0,0l.07,0,.15-.16s.05-.07.08-.07h.06l0,0,.1-.14.09-.14a.25.25,0,0,1,0-.07c.07-.1.15-.14.22-.24a1.19,1.19,0,0,0,.12-.22.12.12,0,0,0,0-.09V90a.87.87,0,0,1,.11-.18s0,0,0,0a.41.41,0,0,1,0-.08s0,0,0,0a.14.14,0,0,0,0-.06.31.31,0,0,1,.08-.11s.06,0,.08.08,0,0,.05,0a.47.47,0,0,0,.06-.09.45.45,0,0,1,.09-.1s0,0,0,0,.18-.13.26-.19.05,0,.07,0a.15.15,0,0,0,.05.06l.11-.15-.25-.27,181.05,3.82V91.58a1.49,1.49,0,0,1,.63,0c.24,0,.26.12.42-.29.24-.65.44-2,.87-2,.08,0,.22.09.31,0a2.07,2.07,0,0,0,.14-.79,3.6,3.6,0,0,1,0-.66c0-.16.09-.28.11-.44.29.07.61.22.91,0a4,4,0,0,0,0-.68l0-5.4a2.33,2.33,0,0,0,0-.79h0a1.72,1.72,0,0,1-.14-.33,1.33,1.33,0,0,1,0-.21,1.13,1.13,0,0,0-.17-.5c-.16-.17-.34,0-.5,0a2.9,2.9,0,0,0-.12-1.21,1.89,1.89,0,0,0-.4-.36c-.16-.15-.19-.16-.26-.49a.22.22,0,0,1,.19,0,1,1,0,0,0,.28-.2c.08,0,.14,0,.22,0s.14-.3.18-.6a14,14,0,0,1,.3-1.38,1.58,1.58,0,0,1,.18-.52c.1-.12.26-.11.37-.22a2,2,0,0,0,.45-1.21c-.08,0-.18.06-.25,0s-.09-.36-.11-.6a1.33,1.33,0,0,1,0-.54c0-.25.3-.29.25-.67a.9.9,0,0,1-.1-.22c0-.12,0-.23-.05-.35a2.46,2.46,0,0,0-.1-.5c-.16-.44-.49-.42-.64-.78l.09-.4a1.83,1.83,0,0,1,.19-.52c.1-.12.26-.11.37-.22a2,2,0,0,0,.45-1.21c-.08,0-.18.06-.26,0s-.09-.36-.11-.6a1.54,1.54,0,0,1,0-.54c0-.25.3-.29.25-.67a.64.64,0,0,1-.1-.22c0-.11,0-.23-.05-.35a3.4,3.4,0,0,0-.1-.5,1,1,0,0,0-.16-.27.53.53,0,0,1,.11-.15.71.71,0,0,0,.35-.44,3.58,3.58,0,0,0,.06-.68c0-.18.1-.22,0-.41a2.84,2.84,0,0,0,.38-.48v-.94l3.52,4,.11-.15a.15.15,0,0,1,0,.06s0,0,.07,0,.23-.23.26-.18,0,0,0,0l.09-.09a.47.47,0,0,1,.06-.09l.05,0s0,.09.08.08a.44.44,0,0,0,.08-.11s0,0,0-.06l0,0a.16.16,0,0,0,0-.08s0,0,0,0,.09-.12.1-.18a.21.21,0,0,0,0-.08s0,0,0-.1a1.64,1.64,0,0,1,.12-.22c.07-.1.15-.13.22-.24l0-.06.09-.14a1.34,1.34,0,0,1,.11-.14s0,0,0,0h.07s0,0,.07-.07l.16-.15s.05-.05.07-.05,0,0,.05,0a.36.36,0,0,0,.16-.12s0,0,0,0a.31.31,0,0,1,0-.09l.05-.07s.06,0,.09-.07,0,0,0,0l0-.05,0-.08c0-.1,0-.11.08-.26a.41.41,0,0,1,.1-.09.65.65,0,0,0,.15-.17l.08-.13.13-.15s.06-.06.08-.06a.08.08,0,0,0,.07,0,.6.6,0,0,0,.08-.08s0,0,0-.06l.08,0,.25-.33.05-.1.05-.09a.35.35,0,0,0,.05-.08l0-.05s.08-.12.06-.13l0,0a1.36,1.36,0,0,0,.12-.17s0-.05,0-.08a1,1,0,0,1,.12-.19,1.06,1.06,0,0,0,.1-.17l0-.08,0-.07s0-.08,0-.12a.76.76,0,0,1,.12-.19l.09-.14Z"/><path class="cls-6" d="M315.08,4582.71h0a19.37,19.37,0,0,0-38.74.16v4.55a19.37,19.37,0,0,0,38.72,0v-4.71Z"/><g class="cls-7"><rect class="cls-8" x="112.46" y="4172.95" width="246.43" height="226.2" transform="translate(-1728.03 469.03) rotate(-24.08)"/><rect class="cls-9" x="190.67" y="4251.75" width="337.48" height="309.78" transform="translate(793.41 6.72) rotate(10.3)"/></g><polygon class="cls-10" points="501.26 4302.22 435.96 4235.11 289.37 4223.33 278.81 4246.09 266.84 4192.43 209.36 4181.75 128.9 4229.03 158.23 4391.79 214.61 4384.38 179.66 4459.66 252.72 4498.81 399.88 4553.48 501.26 4302.22"/><path class="cls-6" d="M319.36,3810.19h0a19.37,19.37,0,0,0-38.73.16v4.55a19.37,19.37,0,0,0,38.72,0v-4.55A1,1,0,0,0,319.36,3810.19Z"/><path class="cls-11" d="M491.71,3473.15c1.84-17,4.15-34,5.92-51-46.74-6.13-93.72-9.93-140.58-15.06-48.46-5.29-96.89-11-145.53-14.44-18.72-1.32-37.5-2.29-56.28-2.75q-7.31,27.75-13.32,55.82c-16.78,78.14-26.09,157.82-30,237.6q-.72,14.61-1.19,29.21c7.79,1.08,15.57,2.14,23.36,3.23,51.68,7.2,103.34,14.56,155,21.77,51.92,7.25,103.85,14.35,155.85,21,3.93.51,7.86,1,11.79,1.5,6.53-46.13,13.06-92.24,18.53-138.52C481.13,3572.11,486.34,3522.62,491.71,3473.15Z"/><path class="cls-6" d="M496.19,3719.3c-1.77.26-3.45.56-5.14.75-9.56,1.07-19.13,2.08-28.69,3.21-1.37.16-2.63,1.09-4,1.32-3.19.53-6.41,1-9.63,1.21-1.41.1-1.72.68-1.56,1.85.43,3.16.82,6.32,1.33,9.46.43,2.67.91,5.34,1.54,8,.57,2.36,1.35,4.66,2.08,7,1.27,4.09.53,4.32-2.83,5.28a98.79,98.79,0,0,1-12.16,2.15c-4.08.62-8.17,1.16-12.26,1.68s-8.4,1-12.59,1.49l-12.44,1.46-12.13,1.39-15.39,1.79c-4,.46-8,.89-12,1.35-5.13.59-10.26,1.2-15.39,1.77-4.1.46-8.2.89-12.3,1.32-3.07.33-6.13.73-9.2.94-5.72.37-11.45.6-17.17.95-1,.06-2,.51-3,.65-8.54,1.16-17.07,2.37-25.62,3.4q-8.4,1-16.85,1.58c-2.68.18-5.42-.43-8.1-.24-5.1.37-10.18,1.07-15.27,1.6-4.31.45-8.63.85-12.94,1.28-3.79.38-7.57.85-11.37,1.14-4.47.33-9,.61-13.43.72a18.77,18.77,0,0,1-5.08-.76,2.22,2.22,0,0,1-1.67-2.54c.24-2,.62-4,.84-6,.4-3.78.79-7.56,1-11.35.15-2.28,0-4.57,0-7-2.73.28-5.57.63-8.41.84-2.47.17-5,.13-7.42.29-2.86.19-5.72.48-8.58.75-4.05.38-8.1.79-12.15,1.18-3,.29-5.93.62-8.89.87-3.17.26-6.35.38-9.51.67-4.26.4-8.51,1-12.77,1.36-4.1.38-8.23.62-12.34,1-1.4.11-2.8.3-4.2.46-1.65.18-2.06-.29-1.52-1.82.8-2.26,1.62-4.5,2.42-6.76a3.29,3.29,0,0,1,3-2.11c2.52-.32,5.08-.43,7.57-.93s5.35-.95,7.11-3.43a2.8,2.8,0,0,1,1.78-.91c1.82-.23,1.95-1.49,1.9-2.85-.15-3.76-.27-7.52-.57-11.26-.14-1.82,1.17-2.55,2.28-3,2.93-1.24,3.66-4.13,5.35-6.3,2.5-3.21,2.65-6.41,1-10-1.17-2.45-.66-5-.16-7.63,1-5.08,1.67-10.21,2.77-15.25.3-1.35,1.51-2.57,2.5-3.67a39.12,39.12,0,0,1,5-5,13.57,13.57,0,0,1,4.6-2.05c1.07-.29,1.39-.7,1.3-1.69q-.85-9.82-1.67-19.65a7.53,7.53,0,0,1-.05-2.63,2.65,2.65,0,0,1,1.57-1.35,2.05,2.05,0,0,1,1.75.37c3.37,3.5,6.66,7.08,10,10.62.67.71,1.44,1.34,2.51,2.32,0-1.94.1-3.52,0-5.07-.34-4.12-.78-8.22-1.18-12.32a33.14,33.14,0,0,0-.39-3.74c-.38-1.78-.44-3.37,1-4.81a1.79,1.79,0,0,0,0-1.75c-2.29-2.41-2-5.34-1.86-8.25.1-1.87.33-3.72.44-5.58a6,6,0,0,0-.34-1.56l1.15-1.1c-2.31-.78-3.27-2.44-3.64-4.81l10.59.6c-.95-2.39-.69-2.8,1.64-2.59l1.75-9.42c.68,1.23,1.44,2,1.55,2.92.36,3,2.55,5.21,3.55,7.94.15.42,1.4.66,2.1.59a2.14,2.14,0,0,0,1.59-1.11,2,2,0,0,0-.73-1.78c-1.87-.63-1.86-2.14-1.84-3.56.08-6.22.29-12.44.38-18.65s.16-12.52.12-18.77a32.94,32.94,0,0,0-.71-4.89c-.53-3.24-1.42-6.56.45-9.62a60.86,60.86,0,0,1,5-7c.64-.77,1.91-1,2.89-1.51a5.23,5.23,0,0,0,1.59-.9,12.35,12.35,0,0,1,6.68-3.83c3.51-.87,7.18-1.13,10.78-1.66.19,0,.38-.07.23,0-.38-1.48-.86-2.87-1.1-4.31a63.58,63.58,0,0,1-1-7.13c-.14-2.5,1.34-4,3.79-4.3a4.14,4.14,0,0,0,1.16-.52,3.44,3.44,0,0,0-.68-1c-1.1-.78-2.26-1.5-3.72-2.45a33.13,33.13,0,0,1-1.17,3.6,3.1,3.1,0,0,1-1.5,1.65c-.68.21-1.43-1.43-1.19-2.4.59-2.33,1.2-4.66,1.76-7,.66-2.73.75-2.81,3.39-2,.54.16,1.06.4,1.79.68.28-2.34.58-4.56.79-6.78.72-7.66,1.45-15.33,2.1-23,.57-6.75,1-13.51,1.59-20.27.41-5,1-10,1.4-15s.85-10,1.27-15c.11-1.25.24-2.5.27-3.75.05-2.39,2.21-3.42,3.23-5.18.39-.66.85-1.27,1.28-1.9l.67.37c.58,1.93,1.16,3.86,1.72,5.79.26.9.41,1.84.71,2.72,1.26,3.64.16,7.22-.22,10.82-.23,2.22-.39,4.45-.68,6.66-.4,3.11-1,6.19-1.3,9.3-.59,6-1,12-1.56,17.94-.68,7.42-1.45,14.84-2.13,22.26-.56,6.08-1,12.18-1.58,18.25A3.13,3.13,0,0,0,224,3527c1.42,1.56,3.3,2.86,3.33,5.29,0,3,0,6,0,9.05a5.33,5.33,0,0,1-.51,1.57c-.71-.51-1.86-.9-2.05-1.57a25.57,25.57,0,0,1-.49-4.66c-.05-.54-.15-1.09-.24-1.76a5.87,5.87,0,0,0-1.54,6.35c.06.14.11.29.18.44,1.67,3.68,2,3.87,6.06,3.18,3-.51,3.11-.5,3.2-3.51.15-5.32.08-10.64.17-16,.1-5.58-.33-11.19,1.29-16.66a21.6,21.6,0,0,1,9.45-12.63c5.44-3.43,11.37-4.49,17.65-4.51,4.86,0,9.72-.22,14.58-.31,5.07-.08,10.14-.13,15.21-.18s9.89-.13,14.84-.13c7.37,0,14.12,1.86,19.44,7.25a21.92,21.92,0,0,1,5.49,10.09c1.39,5.41,1.47,10.94,1.65,16.47.16,5,.41,10,.87,15,.52-1.58,1-3.19,1.62-4.72.23-.53,1-1.22,1.48-1.19,3.12.22,6.25.55,9.35,1a8.18,8.18,0,0,1,2.65,1.16c.76.43,1.39,1.13,2.16,1.54a4.21,4.21,0,0,1,2.35,3.92,17.92,17.92,0,0,0,.64,3.84,1.44,1.44,0,0,0,1.24.63c2.33-.32,4.65-.69,7-1.17,2.65-.54,4.87.33,7.31,1.35a18.88,18.88,0,0,1,7,5.4c1.66,1.86,4.09,3,6.25,4.4a2,2,0,0,1,1.06,2.29,42.34,42.34,0,0,1-3.42,10.69,9.34,9.34,0,0,0-.3,4.42c.8,7.64,1.9,15.26,2.5,22.92.28,3.57,2.15,6.4,3.22,9.59.2.58.48,1.15.82,1.94.52-1.29.88-2.45,1.42-3.52,1.54-3.07,3.7-5.13,7.42-5.43s7.12-1.07,10.68-1.62a13,13,0,0,1,1.4-.09,1.62,1.62,0,0,0,1.31-2.53c-1-1.5-2.14-3-3.15-4.49a1.3,1.3,0,0,1-.05-1.18,5.39,5.39,0,0,1,2-1.45c.56-.19,1.31.19,2.27.37a21,21,0,0,1-1.1-2.49,2.37,2.37,0,0,1,0-1.72c1.44-2.24,3-4.39,4.58-6.63l1.55.55c-1.05-3.15,1.72-4.44,2.74-7l3.94,4.23,4.77-6.85.31.17c-.6,1.34-1.24,2.66-1.8,4-.17.43-.34,1.24-.13,1.4,1.14.9.69,1.67,0,2.52a8.4,8.4,0,0,0-.61,1.07l9.32,1.5c-1.47,2.57-2.43,5.25-5.8,5.49.58.65,1.4,1.17,1.43,1.72s-.71,1.21-1.13,1.81a25.74,25.74,0,0,0-2.12,3.1c-1,2-2.61,2.1-4.46,1.89-.54-.06-1.1,0-2.12,0l3.17,2.78c-1.28,2.35-1.77,2.56-4.26,2.08-1.79-.35-3.59-.64-5.4-.93a1.79,1.79,0,0,0-1.08,0,4.66,4.66,0,0,0-1.45,1.23c-.08.12.48.8.83,1.12,1.25,1.16,2.94,2,3.71,3.44a24.3,24.3,0,0,1,2.07,6.34c.58,2.53.91,5.12,1.35,7.69.13.78.49,1.11,1.4,1,4.53-.4,9.07-.73,13.6-1.06a2.23,2.23,0,0,1,1.05.19c3.1,1.34,5.23,3.79,7.08,6.45a5.45,5.45,0,0,1,.66,3.31c-.27,4.17,2.46,7,4.34,10.16a8.17,8.17,0,0,1,1,1.92,7.84,7.84,0,0,0,2.51,4.39c.83.68,1.15,2,1.75,2.92a15.11,15.11,0,0,1,1.77,11.88c-1.2,5.06-.08,9.92.87,14.85,1,5.32,1.9,10.69,2.72,16.05.72,4.74,1.24,9.51,1.95,14.26.21,1.35.55,2.63,2.61,2.43,4.1-.41,8.23-.52,12.35-.77a21.71,21.71,0,0,1,2.65-.23c.49,0,1.25.38,1.37.76.46,1.41,1.57,1.85,2.79,2.22a5.27,5.27,0,0,1,1.48.5c1.84,1.25,3.93,1.24,6,1.31a4,4,0,0,1,3.36,1.67c1.9,2.62,3.86,5.2,5.78,7.81A3.08,3.08,0,0,1,496.19,3719.3ZM157,3656.24c.06,1,.09,1.54.13,2.09.22,2.92.47,5.83.67,8.75.27,4,.47,8,.79,12,0,.41.65,1.13,1,1.11,1.69-.1,3.37-.39,4.84-.58,0-2.24-.61-4.54.17-6.15s3-2.72,4.69-4.14Zm181.62-121a2.34,2.34,0,0,0-.44,0c-.79,2.6-1.56,5.21-2.34,7.82l.55.16Z"/><path class="cls-6" d="M319.37,3186.18a.86.86,0,0,0,0-.16h0a19.37,19.37,0,0,0-38.73.06v.1h0v4.55a19.37,19.37,0,0,0,38.72,0v-4.55Z"/><path class="cls-12" d="M445.62,2878.65c3.42-10.17,7.12-20.3,10.51-30.51-27.88-10.08-56.22-18.75-84.32-28.22-29.05-9.78-58-19.84-87.43-28.5-11.33-3.33-22.72-6.46-34.2-9.28q-8.22,16.07-15.71,32.49c-20.84,45.73-37.31,93.41-50.47,141.89q-2.4,8.88-4.66,17.78l13.9,5.13q46.15,17.1,92.28,34.29,46.37,17.18,92.89,33.92l7,2.51c10.23-27.46,20.46-54.9,30.06-82.58C425.77,2938,435.64,2908.31,445.62,2878.65Z"/><polygon class="cls-6" points="413.56 3055.7 413.56 3055.7 413.56 3055.7 413.56 3055.7"/><path class="cls-6" d="M521.46,3054l1.34-4.54-4.06-2.63-.86-.62a26.8,26.8,0,0,0,.63-3.41h0v-.08c.25-1.6.45-3.19.62-4.92h0l-.19-.09c.07-.72.13-1.59.19-2.33l.24-.14c1.83-22.43-1.57-53.4-10.86-63.15,0,0-7.8-6.95-24.5-12a3.52,3.52,0,0,0-.83-2.81c-2.29-3.23-3.34-5-1.77-6.16s1.67-1.36.91-3a34.49,34.49,0,0,1-1.49-4.78h0a1.25,1.25,0,0,0,0-.47c-.31-2.87-10.74-4.35-23.29-3.31s-22.47,4.22-22.16,7.09a1.35,1.35,0,0,0,.25.63c.07.16.15.35.25.56v0h0a22.37,22.37,0,0,0,3,4.68,3.62,3.62,0,0,1,.78,1.14l-.07-.06.08.08c.44,1.15-.33,2-.84,3.12a1.64,1.64,0,0,0,0,1.64c-9.67,4.49-23.44,14.06-25.95,32.64-.24,1.77-.44,3.52-.61,5.26a17,17,0,0,0-11.48-2.2l-.7-.62-.51-.45-.94-.83-.19-.17-2.26-2-.16-.14-.27-.24-7.67-6.78.55-.48.21-.19,1-.84,1.34-1.18,1-.88.8-.71.77-.67.8-.71.58-.51,1.24-1.09.58-.51,1.21-1.07.37-.33.86-.75,2.48-2.19,2.26-2,.28-.25c.14-.12.27-.25.4-.38l.21-.22a11.27,11.27,0,0,0,2.1-3.32l.52-1.3c.08-.2.15-.41.22-.6l.06-.19c0-.14.08-.27.11-.41s0-.13.05-.2.05-.26.08-.38l0-.18c0-.17,0-.33,0-.49v0a4,4,0,0,0,0-.49v-.14l0-.31,0-.15-.06-.28a.65.65,0,0,0,0-.13,3,3,0,0,0-.12-.32s0,0,0,0h0v0l-.09-.17-.05-.06,0,0,0,0-.06-.07-.05-.06-.06,0h0l0,0,0,0h0l0,0h0l-1.25-1-1.25-1-.72-.59c2.18-2,1.15-3.32-4.41-3.6l-1-.81-1.21-1-1.2-1-1.2-1-1.2-1-1.19-1-1.19-1-1.19-1-1.19-1-1.19-1-1.19-1-1.19-1-1.19-1-1.2-1h0l-3.34-.05-1.15,0-1,0-2.23,0-1.21,0-2.23,0-2.19,0h-.12l-2.15,0h-.63l-3-.05h-.82l-1.41,0-3.33-.06c0-1.56.06-3.13,0-4.82h0l-.23-.07c0-.46,0-1,0-1.46l.07-.08.09-.1.08-.1.08-.09.08-.09.07-.08.07-.08.06-.08.06-.08.06-.07.05-.07.05-.06,0-.06,0-.06,0-.05,0-.06,0,0,0-.05,0,0s0,0,0,0v0s0,0,0-.05h0a4.74,4.74,0,0,0-.28-2.1,10.72,10.72,0,0,0-.32-1.22c0-.63-.1-1.35-.18-2.14,0-.22-.05-.45-.07-.68-.12-1.15-.28-2.42-.45-3.71s-.35-2.63-.53-3.92l-.21-1.52c-.06-.41-.12-.8-.17-1.19-.16-1.28-.34-2.56-.52-3.85a14.37,14.37,0,0,1-.19-2.26,2.21,2.21,0,0,0,.06-.34,3.38,3.38,0,0,0,.06-.6,2.1,2.1,0,0,0-.11-.7,1.44,1.44,0,0,0-.19-.37,3.3,3.3,0,0,1-.12-1.19v-.37c0-.25,0-.52,0-.79s0-.83.05-1.21a8.84,8.84,0,0,0,0-1.44.85.85,0,0,0-.1-.28,1,1,0,0,0-.49-.41,2.22,2.22,0,0,0-.72-.15c-3.53-17.68-9.45-34-17-40.29,0,0-5.59-3.93-16.79-7.41l.05,0-1.46-.4a114.94,114.94,0,0,0-15.3-3.33l-.36-.05-4.3-15s-28.57-21.88-37.2-21.51c-7.66.33-7.74,22.91-5.19,40.69-10.51,6.23-25.72,19-26.2,41.12a169.77,169.77,0,0,0,1.27,24h0v0h0l0,0h0v0a.48.48,0,0,0-.28.12q-1.43.11-2.85.27c-.63.07-1.28.15-1.92.25.05-.39.11-.77.17-1.16l.09-.57.12-.8c0-.09.05-.21.07-.33h0a.48.48,0,0,0,0-.17c-.05-.33-.37-.28-.62-.29h-.13c-.21,0-.41,0-.62,0a6.17,6.17,0,0,0-.62.1,3.86,3.86,0,0,0-.58.17,1.29,1.29,0,0,0-.21.06h0l-.12.06a4,4,0,0,0-.46.23,1.64,1.64,0,0,0,.6-1,1.36,1.36,0,0,0-.21-1,1.39,1.39,0,0,0-1.57-.39c0-.6,0-1.2-.05-1.79,0-.82-1.43.27-1.67.46s-.76.51-.65.94c.07.24.34.35.58.42a8.85,8.85,0,0,0,1.24.27l0,0a1.51,1.51,0,0,0-.33,1.69,1.32,1.32,0,0,0,1.63.62l.18-.07a4.54,4.54,0,0,0-1.13,1.1l-.2.31-.08.13c-.18.29-.44.71-.38,1h0a.14.14,0,0,1,0,.06l.06,0a.31.31,0,0,0,.11.08h0a4.49,4.49,0,0,0,.71.21l.78.24a2.93,2.93,0,0,0-.84.37.88.88,0,0,0-.2.18.58.58,0,0,0-.15.59,1.08,1.08,0,0,0,.43.57c.33.75.69,1.85.74,2a20.78,20.78,0,0,1,.81,3.1,15.56,15.56,0,0,1,0,6.23s-1.85,7.86.76,11.46l.17.21c-.16,6.81,3,11.63,6.6,12.43l-.11.12a3,3,0,0,1-.83.39l-3,1a4.85,4.85,0,0,0-1,.42l-.2.14-.12.09a1,1,0,0,0-.35,1.38,1.38,1.38,0,0,0,.3.34,2.37,2.37,0,0,0,1,.49,20.84,20.84,0,0,0,6.4.42l.92-.1a20.44,20.44,0,0,0,6.19-1.67,2.72,2.72,0,0,0,.5-.29c1.06,1.85,3.5,5,8.91,7.88l-.48.34-.7.5-1.53,1.07-.7.49-.3.21-2.36,1.66-.3.21-.84.58-2.15,1.52-2.94,2.06-.1.06-.21.16-2.87,2h0l-.07.05-.11.08,0,0-.43-.5h0l-2.44,0-2.45,0-1.06,0h-.29a31.39,31.39,0,0,0-6.22-7.92s-5.38-3.92-16.22-7.81h0l-.52-.17c-2.6-.92-5.51-1.83-8.72-2.68l-7.27-22.22-61.21,4.74-3,8,2.45,12.38c-11.83,7.43-26.93,21.42-27.81,44.7a197.06,197.06,0,0,0,1.51,31.75l-2.55.28-8.07,13.8,2.62,6.69c-2.33,11.19,3,19.26,8.56,18.72,3.63-.35,4.33-1.9,4.37-3.76v0c-.06,1.63,1.33,2.34,3.24,2.55.48,1.53.77,2.36.77,2.36s2.12,9.34,20.71,15.26l-.28.21-.45.34-.36.27-1.31,1-4.26,3.21-1.44,1.08-.26.2-.43.32-.89.68-1.24.93-1.06.8-1.08.82-2.15,1.62-2.12,1.59-.09.07-.91.69-1.19.9-.81.61-1.36,1-.89.67-.4.3-3.08,2.32h0l-.05,0-.1.08h0l-.07.06-.12.11-.12.11h0a.93.93,0,0,0-.14.14l-.16.16h0l0,0-.15.16-.12.14,0,.06,0,0c-.07.09-.15.18-.22.28l0,0-.08.11-.15.21a.43.43,0,0,0,0,.07l-.12.19-.11.15a.59.59,0,0,1,0,.08c-.06.09-.11.19-.16.28l-.09.15,0,.06-.24.49a.43.43,0,0,1,0,.07v0q-.12.26-.24.54h0l-.52,1.29-.08.21c0,.07,0,.14-.07.21l-.18.53s0,.09,0,.14-.06.2-.08.3,0,.1,0,.15-.09.39-.12.57c0,0,0,0,0,.06s0,.07,0,.11,0,.35-.07.52a.41.41,0,0,1,0,.11c0,.19,0,.37,0,.55v.11c0,.16,0,.31,0,.46a.13.13,0,0,0,0,.06,3,3,0,0,0,.09.45l0,.1a2.26,2.26,0,0,0,.15.39l8,16.38.17.34.21.45c1.07,2.18,2.13,4.35,3.19,6.53l.18.38.13.26,1.46,3,.21.44.9,1.85.91,1.86.91,1.86.89,1.83.93,1.92v0s0,.05,0,.05l44.59.71H165l1.4,0,7.93.13h.54l9.47.15a1.12,1.12,0,0,0,.68-.34l0,0,2-1.8,2-1.79,2-1.79.94-.83,3-2.63.13-.11,2-1.78.15-.13,5-4.4.94-.82,2-1.79,1.08-1,4.13-3.63.9-.8.32-.28,14.16-12.47.08-.08,1.85,0c.87.74,2.69,0,3.84.06l4.76.07,1.31,0h1.17l4.89.08,3,.05h.61l2.41,0h.89l2.13,0,2.13,0,.89,0h1l2,0,3,0,3,.05,3,.05,3,0,2,0h1l6.05.1,1.08,0,1.94,0,2,0,1.09,0a.79.79,0,0,0,.39-.12l0,0h0a1.59,1.59,0,0,0,.36-.3v0l1.68-1.62,1.67-1.61.52-.51,1.14-1.09.83-.8.83-.8.9-.87.38-.36.38-.38.83-.79.09-.09.74-.71,1.16-1.12.17-.17.33-.31.19-.19,1.47-1.41,1.66-1.6,1.15-1.11.51-.5,7.65-7.38.73-.7,1.7-1.63.12-.11,6.77-6.53c.21-.21.43-.45.64-.7l.81,1h0l2,0,14.26.23,1,0h.29l24,.39,1.49,0h.85l13.53.22a1.48,1.48,0,0,0,1-.61l0,0h0l1.38-1.48.46-.49c0,.16-.06.32-.08.47s0,.05,0,.08,0,.34-.05.51v.09a3.68,3.68,0,0,0,0,.47v.06c0,.14,0,.28.05.41v0a2,2,0,0,0,.1.37.14.14,0,0,0,0,.07,2.22,2.22,0,0,0,.14.31l0,0a1.89,1.89,0,0,0,.2.27q1.56,1.62,3.11,3.26l.09.09.09.09,5.51,5.77.74.78,1,1,7.16,7.5,1.28,1.34.92,1,2.06,2.16.14.15,1.57,1.64.33.34,4,4.21.34.36.34.35,2.81,2.94h0l5,.08,1.08,0,3,.05,3,.05,3,0,1.6,0,9.42.15,1,0H442l19.41.31.88,0,1.64,0,10.5.17c.42,0,.93-.39,1.45-1.1l0,0,1.23-1.67,1.23-1.65,1.22-1.65,1.22-1.64.29-.4.59-.78,1.54-2.09.74-1,.47-.64.73-1,.48-.65.59-.79.07-.1.55-.74,1.21-1.63,1.22-1.64.35-.47,1.78-2.4.31-.42.25-.33,8.52-11.5a12.62,12.62,0,0,0,1.58-2.82l.52-1.3c.09-.21.16-.42.23-.62l.06-.19c0-.14.09-.29.13-.43a1.21,1.21,0,0,1,0-.18c0-.16.07-.31.1-.46a.52.52,0,0,1,0-.11c0-.18.05-.35.07-.52s0-.09,0-.13,0-.24,0-.36v-.15c0-.11,0-.22,0-.32a.49.49,0,0,0,0-.12,2.12,2.12,0,0,0-.08-.38.14.14,0,0,0,0-.06,1.69,1.69,0,0,0-.1-.27l0,0a1,1,0,0,0-.08-.14h0a.35.35,0,0,0,0-.08l-.05-.06-.05-.06h0l0,0,0,0v0h0l-1.73-1.52-.14-.12,6.13-7.6-6.73-6.06s-2.35.13-13.73,1l-.84-.74-.09-.08-3.42-3,1.13-.17a77.52,77.52,0,0,0,17.28-4.06l.12.34,5.67,0,1.29-3.38,4.76-.77,2.1,5.46,6.6-1.12ZM222.83,2913.56l-1.09-.32a.88.88,0,0,1-.28-.12.29.29,0,0,1-.12-.27c0-.1.1-.17.17-.23a10.13,10.13,0,0,1,1.09-.76.33.33,0,0,1,.19-.06c.15,0,.2.19.21.33a7.51,7.51,0,0,1,.05,1.16.49.49,0,0,0,0,.24l-.17.08Zm157.79,180.38.07-.1Zm.21-.31.06-.09Zm.26-.42,0-.06,0,0Zm.22-.4,0,0a.83.83,0,0,1,.07-.13Zm.18-.36s.05-.09.07-.14S381.51,3092.4,381.49,3092.45Zm.21-.44.06-.14,0,0A1,1,0,0,1,381.7,3092Zm-94.47,33.62v0Zm.27-.39-.06.09Zm.22-.35-.07.1Zm.21-.38h0Zm.48-1-.06.14Zm-55.14-2.68,1.62,0-5.65-.09,1.85,0Zm18.48.3H252l-3.93-.06h.26Zm13.69.22h.19l-6.38-.1,1.58,0Zm7.16.11H273l-3-.05h.12Zm5,.08h.1l-2.42,0h.12Zm2.87,0,1.91,0-2.29,0h.38Zm-40.78-.65-.85,0Zm-3.2-165.06-.09-.1c2.25-1.24,1.13-3.82,1.28-6a3.6,3.6,0,0,0-1.51-3.23s0-.05,0-.08H236l0,0a11.72,11.72,0,0,0,1.21-.48c.27,1.64.84,1.55.84,1.55l.3.07c1.26,4.56,2.33,7.73,2.79,9.06-.15,0-.3,0-.45-.06l-3.12-.36A2.15,2.15,0,0,1,236.47,2955.87ZM413.1,3032.7l.36.15.24,1.9-.32.11h0c1,7.46,2.17,12,2.17,12s.54,4.23,6.89,8.84l-3,0-1.83,0-1,0-1.33,0-1.36,0h-.25l0,0h-.07l0,0,0,0-.05,0,0,0h0l-.06,0-.06.05-.07.06h0l-.06.05-.09.09-.07.07-1.38,1.49-.16.17c0-.15,0-.29,0-.43v-.08a2.82,2.82,0,0,0,0-.41v-.13c0-.13,0-.25,0-.37a.19.19,0,0,1,0-.08,3.82,3.82,0,0,0-.08-.39.29.29,0,0,1,0-.09c0-.09-.06-.18-.1-.27s0,0,0,0l0-.06,0-.06,0-.06-.07-.11,0,0h0l0,0,0-.06,0,0,0,0,0,0h0l-.66-.63-1.58-1.53-.66-.63-1.44-1.39-1-1-.4-.39-.07-.07-.9-.86-.18-.18-.27-.26-1.43-1.37-1.42-1.37-1.41-1.36-1.41-1.36-1.41-1.36-2.81-2.71-2.81-2.7-1.4-1.35-1.41-1.36-.81-.78,1.31-1.26.8-.78,1.26-1.22,1.27-1.22,1.27-1.23,1.16-1.12a17.19,17.19,0,0,0,10.09,2.62.17.17,0,0,0,0,.07l0,.24a1,1,0,0,0,.16.37c-3.58,8.92-.13,16.22,4.24,16.52l1.53,7.23a1.65,1.65,0,0,0,3.24-.63l-1.37-7.71c.78-1.1.41-2.83.67-4.27a3.25,3.25,0,0,0-1.62-3.4,10.51,10.51,0,0,1,1.25-7.36C412.82,3030.44,413,3031.6,413.1,3032.7Zm1.33,23.28Zm87.39,30.18Zm.1,0Zm-87.54-30.25ZM502,3086.17Zm.05,0Zm-87.77-30.42h0Zm0,0Zm88.08,30.42-1.49-1.31h0l1.49,1.31Zm.21.18Zm-202-30.71-.14.15a1.34,1.34,0,0,1-.11.14l-.08.09,0,.06-.18.23-.83-1-1.28-1.5h0l-5.53-.09-2.76,0-.9,0-1.85,0-1.68,0-.87,0h-.35l-1,0h-.66l-.95,0-1.5,0-2.48,0-1.5,0-2.74-.05-2.74,0-1.44,0-2.59,0-1.44,0h-.75l-3.55-.06-1.17,0-2.23,0-1.38,0-1.87,0-1,0-4.47-.07-4.09-.07c0-.76,0-1.58,0-2.31l.3-.21a216.17,216.17,0,0,0-3.06-32l.69-.51.69-.52,1.65-1.24,1.66-1.25.93-.69.75-.56.67-.51,1-.76,1-.76.67-.51.18-.15,0,0,.47.55h.36a25.73,25.73,0,0,0,4.73.07l2.54,0,2.53,0,2.52,0,2.53,0,5,.08,5,.09,2.35,0h.33l2.35,0,2,0h.56l2.52,0,5,.08,2.06,0h.72l2.27,0,5.05.08h.05a.72.72,0,0,0,.36-.13h0a.88.88,0,0,0,.17-.12l0,0h0l.45-.37h0l.27-.21.1-.09,0,0a.19.19,0,0,0,0,.07,2.53,2.53,0,0,0,.16.33l0,.05a3.15,3.15,0,0,0,.22.29l1.24,1.29,1.23,1.3h0l.19.2.73.76.3.32,1.22,1.28.81.85.17.18.24.24.88.93.32.33,1.2,1.25h0l.31.33.88.93,1.2,1.25.3.32.57.59.32.35.11.11.77.8.31.33,1.19,1.25c.1.1.21.21.31.33l.51.53.16.17.21.22.34.35.55.58.3.31.86.9.33.35,2.07,2.17.31.32.06.06-.1.09-2,1.82-.38.35-1.13,1-1.14,1-.38.34-3,2.74-.31.28-1.21,1.09-1.21,1.1-.32.28-.17.16-1.36,1.22-1.54,1.39-1.27,1.15-1.82,1.65-1.09,1-.48.43-1.57,1.42-1.07,1-2.11,1.9h0l0,0-.14.13,0,0,0,0-.1.1-.18.19,0,0Zm-44.39-54.51h0v0Zm47.09,10.73h0l.05-.05s0,0,0,0Zm.29-.32,0,0Zm.2-.28a.35.35,0,0,0,.05-.08.56.56,0,0,1-.05.08Zm-67.57-33.78Zm171-19.19Zm-23.8-19.15Zm23.38,19.07Zm.07,0Zm.07,0h0ZM383.32,2939Zm.06-.18Zm23.86,19.5Zm.09,0Zm3.14,96.41Zm-107.5-.83Zm107.54.86ZM302.7,3054Zm-65-76.91ZM302,3054.31Zm-.32.2h0Zm-.31.24h0ZM252,3011.4h0ZM105.81,3113.31ZM234.9,2977.45Zm-.1.18Zm-3.81-.23h0l1.47,0,2.26,0h0Zm-.54,136.17ZM297.71,3054Zm.06-.1ZM107.06,3113Zm-.24,0Zm-.49.09Zm191.5-59.27Zm-67.91,60.8Zm-.35.74h0Zm25.82-112.54.06-.14,0,.06Zm-26,112.94ZM252,3011.28h0Zm3.48-8.7,0,0,.05-.12h0Zm.22-.52,0-.07,0,0Zm246.87,84.31Zm0,0h0Zm0,0h0Zm-246.68-84.88,0,.05h0Zm65.92,92.35v0h0v0Zm.16-.45v0l0,0Zm.14-.39,0,0Zm.12-.33h0Zm.18-.48,0-.07h0l0,.09Zm.4-1,0-.09h0l0,.11Zm.2-.5.08-.19v0l-.1.24Zm90.9,37.85h0v0Zm0-.05v0Zm0-.09v0l0,0Zm0-.1,0,0,0,.06Zm0-.13,0-.1,0,.11Zm.06-.15,0-.05,0-.1c0,.06,0,.11-.05.15Zm.1-.27,0-.1h0l-.06.16Zm.08-.22,0-.09-.05.12Zm.09-.23.05-.11h0l-.05.12Zm.11-.26.05-.14,0,0-.08.19Zm.1-.25c0-.09.07-.19.11-.29h0l-.12.3Zm.16-.42.08-.18h0c0,.1-.08.19-.11.28Zm.13-.33.07-.17h0l-.09.22Zm.2-.49,0-.1h0l-.05.15Zm87.52-39.14h0l0,0Zm-267.72-109Zm-128.3,95.93h0v.18A1.28,1.28,0,0,0,106.62,3073.35Zm13,87.44v0Zm0-.15v0h0v.05Zm.12-.49v0Zm.08-.25v0l0,.09Zm.08-.26v-.07l0,.12Zm.11-.32v0l0,.09Zm.17-.48Zm.15-.4,0-.1v0s0,.1-.07.16Zm.14-.37.06-.14h0a1.34,1.34,0,0,0-.07.18Zm.15-.39.11-.27c0,.1-.08.19-.11.28Zm-1,3.2v0Zm65.52.57,0,0Zm1.47-2.49-.06.14Zm-.24.52a.36.36,0,0,0,0,.09A.36.36,0,0,1,186.42,3159.48Zm-.26.52a.41.41,0,0,0,0,.09A.41.41,0,0,1,186.16,3160Zm-.23.4-.06.1Zm-.27.44,0,0Zm-.22.3-.06.08ZM288.2,3124l-.06.13Zm92.29-29.86-.07.09Zm95.7,33.91,0-.08Zm.34-.59a.25.25,0,0,1,0-.07A.25.25,0,0,0,476.53,3127.43Zm.34-.67,0-.06Z"/><path class="cls-6" d="M319.37,2517a1,1,0,0,0,0-.17h0a19.37,19.37,0,0,0-38.73,0v.11h0v4.55a19.37,19.37,0,0,0,38.72,0V2517Z"/><polygon class="cls-6" points="437.29 2437.79 437.29 2437.79 421.77 2430.43 403.88 2438.93 399.49 2456.91 399.49 2456.91 399.37 2457.39 402.05 2466.41 418.95 2476.53 439.04 2465.16 439.99 2446.83 437.32 2437.8 437.29 2437.79"/><path class="cls-6" d="M121.62,2208.51l-.62-.94c-2.37-3.75-10.26-18-1.49-28.94,4.87-6.07,10.32-5.67,16.63-5.21,6.67.49,14.23,1,20.85-7.22,6.25-7.8,4.31-14.12,2.44-20.23-2-6.39-3.8-12.41,3-21,6.63-8.28,12.4-7.53,18.51-6.74s13.06,1.68,20.18-7.2l-18.26-26.72-2.43-1.95c-6,7.51-11.27,6.84-17.34,6-6.38-.82-13.62-1.75-21.34,7.88-7.88,9.84-5.6,17.27-3.6,23.82,1.79,5.83,3.33,10.86-1.89,17.38-5.6,7-11.72,6.53-18.19,6.06s-13.4-1-19.29,6.37c-11.61,14.48,1.88,33.46,2,33.65l18,26.33.27.39,2.52-1.82Z"/><path class="cls-6" d="M452.79,2292c-.5-2.74-1.1-5.47-1.75-8.18-4-16.43-12.9-30.43-22.11-44.25-.52-.77-2.07-.82-3.11-1.27-.83-.36-2-.62-2.32-1.28s.07-1.72.27-2.58c.17-.69.9-1.51.7-2-1.13-2.74.67-3.45,2.63-4.07,4.78-1.51,9.53-3.12,14.37-4.44,4.42-1.22,6.14-4.31,6.65-8.47.58-4.73-3.5-11.08-7.52-11.2-3.63-.1-5.88-1.8-7.74-4.68a12.76,12.76,0,0,0-3.6-3.61,3.1,3.1,0,0,0-2.91.15c-.57.45-.65,1.85-.54,2.77.29,2.39.73,4.77,1.24,7.13.45,2-.44,3.06-2.3,3.64-3.3,1-6.54,2.29-9.89,3.12a3.67,3.67,0,0,1-3.14-1.18c-4.17-6.23-8.19-12.57-12.19-18.91l-2.75-4.4c13,.58,23.19-4.76,24.4-12.87h0l5.34-78.75c.25-3.77-7.3-8.21-16.86-10.08s-18.23-.62-19.42,3l-19.15,57.94-.21-.33c-8.81-14.44-17.76-28.8-31.13-39.58-3.37-2.71-7.48-5.26-11.61-6.06a78.65,78.65,0,0,0-19-.93c-4.72.24-9.79,1-14,3-12.52,5.94-24.72,12.58-37,19-7,3.67-14,7.35-20.81,11.3-9.17,5.3-18.61,10.28-27.16,16.46-12.35,8.93-24.07,18.73-35.94,28.3-10.07,8.13-20.15,16.31-26.48,28-1.09,2-1.87,4.2-2.85,6.28-1.81,3.84-2.94,7.47-2.19,12.09,1.48,9.21,3.27,18.32,7.94,26.37,6.57,11.35,13.42,22.55,20.44,33.63-16.09.93-33.1,16.53-41,39.31a72.33,72.33,0,0,0-4.11,27.2,53.29,53.29,0,0,0,2.66,15.11,48.71,48.71,0,0,1-1.63-6.71c2.38,11.83,8.53,21.11,17.68,25,3.94,1.66,10.44,3.93,14.55,5.78.61.33,1.24.64,1.88.91,3.62-8.71,8.14-19.6,12.92-31.13h0c.06-.15.12-.3.19-.45a8.87,8.87,0,0,1-.81-.55l-.12-.09c-.25-.19-.5-.4-.74-.62l-.06-.06a13.6,13.6,0,0,1-3.5-5.66c0,.14.09.28.14.43a23,23,0,0,1,.3-15.26c3.49-10,12.15-16.15,19.35-13.65l.09,0,3.2-7.75c3.11,4.61,6.23,9.22,9.31,13.85,7.36,11.06,14.62,22.2,22,33.23a3.9,3.9,0,0,0,2.78,1.42c3.36.06,4.21,1.22,2.5,4.24a3.43,3.43,0,0,0,.37,4.23c2,2.62,3.87,5.29,5.75,8,6.89,9.8,13.92,19.41,23.89,26.5a31.15,31.15,0,0,0,23.89,5.53c7.75-1.31,15.35-3.76,22.85-6.22,10.81-3.55,21.49-7.53,32.19-11.4,1.84-.67,3-.26,3.76,1.44,1.22,2.71,2.84,5.35,3.48,8.2.68,3,.41,6.27.56,9.41l-.26,0c.33,4.8.73,9.61,1,14.42a8.73,8.73,0,0,0,5.51,8.11A106.89,106.89,0,0,1,362,2443.1c4.65,2.81,11.39,1.71,14.47-2.76a6.27,6.27,0,0,0,1.06-2.9c.37-5.26-1.31-10-5.57-13-4.95-3.49-6.65-8.24-6.43-13.73.27-7.08-1.63-13.47-4.81-19.63-1.48-2.86-1.24-4.22,1.51-5.76,9-5,16.23-12.34,23.89-19.08.77-.68,2-1.77,2.59-1.56,3.49,1.23,7.37,1.88,9.63,5.37,3.89,6,7.76,12,11.75,17.89,1.89,2.82,4.35,4.86,8.09,4.78,2.3-.05,4.68.62,6.88.22a51.54,51.54,0,0,0,10.74-3c3-1.26,4.77-5,4.26-7.27-1.32-6-5.59-9.19-11-10.8-4.43-1.32-8.07-3.32-10.92-7-3.35-4.32-6.83-8.56-10.51-12.6-2.2-2.42-2.52-2.78,0-5,7.18-6.44,14.56-12.65,21.62-19.23,8.24-7.67,16.39-15.49,20.18-26.6.83-2.44,2.09-4.73,3.07-7.13A4.35,4.35,0,0,0,452.79,2292Z"/><path class="cls-6" d="M319.37,1812.55a1,1,0,0,0,0-.17h0a19.37,19.37,0,0,0-38.73.06v.11h0v4.54a19.37,19.37,0,0,0,38.72,0v-4.54Z"/><rect class="cls-13" x="169.05" y="1353.22" width="386.3" height="371.79"/><path class="cls-6" d="M530.42,1594.28l-2.29-13.1a14.61,14.61,0,0,0-16.91-11.87l-5.55,1h0l-3.26.57,7-37.64a77.21,77.21,0,0,0-61.8-89.88L318.83,1419.5a8.22,8.22,0,0,0,3-9.52h0c-.08-.21-.15-.41-.24-.61a8.23,8.23,0,0,0-13.62-2.06c-1.71-3.4-3.4-6.47-4.94-9-3.68-6-5.25-6.79-6.59-6.18-.68.31-1.12.91-1.11,2.31a25.11,25.11,0,0,0-9.7,18.86l-49.49-9.16a77.12,77.12,0,0,0-89.88,61.8l-3.38,18.25a10.34,10.34,0,0,0-4.58.46h0l-.14,0-.36.12-.39.14-.35.14-.45.19-.29.13-.68.34-.06,0h0l5.2,9.74-19.09,103.17a77.21,77.21,0,0,0,61.8,89.87l9.9,1.84-2.71,14.65,68.46,12.67c-.46,1.59-.51,2.74,0,3a.48.48,0,0,0,.16.13.67.67,0,0,0,.55,0l1.51.48c-37.69,9.39-80.36,20.27-114.56,29.16l-1.08-4.52h0l1-1.36.31.14,2.69-3.67c.33-.45-.89-2.13-2.73-3.75s-3.6-2.57-3.93-2.12l-2.69,3.67c.06.1.13.2.19.31l-1,1.36,0,0-5.9-.25a36.69,36.69,0,0,0-7.23,15.38v0l0,.16c-8.88,2.34-16.78,4.43-23.33,6.19l-.29.08h0l-3.2.87-.27.07-5.47,1.49-.25.07c-4.88,1.35-8.29,2.33-9.91,2.86h0a9.25,9.25,0,0,0-.92-.1,19.5,19.5,0,0,0-4.25.25,18.86,18.86,0,0,0-4.06,1.11c-1,.41-1.58.79-1.52,1,.14.38,2.7-.19,5.87-.7,1.77-.3,3.36-.51,4.42-.71h0l-.64,1.77a8.25,8.25,0,0,0-1.32-.18,19.44,19.44,0,0,0-4.25.25,19,19,0,0,0-4.07,1.11c-1,.41-1.57.79-1.51,1,.13.38,2.69-.19,5.87-.7,2.16-.36,4.07-.6,5-.84h0l-.78,2.14h0c-.94,0-2.62.23-4.55.43-2.88.33-5.25.5-5.23.9,0,.19.63.4,1.62.52a17.61,17.61,0,0,0,3.84,0,16.46,16.46,0,0,0,3.71-.81l.28-.11h0l-.86,2.35h0c-.89,0-2.51.14-4.36.32-2.74.29-5,.51-5,.91,0,.19.61.38,1.55.49a17,17,0,0,0,3.65,0,16.77,16.77,0,0,0,3.53-.73l.28-.1h0l-1,2.69h0a18.08,18.08,0,0,0-4.78.16c-2.76.37-4.94,1-4.86,1.36s2.36.4,5.12,0a21.48,21.48,0,0,0,4.29-.93h0l-1.32,3.6h0c-.84.12-1.87.29-3,.47-2.74.45-5,.76-5,1.16,0,.19.62.36,1.58.43a16.39,16.39,0,0,0,3.68-.2,16.81,16.81,0,0,0,2.21-.51h0l-1.28,3.49c-.84.06-2.08.23-3.46.39-2.48.3-4.54.45-4.52.84,0,.19.54.41,1.41.54a13.25,13.25,0,0,0,3.36,0,13.06,13.06,0,0,0,2.8-.64h0l-1.61,4.41h0c-.94,0-2.15,0-3.46,0-2.92,0-5.3.08-5.3.48s2.45,1,5.43.92a20.44,20.44,0,0,0,2.91-.22h0l-1,2.83h0a31.85,31.85,0,0,0-3.64.14c-2.54.21-4.59.5-4.56.89s2.18.72,4.77.51a17.48,17.48,0,0,0,3.06-.51h0L70.45,1803h0a11.94,11.94,0,0,0-3.77,0c-2.19.26-3.91.78-3.85,1.17s1.91.49,4.1.23a13.67,13.67,0,0,0,3.27-.71L69,1807.06h0a18,18,0,0,0-4.67.43c-2.82.56-5,1.45-4.88,1.82s2.42.11,5.21-.44a30.9,30.9,0,0,0,4-1h0l-1.24,3.39h0a19.25,19.25,0,0,0-4.67.32c-2.94.52-5.2,1.42-5.09,1.8s2.49.1,5.39-.41c1.65-.29,3.12-.59,4.07-.87h0l-.94,2.57,17.2-4.24.16,0,6.32-1.56h0L96,1807.3l.21-.06,5.2-1.28.22,0,12.21-3h0l11.06-2.73h0c66.45-16.4,172.91-42.71,230.5-57.13l.25-.06,5.56-1.39.26-.07,10-2.52.19,0,.73-.18,13.17,2.44,1.12-6.06c2.88-.74,5.12-1.32,6.61-1.72l-.59-.5h0l.94-.3a13.25,13.25,0,0,0,2.86-1.35c.69-.45,1.06-.83,1-1-.17-.36-2,.23-4.3,1l-1.7.6h0l-2.84-2.42h0c.86-.24,1.9-.57,3-1,.88-.31,1.71-.61,2.43-.89l.74.14a77.06,77.06,0,0,0,89.88-61.8l9.55-51.61a14.5,14.5,0,0,0,5.54.1l13.09-2.29h0l5.56-1A14.61,14.61,0,0,0,530.42,1594.28ZM222,1410.63a70.07,70.07,0,0,1,12.66,1.16l46.11,8.54c-.64.26-1.29.5-1.94.73v0c-.51.31-.11,2.4.92,5L259.36,1437,231,1431.78a49,49,0,0,0-57.17,39.31l-2.41,13-20.84,11.15-1.41-2.63.11-.6c.91-.73,1.36-1.64,1-2.26l-.45-.84,4-21.52A69.38,69.38,0,0,1,222,1410.63Zm159,312.24h0l-2.73-2.33h0c.56-.18,1.17-.42,1.81-.7a16.84,16.84,0,0,0,1.81-.94l-.72,3.86ZM184.86,1681a69.46,69.46,0,0,1-55.6-80.86l17.33-93.64,5,9.3.72-.42.26-.16.43-.28.29-.2.35-.26.29-.22.12-.09h0c2.7-2.19,4-4.92,3-6.76l-5-9.33,18.58-9.94-21.42,115.71A49.13,49.13,0,0,0,188.55,1661l37.51,6.94-2.71,14.65,112.24,20.78-1.17.27-.45.1-1.26.28h0c-5.27,1.21-11.39,2.64-18.18,4.26h0c-8.34,2-17.7,4.26-27.75,6.72l-16.2-3-2.25-.82-2.37-2.51a.76.76,0,0,0-.34-.59.45.45,0,0,0-.2,0c-.55-.28-1.65.74-2.84,2.48l-62.91-11.64,2.72-14.66Zm206.44,46.16a22.35,22.35,0,0,0-3.33,1.43l.38-2,3.09.58Zm85.9-62.61a69.38,69.38,0,0,1-80.86,55.6l-12.84-2.38c.34-.3.51-.54.45-.66-.17-.35-2.1.38-4.41,1.41-.87.4-1.67.78-2.33,1.12l-2.21-1.88h0c.5-.23,1-.48,1.58-.78,2.6-1.41,4.42-3.08,4.23-3.41s-2.29.75-4.84,2.13c-.74.4-1.43.79-2.05,1.14l-3.28-2.8h0a14.46,14.46,0,0,0,1.43-.5,12.61,12.61,0,0,0,2.91-1.62c.68-.53,1-1,.95-1.14-.2-.35-2.05.51-4.36,1.43l-2.09.84h0l-2.68-2.28h0l.83-.28a16.44,16.44,0,0,0,3.3-1.59c.79-.52,1.22-1,1.14-1.13-.17-.36-2.29.46-4.91,1.38l-1.59.57h0l-2.29-2,.11-.6c.65-.2,1.37-.45,2.13-.75,2.58-1,4.56-2.12,4.43-2.49s-2.34.15-4.92,1.16l-1.36.56.42-2.26a12.7,12.7,0,0,0,1.37-.87c.76-.55,1.17-1,1.08-1.17s-.94,0-2.17.52l1.49-8,34.18,6.33a50,50,0,0,0,9,.82,49,49,0,0,0,48.21-40.14l24.58-132.75a49.11,49.11,0,0,0-39.32-57.17l-178.06-33,16.7-8.93c1.36,2.68,2.78,4.53,3.38,4.34v0a38.93,38.93,0,0,1,6.82-3.13,25.1,25.1,0,0,0,24.27,8.6c1.05.92,1.79,1,2.47.67,1.34-.61,1.74-2.34-.37-9-.35-1.11-.75-2.31-1.21-3.56l129.69,24a69.48,69.48,0,0,1,55.6,80.86l-7.49,40.47-1.71.3a14.61,14.61,0,0,0-11.87,16.91l2.29,13.09a14.5,14.5,0,0,0,4.21,8Z"/><path class="cls-6" d="M205.7,1717.2l-.47-.24-.95.63-.41,1.14-4.88,2.06.82,5.14h0l1.33-.32,0,.1,0,.08v0l0,.17v.08l-.07.29v0l-.66,2.93,3.15-.21,2-3.63,2.32.42,5.25-5.22-2.12-2.34-2.79,1.08-2.39-2.08.07-.12Z"/><path class="cls-6" d="M319.37,1062.42a.86.86,0,0,0,0-.16h0a19.37,19.37,0,0,0-38.73.12v0h0V1067a19.37,19.37,0,0,0,38.72,0v-4.55Z"/><path class="cls-6" d="M406,794.34a0,0,0,0,0-.08,0s0,0,0,0S406,794.36,406,794.34Z"/><path class="cls-6" d="M413.09,794.34s0,0,0,0,0,0,0,0l0,0Z"/><circle class="cls-6" cx="381.22" cy="801.41" r="0.22"/><path class="cls-6" d="M395.55,801.41a.18.18,0,0,0-.18-.17.18.18,0,0,0-.17.17.18.18,0,0,0,.17.18A.18.18,0,0,0,395.55,801.41Z"/><circle class="cls-6" cx="402.45" cy="801.41" r="0.14"/><path class="cls-6" d="M409.63,801.41a.11.11,0,0,0-.1-.1.1.1,0,0,0-.1.1.09.09,0,0,0,.1.1A.1.1,0,0,0,409.63,801.41Z"/><circle class="cls-6" cx="416.61" cy="801.41" r="0.08"/><path class="cls-6" d="M423.72,801.41a0,0,0,0,0-.08,0,0,0,0,0,0,.08,0A0,0,0,0,0,423.72,801.41Z"/><path class="cls-6" d="M430.78,801.41l0,0,0,0,0,0Z"/><path class="cls-6" d="M377.33,808.49a.35.35,0,0,0,.35.35.35.35,0,0,0,.35-.35.34.34,0,0,0-.35-.35A.35.35,0,0,0,377.33,808.49Z"/><path class="cls-6" d="M384.42,808.49a.34.34,0,1,0,.34-.33A.34.34,0,0,0,384.42,808.49Z"/><path class="cls-6" d="M392.13,808.49a.3.3,0,1,0-.29.29A.29.29,0,0,0,392.13,808.49Z"/><path class="cls-6" d="M399.17,808.49a.26.26,0,0,0-.26-.26.26.26,0,0,0-.25.26.25.25,0,0,0,.25.25A.26.26,0,0,0,399.17,808.49Z"/><circle class="cls-6" cx="405.99" cy="808.49" r="0.22"/><path class="cls-6" d="M412.89,808.49a.18.18,0,0,0,.18.18.18.18,0,0,0,0-.36A.18.18,0,0,0,412.89,808.49Z"/><path class="cls-6" d="M420.26,808.49a.12.12,0,0,0-.12-.12.11.11,0,0,0-.11.12.12.12,0,0,0,.11.12A.12.12,0,0,0,420.26,808.49Z"/><path class="cls-6" d="M427.22,808.57a.08.08,0,1,0-.08-.08A.09.09,0,0,0,427.22,808.57Z"/><path class="cls-6" d="M434.3,808.53a0,0,0,0,0,0-.08,0,0,0,0,0,0,.08A0,0,0,0,0,434.3,808.53Z"/><path class="cls-6" d="M380.69,815.57a.53.53,0,1,0,1.06,0,.53.53,0,0,0-1.06,0Z"/><path class="cls-6" d="M387.81,815.57a.49.49,0,1,0,.49-.49A.49.49,0,0,0,387.81,815.57Z"/><path class="cls-6" d="M394.92,815.57a.45.45,0,0,0,.45.45.45.45,0,1,0,0-.9A.45.45,0,0,0,394.92,815.57Z"/><path class="cls-6" d="M402.06,815.57a.39.39,0,1,0,.39-.4A.39.39,0,0,0,402.06,815.57Z"/><path class="cls-6" d="M409.19,815.57a.34.34,0,1,0,.34-.34A.34.34,0,0,0,409.19,815.57Z"/><path class="cls-6" d="M416.33,815.57a.28.28,0,0,0,.55,0,.28.28,0,1,0-.55,0Z"/><circle class="cls-6" cx="423.68" cy="815.57" r="0.22"/><path class="cls-6" d="M430.76,815.72a.16.16,0,0,0,.16-.15.16.16,0,0,0-.32,0A.16.16,0,0,0,430.76,815.72Z"/><path class="cls-6" d="M437.84,815.66a.09.09,0,0,0,.09-.09.09.09,0,0,0-.09-.1.09.09,0,0,0-.1.1A.09.09,0,0,0,437.84,815.66Z"/><path class="cls-6" d="M444.91,815.61a0,0,0,0,0,0-.08,0,0,0,0,0,0,.08A0,0,0,0,0,444.91,815.61Z"/><path class="cls-6" d="M452,815.57a0,0,0,0,0,0,0,0,0,0,0,0,0,0l0,0Z"/><path class="cls-6" d="M391.21,822.64a.63.63,0,1,0,.63-.62A.63.63,0,0,0,391.21,822.64Z"/><path class="cls-6" d="M398.34,822.64a.57.57,0,0,0,.57.57.56.56,0,0,0,.57-.57.57.57,0,0,0-.57-.57A.58.58,0,0,0,398.34,822.64Z"/><path class="cls-6" d="M405.5,822.64a.49.49,0,1,0,.49-.49A.49.49,0,0,0,405.5,822.64Z"/><path class="cls-6" d="M412.65,822.64a.42.42,0,1,0,.42-.41A.42.42,0,0,0,412.65,822.64Z"/><path class="cls-6" d="M419.81,822.64a.34.34,0,1,0,.33-.33A.34.34,0,0,0,419.81,822.64Z"/><path class="cls-6" d="M427.22,822.9a.26.26,0,0,0,.26-.26.26.26,0,0,0-.26-.25.25.25,0,0,0-.25.25A.26.26,0,0,0,427.22,822.9Z"/><path class="cls-6" d="M434.3,822.82a.17.17,0,0,0,.17-.18.17.17,0,0,0-.17-.17.18.18,0,0,0-.18.17A.18.18,0,0,0,434.3,822.82Z"/><path class="cls-6" d="M441.37,822.74a.09.09,0,0,0,.1-.1.09.09,0,0,0-.1-.09.09.09,0,0,0-.09.09A.09.09,0,0,0,441.37,822.74Z"/><path class="cls-6" d="M448.45,822.7a.06.06,0,0,0,.06-.06.06.06,0,0,0-.12,0A.06.06,0,0,0,448.45,822.7Z"/><path class="cls-6" d="M455.55,822.64l0,0,0,0,0,0Z"/><path class="cls-6" d="M394.55,829.72a.83.83,0,1,0,.82-.82A.83.83,0,0,0,394.55,829.72Z"/><path class="cls-6" d="M401.71,829.72a.75.75,0,0,0,.74.75.76.76,0,0,0,.75-.75.75.75,0,0,0-.75-.74A.74.74,0,0,0,401.71,829.72Z"/><path class="cls-6" d="M408.86,829.72a.67.67,0,1,0,.67-.67A.67.67,0,0,0,408.86,829.72Z"/><circle class="cls-6" cx="416.61" cy="829.72" r="0.57"/><path class="cls-6" d="M423.21,829.72a.47.47,0,1,0,.47-.47A.47.47,0,0,0,423.21,829.72Z"/><circle class="cls-6" cx="430.76" cy="829.72" r="0.37"/><path class="cls-6" d="M437.84,830a.28.28,0,0,0,.27-.28.28.28,0,0,0-.55,0A.28.28,0,0,0,437.84,830Z"/><path class="cls-6" d="M444.91,829.9a.18.18,0,1,0,0-.36.18.18,0,0,0,0,.36Z"/><path class="cls-6" d="M452,829.84a.12.12,0,0,0,.12-.12.12.12,0,0,0-.12-.12.13.13,0,0,0-.12.12A.12.12,0,0,0,452,829.84Z"/><path class="cls-6" d="M459.07,829.76a0,0,0,0,0,0-.08,0,0,0,0,0,0,.08A0,0,0,0,0,459.07,829.76Z"/><path class="cls-6" d="M466.16,829.72s0,0,0,0l0,0,0,0S466.16,829.73,466.16,829.72Z"/><path class="cls-6" d="M405.13,836.8a.86.86,0,1,0,.86-.87A.86.86,0,0,0,405.13,836.8Z"/><path class="cls-6" d="M412.34,836.8a.73.73,0,0,0,.73.72.72.72,0,0,0,.72-.72.73.73,0,0,0-.72-.73A.73.73,0,0,0,412.34,836.8Z"/><path class="cls-6" d="M419.54,836.8a.61.61,0,1,0,.6-.61A.6.6,0,0,0,419.54,836.8Z"/><path class="cls-6" d="M427.22,837.31a.51.51,0,1,0-.51-.51A.51.51,0,0,0,427.22,837.31Z"/><path class="cls-6" d="M434.3,837.19a.4.4,0,0,0,.39-.39.39.39,0,0,0-.39-.39.38.38,0,0,0-.39.39A.39.39,0,0,0,434.3,837.19Z"/><path class="cls-6" d="M441.37,837.07a.27.27,0,0,0,.28-.27.28.28,0,1,0-.55,0A.27.27,0,0,0,441.37,837.07Z"/><path class="cls-6" d="M448.45,837a.17.17,0,0,0,.18-.17.18.18,0,0,0-.18-.18.17.17,0,0,0-.17.18A.16.16,0,0,0,448.45,837Z"/><path class="cls-6" d="M455.53,836.9a.11.11,0,0,0,.1-.1.1.1,0,0,0-.1-.1.09.09,0,0,0-.1.1A.1.1,0,0,0,455.53,836.9Z"/><path class="cls-6" d="M462.61,836.84a0,0,0,0,0,0-.08,0,0,0,1,0,0,.08Z"/><path class="cls-6" d="M401.25,843.87a1.2,1.2,0,1,0,1.2-1.19A1.2,1.2,0,0,0,401.25,843.87Z"/><path class="cls-6" d="M408.47,843.87a1.06,1.06,0,1,0,1.06-1A1.05,1.05,0,0,0,408.47,843.87Z"/><circle class="cls-6" cx="416.61" cy="843.87" r="0.92"/><path class="cls-6" d="M422.9,843.87a.79.79,0,1,0,.78-.78A.78.78,0,0,0,422.9,843.87Z"/><circle class="cls-6" cx="430.76" cy="843.87" r="0.65"/><path class="cls-6" d="M437.84,844.39a.52.52,0,0,0,0-1,.52.52,0,0,0,0,1Z"/><path class="cls-6" d="M444.91,844.27a.4.4,0,1,0,0-.79.4.4,0,0,0,0,.79Z"/><path class="cls-6" d="M452,844.15a.28.28,0,1,0,0-.55.28.28,0,0,0,0,.55Z"/><circle class="cls-6" cx="473.22" cy="843.87" r="0.02"/><path class="cls-6" d="M480.3,858.07a0,0,0,0,0,0-.08,0,0,0,0,0,0,.08A0,0,0,0,0,480.3,858.07Z"/><path class="cls-6" d="M476.76,865.16a.06.06,0,0,0,.06,0,.06.06,0,1,0-.12,0A.06.06,0,0,0,476.76,865.16Z"/><path class="cls-6" d="M480.3,872.26a.08.08,0,0,0,.08-.08.08.08,0,0,0-.16,0A.08.08,0,0,0,480.3,872.26Z"/><path class="cls-6" d="M487.4,872.18l0,0s0,0,0,0,0,0,0,0A0,0,0,0,0,487.4,872.18Z"/><circle class="cls-6" cx="476.76" cy="879.26" r="0.1"/><path class="cls-6" d="M483.84,879.3a0,0,0,1,0,0-.08,0,0,0,0,0,0,.08A0,0,0,0,0,483.84,879.3Z"/><circle class="cls-6" cx="448.45" cy="893.41" r="0.8"/><path class="cls-6" d="M409.53,897.92a2.57,2.57,0,1,0,2.57,2.57A2.57,2.57,0,0,0,409.53,897.92Z"/><circle class="cls-6" cx="416.61" cy="900.49" r="2.24"/><path class="cls-6" d="M423.68,902.39a1.9,1.9,0,1,0-1.9-1.9A1.91,1.91,0,0,0,423.68,902.39Z"/><path class="cls-6" d="M430.76,902.1a1.61,1.61,0,1,0-1.61-1.61A1.61,1.61,0,0,0,430.76,902.1Z"/><path class="cls-6" d="M437.84,901.81a1.32,1.32,0,1,0-1.32-1.32A1.32,1.32,0,0,0,437.84,901.81Z"/><path class="cls-6" d="M444.91,899.41a1.08,1.08,0,0,0,0,2.16,1.08,1.08,0,0,0,0-2.16Z"/><path class="cls-6" d="M452,899.65a.84.84,0,1,0,.84.84A.84.84,0,0,0,452,899.65Z"/><path class="cls-6" d="M403.38,907.57A2.61,2.61,0,1,0,406,905,2.61,2.61,0,0,0,403.38,907.57Z"/><path class="cls-6" d="M410.81,907.57a2.26,2.26,0,1,0,2.26-2.26A2.26,2.26,0,0,0,410.81,907.57Z"/><path class="cls-6" d="M420.14,905.65a1.92,1.92,0,1,0,1.93,1.92A1.92,1.92,0,0,0,420.14,905.65Z"/><path class="cls-6" d="M427.22,905.92a1.65,1.65,0,1,0,1.65,1.65A1.65,1.65,0,0,0,427.22,905.92Z"/><path class="cls-6" d="M434.3,906.21a1.36,1.36,0,1,0,0,2.71,1.36,1.36,0,0,0,0-2.71Z"/><path class="cls-6" d="M441.37,906.47a1.1,1.1,0,1,0,1.1,1.1A1.09,1.09,0,0,0,441.37,906.47Z"/><path class="cls-6" d="M448.45,906.7a.87.87,0,1,0,.87.87A.86.86,0,0,0,448.45,906.7Z"/><path class="cls-6" d="M456.18,907.57a.65.65,0,1,0-.65.65A.65.65,0,0,0,456.18,907.57Z"/><path class="cls-6" d="M409.53,912a2.61,2.61,0,1,0,2.61,2.61A2.61,2.61,0,0,0,409.53,912Z"/><circle class="cls-6" cx="416.61" cy="914.65" r="2.26"/><path class="cls-6" d="M423.68,912.72a1.93,1.93,0,1,0,1.93,1.93A1.92,1.92,0,0,0,423.68,912.72Z"/><path class="cls-6" d="M430.76,913a1.63,1.63,0,1,0,1.63,1.63A1.63,1.63,0,0,0,430.76,913Z"/><path class="cls-6" d="M437.84,913.31a1.34,1.34,0,1,0,1.33,1.34A1.34,1.34,0,0,0,437.84,913.31Z"/><path class="cls-6" d="M444.91,913.57a1.08,1.08,0,1,0,1.08,1.08A1.08,1.08,0,0,0,444.91,913.57Z"/><path class="cls-6" d="M452,913.8a.85.85,0,1,0,.84.85A.84.84,0,0,0,452,913.8Z"/><path class="cls-6" d="M403.46,921.72a2.53,2.53,0,1,0,2.53-2.53A2.53,2.53,0,0,0,403.46,921.72Z"/><path class="cls-6" d="M410.89,921.72a2.18,2.18,0,1,0,2.18-2.18A2.17,2.17,0,0,0,410.89,921.72Z"/><path class="cls-6" d="M420.14,923.61a1.89,1.89,0,1,0-1.88-1.89A1.89,1.89,0,0,0,420.14,923.61Z"/><path class="cls-6" d="M427.22,920.13a1.59,1.59,0,1,0,1.59,1.59A1.59,1.59,0,0,0,427.22,920.13Z"/><path class="cls-6" d="M434.3,920.43a1.3,1.3,0,1,0,1.29,1.29A1.3,1.3,0,0,0,434.3,920.43Z"/><path class="cls-6" d="M441.37,920.66a1.06,1.06,0,1,0,1.06,1.06A1.06,1.06,0,0,0,441.37,920.66Z"/><circle class="cls-6" cx="448.45" cy="921.72" r="0.82"/><path class="cls-6" d="M455.53,921.11a.61.61,0,0,0-.61.61.61.61,0,0,0,.61.61.61.61,0,0,0,.61-.61A.62.62,0,0,0,455.53,921.11Z"/><circle class="cls-6" cx="462.61" cy="921.72" r="0.43"/><path class="cls-6" d="M469.68,921.45a.27.27,0,0,0-.27.27.28.28,0,0,0,.27.28.29.29,0,0,0,.28-.28A.28.28,0,0,0,469.68,921.45Z"/><path class="cls-6" d="M399.74,928.8a2.71,2.71,0,1,0,2.71-2.71A2.71,2.71,0,0,0,399.74,928.8Z"/><path class="cls-6" d="M407.13,928.8a2.4,2.4,0,1,0,2.4-2.39A2.4,2.4,0,0,0,407.13,928.8Z"/><path class="cls-6" d="M416.61,930.88a2.08,2.08,0,1,0-2.09-2.08A2.08,2.08,0,0,0,416.61,930.88Z"/><path class="cls-6" d="M423.68,927a1.79,1.79,0,1,0,1.79,1.79A1.79,1.79,0,0,0,423.68,927Z"/><path class="cls-6" d="M430.76,927.29a1.51,1.51,0,1,0,1.51,1.51A1.51,1.51,0,0,0,430.76,927.29Z"/><path class="cls-6" d="M437.84,927.56a1.24,1.24,0,1,0,1.23,1.24A1.24,1.24,0,0,0,437.84,927.56Z"/><circle class="cls-6" cx="444.91" cy="928.8" r="1"/><path class="cls-6" d="M452,928a.79.79,0,0,0-.78.79.78.78,0,0,0,.78.78.79.79,0,0,0,.79-.78A.8.8,0,0,0,452,928Z"/><circle class="cls-6" cx="459.07" cy="928.8" r="0.59"/><path class="cls-6" d="M466.14,928.39a.41.41,0,1,0,.42.41A.41.41,0,0,0,466.14,928.39Z"/><circle class="cls-6" cx="473.22" cy="928.8" r="0.26"/><path class="cls-6" d="M480.3,928.66a.14.14,0,0,0,0,.28.14.14,0,0,0,0-.28Z"/><path class="cls-6" d="M487.38,928.74a.06.06,0,1,0,0,.12.06.06,0,0,0,0-.12Z"/><circle class="cls-6" cx="398.91" cy="935.88" r="2.49"/><path class="cls-6" d="M408.23,935.88a2.24,2.24,0,1,0-2.24,2.23A2.24,2.24,0,0,0,408.23,935.88Z"/><circle class="cls-6" cx="413.07" cy="935.88" r="1.94"/><path class="cls-6" d="M420.14,934.21a1.67,1.67,0,1,0,1.67,1.67A1.66,1.66,0,0,0,420.14,934.21Z"/><path class="cls-6" d="M427.22,934.46a1.42,1.42,0,1,0,1.41,1.42A1.42,1.42,0,0,0,427.22,934.46Z"/><path class="cls-6" d="M434.3,934.7a1.18,1.18,0,1,0,1.18,1.18A1.18,1.18,0,0,0,434.3,934.7Z"/><path class="cls-6" d="M441.37,934.93a.95.95,0,1,0,.95,1A.95.95,0,0,0,441.37,934.93Z"/><path class="cls-6" d="M448.45,935.15a.73.73,0,0,0-.72.73.72.72,0,0,0,.72.72.73.73,0,0,0,.73-.72A.73.73,0,0,0,448.45,935.15Z"/><path class="cls-6" d="M455.53,935.35a.53.53,0,0,0-.53.53.53.53,0,1,0,1.06,0A.53.53,0,0,0,455.53,935.35Z"/><path class="cls-6" d="M462.61,935.5a.38.38,0,1,0,0,.75.38.38,0,0,0,0-.75Z"/><path class="cls-6" d="M469.68,935.64a.23.23,0,0,0-.23.24.23.23,0,0,0,.23.23.23.23,0,0,0,.24-.23A.24.24,0,0,0,469.68,935.64Z"/><circle class="cls-6" cx="476.76" cy="935.88" r="0.12"/><path class="cls-6" d="M483.84,935.84a0,0,0,0,0,0,0,0,0,0,0,0,.08,0A0,0,0,0,0,483.84,935.84Z"/><circle class="cls-6" cx="402.45" cy="942.95" r="2.28"/><path class="cls-6" d="M409.53,945a2,2,0,1,0-2-2A2,2,0,0,0,409.53,945Z"/><path class="cls-6" d="M416.61,941.19a1.77,1.77,0,1,0,1.76,1.76A1.76,1.76,0,0,0,416.61,941.19Z"/><path class="cls-6" d="M423.68,941.42a1.53,1.53,0,1,0,1.53,1.53A1.54,1.54,0,0,0,423.68,941.42Z"/><path class="cls-6" d="M430.76,941.66a1.3,1.3,0,1,0,1.29,1.29A1.3,1.3,0,0,0,430.76,941.66Z"/><path class="cls-6" d="M437.84,941.89A1.06,1.06,0,1,0,438.9,943,1.06,1.06,0,0,0,437.84,941.89Z"/><path class="cls-6" d="M444.91,942.09a.87.87,0,1,0,.87.86A.87.87,0,0,0,444.91,942.09Z"/><path class="cls-6" d="M452,942.29a.66.66,0,0,0-.67.66.67.67,0,1,0,1.34,0A.66.66,0,0,0,452,942.29Z"/><path class="cls-6" d="M459.07,942.46a.49.49,0,1,0,.49.49A.49.49,0,0,0,459.07,942.46Z"/><path class="cls-6" d="M466.14,942.64a.32.32,0,0,0,0,.63.32.32,0,1,0,0-.63Z"/><circle class="cls-6" cx="473.22" cy="942.95" r="0.2"/><circle class="cls-6" cx="480.3" cy="942.95" r="0.1"/><path class="cls-6" d="M487.36,943s0,0,0,0l0,0a0,0,0,0,0,0,0S487.36,942.94,487.36,943Z"/><path class="cls-6" d="M398.91,948a2,2,0,1,0,2,2A2,2,0,0,0,398.91,948Z"/><path class="cls-6" d="M406,948.21a1.83,1.83,0,1,0,1.82,1.82A1.82,1.82,0,0,0,406,948.21Z"/><path class="cls-6" d="M413.07,948.42a1.61,1.61,0,1,0,1.61,1.61A1.61,1.61,0,0,0,413.07,948.42Z"/><circle class="cls-6" cx="420.14" cy="950.03" r="1.37"/><path class="cls-6" d="M427.22,948.87a1.16,1.16,0,1,0,1.16,1.16A1.16,1.16,0,0,0,427.22,948.87Z"/><path class="cls-6" d="M434.3,949.07a1,1,0,1,0,1,1A1,1,0,0,0,434.3,949.07Z"/><path class="cls-6" d="M441.37,949.28a.75.75,0,1,0,.75.75A.75.75,0,0,0,441.37,949.28Z"/><circle class="cls-6" cx="448.45" cy="950.03" r="0.57"/><path class="cls-6" d="M455.53,949.62a.41.41,0,1,0,.41.41A.41.41,0,0,0,455.53,949.62Z"/><path class="cls-6" d="M462.61,949.76a.27.27,0,0,0-.28.27.28.28,0,1,0,.55,0A.27.27,0,0,0,462.61,949.76Z"/><path class="cls-6" d="M469.68,949.87a.16.16,0,0,0,0,.32.16.16,0,0,0,0-.32Z"/><path class="cls-6" d="M476.76,950a.06.06,0,1,0,.06.06A.06.06,0,0,0,476.76,950Z"/><path class="cls-6" d="M483.82,950l0,0,0,0,0,0Z"/><circle class="cls-6" cx="395.37" cy="957.11" r="1.94"/><path class="cls-6" d="M402.45,955.34a1.77,1.77,0,1,0,1.77,1.77A1.77,1.77,0,0,0,402.45,955.34Z"/><path class="cls-6" d="M409.53,955.5a1.61,1.61,0,1,0,1.61,1.61A1.61,1.61,0,0,0,409.53,955.5Z"/><path class="cls-6" d="M416.61,955.71a1.4,1.4,0,1,0,1.39,1.4A1.4,1.4,0,0,0,416.61,955.71Z"/><path class="cls-6" d="M423.68,955.89a1.22,1.22,0,1,0,1.22,1.22A1.22,1.22,0,0,0,423.68,955.89Z"/><circle class="cls-6" cx="430.76" cy="957.11" r="1"/><path class="cls-6" d="M437.84,956.28a.83.83,0,1,0,.82.83A.83.83,0,0,0,437.84,956.28Z"/><circle class="cls-6" cx="444.91" cy="957.11" r="0.65"/><path class="cls-6" d="M452,956.62a.49.49,0,1,0,.49.49A.49.49,0,0,0,452,956.62Z"/><path class="cls-6" d="M459.07,956.77a.34.34,0,1,0,0,.67.34.34,0,0,0,0-.67Z"/><circle class="cls-6" cx="466.14" cy="957.11" r="0.22"/><path class="cls-6" d="M473.22,957a.12.12,0,0,0-.12.12.13.13,0,0,0,.12.12.12.12,0,0,0,.12-.12A.12.12,0,0,0,473.22,957Z"/><path class="cls-6" d="M480.3,957.07a0,0,0,0,0,0,.08,0,0,0,0,0,0-.08A0,0,0,0,0,480.3,957.07Z"/><path class="cls-6" d="M393.5,964.18a1.67,1.67,0,1,0-1.66,1.67A1.66,1.66,0,0,0,393.5,964.18Z"/><path class="cls-6" d="M400.44,964.18a1.53,1.53,0,1,0-1.53,1.54A1.53,1.53,0,0,0,400.44,964.18Z"/><path class="cls-6" d="M406,962.81a1.38,1.38,0,1,0,1.37,1.37A1.37,1.37,0,0,0,406,962.81Z"/><path class="cls-6" d="M413.07,963a1.22,1.22,0,1,0,1.21,1.21A1.21,1.21,0,0,0,413.07,963Z"/><path class="cls-6" d="M420.14,963.14a1,1,0,1,0,0,2.08,1,1,0,0,0,0-2.08Z"/><path class="cls-6" d="M427.22,963.32a.87.87,0,1,0,.86.86A.86.86,0,0,0,427.22,963.32Z"/><path class="cls-6" d="M434.3,963.48a.7.7,0,0,0-.71.7.71.71,0,0,0,.71.71.7.7,0,0,0,.7-.71A.7.7,0,0,0,434.3,963.48Z"/><path class="cls-6" d="M441.37,963.64a.55.55,0,1,0,.55.54A.54.54,0,0,0,441.37,963.64Z"/><path class="cls-6" d="M448.45,963.79a.4.4,0,0,0,0,.79.4.4,0,0,0,0-.79Z"/><path class="cls-6" d="M455.53,963.91a.28.28,0,1,0,0,.55.28.28,0,0,0,0-.55Z"/><path class="cls-6" d="M462.61,964a.16.16,0,0,0-.16.15.16.16,0,0,0,.16.16.16.16,0,0,0,.15-.16A.15.15,0,0,0,462.61,964Z"/><path class="cls-6" d="M469.68,964.11a.08.08,0,0,0-.08.07.08.08,0,0,0,.08.08.07.07,0,0,0,.08-.08A.07.07,0,0,0,469.68,964.11Z"/><path class="cls-6" d="M476.74,964.18s0,0,0,0,0,0,0,0h0Z"/><path class="cls-6" d="M389.81,971.26a1.51,1.51,0,1,0-1.51,1.51A1.52,1.52,0,0,0,389.81,971.26Z"/><path class="cls-6" d="M396.79,971.26a1.42,1.42,0,1,0-1.42,1.41A1.42,1.42,0,0,0,396.79,971.26Z"/><path class="cls-6" d="M402.45,970a1.3,1.3,0,1,0,1.3,1.29A1.29,1.29,0,0,0,402.45,970Z"/><path class="cls-6" d="M409.53,970.1a1.16,1.16,0,1,0,1.16,1.16A1.16,1.16,0,0,0,409.53,970.1Z"/><circle class="cls-6" cx="416.61" cy="971.26" r="1"/><path class="cls-6" d="M423.68,970.4a.87.87,0,0,0,0,1.73.87.87,0,1,0,0-1.73Z"/><path class="cls-6" d="M430.76,970.54a.73.73,0,0,0-.73.72.73.73,0,0,0,1.46,0A.73.73,0,0,0,430.76,970.54Z"/><circle class="cls-6" cx="437.84" cy="971.26" r="0.57"/><circle class="cls-6" cx="444.91" cy="971.26" r="0.43"/><path class="cls-6" d="M452,971a.32.32,0,1,0,.31.31A.31.31,0,0,0,452,971Z"/><path class="cls-6" d="M459.07,971.07a.19.19,0,0,0-.2.19.2.2,0,0,0,.2.2.19.19,0,0,0,.19-.2A.18.18,0,0,0,459.07,971.07Z"/><path class="cls-6" d="M466.14,971.16a.1.1,0,0,0-.09.1.09.09,0,0,0,.09.1.09.09,0,0,0,.1-.1A.1.1,0,0,0,466.14,971.16Z"/><path class="cls-6" d="M473.22,971.22a0,0,0,0,0,0,.08,0,0,0,0,0,0-.08A0,0,0,0,0,473.22,971.22Z"/><path class="cls-6" d="M386,978.34a1.24,1.24,0,1,0-1.23,1.24A1.24,1.24,0,0,0,386,978.34Z"/><path class="cls-6" d="M393,978.34a1.18,1.18,0,1,0-1.17,1.18A1.17,1.17,0,0,0,393,978.34Z"/><path class="cls-6" d="M400,978.34a1.06,1.06,0,1,0-2.12,0,1.06,1.06,0,0,0,2.12,0Z"/><path class="cls-6" d="M406,977.38a1,1,0,1,0,1,1A1,1,0,0,0,406,977.38Z"/><path class="cls-6" d="M413.07,977.51a.83.83,0,1,0,.82.83A.83.83,0,0,0,413.07,977.51Z"/><path class="cls-6" d="M420.14,977.63a.71.71,0,0,0,0,1.42.71.71,0,1,0,0-1.42Z"/><path class="cls-6" d="M427.22,977.77a.57.57,0,0,0-.57.57.58.58,0,0,0,.57.57.57.57,0,0,0,.57-.57A.56.56,0,0,0,427.22,977.77Z"/><path class="cls-6" d="M434.3,977.89a.45.45,0,1,0,.45.45A.45.45,0,0,0,434.3,977.89Z"/><path class="cls-6" d="M441.37,978a.33.33,0,0,0-.33.33.34.34,0,0,0,.67,0A.33.33,0,0,0,441.37,978Z"/><path class="cls-6" d="M448.45,978.12a.21.21,0,0,0-.21.22.21.21,0,0,0,.21.21.21.21,0,0,0,.22-.21A.22.22,0,0,0,448.45,978.12Z"/><path class="cls-6" d="M455.53,978.2a.14.14,0,0,0-.14.14.14.14,0,0,0,.14.14.15.15,0,0,0,.14-.14A.14.14,0,0,0,455.53,978.2Z"/><path class="cls-6" d="M462.61,978.28a.06.06,0,0,0,0,.12.06.06,0,0,0,0-.12Z"/><path class="cls-6" d="M469.66,978.34l0,0,0,0,0,0Z"/><path class="cls-6" d="M382.28,985.42a1.06,1.06,0,1,0-1.06,1.06A1.05,1.05,0,0,0,382.28,985.42Z"/><circle class="cls-6" cx="388.3" cy="985.42" r="1"/><path class="cls-6" d="M396.32,985.42a.95.95,0,1,0-1.89,0,.95.95,0,0,0,1.89,0Z"/><path class="cls-6" d="M402.45,984.55a.87.87,0,1,0,.86.87A.86.86,0,0,0,402.45,984.55Z"/><path class="cls-6" d="M409.53,984.67a.75.75,0,1,0,0,1.49.75.75,0,0,0,0-1.49Z"/><circle class="cls-6" cx="416.61" cy="985.42" r="0.65"/><path class="cls-6" d="M423.68,984.87a.55.55,0,0,0-.55.55.55.55,0,0,0,.55.55.55.55,0,0,0,.55-.55A.54.54,0,0,0,423.68,984.87Z"/><circle class="cls-6" cx="430.76" cy="985.42" r="0.43"/><path class="cls-6" d="M437.84,985.08a.34.34,0,1,0,0,.67.34.34,0,0,0,0-.67Z"/><circle class="cls-6" cx="444.91" cy="985.42" r="0.24"/><path class="cls-6" d="M452,985.28a.14.14,0,0,0-.14.14.14.14,0,0,0,.28,0A.14.14,0,0,0,452,985.28Z"/><circle class="cls-6" cx="459.07" cy="985.42" r="0.08"/><path class="cls-6" d="M466.12,985.42l0,0s0,0,0,0,0,0,0,0Z"/><path class="cls-6" d="M378.51,992.49a.83.83,0,1,0-.83.83A.83.83,0,0,0,378.51,992.49Z"/><path class="cls-6" d="M385.54,992.49a.78.78,0,0,0-.78-.78.79.79,0,1,0,.78.78Z"/><path class="cls-6" d="M392.56,992.49a.73.73,0,0,0-1.45,0,.73.73,0,1,0,1.45,0Z"/><path class="cls-6" d="M399.58,992.49a.66.66,0,0,0-.67-.66.65.65,0,0,0-.66.66.66.66,0,0,0,.66.67A.67.67,0,0,0,399.58,992.49Z"/><path class="cls-6" d="M406,991.92a.58.58,0,0,0-.57.57.57.57,0,1,0,1.14,0A.58.58,0,0,0,406,991.92Z"/><path class="cls-6" d="M413.07,992a.49.49,0,1,0,.49.49A.49.49,0,0,0,413.07,992Z"/><path class="cls-6" d="M420.14,992.1a.4.4,0,0,0,0,.79.4.4,0,1,0,0-.79Z"/><path class="cls-6" d="M427.22,992.18a.32.32,0,1,0,.31.31A.31.31,0,0,0,427.22,992.18Z"/><circle class="cls-6" cx="434.3" cy="992.49" r="0.22"/><path class="cls-6" d="M441.37,992.36a.13.13,0,0,0-.13.13.13.13,0,0,0,.13.14.14.14,0,0,0,.14-.14A.13.13,0,0,0,441.37,992.36Z"/><path class="cls-6" d="M448.45,992.41a.09.09,0,0,0-.08.08.08.08,0,0,0,.08.08.07.07,0,0,0,.08-.08A.08.08,0,0,0,448.45,992.41Z"/><path class="cls-6" d="M455.51,992.49l0,0,0,0,0,0Z"/><path class="cls-6" d="M282.12,999.57l0,0,0,0a0,0,0,0,0,0,0A0,0,0,0,0,282.16,999.57Z"/><path class="cls-6" d="M289.26,999.57a0,0,0,1,0-.08,0,0,0,0,0,0,.08,0A0,0,0,0,0,289.26,999.57Z"/><path class="cls-6" d="M360.62,999.57a.63.63,0,1,0-.63.63A.63.63,0,0,0,360.62,999.57Z"/><circle class="cls-6" cx="367.07" cy="999.57" r="0.65"/><path class="cls-6" d="M374.77,999.57a.63.63,0,1,0-.63.63A.63.63,0,0,0,374.77,999.57Z"/><path class="cls-6" d="M381.83,999.57a.61.61,0,1,0-.61.61A.61.61,0,0,0,381.83,999.57Z"/><path class="cls-6" d="M388.89,999.57a.59.59,0,0,0-.59-.59.59.59,0,1,0,0,1.18A.59.59,0,0,0,388.89,999.57Z"/><path class="cls-6" d="M395.9,999.57a.53.53,0,0,0-.53-.53.53.53,0,0,0,0,1.06A.53.53,0,0,0,395.9,999.57Z"/><path class="cls-6" d="M402.45,999.08a.49.49,0,1,0,.49.49A.49.49,0,0,0,402.45,999.08Z"/><path class="cls-6" d="M409.53,999.16a.41.41,0,1,0,.41.41A.41.41,0,0,0,409.53,999.16Z"/><circle class="cls-6" cx="416.61" cy="999.57" r="0.33"/><path class="cls-6" d="M423.68,999.3a.27.27,0,0,0,0,.54.27.27,0,1,0,0-.54Z"/><path class="cls-6" d="M430.76,999.37a.2.2,0,1,0,.2.2A.2.2,0,0,0,430.76,999.37Z"/><circle class="cls-6" cx="437.84" cy="999.57" r="0.14"/><circle class="cls-6" cx="444.91" cy="999.57" r="0.08"/><path class="cls-6" d="M452,999.57l0,0,0,0a0,0,0,0,0,0,0A0,0,0,0,0,452,999.57Z"/><path class="cls-6" d="M285.68,1006.63l0,0,0,0,0,0Z"/><path class="cls-6" d="M292.8,1006.65a0,0,0,0,0-.08,0,0,0,0,0,0,.08,0A0,0,0,0,0,292.8,1006.65Z"/><path class="cls-6" d="M299.83,1006.57a.07.07,0,0,0-.07.08.08.08,0,0,0,.07.08.08.08,0,0,0,.08-.08A.07.07,0,0,0,299.83,1006.57Z"/><path class="cls-6" d="M306.91,1006.51a.14.14,0,0,0-.14.14.14.14,0,0,0,.14.13.13.13,0,0,0,.14-.13A.14.14,0,0,0,306.91,1006.51Z"/><path class="cls-6" d="M314.18,1006.65a.19.19,0,0,0-.19-.2.2.2,0,0,0-.2.2.19.19,0,0,0,.2.19A.18.18,0,0,0,314.18,1006.65Z"/><path class="cls-6" d="M356.9,1006.65a.45.45,0,1,0-.45.45A.45.45,0,0,0,356.9,1006.65Z"/><path class="cls-6" d="M364,1006.65a.45.45,0,1,0-.45.45A.45.45,0,0,0,364,1006.65Z"/><path class="cls-6" d="M371.06,1006.65a.46.46,0,1,0-.46.45A.46.46,0,0,0,371.06,1006.65Z"/><circle class="cls-6" cx="377.68" cy="1006.65" r="0.43"/><path class="cls-6" d="M385.17,1006.65a.41.41,0,1,0-.41.41A.41.41,0,0,0,385.17,1006.65Z"/><path class="cls-6" d="M392.21,1006.65a.38.38,0,1,0-.37.37A.38.38,0,0,0,392.21,1006.65Z"/><path class="cls-6" d="M399.23,1006.65a.32.32,0,1,0-.63,0,.32.32,0,0,0,.63,0Z"/><path class="cls-6" d="M406,1006.37a.29.29,0,0,0-.28.28.28.28,0,0,0,.28.27.27.27,0,0,0,.27-.27A.28.28,0,0,0,406,1006.37Z"/><path class="cls-6" d="M413.07,1006.43a.22.22,0,0,0-.22.22.21.21,0,0,0,.22.21.21.21,0,0,0,.21-.21A.21.21,0,0,0,413.07,1006.43Z"/><path class="cls-6" d="M420.14,1006.49a.16.16,0,0,0-.15.16.15.15,0,0,0,.15.15.16.16,0,0,0,.16-.15A.16.16,0,0,0,420.14,1006.49Z"/><path class="cls-6" d="M427.22,1006.55a.1.1,0,0,0-.1.1.1.1,0,1,0,.2,0A.1.1,0,0,0,427.22,1006.55Z"/><path class="cls-6" d="M434.3,1006.59a.06.06,0,0,0-.06.06.06.06,0,0,0,.12,0A.06.06,0,0,0,434.3,1006.59Z"/><path class="cls-6" d="M441.36,1006.65s0,0,0,0,0,0,0,0,0,0,0,0S441.36,1006.64,441.36,1006.65Z"/><path class="cls-6" d="M303.35,1013.72l0,0,0,0,0,0Z"/><path class="cls-6" d="M310.51,1013.72a.06.06,0,0,0-.12,0,.06.06,0,0,0,.12,0Z"/><path class="cls-6" d="M360.28,1013.72a.29.29,0,0,0-.29-.29.3.3,0,1,0,0,.59A.29.29,0,0,0,360.28,1013.72Z"/><path class="cls-6" d="M367.36,1013.72a.3.3,0,0,0-.59,0,.3.3,0,1,0,.59,0Z"/><path class="cls-6" d="M374.44,1013.72a.3.3,0,1,0-.3.3A.29.29,0,0,0,374.44,1013.72Z"/><path class="cls-6" d="M381.49,1013.72a.27.27,0,1,0-.27.28A.27.27,0,0,0,381.49,1013.72Z"/><circle class="cls-6" cx="388.3" cy="1013.72" r="0.26"/><path class="cls-6" d="M395.61,1013.72a.23.23,0,0,0-.24-.23.23.23,0,0,0-.23.23.23.23,0,0,0,.23.24A.24.24,0,0,0,395.61,1013.72Z"/><path class="cls-6" d="M402.45,1013.53a.2.2,0,1,0,.2.19A.2.2,0,0,0,402.45,1013.53Z"/><path class="cls-6" d="M409.53,1013.57a.16.16,0,0,0-.16.15.16.16,0,0,0,.16.16.16.16,0,1,0,0-.31Z"/><circle class="cls-6" cx="416.61" cy="1013.72" r="0.12"/><path class="cls-6" d="M423.68,1013.65a.08.08,0,0,0-.08.07.08.08,0,0,0,.08.08.07.07,0,0,0,.08-.08A.07.07,0,0,0,423.68,1013.65Z"/><path class="cls-6" d="M430.76,1013.68a0,0,0,0,0,0,0,0,0,0,0,0,.08,0A0,0,0,0,0,430.76,1013.68Z"/><path class="cls-6" d="M437.82,1013.72l0,0,0,0,0,0Z"/><path class="cls-6" d="M356.29,1020.8a.16.16,0,1,0,.16-.16A.16.16,0,0,0,356.29,1020.8Z"/><path class="cls-6" d="M363.35,1020.8a.18.18,0,0,0,.18.18.18.18,0,0,0,0-.36A.18.18,0,0,0,363.35,1020.8Z"/><path class="cls-6" d="M370.45,1020.8a.16.16,0,0,0,.15.16.16.16,0,0,0,0-.32A.16.16,0,0,0,370.45,1020.8Z"/><path class="cls-6" d="M377.52,1020.8a.16.16,0,1,0,.16-.16A.16.16,0,0,0,377.52,1020.8Z"/><circle class="cls-6" cx="384.76" cy="1020.8" r="0.14"/><path class="cls-6" d="M391.72,1020.8a.12.12,0,0,0,.12.12.11.11,0,0,0,.11-.12.12.12,0,0,0-.11-.12A.12.12,0,0,0,391.72,1020.8Z"/><path class="cls-6" d="M398.81,1020.8a.1.1,0,0,0,.1.1.09.09,0,0,0,.1-.1.1.1,0,0,0-.1-.1A.11.11,0,0,0,398.81,1020.8Z"/><path class="cls-6" d="M406,1020.74a.06.06,0,1,0,.06.06A.06.06,0,0,0,406,1020.74Z"/><path class="cls-6" d="M413.07,1020.76a0,0,0,1,0,0,.08,0,0,0,0,0,0-.08A0,0,0,0,0,413.07,1020.76Z"/><path class="cls-6" d="M420.12,1020.8a0,0,0,0,0,0,0l0,0,0,0Z"/><path class="cls-6" d="M359.93,1027.88a.06.06,0,1,0,.06-.06A.06.06,0,0,0,359.93,1027.88Z"/><circle class="cls-6" cx="367.07" cy="1027.88" r="0.08"/><path class="cls-6" d="M374.08,1027.88a.06.06,0,0,0,.06.06.06.06,0,0,0,0-.12A.06.06,0,0,0,374.08,1027.88Z"/><path class="cls-6" d="M381.16,1027.88a.06.06,0,1,0,.06-.06A.06.06,0,0,0,381.16,1027.88Z"/><path class="cls-6" d="M388.24,1027.88a.06.06,0,0,0,.06.06.06.06,0,0,0,0-.12A.06.06,0,0,0,388.24,1027.88Z"/><path class="cls-6" d="M395.33,1027.88a0,0,0,0,0,0,0,0,0,0,1,0,0-.08A0,0,0,0,0,395.33,1027.88Z"/><circle class="cls-6" cx="402.45" cy="1027.88" r="0.02"/><path class="cls-6" d="M409.51,1027.88l0,0,0,0a0,0,0,0,0,0,0A0,0,0,0,0,409.55,1027.88Z"/><polygon class="cls-6" points="293.69 1032.27 293.69 1032.27 293.69 1032.27 292.89 1033.6 292.57 1034.14 293.11 1035.52 294.81 1033.21 293.69 1032.27"/><polygon class="cls-6" points="285 1024.68 286.33 1027.96 286.74 1026.18 285.61 1024.42 285 1024.68"/><polygon class="cls-6" points="286.96 1034.95 287.19 1036.73 292.2 1042.53 291.38 1039.01 286.96 1034.95"/><polygon class="cls-6" points="294.77 1047 294.77 1047 294.77 1047 295.49 1049.81 296.37 1050.97 295.27 1047.39 294.77 1047"/><path class="cls-6" d="M501.55,905.35l.95-2.55.08-.06-3.83-4.62.95-2.55.07-.06-11-13.29-1.89,1.57-1.56-1.89-1.89,1.56-1.57-1.89-3.78,3.13-1.56-1.89-.26.21a8.5,8.5,0,0,0,.32-3.74l-.32-2.22h0l.13.94h0l-4-27.92a8.39,8.39,0,0,0-9.51-7.11l-49.15,7.08a1.09,1.09,0,0,0-1.53.22l-4.95.71v0a1.26,1.26,0,0,0-2.52,0,1.22,1.22,0,0,0,.07.38l-1.9.27a51.65,51.65,0,0,0-4.09-13.85h.1a1,1,0,1,0,0-1.92,1,1,0,0,0-.84.49c0-.07-.08-.16-.13-.24a.59.59,0,0,0-.07-.1h0l-.07-.09,0-.06-.08-.1-.07-.1-.09-.12-.11-.15-.11-.14-.13-.17-.13-.17-.16-.21-.14-.18-.2-.25-.15-.19-.25-.3-.15-.19-.34-.41-.11-.12c-.31-.38-.67-.79-1.05-1.23l-.14-.15-.45-.52-.2-.22-.45-.5-.24-.26-.46-.5-.26-.28-.49-.52-.29-.29L391,828l-.3-.3-.57-.58-.3-.31-.63-.62-.3-.3-.73-.7-.25-.24-1-1,0,0-1.44-1.32v0a.68.68,0,0,0-.69-.68h-.09l-.07-.07-.25-.23-1-.83-.36-.32c-.3-.25-.59-.51-.9-.76l-.43-.37-.89-.75-.47-.39-.9-.74-.51-.41-.94-.75-.53-.42c-.32-.26-.65-.51-1-.77l-.53-.41-1.07-.82-.5-.37-1.24-.92-.39-.29-1.69-1.22h0l.16-.07a16.57,16.57,0,0,0,4.64-3.3l.36-.39.33-.4a8.83,8.83,0,0,0,.6-.83c.21-.32.41-.65.6-1,.12-.2.23-.41.34-.63a14.9,14.9,0,0,0,.74-1.74,14.23,14.23,0,0,0,.57-2.2l.12-1.45.55.38-.05,0h0a3.87,3.87,0,0,0,.7.45,13.85,13.85,0,0,0,3.36,1.42l.3.09.81.15c.42.07.84.11,1.26.16a3.91,3.91,0,0,0,.49,0,5.19,5.19,0,0,0,.56,0H388l.51,0a17.92,17.92,0,0,0,3.51-.72,15.42,15.42,0,0,0,2.05-.78,19.37,19.37,0,0,0,1.84-1l.18-.1,1.18-.76a18.13,18.13,0,0,0,2.27-1.8,35.48,35.48,0,0,0,3.15-3.22,49.79,49.79,0,0,0,5.43-7.49c.78-1.27,1.54-2.58,2.24-3.92.36-.66.7-1.33,1-2s.65-1.36,1-2q.35-.74.66-1.44c.18-.41.35-.82.53-1.21s.25-.56.38-.84l.08,0,.08,0a.58.58,0,0,0,.22-.25,7.73,7.73,0,0,0,.9-2.68,2.5,2.5,0,0,0,.07-.26l0-.16.05-.14h0a.72.72,0,0,0,0-.35v-.06c0-.11,0-.22,0-.32h0a5.59,5.59,0,0,0-.63-2.34,3,3,0,0,0-.28-.53,5.09,5.09,0,0,0-1.21-1.28h0a6,6,0,0,0-1-.4h0l-.17-.09-.05,0,.12-.1,14.29-4.91-34.76-42.43h0L306,759.29h0l.17,13.21,6.17,9.7h0L309,781.1l0,0-3.27-1-.32-.1c-1-.3-2-.6-3.05-.89l-.57-.17c-1.19-.34-2.39-.68-3.61-1h0a19.75,19.75,0,0,0-5.47-.74h-.77c-1.86.08-4.4.24-7.44.59l-2.11.27c-1.45.19-3,.43-4.61.72-.73.12-1.48.27-2.24.42-.93.18-1.87.38-2.83.59a105.17,105.17,0,0,0-12.21,3.51l-.92.33c-11,4-22.75,10.55-32.39,21.1a1.29,1.29,0,0,1-.16.17,73.62,73.62,0,0,0-13.9,22.5l0,0c-.37.92-.72,1.84-1.08,2.76-.11.29-.21.57-.32.85-.25.66-.5,1.32-.74,2-.12.31-.23.63-.35.94-.23.64-.46,1.27-.68,1.9l-.33.93c-.23.64-.45,1.29-.67,1.93l-.3.86c-.23.68-.46,1.35-.68,2-.08.25-.16.5-.25.75l-.7,2.17c-.06.2-.13.4-.19.59l-.75,2.4c0,.13-.07.25-.11.37-.28.92-.56,1.84-.83,2.76l-11-1.43-3.38-.44.1-1.52.13-1.75h0l-.94-.12-2.3-.3h0l-.7,5.41-1,7.32.42.06,2.81.36-.42,3.24h0l.81.1,2.42.32-.42,3.23h0l9.23,1.23c-.26,1.1-.51,2.2-.75,3.29-.05.18-.09.36-.13.54-.23,1.06-.47,2.12-.69,3.17a88.78,88.78,0,0,0-11.71,11.41v0l-1.11,1.28-.28.34-.86,1-.38.46-.79,1c-.14.16-.27.33-.41.5l-.83,1-.36.46-1.21,1.56c-5.5,7.23-7.69,14.57-7.59,20.54h0c.07,4.34,1.36,8,3.45,10.3l.06.06a8.48,8.48,0,0,0,3.14,2.22,7.31,7.31,0,0,0,1,.33,12.91,12.91,0,0,0,2.75.4,7.27,7.27,0,0,0,1.18-.07,4.82,4.82,0,0,0,1.09-.28l.28-.12a4.07,4.07,0,0,0,1.18-.84l0,0a5.92,5.92,0,0,0,.67-.89l.19-.35a11.64,11.64,0,0,0,.62-1.53l.12-.41a34.15,34.15,0,0,1,1.32-4.12,6.19,6.19,0,0,0-1.38-7c0-.29,0-.57,0-.85,0-.08,0-.17,0-.25l.06-.63,0-.23a15,15,0,0,1,.3-1.65s0-.1,0-.16l.18-.69a.65.65,0,0,0,0-.13,22.44,22.44,0,0,1,4.9-8.38c-.07.5-.13,1-.2,1.5l0,.31c-.06.43-.11.86-.17,1.29,0,.23-.06.45-.08.68s-.09.64-.13,1c-.06.55-.13,1.08-.19,1.62v.07h0l.12.09.49.38-.39,3.5h0l-.55.08.12.09-.18,0h0v0l-.17,0h0l.15.11c-1.48,14.09-1.54,23.07-1.54,23.07h0v.12h0v.09h0a.41.41,0,0,0,0,.11v.61c0,.07,0,.14,0,.22v0c0,.08,0,.16,0,.24v0c0,.09,0,.18,0,.27v0l0,.3v0c0,.11,0,.22,0,.33v0c0,.12,0,.24,0,.36v0c0,.13,0,.26.07.39h0c1.18,6.79,7.7,23.28,41.71,40.49h0l-4.34,13.81a.61.61,0,0,1,0,.12,1.47,1.47,0,0,1-.32.5,1.81,1.81,0,0,1-1,.56,23.09,23.09,0,0,0-6.1,1.49c-.31.13-.62.27-.92.42l-.47.25a9,9,0,0,0-2.11,1.58l-.06.07a5.83,5.83,0,0,0-.76,1,5.72,5.72,0,0,0-.7,1.64c-.68,2.82,2.11,4.81,5.89,6.06.42.14.86.27,1.3.39l.53.15.73.17.17,0,.76.16.15,0c4.45.89,9.18,1,11.16.41a2.42,2.42,0,0,0,.35-.12l.1-.06a1.71,1.71,0,0,0,.23-.13l.13-.1.2-.15.14-.13.18-.19.14-.15.18-.22.14-.18.18-.25.13-.2.18-.28.13-.22.18-.31c0-.08.08-.16.13-.24l.17-.34.13-.26c.06-.12.11-.24.17-.37s.08-.17.12-.27l.18-.4.12-.27.18-.45c0-.09.07-.17.11-.27s.12-.32.19-.49l.09-.25c.07-.18.14-.37.2-.55l.09-.23c.07-.21.14-.42.22-.64l.06-.17.25-.76,0-.08c1.37-4.18,2.67-9.23,4-13.72h0c.53.26,1.09.53,1.68.8l.18.09.69.33.32.15.57.27.43.21.5.23.48.23.47.22.53.25.45.21.55.25.47.22.57.27.43.19.64.29.41.19.67.3.39.18.7.32.37.17.75.33.33.15.79.35.29.13.86.38.19.08,1,.42h0l-4.35,15.8a2.56,2.56,0,0,1-.71,1.26l-.05,0a3.62,3.62,0,0,1-.42.36l-.77.56-.61.47c-.42.34-.88.72-1.35,1.14l-.36.32a20.29,20.29,0,0,0-3.89,4.65l-.1.18a7.78,7.78,0,0,0-1.11,4.68c.61,5.17,6.84,5,12,3.32.51-.17,1-.35,1.48-.54s.81-.35,1.19-.53a15.73,15.73,0,0,0,1.59-.85l.47-.29c.44-.3.85-.56,1.22-.79l.35-.24c.67-.43,1.21-.79,1.68-1.16l.29-.25c.15-.14.29-.27.43-.42a7,7,0,0,0,.89-1.22l.17-.31c.22-.42.44-.92.68-1.51.05-.15.11-.3.17-.46.23-.6.47-1.29.73-2.1l.35-1.06.29-.91c.12-.38.25-.78.38-1.21v0c.14-.46.29-.93.44-1.4,0-.09.05-.17.07-.25.14-.45.28-.91.43-1.38l.09-.3.42-1.39.1-.3c.14-.48.28-1,.43-1.44l.06-.19c.14-.49.29-1,.44-1.47l0-.08.45-1.51.06-.2.45-1.52v0c.15-.53.3-1,.45-1.55h0l3.15,1.15.13,0,1.38.48.23.08,1.41.48.08,0c1,.33,2,.65,3,1l.29.09,1.15.35.32.09,1.25.36.15,0,1.4.38.2.06,1.12.28.38.09.95.23.37.08,1.12.24.15,0,1.22.24.33.06.86.14.39.06.8.12.36,0,1.07.12h0l.75.07.15,0,.65.06.32,0,.8.08h.16l1.08.11.29,0,.78.07.41,0,.68.07.48,0,.64.06.53,0,.63.06.53,0,.66.06.55,0,.66,0,.57.05.68,0,.56,0,.72.06.56,0,.75.05.54,0,.84,0,.48,0,1.07,0,.27,0h0l-.6.66c-.37.37-.71.83-1.21,1.43s-.87,1.25-1.37,1.85c-.34.46-.51.88-1,1.48s-.86,1.34-1.26,1.91-.64,1.1-1,1.76-.77,1.32-1.06,2-.68,1.29-1,2c-.09.24-.18.46-.28.69-.21.49-.42,1-.56,1.39-.21.61-.38,1-.66,1.75s-.46,1.43-.73,2.15v0c-.06.2-.13.39-.2.59s0,.22,0,.32a2,2,0,0,0,0,.25v.29c.07.63.21,1.52.22,1.89s-.12,1.33.15,1.64c.55.32,1.19.61,1.85,1,1.22.42,2.54.81,3.77,1.23,3.26,1.09,6.5,2.1,9.83,3.08,3.7,1.06,7.39,2,11.13,2.89a17,17,0,0,0-1.75.57h0l-.48.19c-.84.31-1.71.59-2.39.89s-1.39.58-2.37,1h0l-.3.13-1.09.49q-1.12.46-2.25,1l-.24.19a3.38,3.38,0,0,0-.37.31l-.3.24c-.47.55-1.07,1.31-1.48,1.75a.89.89,0,0,0-.21.22c-.37.35-1.44,1.12-1.5,1.67.19.85.48,1.76.7,2.78.72,1.62,1.54,3.31,2.25,4.93,1.93,4.28,3.93,8.47,6,12.72,2.38,4.72,4.83,9.33,7.45,13.91a2.11,2.11,0,0,0,.32.64l.1.07c4,7.48,7.61,15.48,12.46,22.5a1.45,1.45,0,0,0,.87.25,6.72,6.72,0,0,0,2.1-.11l.17,0c.1.07.17,0,.34-.07.37-.35.8-.8,1.17-1.15,1.4-1.29,2.87-2.68,4.28-4,3.84-3.53,7.65-7.22,11.39-10.81a1.05,1.05,0,0,1-.05-.19l.08-.08.06-.1s6.47-5.35,13.55-11.9v0c5.53-5.09,11.5-10.68,15.13-14.81l0,0h.14a11.28,11.28,0,0,0,1.13-1.32l.29-.43.08.08c.39-.62,1-1.28,1.35-1.9a11.67,11.67,0,0,0-1.58-2.32l-2.09-2.21c-.76-.63-1.46-1.36-2.43-2.13-.76-.63-1.67-1.49-2.39-2s-1.7-1.22-2.53-1.75a27,27,0,0,1-2.59-1.65,32.33,32.33,0,0,0-3-1.91c-.83-.53-1.62-.89-2.66-1.55a36.05,36.05,0,0,0-3.24-1.77,26.4,26.4,0,0,0-2.72-1.44c-.31-.2-.58-.23-.89-.43a15,15,0,0,0-2.13-.77c-.75-.19-1.82-.57-2.95-.86-.86-.25-1.78-.4-2.64-.66a16.63,16.63,0,0,0-3-.58,25.62,25.62,0,0,0-2.84-.35c-1,0-2.08-.16-3.07-.21a26.86,26.86,0,0,0-2.86-.08l-.47,0c0-3.72-.08-7.48-.15-11.17l-.14-.07v-.08l0-.09s.33-6.13.33-13.2h0c0-2.9,0-5.92-.08-8.73.44-.15.87-.31,1.3-.48l.33.15.23.09.31.12.34.12.26.08.67.2h0c.23.06.47.11.7.15l.17,0c.23,0,.46.06.7.08H360c.21,0,.42,0,.63,0h.17l.69-.06.18,0,.58-.11.18,0,.66-.18.25-.09.51-.19.29-.12.53-.25.3-.16.44-.25.46-.29.33-.22.36-.26.28-.21c.21-.17.42-.34.62-.52l.2-.17a17.61,17.61,0,0,0,1.29-1.3l.08-.1c.35-.39.69-.8,1-1.25a.83.83,0,0,0,.54.21.84.84,0,0,0,.4-1.59,25.35,25.35,0,0,0,2.22-4.52h0l.74-.75.18,0a1.08,1.08,0,0,0,1.08-1.08,1.15,1.15,0,0,0,0-.26l.33-.36.87-1,.34-.41.63-.8.31-.41c.29-.37.57-.76.84-1.15l.26-.37c.22-.32.43-.63.64-1l.27-.39c.27-.43.54-.86.8-1.3a2.75,2.75,0,0,0,.17-.29c.22-.38.44-.76.65-1.14.08-.13.15-.26.22-.39.26-.48.51-.95.76-1.44l.08-.18c.23-.45.44-.9.65-1.36.07-.13.13-.27.19-.4.24-.52.47-1,.69-1.58.52-1.21,1-2.46,1.53-3.73q.91-2.34,1.8-4.83c0-.14.1-.27.14-.4l0,0,.06-.16h0l.09,0h0l-.31-.23-.05,0,.88-2.59a2.53,2.53,0,0,0,.3,0,2.08,2.08,0,0,0,1.37-3.64c.38-1.17.76-2.35,1.13-3.55a2.15,2.15,0,0,0,1,.27,2.23,2.23,0,0,0,.23-4.45c.37-1.24.72-2.49,1.08-3.75a2.5,2.5,0,1,0,.88-3.21c.81-3,1.59-6.1,2.32-9.2a3,3,0,0,0,1.15-5l.48-2.22a2.86,2.86,0,1,0,1.14-5.56c.2-1,.4-2.07.59-3.11a3,3,0,1,0,.55-3.11c.17-.92.32-1.83.47-2.75a2.94,2.94,0,0,0,.64-4c.13-.86.26-1.72.38-2.58a3.19,3.19,0,0,0,.7.09,2.92,2.92,0,0,0,1.79-5.24l22.59-3.25a1.6,1.6,0,0,0,.39.05,1.52,1.52,0,0,0,.8-.22l5.16-.75a1.27,1.27,0,0,0,1.12.68,1.29,1.29,0,0,0,1.25-1l4.91-.7a1.06,1.06,0,0,0-.11.44,1,1,0,0,0,2,0,1,1,0,0,0-.28-.68l8-1.16-.21.55,10.94,13.21-4.26,3.52-1.73,4.64,1.61,2,3.13,3.77,1.89-1.56,1.56,1.89L465,918l3.13,3.78,1.89-1.57L473.1,924l1.89-1.56,3.13,3.78,1.89-1.57,3.13,3.79,1.56,1.88,17-14.07,1.94-1.61,1.73-4.64Z"/><path class="cls-6" d="M175.56,813.39c0-.08,0-.08.16-.12a.54.54,0,0,0,.24-.45c.14-.19,0-.45.13-.67s0-.52,0-.81c-.08,0,0-.12,0-.2a4,4,0,0,1,0-.72l-.12-.57a35.1,35.1,0,0,0-2.2-6,9.63,9.63,0,0,1-.71-1.77,1.93,1.93,0,0,1-.51-1.38l-1.14-3.1c-.32-.37-.36-.89-.68-1.25l-.39-.81c0,.08-.08,0-.16-.08a.51.51,0,0,1,0-.33c0-.08.12-.24.21-.4l.28-.36a.33.33,0,0,1,.2-.2c.21-.2.45-.27.57-.51s.36-.32.49-.56.36-.32.49-.56.36-.32.48-.56.45-.28.49-.56a.81.81,0,0,0,.28-.36c0-.08.09-.16.17-.12a1.13,1.13,0,0,0,.32-.44l.17-.32a.33.33,0,0,1,.2-.2,1.13,1.13,0,0,0,.32-.44c.09-.16.17-.32.21-.4a.33.33,0,0,1,.2-.2.61.61,0,0,0,.25-.48l.2-.4c.08-.16.12-.24.21-.4s.36-.32.4-.6a.4.4,0,0,0,.21-.4.4.4,0,0,0,.2-.4.42.42,0,0,0,.21-.4,4917165483592.36,4917165483592.36,0,0,0,.4-.8.39.39,0,0,0,.21-.4.41.41,0,0,0,.2-.38c.12-.2-.06-.48.13-.67l.2-.4c.09-.16.13-.24.21-.4a.81.81,0,0,1,.12-.44.4.4,0,0,0,.21-.4,1,1,0,0,0,.12-.41c.14-.2,0-.45.13-.67a.82.82,0,0,0,.12-.45c.2-.2,0-.48.17-.72a.81.81,0,0,0,.12-.44c.21-.2.05-.48.17-.72s0-.53.09-.77,0-.52.08-.76,0-.52,0-.8a.21.21,0,0,1-.08-.25c.09-.36-.23-.72-.15-1.08l-.12-.57c.05-.68-.55-1.29-.5-2l-.47-1.25c-.4-.41-.36-1.09-.84-1.54-.08,0-.12-.16-.15-.28-.2-.21-.28-.45-.52-.57s-.28-.44-.56-.49l-.4-.2-.4-.21-.4-.2-.4-.21a.82.82,0,0,0-.45-.12c-.2-.2-.48,0-.72-.17a1.13,1.13,0,0,0-.52-.16c0,.08-.12,0-.2,0l-.44-.13c-.2-.2-.48,0-.77-.08-.08,0-.2,0-.28,0s-.28,0-.48,0l-.12,0-.08,0c-.2,0-.48.15-.73,0a.47.47,0,0,1-.32,0,3.24,3.24,0,0,1-.72,0l-.57.12c-.4,0-.72.23-1.08.15l-.85.28c-.68-.05-1.21.59-1.93.42l-7.63,2.87c-1,.72-2.34.83-3.31,1.55l-1.7.75c-.44.47-1.29.35-1.78.91l-1.17.51c-.32.44-.88.35-1.17.71l-.81.4c-.24.28-.64.28-.89.56l-.52.23c-.16.32-.65.28-.81.6l0,.08-.12,0c-.13.24-.37.32-.57.52l-.08.16-.12,0c-.13.24-.45.27-.57.51l0,.08-.12,0c-.13.24-.45.28-.57.52l0,.08-.12,0c-.2.2-.53.24-.57.52l-.28.36a.35.35,0,0,1-.21.2c-.2.2-.52.24-.56.52s-.45.27-.49.56c-.12,0-.2.19-.29.35s-.36.32-.4.6a.41.41,0,0,0-.21.41c-.12,0-.2.19-.2.4s0,.52-.09.76,0,.52,0,.8c.08,0,0,.13,0,.21,0,.28,0,.52,0,.8l.27.85c-.12.44.27.84.23,1.33a12.28,12.28,0,0,1,.67,2,4.1,4.1,0,0,1,0,.73l.12.56c-.09.36.23.73.15,1.09l.19.81c-.08.56.32,1,.27,1.45l.47,1.45c0,1.12.87,2.06.9,3.18l.91,2.58c0,.93.75,1.7.7,2.59a17.27,17.27,0,0,1,1.1,3c.39,2,1.62,3.76,2,5.85a3,3,0,0,1,.47,1.45c-.12.44.28.85.23,1.33l.28.85a8.62,8.62,0,0,0,1.06,2.66c.08,0,.16.08.12.16s.08.45.12.77a.56.56,0,0,0,.48.24l-.17-.08c.19,0,.42-.09.61,0a.47.47,0,0,1,.32,0,2.43,2.43,0,0,1,.77-.11l1.17-.32c.64.13,1.13-.43,1.69-.34a4.3,4.3,0,0,1,1.21-.4c.56.09,1.09-.35,1.69-.34a17.11,17.11,0,0,1,3-1c1,0,1.81-.78,2.82-.78a3.23,3.23,0,0,1,1.45-.47c.72,0,1.29-.55,2-.5l.84-.28c.6.21,1.05-.47,1.65-.27l.93-.23c.56.09,1-.51,1.57-.31a2.5,2.5,0,0,1,.93-.23c.36.08.73-.24,1.05-.07l2.26-.87C175.4,813.71,175.48,813.55,175.56,813.39Z"/><path class="cls-6" d="M319.37,582.58a1,1,0,0,0,0-.17h0a19.37,19.37,0,0,0-38.73.06v.11h0v4.54a19.37,19.37,0,0,0,38.72,0v-4.54Z"/><rect class="cls-14" x="110.5" y="160.29" width="341.12" height="287.21"/><path class="cls-6" d="M462.6,232.08l-.57-.62-.6-.6a17.75,17.75,0,0,0-12.37-5.19h0c-.43,0-.86,0-1.28.09a13.73,13.73,0,0,0-1.58.28,11.75,11.75,0,0,0-2.35.85,11.37,11.37,0,0,0-1.17.67,11.57,11.57,0,0,0-1.08.8l-.51.46c-.21.2-.41.42-.6.63l-.15.17c-.16.19-.31.38-.46.58l-.08.1c-.17.24-.33.48-.48.73a.75.75,0,0,1-.07.12,7.55,7.55,0,0,0-.37.69.47.47,0,0,0-.05.1,12.68,12.68,0,0,0-.68,1.71v0a12.83,12.83,0,0,0-.41,1.86h0a17.18,17.18,0,0,0,3.93,12.95,58,58,0,0,1-4.45,4.91c-.31.31-.63.61-1,.91v0l-.44.4h0c-7.79,7.06-20.1,17.11-28.91,24.54h0c-11.78,7.88-32.39,24.31-46.27,35.59.38-3.62.58-7.14.6-10.54.21-34.57-17.35-58-41.77-68.85-.81-.36-1.63-.7-2.46-1-1.25-.49-2.51-1-3.78-1.39l-1.28-.43A82.85,82.85,0,0,0,293.12,229c-1.66-.14-3.33-.22-5-.25,2.49-.07,3.89,0,3.89,0a67.37,67.37,0,0,0-19.24-2.15h0a18.7,18.7,0,0,0-14.86-.89c-.78.27-1.5.56-2.17.85h0l0,0-.09,0a18.81,18.81,0,0,0-6.35,4.32,9.29,9.29,0,0,0-1.22,1.62l-.1.19h0a3.91,3.91,0,0,0-.17.36h0c-.72.37-1.41.75-2.08,1.12h0c-6.2,2.72-11.71,8.79-12.08,9.2l0,0c1.37-.76,2.73-1.47,4.09-2.15,1.1-.51,2.28-1,3.51-1.5-8.65,4.4-22,13-30.38,27-1.35,1.82-2.65,3.67-3.72,5.41,0,0-.94,3-1.73,6.89a58.56,58.56,0,0,0-2.05,23.31s4.72,23.78,10.86,29.25l1.31.95s-.12.23-.28.62c-3.45,7.76,2.89,9.95,3.25,10.07l.34,1.1h0c.43,1.47.84,2.78,1.15,3.69q.85,2.53,1.81,5c.22.58.45,1.16.68,1.73l.23.56.06.14v0c.19.54.9,2.55,1.31,3.67h.88l.42,1.32c.14.47.29.94.43,1.34h0l-.66.29c1,2.83,2,5.54,3.06,8.35,0,0,0,.14.05.17l.16.15.09.11L196.57,381.1l10.51,37.13,7.36,35.7,4.3,10.35-.09,0,11.55,27.64h0L314.37,524l-.45-8.74,81.48-26.35-.13-7.06,7.35-7.61,7.94-40.2-1.25-8,1.12-3.17,19.24,4.08,3.41,6.25,1.83.82,5-5.21,0-2.47-29.73-39.94h0L365,355.72c-.13-1.26-.26-2.51-.37-3.73l-.83-.3-.45-3.24.87-1.28h0c-.49-5.51-1.16-9.93-2-15.46h0l.1-.91c31.55-20,48.93-33.9,52-42.22a10.81,10.81,0,0,0,.39-5h0c7.49-8.22,16.48-18.9,23.44-26h0l.27-.28h0l.54-.53.86-.85a55.84,55.84,0,0,1,5.1-4.17,16.82,16.82,0,0,0,12.53,3.84l.08,0a12.26,12.26,0,0,0,1.91-.42l.13,0c.29-.1.58-.2.87-.32h0q.42-.18.84-.39l.16-.09c.26-.14.52-.29.77-.45l0,0c.25-.16.5-.34.74-.53l.17-.13c.24-.2.48-.4.7-.61a10.89,10.89,0,0,0,.92-1,9.05,9.05,0,0,0,.78-1.09c.12-.19.23-.38.34-.58a12.63,12.63,0,0,0,1.47-5.89A18,18,0,0,0,462.6,232.08Zm2.49,13.16a.31.31,0,0,1-.11.09l-.17.09a.85.85,0,0,1-.22,0h0a.66.66,0,0,1-.5-.2.44.44,0,0,1-.08-.11.58.58,0,0,1-.09-.25.66.66,0,0,1,0-.14.87.87,0,0,1,.24-.51.76.76,0,0,1,.79-.17l.12.06.11.09a1,1,0,0,1,.11.17.66.66,0,0,1,.06.2.29.29,0,0,1,0,.13A.76.76,0,0,1,465.09,245.24Zm-1.43-4.89a.72.72,0,0,1,1,0,.63.63,0,0,1,.13.2.72.72,0,0,1,0,.54.8.8,0,0,1-.18.27.57.57,0,0,1-.16.11.68.68,0,0,1-.85-.09.64.64,0,0,1-.15-.25A.75.75,0,0,1,463.66,240.35Zm-1.46-4.86a1.18,1.18,0,0,1,.17-.24l0,0a.77.77,0,0,1,.49-.19.33.33,0,0,1,.14,0,.59.59,0,0,1,.35.18.67.67,0,0,1,.16.64.68.68,0,0,1-.12.26.52.52,0,0,1-.1.11.63.63,0,0,1-.24.16.66.66,0,0,1-.41,0,.61.61,0,0,1-.36-.19.65.65,0,0,1-.18-.5A.9.9,0,0,1,462.2,235.49Zm.1,12.18a.47.47,0,0,1-.12.09.64.64,0,0,1-.27.11l-.13,0a.69.69,0,0,1-.45-.16l-.05,0a.6.6,0,0,1-.16-.33.49.49,0,0,1,0-.17.66.66,0,0,1,.06-.27.69.69,0,0,1,.18-.24.74.74,0,0,1,.38-.2.68.68,0,0,1,.63.18.44.44,0,0,1,.08.11.66.66,0,0,1,.07.53A.77.77,0,0,1,462.3,247.67Zm-.26,3.9a.67.67,0,0,1-.25.16.63.63,0,0,1-.27.06.66.66,0,0,1-.67-.56.76.76,0,0,1,.24-.65.74.74,0,0,1,.38-.2l.14,0h.13a.69.69,0,0,1,.25.1l.11.09a.62.62,0,0,1,.14.23.35.35,0,0,1,0,.14.73.73,0,0,1-.13.53A.52.52,0,0,1,462,251.57Zm-1.72-17.86a.35.35,0,0,1-.12-.07l-.11-.08-.07-.09,0-.09,0-.09a.85.85,0,0,1,0-.23h0v0a.79.79,0,0,1,.24-.48.73.73,0,0,1,.65-.21h0a.5.5,0,0,1,.23.09.41.41,0,0,1,.1.09.43.43,0,0,1,.14.23.69.69,0,0,1-.06.59.85.85,0,0,1-.14.19l-.12.09-.13.07A.75.75,0,0,1,460.32,233.71Zm-.52,15.69a.54.54,0,0,1-.05.21.36.36,0,0,1,0,.09,1.15,1.15,0,0,1-.14.19.86.86,0,0,1-.2.13l0,0a.66.66,0,0,1-.2.06h0a.74.74,0,0,1-.21,0h0a.84.84,0,0,1-.2-.08h0l-.1-.09a.71.71,0,0,1,.06-1,.24.24,0,0,1,.08-.06h0a.57.57,0,0,1,.23-.12h0a.67.67,0,0,1,.24,0h0a.86.86,0,0,1,.23,0h0a.9.9,0,0,1,.2.14.44.44,0,0,1,.08.11.58.58,0,0,1,.09.25.66.66,0,0,1,0,.14Zm-17.17-4.78a.7.7,0,0,1,1,0,.72.72,0,0,1-.06,1,.71.71,0,0,1-1,0A.69.69,0,0,1,442.63,244.62Zm-.77-5.2a.72.72,0,0,1,.06-1,.73.73,0,0,1,1,0,.75.75,0,0,1-1.08,1Zm3.19-11.85a.72.72,0,0,1,1,0,.61.61,0,0,1,.17.34.45.45,0,0,1,0,.16.66.66,0,0,1-.11.35.21.21,0,0,1,0,.06.43.43,0,0,1-.09.1.52.52,0,0,1-.11.1,1,1,0,0,1-.27.11.78.78,0,0,1-.4,0,.87.87,0,0,1-.23-.16.68.68,0,0,1-.14-.23.73.73,0,0,1,0-.54A1,1,0,0,1,445.05,227.57Zm1.42,3.17a.65.65,0,0,1,.15.23.77.77,0,0,1-.21.78s0,0,0,0a.74.74,0,0,1-.73.16.6.6,0,0,1-.26-.16.66.66,0,0,1-.18-.5h0a.76.76,0,0,1,.24-.51.78.78,0,0,1,.38-.2l.14,0A.66.66,0,0,1,446.47,230.74Zm.21,3.16,0-.06a.21.21,0,0,0,0-.06l.1-.11a.72.72,0,0,1,.9-.11l.11.09a.76.76,0,0,1,.12.19v0a.52.52,0,0,1,0,.21v0a.56.56,0,0,1,0,.22v0a.84.84,0,0,1-.11.21h0l-.09.11a.73.73,0,0,1-1,0,.66.66,0,0,1-.17-.52.59.59,0,0,1,0-.13h0A.56.56,0,0,1,446.68,233.9Zm1.48-5.8a.81.81,0,0,1,.52-.22l.17,0a.78.78,0,0,1,.21.09l.11.09a.76.76,0,0,1,.08.11.71.71,0,0,1,.05.62.73.73,0,0,1-.19.28.7.7,0,0,1-1,0,.66.66,0,0,1-.18-.5.78.78,0,0,1,0-.14A.8.8,0,0,1,448.16,228.1Zm2.57,3.16a.65.65,0,0,1,0,.13.79.79,0,0,1-.14.53l-.1.12a.82.82,0,0,1-.25.16.79.79,0,0,1-.4.05.69.69,0,0,1-.25-.1l-.11-.09-.09-.11a.74.74,0,0,1,.15-.9.7.7,0,0,1,1,0A.62.62,0,0,1,450.73,231.26Zm2.72-2.3a.59.59,0,0,1,0,.13.68.68,0,0,1-.12.26.52.52,0,0,1-.1.11.72.72,0,0,1-.52.22h-.13a.58.58,0,0,1-.36-.19l-.09-.11a.74.74,0,0,1,.15-.9.72.72,0,0,1,1,0,.94.94,0,0,1,.12.18A.72.72,0,0,1,453.45,229Zm-.64,5.45a.72.72,0,0,1-.89.12.4.4,0,0,1-.12-.1.64.64,0,0,1-.15-.25.75.75,0,0,1,.21-.76.72.72,0,0,1,1,0,.68.68,0,0,1,.11.77.54.54,0,0,1-.07.13A.52.52,0,0,1,452.81,234.41Zm2.74-3.58a.69.69,0,0,1,.06.86,1.58,1.58,0,0,1-.12.15.72.72,0,0,1-1,0l-.09-.11a.76.76,0,0,1,.93-1.07A.51.51,0,0,1,455.55,230.83Zm1.85-.35a.48.48,0,0,1,.09-.11.86.86,0,0,1,.4-.21.7.7,0,0,1,.56.14l.06,0a.79.79,0,0,1,.14.23l0,.13a.33.33,0,0,1,0,.14.57.57,0,0,1,0,.18.78.78,0,0,1-.21.33.76.76,0,0,1-.5.22h0a.66.66,0,0,1-.5-.2.76.76,0,0,1-.08-.11.62.62,0,0,1-.09-.26.57.57,0,0,1,0-.13A.76.76,0,0,1,457.4,230.48Zm1.3,10.07a.58.58,0,0,1,.12-.1.72.72,0,0,1,.4-.12.66.66,0,0,1,.49.2.44.44,0,0,1,.08.11.73.73,0,0,1-.14.9l-.12.09a.66.66,0,0,1-.26.11l-.14,0h0a.63.63,0,0,1-.45-.18l0,0a.68.68,0,0,1-.18-.5h0a.68.68,0,0,1,0-.14.68.68,0,0,1,.12-.26A.52.52,0,0,1,458.7,240.55Zm1.41-5a.63.63,0,0,1,.13.2.74.74,0,0,1-.19.81.69.69,0,1,1-.95-1,.71.71,0,0,1,1-.06Zm-.92,11a.58.58,0,0,1-.15.11l0,0-.15.06h0a.77.77,0,0,1-.37,0h0a.66.66,0,0,1-.29-.17.72.72,0,0,1,.06-1,.7.7,0,0,1,1,0,.68.68,0,0,1,.12.77A1,1,0,0,1,459.19,246.54Zm-3-7.58a.76.76,0,0,1,1.1-.9l.11.09a.76.76,0,0,1,.08.11.72.72,0,0,1-.14.9.73.73,0,0,1-.91.11.41.41,0,0,1-.1-.09A.64.64,0,0,1,456.22,239Zm1.61-5.75a.58.58,0,0,1,.17.36.61.61,0,0,1,0,.14.74.74,0,0,1-.24.5l-.12.1a.85.85,0,0,1-.26.11.65.65,0,0,1-.63-.19.6.6,0,0,1-.14-.21.77.77,0,0,1,.2-.8A.71.71,0,0,1,457.83,233.21Zm-9.29,8.33a.8.8,0,0,1,.24-.6.73.73,0,0,1,.47-.21Zm-2-3a.7.7,0,0,1,1,0,.74.74,0,0,1-1.07,1A.71.71,0,0,1,446.5,238.57Zm0,5.27a.87.87,0,0,1,.18-.26.91.91,0,0,1,.16-.11Zm2.63-7.79a.7.7,0,0,1,1,0,.72.72,0,0,1-.06,1,.73.73,0,0,1-1,0A.72.72,0,0,1,449.13,236.05Zm5.91-.36a.31.31,0,0,1,.11.09.66.66,0,0,1,.18.5.76.76,0,0,1-.24.51.77.77,0,0,1-.76.18.82.82,0,0,1-.25-.16.65.65,0,0,1-.1-.15.75.75,0,0,1,1.06-1Zm-9.87,1.49a.69.69,0,1,1-.95-1,.69.69,0,1,1,.95,1Zm-1.06,4a.69.69,0,1,1,.95,1,.7.7,0,0,1-1,0A.72.72,0,0,1,444.11,241.16Zm6.11,5.79a.53.53,0,0,1-.1.12.81.81,0,0,1-.28.17Zm5.74-3.78a.73.73,0,0,1,1,0,.75.75,0,0,1-1.08,1A.72.72,0,0,1,456,243.17Zm1.69,8.78a.74.74,0,1,1-1,0A.72.72,0,0,1,457.65,252Zm3.33-9a.72.72,0,0,1,1,0,.76.76,0,0,1,.08.11.72.72,0,0,1-.13.89h0a.7.7,0,0,1-1,0,.48.48,0,0,1-.09-.11A.74.74,0,0,1,461,242.92Zm.78-5.15a.67.67,0,0,1,.63.19.44.44,0,0,1,.08.11.7.7,0,0,1,0,.78l-.1.12a.71.71,0,0,1-1,0,.68.68,0,0,1-.11-.77.72.72,0,0,1,.17-.23.76.76,0,0,1,.24-.17Zm-18.85-8.35a.66.66,0,0,1,.49.2.76.76,0,0,1,.12.19.56.56,0,0,1,.06.31.9.9,0,0,1-.07.27.81.81,0,0,1-.17.24l-.12.09a.73.73,0,0,1-.53.12.7.7,0,0,1-.36-.19.71.71,0,0,1,.05-1h0l0,0A.76.76,0,0,1,442.91,229.42Zm-.59,3.29.13,0a.66.66,0,0,1,.5.2.94.94,0,0,1,.12.18s0,0,0,0a.71.71,0,0,1,0,.2v0a.44.44,0,0,1,0,.2v0a.66.66,0,0,1-.09.19.76.76,0,0,1-.11.14.71.71,0,0,1-1,0,.16.16,0,0,1-.06-.08.1.1,0,0,1,0-.05l0-.06a.14.14,0,0,1,0-.06s0,0,0-.07,0,0,0-.06v-.13s0,0,0-.08,0,0,0-.06l0-.07s0,0,0-.06l.05-.08,0,0,.1-.11a.48.48,0,0,1,.11-.09A.77.77,0,0,1,442.32,232.71Zm-1.64,4a.72.72,0,0,1-1,0,.74.74,0,0,1,1.07-1A.72.72,0,0,1,440.68,236.69Zm-.72,3.19a.69.69,0,1,1-.95-1,.7.7,0,0,1,1,0A.72.72,0,0,1,440,239.88Zm.54,3.26a.72.72,0,0,1,.06-1,.73.73,0,0,1,1,0,.75.75,0,0,1-1.08,1ZM435.78,255a2.53,2.53,0,0,0,.74,1.72h0A2.53,2.53,0,0,1,435.78,255Zm.93,1.9h0l.26.2Zm10.19-6.64,1-.67a.84.84,0,0,1-.24.5A.74.74,0,0,1,446.9,250.29Zm3.18,2.24a.69.69,0,1,1,.06-1A.72.72,0,0,1,450.08,252.53Zm2.46-2.19a.69.69,0,1,1,.07-1A.71.71,0,0,1,452.54,250.34Zm1.45,2.84a.69.69,0,1,1-.95-1,.71.71,0,0,1,1,0A.72.72,0,0,1,454,253.18Zm.3-6.5a.69.69,0,1,1-1-1,.69.69,0,1,1,1,1Zm1.27,2.4a.74.74,0,0,1,1.07-1,.74.74,0,0,1-1.07,1Zm8.75-.22a.64.64,0,0,1-.33-.18.62.62,0,0,1-.11-.17.44.44,0,0,1-.06-.16,1,1,0,0,1,0-.17.81.81,0,0,1,.11-.33.75.75,0,0,1,.13-.18.94.94,0,0,1,.12-.09.82.82,0,0,1,.4-.13.7.7,0,0,1,.49.2.65.65,0,0,1,.18.37v.13a.65.65,0,0,1,0,.19.38.38,0,0,1-.06.13.67.67,0,0,1-.14.19.47.47,0,0,1-.12.09l-.12.07a.71.71,0,0,1-.28.06Z"/></g></g></svg>