<svg xmlns="http://www.w3.org/2000/svg" xmlns:xlink="http://www.w3.org/1999/xlink" viewBox="0 0 101 97.99"><defs><style>.cls-1,.cls-4{opacity:0.15;isolation:isolate;}.cls-1{fill:url(#linear-gradient);}.cls-2{fill:#4040c1;}.cls-3{fill:#736cff;}.cls-4{fill:url(#linear-gradient-2);}.cls-5{fill:#8585ff;}.cls-6{fill:#e5b900;}.cls-7{fill:#e5c74a;}.cls-8{fill:#bc8600;}</style><linearGradient id="linear-gradient" x1="-2196.21" y1="1881.85" x2="-2233.71" y2="1827.67" gradientTransform="matrix(-1, 0, 0, 1, -2184.75, -1780)" gradientUnits="userSpaceOnUse"><stop offset="0" stop-opacity="0"/><stop offset="1"/></linearGradient><linearGradient id="linear-gradient-2" x1="-2229.59" y1="1836.07" x2="-2239.45" y2="1824.08" xlink:href="#linear-gradient"/></defs><g id="Layer_2" data-name="Layer 2"><g id="Left_Arrow" data-name="Left Arrow"><g id="Layer_2-2" data-name="Layer 2"><g id="Layer_1-2" data-name="Layer 1-2"><g id="Layer_3" data-name="Layer 3"><path class="cls-1" d="M21.3,3.6l3.8-1.8v44H101V60.6c0,4.5-2.4,9.8-6.2,14.6A37.57,37.57,0,0,1,71.4,88.6l-50,8.3C4.2,100.1,0,96.1,0,87V30.3C0,21.2,9.5,9.3,21.3,3.6Z"/><path class="cls-2" d="M84.5,78.1H39.4A16.52,16.52,0,0,1,22.9,61.6V16.5A16.52,16.52,0,0,1,39.4,0H84.5A16.52,16.52,0,0,1,101,16.5V61.6A16.52,16.52,0,0,1,84.5,78.1Z"/><path class="cls-3" d="M77.9,78.1H32.8A16.52,16.52,0,0,1,16.3,61.6V16.5A16.52,16.52,0,0,1,32.8,0H77.9A16.43,16.43,0,0,1,94.3,16.5V61.6A16.43,16.43,0,0,1,77.9,78.1Z"/><path class="cls-4" d="M54,65.2l15.2-4.7L34,40.1l-5.2,2a2.8,2.8,0,0,0-1.6,3.7,2.73,2.73,0,0,0,.9,1.2L51.4,64.7A3.05,3.05,0,0,0,54,65.2Z"/><path class="cls-5" d="M93.7,61.6V16.5A16.52,16.52,0,0,0,77.2,0h.6A16.45,16.45,0,0,1,94.3,16.5h0V61.6A16.52,16.52,0,0,1,77.8,78.1h-.6A16.52,16.52,0,0,0,93.7,61.6Z"/><polygon class="cls-6" points="34 40.1 66.6 60.4 66.6 40.1 66.6 19.8 34 40.1"/><path class="cls-7" d="M66.3,19.9l.2-.2V60.3l-.2-.2Q66.6,40.3,66.3,19.9Z"/><polygon class="cls-8" points="66.6 19.8 69.2 19.8 69.2 40.1 69.2 60.4 66.6 60.4 66.6 19.8"/></g></g></g></g></g></svg>