<svg xmlns="http://www.w3.org/2000/svg" xmlns:xlink="http://www.w3.org/1999/xlink" viewBox="0 0 100.9 97.88"><defs><style>.cls-1,.cls-4{opacity:0.15;isolation:isolate;}.cls-1{fill:url(#linear-gradient);}.cls-2{fill:#4040c1;}.cls-3{fill:#736cff;}.cls-4{fill:url(#linear-gradient-2);}.cls-5{fill:#8585ff;}.cls-6{fill:#e5b900;}.cls-7{fill:#e5c74a;}.cls-8{fill:#bc8600;}</style><linearGradient id="linear-gradient" x1="89.51" y1="1881.84" x2="52.01" y2="1827.66" gradientTransform="translate(0 -1780)" gradientUnits="userSpaceOnUse"><stop offset="0" stop-opacity="0"/><stop offset="1"/></linearGradient><linearGradient id="linear-gradient-2" x1="56.06" y1="1836.12" x2="46.2" y2="1824.13" xlink:href="#linear-gradient"/></defs><g id="Layer_2" data-name="Layer 2"><g id="Right_Arrow" data-name="Right Arrow"><g id="Layer_2-2" data-name="Layer 2"><g id="Layer_2-2-2" data-name="Layer 2-2"><path class="cls-1" d="M79.7,3.6,75.9,1.8v44H0V60.6c0,4.5,2.4,9.8,6.2,14.6A37.57,37.57,0,0,0,29.6,88.6l50,8.3c17.1,3,21.3-1,21.3-10.1V30.3C101,21.2,91.4,9.3,79.7,3.6Z"/><path class="cls-2" d="M16.5,0H61.6A16.52,16.52,0,0,1,78.1,16.5V61.6A16.52,16.52,0,0,1,61.6,78.1H16.5A16.52,16.52,0,0,1,0,61.6V16.5A16.52,16.52,0,0,1,16.5,0Z"/><path class="cls-3" d="M23.1,0H68.2A16.52,16.52,0,0,1,84.7,16.5V61.6A16.52,16.52,0,0,1,68.2,78.1H23.1A16.52,16.52,0,0,1,6.6,61.6V16.5A16.52,16.52,0,0,1,23.1,0Z"/><path class="cls-4" d="M47,65.2,31.7,60.5,66.9,40.2l5.2,2a2.8,2.8,0,0,1,1.6,3.7,2.73,2.73,0,0,1-.9,1.2L49.5,64.7A3.12,3.12,0,0,1,47,65.2Z"/><path class="cls-5" d="M7.2,61.6V16.5A16.52,16.52,0,0,1,23.7,0h-.6A16.52,16.52,0,0,0,6.6,16.5h0V61.6A16.52,16.52,0,0,0,23.1,78.1h.6A16.52,16.52,0,0,1,7.2,61.6Z"/><polygon class="cls-6" points="66.9 40.1 34.4 60.4 34.4 40.1 34.4 19.8 66.9 40.1"/><path class="cls-7" d="M34.7,19.9l-.3-.2V60.3l.3-.2Q34.4,40.3,34.7,19.9Z"/><polygon class="cls-8" points="34.4 19.8 31.7 19.8 31.7 40.1 31.7 60.4 34.4 60.4 34.4 19.8"/></g></g></g></g></svg>