<svg xmlns="http://www.w3.org/2000/svg" xmlns:xlink="http://www.w3.org/1999/xlink" viewBox="0 0 375.34 113.41"><defs><style>.cls-1{fill:#4040c1;}.cls-2{fill:#736cff;}.cls-3{opacity:0.31;}.cls-4{fill:#a5a5f9;}.cls-5{fill:url(#linear-gradient);}.cls-6{fill:#434446;}.cls-7{fill:#cdd2d2;opacity:0.35;}.cls-8{fill:#262626;}.cls-9{fill:#727272;}</style><linearGradient id="linear-gradient" x1="154.3" y1="38.09" x2="207.15" y2="26.18" gradientUnits="userSpaceOnUse"><stop offset="0.17" stop-color="#52476d" stop-opacity="0"/><stop offset="1" stop-color="#434574"/></linearGradient></defs><g id="Layer_2" data-name="Layer 2"><g id="Major_s_Name_Plate" data-name="Major&apos;s Name Plate"><path class="cls-1" d="M374.87,30.28l-5.13-.19-3.13-.1L7.12,19.08V21a2.43,2.43,0,0,1-.85,0c-.29,0-.29-.19-.57.48C5.32,22.59,5,25.06,4.46,25c-.09,0-.28-.19-.38,0a5.36,5.36,0,0,0-.19,1.43,4.28,4.28,0,0,1,0,1.13,2.08,2.08,0,0,1-.19.76c-.38-.09-.76-.38-1.14,0a4.31,4.31,0,0,0,0,1.52c.1.19.1.38.19.57v.38a8.08,8.08,0,0,0,.19.86c.19.28.48,0,.67.09a8,8,0,0,0,.09,2.18c.1.29.38.48.48.67s.28.28.28,1a20.22,20.22,0,0,1,.29,2.56c0,1.33-.48,2.19-.57,3.61a2,2,0,0,0,.09.76v1.71A13.43,13.43,0,0,1,4.18,46c-.1.09-.19.19-.29.09-.09.1-.28.19-.38.38s-.19,0-.28.1a2.76,2.76,0,0,0-.29,1A14.4,14.4,0,0,1,2.47,50c-.1.38-.1.76-.29.95s-.38.19-.47.38A4.47,4.47,0,0,0,1,53.44c.1,0,.19-.09.29,0s.09.66.09,1a3,3,0,0,1,0,1c-.09.48-.38.48-.38,1.14a.56.56,0,0,1,.1.38v.57c0,.29.09.67.09.86.29,1,1,.57.86,2.56a7,7,0,0,1-.29,1.52,5.94,5.94,0,0,0-.28,2.37c0,.67.09,1,.09,1.71a13.64,13.64,0,0,1-.19,2.09c-.09.57-.09.85-.38,1.14a1.14,1.14,0,0,0-.47.76,4.75,4.75,0,0,0-.1,1.23,2.14,2.14,0,0,0,0,.76,2.35,2.35,0,0,0-.47.85l.19,4.47A6.23,6.23,0,0,1,.28,79c0,.38.1.66.1,1v1c0,.19.09.29.09.38.1.38,0,1.52.19,1.52a.54.54,0,0,0,.1-.38,15.94,15.94,0,0,0,0,2.19c.19.28.38.38.47.76a8.69,8.69,0,0,1,.1,2.27,7.12,7.12,0,0,0,.19,2.09,6,6,0,0,0,.19.76,2.8,2.8,0,0,0,.09.86c.1.66.29.76.38,1.33a17.27,17.27,0,0,1,.1,2.37c0,.47,5.08,5.94,5,7.93L361,113.41l6.61-5.48,2.56-.52v-1A9.52,9.52,0,0,0,370,104a10.72,10.72,0,0,1-.38-1.33,2.53,2.53,0,0,0-.1-.86,1.74,1.74,0,0,0-.19-.76,13.69,13.69,0,0,1-.19-2.08,8.8,8.8,0,0,0-.09-2.28c-.1-.29-.29-.38-.38-.76a5.54,5.54,0,0,1,0-2.19c0,.19,0,.29-.1.38s-.19-1.14-.19-1.51c0-.19-.09-.29-.09-.38v-1c0-.38-.09-.66-.09-1s-.1-.76-.1-1.14l.1-4.37c.18-.38.37-.66.47-.85-.1-.38,0-.38,0-.76a5.76,5.76,0,0,1,.09-1.24,1.21,1.21,0,0,1,.48-.76c.19-.19.19-.47.38-1.14a14.73,14.73,0,0,0,.19-2.08,9.76,9.76,0,0,0-.1-1.71,8.55,8.55,0,0,1,.29-2.38,7.37,7.37,0,0,0,.28-1.51c.1-2-.57-1.52-.85-2.57a2.48,2.48,0,0,1-.1-.85v-.57c0-.19-.09-.29-.09-.38,0-.67.28-.76.38-1.14a3.36,3.36,0,0,0,0-1,3.06,3.06,0,0,0-.1-1c-.09-.1-.19,0-.28,0a3.57,3.57,0,0,1,.66-2.09c.19-.19.38-.19.48-.38a6,6,0,0,0,.28-1c.19-.76.29-1.61.48-2.37.09-.57,0-.86.28-1.05.1-.09.19,0,.29-.09a1.24,1.24,0,0,1,.38-.38.33.33,0,0,0,.28-.1,12.1,12.1,0,0,1,.1-1.9V53.72a1.94,1.94,0,0,0-.1-.75c0-1.33.48-2.28.57-3.61a21.8,21.8,0,0,0-.28-2.56c-.1-.67-.1-.67-.29-.95s-.38-.38-.47-.67a7.78,7.78,0,0,1-.1-2.18c-.19-.1-.47.19-.66-.1a2.17,2.17,0,0,1-.19-.85v-.38a1.42,1.42,0,0,0-.19-.57,7.7,7.7,0,0,1,0-1.52c.38-.38.76-.09,1.14,0a2.18,2.18,0,0,1,.19-.76,4.81,4.81,0,0,0,0-1.14,6.1,6.1,0,0,1,.19-1.42c.09-.19.28-.1.38,0,.57.09.85-2.38,1.23-3.51.19-.76.29-.57.57-.48a2.43,2.43,0,0,0,.85,0A3.41,3.41,0,0,1,374.87,30.28Z"/><path class="cls-2" d="M374.87,28.76l-5.13-.19-3.13-.1L7.12,17.56v1.9a2.69,2.69,0,0,1-.85,0c-.29,0-.29-.19-.57.47-.38,1.14-.67,3.61-1.24,3.51-.09,0-.28-.19-.38,0a5.36,5.36,0,0,0-.19,1.43,4.35,4.35,0,0,1,0,1.14,2.18,2.18,0,0,1-.19.76c-.38-.1-.76-.38-1.14,0a4.26,4.26,0,0,0,0,1.51c.1.19.1.38.19.57v.38a8.08,8.08,0,0,0,.19.86c.19.28.48,0,.67.09a8.11,8.11,0,0,0,.09,2.19c.1.28.38.47.48.66a1.14,1.14,0,0,1,.28.95,20.22,20.22,0,0,1,.29,2.56c0,1.33-.48,2.19-.57,3.61a2,2,0,0,0,.09.76v1.71a13.43,13.43,0,0,1-.09,1.9c-.1.09-.19.19-.29.09-.09.1-.28.19-.38.38s-.19,0-.28.1A4.48,4.48,0,0,0,3,46a15.71,15.71,0,0,1-.48,2.37c-.09.38-.09.76-.28,1s-.38.19-.48.38a4.48,4.48,0,0,0-.66,2.09c.09,0,.19-.1.28,0s.1.66.1,1a3.36,3.36,0,0,1,0,1c-.1.47-.38.47-.38,1.14a.58.58,0,0,1,.09.38v.57c0,.28.1.66.1.85.28,1.05.95.57.85,2.57a7.37,7.37,0,0,1-.28,1.51,6.14,6.14,0,0,0-.29,2.38c0,.66.1,1,.1,1.71A14.73,14.73,0,0,1,1.52,67c-.1.57-.1.86-.38,1.14a1.21,1.21,0,0,0-.48.76,5.31,5.31,0,0,0-.09,1.24,1.93,1.93,0,0,0,0,.76,2.17,2.17,0,0,0-.48.85l.1,4.56a6.23,6.23,0,0,1,.09,1.14c0,.38.1.66.1,1v1c0,.18.09.28.09.37.1.38,0,1.52.19,1.52a.54.54,0,0,0,.1-.38,15.94,15.94,0,0,0,0,2.19c.09.38.28.47.38.76a8.8,8.8,0,0,1,.09,2.28,7.09,7.09,0,0,0,.19,2.08c.1.29.1.57.19.76a2.53,2.53,0,0,0,.1.86c.09.66.28.76.38,1.33a19.25,19.25,0,0,1,.09,2.37,8.64,8.64,0,0,1,0,1.61l362.15,11,3.14.1,2.56.09v-1.61a9.49,9.49,0,0,0-.1-2.37c-.09-.48-.28-.67-.38-1.33a2.8,2.8,0,0,0-.09-.86,1.89,1.89,0,0,0-.19-.76,12.31,12.31,0,0,1-.19-2.08,8.77,8.77,0,0,0-.1-2.28c-.09-.29-.28-.38-.38-.76a5.69,5.69,0,0,1,0-2.18c0,.19,0,.28-.09.38s-.19-1.14-.19-1.52c0-.19-.09-.29-.09-.38v-1c0-.38-.1-.66-.1-1s-.09-.76-.09-1.14l.09-4.37c.19-.38.38-.66.47-.85-.09-.38,0-.38,0-.76a5.19,5.19,0,0,1,.1-1.24,1.11,1.11,0,0,1,.47-.75c.19-.19.19-.48.38-1.14a13.64,13.64,0,0,0,.19-2.09,10.83,10.83,0,0,0-.09-1.71,8.51,8.51,0,0,1,.28-2.37,7,7,0,0,0,.29-1.52c.09-2-.57-1.52-.86-2.57a2.74,2.74,0,0,1-.09-.85v-.57c0-.19-.1-.28-.1-.38,0-.66.29-.76.38-1.14a3,3,0,0,0,0-.95,3.39,3.39,0,0,0-.09-1c-.1-.1-.19,0-.29,0a3.64,3.64,0,0,1,.67-2.09c.19-.19.38-.19.47-.38a5.83,5.83,0,0,0,.29-1c.19-.76.28-1.61.47-2.37.1-.57,0-.86.29-1,.09-.09.19,0,.28-.09a1.51,1.51,0,0,1,.38-.38.35.35,0,0,0,.29-.1,13.43,13.43,0,0,1,.09-1.9v-1.7a2.17,2.17,0,0,0-.09-.76c0-1.33.47-2.28.57-3.61a20,20,0,0,0-.29-2.56c-.09-.67-.09-.67-.28-1s-.38-.38-.48-.67a7.83,7.83,0,0,1-.09-2.18c-.19-.1-.48.19-.67-.1a2.37,2.37,0,0,1-.19-.85v-.38a1.28,1.28,0,0,0-.19-.57,8.55,8.55,0,0,1,0-1.52c.38-.38.76-.09,1.14,0a2.42,2.42,0,0,1,.19-.76,4.34,4.34,0,0,0,0-1.14,6.68,6.68,0,0,1,.19-1.42c.1-.19.29-.1.38,0,.57.09.86-2.37,1.24-3.51.19-.76.28-.57.57-.48a2.43,2.43,0,0,0,.85,0A4.08,4.08,0,0,1,374.87,28.76Z"/><g class="cls-3"><path class="cls-4" d="M370,106.5l-2.56-.09-3.14-.1L2.18,95.3a8.58,8.58,0,0,0,0-1.53l367.62,8.34a14,14,0,0,1,.31,2.4A17.82,17.82,0,0,0,370,106.5Z"/></g><path class="cls-5" d="M185.09,35.11a88.85,88.85,0,0,1-25.48,6.12L158,32.11l26.06-5.83s-.58,5.35,0,5.83S185.09,35.11,185.09,35.11Z"/><path class="cls-6" d="M185.09,35.11l-15.64-3.65c-.84-.25-1.72-.38-2.65-.59A50.1,50.1,0,0,1,158,28.43c-4.91-2.19-7.18-6.37-9-9.73-.36-.56-.59-1.08-1-1.65l8.3-4.72c.39.65.66,1.26,1,1.83,1.64,3,2.59,4.67,4.42,5.52a38.66,38.66,0,0,0,6.88,1.93c.92.21,1.93.39,2.86.6l15.64,3.65c.15.57-.55,1.16-.47,1.71s.94,1.17.92,1.74-2.63-.3-2.77.28,2.19,2.65,1.92,3.18A8.44,8.44,0,0,1,185.09,35.11Z"/><path class="cls-7" d="M184.05,31.11l-14.13-3.28c-.84-.25-1.73-.38-2.65-.59a49.06,49.06,0,0,1-8.77-2.45c-4.92-2.18-7.19-6.36-9-9.72l-.23-.52-.83.47c.36.57.59,1.09.94,1.66,1.81,3.36,4.08,7.54,9,9.72a39.58,39.58,0,0,0,8.77,2.45c.93.21,1.73.37,2.65.59l14.25,3.33A5.43,5.43,0,0,1,184.05,31.11Z"/><path class="cls-8" d="M151.57,23c2-2.85,4-5.6,6.08-8.31l-.2-.43c-.35-.57-.66-1.27-1-1.83l-8.29,4.71c.36.57.59,1.09,1,1.66C149.87,20.1,150.62,21.54,151.57,23Z"/><path class="cls-6" d="M159.11,2.3c1.31,3,5.2,9.84-5.17,15.27-9.58,5.08-13.2-2.14-14.51-5.09s2-7.64,7.41-10.45S157.8-.65,159.11,2.3Z"/><path class="cls-7" d="M154.22,12.57A22.05,22.05,0,0,1,151,13.91c.59.87,1.24,1.63,1.84,2.5l.52-.23c4.39-2.26,5.62-4.88,5.73-7.21A15.58,15.58,0,0,1,154.22,12.57Z"/><ellipse class="cls-9" cx="149.23" cy="7.2" rx="9.59" ry="5.03" transform="translate(14.82 72.44) rotate(-28.65)"/></g></g></svg>