<svg xmlns="http://www.w3.org/2000/svg" xmlns:xlink="http://www.w3.org/1999/xlink" viewBox="0 0 1001.01 1057.48"><defs><style>.cls-1{isolation:isolate;}.cls-2{fill:#af561b;opacity:0.25;}.cls-3{fill:#e27933;}.cls-4{fill:#8c3c10;}.cls-5{fill:#5e4c54;stroke:#b25c22;stroke-miterlimit:10;stroke-width:3.44px;}.cls-11,.cls-12,.cls-6,.cls-8{fill:#fff;}.cls-7{fill:#4a0b34;}.cls-8{opacity:0.35;}.cls-9{fill:#b25c22;}.cls-10,.cls-11,.cls-12,.cls-13,.cls-14,.cls-9{fill-rule:evenodd;}.cls-10{fill:url(#radial-gradient);}.cls-12{mix-blend-mode:soft-light;}.cls-13{fill:url(#Áåçûìÿííûé_ãðàäèåíò_56);}.cls-14{fill:url(#Áåçûìÿííûé_ãðàäèåíò_64);}</style><radialGradient id="radial-gradient" cx="-8024.6" cy="86.14" r="10.25" gradientTransform="matrix(0, -1, -1.04, 0, 1081.51, -6977.65)" gradientUnits="userSpaceOnUse"><stop offset="0" stop-color="#ffff4f"/><stop offset="1" stop-color="#25b000"/></radialGradient><radialGradient id="Áåçûìÿííûé_ãðàäèåíò_56" cx="-7953.63" cy="86.14" r="10.25" gradientTransform="matrix(0, -1, -1.04, 0, 1081.51, -6977.65)" gradientUnits="userSpaceOnUse"><stop offset="0" stop-color="#ff1f4f"/><stop offset="1" stop-color="#ff3400"/></radialGradient><radialGradient id="Áåçûìÿííûé_ãðàäèåíò_64" cx="-7882.67" cy="86.14" r="10.25" gradientTransform="matrix(0, -1, -1.04, 0, 1081.51, -6977.65)" gradientUnits="userSpaceOnUse"><stop offset="0" stop-color="#ffff4f"/><stop offset="1" stop-color="#ffb000"/></radialGradient></defs><g class="cls-1"><g id="Layer_2" data-name="Layer 2"><g id="Major_Card" data-name="Major Card"><polygon class="cls-2" points="0 1006.94 0 57.83 14.34 0 934.82 11.4 949.16 949.11 920.84 1006.94 0 1006.94"/><rect class="cls-3" x="7.2" y="7.15" width="949.11" height="934.82" transform="translate(956.31 -7.2) rotate(90)"/><rect class="cls-4" x="37.59" y="24.68" width="889.83" height="899.75"/><rect class="cls-5" x="704.29" y="973.58" width="112.41" height="78.21"/><path class="cls-6" d="M804.63,1050a45.75,45.75,0,1,0-88.28,0Z"/><path class="cls-7" d="M764.74,1049.91l18.2-33.76a.38.38,0,0,0-.15-.52l-1.39-.8a.4.4,0,0,0-.53.14l-21.22,34.94Z"/><rect class="cls-5" x="833.82" y="974.77" width="112.41" height="78.21"/><path class="cls-8" d="M934.59,1051.1a45.21,45.21,0,0,0,1.18-10.21,45.75,45.75,0,1,0-90.32,10.21Z"/><path class="cls-7" d="M885.9,1051.1h4.77a.37.37,0,0,0,.06-.39L871.3,1012.9a.38.38,0,0,0-.51-.18l-1.45.7a.39.39,0,0,0-.19.51Z"/><path class="cls-9" d="M987.9,1031.6c-17.48-.24-17.48,26.13,0,25.88C1005.38,1057.72,1005.38,1031.35,987.9,1031.6Z"/><path class="cls-10" d="M987.9,1034.13c-14.06-.19-14.06,21,0,20.81C1002,1055.14,1002,1033.94,987.9,1034.13Z"/><path class="cls-11" d="M991.65,1052.54l-1.39-2.65,4.17-4,2.08,1.07A12.18,12.18,0,0,1,991.65,1052.54Z"/><path class="cls-12" d="M978.52,1045.87s8.65-2.23,8.34-9.93C986.86,1035.94,977.48,1035.5,978.52,1045.87Z"/><path class="cls-9" d="M987.9,960.64c-17.48-.25-17.48,26.12,0,25.88C1005.38,986.76,1005.38,960.39,987.9,960.64Z"/><path class="cls-13" d="M987.9,963.17c-14.06-.19-14.06,21,0,20.81C1002,984.18,1002,963,987.9,963.17Z"/><path class="cls-11" d="M991.65,981.58l-1.39-2.65,4.17-4,2.08,1.07A12.18,12.18,0,0,1,991.65,981.58Z"/><path class="cls-12" d="M978.52,974.91s8.65-2.23,8.34-9.94C986.86,965,977.48,964.54,978.52,974.91Z"/><path class="cls-9" d="M987.9,889.68c-17.48-.25-17.48,26.12,0,25.87C1005.38,915.8,1005.38,889.43,987.9,889.68Z"/><path class="cls-14" d="M987.9,892.21c-14.06-.2-14.06,21,0,20.81C1002,913.22,1002,892,987.9,892.21Z"/><path class="cls-11" d="M991.65,910.62,990.26,908l4.17-4,2.08,1.07A12.18,12.18,0,0,1,991.65,910.62Z"/><path class="cls-12" d="M978.52,904s8.65-2.23,8.34-9.94C986.86,894,977.48,893.58,978.52,904Z"/></g></g></g></svg>