<svg xmlns="http://www.w3.org/2000/svg" xmlns:xlink="http://www.w3.org/1999/xlink" viewBox="0 0 1169.56 194.1"><defs><style>.cls-1{fill:none;}.cls-2{isolation:isolate;}.cls-3{fill:#c8c8c8;}.cls-3,.cls-5{mix-blend-mode:multiply;}.cls-4{fill:#e0e0c6;}.cls-6{clip-path:url(#clip-path);}.cls-7{opacity:0.25;}.cls-10,.cls-11,.cls-8,.cls-9{fill:#d9d9d9;}.cls-8{opacity:0.45;}.cls-10{opacity:0.41;}.cls-11{opacity:0.49;}</style><clipPath id="clip-path" transform="translate(44.29)"><path class="cls-1" d="M1120.94,108c-.48-18.49,3-40.25,4-59.08,1-18,.07-40.09-8.28-48.87h-31.84c-17.42,3.54-34.87,7-53.32,7.58C992.86,8.89,840.34,1.45,800.45,0H780.28c-57,2.36-243.57,9.16-282.66,0H184C126.7,2.23,65.62,4.59,8,7.86c-16.88,30.2-1.71,53.74-3,81.72-1.23,26.9-6.64,38.92,2.69,82.48,106,4.78,419.69,6,470.21,6s101.65-4.31,151.16,0c86.77,7.54,396.76,9.07,468.41,1.89,0,0,18.53,2.24,25.89-.1,0,0-10.07-13.7-7-21.53S1121.11,114.37,1120.94,108Z"/></clipPath></defs><g class="cls-2"><g id="Layer_2" data-name="Layer 2"><g id="Major_s_silhouette_Frame" data-name="Major&apos;s silhouette Frame"><path class="cls-3" d="M1120.94,117.48c-.48-18.49,3-40.25,4-59.08,1-18,.07-40.09-8.28-48.87h-31.84c-17.42,3.54-34.87,7-53.32,7.58C992.86,18.42,840.34,11,800.45,9.53H780.28c-57,2.36-243.57,9.16-282.66,0H184C126.7,11.76,65.62,14.12,8,17.39c-16.88,30.2-1.71,53.74-3,81.71C3.82,126-1.59,138,7.74,181.59c106,4.78,419.69,6,470.21,6s101.65-4.3,151.16,0c86.77,7.55,396.76,9.08,468.41,1.9,0,0,18.53,2.24,25.89-.1,0,0-10.07-13.7-7-21.53S1121.11,123.9,1120.94,117.48Z" transform="translate(44.29)"/><path class="cls-4" d="M1120.94,108c-.48-18.49,3-40.25,4-59.08,1-18,.07-40.09-8.28-48.87h-31.84c-17.42,3.54-34.87,7-53.32,7.58C992.86,8.89,840.34,1.45,800.45,0H780.28c-57,2.36-243.57,9.16-282.66,0H184C126.7,2.23,65.62,4.59,8,7.86c-16.88,30.2-1.71,53.74-3,81.72-1.23,26.9-6.64,38.92,2.69,82.48,106,4.78,419.69,6,470.21,6s101.65-4.31,151.16,0c86.77,7.54,396.76,9.07,468.41,1.89,0,0,18.53,2.24,25.89-.1,0,0-10.07-13.7-7-21.53S1121.11,114.37,1120.94,108Z" transform="translate(44.29)"/><g class="cls-5"><g class="cls-6"><g class="cls-7"><polygon class="cls-8" points="187.02 34.51 216.82 30.95 239.16 30.94 257.82 36.27 254.93 29.79 239.62 26.83 230.05 22.19 240.69 19.72 304 12.23 312.4 9.63 304.79 6.59 261.5 2.54 231.72 2.51 213.74 4.56 149.93 4.47 124.83 2.42 0 7.98 3.5 20.62 16.88 24.02 187.02 34.51 187.02 34.51"/><polygon class="cls-9" points="213.74 4.56 231.72 2.51 236.61 0.12 184.29 0.12 124.83 2.42 149.93 4.47 213.74 4.56 213.74 4.56"/><polygon class="cls-9" points="98.58 106.68 164.72 109.1 114.07 94.65 79.36 96.86 38.07 98.45 9.64 102.12 9.69 107.71 98.58 106.68 98.58 106.68"/><polygon class="cls-9" points="19.45 89.58 13.28 85.58 10.13 84.4 9.92 89.85 19.45 89.58 19.45 89.58"/><polygon class="cls-9" points="261.5 2.54 304.02 0.12 236.61 0.12 231.72 2.51 261.5 2.54 261.5 2.54"/><polygon class="cls-9" points="336.04 0.79 342.47 0.12 335.1 0.12 335.96 0.76 336.04 0.79 336.04 0.79"/><polygon class="cls-9" points="187.02 34.51 16.88 24.02 3.5 20.62 3.03 34.68 57.86 39.14 187.02 34.51 187.02 34.51"/><polygon class="cls-9" points="216.82 30.95 239.16 30.94 216.82 30.95 216.82 30.95"/><polygon class="cls-9" points="38.07 98.45 49.24 93.13 49.24 89.58 19.45 89.58 9.92 89.85 9.87 91.02 9.64 102.12 38.07 98.45 38.07 98.45"/><polygon class="cls-9" points="15.72 52.28 2.66 51.82 2.39 65.64 12.18 62.52 15.72 52.28 15.72 52.28"/><polygon class="cls-9" points="190.81 112.64 192.75 106.67 197.79 102.4 186.57 101.43 179.51 102.48 161.4 99.65 169.09 93.64 171.25 87.69 131.37 81.39 49.24 93.13 38.07 98.45 79.36 96.86 114.07 94.65 164.72 109.1 172.05 110.92 201.96 112.68 190.81 112.64 190.81 112.64 190.81 112.64"/><polygon class="cls-9" points="127.44 112.67 172.05 110.92 164.72 109.1 98.58 106.68 9.69 107.71 9.8 112.7 127.44 112.67 127.44 112.67"/><polygon class="cls-9" points="327.64 166.94 339.68 160.59 309.92 160.62 256.3 165 184.59 176.09 233.78 176.64 241.67 175.53 327.64 166.94 327.64 166.94"/><polygon class="cls-9" points="369.73 174.37 366.49 177.66 410.72 177.89 395.84 172.29 369.73 174.37 369.73 174.37"/><path class="cls-9" d="M-20.46,132.16l117.68,1.49,62.64.51,157.15,0,30.56-9.1-22.25-5.35h0l-37.38,5.39L253,129.76l-99.08-1.08-37.25,1.76-53.23-.16-97.39.26,0,1.53,13.43.09Zm325.87-3,2.15.65-.65.61-2.16-.66.66-.6Z" transform="translate(44.29)"/><polygon class="cls-9" points="110.63 175.03 164.93 175.84 153.78 175.44 110.63 175.03 110.63 175.03"/><polygon class="cls-9" points="107.75 130.28 160.98 130.44 66.87 128.66 10.31 128.78 10.36 130.54 107.75 130.28 107.75 130.28"/><polygon class="cls-9" points="1140.36 70.01 1151.55 71.81 1147.83 87.8 1163.73 92.17 1159.8 67.37 1151.53 64.71 1140.36 70.01 1140.36 70.01"/><polygon class="cls-9" points="1165.48 144.67 1165.48 144.07 1162.69 144.62 1165.48 144.67 1165.48 144.67"/><polygon class="cls-9" points="1103.13 121.54 1110.6 121.56 1165.91 124.64 1165.73 108.07 1165.16 101.75 1115.64 112.38 1103.13 121.54 1103.13 121.54"/><polygon class="cls-8" points="816.59 75.16 841.55 70.88 806.44 66.24 787.81 68 705.84 69.18 690.99 66.24 604.81 63.94 588.38 55.99 575.54 48.48 567.04 51.68 552.26 56.31 568.37 67.94 618.49 78.98 622.92 82.19 614.86 83.53 583.17 79.05 556.56 78.62 497.35 87.55 467.55 96.43 532.06 100.59 570.11 99.07 601.93 107.82 642.19 117.77 678.01 115.22 707.4 114.41 714.18 107.69 720.96 98.29 754.33 89.34 757.98 85.79 659.42 80.19 718.34 76.61 806.4 76.92 790.04 72.22 816.59 75.16 816.59 75.16"/><polygon class="cls-9" points="265.22 107.33 270.69 106.46 265.22 107.33 265.22 107.33"/><polygon class="cls-9" points="321.09 11.45 282.96 19 324.82 23.86 332.28 22.09 447.69 2.54 445.99 0.12 360.43 0.12 339.8 4.42 321.09 11.45 321.09 11.45"/><polygon class="cls-9" points="321.81 69 348.14 75.98 396.56 79.55 430.04 83.13 410.73 67.28 367.98 61.56 309.65 65.29 294.15 67.15 307.17 72.45 321.81 69 321.81 69"/><polygon class="cls-4" points="369.61 119.73 369.61 119.73 385.78 114.39 391.84 109.56 381.99 106.32 354.56 94.94 350.89 89.55 324.55 82.57 309.91 86.02 328.51 89.71 335.27 93.32 327.18 96.34 276.41 103.8 276.4 105.56 333.62 100.95 350.17 106.02 341.38 116.05 317.35 116.2 302.38 119.75 332.23 125.11 369.61 119.73 369.61 119.73"/><polygon class="cls-9" points="381.36 24.45 324.81 25.63 306.97 28.85 325.03 34.44 358.33 34.51 391.84 30.98 391.83 30.98 391.84 30.98 399.37 27.42 381.36 24.45 381.36 24.45"/><polygon class="cls-9" points="276.4 105.56 276.41 103.8 253.1 101.55 231.72 109.12 265.22 107.33 270.69 106.46 276.4 105.56 276.4 105.56"/><polygon class="cls-9" points="358.33 34.51 391.83 30.98 391.84 30.98 358.33 34.51 358.33 34.51"/><polygon class="cls-9" points="336.04 0.79 335.96 0.76 321.09 11.45 339.8 4.42 336.04 0.79 336.04 0.79"/><polygon class="cls-9" points="26.56 49.71 18.74 44.46 2.9 39.81 2.66 51.82 15.72 52.28 26.56 49.71 26.56 49.71"/><polygon class="cls-9" points="339.8 4.42 360.43 0.12 342.47 0.12 336.04 0.79 339.8 4.42 339.8 4.42"/><polygon class="cls-9" points="1132.93 171.29 1128.55 172.03 1132.93 171.29 1132.93 171.29"/><polygon class="cls-9" points="864.56 180.68 863.8 174.33 864.78 165.96 828.53 165.02 821.41 164.98 741.72 164.72 730.76 164.15 690.21 163.49 670.64 165.5 658.07 168.55 668.84 173.93 681.53 178.55 680.01 180.01 871.82 184.43 864.56 180.68 864.56 180.68"/><polygon class="cls-9" points="619.66 161.33 643.79 157.6 708.39 151.75 678.21 150.41 618.98 146.42 566.87 146.53 511.69 159.83 498.77 160.54 421.28 154.55 412.22 154.3 350.88 155.29 350.89 157.08 389.91 155.73 404.65 157.94 410.42 158.87 447.68 165.97 497.18 173.67 514.13 177.93 650.56 178.14 652.29 178.28 629.97 172.3 619.66 161.33 619.66 161.33"/><polygon class="cls-9" points="477.49 126.86 443.89 128.68 422.52 128.28 395.63 126.85 434.28 134.09 529.63 133.99 574.32 133.99 499.84 125.1 477.49 126.86 477.49 126.86"/><polygon class="cls-9" points="410.42 158.87 400.06 160.46 398.13 169.69 420.97 177.94 479 178.13 447.68 165.97 410.42 158.87 410.42 158.87"/><polygon class="cls-9" points="404.65 157.94 410.42 158.87 404.65 157.94 404.65 157.94"/><polygon class="cls-9" points="400.06 160.46 410.42 158.87 404.65 157.94 389.91 155.73 350.89 157.08 339.69 160.59 339.68 160.59 327.64 166.94 241.67 175.53 233.78 176.64 366.49 177.66 369.73 174.37 395.84 172.29 410.72 177.89 420.97 177.94 398.13 169.69 400.06 160.46 400.06 160.46"/><polygon class="cls-9" points="351.85 129.83 349.7 129.18 349.04 129.78 351.2 130.44 351.85 129.83 351.85 129.83"/><polygon class="cls-9" points="1151.55 2.54 1151.54 6.09 1161.25 6.09 1161.26 2.06 1151.55 2.54 1151.55 2.54"/><polygon class="cls-9" points="1151.55 2.54 1161.26 2.06 1161.27 0.12 1151.55 0.12 1151.55 2.54 1151.55 2.54"/><polygon class="cls-10" points="1154.74 39.91 1117.29 42.41 1096.87 36.94 1002.57 27.39 905.84 23.8 829.33 29.07 803.26 25.4 778.9 22.4 769.33 24.67 774.1 28.71 779.04 31.07 808.99 41.75 845.77 47.08 895.64 40.94 917.01 35.91 961.86 45.17 1017.51 61.14 1026.04 58.62 1035.9 54.29 1046.3 49.78 1151.53 64.71 1159.8 67.37 1159.54 55.04 1160.53 35.37 1154.74 39.91 1154.74 39.91"/><polygon class="cls-11" points="1141.45 81.26 1151.55 71.81 1140.36 70.01 1132.91 70.05 1065.89 71.81 1062.16 71.79 1062.17 73.59 1073.32 75.38 1114.96 81.97 1128.98 89.37 1109.98 94.98 1043.79 95.26 1001.08 99.12 890.61 119.37 874.28 119.4 851.94 121.97 861.01 132.21 905.77 123.33 934.48 119.99 988.11 110.89 1033.24 103.68 1064.11 100.67 1103.03 101.98 1135.97 100.02 1164.47 96.69 1163.73 92.17 1147.83 87.8 1141.45 81.26 1141.45 81.26"/><polygon class="cls-9" points="1009.91 139.35 1021.08 139.94 1009.91 139.35 1009.91 139.35"/><polygon class="cls-9" points="1110.6 121.56 1042.65 127.25 1035.4 127.72 943 123.33 909.64 123.37 909.64 123.37 951.7 132.89 972.73 135.8 995.22 139.26 995.23 139.26 995.24 139.26 1009.91 139.35 1153.15 135.06 1165.66 133.42 1165.91 124.64 1110.6 121.56 1110.6 121.56"/><polygon class="cls-9" points="1062.16 71.79 1065.89 71.81 1132.91 70.05 1140.36 70.01 1151.53 64.71 1046.3 49.78 1035.9 54.29 1026.04 58.62 1017.51 61.14 1047.13 68.29 1062.16 71.79 1062.16 71.79 1062.16 71.79"/><polygon class="cls-9" points="1035.4 127.72 1042.65 127.25 1110.6 121.56 1103.13 121.54 1064.32 122.67 996.11 123.71 943 123.33 1035.4 127.72 1035.4 127.72"/><polygon class="cls-9" points="1125.58 144.46 1162.69 144.62 1165.48 144.07 1165.52 139.49 1163.61 139.52 1125.58 144.46 1125.58 144.46"/><polygon class="cls-9" points="1147.83 87.8 1151.55 71.81 1141.45 81.26 1147.83 87.8 1147.83 87.8"/><polygon class="cls-9" points="1151.56 23.82 1147.84 25.63 1160.88 26.72 1160.99 22.52 1151.56 23.82 1151.56 23.82"/><polygon class="cls-9" points="1161.03 21.26 1161.19 15.27 1151.58 18.52 1161.03 21.26 1161.03 21.26"/><polygon class="cls-9" points="455.19 2.53 459.6 0.12 445.99 0.12 447.69 2.54 455.19 2.53 455.19 2.53"/><polygon class="cls-9" points="765.76 115.38 779.14 98.46 719.93 107.39 693.32 106.96 661.63 102.48 653.57 103.82 658 107.03 708.12 118.07 724.23 129.69 709.45 134.33 700.95 137.53 700.95 139.32 734.44 139.3 747.34 134.68 765.76 115.38 765.76 115.38"/><polygon class="cls-9" points="565.45 120.63 585.5 119.77 570.65 116.83 488.68 118.01 565.45 120.63 565.45 120.63"/><polygon class="cls-9" points="498.52 7.34 440.28 4.33 408.86 15.85 470.91 26.87 492.4 23.86 499.81 20.29 533.96 2.77 512.82 0.12 459.6 0.12 455.19 2.53 498.52 7.34 498.52 7.34"/><polygon class="cls-9" points="404.79 11.32 440.28 4.33 498.52 7.34 455.19 2.53 447.69 2.54 332.28 22.09 404.79 11.32 404.79 11.32"/><polygon class="cls-9" points="494.19 60.78 498.52 67.44 514.75 78.92 529.63 70.04 508.9 62.82 494.19 60.78 494.19 60.78"/><polygon class="cls-9" points="540.47 90.77 417.7 90.46 369.29 86.9 372.96 92.28 540.47 90.77 540.47 90.77"/><polygon class="cls-4" points="127.14 70.98 135.93 60.96 119.38 55.89 62.16 60.5 56.45 61.4 50.98 62.27 6.04 68.96 48.26 74.36 127.14 70.98 127.14 70.98"/><polygon class="cls-9" points="1145.85 176.24 1113.48 181.85 1141.2 180.03 1156.8 177.4 1147.88 174.81 1145.85 176.24 1145.85 176.24"/><polygon class="cls-9" points="1147.88 174.81 1132.93 171.29 1128.55 172.03 1080.79 174.85 1080.78 174.85 1060.31 183.54 1113.48 181.85 1145.85 176.24 1147.88 174.81 1147.88 174.81"/><polygon class="cls-9" points="894.62 160.62 1080.79 174.85 1128.55 172.03 1132.93 171.29 1087.12 159.13 1051.32 154.9 1030.07 155.61 931.99 152.08 923.62 150.67 875.97 151.73 875.97 153.51 894.62 160.62 894.62 160.62"/><polygon class="cls-9" points="824.66 160.22 855.77 154.62 875.97 153.51 875.97 151.73 845.72 145.5 715.79 149.95 756.83 158.84 824.66 160.22 824.66 160.22"/><polygon class="cls-9" points="681.53 178.55 668.84 173.93 658.07 168.55 670.64 165.5 690.21 163.49 730.76 164.15 756.83 158.84 715.79 149.95 708.39 151.75 643.79 157.6 619.66 161.33 629.97 172.3 652.29 178.28 680.01 180.01 681.53 178.55 681.53 178.55"/><polygon class="cls-9" points="892.07 137.46 868.49 135.79 868.49 135.79 868.51 141.09 956.67 139.18 995.23 139.26 995.22 139.26 972.73 135.8 892.07 137.46 892.07 137.46"/><polygon class="cls-9" points="1080.79 174.85 894.62 160.62 864.78 165.96 863.8 174.33 864.56 180.68 871.82 184.43 1060.31 183.54 1080.78 174.85 1080.79 174.85 1080.79 174.85"/><polygon class="cls-9" points="855.77 154.62 824.66 160.22 756.83 158.84 730.76 164.15 741.72 164.72 821.41 164.98 828.53 165.02 864.78 165.96 894.62 160.62 875.97 153.51 855.77 154.62 855.77 154.62"/><polygon class="cls-9" points="447.68 165.97 479 178.13 492.22 178.14 514.13 177.93 497.18 173.67 447.68 165.97 447.68 165.97"/><polygon class="cls-9" points="477.49 126.86 499.84 125.1 477.49 126.86 477.49 126.86"/><polygon class="cls-9" points="1019.4 12 1036.11 20.31 1068.72 13.55 1059.62 7.84 1013.72 7.02 1013.75 7.03 1019.4 12 1019.4 12"/><polygon class="cls-9" points="1161.19 15.27 1161.25 6.09 1151.54 6.09 1114.8 2.6 1072.07 7.69 1070.59 7.73 1151.58 18.52 1161.19 15.27 1161.19 15.27"/><polygon class="cls-9" points="1151.54 6.09 1151.55 2.54 1151.55 0.12 1127.91 0.12 1114.8 2.6 1151.54 6.09 1151.54 6.09"/><polygon class="cls-9" points="1002.57 27.39 1028.58 25.6 935.55 16.75 898.54 22.03 905.84 23.8 1002.57 27.39 1002.57 27.39"/><polygon class="cls-9" points="949.11 6.79 938.07 6.23 920.67 10.58 935.55 16.75 1028.58 25.6 1036.11 20.31 1019.4 12 1013.75 7.03 1013.72 7.02 958.3 5.19 949.11 6.79 949.11 6.79"/><polygon class="cls-9" points="1149.96 23.43 1126.03 22.17 1125.78 23.67 1147.84 25.63 1151.56 23.82 1149.96 23.43 1149.96 23.43"/><polygon class="cls-9" points="1065.89 71.81 1132.91 70.05 1065.89 71.81 1065.89 71.81"/><polygon class="cls-9" points="1062.16 71.79 1062.16 71.79 1047.13 68.29 1028.7 75.36 1062.17 73.59 1062.16 71.79 1062.16 71.79"/><rect class="cls-9" x="1028.7" y="75.35"/><polygon class="cls-9" points="764.25 4.31 883.42 18.53 898.54 22.03 898.54 22.03 935.55 16.75 920.67 10.58 938.07 6.23 949.11 6.79 958.3 5.19 830.03 0.12 808.9 0.12 745.54 2.33 764.25 4.31 764.25 4.31"/><polygon class="cls-9" points="638.6 8.82 665.08 13.9 682.32 18.53 698.89 5.68 713.89 3.22 596.87 4.73 603.04 7.07 638.6 8.82 638.6 8.82"/><polygon class="cls-9" points="499.81 20.29 519.89 23.89 559.06 16.79 567.3 4.3 533.96 2.77 499.81 20.29 499.81 20.29"/><polygon class="cls-9" points="526.11 84.31 527.04 84.89 529.48 84.21 528.52 83.6 526.11 84.31 526.11 84.31"/><polygon class="cls-9" points="996.2 73.27 1007.59 66.29 989.72 62.2 920.62 80.44 965.32 80.67 980.2 78.91 996.2 73.27 996.2 73.27"/><polygon class="cls-9" points="764.25 4.31 803.26 9.09 883.42 18.53 764.25 4.31 764.25 4.31"/></g></g></g></g></g></g></svg>