<svg id="Ebene_1" data-name="Ebene 1" xmlns="http://www.w3.org/2000/svg" xmlns:xlink="http://www.w3.org/1999/xlink" viewBox="0 0 384.05 328.66"><defs><style>.cls-1{fill:none;}.cls-2{fill:#c8c8c8;}.cls-3{fill:#e0e0c6;}.cls-4{opacity:0.49;}.cls-5{clip-path:url(#clip-path);}.cls-6{opacity:0.25;}.cls-7,.cls-8{fill:#d9d9d9;}.cls-7{isolation:isolate;opacity:0.45;}</style><clipPath id="clip-path"><path class="cls-1" d="M9,9.17S45.3,3.75,62.82,6.76s106.13,7,130.65,4.5S257.05,7,260.05,5.85s93.11-5.91,117.14,0c0,0-10,22.43-7.51,47s4.5,151.17,2,172.2-8.13,51.56-5.81,61.07,7.81,30.29,7.81,30.29-89.1-7.76-107.62-7.26-157.54,3.5-171.63,3.5-41.58-1.87-42.85-.43-45.31-1.11-45.31-1.11,3-37,0-47.06,5.49-56.56,7-67.57,4-66.58,3.51-77.09S9.54,23.24,9.4,11.24"/></clipPath></defs><g id="Layer_2" data-name="Layer 2"><g id="Major_Frame" data-name="Major Frame"><path class="cls-2" d="M12.08,18.51s36.32-5.42,53.84-2.42,106.12,7,130.65,4.51,63.57-4.32,66.58-5.41,93.1-5.92,117.13,0c0,0-10,22.43-7.51,47s4.51,151.17,2,172.2-8.14,51.57-5.81,61,7.82,30.29,7.82,30.29-89.15-7.75-107.63-7.27S111.63,322,97.53,322s-41.59-1.87-42.86-.43-45.3-1.07-45.3-1.07,3-37,0-47.06,5.49-56.56,7-67.58,4-66.57,3.5-77.09S12.63,32.57,12.49,20.58"/><path class="cls-3" d="M9,9.17S45.3,3.75,62.82,6.76s106.13,7,130.65,4.5S257.05,7,260.05,5.85s93.11-5.91,117.14,0c0,0-10,22.43-7.51,47s4.5,151.17,2,172.2-8.13,51.56-5.81,61.07,7.81,30.29,7.81,30.29-89.1-7.76-107.62-7.26-157.54,3.5-171.63,3.5-41.58-1.87-42.85-.43-45.31-1.11-45.31-1.11,3-37,0-47.06,5.49-56.56,7-67.57,4-66.58,3.51-77.09S9.54,23.24,9.4,11.24"/><g class="cls-4"><g class="cls-5"><g class="cls-6"><polygon class="cls-7" points="-6.59 57.73 23.21 51.46 45.55 51.43 64.21 60.85 61.32 49.41 46.01 44.18 36.44 36 47.08 31.65 110.39 18.42 118.79 13.84 111.18 8.46 67.89 1.33 38.11 1.28 20.13 4.89 -43.68 4.74 -68.78 1.11 -193.61 10.92 -190.11 33.23 -176.73 39.23 -6.59 57.73 -6.59 57.73"/><polygon class="cls-8" points="20.13 4.89 38.11 1.28 43 -2.95 -9.32 -2.95 -68.78 1.11 -43.68 4.74 20.13 4.89 20.13 4.89"/><polygon class="cls-8" points="67.89 1.33 110.41 -2.95 43 -2.95 38.11 1.28 67.89 1.33 67.89 1.33"/><polygon class="cls-8" points="23.21 51.46 45.55 51.43 23.21 51.46 23.21 51.46"/><polygon class="cls-8" points="-2.8 195.61 -0.86 185.06 4.18 177.53 -7.04 175.82 -14.1 177.67 -32.21 172.68 -24.52 162.08 -22.36 151.57 -62.24 140.45 -144.37 161.17 -155.54 170.57 -114.25 167.76 -79.54 163.85 -28.89 189.36 -21.56 192.57 8.35 195.68 -2.8 195.61 -2.8 195.61 -2.8 195.61"/><polygon class="cls-8" points="134.03 291.41 146.07 280.21 116.31 280.27 62.69 287.99 -9.02 307.57 40.17 308.52 48.06 306.57 134.03 291.41 134.03 291.41"/><polygon class="cls-8" points="176.12 304.53 172.88 310.33 217.11 310.74 202.23 300.86 176.12 304.53 176.12 304.53"/><path class="cls-8" d="M-169.78,230.05l117.68,2.62,62.64.9H167.69l30.56-16.07L176,208.07h0l-37.37,9.54-34.92,8.21L4.63,224l-37.25,3.1-53.23-.28-97.39.46v2.69l13.43.17Zm325.87-5.26,2.15,1.15-.61,1-2.16-1.15.66-1.06Z"/><polygon class="cls-7" points="622.98 129.46 647.94 121.92 612.83 113.72 594.2 116.83 512.23 118.92 497.38 113.73 411.2 109.67 394.77 95.65 381.93 82.38 373.43 88.03 358.65 96.21 374.76 116.72 424.88 136.21 429.31 141.86 421.25 144.23 389.56 136.32 362.95 135.58 303.74 151.33 273.94 167 338.45 174.34 376.5 171.65 408.32 187.09 448.58 204.65 484.4 200.16 513.79 198.71 520.57 186.86 527.35 170.28 560.72 154.48 564.37 148.22 465.81 138.33 524.73 132.02 612.79 132.57 596.43 124.27 622.98 129.46 622.98 129.46"/><polygon class="cls-8" points="71.61 186.23 77.08 184.7 71.61 186.23 71.61 186.23"/><polygon class="cls-8" points="127.48 17.05 89.35 30.37 131.21 38.94 138.67 35.82 254.08 1.33 252.38 -2.95 166.82 -2.95 146.19 4.64 127.48 17.05 127.48 17.05"/><polygon class="cls-8" points="128.2 118.59 154.53 130.91 202.95 137.21 236.43 143.52 217.12 115.55 174.37 105.47 116.04 112.05 100.54 115.33 113.56 124.69 128.2 118.59 128.2 118.59"/><polygon class="cls-3" points="176 208.11 176 208.11 192.17 198.68 198.23 190.16 188.38 184.45 160.95 164.36 157.28 154.86 130.94 142.54 116.3 148.64 134.9 155.13 141.66 161.51 133.57 166.84 82.8 179.99 82.79 183.11 140.01 174.98 156.56 183.92 147.77 201.62 123.74 201.87 108.77 208.15 138.62 217.61 176 208.11 176 208.11"/><polygon class="cls-8" points="187.75 39.99 131.2 42.06 113.36 47.75 131.42 57.61 164.72 57.74 198.23 51.51 198.22 51.52 198.23 51.52 205.76 45.23 187.75 39.99 187.75 39.99"/><polygon class="cls-8" points="82.79 183.11 82.8 179.99 59.49 176.02 38.11 189.39 71.61 186.23 77.08 184.7 82.79 183.11 82.79 183.11"/><polygon class="cls-8" points="164.72 57.74 198.22 51.52 198.23 51.51 164.72 57.74 164.72 57.74"/><polygon class="cls-8" points="142.43 -1.77 142.35 -1.82 127.48 17.05 146.19 4.64 142.43 -1.77 142.43 -1.77"/><polygon class="cls-8" points="146.19 4.64 166.82 -2.95 148.86 -2.95 142.43 -1.77 146.19 4.64 146.19 4.64"/><polygon class="cls-8" points="426.05 281.51 450.18 274.93 514.78 264.61 484.6 262.25 425.37 255.21 373.26 255.39 318.08 278.87 305.16 280.13 227.67 269.56 218.61 269.11 157.27 270.86 157.28 274.01 196.3 271.63 211.04 275.53 216.81 277.17 254.07 289.7 303.57 303.29 320.52 310.8 456.95 311.18 458.68 311.42 436.36 300.87 426.05 281.51 426.05 281.51"/><polygon class="cls-8" points="283.88 220.69 250.28 223.9 228.91 223.2 202.02 220.67 240.67 233.46 336.02 233.27 380.71 233.27 306.23 217.58 283.88 220.69 283.88 220.69"/><polygon class="cls-8" points="216.81 277.17 206.45 279.98 204.52 296.26 227.36 310.82 285.39 311.15 254.07 289.7 216.81 277.17 216.81 277.17"/><polygon class="cls-8" points="211.04 275.53 216.81 277.17 211.04 275.53 211.04 275.53"/><polygon class="cls-8" points="206.45 279.98 216.81 277.17 211.04 275.53 196.3 271.63 157.28 274.01 146.08 280.21 146.07 280.21 134.03 291.41 48.06 306.57 40.17 308.52 172.88 310.33 176.12 304.53 202.23 300.86 217.11 310.74 227.36 310.82 204.52 296.26 206.45 279.98 206.45 279.98"/><polygon class="cls-8" points="158.24 225.94 156.09 224.79 155.43 225.85 157.59 227 158.24 225.94 158.24 225.94"/><polygon class="cls-8" points="261.58 1.3 265.99 -2.95 252.38 -2.95 254.08 1.33 261.58 1.3 261.58 1.3"/><polygon class="cls-8" points="371.84 209.69 391.89 208.18 377.04 202.99 295.07 205.07 371.84 209.69 371.84 209.69"/><polygon class="cls-8" points="304.91 9.8 246.67 4.47 215.25 24.82 277.3 44.25 298.79 38.94 306.2 32.65 340.35 1.74 319.21 -2.95 265.99 -2.95 261.58 1.3 304.91 9.8 304.91 9.8"/><polygon class="cls-8" points="211.18 16.82 246.67 4.47 304.91 9.8 261.58 1.3 254.08 1.33 138.67 35.82 211.18 16.82 211.18 16.82"/><polygon class="cls-8" points="300.58 104.09 304.91 115.84 321.14 136.09 336.02 120.43 315.29 107.68 300.58 104.09 300.58 104.09"/><polygon class="cls-8" points="346.86 157.01 224.09 156.47 175.68 150.18 179.35 159.68 346.86 157.01 346.86 157.01"/><polygon class="cls-8" points="254.07 289.7 285.39 311.15 298.61 311.18 320.52 310.8 303.57 303.29 254.07 289.7 254.07 289.7"/><polygon class="cls-8" points="283.88 220.69 306.23 217.58 283.88 220.69 283.88 220.69"/><polygon class="cls-8" points="306.2 32.65 326.28 39 365.45 26.46 373.69 4.42 340.35 1.74 306.2 32.65 306.2 32.65"/><polygon class="cls-8" points="332.5 145.62 333.43 146.64 335.87 145.43 334.91 144.35 332.5 145.62 332.5 145.62"/></g></g></g></g></g></svg>