<svg xmlns="http://www.w3.org/2000/svg" viewBox="0 0 260.7 72.57"><defs><style>.cls-1{fill:#445faa;}.cls-1,.cls-2{fill-rule:evenodd;}.cls-2{fill:#7289d9;}.cls-3{fill:#8aa4ed;}.cls-4{fill:#fff;}.cls-5{fill:#efda84;}</style></defs><g id="Layer_2" data-name="Layer 2"><g id="Discord_Button" data-name="Discord Button"><path class="cls-1" d="M0,43.68v8.47A20.41,20.41,0,0,0,20.41,72.57H240.29A20.41,20.41,0,0,0,260.7,52.15V43.68Z"/><path class="cls-2" d="M240.29,0H20.41A20.41,20.41,0,0,0,0,20.41V49H0V46.7A20.41,20.41,0,0,0,20.41,67.11H240.29A20.41,20.41,0,0,0,260.7,46.7V49h0V20.41A20.41,20.41,0,0,0,240.29,0Z"/><path class="cls-3" d="M260.7,45.78a20.41,20.41,0,0,1-20.41,20.41H20.41A20.41,20.41,0,0,1,0,45.79v.92a20.41,20.41,0,0,0,20.41,20.4H240.29A20.41,20.41,0,0,0,260.7,46.7Z"/><path class="cls-4" d="M89.41,46.18V20.48h8.28a12.51,12.51,0,0,1,4.8.9,11,11,0,0,1,3.77,2.53,11.67,11.67,0,0,1,2.46,3.9,13.62,13.62,0,0,1,.88,5v1.08a13.59,13.59,0,0,1-.88,5,11.48,11.48,0,0,1-2.46,3.88,11.29,11.29,0,0,1-3.75,2.53,12.29,12.29,0,0,1-4.75.9ZM95.6,25.26V41.41h2.16a4.8,4.8,0,0,0,4.09-1.9,9.22,9.22,0,0,0,1.43-5.63V32.76a9.17,9.17,0,0,0-1.43-5.61,4.89,4.89,0,0,0-4.16-1.89Z"/><path class="cls-4" d="M119.38,46.18H113.2V20.48h6.18Z"/><path class="cls-4" d="M136.94,39.35a3.37,3.37,0,0,0-.17-1.09,2.2,2.2,0,0,0-.66-.92,5.89,5.89,0,0,0-1.39-.85,17.61,17.61,0,0,0-2.34-.9c-1.13-.38-2.21-.8-3.26-1.27a12.76,12.76,0,0,1-2.79-1.68,7.8,7.8,0,0,1-2-2.27,6,6,0,0,1-.73-3,6.11,6.11,0,0,1,.74-3,6.72,6.72,0,0,1,2.06-2.26,10.09,10.09,0,0,1,3.14-1.45,14.45,14.45,0,0,1,3.94-.51,12.88,12.88,0,0,1,3.87.56,9.14,9.14,0,0,1,3,1.61,7.36,7.36,0,0,1,2,2.51,7.52,7.52,0,0,1,.71,3.29H137a3.83,3.83,0,0,0-.22-1.33,2.67,2.67,0,0,0-.67-1,3.25,3.25,0,0,0-1.11-.68,4.56,4.56,0,0,0-1.56-.25,5.14,5.14,0,0,0-1.55.21,3.18,3.18,0,0,0-1.12.56,2.42,2.42,0,0,0-.68.83,2.13,2.13,0,0,0-.23,1,1.83,1.83,0,0,0,.32,1.05,3.65,3.65,0,0,0,.94.88,7.81,7.81,0,0,0,1.48.78c.58.24,1.24.48,2,.71a26.94,26.94,0,0,1,3.65,1.45,11.06,11.06,0,0,1,2.71,1.82,6.92,6.92,0,0,1,1.68,2.31,7.13,7.13,0,0,1,.57,2.91,6.81,6.81,0,0,1-.68,3.08,6.26,6.26,0,0,1-1.92,2.27,9,9,0,0,1-3,1.39,14.85,14.85,0,0,1-3.91.48,15.47,15.47,0,0,1-2.63-.22,13.75,13.75,0,0,1-2.5-.68,11.15,11.15,0,0,1-2.22-1.16,7.44,7.44,0,0,1-1.78-1.67,7.76,7.76,0,0,1-1.19-2.2,8.48,8.48,0,0,1-.43-2.75h6.21a5.2,5.2,0,0,0,.3,1.89,3,3,0,0,0,.89,1.25,3.61,3.61,0,0,0,1.42.68,8.54,8.54,0,0,0,1.93.2,5.12,5.12,0,0,0,1.51-.2,3.15,3.15,0,0,0,1-.55,2.06,2.06,0,0,0,.59-.8A2.47,2.47,0,0,0,136.94,39.35Z"/><path class="cls-4" d="M167.1,37.47a9.66,9.66,0,0,1-.87,3.69A8.27,8.27,0,0,1,164.08,44a9.84,9.84,0,0,1-3.3,1.86,13.22,13.22,0,0,1-4.31.66,11.49,11.49,0,0,1-4.59-.87,9.26,9.26,0,0,1-3.43-2.48,10.92,10.92,0,0,1-2.13-3.93,17.27,17.27,0,0,1-.74-5.22V32.64a16.65,16.65,0,0,1,.77-5.22,11.24,11.24,0,0,1,2.19-3.94A9.77,9.77,0,0,1,152,21a11,11,0,0,1,4.44-.87,12.93,12.93,0,0,1,4.44.7,9.59,9.59,0,0,1,3.28,1.93,8.94,8.94,0,0,1,2.1,2.93,11.64,11.64,0,0,1,.93,3.69H161a7.17,7.17,0,0,0-.29-1.91,3.27,3.27,0,0,0-.8-1.38,3.43,3.43,0,0,0-1.39-.82A6.63,6.63,0,0,0,156.4,25a4.29,4.29,0,0,0-2,.43A3.41,3.41,0,0,0,153,26.73a6.84,6.84,0,0,0-.84,2.37,19.52,19.52,0,0,0-.27,3.5V34a21.82,21.82,0,0,0,.24,3.5,7.24,7.24,0,0,0,.79,2.37,3.27,3.27,0,0,0,1.41,1.35,4.91,4.91,0,0,0,2.14.43,4.76,4.76,0,0,0,3.27-1,4.3,4.3,0,0,0,1.2-3.2Z"/><path class="cls-4" d="M191.79,33.86a15.87,15.87,0,0,1-.83,5.29,11.53,11.53,0,0,1-2.32,4,10.28,10.28,0,0,1-3.55,2.52,11.44,11.44,0,0,1-4.51.87,11.65,11.65,0,0,1-4.56-.87,10.13,10.13,0,0,1-3.56-2.52,11.55,11.55,0,0,1-2.33-4,15.87,15.87,0,0,1-.83-5.29v-1a15.93,15.93,0,0,1,.83-5.3,11.38,11.38,0,0,1,2.31-4A10.18,10.18,0,0,1,176,21a11.48,11.48,0,0,1,4.56-.88,11.3,11.3,0,0,1,4.51.88,10.13,10.13,0,0,1,3.56,2.52,11.73,11.73,0,0,1,2.33,4,15.68,15.68,0,0,1,.84,5.3Zm-6.3-1.08A10.81,10.81,0,0,0,184.21,27a4.42,4.42,0,0,0-7.38,0,11.15,11.15,0,0,0-1.22,5.81v1.08a11,11,0,0,0,1.25,5.8,4.36,4.36,0,0,0,7.36,0,11,11,0,0,0,1.27-5.81Z"/><path class="cls-4" d="M204.53,37.1h-3.35v9.08H195V20.48H205.1a15.15,15.15,0,0,1,4,.5,9,9,0,0,1,3.07,1.48,6.57,6.57,0,0,1,1.95,2.43,7.87,7.87,0,0,1,.68,3.36,10,10,0,0,1-.32,2.63,6.61,6.61,0,0,1-.91,2,6.22,6.22,0,0,1-1.42,1.52,9.83,9.83,0,0,1-1.83,1.12l5.36,10.36v.27h-6.63Zm-3.35-4.78h3.92a3.17,3.17,0,0,0,3.54-3.51,3.61,3.61,0,0,0-.9-2.6,3.48,3.48,0,0,0-2.64-.95h-3.92Z"/><path class="cls-4" d="M218.56,46.18V20.48h8.28a12.51,12.51,0,0,1,4.8.9,11,11,0,0,1,3.77,2.53,11.67,11.67,0,0,1,2.46,3.9,13.62,13.62,0,0,1,.88,5v1.08a13.59,13.59,0,0,1-.88,5,11.48,11.48,0,0,1-2.46,3.88,11.29,11.29,0,0,1-3.75,2.53,12.29,12.29,0,0,1-4.75.9Zm6.2-20.92V41.41h2.15a4.79,4.79,0,0,0,4.09-1.9,9.22,9.22,0,0,0,1.43-5.63V32.76A9.17,9.17,0,0,0,231,27.15a4.89,4.89,0,0,0-4.16-1.89Z"/><path class="cls-4" d="M63.91,48.52c.37,1.32.64,2.38,1,3.41.27.82.05,1.12-.83,1.12-9.27,0-18.55,0-27.82,0a5.17,5.17,0,0,1-5.18-4.86c0-.38,0-.78,0-1.17V14.48c0-4.07,2.07-6.14,6.13-6.14h33A5.29,5.29,0,0,1,75.7,14q0,21.83,0,43.64c0,.32,0,.64-.06,1l-.26.21ZM57.59,20.24l0,.31,5,2.38-.12.3a20.93,20.93,0,0,0-9.26-2,21.93,21.93,0,0,0-9.33,2.14l-.13-.32,5.65-2.68c-1.84-.39-6.32,1.35-7.24,2.74,0,.08-.09.17-.14.26a33.05,33.05,0,0,0-3.36,13.44,2.44,2.44,0,0,0,.6,1.55,8.94,8.94,0,0,0,5.38,2.92c1.8.32,2.43,0,3.24-1.89-.68-.35-1.4-.66-2-1.07s-1.15-.89-1.72-1.33l.13-.2c6.32,3.31,12.62,3.39,18.92-.12l.15.33-4.21,2.6c.73.62.92,1.89,2.21,1.78a9.11,9.11,0,0,0,6.39-3,2.92,2.92,0,0,0,.66-1.81A39.25,39.25,0,0,0,66.22,26c-1-3.17-3.14-4.7-6.11-5.47-.54-.13-1.08-.24-1.63-.32A6.59,6.59,0,0,0,57.59,20.24Z"/><path class="cls-4" d="M51.31,32.42a2.56,2.56,0,1,1-2.52-2.78A2.64,2.64,0,0,1,51.31,32.42Z"/><path class="cls-4" d="M58.05,29.64a2.79,2.79,0,1,1-2.57,2.77A2.69,2.69,0,0,1,58.05,29.64Z"/><rect class="cls-5" y="48.08" height="0.92"/><rect class="cls-5" x="260.7" y="48.08" height="0.92"/></g></g></svg>