<svg xmlns="http://www.w3.org/2000/svg" xmlns:xlink="http://www.w3.org/1999/xlink" viewBox="0 0 100.9 97.88"><defs><style>.cls-1,.cls-4{opacity:0.15;isolation:isolate;}.cls-1{fill:url(#linear-gradient);}.cls-2{fill:#bc8600;}.cls-3{fill:#e5b900;}.cls-4{fill:url(#linear-gradient-2);}.cls-5{fill:#e5c74a;}.cls-6{fill:#fff;}.cls-7{fill:#b7ac95;}</style><linearGradient id="linear-gradient" x1="8.41" y1="1881.84" x2="-29.09" y2="1827.66" gradientTransform="matrix(-1, 0, 0, 1, 19.81, -1780)" gradientUnits="userSpaceOnUse"><stop offset="0" stop-opacity="0"/><stop offset="1"/></linearGradient><linearGradient id="linear-gradient-2" x1="-25.03" y1="1836.12" x2="-34.89" y2="1824.13" xlink:href="#linear-gradient"/></defs><g id="Layer_2" data-name="Layer 2"><g id="Left_Arrow_button" data-name="Left Arrow button"><g id="Layer_2-2" data-name="Layer 2"><g id="Layer_2-2-2" data-name="Layer 2-2"><path class="cls-1" d="M21.2,3.6,25,1.8v44h75.9V60.6c0,4.5-2.4,9.8-6.2,14.6A37.57,37.57,0,0,1,71.3,88.6l-50,8.3C4.2,99.9,0,95.9,0,86.8V30.3C-.1,21.2,9.5,9.3,21.2,3.6Z"/><path class="cls-2" d="M84.4,0H39.3A16.52,16.52,0,0,0,22.8,16.5V61.6A16.52,16.52,0,0,0,39.3,78.1H84.4a16.52,16.52,0,0,0,16.5-16.5V16.5A16.52,16.52,0,0,0,84.4,0Z"/><path class="cls-3" d="M77.8,0H32.7A16.52,16.52,0,0,0,16.2,16.5V61.6A16.52,16.52,0,0,0,32.7,78.1H77.8A16.52,16.52,0,0,0,94.3,61.6V16.5A16.52,16.52,0,0,0,77.8,0Z"/><path class="cls-4" d="M53.9,65.2l15.3-4.7L34,40.2l-5.2,2a2.8,2.8,0,0,0-1.6,3.7,2.73,2.73,0,0,0,.9,1.2L51.4,64.7A3.12,3.12,0,0,0,53.9,65.2Z"/><path class="cls-5" d="M93.7,61.6V16.5A16.52,16.52,0,0,0,77.2,0h.6A16.52,16.52,0,0,1,94.3,16.5h0V61.6A16.52,16.52,0,0,1,77.8,78.1h-.6A16.52,16.52,0,0,0,93.7,61.6Z"/><polygon class="cls-6" points="34 40.1 66.5 60.4 66.5 40.1 66.5 19.8 34 40.1"/><path class="cls-5" d="M66.2,19.9l.3-.2V60.3l-.3-.2Q66.5,40.3,66.2,19.9Z"/><polygon class="cls-7" points="66.5 19.8 69.2 19.8 69.2 40.1 69.2 60.4 66.5 60.4 66.5 19.8"/></g></g></g></g></svg>