<svg xmlns="http://www.w3.org/2000/svg" viewBox="0 0 622.45 202.69"><defs><style>.cls-1{isolation:isolate;}.cls-2{fill:#a85272;fill-rule:evenodd;opacity:0.2;mix-blend-mode:multiply;}.cls-3{fill:#3647c6;}.cls-4{fill:#fff;}</style></defs><g class="cls-1"><g id="Layer_2" data-name="Layer 2"><g id="Layer_26" data-name="Layer 26"><path class="cls-2" d="M30.58,187.8C41.26,206,563.4,214.86,611.49,170.15c-3.48-1.4-74.79-29.38-138.28-32s-167.77,10.11-172.59,11.52,42.95,6.8,42.95,6.8-80.8,4.5-140.81,4.85c0,0,70.44-7.41,72.18-10.23C243.89,142.32,55.1,154.19,30.58,187.8Z"/><rect class="cls-3" width="622.45" height="176.62" rx="88.31"/><path class="cls-4" d="M202.45,101.06v52.48c0,1.13,0,2.27,0,3.39-.06.92-.53,1-1.23.44-4.18-3.52-8.46-7-12.55-10.58-4.71-4.18-9.26-8.53-13.88-12.81-.12-.11-.23-.29-.37-.32-.55-.12-1.12-.2-1.68-.29a4.1,4.1,0,0,0-.06,1.3,71.53,71.53,0,0,0,2,6.89c.64,1.68-.05,2-1.46,2.05-1,0-1.95,0-2.93,0-22.42,0-44.85-.18-67.28.11-7.27.09-13.68-5.07-13.67-13.57,0-28.66.09-57.33,0-86,0-6.2,6.19-12.41,12.39-12.38,29.09.12,58.18,0,87.27.07,7.07,0,11,3.21,12.56,10.11a34.31,34.31,0,0,1,.93,7.11C202.48,66.41,202.45,83.74,202.45,101.06Zm-94.92-.7a10.24,10.24,0,0,0,2.73,7.49c4.2,4.68,9.77,6,15.36,7.47a3.24,3.24,0,0,0,2.69-.56,49.73,49.73,0,0,0,3.75-5l-4.4-2.45a4.31,4.31,0,0,1-.83-.49c-.63-.57-1.23-1.17-1.83-1.75l2.16.56c4.94,1.32,9.82,3.2,14.85,3.8,5.55.66,11.29.59,16.7-1.69a56.76,56.76,0,0,1,5.91-2c.38-.11.88.22,1.32.34-.26.37-.45.92-.82,1.08-1.45.67-3,1.15-4.43,1.87-.35.18-.68,1.29-.49,1.49,1.42,1.56,2.76,3.39,4.55,4.31,1.14.59,3-.16,4.54-.45a29.9,29.9,0,0,0,10.51-4.67A8.27,8.27,0,0,0,184,102.2c0-9.43-2.33-18.36-5.7-27.07-1-2.51-1.92-5.26-3.66-7.22-3.77-4.25-9.09-5.89-14.55-6.85-1.31-.22-2.76.38-4.15.59.13,2.24,2.44,1,3.39,2.07.54.63,1.77.63,2.66,1a4.08,4.08,0,0,1,.93.8,3.91,3.91,0,0,1-1.36.22c-4.54-.9-9-2.22-13.62-2.7-5.47-.56-10.84,1-16.21,1.88-1.23.21-2.44.46-3.66.7a19.34,19.34,0,0,0,3.35-1.84c1.28-1.08,3.73-.08,4.21-2.44-1.75-.08-3.51-.21-5.27-.23a3.74,3.74,0,0,0-1.33.54c-3,1.31-5.87,2.67-8.84,3.91a8.25,8.25,0,0,0-4,4c-2.92,5.23-4.59,11-6.18,16.63C108.71,90.81,108.32,95.64,107.53,100.36Z"/><path class="cls-4" d="M441.48,109.4c0-8.09,0-16.18,0-24.28,0-2.6.1-2.68,2.8-2.7,6.17,0,12.35-.15,18.51,0a40.51,40.51,0,0,1,8.54,1.27c6.15,1.55,9.86,5.51,11.36,11.73,1.2,5,1.16,9.84-1,14.57-1.57,3.43-3.45,6.53-7.48,7.61-1,.27-1.54,1-.6,2.17,2.33,2.86,4.57,5.8,6.83,8.72,1.66,2.15,3.34,4.3,4.94,6.5.67.92.88,1.8-.8,1.79-4.22,0-8.45.06-12.67-.06a3.56,3.56,0,0,1-2.26-1.3c-3.54-4.57-7-9.2-10.46-13.83-.39-.51-.56-1.28-1.05-1.57a3.58,3.58,0,0,0-2.2-.47c-.35.06-.77,1-.78,1.55-.07,3.56,0,7.12-.05,10.68,0,5.45.53,5-4.91,5q-1.95,0-3.9,0c-5.19,0-4.82.44-4.82-4.59Q441.47,120.82,441.48,109.4ZM460.75,95c-6.4.08-5.6-.8-5.63,5.73,0,8.73.13,8.86,8.81,7.88a7.77,7.77,0,0,0,1-.09c3.58-.85,6.49-4.87,5.72-7.89A7.77,7.77,0,0,0,463.18,95Z"/><path class="cls-4" d="M388.79,109.77c0-3.57.27-7.15-.06-10.69-.68-7.37,5.36-12.89,10.41-14.69,3.44-1.23,7.07-2.45,10.66-2.59a28,28,0,0,1,13.9,3.07c3.58,1.85,6.88,4.42,8.1,8.59a37,37,0,0,1,1.76,8.38c.28,5.49.31,11,0,16.51-.54,10.78-5.12,16-15,18.47-8.3,2.05-16.21,1.58-23.51-3.63a13.89,13.89,0,0,1-6.24-11.28C388.66,117.87,388.79,113.82,388.79,109.77Zm31.23.29c0-2.91-.19-5.83.05-8.72s-1.23-4.66-3.34-6c-3.39-2.07-7.14-1.94-10.69-.59a6.52,6.52,0,0,0-4.65,7c.28,5.47.1,11,.06,16.46a6.44,6.44,0,0,0,2.34,5.55c3.66,2.79,10.81,2.55,14.45-.37a4.37,4.37,0,0,0,1.8-3.75C420,116.52,420,113.29,420,110.06Z"/><path class="cls-4" d="M533.15,110.05c0,3.72-.06,7.45,0,11.17a12.75,12.75,0,0,1-1.26,5.58c-3.09,7.1-9,9.75-16.17,10-7,.22-14,0-21,.07-1.83,0-2.73-.55-2.61-2.49.19-2.87.28-5.75.41-8.63,2.7-.19,5.4-.48,8.11-.54,3.89-.1,7.8,0,11.69,0,5.18-.1,8-3,8.08-8.18.06-4.53,0-9.06,0-13.6-.07-5.49-2.9-8.36-8.24-8.34-2.25,0-4.49.22-6.74.33-.21,2.36-.54,4.72-.6,7.09-.1,4,0,8.09-.05,12.14a5.75,5.75,0,0,1-.35,1.37,6.19,6.19,0,0,1-1.21-.68c-2.92-2.54-5.77-5.15-8.72-7.66a6.38,6.38,0,0,1-2.42-5.47c.16-5.82.09-11.66,0-17.48,0-1.68.67-2.29,2.31-2.28,5.85,0,11.75-.45,17.54.15,5.16.54,10.49.92,15,4.5,3.81,3,6,6.59,6.11,11.35C533.24,102.28,533.15,106.16,533.15,110.05Z"/><path class="cls-4" d="M268.8,110.28c0,3.24-.21,6.5,0,9.72.64,8.45-8.27,17-17,16.85-7.15-.15-14.3-.06-21.46,0-1.84,0-2.7-.6-2.57-2.51.18-2.88.28-5.76.42-8.63,2.7-.18,5.41-.46,8.12-.53,3.73-.09,7.47,0,11.21,0,5.77-.06,8.49-2.84,8.53-8.7,0-4.37.06-8.75,0-13.12-.07-5.48-2.9-8.32-8.28-8.29-2.24,0-4.49.23-6.73.35-.2,2.37-.51,4.73-.57,7.1-.09,4.05,0,8.1,0,12.15,0,1.6-.63,1.56-1.65.63-3.34-3-6.75-6-10-9.13a3.94,3.94,0,0,1-1-2.6c-.07-6.31,0-12.63-.06-19,0-1.74.82-2.21,2.39-2.2,5.85,0,11.75-.45,17.54.16,4.83.51,9.76,1,14.19,4,4.7,3.17,6.31,7.57,6.79,12.61C269.08,102.81,268.8,106.56,268.8,110.28Z"/><path class="cls-4" d="M337.08,120.84c.71,7.67-4.24,12.87-12,15.55-9.85,3.4-18.75,1.3-26.22-6.1-1.83-1.81-1.82-1.89.26-3.69,1.82-1.59,3.74-3,5.57-4.62,1-.82,1.68-.53,2.55.15,2.32,1.82,5.17,2.42,7.87,3.44s4.84.09,6.94-.81a3.59,3.59,0,0,0,.57-6.57,19,19,0,0,0-7.14-2.65,29.65,29.65,0,0,1-11.17-4.4,12.59,12.59,0,0,1-5.67-8.11c-2-8.19.52-15.54,8.51-18.73,3.24-1.29,6.83-2.89,10.12-2.63,6,.48,12.2,1.62,16.56,6.69,1.53,1.77,1.54,2.38-.34,3.89-1,.8-2.16,1.41-3.14,2.23-2.83,2.39-2.7,2.23-5.72.39s-6.18-3.65-9.85-1.81c-1.88,1-3.78,2.18-3.93,4.54-.13,2.19,2.21,4.42,5.07,5.15s5.59,1.41,8.41,2a20.71,20.71,0,0,1,9.61,5.3c2.19,2,2.82,5,3.13,7.9A25.67,25.67,0,0,1,337.08,120.84Z"/><path class="cls-4" d="M343,109.44c0-3.72-.09-7.44,0-11.16a17,17,0,0,1,.92-4.16c2.23-7.33,8.44-9.77,14.9-11.61a19.37,19.37,0,0,1,16.92,2.77c2.44,1.69,4.36,4.16,6.41,6.38,1.14,1.23.75,2.45-.7,3.13a53.7,53.7,0,0,1-7.13,2.93c-.81.24-2-.58-2.95-1.1C368.09,94.8,365,93,360.92,94.74c-3.69,1.57-5.21,3.07-5.28,7-.08,5,.07,10-.05,15a8.45,8.45,0,0,0,4.88,8.23c3.79,2,7.48.66,10.1-2,1.65-1.67,2.51-1.88,4.38-.91,2.42,1.25,5,2.17,7.5,3.3,1.05.48,1.21,1.06.48,2.22a20.57,20.57,0,0,1-18,10.15,24.48,24.48,0,0,1-15-4.18A15.75,15.75,0,0,1,343,121.08C342.73,117.22,343,113.32,343,109.44Z"/><path class="cls-4" d="M277.58,109.33c0-7.92,0-15.84,0-23.76,0-3,.08-3.14,2.83-3.14,3.06,0,6.12.18,9.18.28.22,3,.6,6,.62,9,.07,13.25,0,26.51,0,39.76,0,1.14,0,2.27,0,3.4,0,1.46-.73,2-2.11,1.95-2.76,0-5.52,0-8.27,0-1.66,0-2.32-.64-2.3-2.29.06-3.88,0-7.76,0-11.64Z"/><path class="cls-4" d="M388,45.45c8.2-.93,13.44,7,13.55,13.13s-6.14,13.54-14.1,13.36c-6.31-.14-13.34-6.47-13.3-13.16C374.14,52.69,379.22,44.43,388,45.45Zm-.16,21.4c4.71,0,9-4.37,8.78-9-.17-3.59-4.62-7.55-8.52-7.59-4.48,0-9.2,4.17-9,8.05A9.08,9.08,0,0,0,387.8,66.85Z"/><path class="cls-4" d="M256.88,71.69c-6.3,1.54-13.59-6.92-13.32-13.11s4.61-13.58,13.59-13.2c8,.34,13.48,5.16,13.61,12.57C270.91,66.28,264.78,72.48,256.88,71.69Zm.87-21.4c-4.85,0-9.37,3.83-9.26,7.94a9.05,9.05,0,0,0,8.59,8.69c3.91.25,8.79-4.43,8.82-8.09C265.94,54.76,261.81,50.33,257.75,50.29Z"/><path class="cls-4" d="M283.44,58.28c0-3.39,0-6.78,0-10.17a11.49,11.49,0,0,1,.46-2.2,14.28,14.28,0,0,1,1.54,1.1c3.93,3.57,7.83,7.17,11.78,10.72a10.48,10.48,0,0,0,2,1.09,7.18,7.18,0,0,0,.74-2.09c.08-3.23,0-6.46.07-9.69,0-1.61,1.28-1.58,2.44-1.58s2.36.06,2.36,1.67q0,11.61,0,23.24c0,.88-.49,1.14-1.19.5s-1.61-1.6-2.44-2.36q-5.7-5.2-11.43-10.38a3.52,3.52,0,0,0-1.18-.43,7.54,7.54,0,0,0-.29,1.38c0,3.39,0,6.78,0,10.17,0,2.22-.41,2.42-2.56,2.46-1.67,0-2.32-.64-2.29-2.29.06-3.71,0-7.43,0-11.14Z"/><path class="cls-4" d="M404.43,58.16c0-3.73,0-7.46,0-11.18a3.71,3.71,0,0,1,.24-.91c.4.13.89.14,1.17.4,4.53,4.14,9,8.31,13.56,12.46a5.11,5.11,0,0,0,1.21.62,5.75,5.75,0,0,0,.35-1.37c0-3.4,0-6.8,0-10.2.05-2.29.39-2.5,2.51-2.54,1.61,0,2.35.53,2.34,2.24-.05,7.13,0,14.26-.05,21.38,0,.44-.29,1.24-.49,1.25a2.45,2.45,0,0,1-1.68-.44c-2.13-2-4.12-4.13-6.27-6.11-1.65-1.53-3.44-2.91-5.21-4.3-.81-.64-1.73-1.17-2.59-1.75-.1,1.11-.27,2.22-.29,3.33,0,2.92,0,5.83,0,8.75,0,1.93-1.28,1.89-2.65,1.91s-2.2-.36-2.19-1.88C404.44,65.93,404.43,62,404.43,58.16Z"/><path class="cls-4" d="M319.55,55.54c0-2.74,0-5.49,0-8.24,0-1.54.91-1.86,2.22-1.85s2.64,0,2.63,1.92c0,4.53.15,9.07-.06,13.59-.12,2.74,1.41,4.3,3.34,5.45s4.19.48,5.93-.79c2.12-1.54,2.44-4,2.49-6.46.08-3.72,0-7.44,0-11.16a2.59,2.59,0,0,1,3.92-2.38,1.53,1.53,0,0,1,.79,1.06c-.15,6.24,1.22,12.62-1.1,18.69-2.81,7.37-12.77,9-18,3.14a7.87,7.87,0,0,1-2.21-5.69c.08-2.42,0-4.85,0-7.28Z"/><path class="cls-4" d="M353.84,71.7c-4.75,0-7.86-2.13-8.8-5.61-.27-1-.06-1.93,1.27-2.11a5.23,5.23,0,0,1,4.81,1.66,3.32,3.32,0,0,0,2.91.84c.76-.32,1.34-1.67,1.52-2.66.26-1.45-.66-2.32-2.08-2.8A28.47,28.47,0,0,1,348.58,59c-6.43-3.65-3.7-10.35.4-13,3.27-2.12,9.53-.16,10.87,3.28a5,5,0,0,1,0,3.54c-.44,1-3.08.5-4.22-.56-.58-.54-1-1.41-1.68-1.64-1.2-.41-2.46-.6-3.34.94-.73,1.31-1.1,2.47.31,3.35a30.17,30.17,0,0,0,4.69,2.34c3.61,1.45,4.79,3,4.87,6.88.06,2.94-2,6.42-4.48,7.36A7.35,7.35,0,0,1,353.84,71.7Z"/><path class="cls-4" d="M239.52,55c0,2.43.09,4.86,0,7.28-.21,4.65-5,9.42-9.41,9.4-1,0-2.13,0-2.15-1.32s-.79-2.84,1.39-3.53c4.13-1.3,5.23-2.78,5.31-6.8s0-8.08,0-12.12c0-2.24.41-2.43,2.56-2.47,1.66,0,2.34.63,2.29,2.29C239.47,50.15,239.52,52.58,239.52,55Z"/><path class="cls-4" d="M273.7,58.57c0-3.54-.05-7.09,0-10.64,0-2.25.4-2.45,2.53-2.49,1.62,0,2.33.56,2.32,2.25q-.07,10.88,0,21.77c0,1.68-.7,2.28-2.32,2.25-2.13,0-2.48-.24-2.53-2.49C273.65,65.67,273.7,62.12,273.7,58.57Z"/><path class="cls-4" d="M140,92c.05,3.6-3.17,7-6.46,6.9-2.82-.12-6-3.77-6.14-7-.11-2.62,3.43-6.4,6.06-6.48C137.39,85.2,140,87.82,140,92Z"/><path class="cls-4" d="M163.45,91.14c0,4.74-1.37,6.63-5.06,7.37a5.44,5.44,0,0,1-6.62-5.07c-.08-2.52-.61-5.24,2.27-6.86,2.06-1.16,4-1.75,6.34-.41S163.88,89,163.45,91.14Z"/></g></g></g></svg>