<svg xmlns="http://www.w3.org/2000/svg" xmlns:xlink="http://www.w3.org/1999/xlink" viewBox="0 0 1928.6 239.38"><defs><style>.cls-1{fill:none;clip-rule:evenodd;}.cls-2{isolation:isolate;}.cls-3{fill:#35256b;}.cls-10,.cls-100,.cls-101,.cls-102,.cls-103,.cls-104,.cls-105,.cls-106,.cls-107,.cls-108,.cls-109,.cls-11,.cls-110,.cls-111,.cls-112,.cls-113,.cls-114,.cls-115,.cls-116,.cls-117,.cls-118,.cls-119,.cls-12,.cls-120,.cls-121,.cls-122,.cls-123,.cls-124,.cls-125,.cls-126,.cls-127,.cls-128,.cls-129,.cls-13,.cls-130,.cls-131,.cls-132,.cls-133,.cls-134,.cls-135,.cls-136,.cls-137,.cls-138,.cls-139,.cls-14,.cls-140,.cls-141,.cls-142,.cls-143,.cls-144,.cls-145,.cls-146,.cls-147,.cls-148,.cls-149,.cls-15,.cls-150,.cls-151,.cls-152,.cls-153,.cls-154,.cls-155,.cls-156,.cls-157,.cls-158,.cls-16,.cls-160,.cls-161,.cls-162,.cls-17,.cls-18,.cls-19,.cls-3,.cls-36,.cls-37,.cls-38,.cls-39,.cls-4,.cls-40,.cls-43,.cls-44,.cls-46,.cls-47,.cls-48,.cls-49,.cls-5,.cls-50,.cls-51,.cls-52,.cls-53,.cls-55,.cls-56,.cls-57,.cls-58,.cls-59,.cls-6,.cls-60,.cls-61,.cls-62,.cls-63,.cls-64,.cls-66,.cls-67,.cls-68,.cls-7,.cls-70,.cls-71,.cls-72,.cls-73,.cls-74,.cls-75,.cls-76,.cls-78,.cls-79,.cls-8,.cls-80,.cls-81,.cls-83,.cls-84,.cls-85,.cls-86,.cls-87,.cls-88,.cls-89,.cls-9,.cls-90,.cls-91,.cls-92,.cls-93,.cls-95,.cls-96,.cls-98,.cls-99{fill-rule:evenodd;}.cls-4{fill:#772442;}.cls-10,.cls-4{opacity:0.3;}.cls-10,.cls-15,.cls-16,.cls-162,.cls-17,.cls-18,.cls-19,.cls-20,.cls-4,.cls-65,.cls-77,.cls-87,.cls-94{mix-blend-mode:multiply;}.cls-5{fill:#72242c;}.cls-6{fill:url(#Áåçûìÿííûé_ãðàäèåíò_69);}.cls-7{fill:url(#Áåçûìÿííûé_ãðàäèåíò_69-2);}.cls-8{fill:url(#Áåçûìÿííûé_ãðàäèåíò_200);}.cls-9{fill:url(#Áåçûìÿííûé_ãðàäèåíò_101);}.cls-10{fill:#a12442;}.cls-11{fill:url(#Áåçûìÿííûé_ãðàäèåíò_101-2);}.cls-12{fill:url(#Áåçûìÿííûé_ãðàäèåíò_101-3);}.cls-13{fill:url(#Áåçûìÿííûé_ãðàäèåíò_91);}.cls-14{fill:url(#_145);}.cls-15,.cls-16,.cls-17,.cls-18,.cls-19{opacity:0.5;}.cls-15{fill:url(#Áåçûìÿííûé_ãðàäèåíò_181);}.cls-16{fill:url(#Áåçûìÿííûé_ãðàäèåíò_181-2);}.cls-17{fill:url(#Áåçûìÿííûé_ãðàäèåíò_181-3);}.cls-18{fill:url(#Áåçûìÿííûé_ãðàäèåíò_181-4);}.cls-19{fill:url(#Áåçûìÿííûé_ãðàäèåíò_181-5);}.cls-20{opacity:0.4;}.cls-21{fill:url(#_1012);}.cls-22{fill:url(#_1012-2);}.cls-23{fill:url(#_1012-3);}.cls-24{fill:url(#_1012-4);}.cls-25{fill:url(#_1012-5);}.cls-26{fill:url(#_1012-6);}.cls-27{fill:url(#_1012-7);}.cls-28{fill:url(#_1012-8);}.cls-29{fill:url(#_1012-9);}.cls-30{fill:url(#_1012-10);}.cls-31{fill:url(#_1012-11);}.cls-32{fill:url(#_1012-12);}.cls-33{fill:url(#_1012-13);}.cls-34{fill:url(#_1012-14);}.cls-35{clip-path:url(#clip-path);}.cls-36{fill:#5a73ba;}.cls-37{fill:#6a7492;}.cls-38{fill:#65648a;}.cls-39{fill:#838ba4;}.cls-40{fill:#58627a;opacity:0.45;}.cls-41{fill:#727d9b;}.cls-42{fill:#9ea4b8;}.cls-43{fill:#5d4063;}.cls-44{fill:url(#linear-gradient);}.cls-45{clip-path:url(#clip-path-2);}.cls-46{fill:url(#linear-gradient-2);}.cls-47{fill:#492035;opacity:0.35;}.cls-48{fill:url(#linear-gradient-3);}.cls-49{fill:url(#Áåçûìÿííûé_ãðàäèåíò_6);}.cls-50{fill:url(#linear-gradient-4);}.cls-51{fill:#e09a86;}.cls-52{fill:#a0675a;}.cls-53{fill:url(#linear-gradient-5);}.cls-54{opacity:0.75;}.cls-100,.cls-101,.cls-102,.cls-103,.cls-104,.cls-105,.cls-106,.cls-107,.cls-108,.cls-109,.cls-110,.cls-111,.cls-112,.cls-113,.cls-114,.cls-115,.cls-116,.cls-117,.cls-118,.cls-119,.cls-120,.cls-121,.cls-122,.cls-123,.cls-124,.cls-125,.cls-126,.cls-127,.cls-128,.cls-129,.cls-55,.cls-56,.cls-57,.cls-58,.cls-59,.cls-60,.cls-61,.cls-62,.cls-63,.cls-64,.cls-97{opacity:0.19;}.cls-55{fill:url(#Áåçûìÿííûé_ãðàäèåíò_177);}.cls-56{fill:url(#Áåçûìÿííûé_ãðàäèåíò_177-2);}.cls-57{fill:url(#Áåçûìÿííûé_ãðàäèåíò_177-3);}.cls-58{fill:url(#Áåçûìÿííûé_ãðàäèåíò_177-4);}.cls-59{fill:url(#Áåçûìÿííûé_ãðàäèåíò_177-5);}.cls-60{fill:url(#Áåçûìÿííûé_ãðàäèåíò_177-6);}.cls-61{fill:url(#Áåçûìÿííûé_ãðàäèåíò_177-7);}.cls-62{fill:url(#Áåçûìÿííûé_ãðàäèåíò_177-8);}.cls-63{fill:url(#Áåçûìÿííûé_ãðàäèåíò_177-9);}.cls-64{fill:url(#Áåçûìÿííûé_ãðàäèåíò_177-10);}.cls-65{opacity:0.49;}.cls-66{fill:url(#Áåçûìÿííûé_ãðàäèåíò_297);}.cls-67{fill:url(#Áåçûìÿííûé_ãðàäèåíò_297-2);}.cls-68{fill:url(#linear-gradient-6);}.cls-69{opacity:0.72;}.cls-70{fill:#6f3443;}.cls-71{fill:#a56a57;}.cls-72{fill:url(#Áåçûìÿííûé_ãðàäèåíò_241);}.cls-73{fill:url(#Áåçûìÿííûé_ãðàäèåíò_223);}.cls-74{fill:url(#Áåçûìÿííûé_ãðàäèåíò_223-2);}.cls-75{fill:url(#Áåçûìÿííûé_ãðàäèåíò_241-2);}.cls-76{fill:url(#linear-gradient-7);}.cls-78{fill:url(#Áåçûìÿííûé_ãðàäèåíò_297-3);}.cls-79{fill:url(#Áåçûìÿííûé_ãðàäèåíò_297-4);}.cls-80{fill:url(#linear-gradient-8);}.cls-81{fill:url(#linear-gradient-9);}.cls-82{opacity:0.46;}.cls-83{fill:#8f514e;}.cls-84{fill:url(#Áåçûìÿííûé_ãðàäèåíò_241-3);}.cls-85{fill:#5b2b6b;}.cls-86{fill:url(#linear-gradient-10);}.cls-162,.cls-87,.cls-90,.cls-91{opacity:0.71;}.cls-87{fill:url(#Áåçûìÿííûé_ãðàäèåíò_241-4);}.cls-88,.cls-90,.cls-91{mix-blend-mode:screen;}.cls-88{fill:url(#Áåçûìÿííûé_ãðàäèåíò_157);}.cls-89{fill:#401851;}.cls-90{fill:url(#Áåçûìÿííûé_ãðàäèåíò_241-5);}.cls-91{fill:url(#Áåçûìÿííûé_ãðàäèåíò_241-6);}.cls-92{fill:#9a5646;}.cls-93{fill:url(#linear-gradient-11);}.cls-94{opacity:0.42;}.cls-95{fill:url(#Áåçûìÿííûé_ãðàäèåíò_297-5);}.cls-96{fill:url(#linear-gradient-12);}.cls-98{fill:url(#Áåçûìÿííûé_ãðàäèåíò_177-11);}.cls-99{fill:#a4604c;}.cls-100{fill:url(#Áåçûìÿííûé_ãðàäèåíò_177-12);}.cls-101{fill:url(#Áåçûìÿííûé_ãðàäèåíò_177-13);}.cls-102{fill:url(#Áåçûìÿííûé_ãðàäèåíò_177-14);}.cls-103{fill:url(#Áåçûìÿííûé_ãðàäèåíò_177-15);}.cls-104{fill:url(#Áåçûìÿííûé_ãðàäèåíò_177-16);}.cls-105{fill:url(#Áåçûìÿííûé_ãðàäèåíò_177-17);}.cls-106{fill:url(#Áåçûìÿííûé_ãðàäèåíò_177-18);}.cls-107{fill:url(#Áåçûìÿííûé_ãðàäèåíò_177-19);}.cls-108{fill:url(#Áåçûìÿííûé_ãðàäèåíò_177-20);}.cls-109{fill:url(#Áåçûìÿííûé_ãðàäèåíò_177-21);}.cls-110{fill:url(#Áåçûìÿííûé_ãðàäèåíò_177-22);}.cls-111{fill:url(#Áåçûìÿííûé_ãðàäèåíò_177-23);}.cls-112{fill:url(#Áåçûìÿííûé_ãðàäèåíò_177-24);}.cls-113{fill:url(#Áåçûìÿííûé_ãðàäèåíò_177-25);}.cls-114{fill:url(#Áåçûìÿííûé_ãðàäèåíò_177-26);}.cls-115{fill:url(#Áåçûìÿííûé_ãðàäèåíò_177-27);}.cls-116{fill:url(#Áåçûìÿííûé_ãðàäèåíò_177-28);}.cls-117{fill:url(#Áåçûìÿííûé_ãðàäèåíò_177-29);}.cls-118{fill:url(#Áåçûìÿííûé_ãðàäèåíò_177-30);}.cls-119{fill:url(#Áåçûìÿííûé_ãðàäèåíò_177-31);}.cls-120{fill:url(#Áåçûìÿííûé_ãðàäèåíò_177-32);}.cls-121{fill:url(#Áåçûìÿííûé_ãðàäèåíò_177-33);}.cls-122{fill:url(#Áåçûìÿííûé_ãðàäèåíò_177-34);}.cls-123{fill:url(#Áåçûìÿííûé_ãðàäèåíò_177-35);}.cls-124{fill:url(#Áåçûìÿííûé_ãðàäèåíò_177-36);}.cls-125{fill:url(#Áåçûìÿííûé_ãðàäèåíò_177-37);}.cls-126{fill:url(#Áåçûìÿííûé_ãðàäèåíò_177-38);}.cls-127{fill:url(#Áåçûìÿííûé_ãðàäèåíò_177-39);}.cls-128{fill:url(#Áåçûìÿííûé_ãðàäèåíò_177-40);}.cls-129{fill:url(#Áåçûìÿííûé_ãðàäèåíò_177-41);}.cls-130{fill:url(#linear-gradient-13);}.cls-131{fill:url(#linear-gradient-14);}.cls-132{fill:url(#linear-gradient-15);}.cls-133{fill:url(#Áåçûìÿííûé_ãðàäèåíò_241-7);}.cls-134{fill:url(#Áåçûìÿííûé_ãðàäèåíò_241-8);}.cls-135{fill:#337763;}.cls-136{fill:#9b4200;}.cls-137{fill:#4469b2;}.cls-138{fill:url(#Áåçûìÿííûé_ãðàäèåíò_55);}.cls-139{fill:url(#Áåçûìÿííûé_ãðàäèåíò_55-2);}.cls-140{fill:url(#Áåçûìÿííûé_ãðàäèåíò_55-3);}.cls-141{fill:url(#Áåçûìÿííûé_ãðàäèåíò_55-4);}.cls-142{fill:#733530;}.cls-143{fill:#53282b;}.cls-144{fill:url(#linear-gradient-16);}.cls-145{fill:url(#linear-gradient-17);}.cls-146{fill:#8c3b2b;}.cls-147{fill:#4c2121;}.cls-148{fill:url(#Áåçûìÿííûé_ãðàäèåíò_55-5);}.cls-149,.cls-151{fill:#35332d;}.cls-149{opacity:0.66;}.cls-150{fill:url(#Áåçûìÿííûé_ãðàäèåíò_55-6);}.cls-151{opacity:0.22;}.cls-152{fill:url(#linear-gradient-18);}.cls-153{fill:url(#linear-gradient-19);}.cls-154{fill:url(#linear-gradient-20);}.cls-155{fill:url(#Áåçûìÿííûé_ãðàäèåíò_241-9);}.cls-156{fill:url(#Áåçûìÿííûé_ãðàäèåíò_241-10);}.cls-157{fill:#8c2f38;}.cls-158{fill:url(#Áåçûìÿííûé_ãðàäèåíò_241-11);}.cls-159{opacity:0.38;}.cls-160{fill:url(#linear-gradient-21);}.cls-161{fill:url(#linear-gradient-22);}.cls-162{fill:url(#linear-gradient-23);}</style><linearGradient id="Áåçûìÿííûé_ãðàäèåíò_69" x1="1687.46" y1="271.49" x2="1687.46" y2="114.65" gradientTransform="matrix(1.04, -0.1, 0.03, 0.97, -54.53, 144.22)" gradientUnits="userSpaceOnUse"><stop offset="0.02" stop-color="#a02e22"/><stop offset="0.99" stop-color="#791d36"/></linearGradient><linearGradient id="Áåçûìÿííûé_ãðàäèåíò_69-2" x1="1600.04" y1="149.82" x2="1600.04" y2="69.79" xlink:href="#Áåçûìÿííûé_ãðàäèåíò_69"/><linearGradient id="Áåçûìÿííûé_ãðàäèåíò_200" x1="1667.28" y1="166.6" x2="1602.84" y2="57.42" gradientTransform="matrix(1.04, -0.1, 0.03, 0.97, -54.53, 144.22)" gradientUnits="userSpaceOnUse"><stop offset="0" stop-color="#a33a36"/><stop offset="1" stop-color="#ff633a"/></linearGradient><linearGradient id="Áåçûìÿííûé_ãðàäèåíò_101" x1="1757.27" y1="177.57" x2="1714.36" y2="104.89" gradientTransform="matrix(1.04, -0.1, 0.03, 0.97, -54.53, 144.22)" gradientUnits="userSpaceOnUse"><stop offset="0" stop-color="#b8431a"/><stop offset="1" stop-color="#a33036"/></linearGradient><linearGradient id="Áåçûìÿííûé_ãðàäèåíò_101-2" x1="1717" y1="133.4" x2="1746.5" y2="133.4" xlink:href="#Áåçûìÿííûé_ãðàäèåíò_101"/><linearGradient id="Áåçûìÿííûé_ãðàäèåíò_101-3" x1="1622.92" y1="100.1" x2="1655.33" y2="100.1" xlink:href="#Áåçûìÿííûé_ãðàäèåíò_101"/><linearGradient id="Áåçûìÿííûé_ãðàäèåíò_91" x1="1694.56" y1="132.56" x2="1694.56" y2="68.18" gradientTransform="matrix(1.04, -0.1, 0.03, 0.97, -54.53, 144.22)" gradientUnits="userSpaceOnUse"><stop offset="0" stop-color="#dd5936"/><stop offset="1" stop-color="#ff8e1f"/></linearGradient><linearGradient id="_145" x1="1700.04" y1="116.59" x2="1738.81" y2="60.24" gradientTransform="matrix(1.04, -0.07, -0.01, 0.98, -69.85, 108.39)" gradientUnits="userSpaceOnUse"><stop offset="0" stop-color="#ffc3b1"/><stop offset="1" stop-color="#ffdac9"/></linearGradient><linearGradient id="Áåçûìÿííûé_ãðàäèåíò_181" x1="275.6" y1="85.14" x2="282.06" y2="63.36" gradientTransform="matrix(-1.04, 0.04, -0.03, 0.98, 2061.64, -1.33)" gradientUnits="userSpaceOnUse"><stop offset="0" stop-color="#bd0041"/><stop offset="1" stop-color="#fff"/></linearGradient><linearGradient id="Áåçûìÿííûé_ãðàäèåíò_181-2" x1="1701.65" y1="123.25" x2="1710.82" y2="83.01" gradientTransform="matrix(1.04, -0.07, -0.01, 0.98, -69.85, 108.39)" xlink:href="#Áåçûìÿííûé_ãðàäèåíò_181"/><linearGradient id="Áåçûìÿííûé_ãðàäèåíò_181-3" x1="363.07" y1="27.4" x2="360.78" y2="23.6" xlink:href="#Áåçûìÿííûé_ãðàäèåíò_181"/><linearGradient id="Áåçûìÿííûé_ãðàäèåíò_181-4" x1="374.21" y1="71.46" x2="357.64" y2="58.13" xlink:href="#Áåçûìÿííûé_ãðàäèåíò_181"/><linearGradient id="Áåçûìÿííûé_ãðàäèåíò_181-5" x1="1667.18" y1="181.02" x2="1705.63" y2="12.32" gradientTransform="matrix(1.04, -0.07, -0.01, 0.98, -69.85, 108.39)" xlink:href="#Áåçûìÿííûé_ãðàäèåíò_181"/><linearGradient id="_1012" x1="1739.09" y1="108.41" x2="1699.93" y2="35.85" gradientTransform="matrix(1.04, -0.1, 0.03, 0.97, -54.53, 144.22)" gradientUnits="userSpaceOnUse"><stop offset="0" stop-color="#ffa78a"/><stop offset="1" stop-color="#c13372"/></linearGradient><linearGradient id="_1012-2" x1="1737.64" y1="106.38" x2="1701.95" y2="40.26" xlink:href="#_1012"/><linearGradient id="_1012-3" x1="1744" y1="108.31" x2="1706.01" y2="37.92" xlink:href="#_1012"/><linearGradient id="_1012-4" x1="1725.23" y1="101.28" x2="1688.92" y2="33.99" xlink:href="#_1012"/><linearGradient id="_1012-5" x1="1751.26" y1="111.94" x2="1715.52" y2="45.72" xlink:href="#_1012"/><linearGradient id="_1012-6" x1="1748.13" y1="102.2" x2="1708.08" y2="28" xlink:href="#_1012"/><linearGradient id="_1012-7" x1="1746.1" y1="104.85" x2="1704.27" y2="27.34" xlink:href="#_1012"/><linearGradient id="_1012-8" x1="778.29" y1="231.53" x2="747.09" y2="173.72" gradientTransform="matrix(-1.01, 0.32, 0.27, 0.93, 2445.75, -368.32)" xlink:href="#_1012"/><linearGradient id="_1012-9" x1="806.12" y1="217.53" x2="779.06" y2="167.39" gradientTransform="matrix(-1.01, 0.32, 0.27, 0.93, 2445.75, -368.32)" xlink:href="#_1012"/><linearGradient id="_1012-10" x1="775.05" y1="249.09" x2="743.54" y2="190.71" gradientTransform="matrix(-1.01, 0.32, 0.27, 0.93, 2445.75, -368.32)" xlink:href="#_1012"/><linearGradient id="_1012-11" x1="812.7" y1="209.23" x2="788.06" y2="163.57" gradientTransform="matrix(-1.01, 0.32, 0.27, 0.93, 2445.75, -368.32)" xlink:href="#_1012"/><linearGradient id="_1012-12" x1="814.2" y1="214.55" x2="789.66" y2="169.07" gradientTransform="matrix(-1.01, 0.32, 0.27, 0.93, 2445.75, -368.32)" xlink:href="#_1012"/><linearGradient id="_1012-13" x1="816.35" y1="213.71" x2="784.05" y2="153.87" gradientTransform="matrix(-1.01, 0.32, 0.27, 0.93, 2445.75, -368.32)" xlink:href="#_1012"/><linearGradient id="_1012-14" x1="812.35" y1="217.73" x2="777.94" y2="153.97" gradientTransform="matrix(-1.01, 0.32, 0.27, 0.93, 2445.75, -368.32)" xlink:href="#_1012"/><clipPath id="clip-path"><polygon class="cls-1" points="0 0 0 205.18 324.06 216.99 725.8 205.18 1514.2 239.38 1646.2 199.18 1928.6 205.18 1928.6 0 0 0"/></clipPath><linearGradient id="linear-gradient" x1="383.73" y1="147.02" x2="369.16" y2="88.45" gradientTransform="matrix(1, 0.02, 0, 1, 1.04, -10.79)" gradientUnits="userSpaceOnUse"><stop offset="0" stop-color="#35233a"/><stop offset="0.22" stop-color="#3f293f"/><stop offset="0.59" stop-color="#5b384d"/><stop offset="1" stop-color="#814c60"/></linearGradient><clipPath id="clip-path-2"><path class="cls-1" d="M389.81,225.85c-21.43-.36-40.89-23.15-50.43-34.94-8.22-10.17-12.39-25-12.39-44.12,0-15.58,7.09-30.86,20-43,11.6-11,26.58-17.64,39.09-17.43,32.57.54,220.77,66.32,220.77,100.21,0,2.21,0,4.39,0,6.55.13,17.76,44.58,26.91,35.38,36C633.89,237.41,415.2,226.28,389.81,225.85Z"/></clipPath><linearGradient id="linear-gradient-2" x1="308.43" y1="120.62" x2="431.07" y2="208.22" gradientTransform="matrix(1, 0.02, 0, 1, 1.04, -10.79)" gradientUnits="userSpaceOnUse"><stop offset="0.26" stop-color="#814c63"/><stop offset="0.88" stop-color="#b87251"/></linearGradient><linearGradient id="linear-gradient-3" x1="430.29" y1="235.39" x2="430.29" y2="154.84" xlink:href="#linear-gradient-2"/><linearGradient id="Áåçûìÿííûé_ãðàäèåíò_6" x1="423.96" y1="161.68" x2="421.15" y2="98.35" gradientTransform="matrix(1, 0.02, 0, 1, 1.04, -10.79)" gradientUnits="userSpaceOnUse"><stop offset="0" stop-color="#814c63"/><stop offset="0.28" stop-color="#8b5360"/><stop offset="0.75" stop-color="#a76657"/><stop offset="1" stop-color="#b87251"/></linearGradient><linearGradient id="linear-gradient-4" x1="13848.75" y1="254.34" x2="13849.06" y2="264.18" gradientTransform="matrix(-1, -0.03, -0.01, 1, 14219.25, 334.75)" gradientUnits="userSpaceOnUse"><stop offset="0.27" stop-color="#a16152"/><stop offset="1" stop-color="#ffca63"/></linearGradient><linearGradient id="linear-gradient-5" x1="13907.68" y1="296.97" x2="13907.99" y2="306.82" xlink:href="#linear-gradient-4"/><linearGradient id="Áåçûìÿííûé_ãðàäèåíò_177" x1="12058.32" y1="-13956.78" x2="12072.06" y2="-13956.78" gradientTransform="matrix(-0.99, -0.16, 0.14, -0.99, 14308.19, -11743.42)" gradientUnits="userSpaceOnUse"><stop offset="0" stop-color="#d88368"/><stop offset="1" stop-color="#d6a9ab"/></linearGradient><linearGradient id="Áåçûìÿííûé_ãðàäèåíò_177-2" x1="12073.22" y1="-13954.39" x2="12079.83" y2="-13954.39" xlink:href="#Áåçûìÿííûé_ãðàäèåíò_177"/><linearGradient id="Áåçûìÿííûé_ãðàäèåíò_177-3" x1="12051.37" y1="-13953.67" x2="12056.14" y2="-13953.67" xlink:href="#Áåçûìÿííûé_ãðàäèåíò_177"/><linearGradient id="Áåçûìÿííûé_ãðàäèåíò_177-4" x1="12052.6" y1="-13959.56" x2="12055.37" y2="-13959.56" xlink:href="#Áåçûìÿííûé_ãðàäèåíò_177"/><linearGradient id="Áåçûìÿííûé_ãðàäèåíò_177-5" x1="12042.39" y1="-13957.66" x2="12046.67" y2="-13957.66" xlink:href="#Áåçûìÿííûé_ãðàäèåíò_177"/><linearGradient id="Áåçûìÿííûé_ãðàäèåíò_177-6" x1="12089.69" y1="-13960.57" x2="12099.01" y2="-13960.57" xlink:href="#Áåçûìÿííûé_ãðàäèåíò_177"/><linearGradient id="Áåçûìÿííûé_ãðàäèåíò_177-7" x1="12077.32" y1="-13963.45" x2="12083.95" y2="-13963.45" xlink:href="#Áåçûìÿííûé_ãðàäèåíò_177"/><linearGradient id="Áåçûìÿííûé_ãðàäèåíò_177-8" x1="12101.16" y1="-13962.65" x2="12105.92" y2="-13962.65" xlink:href="#Áåçûìÿííûé_ãðàäèåíò_177"/><linearGradient id="Áåçûìÿííûé_ãðàäèåíò_177-9" x1="12101.96" y1="-13957.93" x2="12104.71" y2="-13957.93" xlink:href="#Áåçûìÿííûé_ãðàäèåíò_177"/><linearGradient id="Áåçûìÿííûé_ãðàäèåíò_177-10" x1="12111.57" y1="-13959.79" x2="12114.85" y2="-13959.79" xlink:href="#Áåçûìÿííûé_ãðàäèåíò_177"/><linearGradient id="Áåçûìÿííûé_ãðàäèåíò_297" x1="2238.72" y1="1595.27" x2="2238.72" y2="1505.54" gradientTransform="matrix(0.96, 0.27, -0.26, 0.96, -1282.84, -1944.8)" gradientUnits="userSpaceOnUse"><stop offset="0.01" stop-color="#fcddd8"/><stop offset="0.22" stop-color="#ebcfce"/><stop offset="0.63" stop-color="#beaab4"/><stop offset="0.99" stop-color="#92869a"/></linearGradient><linearGradient id="Áåçûìÿííûé_ãðàäèåíò_297-2" x1="9262.19" y1="2305.56" x2="9262.19" y2="2170.57" gradientTransform="matrix(0.48, 0.88, -0.87, 0.47, -2065.75, -9088.33)" xlink:href="#Áåçûìÿííûé_ãðàäèåíò_297"/><linearGradient id="linear-gradient-6" x1="311.75" y1="176.34" x2="335.39" y2="176.34" gradientTransform="matrix(1, 0.02, 0, 1, 1.04, -10.79)" gradientUnits="userSpaceOnUse"><stop offset="0" stop-color="#50261b"/><stop offset="1" stop-color="#64364d" stop-opacity="0"/></linearGradient><linearGradient id="Áåçûìÿííûé_ãðàäèåíò_241" x1="363.97" y1="135.45" x2="411.07" y2="135.45" gradientTransform="matrix(1, 0.02, 0, 1, 1.04, -10.79)" gradientUnits="userSpaceOnUse"><stop offset="0" stop-color="#814c63"/><stop offset="0.3" stop-color="#804c59"/><stop offset="0.82" stop-color="#7d4d3d"/><stop offset="1" stop-color="#7c4d32"/></linearGradient><linearGradient id="Áåçûìÿííûé_ãðàäèåíò_223" x1="417.03" y1="107.17" x2="467.13" y2="107.17" gradientTransform="matrix(1, 0.02, 0, 1, 1.04, -10.79)" gradientUnits="userSpaceOnUse"><stop offset="0" stop-color="#b87251"/><stop offset="0.19" stop-color="#c4754f"/><stop offset="0.7" stop-color="#e07c49"/><stop offset="1" stop-color="#ea7f47"/></linearGradient><linearGradient id="Áåçûìÿííûé_ãðàäèåíò_223-2" x1="416.06" y1="100.57" x2="446.06" y2="100.57" xlink:href="#Áåçûìÿííûé_ãðàäèåíò_223"/><linearGradient id="Áåçûìÿííûé_ãðàäèåíò_241-2" x1="279.52" y1="214.68" x2="279.52" y2="102.03" gradientTransform="matrix(1, 0.02, 0, 1, 126.57, -8.68)" xlink:href="#Áåçûìÿííûé_ãðàäèåíò_241"/><linearGradient id="linear-gradient-7" x1="418.78" y1="244.98" x2="413.61" y2="148.31" gradientTransform="matrix(1, 0.02, 0, 1, 126.57, -8.68)" gradientUnits="userSpaceOnUse"><stop offset="0" stop-color="#814c63"/><stop offset="0.29" stop-color="#8b5466"/><stop offset="0.8" stop-color="#a7696e"/><stop offset="1" stop-color="#b47372"/></linearGradient><linearGradient id="Áåçûìÿííûé_ãðàäèåíò_297-3" x1="359.6" y1="220.39" x2="359.6" y2="98.34" gradientTransform="matrix(1, 0.02, 0, 1, 126.57, -8.68)" xlink:href="#Áåçûìÿííûé_ãðàäèåíò_297"/><linearGradient id="Áåçûìÿííûé_ãðàäèåíò_297-4" x1="373.71" y1="220" x2="373.71" y2="98.84" gradientTransform="matrix(1, 0.02, 0, 1, 126.57, -8.68)" xlink:href="#Áåçûìÿííûé_ãðàäèåíò_297"/><linearGradient id="linear-gradient-8" x1="268.48" y1="221.21" x2="268.48" y2="96.54" gradientTransform="matrix(1, 0.02, 0, 1, 126.57, -8.68)" gradientUnits="userSpaceOnUse"><stop offset="0.01" stop-color="#7c483d"/><stop offset="0.88" stop-color="#6b3b48"/><stop offset="0.99" stop-color="#68394a"/></linearGradient><linearGradient id="linear-gradient-9" x1="290.52" y1="221.21" x2="290.52" y2="96.54" xlink:href="#linear-gradient-8"/><linearGradient id="Áåçûìÿííûé_ãðàäèåíò_241-3" x1="352.09" y1="174.95" x2="448.98" y2="174.95" xlink:href="#Áåçûìÿííûé_ãðàäèåíò_241"/><linearGradient id="linear-gradient-10" x1="16471.62" y1="-2982.43" x2="16474.8" y2="-2954.42" gradientTransform="matrix(-0.93, 0.35, 0.37, 0.94, 16747.73, -2857.27)" gradientUnits="userSpaceOnUse"><stop offset="0" stop-color="#77437f"/><stop offset="0.25" stop-color="#663671"/><stop offset="0.72" stop-color="#4a205a"/><stop offset="1" stop-color="#401851"/></linearGradient><linearGradient id="Áåçûìÿííûé_ãðàäèåíò_241-4" x1="799.47" y1="555.74" x2="861.06" y2="543.72" gradientTransform="matrix(1, 0.08, -0.07, 1, -418.83, -478.53)" xlink:href="#Áåçûìÿííûé_ãðàäèåíò_241"/><linearGradient id="Áåçûìÿííûé_ãðàäèåíò_157" x1="15881.39" y1="-1721.28" x2="15880.82" y2="-1734.57" gradientTransform="matrix(-0.97, 0.22, 0.23, 0.98, 16177.63, -1643.45)" gradientUnits="userSpaceOnUse"><stop offset="0"/><stop offset="0.15" stop-color="#130c0f"/><stop offset="0.53" stop-color="#402931"/><stop offset="0.83" stop-color="#5c3b47"/><stop offset="1" stop-color="#66424f"/></linearGradient><linearGradient id="Áåçûìÿííûé_ãðàäèåíò_241-5" x1="802.92" y1="539.04" x2="842.18" y2="539.04" gradientTransform="matrix(1, 0.08, -0.07, 1, -418.83, -478.53)" xlink:href="#Áåçûìÿííûé_ãðàäèåíò_241"/><linearGradient id="Áåçûìÿííûé_ãðàäèåíò_241-6" x1="802.76" y1="557.2" x2="842.59" y2="557.2" gradientTransform="matrix(1, 0.08, -0.07, 1, -418.83, -478.53)" xlink:href="#Áåçûìÿííûé_ãðàäèåíò_241"/><linearGradient id="linear-gradient-11" x1="355" y1="245.64" x2="350.05" y2="153.09" gradientTransform="matrix(1, 0.02, 0, 1, 126.57, -8.68)" gradientUnits="userSpaceOnUse"><stop offset="0" stop-color="#814c63"/><stop offset="0.29" stop-color="#8b5462"/><stop offset="0.8" stop-color="#a7695e"/><stop offset="1" stop-color="#b4735c"/></linearGradient><linearGradient id="Áåçûìÿííûé_ãðàäèåíò_297-5" x1="325.97" y1="174.45" x2="376.24" y2="174.45" gradientTransform="matrix(1, 0.02, 0, 1, 126.57, -8.68)" xlink:href="#Áåçûìÿííûé_ãðàäèåíò_297"/><linearGradient id="linear-gradient-12" x1="304.73" y1="197.32" x2="380.43" y2="197.32" gradientTransform="matrix(1, 0.02, 0, 1, 1.04, -10.79)" xlink:href="#linear-gradient-8"/><linearGradient id="Áåçûìÿííûé_ãðàäèåíò_177-11" x1="13831.77" y1="-13357.77" x2="13842.36" y2="-13357.77" gradientTransform="matrix(0, 1, 1, 0.02, 13715.16, -13507.86)" xlink:href="#Áåçûìÿííûé_ãðàäèåíò_177"/><linearGradient id="Áåçûìÿííûé_ãðàäèåíò_177-12" x1="12115.06" y1="-14000.3" x2="12125.95" y2="-14000.3" xlink:href="#Áåçûìÿííûé_ãðàäèåíò_177"/><linearGradient id="Áåçûìÿííûé_ãðàäèåíò_177-13" x1="12126.77" y1="-13998.3" x2="12132.14" y2="-13998.3" xlink:href="#Áåçûìÿííûé_ãðàäèåíò_177"/><linearGradient id="Áåçûìÿííûé_ãðàäèåíò_177-14" x1="12109.46" y1="-13997.78" x2="12113.26" y2="-13997.78" xlink:href="#Áåçûìÿííûé_ãðàäèåíò_177"/><linearGradient id="Áåçûìÿííûé_ãðàäèåíò_177-15" x1="12110.59" y1="-14002.62" x2="12112.8" y2="-14002.62" xlink:href="#Áåçûìÿííûé_ãðàäèåíò_177"/><linearGradient id="Áåçûìÿííûé_ãðàäèåíò_177-16" x1="12102.4" y1="-14001.09" x2="12105.79" y2="-14001.09" xlink:href="#Áåçûìÿííûé_ãðàäèåíò_177"/><linearGradient id="Áåçûìÿííûé_ãðàäèåíò_177-17" x1="12140.11" y1="-14003.33" x2="12147.48" y2="-14003.33" xlink:href="#Áåçûìÿííûé_ãðàäèåíò_177"/><linearGradient id="Áåçûìÿííûé_ãðàäèåíò_177-18" x1="12130.33" y1="-14005.72" x2="12135.63" y2="-14005.72" xlink:href="#Áåçûìÿííûé_ãðàäèåíò_177"/><linearGradient id="Áåçûìÿííûé_ãðàäèåíò_177-19" x1="12149.25" y1="-14005" x2="12153.05" y2="-14005" xlink:href="#Áåçûìÿííûé_ãðàäèåíò_177"/><linearGradient id="Áåçûìÿííûé_ãðàäèåíò_177-20" x1="12149.76" y1="-14001.13" x2="12151.96" y2="-14001.13" xlink:href="#Áåçûìÿííûé_ãðàäèåíò_177"/><linearGradient id="Áåçûìÿííûé_ãðàäèåíò_177-21" x1="12157.48" y1="-14002.63" x2="12160.1" y2="-14002.63" xlink:href="#Áåçûìÿííûé_ãðàäèåíò_177"/><linearGradient id="Áåçûìÿííûé_ãðàäèåíò_177-22" x1="4929.04" y1="3264.23" x2="4935.48" y2="3264.23" gradientTransform="matrix(0.82, 0.58, -0.56, 0.82, -1804.44, -5405.23)" xlink:href="#Áåçûìÿííûé_ãðàäèåíò_177"/><linearGradient id="Áåçûìÿííûé_ãðàäèåíò_177-23" x1="4935.45" y1="3264.85" x2="4939.15" y2="3264.85" gradientTransform="matrix(0.82, 0.58, -0.56, 0.82, -1804.44, -5405.23)" xlink:href="#Áåçûìÿííûé_ãðàäèåíò_177"/><linearGradient id="Áåçûìÿííûé_ãðàäèåíò_177-24" x1="4925.36" y1="3266.98" x2="4927.66" y2="3266.98" gradientTransform="matrix(0.82, 0.58, -0.56, 0.82, -1804.44, -5405.23)" xlink:href="#Áåçûìÿííûé_ãðàäèåíò_177"/><linearGradient id="Áåçûìÿííûé_ãðàäèåíò_177-25" x1="4926.68" y1="3263.16" x2="4928.01" y2="3263.16" gradientTransform="matrix(0.82, 0.58, -0.56, 0.82, -1804.44, -5405.23)" xlink:href="#Áåçûìÿííûé_ãðàäèåíò_177"/><linearGradient id="Áåçûìÿííûé_ãðàäèåíò_177-26" x1="4921.47" y1="3265.04" x2="4923.48" y2="3265.04" gradientTransform="matrix(0.82, 0.58, -0.56, 0.82, -1804.44, -5405.23)" xlink:href="#Áåçûìÿííûé_ãðàäèåíò_177"/><linearGradient id="Áåçûìÿííûé_ãðàäèåíò_177-27" x1="4944.49" y1="3259.7" x2="4948.75" y2="3259.7" gradientTransform="matrix(0.82, 0.58, -0.56, 0.82, -1804.44, -5405.23)" xlink:href="#Áåçûìÿííûé_ãðàäèåíò_177"/><linearGradient id="Áåçûìÿííûé_ãðàäèåíò_177-28" x1="4938.86" y1="3258.65" x2="4942.14" y2="3258.65" gradientTransform="matrix(0.82, 0.58, -0.56, 0.82, -1804.44, -5405.23)" xlink:href="#Áåçûìÿííûé_ãðàäèåíò_177"/><linearGradient id="Áåçûìÿííûé_ãðàäèåíò_177-29" x1="4950.09" y1="3257.53" x2="4952.42" y2="3257.53" gradientTransform="matrix(0.82, 0.58, -0.56, 0.82, -1804.44, -5405.23)" xlink:href="#Áåçûìÿííûé_ãðàäèåíò_177"/><linearGradient id="Áåçûìÿííûé_ãðàäèåíò_177-30" x1="4949.87" y1="3260.67" x2="4951.22" y2="3260.67" gradientTransform="matrix(0.82, 0.58, -0.56, 0.82, -1804.44, -5405.23)" xlink:href="#Áåçûìÿííûé_ãðàäèåíò_177"/><linearGradient id="Áåçûìÿííûé_ãðàäèåíò_177-31" x1="4954.8" y1="3258.71" x2="4956.48" y2="3258.71" gradientTransform="matrix(0.82, 0.58, -0.56, 0.82, -1804.44, -5405.23)" xlink:href="#Áåçûìÿííûé_ãðàäèåíò_177"/><linearGradient id="Áåçûìÿííûé_ãðàäèåíò_177-32" x1="2749.2" y1="2611.59" x2="2753.92" y2="2611.59" gradientTransform="matrix(0.93, 0.37, -0.35, 0.93, -1218.24, -3341.85)" xlink:href="#Áåçûìÿííûé_ãðàäèåíò_177"/><linearGradient id="Áåçûìÿííûé_ãðàäèåíò_177-33" x1="2754.13" y1="2612.11" x2="2756.64" y2="2612.11" gradientTransform="matrix(0.93, 0.37, -0.35, 0.93, -1218.24, -3341.85)" xlink:href="#Áåçûìÿííûé_ãðàäèåíò_177"/><linearGradient id="Áåçûìÿííûé_ãðàäèåíò_177-34" x1="2746.64" y1="2613.09" x2="2748.31" y2="2613.09" gradientTransform="matrix(0.93, 0.37, -0.35, 0.93, -1218.24, -3341.85)" xlink:href="#Áåçûìÿííûé_ãðàäèåíò_177"/><linearGradient id="Áåçûìÿííûé_ãðàäèåíò_177-35" x1="2747.35" y1="2610.84" x2="2748.32" y2="2610.84" gradientTransform="matrix(0.93, 0.37, -0.35, 0.93, -1218.24, -3341.85)" xlink:href="#Áåçûìÿííûé_ãðàäèåíò_177"/><linearGradient id="Áåçûìÿííûé_ãðàäèåíò_177-36" x1="2743.67" y1="2611.83" x2="2745.14" y2="2611.83" gradientTransform="matrix(0.93, 0.37, -0.35, 0.93, -1218.24, -3341.85)" xlink:href="#Áåçûìÿííûé_ãðàäèåíò_177"/><linearGradient id="Áåçûìÿííûé_ãðàäèåíò_177-37" x1="2760.3" y1="2609.28" x2="2763.49" y2="2609.28" gradientTransform="matrix(0.93, 0.37, -0.35, 0.93, -1218.24, -3341.85)" xlink:href="#Áåçûìÿííûé_ãðàäèåíò_177"/><linearGradient id="Áåçûìÿííûé_ãðàäèåíò_177-38" x1="2756.09" y1="2608.53" x2="2758.44" y2="2608.53" gradientTransform="matrix(0.93, 0.37, -0.35, 0.93, -1218.24, -3341.85)" xlink:href="#Áåçûìÿííûé_ãðàäèåíò_177"/><linearGradient id="Áåçûìÿííûé_ãðàäèåíò_177-39" x1="2764.34" y1="2608.13" x2="2766.02" y2="2608.13" gradientTransform="matrix(0.93, 0.37, -0.35, 0.93, -1218.24, -3341.85)" xlink:href="#Áåçûìÿííûé_ãðàäèåíò_177"/><linearGradient id="Áåçûìÿííûé_ãðàäèåíò_177-40" x1="2764.42" y1="2609.97" x2="2765.4" y2="2609.97" gradientTransform="matrix(0.93, 0.37, -0.35, 0.93, -1218.24, -3341.85)" xlink:href="#Áåçûìÿííûé_ãðàäèåíò_177"/><linearGradient id="Áåçûìÿííûé_ãðàäèåíò_177-41" x1="2767.89" y1="2608.95" x2="2769.08" y2="2608.95" gradientTransform="matrix(0.93, 0.37, -0.35, 0.93, -1218.24, -3341.85)" xlink:href="#Áåçûìÿííûé_ãðàäèåíò_177"/><linearGradient id="linear-gradient-13" x1="631.73" y1="-537.64" x2="633.22" y2="-549.29" gradientTransform="matrix(0.97, -0.24, 0.25, 0.97, -77.8, 847.54)" gradientUnits="userSpaceOnUse"><stop offset="0" stop-color="#32c8b9"/><stop offset="1" stop-color="#2d2c6b"/></linearGradient><linearGradient id="linear-gradient-14" x1="2001.63" y1="579.54" x2="2001.63" y2="590.82" gradientTransform="matrix(1, -0.03, 0.05, 1, -1630.52, -352.33)" xlink:href="#linear-gradient-13"/><linearGradient id="linear-gradient-15" x1="630.91" y1="-545.02" x2="616.12" y2="-545.94" xlink:href="#linear-gradient-13"/><linearGradient id="Áåçûìÿííûé_ãðàäèåíò_241-7" x1="435.73" y1="-868.94" x2="438.77" y2="-881.49" gradientTransform="matrix(0.96, -0.27, 0.29, 0.96, 230.58, 1134.9)" xlink:href="#Áåçûìÿííûé_ãðàäèåíò_241"/><linearGradient id="Áåçûìÿííûé_ãðàäèåíò_241-8" x1="438.67" y1="-875.07" x2="439.05" y2="-876.49" gradientTransform="matrix(0.96, -0.27, 0.29, 0.96, 230.58, 1134.9)" xlink:href="#Áåçûìÿííûé_ãðàäèåíò_241"/><linearGradient id="Áåçûìÿííûé_ãðàäèåíò_55" x1="261.84" y1="198.9" x2="291.95" y2="198.9" gradientTransform="matrix(1, 0.02, 0, 1, 1.04, -10.79)" gradientUnits="userSpaceOnUse"><stop offset="0" stop-color="#b87251"/><stop offset="1" stop-color="#b67247"/></linearGradient><linearGradient id="Áåçûìÿííûé_ãðàäèåíò_55-2" x1="424.05" y1="216.09" x2="447.42" y2="216.09" xlink:href="#Áåçûìÿííûé_ãðàäèåíò_55"/><linearGradient id="Áåçûìÿííûé_ãðàäèåíò_55-3" x1="436.83" y1="214.72" x2="466.53" y2="214.72" xlink:href="#Áåçûìÿííûé_ãðàäèåíò_55"/><linearGradient id="Áåçûìÿííûé_ãðàäèåíò_55-4" x1="804.74" y1="438.57" x2="847.81" y2="438.57" gradientTransform="matrix(1, 0.05, -0.04, 1, -229.73, -280.2)" xlink:href="#Áåçûìÿííûé_ãðàäèåíò_55"/><linearGradient id="linear-gradient-16" x1="10710.43" y1="2017.55" x2="10724.85" y2="2018.81" gradientTransform="matrix(-0.93, -0.38, -0.37, 0.92, 11135.95, 2342.27)" gradientUnits="userSpaceOnUse"><stop offset="0" stop-color="#b62820"/><stop offset="1" stop-color="#fab42d"/></linearGradient><linearGradient id="linear-gradient-17" x1="10721.44" y1="2030.33" x2="10721.44" y2="2005.01" xlink:href="#linear-gradient-16"/><linearGradient id="Áåçûìÿííûé_ãðàäèåíò_55-5" x1="12251.81" y1="1237.27" x2="12276.02" y2="1237.27" gradientTransform="matrix(-0.98, -0.21, -0.19, 0.98, 12694.14, 1435.39)" xlink:href="#Áåçûìÿííûé_ãðàäèåíò_55"/><linearGradient id="Áåçûìÿííûé_ãðàäèåíò_55-6" x1="12251.86" y1="1238.42" x2="12276.16" y2="1238.42" gradientTransform="matrix(-0.98, -0.21, -0.19, 0.98, 12694.14, 1435.39)" xlink:href="#Áåçûìÿííûé_ãðàäèåíò_55"/><linearGradient id="linear-gradient-18" x1="3709.34" y1="218.84" x2="3709.13" y2="242.61" gradientTransform="matrix(0.98, 0.21, -0.19, 0.98, -3140.35, -816.53)" gradientUnits="userSpaceOnUse"><stop offset="0" stop-color="#9f274a"/><stop offset="1" stop-color="#e35b59"/></linearGradient><linearGradient id="linear-gradient-19" x1="3709.32" y1="204.43" x2="3709.32" y2="231.49" xlink:href="#linear-gradient-18"/><linearGradient id="linear-gradient-20" x1="3677.27" y1="232.67" x2="3691.25" y2="231.95" xlink:href="#linear-gradient-18"/><linearGradient id="Áåçûìÿííûé_ãðàäèåíò_241-9" x1="2171.99" y1="-792.17" x2="2179.48" y2="-823.04" gradientTransform="matrix(1, -0.03, 0.05, 1, -1687.36, 1072.48)" xlink:href="#Áåçûìÿííûé_ãðàäèåíò_241"/><linearGradient id="Áåçûìÿííûé_ãðàäèåíò_241-10" x1="2205.47" y1="-786.49" x2="2213.06" y2="-817.78" gradientTransform="matrix(1, -0.03, 0.05, 1, -1687.36, 1072.48)" xlink:href="#Áåçûìÿííûé_ãðàäèåíò_241"/><linearGradient id="Áåçûìÿííûé_ãðàäèåíò_241-11" x1="2180.85" y1="-806.57" x2="2181.82" y2="-810.17" gradientTransform="matrix(1, -0.03, 0.05, 1, -1687.36, 1072.48)" xlink:href="#Áåçûìÿííûé_ãðàäèåíò_241"/><linearGradient id="linear-gradient-21" x1="4438.04" y1="563.93" x2="4440.67" y2="554.14" gradientTransform="matrix(0.95, 0.31, -0.29, 0.95, -3622.78, -1731.41)" gradientUnits="userSpaceOnUse"><stop offset="0.01" stop-color="#7a5053"/><stop offset="0.3" stop-color="#845553"/><stop offset="0.81" stop-color="#a06352"/><stop offset="1" stop-color="#ac6952"/></linearGradient><linearGradient id="linear-gradient-22" x1="4430.27" y1="597.62" x2="4435.53" y2="578.08" xlink:href="#linear-gradient-21"/><linearGradient id="linear-gradient-23" x1="308.43" y1="120.62" x2="431.07" y2="208.22" gradientTransform="matrix(1, 0.02, 0, 1, 1.04, -10.79)" gradientUnits="userSpaceOnUse"><stop offset="0" stop-color="#814c63"/><stop offset="0.14" stop-color="#814c63" stop-opacity="0.92"/><stop offset="0.39" stop-color="#814c62" stop-opacity="0.7"/><stop offset="0.71" stop-color="#814c61" stop-opacity="0.36"/><stop offset="1" stop-color="#814c60" stop-opacity="0"/></linearGradient></defs><g class="cls-2"><g id="Layer_2" data-name="Layer 2"><g id="Lower_Separator" data-name="Lower Separator"><g id="Layer_1-2" data-name="Layer 1"><polygon class="cls-3" points="0 0 0 205.18 324.06 216.99 725.8 205.18 1514.2 239.38 1646.2 199.18 1928.6 205.18 1928.6 0 0 0"/><polygon class="cls-4" points="1705.91 239.38 1799.95 232.03 1673.29 119.41 1605.85 123.98 1705.91 239.38"/><polygon class="cls-5" points="1708.03 239.18 1708.5 85.83 1806.88 88.54 1803.71 154.15 1796.77 166.98 1802.93 170.35 1799.95 232.03 1780.65 233.9 1756.92 236.19 1735.81 237.25 1708.03 239.18"/><polygon class="cls-6" points="1708.03 239.18 1703.05 229.11 1699.46 94.74 1708.5 85.83 1708.03 239.18"/><polygon class="cls-5" points="1613.57 129.39 1614.24 51.1 1659.87 55.31 1674.7 124.44 1656.57 126.2 1633.39 127.98 1613.57 129.39"/><polygon class="cls-7" points="1613.57 129.39 1610.64 123.83 1608.88 56.06 1614.24 51.1 1613.57 129.39"/><polygon class="cls-8" points="1602.06 50.7 1602.4 61.69 1687.68 119.33 1687.88 105.33 1602.06 50.7"/><polygon class="cls-9" points="1687.68 119.33 1817.44 103.05 1818.95 91.56 1687.88 105.33 1687.68 119.33"/><polygon class="cls-10" points="1700.26 124.75 1708.37 128.94 1804.91 129.4 1806.08 105.14 1700.05 118.14 1700.26 124.75"/><polygon class="cls-10" points="1609.4 75.68 1613.85 79.03 1675.15 110.86 1636.76 85.21 1609.16 66.77 1609.4 75.68"/><polygon class="cls-5" points="1753.07 111.64 1753.1 98.48 1734.5 90.2 1765.49 97.18 1765.89 110.07 1753.07 111.64"/><polygon class="cls-11" points="1765.89 110.07 1755.68 106.6 1753.4 108.22 1753.1 98.48 1734.5 90.2 1765.49 97.18 1765.89 110.07"/><polygon class="cls-5" points="1635.82 72.2 1636.76 85.21 1642.98 89.36 1641.05 75.52 1669.53 68.94 1635.82 72.2"/><polygon class="cls-10" points="1635.82 72.2 1636.76 85.21 1642.98 89.36 1641.05 75.52 1669.53 68.94 1635.82 72.2"/><polygon class="cls-12" points="1636.74 84.98 1642.24 84.11 1641.05 75.52 1669.53 68.94 1635.82 72.2 1636.74 84.98"/><polygon class="cls-13" points="1690.94 53.13 1690.94 53.13 1679.63 53.12 1663.6 48.46 1658.13 50.02 1642.81 46.76 1602.06 50.7 1687.88 105.33 1818.95 91.56 1690.94 53.13"/><path class="cls-4" d="M1786.37,82.68s-78.71,22.18-113.25,7.15S1776.83,80.71,1786.37,82.68Z"/><path class="cls-14" d="M1786.37,82.68c0,.41-5.7,1.08-14.7,1.85-5.27.43-11.67.92-18.66,1.39-4.46.28-9.15.58-14,.85-8.41.49-31.59,2.57-37.7,3-19,1.49-28.28,2.57-28.23,0a2.22,2.22,0,0,1,.06-.36c.21-.62.78-1.46,1.1-2.41v0a3.25,3.25,0,0,0,0-2.18c-5.13-14.11,5.81-47,5.81-47a6.26,6.26,0,0,1-.13-3.38,2,2,0,0,1,.81-1.05c1.75-1.1-4.17,4.44,24.07,3.1,24.55-1.16,64.39-7.15,64.93-7.57,8.46-3,5.27,2.75,4.45,4a7.55,7.55,0,0,0-.68,3A137.59,137.59,0,0,0,1773.7,51a29.4,29.4,0,0,0,2.22,8.58c1.78,3.67,4,8.4,6,12.65.26.56.52,1.08.76,1.61C1784.74,78.41,1786.34,82.06,1786.37,82.68Z"/><path class="cls-15" d="M1753,85.91c7-.46,13.38-.94,18.66-1.39,9-.76,14.71-1.44,14.7-1.84,0-.62-1.62-4.28-3.7-8.79C1783.28,82.13,1764.64,84.6,1753,85.91Z"/><path class="cls-16" d="M1739.05,86.77c-8.41.49-31.59,2.57-37.7,3-19,1.49-28.28,2.57-28.23,0a2.22,2.22,0,0,1,.06-.36,10.93,10.93,0,0,1,1.1-2.41v0c.52-.92,1.07-1.68,1.27-1.58l.78.36c.49.22,1,.43,1.49.61,5.58,2.16,11.65,2.64,20.36,2.58C1704.61,88.93,1728.53,87,1739.05,86.77Z"/><path class="cls-17" d="M1689.05,37.28c-3.43,2.83-8.73.69-8.73.69Z"/><path class="cls-18" d="M1678.66,89.5c-1.88-4.17-2.75-23.25-2.75-23.25s.45,14.17.2,17.5S1678.66,89.5,1678.66,89.5Z"/><path class="cls-19" d="M1701.35,89.8c-19,1.49-28.28,2.57-28.23,0a2.22,2.22,0,0,1,.06-.36,10.93,10.93,0,0,1,1.1-2.41v0a3.25,3.25,0,0,0,0-2.18c-5.13-14.11,5.81-47,5.81-47a6.26,6.26,0,0,1-.13-3.38l.81-1.05c-1.92,3,1.24,3.89,4.08,4.17a24.45,24.45,0,0,0,3.58.08l-6.24,1.24s-2.78,19.23.59,34.87c2,9.19,9.26,13.31,15.38,15.21C1699.29,89.33,1700.37,89.6,1701.35,89.8Z"/><g class="cls-20"><path class="cls-21" d="M1746.79,57.68a3.65,3.65,0,0,1,2,3c.14,1-1.43,1.18-2.29.12S1746.79,57.68,1746.79,57.68Z"/><path class="cls-22" d="M1739.56,49.24c.77,1.46,1.46.57,1.46.57Z"/><path class="cls-23" d="M1740.94,42.73c-1.34,3.55,4.35,6.19,4.81,6.5s1.45-2.85-.41-4.44A10.49,10.49,0,0,0,1740.94,42.73Z"/><path class="cls-24" d="M1718.78,36.35c-.76-1.16,4,.17,5.46,1.12C1724.68,37.77,1718.78,36.35,1718.78,36.35Z"/><path class="cls-25" d="M1761.08,72c4.64,1,8.25.74,8.88-2.39s-3.88-5.64-3.88-5.64-8.61,2.13-7.72,4.64A6.07,6.07,0,0,0,1761.08,72Z"/><path class="cls-26" d="M1754.93,52.35c.83.4,1.73.43,2-1.14s-1.8-2.89-1.8-2.89-2.56,2.13-2.19,2.34A24,24,0,0,1,1754.93,52.35Z"/><path class="cls-27" d="M1753.51,53.08c1.12,1.43.07,2.24.07,2.24l-.77-1.46Z"/></g><g class="cls-20"><path class="cls-28" d="M1726.6,78.09c-.63.83.23,2.16,1,3.06s2.36.7,2.13-.43S1726.6,78.09,1726.6,78.09Z"/><path class="cls-29" d="M1698.29,68.53c.68,1.47-.77.85-.77.85Z"/><path class="cls-30" d="M1741.24,78.12c4.49,2.81-5,5.8-5.13,6.19s3-1.49,3.16-3.33A4,4,0,0,1,1741.24,78.12Z"/><path class="cls-31" d="M1692.43,57.19a3.08,3.08,0,0,1-3.76,2.3C1688.35,59.17,1692.43,57.19,1692.43,57.19Z"/><path class="cls-32" d="M1690.6,84.83c-3.19,2-6.58,2.61-10.06,0s5.85,1.31,5.85,1.31,1.9-7.38,3.45-5S1690.6,84.83,1690.6,84.83Z"/><path class="cls-33" d="M1687.64,74.94c-.37.55-1.13.79-2.87-.52a2.64,2.64,0,0,1-1.11-3s4.25,1.28,4.11,1.54A10.41,10.41,0,0,0,1687.64,74.94Z"/><path class="cls-34" d="M1689.57,75.25a3,3,0,0,0,2,2l-.69-1.47Z"/></g><g class="cls-35"><path class="cls-36" d="M380,216.6s-69.12-.85-84.51-1.31-11.43-.33-33.14-.51c-20.58-.16-27.06.09-42-.88s-26.78-1.27-32.66-1.09-26.57-.6-28.71-1,24.69-9.42,33.78-8.36,32.6-.8,43.55-1.12,35.05-1.92,42.64-1.8,71.06,1.59,75.4,1.16,12.14,7.89,12.72,8.32a44.4,44.4,0,0,0,6,3.69A57.55,57.55,0,0,0,380,216.6Z"/><path class="cls-37" d="M380,80.26C318.38,81.49,209.66,84.82,209.27,85c-13.79,7.56-21.53,9.16-25.66,18.7-11.73,27.16-18,62.07-11.47,79.87,5.49,15,23.57,22.09,23.54,22.81-.05,1.32,119.39,6.68,184.05,9.08Z"/><path class="cls-38" d="M249.89,209.66c-.14,0-.22-.08-.22-.12.13-.74-17-8.1-20.48-23.73-4.09-18.52-2.38-55,13.1-83.3,5.38-9.84,13.27-11.58,27.84-19.27l.08-.6c-3.82.15-6,.24-6,.27-14.86,7.89-22.84,9.55-28.28,19.49-15.47,28.28-17.19,64.78-13.09,83.3,3.45,15.63,20.6,23,20.48,23.73,0,.21,2.32.49,6.53.84Z"/><path class="cls-39" d="M224.29,185.73c-4.09-18.52-2.38-55,13.1-83.3,5.44-9.94,13.41-11.61,28.28-19.49h0v-.11l-1.54.09c-14.86,7.89-22.84,9.55-28.28,19.49-15.47,28.28-17.19,64.78-13.09,83.3,3.45,15.63,20.6,23,20.48,23.73,0,.21,2.32.49,6.53.84l0-.1c-3.29-.29-5.09-.53-5.06-.71C244.9,208.72,227.75,201.35,224.29,185.73Z"/><path class="cls-38" d="M300.39,212.24c-.14-.05-.22-.09-.22-.12.15-.77-16.82-8.35-19.89-24.46-3.62-19.09-1-56.73,15.2-85.88,5.64-10.15,14.07-12.27,28.85-20.2l-.41-.3c-3.83.15-6,.25-6.05.28-15.07,8.14-23.09,9.86-28.78,20.11-16.2,29.15-18.83,66.79-15.2,85.88,3.06,16.11,20,23.69,19.89,24.46,0,.21,2.31.5,6.52.86Z"/><path class="cls-39" d="M275.38,187.58c-3.63-19.09-1-56.73,15.2-85.89,5.68-10.22,13.67-12,28.66-20v-.08a.54.54,0,0,1,0-.1c-.88,0-1.37.07-1.4.09-15.07,8.14-23.09,9.86-28.78,20.11-16.2,29.15-18.83,66.79-15.2,85.88,3.06,16.11,20,23.69,19.89,24.46,0,.21,2.31.5,6.52.86v-.1c-3.27-.31-5.07-.55-5-.74C295.42,211.27,278.44,203.69,275.38,187.58Z"/><path class="cls-40" d="M169.6,169.4c.49,5.47,1.08,10.23,2.54,14.21,5.49,15,23.57,22.09,23.54,22.81-.05,1.32,119.39,6.68,184.05,9.08l.09-42.57Z"/><ellipse class="cls-41" cx="381.05" cy="147.7" rx="65.31" ry="67.95" transform="translate(-22.48 83.05) rotate(-12.08)"/><ellipse class="cls-42" cx="386.05" cy="147.78" rx="65.31" ry="67.95" transform="translate(-22.38 84.1) rotate(-12.08)"/><path class="cls-43" d="M386.05,209.22c-21.43-.36-37.13-6.52-46.67-18.31-8.22-10.17-12.39-25-12.39-44.12,0-15.58,7.09-30.86,20-43,11.6-11,26.58-17.64,39.09-17.43,32.57.54,59.06,28.55,59.06,62.43,0,2.21,0,4.4,0,6.55.13,17.77.24,33.11-8.95,42.23C427.84,205.83,411.44,209.65,386.05,209.22Z"/><path class="cls-44" d="M386.05,209.22c-21.43-.36-37.13-6.52-46.67-18.31-8.22-10.17-12.39-25-12.39-44.12,0-15.58,7.09-30.86,20-43,11.6-11,26.58-17.64,39.09-17.43,32.57.54,59.06,28.55,59.06,62.43,0,2.21,0,4.4,0,6.55.13,17.77.24,33.11-8.95,42.23C427.84,205.83,411.44,209.65,386.05,209.22Z"/><g class="cls-45"><path class="cls-46" d="M550.3,199.25l-6.8-2.42-9.83-3.91-4.11-3.15-.43-7-11.74-12.32-8.83-9.82-10.06-2.4-1-7.11a64.56,64.56,0,0,1-21.16-10.81,49.51,49.51,0,0,1-7.49-6.69c-1.58-1.79-3.62-3.89-4-5.9s1.09-4,1.65-6a19,19,0,0,0,.6-9.58,11.79,11.79,0,0,0-1.94-4.18l-2-.74-1.94-.31-4.55-1.85-7.54-3.17-4-3-.72-.61c-1.22-.22-2.43-.53-3.66-.87-3.44-1-6.85-2-10.34-2.84-3.86-1-8.84-1.75-11.32.74-1.59,1.59-1.94,3.55-3.86,5a22.63,22.63,0,0,1-5.94,2.84l-.21.56-2.51.57a5.15,5.15,0,0,1,.12,1.17,3.18,3.18,0,0,1-1,1.44.71.71,0,0,1,.06.26.85.85,0,0,1,0,.73,2.58,2.58,0,0,1-1.64,1.44c-1.94.76-3.69,0-5.69,0-1.14,0-2.23.31-3.41.28a12.67,12.67,0,0,1-1.37-.12l-3.43,2.19-3.61,1.08-.66.19-.18.07-1.23.49-2.15,1.44-1.22,1.52L377,121.15a7.58,7.58,0,0,0,.3,4.24c1,2.91,1.84,5.44-2.4,7.58-.72.37-1.51.74-2.33,1.1a14.6,14.6,0,0,0-4.92-2.86,38.69,38.69,0,0,0-3.88-1.06l-.22-.06-.38-.1-.48-.12-.23-.06-.67-.2-.22-.07-.51-.17-.19-.07c-.22-.08-.44-.16-.65-.26l-.06,0-.21-.1c.58-.37,1.06-.82.66-1.14a1.82,1.82,0,0,0-1.31-.06,1,1,0,0,1,0-.43,1.41,1.41,0,0,1,0-.29h-.05c-.15-1.86-2.75-4.31-2.94-6-3.25.63.41,2.71-2.9,2.83-2.11.07-1.24.31-3.3.12-.61-.06-.93,1.56-1.27,1.94-.53.62,1.67,1.8,2.42,2.22a8.56,8.56,0,0,0,2.71,1.23l-.21.11c-.31.17-.65.43-.46.66a.66.66,0,0,0,.33.18,3.74,3.74,0,0,0,1.45,0l-.05,0c-.15.11-.31.23-.47.33l-.24.16-.51.31-.23.13-.66.34c-2.65,1.31-5.88,2.21-7.81,4.06a5.91,5.91,0,0,0-1.82,3.62h0a7.51,7.51,0,0,0-.07.84h0a23.84,23.84,0,0,0,.44,4.34c0,.27.07.53.11.79v.07c0,.28.07.55.09.82.36,4.19-1.18,8.67-.64,12.75l-1.38,2.38-17.39,4.89-4.75,5-22.56,9.32-3.62,2.2-3,4.29-38.78,14,20,.6.08.4,19.44,1.68,21.91-1.09,63.39,2.26,40.19,9.78,25.73-1.78,16.26,1.13,12.25-8.6,20.28.38,118.09,2.26.25-.68Z"/><path class="cls-47" d="M251.69,200.94s31.12,3.6,38.36,5.45,9.91,3.38,21.61,6.81,41.08,13.35,53.17,18.22,33.5,7.51,33.5,7.51,10.45.89,10.92-.87,3.53-5.63,3.53-5.63,12.28-9.51,16.83-8.94,3.18.33,11.23.14a67.45,67.45,0,0,0,14.46-1.93s52.06-10.1,57.13-9.82,14,.36,17.06.22,79.78-4.45,79.78-4.45-167.6-6.2-169.52-6.58-40.76-2.57-55.63-3.72-42.7-1.75-50-2.32-17.82,3.42-24.09.39S251.69,200.94,251.69,200.94Z"/><path class="cls-48" d="M550.3,199.25l-6.8-2.42-9.83-3.91-4.11-3.15-.43-7-1.1-1.15a78.45,78.45,0,0,1-8.26-.33,24.67,24.67,0,0,1-6.44-1.57c-2.31-1-4.18-2.46-6.33-3.64-4.17-2.3-9-3.65-13.87-2.72a18.35,18.35,0,0,0-7.33,3.1c-1.9,1.33-3.72,2.91-6,3.73-4.79,1.72-10.3,1-15.35.48-5.33-.52-10.47-1.84-15.71-2.79s-10.46-1.41-15.55.19c-4.2,1.31-8,4-12.54,4.41s-6.86-3.05-9.74-5.34c-3.83-3-10.25-2.27-14.95-2-3.61.16-7.51-.19-11,.67-1.4.35-2.84,1.05-3.06,2.41s1.58,2.61,1.42,4.14c-.34,3.32-5.94,2.37-8.54,2.53-5.71.36-11.45.06-17.16.36-11.4.6-21.63,5-32.55,7.26a40.1,40.1,0,0,1-13.56,1c-5.34-.72-9.79-3.28-14.78-4.92-2-.66-4.07-1.21-6.14-1.67l-.08.11-38.78,14,20,.6.08.4,19.44,1.68,21.91-1.09,63.39,2.26,40.19,9.78,25.73-1.78,16.26,1.13,12.25-8.6,20.28.38,118.09,2.26.25-.68Z"/><path class="cls-49" d="M376.7,137.7c5.93,1.36,12.4.28,18.12,2.18s9-1.15,15-2.37c5-1.13.12-11.29,7.53-12.71,1.58.21,19.08.73,24.05,3.8,3.56,2.2,2.42,14.93,4.74,15.34a22.2,22.2,0,0,0,9.52-.49c3-.69,5.6-2.24,8.35-3.4s19.55,7.2,22.37,6.38c-1.28-1.12-16.5-11.63-17.55-12.82-1.58-1.79-3.62-3.89-4-5.9s1.09-4,1.65-6a19,19,0,0,0,.6-9.58,11.94,11.94,0,0,0-1.93-4.18l-2-.74-1.94-.31-4.55-1.85-7.54-3.17-4-3-.72-.61c-1.22-.22-2.43-.53-3.66-.87-3.44-1-6.85-2-10.34-2.84-3.86-1-8.84-1.75-11.32.74-1.59,1.59-1.94,3.55-3.86,5a22.63,22.63,0,0,1-5.94,2.84l-.21.56-2.51.57a5.15,5.15,0,0,1,.12,1.17,3.18,3.18,0,0,1-1,1.44.71.71,0,0,1,.06.26.85.85,0,0,1,0,.73,2.58,2.58,0,0,1-1.64,1.44c-1.94.76-3.69,0-5.69,0-1.14,0-2.23.31-3.41.28-.46,0-.91-.06-1.37-.11l-3.43,2.18-3.61,1.08-.66.19-.18.07-1.23.49-2.15,1.44-1.22,1.52L377,121.15a7.58,7.58,0,0,0,.3,4.24c1,2.91,1.84,5.44-2.4,7.58-.34.18-13.52,8.92-13.89,9.09C362.27,142.28,375.46,137.41,376.7,137.7Z"/><path class="cls-50" d="M396.24,150.91l3,.08-3.07,1.43s-3.19-.34-3.4-.28-4.11.33-4.11.33-7.26-1.54-7-1.53l12.72-.08Z"/><polygon class="cls-51" points="382.81 144.48 385.53 144.12 388.13 145.68 389.98 145.12 395.79 147 395.09 147.88 396.27 149.25 395.15 149.53 397.73 150.88 395.37 151.77 392.05 150.81 390.61 151.72 384.1 151.08 384.38 149.41 385.89 149.17 383.89 149.03 383.27 146.28 384.48 146.25 382.81 144.48"/><polygon class="cls-52" points="384.38 149.41 389.29 150.21 389.27 150.53 389.81 150.23 387.11 149.48 387.74 149.34 385.69 149.16 384.38 149.41"/><path class="cls-52" d="M383.27,146.28c.32.17,3.72,1.28,3.58,1.33a23.85,23.85,0,0,1-2.37-1.36Z"/><polygon class="cls-52" points="387.46 147.31 387.67 147.06 388.68 147.03 389.57 147.4 394.14 146.78 396.27 149.25 395.15 149.53 397.73 150.88 395.57 151.67 394.8 150.69 394.26 150.5 394.13 150.16 393.11 150.09 393.68 149.06 389.12 147.91 388.78 147.68 387.45 147.34 387.46 147.31 387.46 147.31"/><path class="cls-51" d="M393.11,150.1s2.23-.39,2.1-.33-1.49.88-1.49.88l.34-.4-1.19.06Z"/><polygon class="cls-52" points="390.83 146.97 392.37 146.03 395.68 147.01 394.13 147.79 392.54 147.12 390.83 146.97 390.83 146.97"/><path class="cls-53" d="M336.77,191.65l3,.08-3.08,1.43s-3.19-.34-3.4-.28-4.11.33-4.11.33-7.26-1.54-7-1.53l12.73-.08Z"/><polygon class="cls-51" points="323.34 185.21 326.06 184.85 328.66 186.41 330.52 185.85 336.32 187.74 335.63 188.62 336.81 189.99 335.69 190.27 338.26 191.62 335.9 192.51 332.58 191.55 331.14 192.46 324.63 191.82 324.91 190.15 326.42 189.91 324.42 189.77 323.8 187.02 325.01 186.98 323.34 185.21"/><polygon class="cls-52" points="324.91 190.15 329.82 190.95 329.81 191.27 330.34 190.97 327.64 190.22 328.27 190.08 326.22 189.9 324.91 190.15"/><path class="cls-52" d="M323.8,187c.32.17,3.72,1.28,3.58,1.32A22,22,0,0,1,325,187Z"/><polygon class="cls-52" points="327.99 188.04 328.2 187.79 329.21 187.77 330.11 188.14 334.68 187.51 336.81 189.99 335.69 190.27 338.26 191.62 336.1 192.41 335.33 191.43 334.79 191.24 334.67 190.9 333.64 190.83 334.22 189.8 329.66 188.64 329.31 188.42 327.98 188.07 327.99 188.04 327.99 188.04"/><path class="cls-51" d="M333.64,190.83s2.23-.38,2.11-.32-1.49.88-1.49.88l.34-.4-1.2.06Z"/><polygon class="cls-52" points="331.36 187.7 332.91 186.76 336.21 187.74 334.66 188.53 333.08 187.85 331.36 187.7 331.36 187.7"/><path class="cls-51" d="M470.54,163.82a5.35,5.35,0,0,0-5,2c-1.64-1-5.9,1.85-7.23,2.43,1.27.55.5,1.52.05,2.28,3-.2-.94,1.25-1.06,1.82,1.71.86,4.17,0,5.57-.91,1.7,1.73,12.09-1.77,5.68-2.52l1.93-.43c-.31-.77.83-3.59-1.23-2.65Z"/><path class="cls-52" d="M470.13,168.9l-4.64,1.52c.29.58-.24.11-.5.09l2.48-1.14-.66,0A9.12,9.12,0,0,1,470.13,168.9Z"/><path class="cls-52" d="M470.5,165.67c-.27.21-3.36,1.8-3.21,1.83C468.12,167,469.37,165.42,470.5,165.67Z"/><path class="cls-52" d="M466.62,167.29c-.49-.52-1.61.08-2.06.4-2.68-.24-5.64,0-6.15,2.81,3-.2-.94,1.25-1.06,1.82,2.09.6,2.13.43,3.32-.89.23-1,1.82,0,.24-1.5C462.08,169.47,465.7,167.85,466.62,167.29Z"/><path class="cls-51" d="M461.71,170.86c-1.87,0-2.79-.2-.47.64C459.69,170.67,462.78,171.42,461.71,170.86Z"/><path class="cls-52" d="M463.23,167.45c-1.35-1.21-3.54.12-4.76.76,1.73,1.11,3-.59,4.76-.76Z"/><g class="cls-54"><path class="cls-55" d="M416.18,144.82a28.75,28.75,0,0,1,4,.6,20.14,20.14,0,0,1,6.43,2.47l.74-.19-.47-.52h2.7l-.72-1.29-2.85-.45-.13-1-4.53-1.65-.7.64-2,.06.16.58-2.57-.53Z"/><polygon class="cls-56" points="408.48 142.69 409.83 142.88 411.06 142.11 411.99 142.39 414.77 141.47 414.41 141.04 414.94 140.37 414.39 140.24 415.6 139.58 414.42 139.15 412.83 139.61 412.11 139.17 408.95 139.47 409.13 140.28 409.87 140.4 408.9 140.46 408.66 141.81 409.26 141.83 408.48 142.69"/><polygon class="cls-57" points="436.32 146.06 436.85 145.46 436.1 144.67 436.67 144.29 436.04 142.71 435.38 142.78 434.61 142.34 434.31 142.57 433.69 141.82 432.85 142.26 433.13 143.15 432.38 143.38 432.1 144.98 433.23 145.11 433.55 144.79 433.43 145.27 435.18 145.74 435.33 145.46 436.32 146.06"/><polygon class="cls-58" points="434.58 150.94 434.89 150.59 434.45 150.13 434.78 149.91 434.42 148.99 434.03 149.02 433.58 148.77 433.41 148.9 433.05 148.46 432.56 148.72 432.72 149.24 432.29 149.38 432.12 150.31 432.78 150.39 432.96 150.2 432.89 150.48 433.91 150.75 434 150.59 434.58 150.94"/><polygon class="cls-59" points="445.38 149.33 445.06 148.97 444.19 148.92 444.07 148.63 442.6 148.27 442.45 148.48 441.86 148.56 441.95 148.72 441.16 148.64 441.26 149.04 442.06 149.26 442.02 149.56 443.22 150.19 443.67 149.91 443.5 149.71 443.86 149.91 444.77 149.56 444.59 149.42 445.38 149.33"/><path class="cls-60" d="M389.09,142.73l.74,1.27,2.84.42.15,1,4.56,1.61.38-.36a.69.69,0,0,1,.13-.34,1.35,1.35,0,0,0,.15-.26.08.08,0,0,1,0,0c0-.05,0-.06-.13-.25a8.63,8.63,0,0,0-.72-.81c-.4-.42-.81-.83-1.17-1.25a15.7,15.7,0,0,1-4-1.73l-.74.19.47.51Z"/><path class="cls-61" d="M409,149.27l.45,0c-.53-.19-1.08-.36-1.63-.6a9.41,9.41,0,0,1-1.26-.71l-.56-.36-2,.69.38.43-.52.68.57.13-1.21.68,1.2.43,1.59-.5.74.44,3.17-.34-.21-.83Z"/><path class="cls-62" d="M382.5,145.38a3.45,3.45,0,0,1,.85-.07,29.54,29.54,0,0,1,3.14.3l.11-.67-1.13-.11-.31.33.12-.49-1.76-.44-.15.28-1-.59-.53.61.76.78Z"/><polygon class="cls-63" points="384.1 139.06 383.8 139.41 384.24 139.86 383.9 140.08 384.27 140.99 384.65 140.95 385.1 141.19 385.28 141.06 385.63 141.49 386.12 141.22 385.95 140.71 386.39 140.57 386.55 139.65 385.89 139.58 385.71 139.77 385.78 139.49 384.76 139.23 384.68 139.4 384.1 139.06"/><path class="cls-64" d="M373.36,140.78l.31.36.87,0v0a3,3,0,0,1,2.15-.7h0l-1.19-.61-.45.29.17.2-.35-.19-.91.35.17.14Z"/></g><g class="cls-65"><path class="cls-66" d="M487.34,147.2l-3.45-.64-2,9.34-16.49,2.43,26,1,4.11-3.78c-1.6-1.34-8.1-1.7-9.47-3.1S488.5,148.61,487.34,147.2Z"/></g><g class="cls-65"><polygon class="cls-67" points="465.86 130.2 464.12 127.81 457.03 139.83 451.01 143.17 448.04 146.41 453.03 144.84 460.85 142.83 468.26 141.07 473.5 139.94 462.77 137.16 465.86 130.2 465.86 130.2"/></g><polygon class="cls-68" points="316.04 177.03 323.16 179.1 327.73 175.69 335.4 164.49 335.88 163.03 324.46 166.13 319.71 171.12 312.28 175.49 316.04 177.03 316.04 177.03"/><g class="cls-69"><polygon class="cls-70" points="549.85 206.27 536.63 204.35 522.71 200.49 507.01 200.12 495.57 198.5 478.18 197.78 471.9 201.38 469.76 205.62 470.94 205.3 491.22 205.68 606.53 208.07 549.85 206.27 549.85 206.27"/></g><path class="cls-71" d="M406.18,134.75l-2.48.61L399.34,133l-.85-.74-2.8-.76-3,.24-4.39-.54-4,.34-3.7-.32-.24-.08-1.32-.15-1.41-.27a6.17,6.17,0,0,1-2.74,2.3,41.6,41.6,0,0,1-4.55,2l2.87.37,12.16-.73,8.28-.28,10.65,1.34,3.15-.61.11-.26Z"/><path class="cls-72" d="M395,129.19l-13.07.05-3.81-.91c.17,1.71-.46,3.26-3.2,4.64l-.79.39,2,.26,12.14-.72,8.27-.28,4.16-.55,10.44-2.45-9.58.85Z"/><path class="cls-73" d="M467.11,112.15a11.79,11.79,0,0,0-1.94-4.18l-2-.74-1.94-.31-4.55-1.85-7.54-3.17-4-3-.72-.61c-1.22-.22-2.43-.53-3.66-.87-3.44-1-6.85-2-10.34-2.84-3.86-1-8.84-1.75-11.32.74a12.26,12.26,0,0,0-1.78,2.51l6,5.36,16.87,4.92,10.34.84,10.36,2.42,6.48,2.74A14.32,14.32,0,0,0,467.11,112.15Z"/><path class="cls-74" d="M443.88,98.14c-1-.2-2-.47-3.05-.75-3.44-1-6.85-2-10.34-2.84s-7.74-1.56-10.4,0l.71.43,5.74,2.32,6.7.8,7.14,2.29,6-.17-1.65-1.39Z"/><path class="cls-75" d="M406.71,104.74a2.37,2.37,0,0,1,.06.74,3.18,3.18,0,0,1-1,1.44.71.71,0,0,1,.06.26.85.85,0,0,1,0,.73,2.58,2.58,0,0,1-1.64,1.44c-1.94.76-3.69,0-5.69,0a20.89,20.89,0,0,0-2.7.26,7.16,7.16,0,0,1,.78.4,11.22,11.22,0,0,0,3,1.82c1,.31,2.11.43,3.1.72,2.1.61,3.42,1.6,3.74,3,.11.48,0,1,.08,1.42a2.8,2.8,0,0,0,.5.95c1.19.48,7.41,1.09,8.59,1.6-5.77-3-6.68-6-4.71-8.94Z"/><polygon class="cls-76" points="551.46 200.05 550.3 199.25 543.5 196.83 533.67 192.92 532.87 192.48 551.46 200.05 551.46 200.05"/><g class="cls-77"><polygon class="cls-78" points="486.88 175.55 485.71 173.29 482.98 173.95 481.28 175.47 481.89 175.94 487.66 185.2 489.91 189.21 488.47 179.17 486.88 175.55 486.88 175.55"/></g><g class="cls-77"><polygon class="cls-79" points="493.96 167.43 492.82 170.79 494.43 173.44 496.64 178.59 503.43 171.89 506.55 174.92 505.77 171.06 501.85 161.31 493.96 167.43 493.96 167.43"/></g><path class="cls-80" d="M368.51,203a30.53,30.53,0,0,1,3.7-.69,18.14,18.14,0,0,1,4.29.15c4.81.67,9.09,2.9,13.8,3.91s9.44,0,14.17.23a30.27,30.27,0,0,1,7.68,1.54c2.69.87,5.4,1.69,8.18,2.31a42,42,0,0,0,7.91,1.07l-4.5-4.76-4.05-2.66-4-1.62-8.36-6-4.54-3.19-3.21-1.2-2.44-.34-2.34-2.88-.5-2.17L391.28,185,385,186.14l-2.78,3.21L373.46,195l-9.79,5.77-2.68,2,4.63.59A13.67,13.67,0,0,0,368.51,203Z"/><path class="cls-81" d="M412.86,213.61l3.84.94,3.7-.26C417.88,214.07,415.37,213.82,412.86,213.61Z"/><g class="cls-82"><path class="cls-83" d="M382.56,191.76c.81.55,1.66,1.07,2.51,1.57,3.61,0,7.41-.74,10.15,1.89.5.48.89,1,1.4,1.5a5.68,5.68,0,0,0,2.41,1.15c2.25.61,4.62.72,6.72,1.72a29.76,29.76,0,0,1,4.07,2.82,24.79,24.79,0,0,0,5.49,2.31,25.26,25.26,0,0,1,5.38,2.68c1.87,1.28,4.16,2,6.19,3l.62.35-3.76-4-4.05-2.66-4-1.62-8.36-6-4.54-3.19-3.21-1.2-2.44-.34-2.34-2.88-.5-2.17L391.28,185,385,186.14l-2.78,3.21-1.46.94.09.1A13.13,13.13,0,0,0,382.56,191.76Z"/></g><path class="cls-84" d="M445.61,189.23c.93,1,1.79,2.08,2.62,3.16l-2.3-11.94-9.29-11.82.4-8.08-32.67-8.48L391.43,150l-38.87.94,24.27,4.2,9.8,2.89,3.6,2.06,6.13.81,23,4.58,5.81,0,13.49,11.89,1.6-.17,5.19,11.85C445.49,189.12,445.55,189.16,445.61,189.23Z"/><path class="cls-85" d="M378.83,145.27c-1.78-5.5-4.2-11.6-11.2-14.06-2.92-1-6.46-1.34-8.83-2.91,1.8-1.82-2.25-5.17-2.49-7.3-3.25.63.41,2.71-2.9,2.83-2.11.07-1.24.31-3.3.12-.61-.06-.93,1.56-1.27,1.94-.53.62,1.67,1.8,2.42,2.22a8.14,8.14,0,0,0,4.57,1.49c-2.61,2.69-8,3.4-10.72,6-3.09,3-1.55,6.93-1.24,10.48.49,5.59-2.42,11.67.73,16.66,1.39-2.4,5.91-2.92,9.37-2.51s7.08,1.33,10.42.3c2.68-.83,4.65-2.79,7.46-3.27a33.68,33.68,0,0,1,4.38-.11c3.56-.13,5.71-.91,5.38-3.31C381.22,151,379.73,148.06,378.83,145.27Z"/><path class="cls-86" d="M343.29,139.25a22.81,22.81,0,0,1,3.25,4.45c.31-1,.63-2,.95-3,1.23.88,1.37,2.27,1.87,3.48a3.49,3.49,0,0,0,3.63,2.24,4.09,4.09,0,0,0-.21-5.37c-.31-.34-.37-1,.2-1,.41.75.13-2.37.78-3.09.27-.3,2.37,2.51,2.67,2.22s1-.4,1.2-.1c-1.67.8.29,2.13-1,3.67a10,10,0,0,0,3.73-1.32c.49.31-.88-5.29-.23-5.21-.55-2.89,6.64,5.59,5,3,1.49,1.11-.17-3.67,1-2.36,2.18,2.49,2.49,3.48,5.66,5.34-.22-2.12.2-2.14,1.34-4.17.39-.68.92-1.37,1.23-2.06a28.87,28.87,0,0,1,4.47,9.29c.9,2.79,2.39,5.73,2.78,8.6.33,2.4-1.82,3.18-5.38,3.31a33.68,33.68,0,0,0-4.38.11c-2.81.48-4.78,2.44-7.46,3.27-3.34,1-7,.12-10.42-.3s-8,.11-9.37,2.51c-3.15-5-.24-11.07-.73-16.66C343.67,143.87,343,141.46,343.29,139.25Z"/><path class="cls-87" d="M381.61,153.87c-.39-2.87-1.88-5.81-2.78-8.6l-.39-1.16,0-.06c-.13-.38-.26-.76-.4-1.15l0-.05c-1.75-4.77-4.38-9.54-10.37-11.64a38.69,38.69,0,0,0-3.88-1.06l-.22-.06-.38-.1-.48-.12-.23-.06-.67-.2-.22-.07-.51-.17-.19-.07c-.22-.08-.44-.16-.65-.26l-.06,0-.21-.1c.58-.37,1.06-.82.66-1.14a1.82,1.82,0,0,0-1.31-.06,1,1,0,0,1,0-.43,1.41,1.41,0,0,1,0-.29h-.05c-.15-1.86-2.75-4.31-2.94-6-3.25.63.41,2.71-2.9,2.83-2.11.07-1.24.31-3.3.12-.61-.06-.93,1.56-1.27,1.94-.53.62,1.67,1.8,2.42,2.22a8.56,8.56,0,0,0,2.71,1.23l-.21.11c-.31.17-.65.43-.46.66a.66.66,0,0,0,.33.18,3.74,3.74,0,0,0,1.45,0l-.05,0c-.15.11-.31.23-.47.33l-.24.16-.51.31-.23.13-.66.34c-2.65,1.31-5.88,2.21-7.81,4.06a5.91,5.91,0,0,0-1.82,3.62h0a7.51,7.51,0,0,0-.07.84h0a23.84,23.84,0,0,0,.44,4.34c0,.27.07.53.11.79v.07c0,.28.07.55.09.82.49,5.59-2.42,11.67.73,16.66,1.31-2.25,5.36-2.85,8.71-2.57l.66.06c1.73.21,3.5.54,5.25.69a14.37,14.37,0,0,0,4.54-.22l.63-.17c2.68-.83,4.65-2.79,7.46-3.27a33.68,33.68,0,0,1,4.38-.11,14.42,14.42,0,0,0,2.89-.34C380.89,156.4,381.83,155.52,381.61,153.87Z"/><path class="cls-88" d="M355.83,129.6l-.49-.07c.61-.21,1.24-.4,1.83-.64a10.91,10.91,0,0,1,1.74-.7l-.11.11c1.68,1.11,3.94,1.59,6.15,2.14a2.45,2.45,0,0,0,0,1.42,10.54,10.54,0,0,0,1.1,1.71,3,3,0,0,1,.4,2.15,18.61,18.61,0,0,0-6.35-4.41l-1.08,3.48c-1.38-.36-.95-2.23-2.4-2.46l-1.38,1.46a.7.7,0,0,0-.42-.69c-.27.27-.93.52-1.06.22a.38.38,0,0,1,0-.21c.14-.46.27-.91.41-1.36a3.26,3.26,0,0,0-1.4-.13A10.74,10.74,0,0,0,355.83,129.6Z"/><path class="cls-89" d="M360.18,129a15.12,15.12,0,0,1-5.27,1.36,7.88,7.88,0,0,0,.92-.8l-.49-.07c.61-.21,1.24-.4,1.83-.64a10.91,10.91,0,0,1,1.74-.7l-.11.11A8.29,8.29,0,0,0,360.18,129Z"/><path class="cls-89" d="M353.73,129.24a3.87,3.87,0,0,1,1.07-.55l.61-.16a8,8,0,0,0,1.34-.58,12.34,12.34,0,0,1,2.55-1,1.41,1.41,0,0,0,0,.29,1.34,1.34,0,0,0,0,.49c-.15.18-.31.35-.48.52l.4.25-.59.38a7.07,7.07,0,0,1-1.64.58l-1.44.38a4.11,4.11,0,0,0,.3-.29A18,18,0,0,1,353.73,129.24Z"/><path class="cls-85" d="M357.1,128.36a8.46,8.46,0,0,1-1.4.45l-.63.1a4.63,4.63,0,0,0-1.31.54c-.31.17-.65.43-.46.66a.66.66,0,0,0,.33.18,4,4,0,0,0,1.57,0l1.95-.31a7.06,7.06,0,0,0,1.7-.43c.53-.24,2.42-1.17,1.74-1.72S357.73,128.13,357.1,128.36Z"/><path class="cls-90" d="M351.26,128.11a15.2,15.2,0,0,0,2,1l.6-.18h-.17a2.88,2.88,0,0,1-.81-.23,13.57,13.57,0,0,1-1.74-1.17c-.27-.18-.57-.34-.84-.53a7.79,7.79,0,0,1-.66-.62,2.69,2.69,0,0,1-.47-.65,1.18,1.18,0,0,0-.11-.19,1.26,1.26,0,0,1-.2.34C348.31,126.51,350.51,127.69,351.26,128.11Z"/><path class="cls-91" d="M355.08,130.15h0s0,0,0,0h-.13s0,0,0,0h0a4.21,4.21,0,0,1-.5,0,.52.52,0,0,1-.27-.1.28.28,0,0,1-.1-.33c.07-.16.25-.26.39-.38h0a.21.21,0,0,1-.05-.13l-.55.19-.09,0c-.31.17-.65.43-.46.66a.66.66,0,0,0,.33.18,3.74,3.74,0,0,0,1.45,0l-.05,0c-.15.11-.31.23-.47.33l-.24.16-.51.31-.23.13-.66.34c-2.65,1.31-5.88,2.21-7.81,4.06a5.91,5.91,0,0,0-1.82,3.62h0a7.51,7.51,0,0,0-.07.84h0a23.84,23.84,0,0,0,.44,4.34c0,.27.07.53.11.79v.07c0,.28.07.55.09.82.45,5.13-2,10.68.08,15.42a2.73,2.73,0,0,1,.28-.33,5.06,5.06,0,0,0,1.12-3.41,1.85,1.85,0,0,1-1.06-2.32,16.08,16.08,0,0,0,.38-2.76c.12-.64.62-1.34.58-2s-.66-1-.66-1.69a7.24,7.24,0,0,1,.31-1.3c.14-.81.14-.24-.3-1.22-.34-.75-.08-1.21,0-2,0,.1-.08-.53-.12-.77a4.43,4.43,0,0,1,.25-1.38,2.73,2.73,0,0,1-.11-1.61c.07-.18.49-1.2.46-.59.06-1.49-.41-2.44.75-3.78a10.63,10.63,0,0,1,3.4-2.19,20.15,20.15,0,0,0,4.72-2.94,2.45,2.45,0,0,1,.74-.43,4.08,4.08,0,0,0,.43-.54.42.42,0,0,0,0-.1A.2.2,0,0,1,355.08,130.15Z"/><polygon class="cls-71" points="439.66 167.66 435.91 164.6 416.1 160.43 412.68 160.1 370.98 154.91 347.99 156.97 340.42 162.95 343.68 163.2 349.35 164.24 355.1 164.79 367.26 167.69 376.01 171.16 377.17 171.31 386.99 168.2 387.21 168.07 395.02 168.41 405.01 170.22 417.07 176.47 421.8 174.66 440.47 172.75 439.66 167.66 439.66 167.66"/><polygon class="cls-92" points="352.76 157.35 355.19 160.7 360.14 160.83 367.7 161.03 372.51 162.89 377.36 163.02 387.46 161.97 393.84 159.86 396.24 158.43 370.98 154.91 347.99 156.97 352.76 157.35 352.76 157.35"/><polygon class="cls-93" points="498.78 166.57 501.98 163.83 502.09 161.15 484.72 166.21 479.42 168.06 474.9 167.79 456.07 170.34 454.95 170.39 452.06 171.24 451.76 171.96 452.38 173.78 455.95 177.34 458.1 178.62 474.31 178.03 481.68 174.55 483.7 173.34 483.85 173.16 485 172.72 490 174.25 494.77 171.83 495.01 171.47 498.78 166.57 498.78 166.57"/><g class="cls-94"><polygon class="cls-95" points="452.36 175.07 459.39 174.27 471.2 172.39 476.09 167.89 474.9 167.79 456.07 170.34 454.95 170.39 452.06 171.24 452.02 174.37 452.36 175.07 452.36 175.07"/></g><polygon class="cls-96" points="380.85 190.76 366.85 189.69 362.95 186.31 354.41 189.03 349.04 188.1 343.3 188 337.12 190.03 333.06 189.96 327.58 191.07 322.17 190.98 316.65 192.55 310.1 194.19 305.28 195.2 307.87 197.11 319.37 198.17 330.25 198.36 345.2 198.61 352.37 197.86 368.29 197.52 380.85 190.76 380.85 190.76"/><g class="cls-97"><polyline class="cls-98" points="382.43 117.14 392.65 120.67 401.71 120.86 403.58 125.17 412.25 127.8 393.55 124.78 387.56 123.86 382.77 120.88 380.24 118.79 381.86 116.74 383.4 116.97"/></g><path class="cls-99" d="M462,124l5.48-9.58a1.11,1.11,0,0,1,0-.19l-3.28-.76-1.75-1.18-1.88.35h.33l1.18,1.42-.25,1.85Z"/><g class="cls-54"><path class="cls-100" d="M356.76,179.18a21.35,21.35,0,0,1,3.19.48,15.19,15.19,0,0,1,5.06,2l.6-.15-.36-.43h2.16l-.53-1.05-2.26-.37-.08-.82L361,177.5l-.58.52-1.62.06.1.47-2-.43Z"/><polygon class="cls-101" points="350.67 177.44 351.74 177.59 352.75 176.97 353.48 177.19 355.74 176.44 355.46 176.09 355.91 175.54 355.46 175.43 356.46 174.9 355.53 174.54 354.24 174.92 353.67 174.56 351.13 174.8 351.26 175.47 351.85 175.57 351.07 175.62 350.84 176.72 351.31 176.73 350.67 177.44"/><polygon class="cls-102" points="372.83 180.18 373.27 179.69 372.69 179.05 373.16 178.74 372.71 177.45 372.19 177.5 371.58 177.15 371.33 177.34 370.86 176.72 370.18 177.09 370.37 177.81 369.76 178 369.49 179.31 370.39 179.41 370.65 179.15 370.54 179.54 371.92 179.92 372.05 179.69 372.83 180.18"/><polygon class="cls-103" points="371.28 184.17 371.54 183.88 371.2 183.5 371.47 183.33 371.21 182.57 370.9 182.6 370.55 182.4 370.41 182.51 370.14 182.15 369.74 182.36 369.85 182.78 369.5 182.89 369.33 183.66 369.86 183.72 370.01 183.56 369.95 183.79 370.75 184.01 370.83 183.88 371.28 184.17"/><polygon class="cls-104" points="379.96 182.85 379.72 182.56 379.03 182.52 378.94 182.28 377.78 181.99 377.65 182.16 377.18 182.22 377.25 182.36 376.61 182.29 376.68 182.62 377.32 182.8 377.27 183.04 378.21 183.56 378.58 183.32 378.45 183.16 378.73 183.32 379.47 183.04 379.33 182.92 379.96 182.85"/><path class="cls-105" d="M335.16,177.48l.55,1,2.26.34.1.82,3.6,1.31.31-.29a.61.61,0,0,1,.11-.28,1.2,1.2,0,0,0,.13-.21v0s0,0-.1-.22-.35-.44-.55-.66-.62-.67-.9-1a12,12,0,0,1-3.13-1.42L337,177l.36.42Z"/><path class="cls-106" d="M350.88,182.81l.36,0c-.42-.16-.85-.3-1.28-.49a6.78,6.78,0,0,1-1-.58l-.44-.29-1.59.56.3.35-.44.56.45.1-1,.56.94.35,1.29-.41.58.36,2.54-.28-.14-.67Z"/><path class="cls-107" d="M329.82,179.64a2.57,2.57,0,0,1,.68,0,22.76,22.76,0,0,1,2.5.24l.11-.54-.91-.09-.26.26.11-.39-1.39-.37-.12.23-.78-.48-.45.5.59.64Z"/><polygon class="cls-108" points="331.27 174.48 331.01 174.76 331.35 175.13 331.08 175.31 331.35 176.06 331.65 176.02 332.01 176.22 332.15 176.11 332.43 176.47 332.82 176.25 332.7 175.83 333.05 175.71 333.2 174.96 332.68 174.9 332.53 175.06 332.59 174.83 331.79 174.62 331.72 174.75 331.27 174.48"/><path class="cls-109" d="M322.62,175.89l.25.29.69,0v0a2.41,2.41,0,0,1,1.74-.57h0l-.94-.5-.37.24.13.16-.28-.16-.73.29.13.12Z"/></g><g class="cls-54"><path class="cls-110" d="M425.73,111.07a10.75,10.75,0,0,1-1.77-.86,6,6,0,0,1-2.23-2.1h-.44l0,.31L420,108l-.16.71,1.24.63-.34.49,1.6,1.45.61-.21,1.05.26.15-.29,1.09.62Z"/><polygon class="cls-111" points="428.75 113.2 428.14 112.92 427.21 113.11 426.86 112.84 425.08 112.88 425.09 113.14 424.55 113.39 424.78 113.53 423.9 113.67 424.31 114.05 425.31 114.06 425.5 114.38 427.21 114.69 427.45 114.27 427.13 114.11 427.64 114.22 428.3 113.6 428.01 113.51 428.75 113.2"/><polygon class="cls-112" points="416.12 107.59 415.61 107.8 415.66 108.28 415.22 108.38 414.88 109.22 415.24 109.28 415.45 109.6 415.7 109.53 415.69 109.98 416.3 109.89 416.53 109.43 417 109.42 417.8 108.7 417.28 108.48 416.99 108.59 417.25 108.38 416.57 107.9 416.37 108.02 416.12 107.59"/><polygon class="cls-113" points="419 105.54 418.7 105.66 418.73 105.94 418.47 105.99 418.28 106.48 418.48 106.52 418.61 106.7 418.75 106.66 418.75 106.92 419.1 106.87 419.23 106.6 419.5 106.6 419.96 106.18 419.67 106.05 419.5 106.12 419.65 105.99 419.25 105.72 419.14 105.78 419 105.54"/><polygon class="cls-114" points="412.95 104.75 412.96 104.97 413.37 105.11 413.31 105.27 413.89 105.65 414.06 105.57 414.38 105.62 414.4 105.53 414.77 105.68 414.88 105.48 414.57 105.26 414.72 105.12 414.38 104.66 414.04 104.73 414.04 104.84 413.94 104.7 413.34 104.73 413.38 104.83 412.95 104.75"/><path class="cls-115" d="M438.56,116l.13-.72-1.27-.61.32-.51-1.67-1.43-.33.12a1.15,1.15,0,0,1-.2.15l-.18.1,0,0a.22.22,0,0,0,0,.14,2.42,2.42,0,0,0,0,.5c0,.26.08.51.1.77a4.58,4.58,0,0,1,1.32,1.41h.45l0-.31Z"/><path class="cls-116" d="M431.12,110l-.24,0c.19.17.4.33.58.52a2.37,2.37,0,0,1,.35.52l.14.25,1.26,0,0-.27.53-.25-.24-.14.88-.15-.44-.37h-1l-.2-.31-1.72-.29-.22.42Z"/><path class="cls-117" d="M442.93,115.66a1.7,1.7,0,0,1-.46-.08A12.74,12.74,0,0,1,441,115l-.32.3.53.22.29-.11-.25.22.71.46.18-.11.28.43.5-.22-.08-.49Z"/><polygon class="cls-118" points="439.65 118.51 439.94 118.38 439.9 118.1 440.15 118.04 440.32 117.54 440.11 117.5 439.98 117.32 439.84 117.36 439.83 117.1 439.48 117.16 439.36 117.43 439.08 117.43 438.64 117.86 438.95 117.99 439.11 117.92 438.97 118.05 439.38 118.32 439.49 118.26 439.65 118.51"/><path class="cls-119" d="M445.78,119.23l0-.22-.42-.15v0a2.16,2.16,0,0,1-1.36,0h0l.37.47.34-.07v-.12l.1.14.61,0,0-.09Z"/></g><g class="cls-54"><path class="cls-120" d="M432.45,101.76a10.3,10.3,0,0,1-1.37-.4,5.86,5.86,0,0,1-2-1.15l-.29,0,.1.2-1-.12.08.47,1,.29-.09.36,1.42.78.34-.19.74.08,0-.21.86.3Z"/><polygon class="cls-121" points="434.95 102.86 434.49 102.73 433.95 102.94 433.65 102.8 432.52 102.98 432.6 103.15 432.32 103.36 432.5 103.43 431.98 103.6 432.34 103.81 432.98 103.72 433.19 103.91 434.37 103.96 434.41 103.67 434.16 103.59 434.52 103.61 434.77 103.15 434.56 103.12 434.95 102.86"/><polygon class="cls-122" points="425.35 100.38 425.08 100.56 425.25 100.87 424.99 100.97 425 101.55 425.25 101.56 425.47 101.75 425.61 101.68 425.73 101.97 426.09 101.86 426.11 101.53 426.41 101.49 426.73 100.95 426.34 100.85 426.18 100.95 426.29 100.79 425.72 100.55 425.63 100.64 425.35 100.38"/><polygon class="cls-123" points="426.64 98.79 426.48 98.89 426.58 99.07 426.43 99.13 426.44 99.47 426.58 99.47 426.7 99.58 426.79 99.54 426.86 99.71 427.07 99.64 427.08 99.46 427.25 99.43 427.44 99.12 427.21 99.06 427.12 99.12 427.18 99.03 426.85 98.89 426.8 98.94 426.64 98.79"/><polygon class="cls-124" points="422.55 98.83 422.61 98.97 422.92 99.03 422.92 99.14 423.4 99.33 423.48 99.26 423.7 99.27 423.69 99.2 423.97 99.27 423.98 99.13 423.73 99.01 423.78 98.91 423.44 98.64 423.24 98.72 423.27 98.8 423.17 98.71 422.8 98.79 422.84 98.84 422.55 98.83"/><path class="cls-125" d="M442,103.76l-.11-.48-1-.28.07-.35-1.45-.77-.18.1a.31.31,0,0,1-.09.11l-.08.09h0a.19.19,0,0,0,0,.1c0,.06.1.21.16.31s.19.33.27.49a4.51,4.51,0,0,1,1.22.79l.3,0-.11-.2Z"/><path class="cls-126" d="M435.6,100.56h-.16l.51.28a2.77,2.77,0,0,1,.36.31l.16.15.79-.15-.08-.16.27-.21-.19-.07.52-.18-.38-.2-.63.09-.21-.18-1.18,0,0,.29Z"/><path class="cls-127" d="M444.66,103.15a1.62,1.62,0,0,1-.31,0c-.37-.07-.75-.15-1.1-.25l-.12.22.4.1.15-.1-.1.16.58.24.09-.09.29.25.26-.19-.18-.31Z"/><polygon class="cls-128" points="443.33 105.28 443.48 105.17 443.38 104.99 443.52 104.93 443.5 104.59 443.36 104.59 443.22 104.48 443.14 104.52 443.07 104.35 442.86 104.42 442.86 104.61 442.68 104.64 442.51 104.95 442.74 105.01 442.83 104.95 442.77 105.05 443.11 105.18 443.16 105.13 443.33 105.28"/><path class="cls-129" d="M447.43,105.18l-.07-.14-.31-.05v0a1.26,1.26,0,0,1-.86.14h0l.36.27.2-.08,0-.08.1.08.37-.08-.05,0Z"/></g><polygon class="cls-130" points="386.51 165.84 404 164.5 403.42 172.7 387.57 173.9 386.51 165.84"/><path class="cls-131" d="M398.71,159.57l-3.07,0a1.51,1.51,0,0,1-3-.05l-3-.05c-.12.35-3.14,6.42-3.14,6.42L404,164.5Z"/><polygon class="cls-132" points="386.51 165.84 382.94 166.33 385.08 173.72 387.57 173.9 386.51 165.84"/><path class="cls-133" d="M387.88,170c1,0,1.75.74,2.71,1,1.93.49,3.76-1.18,5.78-1.2a6.67,6.67,0,0,0,1.95-.05,5.73,5.73,0,0,0,1-.56c1.56-.92,3.7-.45,5.47.12a11.47,11.47,0,0,1,3.3,1.46,3,3,0,0,1,1.43,2.73l-8.77,2.1a8.73,8.73,0,0,1-3.12.36,3.91,3.91,0,0,0-1.73-.06,5.28,5.28,0,0,0-1.07.75c-1,.63-2.35.36-3.58.28a37.43,37.43,0,0,0-5.58.42c-2.19.18-9.3.44-6.33-2.67,1.14-1.19,2.73-1.64,4.32-2.27C385,171.84,386.33,170,387.88,170Z"/><path class="cls-134" d="M385.16,172.2a22.7,22.7,0,0,0,3.95.21c.78-.09,1.52-.35,2.29-.48s1.57-.22,2.35-.3c1.54-.16,3-.55,4.46-.83a21.92,21.92,0,0,1,4.36-.15,29.14,29.14,0,0,0,3.54-.7l.42,0c-.57-.24-1.17-.44-1.78-.63-1.77-.57-3.91-1-5.47-.12a5.73,5.73,0,0,1-1,.56,6.67,6.67,0,0,1-1.95.05c-2,0-3.85,1.69-5.78,1.2-1-.24-1.71-1-2.71-1-1.38,0-2.59,1.46-3.8,2.17C384.44,172.16,384.8,172.17,385.16,172.2Z"/><path class="cls-135" d="M496.49,202.27c2.82.07,5.74.15,8.32,1.23,1.4.58,2.66,1.44,4.09,2,4.17,1.53,9.27,0,13.14,2.1-4.16,2.09-9.37,1.13-14.2.93-2.45-.1-4.9,0-7.34.13-3.34.15-16.14,3.07-17.79,0C479.52,202.65,493.68,202.21,496.49,202.27Z"/><path class="cls-136" d="M396.86,208.92a11.45,11.45,0,0,0-4.6,1.68c.65.46.09,1.37.19,2.09A1.85,1.85,0,0,0,394,214a6.11,6.11,0,0,0,2.29-.1c-.16.5.62.8,1.21.86l14.18,1.59c2.27.25,4.7.48,6.68-.49-2.8-.48-5.62-1.12-8.45-1.4-1.65-.16-3.63.16-5.23-.29C400.44,213,402.65,207.69,396.86,208.92Z"/><path class="cls-137" d="M295.54,204.67c0,.46.66.66,1.18.73l12.8,1.7a25.63,25.63,0,0,0,4.54.33c1.77-.07,22.39,2.1,23.2.91,1.16-1.73-13.86-4.76-15.12-5.35-4.21-2-7-.91-11.29.21C309.48,203.55,295.54,204.13,295.54,204.67Z"/><path class="cls-138" d="M268.81,193.48a13,13,0,0,1,3.16-1.25,106.44,106.44,0,0,1,20.54-3.89c-1.42,0-2.49,1-3.61,1.8-3,2.05-7.09,2.35-10.63,3.61-1.14.41-2.23.92-3.36,1.34a39.47,39.47,0,0,1-12.46,2.08c.53-1.23,1.62-.94,2.75-1.31C266.67,195.39,267.56,194.26,268.81,193.48Z"/><path class="cls-139" d="M447.74,212.62l-12,1.64a14.38,14.38,0,0,1-2.37.18c-1.75-.08-6.86-.11-8.11-1.19-2.52-2.19,1.26-2.36,3-2.47a63,63,0,0,1,9.81.19C440.79,211.22,445.2,213,447.74,212.62Z"/><path class="cls-140" d="M452.66,211.1c.86.11,1.73.24,2.58.42a9.48,9.48,0,0,0,2.78.39,8.6,8.6,0,0,0,3.47-1.53,17.91,17.91,0,0,1,5.32-2,5.46,5.46,0,0,1-1.56,1.62l-4.59,3.64a4.63,4.63,0,0,1-1.71,1c-1.94.48-4-1.37-5.9-.8-.64.19-1.15.63-1.77.87a6.11,6.11,0,0,1-2.89.11l-3.92-.47a23,23,0,0,1-5.35-1.1c-2.18-.83-2.95-1.76-.16-2.1A55.58,55.58,0,0,1,452.66,211.1Z"/><path class="cls-141" d="M564.07,200.36a11.24,11.24,0,0,1,1.87-.84,6.48,6.48,0,0,1,3,.23,110,110,0,0,1,10.85,3,9.54,9.54,0,0,0,3.23.77c1.15,0,2.26-.44,3.42-.39s2.25.6,3.41.66a13.6,13.6,0,0,0,3.1-.47,3.53,3.53,0,0,1,3,.56c.44.41.68,1,1.27,1.25a4.53,4.53,0,0,0,1.38.08c.47,0,1,.31,1,.71L588,205.79a26.11,26.11,0,0,1-4.76-.35c-1-.21-2.06-.55-3.11-.69a19.84,19.84,0,0,0-3.36,0c-5.93.26-11.87-.6-17.75-1.47a3.07,3.07,0,0,1-1.25-.36,2.51,2.51,0,0,1-.83-1.31c-.17-.49-.33-1.07,0-1.46.9-1,2.06.43,2.9.71A6.45,6.45,0,0,0,564.07,200.36Z"/><path class="cls-142" d="M446.94,113l1.85-3.78c.49-2.24-12.32-4.93-12.84-2.55,0,.14-1.06,8-1.06,8Z"/><path class="cls-143" d="M433.31,108.76s2.36,0,2.35,0-.65,5-.65,5l-2.33-.54Z"/><polygon class="cls-144" points="447.91 111.03 444.08 110.59 440.78 121.45 442.52 122.03 447.91 111.03"/><path class="cls-145" d="M431.91,118.93l8.87,2.52,3.3-10.86s-6.3,3.39-10.81-1.75Z"/><path class="cls-146" d="M437.62,120.55c.35-1.92,1.24-6.52,1.74-8.86a10.25,10.25,0,0,0,2.17-.23c-.7,2.12-2.34,7.26-3,9.35Z"/><path class="cls-146" d="M434,119.49c.26-1.84.86-6.59,1.2-9a7.61,7.61,0,0,0,1.82.84l-1.59,8.6Z"/><path class="cls-147" d="M447.91,111s-.91-.45-1-.46-3.33-.37-3.33-.37l.5.39Z"/><path class="cls-148" d="M446.66,119.86a1.18,1.18,0,0,0-.25-.45c-.4-.33-1,.06-1.37.42-.15-.42-.75-.63-1.28-.64s-1.06.13-1.59.12c-1.55,0-2.95-1.17-4.46-.91a9.5,9.5,0,0,0-1.18.37c-.51.17-3.54-.47-4.09-.41-3.08.36-3.77,1-6.83.44,2,1.48,5.1,1.07,7.65,1.77.95.26,1.83.67,2.79.91a15.37,15.37,0,0,0,2.26.32c3.61.32,8.27.87,11.54-.65C448.73,121,447.13,120.92,446.66,119.86Z"/><path class="cls-149" d="M446.46,120.92a5,5,0,0,0-1.62-.27c-1.53-.12-2.48-.67-4-.06-.59.25-1,.69-1.77.21-.26-.16-.39-.53-.61-.73a2.85,2.85,0,0,0-1.62-.63,4.47,4.47,0,0,1-1.66-.73,4.56,4.56,0,0,0,1.32.06,9.5,9.5,0,0,1,1.18-.37c1.51-.26,2.91.9,4.46.91.53,0,1.05-.12,1.59-.12s1.13.22,1.28.64c.33-.36,1-.75,1.37-.42a1.18,1.18,0,0,1,.25.45c.47,1.06,2.07,1.15,3.19,1.29a9.22,9.22,0,0,1-1.77.6C447.53,121.5,447.05,121.15,446.46,120.92Z"/><path class="cls-150" d="M444,121.85c.4.06.77,0,1.16.08a2.35,2.35,0,0,1,.62.17A32.59,32.59,0,0,1,441,122l.36-.17C442.42,121.37,443,121.66,444,121.85Z"/><path class="cls-151" d="M431.89,118.43a10.75,10.75,0,0,0,1.33.77c.81.38,1.52,1,2.36,1.27a8.08,8.08,0,0,0,1.06.24c.87.24.87.59,1.42,1.05l0,0a15.28,15.28,0,0,1-2-.3c-1-.24-1.84-.65-2.79-.91-2.55-.7-5.66-.29-7.65-1.77C428.48,119.31,429.26,118.79,431.89,118.43Z"/><polygon class="cls-152" points="429.35 171.77 472.98 178.59 466.56 197.07 427.03 190.84 429.35 171.77"/><path class="cls-153" d="M463,164.3l-7.47-1.86c-.33,1.46-1.87,2.68-4.33,2.2-2.67-.52-3.53-2.48-3-4l-7.3-1.82c-.51.74-11.58,13-11.58,13L473,178.59Z"/><polygon class="cls-154" points="429.35 171.77 420.31 170.87 421.04 189.03 427.03 190.84 429.35 171.77"/><path class="cls-155" d="M452.35,201.24c2.69.1,5.29-.84,7.78-1.55s5.1-1.35,7.62-2.07a73.22,73.22,0,0,1,8.08-2,28.53,28.53,0,0,1,3.32-.35l-.08-.1A28.62,28.62,0,0,0,471.9,190c-4-2.29-9-4.58-13.31-3.37a13.06,13.06,0,0,1-2.71.73c-1.6.13-3.18-.63-4.78-1-5-1.09-10.46,1.71-14.89-.51-2.19-1.09-3.57-3.23-6-3.79-3.81-.86-8.21,2.62-11.89,3.08-4.27.53-8.44.65-12,2.74-9.15,5.44,8.4,8.89,13.87,9.71,4.66.7,9.43.86,13.92,2.2,2.95.89,6.18,2.28,8.93,1.39a13.75,13.75,0,0,1,3.07-1.12c1.44-.13,2.82.63,4.19,1.12a10.84,10.84,0,0,0,1.23.37A1,1,0,0,1,452.35,201.24Z"/><path class="cls-156" d="M477.48,196.59c-2.67.56-5.26,1.35-7.87,2.09-1.11.32-2.23.61-3.35.91l3.06-.74a91.62,91.62,0,0,1,10.59-2c1.27-.15,2.57-.25,3.87-.29-.1-.23-.22-.45-.34-.68A29.72,29.72,0,0,0,477.48,196.59Z"/><path class="cls-157" d="M469.86,187.6a1.88,1.88,0,0,1,.14-.24c-3.35-1.61-7.05-2.74-10.39-1.81a14.33,14.33,0,0,1-2.7.73c-1.61.13-3.18-.63-4.79-1-5-1.09-10.46,1.71-14.89-.5-2.19-1.09-3.57-3.23-6-3.79-3.39-.77-7,2.06-10.41,3.46.88.21,1.52-.2,2.39.06,3.15,1,6.23,2.3,9.55,2.72,1.95.24,3.93,0,5.9.19s4,.4,5.94.66c3.85.49,7.56.4,11.4.6s7.1,1.27,10.77,2.13a12.06,12.06,0,0,0,1.77.28C468.92,189.92,469.36,188.75,469.86,187.6Z"/><path class="cls-158" d="M422.17,185.58c3.15.95,6.23,2.3,9.54,2.71,2,.25,3.94.05,5.91.2s4,.4,5.94.65c3.84.49,7.56.4,11.39.61s7.11,1.26,10.78,2.13c3,.71,6,.05,9.07.41.36,0,.71.09,1.07.15-1.25-.88-2.61-1.69-4-2.47-4-2.29-9-4.58-13.31-3.37a13.06,13.06,0,0,1-2.71.73c-1.6.13-3.18-.63-4.78-1-5-1.09-10.46,1.71-14.89-.51-2.19-1.09-3.57-3.23-6-3.79-3.38-.77-7.23,1.89-10.63,2.82C420.43,185.08,421.3,185.31,422.17,185.58Z"/><g class="cls-159"><path class="cls-160" d="M463,164.3l-7.47-1.86c-.33,1.46-1.87,2.68-4.33,2.2-2.67-.52-3.53-2.48-3-4l-7.3-1.82c-.51.74-11.58,13-11.58,13L473,178.59Z"/><path class="cls-161" d="M452.35,201.24c2.69.1,5.29-.84,7.78-1.55s5.1-1.35,7.62-2.07a73.22,73.22,0,0,1,8.08-2,28.53,28.53,0,0,1,3.32-.35l-.08-.1a18.7,18.7,0,0,0-3.2-2.76h0c-1.26-.88-2.61-1.69-4-2.47-.77-.44-1.58-.88-2.42-1.3l3.5-10.08-43.63-6.82-9-.9.55,13.57-.16.06-.41.14-.3.09-.38.12a9.44,9.44,0,0,1-1.32.28c-4.27.53-8.44.65-12,2.74-9.15,5.44,8.4,8.89,13.87,9.71,4.66.7,9.43.86,13.92,2.2,2.95.89,6.18,2.28,8.93,1.39a13.75,13.75,0,0,1,3.07-1.12c1.44-.13,2.82.63,4.19,1.12a10.42,10.42,0,0,0,1.24.37A1,1,0,0,1,452.35,201.24Z"/></g><path class="cls-162" d="M550.3,199.25l-6.8-2.42-9.83-3.91-4.11-3.15-.43-7-11.74-12.32-8.83-9.82-10.06-2.4-1-7.11a64.56,64.56,0,0,1-21.16-10.81,49.51,49.51,0,0,1-7.49-6.69c-1.58-1.79-3.62-3.89-4-5.9s1.09-4,1.65-6a19,19,0,0,0,.6-9.58,11.79,11.79,0,0,0-1.94-4.18l-2-.74-1.94-.31-4.55-1.85-7.54-3.17-4-3-.72-.61c-1.22-.22-2.43-.53-3.66-.87-3.44-1-6.85-2-10.34-2.84-3.86-1-8.84-1.75-11.32.74-1.59,1.59-1.94,3.55-3.86,5a22.63,22.63,0,0,1-5.94,2.84l-.21.56-2.51.57a5.15,5.15,0,0,1,.12,1.17,3.18,3.18,0,0,1-1,1.44.71.71,0,0,1,.06.26.85.85,0,0,1,0,.73,2.58,2.58,0,0,1-1.64,1.44c-1.94.76-3.69,0-5.69,0-1.14,0-2.23.31-3.41.28a12.67,12.67,0,0,1-1.37-.12l-3.43,2.19-3.61,1.08-.66.19-.18.07-1.23.49-2.15,1.44-1.22,1.52L377,121.15a7.58,7.58,0,0,0,.3,4.24c1,2.91,1.84,5.44-2.4,7.58-.72.37-1.51.74-2.33,1.1a14.6,14.6,0,0,0-4.92-2.86,38.69,38.69,0,0,0-3.88-1.06l-.22-.06-.38-.1-.48-.12-.23-.06-.67-.2-.22-.07-.51-.17-.19-.07c-.22-.08-.44-.16-.65-.26l-.06,0-.21-.1c.58-.37,1.06-.82.66-1.14a1.82,1.82,0,0,0-1.31-.06,1,1,0,0,1,0-.43,1.41,1.41,0,0,1,0-.29h-.05c-.15-1.86-2.75-4.31-2.94-6-3.25.63.41,2.71-2.9,2.83-2.11.07-1.24.31-3.3.12-.61-.06-.93,1.56-1.27,1.94-.53.62,1.67,1.8,2.42,2.22a8.56,8.56,0,0,0,2.71,1.23l-.21.11c-.31.17-.65.43-.46.66a.66.66,0,0,0,.33.18,3.74,3.74,0,0,0,1.45,0l-.05,0c-.15.11-.31.23-.47.33l-.24.16-.51.31-.23.13-.66.34c-2.65,1.31-5.88,2.21-7.81,4.06a5.91,5.91,0,0,0-1.82,3.62h0a7.51,7.51,0,0,0-.07.84h0a23.84,23.84,0,0,0,.44,4.34c0,.27.07.53.11.79v.07c0,.28.07.55.09.82.36,4.19-1.18,8.67-.64,12.75l-1.38,2.38-17.39,4.89-4.75,5-22.56,9.32-3.62,2.2-3,4.29-38.78,14,20,.6.08.4,19.44,1.68,21.91-1.09,63.39,2.26,40.19,9.78,25.73-1.78,16.26,1.13,12.25-8.6,20.28.38,118.09,2.26.25-.68Z"/></g></g></g></g></g></g></svg>