<svg xmlns="http://www.w3.org/2000/svg" xmlns:xlink="http://www.w3.org/1999/xlink" viewBox="0 0 1928.6 239.38"><defs><style>.cls-1{fill:none;clip-rule:evenodd;}.cls-2{isolation:isolate;}.cls-132,.cls-3{fill:#35256b;}.cls-100,.cls-101,.cls-102,.cls-103,.cls-104,.cls-105,.cls-106,.cls-107,.cls-108,.cls-109,.cls-110,.cls-111,.cls-112,.cls-113,.cls-114,.cls-115,.cls-116,.cls-117,.cls-118,.cls-119,.cls-12,.cls-120,.cls-121,.cls-122,.cls-123,.cls-124,.cls-125,.cls-126,.cls-128,.cls-129,.cls-13,.cls-130,.cls-134,.cls-135,.cls-136,.cls-137,.cls-138,.cls-139,.cls-140,.cls-141,.cls-142,.cls-143,.cls-144,.cls-145,.cls-146,.cls-147,.cls-148,.cls-149,.cls-15,.cls-16,.cls-165,.cls-17,.cls-18,.cls-19,.cls-20,.cls-21,.cls-23,.cls-24,.cls-25,.cls-26,.cls-27,.cls-28,.cls-29,.cls-3,.cls-30,.cls-31,.cls-32,.cls-34,.cls-35,.cls-36,.cls-38,.cls-39,.cls-40,.cls-41,.cls-42,.cls-43,.cls-44,.cls-46,.cls-47,.cls-48,.cls-49,.cls-5,.cls-51,.cls-52,.cls-53,.cls-54,.cls-55,.cls-56,.cls-57,.cls-58,.cls-59,.cls-6,.cls-60,.cls-61,.cls-63,.cls-64,.cls-66,.cls-67,.cls-68,.cls-69,.cls-7,.cls-70,.cls-71,.cls-72,.cls-73,.cls-74,.cls-75,.cls-76,.cls-77,.cls-78,.cls-79,.cls-8,.cls-80,.cls-81,.cls-82,.cls-83,.cls-84,.cls-85,.cls-86,.cls-87,.cls-88,.cls-89,.cls-9,.cls-90,.cls-91,.cls-92,.cls-93,.cls-94,.cls-95,.cls-96,.cls-97,.cls-98,.cls-99{fill-rule:evenodd;}.cls-4{clip-path:url(#clip-path);}.cls-133,.cls-5{fill:#1f1851;}.cls-6{fill:#6a7492;}.cls-7{fill:#65648a;}.cls-8{fill:#838ba4;}.cls-9{fill:#58627a;opacity:0.45;}.cls-10{fill:#727d9b;}.cls-11{fill:#9ea4b8;}.cls-12{fill:#5d4063;}.cls-13{fill:url(#linear-gradient);}.cls-14{clip-path:url(#clip-path-2);}.cls-15{fill:url(#linear-gradient-2);}.cls-16{fill:url(#linear-gradient-3);}.cls-17{fill:url(#Áåçûìÿííûé_ãðàäèåíò_6);}.cls-18{fill:url(#linear-gradient-4);}.cls-19{fill:#e09a86;}.cls-20{fill:#a0675a;}.cls-21{fill:url(#linear-gradient-5);}.cls-22{opacity:0.75;}.cls-23,.cls-24,.cls-25,.cls-26,.cls-27,.cls-28,.cls-29,.cls-30,.cls-31,.cls-32,.cls-65,.cls-68,.cls-69,.cls-70,.cls-71,.cls-72,.cls-73,.cls-74,.cls-75,.cls-76,.cls-77,.cls-78,.cls-79,.cls-80,.cls-81,.cls-82,.cls-83,.cls-84,.cls-85,.cls-86,.cls-87,.cls-88,.cls-89,.cls-90,.cls-91,.cls-92,.cls-93,.cls-94,.cls-95,.cls-96,.cls-97{opacity:0.19;}.cls-23{fill:url(#Áåçûìÿííûé_ãðàäèåíò_177);}.cls-24{fill:url(#Áåçûìÿííûé_ãðàäèåíò_177-2);}.cls-25{fill:url(#Áåçûìÿííûé_ãðàäèåíò_177-3);}.cls-26{fill:url(#Áåçûìÿííûé_ãðàäèåíò_177-4);}.cls-27{fill:url(#Áåçûìÿííûé_ãðàäèåíò_177-5);}.cls-28{fill:url(#Áåçûìÿííûé_ãðàäèåíò_177-6);}.cls-29{fill:url(#Áåçûìÿííûé_ãðàäèåíò_177-7);}.cls-30{fill:url(#Áåçûìÿííûé_ãðàäèåíò_177-8);}.cls-31{fill:url(#Áåçûìÿííûé_ãðàäèåíò_177-9);}.cls-32{fill:url(#Áåçûìÿííûé_ãðàäèåíò_177-10);}.cls-33{opacity:0.49;}.cls-130,.cls-143,.cls-145,.cls-146,.cls-147,.cls-148,.cls-149,.cls-150,.cls-33,.cls-45,.cls-55,.cls-62{mix-blend-mode:multiply;}.cls-34{fill:url(#Áåçûìÿííûé_ãðàäèåíò_297);}.cls-35{fill:url(#Áåçûìÿííûé_ãðàäèåíò_297-2);}.cls-36{fill:url(#linear-gradient-6);}.cls-37{opacity:0.72;}.cls-38{fill:#6f3443;}.cls-39{fill:#a56a57;}.cls-40{fill:url(#Áåçûìÿííûé_ãðàäèåíò_241);}.cls-41{fill:url(#Áåçûìÿííûé_ãðàäèåíò_223);}.cls-42{fill:url(#Áåçûìÿííûé_ãðàäèåíò_223-2);}.cls-43{fill:url(#Áåçûìÿííûé_ãðàäèåíò_241-2);}.cls-44{fill:url(#linear-gradient-7);}.cls-46{fill:url(#Áåçûìÿííûé_ãðàäèåíò_297-3);}.cls-47{fill:url(#Áåçûìÿííûé_ãðàäèåíò_297-4);}.cls-48{fill:url(#linear-gradient-8);}.cls-49{fill:url(#linear-gradient-9);}.cls-50{opacity:0.46;}.cls-51{fill:#8f514e;}.cls-52{fill:url(#Áåçûìÿííûé_ãðàäèåíò_241-3);}.cls-53{fill:#5b2b6b;}.cls-54{fill:url(#linear-gradient-10);}.cls-130,.cls-55,.cls-58,.cls-59{opacity:0.71;}.cls-55{fill:url(#Áåçûìÿííûé_ãðàäèåíò_241-4);}.cls-56,.cls-58,.cls-59{mix-blend-mode:screen;}.cls-56{fill:url(#Áåçûìÿííûé_ãðàäèåíò_157);}.cls-57{fill:#401851;}.cls-58{fill:url(#Áåçûìÿííûé_ãðàäèåíò_241-5);}.cls-59{fill:url(#Áåçûìÿííûé_ãðàäèåíò_241-6);}.cls-60{fill:#9a5646;}.cls-61{fill:url(#linear-gradient-11);}.cls-62{opacity:0.42;}.cls-63{fill:url(#Áåçûìÿííûé_ãðàäèåíò_297-5);}.cls-64{fill:url(#linear-gradient-12);}.cls-66{fill:url(#Áåçûìÿííûé_ãðàäèåíò_177-11);}.cls-67{fill:#a4604c;}.cls-68{fill:url(#Áåçûìÿííûé_ãðàäèåíò_177-12);}.cls-69{fill:url(#Áåçûìÿííûé_ãðàäèåíò_177-13);}.cls-70{fill:url(#Áåçûìÿííûé_ãðàäèåíò_177-14);}.cls-71{fill:url(#Áåçûìÿííûé_ãðàäèåíò_177-15);}.cls-72{fill:url(#Áåçûìÿííûé_ãðàäèåíò_177-16);}.cls-73{fill:url(#Áåçûìÿííûé_ãðàäèåíò_177-17);}.cls-74{fill:url(#Áåçûìÿííûé_ãðàäèåíò_177-18);}.cls-75{fill:url(#Áåçûìÿííûé_ãðàäèåíò_177-19);}.cls-76{fill:url(#Áåçûìÿííûé_ãðàäèåíò_177-20);}.cls-77{fill:url(#Áåçûìÿííûé_ãðàäèåíò_177-21);}.cls-78{fill:url(#Áåçûìÿííûé_ãðàäèåíò_177-22);}.cls-79{fill:url(#Áåçûìÿííûé_ãðàäèåíò_177-23);}.cls-80{fill:url(#Áåçûìÿííûé_ãðàäèåíò_177-24);}.cls-81{fill:url(#Áåçûìÿííûé_ãðàäèåíò_177-25);}.cls-82{fill:url(#Áåçûìÿííûé_ãðàäèåíò_177-26);}.cls-83{fill:url(#Áåçûìÿííûé_ãðàäèåíò_177-27);}.cls-84{fill:url(#Áåçûìÿííûé_ãðàäèåíò_177-28);}.cls-85{fill:url(#Áåçûìÿííûé_ãðàäèåíò_177-29);}.cls-86{fill:url(#Áåçûìÿííûé_ãðàäèåíò_177-30);}.cls-87{fill:url(#Áåçûìÿííûé_ãðàäèåíò_177-31);}.cls-88{fill:url(#Áåçûìÿííûé_ãðàäèåíò_177-32);}.cls-89{fill:url(#Áåçûìÿííûé_ãðàäèåíò_177-33);}.cls-90{fill:url(#Áåçûìÿííûé_ãðàäèåíò_177-34);}.cls-91{fill:url(#Áåçûìÿííûé_ãðàäèåíò_177-35);}.cls-92{fill:url(#Áåçûìÿííûé_ãðàäèåíò_177-36);}.cls-93{fill:url(#Áåçûìÿííûé_ãðàäèåíò_177-37);}.cls-94{fill:url(#Áåçûìÿííûé_ãðàäèåíò_177-38);}.cls-95{fill:url(#Áåçûìÿííûé_ãðàäèåíò_177-39);}.cls-96{fill:url(#Áåçûìÿííûé_ãðàäèåíò_177-40);}.cls-97{fill:url(#Áåçûìÿííûé_ãðàäèåíò_177-41);}.cls-98{fill:url(#linear-gradient-13);}.cls-99{fill:url(#linear-gradient-14);}.cls-100{fill:url(#linear-gradient-15);}.cls-101{fill:url(#Áåçûìÿííûé_ãðàäèåíò_241-7);}.cls-102{fill:url(#Áåçûìÿííûé_ãðàäèåíò_241-8);}.cls-103{fill:#337763;}.cls-104{fill:#9b4200;}.cls-105{fill:#4469b2;}.cls-106{fill:url(#Áåçûìÿííûé_ãðàäèåíò_55);}.cls-107{fill:url(#Áåçûìÿííûé_ãðàäèåíò_55-2);}.cls-108{fill:url(#Áåçûìÿííûé_ãðàäèåíò_55-3);}.cls-109{fill:url(#Áåçûìÿííûé_ãðàäèåíò_55-4);}.cls-110{fill:#733530;}.cls-111{fill:#53282b;}.cls-112{fill:url(#linear-gradient-16);}.cls-113{fill:url(#linear-gradient-17);}.cls-114{fill:#8c3b2b;}.cls-115{fill:#4c2121;}.cls-116{fill:url(#Áåçûìÿííûé_ãðàäèåíò_55-5);}.cls-117,.cls-119{fill:#35332d;}.cls-117{opacity:0.66;}.cls-118{fill:url(#Áåçûìÿííûé_ãðàäèåíò_55-6);}.cls-119{opacity:0.22;}.cls-120{fill:url(#linear-gradient-18);}.cls-121{fill:url(#linear-gradient-19);}.cls-122{fill:url(#linear-gradient-20);}.cls-123{fill:url(#Áåçûìÿííûé_ãðàäèåíò_241-9);}.cls-124{fill:url(#Áåçûìÿííûé_ãðàäèåíò_241-10);}.cls-125{fill:#8c2f38;}.cls-126{fill:url(#Áåçûìÿííûé_ãðàäèåíò_241-11);}.cls-127{opacity:0.38;}.cls-128{fill:url(#linear-gradient-21);}.cls-129{fill:url(#linear-gradient-22);}.cls-130{fill:url(#linear-gradient-23);}.cls-131{fill:#050423;}.cls-134{fill:#72242c;}.cls-135{fill:url(#Áåçûìÿííûé_ãðàäèåíò_69);}.cls-136{fill:url(#Áåçûìÿííûé_ãðàäèåíò_69-2);}.cls-137{fill:url(#Áåçûìÿííûé_ãðàäèåíò_200);}.cls-138{fill:url(#Áåçûìÿííûé_ãðàäèåíò_101);}.cls-139{fill:#5a141a;}.cls-140{fill:url(#Áåçûìÿííûé_ãðàäèåíò_101-2);}.cls-141{fill:url(#Áåçûìÿííûé_ãðàäèåíò_101-3);}.cls-142{fill:url(#Áåçûìÿííûé_ãðàäèåíò_91);}.cls-143{fill:#772442;opacity:0.3;}.cls-144{fill:url(#_145);}.cls-145,.cls-146,.cls-147,.cls-148,.cls-149{opacity:0.5;}.cls-145{fill:url(#Áåçûìÿííûé_ãðàäèåíò_181);}.cls-146{fill:url(#Áåçûìÿííûé_ãðàäèåíò_181-2);}.cls-147{fill:url(#Áåçûìÿííûé_ãðàäèåíò_181-3);}.cls-148{fill:url(#Áåçûìÿííûé_ãðàäèåíò_181-4);}.cls-149{fill:url(#Áåçûìÿííûé_ãðàäèåíò_181-5);}.cls-150{opacity:0.4;}.cls-151{fill:url(#_1012);}.cls-152{fill:url(#_1012-2);}.cls-153{fill:url(#_1012-3);}.cls-154{fill:url(#_1012-4);}.cls-155{fill:url(#_1012-5);}.cls-156{fill:url(#_1012-6);}.cls-157{fill:url(#_1012-7);}.cls-158{fill:url(#_1012-8);}.cls-159{fill:url(#_1012-9);}.cls-160{fill:url(#_1012-10);}.cls-161{fill:url(#_1012-11);}.cls-162{fill:url(#_1012-12);}.cls-163{fill:url(#_1012-13);}.cls-164{fill:url(#_1012-14);}.cls-165{fill:#4f1118;}</style><clipPath id="clip-path"><polygon class="cls-1" points="0 0 0 205.18 324.06 216.99 725.8 205.18 1514.2 239.38 1646.2 199.18 1928.6 205.18 1928.6 0 0 0"/></clipPath><linearGradient id="linear-gradient" x1="483.2" y1="87.75" x2="466.6" y2="21.04" gradientTransform="matrix(1, 0.02, 0, 1, 1.04, -10.79)" gradientUnits="userSpaceOnUse"><stop offset="0" stop-color="#35233a"/><stop offset="0.22" stop-color="#3f293f"/><stop offset="0.59" stop-color="#5b384d"/><stop offset="1" stop-color="#814c60"/></linearGradient><clipPath id="clip-path-2"><path class="cls-1" d="M489.91,179.81c-24.41-.41-46.58-26.37-57.44-39.8-9.36-11.58-14.11-28.48-14.11-50.25,0-17.74,8.08-35.14,22.74-49,13.21-12.49,30.27-20.09,44.53-19.85,37.09.62,251.45,75.54,251.45,114.13q0,3.78,0,7.46c.15,20.24,50.77,30.66,40.3,41C767.9,193,518.82,180.3,489.91,179.81Z"/></clipPath><linearGradient id="linear-gradient-2" x1="397.43" y1="57.68" x2="537.12" y2="157.46" gradientTransform="matrix(1, 0.02, 0, 1, 1.04, -10.79)" gradientUnits="userSpaceOnUse"><stop offset="0.26" stop-color="#814c63"/><stop offset="0.88" stop-color="#b87251"/></linearGradient><linearGradient id="linear-gradient-3" x1="536.23" y1="188.4" x2="536.23" y2="96.66" xlink:href="#linear-gradient-2"/><linearGradient id="Áåçûìÿííûé_ãðàäèåíò_6" x1="529.02" y1="104.45" x2="525.82" y2="32.32" gradientTransform="matrix(1, 0.02, 0, 1, 1.04, -10.79)" gradientUnits="userSpaceOnUse"><stop offset="0" stop-color="#814c63"/><stop offset="0.28" stop-color="#8b5360"/><stop offset="0.75" stop-color="#a76657"/><stop offset="1" stop-color="#b87251"/></linearGradient><linearGradient id="linear-gradient-4" x1="13749.27" y1="194.47" x2="13749.63" y2="205.68" gradientTransform="matrix(-1, -0.03, -0.01, 1, 14219.25, 334.75)" gradientUnits="userSpaceOnUse"><stop offset="0.27" stop-color="#a16152"/><stop offset="1" stop-color="#ffca63"/></linearGradient><linearGradient id="linear-gradient-5" x1="13816.4" y1="243.02" x2="13816.75" y2="254.24" xlink:href="#linear-gradient-4"/><linearGradient id="Áåçûìÿííûé_ãðàäèåíò_177" x1="11961.83" y1="-13883.6" x2="11977.49" y2="-13883.6" gradientTransform="matrix(-0.99, -0.16, 0.14, -0.99, 14308.19, -11743.42)" gradientUnits="userSpaceOnUse"><stop offset="0" stop-color="#d88368"/><stop offset="1" stop-color="#d6a9ab"/></linearGradient><linearGradient id="Áåçûìÿííûé_ãðàäèåíò_177-2" x1="11978.81" y1="-13880.88" x2="11986.33" y2="-13880.88" xlink:href="#Áåçûìÿííûé_ãðàäèåíò_177"/><linearGradient id="Áåçûìÿííûé_ãðàäèåíò_177-3" x1="11953.92" y1="-13880.06" x2="11959.36" y2="-13880.06" xlink:href="#Áåçûìÿííûé_ãðàäèåíò_177"/><linearGradient id="Áåçûìÿííûé_ãðàäèåíò_177-4" x1="11955.32" y1="-13886.77" x2="11958.48" y2="-13886.77" xlink:href="#Áåçûìÿííûé_ãðàäèåíò_177"/><linearGradient id="Áåçûìÿííûé_ãðàäèåíò_177-5" x1="11943.7" y1="-13884.61" x2="11948.57" y2="-13884.61" xlink:href="#Áåçûìÿííûé_ãðàäèåíò_177"/><linearGradient id="Áåçûìÿííûé_ãðàäèåíò_177-6" x1="11997.56" y1="-13887.92" x2="12008.18" y2="-13887.92" xlink:href="#Áåçûìÿííûé_ãðàäèåíò_177"/><linearGradient id="Áåçûìÿííûé_ãðàäèåíò_177-7" x1="11983.48" y1="-13891.2" x2="11991.03" y2="-13891.2" xlink:href="#Áåçûìÿííûé_ãðàäèåíò_177"/><linearGradient id="Áåçûìÿííûé_ãðàäèåíò_177-8" x1="12010.62" y1="-13890.29" x2="12016.05" y2="-13890.29" xlink:href="#Áåçûìÿííûé_ãðàäèåíò_177"/><linearGradient id="Áåçûìÿííûé_ãðàäèåíò_177-9" x1="12011.54" y1="-13884.92" x2="12014.68" y2="-13884.92" xlink:href="#Áåçûìÿííûé_ãðàäèåíò_177"/><linearGradient id="Áåçûìÿííûé_ãðàäèåíò_177-10" x1="12022.49" y1="-13887.04" x2="12026.22" y2="-13887.04" xlink:href="#Áåçûìÿííûé_ãðàäèåíò_177"/><linearGradient id="Áåçûìÿííûé_ãðàäèåíò_297" x1="2333.07" y1="1517.07" x2="2333.07" y2="1414.86" gradientTransform="matrix(0.96, 0.27, -0.26, 0.96, -1282.84, -1944.8)" gradientUnits="userSpaceOnUse"><stop offset="0.01" stop-color="#fcddd8"/><stop offset="0.22" stop-color="#ebcfce"/><stop offset="0.63" stop-color="#beaab4"/><stop offset="0.99" stop-color="#92869a"/></linearGradient><linearGradient id="Áåçûìÿííûé_ãðàäèåíò_297-2" x1="9262.89" y1="2190.91" x2="9262.89" y2="2037.17" gradientTransform="matrix(0.48, 0.88, -0.87, 0.47, -2065.75, -9088.33)" xlink:href="#Áåçûìÿííûé_ãðàäèåíò_297"/><linearGradient id="linear-gradient-6" x1="401.22" y1="121.14" x2="428.14" y2="121.14" gradientTransform="matrix(1, 0.02, 0, 1, 1.04, -10.79)" gradientUnits="userSpaceOnUse"><stop offset="0" stop-color="#50261b"/><stop offset="1" stop-color="#64364d" stop-opacity="0"/></linearGradient><linearGradient id="Áåçûìÿííûé_ãðàäèåíò_241" x1="460.69" y1="74.58" x2="514.34" y2="74.58" gradientTransform="matrix(1, 0.02, 0, 1, 1.04, -10.79)" gradientUnits="userSpaceOnUse"><stop offset="0" stop-color="#814c63"/><stop offset="0.3" stop-color="#804c59"/><stop offset="0.82" stop-color="#7d4d3d"/><stop offset="1" stop-color="#7c4d32"/></linearGradient><linearGradient id="Áåçûìÿííûé_ãðàäèåíò_223" x1="521.12" y1="42.37" x2="578.19" y2="42.37" gradientTransform="matrix(1, 0.02, 0, 1, 1.04, -10.79)" gradientUnits="userSpaceOnUse"><stop offset="0" stop-color="#b87251"/><stop offset="0.19" stop-color="#c4754f"/><stop offset="0.7" stop-color="#e07c49"/><stop offset="1" stop-color="#ea7f47"/></linearGradient><linearGradient id="Áåçûìÿííûé_ãðàäèåíò_223-2" x1="520.03" y1="34.85" x2="554.19" y2="34.85" xlink:href="#Áåçûìÿííûé_ãðàäèåíò_223"/><linearGradient id="Áåçûìÿííûé_ãðàäèåíò_241-2" x1="381.98" y1="164.81" x2="381.98" y2="36.5" gradientTransform="matrix(1, 0.02, 0, 1, 126.57, -8.68)" xlink:href="#Áåçûìÿííûé_ãðàäèåíò_241"/><linearGradient id="linear-gradient-7" x1="540.59" y1="199.32" x2="534.71" y2="89.22" gradientTransform="matrix(1, 0.02, 0, 1, 126.57, -8.68)" gradientUnits="userSpaceOnUse"><stop offset="0" stop-color="#814c63"/><stop offset="0.29" stop-color="#8b5466"/><stop offset="0.8" stop-color="#a7696e"/><stop offset="1" stop-color="#b47372"/></linearGradient><linearGradient id="Áåçûìÿííûé_ãðàäèåíò_297-3" x1="473.19" y1="171.32" x2="473.19" y2="32.31" gradientTransform="matrix(1, 0.02, 0, 1, 126.57, -8.68)" xlink:href="#Áåçûìÿííûé_ãðàäèåíò_297"/><linearGradient id="Áåçûìÿííûé_ãðàäèåíò_297-4" x1="489.26" y1="170.87" x2="489.26" y2="32.88" gradientTransform="matrix(1, 0.02, 0, 1, 126.57, -8.68)" xlink:href="#Áåçûìÿííûé_ãðàäèåíò_297"/><linearGradient id="linear-gradient-8" x1="369.4" y1="172.26" x2="369.4" y2="30.26" gradientTransform="matrix(1, 0.02, 0, 1, 126.57, -8.68)" gradientUnits="userSpaceOnUse"><stop offset="0.01" stop-color="#7c483d"/><stop offset="0.88" stop-color="#6b3b48"/><stop offset="0.99" stop-color="#68394a"/></linearGradient><linearGradient id="linear-gradient-9" x1="394.51" y1="172.26" x2="394.51" y2="30.26" xlink:href="#linear-gradient-8"/><linearGradient id="Áåçûìÿííûé_ãðàäèåíò_241-3" x1="447.17" y1="119.56" x2="557.52" y2="119.56" xlink:href="#Áåçûìÿííûé_ãðàäèåíò_241"/><linearGradient id="linear-gradient-10" x1="16360.53" y1="-3003.41" x2="16364.15" y2="-2971.51" gradientTransform="matrix(-0.93, 0.35, 0.37, 0.94, 16747.73, -2857.27)" gradientUnits="userSpaceOnUse"><stop offset="0" stop-color="#77437f"/><stop offset="0.25" stop-color="#663671"/><stop offset="0.72" stop-color="#4a205a"/><stop offset="1" stop-color="#401851"/></linearGradient><linearGradient id="Áåçûìÿííûé_ãðàäèåíò_241-4" x1="888.51" y1="490.42" x2="958.66" y2="476.72" gradientTransform="matrix(1, 0.08, -0.07, 1, -418.83, -478.53)" xlink:href="#Áåçûìÿííûé_ãðàäèåíò_241"/><linearGradient id="Áåçûìÿííûé_ãðàäèåíò_157" x1="15773.84" y1="-1757.33" x2="15773.19" y2="-1772.47" gradientTransform="matrix(-0.97, 0.22, 0.23, 0.98, 16177.63, -1643.45)" gradientUnits="userSpaceOnUse"><stop offset="0"/><stop offset="0.15" stop-color="#130c0f"/><stop offset="0.53" stop-color="#402931"/><stop offset="0.83" stop-color="#5c3b47"/><stop offset="1" stop-color="#66424f"/></linearGradient><linearGradient id="Áåçûìÿííûé_ãðàäèåíò_241-5" x1="892.45" y1="471.4" x2="937.15" y2="471.4" gradientTransform="matrix(1, 0.08, -0.07, 1, -418.83, -478.53)" xlink:href="#Áåçûìÿííûé_ãðàäèåíò_241"/><linearGradient id="Áåçûìÿííûé_ãðàäèåíò_241-6" x1="892.26" y1="492.08" x2="937.63" y2="492.08" gradientTransform="matrix(1, 0.08, -0.07, 1, -418.83, -478.53)" xlink:href="#Áåçûìÿííûé_ãðàäèåíò_241"/><linearGradient id="linear-gradient-11" x1="467.95" y1="200.07" x2="462.32" y2="94.66" gradientTransform="matrix(1, 0.02, 0, 1, 126.57, -8.68)" gradientUnits="userSpaceOnUse"><stop offset="0" stop-color="#814c63"/><stop offset="0.29" stop-color="#8b5462"/><stop offset="0.8" stop-color="#a7695e"/><stop offset="1" stop-color="#b4735c"/></linearGradient><linearGradient id="Áåçûìÿííûé_ãðàäèåíò_297-5" x1="434.89" y1="118.99" x2="492.14" y2="118.99" gradientTransform="matrix(1, 0.02, 0, 1, 126.57, -8.68)" xlink:href="#Áåçûìÿííûé_ãðàäèåíò_297"/><linearGradient id="linear-gradient-12" x1="393.23" y1="145.04" x2="479.44" y2="145.04" gradientTransform="matrix(1, 0.02, 0, 1, 1.04, -10.79)" xlink:href="#linear-gradient-8"/><linearGradient id="Áåçûìÿííûé_ãðàäèåíò_177-11" x1="13769.02" y1="-13256.54" x2="13781.09" y2="-13256.54" gradientTransform="matrix(0, 1, 1, 0.02, 13715.16, -13507.86)" xlink:href="#Áåçûìÿííûé_ãðàäèåíò_177"/><linearGradient id="Áåçûìÿííûé_ãðàäèåíò_177-12" x1="12026.46" y1="-13933.18" x2="12038.86" y2="-13933.18" xlink:href="#Áåçûìÿííûé_ãðàäèåíò_177"/><linearGradient id="Áåçûìÿííûé_ãðàäèåíò_177-13" x1="12039.8" y1="-13930.9" x2="12045.91" y2="-13930.9" xlink:href="#Áåçûìÿííûé_ãðàäèåíò_177"/><linearGradient id="Áåçûìÿííûé_ãðàäèåíò_177-14" x1="12020.08" y1="-13930.31" x2="12024.41" y2="-13930.31" xlink:href="#Áåçûìÿííûé_ãðàäèåíò_177"/><linearGradient id="Áåçûìÿííûé_ãðàäèåíò_177-15" x1="12021.37" y1="-13935.82" x2="12023.88" y2="-13935.82" xlink:href="#Áåçûìÿííûé_ãðàäèåíò_177"/><linearGradient id="Áåçûìÿííûé_ãðàäèåíò_177-16" x1="12012.04" y1="-13934.08" x2="12015.9" y2="-13934.08" xlink:href="#Áåçûìÿííûé_ãðàäèåíò_177"/><linearGradient id="Áåçûìÿííûé_ãðàäèåíò_177-17" x1="12054.99" y1="-13936.62" x2="12063.39" y2="-13936.62" xlink:href="#Áåçûìÿííûé_ãðàäèåíò_177"/><linearGradient id="Áåçûìÿííûé_ãðàäèåíò_177-18" x1="12043.86" y1="-13939.35" x2="12049.89" y2="-13939.35" xlink:href="#Áåçûìÿííûé_ãðàäèåíò_177"/><linearGradient id="Áåçûìÿííûé_ãðàäèåíò_177-19" x1="12065.4" y1="-13938.52" x2="12069.73" y2="-13938.52" xlink:href="#Áåçûìÿííûé_ãðàäèåíò_177"/><linearGradient id="Áåçûìÿííûé_ãðàäèåíò_177-20" x1="12065.99" y1="-13934.12" x2="12068.49" y2="-13934.12" xlink:href="#Áåçûìÿííûé_ãðàäèåíò_177"/><linearGradient id="Áåçûìÿííûé_ãðàäèåíò_177-21" x1="12074.77" y1="-13935.83" x2="12077.76" y2="-13935.83" xlink:href="#Áåçûìÿííûé_ãðàäèåíò_177"/><linearGradient id="Áåçûìÿííûé_ãðàäèåíò_177-22" x1="4979.08" y1="3152.35" x2="4986.41" y2="3152.35" gradientTransform="matrix(0.82, 0.58, -0.56, 0.82, -1804.44, -5405.23)" xlink:href="#Áåçûìÿííûé_ãðàäèåíò_177"/><linearGradient id="Áåçûìÿííûé_ãðàäèåíò_177-23" x1="4986.38" y1="3153.05" x2="4990.59" y2="3153.05" gradientTransform="matrix(0.82, 0.58, -0.56, 0.82, -1804.44, -5405.23)" xlink:href="#Áåçûìÿííûé_ãðàäèåíò_177"/><linearGradient id="Áåçûìÿííûé_ãðàäèåíò_177-24" x1="4974.89" y1="3155.47" x2="4977.51" y2="3155.47" gradientTransform="matrix(0.82, 0.58, -0.56, 0.82, -1804.44, -5405.23)" xlink:href="#Áåçûìÿííûé_ãðàäèåíò_177"/><linearGradient id="Áåçûìÿííûé_ãðàäèåíò_177-25" x1="4976.39" y1="3151.13" x2="4977.9" y2="3151.13" gradientTransform="matrix(0.82, 0.58, -0.56, 0.82, -1804.44, -5405.23)" xlink:href="#Áåçûìÿííûé_ãðàäèåíò_177"/><linearGradient id="Áåçûìÿííûé_ãðàäèåíò_177-26" x1="4970.45" y1="3153.27" x2="4972.74" y2="3153.27" gradientTransform="matrix(0.82, 0.58, -0.56, 0.82, -1804.44, -5405.23)" xlink:href="#Áåçûìÿííûé_ãðàäèåíò_177"/><linearGradient id="Áåçûìÿííûé_ãðàäèåíò_177-27" x1="4996.68" y1="3147.18" x2="5001.53" y2="3147.18" gradientTransform="matrix(0.82, 0.58, -0.56, 0.82, -1804.44, -5405.23)" xlink:href="#Áåçûìÿííûé_ãðàäèåíò_177"/><linearGradient id="Áåçûìÿííûé_ãðàäèåíò_177-28" x1="4990.26" y1="3145.99" x2="4994" y2="3145.99" gradientTransform="matrix(0.82, 0.58, -0.56, 0.82, -1804.44, -5405.23)" xlink:href="#Áåçûìÿííûé_ãðàäèåíò_177"/><linearGradient id="Áåçûìÿííûé_ãðàäèåíò_177-29" x1="5003.05" y1="3144.71" x2="5005.71" y2="3144.71" gradientTransform="matrix(0.82, 0.58, -0.56, 0.82, -1804.44, -5405.23)" xlink:href="#Áåçûìÿííûé_ãðàäèåíò_177"/><linearGradient id="Áåçûìÿííûé_ãðàäèåíò_177-30" x1="5002.8" y1="3148.29" x2="5004.34" y2="3148.29" gradientTransform="matrix(0.82, 0.58, -0.56, 0.82, -1804.44, -5405.23)" xlink:href="#Áåçûìÿííûé_ãðàäèåíò_177"/><linearGradient id="Áåçûìÿííûé_ãðàäèåíò_177-31" x1="5008.42" y1="3146.05" x2="5010.33" y2="3146.05" gradientTransform="matrix(0.82, 0.58, -0.56, 0.82, -1804.44, -5405.23)" xlink:href="#Áåçûìÿííûé_ãðàäèåíò_177"/><linearGradient id="Áåçûìÿííûé_ãðàäèåíò_177-32" x1="2824.89" y1="2513.26" x2="2830.26" y2="2513.26" gradientTransform="matrix(0.93, 0.37, -0.35, 0.93, -1218.24, -3341.85)" xlink:href="#Áåçûìÿííûé_ãðàäèåíò_177"/><linearGradient id="Áåçûìÿííûé_ãðàäèåíò_177-33" x1="2830.5" y1="2513.85" x2="2833.36" y2="2513.85" gradientTransform="matrix(0.93, 0.37, -0.35, 0.93, -1218.24, -3341.85)" xlink:href="#Áåçûìÿííûé_ãðàäèåíò_177"/><linearGradient id="Áåçûìÿííûé_ãðàäèåíò_177-34" x1="2821.97" y1="2514.97" x2="2823.87" y2="2514.97" gradientTransform="matrix(0.93, 0.37, -0.35, 0.93, -1218.24, -3341.85)" xlink:href="#Áåçûìÿííûé_ãðàäèåíò_177"/><linearGradient id="Áåçûìÿííûé_ãðàäèåíò_177-35" x1="2822.78" y1="2512.41" x2="2823.88" y2="2512.41" gradientTransform="matrix(0.93, 0.37, -0.35, 0.93, -1218.24, -3341.85)" xlink:href="#Áåçûìÿííûé_ãðàäèåíò_177"/><linearGradient id="Áåçûìÿííûé_ãðàäèåíò_177-36" x1="2818.58" y1="2513.53" x2="2820.27" y2="2513.53" gradientTransform="matrix(0.93, 0.37, -0.35, 0.93, -1218.24, -3341.85)" xlink:href="#Áåçûìÿííûé_ãðàäèåíò_177"/><linearGradient id="Áåçûìÿííûé_ãðàäèåíò_177-37" x1="2837.53" y1="2510.63" x2="2841.16" y2="2510.63" gradientTransform="matrix(0.93, 0.37, -0.35, 0.93, -1218.24, -3341.85)" xlink:href="#Áåçûìÿííûé_ãðàäèåíò_177"/><linearGradient id="Áåçûìÿííûé_ãðàäèåíò_177-38" x1="2832.74" y1="2509.77" x2="2835.41" y2="2509.77" gradientTransform="matrix(0.93, 0.37, -0.35, 0.93, -1218.24, -3341.85)" xlink:href="#Áåçûìÿííûé_ãðàäèåíò_177"/><linearGradient id="Áåçûìÿííûé_ãðàäèåíò_177-39" x1="2842.13" y1="2509.32" x2="2844.05" y2="2509.32" gradientTransform="matrix(0.93, 0.37, -0.35, 0.93, -1218.24, -3341.85)" xlink:href="#Áåçûìÿííûé_ãðàäèåíò_177"/><linearGradient id="Áåçûìÿííûé_ãðàäèåíò_177-40" x1="2842.22" y1="2511.41" x2="2843.33" y2="2511.41" gradientTransform="matrix(0.93, 0.37, -0.35, 0.93, -1218.24, -3341.85)" xlink:href="#Áåçûìÿííûé_ãðàäèåíò_177"/><linearGradient id="Áåçûìÿííûé_ãðàäèåíò_177-41" x1="2846.18" y1="2510.26" x2="2847.52" y2="2510.26" gradientTransform="matrix(0.93, 0.37, -0.35, 0.93, -1218.24, -3341.85)" xlink:href="#Áåçûìÿííûé_ãðàäèåíò_177"/><linearGradient id="linear-gradient-13" x1="743.49" y1="-564.99" x2="745.18" y2="-578.25" gradientTransform="matrix(0.97, -0.24, 0.25, 0.97, -77.8, 847.54)" gradientUnits="userSpaceOnUse"><stop offset="0" stop-color="#32c8b9"/><stop offset="1" stop-color="#2d2c6b"/></linearGradient><linearGradient id="linear-gradient-14" x1="2105.39" y1="527.62" x2="2105.39" y2="540.47" gradientTransform="matrix(1, -0.03, 0.05, 1, -1630.52, -352.33)" xlink:href="#linear-gradient-13"/><linearGradient id="linear-gradient-15" x1="742.55" y1="-573.4" x2="725.71" y2="-574.44" xlink:href="#linear-gradient-13"/><linearGradient id="Áåçûìÿííûé_ãðàäèåíò_241-7" x1="548.01" y1="-891.41" x2="551.48" y2="-905.71" gradientTransform="matrix(0.96, -0.27, 0.29, 0.96, 230.58, 1134.9)" xlink:href="#Áåçûìÿííûé_ãðàäèåíò_241"/><linearGradient id="Áåçûìÿííûé_ãðàäèåíò_241-8" x1="551.36" y1="-898.39" x2="551.8" y2="-900.01" gradientTransform="matrix(0.96, -0.27, 0.29, 0.96, 230.58, 1134.9)" xlink:href="#Áåçûìÿííûé_ãðàäèåíò_241"/><linearGradient id="Áåçûìÿííûé_ãðàäèåíò_55" x1="344.37" y1="146.84" x2="378.66" y2="146.84" gradientTransform="matrix(1, 0.02, 0, 1, 1.04, -10.79)" gradientUnits="userSpaceOnUse"><stop offset="0" stop-color="#b87251"/><stop offset="1" stop-color="#b67247"/></linearGradient><linearGradient id="Áåçûìÿííûé_ãðàäèåíò_55-2" x1="529.12" y1="166.42" x2="555.74" y2="166.42" xlink:href="#Áåçûìÿííûé_ãðàäèåíò_55"/><linearGradient id="Áåçûìÿííûé_ãðàäèåíò_55-3" x1="543.68" y1="164.86" x2="577.5" y2="164.86" xlink:href="#Áåçûìÿííûé_ãðàäèåíò_55"/><linearGradient id="Áåçûìÿííûé_ãðàäèåíò_55-4" x1="926.21" y1="382.47" x2="975.27" y2="382.47" gradientTransform="matrix(1, 0.05, -0.04, 1, -229.73, -280.2)" xlink:href="#Áåçûìÿííûé_ãðàäèåíò_55"/><linearGradient id="linear-gradient-16" x1="10632.65" y1="1919.31" x2="10649.07" y2="1920.74" gradientTransform="matrix(-0.93, -0.38, -0.37, 0.92, 11135.95, 2342.27)" gradientUnits="userSpaceOnUse"><stop offset="0" stop-color="#b62820"/><stop offset="1" stop-color="#fab42d"/></linearGradient><linearGradient id="linear-gradient-17" x1="10645.19" y1="1933.86" x2="10645.19" y2="1905.03" xlink:href="#linear-gradient-16"/><linearGradient id="Áåçûìÿííûé_ãðàäèåíò_55-5" x1="12157" y1="1155.55" x2="12184.57" y2="1155.55" gradientTransform="matrix(-0.98, -0.21, -0.19, 0.98, 12694.14, 1435.39)" xlink:href="#Áåçûìÿííûé_ãðàäèåíò_55"/><linearGradient id="Áåçûìÿííûé_ãðàäèåíò_55-6" x1="12157.05" y1="1156.86" x2="12184.73" y2="1156.86" gradientTransform="matrix(-0.98, -0.21, -0.19, 0.98, 12694.14, 1435.39)" xlink:href="#Áåçûìÿííûé_ãðàäèåíò_55"/><linearGradient id="linear-gradient-18" x1="3805.54" y1="143.67" x2="3805.29" y2="170.74" gradientTransform="matrix(0.98, 0.21, -0.19, 0.98, -3140.35, -816.53)" gradientUnits="userSpaceOnUse"><stop offset="0" stop-color="#9f274a"/><stop offset="1" stop-color="#e35b59"/></linearGradient><linearGradient id="linear-gradient-19" x1="3805.51" y1="127.26" x2="3805.51" y2="158.08" xlink:href="#linear-gradient-18"/><linearGradient id="linear-gradient-20" x1="3769" y1="159.43" x2="3784.93" y2="158.6" xlink:href="#linear-gradient-18"/><linearGradient id="Áåçûìÿííûé_ãðàäèåíò_241-9" x1="2281.43" y1="-837.07" x2="2289.97" y2="-872.22" gradientTransform="matrix(1, -0.03, 0.05, 1, -1687.36, 1072.48)" xlink:href="#Áåçûìÿííûé_ãðàäèåíò_241"/><linearGradient id="Áåçûìÿííûé_ãðàäèåíò_241-10" x1="2319.57" y1="-830.6" x2="2328.22" y2="-866.24" gradientTransform="matrix(1, -0.03, 0.05, 1, -1687.36, 1072.48)" xlink:href="#Áåçûìÿííûé_ãðàäèåíò_241"/><linearGradient id="Áåçûìÿííûé_ãðàäèåíò_241-11" x1="2291.53" y1="-853.47" x2="2292.63" y2="-857.57" gradientTransform="matrix(1, -0.03, 0.05, 1, -1687.36, 1072.48)" xlink:href="#Áåçûìÿííûé_ãðàäèåíò_241"/><linearGradient id="linear-gradient-21" x1="4525.34" y1="481.01" x2="4528.34" y2="469.86" gradientTransform="matrix(0.95, 0.31, -0.29, 0.95, -3622.78, -1731.41)" gradientUnits="userSpaceOnUse"><stop offset="0.01" stop-color="#7a5053"/><stop offset="0.3" stop-color="#845553"/><stop offset="0.81" stop-color="#a06352"/><stop offset="1" stop-color="#ac6952"/></linearGradient><linearGradient id="linear-gradient-22" x1="4516.5" y1="519.39" x2="4522.49" y2="497.14" xlink:href="#linear-gradient-21"/><linearGradient id="linear-gradient-23" x1="397.43" y1="57.68" x2="537.12" y2="157.46" gradientTransform="matrix(1, 0.02, 0, 1, 1.04, -10.79)" gradientUnits="userSpaceOnUse"><stop offset="0" stop-color="#814c63"/><stop offset="0.14" stop-color="#814c63" stop-opacity="0.92"/><stop offset="0.39" stop-color="#814c62" stop-opacity="0.7"/><stop offset="0.71" stop-color="#814c61" stop-opacity="0.36"/><stop offset="1" stop-color="#814c60" stop-opacity="0"/></linearGradient><linearGradient id="Áåçûìÿííûé_ãðàäèåíò_69" x1="1688.64" y1="270.95" x2="1688.64" y2="105.98" gradientTransform="matrix(1.04, -0.1, 0.03, 0.97, -54.53, 144.22)" gradientUnits="userSpaceOnUse"><stop offset="0.02" stop-color="#a02e22"/><stop offset="0.99" stop-color="#791d36"/></linearGradient><linearGradient id="Áåçûìÿííûé_ãðàäèåíò_69-2" x1="1601.69" y1="132.22" x2="1601.69" y2="44.18" xlink:href="#Áåçûìÿííûé_ãðàäèåíò_69"/><linearGradient id="Áåçûìÿííûé_ãðàäèåíò_200" x1="1674.22" y1="159.53" x2="1599.48" y2="32.91" gradientTransform="matrix(1.04, -0.1, 0.03, 0.97, -54.53, 144.22)" gradientUnits="userSpaceOnUse"><stop offset="0" stop-color="#a33a36"/><stop offset="1" stop-color="#ff633a"/></linearGradient><linearGradient id="Áåçûìÿííûé_ãðàäèåíò_101" x1="1747.64" y1="166.56" x2="1709.26" y2="101.55" gradientTransform="matrix(1.04, -0.1, 0.03, 0.97, -54.53, 144.22)" gradientUnits="userSpaceOnUse"><stop offset="0" stop-color="#b8431a"/><stop offset="1" stop-color="#a33036"/></linearGradient><linearGradient id="Áåçûìÿííûé_ãðàäèåíò_101-2" x1="1718.88" y1="125.88" x2="1747.23" y2="125.88" xlink:href="#Áåçûìÿííûé_ãðàäèåíò_101"/><linearGradient id="Áåçûìÿííûé_ãðàäèåíò_101-3" x1="1623.03" y1="80.28" x2="1629.28" y2="80.28" xlink:href="#Áåçûìÿííûé_ãðàäèåíò_101"/><linearGradient id="Áåçûìÿííûé_ãðàäèåíò_91" x1="1686.96" y1="125.31" x2="1686.96" y2="41.85" gradientTransform="matrix(1.04, -0.1, 0.03, 0.97, -54.53, 144.22)" gradientUnits="userSpaceOnUse"><stop offset="0" stop-color="#dd5936"/><stop offset="1" stop-color="#ff8e1f"/></linearGradient><linearGradient id="_145" x1="1700.43" y1="106.7" x2="1738.65" y2="51.16" gradientTransform="matrix(1.04, -0.07, -0.01, 0.98, -69.85, 108.39)" gradientUnits="userSpaceOnUse"><stop offset="0" stop-color="#ffc3b1"/><stop offset="1" stop-color="#ffdac9"/></linearGradient><linearGradient id="Áåçûìÿííûé_ãðàäèåíò_181" x1="275.61" y1="77.95" x2="282.17" y2="55.85" gradientTransform="matrix(-1.04, 0.04, -0.03, 0.98, 2061.64, -1.33)" gradientUnits="userSpaceOnUse"><stop offset="0" stop-color="#bd0041"/><stop offset="1" stop-color="#fff"/></linearGradient><linearGradient id="Áåçûìÿííûé_ãðàäèåíò_181-2" x1="1703.57" y1="112.58" x2="1711.98" y2="75.68" gradientTransform="matrix(1.04, -0.07, -0.01, 0.98, -69.85, 108.39)" xlink:href="#Áåçûìÿííûé_ãðàäèåíò_181"/><linearGradient id="Áåçûìÿííûé_ãðàäèåíò_181-3" x1="361.69" y1="14.91" x2="359.51" y2="11.3" xlink:href="#Áåçûìÿííûé_ãðàäèåíò_181"/><linearGradient id="Áåçûìÿííûé_ãðàäèåíò_181-4" x1="373.49" y1="61.87" x2="355.67" y2="47.54" xlink:href="#Áåçûìÿííûé_ãðàäèåíò_181"/><linearGradient id="Áåçûìÿííûé_ãðàäèåíò_181-5" x1="1667.38" y1="177.09" x2="1708.25" y2="-2.23" gradientTransform="matrix(1.04, -0.07, -0.01, 0.98, -69.85, 108.39)" xlink:href="#Áåçûìÿííûé_ãðàäèåíò_181"/><linearGradient id="_1012" x1="1740.9" y1="100.34" x2="1700.55" y2="25.59" gradientTransform="matrix(1.04, -0.1, 0.03, 0.97, -54.53, 144.22)" gradientUnits="userSpaceOnUse"><stop offset="0" stop-color="#ffa78a"/><stop offset="1" stop-color="#c13372"/></linearGradient><linearGradient id="_1012-2" x1="1739.91" y1="98.14" x2="1702.93" y2="29.63" xlink:href="#_1012"/><linearGradient id="_1012-3" x1="1746.27" y1="100.22" x2="1706.95" y2="27.37" xlink:href="#_1012"/><linearGradient id="_1012-4" x1="1728.54" y1="92.85" x2="1690.11" y2="21.64" xlink:href="#_1012"/><linearGradient id="_1012-5" x1="1752.13" y1="104.25" x2="1715.95" y2="37.22" xlink:href="#_1012"/><linearGradient id="_1012-6" x1="1749.68" y1="94.12" x2="1708.52" y2="17.86" xlink:href="#_1012"/><linearGradient id="_1012-7" x1="1747.69" y1="96.86" x2="1704.62" y2="17.05" xlink:href="#_1012"/><linearGradient id="_1012-8" x1="774.87" y1="224.72" x2="741.66" y2="163.17" gradientTransform="matrix(-1.01, 0.32, 0.27, 0.93, 2445.75, -368.32)" xlink:href="#_1012"/><linearGradient id="_1012-9" x1="802.2" y1="209.38" x2="773.95" y2="157.04" gradientTransform="matrix(-1.01, 0.32, 0.27, 0.93, 2445.75, -368.32)" xlink:href="#_1012"/><linearGradient id="_1012-10" x1="771.65" y1="241.97" x2="739.79" y2="182.92" gradientTransform="matrix(-1.01, 0.32, 0.27, 0.93, 2445.75, -368.32)" xlink:href="#_1012"/><linearGradient id="_1012-11" x1="808.29" y1="199.52" x2="783.44" y2="153.49" gradientTransform="matrix(-1.01, 0.32, 0.27, 0.93, 2445.75, -368.32)" xlink:href="#_1012"/><linearGradient id="_1012-12" x1="810.29" y1="206.25" x2="784.8" y2="159.02" gradientTransform="matrix(-1.01, 0.32, 0.27, 0.93, 2445.75, -368.32)" xlink:href="#_1012"/><linearGradient id="_1012-13" x1="812.88" y1="205.95" x2="777.52" y2="140.44" gradientTransform="matrix(-1.01, 0.32, 0.27, 0.93, 2445.75, -368.32)" xlink:href="#_1012"/><linearGradient id="_1012-14" x1="808.95" y1="210.44" x2="770.96" y2="140.05" gradientTransform="matrix(-1.01, 0.32, 0.27, 0.93, 2445.75, -368.32)" xlink:href="#_1012"/></defs><g class="cls-2"><g id="Layer_2" data-name="Layer 2"><g id="Lower_Separator" data-name="Lower Separator"><g id="Layer_1-2" data-name="Layer 1"><polygon class="cls-3" points="0 0 0 205.18 324.06 216.99 725.8 205.18 1514.2 239.38 1646.2 199.18 1928.6 205.18 1928.6 0 0 0"/><g class="cls-4"><path class="cls-5" d="M473.12,190.94S373,188.77,353.45,187.6s-14.52-.87-46.92-1.32c-30.72-.42-43.52.22-57.1-2.26a195.32,195.32,0,0,0-40.18-2.81c-11.1.46-35.64-1.55-35.31-2.47.18-.51,30.61-16.73,68.36-22.74,30.42-4.84,69.55,0,71.07,1.25,3.42,2.72,59.52-2,80.09-2.86s75-4.93,85.72-4.62,95.55,4.07,106.76,3-62.2,20.26-65.75,21.38c-1.67.52-18,5.66-28.63,9.48C479.53,187.92,473.12,190.94,473.12,190.94Z"/><path class="cls-5" d="M332.59,151.44s35.45,4.1,43.69,6.2,11.29,3.85,24.62,7.76,46.79,15.21,60.55,20.75,38.16,8.56,38.16,8.56,11.9,1,12.44-1,4-6.4,4-6.4,14-10.84,19.18-10.19,3.62.38,12.79.16a76.84,76.84,0,0,0,16.46-2.2s59.3-11.5,65.07-11.18,15.94.4,19.43.24,90.88-5.06,90.88-5.06S549,152,546.79,151.58s-46.42-2.92-63.36-4.23-48.64-2-57-2.64-20.29,3.89-27.43.44S332.59,151.44,332.59,151.44Z"/><path class="cls-6" d="M478.75,14c-70.2,1.4-194,5.19-194.47,5.44-15.71,8.61-24.53,10.43-29.23,21.3-13.36,30.93-20.49,70.7-13.07,91,6.26,17.1,26.85,25.17,26.82,26-.05,1.5,136,7.6,209.63,10.34Z"/><path class="cls-7" d="M330.55,161.37c-.17-.05-.26-.1-.25-.14.14-.84-19.4-9.23-23.33-27-4.66-21.1-2.71-62.68,14.91-94.88C328,28.12,337,26.14,353.6,17.38l.09-.68c-4.36.16-6.81.27-6.88.3-16.93,9-26,10.88-32.21,22.2C297,71.41,295,113,299.69,134.08c3.93,17.8,23.46,26.18,23.32,27,0,.23,2.64.56,7.44,1Z"/><path class="cls-8" d="M301.39,134.11c-4.67-21.09-2.72-62.67,14.91-94.88C322.5,27.91,331.58,26,348.51,17h.05V16.9c-1.11.05-1.72.09-1.75.1-16.93,9-26,10.88-32.21,22.2C297,71.41,295,113,299.69,134.08c3.93,17.8,23.46,26.18,23.32,27,0,.23,2.64.56,7.44,1l0-.12c-3.74-.33-5.79-.61-5.76-.81C324.85,160.29,305.32,151.91,301.39,134.11Z"/><path class="cls-7" d="M388.06,164.3c-.16-.05-.25-.09-.25-.14.17-.87-19.16-9.5-22.65-27.85C361,114.57,364,71.7,382.47,38.49c6.42-11.56,16-14,32.86-23l-.47-.33c-4.36.17-6.82.28-6.89.31-17.16,9.28-26.3,11.23-32.78,22.91-18.45,33.21-21.45,76.08-17.31,97.82,3.48,18.34,22.81,27,22.65,27.85,0,.24,2.63.58,7.42,1Z"/><path class="cls-8" d="M359.58,136.22c-4.14-21.74-1.14-64.61,17.31-97.82,6.47-11.64,15.57-13.63,32.64-22.83v-.09l0-.11c-1,0-1.56.08-1.59.09-17.16,9.28-26.3,11.23-32.78,22.91-18.45,33.21-21.45,76.08-17.31,97.82,3.48,18.34,22.81,27,22.65,27.85,0,.24,2.63.58,7.42,1l0-.12c-3.73-.35-5.78-.63-5.74-.84C382.4,163.2,363.06,154.56,359.58,136.22Z"/><path class="cls-9" d="M239.1,115.51c.55,6.23,1.23,11.66,2.88,16.18,6.26,17.1,26.85,25.17,26.82,26-.05,1.5,136,7.6,209.63,10.34l.1-48.49Z"/><ellipse class="cls-10" cx="479.93" cy="90.79" rx="74.39" ry="77.39" transform="translate(-8.37 102.49) rotate(-12.08)"/><ellipse class="cls-11" cx="485.63" cy="90.89" rx="74.39" ry="77.39" transform="translate(-8.27 103.68) rotate(-12.08)"/><path class="cls-12" d="M485.63,160.87c-24.41-.41-42.3-7.43-53.16-20.86-9.36-11.58-14.11-28.48-14.11-50.25,0-17.74,8.08-35.14,22.74-49,13.21-12.49,30.27-20.09,44.53-19.85,37.09.62,67.26,32.52,67.26,71.11,0,2.52,0,5,0,7.46.14,20.23.27,37.71-10.2,48.1C533.22,157,514.54,161.36,485.63,160.87Z"/><path class="cls-13" d="M485.63,160.87c-24.41-.41-42.3-7.43-53.16-20.86-9.36-11.58-14.11-28.48-14.11-50.25,0-17.74,8.08-35.14,22.74-49,13.21-12.49,30.27-20.09,44.53-19.85,37.09.62,67.26,32.52,67.26,71.11,0,2.52,0,5,0,7.46.14,20.23.27,37.71-10.2,48.1C533.22,157,514.54,161.36,485.63,160.87Z"/><g class="cls-14"><path class="cls-15" d="M672.7,149.52,665,146.76l-11.2-4.46-4.69-3.59-.49-8-13.36-14-10.06-11.18-11.46-2.73-1.11-8.1a73.47,73.47,0,0,1-24.11-12.32A56.75,56.75,0,0,1,580,74.75c-1.8-2-4.11-4.43-4.56-6.72s1.24-4.61,1.87-6.81A21.58,21.58,0,0,0,578,50.3a13.55,13.55,0,0,0-2.2-4.76l-2.24-.84-2.21-.36-5.18-2.1-8.6-3.61L553,35.18l-.82-.69c-1.4-.25-2.77-.61-4.18-1-3.91-1.09-7.79-2.24-11.77-3.23-4.4-1.09-10.07-2-12.9.84-1.8,1.81-2.2,4-4.39,5.75a25.45,25.45,0,0,1-6.76,3.24l-.24.64-2.86.65a5.56,5.56,0,0,1,.13,1.33,3.62,3.62,0,0,1-1.17,1.64,1.11,1.11,0,0,1,.07.29,1,1,0,0,1,0,.84,3,3,0,0,1-1.87,1.64c-2.2.86-4.2,0-6.48-.06-1.3-.05-2.54.36-3.89.32-.52,0-1-.07-1.55-.13l-3.91,2.49L486.3,51l-.75.22-.21.07-1.4.56-2.45,1.64-1.38,1.74-4.81,5.35a8.48,8.48,0,0,0,.34,4.83c1.18,3.32,2.09,6.2-2.74,8.64-.82.42-1.72.84-2.66,1.25A16.69,16.69,0,0,0,464.65,72c-1.4-.49-2.92-.84-4.42-1.21l-.25-.06-.44-.11-.54-.14-.27-.07-.76-.23-.25-.07-.58-.2-.22-.08-.74-.29-.07,0-.23-.11c.65-.42,1.2-.93.75-1.3a2.1,2.1,0,0,0-1.5-.07,1.54,1.54,0,0,1,0-.48,1.3,1.3,0,0,1,0-.34h-.06c-.17-2.11-3.13-4.91-3.35-6.84-3.69.71.47,3.09-3.3,3.22-2.41.08-1.41.36-3.76.13-.69-.06-1.06,1.78-1.44,2.22-.61.71,1.9,2,2.75,2.52a9.51,9.51,0,0,0,3.09,1.4l-.25.14c-.34.18-.73.48-.52.75a.8.8,0,0,0,.38.19,4,4,0,0,0,1.64,0l0,0c-.17.13-.34.26-.53.38l-.28.18c-.19.12-.38.24-.58.35l-.26.15c-.25.13-.49.26-.75.38-3,1.49-6.7,2.52-8.89,4.63a6.76,6.76,0,0,0-2.08,4.12h0c0,.32-.07.63-.08,1h0a28,28,0,0,0,.5,5c.05.3.09.59.13.89v.09c0,.31.07.62.1.93.42,4.77-1.34,9.87-.73,14.52l-1.57,2.7-19.8,5.57-5.42,5.69-25.69,10.61-4.13,2.51-3.47,4.89-44.16,15.94,22.76.68.09.46,22.15,1.91,24.95-1.24,72.2,2.57,45.77,11.13,29.31-2,18.52,1.28,13.95-9.79,23.1.44,134.51,2.57.27-.78Z"/><path class="cls-16" d="M672.7,149.52,665,146.76l-11.2-4.46-4.69-3.59-.49-8-1.24-1.31a89.5,89.5,0,0,1-9.41-.38,28,28,0,0,1-7.33-1.79c-2.63-1.07-4.77-2.79-7.21-4.14-4.76-2.62-10.23-4.16-15.81-3.1a21,21,0,0,0-8.34,3.53c-2.17,1.52-4.24,3.32-6.86,4.25-5.46,2-11.73,1.12-17.49.55-6.06-.6-11.92-2.1-17.89-3.17s-11.91-1.61-17.71.2c-4.78,1.5-9.09,4.58-14.28,5s-7.81-3.47-11.1-6.08c-4.36-3.45-11.67-2.59-17-2.34-4.12.19-8.56-.22-12.54.77-1.59.39-3.23,1.19-3.48,2.74s1.79,3,1.61,4.71c-.39,3.79-6.77,2.7-9.72,2.89-6.5.41-13.05.06-19.55.4-13,.69-24.64,5.66-37.07,8.27-5.05,1.06-10.22,1.8-15.44,1.1-6.1-.82-11.16-3.73-16.84-5.6-2.3-.76-4.64-1.38-7-1.91l-.09.13-44.16,15.94,22.76.68.09.46,22.15,1.91,24.95-1.24,72.2,2.57,45.77,11.13,29.31-2,18.52,1.28,13.95-9.79,23.1.44,134.51,2.57.27-.78Z"/><path class="cls-17" d="M475,79.41c6.75,1.55,14.11.32,20.63,2.48s10.26-1.31,17.14-2.7c5.64-1.29.13-12.85,8.57-14.48,1.8.24,21.73.84,27.39,4.34,4.06,2.5,2.76,17,5.41,17.47A25.41,25.41,0,0,0,565,86c3.38-.79,6.39-2.56,9.52-3.88s22.26,8.2,25.47,7.27c-1.45-1.27-18.79-13.24-20-14.6-1.8-2-4.11-4.43-4.56-6.72s1.24-4.61,1.87-6.81A21.58,21.58,0,0,0,578,50.3a13.55,13.55,0,0,0-2.2-4.76l-2.24-.84-2.21-.36-5.18-2.1-8.6-3.61L553,35.18l-.82-.69c-1.4-.25-2.77-.61-4.18-1-3.91-1.09-7.79-2.24-11.77-3.23-4.4-1.09-10.07-2-12.9.84-1.8,1.81-2.2,4-4.39,5.75a25.45,25.45,0,0,1-6.76,3.24l-.24.64-2.86.65a5.56,5.56,0,0,1,.13,1.33,3.66,3.66,0,0,1-1.16,1.64,2,2,0,0,1,.06.29,1,1,0,0,1,0,.84,3,3,0,0,1-1.87,1.64c-2.2.86-4.2,0-6.48-.06-1.3-.05-2.55.36-3.89.32-.52,0-1-.07-1.55-.13l-3.91,2.49L486.3,51l-.75.22-.21.07-1.4.56-2.45,1.64-1.38,1.74-4.81,5.35a8.48,8.48,0,0,0,.34,4.83c1.18,3.32,2.09,6.2-2.74,8.64-.39.2-15.4,10.16-15.82,10.36C458.54,84.62,473.56,79.08,475,79.41Z"/><path class="cls-18" d="M497.23,94.45l3.42.09-3.5,1.63s-3.63-.39-3.87-.32-4.68.38-4.68.38-8.27-1.76-8-1.75,14.49-.08,14.49-.08Z"/><polygon class="cls-19" points="481.93 87.13 485.03 86.71 487.99 88.49 490.1 87.85 496.71 90 495.93 91.01 497.27 92.57 495.99 92.88 498.93 94.42 496.24 95.44 492.45 94.33 490.82 95.37 483.4 94.65 483.73 92.74 485.44 92.47 483.17 92.31 482.46 89.18 483.84 89.14 481.93 87.13"/><polygon class="cls-20" points="483.73 92.74 489.31 93.66 489.3 94.02 489.9 93.68 486.83 92.82 487.55 92.66 485.22 92.46 483.73 92.74"/><path class="cls-20" d="M482.46,89.18c.36.19,4.24,1.46,4.07,1.51a26.08,26.08,0,0,1-2.69-1.55Z"/><polygon class="cls-20" points="487.23 90.35 487.47 90.07 488.62 90.04 489.64 90.46 494.84 89.74 497.27 92.57 495.99 92.88 498.93 94.42 496.47 95.32 495.59 94.21 494.98 93.99 494.83 93.6 493.67 93.53 494.32 92.35 489.13 91.03 488.74 90.78 487.22 90.38 487.23 90.35 487.23 90.35"/><path class="cls-19" d="M493.67,93.53s2.53-.45,2.39-.38-1.7,1-1.7,1l.39-.45-1.36.07Z"/><polygon class="cls-20" points="491.07 89.96 492.82 88.89 496.59 90.01 494.82 90.91 493.02 90.13 491.07 89.96 491.07 89.96"/><path class="cls-21" d="M429.5,140.86l3.42.08-3.5,1.64s-3.64-.39-3.87-.32-4.69.38-4.69.38-8.27-1.76-8-1.76,14.5-.08,14.5-.08Z"/><polygon class="cls-19" points="414.2 133.52 417.3 133.11 420.26 134.89 422.38 134.25 428.99 136.4 428.2 137.41 429.54 138.97 428.26 139.28 431.2 140.82 428.51 141.84 424.72 140.74 423.09 141.77 415.66 141.05 415.99 139.14 417.7 138.87 415.43 138.72 414.72 135.58 416.1 135.54 414.2 133.52"/><polygon class="cls-20" points="415.99 139.14 421.58 140.06 421.56 140.42 422.17 140.08 419.1 139.22 419.82 139.06 417.48 138.86 415.99 139.14"/><path class="cls-20" d="M414.72,135.58c.37.19,4.24,1.46,4.08,1.51a26.27,26.27,0,0,1-2.7-1.55Z"/><polygon class="cls-20" points="419.5 136.75 419.74 136.46 420.88 136.44 421.91 136.85 427.11 136.14 429.54 138.97 428.26 139.28 431.2 140.82 428.74 141.72 427.86 140.61 427.25 140.39 427.1 140 425.93 139.93 426.59 138.75 421.39 137.43 421 137.17 419.49 136.78 419.5 136.75 419.5 136.75"/><path class="cls-19" d="M425.93,139.93s2.54-.45,2.4-.38l-1.7,1,.39-.45-1.36.07Z"/><polygon class="cls-20" points="423.34 136.36 425.1 135.29 428.86 136.4 427.09 137.3 425.29 136.53 423.34 136.36 423.34 136.36"/><path class="cls-19" d="M581.85,109.16a6.1,6.1,0,0,0-5.63,2.24c-1.87-1.19-6.72,2.11-8.23,2.77,1.44.63.56,1.73,0,2.6,3.38-.24-1.07,1.42-1.2,2.06,1.94,1,4.74,0,6.34-1,1.93,2,13.77-2,6.47-2.86l2.19-.49c-.35-.88.95-4.09-1.39-3Z"/><path class="cls-20" d="M581.39,115l-5.28,1.72c.32.66-.27.13-.57.11l2.81-1.3-.74,0A10.3,10.3,0,0,1,581.39,115Z"/><path class="cls-20" d="M581.81,111.26c-.31.24-3.83,2.06-3.65,2.08C579.1,112.78,580.52,111,581.81,111.26Z"/><path class="cls-20" d="M577.39,113.11c-.55-.59-1.84.09-2.34.46-3.06-.28-6.43,0-7,3.2,3.38-.24-1.07,1.42-1.2,2.06,2.37.69,2.41.5,3.78-1,.26-1.16,2.06,0,.27-1.71C572.22,115.59,576.34,113.75,577.39,113.11Z"/><path class="cls-19" d="M571.8,117.18c-2.13,0-3.18-.23-.54.72C569.5,117,573,117.82,571.8,117.18Z"/><path class="cls-20" d="M573.53,113.3c-1.54-1.38-4,.13-5.42.85,2,1.27,3.45-.66,5.42-.85Z"/><g class="cls-22"><path class="cls-23" d="M519.94,87.52a32.09,32.09,0,0,1,4.57.68A22.67,22.67,0,0,1,531.83,91l.84-.21-.53-.59,3.08,0-.83-1.46-3.24-.52L531,87.07l-5.15-1.89-.81.73-2.3.07.17.66L520,86Z"/><polygon class="cls-24" points="511.18 85.1 512.71 85.31 514.11 84.43 515.17 84.75 518.34 83.7 517.92 83.21 518.53 82.45 517.9 82.3 519.28 81.55 517.94 81.05 516.13 81.58 515.3 81.08 511.7 81.42 511.91 82.35 512.75 82.48 511.65 82.56 511.38 84.09 512.06 84.11 511.18 85.1"/><polygon class="cls-25" points="542.88 88.93 543.49 88.25 542.63 87.34 543.28 86.92 542.56 85.12 541.81 85.19 540.93 84.69 540.59 84.96 539.89 84.1 538.93 84.61 539.25 85.62 538.39 85.88 538.07 87.7 539.36 87.85 539.72 87.48 539.59 88.03 541.58 88.56 541.75 88.24 542.88 88.93"/><polygon class="cls-26" points="540.9 94.49 541.25 94.09 540.75 93.56 541.13 93.32 540.71 92.26 540.28 92.3 539.76 92.02 539.56 92.17 539.15 91.67 538.6 91.96 538.78 92.56 538.28 92.71 538.1 93.77 538.85 93.86 539.06 93.64 538.98 93.97 540.14 94.28 540.24 94.09 540.9 94.49"/><polygon class="cls-27" points="553.2 92.66 552.84 92.25 551.84 92.19 551.7 91.86 550.03 91.44 549.86 91.69 549.19 91.78 549.3 91.96 548.39 91.87 548.51 92.33 549.42 92.58 549.37 92.92 550.74 93.64 551.25 93.31 551.07 93.08 551.47 93.31 552.51 92.91 552.3 92.75 553.2 92.66"/><path class="cls-28" d="M489.09,85.14l.83,1.45,3.25.47.17,1.14L498.53,90l.43-.4a.86.86,0,0,1,.15-.39,2.28,2.28,0,0,0,.17-.3s0,0,0,0,0-.07-.15-.3a12.11,12.11,0,0,0-.81-.92c-.47-.47-.93-.94-1.34-1.42a17.67,17.67,0,0,1-4.52-2l-.84.22.53.58Z"/><path class="cls-29" d="M511.75,92.58l.52,0c-.61-.22-1.24-.41-1.86-.68a10.39,10.39,0,0,1-1.44-.81l-.63-.41-2.24.78.43.49-.58.78.64.15-1.37.77,1.36.49,1.81-.57.85.51,3.61-.4-.24-.94Z"/><path class="cls-30" d="M481.59,88.16a3.4,3.4,0,0,1,1-.08,32.39,32.39,0,0,1,3.58.34l.13-.76-1.3-.13-.35.37.13-.55-2-.51-.17.33-1.14-.67-.6.68.86.9Z"/><polygon class="cls-31" points="483.41 80.95 483.06 81.35 483.56 81.87 483.18 82.11 483.6 83.15 484.03 83.11 484.55 83.38 484.74 83.23 485.15 83.72 485.7 83.42 485.51 82.84 486.01 82.68 486.19 81.62 485.44 81.55 485.24 81.77 485.31 81.45 484.16 81.15 484.06 81.34 483.41 80.95"/><path class="cls-32" d="M471.17,82.92l.36.4,1,.05,0,0a3.41,3.41,0,0,1,2.45-.79h0l-1.36-.69-.51.33.19.22-.4-.22-1,.41.2.15Z"/></g><g class="cls-33"><path class="cls-34" d="M601,90.23l-3.93-.73-2.23,10.63-18.78,2.77,29.65,1.16,4.68-4.31c-1.81-1.53-9.22-1.93-10.78-3.54S602.31,91.83,601,90.23Z"/></g><g class="cls-33"><polygon class="cls-35" points="576.52 70.86 574.54 68.14 566.47 81.84 559.61 85.64 556.23 89.33 561.91 87.54 570.82 85.25 579.25 83.24 585.23 81.96 573 78.8 576.52 70.86 576.52 70.86"/></g><polygon class="cls-36" points="405.88 124.21 413.99 126.56 419.2 122.68 427.94 109.92 428.49 108.26 415.48 111.78 410.06 117.47 401.61 122.45 405.88 124.21 405.88 124.21"/><g class="cls-37"><polygon class="cls-38" points="672.18 157.51 657.13 155.32 641.28 150.92 623.39 150.51 610.36 148.66 590.56 147.83 583.4 151.93 580.97 156.77 582.31 156.4 605.41 156.84 736.74 159.56 672.18 157.51 672.18 157.51"/></g><path class="cls-39" d="M508.55,76l-2.82.7-5-2.74-1-.85-3.2-.86-3.38.27-5-.61-4.6.39L479.41,72l-.28-.09-1.5-.17L476,71.4A7.1,7.1,0,0,1,472.9,74a45.76,45.76,0,0,1-5.17,2.26l3.26.43,13.85-.83,9.43-.32,12.13,1.52,3.59-.69.12-.29Z"/><path class="cls-40" d="M495.77,69.72l-14.88.06-4.35-1c.2,1.94-.52,3.71-3.64,5.28l-.9.45,2.27.3,13.83-.83,9.41-.32,4.75-.62,11.88-2.79-10.91,1Z"/><path class="cls-41" d="M578,50.3a13.55,13.55,0,0,0-2.2-4.76l-2.24-.84-2.21-.36-5.18-2.1-8.6-3.61L553,35.18l-.82-.69c-1.4-.25-2.77-.61-4.18-1-3.91-1.09-7.79-2.24-11.77-3.23-4.4-1.09-10.07-2-12.9.84a14.2,14.2,0,0,0-2,2.86l6.8,6.11,19.21,5.6,11.78,1,11.8,2.75,7.38,3.13A16.88,16.88,0,0,0,578,50.3Z"/><path class="cls-42" d="M551.49,34.35c-1.16-.23-2.31-.53-3.48-.86-3.91-1.09-7.79-2.24-11.77-3.23s-8.82-1.78-11.85,0l.81.49,6.54,2.65,7.63.91L547.5,37l6.83-.2-1.88-1.58Z"/><path class="cls-43" d="M509.16,41.87a2.42,2.42,0,0,1,.06.84,3.62,3.62,0,0,1-1.17,1.64,1.11,1.11,0,0,1,.07.29,1,1,0,0,1,0,.84,3,3,0,0,1-1.87,1.64c-2.2.86-4.2,0-6.48-.06a26.76,26.76,0,0,0-3.07.29,9.17,9.17,0,0,1,.88.46c1.17.73,1.82,1.58,3.39,2.08,1.11.35,2.39.48,3.52.81,2.39.71,3.9,1.83,4.26,3.4.13.55,0,1.08.1,1.62a3,3,0,0,0,.57,1.08c1.36.55,8.44,1.24,9.78,1.82-6.57-3.48-7.61-6.86-5.37-10.18Z"/><polygon class="cls-44" points="674.02 150.43 672.7 149.52 664.96 146.76 653.76 142.3 652.85 141.8 674.02 150.43 674.02 150.43"/><g class="cls-45"><polygon class="cls-46" points="600.47 122.51 599.14 119.94 596.02 120.7 594.09 122.42 594.79 122.96 601.36 133.51 603.92 138.08 602.28 126.64 600.47 122.51 600.47 122.51"/></g><g class="cls-45"><polygon class="cls-47" points="608.53 113.27 607.23 117.1 609.07 120.11 611.58 125.98 619.32 118.35 622.87 121.8 621.99 117.4 617.52 106.29 608.53 113.27 608.53 113.27"/></g><path class="cls-48" d="M465.65,153.82a33.22,33.22,0,0,1,4.21-.79,20.45,20.45,0,0,1,4.88.17c5.48.77,10.36,3.3,15.72,4.45s10.75,0,16.15.27a34.42,34.42,0,0,1,8.74,1.75c3.06,1,6.15,1.93,9.32,2.64a48.69,48.69,0,0,0,9,1.21l-5.13-5.42-4.61-3-4.53-1.85-9.52-6.79-5.17-3.64-3.65-1.37-2.78-.39-2.66-3.28-.57-2.46-3.48-2-7.19,1.31-3.17,3.66-9.93,6.41-11.15,6.57-3.06,2.32,5.27.67A14.87,14.87,0,0,0,465.65,153.82Z"/><path class="cls-49" d="M516.16,165.87l4.37,1.06,4.21-.29C521.88,166.39,519,166.1,516.16,165.87Z"/><g class="cls-50"><path class="cls-51" d="M481.65,141c.93.63,1.89,1.22,2.86,1.79,4.11,0,8.44-.85,11.56,2.16.57.54,1,1.17,1.6,1.7a6.24,6.24,0,0,0,2.74,1.31c2.56.69,5.26.82,7.65,2a33.45,33.45,0,0,1,4.63,3.21c1.84,1.26,4.13,1.84,6.26,2.63a28.32,28.32,0,0,1,6.13,3.06c2.13,1.46,4.73,2.23,7,3.44.24.12.47.26.71.4l-4.29-4.54-4.61-3-4.53-1.85-9.52-6.79-5.17-3.64-3.65-1.37-2.78-.39-2.66-3.28-.57-2.46-3.48-2-7.19,1.31-3.16,3.66-1.67,1.07.1.11A15.21,15.21,0,0,0,481.65,141Z"/></g><path class="cls-52" d="M553.46,138.1c1.06,1.16,2,2.37,3,3.6l-2.62-13.6-10.58-13.46.47-9.2-37.22-9.66-14.73-2.37-44.28,1.07,27.64,4.78,11.16,3.29,4.11,2.35,7,.92L523.54,111l6.62,0,15.37,13.54,1.82-.19,5.9,13.5A1.8,1.8,0,0,1,553.46,138.1Z"/><path class="cls-53" d="M477.4,88c-2-6.26-4.78-13.21-12.75-16-3.33-1.17-7.36-1.51-10.06-3.31,2.05-2.07-2.56-5.88-2.84-8.31-3.69.71.47,3.09-3.3,3.22-2.41.08-1.41.36-3.76.13-.69-.06-1.06,1.78-1.44,2.22-.61.71,1.9,2,2.75,2.52,2.33,1.31,2.22,1.35,5.21,1.71-3,3.06-9.1,3.87-12.21,6.86-3.53,3.4-1.77,7.89-1.42,11.94.56,6.36-2.75,13.29.83,19,1.59-2.74,6.73-3.33,10.67-2.86s8.07,1.51,11.88.33c3.05-.94,5.3-3.17,8.5-3.72a37.53,37.53,0,0,1,5-.12c4.06-.15,6.5-1,6.13-3.78C480.12,94.55,478.43,91.21,477.4,88Z"/><path class="cls-54" d="M436.92,81.17a26.36,26.36,0,0,1,3.7,5.07c.36-1.14.73-2.27,1.09-3.41,1.4,1,1.56,2.59,2.12,4A4,4,0,0,0,448,89.35a4.65,4.65,0,0,0-.24-6.12c-.35-.38-.42-1.17.22-1.09.48.85.16-2.7.89-3.52.31-.34,2.71,2.86,3.05,2.53s1.15-.46,1.37-.11c-1.91.9.33,2.43-1.15,4.17a11.31,11.31,0,0,0,4.26-1.49c.56.34-1-6-.26-5.94-.63-3.3,7.56,6.36,5.7,3.37,1.7,1.27-.18-4.17,1.13-2.68,2.48,2.83,2.83,4,6.44,6.07-.25-2.41.23-2.43,1.53-4.74.44-.78,1-1.56,1.4-2.35,2.51,3.14,3.92,7,5.09,10.58,1,3.18,2.72,6.52,3.17,9.79.37,2.74-2.07,3.63-6.13,3.78a37.53,37.53,0,0,0-5,.12c-3.2.55-5.45,2.78-8.5,3.72-3.81,1.18-7.94.14-11.88-.33s-9.08.12-10.67,2.86c-3.58-5.69-.27-12.62-.83-19C437.36,86.43,436.58,83.69,436.92,81.17Z"/><path class="cls-55" d="M480.57,97.82c-.45-3.27-2.14-6.61-3.17-9.79-.14-.44-.29-.88-.44-1.33l0-.06c-.15-.43-.3-.87-.46-1.31l0,0c-2-5.44-5-10.87-11.81-13.27-1.4-.49-2.92-.84-4.42-1.21l-.25-.06-.44-.11-.54-.14-.27-.07-.76-.23-.25-.07-.58-.2-.22-.08-.74-.29-.07,0-.23-.11c.65-.42,1.2-.93.75-1.3a2.1,2.1,0,0,0-1.5-.07,1.54,1.54,0,0,1,0-.48,1.3,1.3,0,0,1,0-.34h-.06c-.17-2.11-3.13-4.91-3.35-6.84-3.69.71.47,3.09-3.3,3.22-2.41.08-1.41.36-3.76.13-.69-.07-1.06,1.78-1.44,2.22-.61.71,1.9,2,2.75,2.52a9.51,9.51,0,0,0,3.09,1.4l-.25.14c-.34.18-.73.48-.52.75a.8.8,0,0,0,.38.19,4,4,0,0,0,1.64,0l0,0c-.17.13-.34.26-.53.38l-.28.18c-.19.12-.38.24-.58.35l-.26.15c-.25.13-.49.26-.75.38-3,1.49-6.7,2.52-8.89,4.63a6.76,6.76,0,0,0-2.08,4.12h0c0,.32-.07.63-.08,1h0a28,28,0,0,0,.5,5c.05.3.09.59.13.89v.09c0,.31.07.62.1.93.56,6.36-2.75,13.29.83,19,1.49-2.57,6.1-3.25,9.92-2.94l.75.08c2,.23,4,.61,6,.78a16.26,16.26,0,0,0,5.17-.26c.24,0,.48-.12.72-.19,3.05-.94,5.3-3.17,8.5-3.72a37.53,37.53,0,0,1,5-.12,17.26,17.26,0,0,0,3.29-.39C479.75,100.71,480.82,99.7,480.57,97.82Z"/><path class="cls-56" d="M451.21,70.19l-.56-.08c.69-.25,1.41-.46,2.08-.74a12.57,12.57,0,0,1,2-.79l-.12.12c1.91,1.27,4.48,1.81,7,2.44a2.79,2.79,0,0,0,.05,1.62,11.08,11.08,0,0,0,1.26,1.94,3.48,3.48,0,0,1,.45,2.45,21.32,21.32,0,0,0-7.23-5c-.41,1.33-.83,2.65-1.24,4-1.57-.42-1.08-2.55-2.73-2.8L450.58,75a.79.79,0,0,0-.48-.78c-.31.31-1.06.59-1.2.25a.33.33,0,0,1,0-.24c.15-.52.31-1,.46-1.55a3.81,3.81,0,0,0-1.59-.15A12.26,12.26,0,0,0,451.21,70.19Z"/><path class="cls-57" d="M456.16,69.54a17.14,17.14,0,0,1-6,1.55,9.2,9.2,0,0,0,1-.9l-.56-.08c.69-.25,1.41-.46,2.08-.74a12.57,12.57,0,0,1,2-.79l-.12.12A9.42,9.42,0,0,0,456.16,69.54Z"/><path class="cls-57" d="M448.81,69.78a4.88,4.88,0,0,1,1.22-.64c.23-.07.47-.11.69-.17a11,11,0,0,0,1.53-.66,13.17,13.17,0,0,1,2.91-1.09,1.3,1.3,0,0,0,0,.34,1.44,1.44,0,0,0,0,.55c-.17.2-.35.4-.54.59l.46.28c-.28.19-.53.35-.68.43a7.48,7.48,0,0,1-1.86.67l-1.65.43.35-.32C450.39,70.09,449.59,70,448.81,69.78Z"/><path class="cls-53" d="M452.65,68.77a9.33,9.33,0,0,1-1.6.51c-.23,0-.47.07-.71.12a5.39,5.39,0,0,0-1.5.62c-.34.18-.73.48-.52.75a.8.8,0,0,0,.38.19,4.51,4.51,0,0,0,1.79,0l2.22-.37a7.91,7.91,0,0,0,1.93-.48c.61-.28,2.76-1.33,2-2S453.37,68.51,452.65,68.77Z"/><path class="cls-58" d="M446,68.48a17.31,17.31,0,0,0,2.25,1.17l.69-.21h-.2a2.81,2.81,0,0,1-.91-.26,14.37,14.37,0,0,1-2-1.33c-.31-.21-.65-.39-.95-.61a6.27,6.27,0,0,1-.75-.7,2.84,2.84,0,0,1-.55-.75,2.25,2.25,0,0,0-.12-.21,1.85,1.85,0,0,1-.22.39C442.64,66.67,445.15,68,446,68.48Z"/><path class="cls-59" d="M450.35,70.81h0s0,0,0,0h-.15s0,0,0,0h0a5.09,5.09,0,0,1-.56,0,.51.51,0,0,1-.31-.11.3.3,0,0,1-.11-.37,1.21,1.21,0,0,1,.44-.43h0v0h0a.26.26,0,0,1-.07-.15A6.45,6.45,0,0,1,449,70l-.11.06c-.34.18-.73.48-.52.75a.8.8,0,0,0,.38.19,4,4,0,0,0,1.64,0l0,0c-.17.13-.34.26-.53.38l-.28.18c-.19.12-.38.24-.58.35l-.26.15c-.25.13-.49.26-.75.38-3,1.49-6.7,2.52-8.89,4.63a6.76,6.76,0,0,0-2.08,4.12h0c0,.32-.07.63-.08,1h0a28,28,0,0,0,.5,5c.05.3.09.59.13.89v.09c0,.31.07.62.1.93.51,5.84-2.23,12.16.09,17.56a2.17,2.17,0,0,1,.32-.37,5.76,5.76,0,0,0,1.28-3.89,2.11,2.11,0,0,1-1.21-2.64,18.66,18.66,0,0,0,.44-3.15c.13-.72.7-1.52.65-2.25s-.74-1.18-.75-1.93a7.34,7.34,0,0,1,.36-1.47c.15-.93.15-.28-.35-1.39-.38-.86-.09-1.39,0-2.23a7.82,7.82,0,0,1-.14-.89,5.2,5.2,0,0,1,.28-1.57,3.16,3.16,0,0,1-.12-1.84c.08-.2.56-1.36.53-.67.06-1.69-.47-2.78.85-4.3a11.75,11.75,0,0,1,3.88-2.49A23.44,23.44,0,0,0,449,72.12a2.6,2.6,0,0,1,.84-.49,5.22,5.22,0,0,0,.49-.61,1,1,0,0,0,0-.12A.41.41,0,0,1,450.35,70.81Z"/><polygon class="cls-39" points="546.68 113.53 542.41 110.04 519.85 105.3 515.95 104.92 468.46 99.01 442.27 101.36 433.66 108.17 437.37 108.45 443.82 109.64 450.37 110.27 464.22 113.56 474.19 117.51 475.51 117.68 486.69 114.15 486.94 114 495.84 114.39 507.22 116.44 520.96 123.57 526.34 121.5 547.61 119.33 546.68 113.53 546.68 113.53"/><polygon class="cls-60" points="447.71 101.79 450.48 105.61 456.11 105.75 464.73 105.98 470.2 108.1 475.73 108.25 487.23 107.06 494.5 104.64 497.23 103.02 468.46 99.01 442.27 101.36 447.71 101.79 447.71 101.79"/><polygon class="cls-61" points="614.02 112.29 617.67 109.17 617.79 106.11 598 111.88 591.98 113.98 586.82 113.68 565.38 116.58 564.1 116.64 560.81 117.61 560.47 118.42 561.17 120.5 565.24 124.55 567.69 126.02 586.15 125.35 594.54 121.38 596.84 120.01 597.01 119.79 598.33 119.29 604.02 121.04 609.45 118.28 609.73 117.86 614.02 112.29 614.02 112.29"/><g class="cls-62"><polygon class="cls-63" points="561.15 121.97 569.16 121.06 582.61 118.92 588.18 113.8 586.82 113.68 565.38 116.58 564.1 116.64 560.81 117.61 560.76 121.17 561.15 121.97 561.15 121.97"/></g><polygon class="cls-64" points="479.7 139.84 463.76 138.62 459.32 134.77 449.59 137.87 443.47 136.81 436.93 136.7 429.89 139.01 425.27 138.93 419.03 140.2 412.87 140.09 406.58 141.88 399.12 143.75 393.63 144.9 396.58 147.08 409.68 148.29 422.06 148.49 439.1 148.78 447.27 147.93 465.4 147.54 479.7 139.84 479.7 139.84"/><g class="cls-65"><polyline class="cls-66" points="481.5 55.99 493.15 60.01 503.47 60.23 505.59 65.14 515.46 68.13 494.17 64.69 487.35 63.64 481.88 60.25 479 57.87 480.85 55.53 482.6 55.8"/></g><path class="cls-67" d="M572.1,63.83l6.23-10.91a1.64,1.64,0,0,0,0-.22l-3.73-.87-2-1.34-2.13.39h.37l1.35,1.61-.29,2.11Z"/><g class="cls-22"><path class="cls-68" d="M452.27,126.65a25.93,25.93,0,0,1,3.62.55,17.26,17.26,0,0,1,5.77,2.3l.68-.18-.4-.48h2.46l-.61-1.2-2.58-.42-.09-.93-4.06-1.54-.66.6-1.85,0,.12.54-2.33-.49Z"/><polygon class="cls-69" points="445.33 124.67 446.55 124.84 447.69 124.13 448.53 124.39 451.1 123.53 450.78 123.13 451.29 122.51 450.79 122.38 451.92 121.77 450.86 121.37 449.39 121.8 448.75 121.39 445.86 121.67 446 122.43 446.67 122.54 445.78 122.6 445.52 123.85 446.06 123.87 445.33 124.67"/><polygon class="cls-70" points="470.57 127.8 471.07 127.24 470.41 126.5 470.95 126.15 470.43 124.68 469.83 124.74 469.14 124.34 468.86 124.55 468.33 123.85 467.55 124.27 467.77 125.09 467.08 125.31 466.76 126.8 467.79 126.92 468.09 126.61 467.96 127.06 469.54 127.5 469.68 127.24 470.57 127.8"/><polygon class="cls-71" points="468.8 132.33 469.1 132.01 468.71 131.58 469.02 131.38 468.72 130.52 468.38 130.55 467.97 130.32 467.81 130.44 467.5 130.03 467.05 130.27 467.17 130.76 466.77 130.88 466.59 131.75 467.18 131.82 467.36 131.64 467.28 131.91 468.2 132.16 468.29 132.01 468.8 132.33"/><polygon class="cls-72" points="478.69 130.84 478.42 130.5 477.63 130.45 477.52 130.18 476.2 129.85 476.06 130.04 475.52 130.12 475.6 130.27 474.87 130.2 474.95 130.57 475.68 130.77 475.63 131.05 476.69 131.64 477.12 131.37 476.97 131.18 477.29 131.37 478.13 131.04 477.97 130.91 478.69 130.84"/><path class="cls-73" d="M427.66,124.72l.63,1.18,2.58.39.1.93,4.11,1.49.35-.33a.59.59,0,0,1,.13-.32,1.49,1.49,0,0,0,.14-.24v0c0-.06,0-.06-.11-.25a8.53,8.53,0,0,0-.62-.75c-.36-.39-.72-.76-1-1.16a13,13,0,0,1-3.56-1.61l-.68.18.41.48Z"/><path class="cls-74" d="M445.57,130.79l.41,0c-.48-.17-1-.33-1.46-.55a8.21,8.21,0,0,1-1.13-.67l-.5-.33-1.81.64.34.4-.5.63.51.12-1.11.64,1.07.39,1.46-.46.67.41,2.89-.32-.16-.76Z"/><path class="cls-75" d="M421.58,127.18a2.83,2.83,0,0,1,.77-.06,24.13,24.13,0,0,1,2.85.28l.12-.63-1-.1-.3.31.12-.46-1.58-.41-.15.26-.88-.54-.51.56.67.73Z"/><polygon class="cls-76" points="423.23 121.3 422.94 121.62 423.32 122.04 423.02 122.25 423.32 123.09 423.67 123.06 424.07 123.28 424.24 123.16 424.55 123.56 425 123.31 424.86 122.83 425.26 122.7 425.44 121.84 424.84 121.78 424.67 121.96 424.74 121.7 423.82 121.46 423.74 121.61 423.23 121.3"/><path class="cls-77" d="M413.38,122.91l.28.33.79,0v0a2.76,2.76,0,0,1,2-.65h0l-1.07-.56-.42.27.15.18-.32-.18-.84.33.16.13Z"/></g><g class="cls-22"><path class="cls-78" d="M530.82,49.08a13,13,0,0,1-2-1,6.67,6.67,0,0,1-2.53-2.39l-.51,0,0,.36-1.54-.44-.19.82,1.41.71-.38.56,1.82,1.65.7-.24,1.19.3.18-.34,1.23.71Z"/><polygon class="cls-79" points="534.26 51.51 533.57 51.18 532.51 51.4 532.11 51.09 530.08 51.14 530.09 51.44 529.48 51.72 529.73 51.88 528.73 52.04 529.21 52.48 530.34 52.48 530.55 52.85 532.51 53.2 532.78 52.72 532.41 52.54 533 52.66 533.75 51.96 533.42 51.85 534.26 51.51"/><polygon class="cls-80" points="519.88 45.11 519.29 45.35 519.35 45.9 518.85 46.01 518.47 46.97 518.87 47.04 519.11 47.4 519.39 47.33 519.39 47.84 520.08 47.73 520.34 47.2 520.87 47.2 521.78 46.38 521.2 46.13 520.87 46.25 521.16 46.01 520.38 45.47 520.16 45.6 519.88 45.11"/><polygon class="cls-81" points="523.15 42.77 522.81 42.91 522.84 43.23 522.55 43.29 522.33 43.85 522.57 43.89 522.71 44.1 522.87 44.06 522.87 44.35 523.27 44.29 523.41 43.99 523.73 43.98 524.25 43.51 523.91 43.36 523.72 43.44 523.89 43.3 523.44 42.98 523.31 43.06 523.15 42.77"/><polygon class="cls-82" points="516.26 41.88 516.27 42.12 516.74 42.29 516.67 42.47 517.34 42.9 517.52 42.81 517.89 42.87 517.92 42.76 518.34 42.94 518.46 42.7 518.11 42.45 518.28 42.3 517.89 41.77 517.5 41.85 517.5 41.99 517.39 41.82 516.71 41.86 516.75 41.96 516.26 41.88"/><path class="cls-83" d="M545.44,54.68l.14-.82-1.45-.7.36-.57L542.59,51l-.37.13a.86.86,0,0,1-.23.17l-.2.11,0,0s0,0,0,.16a3,3,0,0,0,0,.56c.05.3.1.59.12.88a5.13,5.13,0,0,1,1.5,1.61h.52l0-.36Z"/><path class="cls-84" d="M537,47.84l-.28-.05a7.32,7.32,0,0,1,.66.59,2.73,2.73,0,0,1,.41.59c0,.1.1.19.15.29l1.44,0,0-.3.6-.28-.26-.17,1-.17-.49-.43H539l-.22-.36-2-.33-.25.48Z"/><path class="cls-85" d="M550.41,54.31a1.78,1.78,0,0,1-.52-.1,14.91,14.91,0,0,1-1.67-.68l-.36.34.6.25.33-.13-.29.25.81.54.22-.13.31.48.57-.24-.09-.56Z"/><polygon class="cls-86" points="546.67 57.55 547.01 57.4 546.96 57.08 547.24 57.01 547.44 56.45 547.2 56.41 547.05 56.2 546.89 56.24 546.88 55.94 546.48 56.01 546.34 56.32 546.03 56.33 545.52 56.81 545.87 56.96 546.06 56.88 545.9 57.03 546.37 57.34 546.49 57.26 546.67 57.55"/><path class="cls-87" d="M553.66,58.37l0-.25-.48-.17v0a2.47,2.47,0,0,1-1.55,0h0l.42.54.39-.09v-.13l.11.16.69,0-.05-.11Z"/></g><g class="cls-22"><path class="cls-88" d="M538.47,38.47a11.23,11.23,0,0,1-1.56-.45,6.48,6.48,0,0,1-2.26-1.31l-.34,0,.12.23-1.11-.14.1.54,1.1.33-.1.4L536,39l.39-.22.84.09,0-.24,1,.35Z"/><polygon class="cls-89" points="541.32 39.72 540.79 39.58 540.18 39.81 539.84 39.65 538.55 39.87 538.64 40.06 538.32 40.29 538.53 40.38 537.93 40.57 538.35 40.81 539.08 40.71 539.31 40.93 540.66 40.98 540.71 40.64 540.42 40.56 540.83 40.58 541.12 40.06 540.88 40.02 541.32 39.72"/><polygon class="cls-90" points="530.39 36.9 530.08 37.11 530.27 37.46 529.98 37.58 529.99 38.23 530.27 38.24 530.52 38.46 530.68 38.38 530.82 38.72 531.23 38.58 531.25 38.22 531.6 38.17 531.96 37.55 531.51 37.44 531.33 37.55 531.46 37.37 530.81 37.09 530.71 37.19 530.39 36.9"/><polygon class="cls-91" points="531.85 35.09 531.67 35.21 531.78 35.41 531.61 35.48 531.62 35.86 531.78 35.87 531.93 35.99 532.02 35.95 532.1 36.14 532.34 36.06 532.35 35.85 532.55 35.82 532.76 35.47 532.5 35.4 532.4 35.47 532.47 35.36 532.1 35.2 532.04 35.26 531.85 35.09"/><polygon class="cls-92" points="527.19 35.14 527.27 35.3 527.61 35.37 527.62 35.49 528.16 35.7 528.26 35.63 528.51 35.63 528.5 35.56 528.81 35.63 528.83 35.47 528.54 35.34 528.6 35.23 528.21 34.92 527.98 35.01 528.02 35.1 527.9 35 527.48 35.09 527.53 35.15 527.19 35.14"/><path class="cls-93" d="M549.31,40.75l-.12-.55-1.12-.31.08-.41-1.65-.87-.2.11a.41.41,0,0,1-.1.13.47.47,0,0,0-.1.1v0s0,0,0,.1a4,4,0,0,0,.18.36c.11.19.22.37.31.56a4.91,4.91,0,0,1,1.39.9l.33,0-.12-.23Z"/><path class="cls-94" d="M542.07,37.11h-.19c.19.1.39.2.58.32a2.8,2.8,0,0,1,.41.35l.18.16.9-.16-.09-.19.31-.24-.22-.08.59-.2-.43-.23-.72.11-.24-.21-1.34,0,0,.33Z"/><path class="cls-95" d="M552.38,40.05a1,1,0,0,1-.35,0,11.45,11.45,0,0,1-1.25-.28l-.14.25.45.11.17-.11-.11.18.66.27.1-.1.33.29.3-.22-.21-.35Z"/><polygon class="cls-96" points="550.86 42.48 551.04 42.36 550.92 42.15 551.08 42.08 551.06 41.7 550.89 41.7 550.74 41.57 550.65 41.62 550.57 41.43 550.33 41.51 550.33 41.72 550.13 41.75 549.93 42.11 550.2 42.17 550.3 42.11 550.23 42.22 550.61 42.37 550.67 42.31 550.86 42.48"/><path class="cls-97" d="M555.53,42.37l-.08-.16-.35-.06v0a1.45,1.45,0,0,1-1,.16h0l.41.3.22-.09,0-.09.12.1.42-.09,0-.07Z"/></g><polygon class="cls-98" points="486.15 111.46 506.07 109.93 505.41 119.28 487.35 120.64 486.15 111.46"/><path class="cls-99" d="M500,104.32l-3.5-.06a1.5,1.5,0,0,1-1.64,1.5,1.52,1.52,0,0,1-1.77-1.56l-3.41-.06c-.14.4-3.57,7.32-3.57,7.32l19.93-1.53Z"/><polygon class="cls-100" points="486.15 111.46 482.08 112.02 484.51 120.44 487.35 120.64 486.15 111.46"/><path class="cls-101" d="M487.71,116.18c1.14,0,2,.85,3.08,1.13,2.2.55,4.29-1.35,6.59-1.38a7.14,7.14,0,0,0,2.22-.06,6.66,6.66,0,0,0,1.1-.63c1.76-1,4.21-.51,6.23.13a13.28,13.28,0,0,1,3.75,1.67,3.42,3.42,0,0,1,1.63,3.1l-10,2.4a10.21,10.21,0,0,1-3.55.42,4.41,4.41,0,0,0-2-.08,6.11,6.11,0,0,0-1.22.86c-1.1.72-2.68.41-4.08.32a43.77,43.77,0,0,0-6.35.47c-2.5.21-10.59.5-7.22-3,1.3-1.36,3.11-1.86,4.92-2.58C484.42,118.3,485.94,116.19,487.71,116.18Z"/><path class="cls-102" d="M484.61,118.7a24.22,24.22,0,0,0,4.5.24c.89-.1,1.73-.4,2.61-.55s1.78-.24,2.68-.34c1.74-.18,3.36-.63,5.07-1a26.64,26.64,0,0,1,5-.17c1.41,0,2.64-.62,4-.79l.48,0c-.65-.28-1.34-.51-2-.73-2-.64-4.47-1.17-6.23-.13a6.66,6.66,0,0,1-1.1.63,7.14,7.14,0,0,1-2.22.06c-2.3,0-4.39,1.93-6.59,1.38-1.08-.28-1.94-1.13-3.08-1.13-1.57,0-2.95,1.67-4.33,2.48C483.79,118.66,484.2,118.67,484.61,118.7Z"/><path class="cls-103" d="M611.41,153c3.22.08,6.54.18,9.47,1.4,1.61.66,3,1.65,4.67,2.25,4.74,1.73,10.56,0,15,2.39-4.74,2.38-10.68,1.29-16.18,1.06-2.79-.12-5.58,0-8.36.14-3.8.18-18.39,3.5-20.27,0C592.08,153.39,608.22,152.88,611.41,153Z"/><path class="cls-104" d="M497.94,160.52a13.09,13.09,0,0,0-5.24,1.92c.74.52.1,1.55.21,2.38a2.12,2.12,0,0,0,1.79,1.53,7.18,7.18,0,0,0,2.61-.12c-.18.57.71.91,1.38,1L514.84,169c2.58.29,5.36.54,7.6-.55-3.18-.55-6.39-1.29-9.61-1.6-1.89-.19-4.15.19-6-.34C502,165.14,504.53,159.13,497.94,160.52Z"/><path class="cls-105" d="M382.54,155.68c0,.53.75.76,1.34.84l14.58,1.93a29,29,0,0,0,5.17.38c2-.08,25.51,2.39,26.42,1,1.33-2-15.78-5.41-17.22-6.09-4.8-2.24-8-1-12.86.24C398.42,154.41,382.54,155.07,382.54,155.68Z"/><path class="cls-106" d="M352.1,142.94a14.71,14.71,0,0,1,3.59-1.43,122.4,122.4,0,0,1,23.4-4.43c-1.62,0-2.84,1.19-4.11,2.06-3.44,2.34-8.08,2.67-12.11,4.11-1.3.46-2.54,1-3.83,1.52a44.74,44.74,0,0,1-14.19,2.37c.6-1.4,1.84-1.07,3.12-1.49C349.65,145.11,350.66,143.82,352.1,142.94Z"/><path class="cls-107" d="M555.88,164.74,542.2,166.6a15.36,15.36,0,0,1-2.7.21c-2-.09-7.81-.12-9.24-1.35-2.86-2.49,1.44-2.69,3.46-2.81a71.72,71.72,0,0,1,11.16.21C548,163.15,553,165.13,555.88,164.74Z"/><path class="cls-108" d="M561.49,163c1,.12,2,.27,2.94.48a10.78,10.78,0,0,0,3.17.44,9.71,9.71,0,0,0,3.94-1.74,20.26,20.26,0,0,1,6.07-2.32,6.51,6.51,0,0,1-1.78,1.85l-5.23,4.13a5.15,5.15,0,0,1-2,1.13c-2.21.54-4.54-1.57-6.72-.92-.73.22-1.3.72-2,1a7,7,0,0,1-3.29.13l-4.47-.54a26.16,26.16,0,0,1-6.09-1.25c-2.48-.94-3.36-2-.19-2.4A63.21,63.21,0,0,1,561.49,163Z"/><path class="cls-109" d="M688.38,150.78a12.74,12.74,0,0,1,2.13-1,7.39,7.39,0,0,1,3.48.27,119.75,119.75,0,0,1,12.35,3.4,11.25,11.25,0,0,0,3.68.88c1.32,0,2.58-.51,3.9-.45s2.56.69,3.88.75a15.78,15.78,0,0,0,3.54-.53,4.06,4.06,0,0,1,3.39.63c.5.47.78,1.17,1.45,1.42a5.11,5.11,0,0,0,1.57.1c.53,0,1.15.35,1.1.81L715.61,157a29,29,0,0,1-5.43-.4c-1.18-.24-2.34-.63-3.54-.78a22.15,22.15,0,0,0-3.82,0c-6.76.29-13.52-.69-20.23-1.67a3.68,3.68,0,0,1-1.41-.42,2.77,2.77,0,0,1-.95-1.49c-.19-.56-.37-1.22,0-1.66,1-1.12,2.35.49,3.31.8A7.28,7.28,0,0,0,688.38,150.78Z"/><path class="cls-110" d="M555,51.28,557.09,47c.56-2.55-14-5.62-14.63-2.91,0,.17-1.21,9.1-1.21,9.1Z"/><path class="cls-111" d="M539.45,46.44s2.69,0,2.68,0l-.75,5.67-2.65-.61Z"/><polygon class="cls-112" points="556.08 49.03 551.72 48.53 547.96 60.9 549.94 61.56 556.08 49.03"/><path class="cls-113" d="M537.86,58,548,60.9l3.76-12.36s-7.17,3.85-12.32-2Z"/><path class="cls-114" d="M544.37,59.88c.39-2.2,1.41-7.43,2-10.1a11.8,11.8,0,0,0,2.47-.25c-.8,2.4-2.67,8.26-3.43,10.64Z"/><path class="cls-114" d="M540.21,58.67c.3-2.09,1-7.51,1.38-10.28a9.26,9.26,0,0,0,2.06,1l-1.8,9.8Z"/><path class="cls-115" d="M556.08,49a12.31,12.31,0,0,0-1.13-.52l-3.8-.42.57.45Z"/><path class="cls-116" d="M554.66,59.09a1.13,1.13,0,0,0-.29-.51c-.45-.38-1.18.06-1.56.47-.16-.47-.85-.71-1.46-.72s-1.2.14-1.81.14c-1.76,0-3.36-1.34-5.07-1a11.8,11.8,0,0,0-1.35.43c-.58.19-4-.54-4.66-.47-3.51.41-4.29,1.12-7.78.51,2.27,1.68,5.81,1.21,8.71,2,1.09.3,2.09.77,3.18,1a15.87,15.87,0,0,0,2.58.36c4.11.37,9.41,1,13.14-.73C557,60.39,555.19,60.29,554.66,59.09Z"/><path class="cls-117" d="M554.43,60.29a5.78,5.78,0,0,0-1.85-.3c-1.74-.14-2.82-.77-4.51-.07-.68.28-1.14.79-2,.24-.3-.18-.45-.6-.69-.83a3.24,3.24,0,0,0-1.85-.72,5,5,0,0,1-1.89-.84,4.94,4.94,0,0,0,1.5.08,11.8,11.8,0,0,1,1.35-.43c1.71-.29,3.31,1,5.07,1,.61,0,1.2-.15,1.81-.14s1.3.25,1.46.72c.38-.41,1.11-.85,1.56-.47a1.13,1.13,0,0,1,.29.51c.53,1.2,2.35,1.3,3.63,1.47a10.9,10.9,0,0,1-2,.68C555.65,61,555.1,60.56,554.43,60.29Z"/><path class="cls-118" d="M551.67,61.35c.46.08.88,0,1.33.1a2.48,2.48,0,0,1,.7.19,36.21,36.21,0,0,1-5.51-.08l.4-.19C549.83,60.81,550.43,61.14,551.67,61.35Z"/><path class="cls-119" d="M537.84,57.46a11.71,11.71,0,0,0,1.51.88c.92.43,1.73,1.07,2.69,1.45.42.16.79.15,1.21.27,1,.27,1,.67,1.62,1.19l0,0a15.09,15.09,0,0,1-2.32-.34c-1.09-.27-2.09-.74-3.18-1-2.9-.79-6.44-.32-8.71-2C534,58.47,534.84,57.88,537.84,57.46Z"/><polygon class="cls-120" points="534.94 118.21 584.63 125.98 577.32 147.03 532.3 139.93 534.94 118.21"/><path class="cls-121" d="M573.27,109.7l-8.51-2.11c-.37,1.66-2.13,3-4.93,2.5-3-.59-4-2.82-3.38-4.57l-8.32-2.07c-.58.84-13.19,14.76-13.19,14.76l49.7,7.77Z"/><polygon class="cls-122" points="534.94 118.21 524.65 117.19 525.48 137.87 532.3 139.93 534.94 118.21"/><path class="cls-123" d="M561.13,151.78c3.07.11,6-1,8.87-1.77s5.8-1.54,8.68-2.36a83.38,83.38,0,0,1,9.2-2.24,34.62,34.62,0,0,1,3.78-.4l-.09-.11c-2.13-2.39-5.15-4.22-8.16-6-4.55-2.62-10.21-5.23-15.17-3.84a15.7,15.7,0,0,1-3.08.83c-1.83.15-3.62-.72-5.45-1.12-5.66-1.25-11.91,1.94-17-.58-2.49-1.24-4.07-3.68-6.86-4.31-4.34-1-9.35,3-13.55,3.5-4.86.61-9.61.74-13.61,3.13-10.41,6.19,9.57,10.12,15.81,11.05,5.3.79,10.74,1,15.85,2.51,3.36,1,7,2.6,10.17,1.57,1.19-.39,2.18-1.15,3.5-1.26,1.63-.15,3.2.71,4.76,1.27.47.17.94.3,1.41.42A1.13,1.13,0,0,1,561.13,151.78Z"/><path class="cls-124" d="M589.76,146.48c-3,.64-6,1.54-9,2.38-1.27.36-2.54.7-3.82,1l3.49-.85a103.47,103.47,0,0,1,12.06-2.3c1.45-.17,2.93-.3,4.41-.33q-.18-.39-.39-.78A33.55,33.55,0,0,0,589.76,146.48Z"/><path class="cls-125" d="M581.09,136.24a2.34,2.34,0,0,1,.15-.27c-3.81-1.83-8-3.13-11.83-2.06a16.86,16.86,0,0,1-3.08.83c-1.83.14-3.62-.72-5.45-1.12-5.67-1.25-11.92,1.94-17-.58-2.5-1.24-4.07-3.68-6.86-4.32-3.86-.87-8,2.35-11.86,3.95,1,.24,1.74-.24,2.73.06,3.58,1.09,7.09,2.63,10.87,3.1,2.23.28,4.48.06,6.72.22s4.51.46,6.77.75c4.38.56,8.61.45,13,.69s8.09,1.44,12.27,2.42a14,14,0,0,0,2,.32C580,138.88,580.51,137.55,581.09,136.24Z"/><path class="cls-126" d="M526.77,133.94c3.58,1.09,7.08,2.62,10.87,3.09,2.22.28,4.48.06,6.72.22s4.51.46,6.76.75c4.38.56,8.61.46,13,.69s8.1,1.44,12.28,2.42c3.45.82,6.82.07,10.33.47l1.22.17c-1.43-1-3-1.92-4.52-2.8-4.55-2.62-10.21-5.23-15.17-3.84a15.7,15.7,0,0,1-3.08.83c-1.83.15-3.62-.72-5.45-1.12-5.66-1.25-11.91,1.94-17-.58-2.49-1.24-4.07-3.68-6.86-4.31-3.86-.88-8.24,2.15-12.11,3.2C524.78,133.37,525.78,133.63,526.77,133.94Z"/><g class="cls-127"><path class="cls-128" d="M573.27,109.7l-8.51-2.11c-.37,1.66-2.13,3-4.93,2.5-3.05-.59-4-2.82-3.38-4.57l-8.32-2.07c-.58.84-13.19,14.76-13.19,14.76l49.7,7.77Z"/><path class="cls-129" d="M561.13,151.78c3.07.11,6-1,8.87-1.77s5.8-1.54,8.68-2.36a83.38,83.38,0,0,1,9.2-2.24,34.62,34.62,0,0,1,3.78-.4l-.09-.11a21.87,21.87,0,0,0-3.64-3.15h0c-1.42-1-3-1.92-4.51-2.8-.88-.51-1.81-1-2.76-1.49l4-11.48-49.7-7.77-10.29-1,.62,15.45-.18.07-.47.16-.34.11-.44.13a12.21,12.21,0,0,1-1.5.32c-4.86.61-9.61.74-13.61,3.13-10.41,6.19,9.57,10.12,15.81,11.05,5.3.79,10.74,1,15.85,2.51,3.36,1,7,2.6,10.17,1.57,1.19-.39,2.18-1.15,3.5-1.26,1.63-.15,3.2.72,4.76,1.27.47.17.94.3,1.41.42A1.13,1.13,0,0,1,561.13,151.78Z"/></g><path class="cls-130" d="M672.7,149.52,665,146.76l-11.2-4.46-4.69-3.59-.49-8-13.36-14-10.06-11.18-11.46-2.73-1.11-8.1a73.47,73.47,0,0,1-24.11-12.32A56.75,56.75,0,0,1,580,74.75c-1.8-2-4.11-4.43-4.56-6.72s1.24-4.61,1.87-6.81A21.58,21.58,0,0,0,578,50.3a13.55,13.55,0,0,0-2.2-4.76l-2.24-.84-2.21-.36-5.18-2.1-8.6-3.61L553,35.18l-.82-.69c-1.4-.25-2.77-.61-4.18-1-3.91-1.09-7.79-2.24-11.77-3.23-4.4-1.09-10.07-2-12.9.84-1.8,1.81-2.2,4-4.39,5.75a25.45,25.45,0,0,1-6.76,3.24l-.24.64-2.86.65a5.56,5.56,0,0,1,.13,1.33,3.62,3.62,0,0,1-1.17,1.64,1.11,1.11,0,0,1,.07.29,1,1,0,0,1,0,.84,3,3,0,0,1-1.87,1.64c-2.2.86-4.2,0-6.48-.06-1.3-.05-2.54.36-3.89.32-.52,0-1-.07-1.55-.13l-3.91,2.49L486.3,51l-.75.22-.21.07-1.4.56-2.45,1.64-1.38,1.74-4.81,5.35a8.48,8.48,0,0,0,.34,4.83c1.18,3.32,2.09,6.2-2.74,8.64-.82.42-1.72.84-2.66,1.25A16.69,16.69,0,0,0,464.65,72c-1.4-.49-2.92-.84-4.42-1.21l-.25-.06-.44-.11-.54-.14-.27-.07-.76-.23-.25-.07-.58-.2-.22-.08-.74-.29-.07,0-.23-.11c.65-.42,1.2-.93.75-1.3a2.1,2.1,0,0,0-1.5-.07,1.54,1.54,0,0,1,0-.48,1.3,1.3,0,0,1,0-.34h-.06c-.17-2.11-3.13-4.91-3.35-6.84-3.69.71.47,3.09-3.3,3.22-2.41.08-1.41.36-3.76.13-.69-.06-1.06,1.78-1.44,2.22-.61.71,1.9,2,2.75,2.52a9.51,9.51,0,0,0,3.09,1.4l-.25.14c-.34.18-.73.48-.52.75a.8.8,0,0,0,.38.19,4,4,0,0,0,1.64,0l0,0c-.17.13-.34.26-.53.38l-.28.18c-.19.12-.38.24-.58.35l-.26.15c-.25.13-.49.26-.75.38-3,1.49-6.7,2.52-8.89,4.63a6.76,6.76,0,0,0-2.08,4.12h0c0,.32-.07.63-.08,1h0a28,28,0,0,0,.5,5c.05.3.09.59.13.89v.09c0,.31.07.62.1.93.42,4.77-1.34,9.87-.73,14.52l-1.57,2.7-19.8,5.57-5.42,5.69-25.69,10.61-4.13,2.51-3.47,4.89-44.16,15.94,22.76.68.09.46,22.15,1.91,24.95-1.24,72.2,2.57,45.77,11.13,29.31-2,18.52,1.28,13.95-9.79,23.1.44,134.51,2.57.27-.78Z"/></g></g><polygon class="cls-131" points="1707.97 238.9 1798.2 226.81 1770.44 201.82 1678.07 199.86 1707.97 238.9"/><polygon class="cls-132" points="1606.24 106.08 1678.07 199.86 1770.44 201.82 1667.64 109.28 1606.24 106.08"/><polygon class="cls-133" points="1606.24 106.08 1678.07 199.86 1770.44 201.82 1667.64 109.28 1606.24 106.08"/><polygon class="cls-134" points="1708.78 238.58 1709.18 77.29 1788.91 82.23 1786.45 148.22 1781.04 161.25 1785.85 164.55 1783.53 226.81 1768.35 229.57 1749.32 233.03 1732.04 235.15 1708.78 238.58"/><polygon class="cls-135" points="1708.78 238.58 1704.55 228.22 1701.48 86.49 1709.18 77.29 1708.78 238.58"/><polygon class="cls-134" points="1614.73 112.07 1615.46 25.95 1660.83 43.28 1667.64 109.28 1648.77 111.08 1624.17 112.93 1614.73 112.07"/><polygon class="cls-136" points="1614.73 112.07 1611.52 105.94 1609.58 31.18 1615.46 25.95 1614.73 112.07"/><polygon class="cls-137" points="1602.06 24.97 1602.44 37.14 1689.55 112.38 1689.75 97.51 1602.06 24.97"/><polygon class="cls-138" points="1689.55 112.38 1800.8 98.67 1802.17 87.2 1689.75 97.51 1689.55 112.38"/><polygon class="cls-139" points="1702.17 118.19 1709.07 122.62 1787.38 123.3 1788.24 100.21 1766.39 102.91 1754.19 104.41 1701.99 111.2 1702.17 118.19"/><polygon class="cls-139" points="1636.66 66.7 1615.18 48.14 1615.18 56.78 1615.2 56.79 1665.85 91.91 1636.66 66.7"/><polygon class="cls-139" points="1754.19 104.91 1754.22 91.35 1736.23 82.43 1766.03 90.22 1766.41 103.43 1754.19 104.91"/><polygon class="cls-140" points="1766.39 102.91 1756.69 99.75 1754.19 101.49 1754.22 91.35 1736.23 82.43 1766.03 90.22 1766.39 102.91"/><polyline class="cls-141" points="1642.02 58.02 1635.38 52.53 1635.75 65.91 1641.68 65.47 1642.02 58.02"/><polygon class="cls-142" points="1702.09 38.91 1694.38 38.91 1692.73 36.04 1678.9 32.81 1674.41 27.22 1660.39 19.87 1602.06 24.97 1689.75 97.51 1802.17 87.2 1702.09 38.91"/><path class="cls-143" d="M1785.64,75.86s-75.93,21.43-111,4.87C1638.34,63.61,1776.73,73.63,1785.64,75.86Z"/><path class="cls-144" d="M1785.65,75.86c0,.42-5.33,1-13.77,1.54-5,.33-11.06.69-17.75,1-4.28.19-8.81.4-13.47.57-8.2.31-31.14,2-37.28,2.33-19.24,1.18-28.82,2.13-28.77-.58a2.33,2.33,0,0,1,.06-.39c.22-.66.81-1.54,1.13-2.55v0a3.6,3.6,0,0,0,0-2.34c-5.31-15.24,6-49.93,6-49.93a7,7,0,0,1-.13-3.61,1.94,1.94,0,0,1,.83-1.08c1.8-1.07-4.28,4.53,24.41,4.47,24.34,0,62.68-4.31,63.19-4.71,8-2.66,5,3.05,4.19,4.25a8.06,8.06,0,0,0-.63,3,150.38,150.38,0,0,0,.13,15.46,32.56,32.56,0,0,0,2.09,8.83c1.66,3.8,3.78,8.69,5.61,13.07.25.58.49,1.11.71,1.65A82.46,82.46,0,0,1,1785.65,75.86Z"/><path class="cls-145" d="M1754.13,78.4c6.69-.32,12.76-.66,17.75-1,8.43-.58,13.78-1.13,13.76-1.54,0-.63-1.51-4.37-3.45-9C1782.76,75.23,1765.23,77.32,1754.13,78.4Z"/><path class="cls-146" d="M1740.66,79c-8.2.31-31.14,2-37.28,2.33-19.24,1.18-28.82,2.13-28.77-.58a2.33,2.33,0,0,1,.06-.39,12.14,12.14,0,0,1,1.13-2.55v0c.55-1,1.11-1.77,1.32-1.66l.8.4c.51.25,1,.49,1.54.69,5.72,2.43,11.91,3.08,20.74,3.2C1706.66,80.47,1730.39,79,1740.66,79Z"/><path class="cls-147" d="M1691,25.3c-3.5,2.84-8.93.32-8.93.32Z"/><path class="cls-148" d="M1680.32,80.49c-1.93-4.49-2.83-24.89-2.83-24.89s.46,15.15.2,18.7S1680.32,80.49,1680.32,80.49Z"/><path class="cls-149" d="M1703.38,81.31c-19.24,1.18-28.82,2.13-28.77-.58a2.33,2.33,0,0,1,.06-.39,12.14,12.14,0,0,1,1.13-2.55v0a3.6,3.6,0,0,0,0-2.34c-5.31-15.24,6-49.93,6-49.93a7,7,0,0,1-.13-3.61l.83-1.08c-2,3.06,1.27,4.21,4.18,4.64a23.12,23.12,0,0,0,3.66.26l-6.38,1s-2.85,20.37.6,37.14c2,9.83,9.45,14.39,15.64,16.53C1701.32,80.77,1702.4,81.08,1703.38,81.31Z"/><g class="cls-150"><path class="cls-151" d="M1748.15,49.1a3.94,3.94,0,0,1,1.87,3.11c.14,1-1.37,1.17-2.2,0S1748.15,49.1,1748.15,49.1Z"/><path class="cls-152" d="M1741.15,40.08c.75,1.55,1.42.65,1.42.65Z"/><path class="cls-153" d="M1742.49,33.4c-1.3,3.62,4.21,6.58,4.65,6.92s1.4-2.89-.39-4.61A10.48,10.48,0,0,0,1742.49,33.4Z"/><path class="cls-154" d="M1720.78,25.75c-.75-1.25,4,.36,5.39,1.43C1726.6,27.51,1720.78,25.75,1720.78,25.75Z"/><path class="cls-155" d="M1761.84,64.31c4.41,1.12,7.83,1,8.42-2.19s-3.67-5.9-3.67-5.9-8.19,1.91-7.34,4.52A6.45,6.45,0,0,0,1761.84,64.31Z"/><path class="cls-156" d="M1756,43.91c.79.43,1.66.5,2-1.1s-1.72-3.05-1.72-3.05-2.45,2.1-2.1,2.32A25.73,25.73,0,0,1,1756,43.91Z"/><path class="cls-157" d="M1754.61,44.6c1.08,1.51.06,2.31.06,2.31l-.73-1.54Z"/></g><g class="cls-150"><path class="cls-158" d="M1728.49,69.64c-.61.85.23,2.26,1,3.22s2.32.79,2.09-.4S1728.49,69.64,1728.49,69.64Z"/><path class="cls-159" d="M1700.3,58.77c.69,1.58-.77.88-.77.88Z"/><path class="cls-160" d="M1742.78,70.07c4.34,3-4.87,5.89-5,6.28s2.92-1.46,3.07-3.37A4,4,0,0,1,1742.78,70.07Z"/><path class="cls-161" d="M1694.38,46.57a3,3,0,0,1-3.83,2.29C1690.23,48.51,1694.38,46.57,1694.38,46.57Z"/><path class="cls-162" d="M1692.52,75.81c-3.24,2-6.71,2.62-10.27-.25s6,1.53,6,1.53,1.92-7.78,3.51-5.17S1692.52,75.81,1692.52,75.81Z"/><path class="cls-163" d="M1689.5,65.23c-.36.57-1.15.81-2.92-.63a2.94,2.94,0,0,1-1.13-3.21s4.33,1.49,4.19,1.76A11.88,11.88,0,0,0,1689.5,65.23Z"/><path class="cls-164" d="M1691.47,65.61a3.19,3.19,0,0,0,2.06,2.17l-.69-1.58Z"/></g><polygon class="cls-139" points="1642.02 73.78 1641.68 65.47 1633.98 65.91 1642.02 73.78"/><polygon class="cls-165" points="1709.07 122.62 1709.18 109.96 1701.99 110.84 1702.17 118.19 1709.07 122.62"/><polygon class="cls-165" points="1615.2 56.79 1610.13 52.53 1609.9 43.58 1615.18 48.14 1615.2 56.79"/></g></g></g></g></svg>