<?xml version="1.0" encoding="utf-8"?>
<!-- Generator: Adobe Illustrator 25.0.1, SVG Export Plug-In . SVG Version: 6.00 Build 0)  -->
<svg version="1.1" id="Layer_1" xmlns="http://www.w3.org/2000/svg" xmlns:xlink="http://www.w3.org/1999/xlink" x="0px" y="0px"
	 viewBox="0 0 1928.6 1204.5" style="enable-background:new 0 0 1928.6 1204.5;" xml:space="preserve">
<style type="text/css">
	.st0{fill-rule:evenodd;clip-rule:evenodd;fill:#06062D;}
	.st1{fill:#1F2638;}
	.st2{opacity:0.79;fill:#151A23;enable-background:new    ;}
	.st3{fill:#5A6C9C;}
	.st4{fill:#48587A;}
	.st5{fill:#7C91BF;}
	.st6{fill:url(#SVGID_1_);}
	.st7{fill:url(#SVGID_2_);}
	.st8{fill:url(#SVGID_3_);}
	.st9{fill:url(#SVGID_4_);}
	.st10{fill:#3E6491;}
	.st11{fill:url(#SVGID_5_);}
	.st12{opacity:0.6;fill:url(#SVGID_6_);enable-background:new    ;}
	.st13{fill-rule:evenodd;clip-rule:evenodd;fill:#04020F;}
</style>
<g>
	<g id="Layer_2_00000037679003665136238300000003234071608485706149_">
		<g id="Upper_Separator">
			<polygon class="st0" points="1928.6,1204.5 1928.6,950.4 1673.1,995.5 1402.6,995.5 1159.6,1019.3 751.4,1007.4 554.5,1013.2 
				247.3,956.3 0,979.6 0,1204.5 			"/>
		</g>
	</g>
	<g>
		<g id="Layer_2_1_">
			<g id="Lab_Light">
				<polygon class="st1" points="1591.8,1014.3 1550.1,1059.3 1541.9,1056.1 1569.5,1001.2 				"/>
				<polygon class="st2" points="1591.8,1014.3 1550.1,1059.3 1546.9,1058.1 1586.8,1011.4 				"/>
				<polygon class="st1" points="1547.4,1074.5 1533.4,1069.4 1522.6,1172 1531.7,1175.6 1549.3,1079.1 				"/>
				<polygon class="st2" points="1547.4,1074.5 1549.3,1079.1 1531.7,1175.6 1528.9,1174.5 1547.3,1074.8 				"/>
				<path class="st3" d="M1538.8,1177.1l-20.9,10.8c0,0-7.4-5.4-8-13.2l18.6-14.6L1538.8,1177.1z"/>
				<path class="st4" d="M1531.7,1169.8c2.8,4.7,6,8,7.1,7.3s-0.3-5-3.2-9.7c-2.8-4.7-6-8-7.1-7.3S1528.9,1165.1,1531.7,1169.8z"/>
				<path class="st5" d="M1528.7,1160.4l-0.2-0.3l-18.6,14.6c0.5,7.7,8,13.2,8,13.2l0.6-0.3c0.8-2.8,1.6-5.5,2.6-8.2
					C1523.4,1172.9,1526,1166.5,1528.7,1160.4z"/>
				<path class="st1" d="M1522.9,1169.4l-29.2-48.3l-7.7,13.7l30.8,39.5C1516.9,1174.3,1522.4,1174.7,1522.9,1169.4z"/>
				<path class="st2" d="M1493.8,1121.1l29.2,48.3c-0.1,0.7-0.2,1.4-0.5,2l-32.8-42.9L1493.8,1121.1z"/>
				<path class="st3" d="M1502.1,1122.5c4-12.2-7.8-32.6-33.6-52.9s-53.2-26.9-62.6-16.8l-14.5,22.9l90.6,69.5
					C1482,1145.2,1499.2,1125.6,1502.1,1122.5z"/>
				<path class="st5" d="M1501.5,1109.3c-3.8-11.4-15-25.6-32.9-39.8c-25.8-20.3-53.2-26.9-62.6-16.8l-14.5,22.9l1.9,1.5l24.8-21.1
					C1418.3,1056,1465.4,1055.4,1501.5,1109.3z"/>
				<path class="st5" d="M1413.6,1048.7c-2.9,0.5-5.6,1.9-7.6,4l-14.5,22.9l1.1,0.8c4.7-6.7,9.5-13.3,14.4-19.8
					C1409,1053.9,1411.3,1051.3,1413.6,1048.7z"/>
				<path class="st4" d="M1502.3,1112.1c-1.2-5-3.9-10.7-8.2-16.7c-4,2.1-7.9,4.2-11.9,6.2c-11.7,5.8-23.6,11.2-35.7,16.3l27.3,21
					c7.1-6.3,14-12.9,20.9-19.4C1497.2,1117,1499.7,1114.5,1502.3,1112.1z"/>
				<path class="st5" d="M1392.4,1074.3c-9.2,11.6,3.5,36.9,28.2,56.4s52.3,26,61.4,14.4c9.2-11.6-3.5-36.9-28.3-56.4
					C1429,1069.3,1401.6,1062.7,1392.4,1074.3z"/>
				<path class="st5" d="M1453.8,1088.8c-18.1-14.3-37.7-21.6-50.5-20c4.3,0.7,8.6,1.9,12.7,3.6c17.1,7.2,31.9,21,41.7,36.5
					c7,10.8,14.4,28.5,2.2,38.6c-1,0.8-2,1.5-3.1,2.1c11.3,2.7,20.6,1.5,25.2-4.4C1491.2,1133.6,1478.6,1108.3,1453.8,1088.8z"/>
				
					<radialGradient id="SVGID_1_" cx="1394.5049" cy="97.6049" r="13.2584" gradientTransform="matrix(0.9314 0.3639 0.3639 -0.9314 112.1375 681.4834)" gradientUnits="userSpaceOnUse">
					<stop  offset="0" style="stop-color:#ED1C24"/>
					<stop  offset="1" style="stop-color:#4C1E1E"/>
				</radialGradient>
				<path class="st6" d="M1432.5,1088.4c-2.5,3.7,1.7,11,9.4,16.2c7.7,5.2,16,6.6,18.5,3c2.5-3.7-1.7-10.9-9.4-16.2
					C1443.3,1086.1,1435.1,1084.8,1432.5,1088.4z"/>
				<path class="st4" d="M1432.5,1088.4c0.3-0.4,0.7-0.7,1.1-1c-2,3.8,2.1,10.7,9.6,15.9c6.8,4.7,14.1,6.3,17.5,4
					c-0.1,0.1-0.1,0.3-0.2,0.4c-2.5,3.7-10.8,2.4-18.5-2.9S1430,1092.1,1432.5,1088.4z"/>
				
					<radialGradient id="SVGID_2_" cx="1145.7397" cy="-129.1553" r="13.26" gradientTransform="matrix(1 0 0 -1 0 1872.7244)" gradientUnits="userSpaceOnUse">
					<stop  offset="0" style="stop-color:#ED1C24"/>
					<stop  offset="1" style="stop-color:#4C1E1E"/>
				</radialGradient>
				<path class="st7" d="M1395.1,1077.6c-2.5,3.7,1.7,11,9.4,16.2c7.7,5.2,16,6.6,18.5,3s-1.7-10.9-9.4-16.2
					C1405.9,1075.3,1397.6,1073.9,1395.1,1077.6z"/>
				<path class="st4" d="M1395.1,1077.6c0.3-0.4,0.7-0.7,1.1-1c-2,3.8,2.1,10.7,9.6,15.9c6.8,4.7,14.1,6.3,17.4,4
					c-0.1,0.1-0.1,0.3-0.2,0.4c-2.5,3.7-10.8,2.3-18.5-3S1392.6,1081.3,1395.1,1077.6z"/>
				
					<radialGradient id="SVGID_3_" cx="1213.8297" cy="-150.6953" r="13.26" gradientTransform="matrix(1 0 0 -1 0 1872.7244)" gradientUnits="userSpaceOnUse">
					<stop  offset="0" style="stop-color:#ED1C24"/>
					<stop  offset="1" style="stop-color:#4C1E1E"/>
				</radialGradient>
				<path class="st8" d="M1450.7,1122.4c-2.5,3.7,1.7,10.9,9.4,16.2c7.7,5.3,16,6.6,18.5,3c2.5-3.7-1.7-10.9-9.4-16.2
					C1461.5,1120.1,1453.2,1118.8,1450.7,1122.4z"/>
				<path class="st4" d="M1450.7,1122.4c0.3-0.4,0.6-0.7,1.1-1c-2,3.8,2.1,10.7,9.6,15.9c6.8,4.7,14.1,6.3,17.5,4
					c-0.1,0.1-0.1,0.2-0.2,0.4c-2.5,3.7-10.8,2.4-18.5-2.9S1448.1,1126.1,1450.7,1122.4z"/>
				
					<radialGradient id="SVGID_4_" cx="1176.9197" cy="-155.2354" r="11.56" gradientTransform="matrix(1 0 0 -1 0 1872.7244)" gradientUnits="userSpaceOnUse">
					<stop  offset="0" style="stop-color:#ED1C24"/>
					<stop  offset="1" style="stop-color:#4C1E1E"/>
				</radialGradient>
				<path class="st9" d="M1416.4,1114.5c-2.2,3.2,1.5,9.5,8.2,14.2c6.7,4.6,13.9,5.8,16.2,2.6c2.2-3.2-1.5-9.5-8.2-14.2
					C1425.8,1112.4,1418.6,1111.3,1416.4,1114.5z"/>
				<path class="st4" d="M1416.4,1114.5c0.2-0.4,0.6-0.7,0.9-0.9c-1.8,3.3,1.9,9.4,8.4,13.8c6,4.1,12.3,5.5,15.2,3.5
					c-0.1,0.1-0.1,0.2-0.2,0.3c-2.2,3.2-9.4,2.1-16.1-2.6C1417.9,1124,1414.2,1117.7,1416.4,1114.5z"/>
				<path class="st1" d="M1445,1115.5c-1.9-5.9-6.7-10.3-12.7-11.9l-4.2,4.6c0,0,1.2,4.7,4.2,7.4c3,2.7,8.1,4.1,8.1,4.1L1445,1115.5
					z"/>
				<path class="st10" d="M1436.4,1105.2c-0.3,0.4-0.7,0.8-1,1.2c-1.8,2.2-3.4,4.5-5.2,6.8c0.6,0.9,1.2,1.7,2,2.4
					c0.3,0.3,0.7,0.6,1.1,0.9c2.9-2.1,6-4.1,9.1-6C1440.9,1108.3,1438.8,1106.5,1436.4,1105.2z"/>
				<path class="st2" d="M1440.3,1119.8c0,0-5.1-1.4-8.1-4.1s-4.2-7.4-4.2-7.4C1433.4,1110.5,1437.8,1114.6,1440.3,1119.8z"/>
				<rect x="1502.6" y="995.8" class="st1" width="139.8" height="6"/>
				<path class="st3" d="M1572.8,999.2h72.9l-9,16.9c0,0-21.8,2-63.9,2c-42.2,0-63.9-2-63.9-2l-9-16.9H1572.8z"/>
				<path class="st5" d="M1508.8,1016l-9-16.9h18.4c2.6,5.4,6.1,12.1,9.3,18C1515.2,1016.6,1508.8,1016,1508.8,1016z"/>
				<path class="st4" d="M1636.7,1016c0,0-9.9,0.9-29.4,1.5c3.7-5.8,6.8-12,9.4-18.3h28.9L1636.7,1016z"/>
				<path class="st5" d="M1540,1017.6l-6.7-0.2c-3-5.1-6.8-12-10-18.2h3C1530.1,1005.9,1534.7,1012.1,1540,1017.6z"/>
				<path class="st3" d="M1554.8,1081.7l-27.3-12.9c0,0-0.3-11.8,7.2-18.4l29.4,7.6L1554.8,1081.7z"/>
				<path class="st5" d="M1539.5,1060.4c10.8-5.1,24.5-2.5,24.5-2.5l-29.4-7.6c-7.4,6.5-7.2,18.4-7.2,18.4l0.8,0.4l0.1-0.1
					C1531.2,1064.8,1535.1,1062.5,1539.5,1060.4z"/>
				<path class="st4" d="M1556.7,1068.7c-2.6,6.6-3.4,12.3-1.9,12.9s4.8-4.2,7.4-10.8c2.6-6.6,3.4-12.4,1.9-13
					S1559.2,1062.1,1556.7,1068.7z"/>
				<path class="st5" d="M1395,1162l1-10.8l0.3-2.9l1.6,2.5l2.1,3.3l31.6-41.2l0.1-0.2c1.1-1.2,5.4,2.6,4.4,3.8l-35.3,40.3l-1.1,1.3
					l-0.8-1.4l-1.4-2.4l-1.4,9.2l-0.2,1.5l-0.9-1.2l-2.1-2.9l-5.5,12.8l4.9-13.9l0.3-0.8l0.5,0.7L1395,1162z"/>
				<path class="st3" d="M1435.4,1114.5l-35.3,40.2l-1.1,1.3l-0.8-1.4l-1.3-2.4l-1.4,9.2l-0.2,1.5l-0.9-1.2l-1.8-2.5l-0.2,0.6
					l-4.9,13.9l5.5-12.8l2.1,2.9l0.9,1.2l0.2-1.5l1.4-9.2l1.4,2.4l0.8,1.4l1.1-1.3l35.3-40.3
					C1436.5,1116.2,1436.1,1115.3,1435.4,1114.5z"/>
				
					<radialGradient id="SVGID_5_" cx="1157.2297" cy="-215.5453" r="4.71" gradientTransform="matrix(1 0 0 -1 0 1872.7244)" gradientUnits="userSpaceOnUse">
					<stop  offset="0" style="stop-color:#ED1C24"/>
					<stop  offset="1" style="stop-color:#4C1E1E"/>
				</radialGradient>
				<path class="st11" d="M1383.9,1170.1c-0.9,2.4,0.3,5.2,2.7,6.1s5.2-0.3,6.1-2.7c0.9-2.4-0.2-5.1-2.7-6.1
					C1387.6,1166.5,1384.9,1167.7,1383.9,1170.1z"/>
				<path class="st5" d="M1482,1145.2c0,0,0.3-0.4,0.8-1.3c0.7-1.2,1.3-2.6,1.6-4c0.5-2.2,0.6-4.4,0.3-6.6c-0.4-2.9-1.1-5.7-2.2-8.4
					c-1.3-3.2-2.8-6.2-4.6-9.2c-2-3.2-4.2-6.4-6.6-9.3c-5.3-6.4-11.3-12.2-17.8-17.3c-3.3-2.6-6.7-5-10.3-7.3c-3.4-2.2-7-4.2-10.7-6
					c-3.4-1.7-7-3.1-10.6-4.3c-3.3-1.1-6.6-1.9-10-2.3c-2.9-0.4-5.8-0.5-8.6-0.2c-2.2,0.2-4.4,0.8-6.4,1.8c-1.3,0.6-2.5,1.5-3.5,2.4
					c-0.7,0.7-1,1.1-1,1.1s0.3-0.4,1-1.1c1-1,2.2-1.9,3.5-2.6c2-1,4.2-1.7,6.4-2c2.9-0.4,5.8-0.4,8.7,0c3.4,0.4,6.8,1.2,10.1,2.2
					c3.7,1.2,7.3,2.6,10.7,4.2c3.7,1.8,7.3,3.8,10.8,6c3.6,2.3,7.1,4.7,10.4,7.3c6.6,5.2,12.6,11.1,17.8,17.6c2.4,3,4.6,6.2,6.6,9.5
					c1.8,3,3.3,6.1,4.5,9.3c1,2.7,1.7,5.6,2,8.5c0.2,2.2,0.1,4.5-0.4,6.7c-0.4,1.4-0.9,2.8-1.7,4
					C1482.4,1144.8,1482,1145.2,1482,1145.2z"/>
				<linearGradient id="SVGID_6_" gradientUnits="userSpaceOnUse" x1="1453.0515" y1="1049.2886" x2="1343.2125" y2="1189.464">
					<stop  offset="0" style="stop-color:#ED1C24"/>
					<stop  offset="1.000000e-02" style="stop-color:#ED1C24;stop-opacity:0.99"/>
					<stop  offset="0.12" style="stop-color:#ED1C24;stop-opacity:0.76"/>
					<stop  offset="0.23" style="stop-color:#ED1C24;stop-opacity:0.55"/>
					<stop  offset="0.284" style="stop-color:#ED1C24;stop-opacity:0.5017"/>
					<stop  offset="0.35" style="stop-color:#ED1C24;stop-opacity:0.38"/>
					<stop  offset="0.47" style="stop-color:#ED1C24;stop-opacity:0.25"/>
					<stop  offset="0.59" style="stop-color:#ED1C24;stop-opacity:0.14"/>
					<stop  offset="0.72" style="stop-color:#ED1C24;stop-opacity:6.000000e-02"/>
					<stop  offset="0.85" style="stop-color:#ED1C24;stop-opacity:1.000000e-02"/>
					<stop  offset="1" style="stop-color:#ED1C24;stop-opacity:0"/>
				</linearGradient>
				<path class="st12" d="M1275.7,1120.4l117.5-47.1l4.1-2.8c12-5.7,35.2,1.4,56.5,18.3c20.1,15.9,32.2,35.5,31.2,48.6l-0.9,3.7
					l-1,2.7l-30,60.7h-58.7L1275.7,1120.4z"/>
			</g>
		</g>
	</g>
	<polygon class="st13" points="0,0 0,92.9 327.5,73.1 725.8,92.9 1514.2,127.1 1646.2,86.9 1928.6,92.9 1928.6,0 	"/>
</g>
</svg>
