<svg xmlns="http://www.w3.org/2000/svg" xmlns:xlink="http://www.w3.org/1999/xlink" viewBox="0 0 1110.66 1539.6"><defs><style>.cls-1,.cls-16,.cls-18,.cls-29,.cls-30,.cls-31,.cls-37,.cls-4,.cls-41,.cls-45,.cls-47,.cls-5,.cls-6,.cls-8{isolation:isolate;}.cls-2,.cls-25{mix-blend-mode:multiply;}.cls-10,.cls-11,.cls-12,.cls-13,.cls-14,.cls-15,.cls-16,.cls-17,.cls-19,.cls-20,.cls-21,.cls-22,.cls-23,.cls-24,.cls-25,.cls-26,.cls-27,.cls-28,.cls-29,.cls-3,.cls-30,.cls-31,.cls-32,.cls-33,.cls-34,.cls-35,.cls-36,.cls-37,.cls-38,.cls-39,.cls-4,.cls-40,.cls-41,.cls-42,.cls-43,.cls-44,.cls-45,.cls-46,.cls-47,.cls-48,.cls-49,.cls-5,.cls-6,.cls-7,.cls-8,.cls-9{fill-rule:evenodd;}.cls-3{fill:url(#Áåçûìÿííûé_ãðàäèåíò_320);}.cls-4{fill:#a85272;}.cls-4,.cls-45{opacity:0.2;}.cls-5{fill:#99355a;}.cls-16,.cls-18,.cls-29,.cls-47,.cls-5,.cls-6{opacity:0.3;}.cls-18,.cls-6{fill:#772543;}.cls-7{fill:url(#linear-gradient);}.cls-8{fill:#805ca6;}.cls-30,.cls-31,.cls-8{opacity:0.5;}.cls-9{fill:url(#linear-gradient-2);}.cls-10{fill:url(#linear-gradient-3);}.cls-11{fill:#bb98a5;}.cls-12{fill:url(#linear-gradient-4);}.cls-13{fill:url(#linear-gradient-5);}.cls-14{fill:url(#linear-gradient-6);}.cls-15{fill:#924b51;}.cls-16,.cls-17{fill:#e0e4d6;}.cls-19{fill:url(#linear-gradient-7);}.cls-20{fill:url(#linear-gradient-8);}.cls-21{fill:url(#linear-gradient-9);}.cls-22{fill:url(#linear-gradient-10);}.cls-23{fill:#fff;}.cls-24{fill:#33499e;}.cls-25{opacity:0.39;fill:url(#linear-gradient-11);}.cls-26{fill:url(#linear-gradient-12);}.cls-27{fill:url(#linear-gradient-13);}.cls-28{fill:url(#linear-gradient-14);}.cls-29{fill:url(#linear-gradient-15);}.cls-30{fill:url(#linear-gradient-16);}.cls-31{fill:url(#linear-gradient-17);}.cls-32{fill:#f8a775;}.cls-33{fill:#f79860;}.cls-34{fill:#f59170;}.cls-35{fill:#e76f6f;}.cls-36{fill:url(#linear-gradient-18);}.cls-37{fill:#632e46;opacity:0.7;}.cls-38,.cls-41,.cls-45,.cls-47{fill:#7e3747;}.cls-39{fill:#e5a378;}.cls-40{fill:#974e5f;}.cls-41{opacity:0.38;}.cls-42{fill:#f8d0c6;}.cls-43{fill:#ecc090;}.cls-44{fill:#d28b67;}.cls-46{fill:#dbb8c5;}.cls-48{fill:url(#linear-gradient-19);}.cls-49{fill:#bca3c6;}</style><linearGradient id="Áåçûìÿííûé_ãðàäèåíò_320" x1="696.17" y1="4.85" x2="696.17" gradientUnits="userSpaceOnUse"><stop offset="0" stop-color="#7a5fa3"/><stop offset="0.37" stop-color="#a58cb2"/><stop offset="0.78" stop-color="#d1b9c0"/><stop offset="0.99" stop-color="#e2cac6"/></linearGradient><linearGradient id="linear-gradient" x1="902.61" y1="743.12" x2="902.61" y2="722.52" gradientTransform="translate(0 396.69)" gradientUnits="userSpaceOnUse"><stop offset="0" stop-color="#f7b5bb"/><stop offset="1" stop-color="#ffe8b6"/></linearGradient><linearGradient id="linear-gradient-2" x1="832.64" y1="740.06" x2="832.64" y2="713.35" gradientTransform="translate(0 396.69)" gradientUnits="userSpaceOnUse"><stop offset="0" stop-color="#facfd3"/><stop offset="1" stop-color="#ffe8b6"/></linearGradient><linearGradient id="linear-gradient-3" x1="921.42" y1="845.94" x2="921.42" y2="822.88" xlink:href="#linear-gradient-2"/><linearGradient id="linear-gradient-4" x1="996.32" y1="792.35" x2="995.98" y2="789.61" gradientTransform="translate(0 396.69)" gradientUnits="userSpaceOnUse"><stop offset="0" stop-color="#b8bed6"/><stop offset="0.98" stop-color="#9f93c1"/></linearGradient><linearGradient id="linear-gradient-5" x1="830.59" y1="766.95" x2="830.25" y2="764.2" xlink:href="#linear-gradient-4"/><linearGradient id="linear-gradient-6" x1="633.77" y1="855.12" x2="633.46" y2="852.7" gradientTransform="translate(0 396.69)" gradientUnits="userSpaceOnUse"><stop offset="0" stop-color="#d0dae6"/><stop offset="1" stop-color="#d3dde6"/></linearGradient><linearGradient id="linear-gradient-7" x1="828.49" y1="797.14" x2="828.06" y2="772.69" gradientTransform="translate(0 396.69)" gradientUnits="userSpaceOnUse"><stop offset="0" stop-color="#83b8e3"/><stop offset="0.16" stop-color="#6156a4"/><stop offset="0.18" stop-color="#655ca7"/><stop offset="0.32" stop-color="#7f89c3"/><stop offset="0.46" stop-color="#95afd8"/><stop offset="0.6" stop-color="#a4cce7"/><stop offset="0.74" stop-color="#b2e2f4"/><stop offset="0.87" stop-color="#bde5f3"/><stop offset="1" stop-color="#c0e6f3"/></linearGradient><linearGradient id="linear-gradient-8" x1="849.05" y1="794.28" x2="848.71" y2="774.61" gradientTransform="translate(0 396.69)" gradientUnits="userSpaceOnUse"><stop offset="0" stop-color="#7cb4e1"/><stop offset="1" stop-color="#c0e6f3"/></linearGradient><linearGradient id="linear-gradient-9" x1="844.77" y1="787.21" x2="844.52" y2="772.37" gradientTransform="translate(0 396.69)" gradientUnits="userSpaceOnUse"><stop offset="0"/><stop offset="0.27" stop-color="#4a3121"/><stop offset="0.53" stop-color="#88593d"/><stop offset="0.74" stop-color="#b67752"/><stop offset="0.9" stop-color="#d1875e"/><stop offset="1" stop-color="#dc8e62"/></linearGradient><linearGradient id="linear-gradient-10" x1="824.94" y1="793.46" x2="824.59" y2="773.29" gradientTransform="translate(0 396.69)" gradientUnits="userSpaceOnUse"><stop offset="0.01" stop-color="#92216a"/><stop offset="0.09" stop-color="#a3216b"/><stop offset="0.28" stop-color="#c5386c"/><stop offset="0.46" stop-color="#dd576e"/><stop offset="0.65" stop-color="#ee6b6f"/><stop offset="0.83" stop-color="#f27770"/><stop offset="1" stop-color="#f27a70"/></linearGradient><linearGradient id="linear-gradient-11" x1="806.85" y1="778.36" x2="842.82" y2="778.36" xlink:href="#linear-gradient-9"/><linearGradient id="linear-gradient-12" x1="556.07" y1="351.11" x2="575.06" y2="378.22" gradientTransform="matrix(0.77, 0.64, -0.64, 0.77, 451.1, 602.48)" gradientUnits="userSpaceOnUse"><stop offset="0" stop-color="#01ad80"/><stop offset="1" stop-color="#203265"/></linearGradient><linearGradient id="linear-gradient-13" x1="572.03" y1="353.77" x2="595.16" y2="353.77" gradientTransform="matrix(0.77, 0.64, -0.64, 0.77, 451.1, 602.48)" gradientUnits="userSpaceOnUse"><stop offset="0" stop-color="#fbc5a4"/><stop offset="0.02" stop-color="#fbc7a5"/><stop offset="0.43" stop-color="#fcd0ac"/><stop offset="0.99" stop-color="#fdd3ae"/></linearGradient><linearGradient id="linear-gradient-14" x1="575.21" y1="354.41" x2="593.18" y2="352.05" gradientTransform="matrix(0.77, 0.64, -0.64, 0.77, 451.1, 602.48)" gradientUnits="userSpaceOnUse"><stop offset="0" stop-color="#f4846b"/><stop offset="0.08" stop-color="#f48b71"/><stop offset="0.33" stop-color="#f69b7d"/><stop offset="0.61" stop-color="#f7a484"/><stop offset="1" stop-color="#f8a785"/></linearGradient><linearGradient id="linear-gradient-15" x1="564.98" y1="363.79" x2="575.09" y2="378.23" gradientTransform="matrix(0.77, 0.64, -0.64, 0.77, 451.1, 602.48)" gradientUnits="userSpaceOnUse"><stop offset="0" stop-color="#37337f"/><stop offset="1" stop-color="#7e8bc5"/></linearGradient><linearGradient id="linear-gradient-16" x1="556.67" y1="355.4" x2="564.73" y2="366.91" gradientTransform="matrix(0.77, 0.64, -0.64, 0.77, 451.1, 602.48)" gradientUnits="userSpaceOnUse"><stop offset="0" stop-color="#b3d78b"/><stop offset="1"/></linearGradient><linearGradient id="linear-gradient-17" x1="574.13" y1="341.76" x2="581.3" y2="352" gradientTransform="matrix(0.77, 0.64, -0.64, 0.77, 451.1, 602.48)" gradientUnits="userSpaceOnUse"><stop offset="0" stop-color="#37337f"/><stop offset="1" stop-color="#fff"/></linearGradient><linearGradient id="linear-gradient-18" x1="534.11" y1="1143.43" x2="533.43" y2="1138.01" xlink:href="#linear-gradient-6"/><linearGradient id="linear-gradient-19" x1="134.6" y1="1010.53" x2="134.6" y2="1006.13" gradientTransform="translate(0 396.69)" gradientUnits="userSpaceOnUse"><stop offset="0.01" stop-color="#e2cac6"/><stop offset="0.21" stop-color="#d1b8c0"/><stop offset="0.63" stop-color="#a58bb2"/><stop offset="1" stop-color="#7a5fa3"/></linearGradient></defs><g class="cls-1"><g id="Layer_2" data-name="Layer 2"><g id="Garbage"><g class="cls-2"><path class="cls-3" d="M695,3.65l0,.05a.14.14,0,0,1,0,.07l0,.16V4c0,.45.23.83.5.83,1.27,0,2.31-2.23,1.94-4.25a.93.93,0,0,0-.23-.5.38.38,0,0,0-.39-.08,3,3,0,0,0-1.7,2.27.49.49,0,0,0-.19.19,1.3,1.3,0,0,0,0,1.17C695,3.71,695,3.69,695,3.65Z"/></g><path class="cls-4" d="M733.42,1238.42c2.91,6.08,144.06,9,157.06-5.89-.9-.45-20.24-9.82-37.37-10.66s-45.4,3.36-46.69,3.81,11.64,2.26,11.64,2.26-21.86,1.49-38.09,1.62c0,0,19-2.46,19.53-3.43C791.09,1223.29,740.08,1227.23,733.42,1238.42Z"/><path class="cls-5" d="M864.29,1219.08c-3.55,2.4,26.64,7.63,33.56,6.73s29.49-6.14,30.07-9.31S880.33,1208.29,864.29,1219.08Z"/><path class="cls-5" d="M904.77,1231.05c.71-2.52,9.12,1.55,9.12,1.55S903.8,1234.41,904.77,1231.05Z"/><path class="cls-5" d="M802.22,1224.58c8.14-.26,23.92-4.72,23.92-6.47,0-2.45-34.27-.64-40.54,1.17C777,1221.67,799.76,1224.65,802.22,1224.58Z"/><path class="cls-6" d="M888.93,1140.2c9.76-4.47,28.26-3.3,37.12,1C926.05,1141.17,910.85,1144.72,888.93,1140.2Z"/><polygon class="cls-7" points="896.24 1139.03 887.89 1130.95 893.97 1125.45 892.03 1120.73 895.2 1119.18 906.07 1124.35 906.07 1131.08 909.62 1131.66 910.46 1137.16 917.32 1139.81 896.24 1139.03"/><path class="cls-8" d="M906.06,1124.35l-6.72,2.33-5.37-1.16c6.28,4.07,4.4,4.14,12.09,4.46Z"/><polygon class="cls-8" points="887.89 1130.95 896.56 1137.16 902.57 1135.54 898.43 1132.31 904.19 1134.44 909.62 1131.66 910.46 1137.16 904.38 1138.19 917.32 1139.81 896.24 1139.03 887.89 1130.95"/><path class="cls-6" d="M812.17,1136.32c11.19-4.4,38.67-3.17,48.83,1C861.06,1137.35,841,1140.91,812.17,1136.32Z"/><path class="cls-9" d="M821.62,1135.8l-5.82-4.27,5.82-3.1v-5.76l3-8.66c4.6-.84,14.88-3,19.53-4l.46,6.79,4.85,5.69-4.4,6.08-3.75,8.14-12.81-3Z"/><path class="cls-8" d="M844.12,1110.06,842.7,1116a125.11,125.11,0,0,1-18.43-1l3.36,2.65,13.77,2.33,6.15,3.49-4.85,3.88-7.89-4.59,3,7.12-5.37,1.61-7.3-3-3.49-5.76v5.76l4.91,2.2.78,2.32-5.69,2.78,6.91-2.06,12.81,3,3.75-8.14,4.4-6.08-4.85-5.69Z"/><path class="cls-6" d="M886.92,1243.4c18.69-7.37,62.47-5.37,79.48,1.68C966.4,1245.08,933.87,1251.09,886.92,1243.4Z"/><path class="cls-10" d="M890.48,1242.17l15.2-2.52v-3.75l4.72-5.56,9.05-2.91,4-4.34,28.9-3.49-6,13.06-5.24,2.91,5.24,6.66C933.55,1243,903.61,1242.56,890.48,1242.17Z"/><path class="cls-8" d="M923.46,1223c4.33,2.39,16.62,6,21.47,7.24l1.48,2.33-5.23,2.91-4.92-5.24-8.66,4.46-10.28,1.55,8.4-2.32.84-3-5.3-1.29-1.75-2.33Z"/><polygon class="cls-8" points="942.99 1237.97 930.51 1241.01 914.47 1239.45 910.4 1230.34 905.68 1235.83 905.68 1239.65 914.28 1242.1 946.35 1242.17 942.99 1237.97"/><path class="cls-11" d="M808.17,1202.4s19.33-2.26,27.35,0C827,1205.7,816.51,1205.83,808.17,1202.4Z"/><path class="cls-12" d="M987.54,1187.34s12.09-1.43,17.14,0C999.83,1189.34,992.2,1189.4,987.54,1187.34Z"/><path class="cls-13" d="M821.81,1161.92s12.09-1.42,17.14,0C834.1,1163.93,826.47,1164,821.81,1161.92Z"/><path class="cls-11" d="M890.55,1245.85H911l10.09,4.08S902.25,1249.93,890.55,1245.85Z"/><path class="cls-11" d="M725.27,1144.4l3.1-.13,4,.78A14.78,14.78,0,0,1,725.27,1144.4Z"/><path class="cls-14" d="M628,1250.06l4.92-.2,6.4,1.17A21.14,21.14,0,0,1,628,1250.06Z"/><path class="cls-11" d="M710.53,1146.86c4.65-1.36,4.72-1,9.24-.13C719.77,1146.73,714.47,1148.21,710.53,1146.86Z"/><path class="cls-15" d="M841.53,1199.56s8.28,4.59,12.48,7.24h3.69S855.82,1204.79,841.53,1199.56Z"/><path class="cls-15" d="M763.42,1178.93s9.38-1.68,12,0h2.33S772.6,1180.35,763.42,1178.93Z"/><path class="cls-15" d="M743.18,1257.75s14.94-2.65,19.08,0h3.68C766,1257.75,757.86,1260,743.18,1257.75Z"/><path class="cls-16" d="M616.57,1189.28s14.94-2.66,19.08,0h3.68C639.4,1189.28,631.25,1191.47,616.57,1189.28Z"/><polygon class="cls-11" points="775.32 1155.91 776.74 1153.26 780.17 1153.84 780.17 1155.91 775.32 1155.91"/><polygon class="cls-17" points="875.74 1162.51 877.16 1159.79 880.59 1160.43 880.59 1162.51 875.74 1162.51"/><polygon class="cls-17" points="669.72 1200.2 669.72 1196.9 673.54 1196.9 676.06 1200.2 669.72 1200.2"/><polygon class="cls-11" points="579.45 1230.4 581.72 1226.07 587.15 1227.1 587.15 1230.4 579.45 1230.4"/><path class="cls-18" d="M812.3,1189.92s-5.36-.32-20.17,1c29.49,5.56,26.58,6.72,71.58,1.87C863.71,1192.83,836.81,1190.44,812.3,1189.92Z"/><path class="cls-19" d="M809.27,1192.06s-8-8.67-.78-18.56l35.76-4.4,4.59,2.2s4.4,10,1,19.66l-4.79,2.58Z"/><path class="cls-20" d="M848.84,1171.3c-6,1.87-4.14,18.17,1,19.66C852.65,1188.43,854.79,1174,848.84,1171.3Z"/><path class="cls-21" d="M844.31,1169.1s-4.72,3.3-3.81,14.87l4.59-.64s-1.17-10.87,3.81-12Z"/><path class="cls-22" d="M810.88,1173.24c-2.33,3.43-2.84,12.28.07,16.68H838s-2.46-11.44,2.39-20.24Z"/><path class="cls-23" d="M841.92,1172.4l4.4.9a10.79,10.79,0,0,0-1.36,5.63l-4.66.39C840.37,1179.38,840.5,1174.86,841.92,1172.4Z"/><path class="cls-24" d="M849.61,1181.13c-2.78-.91-1.55,5.56-.77,5.95C849.55,1187.21,850.52,1183.52,849.61,1181.13Z"/><path class="cls-25" d="M842.76,1170.26l-34.46,5.63s-1.69,2.85-1.49,3.94l33.56-1.55A23.12,23.12,0,0,1,842.76,1170.26Z"/><path class="cls-18" d="M641.72,1254.33l-20,7s48.76,5.11,84.78,2.59L672,1255.75Z"/><path class="cls-26" d="M634.16,1242.36s-4.2,6.73,3.23,15.59l16.68-.13,17.72,5.43s-9.63-14.36.26-33.24C662.93,1232.28,642.24,1238,634.16,1242.36Z"/><path class="cls-27" d="M672,1230c12.41,8,13.9,25.22-.26,33.24C663.26,1257.75,662.74,1235.31,672,1230Z"/><path class="cls-28" d="M673.21,1260.34c-2.91,1.16-8.14-8.92-6.66-15.46h0c.72-6.33,3.88-12,5-12.09C683.11,1237.32,683,1254.65,673.21,1260.34Z"/><path class="cls-29" d="M634.16,1242.36s-3.82,9.7,3.75,14.81l19.14-5s2.13,4.2,14.68,11.06L654,1257.82l-16.68.13C637.39,1258,630.47,1251,634.16,1242.36Z"/><path class="cls-30" d="M668.49,1233.57s-16.16,2.39-17.52,3c-2.91,1.49-15.58,6.21-16,8.28,16.43-6.72,12-8.92,30.14-3.94Z"/><path class="cls-31" d="M680.39,1244.11c-1.55-3.1-11.57-6.34-13.77.71.71-6.34,3.88-12,5-12.09C673.34,1232.6,679.1,1237.64,680.39,1244.11Z"/><polygon class="cls-32" points="997.11 1209.77 999.7 1210.23 1000.92 1209.77 998.08 1209.19 997.11 1209.77"/><polygon class="cls-32" points="1002.74 1209.19 1005.77 1209.45 1006.49 1208.74 1003.71 1208.67 1002.74 1209.19"/><polygon class="cls-32" points="1088.74 1209.52 1103.67 1210.48 1098.95 1212.75 1088.74 1211.13 1088.74 1209.52"/><polygon class="cls-33" points="980.62 1223.74 995.56 1224.71 990.84 1226.97 980.62 1225.36 980.62 1223.74"/><polygon class="cls-33" points="989.67 1268.03 1004.55 1269 999.83 1271.27 989.67 1269.65 989.67 1268.03"/><polygon class="cls-32" points="1104.9 1212.55 1105.94 1211.71 1109.11 1211.13 1110.66 1211.84 1104.9 1212.55"/><polygon class="cls-32" points="1066.56 1204.08 1068.89 1204.08 1069.6 1204.99 1065.33 1204.54 1066.56 1204.08"/><polygon class="cls-32" points="1070.18 1202.92 1070.63 1202.66 1073.02 1202.53 1073.93 1202.92 1070.18 1202.92"/><polygon class="cls-32" points="1075.35 1202.92 1075.93 1202.66 1076.64 1202.79 1075.35 1202.92"/><polygon class="cls-33" points="1054.72 1231.95 1051.68 1231.5 1048.9 1232.92 1050.52 1232.92 1056.08 1232.53 1054.72 1231.95"/><polygon class="cls-33" points="1054.72 1233.18 1056.99 1232.92 1058.99 1233.18 1057.89 1233.7 1053.82 1233.7 1054.72 1233.18"/><polygon class="cls-32" points="1032.22 1214.23 1038.04 1214.23 1039.59 1212.36 1032.48 1212.88 1032.22 1214.23"/><polygon class="cls-32" points="1084.99 1213.65 1080.07 1215.2 1080.72 1214.17 1083.11 1213.27 1084.99 1213.65"/><polygon class="cls-32" points="1068.89 1253.74 1072.96 1253.74 1074.25 1254.91 1066.75 1254.33 1068.89 1253.74"/><polygon class="cls-34" points="986.44 1266.74 990.51 1266.74 991.81 1267.84 984.37 1267.32 986.44 1266.74"/><polygon class="cls-32" points="1075.22 1252.26 1076 1251.93 1080.14 1251.74 1081.75 1252.26 1075.22 1252.26"/><polygon class="cls-32" points="1084.28 1252.26 1085.18 1251.93 1086.47 1252.06 1084.28 1252.26"/><polygon class="cls-34" points="1101.09 1266.03 1092.42 1267.97 1093.65 1266.61 1097.72 1265.51 1101.09 1266.03"/><polygon class="cls-32" points="786.7 1192.44 789.28 1192.9 790.51 1192.44 787.67 1191.86 786.7 1192.44"/><polygon class="cls-32" points="792.26 1191.86 795.3 1192.12 796.01 1191.41 793.29 1191.34 792.26 1191.86"/><polygon class="cls-32" points="878.33 1192.18 893.26 1193.15 888.54 1195.42 878.33 1193.8 878.33 1192.18"/><polygon class="cls-33" points="770.21 1206.41 785.15 1207.38 780.36 1209.64 770.21 1208.03 770.21 1206.41"/><polygon class="cls-33" points="779.2 1250.7 794.13 1251.67 789.41 1253.94 779.2 1252.32 779.2 1250.7"/><polygon class="cls-32" points="894.49 1195.22 895.52 1194.38 898.69 1193.8 900.25 1194.51 894.49 1195.22"/><polygon class="cls-32" points="919.26 1197.81 921.78 1198.46 922.75 1197.36 919.26 1197.81"/><polygon class="cls-35" points="1006.55 1240.88 1009.07 1241.52 1010.11 1240.49 1006.55 1240.88"/><polygon class="cls-32" points="856.08 1186.75 858.47 1186.75 859.18 1187.66 854.92 1187.21 856.08 1186.75"/><polygon class="cls-32" points="859.77 1185.59 860.22 1185.33 862.55 1185.2 863.52 1185.59 859.77 1185.59"/><polygon class="cls-32" points="864.94 1185.59 865.46 1185.33 866.23 1185.46 864.94 1185.59"/><polygon class="cls-33" points="844.25 1214.62 841.27 1214.17 838.43 1215.59 840.11 1215.59 845.67 1215.2 844.25 1214.62"/><polygon class="cls-33" points="844.25 1215.85 846.58 1215.59 848.58 1215.85 847.48 1216.37 843.41 1216.37 844.25 1215.85"/><polygon class="cls-32" points="821.75 1196.9 827.63 1196.9 829.12 1195.03 822.07 1195.55 821.75 1196.9"/><polygon class="cls-32" points="874.57 1196.32 869.66 1197.88 870.31 1196.84 872.7 1195.93 874.57 1196.32"/><polygon class="cls-34" points="897.14 1243.33 923.14 1244.63 914.92 1247.47 897.14 1245.4 897.14 1243.33"/><polygon class="cls-34" points="925.33 1247.21 927.14 1246.24 932.64 1245.4 935.36 1246.31 925.33 1247.21"/><polygon class="cls-32" points="968.46 1250.51 972.86 1251.35 974.61 1249.99 968.46 1250.51"/><polygon class="cls-32" points="858.41 1236.48 862.48 1236.48 863.84 1237.58 856.34 1237 858.41 1236.48"/><polygon class="cls-34" points="776.03 1249.41 780.1 1249.41 781.39 1250.58 773.89 1249.99 776.03 1249.41"/><polygon class="cls-32" points="864.81 1234.93 865.59 1234.6 869.66 1234.41 871.34 1234.93 864.81 1234.93"/><polygon class="cls-32" points="873.8 1234.93 874.77 1234.6 876.06 1234.73 873.8 1234.93"/><polygon class="cls-34" points="890.61 1248.7 882.01 1250.64 883.17 1249.35 887.31 1248.18 890.61 1248.7"/><path class="cls-11" d="M482.65,1524.45s25.89-3,36.63,0C507.76,1528.78,493.82,1529,482.65,1524.45Z"/><path class="cls-15" d="M504,1495.7s20-3.55,25.54,0h4.94S523.61,1498.65,504,1495.7Z"/><polygon class="cls-11" points="368.09 1479.86 371.12 1474.14 378.4 1475.44 378.4 1479.86 368.09 1479.86"/><polygon class="cls-36" points="529.75 1539.6 529.75 1535.19 534.86 1535.19 538.33 1539.6 529.75 1539.6"/><polygon class="cls-17" points="416.84 1446.87 416.84 1442.45 421.95 1442.45 425.41 1446.87 416.84 1446.87"/><polygon class="cls-32" points="357.44 1342.18 360.9 1342.7 362.55 1342.18 358.74 1341.4 357.44 1342.18"/><polygon class="cls-32" points="364.98 1341.4 369.04 1341.74 370 1340.79 366.27 1340.71 364.98 1341.4"/><polygon class="cls-32" points="480.14 1341.83 500.14 1343.13 493.82 1346.08 480.14 1343.91 480.14 1341.83"/><polygon class="cls-33" points="335.36 1360.88 355.36 1362.18 349.04 1365.13 335.36 1362.96 335.36 1360.88"/><polygon class="cls-33" points="347.48 1420.19 367.49 1421.49 361.08 1424.44 347.48 1422.27 347.48 1420.19"/><polygon class="cls-32" points="501.79 1345.82 503.17 1344.78 507.41 1343.91 509.49 1344.86 501.79 1345.82"/><polygon class="cls-32" points="450.44 1334.56 453.56 1334.56 454.6 1335.68 448.79 1335.16 450.44 1334.56"/><polygon class="cls-32" points="455.29 1332.91 455.89 1332.65 459.1 1332.39 460.31 1332.91 455.29 1332.91"/><polygon class="cls-32" points="462.21 1332.91 462.99 1332.65 463.95 1332.83 462.21 1332.91"/><polygon class="cls-33" points="434.59 1371.88 430.52 1371.27 426.8 1373.18 428.96 1373.18 436.41 1372.57 434.59 1371.88"/><polygon class="cls-33" points="434.59 1373.44 437.62 1373.18 440.31 1373.44 438.83 1374.22 433.47 1374.22 434.59 1373.44"/><polygon class="cls-32" points="404.46 1348.15 412.34 1348.15 414.33 1345.64 404.81 1346.25 404.46 1348.15"/><polygon class="cls-32" points="475.2 1347.37 468.54 1349.45 469.49 1348.07 472.61 1346.85 475.2 1347.37"/><polygon class="cls-32" points="453.56 1401.06 459.01 1401.06 460.74 1402.53 450.7 1401.84 453.56 1401.06"/><polygon class="cls-34" points="343.15 1418.46 348.61 1418.46 350.34 1419.94 340.38 1419.24 343.15 1418.46"/><polygon class="cls-32" points="462.04 1398.98 463.08 1398.63 468.62 1398.38 470.79 1398.98 462.04 1398.98"/><polygon class="cls-32" points="474.16 1398.98 475.38 1398.63 477.11 1398.81 474.16 1398.98"/><polygon class="cls-34" points="496.68 1417.42 485.07 1420.11 486.72 1418.29 492.17 1416.73 496.68 1417.42"/><polygon class="cls-32" points="75.68 1318.97 79.14 1319.58 80.79 1318.97 76.98 1318.19 75.68 1318.97"/><polygon class="cls-32" points="83.21 1318.19 87.2 1318.54 88.15 1317.59 84.51 1317.5 83.21 1318.19"/><polygon class="cls-32" points="198.38 1318.63 218.38 1319.92 212.06 1322.87 198.38 1320.79 198.38 1318.63"/><polygon class="cls-33" points="53.6 1337.68 73.6 1338.97 67.28 1341.92 53.6 1339.84 53.6 1337.68"/><polygon class="cls-33" points="65.64 1396.99 85.64 1398.29 79.32 1401.23 65.64 1399.15 65.64 1396.99"/><polygon class="cls-32" points="220.02 1322.7 221.41 1321.57 225.65 1320.79 227.73 1321.74 220.02 1322.7"/><polygon class="cls-32" points="253.19 1326.07 256.56 1326.94 257.86 1325.55 253.19 1326.07"/><polygon class="cls-35" points="370.08 1383.83 373.46 1384.69 374.85 1383.31 370.08 1383.83"/><polygon class="cls-32" points="168.59 1311.35 171.79 1311.35 172.75 1312.57 167.03 1311.96 168.59 1311.35"/><polygon class="cls-32" points="173.53 1309.71 174.13 1309.45 177.25 1309.27 178.55 1309.71 173.53 1309.71"/><polygon class="cls-32" points="180.45 1309.71 181.15 1309.45 182.18 1309.62 180.45 1309.71"/><polygon class="cls-33" points="152.74 1348.67 148.76 1348.07 144.95 1349.97 147.2 1349.97 154.65 1349.45 152.74 1348.67"/><polygon class="cls-33" points="152.74 1350.32 155.86 1349.97 158.55 1350.32 157.07 1351.01 151.62 1351.01 152.74 1350.32"/><polygon class="cls-32" points="122.61 1324.95 130.49 1324.95 132.48 1322.44 123.04 1323.13 122.61 1324.95"/><polygon class="cls-32" points="193.35 1324.17 186.77 1326.25 187.64 1324.86 190.84 1323.65 193.35 1324.17"/><polygon class="cls-34" points="223.57 1387.12 258.38 1388.85 247.39 1392.66 223.57 1389.89 223.57 1387.12"/><polygon class="cls-34" points="261.33 1392.31 263.75 1390.93 271.11 1389.89 274.75 1391.1 261.33 1392.31"/><polygon class="cls-32" points="319.08 1396.73 324.97 1397.86 327.31 1396.04 319.08 1396.73"/><polygon class="cls-32" points="171.71 1377.85 177.25 1377.85 178.98 1379.33 168.94 1378.63 171.71 1377.85"/><polygon class="cls-34" points="61.39 1395.26 66.85 1395.26 68.58 1396.73 58.53 1396.04 61.39 1395.26"/><polygon class="cls-32" points="180.28 1375.78 181.32 1375.43 186.77 1375.17 189.03 1375.78 180.28 1375.78"/><polygon class="cls-32" points="192.4 1375.78 193.61 1375.43 195.35 1375.6 192.4 1375.78"/><polygon class="cls-34" points="214.91 1394.22 203.31 1396.9 204.87 1395.09 210.41 1393.53 214.91 1394.22"/><path class="cls-37" d="M211.19,1424.7l-9.7-2.77-19.57,1.9-7.44,1,21.47.69,1.13.18-41,1.56-40.44-1.91-20.6.95L0,1421.49l1.21-.26,55-2.25,29.7-3.55,22.77-1.38-12.56-1.65,44.6-1.73-1.13-.52,13.08-.26,8.4-1.82,11.17-.26,2.51-2.25,30.82,1.47,96.81,5.11,12.56.69-44.86,4.33-57.41,3.73.52,3.55ZM97.5,1418.38,125,1416.3h0Z"/><polygon class="cls-38" points="206.08 1356.72 242.36 1334.21 302.98 1328.58 208.51 1370.49 188.76 1369.54 206.08 1356.72"/><polygon class="cls-38" points="188.76 1369.54 170.75 1343.22 267.74 1311.44 273.1 1336.64 188.76 1369.54"/><polygon class="cls-39" points="188.76 1286.5 168.5 1253.68 262.54 1254.81 274.83 1276.11 188.76 1286.5"/><polygon class="cls-39" points="220.8 1364.87 210.67 1306.33 218.29 1265.63 308.87 1268.84 302.28 1299.66 302.28 1362.44 220.8 1364.87"/><polygon class="cls-40" points="218.29 1265.63 188.76 1286.5 184.18 1320.7 193.87 1348.24 193.35 1369.54 221.93 1371.27 210.67 1306.33 218.29 1265.63"/><polygon class="cls-41" points="302.28 1299.66 210.67 1306.33 218.29 1265.63 230.16 1277.24 305.66 1283.82 302.28 1299.66"/><polygon class="cls-42" points="247.56 1330.23 245.4 1307.54 286 1308.49 284.19 1330.23 247.56 1330.23"/><polygon class="cls-42" points="243.84 1325.81 242.1 1320.96 222.53 1320.96 223.14 1329.02 243.84 1325.81"/><polygon class="cls-43" points="308.87 1268.84 325.06 1292.39 251.46 1282.26 227.21 1289.96 218.29 1265.63 308.87 1268.84"/><polygon class="cls-39" points="206.08 1413.87 222.53 1390.76 215.78 1379.76 219.16 1374.22 208.51 1370.49 302.98 1328.58 315.53 1371.27 315.53 1413.87 206.08 1413.87"/><polygon class="cls-40" points="208.51 1370.49 188.76 1369.54 206.08 1356.72 184.18 1371.79 190.93 1377.85 184.18 1392.31 189.8 1397.6 176.21 1413.01 206.08 1413.87 222.53 1390.76 215.78 1379.76 219.16 1374.22 208.51 1370.49"/><polygon class="cls-42" points="240.89 1394.39 233.19 1385.3 236.48 1377.85 232.41 1370.15 282.98 1360.19 282.11 1400.89 282.45 1402.7 240.89 1394.39"/><polygon class="cls-44" points="208.51 1370.49 222.53 1333.69 292.67 1325.12 326.88 1306.33 302.98 1328.58 208.51 1370.49"/><polygon class="cls-41" points="222.53 1390.76 297.61 1405.73 215.78 1379.76 184.18 1392.31 189.8 1397.6 222.53 1390.76"/><polygon class="cls-41" points="206.08 1413.87 238.29 1401.92 302.98 1413.87 206.08 1413.87"/><polygon class="cls-39" points="222.53 1333.69 222.53 1332.05 291.89 1324.25 326.88 1304.08 326.88 1306.33 292.67 1325.12 222.53 1333.69"/><polygon class="cls-41" points="326.88 1306.33 302.98 1328.58 311.55 1357.59 219.16 1374.22 208.51 1370.49 222.53 1333.69 292.67 1325.12 326.88 1306.33"/><polygon class="cls-42" points="297.61 1396.56 297.61 1390.23 310.86 1388.42 310.86 1396.64 297.61 1396.56"/><polygon class="cls-38" points="222.53 1332.05 207.9 1370.32 208.51 1370.49 222.53 1333.69 222.53 1332.05"/><polygon class="cls-40" points="168.5 1253.68 167.64 1255.76 188.76 1288.49 188.76 1286.5 168.5 1253.68"/><polygon class="cls-40" points="325.06 1292.39 323.06 1293.26 250.68 1283.73 226.95 1291.09 217.69 1268.84 218.29 1265.63 227.12 1289.36 251.46 1282.26 325.06 1292.39"/><polygon class="cls-45" points="218.29 1265.63 251.46 1282.26 227.21 1289.96 218.29 1265.63"/><path class="cls-46" d="M397.62,1414.74l2.16-4c-2.07-3.55-3.46-14.2-4-18.27h24.33l-3.37-7.19L431,1374.22l4.25,22.42h-8.84l4,5.28-13.94,8.84,7,3.89Z"/><path class="cls-47" d="M435.29,1396.64c-11.43-2.51-11.26-2.07-18.53-11.34l3.37,7.19h-8.92l4.42,8.31,10.91-4.24h8.75Z"/><polygon class="cls-47" points="430.44 1401.92 419.7 1405.39 404.55 1394.39 399.44 1394.39 404.03 1404.44 401.77 1407.29 397.62 1405.04 399.78 1410.76 408.36 1402.53 416.5 1410.76 430.44 1401.92"/><polygon class="cls-46" points="330.94 1413.87 337.01 1413.01 330.94 1404.87 343.41 1384.43 355.54 1398.38 351.9 1404.87 360.73 1396.56 385.67 1409.81 378.92 1413.01 387.49 1413.87 330.94 1413.87"/><path class="cls-47" d="M330.94,1405l7.45,8.13v-7.18l8.83-12.38L351.9,1405l-3.2,4.93,8.48,3.12,2-13.86,3.38,1.91,4.42,8.83-4.68,1.47,18.62.7c-10.48,2.68-39.31,1.29-50,1.81L337,1413Z"/><polygon class="cls-48" points="111.27 1405.21 171.45 1402.79 135.43 1405.91 97.76 1407.21 111.27 1405.21"/><path class="cls-46" d="M105.64,1400.8s29.09-2.34,35.15-9.79l43.82,1C164.43,1399.76,139.41,1408.42,105.64,1400.8Z"/><path class="cls-49" d="M116.38,1394.13s13.33,15.07,42.43,6.15c-16.54,4-26.33,10.39-72.65-4Z"/></g></g></g></svg>