<svg xmlns="http://www.w3.org/2000/svg" viewBox="0 0 51.7 58.3"><defs><style>.cls-1{fill:#fff;}</style></defs><g id="Layer_2" data-name="Layer 2"><g id="Duscord"><path class="cls-1" d="M38.1,46.5c.4,1.5.7,2.7,1.1,3.9.3.9.1,1.3-1,1.3H6a6,6,0,0,1-6-5.6V7.1C0,2.4,2.4,0,7.1,0H45.3c3.9.1,6.4,2.6,6.4,6.5V57a4.1,4.1,0,0,1-.1,1.1c-.1.1-.2.2-.3.2C47,54.4,42.7,50.6,38.1,46.5ZM30.8,13.8v.4c1.9.9,3.9,1.8,5.8,2.7,0,.1-.1.2-.1.4A23.47,23.47,0,0,0,25.8,15,25.15,25.15,0,0,0,15,17.5c-.1-.1-.1-.2-.2-.4,2.1-1,4.3-2,6.5-3.1-2.1-.5-7.3,1.6-8.4,3.2-.1.1-.1.2-.2.3A38.18,38.18,0,0,0,8.8,33a3.12,3.12,0,0,0,.7,1.8,10.64,10.64,0,0,0,6.2,3.4c2.1.4,2.8,0,3.7-2.2L17,34.8c-.7-.4-1.3-1-2-1.5.1-.1.1-.2.2-.2,7.3,3.8,14.6,3.9,21.9-.1.1.1.1.3.2.4-1.6,1-3.2,2-4.9,3,.8.7,1.1,2.2,2.5,2.1a10.49,10.49,0,0,0,7.4-3.4,3.23,3.23,0,0,0,.8-2.1,42.75,42.75,0,0,0-2.5-12.2c-1.1-3.7-3.6-5.4-7.1-6.3a10.62,10.62,0,0,0-1.9-.4C31.5,13.7,31.1,13.8,30.8,13.8Z"/><path class="cls-1" d="M23.5,27.8A3,3,0,0,1,20.6,31a3.09,3.09,0,0,1-3-3.3,3.06,3.06,0,0,1,3-3.2A3.13,3.13,0,0,1,23.5,27.8Z"/><path class="cls-1" d="M31.3,24.6a3.12,3.12,0,0,1,3,3.2,3.2,3.2,0,0,1-2.9,3.3,3.14,3.14,0,0,1-3.1-3.2A3.22,3.22,0,0,1,31.3,24.6Z"/></g></g></svg>