<svg xmlns="http://www.w3.org/2000/svg" viewBox="0 0 53.4 43.68"><defs><style>.cls-1{fill:#fff;}</style></defs><g id="Layer_2" data-name="Layer 2"><g id="Twitter"><path class="cls-1" d="M0,39.17a23.86,23.86,0,0,0,15.7-4.7c-5-.7-8.2-3.1-10.1-7.7H9.8c.1-.1.1-.2.2-.3-5-1.8-7.9-5.3-8.3-10.8,1.6.5,3,.8,4.4,1.2.1-.1.1-.2.2-.3a11.09,11.09,0,0,1-4.5-9,9.61,9.61,0,0,1,1.5-5.4c.3.3.6.5.8.7a31.42,31.42,0,0,0,20.7,10.6c.9.1,1.2-.2,1.1-1.1a10.93,10.93,0,0,1,5.9-11.1,10.92,10.92,0,0,1,12.4,1.5,1.84,1.84,0,0,0,2,.4c1.8-.7,3.7-1.3,5.7-2-.5,2.4-2.3,3.8-3.8,5.7,1.7-.4,3.4-.9,5.3-1.4A9.73,9.73,0,0,1,52.3,7c-1,1.1-2.1,2.2-3.2,3.2a2.18,2.18,0,0,0-.9,1.9,32.17,32.17,0,0,1-5.6,18c-6.1,8.8-14.4,13.3-25.1,13.6A31.56,31.56,0,0,1,.8,39.37,1,1,0,0,1,0,39.17Z"/></g></g></svg>