<svg xmlns="http://www.w3.org/2000/svg" xmlns:xlink="http://www.w3.org/1999/xlink" viewBox="0 0 1601.84 453.56"><defs><style>.cls-1,.cls-10,.cls-11,.cls-16,.cls-2,.cls-9{isolation:isolate;}.cls-2{fill:#60253d;}.cls-101,.cls-102,.cls-11,.cls-12,.cls-13,.cls-14,.cls-18,.cls-19,.cls-2,.cls-20,.cls-21,.cls-22,.cls-23,.cls-24,.cls-25,.cls-26,.cls-27,.cls-28,.cls-29,.cls-3,.cls-30,.cls-31,.cls-32,.cls-33,.cls-34,.cls-35,.cls-36,.cls-37,.cls-38,.cls-39,.cls-4,.cls-40,.cls-41,.cls-42,.cls-43,.cls-45,.cls-46,.cls-47,.cls-48,.cls-49,.cls-5,.cls-50,.cls-51,.cls-52,.cls-53,.cls-55,.cls-56,.cls-57,.cls-58,.cls-59,.cls-6,.cls-60,.cls-61,.cls-62,.cls-63,.cls-66,.cls-67,.cls-68,.cls-69,.cls-7,.cls-70,.cls-71,.cls-72,.cls-73,.cls-74,.cls-75,.cls-76,.cls-77,.cls-79,.cls-8,.cls-80,.cls-81,.cls-82,.cls-83,.cls-84,.cls-85,.cls-86,.cls-87,.cls-88,.cls-89,.cls-90,.cls-91,.cls-92,.cls-93,.cls-94,.cls-95{fill-rule:evenodd;}.cls-10,.cls-11,.cls-16,.cls-2,.cls-9{opacity:0.3;}.cls-3{fill:url(#Áåçûìÿííûé_ãðàäèåíò_290);}.cls-4,.cls-7,.cls-8{fill:#522442;}.cls-20,.cls-23,.cls-29,.cls-32,.cls-38,.cls-4,.cls-41,.cls-47,.cls-50,.cls-54,.cls-57,.cls-60{opacity:0.3;}.cls-20,.cls-23,.cls-29,.cls-32,.cls-38,.cls-4,.cls-41,.cls-47,.cls-50,.cls-54,.cls-57,.cls-60,.cls-7,.cls-8{mix-blend-mode:multiply;}.cls-5{fill:url(#Áåçûìÿííûé_ãðàäèåíò_290-2);}.cls-6{fill:url(#Áåçûìÿííûé_ãðàäèåíò_2);}.cls-8{opacity:0.12;}.cls-11,.cls-9{fill:#993459;}.cls-10{fill:#7a2246;}.cls-12{fill:#bd9aa7;}.cls-13{fill:#3147a1;}.cls-14{fill:#ffcf9d;}.cls-15{fill:url(#linear-gradient);}.cls-16{fill:url(#linear-gradient-2);}.cls-17{fill:url(#linear-gradient-3);}.cls-18{fill:url(#linear-gradient-4);}.cls-19{fill:url(#linear-gradient-5);}.cls-20{fill:url(#linear-gradient-6);}.cls-21{fill:url(#linear-gradient-7);}.cls-22{fill:url(#linear-gradient-8);}.cls-23{fill:url(#linear-gradient-9);}.cls-24{fill:url(#linear-gradient-10);}.cls-25{fill:#ffe148;}.cls-25,.cls-34,.cls-52{opacity:0.5;mix-blend-mode:soft-light;}.cls-26{fill:url(#linear-gradient-11);}.cls-27{fill:url(#linear-gradient-12);}.cls-28{fill:url(#linear-gradient-13);}.cls-29{fill:url(#linear-gradient-14);}.cls-30{fill:url(#linear-gradient-15);}.cls-31{fill:url(#linear-gradient-16);}.cls-32{fill:url(#linear-gradient-17);}.cls-33{fill:url(#linear-gradient-18);}.cls-34{fill:url(#linear-gradient-19);}.cls-35{fill:url(#linear-gradient-20);}.cls-36{fill:url(#linear-gradient-21);}.cls-37{fill:url(#linear-gradient-22);}.cls-38{fill:url(#linear-gradient-23);}.cls-39{fill:url(#linear-gradient-24);}.cls-40{fill:url(#linear-gradient-25);}.cls-41{fill:url(#linear-gradient-26);}.cls-42{fill:url(#linear-gradient-27);}.cls-43{fill:url(#linear-gradient-28);}.cls-44{fill:url(#linear-gradient-29);}.cls-45{fill:url(#linear-gradient-30);}.cls-46{fill:url(#linear-gradient-31);}.cls-47{fill:url(#linear-gradient-32);}.cls-48{fill:url(#linear-gradient-33);}.cls-49{fill:url(#linear-gradient-34);}.cls-50{fill:url(#linear-gradient-35);}.cls-51{fill:url(#linear-gradient-36);}.cls-52{fill:url(#linear-gradient-37);}.cls-53{fill:url(#linear-gradient-38);}.cls-54{fill:#772442;}.cls-55{fill:url(#linear-gradient-39);}.cls-56{fill:url(#linear-gradient-40);}.cls-57{fill:url(#linear-gradient-41);}.cls-58{fill:url(#linear-gradient-42);}.cls-59{fill:url(#linear-gradient-43);}.cls-60{fill:url(#linear-gradient-44);}.cls-61{fill:url(#linear-gradient-45);}.cls-62{fill:url(#linear-gradient-46);}.cls-63{fill:url(#linear-gradient-47);}.cls-64,.cls-66{fill:#ffe8e3;}.cls-65{fill:url(#linear-gradient-48);}.cls-67,.cls-68,.cls-69{mix-blend-mode:screen;}.cls-67{fill:url(#linear-gradient-49);}.cls-68{fill:url(#linear-gradient-50);}.cls-69{fill:url(#linear-gradient-51);}.cls-70{fill:url(#linear-gradient-52);}.cls-71,.cls-74{fill:#261019;}.cls-71{opacity:0.43;}.cls-72{fill:#dbcbc8;}.cls-73{fill:#9e8b88;}.cls-74{opacity:0.7;}.cls-75{fill:url(#linear-gradient-53);}.cls-76{fill:url(#linear-gradient-54);}.cls-77{fill:#d33200;}.cls-78{fill:#ff6f48;}.cls-79{fill:url(#linear-gradient-55);}.cls-80{fill:url(#linear-gradient-56);}.cls-81{fill:url(#Áåçûìÿííûé_ãðàäèåíò_634);}.cls-82{fill:url(#Áåçûìÿííûé_ãðàäèåíò_111);}.cls-83{fill:url(#Áåçûìÿííûé_ãðàäèåíò_634-2);}.cls-84{fill:url(#Áåçûìÿííûé_ãðàäèåíò_111-2);}.cls-85{fill:url(#Áåçûìÿííûé_ãðàäèåíò_634-3);}.cls-86{fill:url(#Áåçûìÿííûé_ãðàäèåíò_111-3);}.cls-87{fill:url(#Áåçûìÿííûé_ãðàäèåíò_634-4);}.cls-88{fill:url(#Áåçûìÿííûé_ãðàäèåíò_111-4);}.cls-89{fill:url(#Áåçûìÿííûé_ãðàäèåíò_111-5);}.cls-90{fill:url(#Áåçûìÿííûé_ãðàäèåíò_634-5);}.cls-91{fill:url(#Áåçûìÿííûé_ãðàäèåíò_634-6);}.cls-92{fill:url(#Áåçûìÿííûé_ãðàäèåíò_111-6);}.cls-93{fill:url(#Áåçûìÿííûé_ãðàäèåíò_126);}.cls-94{fill:url(#Áåçûìÿííûé_ãðàäèåíò_111-7);}.cls-95{fill:url(#Áåçûìÿííûé_ãðàäèåíò_111-8);}.cls-96{fill:url(#Áåçûìÿííûé_ãðàäèåíò_102);}.cls-97{fill:url(#Áåçûìÿííûé_ãðàäèåíò_102-2);}.cls-98{fill:url(#Áåçûìÿííûé_ãðàäèåíò_102-3);}.cls-99{fill:url(#Áåçûìÿííûé_ãðàäèåíò_102-4);}.cls-100{fill:url(#Áåçûìÿííûé_ãðàäèåíò_102-5);}.cls-101{fill:#e87f6f;}.cls-102{fill:#e8706f;}</style><linearGradient id="Áåçûìÿííûé_ãðàäèåíò_290" x1="130.75" y1="326.18" x2="248.48" y2="326.18" gradientUnits="userSpaceOnUse"><stop offset="0.22" stop-color="#e0aebd"/><stop offset="1" stop-color="#dbeae3"/></linearGradient><linearGradient id="Áåçûìÿííûé_ãðàäèåíò_290-2" x1="141.86" y1="246.32" x2="141.86" y2="227.18" gradientTransform="translate(41.11 84.95) rotate(-1.42)" xlink:href="#Áåçûìÿííûé_ãðàäèåíò_290"/><linearGradient id="Áåçûìÿííûé_ãðàäèåíò_2" x1="141.65" y1="244.73" x2="141.65" y2="228.31" gradientTransform="translate(41.11 84.95) rotate(-1.42)" gradientUnits="userSpaceOnUse"><stop offset="0" stop-color="#da5036"/><stop offset="1" stop-color="#ea6f3a"/></linearGradient><linearGradient id="linear-gradient" x1="1413.1" y1="320.32" x2="1476.37" y2="320.32" gradientUnits="userSpaceOnUse"><stop offset="0.22" stop-color="#e0aebd"/><stop offset="1" stop-color="#dbeae3"/></linearGradient><linearGradient id="linear-gradient-2" x1="1440.26" y1="297.7" x2="1471.35" y2="385.85" gradientUnits="userSpaceOnUse"><stop offset="0" stop-color="#a23776"/><stop offset="1" stop-color="#fff"/></linearGradient><linearGradient id="linear-gradient-3" x1="1416.34" y1="267.93" x2="1470.16" y2="267.93" gradientTransform="matrix(0.99, 0, -0.04, 1, 22.04, 2.42)" gradientUnits="userSpaceOnUse"><stop offset="0" stop-color="#ffedee"/><stop offset="1" stop-color="#ffeab8"/></linearGradient><linearGradient id="linear-gradient-4" x1="1415.48" y1="-289.22" x2="1415.26" y2="-295.27" gradientTransform="translate(407.53 1108.17) rotate(-30.12)" gradientUnits="userSpaceOnUse"><stop offset="0" stop-color="#b86600"/><stop offset="1" stop-color="#b88f00"/></linearGradient><linearGradient id="linear-gradient-5" x1="1417.75" y1="-302.79" x2="1472.31" y2="-302.79" xlink:href="#linear-gradient-4"/><linearGradient id="linear-gradient-6" x1="1417.75" y1="-303.42" x2="1472.31" y2="-303.42" gradientTransform="translate(407.53 1108.17) rotate(-30.12)" gradientUnits="userSpaceOnUse"><stop offset="0" stop-color="#685e5e"/><stop offset="1" stop-color="#b59945"/></linearGradient><linearGradient id="linear-gradient-7" x1="1417.75" y1="-301.37" x2="1472.31" y2="-301.37" xlink:href="#linear-gradient-4"/><linearGradient id="linear-gradient-8" x1="1432.28" y1="-284.48" x2="1423.29" y2="-317.63" xlink:href="#linear-gradient-4"/><linearGradient id="linear-gradient-9" x1="1417.75" y1="-303.07" x2="1472.31" y2="-303.07" xlink:href="#linear-gradient-6"/><linearGradient id="linear-gradient-10" x1="1445.62" y1="-279.22" x2="1444.99" y2="-295.99" xlink:href="#linear-gradient-4"/><linearGradient id="linear-gradient-11" x1="1417.67" y1="-297" x2="1472.24" y2="-297" gradientTransform="translate(407.53 1108.17) rotate(-30.12)" gradientUnits="userSpaceOnUse"><stop offset="0" stop-color="#965300"/><stop offset="1" stop-color="#b86500"/></linearGradient><linearGradient id="linear-gradient-12" x1="1470.67" y1="-349.76" x2="1470.56" y2="-352.78" gradientTransform="translate(1142.87 1588.85) rotate(-64.13)" gradientUnits="userSpaceOnUse"><stop offset="0" stop-color="#c28200"/><stop offset="1" stop-color="#841f00"/></linearGradient><linearGradient id="linear-gradient-13" x1="1471.8" y1="-356.54" x2="1499.08" y2="-356.54" xlink:href="#linear-gradient-12"/><linearGradient id="linear-gradient-14" x1="1471.8" y1="-356.86" x2="1499.08" y2="-356.86" xlink:href="#linear-gradient-12"/><linearGradient id="linear-gradient-15" x1="1471.8" y1="-355.83" x2="1499.08" y2="-355.83" xlink:href="#linear-gradient-12"/><linearGradient id="linear-gradient-16" x1="1479.07" y1="-347.39" x2="1474.57" y2="-363.96" xlink:href="#linear-gradient-12"/><linearGradient id="linear-gradient-17" x1="1471.8" y1="-356.68" x2="1499.08" y2="-356.68" xlink:href="#linear-gradient-12"/><linearGradient id="linear-gradient-18" x1="1485.74" y1="-344.76" x2="1485.42" y2="-353.14" xlink:href="#linear-gradient-12"/><linearGradient id="linear-gradient-19" x1="1468.06" y1="104.93" x2="1478.95" y2="104.93" gradientTransform="matrix(1, 0, 0, 1, 0, 0)" xlink:href="#linear-gradient-12"/><linearGradient id="linear-gradient-20" x1="1471.76" y1="-353.65" x2="1499.05" y2="-353.65" xlink:href="#linear-gradient-12"/><linearGradient id="linear-gradient-21" x1="1601.17" y1="-305.5" x2="1600.94" y2="-311.55" gradientTransform="matrix(-0.81, -0.59, -0.59, 0.81, 2567.15, 1230.32)" xlink:href="#linear-gradient-4"/><linearGradient id="linear-gradient-22" x1="1603.43" y1="-319.07" x2="1657.99" y2="-319.07" gradientTransform="matrix(-0.81, -0.59, -0.59, 0.81, 2567.15, 1230.32)" xlink:href="#linear-gradient-4"/><linearGradient id="linear-gradient-23" x1="1603.43" y1="-319.7" x2="1657.99" y2="-319.7" gradientTransform="matrix(-0.81, -0.59, -0.59, 0.81, 2567.15, 1230.32)" xlink:href="#linear-gradient-6"/><linearGradient id="linear-gradient-24" x1="1603.43" y1="-317.65" x2="1657.99" y2="-317.65" gradientTransform="matrix(-0.81, -0.59, -0.59, 0.81, 2567.15, 1230.32)" xlink:href="#linear-gradient-4"/><linearGradient id="linear-gradient-25" x1="1617.96" y1="-300.76" x2="1608.97" y2="-333.91" gradientTransform="matrix(-0.81, -0.59, -0.59, 0.81, 2567.15, 1230.32)" xlink:href="#linear-gradient-4"/><linearGradient id="linear-gradient-26" x1="1603.43" y1="-319.35" x2="1657.99" y2="-319.35" gradientTransform="matrix(-0.81, -0.59, -0.59, 0.81, 2567.15, 1230.32)" xlink:href="#linear-gradient-6"/><linearGradient id="linear-gradient-27" x1="1631.3" y1="-295.5" x2="1630.68" y2="-312.27" gradientTransform="matrix(-0.81, -0.59, -0.59, 0.81, 2567.15, 1230.32)" xlink:href="#linear-gradient-4"/><linearGradient id="linear-gradient-28" x1="1603.36" y1="-313.28" x2="1657.92" y2="-313.28" gradientTransform="matrix(-0.81, -0.59, -0.59, 0.81, 2567.15, 1230.32)" xlink:href="#linear-gradient-11"/><linearGradient id="linear-gradient-29" x1="1417.62" y1="280.2" x2="1445.4" y2="52.34" gradientUnits="userSpaceOnUse"><stop offset="0.01" stop-color="#793636"/><stop offset="0.98" stop-color="#926821"/></linearGradient><linearGradient id="linear-gradient-30" x1="1469.78" y1="-263.13" x2="1469.67" y2="-266.15" gradientTransform="matrix(-0.99, -0.13, -0.13, 0.99, 2821.09, 689.59)" xlink:href="#linear-gradient-12"/><linearGradient id="linear-gradient-31" x1="1470.91" y1="-269.91" x2="1498.19" y2="-269.91" gradientTransform="matrix(-0.99, -0.13, -0.13, 0.99, 2821.09, 689.59)" xlink:href="#linear-gradient-12"/><linearGradient id="linear-gradient-32" x1="1470.91" y1="-270.23" x2="1498.19" y2="-270.23" gradientTransform="matrix(-0.99, -0.13, -0.13, 0.99, 2821.09, 689.59)" xlink:href="#linear-gradient-12"/><linearGradient id="linear-gradient-33" x1="1470.91" y1="-269.21" x2="1498.19" y2="-269.21" gradientTransform="matrix(-0.99, -0.13, -0.13, 0.99, 2821.09, 689.59)" xlink:href="#linear-gradient-12"/><linearGradient id="linear-gradient-34" x1="1478.18" y1="-260.76" x2="1473.68" y2="-277.33" gradientTransform="matrix(-0.99, -0.13, -0.13, 0.99, 2821.09, 689.59)" xlink:href="#linear-gradient-12"/><linearGradient id="linear-gradient-35" x1="1470.91" y1="-270.06" x2="1498.19" y2="-270.06" gradientTransform="matrix(-0.99, -0.13, -0.13, 0.99, 2821.09, 689.59)" xlink:href="#linear-gradient-12"/><linearGradient id="linear-gradient-36" x1="1484.85" y1="-258.13" x2="1484.54" y2="-266.51" gradientTransform="matrix(-0.99, -0.13, -0.13, 0.99, 2821.09, 689.59)" xlink:href="#linear-gradient-12"/><linearGradient id="linear-gradient-37" x1="1545.62" y1="143.52" x2="1556.51" y2="143.52" gradientTransform="matrix(-0.55, 0.83, 0.83, 0.55, 2130.52, -1141.72)" xlink:href="#linear-gradient-12"/><linearGradient id="linear-gradient-38" x1="1470.88" y1="-267.02" x2="1498.16" y2="-267.02" gradientTransform="matrix(-0.99, -0.13, -0.13, 0.99, 2821.09, 689.59)" xlink:href="#linear-gradient-12"/><linearGradient id="linear-gradient-39" x1="1302.84" y1="-49.51" x2="1302.56" y2="-57.11" gradientTransform="translate(112.44 34.87) rotate(17.7)" xlink:href="#linear-gradient-4"/><linearGradient id="linear-gradient-40" x1="1305.68" y1="-66.56" x2="1374.21" y2="-66.56" gradientTransform="translate(112.44 34.87) rotate(17.7)" xlink:href="#linear-gradient-4"/><linearGradient id="linear-gradient-41" x1="1305.68" y1="-67.35" x2="1374.21" y2="-67.35" gradientTransform="translate(112.44 34.87) rotate(17.7)" xlink:href="#linear-gradient-6"/><linearGradient id="linear-gradient-42" x1="1305.68" y1="-64.78" x2="1374.21" y2="-64.78" gradientTransform="translate(112.44 34.87) rotate(17.7)" xlink:href="#linear-gradient-4"/><linearGradient id="linear-gradient-43" x1="1323.93" y1="-43.57" x2="1312.64" y2="-85.19" gradientTransform="translate(112.44 34.87) rotate(17.7)" xlink:href="#linear-gradient-4"/><linearGradient id="linear-gradient-44" x1="1305.68" y1="-66.91" x2="1374.21" y2="-66.91" gradientTransform="translate(112.44 34.87) rotate(17.7)" xlink:href="#linear-gradient-6"/><linearGradient id="linear-gradient-45" x1="1340.68" y1="-36.95" x2="1339.9" y2="-58.01" gradientTransform="translate(112.44 34.87) rotate(17.7)" xlink:href="#linear-gradient-4"/><linearGradient id="linear-gradient-46" x1="1305.59" y1="-59.28" x2="1374.12" y2="-59.28" gradientTransform="translate(112.44 34.87) rotate(17.7)" xlink:href="#linear-gradient-11"/><linearGradient id="linear-gradient-47" x1="-548.08" y1="-9835.14" x2="-574.39" y2="-9835.14" gradientTransform="translate(11346.49 -203.37) rotate(-90)" gradientUnits="userSpaceOnUse"><stop offset="0" stop-color="#32c8b9"/><stop offset="1" stop-color="#2d2c6b"/></linearGradient><linearGradient id="linear-gradient-48" x1="1469.12" y1="362.39" x2="1488.35" y2="362.39" gradientUnits="userSpaceOnUse"><stop offset="0" stop-color="#325eb9"/><stop offset="1" stop-color="#26224f"/></linearGradient><linearGradient id="linear-gradient-49" x1="1512.95" y1="341.38" x2="1510.66" y2="367.68" gradientUnits="userSpaceOnUse"><stop offset="0" stop-color="#325eb9"/><stop offset="1" stop-color="#2d2c6b"/></linearGradient><linearGradient id="linear-gradient-50" x1="1496.8" y1="339.7" x2="1494.85" y2="362" xlink:href="#linear-gradient-49"/><linearGradient id="linear-gradient-51" x1="1503.32" y1="343.15" x2="1502.49" y2="352.69" xlink:href="#linear-gradient-49"/><linearGradient id="linear-gradient-52" x1="1517.64" y1="403.43" x2="1517.64" y2="323.75" gradientUnits="userSpaceOnUse"><stop offset="0.27" stop-color="#a16152"/><stop offset="1" stop-color="#ffca63"/></linearGradient><linearGradient id="linear-gradient-53" x1="3234.65" y1="-9221.67" x2="3234.65" y2="-9277.29" gradientTransform="matrix(1, 0.06, 0.06, -1, -1537.46, -9063.03)" gradientUnits="userSpaceOnUse"><stop offset="0" stop-color="#074c7f"/><stop offset="1" stop-color="#9dc682"/></linearGradient><linearGradient id="linear-gradient-54" x1="3276.68" y1="-9252.67" x2="3276.68" y2="-9222.28" xlink:href="#linear-gradient-53"/><linearGradient id="linear-gradient-55" x1="3277.43" y1="-9241.1" x2="3257.04" y2="-9241.1" xlink:href="#linear-gradient-53"/><linearGradient id="linear-gradient-56" x1="3228.9" y1="-9240.35" x2="3265.06" y2="-9243.44" xlink:href="#linear-gradient-53"/><linearGradient id="Áåçûìÿííûé_ãðàäèåíò_634" x1="73.66" y1="286.93" x2="96.51" y2="286.93" gradientUnits="userSpaceOnUse"><stop offset="0.02" stop-color="#a12e22"/><stop offset="0.99" stop-color="#791d36"/></linearGradient><linearGradient id="Áåçûìÿííûé_ãðàäèåíò_111" x1="464.74" y1="-0.01" x2="464.74" y2="-53.49" gradientTransform="matrix(-0.1, 0.99, 0.99, 0.1, 183.74, -197.91)" gradientUnits="userSpaceOnUse"><stop offset="0" stop-color="#ea6f3a"/><stop offset="1" stop-color="#da5036"/></linearGradient><linearGradient id="Áåçûìÿííûé_ãðàäèåíò_634-2" x1="468.98" y1="-0.01" x2="468.98" y2="-51.86" gradientTransform="matrix(-0.1, 0.99, 0.99, 0.1, 183.74, -197.91)" xlink:href="#Áåçûìÿííûé_ãðàäèåíò_634"/><linearGradient id="Áåçûìÿííûé_ãðàäèåíò_111-2" x1="502.45" y1="-1.74" x2="502.45" y2="-53.49" xlink:href="#Áåçûìÿííûé_ãðàäèåíò_111"/><linearGradient id="Áåçûìÿííûé_ãðàäèåíò_634-3" x1="506.7" y1="-1.74" x2="506.7" y2="-51.85" gradientTransform="matrix(-0.1, 0.99, 0.99, 0.1, 183.74, -197.91)" xlink:href="#Áåçûìÿííûé_ãðàäèåíò_634"/><linearGradient id="Áåçûìÿííûé_ãðàäèåíò_111-3" x1="2059.66" y1="-1215.76" x2="2059.66" y2="-1255.38" gradientTransform="matrix(0.18, 0.98, 0.98, -0.18, 954.56, -1957.73)" xlink:href="#Áåçûìÿííûé_ãðàäèåíò_111"/><linearGradient id="Áåçûìÿííûé_ãðàäèåíò_634-4" x1="2065.81" y1="-1215.99" x2="2065.81" y2="-1253.56" gradientTransform="matrix(0.18, 0.98, 0.98, -0.18, 954.56, -1957.73)" xlink:href="#Áåçûìÿííûé_ãðàäèåíò_634"/><linearGradient id="Áåçûìÿííûé_ãðàäèåíò_111-4" x1="108.92" y1="348.42" x2="108.92" y2="342.25" gradientTransform="matrix(1, 0, 0, 1, 0, 0)" xlink:href="#Áåçûìÿííûé_ãðàäèåíò_111"/><linearGradient id="Áåçûìÿííûé_ãðàäèåíò_111-5" x1="542.21" y1="2.17" x2="542.21" y2="-48.05" xlink:href="#Áåçûìÿííûé_ãðàäèåíò_111"/><linearGradient id="Áåçûìÿííûé_ãðàäèåíò_634-5" x1="104.74" y1="350.17" x2="104.74" y2="337.99" xlink:href="#Áåçûìÿííûé_ãðàäèåíò_634"/><linearGradient id="Áåçûìÿííûé_ãðàäèåíò_634-6" x1="496.75" y1="-49.18" x2="556.35" y2="-49.18" gradientTransform="matrix(-0.1, 0.99, 0.99, 0.1, 183.74, -197.91)" xlink:href="#Áåçûìÿííûé_ãðàäèåíò_634"/><linearGradient id="Áåçûìÿííûé_ãðàäèåíò_111-6" x1="81.4" y1="320.06" x2="85.22" y2="320.06" gradientTransform="matrix(1, 0, 0, 1, 0, 0)" xlink:href="#Áåçûìÿííûé_ãðàäèåíò_111"/><linearGradient id="Áåçûìÿííûé_ãðàäèåíò_126" x1="68.42" y1="294.39" x2="90.42" y2="294.39" gradientUnits="userSpaceOnUse"><stop offset="0.01" stop-color="#ff9245"/><stop offset="1" stop-color="#ef614f"/></linearGradient><linearGradient id="Áåçûìÿííûé_ãðàäèåíò_111-7" x1="75.34" y1="257.58" x2="86.87" y2="257.58" gradientTransform="matrix(1, 0, 0, 1, 0, 0)" xlink:href="#Áåçûìÿííûé_ãðàäèåíò_111"/><linearGradient id="Áåçûìÿííûé_ãðàäèåíò_111-8" x1="78.77" y1="285.97" x2="89.81" y2="285.97" gradientTransform="matrix(1, 0, 0, 1, 0, 0)" xlink:href="#Áåçûìÿííûé_ãðàäèåíò_111"/><linearGradient id="Áåçûìÿííûé_ãðàäèåíò_102" x1="232.14" y1="355" x2="232.14" y2="344.37" gradientUnits="userSpaceOnUse"><stop offset="0.01" stop-color="#fb6b4f"/><stop offset="0.98" stop-color="#ff9c21"/></linearGradient><linearGradient id="Áåçûìÿííûé_ãðàäèåíò_102-2" x1="253.82" y1="357.96" x2="253.82" y2="352.49" xlink:href="#Áåçûìÿííûé_ãðàäèåíò_102"/><linearGradient id="Áåçûìÿííûé_ãðàäèåíò_102-3" x1="276.61" y1="334.61" x2="276.61" y2="332.71" xlink:href="#Áåçûìÿííûé_ãðàäèåíò_102"/><linearGradient id="Áåçûìÿííûé_ãðàäèåíò_102-4" x1="1.66" y1="325.01" x2="1.66" y2="323.11" xlink:href="#Áåçûìÿííûé_ãðàäèåíò_102"/><linearGradient id="Áåçûìÿííûé_ãðàäèåíò_102-5" x1="284.13" y1="349.56" x2="284.13" y2="346.95" xlink:href="#Áåçûìÿííûé_ãðàäèåíò_102"/></defs><g class="cls-1"><g id="Layer_2" data-name="Layer 2"><g id="Garbage"><path class="cls-2" d="M248.48,333.63s-54.81,10.28-74.74,10.53-29.75.51-29.75.51-22.13-17.57-23.34-20.34l-1.22-2.77s32.69-6.17,37.67-5.56S248.48,333.63,248.48,333.63Z"/><path class="cls-3" d="M248.48,333.63s-57.06,6.82-70.59,7h-.1c-1,0-1.84,0-2.35,0-7.05-.47-42.85-21.2-42.85-21.2-.49-2-1.84-7.74-1.84-7.74l73.15,12.37,43,1.44C247.38,328.43,248.48,333.63,248.48,333.63Z"/><path class="cls-4" d="M248.48,333.63s-57.06,6.82-70.59,7h-1.51c.81-3,1.44-12.81,1.44-12.81l26.08-3.79,43,1.44C247.38,328.43,248.48,333.63,248.48,333.63Z"/><path class="cls-5" d="M130.75,311.69c-1.68.72,44.92,16.29,48.24,16.22,14-.32,66.9-1.43,67.87-2.4s-44.32-17.3-61.21-16.88C164.71,309.15,133.49,310.52,130.75,311.69Z"/><path class="cls-6" d="M135.51,312.11c-1.06.48,40.07,13.93,42.19,13.88,8.9-.2,63.32-.78,63.94-1.44s-43.8-15.09-54.54-14.82C173.79,310.06,137.25,311.31,135.51,312.11Z"/><polygon class="cls-7" points="131.85 315.77 177.3 334.23 247.5 330.41 243.84 331.14 202.92 334.23 194.8 335.53 177.96 336.26 177.03 336.7 167.62 331.61 160.84 330.18 131.85 315.77 131.85 315.77"/><path class="cls-4" d="M165.79,318.25c2.74,3.38,13.88,6.06,24.84,6s17.49-2.85,14.78-6.19-13.72-6-24.64-6S163.05,314.87,165.79,318.25Z"/><polygon class="cls-4" points="160.84 330.18 163.76 336.17 168.04 338.14 167.62 331.61 160.84 330.18"/><polygon class="cls-4" points="156.27 327.91 154.59 331.55 138.65 322.88 145.43 322.52 156.27 327.91"/><path class="cls-8" d="M177.82,327.85s66.94-.65,69-2.34A201.74,201.74,0,0,0,193,309.18l-8.48,6.59-.79,8.17,1.05.79Z"/><path class="cls-2" d="M69.15,354.63c-13.8-26.93-12.53-54.84-12.53-54.84h70.3l3.06,2.88L84.6,312.23l-3.2,30.89,43.8,4.61,3.41,2.44s-27.3.23-45.21-.07v2.33Z"/><g id="Layer_2-2" data-name="Layer 2"><g id="Leave_Pot_Behnid_the_charachters_rock" data-name="Leave Pot Behnid the charachters rock"><ellipse class="cls-9" cx="1429.9" cy="370.91" rx="171.94" ry="12.12"/><ellipse class="cls-10" cx="1428.42" cy="372.27" rx="38.68" ry="2.73"/><path class="cls-11" d="M1152.89,384.81c-5.19,3.51,39.13,11.24,49.25,9.86s43.26-9,44.18-13.74S1176.37,369,1152.89,384.81Z"/><path class="cls-11" d="M1289.71,420.25c1.06-3.75,13.35,2.31,13.35,2.31S1288.34,425.22,1289.71,420.25Z"/><path class="cls-11" d="M1170.09,396.58c12-.4,35.09-6.94,35.13-9.53,0-3.59-50.36-.92-59.51,1.68C1133,392.38,1166.43,396.7,1170.09,396.58Z"/><path class="cls-12" d="M1483.58,384.75s28.39-3.33,40.13,0C1511.13,389.52,1495.76,389.74,1483.58,384.75Z"/><path class="cls-12" d="M1268.9,442H1299l14.75,5.92S1286.07,447.92,1268.9,442Z"/><path class="cls-13" d="M1208.83,347c-4.12-1.29-2.28,8.13-1.15,8.77C1208.64,355.93,1210.08,350.43,1208.83,347Z"/><path class="cls-14" d="M1512.17,375.17s3.86-1.72,5.71-.79C1517.88,374.38,1514.89,374.92,1512.17,375.17Z"/><path class="cls-15" d="M1417.06,271.51s-15.25,49.08,14.14,99.95l30.94-.56s25.59-47,8.14-101.72Z"/><path class="cls-16" d="M1475,289.91a63.85,63.85,0,0,1-6.5,19.91A89.11,89.11,0,0,1,1454,329.93c-5.65,5.9-12.26,11.18-19.8,14.43a41.29,41.29,0,0,1-13.25,3.26l-.54,0a133.91,133.91,0,0,0,10.83,23.8l30.94-.56S1481.53,335.23,1475,289.91Z"/><ellipse class="cls-17" cx="1443.75" cy="270.43" rx="26.71" ry="1.91" transform="translate(-9.82 59.08) rotate(-2.34)"/><path class="cls-18" d="M1487.49,139.43s-7,2-6.88,8l1.78,1,.28-.76.55.8.66-.38s-1.85-3.63,4.11-7.81Z"/><path class="cls-19" d="M1485.91,141.76s-2.62-16.63,9.43-24.22c-1.12,3.7.14,5,.14,5s1.58-8.35,17.48-13.19c0,0-5,3.68-5.28,6.51,0,0,11.27-8.71,23.06-5.6Z"/><path class="cls-20" d="M1518.45,110.65a35.13,35.13,0,0,0-10.77,5.25c.31-2.83,5.28-6.51,5.28-6.51a42.15,42.15,0,0,0-8,3.3,62.58,62.58,0,0,0-.8,6.81c-.21,3-.31,6.13-.32,9.19v.51l13.73-9.63C1518,116.62,1518.24,113.64,1518.45,110.65Z"/><path class="cls-21" d="M1520.52,117.47l10.22-7.17a22.09,22.09,0,0,0-9.54-.28C1521,112.51,1520.82,115,1520.52,117.47Z"/><path class="cls-22" d="M1494.37,118.19c-10.93,7.86-8.46,23.57-8.46,23.57l9.82-6.89A76.4,76.4,0,0,1,1494.37,118.19Z"/><path class="cls-23" d="M1498.15,133.17l3-2.1c0-.15,0-.29,0-.44a98.75,98.75,0,0,1,.77-15.85l0-.23a19.68,19.68,0,0,0-4.87,4.8A73.43,73.43,0,0,0,1498.15,133.17Z"/><path class="cls-24" d="M1485.85,141.8s14.73,8.12,26-.61c-3.86-.21-4.69-1.86-4.69-1.86s8.39,1.37,18.36-11.93c0,0-5.16,3.42-7.92,2.75,0,0,12-7.63,13.12-19.78Z"/><path class="cls-25" d="M1499.74,132.06l-12.59,8.82c3.23,1.42,7.14,1.66,10.51,1.83a46.56,46.56,0,0,0,7.28-.05,33.15,33.15,0,0,0,6.52-1.5c-3.54-.29-4.32-1.83-4.32-1.83s3.84.62,9.42-3.1A46.12,46.12,0,0,1,1499.74,132.06Z"/><path class="cls-26" d="M1485.85,141.8s22.66-18.67,44.85-31.43C1530.7,110.37,1490,140.05,1485.85,141.8Z"/><path class="cls-27" d="M1467.8,109.31s-2.34,2.75-.62,5.24l1-.08-.1-.39.45.18.17-.35s-1.78-1-.48-4.38Z"/><path class="cls-28" d="M1467.79,110.72s-5.73-6.16-2.86-12.68c.56,1.85,1.46,2,1.46,2s-1.68-3.9,3.56-10.35c0,0-1,2.91-.37,4.17,0,0,2.24-6.76,8-8.77Z"/><path class="cls-29" d="M1472.58,88.72a17.45,17.45,0,0,0-3,5.19c-.66-1.26.37-4.17.37-4.17a21.3,21.3,0,0,0-2.41,3.61,33.73,33.73,0,0,0,1.57,3.05c.77,1.32,1.59,2.63,2.44,3.9l.15.21,3-7.83C1474,91.33,1473.33,90,1472.58,88.72Z"/><path class="cls-30" d="M1475.35,91l2.22-5.83a11.21,11.21,0,0,0-4,2.55C1474.17,88.77,1474.77,89.86,1475.35,91Z"/><path class="cls-31" d="M1464.71,98.58c-2.34,6.32,3.08,12.14,3.08,12.14l2.14-5.6A38.34,38.34,0,0,1,1464.71,98.58Z"/><path class="cls-32" d="M1470.46,103.74l.66-1.71-.14-.18a49.74,49.74,0,0,1-4.11-6.78.54.54,0,0,1,0-.11,9.86,9.86,0,0,0-.68,3.36A37.64,37.64,0,0,0,1470.46,103.74Z"/><path class="cls-33" d="M1467.77,110.75s8.39-.75,10.6-7.52c-1.65,1-2.46.55-2.46.55s3.86-1.79,4.27-10.09c0,0-1.18,2.86-2.51,3.36,0,0,2.85-6.53-.09-11.87Z"/><path class="cls-34" d="M1470.81,102.83l-2.75,7.18a15.26,15.26,0,0,0,4.86-2.18,22.23,22.23,0,0,0,3-2.06,16,16,0,0,0,2.28-2.45c-1.54.87-2.3.46-2.3.46s1.77-.82,3-3.92A23.4,23.4,0,0,1,1470.81,102.83Z"/><path class="cls-35" d="M1467.77,110.75a193.31,193.31,0,0,1,9.81-25.57S1469,108.87,1467.77,110.75Z"/><path class="cls-36" d="M1451.54,33.65s6.72,2.66,6,8.66l-1.88.82-.2-.79-.63.75-.61-.45s2.21-3.42-3.3-8.19Z"/><path class="cls-37" d="M1452.88,36.12s4.31-16.26-6.9-25.06c.74,3.8-.65,5-.65,5s-.72-8.47-16-14.92c0,0,4.57,4.18,4.59,7,0,0-10.32-9.82-22.37-7.93Z"/><path class="cls-38" d="M1423.7,1.85a35.23,35.23,0,0,1,10.18,6.32c0-2.84-4.59-7-4.59-7A42.49,42.49,0,0,1,1437,5.26a65.28,65.28,0,0,1,.1,6.85c-.1,3.06-.32,6.14-.63,9.19,0,.16,0,.33-.05.5l-12.67-11C1423.58,7.83,1423.6,4.84,1423.7,1.85Z"/><path class="cls-39" d="M1420.94,8.42,1411.51.24a22,22,0,0,1,9.53.7C1421,3.43,1420.9,5.93,1420.94,8.42Z"/><path class="cls-40" d="M1446.88,11.82c10.07,8.93,6,24.3,6,24.3l-9.06-7.85A75.89,75.89,0,0,0,1446.88,11.82Z"/><path class="cls-41" d="M1441.59,26.33l-2.77-2.4c0-.14,0-.29.07-.43a98.87,98.87,0,0,0,.87-15.85,1.77,1.77,0,0,1,0-.23,19.72,19.72,0,0,1,4.35,5.27A74,74,0,0,1,1441.59,26.33Z"/><path class="cls-42" d="M1452.94,36.17s-15.49,6.57-25.78-3.27c3.86.19,4.85-1.36,4.85-1.36s-8.48.49-17-13.76c0,0,4.79,3.93,7.6,3.55,0,0-11.18-8.82-11-21Z"/><path class="cls-25" d="M1440.12,25.06l11.62,10.07c-3.36,1.08-7.28.92-10.64.73a45,45,0,0,1-7.24-.79,33.77,33.77,0,0,1-6.33-2.16c3.55.07,4.48-1.37,4.48-1.37s-3.88.22-9-4.05A46.35,46.35,0,0,0,1440.12,25.06Z"/><path class="cls-43" d="M1452.94,36.17S1432.31,15.28,1411.55.31C1411.55.31,1449,34,1452.94,36.17Z"/><path class="cls-44" d="M1434,271l13.34-.94s-3.48-12.06,0-19.92c4.33-2.81,1-3.29,1-3.29l1.07-3s-1.43-2.8-1.07-10.23,4.54-27.22,11.17-32.31c6.63-5.27,22.31-25.53,24.34-53.17l-.68-2.87-1.62,2.46a37.76,37.76,0,0,1-2.25,12.79c-2.44,6.58-6.61,24.94-22,38.71-1.12-2.63,1-11.83,2.54-17.05s3.66-22.79,3.66-22.79-4-9.95-4.64-17.09,7.27-25.34,11-27.71a69.08,69.08,0,0,0,6-4.18s-3.57-1.53-4.14-1a24.11,24.11,0,0,0-6.39,8.08c-2.63,5.24-6.39,6.13-9.2,27.76,1.51,7.88,3,2.06,2.81,11.57s4,5.46-2.63,33.32l-4.31,9s-4.14-13.83-3.2-25.86-4.15-28-4.15-28,8.68-74.61,16.37-86c7.51-11.82,12-17.08,12-17.08s-2.46-3.24-2.8-2.69-7.31,14.9-11.37,19c1-15.22-2-19.19-5.26-23.6,2.28,10.28,5.52,11.78,2.52,27s-17.69,75.15-17.4,87.93c5.37,12.21,7.73,26.37,7.06,29.28s.27,18.38,0,27.24-3.19,19.56-3.19,19.56-14,5.83-25.06,3.39-43,4.58-44.71,5.12l2.82,2.22s24.24-7.89,41.72-5.82c18.79,2.63,23.93,1.22,23.93,1.22S1433.67,265.15,1434,271Z"/><path class="cls-45" d="M1398.25,227.15s3.59-.43,4.71,2.38l-.64.81-.27-.3-.1.47-.38,0s.17-2-3.39-2.82Z"/><path class="cls-46" d="M1399.43,227.92s-2-8.19-9-9.4c1.23,1.49.9,2.35.9,2.35s-2.32-3.56-10.59-2.77c0,0,3,.76,3.68,2,0,0-6.87-1.88-11.73,1.8Z"/><path class="cls-47" d="M1378.46,219.73a17.61,17.61,0,0,1,6,.38c-.68-1.25-3.68-2-3.68-2a20.85,20.85,0,0,1,4.34,0,31.23,31.23,0,0,1,1.67,3c.68,1.37,1.31,2.78,1.9,4.19l.09.24-8.18-1.84C1379.82,222.39,1379.12,221.07,1378.46,219.73Z"/><path class="cls-48" d="M1378.8,223.28l-6.09-1.37a11,11,0,0,1,4.36-1.95C1377.62,221.08,1378.19,222.19,1378.8,223.28Z"/><path class="cls-49" d="M1391,218.63c6.55,1.55,8.4,9.29,8.4,9.29l-5.85-1.32A38.74,38.74,0,0,0,1391,218.63Z"/><path class="cls-50" d="M1392.13,226.28l-1.78-.4-.08-.21a49,49,0,0,0-3.37-7.19.41.41,0,0,1-.05-.09,9.69,9.69,0,0,1,3.16,1.29A35.75,35.75,0,0,1,1392.13,226.28Z"/><path class="cls-51" d="M1399.46,227.92s-5.26,6.57-12.13,4.67c1.75-.83,1.82-1.75,1.82-1.75s-3.62,2.23-10.76-2c0,0,3,.59,4.18-.24,0,0-7-1.24-9.83-6.65Z"/><path class="cls-52" d="M1391.18,226.07l7.51,1.68a15.18,15.18,0,0,1-4.51,2.84,22,22,0,0,1-3.38,1.37,16.83,16.83,0,0,1-3.3.54c1.58-.8,1.65-1.66,1.65-1.66s-1.66,1-5,.36A23.07,23.07,0,0,0,1391.18,226.07Z"/><path class="cls-53" d="M1399.46,227.92a193.36,193.36,0,0,0-26.72-6S1397.22,227.9,1399.46,227.92Z"/><path class="cls-54" d="M1442.24,402.11c0,.62-21.89,1.69-35.65,1.69s-35.8-1.07-35.8-1.69,22-.54,35.8-.54S1442.24,401.5,1442.24,402.11Z"/><path class="cls-55" d="M1376.93,377.76s-7.68-4.83-13.26.33l.57,2.51,1-.38-.29,1.19.91.29s1.82-4.78,10.74-2.75Z"/><path class="cls-56" d="M1373.43,378.24s13.27-16.45,30.49-11.64c-4.39,2.07-4.57,4.38-4.57,4.38s9.1-5.57,27,5.15c0,0-7.62-1.52-10.51.57,0,0,17.61,3.15,24.65,16.75Z"/><path class="cls-57" d="M1429.82,382.31a44.15,44.15,0,0,0-14-5.61c2.89-2.09,10.51-.57,10.51-.57a53.28,53.28,0,0,0-9.84-4.7,79.44,79.44,0,0,0-7,5c-3,2.38-6,4.89-8.83,7.46l-.47.43,20.54,4.66C1423.85,386.87,1426.86,384.63,1429.82,382.31Z"/><path class="cls-58" d="M1425.22,390l15.28,3.46a27.65,27.65,0,0,0-7.78-9.12C1430.26,386.27,1427.77,388.17,1425.22,390Z"/><path class="cls-59" d="M1402.5,366.25c-16.53-3.55-29.07,12-29.07,12l14.68,3.33A96.15,96.15,0,0,1,1402.5,366.25Z"/><path class="cls-60" d="M1391.73,382.39l4.49,1,.39-.39a124.4,124.4,0,0,1,15.4-12.66l.24-.15a24.55,24.55,0,0,0-8.58-.49A92.88,92.88,0,0,0,1391.73,382.39Z"/><path class="cls-61" d="M1373.34,378.22s4.86,20.57,22.48,23.67c-3.07-3.77-2.24-5.93-2.24-5.93s5.81,9,26.59,7c0,0-7.53-1.93-9.23-5.06,0,0,17.23,4.76,29.46-4.46Z"/><path class="cls-25" d="M1394.12,382.94l-18.83-4.28c1.4,4.21,4.47,8,7.16,11.32a56.4,56.4,0,0,0,6.19,6.74,41,41,0,0,0,6.89,4.79c-2.71-3.53-2-5.55-2-5.55s2.67,4.1,10.83,6.15A57.94,57.94,0,0,1,1394.12,382.94Z"/><path class="cls-62" d="M1373.34,378.22s36.48,5.35,67.06,15.25C1440.4,393.47,1378.45,380.59,1373.34,378.22Z"/><path class="cls-63" d="M1536.71,351.53a31.47,31.47,0,0,1,0,21.73l-52.65,8.44c3.51-12.84,3.15-25.72,0-38.61l10.18,3.75L1502,346l11.28,4.32,6-1.2Z"/><ellipse class="cls-64" cx="1483.08" cy="362.39" rx="4.63" ry="19.76"/><ellipse class="cls-65" cx="1483.83" cy="362.39" rx="4.63" ry="19.3"/><path class="cls-66" d="M1483.64,342.5a1.39,1.39,0,0,0-.56.13c2.53,1.1,4.5,9.52,4.5,19.76s-2,18.67-4.5,19.77a1.38,1.38,0,0,0,.56.12c2.79,0,5.06-8.9,5.06-19.89S1486.43,342.5,1483.64,342.5Z"/><path class="cls-67" d="M1509.85,369.16s3.14-11.78.7-19.91l2.7,1A33.83,33.83,0,0,1,1509.85,369.16Z"/><path class="cls-68" d="M1494.65,363.3a34.76,34.76,0,0,0-.39-16.37l2.54-.38S1499.56,353.36,1494.65,363.3Z"/><path class="cls-69" d="M1503.48,353.34s0-.38-1.51-7.38l1.18.45S1504,351.66,1503.48,353.34Z"/><polygon class="cls-70" points="1473.39 382.39 1476.82 379.52 1481.28 378.5 1487.86 372.15 1500.36 374.32 1505.85 371.43 1508.79 371.22 1516.2 373.89 1523.45 369.99 1531.83 370.16 1567.85 378.25 1542.93 382.09 1533.78 385.72 1520.62 389.63 1518.34 389.89 1516.04 388.88 1507.57 384.69 1504.18 383.81 1498.41 385.33 1482.67 386.22 1474.66 385.27 1467.44 384.73 1473.39 382.39 1473.39 382.39"/><path class="cls-71" d="M1275,438.09H1259l15.93,13.3s16.64-5.52,17.73-4.93,22,7.1,22,7.1,38.84-11.94,37.39-11.94-67.31-3.53-67.31-3.53Z"/><polygon class="cls-72" points="1287.09 402.05 1311.15 408.62 1316.02 405.59 1321.35 406.02 1324.68 423.42 1338.13 427.54 1339.16 442.38 1304.53 446.46 1297.17 438.12 1279.33 445.89 1267.08 437.48 1281.04 426.16 1275.17 423.49 1287.09 402.05 1287.09 402.05"/><polygon class="cls-73" points="1322.39 408.29 1321.35 406.02 1316.02 405.59 1311.15 408.62 1287.09 402.05 1275.17 423.49 1281.04 426.16 1277.44 429.08 1267.08 437.48 1278.31 444.94 1282.63 436.5 1291.72 431.62 1288.94 422.38 1313.41 413.19 1315.28 411.29 1322.45 408.53 1322.39 408.29 1322.39 408.29"/><path class="cls-72" d="M1288.82,430.37l-7.78-4.21-4.69,3.8C1276.62,429.75,1288.82,430.37,1288.82,430.37Z"/><path class="cls-72" d="M1314.64,413.44s-18.36-2.88-17.65-2.37,13.39,6.3,13.39,6.3Z"/><path class="cls-73" d="M1338.13,427.54c-.87-.26-22.54,5.9-22.54,5.9s-8.24,10.15-8.21,10.21,4.73-11.63,4.73-11.63,14.11-4.65,13.41-4.49-5.57.19-5,0a50.6,50.6,0,0,0,4.21-4.11Z"/><path class="cls-71" d="M1315.34,351.2h-8l8,6.65s8.32-2.76,8.87-2.46,11,3.55,11,3.55,19.42-6,18.7-6-33.65-1.77-33.65-1.77Z"/><polygon class="cls-72" points="1321.41 333.18 1333.44 336.47 1335.88 334.95 1338.54 335.17 1340.21 343.87 1346.93 345.93 1347.45 353.35 1330.13 355.39 1326.45 351.22 1317.53 355.1 1311.4 350.9 1318.38 345.24 1315.45 343.9 1321.41 333.18 1321.41 333.18"/><polygon class="cls-73" points="1339.06 336.3 1338.54 335.17 1335.88 334.95 1333.44 336.47 1321.41 333.18 1315.45 343.9 1318.38 345.24 1316.58 346.7 1311.4 350.9 1317.02 354.63 1319.18 350.41 1323.72 347.97 1322.34 343.35 1334.57 338.75 1335.5 337.8 1339.09 336.42 1339.06 336.3 1339.06 336.3"/><path class="cls-72" d="M1322.28,347.34l-3.9-2.1-2.34,1.9C1316.17,347,1322.28,347.34,1322.28,347.34Z"/><path class="cls-72" d="M1335.18,338.88s-9.17-1.44-8.82-1.19,6.69,3.15,6.69,3.15Z"/><path class="cls-73" d="M1346.93,345.93c-.44-.13-11.27,2.95-11.27,2.95s-4.12,5.07-4.11,5.1,2.37-5.81,2.37-5.81,7-2.33,6.7-2.25a11.42,11.42,0,0,1-2.52,0,24.66,24.66,0,0,0,2.11-2.05Z"/><path class="cls-74" d="M1219.91,367.86c0,2.19-22.29,4.24-48.56.33-25.89-3.86-46.1-3.45-46.1-5.63s20.38,2.71,46.53,3.78C1202.93,367.62,1219.91,365.68,1219.91,367.86Z"/><path class="cls-75" d="M1163,340.53c9.15-6.25,24.7-9.76,38.7-9a61.87,61.87,0,0,0-4,18,57.92,57.92,0,0,0,.24,18.05c-14.11.34-28.89-3.57-36.71-10.05-7.54-.89-33.55,15.7-31.67-2.33l-.2-.92a17.4,17.4,0,0,1,1.47-11.24h0C1132.7,325,1155.29,341.22,1163,340.53Z"/><polygon class="cls-76" points="1203.24 341.43 1201.54 357.76 1210.64 357.89 1212.34 341.55 1203.24 341.43"/><path class="cls-77" d="M1211.76,340.88a25.16,25.16,0,0,0-1.84,17.66l9.09.12,1.85-17.66Z"/><ellipse class="cls-78" cx="1219.94" cy="349.83" rx="8.88" ry="2.02" transform="translate(739.42 1524.45) rotate(-83.75)"/><path class="cls-79" d="M1208.13,341.4l-.44,1.18a28.08,28.08,0,0,0-1.47,14.06l.19,1.19-8.48,9.71a53.72,53.72,0,0,1-.35-18.06,57.24,57.24,0,0,1,4.11-18Z"/><path class="cls-80" d="M1162.09,358.16c-.29-.22-.59-.44-.87-.67a7.58,7.58,0,0,0-1.57,0,37.65,37.65,0,0,1,2.68-17c.23,0,.46,0,.66,0a40.9,40.9,0,0,1,7.19-3.83C1161.58,343.57,1161.83,354.91,1162.09,358.16Z"/></g></g><polygon class="cls-81" points="86.87 276 83.31 278.53 78.77 279.23 75.43 286.33 75.97 288.5 68.92 302.07 64.03 296.1 78.39 271.79 86.87 276"/><polygon class="cls-82" points="82.36 257.22 134.11 260.03 135.59 262.43 83.4 263.03 82.36 257.22"/><polygon class="cls-83" points="135.59 262.43 135.24 265.84 84.66 269.46 83.4 263.03 135.59 262.43"/><polygon class="cls-84" points="78.39 295.19 128.52 296.9 129.99 299.3 79.43 300.99 78.39 295.19"/><polygon class="cls-85" points="129.99 299.3 129.64 302.71 80.69 307.42 79.43 300.99 129.99 299.3"/><polygon class="cls-86" points="83.39 288.73 120.78 284.94 121.03 286.33 123.2 286.33 123.1 287.04 86.28 294.59 83.39 288.73"/><polygon class="cls-87" points="123.1 287.04 122.12 289.59 123.77 290.77 89.61 301.03 86.28 294.59 123.1 287.04"/><polygon class="cls-88" points="112.28 348.43 108.94 345.56 108 347.13 105.55 346.4 110.17 342.25 112.28 348.43"/><polygon class="cls-89" points="80.06 331.56 127.37 343.74 129.01 346.4 81.21 337.99 80.06 331.56"/><polygon class="cls-90" points="81.21 337.99 80.47 345.02 104.53 347.59 106.32 345.89 108 347.13 109.82 344.08 112.28 348.43 128.61 350.18 129.01 346.4 81.21 337.99"/><polygon class="cls-91" points="81.14 294.01 70.3 349.62 81.11 348.76 85.22 321.82 81.4 319.45 85.93 317.18 89.81 291.74 81.14 294.01"/><polygon class="cls-92" points="85.22 321.82 83.69 318.3 81.4 319.45 85.22 321.82"/><polygon class="cls-93" points="78.77 279.23 75.43 286.33 75.97 288.5 73.26 291.22 68.5 300.36 71.97 289.76 74.25 287.87 73.7 284.94 78.09 275 78.09 275 75.34 239.15 59.14 297.73 70.3 349.62 81.14 294.01 78.77 279.23 78.77 279.23"/><polygon class="cls-94" points="86.87 276 83.88 242.23 75.34 239.15 78.09 275 86.87 276"/><polygon class="cls-95" points="87.23 277.92 78.77 279.23 81.14 294.01 89.81 291.74 87.23 277.92"/><path class="cls-96" d="M236.48,344.37c-18.75,5.95-10.49,14.73.26,8.49C242.53,346.24,235,347.64,236.48,344.37Z"/><path class="cls-97" d="M250.2,353.52c7.31-3.24,12.23,2,3,4.44C252.18,356.55,247.57,355.53,250.2,353.52Z"/><path class="cls-98" d="M276.49,332.71c-4.63.2,2.75,3.56,1.67.86C277.82,332.82,275.17,332.85,276.49,332.71Z"/><path class="cls-99" d="M1.54,323.11c-4.63.2,2.75,3.56,1.66.86C2.87,323.22.22,323.25,1.54,323.11Z"/><path class="cls-100" d="M284.49,347.35c0-1.66,2.45,2.43-.11,2.06C281.69,350.36,282.64,346.42,284.49,347.35Z"/><path class="cls-101" d="M260.68,335.21l22.59,1.84C279.69,341.69,260.48,342.07,260.68,335.21Z"/><path class="cls-101" d="M19.11,341.45l22.58,1.85C38.11,347.94,18.91,348.32,19.11,341.45Z"/><path class="cls-102" d="M247.16,335.84a17.33,17.33,0,0,1,6.54,0C253.33,336.83,243.17,337.76,247.16,335.84Z"/><path class="cls-102" d="M281.75,348.72a17.39,17.39,0,0,1,6.55,0C287.92,349.71,277.76,350.64,281.75,348.72Z"/><path class="cls-102" d="M20,325.59a17.39,17.39,0,0,1,6.55,0C26.21,326.58,16,327.51,20,325.59Z"/><path class="cls-102" d="M49.62,333.76a17.39,17.39,0,0,1,6.55,0C55.8,334.75,45.63,335.68,49.62,333.76Z"/><path class="cls-102" d="M227.73,349a17.59,17.59,0,0,1,6.55,0C233.91,350,223.74,350.94,227.73,349Z"/></g></g></g></svg>