<svg xmlns="http://www.w3.org/2000/svg" xmlns:xlink="http://www.w3.org/1999/xlink" viewBox="0 0 1250.56 396.3"><defs><style>.cls-1{fill:#60253d;}.cls-1,.cls-10,.cls-100,.cls-101,.cls-11,.cls-12,.cls-13,.cls-17,.cls-18,.cls-19,.cls-2,.cls-20,.cls-21,.cls-22,.cls-23,.cls-24,.cls-25,.cls-26,.cls-27,.cls-28,.cls-29,.cls-3,.cls-30,.cls-31,.cls-32,.cls-33,.cls-34,.cls-35,.cls-36,.cls-37,.cls-38,.cls-39,.cls-4,.cls-40,.cls-41,.cls-42,.cls-44,.cls-45,.cls-46,.cls-47,.cls-48,.cls-49,.cls-5,.cls-50,.cls-51,.cls-52,.cls-54,.cls-55,.cls-56,.cls-57,.cls-58,.cls-59,.cls-6,.cls-60,.cls-61,.cls-62,.cls-65,.cls-66,.cls-67,.cls-68,.cls-69,.cls-7,.cls-70,.cls-71,.cls-72,.cls-73,.cls-74,.cls-75,.cls-76,.cls-78,.cls-79,.cls-80,.cls-81,.cls-82,.cls-83,.cls-84,.cls-85,.cls-86,.cls-87,.cls-88,.cls-89,.cls-90,.cls-91,.cls-92,.cls-93,.cls-94{fill-rule:evenodd;}.cls-1,.cls-10,.cls-15,.cls-19,.cls-22,.cls-28,.cls-3,.cls-31,.cls-37,.cls-40,.cls-46,.cls-49,.cls-53,.cls-56,.cls-59,.cls-8,.cls-9{opacity:0.3;}.cls-1,.cls-10,.cls-15,.cls-19,.cls-22,.cls-24,.cls-28,.cls-3,.cls-31,.cls-33,.cls-37,.cls-40,.cls-46,.cls-49,.cls-51,.cls-53,.cls-56,.cls-59,.cls-7,.cls-70,.cls-73,.cls-8,.cls-9{isolation:isolate;}.cls-2{fill:url(#linear-gradient);}.cls-3,.cls-6,.cls-7{fill:#522442;}.cls-4{fill:url(#linear-gradient-2);}.cls-5{fill:url(#linear-gradient-3);}.cls-7{opacity:0.12;}.cls-10,.cls-8{fill:#993459;}.cls-9{fill:#7a2246;}.cls-11{fill:#bd9aa7;}.cls-12{fill:#3147a1;}.cls-13{fill:#ffcf9d;}.cls-14{fill:url(#linear-gradient-4);}.cls-15{fill:url(#linear-gradient-5);}.cls-16{fill:url(#linear-gradient-6);}.cls-17{fill:url(#linear-gradient-7);}.cls-18{fill:url(#linear-gradient-8);}.cls-19{fill:url(#linear-gradient-9);}.cls-20{fill:url(#linear-gradient-10);}.cls-21{fill:url(#linear-gradient-11);}.cls-22{fill:url(#linear-gradient-12);}.cls-23{fill:url(#linear-gradient-13);}.cls-24{fill:#ffe148;}.cls-24,.cls-33,.cls-51{opacity:0.5;}.cls-25{fill:url(#linear-gradient-14);}.cls-26{fill:url(#linear-gradient-15);}.cls-27{fill:url(#linear-gradient-16);}.cls-28{fill:url(#linear-gradient-17);}.cls-29{fill:url(#linear-gradient-18);}.cls-30{fill:url(#linear-gradient-19);}.cls-31{fill:url(#linear-gradient-20);}.cls-32{fill:url(#linear-gradient-21);}.cls-33{fill:url(#linear-gradient-22);}.cls-34{fill:url(#linear-gradient-23);}.cls-35{fill:url(#linear-gradient-24);}.cls-36{fill:url(#linear-gradient-25);}.cls-37{fill:url(#linear-gradient-26);}.cls-38{fill:url(#linear-gradient-27);}.cls-39{fill:url(#linear-gradient-28);}.cls-40{fill:url(#linear-gradient-29);}.cls-41{fill:url(#linear-gradient-30);}.cls-42{fill:url(#linear-gradient-31);}.cls-43{fill:url(#linear-gradient-32);}.cls-44{fill:url(#linear-gradient-33);}.cls-45{fill:url(#linear-gradient-34);}.cls-46{fill:url(#linear-gradient-35);}.cls-47{fill:url(#linear-gradient-36);}.cls-48{fill:url(#linear-gradient-37);}.cls-49{fill:url(#linear-gradient-38);}.cls-50{fill:url(#linear-gradient-39);}.cls-51{fill:url(#linear-gradient-40);}.cls-52{fill:url(#linear-gradient-41);}.cls-53{fill:#772442;}.cls-54{fill:url(#linear-gradient-42);}.cls-55{fill:url(#linear-gradient-43);}.cls-56{fill:url(#linear-gradient-44);}.cls-57{fill:url(#linear-gradient-45);}.cls-58{fill:url(#linear-gradient-46);}.cls-59{fill:url(#linear-gradient-47);}.cls-60{fill:url(#linear-gradient-48);}.cls-61{fill:url(#linear-gradient-49);}.cls-62{fill:url(#linear-gradient-50);}.cls-63,.cls-65{fill:#ffe8e3;}.cls-64{fill:url(#linear-gradient-51);}.cls-66{fill:url(#linear-gradient-52);}.cls-67{fill:url(#linear-gradient-53);}.cls-68{fill:url(#linear-gradient-54);}.cls-69{fill:url(#linear-gradient-55);}.cls-70,.cls-73{fill:#261019;}.cls-70{opacity:0.43;}.cls-71{fill:#dbcbc8;}.cls-72{fill:#9e8b88;}.cls-73{opacity:0.7;}.cls-74{fill:url(#linear-gradient-56);}.cls-75{fill:url(#linear-gradient-57);}.cls-76{fill:#d33200;}.cls-77{fill:#ff6f48;}.cls-78{fill:url(#linear-gradient-58);}.cls-79{fill:url(#linear-gradient-59);}.cls-80{fill:url(#linear-gradient-60);}.cls-81{fill:url(#linear-gradient-61);}.cls-82{fill:url(#linear-gradient-62);}.cls-83{fill:url(#linear-gradient-63);}.cls-84{fill:url(#linear-gradient-64);}.cls-85{fill:url(#linear-gradient-65);}.cls-86{fill:url(#linear-gradient-66);}.cls-87{fill:url(#linear-gradient-67);}.cls-88{fill:url(#linear-gradient-68);}.cls-89{fill:url(#linear-gradient-69);}.cls-90{fill:url(#linear-gradient-70);}.cls-91{fill:url(#linear-gradient-71);}.cls-92{fill:url(#linear-gradient-72);}.cls-93{fill:url(#linear-gradient-73);}.cls-94{fill:url(#linear-gradient-74);}.cls-95{fill:url(#linear-gradient-75);}.cls-96{fill:url(#linear-gradient-76);}.cls-97{fill:url(#linear-gradient-77);}.cls-98{fill:url(#linear-gradient-78);}.cls-99{fill:url(#linear-gradient-79);}.cls-100{fill:#e87f6f;}.cls-101{fill:#e8706f;}</style><linearGradient id="linear-gradient" x1="130.75" y1="71.86" x2="248.48" y2="71.86" gradientTransform="matrix(1, 0, 0, -1, 0, 340.76)" gradientUnits="userSpaceOnUse"><stop offset="0.22" stop-color="#e0aebd"/><stop offset="1" stop-color="#dbeae3"/></linearGradient><linearGradient id="linear-gradient-2" x1="140.12" y1="152.41" x2="140.12" y2="171.56" gradientTransform="matrix(1, -0.02, -0.02, -1, 52.72, 426.28)" xlink:href="#linear-gradient"/><linearGradient id="linear-gradient-3" x1="139.91" y1="154.02" x2="139.91" y2="170.45" gradientTransform="matrix(1, -0.02, -0.02, -1, 52.72, 426.28)" gradientUnits="userSpaceOnUse"><stop offset="0" stop-color="#da5036"/><stop offset="1" stop-color="#ea6f3a"/></linearGradient><linearGradient id="linear-gradient-4" x1="1061.82" y1="77.7" x2="1125.09" y2="77.7" xlink:href="#linear-gradient"/><linearGradient id="linear-gradient-5" x1="1088.99" y1="100.32" x2="1120.08" y2="12.17" gradientTransform="matrix(1, 0, 0, -1, 0, 340.76)" gradientUnits="userSpaceOnUse"><stop offset="0" stop-color="#a23776"/><stop offset="1" stop-color="#fff"/></linearGradient><linearGradient id="linear-gradient-6" x1="1060.85" y1="145.58" x2="1114.67" y2="145.58" gradientTransform="matrix(0.99, 0, 0.04, -1, 6.17, 358.66)" gradientUnits="userSpaceOnUse"><stop offset="0" stop-color="#ffedee"/><stop offset="1" stop-color="#ffeab8"/></linearGradient><linearGradient id="linear-gradient-7" x1="1066.61" y1="870.78" x2="1066.39" y2="876.83" gradientTransform="matrix(0.86, -0.5, -0.5, -0.86, 646.27, 1400.15)" gradientUnits="userSpaceOnUse"><stop offset="0" stop-color="#b86600"/><stop offset="1" stop-color="#b88f00"/></linearGradient><linearGradient id="linear-gradient-8" x1="1068.87" y1="884.45" x2="1123.46" y2="884.45" xlink:href="#linear-gradient-7"/><linearGradient id="linear-gradient-9" x1="1068.89" y1="885.07" x2="1123.45" y2="885.07" gradientTransform="matrix(0.86, -0.5, -0.5, -0.86, 646.27, 1400.15)" gradientUnits="userSpaceOnUse"><stop offset="0" stop-color="#685e5e"/><stop offset="1" stop-color="#b59945"/></linearGradient><linearGradient id="linear-gradient-10" x1="1068.89" y1="883.03" x2="1123.45" y2="883.03" xlink:href="#linear-gradient-7"/><linearGradient id="linear-gradient-11" x1="1083.43" y1="866.04" x2="1074.44" y2="899.19" xlink:href="#linear-gradient-7"/><linearGradient id="linear-gradient-12" x1="1068.89" y1="884.73" x2="1123.45" y2="884.73" xlink:href="#linear-gradient-9"/><linearGradient id="linear-gradient-13" x1="1096.76" y1="860.78" x2="1096.13" y2="877.55" xlink:href="#linear-gradient-7"/><linearGradient id="linear-gradient-14" x1="1068.8" y1="878.65" x2="1123.37" y2="878.65" gradientTransform="matrix(0.86, -0.5, -0.5, -0.86, 646.27, 1400.15)" gradientUnits="userSpaceOnUse"><stop offset="0" stop-color="#965300"/><stop offset="1" stop-color="#b86500"/></linearGradient><linearGradient id="linear-gradient-15" x1="1249.89" y1="1123.09" x2="1249.78" y2="1126.11" gradientTransform="matrix(0.44, -0.9, -0.9, -0.44, 1580.17, 1691.64)" gradientUnits="userSpaceOnUse"><stop offset="0" stop-color="#c28200"/><stop offset="1" stop-color="#841f00"/></linearGradient><linearGradient id="linear-gradient-16" x1="1251.01" y1="1129.98" x2="1278.29" y2="1129.98" xlink:href="#linear-gradient-15"/><linearGradient id="linear-gradient-17" x1="1251.04" y1="1130.3" x2="1278.32" y2="1130.3" xlink:href="#linear-gradient-15"/><linearGradient id="linear-gradient-18" x1="1251.04" y1="1129.25" x2="1278.32" y2="1129.25" xlink:href="#linear-gradient-15"/><linearGradient id="linear-gradient-19" x1="1258.31" y1="1120.72" x2="1253.81" y2="1137.29" xlink:href="#linear-gradient-15"/><linearGradient id="linear-gradient-20" x1="1251.04" y1="1130.1" x2="1278.32" y2="1130.1" xlink:href="#linear-gradient-15"/><linearGradient id="linear-gradient-21" x1="1264.97" y1="1118.09" x2="1264.65" y2="1126.47" xlink:href="#linear-gradient-15"/><linearGradient id="linear-gradient-22" x1="1113.21" y1="271.82" x2="1124.1" y2="271.82" gradientTransform="matrix(1, 0, 0, -1, 0, 340.76)" xlink:href="#linear-gradient-15"/><linearGradient id="linear-gradient-23" x1="1250.98" y1="1127.09" x2="1278.27" y2="1127.09" xlink:href="#linear-gradient-15"/><linearGradient id="linear-gradient-24" x1="1865.54" y1="442.36" x2="1865.31" y2="448.41" gradientTransform="translate(2343 1499.1) rotate(-143.93)" xlink:href="#linear-gradient-7"/><linearGradient id="linear-gradient-25" x1="1870.89" y1="453.64" x2="1925.45" y2="453.64" gradientTransform="translate(2343 1499.1) rotate(-143.93)" xlink:href="#linear-gradient-7"/><linearGradient id="linear-gradient-26" x1="1870.89" y1="454.28" x2="1925.45" y2="454.28" gradientTransform="translate(2343 1499.1) rotate(-143.93)" xlink:href="#linear-gradient-9"/><linearGradient id="linear-gradient-27" x1="1870.89" y1="452.19" x2="1925.45" y2="452.19" gradientTransform="translate(2343 1499.1) rotate(-143.93)" xlink:href="#linear-gradient-7"/><linearGradient id="linear-gradient-28" x1="1881.98" y1="436.81" x2="1872.99" y2="469.96" gradientTransform="translate(2343 1499.1) rotate(-143.93)" xlink:href="#linear-gradient-7"/><linearGradient id="linear-gradient-29" x1="1870.89" y1="453.92" x2="1925.45" y2="453.92" gradientTransform="translate(2343 1499.1) rotate(-143.93)" xlink:href="#linear-gradient-9"/><linearGradient id="linear-gradient-30" x1="1895.56" y1="432.36" x2="1894.94" y2="449.13" gradientTransform="translate(2343 1499.1) rotate(-143.93)" xlink:href="#linear-gradient-7"/><linearGradient id="linear-gradient-31" x1="1870.82" y1="447.84" x2="1925.38" y2="447.84" gradientTransform="translate(2343 1499.1) rotate(-143.93)" xlink:href="#linear-gradient-14"/><linearGradient id="linear-gradient-32" x1="1066.19" y1="120.58" x2="1087.17" y2="292.69" gradientTransform="matrix(1, 0, 0, -1, 0, 340.76)" gradientUnits="userSpaceOnUse"><stop offset="0.01" stop-color="#793636"/><stop offset="0.98" stop-color="#926821"/></linearGradient><linearGradient id="linear-gradient-33" x1="1867.65" y1="601.19" x2="1867.54" y2="604.21" gradientTransform="translate(2817.4 1029.4) rotate(-172.52)" xlink:href="#linear-gradient-15"/><linearGradient id="linear-gradient-34" x1="1867.56" y1="615.15" x2="1894.84" y2="615.15" gradientTransform="translate(2817.4 1029.4) rotate(-172.52)" xlink:href="#linear-gradient-15"/><linearGradient id="linear-gradient-35" x1="1867.56" y1="615.49" x2="1894.84" y2="615.49" gradientTransform="translate(2817.4 1029.4) rotate(-172.52)" xlink:href="#linear-gradient-15"/><linearGradient id="linear-gradient-36" x1="1867.56" y1="614.52" x2="1894.84" y2="614.52" gradientTransform="translate(2817.4 1029.4) rotate(-172.52)" xlink:href="#linear-gradient-15"/><linearGradient id="linear-gradient-37" x1="1877.57" y1="599.52" x2="1873.07" y2="616.09" gradientTransform="translate(2817.4 1029.4) rotate(-172.52)" xlink:href="#linear-gradient-15"/><linearGradient id="linear-gradient-38" x1="1867.56" y1="615.32" x2="1894.84" y2="615.32" gradientTransform="translate(2817.4 1029.4) rotate(-172.52)" xlink:href="#linear-gradient-15"/><linearGradient id="linear-gradient-39" x1="1882.74" y1="596.19" x2="1882.43" y2="604.57" gradientTransform="translate(2817.4 1029.4) rotate(-172.52)" xlink:href="#linear-gradient-15"/><linearGradient id="linear-gradient-40" x1="1853.5" y1="600.32" x2="1864.39" y2="600.32" gradientTransform="translate(2563.49 -1035.4) rotate(123.53)" xlink:href="#linear-gradient-15"/><linearGradient id="linear-gradient-41" x1="1867.53" y1="612.3" x2="1894.81" y2="612.3" gradientTransform="translate(2817.4 1029.4) rotate(-172.52)" xlink:href="#linear-gradient-15"/><linearGradient id="linear-gradient-42" x1="990.83" y1="335.31" x2="990.55" y2="342.91" gradientTransform="matrix(0.95, 0.3, 0.3, -0.95, -28.49, 344.74)" xlink:href="#linear-gradient-7"/><linearGradient id="linear-gradient-43" x1="993.68" y1="352.25" x2="1062.19" y2="352.25" gradientTransform="matrix(0.95, 0.3, 0.3, -0.95, -28.49, 344.74)" xlink:href="#linear-gradient-7"/><linearGradient id="linear-gradient-44" x1="993.67" y1="353.03" x2="1062.2" y2="353.03" gradientTransform="matrix(0.95, 0.3, 0.3, -0.95, -28.49, 344.74)" xlink:href="#linear-gradient-9"/><linearGradient id="linear-gradient-45" x1="993.67" y1="350.45" x2="1062.2" y2="350.45" gradientTransform="matrix(0.95, 0.3, 0.3, -0.95, -28.49, 344.74)" xlink:href="#linear-gradient-7"/><linearGradient id="linear-gradient-46" x1="1011.9" y1="329.36" x2="1000.61" y2="370.98" gradientTransform="matrix(0.95, 0.3, 0.3, -0.95, -28.49, 344.74)" xlink:href="#linear-gradient-7"/><linearGradient id="linear-gradient-47" x1="993.67" y1="352.61" x2="1062.2" y2="352.61" gradientTransform="matrix(0.95, 0.3, 0.3, -0.95, -28.49, 344.74)" xlink:href="#linear-gradient-9"/><linearGradient id="linear-gradient-48" x1="1028.67" y1="322.75" x2="1027.89" y2="343.81" gradientTransform="matrix(0.95, 0.3, 0.3, -0.95, -28.49, 344.74)" xlink:href="#linear-gradient-7"/><linearGradient id="linear-gradient-49" x1="993.59" y1="344.96" x2="1062.11" y2="344.96" gradientTransform="matrix(0.95, 0.3, 0.3, -0.95, -28.49, 344.74)" xlink:href="#linear-gradient-14"/><linearGradient id="linear-gradient-50" x1="-589.36" y1="10683.16" x2="-615.67" y2="10683.16" gradientTransform="matrix(0, -1, -1, 0, 11843.23, -301.91)" gradientUnits="userSpaceOnUse"><stop offset="0" stop-color="#32c8b9"/><stop offset="1" stop-color="#2d2c6b"/></linearGradient><linearGradient id="linear-gradient-51" x1="1117.84" y1="35.63" x2="1137.07" y2="35.63" gradientTransform="matrix(1, 0, 0, -1, 0, 340.76)" gradientUnits="userSpaceOnUse"><stop offset="0" stop-color="#325eb9"/><stop offset="1" stop-color="#26224f"/></linearGradient><linearGradient id="linear-gradient-52" x1="1161.68" y1="56.64" x2="1159.39" y2="30.34" gradientTransform="matrix(1, 0, 0, -1, 0, 340.76)" gradientUnits="userSpaceOnUse"><stop offset="0" stop-color="#325eb9"/><stop offset="1" stop-color="#2d2c6b"/></linearGradient><linearGradient id="linear-gradient-53" x1="1145.52" y1="58.32" x2="1143.57" y2="36.02" xlink:href="#linear-gradient-52"/><linearGradient id="linear-gradient-54" x1="1152.04" y1="54.87" x2="1151.21" y2="45.33" xlink:href="#linear-gradient-52"/><linearGradient id="linear-gradient-55" x1="1166.36" y1="-5.41" x2="1166.36" y2="74.27" gradientTransform="matrix(1, 0, 0, -1, 0, 340.76)" gradientUnits="userSpaceOnUse"><stop offset="0.27" stop-color="#a16152"/><stop offset="1" stop-color="#ffca63"/></linearGradient><linearGradient id="linear-gradient-56" x1="2909.6" y1="9782.16" x2="2909.6" y2="9837.78" gradientTransform="translate(-1509.38 -9660.03) rotate(3.43)" gradientUnits="userSpaceOnUse"><stop offset="0" stop-color="#074c7f"/><stop offset="1" stop-color="#9dc682"/></linearGradient><linearGradient id="linear-gradient-57" x1="2951.56" y1="9813.16" x2="2951.56" y2="9782.77" xlink:href="#linear-gradient-56"/><linearGradient id="linear-gradient-58" x1="2931.7" y1="9775.62" x2="2911.31" y2="9775.62" xlink:href="#linear-gradient-56"/><linearGradient id="linear-gradient-59" x1="2885.51" y1="9773.38" x2="2921.67" y2="9776.47" xlink:href="#linear-gradient-56"/><linearGradient id="linear-gradient-60" x1="73.66" y1="111.09" x2="96.5" y2="111.09" gradientTransform="matrix(1, 0, 0, -1, 0, 340.76)" gradientUnits="userSpaceOnUse"><stop offset="0.02" stop-color="#a12e22"/><stop offset="0.99" stop-color="#791d36"/></linearGradient><linearGradient id="linear-gradient-61" x1="568.58" y1="489.67" x2="568.58" y2="543.15" gradientTransform="translate(678.67 -306.8) rotate(95.77)" gradientUnits="userSpaceOnUse"><stop offset="0" stop-color="#ea6f3a"/><stop offset="1" stop-color="#da5036"/></linearGradient><linearGradient id="linear-gradient-62" x1="572.86" y1="489.67" x2="572.86" y2="541.52" gradientTransform="translate(678.67 -306.8) rotate(95.77)" xlink:href="#linear-gradient-60"/><linearGradient id="linear-gradient-63" x1="606.47" y1="491.4" x2="606.47" y2="543.15" xlink:href="#linear-gradient-61"/><linearGradient id="linear-gradient-64" x1="610.75" y1="491.4" x2="610.75" y2="541.51" gradientTransform="translate(678.67 -306.8) rotate(95.77)" xlink:href="#linear-gradient-60"/><linearGradient id="linear-gradient-65" x1="2155.31" y1="1724.82" x2="2155.31" y2="1764.44" gradientTransform="translate(1436.77 -2197.37) rotate(79.59)" xlink:href="#linear-gradient-61"/><linearGradient id="linear-gradient-66" x1="2161.56" y1="1725.05" x2="2161.56" y2="1762.62" gradientTransform="translate(1436.77 -2197.37) rotate(79.59)" xlink:href="#linear-gradient-60"/><linearGradient id="linear-gradient-67" x1="108.92" y1="49.6" x2="108.92" y2="55.77" gradientTransform="matrix(1, 0, 0, -1, 0, 340.76)" xlink:href="#linear-gradient-61"/><linearGradient id="linear-gradient-68" x1="646.45" y1="487.49" x2="646.45" y2="537.71" xlink:href="#linear-gradient-61"/><linearGradient id="linear-gradient-69" x1="104.74" y1="47.84" x2="104.74" y2="60.03" xlink:href="#linear-gradient-60"/><linearGradient id="linear-gradient-70" x1="598.36" y1="540.96" x2="657.96" y2="540.96" gradientTransform="translate(678.67 -306.8) rotate(95.77)" xlink:href="#linear-gradient-60"/><linearGradient id="linear-gradient-71" x1="81.4" y1="77.96" x2="85.22" y2="77.96" gradientTransform="matrix(1, 0, 0, -1, 0, 340.76)" xlink:href="#linear-gradient-61"/><linearGradient id="linear-gradient-72" x1="68.42" y1="103.63" x2="90.42" y2="103.63" gradientTransform="matrix(1, 0, 0, -1, 0, 340.76)" gradientUnits="userSpaceOnUse"><stop offset="0.01" stop-color="#ff9245"/><stop offset="1" stop-color="#ef614f"/></linearGradient><linearGradient id="linear-gradient-73" x1="75.34" y1="140.44" x2="86.87" y2="140.44" gradientTransform="matrix(1, 0, 0, -1, 0, 340.76)" xlink:href="#linear-gradient-61"/><linearGradient id="linear-gradient-74" x1="78.77" y1="112.05" x2="89.81" y2="112.05" gradientTransform="matrix(1, 0, 0, -1, 0, 340.76)" xlink:href="#linear-gradient-61"/><linearGradient id="linear-gradient-75" x1="232.15" y1="43.01" x2="232.15" y2="53.65" gradientTransform="matrix(1, 0, 0, -1, 0, 340.76)" gradientUnits="userSpaceOnUse"><stop offset="0.01" stop-color="#fb6b4f"/><stop offset="0.98" stop-color="#ff9c21"/></linearGradient><linearGradient id="linear-gradient-76" x1="253.82" y1="40.06" x2="253.82" y2="45.53" xlink:href="#linear-gradient-75"/><linearGradient id="linear-gradient-77" x1="276.61" y1="63.41" x2="276.61" y2="65.31" xlink:href="#linear-gradient-75"/><linearGradient id="linear-gradient-78" x1="1.66" y1="73.01" x2="1.66" y2="74.91" xlink:href="#linear-gradient-75"/><linearGradient id="linear-gradient-79" x1="284.13" y1="48.46" x2="284.13" y2="51.07" xlink:href="#linear-gradient-75"/></defs><g id="Layer_2" data-name="Layer 2"><g id="Layer_1-2" data-name="Layer 1"><g id="Layer_2-2" data-name="Layer 2"><g id="Garbage"><path class="cls-1" d="M248.48,276.37s-54.81,10.28-74.74,10.53-29.75.51-29.75.51-22.13-17.57-23.34-20.34l-1.22-2.77s32.69-6.17,37.67-5.56S248.48,276.37,248.48,276.37Z"/><path class="cls-2" d="M248.48,276.37s-57.06,6.82-70.59,7h-2.45c-7.05-.47-42.85-21.2-42.85-21.2-.49-2-1.84-7.74-1.84-7.74L203.9,266.8l43,1.44C247.38,271.17,248.48,276.37,248.48,276.37Z"/><path class="cls-3" d="M248.48,276.37s-57.06,6.82-70.59,7h-1.51c.81-3,1.44-12.81,1.44-12.81l26.08-3.79,43,1.44C247.38,271.17,248.48,276.37,248.48,276.37Z"/><path class="cls-4" d="M130.75,254.43c-1.68.72,44.92,16.29,48.24,16.22,14-.32,66.9-1.43,67.87-2.4s-44.32-17.3-61.21-16.88C164.71,251.89,133.49,253.26,130.75,254.43Z"/><path class="cls-5" d="M135.51,254.85c-1.06.48,40.07,13.93,42.19,13.88,8.9-.2,63.32-.78,63.94-1.44s-43.8-15.09-54.54-14.82C173.79,252.8,137.25,254.05,135.51,254.85Z"/><polygon class="cls-6" points="131.85 258.51 177.3 276.97 247.5 273.15 243.84 273.88 202.92 276.97 194.8 278.27 177.96 279 177.03 279.44 167.62 274.35 160.84 272.92 131.85 258.51 131.85 258.51"/><path class="cls-3" d="M165.79,261c2.74,3.38,13.88,6.06,24.84,6s17.49-2.85,14.78-6.19-13.72-6-24.64-6S163.05,257.61,165.79,261Z"/><polygon class="cls-3" points="160.84 272.92 163.76 278.91 168.04 280.88 167.62 274.35 160.84 272.92"/><polygon class="cls-3" points="156.27 270.65 154.59 274.29 138.65 265.62 145.43 265.26 156.27 270.65"/><path class="cls-7" d="M177.82,270.59s66.94-.65,69-2.34A201.9,201.9,0,0,0,193,251.92l-8.48,6.59-.79,8.17,1.05.79Z"/><path class="cls-1" d="M69.15,297.37c-13.8-26.93-12.53-54.84-12.53-54.84h70.3l3.06,2.88L84.6,255l-3.2,30.89,43.8,4.61,3.41,2.44s-27.3.23-45.21-.07v2.33Z"/><g id="Layer_2-2-2" data-name="Layer 2-2"><g id="Leave_Pot_Behnid_the_charachters_rock" data-name="Leave Pot Behnid the charachters rock"><ellipse class="cls-8" cx="1078.62" cy="313.65" rx="171.94" ry="12.12"/><ellipse class="cls-9" cx="1077.14" cy="315.01" rx="38.68" ry="2.73"/><path class="cls-10" d="M801.61,327.55c-5.19,3.51,39.13,11.24,49.25,9.86s43.26-9,44.18-13.74S825.09,311.74,801.61,327.55Z"/><path class="cls-10" d="M938.43,363c1.06-3.75,13.35,2.31,13.35,2.31S937.06,368,938.43,363Z"/><path class="cls-10" d="M818.81,339.32c12-.4,35.09-6.94,35.13-9.53,0-3.59-50.36-.92-59.51,1.68C781.72,335.12,815.15,339.44,818.81,339.32Z"/><path class="cls-11" d="M1132.3,327.49s28.39-3.33,40.13,0C1159.85,332.26,1144.48,332.48,1132.3,327.49Z"/><path class="cls-11" d="M917.62,384.74h30.1l14.75,5.92S934.79,390.66,917.62,384.74Z"/><path class="cls-12" d="M857.55,289.74c-4.12-1.29-2.28,8.13-1.15,8.77C857.36,298.67,858.8,293.17,857.55,289.74Z"/><path class="cls-13" d="M1160.89,317.91s3.86-1.72,5.71-.79C1166.6,317.12,1163.61,317.66,1160.89,317.91Z"/><path class="cls-14" d="M1065.78,214.25s-15.25,49.08,14.14,99.95l30.94-.56s25.59-47,8.14-101.72Z"/><path class="cls-15" d="M1123.72,232.65a63.86,63.86,0,0,1-6.5,19.91,88.74,88.74,0,0,1-14.5,20.11c-5.65,5.9-12.26,11.18-19.8,14.43a41,41,0,0,1-13.25,3.26h-.54a133.29,133.29,0,0,0,10.83,23.8l30.94-.56S1130.25,278,1123.72,232.65Z"/><ellipse class="cls-16" cx="1092.49" cy="213.08" rx="26.71" ry="1.91" transform="translate(-7.79 44.78) rotate(-2.34)"/><path class="cls-17" d="M1132.64,103.43s-7,2-6.88,8l1.78,1,.28-.76.55.8.66-.38s-1.85-3.63,4.11-7.81Z"/><path class="cls-18" d="M1131.06,105.76s-2.62-16.63,9.43-24.22c-1.12,3.7.14,5,.14,5s1.58-8.35,17.48-13.19c0,0-5,3.68-5.28,6.51,0,0,11.27-8.71,23.06-5.6Z"/><path class="cls-19" d="M1163.6,74.65a35.11,35.11,0,0,0-10.77,5.25c.31-2.83,5.28-6.51,5.28-6.51a42.37,42.37,0,0,0-8,3.3,60.2,60.2,0,0,0-.8,6.81c-.21,3-.31,6.13-.32,9.19v.51l13.73-9.63C1163.15,80.62,1163.39,77.64,1163.6,74.65Z"/><path class="cls-20" d="M1165.67,81.47l10.22-7.17a22.26,22.26,0,0,0-9.54-.28C1166.15,76.51,1166,79,1165.67,81.47Z"/><path class="cls-21" d="M1139.52,82.19c-10.93,7.86-8.46,23.57-8.46,23.57l9.82-6.89A75.83,75.83,0,0,1,1139.52,82.19Z"/><path class="cls-22" d="M1143.3,97.17l3-2.1v-.44a97.71,97.71,0,0,1,.77-15.85v-.23a19.66,19.66,0,0,0-4.87,4.8A72.74,72.74,0,0,0,1143.3,97.17Z"/><path class="cls-23" d="M1131,105.8s14.73,8.12,26-.61c-3.86-.21-4.69-1.86-4.69-1.86s8.39,1.37,18.36-11.93c0,0-5.16,3.42-7.92,2.75,0,0,12-7.63,13.12-19.78Z"/><path class="cls-24" d="M1144.89,96.06l-12.59,8.82c3.23,1.42,7.14,1.66,10.51,1.83a45.38,45.38,0,0,0,7.28,0,33.32,33.32,0,0,0,6.52-1.5c-3.54-.29-4.32-1.83-4.32-1.83s3.84.62,9.42-3.1A46,46,0,0,1,1144.89,96.06Z"/><path class="cls-25" d="M1131,105.8s22.66-18.67,44.85-31.43C1175.85,74.37,1135.15,104.05,1131,105.8Z"/><path class="cls-26" d="M1113,73.31s-2.34,2.75-.62,5.24l1-.08-.1-.39.45.18.17-.35s-1.78-1-.48-4.38Z"/><path class="cls-27" d="M1112.94,74.72s-5.73-6.16-2.86-12.68c.56,1.85,1.46,2,1.46,2s-1.68-3.9,3.56-10.35c0,0-1,2.91-.37,4.17,0,0,2.24-6.76,8-8.77Z"/><path class="cls-28" d="M1117.73,52.72a17.29,17.29,0,0,0-3,5.19c-.66-1.26.37-4.17.37-4.17a20.64,20.64,0,0,0-2.41,3.61,31.34,31.34,0,0,0,1.57,3c.77,1.32,1.59,2.63,2.44,3.9l.15.21,3-7.83C1119.15,55.33,1118.48,54,1117.73,52.72Z"/><path class="cls-29" d="M1120.5,55l2.22-5.83a11.3,11.3,0,0,0-4,2.55C1119.32,52.77,1119.92,53.86,1120.5,55Z"/><path class="cls-30" d="M1109.86,62.58c-2.34,6.32,3.08,12.14,3.08,12.14l2.14-5.6A37.39,37.39,0,0,1,1109.86,62.58Z"/><path class="cls-31" d="M1115.61,67.74l.66-1.71-.14-.18a48.18,48.18,0,0,1-4.11-6.78.2.2,0,0,1,0-.11,9.46,9.46,0,0,0-.68,3.36A36.63,36.63,0,0,0,1115.61,67.74Z"/><path class="cls-32" d="M1112.92,74.75s8.39-.75,10.6-7.52c-1.65,1-2.46.55-2.46.55s3.86-1.79,4.27-10.09c0,0-1.18,2.86-2.51,3.36,0,0,2.85-6.53-.09-11.87Z"/><path class="cls-33" d="M1116,66.83,1113.21,74a15.09,15.09,0,0,0,4.86-2.18,22.47,22.47,0,0,0,3-2.06,16.07,16.07,0,0,0,2.28-2.45c-1.54.87-2.3.46-2.3.46s1.77-.82,3-3.92A23.29,23.29,0,0,1,1116,66.83Z"/><path class="cls-34" d="M1112.92,74.75a193.39,193.39,0,0,1,9.81-25.57S1114.15,72.87,1112.92,74.75Z"/><path class="cls-35" d="M1091.57,33.68s6.72,2.66,6,8.66l-1.88.82-.2-.79-.63.75-.61-.45s2.21-3.42-3.3-8.19Z"/><path class="cls-36" d="M1092.91,36.15s4.31-16.26-6.9-25.06c.74,3.8-.65,5-.65,5s-.72-8.47-16-14.92c0,0,4.57,4.18,4.59,7,0,0-10.32-9.82-22.37-7.93Z"/><path class="cls-37" d="M1063.73,1.88a35.31,35.31,0,0,1,10.18,6.32c0-2.84-4.59-7-4.59-7A43.45,43.45,0,0,1,1077,5.29a68.07,68.07,0,0,1,.1,6.85c-.1,3.06-.32,6.14-.63,9.19a1.73,1.73,0,0,1,0,.5l-12.67-11C1063.61,7.86,1063.63,4.87,1063.73,1.88Z"/><path class="cls-38" d="M1061,8.45,1051.54.27a22,22,0,0,1,9.53.7C1061,3.46,1060.93,6,1061,8.45Z"/><path class="cls-39" d="M1086.91,11.85c10.07,8.93,6,24.3,6,24.3l-9.06-7.85A76,76,0,0,0,1086.91,11.85Z"/><path class="cls-40" d="M1081.62,26.36l-2.77-2.4a.93.93,0,0,1,.07-.43,100,100,0,0,0,.87-15.85.88.88,0,0,1,0-.23,19.88,19.88,0,0,1,4.35,5.27A74.31,74.31,0,0,1,1081.62,26.36Z"/><path class="cls-41" d="M1093,36.2s-15.49,6.57-25.78-3.27c3.86.19,4.85-1.36,4.85-1.36s-8.48.49-17-13.76c0,0,4.79,3.93,7.6,3.55,0,0-11.18-8.82-11-21Z"/><path class="cls-24" d="M1080.15,25.09l11.62,10.07c-3.36,1.08-7.28.92-10.64.73a45.17,45.17,0,0,1-7.24-.79,33.52,33.52,0,0,1-6.33-2.16c3.55.07,4.48-1.37,4.48-1.37s-3.88.22-9-4.05A46.27,46.27,0,0,0,1080.15,25.09Z"/><path class="cls-42" d="M1093,36.2S1072.34,15.31,1051.58.34C1051.58.34,1089,34,1093,36.2Z"/><path class="cls-43" d="M1082.72,213.74l13.34-.94s-2.3-5.51-1.15-9c4.33-2.81,1-3.29,1-3.29l1.07-3s-1.43-2.8-1.07-10.23,2.12-16.84,8.75-21.93c6.63-5.27,22.31-25.53,24.34-53.17l-.68-2.87-1.62,2.46a37.94,37.94,0,0,1-2.25,12.79c-2.44,6.58-6.61,24.94-22,38.71-1.12-2.63,1-11.83,2.54-17s3.66-22.79,3.66-22.79-4-10-4.64-17.09,7.27-25.34,11-27.71a68.46,68.46,0,0,0,6-4.18s-3.57-1.53-4.14-1a24,24,0,0,0-6.39,8.08c-2.63,5.24-6.39,6.13-9.2,27.76,1.51,7.88,3,2.06,2.81,11.57s4,5.46-2.63,33.32l-4.31,9s-4.14-13.83-3.2-25.86-6.24-28-6.24-28,5.65-38.54,13.34-49.93c7.51-11.82,12-17.08,12-17.08s-2.46-3.24-2.8-2.69-7.31,14.9-11.37,19c1-15.22-2-19.19-5.26-23.6,2.28,10.28,5.52,11.78,2.52,27s-12.57,39.12-12.28,51.9c5.37,12.21,7.73,26.37,7.06,29.28s.27,18.38,0,27.24-.77,9.18-.77,9.18-14,5.83-25.06,3.39-43,4.58-44.71,5.12l2.82,2.22s24.24-7.89,41.72-5.82c18.79,2.63,23.93,1.22,23.93,1.22S1082.39,207.89,1082.72,213.74Z"/><path class="cls-44" d="M1045.82,180.77s3.59-.43,4.71,2.38l-.64.81-.27-.3-.1.47h-.38s.17-2-3.39-2.82Z"/><path class="cls-45" d="M1047,181.54s-2-8.19-9-9.4c1.23,1.49.9,2.35.9,2.35s-2.32-3.56-10.59-2.77c0,0,3,.76,3.68,2,0,0-6.87-1.88-11.73,1.8Z"/><path class="cls-46" d="M1026,173.35a17.55,17.55,0,0,1,6,.38c-.68-1.25-3.68-2-3.68-2a21,21,0,0,1,4.34,0,31.39,31.39,0,0,1,1.67,3c.68,1.37,1.31,2.78,1.9,4.19l.09.24-8.18-1.84C1027.39,176,1026.69,174.69,1026,173.35Z"/><path class="cls-47" d="M1026.37,176.9l-6.09-1.37a11,11,0,0,1,4.36-1.95C1025.19,174.7,1025.76,175.81,1026.37,176.9Z"/><path class="cls-48" d="M1038.57,172.25c6.55,1.55,8.4,9.29,8.4,9.29l-5.85-1.32A38.36,38.36,0,0,0,1038.57,172.25Z"/><path class="cls-49" d="M1039.7,179.9l-1.78-.4-.08-.21a48.53,48.53,0,0,0-3.37-7.19.41.41,0,0,1,0-.09,9.58,9.58,0,0,1,3.16,1.29A35.27,35.27,0,0,1,1039.7,179.9Z"/><path class="cls-50" d="M1047,181.54s-5.26,6.57-12.13,4.67c1.75-.83,1.82-1.75,1.82-1.75s-3.62,2.23-10.76-2c0,0,3,.59,4.18-.24,0,0-7-1.24-9.83-6.65Z"/><path class="cls-51" d="M1038.75,179.69l7.51,1.68a15.36,15.36,0,0,1-4.51,2.84,22,22,0,0,1-3.38,1.37,16.71,16.71,0,0,1-3.3.54c1.58-.8,1.65-1.66,1.65-1.66s-1.66,1-5,.36A23.11,23.11,0,0,0,1038.75,179.69Z"/><path class="cls-52" d="M1047,181.54a192.15,192.15,0,0,0-26.72-6S1044.79,181.52,1047,181.54Z"/><path class="cls-53" d="M1091,344.85c0,.62-21.89,1.69-35.65,1.69s-35.8-1.07-35.8-1.69,22-.54,35.8-.54S1091,344.24,1091,344.85Z"/><path class="cls-54" d="M1025.65,320.5s-7.68-4.83-13.26.33l.57,2.51,1-.38-.29,1.19.91.29s1.82-4.78,10.74-2.75Z"/><path class="cls-55" d="M1022.15,321s13.27-16.45,30.49-11.64c-4.39,2.07-4.57,4.38-4.57,4.38s9.1-5.57,27,5.15c0,0-7.62-1.52-10.51.57,0,0,17.61,3.15,24.65,16.75Z"/><path class="cls-56" d="M1078.54,325.05a44.32,44.32,0,0,0-14-5.61c2.89-2.09,10.51-.57,10.51-.57a53.52,53.52,0,0,0-9.84-4.7,80.13,80.13,0,0,0-7,5c-3,2.38-6,4.89-8.83,7.46l-.47.43,20.54,4.66C1072.57,329.61,1075.58,327.37,1078.54,325.05Z"/><path class="cls-57" d="M1073.94,332.74l15.28,3.46a27.77,27.77,0,0,0-7.78-9.12C1079,329,1076.49,330.91,1073.94,332.74Z"/><path class="cls-58" d="M1051.22,309c-16.53-3.55-29.07,12-29.07,12l14.68,3.33A96.27,96.27,0,0,1,1051.22,309Z"/><path class="cls-59" d="M1040.45,325.13l4.49,1,.39-.39a125.31,125.31,0,0,1,15.4-12.66l.24-.15a24.76,24.76,0,0,0-8.58-.49A93.07,93.07,0,0,0,1040.45,325.13Z"/><path class="cls-60" d="M1022.06,321s4.86,20.57,22.48,23.67c-3.07-3.77-2.24-5.93-2.24-5.93s5.81,9,26.59,7c0,0-7.53-1.93-9.23-5.06,0,0,17.23,4.76,29.46-4.46Z"/><path class="cls-24" d="M1042.84,325.68,1024,321.4c1.4,4.21,4.47,8,7.16,11.32a56.47,56.47,0,0,0,6.19,6.74,40.41,40.41,0,0,0,6.89,4.79c-2.71-3.53-2-5.55-2-5.55s2.67,4.1,10.83,6.15A57.83,57.83,0,0,1,1042.84,325.68Z"/><path class="cls-61" d="M1022.06,321s36.48,5.35,67.06,15.25C1089.12,336.21,1027.17,323.33,1022.06,321Z"/><path class="cls-62" d="M1185.43,294.27a31.47,31.47,0,0,1,0,21.73l-52.65,8.44c3.51-12.84,3.15-25.72,0-38.61l10.18,3.75,7.76-.84,11.28,4.32,6-1.2Z"/><ellipse class="cls-63" cx="1131.8" cy="305.13" rx="4.63" ry="19.76"/><ellipse class="cls-64" cx="1132.55" cy="305.13" rx="4.63" ry="19.3"/><path class="cls-65" d="M1132.36,285.24a1.53,1.53,0,0,0-.56.13c2.53,1.1,4.5,9.52,4.5,19.76s-2,18.67-4.5,19.77a1.38,1.38,0,0,0,.56.12c2.79,0,5.06-8.9,5.06-19.89S1135.15,285.24,1132.36,285.24Z"/><path class="cls-66" d="M1158.57,311.9s3.14-11.78.7-19.91l2.7,1A33.78,33.78,0,0,1,1158.57,311.9Z"/><path class="cls-67" d="M1143.37,306a34.85,34.85,0,0,0-.39-16.37l2.54-.38S1148.28,296.1,1143.37,306Z"/><path class="cls-68" d="M1152.2,296.08s0-.38-1.51-7.38l1.18.45S1152.72,294.4,1152.2,296.08Z"/><polygon class="cls-69" points="1122.11 325.13 1125.54 322.26 1130 321.24 1136.58 314.89 1149.08 317.06 1154.57 314.17 1157.51 313.96 1164.92 316.63 1172.17 312.73 1180.55 312.9 1216.57 320.99 1191.65 324.83 1182.5 328.46 1169.34 332.37 1167.06 332.63 1164.76 331.62 1156.29 327.43 1152.9 326.55 1147.13 328.07 1131.39 328.96 1123.38 328.01 1116.16 327.47 1122.11 325.13 1122.11 325.13"/><path class="cls-70" d="M923.72,380.83h-16l15.93,13.3s16.64-5.52,17.73-4.93,22,7.1,22,7.1,38.84-11.94,37.39-11.94-67.31-3.53-67.31-3.53Z"/><polygon class="cls-71" points="935.81 344.79 959.87 351.36 964.74 348.33 970.07 348.76 973.4 366.16 986.85 370.28 987.88 385.12 953.25 389.2 945.89 380.86 928.05 388.63 915.8 380.22 929.76 368.9 923.89 366.23 935.81 344.79 935.81 344.79"/><polygon class="cls-72" points="971.11 351.03 970.07 348.76 964.74 348.33 959.87 351.36 935.81 344.79 923.89 366.23 929.76 368.9 926.16 371.82 915.8 380.22 927.03 387.68 931.35 379.24 940.44 374.36 937.66 365.12 962.13 355.93 964 354.03 971.17 351.27 971.11 351.03 971.11 351.03"/><path class="cls-71" d="M937.54,373.11l-7.78-4.21-4.69,3.8C925.34,372.49,937.54,373.11,937.54,373.11Z"/><path class="cls-71" d="M963.36,356.18s-18.36-2.88-17.65-2.37,13.39,6.3,13.39,6.3Z"/><path class="cls-72" d="M986.85,370.28c-.87-.26-22.54,5.9-22.54,5.9s-8.24,10.15-8.21,10.21,4.73-11.63,4.73-11.63,14.11-4.65,13.41-4.49-5.57.19-5,0a49.48,49.48,0,0,0,4.21-4.11Z"/><path class="cls-70" d="M964.06,293.94h-8l8,6.65s8.32-2.76,8.87-2.46,11,3.55,11,3.55,19.42-6,18.7-6S969,293.91,969,293.91Z"/><polygon class="cls-71" points="970.13 275.92 982.16 279.21 984.6 277.69 987.26 277.91 988.93 286.61 995.65 288.67 996.17 296.09 978.85 298.13 975.17 293.96 966.25 297.84 960.12 293.64 967.1 287.98 964.17 286.64 970.13 275.92 970.13 275.92"/><polygon class="cls-72" points="987.78 279.04 987.26 277.91 984.6 277.69 982.16 279.21 970.13 275.92 964.17 286.64 967.1 287.98 965.3 289.44 960.12 293.64 965.74 297.37 967.9 293.15 972.44 290.71 971.06 286.09 983.29 281.49 984.22 280.54 987.81 279.16 987.78 279.04 987.78 279.04"/><path class="cls-71" d="M971,290.08l-3.9-2.1-2.34,1.9C964.89,289.74,971,290.08,971,290.08Z"/><path class="cls-71" d="M983.9,281.62s-9.17-1.44-8.82-1.19,6.69,3.15,6.69,3.15Z"/><path class="cls-72" d="M995.65,288.67c-.44-.13-11.27,2.95-11.27,2.95s-4.12,5.07-4.11,5.1,2.37-5.81,2.37-5.81,7-2.33,6.7-2.25a10.62,10.62,0,0,1-2.52,0,24,24,0,0,0,2.11-2.05Z"/><path class="cls-73" d="M868.63,310.6c0,2.19-22.29,4.24-48.56.33-25.89-3.86-46.1-3.45-46.1-5.63s20.38,2.71,46.53,3.78C851.65,310.36,868.63,308.42,868.63,310.6Z"/><path class="cls-74" d="M811.72,283.27c9.15-6.25,24.7-9.76,38.7-9a61.88,61.88,0,0,0-4,18,57.81,57.81,0,0,0,.24,18.05c-14.11.34-28.89-3.57-36.71-10.05-7.54-.89-33.55,15.7-31.67-2.33l-.2-.92a17.4,17.4,0,0,1,1.47-11.24h0C781.42,267.74,804,284,811.72,283.27Z"/><polygon class="cls-75" points="851.96 284.17 850.26 300.5 859.36 300.63 861.06 284.29 851.96 284.17"/><path class="cls-76" d="M860.48,283.62a25.18,25.18,0,0,0-1.84,17.66l9.09.12,1.85-17.66Z"/><ellipse class="cls-77" cx="868.7" cy="292.59" rx="8.88" ry="2.02" transform="translate(483.28 1124.27) rotate(-83.75)"/><path class="cls-78" d="M856.85,284.14l-.44,1.18a28.07,28.07,0,0,0-1.47,14.06l.19,1.19-8.48,9.71a53.68,53.68,0,0,1-.35-18.06,57.22,57.22,0,0,1,4.11-18Z"/><path class="cls-79" d="M810.81,300.9c-.29-.22-.59-.44-.87-.67a8.24,8.24,0,0,0-1.57,0,37.75,37.75,0,0,1,2.68-17h.66a41.29,41.29,0,0,1,7.19-3.83C810.3,286.31,810.55,297.65,810.81,300.9Z"/></g></g><polygon class="cls-80" points="86.87 218.74 83.31 221.27 78.77 221.97 75.43 229.07 75.97 231.24 68.92 244.81 64.03 238.84 78.39 214.53 86.87 218.74"/><polygon class="cls-81" points="82.36 199.96 134.11 202.77 135.59 205.17 83.4 205.77 82.36 199.96"/><polygon class="cls-82" points="135.59 205.17 135.24 208.58 84.66 212.2 83.4 205.77 135.59 205.17"/><polygon class="cls-83" points="78.39 237.93 128.52 239.64 129.99 242.04 79.43 243.73 78.39 237.93"/><polygon class="cls-84" points="129.99 242.04 129.64 245.45 80.69 250.16 79.43 243.73 129.99 242.04"/><polygon class="cls-85" points="83.39 231.47 120.78 227.68 121.03 229.07 123.2 229.07 123.1 229.78 86.28 237.33 83.39 231.47"/><polygon class="cls-86" points="123.1 229.78 122.12 232.33 123.77 233.51 89.61 243.77 86.28 237.33 123.1 229.78"/><polygon class="cls-87" points="112.28 291.17 108.94 288.3 108 289.87 105.55 289.14 110.17 284.99 112.28 291.17"/><polygon class="cls-88" points="80.06 274.3 127.37 286.48 129.01 289.14 81.21 280.73 80.06 274.3"/><polygon class="cls-89" points="81.21 280.73 80.47 287.76 104.53 290.33 106.32 288.63 108 289.87 109.82 286.82 112.28 291.17 128.61 292.92 129.01 289.14 81.21 280.73"/><polygon class="cls-90" points="81.14 236.75 70.3 292.36 81.11 291.5 85.22 264.56 81.4 262.19 85.93 259.92 89.81 234.48 81.14 236.75"/><polygon class="cls-91" points="85.22 264.56 83.69 261.04 81.4 262.19 85.22 264.56"/><polygon class="cls-92" points="78.77 221.97 75.43 229.07 75.97 231.24 73.26 233.96 68.5 243.1 71.97 232.5 74.25 230.61 73.7 227.68 78.09 217.74 78.09 217.74 75.34 181.89 59.14 240.47 70.3 292.36 81.14 236.75 78.77 221.97 78.77 221.97"/><polygon class="cls-93" points="86.87 218.74 83.88 184.97 75.34 181.89 78.09 217.74 86.87 218.74"/><polygon class="cls-94" points="87.23 220.66 78.77 221.97 81.14 236.75 89.81 234.48 87.23 220.66"/><path class="cls-95" d="M236.48,287.11c-18.75,5.95-10.49,14.73.26,8.49C242.53,289,235,290.38,236.48,287.11Z"/><path class="cls-96" d="M250.2,296.26c7.31-3.24,12.23,2,3,4.44C252.18,299.29,247.57,298.27,250.2,296.26Z"/><path class="cls-97" d="M276.49,275.45c-4.63.2,2.75,3.56,1.67.86C277.82,275.56,275.17,275.59,276.49,275.45Z"/><path class="cls-98" d="M1.54,265.85c-4.63.2,2.75,3.56,1.66.86C2.87,266,.22,266,1.54,265.85Z"/><path class="cls-99" d="M284.49,290.09c0-1.66,2.45,2.43-.11,2.06C281.69,293.1,282.64,289.16,284.49,290.09Z"/><path class="cls-100" d="M260.68,278l22.59,1.84C279.69,284.43,260.48,284.81,260.68,278Z"/><path class="cls-100" d="M19.11,284.19,41.69,286C38.11,290.68,18.91,291.06,19.11,284.19Z"/><path class="cls-101" d="M247.16,278.58a17.54,17.54,0,0,1,6.54,0C253.33,279.57,243.17,280.5,247.16,278.58Z"/><path class="cls-101" d="M281.75,291.46a17.59,17.59,0,0,1,6.55,0C287.92,292.45,277.76,293.38,281.75,291.46Z"/><path class="cls-101" d="M20,268.33a17.59,17.59,0,0,1,6.55,0C26.21,269.32,16,270.25,20,268.33Z"/><path class="cls-101" d="M49.62,276.5a17.59,17.59,0,0,1,6.55,0C55.8,277.49,45.63,278.42,49.62,276.5Z"/><path class="cls-101" d="M227.73,291.74a17.59,17.59,0,0,1,6.55,0C233.91,292.74,223.74,293.68,227.73,291.74Z"/></g></g></g></g></svg>