<svg xmlns="http://www.w3.org/2000/svg" xmlns:xlink="http://www.w3.org/1999/xlink" viewBox="0 0 326.82 327.2"><defs><style>.cls-1{isolation:isolate;}.cls-2{fill:#5a6c9c;}.cls-11,.cls-12,.cls-13,.cls-14,.cls-15,.cls-16,.cls-19,.cls-3,.cls-8,.cls-9{mix-blend-mode:screen;}.cls-3{fill:url(#Áåçûìÿííûé_ãðàäèåíò_854);}.cls-4{fill:#f9fcf7;}.cls-5{fill:#141826;}.cls-6{fill:#7683c7;}.cls-7{fill:#626fcf;}.cls-8{fill:url(#Áåçûìÿííûé_ãðàäèåíò_854-2);}.cls-9{fill:url(#Áåçûìÿííûé_ãðàäèåíò_854-3);}.cls-10{fill:#df2a0f;}.cls-11{fill:url(#Áåçûìÿííûé_ãðàäèåíò_854-4);}.cls-12{fill:url(#Áåçûìÿííûé_ãðàäèåíò_854-5);}.cls-13{fill:url(#Áåçûìÿííûé_ãðàäèåíò_854-6);}.cls-14{fill:url(#Áåçûìÿííûé_ãðàäèåíò_854-7);}.cls-15{fill:url(#Áåçûìÿííûé_ãðàäèåíò_854-8);}.cls-16{fill:url(#Áåçûìÿííûé_ãðàäèåíò_854-9);}.cls-17{fill:#0c0f16;mix-blend-mode:multiply;}.cls-18,.cls-19{fill:#8f2939;}.cls-19{opacity:0.79;}</style><linearGradient id="Áåçûìÿííûé_ãðàäèåíò_854" x1="1575.47" y1="-1175.05" x2="1515.67" y2="-1013.59" gradientTransform="translate(-1361.26 1180.9) rotate(0.09)" gradientUnits="userSpaceOnUse"><stop offset="0" stop-color="#5f7056"/><stop offset="0.17" stop-color="#55654d"/><stop offset="0.46" stop-color="#3c4636"/><stop offset="0.85" stop-color="#121510"/><stop offset="1"/></linearGradient><linearGradient id="Áåçûìÿííûé_ãðàäèåíò_854-2" x1="1567.41" y1="-1167.75" x2="1553.35" y2="-1114.98" xlink:href="#Áåçûìÿííûé_ãðàäèåíò_854"/><linearGradient id="Áåçûìÿííûé_ãðàäèåíò_854-3" x1="1545.95" y1="-1100.07" x2="1525.42" y2="-1026.52" xlink:href="#Áåçûìÿííûé_ãðàäèåíò_854"/><linearGradient id="Áåçûìÿííûé_ãðàäèåíò_854-4" x1="-669.16" y1="-1034.88" x2="-631.28" y2="-845.88" gradientTransform="matrix(-1, 0, 0, 1, -405.38, 1182.56)" xlink:href="#Áåçûìÿííûé_ãðàäèåíò_854"/><linearGradient id="Áåçûìÿííûé_ãðàäèåíò_854-5" x1="-634.66" y1="-1041.8" x2="-596.78" y2="-852.79" gradientTransform="matrix(-1, 0, 0, 1, -405.38, 1182.56)" xlink:href="#Áåçûìÿííûé_ãðàäèåíò_854"/><linearGradient id="Áåçûìÿííûé_ãðàäèåíò_854-6" x1="-691.94" y1="1373.31" x2="-712.12" y2="1488.72" gradientTransform="matrix(-0.71, 0.71, 0.71, 0.71, -1272.79, -357.97)" xlink:href="#Áåçûìÿííûé_ãðàäèåíò_854"/><linearGradient id="Áåçûìÿííûé_ãðàäèåíò_854-7" x1="-641.85" y1="-956.43" x2="-626.72" y2="-880.97" gradientTransform="matrix(-1, 0, 0, 1, -405.38, 1182.56)" xlink:href="#Áåçûìÿííûé_ãðàäèåíò_854"/><linearGradient id="Áåçûìÿííûé_ãðàäèåíò_854-8" x1="-616.88" y1="-956.34" x2="-601.93" y2="-881.75" gradientTransform="matrix(-1, 0, 0, 1, -405.38, 1182.56)" xlink:href="#Áåçûìÿííûé_ãðàäèåíò_854"/><linearGradient id="Áåçûìÿííûé_ãðàäèåíò_854-9" x1="-722.14" y1="-1026.82" x2="-464.7" y2="-1020.85" gradientTransform="matrix(-1, 0, 0, 1, -405.38, 1182.56)" xlink:href="#Áåçûìÿííûé_ãðàäèåíò_854"/></defs><g class="cls-1"><g id="Layer_2" data-name="Layer 2"><g id="Box"><polygon class="cls-2" points="243.07 29.9 241.4 65.05 241.23 68.63 237.62 144.21 77.53 143.95 72.45 29.62 243.07 29.9"/><polygon class="cls-3" points="184.17 29.8 155.88 144.07 181.6 144.12 232.03 29.88 184.17 29.8"/><polygon class="cls-4" points="241.4 65.05 241.23 68.63 208.18 68.16 197.69 108.99 161.51 108.93 148.06 69.56 113.79 69.5 113.45 64.84 151.77 64.91 164.26 104.55 194.63 104.6 204.81 64.99 241.4 65.05"/><polygon class="cls-5" points="120.91 144.02 77.53 143.95 74.12 67.4 73.92 62.74 72.45 29.62 112.71 29.69 115.09 62.81 115.41 67.47 120.91 144.02"/><polygon class="cls-2" points="115.41 67.47 74.12 67.4 73.92 62.74 115.09 62.81 115.41 67.47"/><polygon class="cls-5" points="115.09 62.81 152.43 62.87 164.62 102.53 194.22 102.58 204.15 62.95 241.5 63.01 241.32 66.63 207.44 66.12 197.21 106.97 161.92 106.91 148.83 67.52 115.41 67.47 115.09 62.81"/><path class="cls-5" d="M139.85,75.58l16.09,35.7-12,26.2-15.85,0-4.39-61.9Zm24,38.11L155.9,137.5l42.95.07-5.24-23.83Zm48.1-38-10.63,35.67,5.25,26.22,24.81,0,3.89-61.89Z"/><path class="cls-2" d="M207.67,136l-4.75-23.77,10-33.43,19.09,0-3.6,57.2Zm-49.31-.08,6.36-19.12,26.22,0,4.22,19.14Zm-28.87,0-4.05-57.22,12.12,0,15,33.36-10.94,23.85Z"/><polygon class="cls-5" points="165.28 66.65 170.53 94.96 190.41 95 194.38 66.7 165.28 66.65"/><polygon class="cls-6" points="168.83 69.3 172.79 92.33 187.82 92.35 190.82 69.33 168.83 69.3"/><polygon class="cls-7" points="172.45 69.3 174.9 92.33 172.79 92.33 168.83 69.3 172.45 69.3"/><polygon class="cls-5" points="121.08 36.38 123.74 55.22 233.47 55.4 235.29 36.56 121.08 36.38"/><polygon class="cls-2" points="123.76 38.48 126.2 53.13 226.74 53.29 228.4 38.65 123.76 38.48"/><polygon class="cls-8" points="178.33 40.21 176.06 51.24 221.22 51.32 224.52 40.28 178.33 40.21"/><polygon class="cls-9" points="188.82 118.11 183.31 134.35 159.99 134.31 165.19 118.08 188.82 118.11"/><polygon class="cls-10" points="183.75 29.8 190.85 29.81 189.05 0.11 187.91 0.11 179.94 0.1 128.65 0.01 121.14 0 119.54 0 123.35 29.7 130.46 29.72 129.16 8.39 181.01 8.47 183.75 29.8"/><polygon class="cls-2" points="294.69 144.3 27.48 143.87 0 174.17 2.78 304.32 21.48 326.76 299.69 327.2 317.65 304.83 326.82 174.7 294.69 144.3"/><polygon class="cls-11" points="279.17 174.62 249.02 304.72 229.35 304.69 241.25 174.56 279.17 174.62"/><polygon class="cls-12" points="231.15 174.54 220.26 304.67 194.53 304.63 202.1 174.5 231.15 174.54"/><polygon class="cls-5" points="253.37 191.35 245.98 215.23 202.31 215.16 194.72 191.25 253.37 191.35"/><polygon class="cls-5" points="98.24 326.88 116.2 304.5 116.41 174.36 84.27 143.96 27.48 143.87 0 174.17 2.78 304.32 21.48 326.76 98.24 326.88"/><polygon class="cls-4" points="116.37 195.2 178.21 195.3 197.1 220.99 250.78 221.08 265.87 195.44 325.37 195.54 325.33 197.78 267.62 197.38 252.3 223.53 196.5 223.44 176.28 197.03 116.37 197.24 116.37 195.2"/><polygon class="cls-5" points="116.38 193.3 178.22 193.4 197.1 219.09 250.78 219.18 265.88 193.54 325.37 193.64 325.33 195.88 267.63 195.48 252.31 221.63 196.5 221.54 176.28 195.13 116.37 195.34 116.38 193.3"/><polygon class="cls-2" points="116.38 193.3 0.41 193.11 0.46 195.76 116.37 195.34 116.38 193.3"/><polygon class="cls-7" points="247.6 193.1 242.06 213.46 234.8 213.45 236.79 193.09 247.6 193.1"/><polygon class="cls-7" points="199.09 193.03 204.57 213.4 211.83 213.41 209.91 193.04 199.09 193.03"/><polygon class="cls-7" points="219.37 213.43 228.03 213.44 229.53 193.08 217.94 193.06 219.37 213.43"/><polygon class="cls-6" points="249.2 193.11 243.65 213.47 236.39 213.45 238.38 193.09 249.2 193.11"/><polygon class="cls-6" points="200.68 193.03 206.16 213.41 213.42 213.42 211.5 193.05 200.68 193.03"/><polygon class="cls-6" points="220.96 213.43 229.62 213.44 231.12 193.08 219.53 193.06 220.96 213.43"/><polygon class="cls-5" points="116.2 304.5 317.65 304.83 299.69 327.2 98.24 326.88 116.2 304.5"/><polygon class="cls-5" points="313.33 204.48 270.84 204.41 259.81 222.14 286.44 295.14 309.61 295.18 313.33 204.48"/><polygon class="cls-2" points="307.88 209.56 270.21 209.5 261.27 225.38 286.02 294.32 304.64 294.35 307.88 209.56"/><polygon class="cls-5" points="128.78 204.18 171.27 204.25 182.25 222.01 155.38 294.93 132.22 294.89 128.78 204.18"/><polygon class="cls-2" points="129.85 209.28 167.53 209.34 176.41 225.25 151.44 294.11 132.81 294.08 129.85 209.28"/><polygon class="cls-5" points="253.31 229.64 277.34 295.12 163.22 294.94 191.21 228.86 253.31 229.64"/><polygon class="cls-2" points="270.58 293.82 248.89 234.7 191.12 233.97 165.84 293.65 270.58 293.82"/><path class="cls-13" d="M266,144.25l13.22,30.37-37.92-.06L231.2,144.2Zm-74.31-.12L202.1,174.5l29.05,0-12.69-30.36Z"/><polygon class="cls-14" points="245.66 238.32 234.67 292.07 215.97 292.04 225.82 238.28 245.66 238.32"/><polygon class="cls-15" points="220.8 238.28 211.71 292.03 194.56 292 199.02 238.24 220.8 238.28"/><polygon class="cls-16" points="326.82 174.7 116.41 174.36 84.27 143.96 294.69 144.3 326.82 174.7"/><polygon class="cls-4" points="116.4 176.74 325.4 177.07 325.37 191.47 326.82 174.7 294.69 144.3 322.35 173.26 116.41 174.36 116.4 176.74"/><path class="cls-17" d="M0,174.17,2.78,304.32l18.7,22.44,76.76.12,201.45.32,18-22.37,7.55-107h.13l0-2.24h0l1.46-20.84-32.13-30.4L266,144.25h0l-14.48,0-68.9-.11,55.05.09,3.61-75.58.17-3.58,1.67-35.15-11,0h0l-26.35,0-14.83,0L189.05.11h-9.11L128.65,0h-9.11l3.81,29.7H112.71l-40.26-.07,1.47,33.12.2,4.66L77.53,144l-50-.08ZM183.75,29.8l-53.3-.08L129.16,8.39,181,8.47Z"/><polyline class="cls-18" points="294.69 144.3 225.97 144.3 227 144.81 294.25 145.75 325.37 174.7 326.82 174.7 294.69 144.3"/><polyline class="cls-18" points="243.07 29.9 241.4 29.9 237.38 144.21 237.62 144.21 243.07 29.9"/><polygon class="cls-19" points="190.85 29.81 190.53 29.81 186.88 0.11 189.05 0.11 190.85 29.81"/><polygon class="cls-19" points="129.22 8.42 130.52 29.81 130.2 29.81 127.57 8.42 129.22 8.42"/></g></g></g></svg>