<svg xmlns="http://www.w3.org/2000/svg" xmlns:xlink="http://www.w3.org/1999/xlink" viewBox="0 0 925.98 1083.71"><defs><style>.cls-1{isolation:isolate;}.cls-2{fill:#7c91bf;}.cls-3{fill:#5a6c9c;}.cls-4{fill:#1f2638;}.cls-5{fill:#48587a;}.cls-6{fill:#151a23;opacity:0.79;}.cls-7{fill:#ed1c24;}.cls-8{fill:url(#radial-gradient);}.cls-9{opacity:0.6;mix-blend-mode:screen;fill:url(#linear-gradient);}</style><radialGradient id="radial-gradient" cx="-470.87" cy="593.78" r="8.62" gradientTransform="matrix(-0.99, -0.1, -0.1, 0.99, 26.38, -19.56)" gradientUnits="userSpaceOnUse"><stop offset="0" stop-color="#ed1c24"/><stop offset="1" stop-color="#4c1e1e"/></radialGradient><linearGradient id="linear-gradient" x1="-531.33" y1="476.62" x2="-709.77" y2="1025.68" gradientTransform="matrix(-0.99, -0.1, -0.1, 0.99, 26.38, -19.56)" gradientUnits="userSpaceOnUse"><stop offset="0" stop-color="#ed1c24"/><stop offset="0.01" stop-color="#ed1c24" stop-opacity="0.99"/><stop offset="0.12" stop-color="#ed1c24" stop-opacity="0.76"/><stop offset="0.23" stop-color="#ed1c24" stop-opacity="0.55"/><stop offset="0.35" stop-color="#ed1c24" stop-opacity="0.38"/><stop offset="0.47" stop-color="#ed1c24" stop-opacity="0.25"/><stop offset="0.59" stop-color="#ed1c24" stop-opacity="0.14"/><stop offset="0.72" stop-color="#ed1c24" stop-opacity="0.06"/><stop offset="0.85" stop-color="#ed1c24" stop-opacity="0.01"/><stop offset="1" stop-color="#ed1c24" stop-opacity="0"/></linearGradient></defs><g class="cls-1"><g id="Layer_2" data-name="Layer 2"><g id="Lab_Light" data-name="Lab Light"><circle class="cls-2" cx="106.24" cy="57.67" r="49.68"/><circle class="cls-3" cx="111.33" cy="72.55" r="34.8"/><path class="cls-4" d="M108.37,37.76H31l9.54,23.8s23.11,2.77,67.86,2.78,67.86-2.76,67.86-2.76l9.54-23.8Z"/><path class="cls-4" d="M176.23,61.57l9.54-23.8h-19.5c-2.72,7.68-6.49,17.13-9.88,25.34C169.53,62.37,176.23,61.57,176.23,61.57Z"/><path class="cls-4" d="M40.51,61.55s10.54,1.26,31.16,2.08a195.57,195.57,0,0,1-10-25.88H31Z"/><path class="cls-4" d="M143.16,63.72c2.5-.1,4.85-.19,7.07-.3,3.18-7.24,7.22-16.86,10.6-25.65h-3.14A125.86,125.86,0,0,1,143.16,63.72Z"/><rect class="cls-4" x="4.78" y="0.01" width="204.45" height="11.63"/><path class="cls-3" d="M106.63,6.64H0L13.13,39.42S45,43.24,106.62,43.25s93.49-3.81,93.49-3.81L213.26,6.66Z"/><path class="cls-2" d="M200.11,39.44,213.26,6.66H186.4c-3.76,10.59-9,23.6-13.62,34.91C190.89,40.55,200.11,39.44,200.11,39.44Z"/><path class="cls-5" d="M13.13,39.42s14.53,1.74,42.93,2.87A270,270,0,0,1,42.3,6.63H0Z"/><path class="cls-2" d="M154.55,42.41q5.16-.19,9.75-.41c4.37-10,9.94-23.23,14.6-35.35h-4.33A173,173,0,0,1,154.55,42.41Z"/><path class="cls-4" d="M115,77.26A15.53,15.53,0,0,1,128.69,90c0,.11,0,.22.05.34h0c0,.31.08.63.1,1l56.22,245.08-16.75,5.93L98.46,92.44C97.89,83.93,106.46,76.38,115,77.26Z"/><path class="cls-6" d="M110.42,77.57l63.12,262.84-5.23,1.85L98.46,92.44C98,85.47,103.66,79.14,110.42,77.57Z"/><circle class="cls-2" cx="186.97" cy="341.31" r="28.55"/><path class="cls-3" d="M201,316.43a28.55,28.55,0,0,1-.49,50c-.69,0-1.38,0-2.08-.12A25,25,0,0,1,201,316.43Z"/><ellipse class="cls-5" cx="169.23" cy="352.54" rx="3.7" ry="4.94" transform="translate(-148.55 124.63) rotate(-28.71)"/><path class="cls-4" d="M187.46,343.16A15.53,15.53,0,0,1,195,326.07l.3-.17h0c.28-.14.56-.28.86-.4L351,258.91l11.09,13.89-154.83,81C199.36,357.14,189.43,351.51,187.46,343.16Z"/><path class="cls-6" d="M189.25,347.38l169.34-78.92,3.47,4.34-154.83,81C200.79,356.54,193,353.25,189.25,347.38Z"/><path class="cls-4" d="M355.59,245.14a12.32,12.32,0,0,1,12.27,8.32l.09.26h0c.07.24.13.48.19.73L397.9,385l-12.44,6.67L344.43,259C343,252.42,348.78,245.47,355.59,245.14Z"/><path class="cls-6" d="M352,245.93l37.31,143.62-3.88,2.08L344.43,259C343.22,253.62,346.92,248,352,245.93Z"/><polygon class="cls-3" points="403.81 312.89 401.31 300.52 367.23 297.02 343.15 311.49 347.65 321.93 403.81 312.89"/><polygon class="cls-5" points="403.81 312.89 401.31 300.52 367.23 297.02 343.15 311.49 347.65 321.93 403.81 312.89"/><path class="cls-2" d="M471.65,345.88s-40-42.8-99.85-32-79.33,75.93-79.33,75.93l178.18-34.2Z"/><path class="cls-2" d="M493,357.89l-21.35-12s-33.38-10.34-175.26,33.72l-24.87,26.09,9.17,18.17s31.68,17.78,105.55,8.31S491.87,381,491.87,381Z"/><path class="cls-7" d="M493,357.89l-33.09.3s0-21-141.9,23.09l-46.49,24.41,9.17,18.17s31.68,17.78,105.55,8.31S491.87,381,491.87,381Z"/><path class="cls-3" d="M466.44,365.39,491.87,381,493,357.89,469,351s-89.71-23.88-165.75,30.4l-31.72,24.33,9.17,18.17,23.87-24.29S366.69,350.58,466.44,365.39Z"/><path class="cls-3" d="M471.65,345.88h0l-35.4-9.44s-18.32-14.15-53.6-24C436.42,308.2,471.65,345.88,471.65,345.88Z"/><path class="cls-3" d="M290.08,443.6c3.62-23.17,40-46.42,98.91-58s109,.69,115.94,24.95L509.4,460l-205.6,37.4S292.35,451.14,290.08,443.6Z"/><path class="cls-2" d="M302.17,422.79C317.89,407.38,348,393.66,389,385.6c58.94-11.57,109,.69,115.94,24.95L509.4,460l-4.41.8L499.84,423a29.52,29.52,0,0,0-22-24.63C445.61,390.14,377.11,381.17,302.17,422.79Z"/><path class="cls-2" d="M495.88,397.57c4.54,3.79,7.67,8.14,9.05,13L509.4,460l-2.47.45c-2-14.81-4.42-29.6-7-44.28C499,410,497.46,403.79,495.88,397.57Z"/><path class="cls-5" d="M298.59,426.61c6.14-7.2,15.37-14.11,27.36-20.35,4.73,6.75,9.35,13.54,14.11,20.1,14.13,19.31,29,38,44.43,56.31l-61.94,11.27c-6.32-16.21-12.08-32.66-17.74-49.1C302.79,438.81,300.68,432.73,298.59,426.61Z"/><path class="cls-2" d="M509,457.05c5.21,26.54-36.51,57.08-93.18,68.2s-106.83-1.36-112-27.9,36.51-57.07,93.18-68.2S503.81,430.51,509,457.05Z"/><path class="cls-2" d="M397,429.15c41.48-8.15,79.45-3.62,98.89,9.79a106.09,106.09,0,0,0-23.61-4.82c-33.91-2.65-69.55,7.44-98.41,24.49-20.37,11.66-47.3,34.32-35.86,60.93a51.68,51.68,0,0,0,3.24,6.05c-20.65-5-34.79-14.82-37.43-28.24C298.59,470.81,340.31,440.28,397,429.15Z"/><path class="cls-7" d="M408.65,439.48c.51,4-5.83,8-14.15,9.11s-15.48-1.28-16-5.25,5.83-8,14.15-9.11S408.14,435.51,408.65,439.48Z"/><path class="cls-5" d="M408.65,439.48a3.61,3.61,0,0,0-.43-1.27c.07,3.84-6.1,7.7-14.15,8.73-7.39.95-13.85-.8-15.56-4,0,.13,0,.25,0,.38.51,4,7.67,6.31,16,5.25S409.16,443.44,408.65,439.48Z"/><path class="cls-7" d="M503.1,460.56c.51,4-5.83,8-14.15,9.11s-15.48-1.28-16-5.25,5.83-8,14.15-9.1S502.59,456.6,503.1,460.56Z"/><path class="cls-5" d="M503.1,460.56a3.63,3.63,0,0,0-.43-1.26c.07,3.84-6.1,7.69-14.15,8.72-7.39,1-13.86-.8-15.57-4,0,.13,0,.26,0,.38.51,4,7.67,6.32,16,5.25S503.61,464.52,503.1,460.56Z"/><path class="cls-7" d="M339.07,498.76c.5,4-5.83,8-14.15,9.11s-15.48-1.28-16-5.25,5.83-8,14.15-9.11S338.56,494.79,339.07,498.76Z"/><path class="cls-5" d="M339.07,498.76a3.61,3.61,0,0,0-.43-1.27c.07,3.84-6.1,7.7-14.15,8.73-7.39.95-13.86-.8-15.57-4a2.41,2.41,0,0,0,0,.38c.51,4,7.67,6.31,16,5.25S339.57,502.72,339.07,498.76Z"/><path class="cls-7" d="M427.3,515.72c.32,2.53-3.72,5.13-9,5.81s-9.88-.82-10.2-3.35,3.72-5.13,9-5.81S427,513.19,427.3,515.72Z"/><path class="cls-5" d="M427.3,515.72a2.42,2.42,0,0,0-.27-.81c0,2.45-3.89,4.91-9,5.57-4.72.61-8.84-.51-9.93-2.54a1.92,1.92,0,0,0,0,.24c.32,2.53,4.89,4,10.2,3.35S427.62,518.25,427.3,515.72Z"/><path class="cls-4" d="M470.22,472c2.61,16.91-24.06,35.06-59.57,40.54s-66.4-3.78-69-20.7,24.05-35.06,59.56-40.54S467.6,455.12,470.22,472Z"/><path class="cls-5" d="M470.22,472a15.69,15.69,0,0,0-2-5.36c.72,16.43-25.28,33.6-59.64,38.9-31.53,4.87-59.39-1.91-67.06-15.33a12.71,12.71,0,0,0,.08,1.63c2.61,16.92,33.51,26.18,69,20.7S472.83,488.94,470.22,472Z"/><path class="cls-2" d="M388,477.3s13.38-11.6,31.39-5.24l1.79,11.36s-6.53,5.9-13.84,7-16.53-1.94-16.53-1.94Z"/><path class="cls-3" d="M411.51,470.31c.12,1,.22,1.9.28,2.78.41,5.18.63,10.41,1,15.65a21.7,21.7,0,0,1-5.52,1.68,23.51,23.51,0,0,1-2.54.21c-2.26-6.2-5-12.35-7.86-18.34A32.53,32.53,0,0,1,411.51,470.31Z"/><path class="cls-5" d="M390.76,488.48s9.22,3,16.53,1.94,13.84-7,13.84-7C403.21,480,390.76,488.48,390.76,488.48Z"/><path class="cls-2" d="M435.63,616,412.82,487.18c0-.1-.05-.22-.07-.33-.71-2.85-11-.28-10.32,2.57l28.28,126.51.76,3.06,2.51-1.68Z"/><path class="cls-3" d="M434,617.31,431.47,619l-.76-3.06L402.43,489.42c-.27-1.09,1.09-2.14,2.9-2.86L433.58,613l.76,3.06"/><path class="cls-8" d="M442.64,620.14a8.62,8.62,0,1,1-7.69-9.46A8.63,8.63,0,0,1,442.64,620.14Z"/><path class="cls-9" d="M926,945.39l-423-489.89-7.35-8.78c-13.68-17.89-54.45-25.22-99.72-16.33-42.79,8.41-76.41,28.7-84.95,49.25l-1.54,6.27-.51,4.82L283.27,988C487,1116.87,699.34,1127.74,926,945.39"/></g></g></g></svg>