<svg xmlns="http://www.w3.org/2000/svg" xmlns:xlink="http://www.w3.org/1999/xlink" viewBox="0 0 105.8 112.8"><defs><style>.cls-1{fill:#523d96;}.cls-2{fill:#292359;}.cls-3{fill:url(#linear-gradient);}.cls-4{fill:#8f8eb7;}.cls-5{fill:#1c123f;}.cls-6{fill:#130e30;}.cls-7{fill:#6c5ab7;}.cls-8{fill:#1d1b47;}.cls-9{fill:#141826;}.cls-10{fill:#4b4089;}.cls-11{fill:#7d6ed3;}</style><linearGradient id="linear-gradient" x1="48.49" y1="-294.88" x2="54.24" y2="-328.27" gradientTransform="matrix(1, 0, 0, -1, 0, -297.5)" gradientUnits="userSpaceOnUse"><stop offset="0" stop-color="#425290"/><stop offset="1" stop-color="#292359" stop-opacity="0"/></linearGradient></defs><g id="Layer_2" data-name="Layer 2"><g id="Lab_Fan" data-name="Lab Fan"><g id="Layer_2-2" data-name="Layer 2"><g id="Lab_Fan-2" data-name="Lab Fan"><polygon class="cls-1" points="4 112.8 102.1 112.6 105.8 0 0 0.2 4 112.8"/><polygon class="cls-2" points="94.5 10.7 11.4 10.8 14.6 102.1 91.4 102 94.5 10.7"/><path class="cls-3" d="M64.4,29.9c9.8-2,19.7-3.8,29.6-5.6l.4-13.6-83,.1,1.1,30.9C29.7,37.4,47,33.4,64.4,29.9Z"/><polygon class="cls-4" points="0.8 1.1 105.8 1.1 105.8 0 0 0.2 4 112.8 4.8 112.8 0.8 1.1"/><path class="cls-5" d="M83.3,59.3A29.63,29.63,0,0,1,56.6,88.8a27.15,27.15,0,0,1-2.9.1,29.6,29.6,0,0,1-.1-59.2,29.76,29.76,0,0,1,16.8,5.2h.1A29.57,29.57,0,0,1,83.3,59.3Z"/><path class="cls-6" d="M53.6,31.3a29.76,29.76,0,0,1,16.8,5.2h.1A29.5,29.5,0,0,1,83.4,60.3v-.9A29.41,29.41,0,0,0,70.5,35h-.1A29.56,29.56,0,0,0,24.1,59.4v.7A29.48,29.48,0,0,1,53.6,31.3Z"/><polygon class="cls-7" points="92.9 12.5 97.7 9.8 93.9 106.3 90.1 99.5 92.9 12.5"/><polygon class="cls-8" points="93.9 106.3 13 106.3 16.2 100.2 90.1 99.5 93.9 106.3"/><polygon class="cls-7" points="13 106.3 16.2 100.2 13 12.7 9.7 8.7 13 106.3"/><polygon class="cls-8" points="97.7 9.8 9.7 8.7 13 12.7 92.9 12.5 97.7 9.8"/></g></g><rect class="cls-9" x="3.9" y="4.13" width="3.2" height="3.2" transform="translate(-2.44 5.57) rotate(-45)"/><rect class="cls-9" x="28.4" y="4.12" width="3.2" height="3.2" transform="translate(4.74 22.89) rotate(-45)"/><rect class="cls-9" x="52.9" y="4.11" width="3.2" height="3.2" transform="translate(11.92 40.21) rotate(-45)"/><rect class="cls-9" x="77.41" y="4.1" width="3.2" height="3.2" transform="translate(19.11 57.54) rotate(-45)"/><rect class="cls-9" x="98.39" y="4.14" width="3.2" height="3.2" transform="translate(25.23 72.39) rotate(-45)"/><rect class="cls-9" x="8.16" y="108.12" width="3.2" height="3.2" transform="translate(-74.73 39.04) rotate(-45)"/><rect class="cls-9" x="6.54" y="86.32" width="3.2" height="3.2" transform="translate(-59.78 31.5) rotate(-45)"/><rect class="cls-9" x="5.6" y="64.4" width="3.2" height="3.2" transform="translate(-44.56 24.42) rotate(-45)"/><rect class="cls-9" x="4.36" y="42.64" width="3.2" height="3.2" transform="translate(-29.54 17.17) rotate(-45)"/><rect class="cls-9" x="3.85" y="20.81" width="3.2" height="3.2" transform="translate(-14.25 10.42) rotate(-45)"/><rect class="cls-9" x="97.43" y="86.3" width="3.2" height="3.2" transform="translate(-33.36 85.48) rotate(-40.54)"/><rect class="cls-9" x="98.2" y="64.38" width="3.2" height="3.2" transform="translate(-18.93 80.71) rotate(-40.54)"/><rect class="cls-9" x="98.63" y="42.61" width="3.2" height="3.2" transform="translate(-4.68 75.77) rotate(-40.54)"/><rect class="cls-9" x="99.84" y="20.8" width="3.2" height="3.2" transform="translate(9.8 71.32) rotate(-40.54)"/><rect class="cls-9" x="28.36" y="108.1" width="3.2" height="3.2" transform="translate(-68.8 53.32) rotate(-45)"/><rect class="cls-9" x="52.87" y="108.1" width="3.2" height="3.2" transform="translate(-61.61 70.64) rotate(-45)"/><rect class="cls-9" x="77.37" y="108.09" width="3.2" height="3.2" transform="translate(-54.43 87.97) rotate(-45)"/><rect class="cls-9" x="96.08" y="108.07" width="3.2" height="3.2" transform="translate(-48.94 101.19) rotate(-45)"/><path class="cls-7" d="M57.7,59.5h-8L46.4,35.1c5.3-2.1,10.1-2,14.6,0Z"/><path class="cls-10" d="M60.8,36.9l.2-1.7c-4.5-2-9.3-2.1-14.6,0l.2,1.7A17.94,17.94,0,0,1,60.8,36.9Z"/><path class="cls-7" d="M51,62.3l5.1-6.1L76.9,69.3a18.34,18.34,0,0,1-9.4,11.2Z"/><path class="cls-10" d="M56.1,56.2,51,62.3l4.6,5.1c3.5-.8,6.9-3.3,7.1-7Z"/><path class="cls-10" d="M58.6,52.7c-1.4-1-3.2-2.5-5-2.5a8.44,8.44,0,0,0-4.9,1.6l1,7.6h8Z"/><path class="cls-10" d="M75.7,68.5a18.11,18.11,0,0,1-9.1,11l1,1A18.34,18.34,0,0,0,77,69.3Z"/><path class="cls-7" d="M51.6,55.9,56,62.5,37.7,78.9a17.83,17.83,0,0,1-8.1-12.2Z"/><path class="cls-10" d="M51.6,55.9,44,59.6V60c0,3.6,3.7,5.9,6.9,7.1L56,62.5Z"/><path class="cls-10" d="M31.4,65.8l-1.9.9a18.38,18.38,0,0,0,8.1,12.2l1.5-1.4A18.13,18.13,0,0,1,31.4,65.8Z"/><circle class="cls-7" cx="53.7" cy="59.3" r="7.4"/><circle class="cls-11" cx="53.7" cy="59.3" r="4.8"/><circle class="cls-11" cx="53.7" cy="59.3" r="2.8"/><path class="cls-10" d="M53.7,57.2a2.72,2.72,0,0,1,2.7,2.5v-.3a2.8,2.8,0,0,0-2.8-2.8,2.73,2.73,0,0,0-2.8,2.8v.3A3.08,3.08,0,0,1,53.7,57.2Z"/></g></g></svg>