<svg xmlns="http://www.w3.org/2000/svg" xmlns:xlink="http://www.w3.org/1999/xlink" viewBox="0 0 607.3 386.3"><defs><style>.cls-1{isolation:isolate;}.cls-2{fill:#1f2638;}.cls-3{fill:#151a23;opacity:0.79;}.cls-4{fill:#5a6c9c;}.cls-5{fill:#48587a;}.cls-6{fill:#7c91bf;}.cls-7{fill:url(#radial-gradient);}.cls-8{fill:url(#radial-gradient-2);}.cls-9{fill:url(#radial-gradient-3);}.cls-10{fill:url(#radial-gradient-4);}.cls-11{fill:#3e6491;}.cls-12{fill:url(#radial-gradient-5);}.cls-13{opacity:0.6;mix-blend-mode:screen;fill:url(#linear-gradient);}</style><radialGradient id="radial-gradient" cx="359.59" cy="967.89" r="13.26" gradientTransform="translate(425.41 -930.12) rotate(21.34)" gradientUnits="userSpaceOnUse"><stop offset="0" stop-color="#ed1c24"/><stop offset="1" stop-color="#4c1e1e"/></radialGradient><radialGradient id="radial-gradient-2" cx="320.75" cy="971.43" r="13.26" xlink:href="#radial-gradient"/><radialGradient id="radial-gradient-3" cx="388.84" cy="992.96" r="13.26" xlink:href="#radial-gradient"/><radialGradient id="radial-gradient-4" cx="351.93" cy="997.51" r="11.56" xlink:href="#radial-gradient"/><radialGradient id="radial-gradient-5" cx="332.25" cy="1057.81" r="4.71" xlink:href="#radial-gradient"/><linearGradient id="linear-gradient" x1="242.7" y1="969.4" x2="221.98" y2="1160.45" gradientTransform="translate(425.41 -930.12) rotate(21.34)" gradientUnits="userSpaceOnUse"><stop offset="0" stop-color="#ed1c24"/><stop offset="0.01" stop-color="#ed1c24" stop-opacity="0.99"/><stop offset="0.12" stop-color="#ed1c24" stop-opacity="0.76"/><stop offset="0.23" stop-color="#ed1c24" stop-opacity="0.55"/><stop offset="0.35" stop-color="#ed1c24" stop-opacity="0.38"/><stop offset="0.47" stop-color="#ed1c24" stop-opacity="0.25"/><stop offset="0.59" stop-color="#ed1c24" stop-opacity="0.14"/><stop offset="0.72" stop-color="#ed1c24" stop-opacity="0.06"/><stop offset="0.85" stop-color="#ed1c24" stop-opacity="0.01"/><stop offset="1" stop-color="#ed1c24" stop-opacity="0"/></linearGradient></defs><g class="cls-1"><g id="Layer_2" data-name="Layer 2"><g id="Lab_Light" data-name="Lab Light"><polygon class="cls-2" points="553.35 18.56 511.67 63.52 503.48 60.32 531.11 5.45 553.35 18.56"/><polygon class="cls-3" points="553.35 18.56 511.67 63.52 508.53 62.29 548.42 15.65 553.35 18.56"/><polygon class="cls-2" points="508.94 78.75 495.02 73.63 484.23 176.27 493.27 179.8 510.9 83.28 508.94 78.75"/><polygon class="cls-3" points="508.94 78.75 510.9 83.28 493.27 179.8 490.45 178.7 508.87 79.04 508.94 78.75"/><path class="cls-4" d="M500.42,181.31l-20.93,10.75s-7.45-5.44-8-13.15l18.6-14.59Z"/><path class="cls-5" d="M493.3,174c2.84,4.7,6,8,7.12,7.3s-.32-5-3.17-9.69-6-8-7.13-7.3S490.45,169.32,493.3,174Z"/><path class="cls-6" d="M490.29,164.59l-.17-.27-18.6,14.59c.52,7.71,8,13.15,8,13.15l.56-.29c.8-2.76,1.64-5.52,2.6-8.23C485,177.09,487.57,170.76,490.29,164.59Z"/><path class="cls-2" d="M484.51,173.61l-29.17-48.27L447.61,139l30.84,39.54S484,178.93,484.51,173.61Z"/><path class="cls-3" d="M455.34,125.34l29.17,48.27a6,6,0,0,1-.54,2l-32.79-42.91Z"/><path class="cls-4" d="M463.73,126.69c4-12.17-7.83-32.55-33.57-52.9S377,46.89,367.58,56.94L353.07,79.83l90.56,69.55S460.74,129.78,463.73,126.69Z"/><path class="cls-6" d="M463.05,113.55c-3.78-11.41-15-25.59-32.89-39.76C404.41,53.44,377,46.89,367.58,56.94L353.07,79.83,355,81.32l24.85-21.1S427,59.64,463.05,113.55Z"/><path class="cls-6" d="M375.22,52.9a14.62,14.62,0,0,0-7.64,4L353.07,79.83l1.09.84c4.68-6.69,9.54-13.28,14.45-19.78C370.62,58.16,372.9,55.52,375.22,52.9Z"/><path class="cls-5" d="M463.84,116.3c-1.18-5-3.94-10.69-8.21-16.72-4,2.09-7.93,4.24-11.88,6.24-11.69,5.85-23.6,11.22-35.66,16.26l27.28,21c7.13-6.31,14-12.86,20.89-19.43C458.75,121.18,461.29,118.75,463.84,116.3Z"/><path class="cls-6" d="M354,78.51c-9.17,11.6,3.47,36.86,28.23,56.43s52.26,26,61.42,14.44S440.15,112.52,415.39,93,363.14,66.92,354,78.51Z"/><path class="cls-6" d="M415.39,93c-18.12-14.32-37.7-21.61-50.49-20a58,58,0,0,1,12.67,3.56c17.14,7.18,31.94,21,41.7,36.49,7,10.75,14.41,28.5,2.2,38.57a28.57,28.57,0,0,1-3.08,2.13c11.28,2.73,20.61,1.49,25.24-4.37C452.79,137.78,440.15,112.52,415.39,93Z"/><path class="cls-7" d="M394.12,92.66c-2.52,3.67,1.68,11,9.38,16.24s16,6.62,18.52,2.95-1.67-10.94-9.38-16.23S396.65,89,394.12,92.66Z"/><path class="cls-5" d="M394.12,92.66a4,4,0,0,1,1.07-1c-2,3.77,2.13,10.73,9.58,15.86,6.84,4.71,14.14,6.27,17.46,4a3.25,3.25,0,0,1-.21.37c-2.52,3.67-10.81,2.35-18.52-2.95S391.6,96.33,394.12,92.66Z"/><path class="cls-8" d="M356.66,81.82c-2.52,3.67,1.68,11,9.38,16.24s16,6.62,18.52,3-1.68-10.94-9.38-16.23S359.18,78.16,356.66,81.82Z"/><path class="cls-5" d="M356.66,81.82a4.15,4.15,0,0,1,1.06-1c-2,3.77,2.13,10.73,9.59,15.86,6.84,4.71,14.14,6.27,17.45,4a2.64,2.64,0,0,1-.2.37c-2.52,3.67-10.82,2.35-18.52-3S354.14,85.49,356.66,81.82Z"/><path class="cls-9" d="M412.24,126.66c-2.53,3.67,1.67,10.94,9.37,16.24s16,6.62,18.53,2.95-1.68-10.94-9.38-16.24S414.76,123,412.24,126.66Z"/><path class="cls-5" d="M412.24,126.66a3.85,3.85,0,0,1,1.06-1c-2,3.77,2.13,10.73,9.58,15.86,6.85,4.71,14.14,6.27,17.46,4-.07.12-.12.25-.2.37-2.53,3.67-10.82,2.35-18.53-2.95S409.71,130.33,412.24,126.66Z"/><path class="cls-10" d="M378,118.69c-2.2,3.2,1.46,9.54,8.17,14.16s13.95,5.77,16.15,2.57-1.47-9.54-8.18-14.15S380.2,115.5,378,118.69Z"/><path class="cls-5" d="M378,118.69a3.58,3.58,0,0,1,.92-.9c-1.76,3.29,1.86,9.36,8.36,13.83,6,4.1,12.32,5.46,15.21,3.47a3.41,3.41,0,0,1-.17.33c-2.2,3.2-9.43,2.05-16.15-2.57S375.8,121.89,378,118.69Z"/><path class="cls-2" d="M406.56,119.75a18.16,18.16,0,0,0-12.7-11.89l-4.25,4.63s1.18,4.66,4.18,7.37S401.9,124,401.9,124Z"/><path class="cls-11" d="M398,109.43c-.34.41-.67.81-1,1.19-1.76,2.23-3.44,4.54-5.2,6.81a12.09,12.09,0,0,0,2,2.43,13.4,13.4,0,0,0,1.09.87c2.91-2.14,6-4.12,9.13-6A17.7,17.7,0,0,0,398,109.43Z"/><path class="cls-3" d="M401.9,124s-5.11-1.41-8.11-4.12-4.18-7.37-4.18-7.37A23.56,23.56,0,0,1,401.9,124Z"/><rect class="cls-2" x="464.2" width="139.83" height="5.98"/><path class="cls-4" d="M534.37,3.41H607.3l-9,16.86s-21.78,2-63.94,2-63.94-2-63.94-2l-9-16.86Z"/><path class="cls-6" d="M470.43,20.27l-9-16.86h18.37c2.56,5.44,6.11,12.14,9.3,18C476.74,20.84,470.43,20.27,470.43,20.27Z"/><path class="cls-5" d="M598.31,20.27s-9.94.9-29.36,1.48a121.45,121.45,0,0,0,9.42-18.34H607.3Z"/><path class="cls-6" d="M501.59,21.8l-6.66-.21c-3-5.13-6.8-11.95-10-18.18h3A86.61,86.61,0,0,0,501.59,21.8Z"/><path class="cls-4" d="M516.37,85.88,489.1,72.94s-.27-11.83,7.17-18.37l29.37,7.57Z"/><path class="cls-6" d="M501.13,64.61c10.76-5.13,24.51-2.47,24.51-2.47l-29.37-7.57c-7.44,6.54-7.17,18.37-7.17,18.37l.75.36.09-.13C492.79,69.05,496.65,66.75,501.13,64.61Z"/><path class="cls-5" d="M518.24,72.93c-2.56,6.55-3.4,12.35-1.87,12.95s4.84-4.24,7.4-10.79,3.4-12.36,1.87-13S520.8,66.37,518.24,72.93Z"/><path class="cls-6" d="M356.58,166.18l1-10.75.26-2.89,1.61,2.5,2.14,3.33L393.2,117.2l.11-.15c1.06-1.2,5.43,2.62,4.37,3.83l-35.3,40.31-1.13,1.29-.8-1.44-1.36-2.44-1.43,9.22-.24,1.51-.86-1.22-2.08-2.94L349,177.93l4.92-13.9.28-.77.54.66Z"/><path class="cls-4" d="M397,118.76,361.72,159l-1.13,1.3-.81-1.44-1.35-2.44L357,165.67l-.24,1.52L355.9,166l-1.76-2.49-.2.56L349,177.93l5.46-12.76,2.08,2.94.86,1.22.24-1.51,1.43-9.22,1.36,2.44.8,1.44,1.13-1.29,35.3-40.31C398.09,120.41,397.69,119.57,397,118.76Z"/><path class="cls-12" d="M345.48,174.35a4.71,4.71,0,1,0,6.11-2.67A4.72,4.72,0,0,0,345.48,174.35Z"/><path class="cls-6" d="M443.63,149.38s.31-.43.85-1.27a14.23,14.23,0,0,0,1.58-4,19.66,19.66,0,0,0,.26-6.64,34.47,34.47,0,0,0-2.17-8.36,56.7,56.7,0,0,0-4.59-9.15,89.77,89.77,0,0,0-6.63-9.33,114.5,114.5,0,0,0-17.8-17.35A119.35,119.35,0,0,0,404.82,86a107.36,107.36,0,0,0-10.69-6,88.64,88.64,0,0,0-10.6-4.3,56.47,56.47,0,0,0-10-2.35,34.17,34.17,0,0,0-8.63-.18,19.57,19.57,0,0,0-6.4,1.79A14.49,14.49,0,0,0,355,77.39c-.69.72-1,1.12-1,1.12s.33-.41,1-1.14a14.42,14.42,0,0,1,3.48-2.56,19.79,19.79,0,0,1,6.42-2,32.66,32.66,0,0,1,8.73,0,56.48,56.48,0,0,1,10.1,2.23,81.31,81.31,0,0,1,10.73,4.23,106,106,0,0,1,10.8,6,120.55,120.55,0,0,1,10.4,7.33,115.14,115.14,0,0,1,17.85,17.56,81,81,0,0,1,6.59,9.47,56.42,56.42,0,0,1,4.5,9.31,32.53,32.53,0,0,1,2,8.49,19.8,19.8,0,0,1-.43,6.7,14.14,14.14,0,0,1-1.68,4C444,149,443.63,149.38,443.63,149.38Z"/><path class="cls-13" d="M0,219.62,354.84,77.54l4.06-2.85c12-5.67,35.23,1.45,56.49,18.26,20.1,15.89,32.22,35.53,31.16,48.56l-.88,3.69-1,2.66L345.16,386.3Z"/></g></g></g></svg>