<svg xmlns="http://www.w3.org/2000/svg" viewBox="0 0 412.4 139.31"><defs><style>.cls-1{fill:#304b96;}.cls-2{fill:#7289da;}.cls-3{opacity:0.46;}.cls-4{opacity:0.62;}.cls-5{fill:#cfd3e2;}.cls-6{fill:#fff;}.cls-7{fill:#eace00;}</style></defs><g id="Layer_2" data-name="Layer 2"><g id="What_is_ELI" data-name="What is ELI"><g id="What_is_Eli-2" data-name="What is Eli"><path class="cls-1" d="M393.73,14.12H389.3l-369.77.16V16.8c-.14.17-.3.05-.44,0s-.18-.27-.28.7c-.16,1.51-.3,4.75-.59,4.69,0,0-.15-.2-.21.07a14.09,14.09,0,0,0-.09,1.84c0,.57,0,1,0,1.55,0,.36-.05.66-.06,1-.2-.15-.43-.49-.63.05,0,.69,0,1.29,0,2a6.94,6.94,0,0,1,.1.77V30a7.65,7.65,0,0,0,.14,1.16c.1.39.23,0,.34.1a22.4,22.4,0,0,0,.09,2.84,5.07,5.07,0,0,0,.28.83,3.35,3.35,0,0,1,.19,1.22c.06,1,.19,2.21.19,3.36,0,1.73-.24,3-.23,4.76,0,.37,0,.72,0,1.05,0,.76,0,1.53,0,2.32v2.47c-.05.15-.11.2-.16.16a1.89,1.89,0,0,0-.2.46c-.05.07-.09,0-.14.14a5,5,0,0,0-.13,1.39c0,1.1-.12,2.23-.19,3.23a8.4,8.4,0,0,1-.12,1.22c-.07.29-.18.26-.25.54A12.1,12.1,0,0,0,17,60.09c.05.06.11-.15.17,0a8.16,8.16,0,0,1,.08,1.4c0,.41.05.83,0,1.25a8.41,8.41,0,0,0-.18,1.58c0,.14.06.31.08.52s0,.53,0,.81,0,.88.07,1.18c.16,1.39.53.74.51,3.34a18.87,18.87,0,0,1-.14,2,22.35,22.35,0,0,0-.13,3.17c0,.84.06,1.34.06,2.24s0,1.87-.09,2.79a5.8,5.8,0,0,1-.16,1.5,2.91,2.91,0,0,0-.23,1c-.05.52,0,1,0,1.59a3.86,3.86,0,0,0,0,1,10.88,10.88,0,0,0-.26,1.13V92.5c0,.58.07,1.24.08,1.57,0,.5.05.9.08,1.35s0,1,0,1.43a5.21,5.21,0,0,0,.08.55,13,13,0,0,0,.14,2,2.73,2.73,0,0,0,0-.57c0,1,0,1.91.06,2.86.05.46.14.6.2,1,.08,1,.1,2.06.08,3.08a21.06,21.06,0,0,0,.11,2.75c0,.31.08.7.11,1s0,.77,0,1.12c.05.82.14,1,.21,1.74s.06,2.17.07,3.16c0,.64.07,1.58.05,2.19l371.2-.16h3c0-.62,0-1.56-.05-2.2,0-1,0-2.39-.07-3.16s-.17-.91-.22-1.73a10.11,10.11,0,0,0,0-1.12c0-.33-.08-.74-.1-1.06-.09-.78-.11-1.73-.12-2.74a29,29,0,0,0-.08-3.09c-.06-.39-.15-.53-.2-1-.06-.95-.08-1.9-.05-2.86a2.81,2.81,0,0,1,0,.58,12,12,0,0,1-.14-2,4.68,4.68,0,0,0-.08-.54c0-.48,0-1,0-1.44s-.05-.85-.08-1.34c0-.34,0-1-.08-1.57V86.48a9.36,9.36,0,0,1,.26-1.14,3.78,3.78,0,0,1,0-1c0-.63,0-1.07,0-1.6a2.86,2.86,0,0,1,.23-1,5.89,5.89,0,0,0,.16-1.5c.05-.92.08-1.77.08-2.8s0-1.39,0-2.24a19.74,19.74,0,0,1,.13-3.17,19.77,19.77,0,0,0,.13-2c0-2.59-.34-1.94-.51-3.34,0-.29,0-.82-.07-1.18s0-.54,0-.8-.05-.39-.08-.53a9.2,9.2,0,0,1,.17-1.57,8.83,8.83,0,0,0,0-1.26,7.27,7.27,0,0,0-.08-1.4c-.05-.18-.12,0-.17,0a12.86,12.86,0,0,1,.29-2.84c.08-.27.19-.25.25-.53a8.56,8.56,0,0,0,.13-1.23c.07-1,.15-2.13.19-3.22a5.49,5.49,0,0,1,.12-1.4c.06-.15.1-.07.15-.14a1.69,1.69,0,0,1,.2-.46c.05,0,.11,0,.16-.16V47.44c0-.76,0-1.56,0-2.32,0-.33,0-.68,0-1,0-1.79.23-3,.23-4.76,0-1.15-.12-2.37-.19-3.36a3.35,3.35,0,0,0-.18-1.22,4.77,4.77,0,0,1-.28-.83,19.22,19.22,0,0,1-.09-2.84c-.12-.13-.24.29-.35-.1a9.15,9.15,0,0,1-.13-1.16v-.5a4.12,4.12,0,0,0-.1-.77,16.19,16.19,0,0,1,0-2c.19-.53.42-.18.62,0,0-.37.06-.7.07-1V23.94a11.29,11.29,0,0,1,.09-1.84c.05-.26.15-.09.21-.07.29.07.42-3.18.58-4.69.11-1,.12-.74.28-.7s.3.15.44,0A15,15,0,0,1,393.73,14.12Z"/><path class="cls-2" d="M393.7,12.11h-4.45l-369.77.17V14.8c-.13.16-.3,0-.43,0s-.19-.27-.29.7c-.16,1.51-.29,4.75-.58,4.68-.06,0-.16-.18-.22.07a12.79,12.79,0,0,0-.08,1.85c0,.57,0,.95,0,1.55,0,.37-.05.66-.06,1-.21-.15-.43-.49-.63,0,0,.7,0,1.31,0,2,0,.22.07.48.1.78V28a7.48,7.48,0,0,0,.12,1.16c.11.4.23,0,.34.1a22.46,22.46,0,0,0,.09,2.84,6.23,6.23,0,0,0,.28.83,3.13,3.13,0,0,1,.19,1.21c.07,1,.19,2.22.19,3.37,0,1.73-.24,3-.23,4.77l0,1c0,.75.05,1.52,0,2.31v2.47c-.05.15-.1.2-.16.16a2.34,2.34,0,0,0-.19.46c-.05.08-.09,0-.15.14a5.45,5.45,0,0,0-.12,1.39c0,1.09-.12,2.22-.19,3.22a8.54,8.54,0,0,1-.12,1.23c-.07.29-.18.27-.26.53A12.86,12.86,0,0,0,16.87,58c.05.05.12-.14.17,0a8.17,8.17,0,0,1,.09,1.4,8.79,8.79,0,0,1,0,1.26A7.55,7.55,0,0,0,17,62.31c0,.14.05.31.07.53s0,.53,0,.8,0,.89.07,1.18c.16,1.39.53.75.51,3.35a17.48,17.48,0,0,1-.14,2,22.21,22.21,0,0,0-.13,3.16c0,.84.06,1.35.06,2.24a27.87,27.87,0,0,1-.09,2.79,5.84,5.84,0,0,1-.16,1.5,2.86,2.86,0,0,0-.23,1c0,.53,0,1,0,1.6a3.82,3.82,0,0,0,.11,1,8.8,8.8,0,0,0-.26,1.13v5.85c0,.58.06,1.23.07,1.56,0,.5.05.9.08,1.34s0,1,0,1.44a5.21,5.21,0,0,0,.08.55,11.79,11.79,0,0,0,.14,2,2.73,2.73,0,0,0,0-.57,27.11,27.11,0,0,0,.06,2.85c.05.47.15.61.2,1a30.08,30.08,0,0,1,.08,3.09,23.08,23.08,0,0,0,.11,2.74c0,.32.08.69.11,1s0,.77,0,1.12c.05.83.14,1.06.21,1.74s.06,2.17.08,3.16c0,.64.06,1.58,0,2.2l371.2-.16h3c0-.62,0-1.56-.05-2.2,0-1,0-2.39-.07-3.16s-.17-.91-.22-1.74a10,10,0,0,0,0-1.11c0-.33-.07-.74-.11-1.06-.08-.78-.1-1.73-.11-2.74s0-2.32-.07-3.09c-.07-.4-.16-.53-.21-1-.06-.94-.08-1.89-.05-2.84a3.6,3.6,0,0,1,0,.56,14.39,14.39,0,0,1-.14-2c0-.23-.06-.32-.07-.55a14.05,14.05,0,0,0,0-1.44c0-.49,0-.84-.07-1.34,0-.33,0-1-.08-1.56V84.5a10.88,10.88,0,0,1,.26-1.13,3.78,3.78,0,0,1,0-1c0-.62,0-1.07,0-1.6a2.91,2.91,0,0,1,.23-1,5.77,5.77,0,0,0,.16-1.49c.06-.92.09-1.78.09-2.8s0-1.39-.06-2.24a22.35,22.35,0,0,1,.13-3.17,19.59,19.59,0,0,0,.14-2c0-2.59-.35-1.94-.51-3.34,0-.29-.05-.82-.07-1.18s0-.54,0-.8a3.23,3.23,0,0,0-.08-.53,8.3,8.3,0,0,1,.18-1.57c0-.43,0-.85,0-1.27A8.11,8.11,0,0,0,391.3,58c-.05-.19-.12,0-.17,0a12.25,12.25,0,0,1,.29-2.83c.08-.28.19-.25.26-.54s.1-.82.12-1.23c.07-1,.15-2.09.19-3.22a5.37,5.37,0,0,1,.12-1.39c.06-.15.1-.07.15-.14a2.34,2.34,0,0,1,.19-.46c.06,0,.11,0,.16-.16V45.47c0-.76,0-1.56,0-2.32l0-1c0-1.81.23-3,.23-4.77,0-1.15-.13-2.38-.19-3.36a3.15,3.15,0,0,0-.19-1.22,5.62,5.62,0,0,1-.28-.88A19.22,19.22,0,0,1,392,29c-.12-.13-.24.3-.35-.09a7.61,7.61,0,0,1-.12-1.16v-.5a4.07,4.07,0,0,0-.11-.77c0-.7,0-1.24,0-2,.21-.53.43-.19.63,0,0-.37.06-.7.06-1V21.93a14.24,14.24,0,0,1,.09-1.85c.06-.26.16-.08.22-.06.29.06.42-3.18.58-4.7.11-1,.13-.74.29-.69s.3.14.43,0C393.71,13.8,393.7,13,393.7,12.11Z"/><g class="cls-3"><g class="cls-4"><path class="cls-5" d="M5.11,39.56l.8-.39.48-.24L61.83,11.22c0-.08-.09-.18-.14-.27a.27.27,0,0,1,.12-.06s.07,0,0-.12-.17-.54-.08-.58,0,0,.06,0a.9.9,0,0,0-.08-.21.83.83,0,0,1-.09-.16.2.2,0,0,0,0-.12s.16,0,.18-.09a1,1,0,0,0-.1-.21.23.23,0,0,1-.07-.07v0s-.06-.09-.1-.1-.06,0-.1,0a.88.88,0,0,0-.18-.29H61.1c-.05,0-.05,0-.12-.11a2.75,2.75,0,0,1-.23-.33c-.09-.19-.09-.35-.19-.54l-.06-.11a1.76,1.76,0,0,1-.14-.23c0-.09-.09-.19-.12-.27a0,0,0,0,1,0,0V7.14h0A.36.36,0,0,0,60.19,7a2.07,2.07,0,0,1-.11-.37.33.33,0,0,1,0-.14.11.11,0,0,1,0-.1A.57.57,0,0,0,60.05,6h0s-.07-.09-.1-.14a.57.57,0,0,1-.08-.13.47.47,0,0,0,0-.19c0-.09,0,0-.06,0l-.05-.09a.44.44,0,0,0-.08-.11c-.12-.13-.2,0-.32-.29a.62.62,0,0,1-.07-.23,1.13,1.13,0,0,0-.14-.36c0-.08-.08-.13-.13-.23a1.66,1.66,0,0,1-.12-.31c0-.1,0-.14,0-.18a.19.19,0,0,0,0-.15,1.22,1.22,0,0,0-.07-.17s0-.07-.06-.1a.43.43,0,0,0,0-.16l-.31-.63-.11-.15-.09-.13-.09-.15s0,0-.05-.05-.12-.21-.15-.19v.07a1.08,1.08,0,0,0-.16-.3s-.07,0-.11-.07a1.35,1.35,0,0,1-.19-.33.91.91,0,0,0-.18-.27V.82L57.19.71A.75.75,0,0,0,57,.55a2.07,2.07,0,0,1-.19-.32c0-.07-.1-.16-.13-.23L.87,27.93l-.48.23-.39.2a1.71,1.71,0,0,0,.13.23c.06.11.12.22.19.33a.71.71,0,0,1,.15.15l.07.11.09.1a2.11,2.11,0,0,1,.18.27,1.65,1.65,0,0,0,.18.32s.07,0,.11.08a1.22,1.22,0,0,1,.17.29.06.06,0,0,1,0-.06s.11.15.15.19l.05.05s.05.1.09.14l.09.14.1.15.32.63v.15c0,.05,0,.06.05.11a.51.51,0,0,1,.07.17.2.2,0,0,1,0,.15.39.39,0,0,0,0,.18,1.66,1.66,0,0,0,.12.31c0,.08.09.15.14.23a1.14,1.14,0,0,1,.13.35.94.94,0,0,0,.06.24c.13.28.2.16.33.29l.08.11.05.08,0,0c.06.09,0,.12,0,.19a.35.35,0,0,0,.08.13.18.18,0,0,0,.1.14s0,0,0,0a.5.5,0,0,1,.08.32s0,0,0,.09a.38.38,0,0,0,0,.15,1.07,1.07,0,0,0,.12.37c0,.13.06.12,0,.17h0a.11.11,0,0,1,0,.08s0,0,0,0l.13.26.13.24a.41.41,0,0,1,.07.11c.1.19.1.35.19.54l.23.33c.07.08.07.08.12.1l.13.05a1.05,1.05,0,0,1,.17.29s.06-.07.11,0,.06.07.09.11v0l.07.07a.7.7,0,0,1,.11.21c0,.08-.11.07-.18.09v.12c0,.06.06.1.09.16a.9.9,0,0,1,.08.21H5a3.42,3.42,0,0,0,.09.58c0,.18,0,.1,0,.12a.27.27,0,0,0-.12.06Z"/></g><g class="cls-4"><path class="cls-5" d="M403.48,83.63l-.6.67-.35.39-41.4,46.16.23.2s-.06.08-.09.11-.07,0,0,.12.36.45.29.51-.05,0,0,.05a.61.61,0,0,0,.14.17c0,.05.1.07.15.12l.07.1a.14.14,0,0,0-.12.15.85.85,0,0,0,.17.16.18.18,0,0,1,.09,0l.05,0a.31.31,0,0,0,.13.06c.05,0,0-.06.08-.07a1.05,1.05,0,0,0,.27.2h.14a.21.21,0,0,1,.15,0l.33.23c.15.14.21.29.37.43l.11.08.21.17.22.2V134a.27.27,0,0,0,0,.09v0a.33.33,0,0,0,.1.14c.06.06.17.21.25.3a.57.57,0,0,1,.08.13v.1a.73.73,0,0,0,.19.3,0,0,0,0,1,0,0,.49.49,0,0,1,.15.09.52.52,0,0,1,.11.1c.05.05,0,.1.11.16h.06l.07.06.13.08c.15.07.17-.07.4.14a1,1,0,0,1,.15.2.84.84,0,0,0,.25.28l.21.17a1.75,1.75,0,0,1,.23.24c.07.07.1.1.1.15a.2.2,0,0,0,.05.15.53.53,0,0,0,.13.13s0,.06.08.07a.75.75,0,0,0,0,.16l.52.47.15.1.13.09.14.1H368s.18.15.2.12a.1.1,0,0,0,0-.05,1.38,1.38,0,0,0,.26.22h.13a1.63,1.63,0,0,1,.29.23,1.57,1.57,0,0,0,.26.19l.12.06.11.08c.08,0,.13,0,.2.09a2.09,2.09,0,0,1,.29.23c.06,0,.16.11.21.16l41.69-46.47.36-.4.29-.32c0-.05-.15-.11-.21-.17a2.26,2.26,0,0,0-.29-.23l-.2-.09s-.07,0-.1-.07l-.13-.06a2.48,2.48,0,0,1-.26-.19,1.09,1.09,0,0,0-.29-.23.22.22,0,0,1-.13,0,1.12,1.12,0,0,1-.26-.22l0,0-.21-.12h-.06l-.14-.1-.13-.09-.16-.11-.51-.46a.88.88,0,0,1-.05-.15c-.05,0-.05,0-.08-.08a.83.83,0,0,1-.14-.13.2.2,0,0,1,0-.15.4.4,0,0,0-.1-.15,1.75,1.75,0,0,0-.23-.24,1.73,1.73,0,0,0-.21-.17,1.16,1.16,0,0,1-.26-.28.55.55,0,0,0-.15-.2c-.22-.21-.24-.07-.4-.14l-.12-.08-.08-.06h-.06c-.08-.06-.05-.11-.1-.17l-.12-.09c-.05,0-.1-.09-.14-.09s0,0,0,0a.64.64,0,0,1-.19-.3v-.11a.83.83,0,0,0-.08-.12,3.31,3.31,0,0,0-.25-.3c-.08-.09-.09-.09-.09-.14v-.13a0,0,0,0,0,0,0l-.22-.2-.21-.17-.1-.08c-.16-.14-.22-.29-.38-.43a2.75,2.75,0,0,0-.33-.23c-.09,0-.09,0-.15,0a.57.57,0,0,1-.13,0c-.09,0-.18-.13-.28-.2s0,.07-.08.07a.31.31,0,0,1-.13-.06l-.05,0-.08,0a.69.69,0,0,1-.18-.16c0-.09.07-.12.13-.16a.36.36,0,0,1-.08-.09l-.14-.12a.79.79,0,0,1-.14-.17s0,0,0,0-.2-.35-.29-.51,0-.09,0-.12a.48.48,0,0,0,.09-.11Z"/></g></g><path class="cls-6" d="M92.05,75.29l4.61-24.36h7L96.1,85.16H89l-5.57-22.9-5.58,22.9h-7.1L63.16,50.93h7l4.63,24.31,5.64-24.31h6Z"/><path class="cls-6" d="M113.69,62.5a9.09,9.09,0,0,1,3-2.39,8.41,8.41,0,0,1,3.82-.86,10.64,10.64,0,0,1,3.43.53,6.38,6.38,0,0,1,2.66,1.72,7.89,7.89,0,0,1,1.7,3.07,15.09,15.09,0,0,1,.6,4.56v16h-6.79V69.08a6.59,6.59,0,0,0-.27-2,3.13,3.13,0,0,0-.79-1.33,2.84,2.84,0,0,0-1.28-.72,6.56,6.56,0,0,0-1.73-.21,5.26,5.26,0,0,0-2.66.62,4.61,4.61,0,0,0-1.66,1.68V85.16h-6.8V49.05h6.8Z"/><path class="cls-6" d="M148.74,85.16a7.59,7.59,0,0,1-.68-2.28,8.83,8.83,0,0,1-2.6,2,8.21,8.21,0,0,1-3.82.8,10.06,10.06,0,0,1-3.42-.56,8.36,8.36,0,0,1-2.75-1.58A7.14,7.14,0,0,1,133,78a8.16,8.16,0,0,1,.74-3.55A6.85,6.85,0,0,1,136,71.83a10.57,10.57,0,0,1,3.68-1.64,20.51,20.51,0,0,1,5.11-.57h3V68.16a4.18,4.18,0,0,0-.91-2.82A3.56,3.56,0,0,0,144,64.28a4.05,4.05,0,0,0-2.7.83,2.79,2.79,0,0,0-1,2.25h-6.8a6.73,6.73,0,0,1,.77-3.12,7.85,7.85,0,0,1,2.17-2.59,10.86,10.86,0,0,1,3.41-1.75,14.49,14.49,0,0,1,4.47-.65,14.09,14.09,0,0,1,4.09.57,9.08,9.08,0,0,1,3.24,1.68,7.62,7.62,0,0,1,2.13,2.8,9.34,9.34,0,0,1,.77,3.91V79c0,.72,0,1.37.07,1.94s.11,1.09.18,1.55a7.87,7.87,0,0,0,.31,1.25,6.94,6.94,0,0,0,.45,1v.4Zm-5.62-4.72a5.86,5.86,0,0,0,1.61-.21,6,6,0,0,0,1.33-.56,4.57,4.57,0,0,0,1.72-1.7V73.6H145a8.11,8.11,0,0,0-2.33.29,4.57,4.57,0,0,0-1.62.82,3.26,3.26,0,0,0-.94,1.25,3.85,3.85,0,0,0-.31,1.56,2.69,2.69,0,0,0,.9,2.09A3.45,3.45,0,0,0,143.12,80.44Z"/><path class="cls-6" d="M168,53.47v6.25h4.35v5H168V77.4a4.4,4.4,0,0,0,.16,1.32,1.68,1.68,0,0,0,1.31,1.21,5.37,5.37,0,0,0,1.14.11c.41,0,.78,0,1.12-.05a8.56,8.56,0,0,0,.88-.12V85a16.79,16.79,0,0,1-1.85.44,13.92,13.92,0,0,1-2.27.17,10.1,10.1,0,0,1-3-.41,5.83,5.83,0,0,1-2.29-1.3,6,6,0,0,1-1.47-2.33,10.37,10.37,0,0,1-.52-3.46V64.71h-3.71v-5h3.71V53.47Z"/><path class="cls-6" d="M188,53.14a3.36,3.36,0,0,1,1-2.52,3.87,3.87,0,0,1,2.79-1,4.35,4.35,0,0,1,1.57.26,3.43,3.43,0,0,1,1.2.72,3.35,3.35,0,0,1,.77,1.12,3.82,3.82,0,0,1,0,2.82,3.25,3.25,0,0,1-.77,1.12,3.45,3.45,0,0,1-1.2.73,4.57,4.57,0,0,1-1.57.26,4.63,4.63,0,0,1-1.58-.26,3.45,3.45,0,0,1-1.2-.73,3.22,3.22,0,0,1-.76-1.12A3.63,3.63,0,0,1,188,53.14Zm7.22,32h-6.82V59.72h6.82Z"/><path class="cls-6" d="M214.62,78.13a2.24,2.24,0,0,0-.21-1,2.17,2.17,0,0,0-.8-.84,7.58,7.58,0,0,0-1.6-.74,21.71,21.71,0,0,0-2.61-.68,25.13,25.13,0,0,1-3.61-1.06,11.38,11.38,0,0,1-2.87-1.57A7.12,7.12,0,0,1,201,70.07a6,6,0,0,1-.68-2.89,6.94,6.94,0,0,1,.69-3,7.52,7.52,0,0,1,2-2.52,9.7,9.7,0,0,1,3.2-1.73,13.44,13.44,0,0,1,4.27-.64,15.28,15.28,0,0,1,4.44.61,10.17,10.17,0,0,1,3.35,1.71,7.56,7.56,0,0,1,2.12,2.6,7.39,7.39,0,0,1,.74,3.29h-6.8a3.27,3.27,0,0,0-.94-2.41,4,4,0,0,0-2.94-1,4.13,4.13,0,0,0-2.66.77,2.48,2.48,0,0,0-.94,2,2.06,2.06,0,0,0,.25,1,2.53,2.53,0,0,0,.8.8,6.72,6.72,0,0,0,1.46.67,17.79,17.79,0,0,0,2.22.56,30.91,30.91,0,0,1,3.83,1,11.43,11.43,0,0,1,3.05,1.51,7,7,0,0,1,2,2.26,6.68,6.68,0,0,1,.73,3.21,6.49,6.49,0,0,1-.76,3.12,7.24,7.24,0,0,1-2.15,2.45A10.9,10.9,0,0,1,215,85.05a15.56,15.56,0,0,1-4.42.58,13.73,13.73,0,0,1-4.73-.75,10.92,10.92,0,0,1-3.44-2,8.35,8.35,0,0,1-2.11-2.76,7.24,7.24,0,0,1-.7-3.08H206a3.92,3.92,0,0,0,.44,1.71,3.19,3.19,0,0,0,1,1.16,4.29,4.29,0,0,0,1.47.66,7.11,7.11,0,0,0,1.75.21,4.88,4.88,0,0,0,3-.74A2.29,2.29,0,0,0,214.62,78.13Z"/><path class="cls-7" d="M245,30.57c.59,0,2.53,0,5.82-.1s5.9-.1,7.82-.1h5a30.46,30.46,0,0,1,3.8.14,2.16,2.16,0,0,1,1.2.54,2.48,2.48,0,0,1,.76,1.92,2.68,2.68,0,0,1-.42,1.44,14.09,14.09,0,0,1-1.91,2.2l-2.33,2.46h-7.47q-7.33,0-9.8.28l-2.27.2V54.08c2.11,0,5.28,0,9.53-.14s7.45-.13,9.59-.13l1.51,1.5a8.67,8.67,0,0,1,1.3,1.51,2.89,2.89,0,0,1,.28,1.44,2.94,2.94,0,0,1-.28,1.41,7.35,7.35,0,0,1-1.23,1.47l-1.44,1.51h-8.84q-8.43,0-9.66.2c-.37.09-.58.45-.65,1.06s-.11,2.74-.11,6.34v7.2h19.26l2.47,2.4A14.51,14.51,0,0,1,269,82.08a2.63,2.63,0,0,1,.42,1.47,3,3,0,0,1-.62,1.92,4,4,0,0,1-2.33.58q-1.86.11-12.06.24h-5.76c-5.35,0-8.2-.05-8.57-.14s-.64-.57-.82-1.3-.34-1-.75-1a2.19,2.19,0,0,1-1.3-.61,2.87,2.87,0,0,1-.66-2c-.06-1-.1-4.17-.1-9.56V60.87l2.33-2.33c-.27-.28-.66-.66-1.16-1.14s-.89-.83-1.17-1.06V45.51c0-5.07,0-8.17.1-9.32a3.65,3.65,0,0,1,.59-2.19,1.83,1.83,0,0,1,1.3-.62c.46,0,.69-.2.69-.61a2.22,2.22,0,0,1,.82-1.37,2.7,2.7,0,0,1,1.4-.62A36.49,36.49,0,0,1,245,30.57Z"/><path class="cls-7" d="M278.29,33a2.56,2.56,0,0,1,1.65-.61c1.19,0,2.65.93,4.38,2.81L286,37V78.13h19.87l1.92,1.72q2.75,2.67,2.74,4.11a2.77,2.77,0,0,1-1,1.92l-1,1H281.93l-1-1c-.64-.64-1-1.14-1-1.51s-.23-.55-.69-.55a1.65,1.65,0,0,1-1.3-.89,5.24,5.24,0,0,1-.58-2.64c-.07-1.34-.11-5.08-.11-11.2V57.85l.14-24.19Z"/><path class="cls-7" d="M320.23,32.29c1.1-1.1,2-1.65,2.68-1.65a4.84,4.84,0,0,1,2.74,1.58l1.71,1.58V82.73l-1.71,1.57a4.84,4.84,0,0,1-2.74,1.58c-.69,0-1.58-.55-2.68-1.65l-1.64-1.64V33.93Z"/></g></g></g></svg>