<svg xmlns="http://www.w3.org/2000/svg" xmlns:xlink="http://www.w3.org/1999/xlink" viewBox="0 0 1928.62 225.48"><defs><style>.cls-1{fill:#1f1851;}.cls-1,.cls-2,.cls-3{fill-rule:evenodd;}.cls-2{fill:url(#linear-gradient);}.cls-3{fill:#120a2d;}</style><linearGradient id="linear-gradient" x1="964.31" y1="145.34" x2="964.31" y2="95.49" gradientUnits="userSpaceOnUse"><stop offset="0" stop-color="#955bc4" stop-opacity="0"/><stop offset="0.55" stop-color="#bc74ca" stop-opacity="0.1"/><stop offset="0.66" stop-color="#bd75ca" stop-opacity="0.11"/><stop offset="0.73" stop-color="#c076cb" stop-opacity="0.15"/><stop offset="0.8" stop-color="#c479cb" stop-opacity="0.21"/><stop offset="0.85" stop-color="#cb7dcc" stop-opacity="0.3"/><stop offset="0.91" stop-color="#d483ce" stop-opacity="0.42"/><stop offset="0.96" stop-color="#df89cf" stop-opacity="0.56"/><stop offset="1" stop-color="#e990d1" stop-opacity="0.7"/></linearGradient></defs><g id="Layer_2" data-name="Layer 2"><g id="Upper_Separator" data-name="Upper Separator"><polygon class="cls-1" points="1928.62 222.57 1928.62 88.11 1672.55 135.54 1402.62 133.2 1159.57 159.16 751.44 145.08 554.47 150.9 247.48 95.55 0 0 0 222.57 1928.62 222.57"/><polygon class="cls-1" points="1928.62 225.48 1928.62 91.02 1673.07 136.11 1402.62 136.11 1159.61 159.93 751.44 147.99 554.47 153.81 247.34 96.91 0 2.91 0 225.48 1928.62 225.48"/><polygon class="cls-2" points="1928.62 222.57 1928.62 88.11 1672.55 135.54 1402.62 133.2 1159.57 159.16 751.44 145.08 554.47 150.9 247.48 95.55 0 0 0 222.57 1928.62 222.57"/><polygon class="cls-3" points="1928.62 225.48 1928.62 91.02 1673.07 136.11 1402.62 136.11 1159.61 159.93 751.44 147.99 554.47 153.81 247.34 96.91 0 2.91 0 225.48 1928.62 225.48"/></g></g></svg>