<svg xmlns="http://www.w3.org/2000/svg" viewBox="0 0 1928.6 239.38"><defs><style>.cls-1,.cls-2{fill:#120a2d;}.cls-1{fill-rule:evenodd;}</style></defs><g id="Layer_2" data-name="Layer 2"><g id="Lower_Separator" data-name="Lower Separator"><g id="Layer_1-2" data-name="Layer 1"><polygon class="cls-1" points="0 0 0 205.18 324.06 216.99 725.8 205.18 1514.2 239.38 1646.2 199.18 1928.6 205.18 1928.6 0 0 0"/><path class="cls-2" d="M1787.38,123.3h0l.86-23.09,12.56-1.54,1.37-11.47-21-10.15,2.82-.73c1.1-.17,1.7-.32,1.7-.46a6.63,6.63,0,0,0-.32-1.13c-.37-1.08-1-2.82-1.91-4.93l-1.22-3c-.22-.54-.46-1.07-.71-1.65-1.83-4.38-4-9.27-5.61-13.08a32.44,32.44,0,0,1-2.09-8.82,150.38,150.38,0,0,1-.13-15.46,8.06,8.06,0,0,1,.63-3c.78-1.2,3.77-6.91-4.19-4.25-.51.4-38.85,4.67-63.19,4.71-28.69.06-22.61-5.54-24.41-4.47a1.94,1.94,0,0,0-.83,1.08,7,7,0,0,0,.13,3.61s-1,2.95-2.17,7.48l-.72-.17-4.5-5.59-14-7.35L1602.06,25l7.52,6.22h0L1602.06,25l.38,12.17,7.46,6.44,1.62,62.36.22.42-5.5-.28,71.83,93.78,29.9,39,90.23-12.09L1784,214l1.85-49.47-4.81-3.3,5.41-13ZM1664.25,76.41l25.5,21.1-25.5-21.1Zm3.39,32.87-1.79-17.37,23.7,20.47,12.46-1.54v.36h0l.18,7h0l.49,22.61Z"/><polygon class="cls-1" points="1642.02 73.78 1641.68 65.47 1633.98 65.91 1642.02 73.78"/><polygon class="cls-1" points="1709.07 122.62 1709.18 109.96 1701.99 110.84 1702.17 118.19 1709.07 122.62"/><polygon class="cls-1" points="1615.2 56.79 1610.13 52.53 1609.9 43.58 1615.18 48.14 1615.2 56.79"/></g></g></g></svg>