<?xml version="1.0" encoding="utf-8"?>
<!-- Generator: Adobe Illustrator 24.0.2, SVG Export Plug-In . SVG Version: 6.00 Build 0)  -->
<svg version="1.1" xmlns="http://www.w3.org/2000/svg" xmlns:xlink="http://www.w3.org/1999/xlink" x="0px" y="0px"
	 viewBox="0 0 1982.6 2048" enable-background="new 0 0 1982.6 2048" xml:space="preserve">
<g id="Layer_1">
	<g id="Layer_23">
	</g>
</g>
<g id="Layer_22">
</g>
<g id="Layer_21">
</g>
<g id="Layer_20">
</g>
<g id="Layer_19">
</g>
<g id="Layer_18">
</g>
<g id="Layer_17">
</g>
<g id="Layer_16">
</g>
<g id="Layer_15">
</g>
<g id="Layer_14">
	<g>
		<g>
			<g>
				<polygon fill="#0D352E" points="815.7,1423.4 1051.7,1470.1 1051.7,1512.8 818.9,1464.3 				"/>
				<polygon fill="#12C4D7" points="833,1453.3 831.4,1427.1 815.7,1423.4 818.9,1464.3 1051.7,1512.8 1051.7,1495.5 				"/>
			</g>
			<g>
				<g>
					<g>
						
							<ellipse transform="matrix(3.443647e-02 -0.9994 0.9994 3.443647e-02 -540.7184 2689.9116)" fill="#12C4D7" cx="1121.7" cy="1624.8" rx="14.4" ry="13.2"/>
					</g>
					<path fill="#0D352E" d="M1124,1610.6c6.3,1.2,11,7.2,10.9,14.4c-0.1,7.2-5.1,13-11.4,14c-5.5-1.2-9.7-7.1-9.5-14.3
						C1114.1,1617.5,1118.5,1611.6,1124,1610.6z"/>
				</g>
				<g>
					<g>
						
							<ellipse transform="matrix(3.443647e-02 -0.9994 0.9994 3.443647e-02 -512.3053 2627.7009)" fill="#12C4D7" cx="1103.7" cy="1579" rx="14.4" ry="13.2"/>
					</g>
					<path fill="#0D352E" d="M1106.1,1564.8c6.3,1.2,11,7.2,10.9,14.4c-0.1,7.2-5.1,13-11.4,14c-5.5-1.2-9.7-7.1-9.5-14.3
						C1096.1,1571.7,1100.5,1565.8,1106.1,1564.8z"/>
				</g>
				<g>
					<g>
						
							<ellipse transform="matrix(3.443647e-02 -0.9994 0.9994 3.443647e-02 -575.843 2624.3398)" fill="#12C4D7" cx="1070.2" cy="1610.2" rx="14.4" ry="13.2"/>
					</g>
					<path fill="#0D352E" d="M1072.5,1596c6.3,1.2,11,7.2,10.9,14.4c-0.1,7.2-5.1,13-11.4,14c-5.5-1.2-9.7-7.1-9.5-14.3
						C1062.6,1602.9,1067,1597,1072.5,1596z"/>
				</g>
				<path fill="#12C4D7" d="M1145.2,1641.4c-2.3-14.8-5.6-29.4-9.7-43.8c-4.1-14.4-8.3-28.8-14.7-42.1c-1.7-3.3-3.5-6.5-5.6-9.4
					c-2.2-2.8-4.9-5.5-8.2-6.5c-3.3-0.9-7.1-0.2-10.5,1c-3.5,1.2-6.7,3-9.8,5c-6.3,4-11.8,9.1-17.1,14.4c-5.3,5.3-10,11.1-14.6,17
					c-4.5,5.9-8.8,12.1-12.5,18.5c-1.8,3.2-3.6,6.5-4.7,9.9c-1,3.5-1.7,7-1.7,10.6c0,3.5,0.7,7.1,2.2,10.2c1.5,3.1,3.7,5.9,6.5,8.1
					c5.7,4.3,12.4,7.8,19.2,10.6c13.6,5.7,28.3,8.9,43.1,9.7c7.4,0.3,14.9-0.1,22.3-1.1c3.7-0.3,7.4-1.3,10.6-3.1
					c1.6-0.9,3.1-2.1,4-3.6C1145,1645.1,1145.4,1643.3,1145.2,1641.4z M1145.6,1641.4c0.2,1.9-0.1,3.9-1.1,5.5
					c-1,1.7-2.5,2.9-4.1,3.9c-3.3,2-7,2.9-10.7,3.5c-7.4,1.4-14.9,2.2-22.5,2.4c-15.1,0.1-30.4-2.8-44.4-8.7c-7-3-13.8-6.3-20-11.1
					c-3.1-2.5-5.6-5.8-7.3-9.4c-1.6-3.7-2.4-7.7-2.3-11.6c0.1-3.9,0.8-7.8,2.1-11.5c1.3-3.8,3.3-7,5.2-10.3
					c4-6.4,8.5-12.5,13.3-18.3c9.6-11.5,20-22.6,32.5-31.2c3.1-2.1,6.4-4,10-5.4c3.6-1.3,7.4-2.4,11.5-1.5c4,1.1,7,3.9,9.5,6.8
					c2.4,3,4.5,6.3,6.3,9.6c6.9,13.6,11,28.2,14.3,42.8c1.6,7.3,3,14.7,4.3,22.1C1143.2,1626.6,1144.5,1634,1145.6,1641.4z"/>
				<path fill="#12C4D7" d="M1129.3,1572.1c0,0-8.6-26.8-24.3-24.5s-56.6,46.9-60.4,62.3c-3.6,14.6,7.2,23,16.3,27.2
					c9.2,4.3,48,18.3,84.6,4.2c0,0,2.2,11.1-20.2,13.1c-22.4,2.1-38.9-1.2-38.9-1.2s-39.4-7.7-47-22.6s-3.6-23.1-3.6-23.1
					s6.4-15.8,15-26.5c8.6-10.8,32.1-39,47.6-42s19.9,7.8,24.1,16.1S1129.3,1572.1,1129.3,1572.1z"/>
			</g>
			<g>
				<path fill="#025E63" d="M734.1,1598.1l-6,123.8c-0.2,4.4-2.9,8.2-7,9.8c-16.8,6.6-59.8,26.5-59.3,58.5
					c0.7,44.8,116.4,27.2,141.8,12.8c21.9-12.4,16.8-99.9,20.1-166c3.9-77.2-3.2-91.9-46.8-92.9
					C727.2,1542.9,734.1,1598.1,734.1,1598.1z"/>
				<path fill="#025E63" d="M934.8,1597.1l-2.1,175.1c-0.1,4.5-1.6,8.8-4.5,12.2c-12.1,14.5-44.1,57.1-31.7,88.6
					c16.7,42.2,81.6,7,106.4-20.3c24.8-27.2,25.8-22.6,29-85.5s4.7-148.7,4.7-148.7s7.3-52.2-55.5-52.2
					C932.5,1566.4,934.8,1597.1,934.8,1597.1z"/>
				<path fill="#025E63" d="M390,1004.1c0,0,65.8,3.4,51.6,106.2c0,0-119.3,90.3-95.5,185.9c0,0,25.3,12.8,20.5,41.5
					s10.7,66.2-45.8,67S217.1,1311,265.3,1195C313.5,1079.1,363.2,1018.2,390,1004.1z"/>
				<g>
					<path fill="#35DFFB" d="M1673.5,1262.5c18.9-276.2-27.7-656.6-143.5-775c0,0-226.2-196.1-721-200.5
						c-13.7-0.1-27.3,1.9-40.4,5.9c-81.8,25.1-373.5,135.5-411.1,444c-23.9,196.2-9.5,382.5,8.5,511.2l4.5,1.8l3.2,23.3l-3.9,1.4
						c13.9,91.5,28.6,147.8,28.6,147.8s20.7,148.3,372,212.3c0,0,293.1,66.2,420.7,44.8s435.6-56,473-323.9
						c2.7-19.7,5.1-40.3,7-61.7l-2.4-1l1.9-28.7L1673.5,1262.5z"/>
					<path fill="#12C4D7" d="M1664,1355.6c2.8-20,5-39.9,7-61.7c0,0-2.5,0.2-2.4-1c0.8-8.9,1.3-19.6,1.9-28.7l3-1.7
						c18-273.8-27.7-651.6-141.1-772.3c-58.3,35.9-226.3,136.3-341.1,176.3c-5.1,1.8-10.1,3.4-14.9,5c0,0-10.2,10.2,0,51.1
						c10.2,40.9,17.5,874.3,14.6,956.8C1318.6,1658,1626.6,1623.4,1664,1355.6z"/>
					<path fill="#0D352E" d="M1670.5,1264.2L1670.5,1264.2c-145,87.7-428.7,157.3-474,165.9c-36.4,6.9-149.8-10.8-418.8-65.1
						c-222.6-45-379.2-104.2-407.3-115.2l3.2,23.3l-3.9,1.4c1.6,0.7,155.1,65.5,402.9,115.6c235,47.5,351.2,66.9,405.5,66.9
						c9.5,0,17.1-0.6,23.1-1.7c46-8.7,321.5-71.7,469.7-161.4l-2.4-1L1670.5,1264.2z"/>
					<path fill="#94F5FF" d="M1178.2,1457.1c9.5,0,17.1-0.6,23.1-1.7c46-8.7,321.5-71.7,469.7-161.4l-2.4-1
						c-156.4,95.3-477.1,158.6-477.1,158.6c-77.5,0.5-314.8-43.4-463-75.4c-207.3-44.8-354.8-103-354.8-103l-3.9,1.4
						c1.6,0.7,155.1,65.5,402.9,115.6C1007.6,1437.6,1123.9,1457.1,1178.2,1457.1z"/>
				</g>
				<g>
					<path fill="#12C4D7" d="M1125.1,678c-2.2,0-4.4-0.5-6.4-1.7c-2.8-1.6-279.7-157.6-612-126.9c-7.1,0.6-13.3-4.5-13.9-11.6
						c-0.7-7.1,4.5-13.3,11.6-13.9c340.5-31.4,624.3,128.6,627.1,130.2c6.1,3.5,8.3,11.4,4.7,17.5
						C1133.9,675.7,1129.5,678,1125.1,678z"/>
				</g>
				<ellipse fill="#12C4D7" cx="970.4" cy="406" rx="65.9" ry="33.5"/>
				<path fill="#0D352E" d="M970.4,439.5c26.8,0,49.8-8.2,60.1-19.9c-1.4-9.4-11.8-23-60.1-25.5c0,0-44.9-2.2-60.8,24.8
					C919.5,431,943,439.5,970.4,439.5z"/>
				<path fill="#12C4D7" d="M442.8,907.8c0,0-15.1-202.6,96.4-218.2C650.7,674,883,734.4,883,734.4s182.9,35.6,186.8,181.7
					c3.9,146.1,37.7,343.4-109.9,348.2c0,0-85.7,2.4-242.6-43.8c-156.8-46.3-263.2-78.8-266.6-184.5L442.8,907.8z"/>
				<path fill="#D2F1FC" d="M1069.9,916C1066,769.9,883,734.4,883,734.4s-214.8-55.8-330.5-46.2c-17,31.8-39.6,100.3-44.1,242.3
					v71.6c0,0-5.8,96.4,104.5,133c0,0,133.3,46.4,237.4,68.7c88.7,19,170.9,10.8,214.1-25.4C1084.9,1106.4,1072.2,1002.3,1069.9,916
					z"/>
				<path fill="#F6F5FD" d="M961,1212.9c0,0,14.6,0.7,55.3-9.7c0,0-27.5-0.7-67.5-3.5c-108.7-7.7-191.8-41.4-325.1-83.3
					s-86.2-243.8-71.6-340.2c8.2-54,43.8-77.3,73.6-87.3c-26.5-2-51.6-2.5-73.2-0.7c-17,31.8-39.6,100.3-44.1,242.3v71.6
					c0,0-5.8,96.4,104.5,133c0,0,133.3,46.4,237.4,68.7C889.5,1212,927.3,1215.1,961,1212.9z"/>
				<path fill="#0D352E" d="M1265.4,1617.9L1265.4,1617.9c-6.2,0-11.3-5.1-11.3-11.3v-99.4c0-6.2,5.1-11.3,11.3-11.3h0
					c6.2,0,11.3,5.1,11.3,11.3v99.4C1276.7,1612.8,1271.6,1617.9,1265.4,1617.9z"/>
				<path fill="#0D352E" d="M1320.9,1608.8L1320.9,1608.8c-6.2,0-11.3-5.1-11.3-11.3v-99.4c0-6.2,5.1-11.3,11.3-11.3l0,0
					c6.2,0,11.3,5.1,11.3,11.3v99.4C1332.2,1603.7,1327.1,1608.8,1320.9,1608.8z"/>
				<path fill="#0D352E" d="M1376.2,1596.3L1376.2,1596.3c-6.2,0-11.3-5.1-11.3-11.3v-99.4c0-6.2,5.1-11.3,11.3-11.3l0,0
					c6.2,0,11.3,5.1,11.3,11.3v99.4C1387.6,1591.2,1382.5,1596.3,1376.2,1596.3z"/>
				<path fill="#0D352E" d="M1514.7,864.3L1514.7,864.3c-6.2,0.9-11.9-3.4-12.8-9.6l-28.3-194.6c-0.9-6.2,3.4-11.9,9.6-12.8l0,0
					c6.2-0.9,11.9,3.4,12.8,9.6l28.3,194.6C1525.2,857.6,1520.9,863.4,1514.7,864.3z"/>
				<path fill="#0D352E" d="M1566.3,834.2L1566.3,834.2c-6.2,0.9-11.9-3.4-12.8-9.6L1525.1,630c-0.9-6.2,3.4-11.9,9.6-12.8h0
					c6.2-0.9,11.9,3.4,12.8,9.6l28.3,194.6C1576.8,827.6,1572.4,833.3,1566.3,834.2z"/>
				
					<ellipse transform="matrix(0.24 -0.9708 0.9708 0.24 -92.1842 2344.8684)" fill="#0D352E" cx="1451.5" cy="1231.3" rx="110.5" ry="83.7"/>
				<g>
					<g>
						<path fill="#0D352E" d="M1227.3,1281.7l12.2,10l0,28.3l-12.2,17.4L1227.3,1281.7z M1261.5,1329.8l-31.9,9.5l12-17.3l16.7-5
							l7.8,6.2L1261.5,1329.8z M1262.1,1285.8l6-8.6l6.1,5l0.1,29.1l-6.1,8.7l-6.1-5L1262.1,1285.8z M1278.3,1311l16.5-4.9l12.2,10
							l-31.7,9.5l-4.6-3.8L1278.3,1311z M1308.9,1257.5l0.4,55.3l-12.2-10l-0.2-28.1L1308.9,1257.5z"/>
						<path fill="#0D352E" d="M1229.6,1342.5c-1,0-2-0.5-2.6-1.3c-0.2-0.2-0.3-0.5-0.4-0.7c-0.1,0-0.2,0-0.3-0.1
							c-1.3-0.4-2.2-1.7-2.2-3.1l0-55.6c0-1.2,0.7-2.4,1.8-2.9c1.1-0.5,2.5-0.4,3.4,0.4l12.2,10c0.7,0.6,1.2,1.5,1.2,2.5l0,26.6
							l14.7-4.4c0.5-0.2,1.1-0.2,1.6-0.1l-0.1-28.1c0-0.7,0.2-1.3,0.6-1.9l6-8.6c0.5-0.7,1.3-1.2,2.2-1.3c0.9-0.1,1.8,0.1,2.5,0.7
							l6.1,5c0.7,0.6,1.2,1.5,1.2,2.5l0.1,25.7l16.3-4.9c0-0.1,0-0.1,0-0.2l-0.2-28.1c0-0.7,0.2-1.3,0.6-1.9l12-17.2
							c0.8-1.1,2.3-1.6,3.6-1.2c1.3,0.4,2.2,1.6,2.3,3l0.4,55.3c0,1.2-0.7,2.4-1.8,2.9c-0.2,0.1-0.3,0.1-0.5,0.2
							c0,0.3,0,0.6-0.1,0.9c-0.2,1.2-1.1,2.1-2.2,2.4l-31.7,9.5c-1,0.3-2.1,0.1-2.9-0.6l-4.3-3.5c-0.1,0.2-0.2,0.3-0.3,0.5l-4.7,6.6
							c-0.4,0.6-1,1-1.7,1.2l-31.9,9.6C1230.2,1342.5,1229.9,1342.5,1229.6,1342.5z M1243.6,1324.7l-6.2,8.9l22-6.6l2.3-3.2
							l-4.1-3.3L1243.6,1324.7z M1261.5,1329.8L1261.5,1329.8L1261.5,1329.8z M1230.5,1288.5l0,38.7l5.8-8.2l0-25.7L1230.5,1288.5z
							 M1275,1321.3l1,0.8l24.3-7.3l-6.3-5.1l-13.8,4.1L1275,1321.3z M1265.4,1313.4l2.3,1.9l3.5-5l-0.1-26.6l-2.3-1.8l-3.5,4.9
							L1265.4,1313.4z M1300.3,1301.2l5.8,4.7l-0.3-38.4l-5.7,8.1L1300.3,1301.2z"/>
					</g>
					<g>
						<path fill="#0D352E" d="M1261.2,1256.4l-34,10.1l12.2-17.2l18.6-5.5l7.7,6.2L1261.2,1256.4z M1277.9,1237.9l16.4-4.9l12.2,9.9
							l-31.5,9.3l-4.6-3.7L1277.9,1237.9z M1308.3,1185.1l0.4,54.6l-12.2-9.9l-0.2-27.8L1308.3,1185.1z"/>
						<path fill="#0D352E" d="M1227.2,1269.6c-1,0-2-0.5-2.6-1.3c-0.8-1.1-0.8-2.6,0-3.7l12.2-17.2c0.4-0.6,1-1,1.7-1.2l18.6-5.5
							c1-0.3,2.1-0.1,2.9,0.6l7.4,5.9c0.1-0.1,0.2-0.3,0.3-0.4l7.5-10.7c0.4-0.6,1-1,1.7-1.2l16.4-4.8c0-0.1,0-0.1,0-0.2l-0.2-27.8
							c0-0.7,0.2-1.3,0.6-1.9l11.9-16.9c0.8-1.1,2.2-1.6,3.6-1.2c1.3,0.4,2.2,1.6,2.2,3l0.4,54.6c0,1.2-0.7,2.4-1.8,2.9
							c-0.2,0.1-0.3,0.1-0.5,0.2c0,0.3,0,0.6-0.1,0.8c-0.2,1.2-1.1,2.1-2.2,2.4l-31.5,9.3c-1,0.3-2.1,0.1-2.9-0.6l-4.2-3.4
							c-0.1,0.2-0.2,0.3-0.3,0.4l-4.6,6.5c-0.4,0.6-1,1-1.7,1.2l-34,10.1C1227.9,1269.6,1227.5,1269.6,1227.2,1269.6z M1241.5,1252
							l-6.2,8.7l24-7.1l2.2-3.1l-4-3.2L1241.5,1252z M1261.2,1256.4L1261.2,1256.4L1261.2,1256.4z M1274.7,1248l0.9,0.8l24.1-7.1
							l-6.1-5l-13.7,4.1L1274.7,1248z M1299.8,1228.2l5.7,4.6l-0.3-37.8l-5.6,7.9L1299.8,1228.2z"/>
					</g>
					<g>
						<path fill="#0D352E" d="M1257.9,1178.8l-18.5,5.4l-12.2-9.8l33.7-9.9l4.6,3.6L1257.9,1178.8z M1274.5,1160.6l33.5-9.8
							l-11.9,16.8l-18.6,5.4l-7.5-6.1L1274.5,1160.6z"/>
						<path fill="#0D352E" d="M1239.4,1187.4c-0.7,0-1.4-0.2-2-0.7l-12.2-9.8c-0.9-0.8-1.4-2-1.1-3.1c0.2-1.2,1.1-2.1,2.2-2.4
							l33.7-9.9c1-0.3,2.1-0.1,2.9,0.6l4.3,3.4c0.1-0.1,0.2-0.3,0.2-0.4l4.5-6.3c0.4-0.6,1-1,1.7-1.2l33.5-9.8
							c1.3-0.4,2.7,0.1,3.5,1.2c0.8,1.1,0.8,2.6,0,3.7l-11.9,16.8c-0.4,0.6-1,1-1.7,1.2l-18.6,5.4c-1,0.3-2.1,0.1-2.9-0.6l-7.2-5.8
							c-0.1,0.1-0.2,0.3-0.2,0.4l-7.6,10.6c-0.4,0.6-1,1-1.7,1.2l-18.5,5.4C1240,1187.4,1239.7,1187.4,1239.4,1187.4z M1234,1175.8
							l6.1,4.9l15.9-4.7l5.2-7.2l-0.9-0.7L1234,1175.8z M1257.9,1178.8L1257.9,1178.8L1257.9,1178.8z M1274.4,1166.3l3.9,3.2
							l15.9-4.7l5.9-8.4l-23.6,6.9L1274.4,1166.3z"/>
					</g>
					<g>
						<path fill="#0D352E" d="M1267.4,1089.6l6,4.8l0.2,40.4l-6,8.4l-6-4.9l-0.1-40.5L1267.4,1089.6z"/>
						<path fill="#0D352E" d="M1267.6,1146.4c-0.7,0-1.4-0.3-2-0.7l-6-4.9c-0.8-0.6-1.2-1.5-1.2-2.5l-0.1-40.5
							c0-0.7,0.2-1.3,0.6-1.9l5.9-8.3c0.5-0.7,1.3-1.2,2.2-1.3c0.9-0.1,1.8,0.1,2.4,0.7l6,4.8c0.7,0.6,1.2,1.5,1.2,2.5l0.2,40.4
							c0,0.7-0.2,1.3-0.6,1.9l-6,8.4c-0.5,0.7-1.3,1.2-2.2,1.3C1267.9,1146.4,1267.8,1146.4,1267.6,1146.4z M1264.8,1136.8l2.2,1.8
							l3.4-4.7l-0.2-37.9l-2.2-1.7l-3.4,4.7L1264.8,1136.8z"/>
					</g>
					<g>
						<path fill="#0D352E" d="M1257.6,1073.2l-16.2,4.7l-11.9-9.6l31-8.9l4.6,3.6L1257.6,1073.2z M1274,1055.4l30.9-8.9l-11.8,16.4
							l-16.1,4.7l-7.5-6L1274,1055.4z"/>
						<path fill="#0D352E" d="M1241.4,1081.1c-0.7,0-1.4-0.2-2-0.7l-11.9-9.6c-0.9-0.8-1.4-2-1.1-3.1c0.2-1.2,1.1-2.1,2.3-2.4
							l31-8.9c1-0.3,2-0.1,2.9,0.6l4.3,3.3c0.1-0.1,0.1-0.2,0.2-0.4l4.4-6.2c0.4-0.6,1-1,1.7-1.2l30.9-8.9c1.3-0.4,2.7,0.1,3.5,1.2
							c0.8,1.1,0.8,2.6,0,3.7l-11.8,16.5c-0.4,0.6-1,1-1.7,1.2l-16.1,4.7c-1,0.3-2.1,0.1-2.9-0.6l-7.1-5.7c-0.1,0.1-0.1,0.2-0.2,0.4
							l-7.5,10.3c-0.4,0.6-1,1-1.7,1.2l-16.2,4.7C1242,1081.1,1241.7,1081.1,1241.4,1081.1z M1236.3,1069.6l5.9,4.7l13.5-3.9
							l5.1-6.9l-0.9-0.7L1236.3,1069.6z M1257.6,1073.2L1257.6,1073.2L1257.6,1073.2z M1273.9,1061l3.8,3.1l13.4-3.9l5.8-8l-21,6
							L1273.9,1061z"/>
					</g>
					<g>
						<path fill="#0D352E" d="M1227.2,995.6l11.9,9.5l0,24.4l-11.9,16.4L1227.2,995.6z M1260.4,1038.9l-31,8.9l11.7-16.4l16.2-4.6
							l7.6,5.9L1260.4,1038.9z M1257.3,997.6l-16.1,4.6l-11.7-9.6l30.7-8.8l4.6,3.5L1257.3,997.6z M1273.6,980l30.6-8.7l-11.7,16.2
							l-15.9,4.5l-7.4-5.9L1273.6,980z M1276.8,1021.2l16.1-4.6l11.9,9.6l-30.9,8.9l-4.5-3.6L1276.8,1021.2z M1306.6,973l0.4,50.1
							l-11.9-9.5l-0.2-24.3L1306.6,973z"/>
						<path fill="#0D352E" d="M1229.4,1051c-1,0-2-0.5-2.6-1.4c-0.1-0.2-0.2-0.4-0.3-0.6c-0.1,0-0.2-0.1-0.3-0.1
							c-1.3-0.4-2.2-1.7-2.2-3l0-50.3c0-1.2,0.7-2.4,1.8-2.9c0.2-0.1,0.3-0.1,0.5-0.2c0-0.2,0-0.4,0.1-0.6c0.2-1.2,1.1-2.1,2.3-2.4
							l30.7-8.8c1-0.3,2-0.1,2.8,0.5l4.2,3.3c0.1-0.1,0.1-0.2,0.2-0.3l4.4-6.1c0.4-0.6,1-1,1.7-1.2l30.6-8.7
							c1.3-0.4,2.7,0.1,3.5,1.2c0.1,0.1,0.2,0.2,0.2,0.4c0.2,0,0.3,0.1,0.5,0.1c1.3,0.4,2.2,1.6,2.2,3l0.4,50.1
							c0,1.2-0.7,2.4-1.8,2.9c-0.1,0.1-0.3,0.1-0.4,0.2c0,0.2,0,0.5-0.1,0.7c-0.2,1.2-1.1,2.1-2.3,2.4l-30.9,8.9
							c-1,0.3-2.1,0.1-2.9-0.6l-4.1-3.3c-0.1,0.1-0.2,0.3-0.2,0.4l-4.6,6.2c-0.4,0.6-1,1-1.7,1.2l-31,8.9
							C1230,1051,1229.7,1051,1229.4,1051z M1243.1,1034.2l-5.7,8l21.1-6.1l2.1-2.8l-3.9-3L1243.1,1034.2z M1260.4,1038.9
							L1260.4,1038.9L1260.4,1038.9z M1230.4,1002.3l0,33.7l5.5-7.5l0-21.8L1230.4,1002.3z M1273.8,1030.9l0.8,0.6l23.3-6.7
							l-5.8-4.6l-13.4,3.8L1273.8,1030.9z M1257.4,1023.6c0.7,0,1.4,0.2,2,0.7l7.3,5.7c0.1-0.1,0.1-0.2,0.2-0.4l7.4-10.2
							c0.4-0.6,1-1,1.7-1.2l16-4.6c0,0,0,0,0-0.1l-0.2-22.4l-14.2,4.1c-1,0.3-2.1,0.1-2.9-0.6l-7-5.6c-0.1,0.1-0.1,0.2-0.2,0.3
							l-7.5,10.2c-0.4,0.6-1,1-1.7,1.2l-16,4.6l0,22.6l14.2-4.1C1256.8,1023.6,1257.1,1023.6,1257.4,1023.6z M1298.3,1012l5.5,4.4
							l-0.3-33.5l-5.3,7.4L1298.3,1012z M1236.3,994l5.6,4.6l13.4-3.8l5-6.8l-0.8-0.6L1236.3,994z M1257.3,997.6L1257.3,997.6
							L1257.3,997.6z M1273.6,985.5l3.7,3l13.3-3.8l5.6-7.8l-20.7,5.9L1273.6,985.5z"/>
					</g>
					<g>
						<path fill="#0D352E" d="M1252.8,949l-25.7-9l-4.2-16.5l38.4,13.3l1.6,6.1L1252.8,949z M1272.9,941l38.3,13.3l-16.1,9.4
							l-25.5-9l-2.6-10.3L1272.9,941z"/>
						<path fill="#0D352E" d="M1295,966.9c-0.4,0-0.7-0.1-1.1-0.2l-25.5-9c-1-0.4-1.8-1.2-2-2.2l-2.4-9.3l-9.6,5.6
							c-0.8,0.5-1.8,0.6-2.7,0.3l-25.7-9c-1-0.4-1.8-1.2-2-2.2l-4.2-16.5c-0.3-1.1,0.1-2.4,0.9-3.2c0.9-0.8,2.1-1.1,3.2-0.7
							l38.4,13.4c1,0.4,1.8,1.2,2,2.2l1.4,5.2l5.5-3.1c0.8-0.5,1.8-0.6,2.6-0.2l38.3,13.3c1.2,0.4,2,1.5,2.1,2.7
							c0.1,1.2-0.5,2.4-1.6,3.1l-16.1,9.4C1296.2,966.8,1295.6,966.9,1295,966.9z M1272.2,952.2l22.5,8l8.8-5.2l-30.4-10.6l-2.6,1.5
							L1272.2,952.2z M1229.8,937.6l22.7,7.9l6.7-4l-0.6-2.1l-31.2-10.8L1229.8,937.6z"/>
					</g>
					<g>
						<path fill="#0D352E" d="M1257,898.5l-15.9,4.5l-11.8-9.4l30.5-8.6l4.5,3.5L1257,898.5z M1273.1,881.3l30.4-8.5l-11.6,15.9
							l-15.9,4.5l-7.3-5.8L1273.1,881.3z"/>
						<path fill="#0D352E" d="M1241.1,906.2c-0.7,0-1.4-0.2-2-0.7l-11.7-9.4c-0.9-0.7-1.4-2-1.1-3.1c0.2-1.2,1.1-2.1,2.3-2.4
							l30.5-8.6c1-0.3,2-0.1,2.8,0.5l4.2,3.2c0.1-0.1,0.1-0.2,0.2-0.3l4.4-6c0.4-0.6,1-1,1.7-1.2l30.4-8.5c1.3-0.4,2.7,0.1,3.5,1.3
							c0.8,1.1,0.8,2.6,0,3.7l-11.6,15.9c-0.4,0.6-1,1-1.7,1.2l-15.9,4.5c-1,0.3-2.1,0.1-2.9-0.6l-7-5.5c-0.1,0.1-0.1,0.2-0.2,0.3
							l-7.4,10c-0.4,0.6-1,1-1.7,1.2L1242,906C1241.7,906.1,1241.4,906.2,1241.1,906.2z M1236.2,895l5.6,4.4l13.3-3.7l4.9-6.6
							l-0.7-0.6L1236.2,895z M1257,898.5L1257,898.5L1257,898.5z M1273.2,886.7l3.7,2.9l13.2-3.7l5.5-7.5l-20.4,5.7L1273.2,886.7z"
							/>
					</g>
					<g>
						<path fill="#0D352E" d="M1227.1,823.3l11.7,9.2l0,23.6l-11.7,15.8L1227.1,823.3z M1256.7,825.3l-15.8,4.4l-11.5-9.3l30.1-8.4
							l4.5,3.4L1256.7,825.3z M1260.5,825l5.8-7.8l5.8,4.6l0.1,26.7l-5.8,7.9l-5.9-4.6L1260.5,825z M1275.9,848.2l15.8-4.4l11.7,9.3
							l-30.3,8.5l-4.4-3.5L1275.9,848.2z M1305.2,801.6l0.4,48.4l-11.7-9.3l-0.2-23.5L1305.2,801.6z"/>
						<path fill="#0D352E" d="M1227.1,875.2c-0.3,0-0.7-0.1-1-0.2c-1.3-0.4-2.2-1.7-2.2-3l0-48.7c0-1.2,0.7-2.3,1.8-2.9
							c0.2-0.1,0.3-0.1,0.5-0.2c0-0.2,0-0.3,0.1-0.5c0.2-1.2,1.1-2.1,2.3-2.4l30.1-8.4c1-0.3,2-0.1,2.8,0.5l4.5,3.4
							c0.4,0.3,0.7,0.7,0.9,1.1c0.5,0.1,1,0.3,1.4,0.6l5.8,4.6c0.8,0.6,1.2,1.5,1.2,2.5l0.1,23.3l15.3-4.3l-0.2-23.5
							c0-0.7,0.2-1.4,0.6-1.9l11.5-15.6c0.8-1.1,2.3-1.6,3.6-1.2c1.3,0.4,2.2,1.6,2.2,3l0.4,48.4c0,1.2-0.7,2.4-1.8,2.9
							c-0.1,0.1-0.3,0.1-0.4,0.2c0,0.2,0,0.4-0.1,0.6c-0.2,1.2-1.1,2.1-2.3,2.5l-30.3,8.5c-1,0.3-2.1,0.1-2.9-0.6l-4.4-3.5
							c-0.4-0.3-0.7-0.7-0.9-1.1c-0.5-0.1-1-0.3-1.4-0.6l-5.9-4.6c-0.8-0.6-1.2-1.5-1.2-2.5l-0.1-23.2l-15.3,4.3l0,23.4
							c0,0.7-0.2,1.4-0.6,1.9l-11.7,15.8C1229.1,874.7,1228.1,875.2,1227.1,875.2z M1230.3,830l0,32.3l5.3-7.1l0-21L1230.3,830z
							 M1273.1,857.5l0.7,0.6l22.7-6.4l-5.5-4.4l-13.1,3.7L1273.1,857.5z M1263.7,850.1l2,1.6l3.2-4.4l-0.1-24.1l-2-1.6l-3.2,4.3
							L1263.7,850.1z M1297.1,839.2l5.3,4.2l-0.3-32.1l-5.1,7L1297.1,839.2z M1236.3,821.8l5.4,4.3l13.1-3.6l4.8-6.4l-0.7-0.5
							L1236.3,821.8z M1256.7,825.3L1256.7,825.3L1256.7,825.3z"/>
					</g>
				</g>
				<path fill="#025E63" d="M1479.2,1169.8c0,0-65.8,3.4-51.6,106.2c0,0,119.3,90.3,95.5,185.9c0,0-25.3,12.8-20.5,41.5
					s-10.7,66.2,45.8,67c56.5,0.7,103.7-93.8,55.5-209.7C1555.7,1244.8,1506,1183.9,1479.2,1169.8z"/>
				<g>
					<polygon fill="#0D352E" points="816.7,1422.9 1052.5,1469.6 1052.5,1512.2 819.8,1463.7 					"/>
					<polygon fill="#12C4D7" points="833.9,1452.7 832.3,1426.5 816.7,1422.9 819.8,1463.7 1052.5,1512.2 1052.5,1494.9 					"/>
				</g>
				<g>
					<g>
						<g>
							
								<ellipse transform="matrix(3.440763e-02 -0.9994 0.9994 3.440763e-02 -539.256 2690.2119)" fill="#12C4D7" cx="1122.6" cy="1624.2" rx="14.4" ry="13.2"/>
						</g>
						<path fill="#0D352E" d="M1124.9,1610c6.3,1.2,11,7.2,10.9,14.4c-0.1,7.2-5.1,13-11.4,14c-5.5-1.2-9.7-7.1-9.5-14.3
							C1114.9,1616.9,1119.3,1611,1124.9,1610z"/>
					</g>
					<g>
						<g>
							
								<ellipse transform="matrix(3.440763e-02 -0.9994 0.9994 3.440763e-02 -510.848 2628.0142)" fill="#12C4D7" cx="1104.6" cy="1578.4" rx="14.4" ry="13.2"/>
						</g>
						<path fill="#0D352E" d="M1106.9,1564.2c6.3,1.2,11,7.2,10.9,14.4c-0.1,7.2-5.1,13-11.4,14c-5.5-1.2-9.7-7.1-9.5-14.3
							C1097,1571.1,1101.3,1565.2,1106.9,1564.2z"/>
					</g>
					<g>
						<g>
							
								<ellipse transform="matrix(3.440763e-02 -0.9994 0.9994 3.440763e-02 -574.3711 2624.657)" fill="#12C4D7" cx="1071.1" cy="1609.6" rx="14.4" ry="13.2"/>
						</g>
						<path fill="#0D352E" d="M1073.4,1595.4c6.3,1.2,11,7.2,10.9,14.4c-0.1,7.2-5.1,13-11.4,14c-5.5-1.2-9.7-7.1-9.5-14.3
							C1063.5,1602.2,1067.8,1596.4,1073.4,1595.4z"/>
					</g>
					<path fill="#12C4D7" d="M1146.1,1640.8c-2.3-14.8-5.6-29.4-9.7-43.8c-4.1-14.4-8.3-28.8-14.7-42.1c-1.7-3.3-3.5-6.5-5.6-9.4
						c-2.2-2.8-4.9-5.5-8.2-6.5c-3.3-0.9-7.1-0.2-10.5,1c-3.5,1.2-6.7,3-9.8,5c-6.3,4-11.8,9.1-17.1,14.4c-5.3,5.3-10,11.1-14.6,17
						c-4.5,5.9-8.8,12.1-12.5,18.5c-1.8,3.2-3.6,6.5-4.7,9.9c-1,3.5-1.7,7-1.7,10.6c0,3.5,0.7,7,2.2,10.2c1.5,3.1,3.7,5.9,6.5,8.1
						c5.7,4.3,12.4,7.8,19.1,10.6c13.6,5.7,28.3,8.9,43.1,9.7c7.4,0.3,14.9-0.1,22.3-1.1c3.7-0.3,7.4-1.3,10.6-3.1
						c1.6-0.9,3.1-2.1,4-3.6C1145.9,1644.5,1146.2,1642.6,1146.1,1640.8z M1146.4,1640.8c0.2,1.9-0.1,3.9-1.1,5.5
						c-1,1.7-2.5,2.9-4.1,3.9c-3.3,2-7,2.9-10.7,3.5c-7.4,1.4-14.9,2.2-22.5,2.4c-15.1,0.1-30.3-2.8-44.4-8.7c-7-3-13.8-6.3-20-11.1
						c-3.1-2.5-5.6-5.8-7.3-9.4c-1.6-3.7-2.4-7.7-2.3-11.6c0.1-3.9,0.8-7.8,2.1-11.5c1.3-3.8,3.3-7,5.2-10.3
						c4-6.4,8.5-12.5,13.3-18.3c9.6-11.5,20-22.5,32.5-31.2c3.1-2.1,6.4-4,10-5.4c3.6-1.3,7.4-2.4,11.5-1.5c4,1.1,7,3.9,9.5,6.8
						c2.4,3,4.5,6.3,6.3,9.6c6.9,13.6,11,28.2,14.3,42.8c1.6,7.3,3,14.7,4.3,22.1C1144,1626,1145.4,1633.3,1146.4,1640.8z"/>
					<path fill="#12C4D7" d="M1130.1,1571.5c0,0-8.6-26.8-24.2-24.5c-15.6,2.4-56.6,46.8-60.4,62.3c-3.6,14.6,7.2,23,16.2,27.2
						c9.2,4.3,48,18.3,84.6,4.2c0,0,2.2,11.1-20.2,13.1c-22.4,2.1-38.9-1.2-38.9-1.2s-39.4-7.7-47-22.6c-7.7-14.9-3.6-23.1-3.6-23.1
						s6.4-15.8,15-26.5c8.6-10.8,32.1-39,47.6-42c15.5-2.9,19.9,7.8,24.1,16.1C1127.3,1563,1130.1,1571.5,1130.1,1571.5z"/>
				</g>
			</g>
		</g>
		<g>
			<polygon opacity="0.32" fill="#081613" points="852.5,334.5 849.5,338.9 799.7,385.8 737.6,445.9 820.7,493.6 996.1,507.6 
				1122.6,500.8 1233.2,432.6 1240.5,433.7 1129,519.1 1084.7,530.7 903.1,530.7 808.3,509.7 715.9,453.3 718.9,451 808.9,347.9 			
				"/>
			<g>
				<polygon fill="#F6AC40" points="737.6,377.2 852.5,298 852.5,334.5 746.1,412.2 				"/>
				<polygon fill="#F3F82D" points="852.5,298 839.9,298 729.1,371 737.6,377.2 				"/>
				<polygon fill="#F6AC40" points="1236.9,402.5 1222,400.1 1134,454.8 1107.9,339.5 1099.5,336.8 1080,336.1 1003.7,424.7 
					981.6,421.8 932.3,307.3 924.7,305.8 842.8,390.1 827.1,387.3 790.8,285.5 782.6,282.5 758,415.2 1113.7,490.5 1220.1,425.3 
									"/>
				<polygon fill="#FBEF0D" points="1236.9,434.7 1121.2,513.9 1081.6,522.4 899.9,522.4 812.1,502.2 718.9,451 718.9,371.8 
					764.8,282.5 782.6,282.5 820.7,392.8 837.8,396.6 908.4,305 924.7,305.8 977.9,429.3 997.7,431.6 1080,336.1 1099.5,336.8 
					1129,466.5 1236.9,402.5 				"/>
				<polygon fill="#FFFF69" points="764.8,282.5 718.9,371.8 718.9,451 745.9,465.8 745.2,374.2 				"/>
				<polygon fill="#FFFF69" points="812.1,502.2 837.8,396.6 908.4,305 924.7,305.8 872.4,412.2 875.6,494.4 897.4,507.6 
					1075.2,507.6 1122.6,500.8 1236.9,434.7 1121.2,513.9 1081.6,522.4 899.9,522.4 				"/>
				<polygon fill="#FFFF69" points="1080,336.1 997.7,431.6 990.6,479.7 997.5,514.6 1024.5,514.6 1019.3,478.9 1027.6,434.6 
					1099.5,336.8 				"/>
				<polygon fill="#FFFF69" points="718.9,437 816.6,483.7 812.1,502.2 718.9,451 				"/>
				<polygon fill="#FFF9C1" points="764.8,282.5 718.9,371.8 718.9,451 727.3,455.6 725.6,374.2 768.7,282.5 				"/>
				<polygon fill="#FFF9C1" points="803.8,321.8 839.9,298 852.5,298 848.9,300.4 840.7,300.4 804.5,323.9 				"/>
				<polygon fill="#FFF9C1" points="908.4,305 837.8,396.6 816.6,483.7 852.5,402.5 920.3,305.6 				"/>
				<polygon fill="#FFF9C1" points="996.1,507.6 990.6,479.7 997.7,431.6 1080,336.1 1090,336.5 1007.9,432.8 1000.9,480.2 				"/>
				<polygon opacity="0.58" fill="#F6AC40" points="806.6,329.7 816.6,360.7 852.5,334.5 823.2,341.4 				"/>
				<polygon opacity="0.58" fill="#F6AC40" points="1134,454.8 1129,466.5 1236.9,402.5 1206.8,409.5 				"/>
				<polygon opacity="0.58" fill="#F6AC40" points="1003.7,424.7 997.7,431.6 977.9,429.3 981.6,421.8 				"/>
				<polygon opacity="0.58" fill="#F6AC40" points="820.7,392.8 827.1,387.3 842.8,390.1 837.8,396.6 				"/>
			</g>
		</g>
		<g>
			
				<ellipse transform="matrix(0.2004 -0.9797 0.9797 0.2004 -551.6665 1363.2686)" fill="#FDE0DA" cx="559.4" cy="1019.6" rx="15.5" ry="40.4"/>
			
				<ellipse transform="matrix(0.1129 -0.9936 0.9936 0.1129 -247.807 1895.5145)" fill="#FDE0DA" cx="937.7" cy="1086.5" rx="15.5" ry="40.4"/>
			<path fill="#041C16" d="M617.5,924c-7.6,12.3-27.8,37.6-62.1,30.5c0,0.7-0.1,1.4-0.1,2.1c0,21.9,17.7,39.6,39.6,39.6
				c21.9,0,39.6-17.7,39.6-39.6C634.6,943.1,627.9,931.2,617.5,924z"/>
			<path fill="#041C16" d="M945.5,1010.5c-33.8,9.4-54.7-12.4-64.1-25.9c-7.8,7.2-12.7,17.6-12.7,29c0,21.9,17.7,39.6,39.6,39.6
				c21.9,0,39.6-17.7,39.6-39.6c0-1.3-0.1-2.6-0.2-3.9C947,1010,946.3,1010.3,945.5,1010.5z"/>
			<path fill="#011D16" d="M687.1,1001.6c9.1-8.2,22.6-8.8,33.1-2.6c10.4,6.2,28.4,15.4,56.9,6.1c44.8-14.5,63.9,134.6-47,117.5
				C655.2,1111.2,655.8,1029.7,687.1,1001.6z"/>
			<path fill="#F6F5FD" d="M709.8,999.8c-3.9-2.7-10.8-0.3-9.2,10.5c2.4,16,13.2,45.8,38.4,23.1c0,0,32.5,40.7,48-14.3
				c1.9-6.7-1.5-13-8.5-9.9c-7.9,3.4-21,6.6-36.7,4.6C726.7,1011.9,716.9,1004.8,709.8,999.8z"/>
			<path opacity="0.15" fill="#081613" d="M739.1,1032.5c0,0,2.6-17.4-2-17.2c-4.6,0.2-1.7,17.7-5.4,20.9
				C728,1039.4,734.4,1037.6,739.1,1032.5z"/>
		</g>
		<g>
			<g>
				<path fill="#CBBC0C" d="M672.6,1501l-4.6-69.7l-31.1-6.9l-2.7-46.9l-72.9-14.8l-19.5,4.7l6.6,37.7l-22.3-5l-16.4,5.2l39.7,79.3
					l81.9,68l13.5-8.2l-2.8-42.5l18.9,8.9L672.6,1501z M595.5,1483.1c-8.7,2.2-19.7-8-23.8-24.7c-4.2-16.7,0.5-33,9.5-33.1
					c7.7-0.1,17.9,8.5,22.1,25.2C607.4,1467.1,604.2,1480.9,595.5,1483.1z"/>
				<g>
					<path fill="#C50E59" d="M738.5,1524.4c7.9,19.1,22.8,30.9,36.7,25.2c13.9-5.7,30-21.9,18.5-48.3c-11.1-25.5-33-28.4-46.9-22.6
						C732.9,1484.3,730.6,1505.2,738.5,1524.4z"/>
					<polygon fill="#5D9F10" points="887.4,1520.8 895.9,1517 949.8,1526.1 952,1578.7 945.2,1584.3 					"/>
					<path fill="#F83571" d="M733.8,1524.4c7.9,19.1,26.9,31.1,40.8,25.4c13.9-5.7,17.4-27.1,9.5-46.2c-7.9-19.1-25.6-30-39.5-24.3
						C730.7,1485.1,725.9,1505.2,733.8,1524.4z"/>
					<polygon fill="#1A7EE1" points="831.1,1532.8 797.6,1603.2 868.8,1613.1 					"/>
					<polygon fill="#6ECB12" points="887.4,1520.8 887.8,1574.5 945.2,1584.3 942.7,1529.8 					"/>
					<polygon fill="#0B69B6" points="831.1,1532.8 839.5,1533.1 877,1612.7 868.8,1613.1 					"/>
					<path fill="#F8E92D" d="M621.9,1384.3l-80.1-16.7l10.4,160.7l79.1,24.4L621.9,1384.3z M595.5,1483.1c-8.7,2.2-19.7-8-23.8-24.7
						c-4.2-16.7,0.5-33,9.5-33.1c7.7-0.1,17.9,8.5,22.1,25.2C607.4,1467.1,604.2,1480.9,595.5,1483.1z"/>
					<path fill="#F8E92D" d="M655,1437.4l-145.4-32.1l5,71.2l146.1,34.3L655,1437.4z M595.5,1483.1c-8.7,2.2-19.7-8-23.8-24.7
						c-4.2-16.7,0.5-33,9.5-33.1c7.7-0.1,17.9,8.5,22.1,25.2C607.4,1467.1,604.2,1480.9,595.5,1483.1z"/>
					<g>
						<path fill="#35E9A3" d="M605,1465.4c0,0.6,0,1.3-0.1,1.9C605,1466.7,605,1466.1,605,1465.4z"/>
						<path fill="#35E9A3" d="M602.2,1447.3c0.2,0.7,0.4,1.3,0.6,2.1C602.7,1448.7,602.5,1448,602.2,1447.3z"/>
						<path fill="#35E9A3" d="M603.4,1451.3c0-0.1-0.1-0.3-0.1-0.4c1.2,4.9,1.8,9.6,1.7,13.8
							C605.1,1460.5,604.6,1455.9,603.4,1451.3z"/>
						<path fill="#CBBC0C" d="M595.5,1483.1c-8.7,2.2-19.7-8-23.8-24.7c-4.2-16.7,0.5-33,9.5-33.1c2.6,0,5.6,1,8.4,3
							c-4.4-3.3-9.5-4.8-14.6-3.5c-12.3,3.1-22.4,13.9-16.1,37.8c4.5,17,19.9,28.9,32.1,25.8c8.1-2,12.7-10.1,13.7-20.2
							C604,1476.1,600.8,1481.7,595.5,1483.1z"/>
						<path fill="#35E9A3" d="M603.2,1450.4c-0.1-0.4-0.2-0.7-0.3-1c0.2,0.5,0.3,1,0.4,1.6C603.3,1450.8,603.3,1450.6,603.2,1450.4z
							"/>
						<path fill="#35E9A3" d="M604.8,1468.1c0-0.3,0.1-0.5,0.1-0.8C604.9,1467.6,604.9,1467.9,604.8,1468.1z"/>
						<path fill="#35E9A3" d="M605,1464.7c0,0.2,0,0.5,0,0.7C605,1465.2,605,1465,605,1464.7z"/>
						<path fill="#35E9A3" d="M602.2,1447.3c-2.9-9.2-7.7-15.6-12.7-19C595,1432.3,599.5,1439.1,602.2,1447.3z"/>
					</g>
				</g>
			</g>
			<g>
				<path opacity="0.22" fill="#081613" d="M543.2,1399.4l107.1-4l157.9,17.7l91.7,46.9l3.6,29.4l-25.2,154.2l-10.7,11.1
					c0,0-4.5-0.9-12-2.2c-43-7.5-191.9-33.9-251-59.9l-98.2-46l0,0L544,1510L543.2,1399.4z"/>
				<polygon fill="#FFEF61" points="543.2,1399.4 650.6,1399.4 808.9,1417.1 892.9,1459.1 892.9,1484.2 853.3,1663.5 810.5,1720.8 
					783.8,1733.7 673.2,1705.4 502.8,1620.7 478.6,1597.2 449.5,1557.7 492.3,1560.1 544,1510 				"/>
				<polygon opacity="0.1" fill="#081613" points="492.3,1560.1 530.9,1603.3 680.2,1676.3 810.5,1720.8 853.3,1663.5 716.8,1615.4 
					604.5,1558 544,1510 				"/>
				<polygon opacity="0.1" fill="#081613" points="892.9,1459.1 892.9,1484.2 853.3,1663.5 810.5,1720.8 783.8,1733.7 673.2,1705.4 
					680.2,1676.3 716.8,1615.4 543.2,1399.4 650.6,1399.4 808.9,1417.1 				"/>
				
					<polygon fill="none" stroke="#D50D0D" stroke-width="10.6331" stroke-linecap="round" stroke-linejoin="round" stroke-miterlimit="10" points="
					565.8,1587.5 691.8,1475.3 766.9,1668.3 				"/>
				
					<polyline fill="none" stroke="#081613" stroke-width="15.9496" stroke-linecap="round" stroke-linejoin="round" stroke-miterlimit="10" points="
					728.9,1536.1 719.9,1518.5 677.2,1502.7 652.9,1509.9 643.7,1530.6 659.1,1546.4 695.8,1559.7 701.9,1583.9 684.9,1601.3 
					649,1601.3 628.8,1584.7 623.1,1568.6 				"/>
				<g>
					<path opacity="0.32" fill="#081613" d="M649.7,1379c-0.7,0-1,0.9-0.6,1.4l8.3,8.4l-8.2,3.1c-0.5,0.2-0.7,0.7-0.4,1.2l4.1,6.7
						c0.1,0.2,0.2,0.5,0,0.8l-3.8,7.3c-0.2,0.4-0.1,0.8,0.2,1l8.9,6.8l-12,3.2c-0.6,0.1-0.8,0.8-0.4,1.3l5.7,7.5
						c0.3,0.4,0.2,0.9-0.2,1.2l-7.6,6.6l32.4,4c0,0,0.1,0,0.1,0l50.7,10.1c0.1,0,0.2,0,0.2,0.1l33.6,16.6l-3.5-9.8
						c-0.2-0.4,0-0.9,0.4-1.1l18.8-7.5c0.5-0.2,0.7-0.8,0.4-1.2l-3.7-5.7c-0.3-0.4-0.1-1,0.4-1.2l9.5-3.4c0.5-0.2,0.7-0.8,0.4-1.2
						l-4.9-6.9c-0.3-0.4-0.1-1,0.3-1.2l14.9-6.7c0.4-0.2,0.6-0.6,0.4-1l-4-10.5c-0.1-0.3,0-0.6,0.2-0.9l6.4-6.4
						c0.5-0.4,0.2-1.2-0.4-1.4l-39.9-9.6c0,0,0,0-0.1,0l-84.2-12.3c0,0-0.1,0-0.1,0L649.7,1379z"/>
					
						<polygon opacity="0.69" fill="#F8F88E" stroke="#F3F82D" stroke-width="3.7757" stroke-linecap="round" stroke-linejoin="round" stroke-miterlimit="10" points="
						651.4,1376.4 660.5,1386.1 651.8,1389.5 656.5,1397.5 652.4,1405.7 661.4,1412.9 648.9,1416.5 655.5,1425.6 644.2,1433.5 
						678.3,1436.8 727.7,1446.5 761.2,1464.2 754.8,1453.1 774.3,1445 769.7,1437.6 780.6,1433.5 774.8,1425 790.5,1417.6 
						786.3,1405.8 793.7,1398.1 754.4,1388.1 674.4,1375.6 					"/>
				</g>
				
					<polygon opacity="0.69" fill="#F3F82D" stroke="#F3F82D" stroke-width="3.7757" stroke-linecap="round" stroke-linejoin="round" stroke-miterlimit="10" points="
					652.9,1400.5 656.5,1397.5 789.5,1415 790.5,1417.6 774.8,1425 783.2,1435.1 769.7,1437.6 776.4,1447.8 757.5,1455.3 
					760.6,1466.2 727,1449.6 643.7,1435.4 655.5,1425.6 648.9,1416.5 658.3,1415.6 661.4,1412.9 652.4,1405.7 				"/>
			</g>
		</g>
		<g>
			<g>
				<path fill="#988120" d="M1076.9,1778.1c-2.4-13.5-14.9-19.6-23.5-23.9c-3.1-1.5-12.8,1.2-14.6,2.9l-6.6,5.6
					c-0.1,1.5-0.2,3-0.2,4.5c-3.3,62.9-4.2,58.3-29.1,85.5c-24,26.3-85.4,60.1-104.6,24.3l-7.6,6.5l0.4,1.6
					c0.2,1.1,6.2,25.8,26.7,29.4c1.5,0.3,3.2,0.4,5,0.4c25,0,73.6-26.3,124.6-80.2C1069.8,1811,1079.5,1792.5,1076.9,1778.1z"/>
				<path fill="#BB9F2A" d="M1068.8,1763.7c-9.4-10.4-23.7-12.3-36.2-11.3c-0.2,5.1-0.5,10.1-0.7,14.9c-3.3,62.9-4.2,58.3-29.1,85.5
					c-24.8,27.2-89.8,62.5-106.5,20.3c-6.7-16.9-0.5-37,8.4-54.2c-7.5,8-13.6,16.7-17.2,26c-5.7,14.6-4.8,29.2,2.7,43.5
					c5.3,10.2,13.4,16.1,23.9,17.6c1.8,0.2,3.6,0.4,5.4,0.4c46.6,0,120.1-76.2,123.4-79.6
					C1047.2,1821.9,1083.9,1780.3,1068.8,1763.7z"/>
				<path opacity="0.32" fill="#081613" d="M1045.9,1787.8c-0.6-7.7-6.1-12.1-14.2-14.3c-3,56.4-4.7,53-28.7,79.3
					c-24.8,27.2-89.8,62.5-106.5,20.3c-1.8-4.6-2.6-9.5-2.7-14.4c-1.5,13.2,1.6,24.5,12.3,29.8c42.4,21,85.1-21.6,85.1-21.6
					S1048.4,1821.5,1045.9,1787.8z"/>
				<path opacity="0.32" fill="#081613" d="M895.3,1829.2c0,0-2.5,4.3,0,5.1c2.5,0.8,31.2-4.2,36.1-1.5s-17,76-17,76
					s11.9,3.4,14-1.6s0.9-22.1,31.9-67.2c0,0,26.1,6.4,41.2,26.8c0,0,1.6,3.9,9.3-4c7.7-8,13.3-13.3,13.3-13.3s5-3.7-8.6-8.2
					C1001.8,1836.8,910.2,1810.7,895.3,1829.2z"/>
				
					<path fill="#F9C60C" stroke="#F9C60C" stroke-width="5.316" stroke-linecap="round" stroke-linejoin="round" stroke-miterlimit="10" d="
					M902.6,1900.7c0,0,4.1-51.7,35.3-78.1l23.9,7.1c0,0-36.6,41.1-39,77.5H922C915,1907.2,908.2,1904.9,902.6,1900.7L902.6,1900.7z"
					/>
				
					<path fill="#F9C60C" stroke="#F9C60C" stroke-width="5.316" stroke-linecap="round" stroke-linejoin="round" stroke-miterlimit="10" d="
					M908.3,1812.6c0,0,71.7-17.1,112.8,35.1l-16.6,15c0,0-34.8-45.9-107.1-33.1L908.3,1812.6z"/>
				
					<ellipse transform="matrix(0.5475 -0.8368 0.8368 0.5475 -1113.1532 1581.1028)" opacity="0.51" fill="#081613" cx="905.3" cy="1819.8" rx="6.3" ry="4.3"/>
				<path opacity="0.51" fill="#081613" d="M912.7,1904L912.7,1904c3.5,0,6.3-2.8,6.3-6.3v-0.8c0-3.5-2.8-6.3-6.3-6.3h0
					c-3.5,0-6.3,2.8-6.3,6.3v0.8C906.4,1901.1,909.2,1904,912.7,1904z"/>
				<path opacity="0.51" fill="#081613" d="M1007.2,1855.3L1007.2,1855.3c3.5,0,6.3-2.8,6.3-6.3v-0.8c0-3.5-2.8-6.3-6.3-6.3h0
					c-3.5,0-6.3,2.8-6.3,6.3v0.8C1000.9,1852.5,1003.7,1855.3,1007.2,1855.3z"/>
				<path fill="#988120" d="M1009.6,1842.3L1009.6,1842.3c-3.3-1-6.9,1-7.9,4.3l0,0c-1,3.3,1,6.9,4.3,7.9l0,0c3.3,1,6.9-1,7.9-4.3
					l0,0C1014.9,1846.8,1012.9,1843.3,1009.6,1842.3z"/>
				<path fill="#988120" d="M912,1903.6L912,1903.6c3.5,0,6.3-2.8,6.3-6.3v0c0-3.5-2.8-6.3-6.3-6.3h0c-3.5,0-6.3,2.8-6.3,6.3v0
					C905.7,1900.7,908.6,1903.6,912,1903.6z"/>
				
					<ellipse transform="matrix(0.5474 -0.8369 0.8369 0.5474 -1112.9496 1580.8083)" fill="#988120" cx="905.1" cy="1819.4" rx="5.9" ry="4.3"/>
			</g>
			<g>
				<path fill="#988120" d="M879.5,1761c-2.5-8.1-8.1-14.3-16.7-18.5c-10.7-5.1-25.4-6.8-42-6.2c-1.8,33.4-5.9,60.1-17.2,66.6
					c-25.5,14.4-141.1,32.1-141.8-12.8c-0.1-6,1.3-11.5,3.8-16.6c-4.9,1.8-8,3-8.8,3.3l-1.1,0.4l-0.4,1.1
					c-0.5,1.4-11.7,34.5,10.7,48.2c15.1,9.3,46.4,10.7,64.1,10.7c7.3,0,12.3-0.2,13-0.3c4.3-0.2,105.3-5.9,132-44.1
					C881.6,1783.4,883.1,1772.7,879.5,1761z"/>
				<path fill="#BB9F2A" d="M877.6,1757.4c-4.9-16.7-31.5-25.1-56.4-29.3c-1.5,37.2-5.3,67.9-17.6,74.8
					c-25.5,14.4-141.1,32.1-141.8-12.8c-0.4-26.1,28.1-44.1,47.7-53.5c-24.5,8-47.9,20.8-54.4,40.8c-3.9,12.2-2.9,22.2,3.1,29.8
					c8.7,11.1,27.5,16.5,57.1,16.5c7.5,0,15.6-0.3,24.4-1c38-3,115-16.1,134.5-44.4C878.5,1771.7,879.7,1764.7,877.6,1757.4z"/>
				<path opacity="0.32" fill="#081613" d="M840.4,1767.5c-6.7-5.3-13.6-9.2-21-12c-2.3,24.1-6.7,42.3-15.8,47.4
					c-23.4,13.3-123.4,29.3-139.6-3.3c-1.4,1.4-2.1,2.2-2.1,2.2s8.2,8.4,16.6,12.2c8.3,3.8,26.2,10.5,74.9,3.3
					C802.1,1810.1,868.6,1789.9,840.4,1767.5z"/>
				<path opacity="0.32" fill="#081613" d="M781.8,1814.3c0,0,4.7,4.8,2.9,6.7c-1.8,1.9-31.3,6.6-31.3,6.6s-3.9-0.3-9.3-12.5
					c-5.3-12.2-29.1-40.4-29.1-40.4s-37.5,20.6-45.8,42.2c0,0-4.2,5.5-8.9-1.8c-4.7-7.3-9.1-13.4-9.1-13.4s34.2-45.6,42.2-48.5
					c0,0-7.6-3.6-10.3-4c-2.7-0.4,4.4-4.4,4.4-4.4S771.3,1786.5,781.8,1814.3z"/>
				
					<path fill="#F9C60C" stroke="#F9C60C" stroke-width="5.316" stroke-linecap="round" stroke-linejoin="round" stroke-miterlimit="10" d="
					M653.4,1800c0,0,12.7-36.1,49-45.9l14.1,14.7c0,0-36.7,15.6-52.2,46.3L653.4,1800z"/>
				
					<path fill="#F9C60C" stroke="#F9C60C" stroke-width="5.316" stroke-linecap="round" stroke-linejoin="round" stroke-miterlimit="10" d="
					M712.3,1735.2c0,0,42.5,13.3,68.7,82.4l-27.2,5.7c0,0-40-70.4-66.3-78.5L712.3,1735.2z"/>
				<path opacity="0.51" fill="#081613" d="M761.3,1815.1L761.3,1815.1c3.5,0,6.3-2.8,6.3-6.3v-0.8c0-3.5-2.8-6.3-6.3-6.3h0
					c-3.5,0-6.3,2.8-6.3,6.3v0.8C755,1812.3,757.8,1815.1,761.3,1815.1z"/>
				<path fill="#988120" d="M763.7,1802.1L763.7,1802.1c-3.3-1-6.9,1-7.9,4.3l0,0c-1,3.3,1,6.9,4.3,7.9l0,0c3.3,1,6.9-1,7.9-4.3l0,0
					C769,1806.6,767,1803.1,763.7,1802.1z"/>
				<path opacity="0.51" fill="#081613" d="M658.5,1803.7L658.5,1803.7c2.9,1.7,6.6,0.7,8.2-2.2l0.7-1.2c1.7-2.9,0.7-6.6-2.2-8.2h0
					c-2.9-1.7-6.6-0.7-8.2,2.2l-0.7,1.2C654.6,1798.3,655.6,1802,658.5,1803.7z"/>
				<path fill="#988120" d="M658.1,1803.1L658.1,1803.1c2.9,1.7,6.6,0.7,8.2-2.2l0.3-0.6c1.7-2.9,0.7-6.6-2.2-8.2v0
					c-2.9-1.7-6.6-0.7-8.2,2.2l-0.3,0.6C654.3,1797.7,655.3,1801.4,658.1,1803.1z"/>
				
					<ellipse transform="matrix(0.9381 -0.3463 0.3463 0.9381 -559.1846 349.7833)" opacity="0.51" fill="#081613" cx="699.1" cy="1739.5" rx="6.3" ry="2.6"/>
				
					<ellipse transform="matrix(0.9381 -0.3463 0.3463 0.9381 -559.08 349.8013)" fill="#988120" cx="699.2" cy="1739.2" rx="5.9" ry="2.6"/>
			</g>
		</g>
		<g>
			<path opacity="0.22" fill="#081613" d="M343.7,984.8c0,0,34.3,67.6,84.6,98.2c0,0,123.1,101.9,166.5,121.9
				s165.9,100.5,165.9,100.5s1.2-8.8,7.2-3.9c6,4.9,7.3,6.1,7.3,6.1h6.5c0,0,109.3-61.4,216-77.2s189.8-58.6,189.8-58.6l27.5-15
				l450.2-239.8l21.7,158.6l-10.5,110c0,0-116-35.7-190.1,9.9c-74.1,45.6-285.1,117.6-299.9,121.9c-14.8,4.3-156.1,54-396.7,10
				c0,0,48.8-11.7,100.2,80.4c0,0-72.5-4.5-100.8-53.5c0,0-21.1,52.7-65.7,67.3c0,0-17.5-46,17.8-78.7l2.5-14
				c0,0-62.2,13.5-167.8-21.8s-184-89-215-155S343.7,984.8,343.7,984.8z"/>
			<g>
				<g>
					<path fill="#9A0707" d="M1819.1,1358.1c1.3-3.7,1.7-7.7,0.9-11.7c-0.8-4.3-2.8-8.3-4.7-12.1c-15-29.9-35.9-55.7-51.4-85.5
						c-5-9.7-9.7-19.5-13.8-29.6c-1.3-3.1-2.1-8.2-4.1-10.9c-0.1-0.1-69.3-91.3-69.3-91.3c0.1,12.8,0.2,25.6,0.1,38.2
						c0,0.1,0,0.2,0,0.3c0,5-0.1,10-0.2,15c0,0.3,0,0.7,0,1c-0.1,4.8-0.2,9.5-0.3,14.2c0,0.6,0,1.2,0,1.8c-0.1,4.5-0.2,8.9-0.4,13.4
						c0,0.8-0.1,1.5-0.1,2.2c-0.1,4.3-0.3,8.5-0.5,12.7c0,1.1-0.1,2.2-0.1,3.3c-0.2,3.9-0.3,7.7-0.5,11.6c-0.1,1.3-0.1,2.5-0.2,3.7
						c-0.2,3.7-0.4,7.3-0.6,11c-0.1,1.3-0.2,2.7-0.2,4c-0.2,3.5-0.4,7-0.7,10.5c-0.1,0.9-0.1,1.9-0.2,2.8l-0.1,1.3
						c0,0.3,0,0.5-0.1,0.8c-0.2,3.2-0.4,6.4-0.7,9.5c-0.1,1.7-0.3,3.4-0.4,5c-0.2,3.1-0.5,6.1-0.7,9.1c-0.1,1.4-0.3,2.8-0.4,4.3
						c0,0-0.1,1.5-0.1,1.5c-0.2,2.7-0.5,5.5-0.7,8.2c-0.2,2-0.4,4-0.6,6.1c-0.3,2.6-0.5,5.1-0.8,7.7c-0.2,2-0.4,3.9-0.6,5.8
						c-0.3,2.6-0.6,5.1-0.9,7.7c-0.2,1.7-0.4,3.3-0.6,5c-0.3,2.8-0.7,5.6-1,8.3c-0.1,0.9-0.2,1.8-0.4,2.7c-0.4,3.4-0.9,6.9-1.4,10.3
						c-6.4,46.2-20.9,85.4-41.2,118.9c-2.1,20.5-7.5,38.4-15.2,53.2c15.6,5.9,28.7,6.5,39.3-9.4c5-7.6,6.5-12.4,15.8-16.3
						c8.6-3.6,18.2-4.5,27.4-5.3c15.3-1.3,32.6-3.9,41.2-16.6c6.5-9.6,5.9-22.3,4-33.8c-1.9-11.5-4.9-23.2-2.3-34.5
						c2.2-9.5,8.1-17.7,14.8-24.8c1.5-1.6,3.2-3.3,5.3-4.2c2.4-1,5-0.8,7.6-0.7c13.5,0.8,27.6,1.2,40-4.2
						C1808.6,1374.4,1816.2,1366.9,1819.1,1358.1z"/>
					<path opacity="0.55" fill="#7E0709" d="M1701.1,1149.1l-24.4-32.2c0.1,12.8,0.2,25.6,0.1,38.2c0,0.1,0,0.2,0,0.3
						c0,5-0.1,10-0.2,15c0,0.3,0,0.7,0,1c-0.1,4.8-0.2,9.5-0.3,14.2c0,0.6,0,1.2,0,1.8c-0.1,4.5-0.2,8.9-0.4,13.4
						c0,0.8-0.1,1.5-0.1,2.2c-0.1,4.3-0.3,8.5-0.5,12.7c0,1.1-0.1,2.2-0.1,3.3c-0.2,3.9-0.3,7.7-0.5,11.6c-0.1,1.3-0.1,2.5-0.2,3.7
						c-0.2,3.7-0.4,7.3-0.6,11c-0.1,1.3-0.2,2.7-0.2,4c-0.2,3.5-0.4,7-0.7,10.5c-0.1,0.9-0.1,1.9-0.2,2.8c0,0,0,0,0,0l-0.1,1.3
						c0,0.3,0,0.5-0.1,0.8c-0.2,3.2-0.4,6.4-0.7,9.5c-0.1,1.7-0.3,3.4-0.4,5c-0.2,3.1-0.5,6.1-0.7,9.1c-0.1,1.4-0.3,2.8-0.4,4.3
						l-0.1,1.5c0,0,0,0,0,0c-0.2,2.7-0.5,5.5-0.7,8.2c-0.2,2-0.4,4-0.6,6.1c-0.3,2.6-0.5,5.1-0.8,7.7c-0.2,2-0.4,3.9-0.6,5.8
						c-0.3,2.6-0.6,5.1-0.9,7.7c-0.2,1.7-0.4,3.3-0.6,5c-0.3,2.8-0.7,5.6-1,8.3c-0.1,0.9-0.2,1.8-0.4,2.7c-0.4,3.4-0.9,6.9-1.4,10.3
						c-6.4,46.2-20.9,85.4-41.2,118.9c-1.8,17.5-6,33.2-12,46.7C1704.5,1463.4,1708.4,1268.4,1701.1,1149.1z"/>
					<path fill="#E1180E" d="M761.2,1311.1c0,0-390.8-218.5-417.6-326.3c0,0-12.9,22.2-7.1,34.7c5.9,12.5,0.3,11.1-1.6,20.4
						c-1.9,9.3,2.3,17.5,2.3,17.5s-8.7,4-11.7,12.9c-2.9,8.9,30.1,147.3,138.3,196.6s268.3,72.4,297.2,53V1311.1z"/>
					<path fill="#E1180E" d="M1670.1,917.6c0,0-389.3,212.4-477.3,252c-88,39.6-375.3,96.5-419.1,151c0,0,243.9,57.2,426.4-11
						c0,0,186.6-92.4,269.7-136.8s195.4-35.5,235.8,0c40.4,35.5,40.4,35.5,40.4,35.5S1718.3,1086.3,1670.1,917.6z"/>
					<path fill="#C51C1C" d="M1189.7,1313.3c5.2-1.7,5.2-1.8,10.3-3.7c0,0,186.6-92.4,269.7-136.8c83.2-44.4,195.4-35.5,235.8,0
						c40.4,35.5,40.4,35.5,40.4,35.5s-27.7-121.9-75.9-290.7c0,0-389.3,212.4-477.3,252c-1.7,0.8-3.6,1.6-5.5,2.4L1189.7,1313.3z"/>
					<g>
						<path fill="#E1180E" d="M773.6,1319.4c0,0-3.3,70.2-62.6,99.5C711,1418.9,688.7,1317.6,773.6,1319.4z"/>
						<path fill="#C51C1C" d="M708.6,1400.2c9.7-17.9,29.4-51.2,42.7-53.1c18.2-2.6,22.3-27.8,22.3-27.8
							C712,1318.1,706.8,1371.1,708.6,1400.2z"/>
					</g>
					<g>
						<path fill="#E1180E" d="M773.6,1320.5c0,0,84.5,17,109.6,96.9C883.3,1417.4,756.7,1427.1,773.6,1320.5z"/>
						<path fill="#C51C1C" d="M794,1343c7.5,4.2,55,35.6,83.5,59.4c-30.2-67.1-103.9-81.9-103.9-81.9c-1,6.5-1.5,12.6-1.5,18.3
							c3.5,8.8,8.6,16.8,16.4,21.2C812.3,1373.6,783.6,1337.3,794,1343z"/>
					</g>
					<path fill="#C51C1C" d="M777.1,1316.2c0,0,227-88.6,235.6-64.8C1021.4,1275.2,798.6,1327.5,777.1,1316.2z"/>
					<path fill="#C51C1C" d="M769.9,1317.8c0,0-124.5-49.3-196.6-103.8c0,0-22.9,15.8,44.2,53.8S758,1321.1,769.9,1317.8z"/>
					<path fill="#9A0707" d="M771.7,1309.3c0,0,19.1-1.7,10.6,11.6c-8.5,13.2-10.2,2.6-10.2,2.6s-14.7,5.6-10.9-12.4
						C765,1293.1,771.7,1309.3,771.7,1309.3z"/>
					<path opacity="0.57" fill="#9A0707" d="M1717.8,1093.4c-12.3-47.8-28.3-108.1-47.7-175.9c0,0-284,155-421.7,224.8
						c40.2,2.2,100.9-9.4,192.6-47.8C1579.9,1036.4,1665.8,1056.5,1717.8,1093.4z"/>
				</g>
				<polygon fill="#9A0707" points="1670.1,917.6 1665.1,917.1 1665.4,920.1 				"/>
			</g>
		</g>
		<g>
			<g>
				<g opacity="0.38">
					<polygon fill="#8CFFE8" points="597.8,804.7 667.4,848.1 691.3,898.4 682.6,1000.4 608.7,1077.2 527.5,1077.2 446.3,1037.3 
						429.7,996.7 429.7,902.5 460.1,843.8 520.3,804.7 					"/>
				</g>
				<g opacity="0.38">
					<polygon fill="#8CFFE8" points="809,920.6 804.2,1033 818.7,1062 884.4,1128.6 906.6,1140.2 996.5,1136.4 1034.2,1105.4 
						1078.6,1030.4 1078.6,947 1054.1,902.2 1002.3,860.6 914.3,851.3 868.9,861 					"/>
				</g>
				<g>
					<path d="M608.7,1083.5h-81.2c-1,0-1.9-0.2-2.8-0.7l-81.2-39.9c-1.4-0.7-2.5-1.9-3.1-3.3l-16.7-40.6c-0.3-0.8-0.5-1.6-0.5-2.4
						v-94.2c0-1,0.2-2,0.7-2.9l30.4-58.7c0.5-1,1.3-1.8,2.2-2.4l60.2-39.1c1-0.7,2.2-1,3.5-1h77.6c1.2,0,2.4,0.3,3.4,1l69.6,43.5
						c1,0.6,1.9,1.6,2.4,2.7l23.9,50.2c0.5,1,0.7,2.1,0.6,3.3l-8.7,102c-0.1,1.5-0.7,2.8-1.8,3.9l-73.9,76.8
						C612.1,1082.8,610.4,1083.5,608.7,1083.5z M529,1070.8h77l70.5-73.3l8.3-98l-22.3-47L596,811h-73.8L465,848.2l-29,55.8v91.4
						l15.3,37.2L529,1070.8z"/>
				</g>
				<g>
					<path d="M815.5,946.5c-0.3,0-0.6,0-0.9-0.1l-130.8-20.3c-3.1-0.5-5.1-3.3-4.7-6.4c0.5-3.1,3.3-5.2,6.4-4.7l130.8,20.3
						c3.1,0.5,5.1,3.3,4.7,6.4C820.6,944.5,818.3,946.5,815.5,946.5z"/>
				</g>
				<g>
					<path d="M240.4,950.2c-1.7,0-3.4-0.6-4.6-1.9l-19.3-19.4c-1.2-1.2-1.9-2.9-1.9-4.6V909c0-1.3,0.4-2.7,1.2-3.8l12.2-17.4
						c1-1.4,2.5-2.4,4.2-2.7l45.9-8c0.4-0.1,0.8-0.1,1.3-0.1l178.1,4.3c3.6,0.1,6.5,3.1,6.4,6.7c-0.1,3.6-3.2,6.3-6.7,6.4
						l-177.4-4.3l-42.6,7.4l-9.5,13.5v10.5L245,939c2.5,2.6,2.5,6.7,0,9.2C243.7,949.6,242,950.2,240.4,950.2z"/>
				</g>
				<g>
					<path d="M906.6,1146.6c-1,0-2-0.2-2.9-0.7l-22.2-11.6c-0.6-0.3-1.1-0.7-1.6-1.2l-65.7-66.7c-0.5-0.5-0.9-1-1.2-1.6l-14.5-29
						c-0.5-1-0.7-2-0.7-3.1l4.8-112.3c0.1-1.6,0.7-3.1,1.9-4.2l59.9-59.7c0.9-0.9,2-1.5,3.2-1.7l45.4-9.7c0.7-0.1,1.3-0.2,2-0.1
						l87.9,9.3c1.2,0.1,2.4,0.6,3.3,1.4l51.8,41.6c0.7,0.5,1.2,1.2,1.6,1.9l24.6,44.8c0.5,0.9,0.8,2,0.8,3.1v83.5
						c0,1.1-0.3,2.3-0.9,3.2l-44.5,75c-0.4,0.6-0.9,1.2-1.4,1.7l-37.7,30.9c-1.1,0.9-2.4,1.4-3.8,1.4l-89.9,3.9
						C906.8,1146.6,906.7,1146.6,906.6,1146.6z M888.2,1123.5l19.8,10.3l86.1-3.7l35.2-28.9l43-72.6v-80.1l-23.2-42.2l-49.3-39.6
						l-85.1-9l-42.6,9.1l-56.8,56.6l-4.7,108.2l13.3,26.6L888.2,1123.5z"/>
				</g>
				<g>
					<path d="M1064.1,976.4c-2.6,0-5-1.4-6.3-3.8c-1.9-3.5-0.6-7.8,2.9-9.7l169.7-90.8c1-0.6,2.2-0.8,3.4-0.8h40.7
						c1.8,0,3.6,0.7,4.9,1.9l12,11.1c1.5,1.4,2.3,3.3,2.3,5.3v25.7c0,1.2-0.3,2.4-0.9,3.5l-11.8,20.9c-1.9,3.5-6.3,4.7-9.8,2.7
						c-3.5-1.9-4.7-6.3-2.7-9.8l10.9-19.3v-20.7l-7.6-7.1h-36.1l-168.1,90C1066.4,976.1,1065.3,976.4,1064.1,976.4z"/>
				</g>
			</g>
			<g opacity="0.32">
				<g opacity="0.38">
					<path fill="#081613" d="M616.4,1080.3h-81.2c-1,0-1.9-0.2-2.8-0.7l-81.2-39.9c-1.4-0.7-2.5-1.9-3.1-3.3l-16.7-40.6
						c-0.3-0.8-0.5-1.6-0.5-2.4v-94.2c0-1,0.2-2,0.7-2.9l30.4-58.7c0.5-1,1.3-1.8,2.2-2.4l60.2-39.1c1-0.7,2.2-1,3.5-1h77.6
						c1.2,0,2.4,0.3,3.4,1l69.6,43.5c1,0.6,1.9,1.6,2.4,2.7l23.9,50.2c0.5,1,0.7,2.1,0.6,3.3l-8.7,102c-0.1,1.5-0.7,2.8-1.8,3.9
						l-73.9,76.8C619.8,1079.6,618.2,1080.3,616.4,1080.3z M536.7,1067.6h77l70.5-73.3l8.3-98l-22.3-47l-66.5-41.5h-73.8L472.7,845
						l-29,55.8v91.4l15.3,37.2L536.7,1067.6z"/>
				</g>
				<g opacity="0.38">
					<path fill="#081613" d="M914.4,1143.3c-1,0-2-0.2-2.9-0.7l-22.2-11.6c-0.6-0.3-1.1-0.7-1.6-1.2l-65.7-66.7
						c-0.5-0.5-0.9-1-1.2-1.6l-14.5-29c-0.5-1-0.7-2-0.7-3.1l4.8-112.3c0.1-1.6,0.7-3.1,1.9-4.2l59.9-59.7c0.9-0.9,2-1.5,3.2-1.7
						l45.4-9.7c0.7-0.1,1.3-0.2,2-0.1l87.9,9.3c1.2,0.1,2.4,0.6,3.3,1.4l51.8,41.6c0.7,0.5,1.2,1.2,1.6,1.9l24.6,44.8
						c0.5,0.9,0.8,2,0.8,3.1v83.5c0,1.1-0.3,2.3-0.9,3.2l-44.5,75c-0.4,0.6-0.9,1.2-1.4,1.7l-37.7,30.9c-1.1,0.9-2.4,1.4-3.8,1.4
						l-89.9,3.9C914.5,1143.3,914.5,1143.3,914.4,1143.3z M896,1120.2l19.8,10.3l86.1-3.7l35.2-28.9l43-72.6v-80.1l-23.2-42.2
						l-49.3-39.6l-85.1-9l-42.6,9.1L823,920.1l-4.7,108.2l13.3,26.6L896,1120.2z"/>
				</g>
				<g>
					<path fill="#081613" d="M616.4,1080.3h-81.2c-1,0-1.9-0.2-2.8-0.7l-81.2-39.9c-1.4-0.7-2.5-1.9-3.1-3.3l-16.7-40.6
						c-0.3-0.8-0.5-1.6-0.5-2.4v-94.2c0-1,0.2-2,0.7-2.9l30.4-58.7c0.5-1,1.3-1.8,2.2-2.4l60.2-39.1c1-0.7,2.2-1,3.5-1h77.6
						c1.2,0,2.4,0.3,3.4,1l69.6,43.5c1,0.6,1.9,1.6,2.4,2.7l23.9,50.2c0.5,1,0.7,2.1,0.6,3.3l-8.7,102c-0.1,1.5-0.7,2.8-1.8,3.9
						l-73.9,76.8C619.8,1079.6,618.2,1080.3,616.4,1080.3z M536.7,1067.6h77l70.5-73.3l8.3-98l-22.3-47l-66.5-41.5h-73.8L472.7,845
						l-29,55.8v91.4l15.3,37.2L536.7,1067.6z"/>
				</g>
				<g>
					<path fill="#081613" d="M823.3,944c-0.3,0-0.7,0-1-0.1l-130.8-20.3c-3.5-0.5-5.8-3.8-5.3-7.3c0.5-3.5,3.8-5.9,7.3-5.3
						l130.8,20.3c3.5,0.5,5.8,3.8,5.3,7.3C829.1,941.8,826.4,944,823.3,944z"/>
				</g>
				<g>
					<path fill="#081613" d="M914.4,1143.3c-1,0-2-0.2-2.9-0.7l-22.2-11.6c-0.6-0.3-1.1-0.7-1.6-1.2l-65.7-66.7
						c-0.5-0.5-0.9-1-1.2-1.6l-14.5-29c-0.5-1-0.7-2-0.7-3.1l4.8-112.3c0.1-1.6,0.7-3.1,1.9-4.2l59.9-59.7c0.9-0.9,2-1.5,3.2-1.7
						l45.4-9.7c0.7-0.1,1.3-0.2,2-0.1l87.9,9.3c1.2,0.1,2.4,0.6,3.3,1.4l51.8,41.6c0.7,0.5,1.2,1.2,1.6,1.9l24.6,44.8
						c0.5,0.9,0.8,2,0.8,3.1v83.5c0,1.1-0.3,2.3-0.9,3.2l-44.5,75c-0.4,0.6-0.9,1.2-1.4,1.7l-37.7,30.9c-1.1,0.9-2.4,1.4-3.8,1.4
						l-89.9,3.9C914.5,1143.3,914.5,1143.3,914.4,1143.3z M896,1120.2l19.8,10.3l86.1-3.7l35.2-28.9l43-72.6v-80.1l-23.2-42.2
						l-49.3-39.6l-85.1-9l-42.6,9.1L823,920.1l-4.7,108.2l13.3,26.6L896,1120.2z"/>
				</g>
				<g>
					<path fill="#081613" d="M1081.9,959.4c-2.3,0-4.5-1.2-5.6-3.4c-1.6-3.1-0.4-7,2.7-8.6l154-80.6c1-0.5,2.2-0.8,3.3-0.7l46.4,2.6
						c1.5,0.1,2.9,0.7,4,1.7l12,11.1c1.3,1.2,2,2.9,2,4.7v25.7c0,1.1-0.3,2.2-0.8,3.1l-11.8,20.9c-1.7,3.1-5.6,4.1-8.7,2.4
						c-3.1-1.7-4.1-5.6-2.4-8.7l11-19.5V889l-8.3-7.7l-42.3-2.3l-152.5,79.7C1083.9,959.2,1082.9,959.4,1081.9,959.4z"/>
				</g>
				<path fill="#081613" d="M465.1,878.4l-120.7-2.7l-0.4,12.7l120.9,2.7c3.4,0.1,6.4-2.7,6.5-6.2
					C471.4,881.4,468.6,878.5,465.1,878.4z"/>
			</g>
			<g>
				<polygon opacity="0.32" fill="#081613" points="782.5,874.1 774.7,881.5 772.2,874.2 765.8,878 759.3,874.4 753.5,881.7 
					750.9,871.2 743.5,876.6 737.5,867 734.3,895.4 725.8,936.3 711.3,963.9 720.1,958.8 726.2,975.2 732.1,971.5 735.1,980.6 
					742,975.9 747.6,989.1 756.9,985.8 762.9,992.2 771.5,959.7 782.7,893.3 				"/>
				
					<polygon opacity="0.69" fill="#F8F88E" stroke="#F3F82D" stroke-width="2.9825" stroke-linecap="round" stroke-linejoin="round" stroke-miterlimit="10" points="
					780.2,875.8 772.4,882.9 769.8,875.9 763.5,879.5 757,876.1 751.2,883.1 748.6,873.1 741.2,878.2 735.2,869.1 732,896 
					723.5,934.9 708.9,961 717.8,956.2 723.8,971.7 729.7,968.2 732.8,976.8 739.7,972.4 745.2,984.9 754.6,981.8 760.5,987.8 
					769.1,957 780.4,894 				"/>
				<polygon opacity="0.3" fill="#F3F82D" points="771.8,941.9 723.5,934.9 719.8,941.5 769.1,957 				"/>
				<polygon opacity="0.3" fill="#F3F82D" points="774.5,926.8 726.6,920.5 732,896 780.4,894 				"/>
			</g>
		</g>
		<g>
			<path opacity="0.22" fill="#081613" d="M1525.2,1429.1c0,0,27-1.5,34.7-5.3s-30.4,4.4-36.8-10.3c0,0-2.6-13.6,13.4-5.6
				s31.3,7.7,38.1,4.6c6.8-3.1,20.1-9.1,23.7-16.8c3.6-7.8,8.3-22.4,9.8-21.6c1.4,0.8,2.3,6.6,5.4,16.4c1.9,6.1-10.5,34.8-25.2,33
				s-13.5,15.2-49.5,9.3C1538.9,1432.8,1524.7,1435.9,1525.2,1429.1z"/>
			
				<path fill="none" stroke="#E0FCF7" stroke-width="4.742" stroke-linecap="round" stroke-linejoin="round" stroke-miterlimit="10" d="
				M1522.5,1415.5c0,0,77.8,20.7,86.9-39.4"/>
			
				<path fill="none" stroke="#E0FCF7" stroke-width="4.742" stroke-linecap="round" stroke-linejoin="round" stroke-miterlimit="10" d="
				M1522,1408.5c0,0,73.7,43.3,90.1-9.8"/>
			
				<path fill="none" stroke="#E0FCF7" stroke-width="4.742" stroke-linecap="round" stroke-linejoin="round" stroke-miterlimit="10" d="
				M1524,1431.2c0,0,68.2,13.8,91-38.9"/>
			<g>
				
					<path fill="none" stroke="#E0FCF7" stroke-width="3.7439" stroke-linecap="round" stroke-linejoin="round" stroke-miterlimit="10" d="
					M1607.6,908.8c16.8,599.3-28.3,517.8-28.3,517.8"/>
				<g>
					<path fill="#E51554" d="M1608.7,896.6c0,0,179-141.2,165.4-276c-13.6-134.8-145-142-164.4-141.6c0,0-139.6-4.3-153.8,135.6
						C1441.8,754.5,1608.7,896.6,1608.7,896.6z"/>
					<path opacity="0.51" fill="#B60D46" d="M1614.6,891.8c-2.1,1.4-4.6,2.6-7.3,3.5c-16.3-14.3-164.7-148.5-151.3-280.7
						C1470,474.7,1609.7,479,1609.7,479c7.1-0.2,29.2,0.7,55,8.5c3.5,5.6,6.1,12.2,7.6,20.1c15.6,83.6-91.3,78.5-102.4,154.1
						c-11.1,75.6,54.4,221.7,54.4,221.8C1620.4,886.9,1617.1,889.7,1614.6,891.8z"/>
					<path opacity="0.59" fill="#B60D46" d="M1455.4,621c34.8-6.6,54.4,101,78.6,159.5c24.2,58.6,90.3,103,90.3,103
						c-1.3,1.1-2.5,2.2-3.6,3.2c-7.8-1.1-16.8-2.4-27-3.9C1553.6,844.5,1448.4,732.7,1455.4,621z"/>
					<path fill="#B60D46" d="M1626.2,881.8l-1.9,1.7l-30.7-0.7l-2.8-2.7C1590.8,880.1,1602,883,1626.2,881.8z"/>
					<polygon fill="#E51554" points="1624.1,888.2 1638,900.8 1633.4,904.5 1622.6,902.8 1624.6,913.9 1612.7,913.9 1603.3,912.2 
						1594.5,913.9 1589.6,907.8 1591.4,901.8 1582.9,899.2 1584,892.7 1596.6,887.5 					"/>
					<polygon opacity="0.51" fill="#B60D46" points="1633.4,904.5 1627.1,890.9 1624.1,888.2 1594.1,887.5 1582.9,899.2 
						1591.4,901.8 1594.6,893 1597.1,896.2 1594.5,913.9 1603.3,912.2 1606.2,895.8 1608.2,894.2 1612.7,913.9 1624.6,913.9 
						1622.6,902.8 					"/>
					<path fill="#B60D46" d="M1592.3,888.4c0,0,1.4,5.1,17.8,4.6c16.4-0.5,18.8-1.9,17.7-4.6
						C1626.7,885.7,1592.3,888.4,1592.3,888.4z"/>
					
						<path fill="none" stroke="#E0FCF7" stroke-width="3.7439" stroke-linecap="round" stroke-linejoin="round" stroke-miterlimit="10" d="
						M1625.6,884.4c0,0-27.5,1.6-34.8-1.6"/>
					
						<path fill="none" stroke="#E0FCF7" stroke-width="3.7439" stroke-linecap="round" stroke-linejoin="round" stroke-miterlimit="10" d="
						M1626.3,887.5c0,0-24.1,4.1-33.1-1.5"/>
					<polygon fill="#B60D46" points="1622.6,902.8 1621.1,894.2 1628.7,903.8 					"/>
					<polygon fill="#B60D46" points="1603.3,912.2 1606.2,895.8 1595.4,913.7 					"/>
					<polygon fill="#B60D46" points="1591.4,901.8 1594.6,893 1585.5,900 					"/>
					<path fill="#EA4476" d="M1687.1,776.8c1.9,2.9,94.1-114.1,66.5-172.6c-27.5-58.4-44.8,19.4-45.2,54.2
						c-0.4,34.8-31.1,114.3-31.1,114.3L1687.1,776.8z"/>
					<path fill="#EA4476" d="M1673.9,796.7L1673.9,796.7c-4.4,0-7.9-3.6-7.9-7.9v0c0-4.4,3.6-7.9,7.9-7.9h0c4.4,0,7.9,3.6,7.9,7.9v0
						C1681.8,793.1,1678.2,796.7,1673.9,796.7z"/>
					<path fill="none" stroke="#EA4476" stroke-width="3.7439" stroke-miterlimit="10" d="M1688.1,811.8c0,0,103.2-128.8,75.1-216.7
						"/>
					<path fill="#FAD9E3" d="M1670.6,799L1670.6,799c-3.7,0-6.7-3-6.7-6.7v0c0-3.7,3-6.7,6.7-6.7h0c3.7,0,6.7,3,6.7,6.7v0
						C1677.3,796,1674.3,799,1670.6,799z"/>
					<path fill="#FAD9E3" d="M1681.8,774.6c0,0,85.5-120.2,57.2-171.2c-1.6-2.8-4.3-5-7.5-5.3c-3.5-0.3-7.4,1.5-7,11.3
						c0.6,17.7-9.1,115.8-47.2,163.4L1681.8,774.6z"/>
				</g>
			</g>
		</g>
		<g>
			<g>
				<path fill="#BB9F2A" d="M305.2,1295.4c0,0,23.7-0.9,60.1,12.3c15.3,5.5,83.8,41.6,81.4-2.7c-2.6-48.4-132-41.6-132-41.6
					L305.2,1295.4z M391.2,1293c0-3.6,2.4-6.5,5.3-6.5c2.9,0,5.3,2.9,5.3,6.5c0,3.6-2.4,6.5-5.3,6.5
					C393.6,1299.5,391.2,1296.6,391.2,1293z M360.8,1283.4c0-2.7,1.7-4.9,3.8-4.9c2.1,0,3.8,2.2,3.8,4.9c0,2.7-1.7,4.9-3.8,4.9
					C362.5,1288.4,360.8,1286.2,360.8,1283.4z"/>
				
					<ellipse fill="#F9C60C" stroke="#F9C60C" stroke-width="5.3165" stroke-linecap="round" stroke-linejoin="round" stroke-miterlimit="10" cx="254.6" cy="1266.5" rx="27.6" ry="43.1"/>
				<ellipse fill="#B0D2DC" cx="249.9" cy="1266.3" rx="23" ry="38.8"/>
				<path fill="#D2F1FC" d="M251.3,1305c-10.6-1.3-18.9-18.1-18.9-38.7s8.4-37.4,18.9-38.7c12,1.3,21.5,18.1,21.5,38.7
					S263.3,1303.7,251.3,1305z"/>
				
					<path fill="#F9C60C" stroke="#F9C60C" stroke-width="5.3165" stroke-linecap="round" stroke-linejoin="round" stroke-miterlimit="10" d="
					M276.7,1247.8c0,0,62.2,5.6,68.6,1.9c0,0,5,33.9-0.9,45.6c0,0-39.3,13.9-73.4,0.9C271.1,1296.3,278.8,1278,276.7,1247.8z"/>
				
					<path fill="#BB9F2A" stroke="#BB9F2A" stroke-width="3.7657" stroke-linecap="round" stroke-linejoin="round" stroke-miterlimit="10" d="
					M310.2,1246.3c0,0-0.4,55.5-2.1,61.1l12.7-1.1c0,0,10-35.8,3.2-60.1H310.2z"/>
			</g>
			
				<polyline fill="none" stroke="#0D352E" stroke-width="3.7657" stroke-linecap="round" stroke-linejoin="round" stroke-miterlimit="10" points="
				252.6,1244.6 252.6,1268.4 239.4,1265.2 			"/>
			<path opacity="0.42" fill="#F6F5FD" d="M245.4,1228.2l19.9,66.7c0,0-4.9,8.2-12.7,10.1l-20.6-63.1
				C232,1241.9,237.2,1229.9,245.4,1228.2z"/>
		</g>
	</g>
</g>
<g id="Layer_13">
</g>
<g id="Layer_12">
</g>
<g id="Layer_11">
</g>
<g id="Layer_10">
</g>
<g id="Layer_9">
</g>
<g id="Layer_8">
</g>
<g id="Layer_7">
</g>
<g id="Layer_6">
</g>
<g id="Layer_5">
</g>
<g id="Layer_4">
</g>
<g id="Layer_3">
</g>
<g id="Layer_2">
</g>
</svg>
