<?xml version="1.0" encoding="utf-8"?>
<!-- Generator: Adobe Illustrator 24.0.2, SVG Export Plug-In . SVG Version: 6.00 Build 0)  -->
<svg version="1.1" xmlns="http://www.w3.org/2000/svg" xmlns:xlink="http://www.w3.org/1999/xlink" x="0px" y="0px"
	 viewBox="0 0 1982.6 2048" enable-background="new 0 0 1982.6 2048" xml:space="preserve">
<g id="Layer_1">
	<g id="Layer_23">
	</g>
</g>
<g id="Layer_22">
</g>
<g id="Layer_21">
</g>
<g id="Layer_20">
</g>
<g id="Layer_19">
	<g>
		<g>
			<g>
				<g>
					<g>
						<path fill="#A47828" d="M734.1,1598.1l-6,123.8c-0.2,4.4-2.9,8.2-7,9.8c-16.8,6.6-59.8,26.5-59.3,58.5
							c0.7,44.8,116.4,27.2,141.8,12.8c21.9-12.4,16.8-99.9,20.1-166c3.9-77.2-3.2-91.9-46.8-92.9
							C727.2,1542.9,734.1,1598.1,734.1,1598.1z"/>
						<path fill="#A47828" d="M934.8,1597.1l-2.1,175.1c-0.1,4.5-1.6,8.8-4.5,12.2c-12.1,14.5-44.1,57.1-31.7,88.6
							c16.7,42.2,81.6,7,106.4-20.3c24.8-27.2,25.8-22.6,29-85.5s4.7-148.7,4.7-148.7s7.3-52.2-55.5-52.2
							C932.5,1566.4,934.8,1597.1,934.8,1597.1z"/>
						<path fill="#A47828" d="M390,1004.1c0,0,65.8,3.4,51.6,106.2c0,0-119.3,90.3-95.5,185.9c0,0,25.3,12.8,20.5,41.5
							s10.7,66.2-45.8,67S217.1,1311,265.3,1195C313.5,1079.1,363.2,1018.2,390,1004.1z"/>
						<g>
							<path fill="#F9C60C" d="M1673.5,1262.5c18.9-276.2-27.7-656.6-143.5-775c0,0-226.2-196.1-721-200.5
								c-13.7-0.1-27.3,1.9-40.4,5.9c-81.8,25.1-373.5,135.5-411.1,444c-23.9,196.2-9.5,382.5,8.5,511.2l4.5,1.8l3.2,23.3l-3.9,1.4
								c13.9,91.5,28.6,147.8,28.6,147.8s20.7,148.3,372,212.3c0,0,293.1,66.2,420.7,44.8s435.6-56,473-323.9
								c2.7-19.7,5.1-40.3,7-61.7l-2.4-1l1.9-28.7L1673.5,1262.5z"/>
							<path fill="#BB9F2A" d="M1664,1355.6c2.8-20,5-39.9,7-61.7c0,0-2.5,0.2-2.4-1c0.8-8.9,1.3-19.6,1.9-28.7l3-1.7
								c18-273.8-27.7-651.6-141.1-772.3c-58.3,35.9-226.3,136.3-341.1,176.3c-5.1,1.8-10.1,3.4-14.9,5c0,0-10.2,10.2,0,51.1
								c10.2,40.9,17.5,874.3,14.6,956.8C1318.6,1658,1626.6,1623.4,1664,1355.6z"/>
							<path fill="#92681D" d="M1670.5,1264.2L1670.5,1264.2c-145,87.7-428.7,157.3-474,165.9c-36.4,6.9-149.8-10.8-418.8-65.1
								c-222.6-45-379.2-104.2-407.3-115.2l3.2,23.3l-3.9,1.4c1.6,0.7,155.1,65.5,402.9,115.6c235,47.5,351.2,66.9,405.5,66.9
								c9.5,0,17.1-0.6,23.1-1.7c46-8.7,321.5-71.7,469.7-161.4l-2.4-1L1670.5,1264.2z"/>
							<path fill="#FFE183" d="M1178.2,1457.1c9.5,0,17.1-0.6,23.1-1.7c46-8.7,321.5-71.7,469.7-161.4l-2.4-1
								c-156.4,95.3-477.1,158.6-477.1,158.6c-77.5,0.5-314.8-43.4-463-75.4c-207.3-44.8-354.8-103-354.8-103l-3.9,1.4
								c1.6,0.7,155.1,65.5,402.9,115.6C1007.6,1437.6,1123.9,1457.1,1178.2,1457.1z"/>
						</g>
						<g>
							<path fill="#BB9F2A" d="M1125.1,678c-2.2,0-4.4-0.5-6.4-1.7c-2.8-1.6-279.7-157.6-612-126.9c-7.1,0.6-13.3-4.5-13.9-11.6
								c-0.7-7.1,4.5-13.3,11.6-13.9c340.5-31.4,624.3,128.6,627.1,130.2c6.1,3.5,8.3,11.4,4.7,17.5
								C1133.9,675.7,1129.5,678,1125.1,678z"/>
						</g>
						<ellipse fill="#BB9F2A" cx="970.4" cy="406" rx="65.9" ry="33.5"/>
						<path fill="#262008" d="M970.4,439.5c26.8,0,49.8-8.2,60.1-19.9c-1.4-9.4-11.8-23-60.1-25.5c0,0-44.9-2.2-60.8,24.8
							C919.5,431,943,439.5,970.4,439.5z"/>
						<path fill="#BB9F2A" d="M442.8,907.8c0,0-15.1-202.6,96.4-218.2C650.7,674,883,734.4,883,734.4s182.9,35.6,186.8,181.7
							c3.9,146.1,37.7,343.4-109.9,348.2c0,0-85.7,2.4-242.6-43.8c-156.8-46.3-263.2-78.8-266.6-184.5L442.8,907.8z"/>
						<path fill="#E9F3EA" d="M1069.9,916C1066,769.9,883,734.4,883,734.4s-214.8-55.8-330.5-46.2c-17,31.8-39.6,100.3-44.1,242.3
							v71.6c0,0-5.8,96.4,104.5,133c0,0,133.3,46.4,237.4,68.7c88.7,19,170.9,10.8,214.1-25.4
							C1084.9,1106.4,1072.2,1002.3,1069.9,916z"/>
						<path fill="#F6F5FD" d="M961,1212.9c0,0,14.6,0.7,55.3-9.7c0,0-27.5-0.7-67.5-3.5c-108.7-7.7-191.8-41.4-325.1-83.3
							s-86.2-243.8-71.6-340.2c8.2-54,43.8-77.3,73.6-87.3c-26.5-2-51.6-2.5-73.2-0.7c-17,31.8-39.6,100.3-44.1,242.3v71.6
							c0,0-5.8,96.4,104.5,133c0,0,133.3,46.4,237.4,68.7C889.5,1212,927.3,1215.1,961,1212.9z"/>
						<path fill="#262008" d="M1265.4,1617.9L1265.4,1617.9c-6.2,0-11.3-5.1-11.3-11.3v-99.4c0-6.2,5.1-11.3,11.3-11.3h0
							c6.2,0,11.3,5.1,11.3,11.3v99.4C1276.7,1612.8,1271.6,1617.9,1265.4,1617.9z"/>
						<path fill="#262008" d="M1320.9,1608.8L1320.9,1608.8c-6.2,0-11.3-5.1-11.3-11.3v-99.4c0-6.2,5.1-11.3,11.3-11.3l0,0
							c6.2,0,11.3,5.1,11.3,11.3v99.4C1332.2,1603.7,1327.1,1608.8,1320.9,1608.8z"/>
						<path fill="#262008" d="M1376.2,1596.3L1376.2,1596.3c-6.2,0-11.3-5.1-11.3-11.3v-99.4c0-6.2,5.1-11.3,11.3-11.3l0,0
							c6.2,0,11.3,5.1,11.3,11.3v99.4C1387.6,1591.2,1382.5,1596.3,1376.2,1596.3z"/>
						<path fill="#262008" d="M1514.7,864.3L1514.7,864.3c-6.2,0.9-11.9-3.4-12.8-9.6l-28.3-194.6c-0.9-6.2,3.4-11.9,9.6-12.8l0,0
							c6.2-0.9,11.9,3.4,12.8,9.6l28.3,194.6C1525.2,857.6,1520.9,863.4,1514.7,864.3z"/>
						<path fill="#262008" d="M1566.3,834.2L1566.3,834.2c-6.2,0.9-11.9-3.4-12.8-9.6L1525.1,630c-0.9-6.2,3.4-11.9,9.6-12.8h0
							c6.2-0.9,11.9,3.4,12.8,9.6l28.3,194.6C1576.8,827.6,1572.4,833.3,1566.3,834.2z"/>
						
							<ellipse transform="matrix(0.24 -0.9708 0.9708 0.24 -92.1842 2344.8684)" fill="#262008" cx="1451.5" cy="1231.3" rx="110.5" ry="83.7"/>
						<g>
							<g>
								<path fill="#262008" d="M1227.3,1281.7l12.2,10l0,28.3l-12.2,17.4L1227.3,1281.7z M1261.5,1329.8l-31.9,9.5l12-17.3l16.7-5
									l7.8,6.2L1261.5,1329.8z M1262.1,1285.8l6-8.6l6.1,5l0.1,29.1l-6.1,8.7l-6.1-5L1262.1,1285.8z M1278.3,1311l16.5-4.9
									l12.2,10l-31.7,9.5l-4.6-3.8L1278.3,1311z M1308.9,1257.5l0.4,55.3l-12.2-10l-0.2-28.1L1308.9,1257.5z"/>
								<path fill="#262008" d="M1229.6,1342.5c-1,0-2-0.5-2.6-1.3c-0.2-0.2-0.3-0.5-0.4-0.7c-0.1,0-0.2,0-0.3-0.1
									c-1.3-0.4-2.2-1.7-2.2-3.1l0-55.6c0-1.2,0.7-2.4,1.8-2.9c1.1-0.5,2.5-0.4,3.4,0.4l12.2,10c0.7,0.6,1.2,1.5,1.2,2.5l0,26.6
									l14.7-4.4c0.5-0.2,1.1-0.2,1.6-0.1l-0.1-28.1c0-0.7,0.2-1.3,0.6-1.9l6-8.6c0.5-0.7,1.3-1.2,2.2-1.3c0.9-0.1,1.8,0.1,2.5,0.7
									l6.1,5c0.7,0.6,1.2,1.5,1.2,2.5l0.1,25.7l16.3-4.9c0-0.1,0-0.1,0-0.2l-0.2-28.1c0-0.7,0.2-1.3,0.6-1.9l12-17.2
									c0.8-1.1,2.3-1.6,3.6-1.2c1.3,0.4,2.2,1.6,2.3,3l0.4,55.3c0,1.2-0.7,2.4-1.8,2.9c-0.2,0.1-0.3,0.1-0.5,0.2
									c0,0.3,0,0.6-0.1,0.9c-0.2,1.2-1.1,2.1-2.2,2.4l-31.7,9.5c-1,0.3-2.1,0.1-2.9-0.6l-4.3-3.5c-0.1,0.2-0.2,0.3-0.3,0.5
									l-4.7,6.6c-0.4,0.6-1,1-1.7,1.2l-31.9,9.6C1230.2,1342.5,1229.9,1342.5,1229.6,1342.5z M1243.6,1324.7l-6.2,8.9l22-6.6
									l2.3-3.2l-4.1-3.3L1243.6,1324.7z M1261.5,1329.8L1261.5,1329.8L1261.5,1329.8z M1230.5,1288.5l0,38.7l5.8-8.2l0-25.7
									L1230.5,1288.5z M1275,1321.3l1,0.8l24.3-7.3l-6.3-5.1l-13.8,4.1L1275,1321.3z M1265.4,1313.4l2.3,1.9l3.5-5l-0.1-26.6
									l-2.3-1.8l-3.5,4.9L1265.4,1313.4z M1300.3,1301.2l5.8,4.7l-0.3-38.4l-5.7,8.1L1300.3,1301.2z"/>
							</g>
							<g>
								<path fill="#262008" d="M1261.2,1256.4l-34,10.1l12.2-17.2l18.6-5.5l7.7,6.2L1261.2,1256.4z M1277.9,1237.9l16.4-4.9
									l12.2,9.9l-31.5,9.3l-4.6-3.7L1277.9,1237.9z M1308.3,1185.1l0.4,54.6l-12.2-9.9l-0.2-27.8L1308.3,1185.1z"/>
								<path fill="#262008" d="M1227.2,1269.6c-1,0-2-0.5-2.6-1.3c-0.8-1.1-0.8-2.6,0-3.7l12.2-17.2c0.4-0.6,1-1,1.7-1.2l18.6-5.5
									c1-0.3,2.1-0.1,2.9,0.6l7.4,5.9c0.1-0.1,0.2-0.3,0.3-0.4l7.5-10.7c0.4-0.6,1-1,1.7-1.2l16.4-4.8c0-0.1,0-0.1,0-0.2
									l-0.2-27.8c0-0.7,0.2-1.3,0.6-1.9l11.9-16.9c0.8-1.1,2.2-1.6,3.6-1.2c1.3,0.4,2.2,1.6,2.2,3l0.4,54.6c0,1.2-0.7,2.4-1.8,2.9
									c-0.2,0.1-0.3,0.1-0.5,0.2c0,0.3,0,0.6-0.1,0.8c-0.2,1.2-1.1,2.1-2.2,2.4l-31.5,9.3c-1,0.3-2.1,0.1-2.9-0.6l-4.2-3.4
									c-0.1,0.2-0.2,0.3-0.3,0.4l-4.6,6.5c-0.4,0.6-1,1-1.7,1.2l-34,10.1C1227.9,1269.6,1227.5,1269.6,1227.2,1269.6z
									 M1241.5,1252l-6.2,8.7l24-7.1l2.2-3.1l-4-3.2L1241.5,1252z M1261.2,1256.4L1261.2,1256.4L1261.2,1256.4z M1274.7,1248
									l0.9,0.8l24.1-7.1l-6.1-5l-13.7,4.1L1274.7,1248z M1299.8,1228.2l5.7,4.6l-0.3-37.8l-5.6,7.9L1299.8,1228.2z"/>
							</g>
							<g>
								<path fill="#262008" d="M1257.9,1178.8l-18.5,5.4l-12.2-9.8l33.7-9.9l4.6,3.6L1257.9,1178.8z M1274.5,1160.6l33.5-9.8
									l-11.9,16.8l-18.6,5.4l-7.5-6.1L1274.5,1160.6z"/>
								<path fill="#262008" d="M1239.4,1187.4c-0.7,0-1.4-0.2-2-0.7l-12.2-9.8c-0.9-0.8-1.4-2-1.1-3.1c0.2-1.2,1.1-2.1,2.2-2.4
									l33.7-9.9c1-0.3,2.1-0.1,2.9,0.6l4.3,3.4c0.1-0.1,0.2-0.3,0.2-0.4l4.5-6.3c0.4-0.6,1-1,1.7-1.2l33.5-9.8
									c1.3-0.4,2.7,0.1,3.5,1.2c0.8,1.1,0.8,2.6,0,3.7l-11.9,16.8c-0.4,0.6-1,1-1.7,1.2l-18.6,5.4c-1,0.3-2.1,0.1-2.9-0.6
									l-7.2-5.8c-0.1,0.1-0.2,0.3-0.2,0.4l-7.6,10.6c-0.4,0.6-1,1-1.7,1.2l-18.5,5.4C1240,1187.4,1239.7,1187.4,1239.4,1187.4z
									 M1234,1175.8l6.1,4.9l15.9-4.7l5.2-7.2l-0.9-0.7L1234,1175.8z M1257.9,1178.8L1257.9,1178.8L1257.9,1178.8z M1274.4,1166.3
									l3.9,3.2l15.9-4.7l5.9-8.4l-23.6,6.9L1274.4,1166.3z"/>
							</g>
							<g>
								<path fill="#262008" d="M1267.4,1089.6l6,4.8l0.2,40.4l-6,8.4l-6-4.9l-0.1-40.5L1267.4,1089.6z"/>
								<path fill="#262008" d="M1267.6,1146.4c-0.7,0-1.4-0.3-2-0.7l-6-4.9c-0.8-0.6-1.2-1.5-1.2-2.5l-0.1-40.5
									c0-0.7,0.2-1.3,0.6-1.9l5.9-8.3c0.5-0.7,1.3-1.2,2.2-1.3c0.9-0.1,1.8,0.1,2.4,0.7l6,4.8c0.7,0.6,1.2,1.5,1.2,2.5l0.2,40.4
									c0,0.7-0.2,1.3-0.6,1.9l-6,8.4c-0.5,0.7-1.3,1.2-2.2,1.3C1267.9,1146.4,1267.8,1146.4,1267.6,1146.4z M1264.8,1136.8
									l2.2,1.8l3.4-4.7l-0.2-37.9l-2.2-1.7l-3.4,4.7L1264.8,1136.8z"/>
							</g>
							<g>
								<path fill="#262008" d="M1257.6,1073.2l-16.2,4.7l-11.9-9.6l31-8.9l4.6,3.6L1257.6,1073.2z M1274,1055.4l30.9-8.9
									l-11.8,16.4l-16.1,4.7l-7.5-6L1274,1055.4z"/>
								<path fill="#262008" d="M1241.4,1081.1c-0.7,0-1.4-0.2-2-0.7l-11.9-9.6c-0.9-0.8-1.4-2-1.1-3.1c0.2-1.2,1.1-2.1,2.3-2.4
									l31-8.9c1-0.3,2-0.1,2.9,0.6l4.3,3.3c0.1-0.1,0.1-0.2,0.2-0.4l4.4-6.2c0.4-0.6,1-1,1.7-1.2l30.9-8.9
									c1.3-0.4,2.7,0.1,3.5,1.2c0.8,1.1,0.8,2.6,0,3.7l-11.8,16.5c-0.4,0.6-1,1-1.7,1.2l-16.1,4.7c-1,0.3-2.1,0.1-2.9-0.6
									l-7.1-5.7c-0.1,0.1-0.1,0.2-0.2,0.4l-7.5,10.3c-0.4,0.6-1,1-1.7,1.2l-16.2,4.7C1242,1081.1,1241.7,1081.1,1241.4,1081.1z
									 M1236.3,1069.6l5.9,4.7l13.5-3.9l5.1-6.9l-0.9-0.7L1236.3,1069.6z M1257.6,1073.2L1257.6,1073.2L1257.6,1073.2z
									 M1273.9,1061l3.8,3.1l13.4-3.9l5.8-8l-21,6L1273.9,1061z"/>
							</g>
							<g>
								<path fill="#262008" d="M1227.2,995.6l11.9,9.5l0,24.4l-11.9,16.4L1227.2,995.6z M1260.4,1038.9l-31,8.9l11.7-16.4l16.2-4.6
									l7.6,5.9L1260.4,1038.9z M1257.3,997.6l-16.1,4.6l-11.7-9.6l30.7-8.8l4.6,3.5L1257.3,997.6z M1273.6,980l30.6-8.7
									l-11.7,16.2l-15.9,4.5l-7.4-5.9L1273.6,980z M1276.8,1021.2l16.1-4.6l11.9,9.6l-30.9,8.9l-4.5-3.6L1276.8,1021.2z
									 M1306.6,973l0.4,50.1l-11.9-9.5l-0.2-24.3L1306.6,973z"/>
								<path fill="#262008" d="M1229.4,1051c-1,0-2-0.5-2.6-1.4c-0.1-0.2-0.2-0.4-0.3-0.6c-0.1,0-0.2-0.1-0.3-0.1
									c-1.3-0.4-2.2-1.7-2.2-3l0-50.3c0-1.2,0.7-2.4,1.8-2.9c0.2-0.1,0.3-0.1,0.5-0.2c0-0.2,0-0.4,0.1-0.6
									c0.2-1.2,1.1-2.1,2.3-2.4l30.7-8.8c1-0.3,2-0.1,2.8,0.5l4.2,3.3c0.1-0.1,0.1-0.2,0.2-0.3l4.4-6.1c0.4-0.6,1-1,1.7-1.2
									l30.6-8.7c1.3-0.4,2.7,0.1,3.5,1.2c0.1,0.1,0.2,0.2,0.2,0.4c0.2,0,0.3,0.1,0.5,0.1c1.3,0.4,2.2,1.6,2.2,3l0.4,50.1
									c0,1.2-0.7,2.4-1.8,2.9c-0.1,0.1-0.3,0.1-0.4,0.2c0,0.2,0,0.5-0.1,0.7c-0.2,1.2-1.1,2.1-2.3,2.4l-30.9,8.9
									c-1,0.3-2.1,0.1-2.9-0.6l-4.1-3.3c-0.1,0.1-0.2,0.3-0.2,0.4l-4.6,6.2c-0.4,0.6-1,1-1.7,1.2l-31,8.9
									C1230,1051,1229.7,1051,1229.4,1051z M1243.1,1034.2l-5.7,8l21.1-6.1l2.1-2.8l-3.9-3L1243.1,1034.2z M1260.4,1038.9
									L1260.4,1038.9L1260.4,1038.9z M1230.4,1002.3l0,33.7l5.5-7.5l0-21.8L1230.4,1002.3z M1273.8,1030.9l0.8,0.6l23.3-6.7
									l-5.8-4.6l-13.4,3.8L1273.8,1030.9z M1257.4,1023.6c0.7,0,1.4,0.2,2,0.7l7.3,5.7c0.1-0.1,0.1-0.2,0.2-0.4l7.4-10.2
									c0.4-0.6,1-1,1.7-1.2l16-4.6c0,0,0,0,0-0.1l-0.2-22.4l-14.2,4.1c-1,0.3-2.1,0.1-2.9-0.6l-7-5.6c-0.1,0.1-0.1,0.2-0.2,0.3
									l-7.5,10.2c-0.4,0.6-1,1-1.7,1.2l-16,4.6l0,22.6l14.2-4.1C1256.8,1023.6,1257.1,1023.6,1257.4,1023.6z M1298.3,1012l5.5,4.4
									l-0.3-33.5l-5.3,7.4L1298.3,1012z M1236.3,994l5.6,4.6l13.4-3.8l5-6.8l-0.8-0.6L1236.3,994z M1257.3,997.6L1257.3,997.6
									L1257.3,997.6z M1273.6,985.5l3.7,3l13.3-3.8l5.6-7.8l-20.7,5.9L1273.6,985.5z"/>
							</g>
							<g>
								<path fill="#262008" d="M1252.8,949l-25.7-9l-4.2-16.5l38.4,13.3l1.6,6.1L1252.8,949z M1272.9,941l38.3,13.3l-16.1,9.4
									l-25.5-9l-2.6-10.3L1272.9,941z"/>
								<path fill="#262008" d="M1295,966.9c-0.4,0-0.7-0.1-1.1-0.2l-25.5-9c-1-0.4-1.8-1.2-2-2.2l-2.4-9.3l-9.6,5.6
									c-0.8,0.5-1.8,0.6-2.7,0.3l-25.7-9c-1-0.4-1.8-1.2-2-2.2l-4.2-16.5c-0.3-1.1,0.1-2.4,0.9-3.2c0.9-0.8,2.1-1.1,3.2-0.7
									l38.4,13.4c1,0.4,1.8,1.2,2,2.2l1.4,5.2l5.5-3.1c0.8-0.5,1.8-0.6,2.6-0.2l38.3,13.3c1.2,0.4,2,1.5,2.1,2.7
									c0.1,1.2-0.5,2.4-1.6,3.1l-16.1,9.4C1296.2,966.8,1295.6,966.9,1295,966.9z M1272.2,952.2l22.5,8l8.8-5.2l-30.4-10.6
									l-2.6,1.5L1272.2,952.2z M1229.8,937.6l22.7,7.9l6.7-4l-0.6-2.1l-31.2-10.8L1229.8,937.6z"/>
							</g>
							<g>
								<path fill="#262008" d="M1257,898.5l-15.9,4.5l-11.8-9.4l30.5-8.6l4.5,3.5L1257,898.5z M1273.1,881.3l30.4-8.5l-11.6,15.9
									l-15.9,4.5l-7.3-5.8L1273.1,881.3z"/>
								<path fill="#262008" d="M1241.1,906.2c-0.7,0-1.4-0.2-2-0.7l-11.7-9.4c-0.9-0.7-1.4-2-1.1-3.1c0.2-1.2,1.1-2.1,2.3-2.4
									l30.5-8.6c1-0.3,2-0.1,2.8,0.5l4.2,3.2c0.1-0.1,0.1-0.2,0.2-0.3l4.4-6c0.4-0.6,1-1,1.7-1.2l30.4-8.5
									c1.3-0.4,2.7,0.1,3.5,1.3c0.8,1.1,0.8,2.6,0,3.7l-11.6,15.9c-0.4,0.6-1,1-1.7,1.2l-15.9,4.5c-1,0.3-2.1,0.1-2.9-0.6l-7-5.5
									c-0.1,0.1-0.1,0.2-0.2,0.3l-7.4,10c-0.4,0.6-1,1-1.7,1.2L1242,906C1241.7,906.1,1241.4,906.2,1241.1,906.2z M1236.2,895
									l5.6,4.4l13.3-3.7l4.9-6.6l-0.7-0.6L1236.2,895z M1257,898.5L1257,898.5L1257,898.5z M1273.2,886.7l3.7,2.9l13.2-3.7
									l5.5-7.5l-20.4,5.7L1273.2,886.7z"/>
							</g>
							<g>
								<path fill="#262008" d="M1227.1,823.3l11.7,9.2l0,23.6l-11.7,15.8L1227.1,823.3z M1256.7,825.3l-15.8,4.4l-11.5-9.3
									l30.1-8.4l4.5,3.4L1256.7,825.3z M1260.5,825l5.8-7.8l5.8,4.6l0.1,26.7l-5.8,7.9l-5.9-4.6L1260.5,825z M1275.9,848.2
									l15.8-4.4l11.7,9.3l-30.3,8.5l-4.4-3.5L1275.9,848.2z M1305.2,801.6l0.4,48.4l-11.7-9.3l-0.2-23.5L1305.2,801.6z"/>
								<path fill="#262008" d="M1227.1,875.2c-0.3,0-0.7-0.1-1-0.2c-1.3-0.4-2.2-1.7-2.2-3l0-48.7c0-1.2,0.7-2.3,1.8-2.9
									c0.2-0.1,0.3-0.1,0.5-0.2c0-0.2,0-0.3,0.1-0.5c0.2-1.2,1.1-2.1,2.3-2.4l30.1-8.4c1-0.3,2-0.1,2.8,0.5l4.5,3.4
									c0.4,0.3,0.7,0.7,0.9,1.1c0.5,0.1,1,0.3,1.4,0.6l5.8,4.6c0.8,0.6,1.2,1.5,1.2,2.5l0.1,23.3l15.3-4.3l-0.2-23.5
									c0-0.7,0.2-1.4,0.6-1.9l11.5-15.6c0.8-1.1,2.3-1.6,3.6-1.2c1.3,0.4,2.2,1.6,2.2,3l0.4,48.4c0,1.2-0.7,2.4-1.8,2.9
									c-0.1,0.1-0.3,0.1-0.4,0.2c0,0.2,0,0.4-0.1,0.6c-0.2,1.2-1.1,2.1-2.3,2.5l-30.3,8.5c-1,0.3-2.1,0.1-2.9-0.6l-4.4-3.5
									c-0.4-0.3-0.7-0.7-0.9-1.1c-0.5-0.1-1-0.3-1.4-0.6l-5.9-4.6c-0.8-0.6-1.2-1.5-1.2-2.5l-0.1-23.2l-15.3,4.3l0,23.4
									c0,0.7-0.2,1.4-0.6,1.9l-11.7,15.8C1229.1,874.7,1228.1,875.2,1227.1,875.2z M1230.3,830l0,32.3l5.3-7.1l0-21L1230.3,830z
									 M1273.1,857.5l0.7,0.6l22.7-6.4l-5.5-4.4l-13.1,3.7L1273.1,857.5z M1263.7,850.1l2,1.6l3.2-4.4l-0.1-24.1l-2-1.6l-3.2,4.3
									L1263.7,850.1z M1297.1,839.2l5.3,4.2l-0.3-32.1l-5.1,7L1297.1,839.2z M1236.3,821.8l5.4,4.3l13.1-3.6l4.8-6.4l-0.7-0.5
									L1236.3,821.8z M1256.7,825.3L1256.7,825.3L1256.7,825.3z"/>
							</g>
						</g>
						<path fill="#A47828" d="M1479.2,1169.8c0,0-65.8,3.4-51.6,106.2c0,0,119.3,90.3,95.5,185.9c0,0-25.3,12.8-20.5,41.5
							s-10.7,66.2,45.8,67c56.5,0.7,103.7-93.8,55.5-209.7C1555.7,1244.8,1506,1183.9,1479.2,1169.8z"/>
					</g>
				</g>
			</g>
			<g>
				<polygon fill="#262008" points="816.7,1422.9 1052.5,1469.6 1052.5,1512.2 819.8,1463.7 				"/>
				<polygon fill="#BB9F2A" points="833.9,1452.7 832.3,1426.5 816.7,1422.9 819.8,1463.7 1052.5,1512.2 1052.5,1494.9 				"/>
			</g>
			<g>
				<g>
					<g>
						
							<ellipse transform="matrix(3.440763e-02 -0.9994 0.9994 3.440763e-02 -539.256 2690.2119)" fill="#BB9F2A" cx="1122.6" cy="1624.2" rx="14.4" ry="13.2"/>
					</g>
					<path fill="#92681D" d="M1124.9,1610c6.3,1.2,11,7.2,10.9,14.4c-0.1,7.2-5.1,13-11.4,14c-5.5-1.2-9.7-7.1-9.5-14.3
						C1114.9,1616.9,1119.3,1611,1124.9,1610z"/>
				</g>
				<g>
					<g>
						
							<ellipse transform="matrix(3.440763e-02 -0.9994 0.9994 3.440763e-02 -510.848 2628.0142)" fill="#BB9F2A" cx="1104.6" cy="1578.4" rx="14.4" ry="13.2"/>
					</g>
					<path fill="#92681D" d="M1106.9,1564.2c6.3,1.2,11,7.2,10.9,14.4c-0.1,7.2-5.1,13-11.4,14c-5.5-1.2-9.7-7.1-9.5-14.3
						C1097,1571.1,1101.3,1565.2,1106.9,1564.2z"/>
				</g>
				<g>
					<g>
						
							<ellipse transform="matrix(3.440763e-02 -0.9994 0.9994 3.440763e-02 -574.3711 2624.657)" fill="#BB9F2A" cx="1071.1" cy="1609.6" rx="14.4" ry="13.2"/>
					</g>
					<path fill="#92681D" d="M1073.4,1595.4c6.3,1.2,11,7.2,10.9,14.4c-0.1,7.2-5.1,13-11.4,14c-5.5-1.2-9.7-7.1-9.5-14.3
						C1063.5,1602.2,1067.8,1596.4,1073.4,1595.4z"/>
				</g>
				<path fill="#BB9F2A" d="M1146.1,1640.8c-2.3-14.8-5.6-29.4-9.7-43.8c-4.1-14.4-8.3-28.8-14.7-42.1c-1.7-3.3-3.5-6.5-5.6-9.4
					c-2.2-2.8-4.9-5.5-8.2-6.5c-3.3-0.9-7.1-0.2-10.5,1c-3.5,1.2-6.7,3-9.8,5c-6.3,4-11.8,9.1-17.1,14.4c-5.3,5.3-10,11.1-14.6,17
					c-4.5,5.9-8.8,12.1-12.5,18.5c-1.8,3.2-3.6,6.5-4.7,9.9c-1,3.5-1.7,7-1.7,10.6c0,3.5,0.7,7,2.2,10.2c1.5,3.1,3.7,5.9,6.5,8.1
					c5.7,4.3,12.4,7.8,19.1,10.6c13.6,5.7,28.3,8.9,43.1,9.7c7.4,0.3,14.9-0.1,22.3-1.1c3.7-0.3,7.4-1.3,10.6-3.1
					c1.6-0.9,3.1-2.1,4-3.6C1145.9,1644.5,1146.2,1642.6,1146.1,1640.8z M1146.4,1640.8c0.2,1.9-0.1,3.9-1.1,5.5
					c-1,1.7-2.5,2.9-4.1,3.9c-3.3,2-7,2.9-10.7,3.5c-7.4,1.4-14.9,2.2-22.5,2.4c-15.1,0.1-30.3-2.8-44.4-8.7c-7-3-13.8-6.3-20-11.1
					c-3.1-2.5-5.6-5.8-7.3-9.4c-1.6-3.7-2.4-7.7-2.3-11.6c0.1-3.9,0.8-7.8,2.1-11.5c1.3-3.8,3.3-7,5.2-10.3
					c4-6.4,8.5-12.5,13.3-18.3c9.6-11.5,20-22.5,32.5-31.2c3.1-2.1,6.4-4,10-5.4c3.6-1.3,7.4-2.4,11.5-1.5c4,1.1,7,3.9,9.5,6.8
					c2.4,3,4.5,6.3,6.3,9.6c6.9,13.6,11,28.2,14.3,42.8c1.6,7.3,3,14.7,4.3,22.1C1144,1626,1145.4,1633.3,1146.4,1640.8z"/>
				<path fill="#BB9F2A" d="M1130.1,1571.5c0,0-8.6-26.8-24.2-24.5c-15.6,2.4-56.6,46.8-60.4,62.3c-3.6,14.6,7.2,23,16.2,27.2
					c9.2,4.3,48,18.3,84.6,4.2c0,0,2.2,11.1-20.2,13.1c-22.4,2.1-38.9-1.2-38.9-1.2s-39.4-7.7-47-22.6c-7.7-14.9-3.6-23.1-3.6-23.1
					s6.4-15.8,15-26.5c8.6-10.8,32.1-39,47.6-42c15.5-2.9,19.9,7.8,24.1,16.1C1127.3,1563,1130.1,1571.5,1130.1,1571.5z"/>
			</g>
		</g>
		<g>
			<defs>
				<path id="SVGID_126_" d="M1428.4,1274.3c0,0,119.4,90.4,95.5,186c0,0-25.3,12.8-20.5,41.5c4.9,28.7-10.7,66.3,45.8,67
					c56.5,0.7,103.8-93.8,55.5-209.7c-48.2-115.9-97.9-176.8-124.7-191l317.7-1.6l-42.9,438.4l-491.9,153.3l-484.4-21.7
					l-375.1-157.9L341,1202.7L1428.4,1274.3z"/>
			</defs>
			<clipPath id="SVGID_1_">
				<use xlink:href="#SVGID_126_"  overflow="visible"/>
			</clipPath>
			<path opacity="0.22" clip-path="url(#SVGID_1_)" fill="#081613" d="M366,1246l-1.3-9.7c0,0,302.2,124.3,515,147
				c212.7,22.7,255.9,28.4,311.7,19.7c0,0,401.1-75.7,483.5-152.4l-0.6,32.8l-605,281.4l-653.7-196.3L366,1246z"/>
			<path opacity="0.22" clip-path="url(#SVGID_1_)" fill="#081613" d="M732,1649.9l-0.9,21.7c0,0,77.7,25.1,91.8,16.6v-30
				L732,1649.9z"/>
			<path opacity="0.22" clip-path="url(#SVGID_1_)" fill="#081613" d="M934.1,1710.4l0.2-24.2l101.9,7.3l-1.9,26.2
				C1034.3,1719.7,959.5,1724,934.1,1710.4z"/>
			<g clip-path="url(#SVGID_1_)">
				<g>
					<path fill="none" stroke="#081613" stroke-width="3.7657" stroke-miterlimit="10" d="M761.9,1402.8c0,0,7.5,194-7.2,207.6
						c0,0-9,6.1-3.1,18.2s-5.5,18.8-8.7,13.4c-3.1-5.4-1.7-28.7-1.7-28.7s-14.9,8.8-18.7-17.8s30.5-195.6,30.5-195.6
						S761.5,1391.9,761.9,1402.8z"/>
					<path fill="none" stroke="#081613" stroke-width="3.4391" stroke-miterlimit="10" d="M816.8,1416.2c0,0-28.4,103.3-7.2,151.9
						c0,0,3.1,4.1,7.8,3.2s5.5,11.8,0.6,18.7c-4,5.6-6.6,24.7,6.3,7.9c12.9-16.8,1.7-32,1.7-32s21.4,8.9-0.2-146.6
						C825.6,1419.5,820.1,1403.1,816.8,1416.2z"/>
					<path fill="#07332C" d="M366,1246c0,0,464.6,191.7,835.6,165.5c0,0,424.6-92.7,473.2-150.9l7.2,27.9l-6.9,5.1
						c0,0,31.7,170.3-26.6,240.2c-58.3,69.9-451.3,184.9-466.8,184.5c-15.4-0.4-262.1-9.9-273.7-25.7c-11.6-15.9-8.8-34.8-8.8-34.8
						l-59.9-10.7c0,0,3,27.9-2.6,32.6c-5.6,4.7-331.1-57.4-382.1-108.5C403.8,1520.2,366,1246,366,1246z"/>
					<g opacity="0.53">
						<path fill="#081613" d="M1675,1300.1c0,0-142.9,87.5-487,142.4c0,0-227.9-5.4-326.8-29l0.4,14.1c0,0,237.4,35.3,326.4,27.8
							c0,0,329.8-41.6,488-148.5L1675,1300.1z"/>
						<path fill="#081613" d="M376.1,1300.3c0,0,208,78.2,346.2,99.3v-14.2c0,0-245-55.6-347.4-101.8L376.1,1300.3z"/>
						<path fill="#081613" d="M765.1,1393.8c-1.9-2.5-5-4.2-8.1-3.7c-1.4,0.2-2.9,0.8-4.1,0.1c-0.8-0.5-1.1-1.3-1.7-2
							c-1.6-1.8-4.5-1.5-6.9-1.1c-3.4,0.6-7.3,1.5-8.8,4.6c-1.8,3.6,0.5,7.5,0.6,11.2c0,3-1.9,5.6-1.5,8.6c0.3,2.1,2,4.1,4.1,4
							c0.5,0,1.1-0.2,1.6,0.1c0.5,0.3,0.7,0.9,0.9,1.4c0.9,2.3,3,3.9,5.4,4.8c-8.5,43.3-30.2,157.5-27.2,179
							c3.7,26.6,18.7,17.8,18.7,17.8s-1.4,23.3,1.7,28.7c3.1,5.4,14.5-1.3,8.7-13.4s3.1-18.2,3.1-18.2c12.5-11.5,9-152,7.6-195.1
							c0.4-0.6,0.7-1.2,0.8-2c0.1-1.2-0.5-2.5,0-3.6c0.4-0.9,1.3-1.3,2.2-1.8c2.4-1.2,5.1-2.5,6.2-5c0.7-1.8,0.5-3.8,0.2-5.7
							C767.9,1399.4,767,1396.3,765.1,1393.8z"/>
						<path fill="#081613" d="M832.3,1401.2c-4.4-3.1-10.3-2.7-15.7-2.2c-2.6,0.2-5.5,0.6-7.2,2.7c-1.7,2.1-1.6,5.5-3.9,6.9
							c-1.2,0.8-2.8,0.8-4.1,1.2c-3.8,1.2-5.8,6.4-3.6,9.8c1.2,2,3.5,3.2,4.4,5.3c0.4,0.8,0.5,1.8,0.8,2.7c0.8,2.9,2.9,5.2,5.5,6.7
							c-6.9,30-20.1,100.1-3.7,137.7c0,0,3.1,4.1,7.8,3.2c4.6-0.9,5.5,11.8,0.6,18.7c-4,5.6-6.6,24.7,6.3,7.9
							c12.9-16.8,1.7-32,1.7-32s20.2,8.4,1.5-134.1c1.2-0.2,2.4-0.3,3.6-0.3c3.9-0.1,7.9-1.6,9.5-5.6c1.4-3.5,0.5-7.6,2-11
							c0.8-1.9,2.4-3.6,2.6-5.7c0.2-2.3-1.2-4.4-2.6-6.3C836,1404.8,834.5,1402.6,832.3,1401.2z"/>
					</g>
					<polygon opacity="0.83" fill="#FFFFFF" points="1254.8,1399.6 1250.4,1700.4 1297.1,1686.2 1297.6,1389.2 					"/>
					<polygon opacity="0.83" fill="#FFFFFF" points="1314.3,1385.1 1351.1,1375.9 1351.1,1668.8 1314.3,1682 					"/>
					<g opacity="0.22">
						<path fill="#081613" d="M511.7,1601c117.9,42,321,82.4,325.3,78.8c5.6-4.7,2.6-32.6,2.6-32.6s-275.3-67-344.4-109.9
							L511.7,1601z"/>
						<path fill="#081613" d="M839.6,1647.1l4.9,0.9C843,1647.5,841.4,1647.2,839.6,1647.1z"/>
					</g>
					<path fill="#518279" d="M862.2,1411.1l0.4,14.1c0,0,237.4,35.3,326.4,27.8c0,0,329.8-41.6,488-148.5l-1.1-6.7
						c0,0-142.9,87.5-487,142.4C1189,1440.1,961.1,1434.7,862.2,1411.1z"/>
					<path opacity="0.22" fill="#081613" d="M1648.7,1533.9c58.3-69.9,26.6-240.2,26.6-240.2l6.9-5.1l-7.2-27.9
						c-48.6,58.2-473.2,150.9-473.2,150.9c-3.4,0.2-6.8,0.4-10.2,0.6l-9.5,306.3C1197.4,1718.8,1590.3,1603.8,1648.7,1533.9z"/>
					<path fill="#518279" d="M722.3,1382.9c0,0-245-55.6-347.4-101.8l1.2,16.6c0,0,208,78.2,346.2,99.3V1382.9z"/>
					<path fill="#3A6058" d="M738.7,1386.5c1.5-3.1,5.4-4,8.8-4.6c2.4-0.4,5.2-0.7,6.9,1.1c0.6,0.7,1,1.5,1.7,2
						c1.2,0.7,2.7,0.1,4.1-0.1c3.1-0.5,6.2,1.3,8.1,3.7c1.9,2.5,2.7,5.6,3.3,8.7c0.3,1.9,0.6,3.9-0.2,5.7c-1.1,2.5-3.7,3.8-6.2,5
						c-0.9,0.4-1.8,0.9-2.2,1.8c-0.5,1.1,0,2.4,0,3.6c-0.1,1.5-1.3,2.9-2.6,3.5c-1.4,0.7-3,0.8-4.5,0.8c-4.6,0-9.8-1.6-11.5-5.9
						c-0.2-0.5-0.4-1.1-0.9-1.4c-0.5-0.3-1.1-0.1-1.6-0.1c-2.1,0.1-3.8-1.9-4.1-4c-0.4-3,1.5-5.6,1.5-8.6
						C739.3,1394,737,1390,738.7,1386.5z"/>
					<path fill="#3A6058" d="M817.5,1432.2c-4.4-1-8.4-4.2-9.7-8.5c-0.3-0.9-0.4-1.8-0.8-2.7c-0.9-2.1-3.2-3.4-4.4-5.3
						c-2.1-3.4-0.2-8.6,3.6-9.8c1.4-0.4,2.9-0.4,4.1-1.2c2.3-1.5,2.2-4.8,3.9-6.9c1.7-2,4.6-2.4,7.2-2.7c5.4-0.5,11.3-0.9,15.7,2.2
						c2.1,1.5,3.7,3.6,5.2,5.7c1.4,1.9,2.8,4,2.6,6.3c-0.2,2.1-1.7,3.8-2.6,5.7c-1.5,3.5-0.6,7.5-2,11c-1.6,3.9-5.5,5.5-9.5,5.6
						C826.4,1431.8,822,1433.3,817.5,1432.2z"/>
					
						<path fill="none" stroke="#081613" stroke-width="3.7657" stroke-linecap="round" stroke-linejoin="round" stroke-miterlimit="10" d="
						M724,1371.3c0,0-3.7,5.5-1.7,46.3"/>
					
						<path fill="none" stroke="#081613" stroke-width="3.7657" stroke-linecap="round" stroke-linejoin="round" stroke-miterlimit="10" d="
						M859.3,1394.8c0,0,7.5,28.3,1.8,50.9"/>
					
						<path fill="none" stroke="#081613" stroke-width="3.7657" stroke-linecap="round" stroke-linejoin="round" stroke-miterlimit="10" d="
						M495.2,1537.2c103.8,56.6,344.4,109.9,344.4,109.9l59.9,10.7c0,0,15.1-19.1,29.6-24.2"/>
					<path fill="#518279" d="M761.9,1402.8c0,0,7.5,194-7.2,207.6c0,0-9,6.1-3.1,18.2s-5.5,18.8-8.7,13.4
						c-3.1-5.4-1.7-28.7-1.7-28.7s-14.9,8.8-18.7-17.8s30.5-195.6,30.5-195.6S761.5,1391.9,761.9,1402.8z"/>
					<path fill="#ECF6FB" d="M744.5,1612.5c1.6-0.4,3.2-0.6,4.8-0.7c2.8-0.1,3.8-0.1,3.4,0.3c-2.2,2.7-5.1,8.1-1.1,16.4
						c5.9,12.1-5.5,18.8-8.7,13.4c-3.1-5.4-1.7-28.7-1.7-28.7L744.5,1612.5z"/>
					<path fill="#518279" d="M816.8,1416.2c0,0-28.4,103.3-7.2,151.9c0,0,3.1,4.1,7.8,3.2s5.5,11.8,0.6,18.7
						c-4,5.6-6.6,24.7,6.3,7.9c12.9-16.8,1.7-32,1.7-32s21.4,8.9-0.2-146.6C825.6,1419.5,820.1,1403.1,816.8,1416.2z"/>
					<path fill="#ECF6FB" d="M817.4,1571.4c4.7-0.8,5.5,11.8,0.6,18.7c-4,5.6-6.6,24.7,6.3,7.9c12.9-16.8,1.7-32,1.7-32
						s-7.8-0.5-9.4,3.4C816.4,1569.5,815.8,1571.6,817.4,1571.4z"/>
				</g>
			</g>
			
				<polygon opacity="0.22" clip-path="url(#SVGID_1_)" fill="#081613" stroke="#081613" stroke-width="3.7657" stroke-linecap="round" stroke-linejoin="round" stroke-miterlimit="10" points="
				1176.2,1546.2 1083.5,1459.2 1176.2,1598.1 			"/>
			
				<polygon opacity="0.22" clip-path="url(#SVGID_1_)" fill="#081613" stroke="#081613" stroke-width="2.697" stroke-linecap="round" stroke-linejoin="round" stroke-miterlimit="10" points="
				396.3,1396.2 466.9,1337.7 402.8,1428.2 			"/>
		</g>
		<g>
			
				<polygon opacity="0.22" fill-rule="evenodd" clip-rule="evenodd" fill="#081613" stroke="#081613" stroke-width="2.715" stroke-linecap="round" stroke-linejoin="round" stroke-miterlimit="10" points="
				181.6,1769.2 273,1874.8 596.5,1828.3 284.2,1734.3 			"/>
			<polygon fill-rule="evenodd" clip-rule="evenodd" fill="#041C16" points="288.4,1529.1 328.3,1464 468.3,1491.9 461.6,1825 
				281.7,1862.3 247.6,1659.5 			"/>
			<polygon fill-rule="evenodd" clip-rule="evenodd" fill="#326B45" points="288.4,1529.1 228.6,1517.2 188.3,1436.1 368.3,1398.8 
				468.3,1491.9 			"/>
			<polygon fill-rule="evenodd" clip-rule="evenodd" fill="#07332C" points="181.6,1769.2 281.7,1862.3 288.4,1529.1 188.3,1436.1 
							"/>
			<g>
				<path fill-rule="evenodd" clip-rule="evenodd" fill="#518279" d="M353.6,1664.3c29.2,10.9,63.4-7.8,76-41.7
					c12.6-33.8-0.9-70.3-30.1-81.3c-29.2-10.9-63.4,7.8-76,41.7C310.8,1616.9,324.3,1653.4,353.6,1664.3z"/>
				<path fill-rule="evenodd" clip-rule="evenodd" fill="#041C16" d="M359.3,1648.9c21.9,8.2,47.5-5.9,57-31.2
					c9.5-25.4-0.7-52.8-22.6-60.9c-21.9-8.2-47.5,5.9-57,31.2C327.2,1613.4,337.4,1640.8,359.3,1648.9z"/>
				<path opacity="0.46" fill-rule="evenodd" clip-rule="evenodd" fill="#ECF6FB" d="M370.2,1619.8c8.1,3,17.5-2.2,21-11.5
					c3.5-9.4-0.3-19.4-8.3-22.5c-8.1-3-17.5,2.2-21,11.5S362.1,1616.8,370.2,1619.8z"/>
			</g>
			<g>
				
					<ellipse transform="matrix(0.3495 -0.9369 0.9369 0.3495 -1402.8394 1492.3956)" fill-rule="evenodd" clip-rule="evenodd" fill="#518279" cx="373.4" cy="1756.5" rx="65.6" ry="56.6"/>
				<path fill-rule="evenodd" clip-rule="evenodd" fill="#041C16" d="M356.2,1802.6c21.9,8.2,47.5-5.9,57-31.2
					c9.5-25.4-0.7-52.8-22.6-60.9c-21.9-8.2-47.5,5.9-57,31.2C324.1,1767.1,334.3,1794.4,356.2,1802.6z"/>
				<path opacity="0.46" fill-rule="evenodd" clip-rule="evenodd" fill="#ECF6FB" d="M367.1,1773.5c8.1,3,17.5-2.2,21-11.5
					s-0.3-19.4-8.3-22.5c-8.1-3-17.5,2.2-21,11.5C355.2,1760.4,359,1770.5,367.1,1773.5z"/>
			</g>
		</g>
		<g>
			<path fill="#890303" d="M353.9,1261.6l3-35.2c0,0-94.4-33.5-126.6,26.2l3.9,29.2C234.2,1281.7,280.1,1235,353.9,1261.6z"/>
			<path fill="#C60000" d="M360.8,1265.4v-6.9c0,0-71.2-35.8-137.3,26.6l2.6,7.7c0,0-55.6,88.6-2.6,161.3c53,72.7,160,36,160,36
				s71.6-36,63.5-92.2c-8.2-56.2-30.5-57.1-30.5-57.1s51.1,7.1,31.1-40.8C427.7,1252.3,369.8,1259.6,360.8,1265.4z"/>
			<path opacity="0.57" fill="#890303" d="M234.2,1291.2c46.5-44.4,115-23.2,115-23.2"/>
			
				<path fill="none" stroke="#3A0505" stroke-width="3.7657" stroke-linecap="round" stroke-linejoin="round" stroke-miterlimit="10" d="
				M195.9,1392c-12.9-80.4,43.1-120.2,43.1-120.2s-62.9,60.8-74.7,37c-11.8-23.8,69.9-32.9,69.9-32.9s-62.6,23.6-69.5-5.8
				s69.5,5.8,69.5,5.8s-50.3,25-54.6,62.8"/>
			
				<path fill="none" stroke="#3A0505" stroke-width="3.7657" stroke-linecap="round" stroke-linejoin="round" stroke-miterlimit="10" d="
				M238,1272.6c0,0,48.2-40.4,115.8-16.9"/>
			<path opacity="0.22" fill="#081613" d="M223.5,1285.2c3.3-3.1,6.7-6,10-8.7l-3.2-24c12.9-23.9,35.7-32.8,58.5-35
				c-8,4.6-17.9,12.1-14,19.4c6.2,11.8,78.8-17.6,79.1,24.5c0.3,42.2-105.9-16.9-119.7,83.1c-4.6,33.4,14,5.4,98.1,33.4
				c50.7,16.9,78.7,56.3,83.3,89.6c-16,14.5-32.1,22.6-32.1,22.6s-107,36.7-160-36c-53-72.7,2.6-161.3,2.6-161.3L223.5,1285.2z"/>
			<path opacity="0.22" fill="#081613" d="M370.5,1299.2c-6.6-19.1,31.1,2.1,59.2,9.4c11.9,3.1,15.2-4.6,15-14.6
				c1,1.9,2,3.9,2.9,6.1c18.8,45-25.3,41.4-30.6,40.8c0.6,0.1,1.6,0.3,2.9,0.9C391.9,1334.4,376.6,1316.6,370.5,1299.2z"/>
			
				<line opacity="0.53" fill="none" stroke="#3A0505" stroke-width="3.6491" stroke-linecap="round" stroke-linejoin="round" stroke-miterlimit="10" x1="342" y1="1225.3" x2="341" y2="1247.3"/>
			
				<line opacity="0.53" fill="none" stroke="#3A0505" stroke-width="3.6491" stroke-linecap="round" stroke-linejoin="round" stroke-miterlimit="10" x1="326.5" y1="1222.7" x2="325.4" y2="1244.7"/>
			
				<line opacity="0.53" fill="none" stroke="#3A0505" stroke-width="3.6491" stroke-linecap="round" stroke-linejoin="round" stroke-miterlimit="10" x1="310.5" y1="1221.6" x2="309.4" y2="1243.6"/>
			
				<line opacity="0.53" fill="none" stroke="#3A0505" stroke-width="3.6491" stroke-linecap="round" stroke-linejoin="round" stroke-miterlimit="10" x1="291.9" y1="1222.7" x2="292.6" y2="1244.7"/>
			
				<line opacity="0.53" fill="none" stroke="#3A0505" stroke-width="3.6491" stroke-linecap="round" stroke-linejoin="round" stroke-miterlimit="10" x1="273" y1="1225.5" x2="276.9" y2="1247.2"/>
			
				<line opacity="0.53" fill="none" stroke="#3A0505" stroke-width="3.6491" stroke-linecap="round" stroke-linejoin="round" stroke-miterlimit="10" x1="255.9" y1="1232.8" x2="261.7" y2="1254"/>
			
				<line opacity="0.53" fill="none" stroke="#3A0505" stroke-width="3.6491" stroke-linecap="round" stroke-linejoin="round" stroke-miterlimit="10" x1="242.3" y1="1240.4" x2="248.1" y2="1261.6"/>
			
				<line opacity="0.53" fill="none" stroke="#3A0505" stroke-width="3.1437" stroke-linecap="round" stroke-linejoin="round" stroke-miterlimit="10" x1="233.7" y1="1251" x2="238" y2="1266.8"/>
			
				<path opacity="0.83" fill="none" stroke="#FFFFFF" stroke-width="11.2971" stroke-linecap="round" stroke-linejoin="round" stroke-miterlimit="10" d="
				M419.9,1443c0,0,19.6-27.8,8.2-64.9"/>
			
				<line opacity="0.83" fill="none" stroke="#FFFFFF" stroke-width="11.2971" stroke-linecap="round" stroke-linejoin="round" stroke-miterlimit="10" x1="419.7" y1="1361.7" x2="411.6" y2="1349.3"/>
			
				<line opacity="0.83" fill="none" stroke="#FFFFFF" stroke-width="11.2971" stroke-linecap="round" stroke-linejoin="round" stroke-miterlimit="10" x1="422.6" y1="1284.7" x2="409" y2="1278.7"/>
		</g>
		<g>
			<g>
				<defs>
					<path id="SVGID_128_" d="M824.4,1635.2c-1.6,32.2-1.3,69.4-3,100.6l-0.6,1.4c-2.9,6.7-12.4,10.8-12.4,10.8
						c-16.9,9.7-39.7,7.6-45.1,6.2c-5.4-1.4-9.7,0.6-9.7,0.6s-1.5-9.3-8.7-18.5c-7.2-9.2-17.1-12.4-17.1-12.4
						c0.1-0.1,0.1-0.3,0.2-0.5c0.3-1,0.6-2.1,0.6-3.1l6-123.9l-115.7,133l10.6,126.1l147.9,17l72.6-83.5L837,1639.6L824.4,1635.2z"
						/>
				</defs>
				<clipPath id="SVGID_2_">
					<use xlink:href="#SVGID_128_"  overflow="visible"/>
				</clipPath>
				<g clip-path="url(#SVGID_2_)">
					<path fill="#CBD3D1" d="M649.7,1777.1c-9.2,16.4-0.4,32.5,17,43.9c12.7,8.3,27.8,12.6,43.1,12.5c48.9-0.4,116-28.9,117.2-62
						C769.7,1825.9,652,1830.9,649.7,1777.1z"/>
					<path fill="#07332C" d="M756.5,1788.5c3.6,0.1,6.7-2.3,7.5-5.6l0,0c0.9-4.1-2-8.2-6.4-8.9c-24.4-4.2-43.6-19.3-59.3-41.7
						c-2.2,5.3-5.9,10.1-10.8,14.6C704.9,1773.4,730.6,1788,756.5,1788.5z"/>
					<path fill="#3A6058" d="M824.2,1759c0,0,0-0.1-0.1-0.1c0.2-0.2,0.4-0.3,0.6-0.5c10.3-8.7,10.4-24.1,0.3-33.6l-1.3-1.2
						c3.2,25.1-37.6,34.9-61.1,30.1c-4-0.8-8.1,0.1-11.1,2.5c-3.3,2.6-5.7,5.7-7.2,9.2c-0.6,1.5-1.5,2.9-2.7,4
						c5.1,2,10.4,3.6,15.9,4.5c0.5,0.1,0.9,0.2,1.3,0.3C783.9,1775.8,807,1773.4,824.2,1759z"/>
					<path fill="#518279" d="M758.9,1774.3c3.6,1.3,5.9,4.9,5.1,8.6l0,0c-0.8,3.3-3.8,5.7-7.5,5.6c-11.8-0.2-23.6-3.4-34.6-9.3
						c-16.8,7.1-32.4,15-20.9,35.3c39.5,3.4,92.9-11.5,126-43c0.2-4.1,1.1-10.2-0.9-14.4C808.8,1771.5,783.9,1775.8,758.9,1774.3z"
						/>
					<path fill="#FFFFFF" d="M722.2,1722.7c-4.2-0.4-8.2,1.6-10.1,5.1c-2.6,4.7-5.2,8.9-7.9,12.5c10.7,13.3,23,23.3,37.3,29.1
						c1.2-1.1,2.1-2.5,2.7-4c1.4-3.5,3.9-6.5,7.1-9.1c0.7-0.6,1.4-1,2.2-1.4C752.2,1742.1,738.5,1724.4,722.2,1722.7z"/>
					<path fill="#FFFFFF" d="M665.9,1760.4c-7.8,5.5-13,11.1-16.2,16.7c0.9,22.7,22.4,34.9,51.3,37.4c-11.5-20.3,4.1-28.2,20.9-35.3
						c-11.1-6-21.5-14.8-30.1-26.2C684.3,1758.2,675.9,1760.6,665.9,1760.4z"/>
					<path fill="#518279" d="M687.5,1746.9c-0.7,0.7-1.5,1.3-2.3,1.9c-1.4,1.1-2.9,2.1-4.5,2.9c-5.7,2.8-10.6,5.8-14.8,8.7
						c10,0.1,18.4-2.2,25.9-7.4C690.3,1751,688.9,1749,687.5,1746.9z"/>
					<path fill="#3A6058" d="M712.4,1711.5c2.3-5,10.2-11,16.2-14.9c-14.4,4.7-25.3,16.1-28.6,30.3c-0.4,1.9-1,3.7-1.8,5.4
						c2,2.8,4,5.5,6,8c2.7-3.6,5.3-7.8,7.9-12.5c0.5-0.9,1.1-1.7,1.8-2.4C714.7,1719.7,709.8,1717.3,712.4,1711.5z"/>
					<path fill="#07332C" d="M818,1740.5c-11.7,12.4-38.2,16.7-55.4,13.2c-3.1-0.6-6.2-0.2-8.9,1.1c-1.5-12.8-15.1-30.5-31.5-32.2
						c-0.6-0.1-1.1-0.1-1.7,0c-2.5,0.1-4.8,1.1-6.5,2.8c0.7-5.8-4.3-8.1-1.6-14c2.3-5,10.2-11,16.2-14.9c0.8-0.3,1.7-0.5,2.6-0.8
						l13-3.4c22.2-5.8,46.2,0.2,62.9,15.8l16.5,15.4C824.6,1730.4,822.3,1736,818,1740.5z"/>
					<path fill="#07332C" d="M818,1740.5c-11.7,12.4-38.2,16.7-55.4,13.2c-3.1-0.6-6.2-0.2-8.9,1.1c-1.5-12.8-15.1-30.5-31.5-32.2
						c-0.6-0.1-1.1-0.1-1.7,0c4.5-3.3,9.7-5.8,15.2-7.2c3.8-1,7.4-2,7.4-2c22.2-5.8,46.2,0.2,62.9,15.8L818,1740.5z"/>
					<g>
						<path fill="#FFFFFF" d="M726.2,1783.4c-0.1-0.2-0.3-0.2-0.5-0.2c-0.4,0.2-0.8,0.4-1.3,0.6c-0.2,0.1-0.2,0.3-0.2,0.4
							c0,0.1,0.1,0.2,0.2,0.2c0.1,0,0.2,0,0.2,0c0.4-0.2,0.8-0.4,1.3-0.5C726.2,1783.8,726.3,1783.6,726.2,1783.4z"/>
						<path fill="#FFFFFF" d="M704.6,1807.1c0-0.2-0.2-0.3-0.4-0.3c-0.2,0-0.3,0.2-0.3,0.4c0.1,0.8,0.3,1.7,0.6,2.5
							c0,0.1,0.1,0.2,0.3,0.2c0.1,0,0.1,0,0.2,0c0.2,0,0.3-0.2,0.2-0.4C704.9,1808.7,704.7,1807.9,704.6,1807.1z"/>
						<path fill="#FFFFFF" d="M709.3,1793.2c-0.1-0.1-0.4-0.1-0.5,0c-0.6,0.6-1.2,1.3-1.8,1.9c-0.1,0.1-0.1,0.4,0.1,0.5
							c0,0,0.1,0.1,0.1,0.1c0.1,0,0.3,0,0.4-0.1c0.5-0.6,1.1-1.3,1.7-1.9C709.4,1793.5,709.4,1793.3,709.3,1793.2z"/>
						<path fill="#FFFFFF" d="M704.5,1802.2c0-0.2-0.1-0.4-0.3-0.4c-0.2,0-0.4,0.1-0.4,0.3c-0.1,0.8-0.2,1.7-0.2,2.6
							c0,0.2,0.1,0.3,0.3,0.3c0,0,0.1,0,0.1,0c0.2,0,0.3-0.1,0.3-0.3C704.3,1803.8,704.4,1803,704.5,1802.2z"/>
						<path fill="#FFFFFF" d="M717.4,1787.2c-0.8,0.4-1.6,0.9-2.3,1.3c-0.2,0.1-0.2,0.3-0.1,0.5c0.1,0.1,0.1,0.1,0.2,0.1
							c0.1,0,0.2,0,0.3,0c0.7-0.4,1.5-0.8,2.3-1.3c0.2-0.1,0.2-0.3,0.1-0.5C717.8,1787.2,717.5,1787.1,717.4,1787.2z"/>
						<path fill="#FFFFFF" d="M722.1,1784.9c-0.8,0.4-1.6,0.8-2.4,1.1c-0.2,0.1-0.2,0.3-0.1,0.4c0.1,0.1,0.1,0.2,0.2,0.2
							c0.1,0,0.2,0,0.2,0c0.7-0.4,1.5-0.7,2.4-1.1c0.2-0.1,0.2-0.3,0.2-0.4C722.5,1784.9,722.3,1784.8,722.1,1784.9z"/>
						<path fill="#FFFFFF" d="M712.9,1789.9c-0.8,0.5-1.5,1-2.1,1.5c-0.1,0.1-0.2,0.3,0,0.5c0.1,0.1,0.1,0.1,0.2,0.1
							c0.1,0,0.2,0,0.3-0.1c0.6-0.5,1.3-1,2.1-1.5c0.2-0.1,0.2-0.3,0.1-0.5C713.3,1789.8,713,1789.8,712.9,1789.9z"/>
						<path fill="#FFFFFF" d="M704.7,1800C704.7,1800,704.7,1800,704.7,1800c0.2,0.1,0.4,0,0.4-0.2c0.3-0.8,0.6-1.5,1-2.2
							c0.1-0.2,0-0.4-0.1-0.5c-0.2-0.1-0.4,0-0.5,0.1c-0.4,0.8-0.8,1.5-1.1,2.3C704.4,1799.7,704.5,1799.9,704.7,1800z"/>
						<path fill="#FFFFFF" d="M706,1812c-0.1-0.2-0.3-0.3-0.5-0.2c-0.2,0.1-0.3,0.3-0.2,0.4c0.2,0.4,0.3,0.8,0.5,1.3
							c0,0.1,0.1,0.2,0.2,0.2c0.1,0,0.1,0,0.2,0c0.2-0.1,0.3-0.3,0.2-0.4C706.3,1812.8,706.2,1812.4,706,1812z"/>
					</g>
					<g>
						<path fill="#FFFFFF" d="M690.1,1752.4c-0.1-0.1-0.2-0.1-0.3-0.1c0,0-0.4,0.3-1.2,0.7c-0.1,0.1-0.1,0.2-0.1,0.3
							c0,0.1,0.1,0.1,0.1,0.1c0.1,0,0.1,0,0.2,0c0.8-0.4,1.2-0.7,1.2-0.7C690.1,1752.6,690.1,1752.5,690.1,1752.4z"/>
						<path fill="#FFFFFF" d="M676.3,1757.7c-0.9,0.2-1.7,0.4-2.6,0.5c-0.1,0-0.2,0.1-0.2,0.3c0,0.1,0.1,0.2,0.2,0.2
							c0,0,0.1,0,0.1,0c0.9-0.1,1.8-0.3,2.6-0.5c0.1,0,0.2-0.1,0.2-0.3C676.5,1757.7,676.4,1757.6,676.3,1757.7z"/>
						<path fill="#FFFFFF" d="M686.3,1754.2c-0.8,0.4-1.6,0.7-2.4,1.1c-0.1,0-0.2,0.2-0.1,0.3c0,0.1,0.1,0.1,0.2,0.1
							c0,0,0.1,0,0.1,0c0.8-0.3,1.6-0.7,2.4-1.1c0.1-0.1,0.2-0.2,0.1-0.3C686.5,1754.2,686.4,1754.2,686.3,1754.2z"/>
						<path fill="#FFFFFF" d="M681.4,1756.2c-0.8,0.3-1.7,0.6-2.5,0.8c-0.1,0-0.2,0.2-0.2,0.3c0,0.1,0.1,0.1,0.2,0.2
							c0,0,0.1,0,0.1,0c0.9-0.2,1.7-0.5,2.6-0.8c0.1,0,0.2-0.2,0.1-0.3C681.6,1756.3,681.5,1756.2,681.4,1756.2z"/>
						<path fill="#FFFFFF" d="M671,1758.5c-0.5,0-0.9,0.1-1.4,0.1c-0.1,0-0.2,0.1-0.2,0.2c0,0.1,0.1,0.2,0.2,0.2c0,0,0,0,0.1,0
							c0.5,0,0.9-0.1,1.4-0.1c0.1,0,0.2-0.1,0.2-0.2C671.2,1758.6,671.1,1758.5,671,1758.5z"/>
					</g>
				</g>
			</g>
			<g>
				<defs>
					<path id="SVGID_130_" d="M1037.4,1617c0,0-1.5,85.9-4.7,148.7c-0.1,1.6-0.2,3.2-0.2,4.7c0,0-2.4,8.9-15.4,18
						c-13,9.1-30.7,12.7-36.3,12.4c-5.6-0.3-9.7,3.1-9.7,3.1c-2.6-7.8-12.8-18.4-21.8-22.8c-9-4.4-17.4-2.9-17.4-2.9
						c1-2.4,1.6-4.9,1.6-7.6l2.1-175.1l-91.1,289.3l103,36.9l136-101.5l-19.5-70.9L1037.4,1617z"/>
				</defs>
				<clipPath id="SVGID_3_">
					<use xlink:href="#SVGID_130_"  overflow="visible"/>
				</clipPath>
				<g clip-path="url(#SVGID_3_)">
					<path fill="#CBD3D1" d="M874.3,1851.5c-5.4,19.1,6.8,33.8,26.4,41.6c14.3,5.7,30,6.5,44.9,2.8c47.7-11.9,107.1-57.3,101-91.9
						C1002.5,1873.8,888.4,1906.7,874.3,1851.5z"/>
					<path fill="#07332C" d="M981.3,1838.1c3.5-0.8,6-3.9,6-7.6l0,0c0-4.5-3.8-8-8.2-7.7c-24.8,1.4-47-9.7-67.3-29.3
						c-1,6-3.5,11.9-7.4,17.7C927.4,1834.6,955.9,1843.6,981.3,1838.1z"/>
					<path fill="#3A6058" d="M1041,1791.6c0,0-0.1-0.1-0.1-0.1c0.1-0.2,0.3-0.4,0.4-0.6c8.2-11.5,4.8-27.5-7.2-34.9l-1.5-0.9
						c8.7,25.3-29,45-53.1,45.6c-4.1,0.1-7.9,2-10.3,5.2c-2.6,3.5-4.4,7.2-5,11.2c-0.3,1.7-0.9,3.3-1.7,4.8
						c5.4,0.9,10.9,1.3,16.6,0.9c0.5,0,0.9,0,1.4,0C1005.2,1818.5,1027.3,1810.6,1041,1791.6z"/>
					<path fill="#518279" d="M980.5,1822.8c3.8,0.4,6.9,3.7,6.9,7.7l0,0c0,3.6-2.5,6.8-6,7.6c-11.6,2.5-23.9,2-35.9-1.5
						c-14.9,11.3-28.4,23.2-12.6,41.6c39.4-5.8,88.3-33.8,113.7-74.3c-0.8-4.3-2.6-8.5-5.5-12.3
						C1027.3,1810.6,1005.2,1818.5,980.5,1822.8z"/>
					<path fill="#FFFFFF" d="M933.1,1777.9c-4.2,0.5-7.6,3.6-8.7,7.7c-1.5,5.5-3.1,10.4-4.9,14.8c13.4,11.3,27.7,18.8,43,21.4
						c0.9-1.5,1.5-3.1,1.7-4.8c0.6-4,2.3-7.6,4.9-11.1c0.6-0.7,1.2-1.4,1.9-2C966.7,1791,949.5,1775.8,933.1,1777.9z"/>
					<path fill="#FFFFFF" d="M886.4,1830.3c-6.4,7.5-10.3,14.6-12.1,21.2c6,23.3,29.7,30.9,58.5,26.7c-15.8-18.4-2.3-30.2,12.6-41.6
						c-12.2-3.6-24.3-10.3-35.3-20.1C903.9,1823.7,896.2,1828.1,886.4,1830.3z"/>
					<path fill="#518279" d="M904.5,1811.1c-0.6,0.8-1.2,1.7-1.8,2.5c-1.1,1.5-2.4,2.9-3.8,4.1c-4.9,4.3-9.1,8.5-12.5,12.5
						c9.9-2.2,17.5-6.6,23.7-13.8C908.2,1814.8,906.3,1813,904.5,1811.1z"/>
					<path fill="#3A6058" d="M921.1,1768.5c1.2-5.8,7.5-13.9,12.6-19.3c-13.1,8.3-21.1,22.6-21.2,38.2c0,2-0.2,4.1-0.5,6.1
						c2.5,2.4,5.1,4.7,7.7,6.9c1.8-4.4,3.4-9.3,4.9-14.8c0.3-1,0.7-2,1.3-2.9C925.1,1776.5,919.7,1775.2,921.1,1768.5z"/>
					<path fill="#07332C" d="M1030.8,1773.8c-8.7,15.6-33.6,26.4-51.3,26.8c-3.2,0.1-6.2,1.2-8.5,3.3c-4.3-12.9-21.6-28.1-37.9-26
						c-0.6,0.1-1.1,0.2-1.7,0.4c-2.4,0.7-4.4,2.3-5.8,4.4c-0.6-6.1-6-7.4-4.6-14.1c1.2-5.8,7.5-13.9,12.6-19.3
						c0.8-0.5,1.5-1,2.3-1.4l12-6.6c20.4-11.2,45.3-10.6,65.1,1.6l19.6,12.1C1035,1761.7,1034,1768.1,1030.8,1773.8z"/>
					<path fill="#07332C" d="M1030.8,1773.8c-8.7,15.6-33.6,26.4-51.3,26.8c-3.2,0.1-6.2,1.2-8.5,3.3c-4.3-12.9-21.6-28.1-37.9-26
						c-0.6,0.1-1.1,0.2-1.7,0.4c3.7-4.5,8.2-8.2,13.3-11.1c3.4-1.9,6.8-3.8,6.8-3.8c20.4-11.3,45.3-10.6,65.1,1.6L1030.8,1773.8z"/>
					<g>
						<path fill="#FFFFFF" d="M950.5,1840c-0.1-0.2-0.3-0.2-0.5-0.1c-0.4,0.3-0.7,0.6-1.1,0.9c-0.2,0.1-0.2,0.3-0.1,0.5
							c0.1,0.1,0.2,0.1,0.3,0.1c0.1,0,0.2,0,0.2-0.1c0.4-0.3,0.7-0.6,1.1-0.9C950.6,1840.4,950.7,1840.1,950.5,1840z"/>
						<path fill="#FFFFFF" d="M934.6,1869.6c-0.1-0.2-0.3-0.3-0.5-0.2c-0.2,0.1-0.3,0.3-0.2,0.5c0.3,0.8,0.7,1.7,1.1,2.5
							c0.1,0.1,0.2,0.2,0.3,0.2c0.1,0,0.1,0,0.2,0c0.2-0.1,0.2-0.3,0.1-0.5C935.3,1871.2,934.9,1870.4,934.6,1869.6z"/>
						<path fill="#FFFFFF" d="M936.1,1854c-0.2-0.1-0.4-0.1-0.5,0.1c-0.5,0.8-0.9,1.6-1.3,2.4c-0.1,0.2,0,0.4,0.2,0.5
							c0,0,0.1,0,0.1,0c0.1,0,0.3-0.1,0.3-0.2c0.4-0.8,0.8-1.6,1.3-2.3C936.3,1854.4,936.3,1854.2,936.1,1854z"/>
						<path fill="#FFFFFF" d="M933.5,1864.5c0-0.2-0.2-0.3-0.4-0.3c-0.2,0-0.3,0.2-0.3,0.4c0.1,0.9,0.2,1.8,0.4,2.7
							c0,0.2,0.2,0.3,0.3,0.3c0,0,0.1,0,0.1,0c0.2,0,0.3-0.2,0.3-0.4C933.6,1866.3,933.5,1865.4,933.5,1864.5z"/>
						<path fill="#FFFFFF" d="M942.7,1846c-0.7,0.6-1.3,1.3-2,1.9c-0.1,0.1-0.1,0.4,0,0.5c0.1,0.1,0.2,0.1,0.2,0.1
							c0.1,0,0.2,0,0.3-0.1c0.6-0.6,1.2-1.2,1.9-1.8c0.1-0.1,0.2-0.4,0-0.5C943.1,1845.9,942.9,1845.9,942.7,1846z"/>
						<path fill="#FFFFFF" d="M946.8,1842.5c-0.7,0.6-1.4,1.2-2.1,1.7c-0.1,0.1-0.2,0.4,0,0.5c0.1,0.1,0.2,0.1,0.3,0.1
							c0.1,0,0.2,0,0.2-0.1c0.6-0.6,1.3-1.1,2.1-1.7c0.2-0.1,0.2-0.3,0.1-0.5C947.2,1842.4,947,1842.3,946.8,1842.5z"/>
						<path fill="#FFFFFF" d="M938.9,1849.8c-0.6,0.7-1.2,1.4-1.7,2.1c-0.1,0.2-0.1,0.4,0.1,0.5c0.1,0,0.1,0.1,0.2,0.1
							c0.1,0,0.2,0,0.3-0.1c0.5-0.7,1.1-1.4,1.7-2.1c0.1-0.1,0.1-0.4,0-0.5C939.3,1849.7,939,1849.7,938.9,1849.8z"/>
						<path fill="#FFFFFF" d="M933.1,1862.2C933.1,1862.2,933.2,1862.2,933.1,1862.2c0.2,0,0.4-0.1,0.4-0.3c0.1-0.9,0.3-1.7,0.5-2.6
							c0.1-0.2-0.1-0.4-0.2-0.4c-0.2-0.1-0.4,0.1-0.4,0.2c-0.3,0.9-0.4,1.8-0.5,2.7C932.8,1862,932.9,1862.2,933.1,1862.2z"/>
						<path fill="#FFFFFF" d="M937.1,1874.4c-0.1-0.2-0.3-0.2-0.5-0.1c-0.2,0.1-0.2,0.3-0.1,0.5c0.3,0.4,0.5,0.8,0.8,1.2
							c0.1,0.1,0.2,0.1,0.3,0.1c0.1,0,0.1,0,0.2-0.1c0.2-0.1,0.2-0.3,0.1-0.5C937.6,1875.1,937.3,1874.7,937.1,1874.4z"/>
					</g>
					<g>
						<path fill="#FFFFFF" d="M908.2,1816.2c-0.1-0.1-0.2-0.1-0.3,0c0,0-0.3,0.4-1,1c-0.1,0.1-0.1,0.2,0,0.3c0,0,0.1,0.1,0.2,0.1
							c0.1,0,0.1,0,0.2-0.1c0.6-0.6,1-1,1-1C908.3,1816.5,908.3,1816.3,908.2,1816.2z"/>
						<path fill="#FFFFFF" d="M895.9,1825c-0.8,0.4-1.6,0.8-2.5,1.1c-0.1,0.1-0.2,0.2-0.1,0.3c0,0.1,0.1,0.1,0.2,0.1
							c0,0,0.1,0,0.1,0c0.8-0.3,1.7-0.7,2.5-1.1c0.1-0.1,0.2-0.2,0.1-0.3C896.2,1825,896,1824.9,895.9,1825z"/>
						<path fill="#FFFFFF" d="M904.9,1819.1c-0.7,0.6-1.4,1.1-2.1,1.7c-0.1,0.1-0.1,0.2,0,0.3c0,0.1,0.1,0.1,0.2,0.1
							c0,0,0.1,0,0.1,0c0.7-0.5,1.5-1.1,2.1-1.7c0.1-0.1,0.1-0.2,0-0.3C905.2,1819,905,1819,904.9,1819.1z"/>
						<path fill="#FFFFFF" d="M900.6,1822.3c-0.7,0.5-1.5,1-2.3,1.4c-0.1,0.1-0.2,0.2-0.1,0.3c0,0.1,0.1,0.1,0.2,0.1
							c0,0,0.1,0,0.1,0c0.8-0.5,1.6-0.9,2.3-1.4c0.1-0.1,0.1-0.2,0.1-0.3C900.9,1822.3,900.7,1822.2,900.6,1822.3z"/>
						<path fill="#FFFFFF" d="M891,1827.1c-0.4,0.2-0.9,0.3-1.3,0.4c-0.1,0-0.2,0.2-0.2,0.3c0,0.1,0.1,0.2,0.2,0.2c0,0,0,0,0.1,0
							c0.4-0.1,0.9-0.3,1.4-0.4c0.1,0,0.2-0.2,0.1-0.3C891.2,1827.1,891.1,1827,891,1827.1z"/>
					</g>
				</g>
			</g>
		</g>
		<g>
			<path fill="#041C16" d="M748.6,1025c0,0-12.1-6.8-23.5,7.3c-9.1,11.2-20,33.5-40,27.5c-20-6-42.3-41.7-2.3-87.1
				s110-24.9,133.8-4.4c25.7,22,54.9,87.2,0,107S771.9,1037.9,748.6,1025z"/>
			<path fill="#FFFFFF" d="M703,956.2c0,0-0.6,25.4,49.9,34.5c50.5,9.2,68.5-18.1,68.5-18.1s-25.7-26.9-65.8-28.3
				C715.6,943,703,956.2,703,956.2z"/>
			<path fill="#041C16" d="M573.9,922.1c-10.2,7.2-16.8,19-16.8,32.4c0,21.9,17.7,39.6,39.6,39.6c20.1,0,36.7-15,39.3-34.4
				C619.2,958.1,581,951.2,573.9,922.1z"/>
			<path fill="#041C16" d="M871,1004.9c-0.4,2.1-0.6,4.3-0.6,6.6c0,21.9,17.7,39.6,39.6,39.6c21.9,0,39.6-17.7,39.6-39.6
				c0-7.7-2.2-14.8-6-20.9C924,1004.7,887.4,1005.4,871,1004.9z"/>
			<polygon opacity="0.22" fill="#081613" points="596.5,1012.3 530.7,980.2 524.4,1015.7 593.6,1027.1 			"/>
			<polygon opacity="0.22" fill="#081613" points="594.2,1036.2 524.4,1032.8 530.1,1056.8 594.2,1051.7 			"/>
			<polygon opacity="0.22" fill="#081613" points="940.3,1067.1 1035.8,1056.8 1035.8,1086 940.3,1086 			"/>
			<polygon opacity="0.22" fill="#081613" points="940.3,1098 1035.8,1112.9 1023.2,1146.6 937.4,1116.9 			"/>
			<path opacity="0.22" fill="#081613" d="M720.9,1071.4c0,0,20.6-44.7,29.3,6.6"/>
		</g>
		<g>
			<path opacity="0.22" fill="#081613" d="M1561.1,524.7l8.3,14c0,0-132.2,181-389.6,211.7c0,0-124,229-669.4,188.7
				c0,0-139.8-11-163.9-65.1l3-54.8L1260,469L1561.1,524.7z"/>
			<g>
				<g>
					<path fill="#108C28" d="M1551.7,512.9c0,0-4.3-320-583.4-322.6S399.6,587.2,399.6,587.2s303.6,139.3,784.9,150.5
						C1184.5,737.7,1509.7,625.3,1551.7,512.9z"/>
					<g opacity="0.64">
						<path fill="#081613" d="M1551.5,508.8c-0.4-0.9-38.9-92.7-132-166c-85.8-67.6-238.6-132.3-478.8-56.5l-2.6,0.8l0.2-2.8
							c0.2-3.1,2-77.4-111.7-85.7l9.9-1.2c61.2,4.4,81.2,27.1,93.5,46.2c10.6,16.5,12,32.1,12.1,38.3
							c105.8-33,203.6-41.9,290.8-26.3c70.4,12.6,134,41,189.1,84.4c93.8,74,128.4,161.5,128.8,162.5L1551.5,508.8z"/>
					</g>
					<g opacity="0.64">
						<path fill="#081613" d="M1186.5,735.9l-3.9,1.7c0-0.8,4.6-82.8-14.6-176.6c-17.7-86.2-59.9-200.1-159.9-253.9l-157.5-12
							c-1-0.1-93.6-11.3-194.2,14.6c-92.7,23.8-215,89.4-254.3,244.7l1.5-11.4c39.8-157.1,158.3-212.9,252-237
							C756.9,280,850,291.2,851,291.3l158.2,12l0.4,0.2c101.6,54.4,144.3,169.7,162.2,256.8C1191.1,654.5,1186.5,735.1,1186.5,735.9
							z"/>
					</g>
					<path fill="#126620" d="M399.6,587.2c0,0-96,51.5-109.7,154.5s78.4,143,250.5,163c172.2,20,596.3-56.1,644.1-167
						C1184.5,737.7,715.8,709,399.6,587.2z"/>
					<path fill="#126620" d="M1551.5,508.8l9.6,15.8c0,0-137.4,166.7-370.4,211.3c-3.6,0.7-7.2,0.7-10.8,1.4
						C1179.8,737.4,1490.2,621.2,1551.5,508.8z"/>
					<path fill="#0E5418" d="M850.7,293.2c0,0,32.2,72.9,157.9,12C1008.6,305.2,991,262.3,850.7,293.2z"/>
					<path opacity="0.22" fill="#081613" d="M381.1,737.7c-23.5-102.6,419.8-46.9,419.8-46.9S584.2,525.6,703,336.1
						c62-98.8,155.2-134.2,230.4-145.5c-543.8,13.3-533.8,396.6-533.8,396.6s-96,51.5-109.7,154.5c-13.7,103,78.4,143,250.5,163
						c80.6,9.4,216.5-2.3,343.1-28.8C554.1,876.4,401.9,828.7,381.1,737.7z"/>
					<path opacity="0.59" fill="#081613" d="M1179.8,737.4c-27.6,50.4-194,142.8-513.9,154.9c-293.3,11-363.2-75.8-377.3-134.8
						c-2.5,91.4,88.7,128.3,251.8,147.3c172.2,20,596.3-56.1,644.1-167C1184.5,737.7,1184.5,737.7,1179.8,737.4z"/>
					<path fill="#126620" d="M1184.5,737.7c0,0,90.8-9.4,221.9-82.5s154.7-130.5,154.7-130.5l-4.1-6.8c0,0-16.2,51.8-151.8,131.5
						c-129.4,76.1-225.3,88-225.3,88L1184.5,737.7z"/>
					<path opacity="0.59" fill="#081613" d="M1184.5,737.7c0,0,90.8-9.4,221.9-82.5s154.7-130.5,154.7-130.5l-4.1-6.8
						c0,0-16.2,51.8-151.8,131.5c-129.4,76.1-225.3,88-225.3,88L1184.5,737.7z"/>
					<path opacity="0.42" fill="#081613" d="M762.9,209.6c-371.1,79.6-363.3,377.6-363.3,377.6s-96,51.5-109.7,154.5
						c-7,52.8,13.8,89,58.9,114.5c-2.3-3.7-117.2-189.2,144.6-217.2h63.7c0,0-91.4-106.7-8.4-224.1
						C548.6,414.8,632.2,278.2,762.9,209.6z"/>
					<path opacity="0.5" fill="#6CD87E" d="M1129.3,754.4c0,0-78.8,74.4-271.6,100.2"/>
					<path opacity="0.5" fill="#6CD87E" d="M1442.8,385.4c0,0,81.3,73.9,68.3,140.9c0,0-80.9,107.9-282.6,157.2
						c0,0,249.9-123.1,241.8-176.8C1462.2,452.9,1442.8,385.4,1442.8,385.4z"/>
					<path opacity="0.22" fill="#081613" d="M855.2,300.4c0,0,101.9-11,141.6,10.3c0,0-40.4,18.8-73.7,18.8
						C889.9,329.5,871.7,318.6,855.2,300.4z"/>
					<path fill="#126620" d="M891.8,246.2c-14.2,10.8-27.2,31.6-18.3,71c0,0,27.2,25.3,107.1,0c0,0,24.8-73.7-47.9-81.7
						C918.2,234,903.4,237.4,891.8,246.2z"/>
					<path fill="#108C28" d="M921.4,244.5c0,0,52.2,21.3,46.3,61.3c0,0,10.9-25-1.4-43.2C950.6,239.4,921.4,244.5,921.4,244.5z"/>
				</g>
				<g opacity="0.42">
					<path fill="#081613" d="M1150.3,722.6l-3.8,0l0-3.8l3.8,0c5,0,10,0,15-0.1l0.1,3.8C1160.4,722.6,1155.4,722.6,1150.3,722.6z
						 M1127.7,722.4c-6.3-0.1-12.5-0.3-18.9-0.5l0.1-3.8c6.3,0.2,12.6,0.4,18.8,0.5L1127.7,722.4z M1090,721.1
						c-6.3-0.3-12.5-0.6-18.8-1l0.2-3.8c6.3,0.4,12.5,0.7,18.8,1L1090,721.1z M1184.5,720.4l-1-3.6c5.6-1.5,11.7-3.2,18.2-5l1,3.6
						C1196.4,717.3,1190.2,719,1184.5,720.4z M1052.3,718.8c-6.3-0.5-12.5-1-18.8-1.5l0.3-3.8c6.3,0.5,12.5,1,18.8,1.5L1052.3,718.8
						z M1014.7,715.6c-6.2-0.6-12.5-1.2-18.8-1.9l0.4-3.7c6.2,0.7,12.5,1.3,18.7,1.9L1014.7,715.6z M977.2,711.6
						c-6.3-0.7-12.5-1.5-18.8-2.3l0.5-3.7c6.2,0.8,12.5,1.5,18.7,2.3L977.2,711.6z M1220.9,709.9l-1.1-3.6
						c5.6-1.7,11.6-3.7,17.9-5.8l1.2,3.6C1232.5,706.2,1226.5,708.2,1220.9,709.9z M939.7,706.9c-6.2-0.8-12.5-1.7-18.7-2.6l0.5-3.7
						c6.2,0.9,12.4,1.8,18.6,2.6L939.7,706.9z M902.4,701.5c-6.2-1-12.4-1.9-18.6-2.9l0.6-3.7c6.2,1,12.4,2,18.6,2.9L902.4,701.5z
						 M1256.8,697.9l-1.3-3.5c5.7-2,11.6-4.2,17.7-6.5l1.3,3.5C1268.4,693.7,1262.5,695.8,1256.8,697.9z M865.3,695.5
						c-6.2-1-12.4-2.1-18.6-3.2l0.7-3.7c6.2,1.1,12.3,2.2,18.6,3.2L865.3,695.5z M828.1,689c-6.2-1.1-12.4-2.3-18.5-3.5l0.7-3.7
						c6.1,1.2,12.3,2.3,18.5,3.5L828.1,689z M1292.1,684.5l-1.4-3.5c5.7-2.3,11.5-4.7,17.4-7.2l1.5,3.5
						C1303.6,679.8,1297.8,682.2,1292.1,684.5z M791.1,681.9c-6.2-1.2-12.4-2.5-18.5-3.7l0.8-3.7c6.1,1.3,12.3,2.5,18.5,3.7
						L791.1,681.9z M754.1,674.3c-6.2-1.3-12.3-2.6-18.4-4l0.8-3.7c6.1,1.3,12.2,2.6,18.4,4L754.1,674.3z M1326.9,669.6l-1.6-3.4
						c5.6-2.5,11.3-5.2,17.1-7.9l1.6,3.4C1338.2,664.4,1332.5,667.1,1326.9,669.6z M717.3,666.3c-6.2-1.4-12.3-2.8-18.4-4.2l0.8-3.7
						c6.1,1.4,12.2,2.8,18.4,4.2L717.3,666.3z M680.5,657.8c-6.2-1.5-12.3-2.9-18.3-4.4l0.9-3.7c6,1.5,12.1,2.9,18.3,4.4
						L680.5,657.8z M1361,653.3l-1.7-3.4c5.5-2.8,11.1-5.7,16.7-8.7l1.8,3.3C1372.1,647.6,1366.5,650.5,1361,653.3z M643.9,649
						c-6.2-1.5-12.3-3.1-18.3-4.6l0.9-3.7c6,1.5,12.1,3.1,18.3,4.6L643.9,649z M607.3,639.7c-6.2-1.6-12.3-3.2-18.2-4.8l1-3.6
						c6,1.6,12,3.2,18.2,4.8L607.3,639.7z M1394.2,635.4l-1.9-3.3c5.5-3.1,10.9-6.4,16.2-9.6l2,3.2
						C1405.2,629,1399.7,632.2,1394.2,635.4z M570.9,630c-6.2-1.7-12.3-3.3-18.2-5l1-3.6c5.9,1.6,12,3.3,18.2,5L570.9,630z
						 M534.5,620c-6.2-1.8-12.3-3.5-18.1-5.2l1-3.6c5.9,1.7,11.9,3.4,18.1,5.2L534.5,620z M1426.4,615.6l-2.1-3.1
						c5.3-3.5,10.5-7,15.5-10.6l2.2,3.1C1437,608.5,1431.7,612.1,1426.4,615.6z M498.2,609.6c-6.3-1.9-12.4-3.6-18.1-5.4l1.1-3.6
						c5.7,1.7,11.8,3.5,18.1,5.4L498.2,609.6z M462.1,598.7c-6.6-2-12.6-3.9-18-5.6l1.1-3.6c5.5,1.7,11.5,3.6,18,5.6L462.1,598.7z
						 M1457.2,593.8l-2.3-3c5-3.8,10-7.8,14.7-11.7l2.4,2.9C1467.3,585.9,1462.3,589.9,1457.2,593.8z M426,587.4
						c-11.7-3.8-18-5.9-18-5.9l1.2-3.6c0,0,6.3,2.1,18,5.9L426,587.4z M1486.4,569.6l-2.5-2.8c4.7-4.2,9.3-8.6,13.6-12.9l2.7,2.7
						C1495.7,560.9,1491.1,565.3,1486.4,569.6z M1513.2,542.8l-2.8-2.5c4.2-4.7,8.3-9.5,12.1-14.2l2.9,2.4
						C1521.6,533.2,1517.4,538.1,1513.2,542.8z M1536.8,513.2l-3.1-2.2c3.6-5.1,7-10.4,10.2-15.6l3.2,1.9
						C1544,502.7,1540.5,508,1536.8,513.2z"/>
				</g>
				<g opacity="0.42">
					<g>
						<path fill="#081613" d="M401.3,604.1l-2.3-3c4.8-3.7,7.6-5.6,7.6-5.6l2.1,3.1C408.7,598.6,405.9,600.5,401.3,604.1z"/>
					</g>
					<g>
						<path fill="#081613" d="M664.1,883.3c-3.6,0-8.2-0.1-13.8-0.2l0.1-3.8c8.5,0.2,14.9,0.2,18.7,0.1l0.1,3.8
							C667.9,883.3,666.2,883.3,664.1,883.3z M631.6,882.4c-5.8-0.3-12.1-0.6-18.8-1l0.2-3.8c6.7,0.4,12.9,0.7,18.7,1L631.6,882.4z
							 M687.9,882.4l-0.1-3.8c5.1-0.1,11.4-0.3,18.7-0.6l0.1,3.8C699.4,882.1,693.1,882.3,687.9,882.4z M725.5,881l-0.2-3.8
							c5.8-0.3,12.1-0.7,18.7-1.1l0.3,3.8C737.6,880.3,731.3,880.7,725.5,881z M594.1,880.2c-6-0.4-12.3-0.9-18.7-1.5l0.3-3.8
							c6.4,0.6,12.6,1.1,18.7,1.5L594.1,880.2z M762.9,878.5l-0.3-3.8c6-0.5,12.2-1.1,18.6-1.7l0.4,3.7
							C775.1,877.4,768.9,878,762.9,878.5z M556.7,877c-6.1-0.6-12.3-1.3-18.7-2.1l0.4-3.7c6.3,0.7,12.5,1.4,18.6,2L556.7,877z
							 M800.2,874.8l-0.4-3.7c6-0.7,12.2-1.4,18.6-2.3l0.5,3.7C812.5,873.3,806.3,874.1,800.2,874.8z M519.4,872.6
							c-6.2-0.8-12.4-1.7-18.6-2.7l0.6-3.7c6.2,1,12.4,1.8,18.5,2.7L519.4,872.6z M837.4,869.9l-0.5-3.7c6.1-0.9,12.2-1.9,18.5-2.9
							l0.6,3.7C849.7,868.1,843.5,869,837.4,869.9z M482.3,866.8c-6.2-1.1-12.3-2.2-18.4-3.5l0.7-3.7c6.1,1.2,12.2,2.4,18.4,3.4
							L482.3,866.8z M874.4,863.8l-0.7-3.7c6.1-1.1,12.2-2.3,18.3-3.5l0.7,3.7C886.6,861.5,880.5,862.7,874.4,863.8z M445.5,859.5
							c-6.2-1.4-12.4-2.9-18.3-4.5l1-3.6c5.8,1.5,11.9,3,18.1,4.4L445.5,859.5z M911.2,856.3l-0.8-3.7c6-1.3,12.1-2.8,18.2-4.3
							l0.9,3.7C923.3,853.6,917.2,855,911.2,856.3z M409.2,849.9c-6.2-1.9-12.2-3.9-17.9-5.9l1.3-3.5c5.6,2,11.6,4,17.7,5.8
							L409.2,849.9z M947.6,847.4l-1-3.6c6-1.6,12-3.3,18-5l1.1,3.6C959.6,844.1,953.6,845.8,947.6,847.4z M373.7,837.2
							c-6.1-2.6-11.8-5.3-17-8.1l1.8-3.3c5.2,2.7,10.8,5.4,16.8,8L373.7,837.2z M983.6,836.9l-1.1-3.6c5.9-1.9,11.8-3.8,17.7-5.9
							l1.2,3.6C995.5,833.1,989.6,835,983.6,836.9z M1019,824.7l-1.3-3.5c5.8-2.2,11.7-4.5,17.3-6.8l1.4,3.5
							C1030.8,820.2,1024.9,822.5,1019,824.7z M340.5,819.3c-5.6-3.8-10.5-7.9-14.7-12l2.6-2.7c4,4,8.8,7.9,14.2,11.6L340.5,819.3z
							 M1053.7,810.5l-1.5-3.4c5.7-2.5,11.4-5.2,16.9-7.8l1.6,3.4C1065.2,805.3,1059.5,807.9,1053.7,810.5z M1087.5,794.2l-1.8-3.3
							c5.5-2.9,11-5.9,16.3-9l1.9,3.3C1098.6,788.2,1093.1,791.2,1087.5,794.2z M313.9,792.4c-1.6-2.7-3-5.5-4.1-8.3
							c-1.2-3.1-2.2-6.2-3.1-9.3l3.6-1c0.8,3,1.8,6,3,9c1,2.6,2.3,5.3,3.8,7.8L313.9,792.4z M1120.1,775.5l-2-3.2
							c5.3-3.3,10.5-6.7,15.6-10.2l2.1,3.1C1130.7,768.7,1125.4,772.1,1120.1,775.5z M303.5,756c-0.2-2.3-0.2-4.7-0.2-7
							c0-4,0.2-8,0.7-12l3.7,0.4c-0.5,3.9-0.7,7.8-0.7,11.6c0,2.2,0.1,4.5,0.2,6.7L303.5,756z M311.4,719.4l-3.6-1
							c1.7-5.8,3.9-11.8,6.5-17.8l3.4,1.5C315.2,707.9,313.1,713.7,311.4,719.4z M326.2,685.7l-3.3-1.9c3.1-5.2,6.5-10.6,10.2-15.8
							l3.1,2.2C332.6,675.3,329.2,680.5,326.2,685.7z M347.6,655.4l-2.9-2.4c3.9-4.7,8.1-9.4,12.5-14.1l2.7,2.6
							C355.6,646.1,351.4,650.7,347.6,655.4z M373,628.3l-2.6-2.7c4.5-4.3,9.2-8.5,14-12.6l2.5,2.9C382.1,619.8,377.5,624,373,628.3
							z"/>
					</g>
					<g>
						<path fill="#081613" d="M1150.4,754.8l-2.3-3c2.5-1.9,5-3.8,7.4-5.7l2.3,3C1155.4,750.9,1152.9,752.9,1150.4,754.8z"/>
					</g>
				</g>
			</g>
		</g>
		<g>
			<path opacity="0.22" fill="#081613" d="M1625.3,1443.6l3-23l0,0l0,0c-0.9-1.7-1.9-3.3-2.9-4.9c-0.3-0.5-0.7-0.9-1-1.4
				c-0.7-1.1-1.5-2.1-2.3-3.1c-0.4-0.5-0.8-1-1.2-1.5c-0.8-0.9-1.6-1.8-2.4-2.7c-0.4-0.4-0.8-0.8-1.2-1.2c-1.1-1.1-2.3-2.2-3.5-3.2
				c-0.2-0.1-0.3-0.3-0.5-0.4c-1.2-1-2.5-2-3.7-2.9c-0.5-0.4-1-0.7-1.6-1c-0.9-0.6-1.7-1.1-2.6-1.7c-0.6-0.4-1.2-0.7-1.8-1.1
				c-0.8-0.5-1.7-0.9-2.5-1.3c-0.6-0.3-1.3-0.6-1.9-0.9c-0.9-0.4-1.9-0.8-2.9-1.2c-1.1-0.5-2.2-0.9-3.3-1.3
				c-0.8-0.3-1.7-0.6-2.5-0.9c-0.8-0.3-1.7-0.5-2.6-0.8c-0.7-0.2-1.3-0.4-2-0.6c-0.9-0.2-1.8-0.5-2.8-0.7c-0.6-0.1-1.2-0.3-1.8-0.4
				c-1-0.2-2-0.4-3-0.6c-0.3-0.1-0.6-0.1-1-0.2c-2.5-0.4-5.1-0.8-7.7-1c0,0,47.9,12.9,47.9,12.9l-1.3-5
				c-51.7-27.8-114.7,0.9-114.7,0.9l2.5,29.5c-4.1,1.5-6.4,2.7-6.4,2.7v6.9c-8.8-5.7-64.1-12.7-85.3,31.4c-0.5,1-1,2.1-1.5,3.2
				c0,0.1-0.1,0.1-0.1,0.2c-0.1,0.1-0.1,0.2-0.1,0.4c-0.5,1.3-1,2.6-1.5,3.8c-0.2,0.5-0.3,0.9-0.5,1.4c-0.3,0.8-0.6,1.7-0.8,2.5
				c-0.1,0.5-0.3,1-0.4,1.5c-0.2,0.7-0.4,1.4-0.5,2.1c-0.1,0.5-0.2,1-0.3,1.5c-0.1,0.6-0.2,1.3-0.3,1.9c-0.1,0.5-0.1,0.9-0.1,1.4
				c-0.1,0.6-0.1,1.2-0.1,1.7c0,0.4,0,0.9,0,1.3c0,0.5,0,1.1,0,1.6c0,0.4,0.1,0.8,0.1,1.2c0.1,0.5,0.1,1,0.2,1.5
				c0.1,0.4,0.1,0.7,0.2,1.1c0.1,0.5,0.2,0.9,0.3,1.3c0.1,0.3,0.2,0.6,0.3,0.9c0.2,0.4,0.3,0.8,0.5,1.2c0.1,0.3,0.3,0.6,0.4,0.8
				c0.2,0.4,0.4,0.8,0.6,1.1c0.1,0.2,0.3,0.5,0.5,0.7c0.2,0.4,0.5,0.7,0.8,1c0.2,0.2,0.3,0.4,0.5,0.6c0.3,0.3,0.6,0.6,0.9,1
				c0.2,0.2,0.3,0.3,0.5,0.5c0.3,0.3,0.7,0.6,1.1,0.9c0.2,0.1,0.3,0.3,0.5,0.4c0.4,0.3,0.8,0.6,1.3,0.9c0.1,0.1,0.3,0.2,0.4,0.3
				c0.6,0.3,1.1,0.7,1.7,0.9c0,0,0,0,0.1,0c1.2,0.6,2.5,1.1,3.8,1.6c0,0,0.1,0,0.1,0c0.6,0.2,1.2,0.4,1.8,0.5c0.1,0,0.3,0.1,0.4,0.1
				c0.5,0.1,1,0.3,1.6,0.4c0.2,0,0.3,0.1,0.5,0.1c0.5,0.1,1,0.2,1.4,0.3c0.2,0,0.4,0.1,0.6,0.1c0.5,0.1,0.9,0.1,1.3,0.2
				c0.2,0,0.4,0,0.6,0.1c0.4,0,0.9,0.1,1.3,0.1c0.2,0,0.4,0,0.6,0c0.4,0,0.8,0.1,1.2,0.1c0.2,0,0.4,0,0.6,0c0.4,0,0.8,0,1.2,0
				c0.2,0,0.3,0,0.5,0c0.4,0,0.7,0,1.1,0c0.2,0,0.3,0,0.5,0c0.4,0,0.7,0,1,0c0.1,0,0.3,0,0.4,0c0.3,0,0.6,0,0.9,0c0.1,0,0.2,0,0.3,0
				c0.3,0,0.6,0,0.8-0.1c0.1,0,0.2,0,0.2,0c0.3,0,0.5,0,0.7-0.1c0.1,0,0.1,0,0.2,0c0.3,0,0.5,0,0.7-0.1c-3.4,0.6-22.5,5.9-29.9,57
				c-4.3,29.6,13.5,53.6,31.4,69.7l0,0c0,0,0,0,0,0c0.9,0.8-0.1,0,0.8,0.7c0.1,0.1,7.6-2.9,7.7-2.8c0.9,0.8,3.2-3.4,4-2.7
				c0.1,0.1,0.2,0.2,0.4,0.3c0.9,0.7,1.7,1.4,2.6,2c0.1,0.1,0.3,0.2,0.4,0.3c0.8,0.7,1.7,1.3,2.5,1.9c0.1,0.1,0.3,0.2,0.4,0.3
				c0.8,0.6,1.6,1.2,2.4,1.7c0.1,0.1,0.3,0.2,0.4,0.3c0.8,0.5,1.5,1.1,2.3,1.6c0.1,0.1,0.3,0.2,0.4,0.3c0.7,0.5,1.4,1,2.1,1.4
				c0.1,0.1,0.3,0.2,0.4,0.3c0.7,0.5,1.4,0.9,2,1.3c0.1,0.1,0.2,0.2,0.4,0.2c0.6,0.4,1.2,0.8,1.8,1.1c0.1,0.1,0.2,0.1,0.3,0.2
				c0.6,0.4,1.1,0.7,1.6,1c0.1,0.1,0.2,0.1,0.3,0.2c0.5,0.3,1,0.6,1.4,0.8c0.1,0.1,0.2,0.1,0.3,0.2c0.4,0.2,0.8,0.5,1.1,0.6
				c0.1,0.1,0.2,0.1,0.3,0.2c0.3,0.2,0.6,0.3,0.9,0.5c0.2,0.1,0.4,0.2,0.5,0.3c0.1,0.1,0.2,0.1,0.3,0.2c0.5,0.3,0.8,0.4,0.8,0.4
				s14.8,5.1,36,7.7c2,0.2,4,0.5,6.2,0.7c3.7,0.3,7.5,0.6,11.5,0.8c2.1,0.1,4.3,0.1,6.5,0.1c2.2,0,4.4,0,6.7-0.1
				c3.9-0.1,7.9-0.4,12-0.9c0.6-0.1,1.1-0.1,1.7-0.2c28.3-3.4,51.4-5.3,72.6-34.4c16.6-22.7,22.5-47,22.9-69.6
				c0.2-9.5-0.7-18.6-2.1-27.3c-0.6-3.3-1.2-6.6-1.9-9.7c-0.2-0.9-0.4-1.8-0.6-2.7c-4.6-18.9-11.4-34.3-16-43.3
				c-0.5-1-1-1.9-1.4-2.7c-2-3.8-3.3-5.9-3.3-5.9l2.2-6.5"/>
			<path fill="#890303" d="M1514,1429.6l-3-35.2c0,0,94.4-33.5,126.6,26.2l-3.9,29.2C1633.7,1449.8,1587.8,1403,1514,1429.6z"/>
			<path fill="#C60000" d="M1507.1,1433.5v-6.9c0,0,71.2-35.8,137.3,26.6l-2.6,7.7c0,0,55.6,88.6,2.6,161.3c-53,72.7-160,36-160,36
				s-71.6-36-63.5-92.2c8.2-56.2,30.5-57.1,30.5-57.1s-51.1,7.1-31.1-40.8C1440.2,1420.4,1498.1,1427.7,1507.1,1433.5z"/>
			<path opacity="0.57" fill="#890303" d="M1633.7,1459.2c-46.5-44.4-115-23.2-115-23.2"/>
			
				<path fill="none" stroke="#3A0505" stroke-width="3.7657" stroke-linecap="round" stroke-linejoin="round" stroke-miterlimit="10" d="
				M1672,1560.1c12.9-80.4-43.1-120.2-43.1-120.2s62.9,60.8,74.7,37c11.8-23.8-69.9-32.9-69.9-32.9s62.6,23.6,69.5-5.8
				c6.9-29.4-69.5,5.8-69.5,5.8s50.3,25,54.6,62.8"/>
			
				<path fill="none" stroke="#3A0505" stroke-width="3.7657" stroke-linecap="round" stroke-linejoin="round" stroke-miterlimit="10" d="
				M1629.9,1440.7c0,0-48.2-40.4-115.8-16.9"/>
			<path opacity="0.22" fill="#081613" d="M1644.4,1453.2c-3.3-3.1-6.7-6-10-8.7l3.2-24c-12.9-23.9-35.7-32.8-58.5-35
				c8,4.6,17.9,12.1,14,19.4c-6.2,11.8-78.8-17.6-79.1,24.5s105.9-16.9,119.7,83.1c4.6,33.4-14,5.4-98.1,33.4
				c-50.7,16.9-78.7,56.3-83.3,89.6c16,14.5,32.1,22.6,32.1,22.6s107,36.7,160-36c53-72.7-2.6-161.3-2.6-161.3L1644.4,1453.2z"/>
			<path opacity="0.22" fill="#081613" d="M1497.4,1467.3c6.6-19.1-31.1,2.1-59.2,9.4c-11.9,3.1-15.2-4.6-15-14.6
				c-1,1.9-2,3.9-2.9,6.1c-18.8,45,25.3,41.4,30.6,40.8c-0.6,0.1-1.6,0.3-2.9,0.9C1476,1502.5,1491.3,1484.6,1497.4,1467.3z"/>
			
				<line opacity="0.53" fill="none" stroke="#3A0505" stroke-width="3.6491" stroke-linecap="round" stroke-linejoin="round" stroke-miterlimit="10" x1="1525.9" y1="1393.4" x2="1526.9" y2="1415.4"/>
			
				<line opacity="0.53" fill="none" stroke="#3A0505" stroke-width="3.6491" stroke-linecap="round" stroke-linejoin="round" stroke-miterlimit="10" x1="1541.5" y1="1390.8" x2="1542.5" y2="1412.8"/>
			
				<line opacity="0.53" fill="none" stroke="#3A0505" stroke-width="3.6491" stroke-linecap="round" stroke-linejoin="round" stroke-miterlimit="10" x1="1557.4" y1="1389.6" x2="1558.5" y2="1411.6"/>
			
				<line opacity="0.53" fill="none" stroke="#3A0505" stroke-width="3.6491" stroke-linecap="round" stroke-linejoin="round" stroke-miterlimit="10" x1="1576" y1="1390.8" x2="1575.3" y2="1412.8"/>
			
				<line opacity="0.53" fill="none" stroke="#3A0505" stroke-width="3.6491" stroke-linecap="round" stroke-linejoin="round" stroke-miterlimit="10" x1="1594.9" y1="1393.5" x2="1591" y2="1415.2"/>
			
				<line opacity="0.53" fill="none" stroke="#3A0505" stroke-width="3.6491" stroke-linecap="round" stroke-linejoin="round" stroke-miterlimit="10" x1="1612" y1="1400.8" x2="1606.3" y2="1422.1"/>
			
				<line opacity="0.53" fill="none" stroke="#3A0505" stroke-width="3.6491" stroke-linecap="round" stroke-linejoin="round" stroke-miterlimit="10" x1="1625.6" y1="1408.4" x2="1619.8" y2="1429.7"/>
			
				<line opacity="0.53" fill="none" stroke="#3A0505" stroke-width="3.1437" stroke-linecap="round" stroke-linejoin="round" stroke-miterlimit="10" x1="1634.2" y1="1419.1" x2="1629.9" y2="1434.8"/>
			
				<path opacity="0.83" fill="none" stroke="#FFFFFF" stroke-width="11.2971" stroke-linecap="round" stroke-linejoin="round" stroke-miterlimit="10" d="
				M1448,1611c0,0-19.6-27.8-8.2-64.9"/>
			
				<line opacity="0.83" fill="none" stroke="#FFFFFF" stroke-width="11.2971" stroke-linecap="round" stroke-linejoin="round" stroke-miterlimit="10" x1="1448.2" y1="1529.8" x2="1456.3" y2="1517.3"/>
			
				<line opacity="0.83" fill="none" stroke="#FFFFFF" stroke-width="11.2971" stroke-linecap="round" stroke-linejoin="round" stroke-miterlimit="10" x1="1445.3" y1="1452.8" x2="1458.9" y2="1446.8"/>
		</g>
	</g>
</g>
<g id="Layer_18">
</g>
<g id="Layer_17">
</g>
<g id="Layer_16">
</g>
<g id="Layer_15">
</g>
<g id="Layer_14">
</g>
<g id="Layer_13">
</g>
<g id="Layer_12">
</g>
<g id="Layer_11">
</g>
<g id="Layer_10">
</g>
<g id="Layer_9">
</g>
<g id="Layer_8">
</g>
<g id="Layer_7">
</g>
<g id="Layer_6">
</g>
<g id="Layer_5">
</g>
<g id="Layer_4">
</g>
<g id="Layer_3">
</g>
<g id="Layer_2">
</g>
</svg>
