<?xml version="1.0" encoding="utf-8"?>
<!-- Generator: Adobe Illustrator 24.0.2, SVG Export Plug-In . SVG Version: 6.00 Build 0)  -->
<svg version="1.1" xmlns="http://www.w3.org/2000/svg" xmlns:xlink="http://www.w3.org/1999/xlink" x="0px" y="0px"
	 viewBox="0 0 1982.6 2048" enable-background="new 0 0 1982.6 2048" xml:space="preserve">
<g id="Layer_1">
	<g id="Layer_23">
	</g>
</g>
<g id="Layer_22">
</g>
<g id="Layer_21">
</g>
<g id="Layer_20">
</g>
<g id="Layer_19">
</g>
<g id="Layer_18">
</g>
<g id="Layer_17">
	<g>
		<g>
			<path fill="#326B45" d="M734.1,1598.1l-6,123.8c-0.2,4.4-2.9,8.2-7,9.8c-16.8,6.6-59.8,26.5-59.3,58.5
				c0.7,44.8,116.4,27.2,141.8,12.8c21.9-12.4,16.8-99.9,20.1-166c3.9-77.2-3.2-91.9-46.8-92.9
				C727.2,1542.9,734.1,1598.1,734.1,1598.1z"/>
			<path fill="#326B45" d="M934.8,1597.1l-2.1,175.1c-0.1,4.5-1.6,8.8-4.5,12.2c-12.1,14.5-44.1,57.1-31.7,88.6
				c16.7,42.2,81.6,7,106.4-20.3c24.8-27.2,25.8-22.6,29-85.5s4.7-148.7,4.7-148.7s7.3-52.2-55.5-52.2
				C932.5,1566.4,934.8,1597.1,934.8,1597.1z"/>
			<path fill="#326B45" d="M390,1004.1c0,0,65.8,3.4,51.6,106.2c0,0-119.3,90.3-95.5,185.9c0,0,25.3,12.8,20.5,41.5
				s10.7,66.2-45.8,67S217.1,1311,265.3,1195C313.5,1079.1,363.2,1018.2,390,1004.1z"/>
			<g>
				<path fill="#53AE32" d="M1673.5,1262.5c18.9-276.2-27.7-656.6-143.5-775c0,0-226.2-196.1-721-200.5c-13.7-0.1-27.3,1.9-40.4,5.9
					c-81.8,25.1-373.5,135.5-411.1,444c-23.9,196.2-9.5,382.5,8.5,511.2l4.5,1.8l3.2,23.3l-3.9,1.4c13.9,91.5,28.6,147.8,28.6,147.8
					s20.7,148.3,372,212.3c0,0,293.1,66.2,420.7,44.8s435.6-56,473-323.9c2.7-19.7,5.1-40.3,7-61.7l-2.4-1l1.9-28.7L1673.5,1262.5z"
					/>
				<path fill="#398632" d="M1664,1355.6c2.8-20,5-39.9,7-61.7c0,0-2.5,0.2-2.4-1c0.8-8.9,1.3-19.6,1.9-28.7l3-1.7
					c18-273.8-27.7-651.6-141.1-772.3c-58.3,35.9-226.3,136.3-341.1,176.3c-5.1,1.8-10.1,3.4-14.9,5c0,0-10.2,10.2,0,51.1
					c10.2,40.9,17.5,874.3,14.6,956.8C1318.6,1658,1626.6,1623.4,1664,1355.6z"/>
				<path fill="#285B22" d="M1670.5,1264.2L1670.5,1264.2c-145,87.7-428.7,157.3-474,165.9c-36.4,6.9-149.8-10.8-418.8-65.1
					c-222.6-45-379.2-104.2-407.3-115.2l3.2,23.3l-3.9,1.4c1.6,0.7,155.1,65.5,402.9,115.6c235,47.5,351.2,66.9,405.5,66.9
					c9.5,0,17.1-0.6,23.1-1.7c46-8.7,321.5-71.7,469.7-161.4l-2.4-1L1670.5,1264.2z"/>
				<path fill="#90E26D" d="M1178.2,1457.1c9.5,0,17.1-0.6,23.1-1.7c46-8.7,321.5-71.7,469.7-161.4l-2.4-1
					c-156.4,95.3-477.1,158.6-477.1,158.6c-77.5,0.5-314.8-43.4-463-75.4c-207.3-44.8-354.8-103-354.8-103l-3.9,1.4
					c1.6,0.7,155.1,65.5,402.9,115.6C1007.6,1437.6,1123.9,1457.1,1178.2,1457.1z"/>
			</g>
			<g>
				<path fill="#398632" d="M1125.1,678c-2.2,0-4.4-0.5-6.4-1.7c-2.8-1.6-279.7-157.6-612-126.9c-7.1,0.6-13.3-4.5-13.9-11.6
					c-0.7-7.1,4.5-13.3,11.6-13.9c340.5-31.4,624.3,128.6,627.1,130.2c6.1,3.5,8.3,11.4,4.7,17.5
					C1133.9,675.7,1129.5,678,1125.1,678z"/>
			</g>
			<ellipse fill="#398632" cx="970.4" cy="406" rx="65.9" ry="33.5"/>
			<path fill="#07332C" d="M970.4,439.5c26.8,0,49.8-8.2,60.1-19.9c-1.4-9.4-11.8-23-60.1-25.5c0,0-44.9-2.2-60.8,24.8
				C919.5,431,943,439.5,970.4,439.5z"/>
			<path fill="#398632" d="M442.8,907.8c0,0-15.1-202.6,96.4-218.2C650.7,674,883,734.4,883,734.4s182.9,35.6,186.8,181.7
				c3.9,146.1,37.7,343.4-109.9,348.2c0,0-85.7,2.4-242.6-43.8c-156.8-46.3-263.2-78.8-266.6-184.5L442.8,907.8z"/>
			<path fill="#DCEFF5" d="M1069.9,916C1066,769.9,883,734.4,883,734.4s-214.8-55.8-330.5-46.2c-17,31.8-39.6,100.3-44.1,242.3v71.6
				c0,0-5.8,96.4,104.5,133c0,0,133.3,46.4,237.4,68.7c88.7,19,170.9,10.8,214.1-25.4C1084.9,1106.4,1072.2,1002.3,1069.9,916z"/>
			<path fill="#F6F5FD" d="M961,1212.9c0,0,14.6,0.7,55.3-9.7c0,0-27.5-0.7-67.5-3.5c-108.7-7.7-191.8-41.4-325.1-83.3
				s-86.2-243.8-71.6-340.2c8.2-54,43.8-77.3,73.6-87.3c-26.5-2-51.6-2.5-73.2-0.7c-17,31.8-39.6,100.3-44.1,242.3v71.6
				c0,0-5.8,96.4,104.5,133c0,0,133.3,46.4,237.4,68.7C889.5,1212,927.3,1215.1,961,1212.9z"/>
			<path fill="#07332C" d="M1265.4,1617.9L1265.4,1617.9c-6.2,0-11.3-5.1-11.3-11.3v-99.4c0-6.2,5.1-11.3,11.3-11.3h0
				c6.2,0,11.3,5.1,11.3,11.3v99.4C1276.7,1612.8,1271.6,1617.9,1265.4,1617.9z"/>
			<path fill="#07332C" d="M1320.9,1608.8L1320.9,1608.8c-6.2,0-11.3-5.1-11.3-11.3v-99.4c0-6.2,5.1-11.3,11.3-11.3l0,0
				c6.2,0,11.3,5.1,11.3,11.3v99.4C1332.2,1603.7,1327.1,1608.8,1320.9,1608.8z"/>
			<path fill="#07332C" d="M1376.2,1596.3L1376.2,1596.3c-6.2,0-11.3-5.1-11.3-11.3v-99.4c0-6.2,5.1-11.3,11.3-11.3l0,0
				c6.2,0,11.3,5.1,11.3,11.3v99.4C1387.6,1591.2,1382.5,1596.3,1376.2,1596.3z"/>
			<path fill="#07332C" d="M1514.7,864.3L1514.7,864.3c-6.2,0.9-11.9-3.4-12.8-9.6l-28.3-194.6c-0.9-6.2,3.4-11.9,9.6-12.8l0,0
				c6.2-0.9,11.9,3.4,12.8,9.6l28.3,194.6C1525.2,857.6,1520.9,863.4,1514.7,864.3z"/>
			<path fill="#07332C" d="M1566.3,834.2L1566.3,834.2c-6.2,0.9-11.9-3.4-12.8-9.6L1525.1,630c-0.9-6.2,3.4-11.9,9.6-12.8h0
				c6.2-0.9,11.9,3.4,12.8,9.6l28.3,194.6C1576.8,827.6,1572.4,833.3,1566.3,834.2z"/>
			
				<ellipse transform="matrix(0.24 -0.9708 0.9708 0.24 -92.1842 2344.8684)" fill="#07332C" cx="1451.5" cy="1231.3" rx="110.5" ry="83.7"/>
			<g>
				<g>
					<path fill="#07332C" d="M1227.3,1281.7l12.2,10l0,28.3l-12.2,17.4L1227.3,1281.7z M1261.5,1329.8l-31.9,9.5l12-17.3l16.7-5
						l7.8,6.2L1261.5,1329.8z M1262.1,1285.8l6-8.6l6.1,5l0.1,29.1l-6.1,8.7l-6.1-5L1262.1,1285.8z M1278.3,1311l16.5-4.9l12.2,10
						l-31.7,9.5l-4.6-3.8L1278.3,1311z M1308.9,1257.5l0.4,55.3l-12.2-10l-0.2-28.1L1308.9,1257.5z"/>
					<path fill="#07332C" d="M1229.6,1342.5c-1,0-2-0.5-2.6-1.3c-0.2-0.2-0.3-0.5-0.4-0.7c-0.1,0-0.2,0-0.3-0.1
						c-1.3-0.4-2.2-1.7-2.2-3.1l0-55.6c0-1.2,0.7-2.4,1.8-2.9c1.1-0.5,2.5-0.4,3.4,0.4l12.2,10c0.7,0.6,1.2,1.5,1.2,2.5l0,26.6
						l14.7-4.4c0.5-0.2,1.1-0.2,1.6-0.1l-0.1-28.1c0-0.7,0.2-1.3,0.6-1.9l6-8.6c0.5-0.7,1.3-1.2,2.2-1.3c0.9-0.1,1.8,0.1,2.5,0.7
						l6.1,5c0.7,0.6,1.2,1.5,1.2,2.5l0.1,25.7l16.3-4.9c0-0.1,0-0.1,0-0.2l-0.2-28.1c0-0.7,0.2-1.3,0.6-1.9l12-17.2
						c0.8-1.1,2.3-1.6,3.6-1.2c1.3,0.4,2.2,1.6,2.3,3l0.4,55.3c0,1.2-0.7,2.4-1.8,2.9c-0.2,0.1-0.3,0.1-0.5,0.2c0,0.3,0,0.6-0.1,0.9
						c-0.2,1.2-1.1,2.1-2.2,2.4l-31.7,9.5c-1,0.3-2.1,0.1-2.9-0.6l-4.3-3.5c-0.1,0.2-0.2,0.3-0.3,0.5l-4.7,6.6c-0.4,0.6-1,1-1.7,1.2
						l-31.9,9.6C1230.2,1342.5,1229.9,1342.5,1229.6,1342.5z M1243.6,1324.7l-6.2,8.9l22-6.6l2.3-3.2l-4.1-3.3L1243.6,1324.7z
						 M1261.5,1329.8L1261.5,1329.8L1261.5,1329.8z M1230.5,1288.5l0,38.7l5.8-8.2l0-25.7L1230.5,1288.5z M1275,1321.3l1,0.8
						l24.3-7.3l-6.3-5.1l-13.8,4.1L1275,1321.3z M1265.4,1313.4l2.3,1.9l3.5-5l-0.1-26.6l-2.3-1.8l-3.5,4.9L1265.4,1313.4z
						 M1300.3,1301.2l5.8,4.7l-0.3-38.4l-5.7,8.1L1300.3,1301.2z"/>
				</g>
				<g>
					<path fill="#07332C" d="M1261.2,1256.4l-34,10.1l12.2-17.2l18.6-5.5l7.7,6.2L1261.2,1256.4z M1277.9,1237.9l16.4-4.9l12.2,9.9
						l-31.5,9.3l-4.6-3.7L1277.9,1237.9z M1308.3,1185.1l0.4,54.6l-12.2-9.9l-0.2-27.8L1308.3,1185.1z"/>
					<path fill="#07332C" d="M1227.2,1269.6c-1,0-2-0.5-2.6-1.3c-0.8-1.1-0.8-2.6,0-3.7l12.2-17.2c0.4-0.6,1-1,1.7-1.2l18.6-5.5
						c1-0.3,2.1-0.1,2.9,0.6l7.4,5.9c0.1-0.1,0.2-0.3,0.3-0.4l7.5-10.7c0.4-0.6,1-1,1.7-1.2l16.4-4.8c0-0.1,0-0.1,0-0.2l-0.2-27.8
						c0-0.7,0.2-1.3,0.6-1.9l11.9-16.9c0.8-1.1,2.2-1.6,3.6-1.2c1.3,0.4,2.2,1.6,2.2,3l0.4,54.6c0,1.2-0.7,2.4-1.8,2.9
						c-0.2,0.1-0.3,0.1-0.5,0.2c0,0.3,0,0.6-0.1,0.8c-0.2,1.2-1.1,2.1-2.2,2.4l-31.5,9.3c-1,0.3-2.1,0.1-2.9-0.6l-4.2-3.4
						c-0.1,0.2-0.2,0.3-0.3,0.4l-4.6,6.5c-0.4,0.6-1,1-1.7,1.2l-34,10.1C1227.9,1269.6,1227.5,1269.6,1227.2,1269.6z M1241.5,1252
						l-6.2,8.7l24-7.1l2.2-3.1l-4-3.2L1241.5,1252z M1261.2,1256.4L1261.2,1256.4L1261.2,1256.4z M1274.7,1248l0.9,0.8l24.1-7.1
						l-6.1-5l-13.7,4.1L1274.7,1248z M1299.8,1228.2l5.7,4.6l-0.3-37.8l-5.6,7.9L1299.8,1228.2z"/>
				</g>
				<g>
					<path fill="#07332C" d="M1257.9,1178.8l-18.5,5.4l-12.2-9.8l33.7-9.9l4.6,3.6L1257.9,1178.8z M1274.5,1160.6l33.5-9.8
						l-11.9,16.8l-18.6,5.4l-7.5-6.1L1274.5,1160.6z"/>
					<path fill="#07332C" d="M1239.4,1187.4c-0.7,0-1.4-0.2-2-0.7l-12.2-9.8c-0.9-0.8-1.4-2-1.1-3.1c0.2-1.2,1.1-2.1,2.2-2.4
						l33.7-9.9c1-0.3,2.1-0.1,2.9,0.6l4.3,3.4c0.1-0.1,0.2-0.3,0.2-0.4l4.5-6.3c0.4-0.6,1-1,1.7-1.2l33.5-9.8
						c1.3-0.4,2.7,0.1,3.5,1.2c0.8,1.1,0.8,2.6,0,3.7l-11.9,16.8c-0.4,0.6-1,1-1.7,1.2l-18.6,5.4c-1,0.3-2.1,0.1-2.9-0.6l-7.2-5.8
						c-0.1,0.1-0.2,0.3-0.2,0.4l-7.6,10.6c-0.4,0.6-1,1-1.7,1.2l-18.5,5.4C1240,1187.4,1239.7,1187.4,1239.4,1187.4z M1234,1175.8
						l6.1,4.9l15.9-4.7l5.2-7.2l-0.9-0.7L1234,1175.8z M1257.9,1178.8L1257.9,1178.8L1257.9,1178.8z M1274.4,1166.3l3.9,3.2
						l15.9-4.7l5.9-8.4l-23.6,6.9L1274.4,1166.3z"/>
				</g>
				<g>
					<path fill="#07332C" d="M1267.4,1089.6l6,4.8l0.2,40.4l-6,8.4l-6-4.9l-0.1-40.5L1267.4,1089.6z"/>
					<path fill="#07332C" d="M1267.6,1146.4c-0.7,0-1.4-0.3-2-0.7l-6-4.9c-0.8-0.6-1.2-1.5-1.2-2.5l-0.1-40.5c0-0.7,0.2-1.3,0.6-1.9
						l5.9-8.3c0.5-0.7,1.3-1.2,2.2-1.3c0.9-0.1,1.8,0.1,2.4,0.7l6,4.8c0.7,0.6,1.2,1.5,1.2,2.5l0.2,40.4c0,0.7-0.2,1.3-0.6,1.9
						l-6,8.4c-0.5,0.7-1.3,1.2-2.2,1.3C1267.9,1146.4,1267.8,1146.4,1267.6,1146.4z M1264.8,1136.8l2.2,1.8l3.4-4.7l-0.2-37.9
						l-2.2-1.7l-3.4,4.7L1264.8,1136.8z"/>
				</g>
				<g>
					<path fill="#07332C" d="M1257.6,1073.2l-16.2,4.7l-11.9-9.6l31-8.9l4.6,3.6L1257.6,1073.2z M1274,1055.4l30.9-8.9l-11.8,16.4
						l-16.1,4.7l-7.5-6L1274,1055.4z"/>
					<path fill="#07332C" d="M1241.4,1081.1c-0.7,0-1.4-0.2-2-0.7l-11.9-9.6c-0.9-0.8-1.4-2-1.1-3.1c0.2-1.2,1.1-2.1,2.3-2.4l31-8.9
						c1-0.3,2-0.1,2.9,0.6l4.3,3.3c0.1-0.1,0.1-0.2,0.2-0.4l4.4-6.2c0.4-0.6,1-1,1.7-1.2l30.9-8.9c1.3-0.4,2.7,0.1,3.5,1.2
						c0.8,1.1,0.8,2.6,0,3.7l-11.8,16.5c-0.4,0.6-1,1-1.7,1.2l-16.1,4.7c-1,0.3-2.1,0.1-2.9-0.6l-7.1-5.7c-0.1,0.1-0.1,0.2-0.2,0.4
						l-7.5,10.3c-0.4,0.6-1,1-1.7,1.2l-16.2,4.7C1242,1081.1,1241.7,1081.1,1241.4,1081.1z M1236.3,1069.6l5.9,4.7l13.5-3.9l5.1-6.9
						l-0.9-0.7L1236.3,1069.6z M1257.6,1073.2L1257.6,1073.2L1257.6,1073.2z M1273.9,1061l3.8,3.1l13.4-3.9l5.8-8l-21,6L1273.9,1061
						z"/>
				</g>
				<g>
					<path fill="#07332C" d="M1227.2,995.6l11.9,9.5l0,24.4l-11.9,16.4L1227.2,995.6z M1260.4,1038.9l-31,8.9l11.7-16.4l16.2-4.6
						l7.6,5.9L1260.4,1038.9z M1257.3,997.6l-16.1,4.6l-11.7-9.6l30.7-8.8l4.6,3.5L1257.3,997.6z M1273.6,980l30.6-8.7l-11.7,16.2
						l-15.9,4.5l-7.4-5.9L1273.6,980z M1276.8,1021.2l16.1-4.6l11.9,9.6l-30.9,8.9l-4.5-3.6L1276.8,1021.2z M1306.6,973l0.4,50.1
						l-11.9-9.5l-0.2-24.3L1306.6,973z"/>
					<path fill="#07332C" d="M1229.4,1051c-1,0-2-0.5-2.6-1.4c-0.1-0.2-0.2-0.4-0.3-0.6c-0.1,0-0.2-0.1-0.3-0.1
						c-1.3-0.4-2.2-1.7-2.2-3l0-50.3c0-1.2,0.7-2.4,1.8-2.9c0.2-0.1,0.3-0.1,0.5-0.2c0-0.2,0-0.4,0.1-0.6c0.2-1.2,1.1-2.1,2.3-2.4
						l30.7-8.8c1-0.3,2-0.1,2.8,0.5l4.2,3.3c0.1-0.1,0.1-0.2,0.2-0.3l4.4-6.1c0.4-0.6,1-1,1.7-1.2l30.6-8.7c1.3-0.4,2.7,0.1,3.5,1.2
						c0.1,0.1,0.2,0.2,0.2,0.4c0.2,0,0.3,0.1,0.5,0.1c1.3,0.4,2.2,1.6,2.2,3l0.4,50.1c0,1.2-0.7,2.4-1.8,2.9
						c-0.1,0.1-0.3,0.1-0.4,0.2c0,0.2,0,0.5-0.1,0.7c-0.2,1.2-1.1,2.1-2.3,2.4l-30.9,8.9c-1,0.3-2.1,0.1-2.9-0.6l-4.1-3.3
						c-0.1,0.1-0.2,0.3-0.2,0.4l-4.6,6.2c-0.4,0.6-1,1-1.7,1.2l-31,8.9C1230,1051,1229.7,1051,1229.4,1051z M1243.1,1034.2l-5.7,8
						l21.1-6.1l2.1-2.8l-3.9-3L1243.1,1034.2z M1260.4,1038.9L1260.4,1038.9L1260.4,1038.9z M1230.4,1002.3l0,33.7l5.5-7.5l0-21.8
						L1230.4,1002.3z M1273.8,1030.9l0.8,0.6l23.3-6.7l-5.8-4.6l-13.4,3.8L1273.8,1030.9z M1257.4,1023.6c0.7,0,1.4,0.2,2,0.7
						l7.3,5.7c0.1-0.1,0.1-0.2,0.2-0.4l7.4-10.2c0.4-0.6,1-1,1.7-1.2l16-4.6c0,0,0,0,0-0.1l-0.2-22.4l-14.2,4.1
						c-1,0.3-2.1,0.1-2.9-0.6l-7-5.6c-0.1,0.1-0.1,0.2-0.2,0.3l-7.5,10.2c-0.4,0.6-1,1-1.7,1.2l-16,4.6l0,22.6l14.2-4.1
						C1256.8,1023.6,1257.1,1023.6,1257.4,1023.6z M1298.3,1012l5.5,4.4l-0.3-33.5l-5.3,7.4L1298.3,1012z M1236.3,994l5.6,4.6
						l13.4-3.8l5-6.8l-0.8-0.6L1236.3,994z M1257.3,997.6L1257.3,997.6L1257.3,997.6z M1273.6,985.5l3.7,3l13.3-3.8l5.6-7.8
						l-20.7,5.9L1273.6,985.5z"/>
				</g>
				<g>
					<path fill="#07332C" d="M1252.8,949l-25.7-9l-4.2-16.5l38.4,13.3l1.6,6.1L1252.8,949z M1272.9,941l38.3,13.3l-16.1,9.4l-25.5-9
						l-2.6-10.3L1272.9,941z"/>
					<path fill="#07332C" d="M1295,966.9c-0.4,0-0.7-0.1-1.1-0.2l-25.5-9c-1-0.4-1.8-1.2-2-2.2l-2.4-9.3l-9.6,5.6
						c-0.8,0.5-1.8,0.6-2.7,0.3l-25.7-9c-1-0.4-1.8-1.2-2-2.2l-4.2-16.5c-0.3-1.1,0.1-2.4,0.9-3.2c0.9-0.8,2.1-1.1,3.2-0.7
						l38.4,13.4c1,0.4,1.8,1.2,2,2.2l1.4,5.2l5.5-3.1c0.8-0.5,1.8-0.6,2.6-0.2l38.3,13.3c1.2,0.4,2,1.5,2.1,2.7
						c0.1,1.2-0.5,2.4-1.6,3.1l-16.1,9.4C1296.2,966.8,1295.6,966.9,1295,966.9z M1272.2,952.2l22.5,8l8.8-5.2l-30.4-10.6l-2.6,1.5
						L1272.2,952.2z M1229.8,937.6l22.7,7.9l6.7-4l-0.6-2.1l-31.2-10.8L1229.8,937.6z"/>
				</g>
				<g>
					<path fill="#07332C" d="M1257,898.5l-15.9,4.5l-11.8-9.4l30.5-8.6l4.5,3.5L1257,898.5z M1273.1,881.3l30.4-8.5l-11.6,15.9
						l-15.9,4.5l-7.3-5.8L1273.1,881.3z"/>
					<path fill="#07332C" d="M1241.1,906.2c-0.7,0-1.4-0.2-2-0.7l-11.7-9.4c-0.9-0.7-1.4-2-1.1-3.1c0.2-1.2,1.1-2.1,2.3-2.4
						l30.5-8.6c1-0.3,2-0.1,2.8,0.5l4.2,3.2c0.1-0.1,0.1-0.2,0.2-0.3l4.4-6c0.4-0.6,1-1,1.7-1.2l30.4-8.5c1.3-0.4,2.7,0.1,3.5,1.3
						c0.8,1.1,0.8,2.6,0,3.7l-11.6,15.9c-0.4,0.6-1,1-1.7,1.2l-15.9,4.5c-1,0.3-2.1,0.1-2.9-0.6l-7-5.5c-0.1,0.1-0.1,0.2-0.2,0.3
						l-7.4,10c-0.4,0.6-1,1-1.7,1.2L1242,906C1241.7,906.1,1241.4,906.2,1241.1,906.2z M1236.2,895l5.6,4.4l13.3-3.7l4.9-6.6
						l-0.7-0.6L1236.2,895z M1257,898.5L1257,898.5L1257,898.5z M1273.2,886.7l3.7,2.9l13.2-3.7l5.5-7.5l-20.4,5.7L1273.2,886.7z"/>
				</g>
				<g>
					<path fill="#07332C" d="M1227.1,823.3l11.7,9.2l0,23.6l-11.7,15.8L1227.1,823.3z M1256.7,825.3l-15.8,4.4l-11.5-9.3l30.1-8.4
						l4.5,3.4L1256.7,825.3z M1260.5,825l5.8-7.8l5.8,4.6l0.1,26.7l-5.8,7.9l-5.9-4.6L1260.5,825z M1275.9,848.2l15.8-4.4l11.7,9.3
						l-30.3,8.5l-4.4-3.5L1275.9,848.2z M1305.2,801.6l0.4,48.4l-11.7-9.3l-0.2-23.5L1305.2,801.6z"/>
					<path fill="#07332C" d="M1227.1,875.2c-0.3,0-0.7-0.1-1-0.2c-1.3-0.4-2.2-1.7-2.2-3l0-48.7c0-1.2,0.7-2.3,1.8-2.9
						c0.2-0.1,0.3-0.1,0.5-0.2c0-0.2,0-0.3,0.1-0.5c0.2-1.2,1.1-2.1,2.3-2.4l30.1-8.4c1-0.3,2-0.1,2.8,0.5l4.5,3.4
						c0.4,0.3,0.7,0.7,0.9,1.1c0.5,0.1,1,0.3,1.4,0.6l5.8,4.6c0.8,0.6,1.2,1.5,1.2,2.5l0.1,23.3l15.3-4.3l-0.2-23.5
						c0-0.7,0.2-1.4,0.6-1.9l11.5-15.6c0.8-1.1,2.3-1.6,3.6-1.2c1.3,0.4,2.2,1.6,2.2,3l0.4,48.4c0,1.2-0.7,2.4-1.8,2.9
						c-0.1,0.1-0.3,0.1-0.4,0.2c0,0.2,0,0.4-0.1,0.6c-0.2,1.2-1.1,2.1-2.3,2.5l-30.3,8.5c-1,0.3-2.1,0.1-2.9-0.6l-4.4-3.5
						c-0.4-0.3-0.7-0.7-0.9-1.1c-0.5-0.1-1-0.3-1.4-0.6l-5.9-4.6c-0.8-0.6-1.2-1.5-1.2-2.5l-0.1-23.2l-15.3,4.3l0,23.4
						c0,0.7-0.2,1.4-0.6,1.9l-11.7,15.8C1229.1,874.7,1228.1,875.2,1227.1,875.2z M1230.3,830l0,32.3l5.3-7.1l0-21L1230.3,830z
						 M1273.1,857.5l0.7,0.6l22.7-6.4l-5.5-4.4l-13.1,3.7L1273.1,857.5z M1263.7,850.1l2,1.6l3.2-4.4l-0.1-24.1l-2-1.6l-3.2,4.3
						L1263.7,850.1z M1297.1,839.2l5.3,4.2l-0.3-32.1l-5.1,7L1297.1,839.2z M1236.3,821.8l5.4,4.3l13.1-3.6l4.8-6.4l-0.7-0.5
						L1236.3,821.8z M1256.7,825.3L1256.7,825.3L1256.7,825.3z"/>
				</g>
			</g>
			<path fill="#326B45" d="M1479.2,1169.8c0,0-65.8,3.4-51.6,106.2c0,0,119.3,90.3,95.5,185.9c0,0-25.3,12.8-20.5,41.5
				s-10.7,66.2,45.8,67c56.5,0.7,103.7-93.8,55.5-209.7C1555.7,1244.8,1506,1183.9,1479.2,1169.8z"/>
			<g>
				<polygon fill="#07332C" points="816.7,1422.9 1052.5,1469.6 1052.5,1512.2 819.8,1463.7 				"/>
				<polygon fill="#398632" points="833.9,1452.7 832.3,1426.5 816.7,1422.9 819.8,1463.7 1052.5,1512.2 1052.5,1494.9 				"/>
			</g>
			<g>
				<g>
					<g>
						
							<ellipse transform="matrix(3.440763e-02 -0.9994 0.9994 3.440763e-02 -539.256 2690.2119)" fill="#398632" cx="1122.6" cy="1624.2" rx="14.4" ry="13.2"/>
					</g>
					<path fill="#07332C" d="M1124.9,1610c6.3,1.2,11,7.2,10.9,14.4c-0.1,7.2-5.1,13-11.4,14c-5.5-1.2-9.7-7.1-9.5-14.3
						C1114.9,1616.9,1119.3,1611,1124.9,1610z"/>
				</g>
				<g>
					<g>
						
							<ellipse transform="matrix(3.440763e-02 -0.9994 0.9994 3.440763e-02 -510.848 2628.0142)" fill="#398632" cx="1104.6" cy="1578.4" rx="14.4" ry="13.2"/>
					</g>
					<path fill="#07332C" d="M1106.9,1564.2c6.3,1.2,11,7.2,10.9,14.4c-0.1,7.2-5.1,13-11.4,14c-5.5-1.2-9.7-7.1-9.5-14.3
						C1097,1571.1,1101.3,1565.2,1106.9,1564.2z"/>
				</g>
				<g>
					<g>
						
							<ellipse transform="matrix(3.440763e-02 -0.9994 0.9994 3.440763e-02 -574.3711 2624.657)" fill="#398632" cx="1071.1" cy="1609.6" rx="14.4" ry="13.2"/>
					</g>
					<path fill="#07332C" d="M1073.4,1595.4c6.3,1.2,11,7.2,10.9,14.4c-0.1,7.2-5.1,13-11.4,14c-5.5-1.2-9.7-7.1-9.5-14.3
						C1063.5,1602.2,1067.8,1596.4,1073.4,1595.4z"/>
				</g>
				<path fill="#398632" d="M1146.1,1640.8c-2.3-14.8-5.6-29.4-9.7-43.8c-4.1-14.4-8.3-28.8-14.7-42.1c-1.7-3.3-3.5-6.5-5.6-9.4
					c-2.2-2.8-4.9-5.5-8.2-6.5c-3.3-0.9-7.1-0.2-10.5,1c-3.5,1.2-6.7,3-9.8,5c-6.3,4-11.8,9.1-17.1,14.4c-5.3,5.3-10,11.1-14.6,17
					c-4.5,5.9-8.8,12.1-12.5,18.5c-1.8,3.2-3.6,6.5-4.7,9.9c-1,3.5-1.7,7-1.7,10.6c0,3.5,0.7,7,2.2,10.2c1.5,3.1,3.7,5.9,6.5,8.1
					c5.7,4.3,12.4,7.8,19.1,10.6c13.6,5.7,28.3,8.9,43.1,9.7c7.4,0.3,14.9-0.1,22.3-1.1c3.7-0.3,7.4-1.3,10.6-3.1
					c1.6-0.9,3.1-2.1,4-3.6C1145.9,1644.5,1146.2,1642.6,1146.1,1640.8z M1146.4,1640.8c0.2,1.9-0.1,3.9-1.1,5.5
					c-1,1.7-2.5,2.9-4.1,3.9c-3.3,2-7,2.9-10.7,3.5c-7.4,1.4-14.9,2.2-22.5,2.4c-15.1,0.1-30.3-2.8-44.4-8.7c-7-3-13.8-6.3-20-11.1
					c-3.1-2.5-5.6-5.8-7.3-9.4c-1.6-3.7-2.4-7.7-2.3-11.6c0.1-3.9,0.8-7.8,2.1-11.5c1.3-3.8,3.3-7,5.2-10.3
					c4-6.4,8.5-12.5,13.3-18.3c9.6-11.5,20-22.5,32.5-31.2c3.1-2.1,6.4-4,10-5.4c3.6-1.3,7.4-2.4,11.5-1.5c4,1.1,7,3.9,9.5,6.8
					c2.4,3,4.5,6.3,6.3,9.6c6.9,13.6,11,28.2,14.3,42.8c1.6,7.3,3,14.7,4.3,22.1C1144,1626,1145.4,1633.3,1146.4,1640.8z"/>
				<path fill="#398632" d="M1130.1,1571.5c0,0-8.6-26.8-24.2-24.5c-15.6,2.4-56.6,46.8-60.4,62.3c-3.6,14.6,7.2,23,16.2,27.2
					c9.2,4.3,48,18.3,84.6,4.2c0,0,2.2,11.1-20.2,13.1c-22.4,2.1-38.9-1.2-38.9-1.2s-39.4-7.7-47-22.6c-7.7-14.9-3.6-23.1-3.6-23.1
					s6.4-15.8,15-26.5c8.6-10.8,32.1-39,47.6-42c15.5-2.9,19.9,7.8,24.1,16.1C1127.3,1563,1130.1,1571.5,1130.1,1571.5z"/>
			</g>
		</g>
		<g>
			<g>
				
					<ellipse transform="matrix(0.2005 -0.9797 0.9797 0.2005 -541.7232 1353.5388)" fill="#FDE0DA" cx="558.4" cy="1008.7" rx="15.5" ry="40.5"/>
				
					<ellipse transform="matrix(0.1129 -0.9936 0.9936 0.1129 -237.6709 1885.0411)" fill="#FDE0DA" cx="936.9" cy="1075.6" rx="15.5" ry="40.5"/>
			</g>
			<path fill="#041C16" d="M617,990.7l-55.4-8.7c-9.2-1.4-15.6-10.2-14.2-19.4h0c1.4-9.2,10.2-15.6,19.4-14.2l55.4,8.7
				c9.2,1.4,15.6,10.2,14.2,19.4v0C635,985.8,626.3,992.1,617,990.7z"/>
			<path fill="#041C16" d="M933.9,1046.3l-55.4-8.7c-9.2-1.4-15.6-10.2-14.2-19.4l0,0c1.4-9.2,10.2-15.6,19.4-14.2l55.4,8.7
				c9.2,1.4,15.6,10.2,14.2,19.4l0,0C951.9,1041.4,943.1,1047.8,933.9,1046.3z"/>
			<g>
				
					<path fill="none" stroke="#041C16" stroke-width="11.204" stroke-linecap="round" stroke-linejoin="round" stroke-miterlimit="10" d="
					M782.4,1012.2c0,0,21.7,10.1,9.1,38c-10.7,23.7-50.4,11-51.9-9.6c-5.7,19.9-49.5,17.4-50.1-8.5s17.3-31.5,17.3-31.5"/>
			</g>
		</g>
		<g>
			<g>
				<g>
					<path fill="#12442F" d="M787.9,1826.3c0,0-0.1,0-0.1,0c-2.3,0.4-4.5,0.9-6.8,1.2L787.9,1826.3z"/>
					<path fill="#12442F" d="M669.6,1755.2c-7.6,5.1-15.2,11.7-16.2,20.2c-1.2,10.1,7.4,18.9,16.7,24.4
						c16.9,10.1,37.4,14.2,57.6,16.9c20.1,2.7,40.7,4.1,60,9.6c12.4-2.4,24.5-5.9,36-10.7c8.7-3.6,17.1-8,24.1-14
						c10.6-9,17.4-21.8,17.5-34.9c0.1-13-6.8-26-18.7-33.1c-6.5-3.9-14.1-5.9-21.8-7.2l-4.1-0.4c-1.5,38.1-5.2,69.7-17.7,76.8
						c-5.4,3.1-15,6.3-26.7,9c-16.2-2.8-33.1-3.8-49.7-5.5c-20.1-2-40.5-5.3-57.3-13.9c-2.9-1.5-5.7-3.2-8.2-5.2
						c1.5-23.7,26.7-40.4,45.5-49.7"/>
				</g>
				<g>
					<path fill="#17563E" d="M820.7,1726c-1.5,38.1-5.2,69.7-17.7,76.8c-5.4,3.1-15,6.3-26.7,9c3.4,0.6,6.8,1.2,10.1,2
						c12.4-2.2,24.5-5.5,36.1-9.9c8.7-3.3,17.2-7.2,24.2-12.5c10.7-8,17.7-19.2,18-30.6c0.3-11.3-6.5-22.6-18.3-28.5
						c-6.4-3.3-14-4.9-21.7-6"/>
					<path fill="#17563E" d="M786.5,1814c0,0-0.1,0-0.1,0c-2.3,0.4-4.5,0.8-6.8,1.2L786.5,1814z"/>
				</g>
				<path fill="#B1CEB6" d="M594.9,1797.9c-0.2,2.2-0.7,4.5-2.1,6.1c-1.2,1.4-2.8,2.3-4.4,3.1c-12.1,5.9-25.5,9.2-37.1,16.1
					c0.9-4.2,1.9-8.4,2.9-12.6c0.9-3.8,1.9-7.7,3.7-11.2c2.8-5.7,7.5-10.5,13.2-13.3c4.7-2.3,13.1-4.8,18.3-2.5
					C594.1,1785.5,595.3,1793.5,594.9,1797.9z"/>
				<path fill="#1D684D" d="M763.6,1762c-5.2-5.8-11.8-10.1-18.7-13.7c-32.8-17.1-73.9-17.2-106.9-0.3c-8.2,4.2-15.9,9.4-23.2,14.9
					c-7.2,5.5-14.1,11.4-19.7,18.5c-4.7,6-8.5,12.8-11,20c-2.5,7.1-3.8,15.1-0.9,22.1c2.2,5.3,6.5,9.4,11.3,12.4
					c8.4,5.3,18.4,7.8,28.3,9.3c31.9,4.7,64.2-0.2,95.1-8.1c15.9-4.1,31.6-8.9,47.2-13.9c10.1-3.2,18.6-6.7,17.6-18.7
					C781.5,1790.1,773.3,1772.7,763.6,1762z"/>
				<path fill="#1D684D" d="M743.8,1740.2c0.6-4.1-5.9-6.8-8.4-3.5c-1.2-2.1-2.5-4.2-3.7-6.3c-1.8,1.5-3.6,3-5.4,4.5
					c-0.8-2.3-1.7-4.5-2.5-6.8c-1.9,0.5-3.1,2.3-4.4,3.7c-1.4,1.4-3.6,2.5-5.2,1.5c-0.8-0.5-1.2-1.3-1.6-2.1
					c-4.7-9-12.6-16.3-22-20.2c4.1,6.1,5.6,13.8,4.3,20.9c-2.2-2.8-4.5-5.6-6.7-8.5c-0.1,2-0.3,3.9-0.4,5.9c-2.2-2.6-4.9-4.7-8-6.2
					c-0.2,1.8-0.4,3.5-0.6,5.3c-0.9-0.6-1.7-1.3-2.6-1.9c0,1.4,0.1,2.9,0.1,4.3c-3.7-3.1-8.7-4.6-13.5-3.8c2.3,1.6,3.9,4.3,4.2,7.2
					c-8.5-3.2-18.1-3.7-26.9-1.4c3.6,0,6.9,3.3,6.8,7c-4.4-0.6-8.8-0.6-13.2,0c0.4,1.2,1.4,2.2,2.6,2.5c-3.8,1.5-7.6,3-11.4,4.5
					c-0.8,0.3-1.8,0.8-1.9,1.7c-0.1,0.9,1.4,1.5,1.6,0.7c-2,0.7-4,1.4-6,2.1c-2.2,2.8-5.7,4.7-9.3,5c1,1,2.1,2,3.1,3
					c-10.3,0.5-20.5,3.8-29,9.7c3.7-0.3,7.5,0,11.1,0.8c-5.4,2.5-10.8,5-16.2,7.6c2.8,1,5.5,2,8.3,2.9c-1.9,0.7-3.8,1.4-5.6,2.1
					c1.1-0.4,2.1,1.2,1.6,2.3c-0.5,1.1-1.7,1.6-2.8,1.9c1.4,0.8,2.9,1.6,4.3,2.4c-1.6,2.5-3.7,4.7-6.1,6.5c1.7,0.8,3.4,1.7,5.1,2.5
					c-3.4,0.5-6.7,2.2-9.1,4.7c1.7,0.8,3.3,1.6,5,2.4c-1.5,1.5-3,3-4.4,4.6c1,0.5,2,0.9,3,1.4c-3.8,2.1-7.3,5-10.1,8.4
					c4.6,0,9.2,0.9,13.5,2.7c-0.7,2.8-1.8,5.5-3.2,8.1c1.9-0.8,3.9-1.6,5.8-2.3c-1.3,2-2.6,4.1-3.8,6.1c1.5-0.8,3-1.5,4.5-2.3
					c-1.1,1.9-2.1,3.8-3.2,5.7c1.7-0.4,3.3-0.7,5-1.1c-0.7,1.6-1.3,3.1-2,4.7c3.2-1.3,6.9-1.5,10.2-0.5c-0.8,2-1.6,4.1-2.5,6.1
					c3.5-2.3,8.1-2.9,12.1-1.6c-0.8,1.2-1.6,2.4-2.5,3.7c3.5-0.4,6.9-0.7,10.4-1.1c-0.2,2.1-0.4,4.2-0.6,6.4c1.5-3,6.9-2.4,7.8,0.9
					c7-4.5,17.5-2.4,22.1,4.6c-0.6-2.3-1.8-4.5-3.5-6.3c5.6,0.5,11,2.1,16.1,4.6c-1.7-1.9-3.5-3.8-5.2-5.7
					c8.1,0.1,16.1,1.6,23.7,4.4c-1.6-0.6-3.2-1.3-4.8-1.9c9.6-1.9,19.9-0.2,28.4,4.6c-1.5-3-3-5.9-4.5-8.9c5.3,2,10.1,5,14.3,8.8
					c-1.8-3.2-3-6.8-3.7-10.4c-0.2-0.9-0.3-1.9,0.3-2.7c0.8-1.2,2.8-1.1,3.9-0.1c1.1,1,1.5,2.5,1.9,3.9c0.5-1.7,1-3.4,1.5-5.1
					c1.9,1.9,3.9,3.8,5.8,5.7c1.2-1.5,1.8-3.3,1.8-5.2c1.8,2,4,3.5,6.5,4.4c0.7-1.4,1.5-2.8,2.2-4.1c0.9,2.1,2.4,4,4.4,5.2
					c1.6-4.1,2-8.6,1.2-12.8c3.5,4.2,6,9.1,7.3,14.4c2.3-5.7,2.6-12.2,0.9-18.1c4.8,2.8,9.5,5.6,14.3,8.4c-1.5-2.2-2.9-4.4-4.4-6.5
					c4.2-0.2,8.5,0.2,12.7,1.2c-1.4-1.8-2.7-3.7-4.1-5.5c3.1-0.3,6.1-0.7,9.2-1.1c9-2.8,19.2-1.2,26.9,4.2c-1.4-4.8-5-8.9-9.6-11
					c4.1,0.1,8.1,0.8,11.9,2.2c-2.7-1.1-5-3-6.5-5.5c3.9-1.6,8.1-2.5,12.3-2.8c-3.8-0.3-7.6-1.4-10.9-3.3
					c10.2-3.4,17.3-14.4,16.1-25.1c-2.8,6.7-10.3,11.1-17.5,10.3c1.7-2.3,3.4-4.7,5.2-7c-1.5,0-3.1,0-4.6,0.1c0.3-1.6,1.2-3.1,2.4-4
					c-2.4-2.2-7.2-0.9-8.7-3.8c-1-1.9,0.3-4.2,1.9-5.7c3-2.9,7-4.8,11.2-5.3c-5.8-1.2-11.8-1.6-17.7-1.3c2.4-2.8,5.5-5,9-6.3
					c-4.9,0-9.9,0.1-14.8,0.1c2.2-6,3.5-12.4,4-18.8c-2.8,3.3-6.6,5.8-10.8,7.1c1.7-7.3-0.1-15.3-4.8-21.1
					c1.5,1.9-3.9,12.3-5.1,13.9c-0.5-1.3-1.1-4-2.3-4.9c-2-1.5-5.9,2.1-6.7-3.1C746.8,1739.4,745.3,1739.8,743.8,1740.2z"/>
				<g opacity="0.3">
					<path fill="#081613" d="M577.7,1799.8c-0.2,0.4-0.4,0.8-0.6,1.2c1.9-0.8,3.9-1.6,5.8-2.3c-1.3,2-2.5,4.1-3.8,6.1
						c-1.6-0.8-3.2-1.5-4.8-2.3C575.3,1801.5,576.4,1800.6,577.7,1799.8z"/>
					<path fill="#081613" d="M789.2,1791.4c0.8-0.3,1.6-0.6,2.4-0.9c-0.3,0.6-0.6,1.3-0.7,1.9c1.5,0,3.1,0,4.6-0.1
						c-0.8,1-1.5,2.1-2.3,3.1C791.7,1794.4,790.3,1793,789.2,1791.4z"/>
					<path opacity="0.3" fill="#081613" d="M577.9,1810.8c-1-0.5-2-0.9-3-1.4c1.5-1.5,3-3,4.4-4.6c-0.1,0-0.1-0.1-0.2-0.1
						c1.5-0.8,3-1.5,4.4-2.3c-1.1,1.9-2.1,3.8-3.2,5.7c1.7-0.4,3.3-0.7,5-1.1c-0.7,1.6-1.3,3.1-2,4.7c3.2-1.3,6.9-1.5,10.2-0.5
						c-0.8,2-1.6,4.1-2.5,6.1c3.5-2.3,8.1-2.9,12.1-1.6c-0.8,1.2-1.6,2.4-2.5,3.7c3.5-0.4,6.9-0.7,10.4-1.1
						c-0.2,2.1-0.4,4.2-0.6,6.4c1.5-3,6.9-2.4,7.8,0.9c7-4.5,17.5-2.4,22.1,4.6c-0.6-2.3-1.8-4.5-3.5-6.3c5.6,0.5,11,2.1,16.1,4.6
						c-1.7-1.9-3.5-3.8-5.2-5.7c8.1,0.1,16.1,1.6,23.7,4.4c-1.6-0.6-3.2-1.3-4.8-1.9c9.6-1.9,19.9-0.2,28.4,4.6
						c-1.5-3-3-5.9-4.5-8.9c5.3,2,10.1,5,14.3,8.8c-1.8-3.2-3-6.8-3.7-10.4c-0.2-0.9-0.3-1.9,0.3-2.7c0.8-1.2,2.8-1.1,3.9-0.1
						c1.1,1,1.5,2.5,1.9,3.9c0.5-1.7,1-3.4,1.5-5.1c1.9,1.9,3.9,3.8,5.8,5.7c1.2-1.5,1.8-3.3,1.8-5.2c1.8,2,4,3.5,6.5,4.4
						c0.7-1.4,1.5-2.8,2.2-4.1c0.9,2.1,2.4,4,4.4,5.2c1.6-4.1,2-8.6,1.2-12.8c3.5,4.2,6,9.1,7.3,14.4c2.3-5.7,2.6-12.2,0.9-18.1
						c4.8,2.8,9.5,5.6,14.3,8.4c-1.5-2.2-2.9-4.4-4.4-6.5c4.2-0.2,8.5,0.2,12.7,1.2c-1.4-1.8-2.7-3.7-4.1-5.5
						c3.1-0.4,6.1-0.7,9.2-1.1c9-2.8,19.2-1.2,26.9,4.2c-1.4-4.8-5-8.9-9.6-11c3.1,0.1,6.1,0.5,9,1.3c-0.9,1.2-1.7,2.3-2.6,3.5
						c7.2,0.8,14.7-3.6,17.5-10.3c1.2,10.7-5.9,21.7-16.1,25.1c3.3,1.9,7.1,3,10.9,3.3c-4.2,0.3-8.4,1.2-12.3,2.8
						c1.6,2.4,3.9,4.4,6.5,5.5c-3.8-1.4-7.9-2.1-11.9-2.2c4.6,2.1,8.1,6.2,9.6,11c-7.7-5.4-18-7-26.9-4.2c-3.1,0.3-6.1,0.7-9.2,1.1
						c1.4,1.8,2.7,3.7,4.1,5.5c-4.1-1-8.4-1.4-12.7-1.2c1.5,2.2,2.9,4.4,4.4,6.5c-4.8-2.8-9.5-5.6-14.3-8.4
						c1.7,5.9,1.4,12.4-0.9,18.1c-1.3-5.3-3.8-10.2-7.3-14.4c0.8,4.3,0.4,8.8-1.2,12.8c-2-1.2-3.5-3.1-4.4-5.2
						c-0.7,1.4-1.5,2.8-2.2,4.1c-2.5-0.9-4.7-2.4-6.5-4.4c0,1.9-0.7,3.7-1.8,5.2c-1.9-1.9-3.9-3.8-5.8-5.7c-0.5,1.7-1,3.4-1.5,5.1
						c-0.4-1.4-0.8-2.9-1.9-3.9c-1.1-1-3.1-1.1-3.9,0.1c-0.5,0.8-0.4,1.8-0.3,2.7c0.6,3.6,1.9,7.2,3.7,10.4
						c-4.2-3.8-9.1-6.8-14.3-8.8c1.5,3,3,5.9,4.5,8.9c-8.5-4.9-18.8-6.5-28.4-4.6c1.6,0.6,3.2,1.3,4.8,1.9
						c-7.6-2.8-15.6-4.3-23.7-4.4c1.7,1.9,3.5,3.8,5.2,5.7c-5-2.5-10.5-4-16.1-4.6c1.7,1.7,2.9,3.9,3.5,6.3
						c-4.6-7-15.1-9.1-22.1-4.6c-0.8-3.3-6.2-3.9-7.8-0.9c0.2-2.1,0.4-4.2,0.6-6.4c-3.5,0.4-6.9,0.7-10.4,1.1
						c0.8-1.2,1.6-2.4,2.5-3.7c-4-1.4-8.6-0.8-12.1,1.6c0.8-2,1.6-4.1,2.5-6.1c-3.3-1-7-0.8-10.2,0.5c0.7-1.6,1.3-3.1,2-4.7
						c-1.7,0.4-3.3,0.7-5,1.1c1.1-1.9,2.1-3.8,3.2-5.7c-1.5,0.8-3,1.5-4.5,2.3c1.3-2,2.6-4.1,3.8-6.1c-1.9,0.8-3.9,1.6-5.8,2.3
						c1.4-2.6,2.4-5.3,3.2-8.1c-4.3-1.8-8.9-2.7-13.5-2.7C570.6,1815.8,574.1,1813,577.9,1810.8z"/>
					<path fill="#081613" d="M579.4,1795.8c-0.3-0.2-0.7-0.3-1-0.5c0.5-0.4,1.1-0.8,1.6-1.2C579.8,1794.6,579.6,1795.2,579.4,1795.8
						z"/>
				</g>
				<path opacity="0.3" fill="#081613" d="M696.3,1747.5c-1.1-2-2-4.1-2.7-6.3c0.1,1.5,0.1,2.9,0.2,4.4c-0.9-1.4-1.8-2.7-2.7-4.1
					c0.1,1.3,0.3,2.7,0.4,4c-0.8-1-1.7-2-2.5-2.9c0.1,1.2,0.3,2.5,0.7,3.6c-2-2.4-4.2-4.7-6.8-6.4c-2.6-1.7-5.8-2.8-8.9-2.4
					c3.7,3.4,6.5,7.9,7.9,12.7c-3.8-5.3-10.5-8.4-17-7.7c5.2,2.7,9.7,6.8,13,11.7c-0.4-0.5-0.5-1.2-0.3-1.8c1.2,2.5,2.4,5.1,3.6,7.6
					c0-1.6,0.2-3.2,0.5-4.8c0.2,0.3,0.4,0.7,0.6,1c0.6-1.3,1.1-2.5,1.7-3.8c0.6,0.4,1.1,1.1,1.3,1.8c1-0.9,0.7-3.1,2.1-3.4
					c0.8-0.1,1.5,0.6,1.9,1.4c2.8,4.7,4.4,10,4.8,15.4c0.9-5,1-10.2,0.4-15.3c1.8,3.5,3.7,7,5.5,10.5c0.3-3.8,0.7-7.6,1-11.4
					c1.5,0.8,2.4,2.5,3.2,4c-0.2-1.8-0.3-3.6-0.5-5.3c7,2.5,13.7,5.8,19.9,9.9c-4.5-5.1-10.7-8.8-17.4-10.2
					c5.5-3.1,12.1-3.3,18.4-3.4c-6.9-3.3-15.1-3.8-22.4-1.5c1-0.3,3-5.9,3.5-7c-1.3,1.5-2.8,5.2-5.1,5.3c-2.4,0.1-3-3.2-3.9-4.8
					C697.2,1741.4,697.1,1744.4,696.3,1747.5z"/>
				<path opacity="0.3" fill="#081613" d="M641.6,1787c0.2-1,0.1-2.2-0.7-2.8c-0.8-0.7-2.3-0.4-2.4,0.7c-0.2-1.3-0.4-2.6-0.6-3.9
					c-1.2,0.4-2.2,1.1-3.1,1.9c0.1-1.4,0.3-2.9,0.4-4.3c0-0.5,0.1-1-0.2-1.5c-0.5-0.9-1.8-0.7-2.8-0.5c-5.2,1.5-10.1,3.7-14.6,6.6
					c2-5.6,5.9-10.6,10.9-13.9c-4.6-1.6-9.5-2.2-14.4-1.9c3.9-0.4,7.8-0.8,11.7-1.2c0.3,0,0.7-0.1,0.8-0.4c0.2-0.3-0.2-0.7-0.4-0.9
					c-1.9-1.7-3.8-3.3-5.6-5c2.5,1.5,5,3,7.5,4.6c-0.2-1.1-0.4-2.2-0.6-3.3c3.5,2.1,6.8,4.5,9.9,7.2c-0.7-0.8-1.3-1.6-2-2.4
					c0.4,0.2,0.8,0.4,1.2,0.5c-0.8-2.4-1.6-4.8-2.5-7.2c4.8,3.1,9.7,6,14.6,8.8c-0.8-3-2.3-5.7-4.4-8c2.2,0.3,4.1,1.7,5.9,3.1
					c4.7,3.6,9.3,7.2,14,10.8c-2.9-2-6.1-3.6-9.4-4.8c4.3,3.7,8.6,7.5,12.9,11.2c3.6,3.2,7.6,7.2,6.9,11.9
					c-3.2-3.2-6.6-6.2-10.2-8.9c1.4,3.1,2.9,6.1,4.3,9.2c-2.8-2.6-5.6-5.2-8.4-7.8c0.9,4,2.3,8,4.1,11.7c-4-6.9-9.1-14.2-16.8-16.3
					c3.3,3.6,5.3,8.3,5.6,13.2c-1.5-2.3-3.8-8.1-6.5-9c-3.1-1-4.8,3.2-5.5,5.5C641.2,1788.9,641.5,1788,641.6,1787z"/>
				<path opacity="0.3" fill="#081613" d="M752.5,1753.4c-1.3,4-3.1,7.8-5.5,11.2c4-1.9,8.7-1.7,13.1-1.5c-1.8,0-3.6,0-5.4,0
					c4.4,1.7,8.5,4.2,12.1,7.4c-2.1,0.3-4.2,0-6.1-0.9c4.7,3.1,8.5,7.6,10.8,12.8c-4.9-4.5-11.4-7.2-18-7.5c2,0.4,3.7,2,4.8,3.7
					c1.1,1.8,1.6,3.8,2.2,5.8c-3.2-4.5-7.7-8-12.7-10.3c1.7,0.9,3,2.4,3.6,4.2c-3.8-2.2-8.1-3.5-12.5-4.1c2.4-1.8,5-3.4,7.7-4.6
					c-2.3,0.2-4.5,0.3-6.8,0.5c0.6-0.7,1-1.5,1.3-2.3c-0.8,0.4-1.7,0.8-2.5,1.3c0.4-1.1,0.7-2.3,0.9-3.6c-1,0.7-1.9,1.5-2.9,2.2
					c2-5.2,1.8-11.2-0.5-16.2c3.6,2.9,5.8,7.4,5.7,12c0.4-3.3,0.8-6.6,1.2-9.8c-0.2,1.4,0.8,3.9,1.1,5.4c0.2,1.5,0,2.4,1.7,2.1
					C748.4,1760.6,751.3,1755.4,752.5,1753.4z"/>
				<path fill="#B1CEB6" d="M666.6,1845.6c-0.2,2.2-0.7,4.5-2.1,6.1c-1.2,1.4-2.8,2.3-4.4,3.1c-12.1,5.9-25.5,9.2-37.1,16.1
					c0.9-4.2,1.9-8.4,2.9-12.6c0.9-3.8,1.9-7.7,3.7-11.2c2.8-5.7,7.5-10.5,13.2-13.3c4.7-2.3,13.1-4.8,18.3-2.5
					C665.8,1833.3,667,1841.2,666.6,1845.6z"/>
				<path fill="#B1CEB6" d="M612.8,1828c-0.2,2.2-0.7,4.5-2.1,6.1c-1.2,1.4-2.8,2.3-4.4,3.1c-12.1,5.9-25.5,9.2-37.1,16.1
					c0.9-4.2,1.9-8.4,2.9-12.6c0.9-3.8,1.9-7.7,3.7-11.2c2.8-5.7,7.5-10.5,13.2-13.3c4.7-2.3,13.1-4.8,18.3-2.5
					C611.9,1815.6,613.1,1823.6,612.8,1828z"/>
				<path fill="#FFFBE9" d="M658.2,1838c-0.8,0.9-1.9,1.3-3.1,1.7c-3,1-6.2,1.6-9.2,2.6c-3,1-6,2.4-8.2,4.8
					c-0.2,0.3-0.5,0.6-0.9,0.5c-0.4,0-0.6-0.5-0.7-0.9c-0.3-1.9,1-3.7,2.3-5.1c3.7-3.8,8.3-6.7,13.3-8.4c1.7-0.6,3.8-1.5,5.5-0.5
					C659.2,1833.8,659.7,1836.4,658.2,1838z"/>
				<path fill="#FFFBE9" d="M604,1816.5c0.1,1-0.5,1.9-1.3,2.4c-0.8,0.5-1.8,0.7-2.8,0.9c-6,1.1-12.4,2.4-16.9,6.5
					c-1,0.9-2,2-3.2,2.5c-0.1-2,1.1-3.8,2.6-5.2c1.6-1.5,3.5-2.6,5.4-3.7c3-1.7,6.1-3.4,9.1-5.2
					C598.8,1813.7,603.4,1813.1,604,1816.5z"/>
				<path fill="#FFFBE9" d="M577.3,1788.2c0.5,0.6,0.7,1.5,0.3,2.2c-0.4,0.6-1.1,0.9-1.8,1.1c-1.2,0.4-2.4,0.8-3.6,1.1
					c-1.3,0.4-2.7,0.8-3.9,1.5c-2.4,1.2-4.3,3.3-5.4,5.8c-0.2,0.6-0.4,1.2-0.9,1.5c-0.5,0.4-1.3,0.4-1.6-0.1
					c-0.1-0.2-0.1-0.5-0.1-0.7c0-0.8,0.3-1.6,0.5-2.3c1.8-5,5.9-9.1,10.9-11.1C573.9,1786.5,575.7,1786.3,577.3,1788.2z"/>
			</g>
			<g>
				<path fill="#B1CEB6" d="M832.9,1869.2c0.3,2.2,0.2,4.5-0.8,6.5c-0.8,1.6-2.3,2.8-3.7,3.9c-10.6,8.3-23,14.3-32.9,23.5
					c0-4.3,0.1-8.6,0.2-12.9c0.1-4,0.3-7.9,1.2-11.8c1.5-6.2,5.2-11.8,10.2-15.8c4.1-3.3,11.8-7.4,17.3-6.3
					C829.5,1857.3,832.3,1864.9,832.9,1869.2z"/>
				<g>
					<path fill="#12442F" d="M1026.1,1853.2c0,0-0.1,0-0.1,0c-2.1,1-4.2,2-6.3,2.9L1026.1,1853.2z"/>
					<path fill="#12442F" d="M1085.8,1775.9c-3.2-12.6-13.2-23.4-26.5-27.2c-7.3-2.1-15.2-2.1-22.9-1.4c-1.3,0.1-2.6,0.3-4,0.4
						c-0.3,6.7-0.6,13.3-0.9,19.6c-2.8,53.2-3.9,58.1-19.2,74.8c-16.8,1.3-33.7,4.7-50.6,7.4c-20,3.1-40.5,5.1-58.9,1.1
						c-3-0.7-6.1-1.6-8.9-2.8c4-23.6,21.1-47.7,31-60.1c-11.6,7.7-22.2,16.5-31.3,26.7c-6.1,6.8-11.7,15.2-10.6,23.6
						c1.4,10.1,12,16.4,22.4,19.4c19,5.5,39.8,4.2,60,1.7c20.2-2.5,40.4-6.4,60.5-5.9c11.4-5.4,22.2-11.9,32.1-19.5
						c7.5-5.7,14.5-12.1,19.7-19.6C1085.6,1802.6,1089,1788.5,1085.8,1775.9z"/>
				</g>
				<g>
					<path fill="#17563E" d="M962.1,1849.4c3.7-0.6,7.3-1.2,11-1.8C969.4,1848.2,965.7,1848.8,962.1,1849.4z"/>
					<path fill="#17563E" d="M1021.7,1841.5c0,0-0.1,0-0.1,0c-2.1,1-4.2,2-6.3,2.9L1021.7,1841.5z"/>
					<path fill="#17563E" d="M1083.8,1770.5c-2.6-11-12-20.2-24.9-23c-7.1-1.5-14.5-2-22.2-1.1c-1.4,0.2-2.8,0.4-4.3,0.5
						c-0.3,6.9-0.6,13.7-1,20.2c-2.8,53.2-3.9,58.1-19.2,74.8c3.1-0.2,6.1-0.4,9.2-0.5c11.4-5.3,22.3-11.5,32.4-18.7
						c7.6-5.4,14.8-11.3,20.3-18.2C1082.4,1794.2,1086.4,1781.5,1083.8,1770.5z"/>
				</g>
				<path fill="#1D684D" d="M990.3,1798.9c-6.3-4.5-13.7-7.4-21.2-9.5c-35.7-9.8-75.9-1.3-104.6,22.1c-7.1,5.8-13.5,12.5-19.5,19.5
					c-5.9,6.9-11.4,14.1-15.4,22.2c-3.4,6.8-5.6,14.3-6.6,21.8c-1,7.5-0.6,15.6,3.7,21.8c3.2,4.7,8.3,7.8,13.7,9.8
					c9.4,3.5,19.6,3.8,29.6,3.1c32.2-2.1,62.7-13.6,91.3-27.8c14.7-7.3,29-15.3,43.2-23.5c9.2-5.2,16.8-10.4,13.3-21.9
					C1013.8,1822.5,1002,1807.2,990.3,1798.9z"/>
				<path fill="#1D684D" d="M966.4,1781.6c-0.3-4.1-7.2-5.4-8.9-1.7c-1.7-1.8-3.3-3.6-5-5.4c-1.4,1.8-2.9,3.7-4.3,5.5
					c-1.3-2-2.6-4.1-3.9-6.1c-1.7,0.9-2.5,2.9-3.6,4.6c-1,1.7-3,3.2-4.8,2.5c-0.8-0.3-1.4-1.1-2-1.8c-6.5-7.8-15.8-13.3-25.7-15.2
					c5.2,5.1,8.4,12.3,8.6,19.6c-2.8-2.3-5.6-4.6-8.3-6.9c0.3,1.9,0.6,3.9,0.8,5.8c-2.7-2.1-5.8-3.6-9.1-4.3
					c0.2,1.8,0.4,3.5,0.5,5.3c-1-0.4-2-0.9-2.9-1.3c0.3,1.4,0.7,2.8,1,4.2c-4.3-2.3-9.5-2.6-14-0.9c2.6,1.1,4.7,3.4,5.6,6.1
					c-9-1.4-18.5,0.2-26.6,4.3c3.5-0.8,7.5,1.8,8.2,5.4c-4.4,0.3-8.7,1.3-12.9,2.8c0.6,1.1,1.8,1.8,3,1.9c-3.4,2.3-6.8,4.5-10.2,6.8
					c-0.7,0.5-1.6,1.2-1.5,2c0,0.9,1.7,1.2,1.7,0.3c-1.8,1.1-3.6,2.2-5.4,3.3c-1.6,3.2-4.6,5.8-8,6.8c1.2,0.8,2.5,1.5,3.7,2.3
					c-10,2.6-19.2,8-26.3,15.5c3.6-1.1,7.3-1.6,11-1.5c-4.8,3.6-9.5,7.2-14.3,10.8c2.9,0.4,5.8,0.8,8.7,1.1
					c-1.7,1.1-3.4,2.2-5.1,3.3c1-0.7,2.3,0.7,2,1.9c-0.3,1.2-1.4,1.9-2.4,2.5c1.6,0.5,3.1,0.9,4.7,1.4c-1,2.8-2.6,5.4-4.6,7.6
					c1.8,0.5,3.7,0.9,5.5,1.4c-3.3,1.2-6.1,3.5-8,6.5c1.8,0.4,3.6,0.9,5.4,1.3c-1.1,1.8-2.2,3.6-3.4,5.4c1.1,0.2,2.2,0.5,3.3,0.7
					c-3.3,2.9-6.1,6.4-8.1,10.3c4.5-1,9.2-1.1,13.8-0.2c-0.1,2.9-0.6,5.8-1.4,8.6c1.7-1.2,3.5-2.3,5.2-3.5c-0.8,2.3-1.6,4.5-2.5,6.8
					c1.3-1.1,2.6-2.1,3.9-3.2c-0.6,2.1-1.3,4.1-1.9,6.2c1.5-0.7,3.1-1.4,4.6-2.1c-0.3,1.7-0.7,3.3-1,5c2.9-1.9,6.4-2.9,9.8-2.6
					c-0.4,2.2-0.7,4.3-1.1,6.5c2.9-3,7.3-4.6,11.5-4.1c-0.5,1.4-1.1,2.7-1.6,4.1c3.3-1.1,6.6-2.2,10-3.3c0.2,2.1,0.5,4.2,0.7,6.4
					c0.9-3.2,6.3-3.8,7.8-0.8c5.9-5.9,16.6-6,22.6-0.1c-1.1-2.2-2.7-4.1-4.7-5.4c5.6-0.6,11.2-0.3,16.7,1.1c-2.1-1.5-4.2-3-6.3-4.5
					c7.9-1.6,16.1-1.8,24.1-0.6c-1.7-0.3-3.4-0.6-5.1-0.9c9-3.9,19.4-4.4,28.7-1.4c-2.1-2.6-4.2-5.2-6.3-7.7
					c5.6,0.9,11,2.8,15.8,5.6c-2.4-2.8-4.4-6-5.8-9.4c-0.3-0.9-0.7-1.8-0.3-2.7c0.5-1.4,2.5-1.6,3.8-0.9c1.3,0.7,2,2.1,2.7,3.4
					c0.1-1.8,0.3-3.5,0.4-5.3c2.3,1.5,4.6,2.9,6.9,4.4c0.8-1.7,1.1-3.6,0.7-5.4c2.1,1.6,4.6,2.6,7.3,2.9c0.4-1.5,0.8-3,1.3-4.5
					c1.3,1.9,3.2,3.4,5.4,4.2c0.7-4.3,0.2-8.8-1.5-12.8c4.3,3.3,7.8,7.7,10.1,12.5c1-6.1,0-12.4-2.9-17.9c5.2,1.7,10.5,3.5,15.7,5.2
					c-1.9-1.8-3.8-3.7-5.6-5.5c4.1-1.1,8.4-1.6,12.6-1.5c-1.7-1.5-3.4-3-5.1-4.5c2.9-1,5.8-2,8.7-2.9c8.2-4.6,18.6-5.2,27.2-1.5
					c-2.4-4.4-6.8-7.7-11.7-8.8c4-0.8,8.1-0.9,12.1-0.4c-2.8-0.5-5.5-1.9-7.5-4c3.5-2.4,7.4-4.2,11.5-5.3c-3.8,0.5-7.7,0.2-11.4-0.9
					c9.3-5.4,13.9-17.7,10.5-27.9c-1.3,7.1-7.7,13-14.9,13.7c1.2-2.6,2.4-5.3,3.6-7.9c-1.5,0.3-3,0.7-4.5,1
					c-0.1-1.6,0.5-3.2,1.5-4.5c-2.8-1.6-7.2,0.6-9.3-1.9c-1.4-1.7-0.5-4.2,0.6-6c2.3-3.5,5.8-6.2,9.8-7.5c-5.9,0-11.9,0.9-17.6,2.4
					c1.8-3.2,4.4-6,7.4-8c-4.8,1.1-9.7,2.1-14.5,3.2c0.9-6.4,0.8-12.9-0.1-19.2c-2.1,3.8-5.3,7.1-9.1,9.2c0.1-7.5-3.3-14.9-9.1-19.6
					c1.8,1.5-1.2,12.9-2.1,14.7c-0.8-1.2-1.9-3.6-3.3-4.3c-2.2-1-5.3,3.3-7.2-1.7C969.2,1780.3,967.8,1781,966.4,1781.6z"/>
				<g opacity="0.3">
					<path fill="#081613" d="M816.5,1874.8c-0.1,0.4-0.2,0.9-0.3,1.3c1.7-1.2,3.5-2.3,5.2-3.5c-0.8,2.2-1.6,4.5-2.5,6.7
						c-1.7-0.4-3.4-0.8-5.2-1.2C814.5,1876.9,815.4,1875.8,816.5,1874.8z"/>
					<path fill="#081613" d="M1021.6,1822.1c0.7-0.5,1.4-0.9,2.1-1.3c-0.2,0.7-0.3,1.4-0.3,2c1.5-0.3,3-0.7,4.5-1
						c-0.5,1.2-1.1,2.3-1.6,3.5C1024.6,1824.6,1022.9,1823.5,1021.6,1822.1z"/>
					<path opacity="0.3" fill="#081613" d="M819,1885.5c-1.1-0.2-2.2-0.5-3.3-0.7c1.1-1.8,2.2-3.6,3.4-5.4c-0.1,0-0.1,0-0.2,0
						c1.3-1.1,2.6-2.1,3.9-3.2c-0.6,2.1-1.3,4.1-1.9,6.2c1.5-0.7,3.1-1.4,4.6-2.1c-0.3,1.7-0.7,3.3-1,5c2.9-1.9,6.4-2.9,9.8-2.6
						c-0.4,2.2-0.7,4.3-1.1,6.5c2.9-3,7.3-4.6,11.5-4.1c-0.5,1.4-1.1,2.7-1.6,4.1c3.3-1.1,6.6-2.2,10-3.3c0.2,2.1,0.5,4.2,0.7,6.4
						c0.9-3.2,6.3-3.8,7.8-0.8c5.9-5.9,16.6-6,22.6-0.1c-1.1-2.2-2.7-4.1-4.7-5.4c5.6-0.6,11.2-0.3,16.7,1.1c-2.1-1.5-4.2-3-6.3-4.5
						c7.9-1.6,16.1-1.8,24.1-0.6c-1.7-0.3-3.4-0.6-5.1-0.9c9-3.9,19.4-4.4,28.7-1.4c-2.1-2.6-4.2-5.2-6.3-7.7
						c5.6,0.9,11,2.8,15.8,5.6c-2.4-2.8-4.4-6-5.8-9.4c-0.3-0.9-0.7-1.8-0.3-2.7c0.5-1.4,2.5-1.6,3.8-0.9c1.3,0.7,2,2.1,2.7,3.4
						c0.1-1.8,0.3-3.5,0.4-5.3c2.3,1.5,4.6,2.9,6.9,4.4c0.8-1.7,1.1-3.6,0.7-5.4c2.1,1.6,4.6,2.6,7.3,2.9c0.4-1.5,0.8-3,1.3-4.5
						c1.3,1.9,3.2,3.4,5.4,4.2c0.7-4.3,0.2-8.8-1.5-12.8c4.3,3.3,7.8,7.7,10.1,12.5c1-6.1,0-12.4-2.9-17.9
						c5.2,1.7,10.5,3.5,15.7,5.2c-1.9-1.8-3.8-3.7-5.6-5.5c4.1-1.1,8.4-1.6,12.6-1.5c-1.7-1.5-3.4-3-5.1-4.5c2.9-1,5.8-2,8.7-2.9
						c8.2-4.6,18.6-5.2,27.2-1.5c-2.4-4.4-6.8-7.7-11.7-8.8c3-0.6,6.1-0.8,9.1-0.7c-0.6,1.3-1.2,2.6-1.8,3.9
						c7.2-0.7,13.6-6.6,14.9-13.7c3.4,10.2-1.2,22.4-10.5,27.9c3.7,1.1,7.6,1.4,11.4,0.9c-4.1,1.2-8,3-11.5,5.3c2,2,4.7,3.4,7.5,4
						c-4-0.5-8.1-0.4-12.1,0.4c4.9,1.1,9.3,4.4,11.7,8.8c-8.7-3.6-19-3.1-27.2,1.5c-2.9,1-5.8,2-8.7,2.9c1.7,1.5,3.4,3,5.1,4.5
						c-4.2-0.1-8.5,0.4-12.6,1.5c1.9,1.8,3.8,3.7,5.6,5.5c-5.2-1.7-10.5-3.5-15.7-5.2c2.9,5.4,3.9,11.8,2.9,17.9
						c-2.4-4.9-5.9-9.2-10.1-12.5c1.7,4,2.2,8.5,1.5,12.8c-2.2-0.8-4.1-2.3-5.4-4.2c-0.4,1.5-0.8,3-1.3,4.5
						c-2.6-0.4-5.1-1.4-7.3-2.9c0.4,1.8,0.1,3.8-0.7,5.4c-2.3-1.5-4.6-2.9-6.9-4.4c-0.1,1.8-0.3,3.5-0.4,5.3
						c-0.7-1.3-1.4-2.7-2.7-3.4c-1.3-0.7-3.2-0.5-3.8,0.9c-0.3,0.9,0,1.8,0.3,2.7c1.4,3.4,3.3,6.6,5.8,9.4
						c-4.9-2.8-10.3-4.7-15.8-5.6c2.1,2.6,4.2,5.2,6.3,7.7c-9.3-3-19.7-2.5-28.7,1.4c1.7,0.3,3.4,0.6,5.1,0.9
						c-8-1.1-16.2-0.9-24.1,0.6c2.1,1.5,4.2,3,6.3,4.5c-5.4-1.4-11.1-1.8-16.7-1.1c2,1.3,3.7,3.2,4.7,5.4c-6-5.8-16.7-5.8-22.6,0.1
						c-1.5-3-6.9-2.5-7.8,0.8c-0.2-2.1-0.5-4.2-0.7-6.3c-3.3,1.1-6.6,2.2-10,3.3c0.5-1.4,1.1-2.7,1.6-4.1c-4.2-0.5-8.6,1.1-11.5,4.1
						c0.4-2.2,0.7-4.3,1.1-6.5c-3.5-0.2-7,0.7-9.8,2.6c0.3-1.7,0.7-3.3,1-5c-1.5,0.7-3.1,1.4-4.6,2.1c0.6-2.1,1.3-4.1,1.9-6.2
						c-1.3,1.1-2.6,2.1-3.9,3.2c0.8-2.3,1.6-4.5,2.5-6.8c-1.7,1.2-3.5,2.3-5.2,3.5c0.8-2.8,1.3-5.7,1.4-8.6
						c-4.5-0.8-9.3-0.7-13.8,0.2C812.9,1891.9,815.7,1888.4,819,1885.5z"/>
					<path fill="#081613" d="M817.3,1870.5c-0.4-0.1-0.7-0.2-1.1-0.3c0.5-0.5,0.9-1,1.3-1.6C817.4,1869.3,817.4,1869.9,817.3,1870.5
						z"/>
				</g>
				<path opacity="0.3" fill="#081613" d="M921.5,1798.7c-1.5-1.8-2.8-3.6-3.9-5.6c0.4,1.4,0.7,2.8,1.1,4.2
					c-1.2-1.1-2.3-2.3-3.5-3.4c0.4,1.3,0.8,2.5,1.3,3.8c-1-0.8-2.1-1.6-3.1-2.3c0.3,1.2,0.8,2.4,1.5,3.4c-2.5-1.9-5.1-3.7-8-4.8
					c-2.9-1.1-6.2-1.5-9.2-0.4c4.3,2.6,8,6.4,10.4,10.8c-4.8-4.4-12-6-18.3-4c5.7,1.5,10.9,4.6,15.1,8.7c-0.5-0.4-0.8-1.1-0.7-1.7
					c1.7,2.2,3.4,4.5,5.1,6.7c-0.3-1.6-0.5-3.2-0.5-4.8c0.3,0.3,0.5,0.6,0.8,0.9c0.3-1.4,0.6-2.7,0.9-4.1c0.7,0.3,1.3,0.8,1.7,1.5
					c0.8-1.1,0-3.2,1.3-3.7c0.8-0.3,1.6,0.3,2.1,0.9c3.7,4,6.4,8.8,7.9,14.1c-0.2-5.1-1.1-10.2-2.9-15.1c2.5,3,5.1,6.1,7.6,9.1
					c-0.5-3.8-0.9-7.5-1.4-11.3c1.7,0.5,2.9,1.9,4,3.3c-0.5-1.7-1.1-3.4-1.6-5.1c7.4,1,14.6,2.8,21.5,5.5
					c-5.5-4.1-12.3-6.3-19.1-6.3c4.7-4.2,11.1-5.8,17.2-7.2c-7.4-1.7-15.5-0.6-22.2,3.2c0.9-0.5,1.7-6.4,1.9-7.5
					c-0.9,1.7-1.7,5.7-3.8,6.2c-2.3,0.6-3.6-2.5-4.8-3.9C921.1,1792.6,921.7,1795.6,921.5,1798.7z"/>
				<path opacity="0.3" fill="#081613" d="M876.3,1848.8c-0.1-1-0.4-2.1-1.3-2.6c-0.9-0.5-2.3,0.1-2.2,1.1c-0.5-1.2-0.9-2.4-1.4-3.7
					c-1,0.6-1.9,1.5-2.6,2.5c-0.2-1.4-0.3-2.8-0.5-4.3c-0.1-0.5-0.1-1-0.5-1.4c-0.7-0.8-1.9-0.3-2.8,0.1c-4.7,2.5-9.1,5.7-12.9,9.5
					c0.8-5.9,3.5-11.6,7.7-15.9c-4.8-0.6-9.8-0.2-14.5,1.2c3.7-1.2,7.4-2.4,11.2-3.7c0.3-0.1,0.6-0.2,0.7-0.5
					c0.1-0.4-0.3-0.6-0.6-0.8c-2.2-1.2-4.4-2.5-6.6-3.7c2.8,1,5.5,1.9,8.3,2.9c-0.4-1-0.9-2.1-1.3-3.1c3.9,1.3,7.6,2.9,11.2,4.9
					c-0.8-0.7-1.6-1.3-2.5-2c0.4,0.1,0.9,0.2,1.3,0.3c-1.3-2.2-2.6-4.4-3.9-6.5c5.3,2,10.7,3.9,16.2,5.5c-1.4-2.7-3.5-5.1-6-6.9
					c2.3-0.2,4.4,0.8,6.4,1.8c5.3,2.5,10.6,5.1,16,7.6c-3.3-1.3-6.7-2.2-10.2-2.7c5,2.8,10,5.5,15,8.3c4.2,2.3,8.9,5.4,9.2,10.2
					c-3.8-2.5-7.7-4.7-11.8-6.6c2.1,2.7,4.1,5.4,6.2,8c-3.3-2-6.6-3.9-9.8-5.9c1.7,3.8,3.9,7.3,6.4,10.6c-5.4-5.9-11.9-12-19.9-12.4
					c4,2.8,6.9,7,8.2,11.7c-1.9-2-5.4-7.1-8.3-7.4c-3.3-0.3-4.1,4.1-4.2,6.5C876.3,1850.8,876.4,1849.8,876.3,1848.8z"/>
				<path opacity="0.3" fill="#081613" d="M977.7,1792.8c-0.4,4.2-1.4,8.3-3.1,12.1c3.5-2.7,8.1-3.5,12.5-4.2
					c-1.8,0.4-3.5,0.7-5.3,1.1c4.7,0.7,9.2,2.3,13.4,4.7c-2,0.7-4.1,0.9-6.1,0.4c5.3,2.1,9.9,5.7,13.3,10.2
					c-5.7-3.3-12.6-4.6-19.2-3.6c2.1,0,4,1.1,5.4,2.7c1.4,1.5,2.4,3.4,3.4,5.2c-4.1-3.7-9.2-6.3-14.6-7.4c1.8,0.5,3.4,1.7,4.4,3.3
					c-4.2-1.3-8.7-1.8-13.1-1.4c1.9-2.3,4.2-4.4,6.6-6.2c-2.2,0.6-4.4,1.3-6.5,1.9c0.5-0.8,0.7-1.7,0.7-2.6
					c-0.7,0.6-1.4,1.2-2.2,1.8c0.2-1.2,0.2-2.4,0.1-3.7c-0.8,0.9-1.6,1.9-2.3,2.8c0.9-5.5-0.6-11.3-3.9-15.7c4.1,2,7.2,6,8.1,10.5
					c-0.3-3.3-0.6-6.6-0.9-9.9c0.1,1.4,1.6,3.7,2.2,5.1c0.5,1.4,0.5,2.4,2.1,1.6C975.2,1800.6,976.9,1794.9,977.7,1792.8z"/>
				<path fill="#B1CEB6" d="M913,1900.9c0.3,2.2,0.2,4.5-0.8,6.5c-0.8,1.6-2.3,2.8-3.7,3.9c-10.6,8.3-23,14.3-32.9,23.5
					c0-4.3,0.1-8.6,0.2-12.9c0.1-4,0.3-7.9,1.2-11.8c1.5-6.2,5.2-11.8,10.2-15.8c4.1-3.3,11.8-7.4,17.3-6.3
					C909.6,1889,912.4,1896.5,913,1900.9z"/>
				<path fill="#B1CEB6" d="M856.7,1894.9c0.3,2.2,0.2,4.5-0.8,6.5c-0.8,1.6-2.3,2.8-3.7,3.9c-10.6,8.3-23,14.3-32.9,23.5
					c0-4.3,0.1-8.6,0.2-12.9c0.1-4,0.3-7.9,1.2-11.8c1.5-6.2,5.2-11.8,10.2-15.8c4.1-3.3,11.8-7.4,17.3-6.3
					C853.3,1883,856.1,1890.6,856.7,1894.9z"/>
				<path fill="#FFFBE9" d="M903.2,1895.2c-0.6,1-1.6,1.7-2.6,2.3c-2.7,1.7-5.7,2.9-8.5,4.5c-2.8,1.6-5.4,3.6-7,6.4
					c-0.2,0.3-0.4,0.6-0.7,0.7c-0.4,0.1-0.7-0.3-0.9-0.7c-0.7-1.8,0.2-3.8,1.2-5.5c2.8-4.5,6.7-8.2,11.2-11c1.5-0.9,3.4-2.3,5.3-1.7
					C903.3,1890.9,904.3,1893.4,903.2,1895.2z"/>
				<path fill="#FFFBE9" d="M845.7,1885.6c0.3,0.9-0.1,2-0.8,2.7c-0.7,0.7-1.6,1.1-2.6,1.4c-5.7,2.3-11.6,4.9-15.2,9.9
					c-0.8,1.1-1.5,2.4-2.6,3.2c-0.5-1.9,0.3-4,1.5-5.6c1.3-1.8,2.9-3.3,4.6-4.7c2.6-2.3,5.2-4.6,7.8-7
					C840,1884,844.4,1882.3,845.7,1885.6z"/>
				<path fill="#FFFBE9" d="M813.6,1863.5c0.6,0.5,1,1.3,0.8,2.1c-0.2,0.7-0.9,1.1-1.5,1.5c-1.1,0.6-2.2,1.2-3.3,1.9
					c-1.2,0.7-2.4,1.4-3.5,2.3c-2.1,1.7-3.5,4.2-4,6.8c-0.1,0.6-0.2,1.2-0.6,1.7c-0.4,0.5-1.2,0.7-1.6,0.2c-0.2-0.2-0.2-0.4-0.3-0.7
					c-0.1-0.8-0.1-1.6,0-2.4c0.8-5.3,3.9-10.2,8.3-13.1C810,1862.5,811.7,1862,813.6,1863.5z"/>
			</g>
		</g>
		<g>
			<polygon opacity="0.3" fill="#081613" points="511.7,1371.4 511.7,1529.9 777.6,1588.9 774.9,1431.6 			"/>
			<polygon opacity="0.3" fill="#081613" points="502,1359.4 502,1533.4 786.9,1598.2 784,1425.5 			"/>
			<polygon opacity="0.3" fill="#081613" points="513.4,1355.4 502,1359.4 502,1533.4 786.9,1598.2 793.4,1590.4 790.5,1421 			"/>
			<g>
				<g>
					<g>
						<polygon fill-rule="evenodd" clip-rule="evenodd" fill="#1D684D" points="643.5,1494.9 658.6,1498 658.1,1514.8 643,1511.6 
							643.5,1494.9 						"/>
						<polygon fill-rule="evenodd" clip-rule="evenodd" fill="#FA5119" points="673.7,1501 658.6,1498 658.1,1514.8 673.3,1518 
							673.7,1501 						"/>
						<polygon fill-rule="evenodd" clip-rule="evenodd" fill="#FFFFFF" points="703.9,1507.2 688.8,1504.1 688.4,1521.2 
							703.6,1524.5 703.9,1507.2 						"/>
						<polygon fill-rule="evenodd" clip-rule="evenodd" fill="#6BBDFF" points="673.7,1501 688.8,1504.1 688.4,1521.2 673.3,1518 
							673.7,1501 						"/>
						<polygon fill-rule="evenodd" clip-rule="evenodd" fill="#FA5119" points="703.9,1507.2 719,1510.3 718.7,1527.7 703.6,1524.5 
							703.9,1507.2 						"/>
						<polygon fill-rule="evenodd" clip-rule="evenodd" fill="#6BBDFF" points="734.1,1513.3 719,1510.3 718.7,1527.7 733.8,1530.9 
							734.1,1513.3 						"/>
						<polygon fill-rule="evenodd" clip-rule="evenodd" fill="#1D684D" points="734.1,1513.3 749.2,1516.4 749,1534.2 733.8,1530.9 
							734.1,1513.3 						"/>
						<polygon fill-rule="evenodd" clip-rule="evenodd" fill="#FA5119" points="642.5,1528.3 657.7,1531.6 658.1,1514.8 643,1511.6 
							642.5,1528.3 						"/>
						<polygon fill-rule="evenodd" clip-rule="evenodd" fill="#FFE578" points="672.9,1535 657.7,1531.6 658.1,1514.8 673.3,1518 
							672.9,1535 						"/>
						<polygon fill-rule="evenodd" clip-rule="evenodd" fill="#FFE578" points="703.2,1541.7 688.1,1538.4 688.4,1521.2 
							703.6,1524.5 703.2,1541.7 						"/>
						<polygon fill-rule="evenodd" clip-rule="evenodd" fill="#FFFFFF" points="672.9,1535 688.1,1538.4 688.4,1521.2 673.3,1518 
							672.9,1535 						"/>
						<polygon fill-rule="evenodd" clip-rule="evenodd" fill="#1D684D" points="703.2,1541.7 718.4,1545.1 718.7,1527.7 
							703.6,1524.5 703.2,1541.7 						"/>
						<polygon fill-rule="evenodd" clip-rule="evenodd" fill="#FFFFFF" points="733.6,1548.5 718.4,1545.1 718.7,1527.7 
							733.8,1530.9 733.6,1548.5 						"/>
						<polygon fill-rule="evenodd" clip-rule="evenodd" fill="#FA5119" points="733.6,1548.5 748.8,1551.9 749,1534.2 733.8,1530.9 
							733.6,1548.5 						"/>
						<polygon fill-rule="evenodd" clip-rule="evenodd" fill="#FFE578" points="642.5,1528.3 657.7,1531.6 657.3,1548.5 642,1545 
							642.5,1528.3 						"/>
						<polygon fill-rule="evenodd" clip-rule="evenodd" fill="#6BBDFF" points="672.9,1535 657.7,1531.6 657.3,1548.5 672.5,1552 
							672.9,1535 						"/>
						<polygon fill-rule="evenodd" clip-rule="evenodd" fill="#FFFFFF" points="703.2,1541.7 688.1,1538.4 687.7,1555.5 702.9,1559 
							703.2,1541.7 						"/>
						<polygon fill-rule="evenodd" clip-rule="evenodd" fill="#1D684D" points="672.9,1535 688.1,1538.4 687.7,1555.5 672.5,1552 
							672.9,1535 						"/>
						<polygon fill-rule="evenodd" clip-rule="evenodd" fill="#FA5119" points="703.2,1541.7 718.4,1545.1 718.1,1562.5 702.9,1559 
							703.2,1541.7 						"/>
						<polygon fill-rule="evenodd" clip-rule="evenodd" fill="#6BBDFF" points="733.6,1548.5 718.4,1545.1 718.1,1562.5 
							733.3,1566.1 733.6,1548.5 						"/>
						<polygon fill-rule="evenodd" clip-rule="evenodd" fill="#FFE578" points="733.6,1548.5 748.8,1551.9 748.6,1569.6 
							733.3,1566.1 733.6,1548.5 						"/>
					</g>
					<path fill-rule="evenodd" clip-rule="evenodd" fill="#1D684D" d="M566.7,1513.6c3.2,0.7,5.6,4,5.5,7.3c-0.1,3.3-2.8,5.4-6,4.7
						c-3.2-0.7-5.6-4-5.5-7.3C560.8,1515,563.5,1512.9,566.7,1513.6L566.7,1513.6z"/>
					<path fill-rule="evenodd" clip-rule="evenodd" fill="#6BBDFF" d="M587,1518.1c3.2,0.7,5.6,4,5.5,7.4c-0.1,3.4-2.8,5.5-6,4.8
						c-3.2-0.7-5.6-4-5.5-7.4C581.2,1519.5,583.8,1517.4,587,1518.1L587,1518.1z"/>
					<path fill-rule="evenodd" clip-rule="evenodd" fill="#1D684D" d="M607.1,1522.5c3.2,0.7,5.6,4,5.5,7.4
						c-0.1,3.4-2.8,5.6-5.9,4.9c-3.2-0.7-5.6-4.1-5.5-7.4C601.3,1524,604,1521.8,607.1,1522.5L607.1,1522.5z"/>
					<path fill-rule="evenodd" clip-rule="evenodd" fill="#6BBDFF" d="M627.5,1527c3.2,0.7,5.6,4.1,5.5,7.5
						c-0.1,3.5-2.8,5.7-5.9,4.9c-3.2-0.7-5.6-4.1-5.5-7.5C621.7,1528.5,624.3,1526.3,627.5,1527L627.5,1527z"/>
					<g>
						<path fill-rule="evenodd" clip-rule="evenodd" fill="#FFE578" d="M600.7,1404.3c26.5,4.1,49.4,23.4,61.9,49.3l-27.3,34.4
							l-74.7-14.8l-24.5-41.9C550.2,1411.4,574.2,1400.2,600.7,1404.3L600.7,1404.3z"/>
						<polygon fill-rule="evenodd" clip-rule="evenodd" fill="#FA5119" points="562.4,1478.6 582.7,1482.7 581.8,1504.3 561.5,1500 
							562.4,1478.6 						"/>
						<polygon fill-rule="evenodd" clip-rule="evenodd" fill="#FA5119" points="614.2,1489 634.5,1493.1 633.8,1515.4 613.5,1511.1 
							614.2,1489 						"/>
						<polygon fill-rule="evenodd" clip-rule="evenodd" fill="#1D684D" points="588.8,1483.9 609.1,1488 608.3,1509.9 587.9,1505.6 
							588.8,1483.9 						"/>
						<g>
							<path fill="#2B2045" d="M561.7,1444.9c-0.6-0.1-1.2-0.5-1.6-1l-9.3-12.4c-0.8-1.1-0.7-2.6,0.2-3.4c0.9-0.8,2.4-0.5,3.2,0.6
								l9.3,12.5c0.8,1.1,0.7,2.6-0.2,3.4C562.9,1444.9,562.3,1445,561.7,1444.9z"/>
						</g>
						<g>
							<path fill="#2B2045" d="M580.4,1436.3c-0.8-0.1-1.5-0.7-1.9-1.5l-7.8-16.5c-0.6-1.3-0.2-2.7,0.9-3.2c1.1-0.5,2.5,0.1,3.1,1.3
								l7.8,16.5c0.6,1.3,0.2,2.7-0.9,3.2C581.3,1436.3,580.8,1436.3,580.4,1436.3z"/>
						</g>
						<g>
							<path fill="#2B2045" d="M598.7,1434.7c-1.2-0.2-2.2-1.4-2.2-2.8l0.2-16.6c0-1.4,1-2.3,2.3-2.2c1.3,0.2,2.2,1.4,2.2,2.8
								l-0.2,16.6C601,1434,600,1434.9,598.7,1434.7C598.7,1434.7,598.7,1434.7,598.7,1434.7z"/>
						</g>
						<g>
							<path fill="#2B2045" d="M619.4,1441.4c-0.3-0.1-0.7-0.2-1-0.5c-1.1-0.8-1.5-2.4-0.9-3.5l7.8-14.5c0.6-1.1,2-1.4,3.1-0.6
								c1.1,0.8,1.5,2.4,0.9,3.5l-7.8,14.5C621,1441.2,620.2,1441.6,619.4,1441.4z"/>
						</g>
						<g>
							<path fill="#2B2045" d="M634.3,1454.1c-0.4-0.1-0.9-0.3-1.3-0.7c-1-1-1.2-2.6-0.5-3.6l8.9-12.1c0.7-1,2.2-1.1,3.2-0.1
								c1,1,1.2,2.6,0.5,3.6l-8.9,12.1C635.7,1454,635,1454.2,634.3,1454.1z"/>
						</g>
						<polygon fill-rule="evenodd" clip-rule="evenodd" fill="#FA5119" points="599.3,1480.9 595.9,1480.3 587.5,1446 596.6,1445.3 
							599.3,1480.9 						"/>
					</g>
				</g>
			</g>
			<polygon opacity="0.3" fill="#081613" points="519.9,1524.4 777.5,1581.6 777.6,1588.9 511.7,1529.9 511.7,1371.4 520.8,1373.5 
							"/>
			<polygon opacity="0.22" fill="#6BBDFF" points="520.8,1373.5 519.9,1524.4 777.5,1581.6 774.9,1431.6 			"/>
			<polygon opacity="0.25" fill="#F6F5FD" points="642,1401.2 573.6,1536.3 640.3,1551.1 712.2,1417.3 			"/>
			<polygon opacity="0.25" fill="#F6F5FD" points="741.5,1423.9 667.2,1557.1 714,1567.5 775.3,1452.8 774.9,1431.6 			"/>
		</g>
		<g>
			<path opacity="0.3" fill="#081613" d="M1612.9,609.2c-15.5-41.9-37.8-80.4-65.7-114c-7.9-9.6-16.3-18.8-25.1-27.6
				c-4.4-4.4-8.9-8.7-13.5-12.9c-27.7-25.1-58.9-46.2-93-62.4c-6-2.8-11.9-5.6-17.7-8.3c-34.5-16.1-65.3-29.7-81.3-36.6
				c-1.6-0.7-3.1-1.3-4.4-1.9c-1.3-0.6-2.4-1-3.4-1.5c-2.4-1-3.7-1.6-3.7-1.6s0.9-4.3,1.8-11.6c0.4-3.3,0.8-7.2,1.1-11.7
				c0.2-2.6,0.3-5.5,0.4-8.4c0.1-2,0.1-4,0.1-6.1c0.1-7.6-0.3-15.9-1.3-24.6c-0.2-2-0.5-4-0.8-6c-3.3-22.1-11-46-27.5-65.5
				c-0.1-0.2-0.3-0.3-0.4-0.5c-14.7-17.2-36.2-31.1-67.4-37.4c-2.9-0.6-5.8-1.1-8.6-1.6c-0.3-0.1-0.6-0.1-0.9-0.1
				c-143.4-23.1-147,117.7-147,117.7c-17.5-5.3-54.4-10.4-88.7-14.4c-9.1-1.1-18.1-2-26.5-2.9c-27.1-2.8-47.9-4.6-47.9-4.6
				s6.6-83.6-58-115.3c-19.8-9.7-46.2-14.6-81.6-10.7c-3.7,0.4-7.2,0.9-10.7,1.5c-0.3,0.1-0.6,0.1-0.9,0.2c-3.4,0.6-6.6,1.3-9.7,2.1
				c-0.3,0.1-0.6,0.2-0.9,0.2c-3.2,0.8-6.2,1.7-9.2,2.7c-0.2,0.1-0.3,0.1-0.5,0.2c-7.1,2.5-13.6,5.4-19.5,8.8c0,0,0,0,0,0
				c0,0,0,0,0,0c-31.1,17.8-46.1,47.2-52.8,76c0,0,0,0,0,0c-1.5,6.6-2.7,13.2-3.4,19.6c0,0.1,0,0.1,0,0.2
				c-0.8,6.3-1.2,12.5-1.4,18.3c0,0.1,0,0.2,0,0.4c-0.1,1.9-0.1,3.7-0.1,5.5c0,0.1,0,0.2,0,0.3c0,3.6,0,7,0.1,10.3
				c0,0.2,0,0.4,0,0.5c0.1,1.5,0.1,3,0.2,4.5c0,0.2,0,0.4,0,0.5c0.1,1.5,0.2,2.9,0.3,4.2c0,0,0,0,0,0c0.1,1.3,0.2,2.6,0.3,3.8
				c0,0.2,0,0.4,0.1,0.6c0.1,1.1,0.2,2.2,0.3,3.2c0,0.2,0.1,0.5,0.1,0.7c0.1,1,0.2,1.9,0.3,2.8c0,0.1,0,0.3,0.1,0.4
				c0.1,0.8,0.2,1.5,0.3,2.1c0,0.2,0.1,0.4,0.1,0.6c0.1,0.7,0.2,1.3,0.3,1.8c0,0.2,0.1,0.4,0.1,0.5c0.1,0.5,0.2,1,0.2,1.4
				c0,0.1,0,0.2,0,0.3c0.1,0.3,0.1,0.6,0.1,0.8c0,0.1,0,0.2,0,0.2c0,0.2,0.1,0.4,0.1,0.4h0l0,0c0,0,0,0.1,0,0.1
				c-3.5,1.6-6.9,3.2-10.3,4.8l0,0c0,0,0,0,0,0c-1.1,0.5-2.1,1-3.2,1.5c0,0,0,0,0,0l0,0c-70.6,33.8-126.4,74.6-170.3,119.9
				c0,0,0,0-0.1,0.1C267.3,642,309.1,929,342.8,1061.8c0,0,0,0,0,0c2.1,8.4,4.3,16.3,6.3,23.4c0,0.1,0,0.1,0,0.2
				c0.7,2.4,1.3,4.6,2,6.8c0,0,0,0,0,0.1c1.3,4.4,2.5,8.6,3.7,12.4c0,0,0,0,0,0c0.6,1.9,1.1,3.6,1.7,5.3c0,0.1,0.1,0.2,0.1,0.3
				c0.5,1.7,1,3.2,1.5,4.7c0,0.1,0,0.1,0,0.2c1,3,1.9,5.7,2.7,8c0,0.1,0.1,0.2,0.1,0.3c0.4,1.1,0.7,2.1,1,3c0,0.1,0.1,0.2,0.1,0.3
				c0.7,1.9,1.2,3.5,1.7,4.6c0,0,0,0.1,0,0.1c0.2,0.5,0.4,1,0.5,1.4c0,0.1,0.1,0.2,0.1,0.3c0.1,0.3,0.2,0.6,0.3,0.8
				c0,0.1,0,0.1,0,0.1c0,0.1,0.1,0.2,0.1,0.2c1.6,1.6,3.3,3.1,5,4.7c0.5,0.4,1,0.8,1.4,1.3c1.3,1.1,2.6,2.3,4,3.4
				c0.5,0.4,1,0.8,1.5,1.2c1.5,1.2,3.1,2.4,4.7,3.6c0.3,0.2,0.6,0.5,1,0.7c74.1,55.2,220.9,84,298.9,96.1c-0.3,0.1-0.6,0.2-0.8,0.3
				c-0.3,0.1-0.6,0.2-0.9,0.3c-1.9,0.6-3.7,1.3-5.4,2.1c-0.2,0.1-0.3,0.2-0.5,0.2c-1.8,0.8-3.6,1.7-5.2,2.6c-0.1,0-0.1,0.1-0.2,0.1
				c-1.7,1-3.4,2-5,3.1c0,0,0,0,0,0c-39.2,27.1-28.5,87.6-1,98.9c1.2,0.5,3.3-1.4,5.8-4.8c0-0.1,0.1-0.1,0.1-0.2
				c0.5-0.6,0.9-1.3,1.4-2c0-0.1,0.1-0.1,0.1-0.2c0.5-0.7,1-1.5,1.6-2.4c0,0,0.1-0.1,0.1-0.1c9.2-14.3,22.6-41.7,32.8-63.4
				c0,0,0,0,0,0c0.6-1.3,1.3-2.7,1.9-4c0,0,0-0.1,0-0.1c3.5-7.6,6.6-14.2,8.8-19.1c0.1-0.3,0.3-0.6,0.4-0.8c0.2-0.4,0.4-0.9,0.6-1.3
				c0.2-0.5,0.4-0.9,0.6-1.4c0-0.1,0.1-0.1,0.1-0.2c3.1,1.1,6.4,1.6,9.2,1.7c-0.4,1.8-0.7,3.5-1,5.2c-0.2,0.9-0.3,1.8-0.5,2.7
				c-0.6,3.3-1.1,6.5-1.6,9.7c0,0.1,0,0.3-0.1,0.4c-0.5,3.2-0.8,6.4-1.1,9.4c-0.1,0.7-0.1,1.5-0.2,2.2c-0.2,2.8-0.4,5.5-0.6,8.2
				c0,0.2,0,0.4,0,0.6c-0.1,2.8-0.2,5.5-0.1,8.1c0,0.6,0,1.2,0,1.8c0,2.4,0.1,4.7,0.3,6.9c0,0.2,0,0.4,0,0.6
				c0.2,2.4,0.4,4.7,0.7,6.9c0.1,0.5,0.1,1,0.2,1.5c0.3,1.9,0.6,3.8,1,5.6c0,0.2,0.1,0.5,0.1,0.7c0.4,2,0.9,3.9,1.4,5.7
				c0.1,0.4,0.2,0.8,0.4,1.2c0.5,1.6,1,3.1,1.5,4.5c0.1,0.2,0.2,0.5,0.3,0.7c0.6,1.6,1.3,3.1,2,4.6c0.2,0.4,0.3,0.7,0.5,1.1
				c0.6,1.2,1.2,2.4,1.9,3.5c0.2,0.3,0.3,0.5,0.5,0.8c0.8,1.3,1.5,2.5,2.4,3.6c0.2,0.3,0.5,0.6,0.7,1c0.6,0.9,1.3,1.7,2,2.5
				c0.2,0.3,0.5,0.6,0.7,0.9c0.8,0.9,1.7,1.8,2.5,2.7c0.3,0.3,0.7,0.6,1,0.9c0.6,0.6,1.2,1.1,1.9,1.6c0.4,0.3,0.7,0.6,1.1,0.9
				c0.8,0.7,1.7,1.3,2.5,1.9c0.5,0.3,0.9,0.6,1.4,0.9c0.5,0.3,1,0.6,1.5,0.9c0.5,0.3,1,0.6,1.5,0.9c0.5,0.3,1,0.5,1.6,0.8
				c0.9,0.4,1.7,0.8,2.6,1.2c0.3,0.1,0.6,0.2,0.8,0.4c13.8,5.7,26.5,4.2,26.5,4.2c6.1-58.8-8-91.3-21.8-108.6
				c4.3,1.7,8.6,3.4,12.9,5.1c0,0,0,0,0,0l0,0c220,83.5,421.6,37.5,421.6,37.5l480.1-271.9c1.9-8.4,3.4-17,4.7-25.6
				c0.6-4.3,1.2-8.7,1.7-13.1c0.5-4.7,1-9.4,1.4-14.2c0.7-8.6,1.1-17.3,1.4-26.1c0.1-4.6,0.2-9.1,0.2-13.7
				C1683.7,826.9,1647,701.2,1612.9,609.2z M1059.3,1241.5c-78,41.9-182.9,17.3-273.2-6.7c-10.6-2.8-20.9-5.6-31-8.3
				c-1.5-0.4-3.1-0.8-4.6-1.2c-0.3-0.7-0.5-1.4-0.9-1.9c-4.3-7.5-13.5-3.5-15.8-2.4c-0.2-0.1-0.4-0.1-0.6-0.2
				c-0.6-2.1-4.5-11.7-23-8.8c-3.5,0.5-5.8,2.4-7.1,5c-10.7-1.4-24.1-3.5-39.2-6.4c0,0,0,0,0,0c-73.4-14.4-192.6-51.9-210.6-136.7
				c-27.2-128.3-32.9-318.1,44.1-371c112.7-77.4,513.4,56.7,562.2,104.5C1107.3,853.9,1154.4,1190.3,1059.3,1241.5z"/>
			<g>
				<path fill="#1D684D" d="M1412.7,389.9c-58.1-27.2-111.6-49.4-111.6-49.4s32-145-94.8-170.2c-154.5-30.7-158.2,114.9-158.2,114.9
					c-37.8-11.2-164.8-21.7-164.8-21.7s11.4-141.2-141-124.7C603.2,153.8,634.9,313,634.9,313c-514.2,228.4-284.1,811.7-284.1,811.7
					c91,88.1,372.1,116.8,372.1,116.8c237.4,104.8,466.4,53.5,466.4,53.5l485.2-269.3c30.2-133.2-18.3-304.5-62.4-421.1
					C1576.3,509.8,1504.5,432.8,1412.7,389.9z M1052.6,1230.8c-96.1,50.6-232.8,3.3-333.5-21.5c0,0-243.3-15.7-270.8-142.7
					c-27.5-127.1-30.1-317.4,47.6-369.7c113.9-76.7,507.8,56.7,557.1,104C1101.1,847,1148.8,1180.2,1052.6,1230.8z"/>
				<ellipse fill="#041C16" cx="731.1" cy="285.2" rx="47.2" ry="85.8"/>
				<ellipse opacity="0.3" fill="#081613" cx="734.2" cy="285.2" rx="50.4" ry="85.8"/>
				<ellipse opacity="0.3" fill="#081613" cx="1140.7" cy="332.9" rx="50.4" ry="85.8"/>
				<ellipse fill="#041C16" cx="1137.5" cy="332.9" rx="47.2" ry="85.8"/>
				
					<path fill="none" stroke="#041C16" stroke-width="24.2458" stroke-linecap="round" stroke-linejoin="round" stroke-miterlimit="10" d="
					M854.7,371c0,0-32.9,76.8,21.8,94.2c78,24.8,80.9-73.5,80.9-73.5"/>
				<g>
					<path opacity="0.3" fill="#081613" d="M1612.1,604.7c-35.9-94.9-107.6-171.8-199.5-214.8c-58.1-27.2-111.6-49.4-111.6-49.4
						s32-145-94.8-170.2c-6.2-1.2-12.1-2.1-17.8-2.8c63.2,37.5,76.6,152.2,57.9,189.4c0,0,115.6,7.3,30,143.9
						s-119.6,118.6-118.5,223.2c1.5,149.6,29.9,207.8,31.4,571.1l485.2-269.3C1704.8,892.6,1656.2,721.2,1612.1,604.7z"/>
					<path opacity="0.3" fill="#081613" d="M742.2,138.8c-15.8,1.7-29.4,5.3-41.1,10.3l0,0c0,0,129.6-15.7,135.1,94.2v80.7
						c0,0,188,20.2,199.6,31.8c11.6,11.6,12.2-70.5,12.2-70.5c-37.8-11.2-164.8-21.7-164.8-21.7S894.7,122.3,742.2,138.8z"/>
				</g>
				<path opacity="0.3" fill="#081613" d="M722.9,1241.5c13.5,5.9,26.9,11.4,40.3,16.3l-15.3-13.6c164.5,55,186.8,36.6,186.8,24.9
					c0-11.6-24-7.8-24-7.8c-91.8-1.9-136.8-19-133.9-37.1c-20.1-5.2-39.5-10.5-57.7-15c0,0-28-1.8-66-9.1c4.7,4.5,8.6,8.7,7.9,11.7
					c-2.1,9.9-122.9-27.8-153.5-17.3c-30.6,10.5,193.2,35.7,193.2,35.7l-14.8,6.5C708.8,1240.1,722.9,1241.5,722.9,1241.5z"/>
				<g>
					<path fill="#1D684D" d="M708.5,1237.6c0,0-48.5,107.1-57.1,103.6c-35.9-14.4-43.6-110.3,49.3-110.9L708.5,1237.6z"/>
					<path opacity="0.3" fill="#081613" d="M647.7,1246.8c4.4-1.1,8.7-2.3,13.1-3.4c2.2-0.6,4.9-1,6.5,0.6c1.2,1.2,1.3,3.3,0.6,4.9
						c-0.7,1.6-1.9,2.9-3,4.2c-11.8,13-19.4,29.8-21.5,47.2c-0.3,2.2,0,5,2,5.7c0.8,0.3,1.7,0.1,2.6-0.2c3.3-1.1,5.9-3.6,8.4-6
						c5.9-5.8,11.5-11.9,16.9-18.1c-3.8,10.4-9.6,19.9-13.6,30.1c-3.3,8.4-5.3,17.7-3.8,26.5c14.8-17.2,52.5-100.6,52.5-100.6
						l-7.7-7.3C676.8,1230.5,659.6,1237,647.7,1246.8z"/>
				</g>
				<g>
					<path fill="#1D684D" d="M728,1235c0,0,55.4,20.4,44.2,125.3c0,0-85.6,10.7-55.4-121.9L728,1235z"/>
					<path opacity="0.3" fill="#081613" d="M749.9,1252.5C738.8,1239,728,1235,728,1235l-11.2,3.4c-20.4,89.3,11.8,113.6,35,119.9
						c-0.4-1.5-1.2-3-2.1-4.2c-2-2.7-4.8-4.7-7.3-7c-15.8-13.8-23.4-36.3-19.2-56.9c0.7-3.3,1.6-6.6,3.4-9.5c0.6-1,1.3-1.9,2.4-2.2
						c2.2-0.5,3.8,1.8,4.7,3.9c3.2,7.8,4.6,16.3,7,24.4c2.5,8.1,6.3,16.2,13.2,21.2c0.4,0.3,0.8,0.5,1.2,0.4
						c0.3-0.1,0.5-0.4,0.7-0.7c3.1-4.9,3.1-11.1,1.6-16.7c-1.4-5.6-4.1-10.7-6.2-16.1c-3.1-8.2-4.7-17-7.2-25.4
						c-2.5-8.5-6.1-16.9-12.4-23c5.2,3.5,10.9,6.2,16.8,8C749.1,1254,749.5,1253.3,749.9,1252.5z"/>
				</g>
				<path fill="#1D684D" d="M723.4,1243.7c0,0-18.5,3.1-25.7-7.7c-7.2-10.9-11.4-32.3,2.2-34.4c21-3.2,23.3,9.2,23.3,9.2
					s11.5-6.4,16.5,2.1C744.7,1221.4,742.6,1248.8,723.4,1243.7z"/>
				<path opacity="0.3" fill="#081613" d="M722.9,1233.5c2.4-0.7,4.5-2.4,5.4-4.8c0.7-1.8,0.7-3.8,0.7-5.8c0-3.2,0-6.3,0-9.5
					c0-1.6,0-3.1-0.2-4.7c-3.1,0.6-5.6,2-5.6,2s-2.4-12.4-23.3-9.2c-13.6,2.1-9.3,23.5-2.2,34.4c7.2,10.9,25.7,7.7,25.7,7.7
					c1.8,0.5,3.4,0.6,4.9,0.5C726.9,1240.5,724.2,1236.5,722.9,1233.5z M712.9,1226.5c-1.7,1.7-1.2,4.8-2.8,6.6
					c-1.7,2-5.1,1.7-7.1-0.1c-2-1.8-2.8-4.4-3.4-7c-0.8-3.4-1.4-7.3,0.5-10.3c1.7-2.7,5.3-4,8.5-3.6c3.2,0.4,6.1,2.3,8.2,4.8
					c1.4,1.6,2.5,3.4,2.7,5.5c0.1,1.4-0.3,2.8-0.8,4.2C717,1225.3,714.4,1224.9,712.9,1226.5z"/>
				<path opacity="0.22" fill="#FFFFFF" d="M364.1,1007c-3.1-16.7-5.7-33.7-7.7-50.8c-1.5-11.3-2.5-22.7-3.1-34.1
					c-5.3-81.6,4.4-165.2,36.5-239.6c3.3-7.5,6.8-14.9,10.6-22.1c8.1-15.5,15.6-31.3,22.1-47.5c4.9-12.2,9.9-24.4,15-36.5
					c13.5-32.2,28.4-65.1,32.5-100.1c1.3-11.1,2-22.5,2.1-33.7c0.1-5.1,0.3-10.6-0.6-15.7c-0.4-2.1-0.9-4.1-1.5-6.2
					c-3,1-5.8,2.6-8.1,4.8c-282.1,265.9-111.1,699.3-111.1,699.3c13.8,13.4,32.1,25.4,53.1,36.2C386.4,1111,373.7,1058.2,364.1,1007
					z"/>
				<g>
					<path opacity="0.22" fill="#FFFFFF" d="M659.5,259.2c0.2-16.1,0.8-32.4,6-47.7c4.4-13.1,12.2-25,22.4-34.4
						c4.7-4.3,10.4-9.6,8.6-15.7c-0.9-3.1-3.5-5.3-6.2-7c-77.5,43.4-55.8,156.5-55.3,158.6c8.8,3.4,17.2,8,24.7,13.7
						C659.4,304.2,659.2,281.7,659.5,259.2z"/>
					<path opacity="0.22" fill="#FFFFFF" d="M624.5,317.8c-1.1,0.5-2.2,1-3.3,1.5c0.7,0.4,1.4,0.9,2.1,1.3
						C623.4,320.4,623.9,319.2,624.5,317.8z"/>
				</g>
				<path opacity="0.22" fill="#FFFFFF" d="M1058.6,317c0,0,2.2-54.7,15.5-84.2c13.3-29.5,42.3-38.5,52.1-31.1
					c4.5,3.4,3.5,4.7-2.2,8.2c-34.9,21.5-53.7,62-46.1,102.2c0.3,1.6,0.6,3.2,1,4.8C1090.6,370.5,1058.4,354.4,1058.6,317z"/>
				
					<ellipse transform="matrix(0.1258 -0.9921 0.9921 0.1258 266.6923 1308.2788)" opacity="0.3" fill="#081613" cx="875.7" cy="502.8" rx="13.9" ry="28.4"/>
				<ellipse opacity="0.65" fill="#FCA192" cx="668.2" cy="377.9" rx="36.4" ry="17.6"/>
				
					<ellipse transform="matrix(0.1258 -0.9921 0.9921 0.1258 590.9359 1553.3986)" opacity="0.65" fill="#FCA192" cx="1176.9" cy="441.4" rx="17.6" ry="36.4"/>
			</g>
		</g>
		<g>
			<defs>
				<path id="SVGID_188_" d="M328.4,1317.3c0,0,10.7,1,19.1,9.3c8.4,8.3,17,20,17,20s6.8,75.4,39.1,47.5S165,951.7,165,951.7
					l-295.3-129.1l-137.4,364.4l477.3,217.5L328.4,1317.3z"/>
			</defs>
			<clipPath id="SVGID_1_">
				<use xlink:href="#SVGID_188_"  overflow="visible"/>
			</clipPath>
			<g clip-path="url(#SVGID_1_)">
				<g>
					<path fill="#124934" d="M186.4,1220.1c22.7,24,46,48.1,75,64.5c14.3,8.1,29.7,14.2,44.5,21.2c15.3,7.2,30,15.6,44,25.2
						c15.5,10.6,29.9,22.4,43.4,35.4c2.4,2.3,5.7-1.7,3.3-4c-23.5-22.7-50.3-42-79.4-56.9c-14.6-7.5-30-13.5-44.6-20.9
						c-15.3-7.7-29.3-17.4-42.3-28.6c-14.4-12.4-27.5-26.2-40.5-39.9C187.5,1213.7,184.2,1217.7,186.4,1220.1L186.4,1220.1z"/>
				</g>
				<g>
					<path fill="#124934" d="M322.4,1314.4c-30-16.4-64.9-48.5-83.7-77.1c-17.7-27.1-29.9-57.6-37.3-89.2c-0.5-2.1,1.8-3.8,3.8-2.8
						c7,3.8,13.3,8.8,19.4,14c20.6,17.6,38.6,38.2,53.2,61C296.6,1249.6,309.7,1282.1,322.4,1314.4"/>
					<g opacity="0.5">
						<path fill="#FFFFFF" d="M314.8,1305c-32.1-40.1-62.4-81.6-90.7-124.4c-0.6-0.9-2,0.1-1.4,1c28.4,42.8,58.6,84.3,90.7,124.4
							C314,1306.9,315.5,1305.9,314.8,1305L314.8,1305z"/>
					</g>
				</g>
				<g>
					<path fill="#1D684D" d="M349.7,1329.2c-27.4-27.2-44.5-73.3-42.4-111.8c0.1-1.9,2.6-2.6,3.7-1.2c7,8.7,13.5,17.9,19.3,27.5
						C346,1269.5,355.2,1299.5,349.7,1329.2"/>
					<g opacity="0.5">
						<path fill="#FFFFFF" d="M348.6,1324.1c-8.7-31.9-19.9-63-33.5-93.1c-0.5-1-2.1-0.5-1.6,0.5c13.6,30.1,24.8,61.2,33.5,93.1
							C347.3,1325.7,348.9,1325.2,348.6,1324.1L348.6,1324.1z"/>
					</g>
				</g>
				<g>
					<path fill="#1D684D" d="M347.2,1328.1c-49.4,1-98.5-6.8-147.3-14.6c-0.9-0.1-1.8-0.3-2.3-1.1c-0.7-1.1,0.2-2.5,1.1-3.4
						c8.8-8.8,21.8-11.9,34.2-13.1c39.3-3.9,79.9,7.1,111.7,30.4"/>
					<g opacity="0.5">
						<path fill="#FFFFFF" d="M336.7,1322.6c-39.6-8-79.7-13.5-120-16.4c-1.1-0.1-1.4,1.6-0.3,1.7c40.3,2.9,80.4,8.4,120,16.4
							C337.5,1324.5,337.8,1322.9,336.7,1322.6L336.7,1322.6z"/>
					</g>
				</g>
				<g>
					<g>
						<g>
							<path fill="#F39557" d="M162,1200.6c-15.8-8.5-32.4-15.5-48.1-24.2c-15.7-8.7-30.7-19.2-41.7-33.4
								c-5.9-7.6-10.7-16.8-9.6-26.3c1.1-9.4,8.3-17.6,17.2-20.9c8.9-3.3,19.1-2.1,27.5,2.4c10.2,5.4,17.4,14.9,24.1,24.3
								c15.3,21.7,29.1,44.4,41.1,68.1"/>
						</g>
						<g opacity="0.6">
							<path fill="#FFFFFF" d="M167.1,1191.1c-30.8-18.1-58.1-41.8-80.3-69.7c-1.2-1.5-3.6,0.2-2.4,1.7
								c22.6,28.4,50.2,52.4,81.5,70.7C167.5,1194.8,168.7,1192.1,167.1,1191.1L167.1,1191.1z"/>
						</g>
						<g opacity="0.6">
							<path fill="#FFFFFF" d="M166.9,1186.4c-21.7-28.7-45.4-55.9-71-81.2c-1.3-1.3-3.2,0.9-1.9,2.3c25.4,25.2,48.9,52.1,70.5,80.7
								C165.6,1189.6,168.1,1188,166.9,1186.4L166.9,1186.4z"/>
						</g>
					</g>
					<g>
						<g>
							<path fill="#FFD1BB" d="M180.2,1187.6c-1.4-20.5-6.8-40.6-13.7-60c-4.7-13.2-10.2-26.3-18.6-37.5
								c-8-10.7-19.1-19.7-32.2-22.3c-2.6-0.5-5.5-0.7-7.7,0.7c-2.5,1.6-3.4,4.8-3.7,7.7c-1.3,12.5,4.3,24.8,11.4,35.2
								c18,26.2,46.2,45.3,59.2,74.4"/>
						</g>
						<g opacity="0.6">
							<path fill="#FFFFFF" d="M175.2,1176.1c-14.4-32.6-33.3-63-56.3-90.3c-1.2-1.4-3.6,0.2-2.4,1.7c22.8,27.1,41.6,57.3,55.9,89.6
								C173.2,1178.8,176,1177.8,175.2,1176.1L175.2,1176.1z"/>
						</g>
					</g>
					<g>
						<g>
							<path fill="#FFD1BB" d="M162.4,1207.4c-21.4-6.7-44.5-7.5-64.8-16.9c-13.6-6.3-25.3-16.2-34.8-27.6
								c-3.2-3.8-6.2-7.9-7.7-12.7c-1.5-4.8-1.2-10.3,1.8-14.3c2.7-3.6,7.2-5.3,11.7-5.9c9.1-1.2,18.2,1.8,26.5,5.8
								c27,13.2,47.1,37.1,72.4,53.5"/>
						</g>
						<g opacity="0.6">
							<path fill="#FFFFFF" d="M156.4,1197.7c-38-4.5-73.4-24.4-96.9-54.6c-1.2-1.5-3.6,0.2-2.4,1.7c24,30.8,60,51.3,98.8,55.9
								C157.7,1200.9,158.3,1198,156.4,1197.7L156.4,1197.7z"/>
						</g>
					</g>
					<g>
						<g>
							<path fill="#1D684D" d="M197.5,1227.8c-11.6-0.8-25.1-5.2-35.2-11c-2.7-1.6-5.4-3.3-7.3-5.7c-2-2.4-3.2-5.6-2.7-8.7
								c0.4-2.5,1.9-4.7,3.4-6.7c3.5-4.7,7.1-9.2,11.1-13.5c2.3-2.5,5.1-5.1,8.5-5c2.1,0.1,3.9,1.3,5.6,2.6
								C194.9,1190.6,200.2,1210.2,197.5,1227.8"/>
						</g>
						<g>
							<path fill="#124934" d="M180.9,1179.7c-1-0.8-2-1.4-3.2-1.9c6.7,5.1,10.5,14.5,10.7,22.7c0.3,8.9-2.2,16.9-7.3,24.1
								c5.5,1.6,11.1,2.7,16.4,3.1C200.2,1210.2,194.9,1190.6,180.9,1179.7z"/>
						</g>
					</g>
				</g>
			</g>
		</g>
		<g>
			<defs>
				<path id="SVGID_190_" d="M1603.8,1360.3c48.3,116,1,210.6-55.6,209.8c-56.5-0.7-40.9-38.3-45.8-67s20.5-41.6,20.5-41.6
					c23.9-95.7-95.5-186.1-95.5-186.1l-138.8,164.1l-12.1,252.9l152.8,10.6l61.7-89.9l138-37.9l81.8,63.1l109.9-119.7l-91.6-193.6
					l-136,10.2L1603.8,1360.3z"/>
			</defs>
			<clipPath id="SVGID_2_">
				<use xlink:href="#SVGID_190_"  overflow="visible"/>
			</clipPath>
			<path opacity="0.3" clip-path="url(#SVGID_2_)" fill="#081613" d="M1647.9,1438.9l-7-17.4c-8.8-21.9-33.1-31.9-53.5-21.7
				l-9.2,4.6c-3.3,1.7-6.8,2.8-10.5,3.5l-21.7,4l-89.4,16.5l-23.5,4.3c-4,0.7-8.1,0.9-12.2,0.6l-11.5-1c-5.3-0.4-10.5,0.1-15.4,1.3
				c0,0,0,0,0.1,0c-0.6,0.2-1.3,0.4-1.9,0.6c-0.9,0.3-1.7,0.5-2.5,0.8c-0.9,0.3-1.8,0.7-2.7,1.1c-0.6,0.3-1.2,0.6-1.8,0.8
				c-0.7,0.3-1.3,0.7-2,1c-0.6,0.3-1.1,0.7-1.7,1c-0.6,0.4-1.3,0.8-1.9,1.2c-0.5,0.4-1,0.7-1.5,1.1c-0.8,0.6-1.5,1.1-2.2,1.7
				c-0.4,0.4-0.9,0.7-1.3,1.1c-0.9,0.8-1.7,1.6-2.5,2.4c-0.4,0.4-0.7,0.8-1.1,1.2c-0.6,0.6-1.1,1.3-1.7,2c-0.4,0.4-0.7,0.9-1,1.3
				c-0.5,0.7-1,1.4-1.5,2.2c-0.3,0.4-0.6,0.8-0.8,1.3c-0.6,1-1.2,2.1-1.8,3.2c-0.1,0.1-0.2,0.3-0.2,0.4c-0.6,1.2-1.2,2.5-1.7,3.9
				c-0.2,0.4-0.3,0.9-0.4,1.3c-0.3,0.9-0.6,1.9-0.9,2.8c-0.1,0.5-0.3,1-0.4,1.5c-0.2,1-0.4,2-0.6,3c-0.1,0.5-0.2,0.9-0.2,1.4
				c-0.2,1.5-0.4,2.9-0.4,4.4l-5.6,135.1c-0.5,12.7,4.3,24.1,12.7,32c0.1,0.1,0.3,0.2,0.4,0.3c24.3-6.9,48.9-15.1,73.1-24.8
				c0.5-2,0.8-4.1,1-6.2l3.4-38.5c0.6-6.8,5-12.7,11.1-15.4c0.3-0.1,0.5-0.2,0.8-0.3c0.8-0.3,1.6-0.6,2.4-0.8l5.7-1.3
				c6.3,3.3,13.8,4.4,21.3,2.6c7.5-1.8,13.9-6.1,18.4-11.8l56-12.9c4.5,2.3,9.6,3.4,14.9,3
				C1604.2,1510.5,1629.5,1478.1,1647.9,1438.9z"/>
			<g clip-path="url(#SVGID_2_)">
				<path fill="#7CC1A9" d="M1705.5,1522.7l-55.3-105.2c-11-20.9-36.2-28.4-55.4-16.2l-8.7,5.5c-3.1,2-6.5,3.5-10.1,4.5l-21.2,6.2
					l-87.2,25.4l-23,6.7c-3.9,1.1-8,1.8-12.1,1.8l-11.6,0.2c-26.2,0.4-47.2,22.7-45.7,48.9l8,135c1.3,22.6,19.2,39.3,41.6,39.2l0,0
					c24.9-0.2,45.6-21.8,45.2-46.7l-0.5-38.7c-0.1-8,5-15.3,12.5-17.9l125.8-42.7c6.8-2.3,14.1,0.5,17.9,6.8l18.1,30.2
					c11.6,19.2,35.7,23.1,52.3,8.8h0C1710.7,1562,1714.6,1539.9,1705.5,1522.7z"/>
				<path fill="#4FAAA1" d="M1571.1,1476.7l-70.4,22.5c-6.3,2-13.1-2.3-15.2-9.7l-13.8-47.7l93.1-27.2l13.2,45.8
					C1580.1,1467.6,1577,1474.8,1571.1,1476.7z"/>
				<path fill="#4FAAA1" d="M1657,1555.3c-2.6-8.3,0.1-13.7-4.4-26.2c-2.1-5.8-8.1-22.5-21.8-27.9c-13.1-5.2-26.9,2.4-44.8,12.2
					c-23.1,12.6-20.4,18.2-37,25.6c-24.2,10.8-36.6,1.8-53.2,13c-8.3,5.6-13.6,13.5-17.1,21.2c1.1-0.7,2.3-1.2,3.5-1.7l125.8-42.7
					c6.8-2.3,14.1,0.5,17.9,6.8l18.1,30.2c9.4,15.6,27.1,21.1,42.2,14.9C1666.6,1572.7,1659.5,1563.2,1657,1555.3z"/>
				<path fill="#3F9187" d="M1472.7,1492.9c6,20.7-5.9,43-26.9,49.8c-21.3,6.9-43.8-4.6-50-25.9s6.5-43.8,28-50.1
					C1444.9,1460.4,1466.7,1472.2,1472.7,1492.9z"/>
				<g>
					<g>
						<path fill="#3F9187" d="M1530.2,1529.7c4.8,16.7-4.5,34.9-21.1,40.5c-16.8,5.7-34.5-3.4-39.5-20.5c-5-17.1,4.9-35.4,21.7-40.8
							C1508.1,1503.6,1525.4,1512.9,1530.2,1529.7z"/>
						<path fill="#322050" d="M1524.5,1531.6c3.9,13.5-3.7,28.1-17,32.7c-13.5,4.6-27.8-2.8-31.7-16.6c-4-13.8,3.9-28.5,17.5-32.8
							C1506.6,1510.6,1520.5,1518.1,1524.5,1531.6z"/>
					</g>
					<g>
						<path fill="#111527" d="M1519.7,1533.2c2.7,9.4-2.5,19.6-11.9,22.8c-9.4,3.2-19.4-1.9-22.2-11.6c-2.8-9.6,2.7-19.9,12.2-22.9
							C1507.3,1518.6,1517,1523.8,1519.7,1533.2z"/>
						<path fill="#48266A" d="M1516.5,1534.3c2.2,7.6-2.1,15.8-9.6,18.4c-7.6,2.6-15.6-1.6-17.8-9.3c-2.2-7.7,2.2-16,9.8-18.5
							C1506.4,1522.5,1514.3,1526.7,1516.5,1534.3z"/>
					</g>
					<g>
						<path fill="#3F9187" d="M1619.3,1499.9c4.7,16.1-3.9,33.4-19.2,38.7c-15.5,5.3-32.2-3.7-36.9-20.1
							c-4.8-16.5,4.2-33.9,19.8-38.9C1598.4,1474.6,1614.6,1483.7,1619.3,1499.9z"/>
						<path fill="#322050" d="M1613.9,1501.6c3.8,13-3.1,27-15.6,31.2c-12.5,4.3-25.9-3-29.7-16.2c-3.8-13.2,3.4-27.3,15.9-31.3
							C1597.1,1481.3,1610.2,1488.6,1613.9,1501.6z"/>
					</g>
					<g>
						<path fill="#111527" d="M1612,1502.4c2.7,9.4-2.5,19.6-11.9,22.8c-9.4,3.2-19.4-1.9-22.2-11.6s2.7-19.9,12.2-22.9
							C1599.6,1487.8,1609.3,1493,1612,1502.4z"/>
						<path fill="#48266A" d="M1608.8,1503.5c2.2,7.6-2.1,15.8-9.6,18.4c-7.6,2.6-15.6-1.6-17.8-9.3c-2.2-7.7,2.2-16,9.8-18.5
							C1598.7,1491.7,1606.6,1495.9,1608.8,1503.5z"/>
					</g>
				</g>
				<path fill="#B5163E" d="M1466.2,1470.2L1466.2,1470.2c-2.6,0.8-5.3-0.7-6.1-3.3l-2.4-8.3c-0.8-2.6,0.8-5.3,3.4-6.1h0
					c2.6-0.8,5.3,0.7,6.1,3.3l2.4,8.3C1470.3,1466.7,1468.8,1469.5,1466.2,1470.2z"/>
				<path fill="#B5163E" d="M1580.4,1435.7L1580.4,1435.7c-2.4,0.7-4.9-0.7-5.6-3.2l-2.3-7.9c-0.7-2.5,0.6-5.1,3-5.8l0,0
					c2.4-0.7,4.9,0.7,5.6,3.2l2.3,7.9C1584.1,1432.4,1582.7,1435,1580.4,1435.7z"/>
				<g>
					<path fill="#111527" d="M1430.9,1475.9l-8.1,2.4c-2.4,0.7-3.8,3.2-3.1,5.6l2.7,9.2c0.2,0.8,0.7,1.6,1.4,2.1l5.2,4.3
						c1.1,0.9,2.7,1.2,4.1,0.8l0.8-0.2c1.4-0.4,2.6-1.6,3-3l2.1-6.5c0.3-0.8,0.3-1.7,0-2.6l-2.7-9.2
						C1435.7,1476.5,1433.2,1475.2,1430.9,1475.9z"/>
					<path fill="#111527" d="M1446.8,1530.9l-8.1,2.6c-2.4,0.8-4.9-0.5-5.5-2.9l-2.7-9.2c-0.2-0.8-0.2-1.7,0-2.6l2.1-6.6
						c0.5-1.4,1.6-2.6,3-3l0.8-0.2c1.4-0.4,3-0.2,4.1,0.8l5.2,4.3c0.7,0.5,1.1,1.3,1.4,2.1l2.7,9.2
						C1450.5,1527.6,1449.1,1530.1,1446.8,1530.9z"/>
					<path fill="#111527" d="M1405.5,1509.3l2.3,8.1c0.7,2.4,3.2,3.7,5.6,2.9l9.4-3c0.9-0.3,1.6-0.8,2.2-1.5l4.5-5.3
						c1-1.2,1.3-2.7,0.9-4.1l-0.2-0.8c-0.4-1.4-1.5-2.5-3-2.9l-6.6-1.9c-0.8-0.2-1.8-0.2-2.6,0l-9.5,2.9
						C1406.2,1504.4,1404.8,1507,1405.5,1509.3z"/>
					<path fill="#111527" d="M1461.2,1492.2l2.3,7.9c0.7,2.3-0.7,4.8-3,5.5l-9.2,2.9c-0.8,0.3-1.7,0.3-2.6,0l-6.5-1.9
						c-1.4-0.4-2.5-1.5-2.9-2.9l-0.2-0.8c-0.4-1.4-0.1-3,0.9-4.1l4.4-5.3c0.6-0.7,1.3-1.2,2.2-1.4l9.2-2.8
						C1458.1,1488.5,1460.5,1489.8,1461.2,1492.2z"/>
				</g>
				<g>
					<path fill="#322050" d="M1432.8,1475.8l-8.1,2.4c-2.4,0.7-3.8,3.2-3.1,5.6l2.7,9.2c0.2,0.8,0.7,1.6,1.4,2.1l5.2,4.3
						c1.1,0.9,2.7,1.2,4.1,0.8l0.8-0.2c1.4-0.4,2.6-1.6,3-3l2.1-6.5c0.3-0.8,0.3-1.7,0-2.6l-2.7-9.2
						C1437.6,1476.4,1435.2,1475.1,1432.8,1475.8z"/>
					<path fill="#322050" d="M1448.7,1530.7l-8.1,2.6c-2.4,0.8-4.9-0.5-5.5-2.9l-2.7-9.2c-0.2-0.8-0.2-1.7,0-2.6l2.1-6.6
						c0.5-1.4,1.6-2.6,3-3l0.8-0.2c1.4-0.4,3-0.2,4.1,0.8l5.2,4.3c0.7,0.5,1.1,1.3,1.4,2.1l2.7,9.2
						C1452.4,1527.5,1451,1530,1448.7,1530.7z"/>
					<path fill="#322050" d="M1407.4,1509.2l2.3,8.1c0.7,2.4,3.2,3.7,5.6,2.9l9.4-3c0.9-0.3,1.6-0.8,2.2-1.5l4.5-5.3
						c1-1.2,1.3-2.7,0.9-4.1l-0.2-0.8c-0.4-1.4-1.5-2.5-3-2.9l-6.6-1.9c-0.8-0.2-1.8-0.2-2.6,0l-9.5,2.9
						C1408.2,1504.3,1406.8,1506.8,1407.4,1509.2z"/>
					<path fill="#322050" d="M1463.1,1492l2.3,7.9c0.7,2.3-0.7,4.8-3,5.5l-9.2,2.9c-0.8,0.3-1.7,0.3-2.6,0l-6.5-1.9
						c-1.4-0.4-2.5-1.5-2.9-2.9l-0.2-0.8c-0.4-1.4-0.1-3,0.9-4.1l4.4-5.3c0.6-0.7,1.3-1.2,2.2-1.4l9.2-2.8
						C1460,1488.4,1462.4,1489.7,1463.1,1492z"/>
				</g>
				<g>
					<path fill="#3F9187" d="M1590.1,1456.3c5.7,19.8,25.4,30.9,43.8,24.9c18.1-5.9,28.1-26.2,22.6-45.5s-24.7-30.6-43-25.2
						C1595,1416,1584.4,1436.5,1590.1,1456.3z"/>
					<g>
						<path fill="#111527" d="M1625.7,1421.1c1.4,5-1.2,10.1-5.8,11.5c-4.7,1.4-9.7-1.5-11.1-6.4c-1.4-5,1.2-10.2,5.9-11.6
							C1619.4,1413.3,1624.3,1416.2,1625.7,1421.1z"/>
						<path fill="#111527" d="M1638.5,1465.3c1.4,5-1.2,10.2-5.8,11.7c-4.7,1.5-9.6-1.3-11.1-6.3s1.2-10.2,5.9-11.7
							C1632.2,1457.6,1637.1,1460.4,1638.5,1465.3z"/>
						<path fill="#111527" d="M1600.1,1443.3c4.7-1.5,9.7,1.4,11.2,6.4c1.4,5-1.2,10.2-5.9,11.7c-4.7,1.5-9.8-1.4-11.2-6.4
							C1592.6,1450,1595.3,1444.7,1600.1,1443.3z"/>
						<path fill="#111527" d="M1641.8,1430.5c4.6-1.4,9.5,1.4,10.9,6.4c1.4,4.9-1.1,10.1-5.7,11.5c-4.6,1.4-9.5-1.4-10.9-6.3
							S1637.2,1431.9,1641.8,1430.5z"/>
					</g>
					<g>
						<path fill="#322050" d="M1627.7,1421c1.4,5-1.2,10.1-5.8,11.5c-4.7,1.4-9.7-1.5-11.1-6.4c-1.4-5,1.2-10.2,5.9-11.6
							C1621.3,1413.1,1626.2,1416,1627.7,1421z"/>
						<path fill="#322050" d="M1640.5,1465.2c1.4,5-1.2,10.2-5.8,11.7c-4.7,1.5-9.6-1.3-11.1-6.3c-1.4-5,1.2-10.2,5.9-11.7
							C1634.1,1457.4,1639,1460.3,1640.5,1465.2z"/>
						<path fill="#322050" d="M1602,1443.2c4.7-1.5,9.7,1.4,11.2,6.4c1.4,5-1.2,10.2-5.9,11.7c-4.7,1.5-9.8-1.4-11.2-6.4
							C1594.6,1449.9,1597.3,1444.6,1602,1443.2z"/>
						<path fill="#322050" d="M1643.7,1430.4c4.6-1.4,9.5,1.4,10.9,6.4c1.4,4.9-1.1,10.1-5.7,11.5c-4.6,1.4-9.5-1.4-10.9-6.3
							C1636.5,1436.9,1639.1,1431.8,1643.7,1430.4z"/>
					</g>
				</g>
				<path fill="#4FAAA1" d="M1431.8,1657.4c-1.9-9.4,10-14.3,9.2-26.6c-1.1-16.9-24.4-18.9-27.4-36.5c-3-17.2,16.6-30.4,10.6-39.6
					c-3-4.6-8.4-2.2-18.1-6.9c-13.6-6.7-20.1-19.8-21.8-23.6c-10.5-23.6,3.9-47.8,6.5-52.2c4.4-7.4,9.8-13.1,15-17.4
					c-18.6,6.8-31.8,25.2-30.5,46.1l8,135c1.3,22.6,19.2,39.3,41.6,39.2h0c7.1-0.1,13.8-1.9,19.9-5
					C1435.7,1665.7,1432.6,1661.3,1431.8,1657.4z"/>
				<path fill="#4FAAA1" d="M1551.4,1464.8c-11.9-2.7-16.1,5.8-25,2.8c-10.4-3.5-8.3-16.3-18.9-20.4c-9-3.5-14.4,4.1-26.3,3
					c-2.3-0.2-4.8-0.8-7.6-1.8l11.9,41.1c2.1,7.4,9,11.7,15.2,9.7l70.4-22.5c1.5-0.5,2.8-1.3,3.9-2.4c-1.8-0.1-3.8-0.4-5.7-0.9
					C1560.5,1471.2,1559.4,1466.7,1551.4,1464.8z"/>
			</g>
		</g>
	</g>
</g>
<g id="Layer_16">
</g>
<g id="Layer_15">
</g>
<g id="Layer_14">
</g>
<g id="Layer_13">
</g>
<g id="Layer_12">
</g>
<g id="Layer_11">
</g>
<g id="Layer_10">
</g>
<g id="Layer_9">
</g>
<g id="Layer_8">
</g>
<g id="Layer_7">
</g>
<g id="Layer_6">
</g>
<g id="Layer_5">
</g>
<g id="Layer_4">
</g>
<g id="Layer_3">
</g>
<g id="Layer_2">
</g>
</svg>
