<?xml version="1.0" encoding="utf-8"?>
<!-- Generator: Adobe Illustrator 24.0.2, SVG Export Plug-In . SVG Version: 6.00 Build 0)  -->
<svg version="1.1" xmlns="http://www.w3.org/2000/svg" xmlns:xlink="http://www.w3.org/1999/xlink" x="0px" y="0px"
	 viewBox="0 0 1982.6 2048" enable-background="new 0 0 1982.6 2048" xml:space="preserve">
<g id="Layer_1">
	<g id="Layer_23">
	</g>
</g>
<g id="Layer_22">
</g>
<g id="Layer_21">
</g>
<g id="Layer_20">
</g>
<g id="Layer_19">
</g>
<g id="Layer_18">
</g>
<g id="Layer_17">
</g>
<g id="Layer_16">
	<g>
		<g>
			<g>
				<polygon fill="#511F03" points="816.7,1422.9 1052.6,1469.6 1052.6,1512.2 819.8,1463.7 				"/>
				<polygon fill="#F8B273" points="833.9,1452.7 832.3,1426.6 816.7,1422.9 819.8,1463.7 1052.6,1512.2 1052.6,1494.9 				"/>
			</g>
			<g>
				<g>
					<g>
						
							<ellipse transform="matrix(3.440763e-02 -0.9994 0.9994 3.440763e-02 -539.2487 2690.2351)" fill="#F8B273" cx="1122.6" cy="1624.2" rx="14.4" ry="13.2"/>
					</g>
					<path fill="#511F03" d="M1124.9,1610c6.3,1.2,11,7.2,10.9,14.4c-0.1,7.2-5.1,13-11.4,14c-5.5-1.2-9.7-7.1-9.5-14.3
						C1115,1616.9,1119.3,1611,1124.9,1610z"/>
				</g>
				<g>
					<g>
						
							<ellipse transform="matrix(3.440763e-02 -0.9994 0.9994 3.440763e-02 -510.84 2628.0361)" fill="#F8B273" cx="1104.6" cy="1578.4" rx="14.4" ry="13.2"/>
					</g>
					<path fill="#511F03" d="M1106.9,1564.2c6.3,1.2,11,7.2,10.9,14.4c-0.1,7.2-5.1,13-11.4,14c-5.5-1.2-9.7-7.1-9.5-14.3
						C1097,1571.1,1101.4,1565.2,1106.9,1564.2z"/>
				</g>
				<g>
					<g>
						
							<ellipse transform="matrix(3.440763e-02 -0.9994 0.9994 3.440763e-02 -574.3644 2624.6787)" fill="#F8B273" cx="1071.1" cy="1609.6" rx="14.4" ry="13.2"/>
					</g>
					<path fill="#511F03" d="M1073.4,1595.4c6.3,1.2,11,7.2,10.9,14.4c-0.1,7.2-5.1,13-11.4,14c-5.5-1.2-9.7-7.1-9.5-14.3
						C1063.5,1602.3,1067.9,1596.4,1073.4,1595.4z"/>
				</g>
				<path fill="#F8B273" d="M1146.1,1640.8c-2.3-14.8-5.6-29.4-9.7-43.8c-4.1-14.4-8.3-28.8-14.7-42.1c-1.7-3.3-3.5-6.5-5.6-9.4
					c-2.2-2.8-4.9-5.5-8.2-6.5c-3.3-0.9-7.1-0.2-10.5,1c-3.5,1.2-6.7,3-9.8,5c-6.3,4-11.8,9.1-17.1,14.4c-5.3,5.3-10,11.1-14.6,17
					c-4.5,5.9-8.8,12.1-12.5,18.5c-1.8,3.2-3.6,6.5-4.7,9.9c-1,3.5-1.7,7-1.7,10.6c0,3.5,0.7,7,2.2,10.2c1.5,3.1,3.7,5.9,6.5,8.1
					c5.7,4.3,12.4,7.8,19.1,10.6c13.6,5.7,28.3,8.9,43.1,9.7c7.4,0.3,14.9-0.1,22.3-1.1c3.7-0.3,7.4-1.3,10.6-3.1
					c1.6-0.9,3.1-2.1,4-3.6C1145.9,1644.5,1146.2,1642.7,1146.1,1640.8z M1146.4,1640.8c0.2,1.9-0.1,3.9-1.1,5.5
					c-1,1.7-2.5,2.9-4.1,3.9c-3.3,2-7,2.9-10.7,3.5c-7.4,1.4-14.9,2.2-22.5,2.4c-15.1,0.1-30.3-2.8-44.4-8.7c-7-3-13.8-6.3-20-11.1
					c-3.1-2.5-5.6-5.8-7.3-9.4c-1.6-3.7-2.4-7.7-2.3-11.6c0.1-3.9,0.8-7.8,2.1-11.5c1.3-3.8,3.3-7,5.2-10.3
					c4-6.4,8.5-12.5,13.3-18.3c9.6-11.5,20-22.6,32.5-31.2c3.1-2.1,6.4-4,10-5.4c3.6-1.3,7.4-2.4,11.5-1.5c4,1.1,7,3.9,9.5,6.8
					c2.4,3,4.5,6.3,6.3,9.6c6.9,13.6,11,28.2,14.3,42.8c1.6,7.3,3,14.7,4.3,22.1C1144.1,1626,1145.4,1633.3,1146.4,1640.8z"/>
				<path fill="#F8B273" d="M1130.1,1571.5c0,0-8.6-26.8-24.2-24.5c-15.6,2.4-56.6,46.8-60.4,62.3c-3.6,14.6,7.2,23,16.2,27.2
					c9.2,4.3,48,18.3,84.6,4.2c0,0,2.2,11.1-20.2,13.1s-38.9-1.2-38.9-1.2s-39.4-7.7-47-22.6c-7.7-14.9-3.6-23.1-3.6-23.1
					s6.4-15.8,15-26.5c8.6-10.8,32.1-39,47.6-42s19.9,7.8,24.1,16.1S1130.1,1571.5,1130.1,1571.5z"/>
			</g>
			<g>
				<path fill="#DA765A" d="M734.1,1598.1l-6,123.8c-0.2,4.4-2.9,8.2-7,9.8c-16.8,6.6-59.8,26.5-59.3,58.5
					c0.7,44.8,116.4,27.2,141.8,12.8c21.9-12.4,16.8-99.9,20.1-166c3.9-77.2-3.2-91.9-46.8-92.9
					C727.2,1542.9,734.1,1598.1,734.1,1598.1z"/>
				<path fill="#DA765A" d="M934.8,1597.1l-2.1,175.1c-0.1,4.5-1.6,8.8-4.5,12.2c-12.1,14.5-44.1,57.1-31.7,88.6
					c16.7,42.2,81.6,7,106.4-20.3c24.8-27.2,25.8-22.6,29-85.5s4.7-148.7,4.7-148.7s7.3-52.2-55.5-52.2
					C932.5,1566.4,934.8,1597.1,934.8,1597.1z"/>
				<path fill="#DA765A" d="M390,1004.1c0,0,65.8,3.4,51.6,106.2c0,0-119.3,90.3-95.5,185.9c0,0,25.3,12.8,20.5,41.5
					s10.7,66.2-45.8,67S217.1,1311,265.3,1195C313.5,1079.1,363.2,1018.2,390,1004.1z"/>
				<g>
					<path fill="#FFEB7B" d="M1673.5,1262.5c18.9-276.2-27.7-656.6-143.5-775c0,0-226.2-196.1-721-200.5
						c-13.7-0.1-27.3,1.9-40.4,5.9c-81.8,25.1-373.5,135.5-411.1,444c-23.9,196.2-9.5,382.5,8.5,511.2l4.5,1.8l3.2,23.3l-3.9,1.4
						c13.9,91.5,28.6,147.8,28.6,147.8s20.7,148.3,372,212.3c0,0,293.1,66.2,420.7,44.8s435.6-56,473-323.9
						c2.7-19.7,5.1-40.3,7-61.7l-2.4-1l1.9-28.7L1673.5,1262.5z"/>
					<path fill="#F8B273" d="M1664,1355.6c2.8-20,5-39.9,7-61.7c0,0-2.5,0.2-2.4-1c0.8-8.9,1.3-19.6,1.9-28.7l3-1.7
						c18-273.8-27.7-651.6-141.1-772.3c-58.3,35.9-226.3,136.3-341.1,176.3c-5.1,1.8-10.1,3.4-14.9,5c0,0-10.2,10.2,0,51.1
						c10.2,40.9,17.5,874.3,14.6,956.8C1318.6,1658,1626.6,1623.4,1664,1355.6z"/>
					<path fill="#511F03" d="M1670.5,1264.2L1670.5,1264.2c-145,87.7-428.7,157.3-474,165.9c-36.4,6.9-149.8-10.8-418.8-65.1
						c-222.6-45-379.2-104.2-407.3-115.2l3.2,23.3l-3.9,1.4c1.6,0.7,155.1,65.5,402.9,115.6c235,47.5,351.2,66.9,405.5,66.9
						c9.5,0,17.1-0.6,23.1-1.7c46-8.7,321.5-71.7,469.7-161.4l-2.4-1L1670.5,1264.2z"/>
					<path fill="#FFF4BB" d="M1178.2,1457.1c9.5,0,17.1-0.6,23.1-1.7c46-8.7,321.5-71.7,469.7-161.4l-2.4-1
						c-156.4,95.3-477.1,158.6-477.1,158.6c-77.5,0.5-314.8-43.4-463-75.4c-207.3-44.8-354.8-103-354.8-103l-3.9,1.4
						c1.6,0.7,155.1,65.5,402.9,115.6C1007.6,1437.6,1123.9,1457.1,1178.2,1457.1z"/>
				</g>
				<g>
					<path fill="#F8B273" d="M1125.1,678c-2.2,0-4.4-0.5-6.4-1.7c-2.8-1.6-279.7-157.6-612-126.9c-7.1,0.6-13.3-4.5-13.9-11.6
						c-0.7-7.1,4.5-13.3,11.6-13.9c340.5-31.4,624.3,128.6,627.1,130.2c6.1,3.5,8.3,11.4,4.7,17.5
						C1133.9,675.7,1129.5,678,1125.1,678z"/>
				</g>
				<ellipse fill="#F8B273" cx="970.4" cy="406" rx="65.9" ry="33.5"/>
				<path fill="#511F03" d="M970.4,439.5c26.8,0,49.8-8.2,60.1-19.9c-1.4-9.4-11.8-23-60.1-25.5c0,0-44.9-2.2-60.8,24.8
					C919.5,431,943,439.5,970.4,439.5z"/>
				<path fill="#F8B273" d="M442.8,907.8c0,0-15.1-202.6,96.4-218.2C650.7,674,883,734.4,883,734.4s182.9,35.6,186.8,181.7
					c3.9,146.1,37.7,343.4-109.9,348.2c0,0-85.7,2.4-242.6-43.8c-156.8-46.3-263.2-78.8-266.6-184.5L442.8,907.8z"/>
				<path fill="#FFFFFF" d="M1069.9,916C1066,769.9,883,734.4,883,734.4s-214.8-55.8-330.5-46.2c-17,31.8-39.6,100.3-44.1,242.3
					v71.6c0,0-5.8,96.4,104.5,133c0,0,133.3,46.4,237.4,68.7c88.7,19,170.9,10.8,214.1-25.4C1084.9,1106.4,1072.2,1002.3,1069.9,916
					z"/>
				<path fill="#FFF8D8" d="M961,1212.9c0,0,14.6,0.7,55.3-9.7c0,0-27.5-0.7-67.5-3.5c-108.7-7.7-191.8-41.4-325.1-83.3
					s-86.2-243.8-71.6-340.2c8.2-54,43.8-77.3,73.6-87.3c-26.5-2-51.6-2.5-73.2-0.7c-17,31.8-39.6,100.3-44.1,242.3v71.6
					c0,0-5.8,96.4,104.5,133c0,0,133.3,46.4,237.4,68.7C889.5,1212,927.3,1215.1,961,1212.9z"/>
				<path fill="#511F03" d="M1265.4,1617.9L1265.4,1617.9c-6.2,0-11.3-5.1-11.3-11.3v-99.4c0-6.2,5.1-11.3,11.3-11.3h0
					c6.2,0,11.3,5.1,11.3,11.3v99.4C1276.7,1612.8,1271.6,1617.9,1265.4,1617.9z"/>
				<path fill="#511F03" d="M1320.9,1608.8L1320.9,1608.8c-6.2,0-11.3-5.1-11.3-11.3v-99.4c0-6.2,5.1-11.3,11.3-11.3l0,0
					c6.2,0,11.3,5.1,11.3,11.3v99.4C1332.2,1603.7,1327.1,1608.8,1320.9,1608.8z"/>
				<path fill="#511F03" d="M1376.2,1596.3L1376.2,1596.3c-6.2,0-11.3-5.1-11.3-11.3v-99.4c0-6.2,5.1-11.3,11.3-11.3l0,0
					c6.2,0,11.3,5.1,11.3,11.3v99.4C1387.6,1591.2,1382.5,1596.3,1376.2,1596.3z"/>
				<path fill="#511F03" d="M1514.7,864.3L1514.7,864.3c-6.2,0.9-11.9-3.4-12.8-9.6l-28.3-194.6c-0.9-6.2,3.4-11.9,9.6-12.8l0,0
					c6.2-0.9,11.9,3.4,12.8,9.6l28.3,194.6C1525.2,857.6,1520.9,863.4,1514.7,864.3z"/>
				<path fill="#511F03" d="M1566.3,834.2L1566.3,834.2c-6.2,0.9-11.9-3.4-12.8-9.6L1525.1,630c-0.9-6.2,3.4-11.9,9.6-12.8h0
					c6.2-0.9,11.9,3.4,12.8,9.6l28.3,194.6C1576.8,827.6,1572.4,833.3,1566.3,834.2z"/>
				
					<ellipse transform="matrix(0.24 -0.9708 0.9708 0.24 -92.1842 2344.8684)" fill="#511F03" cx="1451.5" cy="1231.3" rx="110.5" ry="83.7"/>
				<g>
					<g>
						<path fill="#511F03" d="M1227.3,1281.7l12.2,10l0,28.3l-12.2,17.4L1227.3,1281.7z M1261.5,1329.8l-31.9,9.5l12-17.3l16.7-5
							l7.8,6.2L1261.5,1329.8z M1262.1,1285.8l6-8.6l6.1,5l0.1,29.1l-6.1,8.7l-6.1-5L1262.1,1285.8z M1278.3,1311l16.5-4.9l12.2,10
							l-31.7,9.5l-4.6-3.8L1278.3,1311z M1308.9,1257.5l0.4,55.3l-12.2-10l-0.2-28.1L1308.9,1257.5z"/>
						<path fill="#511F03" d="M1229.6,1342.5c-1,0-2-0.5-2.6-1.3c-0.2-0.2-0.3-0.5-0.4-0.7c-0.1,0-0.2,0-0.3-0.1
							c-1.3-0.4-2.2-1.7-2.2-3.1l0-55.6c0-1.2,0.7-2.4,1.8-2.9c1.1-0.5,2.5-0.4,3.4,0.4l12.2,10c0.7,0.6,1.2,1.5,1.2,2.5l0,26.6
							l14.7-4.4c0.5-0.2,1.1-0.2,1.6-0.1l-0.1-28.1c0-0.7,0.2-1.3,0.6-1.9l6-8.6c0.5-0.7,1.3-1.2,2.2-1.3c0.9-0.1,1.8,0.1,2.5,0.7
							l6.1,5c0.7,0.6,1.2,1.5,1.2,2.5l0.1,25.7l16.3-4.9c0-0.1,0-0.1,0-0.2l-0.2-28.1c0-0.7,0.2-1.3,0.6-1.9l12-17.2
							c0.8-1.1,2.3-1.6,3.6-1.2c1.3,0.4,2.2,1.6,2.3,3l0.4,55.3c0,1.2-0.7,2.4-1.8,2.9c-0.2,0.1-0.3,0.1-0.5,0.2
							c0,0.3,0,0.6-0.1,0.9c-0.2,1.2-1.1,2.1-2.2,2.4l-31.7,9.5c-1,0.3-2.1,0.1-2.9-0.6l-4.3-3.5c-0.1,0.2-0.2,0.3-0.3,0.5l-4.7,6.6
							c-0.4,0.6-1,1-1.7,1.2l-31.9,9.6C1230.2,1342.5,1229.9,1342.5,1229.6,1342.5z M1243.6,1324.7l-6.2,8.9l22-6.6l2.3-3.2
							l-4.1-3.3L1243.6,1324.7z M1261.5,1329.8L1261.5,1329.8L1261.5,1329.8z M1230.5,1288.5l0,38.7l5.8-8.2l0-25.7L1230.5,1288.5z
							 M1275,1321.3l1,0.8l24.3-7.3l-6.3-5.1l-13.8,4.1L1275,1321.3z M1265.4,1313.4l2.3,1.9l3.5-5l-0.1-26.6l-2.3-1.8l-3.5,4.9
							L1265.4,1313.4z M1300.3,1301.2l5.8,4.7l-0.3-38.4l-5.7,8.1L1300.3,1301.2z"/>
					</g>
					<g>
						<path fill="#511F03" d="M1261.2,1256.4l-34,10.1l12.2-17.2l18.6-5.5l7.7,6.2L1261.2,1256.4z M1277.9,1237.9l16.4-4.9l12.2,9.9
							l-31.5,9.3l-4.6-3.7L1277.9,1237.9z M1308.3,1185.1l0.4,54.6l-12.2-9.9l-0.2-27.8L1308.3,1185.1z"/>
						<path fill="#511F03" d="M1227.2,1269.6c-1,0-2-0.5-2.6-1.3c-0.8-1.1-0.8-2.6,0-3.7l12.2-17.2c0.4-0.6,1-1,1.7-1.2l18.6-5.5
							c1-0.3,2.1-0.1,2.9,0.6l7.4,5.9c0.1-0.1,0.2-0.3,0.3-0.4l7.5-10.7c0.4-0.6,1-1,1.7-1.2l16.4-4.8c0-0.1,0-0.1,0-0.2l-0.2-27.8
							c0-0.7,0.2-1.3,0.6-1.9l11.9-16.9c0.8-1.1,2.2-1.6,3.6-1.2c1.3,0.4,2.2,1.6,2.2,3l0.4,54.6c0,1.2-0.7,2.4-1.8,2.9
							c-0.2,0.1-0.3,0.1-0.5,0.2c0,0.3,0,0.6-0.1,0.8c-0.2,1.2-1.1,2.1-2.2,2.4l-31.5,9.3c-1,0.3-2.1,0.1-2.9-0.6l-4.2-3.4
							c-0.1,0.2-0.2,0.3-0.3,0.4l-4.6,6.5c-0.4,0.6-1,1-1.7,1.2l-34,10.1C1227.9,1269.6,1227.5,1269.6,1227.2,1269.6z M1241.5,1252
							l-6.2,8.7l24-7.1l2.2-3.1l-4-3.2L1241.5,1252z M1261.2,1256.4L1261.2,1256.4L1261.2,1256.4z M1274.7,1248l0.9,0.8l24.1-7.1
							l-6.1-5l-13.7,4.1L1274.7,1248z M1299.8,1228.2l5.7,4.6l-0.3-37.8l-5.6,7.9L1299.8,1228.2z"/>
					</g>
					<g>
						<path fill="#511F03" d="M1257.9,1178.8l-18.5,5.4l-12.2-9.8l33.7-9.9l4.6,3.6L1257.9,1178.8z M1274.5,1160.6l33.5-9.8
							l-11.9,16.8l-18.6,5.4l-7.5-6.1L1274.5,1160.6z"/>
						<path fill="#511F03" d="M1239.4,1187.4c-0.7,0-1.4-0.2-2-0.7l-12.2-9.8c-0.9-0.8-1.4-2-1.1-3.1c0.2-1.2,1.1-2.1,2.2-2.4
							l33.7-9.9c1-0.3,2.1-0.1,2.9,0.6l4.3,3.4c0.1-0.1,0.2-0.3,0.2-0.4l4.5-6.3c0.4-0.6,1-1,1.7-1.2l33.5-9.8
							c1.3-0.4,2.7,0.1,3.5,1.2c0.8,1.1,0.8,2.6,0,3.7l-11.9,16.8c-0.4,0.6-1,1-1.7,1.2l-18.6,5.4c-1,0.3-2.1,0.1-2.9-0.6l-7.2-5.8
							c-0.1,0.1-0.2,0.3-0.2,0.4l-7.6,10.6c-0.4,0.6-1,1-1.7,1.2l-18.5,5.4C1240,1187.4,1239.7,1187.4,1239.4,1187.4z M1234,1175.8
							l6.1,4.9l15.9-4.7l5.2-7.2l-0.9-0.7L1234,1175.8z M1257.9,1178.8L1257.9,1178.8L1257.9,1178.8z M1274.4,1166.3l3.9,3.2
							l15.9-4.7l5.9-8.4l-23.6,6.9L1274.4,1166.3z"/>
					</g>
					<g>
						<path fill="#511F03" d="M1267.4,1089.6l6,4.8l0.2,40.4l-6,8.4l-6-4.9l-0.1-40.5L1267.4,1089.6z"/>
						<path fill="#511F03" d="M1267.6,1146.4c-0.7,0-1.4-0.3-2-0.7l-6-4.9c-0.8-0.6-1.2-1.5-1.2-2.5l-0.1-40.5
							c0-0.7,0.2-1.3,0.6-1.9l5.9-8.3c0.5-0.7,1.3-1.2,2.2-1.3c0.9-0.1,1.8,0.1,2.4,0.7l6,4.8c0.7,0.6,1.2,1.5,1.2,2.5l0.2,40.4
							c0,0.7-0.2,1.3-0.6,1.9l-6,8.4c-0.5,0.7-1.3,1.2-2.2,1.3C1267.9,1146.4,1267.8,1146.4,1267.6,1146.4z M1264.8,1136.8l2.2,1.8
							l3.4-4.7l-0.2-37.9l-2.2-1.7l-3.4,4.7L1264.8,1136.8z"/>
					</g>
					<g>
						<path fill="#511F03" d="M1257.6,1073.2l-16.2,4.7l-11.9-9.6l31-8.9l4.6,3.6L1257.6,1073.2z M1274,1055.4l30.9-8.9l-11.8,16.4
							l-16.1,4.7l-7.5-6L1274,1055.4z"/>
						<path fill="#511F03" d="M1241.4,1081.1c-0.7,0-1.4-0.2-2-0.7l-11.9-9.6c-0.9-0.8-1.4-2-1.1-3.1c0.2-1.2,1.1-2.1,2.3-2.4
							l31-8.9c1-0.3,2-0.1,2.9,0.6l4.3,3.3c0.1-0.1,0.1-0.2,0.2-0.4l4.4-6.2c0.4-0.6,1-1,1.7-1.2l30.9-8.9c1.3-0.4,2.7,0.1,3.5,1.2
							c0.8,1.1,0.8,2.6,0,3.7l-11.8,16.5c-0.4,0.6-1,1-1.7,1.2l-16.1,4.7c-1,0.3-2.1,0.1-2.9-0.6l-7.1-5.7c-0.1,0.1-0.1,0.2-0.2,0.4
							l-7.5,10.3c-0.4,0.6-1,1-1.7,1.2l-16.2,4.7C1242,1081.1,1241.7,1081.1,1241.4,1081.1z M1236.3,1069.6l5.9,4.7l13.5-3.9
							l5.1-6.9l-0.9-0.7L1236.3,1069.6z M1257.6,1073.2L1257.6,1073.2L1257.6,1073.2z M1273.9,1061l3.8,3.1l13.4-3.9l5.8-8l-21,6
							L1273.9,1061z"/>
					</g>
					<g>
						<path fill="#511F03" d="M1227.2,995.6l11.9,9.5l0,24.4l-11.9,16.4L1227.2,995.6z M1260.4,1038.9l-31,8.9l11.7-16.4l16.2-4.6
							l7.6,5.9L1260.4,1038.9z M1257.3,997.6l-16.1,4.6l-11.7-9.6l30.7-8.8l4.6,3.5L1257.3,997.6z M1273.6,980l30.6-8.7l-11.7,16.2
							l-15.9,4.5l-7.4-5.9L1273.6,980z M1276.8,1021.2l16.1-4.6l11.9,9.6l-30.9,8.9l-4.5-3.6L1276.8,1021.2z M1306.6,973l0.4,50.1
							l-11.9-9.5l-0.2-24.3L1306.6,973z"/>
						<path fill="#511F03" d="M1229.4,1051c-1,0-2-0.5-2.6-1.4c-0.1-0.2-0.2-0.4-0.3-0.6c-0.1,0-0.2-0.1-0.3-0.1
							c-1.3-0.4-2.2-1.7-2.2-3l0-50.3c0-1.2,0.7-2.4,1.8-2.9c0.2-0.1,0.3-0.1,0.5-0.2c0-0.2,0-0.4,0.1-0.6c0.2-1.2,1.1-2.1,2.3-2.4
							l30.7-8.8c1-0.3,2-0.1,2.8,0.5l4.2,3.3c0.1-0.1,0.1-0.2,0.2-0.3l4.4-6.1c0.4-0.6,1-1,1.7-1.2l30.6-8.7
							c1.3-0.4,2.7,0.1,3.5,1.2c0.1,0.1,0.2,0.2,0.2,0.4c0.2,0,0.3,0.1,0.5,0.1c1.3,0.4,2.2,1.6,2.2,3l0.4,50.1
							c0,1.2-0.7,2.4-1.8,2.9c-0.1,0.1-0.3,0.1-0.4,0.2c0,0.2,0,0.5-0.1,0.7c-0.2,1.2-1.1,2.1-2.3,2.4l-30.9,8.9
							c-1,0.3-2.1,0.1-2.9-0.6l-4.1-3.3c-0.1,0.1-0.2,0.3-0.2,0.4l-4.6,6.2c-0.4,0.6-1,1-1.7,1.2l-31,8.9
							C1230,1051,1229.7,1051,1229.4,1051z M1243.1,1034.2l-5.7,8l21.1-6.1l2.1-2.8l-3.9-3L1243.1,1034.2z M1260.4,1038.9
							L1260.4,1038.9L1260.4,1038.9z M1230.4,1002.3l0,33.7l5.5-7.5l0-21.8L1230.4,1002.3z M1273.8,1030.9l0.8,0.6l23.3-6.7
							l-5.8-4.6l-13.4,3.8L1273.8,1030.9z M1257.4,1023.6c0.7,0,1.4,0.2,2,0.7l7.3,5.7c0.1-0.1,0.1-0.2,0.2-0.4l7.4-10.2
							c0.4-0.6,1-1,1.7-1.2l16-4.6c0,0,0,0,0-0.1l-0.2-22.4l-14.2,4.1c-1,0.3-2.1,0.1-2.9-0.6l-7-5.6c-0.1,0.1-0.1,0.2-0.2,0.3
							l-7.5,10.2c-0.4,0.6-1,1-1.7,1.2l-16,4.6l0,22.6l14.2-4.1C1256.8,1023.6,1257.1,1023.6,1257.4,1023.6z M1298.3,1012l5.5,4.4
							l-0.3-33.5l-5.3,7.4L1298.3,1012z M1236.3,994l5.6,4.6l13.4-3.8l5-6.8l-0.8-0.6L1236.3,994z M1257.3,997.6L1257.3,997.6
							L1257.3,997.6z M1273.6,985.5l3.7,3l13.3-3.8l5.6-7.8l-20.7,5.9L1273.6,985.5z"/>
					</g>
					<g>
						<path fill="#511F03" d="M1252.8,949l-25.7-9l-4.2-16.5l38.4,13.3l1.6,6.1L1252.8,949z M1272.9,941l38.3,13.3l-16.1,9.4
							l-25.5-9l-2.6-10.3L1272.9,941z"/>
						<path fill="#511F03" d="M1295,966.9c-0.4,0-0.7-0.1-1.1-0.2l-25.5-9c-1-0.4-1.8-1.2-2-2.2l-2.4-9.3l-9.6,5.6
							c-0.8,0.5-1.8,0.6-2.7,0.3l-25.7-9c-1-0.4-1.8-1.2-2-2.2l-4.2-16.5c-0.3-1.1,0.1-2.4,0.9-3.2c0.9-0.8,2.1-1.1,3.2-0.7
							l38.4,13.4c1,0.4,1.8,1.2,2,2.2l1.4,5.2l5.5-3.1c0.8-0.5,1.8-0.6,2.6-0.2l38.3,13.3c1.2,0.4,2,1.5,2.1,2.7
							c0.1,1.2-0.5,2.4-1.6,3.1l-16.1,9.4C1296.2,966.8,1295.6,966.9,1295,966.9z M1272.2,952.2l22.5,8l8.8-5.2l-30.4-10.6l-2.6,1.5
							L1272.2,952.2z M1229.8,937.6l22.7,7.9l6.7-4l-0.6-2.1l-31.2-10.8L1229.8,937.6z"/>
					</g>
					<g>
						<path fill="#511F03" d="M1257,898.5l-15.9,4.5l-11.8-9.4l30.5-8.6l4.5,3.5L1257,898.5z M1273.1,881.3l30.4-8.5l-11.6,15.9
							l-15.9,4.5l-7.3-5.8L1273.1,881.3z"/>
						<path fill="#511F03" d="M1241.1,906.2c-0.7,0-1.4-0.2-2-0.7l-11.7-9.4c-0.9-0.7-1.4-2-1.1-3.1c0.2-1.2,1.1-2.1,2.3-2.4
							l30.5-8.6c1-0.3,2-0.1,2.8,0.5l4.2,3.2c0.1-0.1,0.1-0.2,0.2-0.3l4.4-6c0.4-0.6,1-1,1.7-1.2l30.4-8.5c1.3-0.4,2.7,0.1,3.5,1.3
							c0.8,1.1,0.8,2.6,0,3.7l-11.6,15.9c-0.4,0.6-1,1-1.7,1.2l-15.9,4.5c-1,0.3-2.1,0.1-2.9-0.6l-7-5.5c-0.1,0.1-0.1,0.2-0.2,0.3
							l-7.4,10c-0.4,0.6-1,1-1.7,1.2L1242,906C1241.7,906.1,1241.4,906.2,1241.1,906.2z M1236.2,895l5.6,4.4l13.3-3.7l4.9-6.6
							l-0.7-0.6L1236.2,895z M1257,898.5L1257,898.5L1257,898.5z M1273.2,886.7l3.7,2.9l13.2-3.7l5.5-7.5l-20.4,5.7L1273.2,886.7z"
							/>
					</g>
					<g>
						<path fill="#511F03" d="M1227.1,823.3l11.7,9.2l0,23.6l-11.7,15.8L1227.1,823.3z M1256.7,825.3l-15.8,4.4l-11.5-9.3l30.1-8.4
							l4.5,3.4L1256.7,825.3z M1260.5,825l5.8-7.8l5.8,4.6l0.1,26.7l-5.8,7.9l-5.9-4.6L1260.5,825z M1275.9,848.2l15.8-4.4l11.7,9.3
							l-30.3,8.5l-4.4-3.5L1275.9,848.2z M1305.2,801.6l0.4,48.4l-11.7-9.3l-0.2-23.5L1305.2,801.6z"/>
						<path fill="#511F03" d="M1227.1,875.2c-0.3,0-0.7-0.1-1-0.2c-1.3-0.4-2.2-1.7-2.2-3l0-48.7c0-1.2,0.7-2.3,1.8-2.9
							c0.2-0.1,0.3-0.1,0.5-0.2c0-0.2,0-0.3,0.1-0.5c0.2-1.2,1.1-2.1,2.3-2.4l30.1-8.4c1-0.3,2-0.1,2.8,0.5l4.5,3.4
							c0.4,0.3,0.7,0.7,0.9,1.1c0.5,0.1,1,0.3,1.4,0.6l5.8,4.6c0.8,0.6,1.2,1.5,1.2,2.5l0.1,23.3l15.3-4.3l-0.2-23.5
							c0-0.7,0.2-1.4,0.6-1.9l11.5-15.6c0.8-1.1,2.3-1.6,3.6-1.2c1.3,0.4,2.2,1.6,2.2,3l0.4,48.4c0,1.2-0.7,2.4-1.8,2.9
							c-0.1,0.1-0.3,0.1-0.4,0.2c0,0.2,0,0.4-0.1,0.6c-0.2,1.2-1.1,2.1-2.3,2.5l-30.3,8.5c-1,0.3-2.1,0.1-2.9-0.6l-4.4-3.5
							c-0.4-0.3-0.7-0.7-0.9-1.1c-0.5-0.1-1-0.3-1.4-0.6l-5.9-4.6c-0.8-0.6-1.2-1.5-1.2-2.5l-0.1-23.2l-15.3,4.3l0,23.4
							c0,0.7-0.2,1.4-0.6,1.9l-11.7,15.8C1229.1,874.7,1228.1,875.2,1227.1,875.2z M1230.3,830l0,32.3l5.3-7.1l0-21L1230.3,830z
							 M1273.1,857.5l0.7,0.6l22.7-6.4l-5.5-4.4l-13.1,3.7L1273.1,857.5z M1263.7,850.1l2,1.6l3.2-4.4l-0.1-24.1l-2-1.6l-3.2,4.3
							L1263.7,850.1z M1297.1,839.2l5.3,4.2l-0.3-32.1l-5.1,7L1297.1,839.2z M1236.3,821.8l5.4,4.3l13.1-3.6l4.8-6.4l-0.7-0.5
							L1236.3,821.8z M1256.7,825.3L1256.7,825.3L1256.7,825.3z"/>
					</g>
				</g>
				<path fill="#DA765A" d="M1479.2,1169.8c0,0-65.8,3.4-51.6,106.2c0,0,119.3,90.3,95.5,185.9c0,0-25.3,12.8-20.5,41.5
					s-10.7,66.2,45.8,67c56.5,0.7,103.7-93.8,55.5-209.7C1555.7,1244.8,1506,1183.9,1479.2,1169.8z"/>
				<g>
					<polygon fill="#511F03" points="816.7,1422.9 1052.5,1469.6 1052.5,1512.2 819.8,1463.7 					"/>
					<polygon fill="#F8B273" points="833.9,1452.7 832.3,1426.5 816.7,1422.9 819.8,1463.7 1052.5,1512.2 1052.5,1494.9 					"/>
				</g>
				<g>
					<g>
						<g>
							
								<ellipse transform="matrix(3.440763e-02 -0.9994 0.9994 3.440763e-02 -539.256 2690.2119)" fill="#F8B273" cx="1122.6" cy="1624.2" rx="14.4" ry="13.2"/>
						</g>
						<path fill="#511F03" d="M1124.9,1610c6.3,1.2,11,7.2,10.9,14.4c-0.1,7.2-5.1,13-11.4,14c-5.5-1.2-9.7-7.1-9.5-14.3
							C1114.9,1616.9,1119.3,1611,1124.9,1610z"/>
					</g>
					<g>
						<g>
							
								<ellipse transform="matrix(3.440763e-02 -0.9994 0.9994 3.440763e-02 -510.848 2628.0142)" fill="#F8B273" cx="1104.6" cy="1578.4" rx="14.4" ry="13.2"/>
						</g>
						<path fill="#511F03" d="M1106.9,1564.2c6.3,1.2,11,7.2,10.9,14.4c-0.1,7.2-5.1,13-11.4,14c-5.5-1.2-9.7-7.1-9.5-14.3
							C1097,1571.1,1101.3,1565.2,1106.9,1564.2z"/>
					</g>
					<g>
						<g>
							
								<ellipse transform="matrix(3.440763e-02 -0.9994 0.9994 3.440763e-02 -574.3711 2624.657)" fill="#F8B273" cx="1071.1" cy="1609.6" rx="14.4" ry="13.2"/>
						</g>
						<path fill="#511F03" d="M1073.4,1595.4c6.3,1.2,11,7.2,10.9,14.4c-0.1,7.2-5.1,13-11.4,14c-5.5-1.2-9.7-7.1-9.5-14.3
							C1063.5,1602.2,1067.8,1596.4,1073.4,1595.4z"/>
					</g>
					<path fill="#F8B273" d="M1146.1,1640.8c-2.3-14.8-5.6-29.4-9.7-43.8c-4.1-14.4-8.3-28.8-14.7-42.1c-1.7-3.3-3.5-6.5-5.6-9.4
						c-2.2-2.8-4.9-5.5-8.2-6.5c-3.3-0.9-7.1-0.2-10.5,1c-3.5,1.2-6.7,3-9.8,5c-6.3,4-11.8,9.1-17.1,14.4c-5.3,5.3-10,11.1-14.6,17
						c-4.5,5.9-8.8,12.1-12.5,18.5c-1.8,3.2-3.6,6.5-4.7,9.9c-1,3.5-1.7,7-1.7,10.6c0,3.5,0.7,7,2.2,10.2c1.5,3.1,3.7,5.9,6.5,8.1
						c5.7,4.3,12.4,7.8,19.1,10.6c13.6,5.7,28.3,8.9,43.1,9.7c7.4,0.3,14.9-0.1,22.3-1.1c3.7-0.3,7.4-1.3,10.6-3.1
						c1.6-0.9,3.1-2.1,4-3.6C1145.9,1644.5,1146.2,1642.6,1146.1,1640.8z M1146.4,1640.8c0.2,1.9-0.1,3.9-1.1,5.5
						c-1,1.7-2.5,2.9-4.1,3.9c-3.3,2-7,2.9-10.7,3.5c-7.4,1.4-14.9,2.2-22.5,2.4c-15.1,0.1-30.3-2.8-44.4-8.7c-7-3-13.8-6.3-20-11.1
						c-3.1-2.5-5.6-5.8-7.3-9.4c-1.6-3.7-2.4-7.7-2.3-11.6c0.1-3.9,0.8-7.8,2.1-11.5c1.3-3.8,3.3-7,5.2-10.3
						c4-6.4,8.5-12.5,13.3-18.3c9.6-11.5,20-22.5,32.5-31.2c3.1-2.1,6.4-4,10-5.4c3.6-1.3,7.4-2.4,11.5-1.5c4,1.1,7,3.9,9.5,6.8
						c2.4,3,4.5,6.3,6.3,9.6c6.9,13.6,11,28.2,14.3,42.8c1.6,7.3,3,14.7,4.3,22.1C1144,1626,1145.4,1633.3,1146.4,1640.8z"/>
					<path fill="#F8B273" d="M1130.1,1571.5c0,0-8.6-26.8-24.2-24.5c-15.6,2.4-56.6,46.8-60.4,62.3c-3.6,14.6,7.2,23,16.2,27.2
						c9.2,4.3,48,18.3,84.6,4.2c0,0,2.2,11.1-20.2,13.1c-22.4,2.1-38.9-1.2-38.9-1.2s-39.4-7.7-47-22.6c-7.7-14.9-3.6-23.1-3.6-23.1
						s6.4-15.8,15-26.5c8.6-10.8,32.1-39,47.6-42c15.5-2.9,19.9,7.8,24.1,16.1C1127.3,1563,1130.1,1571.5,1130.1,1571.5z"/>
				</g>
			</g>
		</g>
		<g>
			<path fill="#3A00DB" d="M1492.1,1343.9c-130.4,47.2-271.5,62.3-301.5,68c-36.4,6.9-144.2,7.2-413.3-47.1
				c-245.2-49.6-410.4-116.4-412-117l8.6,54.7c1.6,0.7,142.6,52.2,390.5,102.3c235,47.5,361.1,59.4,415.4,59.4c9.5,0,7.7,1.1,13.7,0
				c31.8-6,185.7-36.4,318.9-85.2C1508,1370.4,1497.5,1351.6,1492.1,1343.9z"/>
			<path fill="#3A00DB" d="M1580.5,1309c3.9,8,10.7,22.8,14.7,31.6c28.4-12.8,51.5-25,75-39.2l3.2-39.2
				C1646.4,1278.4,1614.6,1294.1,1580.5,1309z"/>
			<g>
				<path fill="#FCD746" d="M1500.9,1358.1c-73.8,26.8-173.8,53.9-304.7,71.7c0,0-169.1,12.3-504.8-69.9
					c-312.3-76.5-323.6-96.9-323.6-96.9l4.4,28.2c0,0,542.6,167.9,820.6,161.9c0,0,162.4-28.1,314.9-83.4
					C1505.6,1365.9,1503.2,1361.9,1500.9,1358.1z"/>
				<path fill="#FCD746" d="M1586.6,1322.2l5.9,12.8c28.2-13,54.7-27.1,78.3-42.2l1.8-22C1672.6,1270.9,1646.5,1293.3,1586.6,1322.2
					z"/>
			</g>
		</g>
		<g>
			<polygon opacity="0.47" fill="#081613" points="437.7,1125.2 344.7,996.5 345.8,1023.6 345.8,1023.6 347.1,1067.4 347.1,1067.4 
				347.4,1083.6 392.3,1158.8 408.5,1244.6 400.6,1242.9 389.8,1247.7 381.6,1315.2 478.5,1345 488.7,1340.8 497,1263.3 
				478.8,1259.4 			"/>
			<path opacity="0.47" fill="#081613" d="M1673.8,1019.7c-254.6-33.7-479.3,76.1-479.3,76.1l-88.1,135.2l-65.3,146.9l-13.3-0.7
				l-8.2,5.5l3.8,77.9l100,13.7l10.9-12v-79.6l-20.4-1.1l35.1-111.4l46.5-97.6c101.1-99.5,480.5-106.6,480.5-106.6l-2.9-16.6l0,0
				l0.6-18.4l0,0L1673.8,1019.7z"/>
		</g>
		<g>
			<g>
				
					<path fill="#041C16" stroke="#041C16" stroke-width="3.7649" stroke-linecap="round" stroke-linejoin="round" stroke-miterlimit="10" d="
					M596,916.5c-21.9,0-39.6,17.7-39.6,39.6c0,2.2,0.2,4.3,0.6,6.4c13.1,4.3,37.9,14.5,46.2,32.5c18.5-3.4,32.5-19.5,32.5-39
					C635.6,934.3,617.9,916.5,596,916.5z"/>
				
					<ellipse transform="matrix(0.2005 -0.9797 0.9797 0.2005 -544.0112 1352.0804)" fill="#FDE0DA" cx="556.4" cy="1009.3" rx="15.5" ry="40.4"/>
				
					<ellipse transform="matrix(0.1129 -0.9936 0.9936 0.1129 -233.1188 1894.5073)" fill="#FDE0DA" cx="944.5" cy="1077.8" rx="15.5" ry="40.4"/>
				<g>
					
						<path fill="#041C16" stroke="#041C16" stroke-width="3.7649" stroke-linecap="round" stroke-linejoin="round" stroke-miterlimit="10" d="
						M752.4,1037.4c-2.7,0-5.4-0.2-8.3-0.7c-32.5-5.3-38-33.2-36.4-47.3c0.4-3.2,3.3-5.6,6.5-5.2c3.2,0.4,5.5,3.3,5.2,6.5
						c-0.3,3.1-2.3,29.6,26.6,34.3c8.7,1.4,15.8,0.1,20.9-4c9.2-7.2,10.4-20.9,10.4-21.1c0.3-3.2,3.1-5.7,6.3-5.4
						c3.2,0.2,5.7,3.1,5.4,6.3c-0.1,0.8-1.5,18.9-14.8,29.4C768.3,1035,760.9,1037.4,752.4,1037.4z"/>
				</g>
				
					<path fill="#041C16" stroke="#041C16" stroke-width="3.7649" stroke-linecap="round" stroke-linejoin="round" stroke-miterlimit="10" d="
					M948,1021.4c0.3-1.2,0.5-2.5,0.6-3.7c2.5-21.8-13.2-41.4-34.9-43.9c-21.7-2.5-41.4,13.2-43.9,34.9c-2.4,21,12.1,39.9,32.6,43.5
					C911.6,1035.1,935.4,1025.4,948,1021.4z"/>
			</g>
			<g>
				<path opacity="0.12" fill="#081613" d="M731.1,1031.9C731.1,1031.9,731.1,1031.8,731.1,1031.9c0-0.1-0.2-0.1-0.7-0.3
					c-0.4-0.2-0.7-0.3-1.1-0.5c-2.8-1.4-8.2-5-13.5-13.8c0,0-16.5,12.4-6,22.8c4.5,4.5,9.1,3.6,12.8,1.1c-0.7,8.1,1,17.7,12.4,20.5
					c20.6,5,19.5-24.6,19.5-24.6S745.9,1038.5,731.1,1031.9z"/>
				<path fill="#F2E9D1" d="M724.9,1027.3c0,0-11,27.5,9.6,32.5c20.6,5,19.5-24.6,19.5-24.6S743.2,1037.1,724.9,1027.3z"/>
				<path fill="#F2E9D1" d="M715.3,1015.4c0,0-16.5,12.4-6,22.8c10.5,10.4,21.3-8.2,21.3-8.2S722.7,1027.8,715.3,1015.4z"/>
				<path opacity="0.12" fill="#081613" d="M750.9,1039.5c0,0-26.2,2.4-38.6-21.5l3.9-5l35.3,20.7L750.9,1039.5z"/>
				<path opacity="0.12" fill="#081613" d="M722.1,1039.3c0,0,0.7-3.7,1.9-6.7c0,0-6.3,9.1-14.7,5.6
					C709.3,1038.2,714.9,1044.5,722.1,1039.3z"/>
				<path opacity="0.12" fill="#081613" d="M733.1,1059.4c0,0,16.5-1.8,18.5-24.3l2.4,0.1C754,1035.1,754.9,1066.7,733.1,1059.4z"/>
				<path fill="#041C16" d="M711.9,1011.3c0,0,4.4,28.5,45.6,27.2l-2.4-5.5c0,0-35.7-8.9-38.4-21.3L711.9,1011.3z"/>
			</g>
		</g>
		<g>
			<polygon opacity="0.51" fill="#081613" points="505.9,1519.4 796.4,1592.5 791.9,1447.5 495.7,1377.2 			"/>
			<polygon fill="#8CC63F" points="513.8,1512.8 788,1583.2 782.6,1453.2 505.3,1389.1 			"/>
			<g>
				<g>
					<path opacity="0.78" fill="#081613" d="M948.3,1531.8c-3.2,31.5,42.6,37,46.9,5.6C998.5,1505.8,952.6,1500.4,948.3,1531.8z"/>
					<path fill="#FFF4F4" d="M951.5,1532.2c-0.4,4.2,0.5,8.6,3.3,11.8c2.7,3.2,6.8,5,10.8,5.3c4,0.3,8.1-0.9,11.1-3.4
						c3-2.5,4.7-6.2,5.2-10c0.4-3.9-0.4-7.9-2.7-11c-2.3-3.1-5.9-5.3-10-5.9c-4-0.6-8.3,0.1-11.7,2.6
						C954.1,1523.9,952.1,1528,951.5,1532.2z M951.5,1532.2c0.5-4.2,2.4-8.3,5.7-11c3.3-2.8,7.8-4.1,12.2-3.7
						c4.4,0.4,8.8,2.3,11.8,5.8c3,3.5,4.1,8.4,3.6,12.9c-0.6,4.5-2.8,9-6.5,11.7c-3.7,2.7-8.5,3.6-12.8,2.9c-4.3-0.7-8.4-3-10.9-6.5
						C951.9,1540.8,951.1,1536.3,951.5,1532.2z"/>
					<path fill="#8CC63F" d="M952.5,1532.3c-2.1,16,22.5,18.9,24.1,2.9C978.7,1519.2,954.1,1516.3,952.5,1532.3z"/>
				</g>
				<g>
					<path opacity="0.78" fill="#081613" d="M887.5,1520.2c-3.2,31.5,42.6,37,46.9,5.6C937.6,1494.2,891.7,1488.8,887.5,1520.2z"/>
					<path fill="#FFF4F4" d="M890.7,1520.6c-0.4,4.2,0.5,8.6,3.3,11.8c2.7,3.2,6.8,5,10.8,5.3c4,0.3,8.1-0.9,11.1-3.4
						c3-2.5,4.7-6.2,5.2-10c0.4-3.9-0.4-7.9-2.7-11c-2.3-3.1-5.9-5.3-10-5.9c-4-0.6-8.3,0.1-11.7,2.6
						C893.2,1512.3,891.3,1516.4,890.7,1520.6z M890.7,1520.6c0.5-4.2,2.4-8.3,5.7-11c3.3-2.8,7.8-4.1,12.2-3.7
						c4.4,0.4,8.8,2.3,11.8,5.8c3,3.5,4.1,8.4,3.6,12.9c-0.6,4.5-2.8,9-6.5,11.7c-3.7,2.7-8.5,3.6-12.8,2.9c-4.3-0.7-8.4-3-10.9-6.5
						C891.1,1529.2,890.2,1524.8,890.7,1520.6z"/>
					<path fill="#8CC63F" d="M891.6,1520.7c-2.1,16,22.5,18.9,24.1,2.9C917.9,1507.6,893.3,1504.7,891.6,1520.7z"/>
				</g>
				<g>
					<path opacity="0.78" fill="#081613" d="M827.7,1509.1c-3.2,31.5,42.6,37,46.9,5.6C877.9,1483.1,832,1477.7,827.7,1509.1z"/>
					<path fill="#FFF4F4" d="M831,1509.5c-0.4,4.2,0.5,8.6,3.3,11.8c2.7,3.2,6.8,5,10.8,5.3c4,0.3,8.1-0.9,11.1-3.4
						c3-2.5,4.7-6.2,5.2-10c0.4-3.9-0.4-7.9-2.7-11c-2.3-3.1-5.9-5.3-10-5.9c-4-0.6-8.3,0.1-11.7,2.6
						C833.5,1501.2,831.5,1505.3,831,1509.5z M831,1509.5c0.5-4.2,2.4-8.3,5.7-11c3.3-2.8,7.8-4.1,12.2-3.7
						c4.4,0.4,8.8,2.3,11.8,5.8c3,3.5,4.1,8.4,3.6,12.9c-0.6,4.5-2.8,9-6.5,11.7c-3.7,2.7-8.5,3.6-12.8,2.9c-4.3-0.7-8.4-3-10.9-6.5
						C831.3,1518.1,830.5,1513.7,831,1509.5z"/>
					<path fill="#8CC63F" d="M831.9,1509.6c-2.1,16,22.5,18.9,24.1,2.9C858.2,1496.5,833.6,1493.6,831.9,1509.6z"/>
				</g>
			</g>
			<g>
				<polygon fill="#FFFFFF" points="768.3,1514.1 750.7,1510.7 733.2,1507.3 732.9,1507.2 732.7,1506.9 718.1,1483.3 720.1,1483.1 
					714.7,1499.5 709.4,1515.8 707.7,1520.7 706.4,1515.7 699.6,1489.5 692.8,1463.2 696.7,1463.4 685.7,1493.7 674.6,1523.9 
					670.8,1534.3 669.8,1523.2 666.6,1486.5 663.5,1449.7 668.8,1450.1 660,1484.4 651,1518.6 648.2,1529.4 645.8,1518.5 
					638.8,1487.5 631.9,1456.4 636.8,1456.7 626.7,1484 616.5,1511.3 613.3,1519.7 612.3,1510.9 608.5,1479.6 604.8,1448.3 
					607.9,1448.4 605,1465.9 601.9,1483.4 601.7,1484.6 600.6,1484.3 571.8,1477.6 557.5,1474.2 543.2,1470.8 557.6,1473.5 
					572.1,1476.4 601,1482.1 599.7,1483 602.2,1465.4 604.8,1447.9 606.4,1437 608,1447.9 612.3,1479.1 616.6,1510.3 612.4,1509.8 
					622.2,1482.4 632,1455 635,1446.9 636.9,1455.3 644,1486.3 651,1517.3 645.8,1517.2 654.6,1483 663.6,1448.8 667.6,1433.5 
					668.9,1449.2 671.9,1486 674.7,1522.8 670,1522.2 681.4,1492 692.9,1461.9 695.3,1455.7 696.8,1462.2 703.1,1488.6 709.4,1515 
					706.5,1514.9 712.2,1498.6 718,1482.4 718.8,1480.1 720,1482.2 733.9,1506.2 733.5,1505.8 750.9,1509.9 				"/>
			</g>
			<polygon opacity="0.22" fill="#081613" points="514,1391.2 505.3,1389.1 513.8,1512.8 788,1583.2 787.4,1569.9 523,1506 			"/>
			<polygon opacity="0.78" fill="#081613" points="495.7,1377.2 505.3,1373.4 800.3,1441.8 803.5,1585.9 796.4,1592.5 791.9,1447.5 
							"/>
			<polygon opacity="0.31" fill="#FFFFFF" points="630.3,1418 568.9,1527 630.3,1542.7 692.5,1432.4 			"/>
			<polygon opacity="0.31" fill="#FFFFFF" points="601.4,1411.3 536.3,1518.6 518.8,1514.1 584.9,1407.5 			"/>
		</g>
		<g>
			<polygon fill="#FFFFFF" points="97,801.8 97,796.9 101.9,796.9 101.9,792 292,792 292,796.9 296.9,796.9 296.9,801.8 
				316.4,801.8 316.4,806.7 321.2,806.7 321.2,850.5 316.4,850.5 316.4,855.4 311.5,855.4 311.5,860.3 292,860.3 292,865.1 
				287.1,865.1 287.1,874.9 282.2,874.9 282.2,879.8 277.4,879.8 277.4,884.6 272.5,884.6 272.5,865.1 267.6,865.1 267.6,860.3 
				82.4,860.3 82.4,855.4 77.5,855.4 77.5,850.5 72.6,850.5 72.6,806.7 77.5,806.7 77.5,801.8 			"/>
			<g>
				<g>
					<rect x="77.5" y="796.9" fill="#07042D" width="19.5" height="4.9"/>
					<rect x="101.9" y="787.2" fill="#07042D" width="190.1" height="4.9"/>
					
						<rect x="311.5" y="855.4" transform="matrix(-1 -1.224647e-16 1.224647e-16 -1 627.8586 1715.6683)" fill="#07042D" width="4.9" height="4.9"/>
					
						<rect x="316.4" y="850.5" transform="matrix(-1 -1.224647e-16 1.224647e-16 -1 637.6075 1705.9194)" fill="#07042D" width="4.9" height="4.9"/>
					
						<rect x="296.9" y="796.9" transform="matrix(-1 -1.224647e-16 1.224647e-16 -1 613.2352 1598.6812)" fill="#07042D" width="19.5" height="4.9"/>
					
						<rect x="316.4" y="801.8" transform="matrix(-1 -1.224647e-16 1.224647e-16 -1 637.6075 1608.4303)" fill="#07042D" width="4.9" height="4.9"/>
					
						<rect x="292" y="792" transform="matrix(-1 -1.224647e-16 1.224647e-16 -1 588.863 1588.9321)" fill="#07042D" width="4.9" height="4.9"/>
					
						<rect x="77.5" y="855.4" transform="matrix(-1 -1.224647e-16 1.224647e-16 -1 159.9102 1715.6683)" fill="#07042D" width="4.9" height="4.9"/>
					
						<rect x="72.6" y="850.5" transform="matrix(-1 -1.224647e-16 1.224647e-16 -1 150.1613 1705.9194)" fill="#07042D" width="4.9" height="4.9"/>
					
						<rect x="72.6" y="801.8" transform="matrix(-1 -1.224647e-16 1.224647e-16 -1 150.1613 1608.4303)" fill="#07042D" width="4.9" height="4.9"/>
					
						<rect x="97" y="792" transform="matrix(-1 -1.224647e-16 1.224647e-16 -1 198.9061 1588.9321)" fill="#07042D" width="4.9" height="4.9"/>
					
						<rect x="292" y="860.3" transform="matrix(-1 -1.224647e-16 1.224647e-16 -1 603.4863 1725.4172)" fill="#07042D" width="19.5" height="4.9"/>
					
						<rect x="82.4" y="860.3" transform="matrix(-1 -1.224647e-16 1.224647e-16 -1 350.0143 1725.4172)" fill="#07042D" width="185.2" height="4.9"/>
					
						<rect x="321.2" y="806.7" transform="matrix(-1 -1.224647e-16 1.224647e-16 -1 647.3564 1657.1748)" fill="#07042D" width="4.9" height="43.9"/>
					
						<rect x="67.8" y="806.7" transform="matrix(-1 -1.224647e-16 1.224647e-16 -1 140.4124 1657.1748)" fill="#07042D" width="4.9" height="43.9"/>
					<g>
						<rect x="262.7" y="889.5" fill="#07042D" width="4.9" height="4.9"/>
						<rect x="282.2" y="874.9" fill="#07042D" width="4.9" height="4.9"/>
						<rect x="287.1" y="865.1" fill="#07042D" width="4.9" height="9.7"/>
						<rect x="272.5" y="884.6" fill="#07042D" width="4.9" height="4.9"/>
						<rect x="277.4" y="879.8" fill="#07042D" width="4.9" height="4.9"/>
						<rect x="267.6" y="865.1" fill="#07042D" width="4.9" height="24.4"/>
					</g>
				</g>
				<g>
					<g>
						<rect x="287.1" y="816.4" fill="#07042D" width="4.9" height="9.7"/>
						<rect x="306.6" y="816.4" fill="#07042D" width="4.9" height="9.7"/>
						<rect x="301.7" y="826.2" fill="#07042D" width="4.9" height="4.9"/>
						<rect x="296.8" y="831" fill="#07042D" width="4.9" height="4.9"/>
						
							<rect x="296.8" y="840.8" transform="matrix(6.123234e-17 -1 1 6.123234e-17 -543.9672 1142.4543)" fill="#07042D" width="4.9" height="4.9"/>
						
							<rect x="296.8" y="806.7" transform="matrix(6.123234e-17 -1 1 6.123234e-17 -514.7209 1113.208)" fill="#07042D" width="4.9" height="14.6"/>
					</g>
					<g>
						<g>
							<rect x="82.4" y="811.5" fill="#07042D" width="4.9" height="34.1"/>
							<rect x="87.3" y="816.4" fill="#07042D" width="4.9" height="9.7"/>
							<rect x="92.1" y="821.3" fill="#07042D" width="4.9" height="9.7"/>
							<rect x="97" y="831" fill="#07042D" width="4.9" height="4.9"/>
							<rect x="101.9" y="811.5" fill="#07042D" width="4.9" height="34.1"/>
						</g>
						<g>
							<rect x="111.6" y="826.2" fill="#07042D" width="4.9" height="14.6"/>
							
								<rect x="118.9" y="838.3" transform="matrix(6.123234e-17 -1 1 6.123234e-17 -721.8849 964.5366)" fill="#07042D" width="4.9" height="9.7"/>
							
								<rect x="118.9" y="818.8" transform="matrix(6.123234e-17 -1 1 6.123234e-17 -702.3871 945.0388)" fill="#07042D" width="4.9" height="9.7"/>
							
								<rect x="123.8" y="828.6" transform="matrix(6.123234e-17 -1 1 6.123234e-17 -702.3873 959.6622)" fill="#07042D" width="9.7" height="4.9"/>
							
								<rect x="118.9" y="828.6" transform="matrix(6.123234e-17 -1 1 6.123234e-17 -712.136 954.7877)" fill="#07042D" width="4.9" height="9.7"/>
						</g>
						<g>
							<rect x="135.9" y="826.2" fill="#07042D" width="4.9" height="14.6"/>
							
								<rect x="143.3" y="838.3" transform="matrix(6.123234e-17 -1 1 6.123234e-17 -697.5128 988.9088)" fill="#07042D" width="4.9" height="9.7"/>
							
								<rect x="143.3" y="818.8" transform="matrix(6.123234e-17 -1 1 6.123234e-17 -678.015 969.4109)" fill="#07042D" width="4.9" height="9.7"/>
							
								<rect x="148.1" y="828.6" transform="matrix(6.123234e-17 -1 1 6.123234e-17 -678.015 984.0345)" fill="#07042D" width="9.7" height="4.9"/>
							
								<rect x="143.3" y="828.6" transform="matrix(6.123234e-17 -1 1 6.123234e-17 -687.7639 979.1599)" fill="#07042D" width="4.9" height="9.7"/>
						</g>
						<g>
							<rect x="160.3" y="826.1" fill="#07042D" width="4.9" height="14.6"/>
							<rect x="174.9" y="811.5" fill="#07042D" width="4.9" height="34.1"/>
							
								<rect x="167.6" y="818.8" transform="matrix(6.123234e-17 -1 1 6.123234e-17 -653.6403 993.7808)" fill="#07042D" width="4.9" height="9.7"/>
							
								<rect x="167.6" y="838.3" transform="matrix(6.123234e-17 -1 1 6.123234e-17 -673.1381 1013.2786)" fill="#07042D" width="4.9" height="9.7"/>
						</g>
					</g>
					<g>
						<g>
							<rect x="194.4" y="811.5" fill="#07042D" width="4.9" height="34.1"/>
							
								<rect x="204.2" y="821.3" transform="matrix(6.123234e-17 -1 1 6.123234e-17 -621.9275 1035.2473)" fill="#07042D" width="4.9" height="14.7"/>
							<rect x="214" y="811.5" fill="#07042D" width="4.9" height="34.1"/>
						</g>
						<g>
							<rect x="262.7" y="826.2" fill="#07042D" width="4.9" height="29.2"/>
							<rect x="277.3" y="826.2" fill="#07042D" width="4.9" height="9.7"/>
							
								<rect x="270" y="833.5" transform="matrix(6.123234e-17 -1 1 6.123234e-17 -565.9023 1110.7704)" fill="#07042D" width="4.9" height="9.7"/>
							
								<rect x="270" y="818.8" transform="matrix(6.123234e-17 -1 1 6.123234e-17 -551.2789 1096.147)" fill="#07042D" width="4.9" height="9.7"/>
						</g>
						<g>
							<rect x="223.7" y="826.2" fill="#07042D" width="4.9" height="14.6"/>
							
								<rect x="231" y="838.3" transform="matrix(6.123234e-17 -1 1 6.123234e-17 -609.7724 1076.6492)" fill="#07042D" width="4.9" height="9.7"/>
							
								<rect x="231" y="818.8" transform="matrix(6.123234e-17 -1 1 6.123234e-17 -590.2746 1057.1514)" fill="#07042D" width="4.9" height="9.7"/>
							
								<rect x="235.9" y="828.6" transform="matrix(6.123234e-17 -1 1 6.123234e-17 -590.2747 1071.7748)" fill="#07042D" width="9.7" height="4.9"/>
							
								<rect x="231" y="828.6" transform="matrix(6.123234e-17 -1 1 6.123234e-17 -600.0235 1066.9003)" fill="#07042D" width="4.9" height="9.7"/>
						</g>
						<rect x="248" y="811.5" fill="#07042D" width="4.9" height="29.2"/>
						
							<rect x="252.9" y="840.7" transform="matrix(6.123234e-17 -1 1 6.123234e-17 -587.8624 1098.5592)" fill="#07042D" width="4.9" height="4.9"/>
					</g>
				</g>
			</g>
		</g>
		<g>
			<defs>
				<path id="SVGID_192_" d="M260.3,1207.5l85.7,88.7c0,0,25.3,12.8,20.5,41.5l16.7,17.2c0,0-21-108.3-24.4-180.8
					c-3.5-72.5-14.1-140.4-13.8-176c0.2-34.7-291.3-211.7-291.3-211.7l-93.5,134l171.6,336.2L260.3,1207.5z"/>
			</defs>
			<clipPath id="SVGID_1_">
				<use xlink:href="#SVGID_192_"  overflow="visible"/>
			</clipPath>
			<g clip-path="url(#SVGID_1_)">
				<g>
					<path fill="#FFF4C0" d="M417.9,1080.6L280,1214.4l-101-104.1l-74.7-198.6c-4.9-13,8.3-25.5,21-19.9l193,84.7L417.9,1080.6z"/>
				</g>
				<g>
					<polygon fill="#EAA149" points="560.2,1219.2 632.6,1293.8 625.8,1300.4 635.3,1310.1 501.9,1439.5 492.4,1429.7 486.9,1435.1 
						414.6,1360.5 					"/>
				</g>
				<g>
					<path fill="#FF776F" d="M621,1295.4l40.4,41.7c22.9,23.6,22.3,61.2-1.3,84l-48,46.6c-23.6,22.9-61.2,22.3-84-1.3l-40.4-41.7
						L621,1295.4z"/>
				</g>
				<g>
					<path fill="#FF4F76" d="M654.1,1418.5l-6.2,6c-21.6,21-56.2,20.5-77.2-1.2l-36.1-37.2l84.5-82l36.1,37.2
						C676.3,1362.9,675.8,1397.5,654.1,1418.5z"/>
				</g>
				<g>
					<polygon fill="#FCD746" points="578.5,1234.2 430,1378.3 180,1111.1 236.1,1078.1 277,1073.9 318.8,981.8 					"/>
				</g>
				<g>
					<polygon fill="#F26705" points="578.5,1234.2 521.2,1289.8 286.7,1028 318.4,976.3 					"/>
				</g>
				<g>
					<polygon fill="#FFAB01" points="535.4,1276.1 478.1,1331.7 236.1,1078.1 275.8,1069.7 286.7,1028 					"/>
				</g>
				<g>
					<path fill="#F9E5C8" d="M591.6,1236.5L432,1391.3l-11.2-11.6c-2.8-2.9-2.7-7.5,0.2-10.3L569.8,1225c3-2.9,7.8-2.8,10.7,0.2
						L591.6,1236.5z"/>
				</g>
				<g>
					<path fill="#F9E5C8" d="M624.8,1270.7l9.6,9.9c3.7,3.8,3.6,9.9-0.2,13.6l-146.9,142.5c-3.2,3.1-8.3,3-11.3-0.2l-10.8-11.1
						L624.8,1270.7z"/>
				</g>
				<g>
					
						<rect x="416.5" y="1310.8" transform="matrix(0.7177 -0.6963 0.6963 0.7177 -778.1517 743.2344)" fill="#F9E5C8" width="222.3" height="41.2"/>
				</g>
				<g>
					<path fill="#041C16" d="M162.3,930.4c4.8-4.9,9.5-10.3,13.5-16.2l-50.5-22.3c-12.7-5.6-25.9,6.9-21,19.9l17.3,46
						C137,951.9,150.9,941.9,162.3,930.4z"/>
				</g>
				<g opacity="0.14">
					<path fill="#EAA149" d="M616.5,1303.7l-62.8,61c-9.3,9-24.1,8.8-33-0.5l-28.5-29.4c-9-9.3-8.8-24.1,0.5-33l62.8-61
						c9.3-9,24.1-8.8,33,0.5l28.5,29.4C626,1279.9,625.8,1294.7,616.5,1303.7z"/>
				</g>
			</g>
			<g clip-path="url(#SVGID_1_)">
				<circle fill="#041C16" cx="190.9" cy="1035.4" r="9.5"/>
				<circle fill="#041C16" cx="248.3" cy="985.3" r="9.5"/>
				<g>
					<path fill="#011D16" d="M229.4,1018.3c-0.4,0.5-0.9,1-1.4,1.5c-5.8,5.3-11.9,2.1-14.3-0.3c-0.5-0.6-0.5-1.5,0-2
						c0.6-0.5,1.4-0.5,2,0c0.5,0.5,5.2,4.9,10.4,0.2c1.6-1.4,2.4-2.9,2.4-4.5c0-2.8-2.4-5.1-2.4-5.1c-0.6-0.5-0.6-1.4-0.1-2
						c0.5-0.6,1.4-0.6,2-0.1c0.1,0.1,3.3,3.1,3.3,7.1C231.3,1014.9,230.7,1016.7,229.4,1018.3z"/>
				</g>
				
					<ellipse transform="matrix(0.7676 -0.641 0.641 0.7676 -628.0516 370.9021)" fill="#FDE0DA" cx="197.4" cy="1051.4" rx="9.7" ry="3.7"/>
				
					<ellipse transform="matrix(0.7078 -0.7064 0.7064 0.7078 -622.0526 477.555)" fill="#FDE0DA" cx="266.2" cy="990.7" rx="9.7" ry="3.7"/>
			</g>
		</g>
		<g>
			<g>
				<defs>
					<path id="SVGID_194_" d="M728.9,1701.6l0.3,12.8c0,0,8.3-2.8,14.1-0.3s10.3,8.9,10.9,15.4c0,0,24,11.3,49.7,6.1
						c0,0,10.7-0.9,17.2-6.2l1-33.2c0,0,37.7-19.9,30.7,37.1c-7,57-63,165.2-161.1,124.9s-31.8-156.8-31.6-156.1
						c0.1,0.7,0.1,0.7,0.1,0.7L728.9,1701.6z"/>
				</defs>
				<clipPath id="SVGID_2_">
					<use xlink:href="#SVGID_194_"  overflow="visible"/>
				</clipPath>
				<g clip-path="url(#SVGID_2_)">
					<path fill="#CFDFEB" d="M796.1,1795.4c-68.6,25.8-138.8,24.1-144.6-23.1c-0.1,0.4-0.2,0.8-0.2,1.3c-0.4,2.1-0.5,4.2-0.4,6.3
						c2.6,53.5,82.2,53.4,155.7,22.6c0.5-0.2,1-0.4,1.5-0.7c14.5-7.5,23.6-22,27.9-38.6C826.4,1778,812.4,1789.3,796.1,1795.4z"/>
					<path fill="#F2FAFF" d="M679.8,1747.5c-13.4,4.3-24.7,7.1-28.3,24.7c3.9,32.2,37.7,43.2,80.5,38.8
						C728.2,1781.9,708.5,1756.6,679.8,1747.5z"/>
					<path fill="#F2FAFF" d="M836,1763.1c1.4-5.4,2.3-11,2.7-16.7c-17.3-0.4-34.9,16.1-41.3,40c-0.8,3.1-1.4,6.2-1.8,9.3
						c0.2-0.1,0.4-0.1,0.5-0.2C812.4,1789.3,826.4,1778,836,1763.1z"/>
					<g>
						<path fill="#CFDFEB" d="M800.9,1789c-0.2,0-0.4,0.1-0.5,0.3c-0.1,0.5-0.2,1-0.3,1.6c0,0.2,0.1,0.4,0.3,0.5c0,0,0,0,0,0
							c0.2,0,0.4-0.1,0.5-0.3c0.1-0.5,0.2-1,0.3-1.5C801.3,1789.2,801.2,1789,800.9,1789z"/>
						<path fill="#CFDFEB" d="M811.3,1766.5c-0.2-0.1-0.4-0.1-0.5,0.1c-0.6,0.8-1.2,1.7-1.8,2.6c-0.1,0.2-0.1,0.4,0.1,0.5
							c0,0,0.1,0,0.1,0.1c0.2,0,0.3,0,0.4-0.2c0.6-0.9,1.2-1.7,1.8-2.5C811.5,1766.9,811.4,1766.6,811.3,1766.5z"/>
						<path fill="#CFDFEB" d="M807.9,1771.7c-0.2-0.1-0.4,0-0.5,0.1c-0.5,0.9-1,1.8-1.5,2.8c-0.1,0.2,0,0.4,0.2,0.5c0,0,0.1,0,0.1,0
							c0.2,0,0.4,0,0.4-0.2c0.5-0.9,1-1.8,1.5-2.7C808.1,1772,808,1771.8,807.9,1771.7z"/>
						<path fill="#CFDFEB" d="M802.7,1783c-0.2-0.1-0.4,0-0.5,0.3c-0.3,1-0.6,2-0.9,3c-0.1,0.2,0.1,0.4,0.3,0.5c0,0,0,0,0,0
							c0.2,0.1,0.4-0.1,0.5-0.3c0.3-1,0.6-2,0.9-3C803,1783.3,802.9,1783.1,802.7,1783z"/>
						<path fill="#CFDFEB" d="M805,1777.2c-0.2-0.1-0.4,0-0.5,0.2c-0.4,0.9-0.8,1.9-1.2,2.9c-0.1,0.2,0,0.4,0.2,0.5c0,0,0,0,0,0
							c0.2,0,0.4-0.1,0.5-0.2c0.4-1,0.8-1.9,1.2-2.9C805.3,1777.5,805.2,1777.3,805,1777.2z"/>
						<path fill="#CFDFEB" d="M815.3,1761.8c-0.1-0.2-0.4-0.1-0.5,0c-0.7,0.7-1.4,1.5-2.1,2.3c-0.1,0.2-0.1,0.4,0,0.6
							c0,0,0.1,0.1,0.1,0.1c0.1,0,0.3,0,0.4-0.1c0.7-0.8,1.3-1.6,2-2.3C815.4,1762.2,815.4,1761.9,815.3,1761.8z"/>
						<path fill="#CFDFEB" d="M830,1751.5c-1,0.3-1.9,0.7-2.9,1.1c-0.2,0.1-0.3,0.3-0.2,0.5c0,0.1,0.1,0.2,0.3,0.2
							c0.1,0,0.2,0,0.3,0c0.9-0.4,1.9-0.8,2.8-1.1c0.2-0.1,0.3-0.3,0.3-0.5C830.4,1751.6,830.2,1751.4,830,1751.5z"/>
						<path fill="#CFDFEB" d="M824.4,1754c-0.9,0.5-1.8,1.1-2.6,1.6c-0.2,0.1-0.2,0.4-0.1,0.5c0.1,0.1,0.1,0.1,0.2,0.2
							c0.1,0,0.2,0,0.3-0.1c0.8-0.6,1.7-1.1,2.6-1.6c0.2-0.1,0.3-0.3,0.2-0.5C824.8,1754,824.6,1753.9,824.4,1754z"/>
						<path fill="#CFDFEB" d="M819.8,1757.6c-0.1-0.2-0.4-0.2-0.5-0.1c-0.1,0.1-0.2,0.2-0.3,0.3c-0.7,0.6-1.4,1.1-2,1.8
							c-0.2,0.1-0.2,0.4,0,0.6c0.1,0.1,0.1,0.1,0.2,0.1c0.1,0,0.3,0,0.4-0.1c0.6-0.6,1.3-1.2,2-1.7c0.1-0.1,0.2-0.2,0.3-0.3
							C819.9,1758,820,1757.8,819.8,1757.6z"/>
						<path fill="#CFDFEB" d="M834.9,1750.8c0-0.2-0.2-0.4-0.4-0.3c-0.5,0.1-1,0.2-1.5,0.3c-0.2,0-0.3,0.3-0.3,0.5
							c0,0.2,0.1,0.3,0.3,0.3c0.1,0,0.1,0,0.2,0c0.5-0.1,1-0.2,1.5-0.3C834.8,1751.2,835,1751,834.9,1750.8z"/>
					</g>
					<path fill="#81B835" d="M719.9,1714c-11.6,23.4-26.8,29.2-40.1,33.5c1.9,0.6,3.7,1.3,5.5,2c14.3-3.6,26.3-12.1,35.5-27.6
						c2-3.4,5-6,8.4-7.5c-2.2-2.1-4.1-4.3-5.5-6.6C722.3,1709.7,721,1711.8,719.9,1714z"/>
					<path fill="#CFDFEB" d="M829,1719.2c-0.6,2.1-1.6,4-3,5.7c-8.9,11-33.1,14.9-59,8.5c-4.5-1.1-8.7-2.4-12.7-4
						c-0.3-5.9-3.5-11.6-8.9-14.5c-0.6-0.3-1.3-0.6-2-0.9l-0.6-0.2c-4.5-1.7-11-1.3-15.7,1.7c-2.2-2.1-3.5-3.1-5-5.3
						c1.1-5.1,6.9-8.3,10.1-10.6c26.7-18.7,67.4-18.5,90.1-0.3C828.1,1705.9,830.8,1712.8,829,1719.2z"/>
					<path fill="#7D8C9C" d="M826,1725c-8.9,11-33.1,14.9-59,8.5c-4.5-1.1-8.7-2.4-12.7-4c-0.3-5.9-3.5-11.6-8.9-14.5
						c25.7-11.4,58.4-9.1,77.9,6.6C824.3,1722.7,825.2,1723.8,826,1725z"/>
					<path fill="#6CA122" d="M750.8,1740.9c6.9-9.4,3.2-22.9-7.4-26.8l-0.6-0.2c-8.1-3-17.3,0.3-21.9,8c-9.2,15.5-21.1,24-35.5,27.6
						c12.4,5,22.9,13.2,30.8,23.4C728.8,1765.9,740.7,1754.8,750.8,1740.9z"/>
					<path fill="#F2FAFF" d="M838.5,1729.3c-0.1-1.4-0.3-2.8-0.5-4.2c-0.2-1.1-0.4-2.2-0.7-3.3c-2.6-9.2-8-16.7-15.1-22.4
						c5.9,6.5,8.6,13.4,6.8,19.9c-4.3,15.2-32,21.6-62,14.2c-3.8-0.9-7.4-2-10.8-3.3C767.4,1762.4,813.4,1764,838.5,1729.3z"/>
					<path fill="#81B835" d="M756.1,1730.2c-0.6-0.2-1.3-0.5-1.9-0.7c0.2,3.9-0.9,8-3.5,11.5c-10.1,13.8-22,24.9-34.6,31.9
						c8.5,10.9,14.1,24.1,15.9,38.2c19.9-2,41.8-7.4,63.5-15.5c0.4-3.1,1-6.1,1.8-9.3c6.4-23.8,24-40.3,41.3-40
						c0.4-5.7,0.3-11.4-0.2-17C813.4,1764,767.4,1762.4,756.1,1730.2z"/>
					<g>
						<path fill="#C3DE52" d="M755.7,1737.4c-0.1,0-0.3,0-0.3,0.2c0,0-0.2,0.5-0.6,1.4c-0.1,0.1,0,0.3,0.1,0.3c0,0,0,0,0,0
							c0.1,0,0.2,0,0.3-0.1c0.4-0.9,0.6-1.5,0.6-1.5C755.9,1737.6,755.8,1737.4,755.7,1737.4z"/>
						<path fill="#C3DE52" d="M732.4,1765.3c-0.8,0.6-1.7,1.3-2.5,1.9c-0.1,0.1-0.1,0.2-0.1,0.4c0,0.1,0.1,0.1,0.1,0.1
							c0.1,0,0.1,0,0.2,0c0.8-0.6,1.7-1.3,2.5-1.9c0.1-0.1,0.1-0.3,0.1-0.4C732.7,1765.2,732.6,1765.2,732.4,1765.3z"/>
						<path fill="#C3DE52" d="M737.3,1761.2c-0.8,0.7-1.6,1.4-2.4,2.1c-0.1,0.1-0.1,0.3,0,0.4c0,0,0.1,0.1,0.1,0.1
							c0.1,0,0.2,0,0.2-0.1c0.8-0.7,1.6-1.4,2.4-2.1c0.1-0.1,0.1-0.3,0-0.4C737.5,1761.2,737.4,1761.1,737.3,1761.2z"/>
						<path fill="#C3DE52" d="M727.4,1769c-0.9,0.6-1.7,1.2-2.6,1.7c-0.1,0.1-0.2,0.2-0.1,0.4c0,0.1,0.1,0.1,0.1,0.1
							c0.1,0,0.1,0,0.2,0c0.9-0.6,1.8-1.2,2.6-1.8c0.1-0.1,0.2-0.2,0.1-0.4C727.7,1768.9,727.5,1768.9,727.4,1769z"/>
						<path fill="#C3DE52" d="M750.3,1747.1c-0.1-0.1-0.3-0.1-0.4,0.1c-0.6,0.8-1.2,1.7-1.9,2.6c-0.1,0.1-0.1,0.3,0,0.4
							c0,0,0.1,0,0.1,0c0.1,0,0.2,0,0.3-0.1c0.7-0.9,1.3-1.7,1.9-2.6C750.5,1747.4,750.4,1747.2,750.3,1747.1z"/>
						<path fill="#C3DE52" d="M753.7,1741.7c-0.1-0.1-0.3,0-0.3,0.1c-0.5,0.9-1,1.8-1.6,2.7c-0.1,0.1,0,0.3,0.1,0.4c0,0,0,0,0.1,0
							c0.1,0,0.2,0,0.3-0.1c0.6-0.9,1.1-1.9,1.6-2.8C753.8,1742,753.8,1741.8,753.7,1741.7z"/>
						<path fill="#C3DE52" d="M742.2,1756.9c-0.1-0.1-0.3-0.1-0.4,0c-0.7,0.7-1.5,1.5-2.2,2.2c-0.1,0.1-0.1,0.3,0,0.4
							c0,0,0.1,0.1,0.1,0.1c0.1,0,0.2,0,0.2-0.1c0.8-0.7,1.5-1.5,2.3-2.2C742.3,1757.2,742.3,1757,742.2,1756.9z"/>
						<path fill="#C3DE52" d="M746.5,1752.2c-0.1-0.1-0.3-0.1-0.4,0c-0.7,0.8-1.4,1.6-2.1,2.4c-0.1,0.1-0.1,0.3,0,0.4
							c0,0,0.1,0.1,0.1,0.1c0.1,0,0.2,0,0.3-0.1c0.7-0.8,1.4-1.6,2.1-2.4C746.6,1752.4,746.6,1752.3,746.5,1752.2z"/>
						<path fill="#C3DE52" d="M722.1,1772.4c-0.4,0.3-0.9,0.5-1.3,0.8c-0.1,0.1-0.2,0.2-0.1,0.4c0,0.1,0.1,0.1,0.2,0.1
							c0.1,0,0.1,0,0.2,0c0.5-0.3,0.9-0.5,1.3-0.8c0.1-0.1,0.2-0.2,0.1-0.4S722.2,1772.3,722.1,1772.4z"/>
						<path fill="#C3DE52" d="M724.7,1714c-0.1-0.1-0.3-0.1-0.4,0c0,0-0.4,0.4-1.1,1.2c-0.1,0.1-0.1,0.3,0,0.4c0,0,0.1,0,0.1,0.1
							c0.1,0,0.2,0,0.3-0.1c0.7-0.7,1.1-1.1,1.1-1.1C724.8,1714.3,724.8,1714.1,724.7,1714z"/>
						<path fill="#C3DE52" d="M704.1,1737.8c-0.9,0.7-1.7,1.3-2.6,2c-0.1,0.1-0.1,0.2-0.1,0.4c0,0.1,0.1,0.1,0.1,0.1
							c0.1,0,0.1,0,0.2,0c0.9-0.6,1.8-1.3,2.6-2c0.1-0.1,0.1-0.3,0.1-0.4C704.4,1737.7,704.2,1737.7,704.1,1737.8z"/>
						<path fill="#C3DE52" d="M693.1,1744.7c-1,0.5-2,0.9-2.9,1.4c-0.1,0.1-0.2,0.2-0.1,0.3c0,0.1,0.1,0.1,0.2,0.2
							c0.1,0,0.1,0,0.2,0c1-0.4,2-0.9,3-1.4c0.1-0.1,0.2-0.2,0.1-0.4C693.4,1744.7,693.2,1744.6,693.1,1744.7z"/>
						<path fill="#C3DE52" d="M709.4,1733.4c-0.1-0.1-0.3-0.1-0.4,0c-0.8,0.8-1.6,1.5-2.4,2.2c-0.1,0.1-0.1,0.3,0,0.4
							c0,0,0.1,0.1,0.1,0.1c0.1,0,0.2,0,0.2-0.1c0.8-0.7,1.6-1.5,2.4-2.3C709.5,1733.7,709.5,1733.5,709.4,1733.4z"/>
						<path fill="#C3DE52" d="M698.8,1741.5c-0.9,0.6-1.9,1.1-2.8,1.7c-0.1,0.1-0.2,0.2-0.1,0.4c0,0.1,0.1,0.1,0.2,0.1
							c0.1,0,0.1,0,0.2,0c1-0.5,1.9-1.1,2.8-1.7c0.1-0.1,0.2-0.2,0.1-0.4C699.1,1741.5,698.9,1741.4,698.8,1741.5z"/>
						<path fill="#C3DE52" d="M713.8,1728.5c-0.1-0.1-0.3-0.1-0.4,0c-0.7,0.9-1.4,1.7-2.1,2.5c-0.1,0.1-0.1,0.3,0,0.4
							c0,0,0.1,0.1,0.1,0.1c0.1,0,0.2,0,0.3-0.1c0.7-0.8,1.5-1.7,2.2-2.5C713.9,1728.8,713.9,1728.6,713.8,1728.5z"/>
						<path fill="#C3DE52" d="M721.5,1717.7c-0.1-0.1-0.3-0.1-0.4,0c-0.7,0.8-1.3,1.8-1.9,2.7c-0.1,0.1-0.1,0.3,0.1,0.4
							c0,0,0.1,0,0.1,0c0.1,0,0.2,0,0.3-0.1c0.6-0.9,1.3-1.8,1.9-2.7C721.6,1718,721.6,1717.8,721.5,1717.7z"/>
						<path fill="#C3DE52" d="M717.7,1723.1c-0.1-0.1-0.3,0-0.4,0.1c-0.7,1-1.3,1.9-1.9,2.7c-0.1,0.1-0.1,0.3,0,0.4c0,0,0.1,0,0.1,0
							c0.1,0,0.2,0,0.3-0.1c0.6-0.9,1.2-1.7,1.9-2.7C717.8,1723.4,717.8,1723.2,717.7,1723.1z"/>
						<path fill="#C3DE52" d="M687.1,1747.2c-0.5,0.2-1,0.4-1.4,0.5c-0.1,0-0.2,0.2-0.2,0.3c0,0.1,0.1,0.1,0.2,0.2c0,0,0.1,0,0.1,0
							c0.5-0.2,1-0.3,1.5-0.5c0.1-0.1,0.2-0.2,0.2-0.3C687.4,1747.3,687.3,1747.2,687.1,1747.2z"/>
					</g>
					<g>
						<path fill="#FEFEFE" d="M755.3,1760.4c-0.6,2.4-2.8,3.8-4.9,3.3c-2.1-0.6-3.2-2.9-2.6-5.3c0.6-2.4,2.8-3.8,4.9-3.3
							C754.8,1755.6,756,1758,755.3,1760.4z"/>
						<path fill="#5B6470" d="M750.9,1762.1c-1.2-0.3-1.9-1.8-1.5-3.3c0.4-1.5,1.7-2.5,3-2.1c1.2,0.3,1.9,1.8,1.5,3.3
							C753.4,1761.5,752.1,1762.4,750.9,1762.1z"/>
					</g>
					<g>
						<path fill="#CFDFEB" d="M750.6,1760.7c-0.4-0.1-0.8-0.4-1.1-0.8l0,0c0-0.1-4.2-6-11.4-12.2c-6.6-5.7-17.1-13-29.9-14.9
							c-1.1-0.2-1.9-1.2-1.7-2.4c0.2-1.2,1.2-2,2.4-1.8c13.8,2.1,25,9.8,32,15.9c7.5,6.6,11.8,12.6,12,12.9c0.7,0.9,0.4,2.3-0.5,2.9
							C751.9,1760.8,751.2,1760.9,750.6,1760.7z"/>
					</g>
					<g>
						<path fill="#FEFEFE" d="M740.5,1771.4c-0.6,2.4-2.8,3.8-4.9,3.3c-2.1-0.6-3.2-2.9-2.6-5.3s2.8-3.8,4.9-3.3
							C739.9,1766.7,741.1,1769.1,740.5,1771.4z"/>
						<path fill="#5B6470" d="M736,1773.2c-1.2-0.3-1.9-1.8-1.5-3.3c0.4-1.5,1.7-2.5,3-2.1c1.2,0.3,1.9,1.8,1.5,3.3
							C738.6,1772.5,737.2,1773.5,736,1773.2z"/>
					</g>
					<g>
						<path fill="#CFDFEB" d="M735.8,1771.8c-0.4-0.1-0.8-0.4-1.1-0.8l0,0c0-0.1-4.2-6-11.4-12.2c-6.6-5.7-17.1-13-29.9-14.9
							c-1.1-0.2-1.9-1.2-1.7-2.4c0.2-1.2,1.2-2,2.4-1.8c13.8,2.1,25,9.8,32,15.9c7.5,6.6,11.8,12.6,12,12.9c0.7,0.9,0.4,2.3-0.5,2.9
							C737,1771.8,736.3,1771.9,735.8,1771.8z"/>
					</g>
				</g>
			</g>
			<g>
				<defs>
					<path id="SVGID_196_" d="M932.8,1754.3l0.1,20.8c0,0,4.3-3,10.9-2.3c6.6,0.7,13.1,5.6,15.7,11.8c0,0,27.5,3.8,51.5-9.2
						c0,0,16-7,19.7-18.6c0.1-0.3,0.2-0.6,0.2-0.9l4.5-28.3c0,0,13-27.8,23.7,30.6c10.7,58.4-11.5,182.5-122.2,172.8
						s-80.6-145.1-80.2-144.4s0.4,0.7,0.4,0.7L932.8,1754.3z"/>
				</defs>
				<clipPath id="SVGID_3_">
					<use xlink:href="#SVGID_196_"  overflow="visible"/>
				</clipPath>
				<g clip-path="url(#SVGID_3_)">
					<path fill="#CFDFEB" d="M1021.8,1836.8c-60.5,46.5-131.3,66.5-151.7,21.6c0,0.4,0.1,0.9,0.2,1.3c0.3,2.2,0.8,4.3,1.6,6.4
						c19.2,52,98.8,27.5,162.6-25.6c0.4-0.4,0.9-0.7,1.3-1.1c12.1-11.9,16.7-29,15.8-46.7
						C1046.7,1810.3,1036.2,1825.8,1021.8,1836.8z"/>
					<path fill="#F2FAFF" d="M890.7,1825.3c-12,8.4-22.5,14.6-20.6,33.1c13.9,30.5,51.2,31.1,92.6,13.6
						C949.7,1844.4,922.2,1825.5,890.7,1825.3z"/>
					<path fill="#F2FAFF" d="M1051.6,1792.7c-0.3-5.8-1.1-11.6-2.5-17.3c-17.4,4.9-29.9,26.6-28.8,52.1c0.1,3.3,0.5,6.6,1.1,9.7
						c0.2-0.1,0.3-0.2,0.5-0.4C1036.2,1825.8,1046.7,1810.3,1051.6,1792.7z"/>
					<g>
						<path fill="#CFDFEB" d="M1024.7,1829c-0.2,0-0.4,0.2-0.4,0.4c0,0.6,0.1,1.1,0.1,1.6c0,0.2,0.2,0.4,0.4,0.4c0,0,0,0,0,0
							c0.2,0,0.4-0.2,0.4-0.4c-0.1-0.5-0.1-1.1-0.1-1.6C1025.1,1829.2,1024.9,1829,1024.7,1829z"/>
						<path fill="#CFDFEB" d="M1028,1803.6c-0.2-0.1-0.4,0-0.5,0.2c-0.4,1-0.7,2-1,3.1c-0.1,0.2,0.1,0.4,0.3,0.5c0,0,0.1,0,0.1,0
							c0.2,0,0.3-0.1,0.4-0.3c0.3-1,0.6-2,1-3C1028.3,1803.9,1028.2,1803.7,1028,1803.6z"/>
						<path fill="#CFDFEB" d="M1026.2,1809.8c-0.2-0.1-0.4,0.1-0.5,0.3c-0.2,1-0.5,2.1-0.6,3.2c0,0.2,0.1,0.4,0.3,0.5
							c0,0,0.1,0,0.1,0c0.2,0,0.3-0.1,0.4-0.3c0.2-1.1,0.4-2.1,0.6-3.1C1026.5,1810.1,1026.4,1809.8,1026.2,1809.8z"/>
						<path fill="#CFDFEB" d="M1024.5,1822.6c-0.2,0-0.4,0.2-0.4,0.4c0,1.1,0,2.2,0,3.2c0,0.2,0.2,0.4,0.4,0.4c0,0,0,0,0,0
							c0.2,0,0.4-0.2,0.4-0.4c0-1.1,0-2.1,0-3.2C1024.9,1822.7,1024.8,1822.6,1024.5,1822.6z"/>
						<path fill="#CFDFEB" d="M1025,1816.1c-0.2,0-0.4,0.1-0.4,0.4c-0.1,1.1-0.2,2.2-0.3,3.2c0,0.2,0.1,0.4,0.4,0.4c0,0,0,0,0,0
							c0.2,0,0.4-0.2,0.4-0.4c0.1-1.1,0.2-2.1,0.3-3.2C1025.4,1816.4,1025.3,1816.2,1025,1816.1z"/>
						<path fill="#CFDFEB" d="M1030.5,1797.7c-0.2-0.1-0.4,0-0.5,0.2c-0.5,1-0.9,1.9-1.3,2.9c-0.1,0.2,0,0.4,0.2,0.5
							c0.1,0,0.1,0,0.2,0c0.1,0,0.3-0.1,0.4-0.2c0.4-1,0.9-2,1.3-2.9C1030.8,1798.1,1030.7,1797.8,1030.5,1797.7z"/>
						<path fill="#CFDFEB" d="M1042.1,1783.1c-0.9,0.6-1.7,1.3-2.5,2c-0.2,0.1-0.2,0.4,0,0.6c0.1,0.1,0.2,0.1,0.3,0.1
							c0.1,0,0.2,0,0.2-0.1c0.8-0.7,1.6-1.4,2.5-1.9c0.2-0.1,0.2-0.4,0.1-0.6C1042.5,1783,1042.2,1782.9,1042.1,1783.1z"/>
						<path fill="#CFDFEB" d="M1037.2,1787.3c-0.7,0.8-1.4,1.6-2.1,2.4c-0.1,0.2-0.1,0.4,0.1,0.6c0.1,0.1,0.2,0.1,0.3,0.1
							c0.1,0,0.2-0.1,0.3-0.2c0.7-0.8,1.4-1.6,2.1-2.4c0.2-0.2,0.1-0.4,0-0.6C1037.6,1787.1,1037.4,1787.1,1037.2,1787.3z"/>
						<path fill="#CFDFEB" d="M1033.8,1792.2c-0.2-0.1-0.4-0.1-0.6,0.1c-0.1,0.1-0.2,0.3-0.3,0.4c-0.5,0.8-1,1.5-1.5,2.3
							c-0.1,0.2,0,0.4,0.1,0.6c0.1,0,0.1,0.1,0.2,0.1c0.1,0,0.3-0.1,0.3-0.2c0.5-0.8,0.9-1.6,1.4-2.3c0.1-0.1,0.2-0.3,0.3-0.4
							C1034,1792.6,1034,1792.4,1033.8,1792.2z"/>
						<path fill="#CFDFEB" d="M1046.7,1780.8c-0.1-0.2-0.3-0.3-0.5-0.2c-0.5,0.2-1,0.5-1.5,0.7c-0.2,0.1-0.3,0.4-0.2,0.6
							c0.1,0.1,0.2,0.2,0.4,0.2c0.1,0,0.1,0,0.2,0c0.5-0.3,0.9-0.5,1.4-0.7C1046.8,1781.3,1046.8,1781,1046.7,1780.8z"/>
					</g>
					<path fill="#81B835" d="M920.3,1779.9c-4.3,26.7-17.7,37.1-29.6,45.4c2.1,0,4.1,0.1,6.2,0.3c13.2-7.9,22.5-20.1,26.9-38.1
						c1-4,3.1-7.5,6-10c-2.9-1.4-5.4-3-7.6-4.8C921.3,1775,920.7,1777.4,920.3,1779.9z"/>
					<path fill="#CFDFEB" d="M1031,1751.5c0.1,2.2-0.4,4.4-1.2,6.6c-5.4,13.6-28.5,24.9-56.4,26.5c-4.8,0.3-9.5,0.3-14,0
						c-2.1-5.8-7.1-10.4-13.4-11.5c-0.7-0.1-1.5-0.2-2.3-0.3l-0.7,0c-5-0.3-11.4,2.1-15.2,6.5c-2.9-1.4-4.5-2-6.7-3.7
						c-0.5-5.4,4.3-10.3,6.8-13.5c20.8-26.7,61.6-39,90-28C1026,1738.6,1030.8,1744.6,1031,1751.5z"/>
					<path fill="#7D8C9C" d="M1029.8,1758.1c-5.4,13.6-28.5,24.9-56.4,26.5c-4.8,0.3-9.5,0.3-14,0c-2.1-5.8-7.1-10.4-13.4-11.5
						c22.2-19.2,55.6-26.9,79.9-17.4C1027.3,1756.4,1028.6,1757.2,1029.8,1758.1z"/>
					<path fill="#6CA122" d="M959.5,1797c3.9-11.4-3.9-23.6-15.8-24.2l-1.4-0.1c-8.2-0.5-16.5,5.7-18.6,14.7
						c-4.4,18.1-13.7,30.2-26.9,38.1c14,1.2,27,6,38,13.6C945.3,1828.4,953.8,1813.8,959.5,1797z"/>
					<path fill="#F2FAFF" d="M1043.6,1758.6c-0.6-1.4-1.2-2.7-1.8-4c-0.5-1.1-1.1-2.1-1.7-3c-5.5-8.3-13.2-14-22.1-17.5
						c7.9,4.6,12.7,10.6,12.9,17.5c0.5,16.4-25.3,31.2-57.6,33.1c-4.1,0.2-8,0.3-11.8,0.1C982.8,1813,1029.3,1800.6,1043.6,1758.6z"
						/>
					<path fill="#81B835" d="M961.6,1784.7c-0.7,0-1.4-0.1-2.1-0.1c1.4,3.8,1.6,8.2,0.1,12.4c-5.8,16.8-14.2,31.4-24.7,42.2
						c11.9,8.1,21.6,19.5,27.8,32.8c19.3-8.1,39.5-20.1,58.7-34.8c-0.6-3.1-0.9-6.4-1.1-9.7c-1-25.5,11.4-47.2,28.8-52.1
						c-1.4-5.7-3.2-11.4-5.5-16.8C1029.3,1800.6,982.8,1813,961.6,1784.7z"/>
					<g>
						<path fill="#C3DE52" d="M963.3,1792c-0.1,0-0.3,0.1-0.3,0.3c0,0,0,0.6-0.1,1.6c0,0.1,0.1,0.3,0.2,0.3c0,0,0,0,0,0
							c0.1,0,0.2-0.1,0.3-0.2c0.1-1.1,0.2-1.6,0.2-1.7C963.6,1792.1,963.5,1792,963.3,1792z"/>
						<path fill="#C3DE52" d="M948.8,1826.7c-0.6,0.9-1.3,1.8-1.9,2.6c-0.1,0.1-0.1,0.3,0.1,0.4c0.1,0,0.1,0.1,0.2,0.1
							c0.1,0,0.2,0,0.2-0.1c0.7-0.9,1.3-1.8,1.9-2.7c0.1-0.1,0.1-0.3-0.1-0.4C949,1826.5,948.9,1826.5,948.8,1826.7z"/>
						<path fill="#C3DE52" d="M952.4,1821.2c-0.6,0.9-1.1,1.8-1.7,2.8c-0.1,0.1,0,0.3,0.1,0.4c0,0,0.1,0,0.2,0c0.1,0,0.2,0,0.2-0.1
							c0.6-0.9,1.2-1.9,1.8-2.8c0.1-0.1,0-0.3-0.1-0.4C952.6,1821,952.5,1821.1,952.4,1821.2z"/>
						<path fill="#C3DE52" d="M944.9,1831.9c-0.7,0.8-1.4,1.7-2.1,2.5c-0.1,0.1-0.1,0.3,0,0.4c0.1,0,0.1,0.1,0.2,0.1
							c0.1,0,0.1,0,0.2-0.1c0.7-0.8,1.4-1.7,2.1-2.5c0.1-0.1,0.1-0.3,0-0.4C945.2,1831.8,945,1831.8,944.9,1831.9z"/>
						<path fill="#C3DE52" d="M961,1803.3c-0.1,0-0.3,0-0.3,0.2c-0.3,1-0.7,2.1-1.1,3.1c-0.1,0.1,0,0.3,0.2,0.4c0,0,0.1,0,0.1,0
							c0.1,0,0.2-0.1,0.2-0.2c0.4-1,0.8-2.1,1.1-3.1C961.2,1803.5,961.2,1803.3,961,1803.3z"/>
						<path fill="#C3DE52" d="M962.7,1796.9c-0.1,0-0.3,0.1-0.3,0.2c-0.2,1-0.5,2.1-0.8,3.2c0,0.1,0,0.3,0.2,0.3c0,0,0.1,0,0.1,0
							c0.1,0,0.2-0.1,0.2-0.2c0.3-1.1,0.6-2.2,0.8-3.2C962.9,1797.1,962.8,1796.9,962.7,1796.9z"/>
						<path fill="#C3DE52" d="M956,1815.4c-0.1-0.1-0.3,0-0.4,0.1c-0.5,1-1,1.9-1.6,2.9c-0.1,0.1,0,0.3,0.1,0.4c0,0,0.1,0,0.1,0
							c0.1,0,0.2-0.1,0.2-0.1c0.5-1,1.1-1.9,1.6-2.9C956.1,1815.6,956.1,1815.5,956,1815.4z"/>
						<path fill="#C3DE52" d="M958.7,1809.4c-0.1-0.1-0.3,0-0.4,0.1c-0.4,1-0.9,2-1.3,3c-0.1,0.1,0,0.3,0.1,0.4c0,0,0.1,0,0.1,0
							c0.1,0,0.2-0.1,0.2-0.2c0.5-1,0.9-2,1.3-3C958.9,1809.7,958.9,1809.5,958.7,1809.4z"/>
						<path fill="#C3DE52" d="M940.7,1836.9c-0.4,0.4-0.7,0.8-1.1,1.2c-0.1,0.1-0.1,0.3,0,0.4c0.1,0.1,0.1,0.1,0.2,0.1
							c0.1,0,0.1,0,0.2-0.1c0.4-0.4,0.7-0.8,1.1-1.2c0.1-0.1,0.1-0.3,0-0.4C941,1836.8,940.8,1836.8,940.7,1836.9z"/>
						<path fill="#C3DE52" d="M925.1,1778.5c-0.1-0.1-0.3,0-0.4,0.1c0,0-0.3,0.5-0.7,1.5c-0.1,0.1,0,0.3,0.1,0.4c0,0,0.1,0,0.1,0
							c0.1,0,0.2-0.1,0.2-0.2c0.4-0.9,0.7-1.4,0.7-1.4C925.2,1778.7,925.2,1778.6,925.1,1778.5z"/>
						<path fill="#C3DE52" d="M911.9,1808.2c-0.6,0.9-1.3,1.8-2,2.7c-0.1,0.1-0.1,0.3,0,0.4c0.1,0,0.1,0.1,0.2,0.1
							c0.1,0,0.1,0,0.2-0.1c0.7-0.9,1.4-1.8,2-2.8c0.1-0.1,0.1-0.3-0.1-0.4C912.2,1808.1,912,1808.1,911.9,1808.2z"/>
						<path fill="#C3DE52" d="M903,1818.4c-0.8,0.8-1.7,1.5-2.5,2.2c-0.1,0.1-0.1,0.3,0,0.4c0.1,0.1,0.1,0.1,0.2,0.1
							c0.1,0,0.1,0,0.2-0.1c0.9-0.7,1.7-1.5,2.5-2.3c0.1-0.1,0.1-0.3,0-0.4C903.3,1818.3,903.2,1818.3,903,1818.4z"/>
						<path fill="#C3DE52" d="M915.8,1802.3c-0.1-0.1-0.3,0-0.4,0.1c-0.5,1-1.1,2-1.7,2.9c-0.1,0.1,0,0.3,0.1,0.4c0,0,0.1,0,0.2,0
							c0.1,0,0.2,0,0.2-0.1c0.6-1,1.2-2,1.7-3C916,1802.5,916,1802.4,915.8,1802.3z"/>
						<path fill="#C3DE52" d="M907.7,1813.6c-0.7,0.8-1.5,1.7-2.3,2.5c-0.1,0.1-0.1,0.3,0,0.4c0.1,0.1,0.1,0.1,0.2,0.1
							c0.1,0,0.1,0,0.2-0.1c0.8-0.8,1.6-1.7,2.3-2.5c0.1-0.1,0.1-0.3,0-0.4C908,1813.4,907.8,1813.4,907.7,1813.6z"/>
						<path fill="#C3DE52" d="M918.7,1796.1c-0.1-0.1-0.3,0-0.3,0.1c-0.4,1.1-0.9,2.1-1.4,3.1c-0.1,0.1,0,0.3,0.1,0.4
							c0,0,0.1,0,0.1,0c0.1,0,0.2-0.1,0.2-0.2c0.5-1,0.9-2.1,1.4-3.2C918.9,1796.3,918.8,1796.2,918.7,1796.1z"/>
						<path fill="#C3DE52" d="M923,1783.1c-0.1-0.1-0.3,0-0.3,0.2c-0.4,1-0.8,2.1-1.1,3.3c0,0.1,0,0.3,0.2,0.3c0,0,0.1,0,0.1,0
							c0.1,0,0.2-0.1,0.2-0.2c0.3-1.1,0.7-2.2,1.1-3.2C923.2,1783.3,923.1,1783.1,923,1783.1z"/>
						<path fill="#C3DE52" d="M920.9,1789.6c-0.1,0-0.3,0-0.3,0.2c-0.3,1.2-0.7,2.2-1,3.3c0,0.1,0,0.3,0.2,0.3c0,0,0.1,0,0.1,0
							c0.1,0,0.2-0.1,0.2-0.2c0.4-1,0.7-2.1,1-3.3C921.1,1789.8,921.1,1789.7,920.9,1789.6z"/>
						<path fill="#C3DE52" d="M897.9,1822.8c-0.4,0.3-0.8,0.6-1.3,1c-0.1,0.1-0.1,0.3-0.1,0.4c0.1,0.1,0.1,0.1,0.2,0.1
							c0.1,0,0.1,0,0.1-0.1c0.4-0.3,0.9-0.6,1.3-1c0.1-0.1,0.1-0.3,0.1-0.4C898.2,1822.7,898,1822.7,897.9,1822.8z"/>
					</g>
					<g>
						<path fill="#FEFEFE" d="M970.1,1814.8c0.1,2.5-1.6,4.6-3.9,4.7s-4.1-1.9-4.2-4.4c-0.1-2.5,1.6-4.6,3.9-4.7
							S970,1812.2,970.1,1814.8z"/>
						<path fill="#5B6470" d="M966.2,1817.9c-1.3,0.1-2.5-1.2-2.6-2.8c-0.1-1.6,1-3,2.3-3c1.3-0.1,2.5,1.2,2.6,2.8
							C968.6,1816.4,967.6,1817.8,966.2,1817.9z"/>
					</g>
					<g>
						<path fill="#CFDFEB" d="M965.6,1816.6c-0.5,0-1-0.1-1.4-0.4l0,0c-0.1,0-6.1-4.6-15.2-8.6c-8.3-3.6-21.1-7.5-34.5-5.5
							c-1.2,0.2-2.3-0.6-2.4-1.8c-0.2-1.2,0.6-2.3,1.8-2.5c14.4-2.2,28,2,36.9,5.9c9.6,4.2,15.7,8.8,16,9c0.9,0.7,1.1,2.1,0.4,3.1
							C966.8,1816.2,966.2,1816.5,965.6,1816.6z"/>
					</g>
					<g>
						<path fill="#FEFEFE" d="M958.7,1830.3c0.1,2.5-1.6,4.6-3.9,4.7c-2.2,0.1-4.1-1.9-4.2-4.4c-0.1-2.5,1.6-4.6,3.9-4.7
							S958.6,1827.7,958.7,1830.3z"/>
						<path fill="#5B6470" d="M954.8,1833.4c-1.3,0.1-2.5-1.2-2.6-2.8c-0.1-1.6,1-3,2.3-3c1.3-0.1,2.5,1.2,2.6,2.8
							C957.2,1832,956.1,1833.3,954.8,1833.4z"/>
					</g>
					<g>
						<path fill="#CFDFEB" d="M954.2,1832.1c-0.5,0-1-0.1-1.4-0.4l0,0c-0.1,0-6.1-4.6-15.2-8.6c-8.3-3.6-21.1-7.5-34.5-5.5
							c-1.2,0.2-2.3-0.6-2.4-1.8c-0.2-1.2,0.6-2.3,1.8-2.5c14.4-2.2,28,2,36.9,5.9c9.6,4.2,15.7,8.8,16,9c0.9,0.7,1.1,2.1,0.4,3.1
							C955.4,1831.8,954.8,1832.1,954.2,1832.1z"/>
					</g>
				</g>
			</g>
		</g>
		<g>
			<defs>
				<path id="SVGID_198_" d="M904.4,406c0,18.5,29.5,33.5,65.9,33.5c31.7,0,58.1-11.3,64.5-26.4c1-2.3,1.5-4.6,1.5-7
					c0-18.5,385.6-376.6-229.5-261.1C558.5,191.5,911.8,384,905.7,399.2C904.8,401.4,904.4,403.7,904.4,406z"/>
			</defs>
			<clipPath id="SVGID_4_">
				<use xlink:href="#SVGID_198_"  overflow="visible"/>
			</clipPath>
			<g transform="matrix(-0.498406,-0.027532,-0.027532,0.498406,117.216,166.98)" clip-path="url(#SVGID_4_)">
				<g transform="matrix(1.13983,2.77556e-17,-2.77556e-17,1.13983,-37.1174,-21.3708)">
					<path fill-rule="evenodd" clip-rule="evenodd" fill="#87AD29" d="M-1310.2,444.5c0,0-15.7-101.4-136.6-122.4
						c-98.9-17.2-188.2,40-207,126.9L-1310.2,444.5z"/>
				</g>
				<g transform="matrix(0.851692,0.0469028,-0.0469028,0.851692,40.8989,12.3558)">
					<g transform="matrix(1,0,0,1,-7.11369,-1.02492)">
						<path fill-rule="evenodd" clip-rule="evenodd" fill="#408A40" d="M-1961.6,315.3c17.7,36.9,137.2,67.8,241.3,5.9
							c124.2-73.9,170-202.9,146.8-259.3c-20.5-50-184.2-51.2-252.5-12C-1930.9,110.1-1994,248-1961.6,315.3z"/>
					</g>
					<path fill-rule="evenodd" clip-rule="evenodd" fill="#306930" d="M-1651.4,169.2c0,0-25.5,1.3-53.9,2.1
						c-7.7,0.2-15.5,0.4-23.1,0.5c-11.3,0.1-22.1,0.2-30.8,0c-12.3-0.2-20.5-0.7-20.5-0.7c-2.6-0.1-5-1.4-6.4-3.5
						c-1.5-2.1-1.9-4.8-1.1-7.2c0,0,6.6-19.4,14.6-41.1c10.5-28.6,23.3-61.3,23.3-61.3c0.5-1.5,2-2.3,3.5-1.8c1.5,0.5,2.3,2,1.8,3.5
						c0,0-8.2,34.1-15.9,63.6c-3.2,12.3-6.4,23.8-8.6,31.6c2.9,0.1,6.2,0.2,10,0.4c8.7,0.4,19.4,1.2,30.7,2.1
						c7.6,0.6,15.4,1.3,23,2.1c28.3,2.8,53.7,5.8,53.7,5.8c1.1,0,1.9,1,1.9,2C-1649.4,168.3-1650.3,169.2-1651.4,169.2z"/>
					<path fill-rule="evenodd" clip-rule="evenodd" fill="#306930" d="M-1741.7,282.5c0,0-26.9-4.4-61.2-7.9
						c-12.9-1.3-26.7-2.4-40.6-3.2c-13.7-0.8-27.3-1.1-39.9-0.7c-9.1,0.3-17.7,0.7-25.2,2.1c-3.8,0.7-7.6-0.3-10.5-2.8
						c-2.9-2.5-4.4-6.2-4.1-10.1c0,0,1.3-14.2,4.9-34.4c2.7-14.7,6.5-32.6,11.8-50.5c5.6-19.2,12.8-38.4,21.5-53.8
						c1-2.1,3.5-3,5.6-2c2.1,1,3,3.5,2,5.6c-6.1,15.8-10.1,34.9-13.1,53.8c-2.9,17.8-4.6,35.4-5.9,49.8c-0.6,6.8-1.1,13-1.4,18
						c4.5-0.4,9.2-0.6,14.1-0.6c13.5,0.1,28,1.6,42.6,3.9c14.1,2.3,28.1,5.4,41.1,8.7c33.8,8.6,59.9,18.3,59.9,18.3
						c1.6,0.4,2.5,2.1,2.1,3.6C-1738.5,281.9-1740.1,282.9-1741.7,282.5z"/>
					<g transform="matrix(1,0,0,1,-7.11369,-1.02492)">
						<path fill-rule="evenodd" clip-rule="evenodd" fill="#306930" d="M-1622.4,89.5c0,0-108.9,52.4-208.1,129.5
							c-43.1,33.6-84.3,71.8-113.4,112.6c-23.3,32.6-37.9,66.6-47.2,97.1c-17.9,58.8,13.8,102.1,13.8,102.1
							c0.3,13.8-39.9,19.5-53.7,19c-20.6-0.7-42.9-15.8-43.2-29.6c0,0,17.5-38.8,42.2-105.4c12.4-33.5,31-70.5,59.2-105.3
							c33.3-41.2,79-79.3,126.7-112c105.3-72.3,218.9-118.9,218.9-118.9c3-1.3,6.5,0,7.8,3C-1618,84.6-1619.4,88.2-1622.4,89.5z"/>
					</g>
				</g>
				<g transform="matrix(0.782983,0.338402,-0.338402,0.782983,95.006,-45.1359)">
					<g transform="matrix(-0.679522,0.532945,0.532945,0.679522,298.86,-78.9423)">
						<path fill-rule="evenodd" clip-rule="evenodd" fill="#408A40" d="M2768.6-502c28,29.8,151.3,23.2,231.8-67.2
							c96.1-107.9,110.8-261.6,67.7-301.6c-39.6-36.7-191.3-3.1-264,86C2709.7-669.2,2717.5-556.3,2768.6-502z"/>
					</g>
					<path fill-rule="evenodd" clip-rule="evenodd" fill="#306930" d="M-2186.4,959.1c0,0,38.2,0.2,93.4,9
						c27.4,4.3,58.8,10.8,91.9,20.3c41.3,11.9,82.3,29.4,118.3,47.3c51.9,25.9,93.3,53,110.1,65.9c7.1,5.8,8.2,16.3,2.4,23.5
						c-5.8,7.1-16.3,8.2-23.5,2.4c-15.3-13.2-53.3-41.2-101.4-68.8c-33.8-19.4-72.4-38.6-111.7-52.4c-31.8-11.2-62.2-19.3-88.6-25
						c-53.7-11.7-91.2-14.2-91.2-14.2c-2.2-0.1-3.9-1.9-3.8-4.1C-2190.4,960.8-2188.6,959.1-2186.4,959.1z"/>
					<path fill-rule="evenodd" clip-rule="evenodd" fill="#306930" d="M-1993.8,921.5c0,0,26.6,28,53.8,60.8
						c5.7,6.9,11.4,14.1,16.8,21.3c5.7,7.5,10.9,15,15.9,22.1c2.5,3.8,2.7,8.6,0.7,12.6c-2.1,4-6.1,6.6-10.6,6.8
						c-6.1,0.2-13,1-20.3,1.9c-15.1,1.9-32.2,4.9-48.9,8.7c-27.6,6.3-53.8,14-67.7,21.9c-1.9,1.3-4.5,0.8-5.8-1.1
						c-1.3-1.9-0.8-4.5,1.1-5.8c13.2-10.4,39-23.3,66.9-33.5c17-6.2,34.7-11.3,50.6-14.3c0.8-0.2,1.7-0.3,2.5-0.5
						c-2.1-3.3-4.2-6.6-6.3-9.9c-3.8-6-7.6-12.1-11.3-18.2c-22-36.2-42-69-42-69c-1-1.3-0.7-3.2,0.6-4.2
						C-1996.7,919.9-1994.8,920.2-1993.8,921.5z"/>
					<path fill-rule="evenodd" clip-rule="evenodd" fill="#306930" d="M-2118.7,917.3c0,0,25.7,15.9,48.2,34
						c5.4,4.3,10.5,8.8,15,13.2c5.7,5.5,10.4,10.9,13.8,15.6c1.4,2,1.8,4.5,1.1,6.9c-0.7,2.3-2.3,4.3-4.5,5.3
						c-5,2.2-10.8,4.7-17.3,7c-8.1,2.9-17.1,5.6-26.3,8.2c-9,2.6-18,4.9-26.5,7c-22.3,5.5-40,9-40,9c-1.5,0.4-3-0.4-3.4-1.9
						c-0.4-1.5,0.4-3,1.9-3.5c0,0,16.9-6.3,38.2-14.4c8.1-3.1,16.7-6.4,25.3-9.8c8.7-3.4,17.2-6.8,25-10c2.4-1,4.7-1.9,6.9-2.8
						c-1.6-2-3.3-4-5.2-6.1c-4-4.5-8.4-9.2-12.9-14c-19.6-20.6-41.6-40.6-41.6-40.6c-0.9-0.7-1-1.9-0.4-2.8
						C-2120.8,916.8-2119.6,916.6-2118.7,917.3z"/>
				</g>
			</g>
		</g>
		<g>
			<polygon fill="#3A00DB" points="345.7,1086.7 390.6,1161.9 418.9,1311.8 488.7,1300.4 436,1128.3 344.3,999.3 			"/>
			<polygon fill="#FCD746" points="344.7,1025 416.5,1135.9 461.3,1286.6 429.5,1302.4 398.5,1145.2 345.5,1070.5 			"/>
			<g>
				<polygon fill="#0C1E59" points="385.6,1249.3 394.2,1245.1 495.3,1266.4 484.7,1339.4 475.7,1343.9 461.9,1312.6 465,1285.3 
					416.4,1270.4 410.9,1295.9 458.4,1310.3 459,1329.2 382.8,1311.6 				"/>
				<polygon fill="#0F257F" points="385.6,1249.3 486.4,1270.9 475.7,1343.9 380,1318.4 				"/>
				<polygon fill="#0C1E59" points="471,1280.2 395.3,1262.4 389.8,1313.4 467,1332.8 				"/>
				<polygon fill="#FCD746" points="402.8,1273.6 398.3,1305.1 454.2,1318.8 458.4,1290.1 				"/>
				<polygon fill="#3A00DB" points="416.5,1277.7 413.2,1308.8 398.3,1305.1 402.8,1273.6 				"/>
				<polygon fill="#3A00DB" points="446.6,1286.6 439.1,1315.1 454.2,1318.8 458.4,1290.1 				"/>
			</g>
		</g>
		<g>
			<path fill="#3A00DB" d="M1027.1,1394.9l72-162.1l88.1-135.2c0,0,237.1-112.4,491.7-78.7l-0.4,44.6c0,0-392.7,4.7-490.3,110.9
				l-46.5,97.6l-42.8,135.8L1027.1,1394.9z"/>
			<path fill="#FCD746" d="M1046.9,1400.6l64.1-156.9l76.1-124.8c0,0,211.1-104.8,491.6-86.1l-0.2,18.4c0,0-329-13-490.6,102.4
				l-60.9,107l-51.2,143.7L1046.9,1400.6z"/>
			<g>
				<polygon fill="#0C1E59" points="1009.1,1387.7 1017.6,1382.1 1128.2,1387.7 1128.2,1464.3 1119.4,1470.5 1099.9,1440.5 
					1099,1412 1045,1404.5 1043.2,1431.5 1095.8,1438.7 1099.4,1458 1015.8,1452.2 				"/>
				<polygon fill="#0F257F" points="1009.1,1387.7 1119.4,1393.7 1119.4,1470.5 1009.1,1459.1 				"/>
				<polygon fill="#0C1E59" points="1022.7,1401.4 1018.5,1445.6 1105.8,1452.9 1105.8,1412.3 				"/>
				<polygon fill="#FCD746" points="1031.1,1409.9 1028,1442.8 1092.7,1448.1 1092.7,1418 				"/>
				<polygon fill="#3A00DB" points="1047.8,1412.1 1046.9,1444.3 1028,1442.8 1031.1,1409.9 				"/>
				<polygon fill="#3A00DB" points="1092.7,1418 1077.6,1416 1072.8,1446.5 1093.7,1448.1 				"/>
			</g>
		</g>
		<g>
			
				<ellipse transform="matrix(0.317 -0.9484 0.9484 0.317 -428.1992 1275.9893)" fill="#72808C" cx="671.9" cy="935.3" rx="18.2" ry="12.1"/>
			<g>
				
					<ellipse transform="matrix(0.317 -0.9484 0.9484 0.317 -427.7639 1277.389)" fill="#8A9AA8" cx="673.1" cy="935.7" rx="18.2" ry="10.9"/>
			</g>
			<g>
				
					<ellipse transform="matrix(0.1328 -0.9911 0.9911 0.1328 -274.3866 1577.8026)" fill="#72808C" cx="764.5" cy="945.7" rx="18.2" ry="12.1"/>
				<g>
					
						<ellipse transform="matrix(0.1328 -0.9911 0.9911 0.1328 -275.2995 1576.426)" fill="#8A9AA8" cx="763.2" cy="945.5" rx="18.2" ry="10.9"/>
				</g>
			</g>
			<g>
				<g opacity="0.22">
					<path fill="#081613" d="M1065.8,809.2c-1.2,0-2.5-0.4-3.6-1.3c-2.3-1.9-2.5-5.3-1-7.7l43.8-67.9c1.7-3.3,17.7-32.4,40.4-37.3
						c9.6-2.1,15.5-2.7,24.3,4.1c0.4,0.3,4.7,4.4,5,4.8c0.9,1.4,8.6,12.1,4.6,24.1c-2.5,7.4-8.9,12.7-19,15.9
						c-2.4,0.8-5.1,0-6.5-2.2c-2.1-3.3-0.4-7.5,3-8.5c6.5-2,10.5-4.9,11.8-8.7c0.5-1.5,0.6-3.1,0.4-4.7c-0.8-7.1-6.5-12.7-13.5-14
						c-2.5-0.5-5-0.4-7.6,0.2c-18.4,4-32.8,31.5-32.9,31.7c-0.1,0.2-0.2,0.3-0.3,0.5l-44.2,68.4
						C1069.5,808.2,1067.7,809.2,1065.8,809.2z"/>
				</g>
				<g opacity="0.22">
					<path fill="#081613" d="M461,701.6c-3,0-5.5-2.3-5.6-5.3l-2.8-46.9c0-0.2,0-0.4,0-0.5c0-0.3,1-31.3-13.1-43.8
						c-4.6-4.1-10.4-5.7-17.6-4.8c-2.8,1.5-8.6,5.5-9.5,10.7c-0.7,3.9,1.3,8.4,6,13.4c2.1,2.3,2,5.8-0.2,8c-2.3,2.1-5.8,2-8-0.2
						c-7.4-7.8-10.3-15.6-8.9-23.3c2.4-12.5,13.5-17.5,14.1-17.8c0.5-0.2,5.4-1.6,6-1.6c11-1.7,18.3,0.7,25.7,7.2
						c17.3,15.5,16.9,48.7,16.8,52.4l2.8,46.6c0.2,3.1-2.2,5.8-5.3,6C461.3,701.6,461.2,701.6,461,701.6z"/>
				</g>
				
					<path fill="none" stroke="#041C16" stroke-width="11.2946" stroke-linecap="round" stroke-linejoin="round" stroke-miterlimit="10" d="
					M675.3,917.2c0,0,34.2,14.7,85.7,9.3"/>
				<g>
					<path fill="#041C16" d="M1065.8,806.4c-1,0-2.1-0.3-3.1-0.9c-2.6-1.7-3.4-5.2-1.7-7.8l44-68.2c2.1-3.9,23.4-42.7,52.3-37.6
						c12.3,2.2,21.7,12.1,22.9,24.1c0.7,6.9-1,19.3-20.1,25.2c-3,0.9-6.1-0.8-7.1-3.7c-0.9-3,0.8-6.1,3.7-7.1
						c11.8-3.6,12.6-9.3,12.2-13.3c-0.7-6.9-6.4-12.8-13.6-14.1c-21.3-3.8-40.2,31.6-40.4,31.9c-0.1,0.2-0.2,0.3-0.3,0.5l-44.2,68.4
						C1069.5,805.5,1067.7,806.4,1065.8,806.4z"/>
				</g>
				
					<path fill="none" stroke="#041C16" stroke-width="11.2946" stroke-linecap="round" stroke-linejoin="round" stroke-miterlimit="10" d="
					M459.3,697.1l-2.8-46.9c0,0,1.7-44.4-23.3-53.2c-9.1-3.2-19.7-0.3-25.3,7.6c-4,5.7-5.5,14,4.6,24.7"/>
				<g>
					<ellipse opacity="0.21" fill="#E4F1FF" cx="495.3" cy="886.2" rx="195.5" ry="206.3"/>
					<g opacity="0.35">
						<path fill="#041C16" d="M501,1096.8c-113.4,0-205.6-94.4-205.6-210.5S387.6,675.7,501,675.7s205.6,94.4,205.6,210.5
							S614.4,1096.8,501,1096.8z M501,690.5c-105,0-190.4,87.8-190.4,195.7S396,1081.9,501,1081.9s190.4-87.8,190.4-195.7
							S606,690.5,501,690.5z"/>
					</g>
					
						<ellipse fill="none" stroke="#041C16" stroke-width="11.2946" stroke-linecap="round" stroke-linejoin="round" stroke-miterlimit="10" cx="495.3" cy="886.2" rx="195.5" ry="206.3"/>
					<ellipse opacity="0.44" fill="#FFFFFF" cx="416.6" cy="820.7" rx="86.2" ry="83.9"/>
					<circle opacity="0.46" fill="#FFFFFF" cx="360.4" cy="923.9" r="30.3"/>
				</g>
				<g>
					<ellipse opacity="0.21" fill="#E4F1FF" cx="938.8" cy="939.6" rx="195.5" ry="206.3"/>
					<g opacity="0.35">
						<path fill="#041C16" d="M944.5,1150.2c-113.4,0-205.6-94.4-205.6-210.5s92.2-210.5,205.6-210.5
							c113.4,0,205.6,94.4,205.6,210.5S1057.8,1150.2,944.5,1150.2z M944.5,743.9c-105,0-190.4,87.8-190.4,195.7
							s85.4,195.7,190.4,195.7s190.4-87.8,190.4-195.7S1049.4,743.9,944.5,743.9z"/>
					</g>
					
						<ellipse fill="none" stroke="#041C16" stroke-width="11.2946" stroke-linecap="round" stroke-linejoin="round" stroke-miterlimit="10" cx="938.8" cy="939.6" rx="195.5" ry="206.3"/>
					<ellipse opacity="0.44" fill="#FFFFFF" cx="860" cy="874.1" rx="86.2" ry="83.9"/>
					<circle opacity="0.46" fill="#FFFFFF" cx="803.9" cy="977.3" r="30.3"/>
				</g>
				<g>
					<polygon opacity="0.32" fill="#081613" points="1071.2,699 1073.7,708.3 1066.4,707.2 1066.5,713.7 1060.5,717.2 1064,725 
						1054,722.4 1055,730.5 1044.2,731 1066.5,745.8 1096.8,770.2 1113.1,793.5 1113,784.4 1129.6,786.8 1129.2,780.6 1138.2,782.2 
						1137.6,774.8 1151.2,776.2 1152.8,767.5 1160.9,765.5 1137.7,744.7 1087.3,707.2 					"/>
					
						<polygon opacity="0.69" fill="#F8F88E" stroke="#F3F82D" stroke-width="2.7594" stroke-linecap="round" stroke-linejoin="round" stroke-miterlimit="10" points="
						1071.5,701.6 1073.7,710.7 1066.8,709.7 1066.7,716.2 1060.9,719.8 1064,727.4 1054.5,725 1055.3,733 1044.9,733.7 
						1065.9,747.9 1094.5,771.4 1109.6,794.1 1109.7,785.1 1125.6,787.1 1125.4,781 1134,782.4 1133.5,775.1 1146.6,776.2 
						1148.4,767.6 1156.2,765.5 1134.3,745.4 1086.8,709.3 					"/>
					<polygon opacity="0.3" fill="#F3F82D" points="1123,736.8 1094.5,771.4 1098.3,777.1 1134.3,745.4 					"/>
					<polygon opacity="0.3" fill="#F3F82D" points="1111.6,728.1 1083.9,762.7 1065.9,747.9 1086.8,709.3 					"/>
				</g>
				<g>
					<polygon opacity="0.32" fill="#081613" points="396.1,651.4 406.2,653.5 401,658.3 407.2,661 407,666.9 416.2,667.7 
						408.2,673.9 416.3,676.6 410.7,684.7 437.1,674.7 477.1,663 508.1,661.1 499.5,657.3 511.1,646.3 505.1,643.9 511.7,638 
						504.4,635.3 513.4,626 506.2,621.1 509,614.4 476.4,622.4 412.9,643.1 					"/>
					
						<polygon opacity="0.69" fill="#F8F88E" stroke="#F3F82D" stroke-width="2.6478" stroke-linecap="round" stroke-linejoin="round" stroke-miterlimit="10" points="
						398.6,652.2 408.4,654.5 403.5,659.2 409.6,662 409.6,667.7 418.5,668.7 410.9,674.6 418.8,677.4 413.6,685.3 438.7,676 
						476.9,665.2 506.6,663.9 498.3,660 509.1,649.3 503.3,646.8 509.5,641.1 502.4,638.4 510.8,629.3 503.7,624.4 506.2,617.8 
						475.1,625.2 414.6,644.4 					"/>
					<polygon opacity="0.3" fill="#F3F82D" points="460.6,629.8 476.9,665.2 484.4,664.9 475.1,625.2 					"/>
					<polygon opacity="0.3" fill="#F3F82D" points="446.1,634.4 462.8,669.2 438.7,676 414.6,644.4 					"/>
				</g>
			</g>
		</g>
	</g>
</g>
<g id="Layer_15">
</g>
<g id="Layer_14">
</g>
<g id="Layer_13">
</g>
<g id="Layer_12">
</g>
<g id="Layer_11">
</g>
<g id="Layer_10">
</g>
<g id="Layer_9">
</g>
<g id="Layer_8">
</g>
<g id="Layer_7">
</g>
<g id="Layer_6">
</g>
<g id="Layer_5">
</g>
<g id="Layer_4">
</g>
<g id="Layer_3">
</g>
<g id="Layer_2">
</g>
</svg>
