<?xml version="1.0" encoding="utf-8"?>
<!-- Generator: Adobe Illustrator 24.0.2, SVG Export Plug-In . SVG Version: 6.00 Build 0)  -->
<svg version="1.1" xmlns="http://www.w3.org/2000/svg" xmlns:xlink="http://www.w3.org/1999/xlink" x="0px" y="0px"
	 viewBox="0 0 1982.6 2048" enable-background="new 0 0 1982.6 2048" xml:space="preserve">
<g id="Layer_1">
	<g id="Layer_23">
	</g>
</g>
<g id="Layer_22">
</g>
<g id="Layer_21">
</g>
<g id="Layer_20">
</g>
<g id="Layer_19">
</g>
<g id="Layer_18">
</g>
<g id="Layer_17">
</g>
<g id="Layer_16">
</g>
<g id="Layer_15">
	<g>
		<g>
			<g>
				<g>
					<g>
						<path fill="#330819" d="M1229.2,1285.1l12.2,10l0,28.3l-12.2,17.4L1229.2,1285.1z M1263.4,1333.2l-31.9,9.6l12-17.4l16.7-5
							l7.8,6.2L1263.4,1333.2z M1264,1289.2l6-8.6l6.1,5l0.1,29.1l-6.1,8.7l-6.1-5L1264,1289.2z M1280.2,1314.4l16.5-4.9l12.2,10
							l-31.8,9.5l-4.6-3.8L1280.2,1314.4z M1310.8,1260.9l0.4,55.4l-12.3-10l-0.2-28.2L1310.8,1260.9z"/>
						<path fill="#330819" d="M1231.5,1346c-1,0-2-0.5-2.6-1.3c-0.2-0.2-0.3-0.5-0.4-0.7c-0.1,0-0.2,0-0.3-0.1
							c-1.3-0.4-2.2-1.7-2.2-3.1l0-55.7c0-1.2,0.7-2.4,1.8-2.9s2.5-0.4,3.4,0.4l12.2,10c0.7,0.6,1.2,1.5,1.2,2.5l0,26.6l14.7-4.4
							c0.5-0.2,1.1-0.2,1.6-0.1l-0.1-28.1c0-0.7,0.2-1.3,0.6-1.9l6-8.6c0.5-0.7,1.3-1.2,2.2-1.3c0.9-0.1,1.8,0.1,2.5,0.7l6.1,5
							c0.7,0.6,1.2,1.5,1.2,2.5l0.1,25.8l16.3-4.9c0-0.1,0-0.1,0-0.2l-0.2-28.2c0-0.7,0.2-1.3,0.6-1.9l12-17.2
							c0.8-1.1,2.3-1.6,3.6-1.2c1.3,0.4,2.2,1.6,2.3,3l0.4,55.4c0,1.2-0.7,2.4-1.8,2.9c-0.2,0.1-0.3,0.1-0.5,0.2
							c0,0.3,0,0.6-0.1,0.9c-0.2,1.2-1.1,2.1-2.2,2.4l-31.8,9.5c-1,0.3-2.1,0.1-3-0.6l-4.3-3.5c-0.1,0.2-0.2,0.3-0.3,0.5l-4.7,6.6
							c-0.4,0.6-1,1-1.7,1.2l-31.9,9.6C1232.1,1345.9,1231.8,1346,1231.5,1346z M1245.5,1328.2l-6.2,8.9l22-6.6l2.3-3.2l-4.1-3.3
							L1245.5,1328.2z M1263.4,1333.2L1263.4,1333.2L1263.4,1333.2z M1232.4,1291.9l0,38.7l5.8-8.3l0-25.8L1232.4,1291.9z
							 M1277,1324.7l1,0.8l24.3-7.3l-6.3-5.1l-13.8,4.1L1277,1324.7z M1267.3,1316.8l2.3,1.9l3.5-5l-0.1-26.6l-2.3-1.8l-3.5,5
							L1267.3,1316.8z M1302.2,1304.7l5.8,4.7l-0.3-38.5l-5.7,8.1L1302.2,1304.7z"/>
					</g>
					<g>
						<path fill="#330819" d="M1263.1,1259.8l-34,10.1l12.3-17.2l18.7-5.5l7.7,6.2L1263.1,1259.8z M1279.8,1241.3l16.4-4.9l12.2,9.9
							l-31.5,9.4l-4.6-3.7L1279.8,1241.3z M1310.2,1188.4l0.4,54.6l-12.2-9.9l-0.2-27.8L1310.2,1188.4z"/>
						<path fill="#330819" d="M1229.1,1273.1c-1,0-2-0.5-2.6-1.3c-0.8-1.1-0.8-2.6,0-3.7l12.3-17.2c0.4-0.6,1-1,1.7-1.2l18.7-5.5
							c1-0.3,2.1-0.1,2.9,0.6l7.4,5.9c0.1-0.1,0.2-0.3,0.3-0.4l7.5-10.7c0.4-0.6,1-1,1.7-1.2l16.4-4.8c0-0.1,0-0.1,0-0.2l-0.2-27.8
							c0-0.7,0.2-1.3,0.6-1.9l11.9-16.9c0.8-1.1,2.2-1.6,3.6-1.2c1.3,0.4,2.2,1.6,2.2,3l0.4,54.6c0,1.2-0.7,2.4-1.8,2.9
							c-0.2,0.1-0.3,0.1-0.5,0.2c0,0.3,0,0.6-0.1,0.8c-0.2,1.2-1.1,2.1-2.2,2.4l-31.5,9.4c-1,0.3-2.1,0.1-2.9-0.6l-4.2-3.4
							c-0.1,0.2-0.2,0.3-0.3,0.4l-4.7,6.5c-0.4,0.6-1,1-1.7,1.2l-34,10.1C1229.7,1273,1229.4,1273.1,1229.1,1273.1z M1243.3,1255.4
							l-6.2,8.7l24-7.1l2.2-3.1l-4-3.2L1243.3,1255.4z M1263.1,1259.8L1263.1,1259.8L1263.1,1259.8z M1276.6,1251.4l0.9,0.8
							l24.1-7.1l-6.1-5l-13.7,4.1L1276.6,1251.4z M1301.7,1231.6l5.7,4.7l-0.3-37.8l-5.6,7.9L1301.7,1231.6z"/>
					</g>
					<g>
						<path fill="#330819" d="M1259.8,1182.1l-18.5,5.4l-12.2-9.8l33.7-9.9l4.6,3.6L1259.8,1182.1z M1276.4,1163.9l33.6-9.8
							l-11.9,16.8l-18.6,5.5l-7.6-6.1L1276.4,1163.9z"/>
						<path fill="#330819" d="M1241.3,1190.8c-0.7,0-1.4-0.2-2-0.7l-12.2-9.8c-0.9-0.8-1.4-2-1.1-3.1c0.2-1.2,1.1-2.1,2.2-2.5
							l33.7-9.9c1-0.3,2.1-0.1,2.9,0.6l4.3,3.4c0.1-0.1,0.2-0.3,0.2-0.4l4.5-6.3c0.4-0.6,1-1,1.7-1.2l33.6-9.8
							c1.3-0.4,2.7,0.1,3.5,1.2c0.8,1.1,0.8,2.6,0,3.7l-11.9,16.8c-0.4,0.6-1,1-1.7,1.2l-18.6,5.5c-1,0.3-2.1,0.1-2.9-0.6l-7.2-5.8
							c-0.1,0.1-0.2,0.3-0.2,0.4l-7.6,10.6c-0.4,0.6-1,1-1.7,1.2l-18.5,5.4C1241.9,1190.8,1241.6,1190.8,1241.3,1190.8z
							 M1235.9,1179.1l6.1,4.9l15.9-4.7l5.2-7.2l-0.9-0.7L1235.9,1179.1z M1259.8,1182.1L1259.8,1182.1L1259.8,1182.1z
							 M1276.3,1169.7l3.9,3.2l15.9-4.7l5.9-8.4l-23.6,6.9L1276.3,1169.7z"/>
					</g>
					<g>
						<path fill="#330819" d="M1269.3,1092.8l6,4.8l0.2,40.5l-6,8.4l-6-4.9l-0.1-40.5L1269.3,1092.8z"/>
						<path fill="#330819" d="M1269.5,1149.7c-0.7,0-1.4-0.3-2-0.7l-6-4.9c-0.8-0.6-1.2-1.5-1.2-2.5l-0.1-40.5
							c0-0.7,0.2-1.3,0.6-1.9l5.9-8.3c0.5-0.7,1.3-1.2,2.2-1.3c0.9-0.1,1.8,0.1,2.5,0.7l6,4.8c0.7,0.6,1.2,1.5,1.2,2.5l0.2,40.5
							c0,0.7-0.2,1.3-0.6,1.9l-6,8.4c-0.5,0.7-1.3,1.2-2.2,1.3C1269.8,1149.7,1269.7,1149.7,1269.5,1149.7z M1266.7,1140.1l2.2,1.8
							l3.4-4.8l-0.2-37.9l-2.2-1.7l-3.4,4.7L1266.7,1140.1z"/>
					</g>
				</g>
				<g>
					<g>
						<g>
							<g>
								<path fill="#861755" d="M734,1600.7l-6.1,123.9c-0.2,4.4-2.9,8.2-7,9.8c-16.9,6.6-59.8,26.5-59.3,58.5
									c0.7,44.8,116.4,27.2,141.9,12.8c21.9-12.4,16.8-100,20.2-166.2c3.9-77.2-3.2-91.9-46.9-92.9
									C727.1,1545.5,734,1600.7,734,1600.7z"/>
								<path fill="#861755" d="M934.9,1599.7l-2.1,175.2c-0.1,4.5-1.6,8.8-4.5,12.2c-12.1,14.5-44.2,57.2-31.7,88.7
									c16.7,42.3,81.6,7,106.5-20.3s25.8-22.7,29.1-85.5c3.3-62.9,4.8-148.8,4.8-148.8s7.3-52.2-55.6-52.3
									C932.6,1569,934.9,1599.7,934.9,1599.7z"/>
								<path fill="#861755" d="M389.6,1006.3c0,0,65.8,3.4,51.7,106.3c0,0-119.4,90.4-95.5,186.1c0,0,25.3,12.8,20.5,41.6
									s10.7,66.3-45.8,67c-56.5,0.7-103.8-93.8-55.6-209.8C313.1,1081.4,362.8,1020.4,389.6,1006.3z"/>
								<path fill="#DC1965" d="M808.6,288c-13.7-0.1-27.3,1.9-40.4,5.9C686.3,319,394.3,429.5,356.7,738.3
									c-43.9,359.7,40.9,686.3,40.9,686.3S418.3,1573,770,1637.1c0,0,293.4,66.3,421.1,44.8s436-56.1,473.4-324.2
									c38.5-275.9-4.5-736.4-134.2-869C1530.4,488.8,1303.9,292.5,808.6,288z"/>
								<path fill="#B92058" d="M1664.6,1357.8c38.3-274.1-4-730.3-131.7-866.2c-58.4,35.9-226.6,136.4-341.4,176.5
									c-5.1,1.8-10.1,3.4-14.9,5c0,0-10.2,10.2,0,51.2c10.2,40.9,17.5,875.2,14.6,957.8
									C1318.8,1660.5,1627.1,1625.9,1664.6,1357.8z"/>
								<g>
									<path fill="#B92058" d="M1125.3,680c-2.2,0-4.4-0.5-6.4-1.7c-2.8-1.6-279.9-157.7-612.4-127c-7.1,0.6-13.3-4.5-14-11.6
										c-0.7-7.1,4.5-13.3,11.6-14c340.8-31.5,624.7,128.7,627.6,130.3c6.1,3.5,8.3,11.4,4.8,17.5
										C1134.1,677.7,1129.7,680,1125.3,680z"/>
								</g>
								<ellipse fill="#B92058" cx="970.5" cy="407.7" rx="66" ry="33.5"/>
								<path fill="#330819" d="M970.5,441.2c26.9,0,49.9-8.2,60.2-19.9c-1.4-9.4-11.8-23.1-60.2-25.5c0,0-44.9-2.2-60.9,24.8
									C919.6,432.7,943.1,441.2,970.5,441.2z"/>
								<path fill="#B92058" d="M442.4,909.9c0,0-15.1-202.8,96.5-218.4c111.6-15.6,344.1,44.8,344.1,44.8s183.1,35.6,187,181.8
									s37.7,343.6-110,348.5c0,0-85.8,2.4-242.7-43.9s-263.4-78.9-266.8-184.7L442.4,909.9z"/>
								<path fill="#E5E9F6" d="M1070,918.2c-3.9-146.2-187-181.8-187-181.8s-215-55.9-330.7-46.3c-17,31.9-39.6,100.3-44.1,242.5
									v71.7c0,0-5.8,96.5,104.6,133.1c0,0,133.4,46.4,237.6,68.7c88.8,19,171,10.8,214.3-25.5
									C1085.1,1108.7,1072.3,1004.5,1070,918.2z"/>
								<path fill="#ECF6F8" d="M961.1,1215.2c0,0,14.6,0.7,55.3-9.7c0,0-27.5-0.7-67.5-3.5c-108.8-7.7-191.9-41.4-325.4-83.4
									c-133.4-41.9-86.3-243.9-71.7-340.5c8.2-54,43.9-77.3,73.7-87.4c-26.5-2-51.6-2.5-73.3-0.7c-17,31.9-39.6,100.3-44.1,242.5
									v71.7c0,0-5.8,96.5,104.6,133.1c0,0,133.4,46.4,237.6,68.7C889.5,1214.4,927.3,1217.4,961.1,1215.2z"/>
								<g>
									<path fill="#861041" d="M1178.2,1459.3c-54.4,0-170.7-19.4-405.9-67c-248.1-50.1-401.7-115.1-403.3-115.7l-3.9-26.6
										c1.6,0.7,166.9,67.5,412.3,117.1c269.2,54.4,382.8,72.1,419.2,65.2c45.3-8.6,332.3-80,477.5-167.9l-2.5,31.5
										c-148.4,89.8-424.2,152.8-470.2,161.6C1195.3,1458.7,1187.7,1459.3,1178.2,1459.3z"/>
								</g>
								
									<ellipse transform="matrix(0.24 -0.9708 0.9708 0.24 -94.134 2347.0964)" fill="#330819" cx="1452" cy="1233.7" rx="110.6" ry="83.8"/>
								<path fill="#861755" d="M1479.7,1172.1c0,0-65.8,3.4-51.7,106.3c0,0,119.4,90.4,95.5,186.1c0,0-25.3,12.8-20.5,41.6
									c4.9,28.8-10.7,66.3,45.8,67c56.5,0.7,103.8-93.8,55.6-209.8C1556.2,1247.2,1506.5,1186.3,1479.7,1172.1z"/>
							</g>
							<path fill="#D80000" d="M1267.4,1621.6L1267.4,1621.6c-6.2,0-11.3-5.1-11.3-11.3v-99.4c0-6.2,5.1-11.3,11.3-11.3h0
								c6.2,0,11.3,5.1,11.3,11.3v99.4C1278.8,1616.5,1273.7,1621.6,1267.4,1621.6z"/>
							<path fill="#D80000" d="M1323,1612.5L1323,1612.5c-6.2,0-11.3-5.1-11.3-11.3v-99.4c0-6.2,5.1-11.3,11.3-11.3l0,0
								c6.2,0,11.3,5.1,11.3,11.3v99.4C1334.3,1607.4,1329.2,1612.5,1323,1612.5z"/>
							<path fill="#D80000" d="M1378.4,1600L1378.4,1600c-6.2,0-11.3-5.1-11.3-11.3v-99.4c0-6.2,5.1-11.3,11.3-11.3h0
								c6.2,0,11.3,5.1,11.3,11.3v99.4C1389.7,1594.9,1384.6,1600,1378.4,1600z"/>
							<path fill="#ED2020" d="M1517,867.4L1517,867.4c-6.2,0.9-11.9-3.4-12.8-9.6L1475.8,663c-0.9-6.2,3.4-11.9,9.6-12.8l0,0
								c6.2-0.9,11.9,3.4,12.8,9.6l28.3,194.8C1527.4,860.7,1523.1,866.5,1517,867.4z"/>
							<path fill="#ED2020" d="M1568.5,837.3L1568.5,837.3c-6.2,0.9-11.9-3.4-12.8-9.6L1527.4,633c-0.9-6.2,3.4-11.9,9.6-12.8l0,0
								c6.2-0.9,11.9,3.4,12.8,9.6l28.3,194.8C1579,830.7,1574.7,836.4,1568.5,837.3z"/>
							<g>
								<g>
									<path fill="#330819" d="M1229.3,1285.2l12.2,10l0,28.3l-12.2,17.4L1229.3,1285.2z M1263.5,1333.2l-31.9,9.6l12-17.4l16.7-5
										l7.8,6.2L1263.5,1333.2z M1264.2,1289.2l6-8.6l6.1,5l0.1,29.1l-6.1,8.7l-6.1-5L1264.2,1289.2z M1280.3,1314.5l16.5-4.9
										l12.2,10l-31.8,9.5l-4.6-3.8L1280.3,1314.5z M1310.9,1260.9l0.4,55.4l-12.3-10l-0.2-28.2L1310.9,1260.9z"/>
									<path fill="#330819" d="M1231.6,1346c-1,0-2-0.5-2.6-1.3c-0.2-0.2-0.3-0.5-0.4-0.7c-0.1,0-0.2,0-0.3-0.1
										c-1.3-0.4-2.2-1.7-2.2-3.1l0-55.7c0-1.2,0.7-2.4,1.8-2.9s2.5-0.4,3.4,0.4l12.2,10c0.7,0.6,1.2,1.5,1.2,2.5l0,26.6l14.7-4.4
										c0.5-0.2,1.1-0.2,1.6-0.1l-0.1-28.1c0-0.7,0.2-1.3,0.6-1.9l6-8.6c0.5-0.7,1.3-1.2,2.2-1.3c0.9-0.1,1.8,0.1,2.5,0.7l6.1,5
										c0.7,0.6,1.2,1.5,1.2,2.5l0.1,25.8l16.3-4.9c0-0.1,0-0.1,0-0.2l-0.2-28.2c0-0.7,0.2-1.3,0.6-1.9l12-17.2
										c0.8-1.1,2.3-1.6,3.6-1.2c1.3,0.4,2.2,1.6,2.3,3l0.4,55.4c0,1.2-0.7,2.4-1.8,2.9c-0.2,0.1-0.3,0.1-0.5,0.2
										c0,0.3,0,0.6-0.1,0.9c-0.2,1.2-1.1,2.1-2.2,2.4l-31.8,9.5c-1,0.3-2.1,0.1-3-0.6l-4.3-3.5c-0.1,0.2-0.2,0.3-0.3,0.5
										l-4.7,6.6c-0.4,0.6-1,1-1.7,1.2l-31.9,9.6C1232.2,1346,1231.9,1346,1231.6,1346z M1245.7,1328.2l-6.2,8.9l22-6.6l2.3-3.2
										l-4.1-3.3L1245.7,1328.2z M1263.5,1333.2L1263.5,1333.2L1263.5,1333.2z M1232.5,1292l0,38.7l5.8-8.3l0-25.8L1232.5,1292z
										 M1277.1,1324.7l1,0.8l24.3-7.3l-6.3-5.1l-13.8,4.1L1277.1,1324.7z M1267.5,1316.8l2.3,1.9l3.5-5l-0.1-26.6l-2.3-1.8
										l-3.5,5L1267.5,1316.8z M1302.3,1304.7l5.8,4.7l-0.3-38.5l-5.7,8.1L1302.3,1304.7z"/>
								</g>
								<g>
									<path fill="#330819" d="M1263.2,1259.8l-34,10.1l12.3-17.2l18.7-5.5l7.7,6.2L1263.2,1259.8z M1280,1241.3l16.4-4.9
										l12.2,9.9l-31.5,9.4l-4.6-3.7L1280,1241.3z M1310.4,1188.5l0.4,54.6l-12.2-9.9l-0.2-27.8L1310.4,1188.5z"/>
									<path fill="#330819" d="M1229.3,1273.1c-1,0-2-0.5-2.6-1.3c-0.8-1.1-0.8-2.6,0-3.7l12.3-17.2c0.4-0.6,1-1,1.7-1.2l18.7-5.5
										c1-0.3,2.1-0.1,2.9,0.6l7.4,5.9c0.1-0.1,0.2-0.3,0.3-0.4l7.5-10.7c0.4-0.6,1-1,1.7-1.2l16.4-4.8c0-0.1,0-0.1,0-0.2
										l-0.2-27.8c0-0.7,0.2-1.3,0.6-1.9l11.9-16.9c0.8-1.1,2.2-1.6,3.6-1.2c1.3,0.4,2.2,1.6,2.3,3l0.4,54.6
										c0,1.2-0.7,2.4-1.8,2.9c-0.2,0.1-0.3,0.1-0.5,0.2c0,0.3,0,0.6-0.1,0.8c-0.2,1.2-1.1,2.1-2.2,2.4l-31.5,9.4
										c-1,0.3-2.1,0.1-2.9-0.6l-4.2-3.4c-0.1,0.2-0.2,0.3-0.3,0.4l-4.7,6.5c-0.4,0.6-1,1-1.7,1.2l-34,10.1
										C1229.9,1273,1229.6,1273.1,1229.3,1273.1z M1243.5,1255.4l-6.2,8.7l24-7.1l2.2-3.1l-4-3.2L1243.5,1255.4z M1263.2,1259.8
										L1263.2,1259.8L1263.2,1259.8z M1276.8,1251.4l0.9,0.8l24.1-7.1l-6.1-5l-13.7,4.1L1276.8,1251.4z M1301.8,1231.6l5.7,4.7
										l-0.3-37.8l-5.6,7.9L1301.8,1231.6z"/>
								</g>
								<g>
									<path fill="#330819" d="M1260,1182.2l-18.5,5.4l-12.2-9.8l33.7-9.9l4.6,3.6L1260,1182.2z M1276.6,1164l33.6-9.8l-11.9,16.8
										l-18.6,5.5l-7.6-6.1L1276.6,1164z"/>
									<path fill="#330819" d="M1241.4,1190.8c-0.7,0-1.4-0.2-2-0.7l-12.2-9.8c-0.9-0.8-1.4-2-1.1-3.1c0.2-1.2,1.1-2.1,2.2-2.5
										l33.7-9.9c1-0.3,2.1-0.1,2.9,0.6l4.3,3.4c0.1-0.1,0.2-0.3,0.2-0.4l4.5-6.3c0.4-0.6,1-1,1.7-1.2l33.6-9.8
										c1.3-0.4,2.7,0.1,3.5,1.2c0.8,1.1,0.8,2.6,0,3.7l-11.9,16.8c-0.4,0.6-1,1-1.7,1.2l-18.6,5.5c-1,0.3-2.1,0.1-2.9-0.6
										l-7.2-5.8c-0.1,0.1-0.2,0.3-0.2,0.4l-7.6,10.6c-0.4,0.6-1,1-1.7,1.2l-18.5,5.4C1242,1190.8,1241.7,1190.8,1241.4,1190.8z
										 M1236,1179.2l6.1,4.9l15.9-4.7l5.2-7.2l-0.9-0.7L1236,1179.2z M1260,1182.2L1260,1182.2L1260,1182.2z M1276.4,1169.7
										l3.9,3.2l15.9-4.7l5.9-8.4l-23.6,6.9L1276.4,1169.7z"/>
								</g>
								<g>
									<path fill="#330819" d="M1269.4,1092.9l6,4.8l0.2,40.5l-6,8.4l-6-4.9l-0.1-40.5L1269.4,1092.9z"/>
									<path fill="#330819" d="M1269.7,1149.7c-0.7,0-1.4-0.3-2-0.7l-6-4.9c-0.8-0.6-1.2-1.5-1.2-2.5l-0.1-40.5
										c0-0.7,0.2-1.3,0.6-1.9l5.9-8.3c0.5-0.7,1.3-1.2,2.2-1.3c0.9-0.1,1.8,0.1,2.5,0.7l6,4.8c0.7,0.6,1.2,1.5,1.2,2.5l0.2,40.5
										c0,0.7-0.2,1.3-0.6,1.9l-6,8.4c-0.5,0.7-1.3,1.2-2.2,1.3C1269.9,1149.7,1269.8,1149.7,1269.7,1149.7z M1266.8,1140.1
										l2.2,1.8l3.4-4.8l-0.2-37.9l-2.2-1.7l-3.4,4.7L1266.8,1140.1z"/>
								</g>
							</g>
						</g>
					</g>
					<g>
						<polygon fill="#D80000" points="818.4,1426.4 1054.4,1473.1 1054.4,1515.9 821.5,1467.3 						"/>
						<polygon fill="#861041" points="835.6,1456.3 834,1430.1 818.4,1426.4 821.5,1467.3 1054.4,1515.9 1054.4,1498.5 						"/>
					</g>
					<g>
						<g>
							<g>
								
									<ellipse transform="matrix(3.440763e-02 -0.9994 0.9994 3.440763e-02 -541.093 2695.7229)" fill="#861041" cx="1124.5" cy="1627.9" rx="14.4" ry="13.2"/>
							</g>
							<path fill="#D80000" d="M1126.8,1613.7c6.3,1.2,11,7.2,10.9,14.4c-0.1,7.2-5.1,13-11.4,14c-5.5-1.2-9.7-7.2-9.5-14.4
								C1116.9,1620.6,1121.3,1614.7,1126.8,1613.7z"/>
						</g>
						<g>
							<g>
								
									<ellipse transform="matrix(3.440763e-02 -0.9994 0.9994 3.440763e-02 -512.6635 2633.478)" fill="#861041" cx="1106.5" cy="1582" rx="14.4" ry="13.2"/>
							</g>
							<path fill="#D80000" d="M1108.8,1567.9c6.3,1.2,11,7.2,10.9,14.4c-0.1,7.2-5.1,13-11.4,14c-5.5-1.2-9.7-7.2-9.5-14.4
								C1098.9,1574.7,1103.3,1568.9,1108.8,1567.9z"/>
						</g>
						<g>
							<g>
								
									<ellipse transform="matrix(3.440763e-02 -0.9994 0.9994 3.440763e-02 -576.2347 2630.1184)" fill="#861041" cx="1073" cy="1613.3" rx="14.4" ry="13.2"/>
							</g>
							<path fill="#D80000" d="M1075.3,1599.1c6.3,1.2,11,7.2,10.9,14.4c-0.1,7.2-5.1,13-11.4,14c-5.5-1.2-9.7-7.2-9.5-14.4
								C1065.4,1605.9,1069.7,1600.1,1075.3,1599.1z"/>
						</g>
						<path fill="#861041" d="M1148,1644.5c-2.3-14.8-5.6-29.5-9.7-43.9c-4.1-14.4-8.3-28.8-14.7-42.1c-1.7-3.3-3.5-6.5-5.6-9.4
							c-2.2-2.8-4.9-5.5-8.2-6.5c-3.3-0.9-7.1-0.2-10.5,1c-3.5,1.2-6.7,3-9.9,5c-6.3,4-11.8,9.1-17.1,14.4c-5.3,5.3-10,11.1-14.6,17
							c-4.5,5.9-8.8,12.1-12.5,18.5c-1.8,3.2-3.6,6.5-4.7,9.9c-1.1,3.5-1.7,7-1.7,10.6c0,3.6,0.7,7.1,2.2,10.2
							c1.5,3.1,3.7,5.9,6.5,8.1c5.7,4.3,12.4,7.8,19.2,10.6c13.6,5.7,28.3,8.9,43.1,9.7c7.4,0.3,14.9-0.1,22.3-1.1
							c3.7-0.3,7.4-1.3,10.6-3.1c1.6-0.9,3.1-2.1,4-3.6C1147.8,1648.2,1148.2,1646.4,1148,1644.5z M1148.4,1644.5
							c0.2,1.9-0.1,3.9-1.1,5.5c-1,1.7-2.5,2.9-4.1,3.9c-3.3,2-7,2.9-10.8,3.5c-7.4,1.4-14.9,2.2-22.5,2.4
							c-15.1,0.1-30.4-2.8-44.4-8.7c-7-3-13.9-6.3-20-11.1c-3.1-2.5-5.6-5.8-7.3-9.4c-1.6-3.7-2.4-7.7-2.3-11.6
							c0.1-3.9,0.8-7.8,2.1-11.5c1.3-3.8,3.3-7,5.3-10.3c4-6.4,8.5-12.5,13.3-18.3c9.6-11.5,20.1-22.6,32.5-31.2
							c3.1-2.1,6.4-4,10-5.4c3.6-1.3,7.4-2.4,11.5-1.5c4,1.1,7,3.9,9.5,6.9c2.4,3,4.5,6.3,6.3,9.6c6.9,13.6,11,28.2,14.3,42.9
							c1.6,7.3,3,14.7,4.3,22.1C1146,1629.7,1147.3,1637,1148.4,1644.5z"/>
						<path fill="#861041" d="M1132.1,1575.2c0,0-8.6-26.8-24.3-24.5c-15.6,2.4-56.6,46.9-60.5,62.4c-3.6,14.6,7.2,23,16.3,27.3
							c9.2,4.3,48,18.3,84.6,4.2c0,0,2.2,11.1-20.2,13.1c-22.4,2.1-38.9-1.2-38.9-1.2s-39.4-7.7-47.1-22.6
							c-7.7-14.9-3.6-23.1-3.6-23.1s6.4-15.8,15-26.5c8.6-10.8,32.2-39,47.7-42c15.5-2.9,20,7.8,24.1,16.1
							S1132.1,1575.2,1132.1,1575.2z"/>
					</g>
				</g>
			</g>
			<g>
				<g>
					<g>
						<g>
							<path opacity="0.78" fill="#081613" d="M966.6,1538.4c-3.3,33,44.6,38.6,49,5.8C1019,1511.1,971,1505.5,966.6,1538.4z"/>
							<path opacity="0.99" fill="#081613" d="M970,1538.8c-0.4,4.4,0.6,9,3.5,12.3c2.8,3.3,7.1,5.2,11.3,5.5
								c4.2,0.3,8.5-1,11.6-3.6c3.1-2.6,4.8-6.4,5.4-10.5c0.4-4.1-0.4-8.2-2.8-11.5c-2.4-3.3-6.2-5.5-10.4-6.2
								c-4.2-0.7-8.7,0.2-12.3,2.7C972.6,1530.1,970.6,1534.4,970,1538.8z M970,1538.8c0.6-4.4,2.5-8.7,6-11.5
								c3.4-2.9,8.1-4.3,12.7-3.9c4.6,0.4,9.2,2.4,12.3,6.1c3.2,3.7,4.3,8.8,3.8,13.5c-0.6,4.7-2.9,9.4-6.8,12.2
								c-3.9,2.9-8.8,3.8-13.4,3.1c-4.5-0.7-8.8-3.1-11.4-6.8C970.4,1547.8,969.5,1543.1,970,1538.8z"/>
							<path fill="#D80000" d="M971,1538.9c-2.2,16.7,23.5,19.7,25.2,3C998.4,1525.1,972.7,1522.1,971,1538.9z"/>
						</g>
						<g>
							<path opacity="0.78" fill="#081613" d="M903,1526.4c-3.3,33,44.6,38.6,49,5.8C955.4,1499.1,907.4,1493.5,903,1526.4z"/>
							<path opacity="0.99" fill="#081613" d="M906.4,1526.8c-0.4,4.4,0.6,9,3.5,12.3c2.8,3.3,7.1,5.2,11.3,5.5
								c4.2,0.3,8.5-1,11.6-3.6c3.1-2.6,4.8-6.4,5.4-10.5c0.4-4.1-0.4-8.2-2.8-11.5c-2.4-3.3-6.2-5.5-10.4-6.2
								c-4.2-0.7-8.7,0.2-12.3,2.7C909,1518.1,907,1522.4,906.4,1526.8z M906.4,1526.8c0.6-4.4,2.5-8.7,6-11.5
								c3.4-2.9,8.1-4.3,12.7-3.9c4.6,0.4,9.2,2.4,12.3,6.1c3.2,3.7,4.3,8.8,3.8,13.5c-0.6,4.7-2.9,9.4-6.8,12.2
								c-3.9,2.9-8.9,3.8-13.4,3.1c-4.5-0.7-8.8-3.1-11.4-6.8C906.8,1535.8,905.9,1531.1,906.4,1526.8z"/>
							<path fill="#D80000" d="M907.3,1526.9c-2.2,16.7,23.5,19.7,25.2,3C934.8,1513.2,909,1510.1,907.3,1526.9z"/>
						</g>
						<g>
							<path opacity="0.78" fill="#081613" d="M840.6,1514.9c-3.3,33,44.6,38.6,49,5.8C892.9,1487.7,845,1482.1,840.6,1514.9z"/>
							<path opacity="0.99" fill="#081613" d="M843.9,1515.3c-0.4,4.4,0.6,9,3.5,12.3c2.8,3.3,7.1,5.2,11.3,5.5
								c4.2,0.3,8.5-1,11.6-3.6c3.1-2.6,4.8-6.4,5.4-10.5c0.4-4.1-0.4-8.2-2.8-11.5c-2.4-3.3-6.2-5.5-10.4-6.2
								c-4.2-0.7-8.7,0.2-12.3,2.7C846.6,1506.7,844.5,1510.9,843.9,1515.3z M843.9,1515.3c0.6-4.4,2.5-8.7,6-11.5
								c3.4-2.9,8.1-4.3,12.7-3.9c4.6,0.4,9.2,2.4,12.3,6.1c3.2,3.7,4.3,8.8,3.8,13.5c-0.6,4.7-2.9,9.4-6.8,12.2
								c-3.9,2.9-8.9,3.8-13.4,3.1c-4.5-0.7-8.8-3.1-11.4-6.8C844.3,1524.3,843.4,1519.7,843.9,1515.3z"/>
							<path fill="#D80000" d="M844.9,1515.4c-2.2,16.7,23.5,19.7,25.2,3C872.3,1501.7,846.6,1498.7,844.9,1515.4z"/>
						</g>
					</g>
					<g>
						<polygon opacity="0.78" fill="#081613" points="462.5,1472.1 799.4,1555.8 795.6,1429.9 453.7,1348.6 						"/>
						<polygon fill="#D80000" points="469.4,1466.4 792.1,1547.8 787.5,1434.8 461.9,1359 						"/>
						<g>
							<g>
								<path fill="#FFFFFF" d="M551.5,1435.8l-0.7,13.8l-10.5,7.8l1.2-26.4l4-3L551.5,1435.8z M542.1,1419.5l1.3-26.5l9.7,12.2
									l-0.7,13.9l-6.7,5.1L542.1,1419.5z M582.9,1469.7l-40.7-9.9l10.5-7.7l20.8,4.9L582.9,1469.7z M586.9,1400l-10.8,8.2l-21-4.4
									l-9.7-12.3L586.9,1400z M574.5,1427.3l4.8,6.3l-5.3,4l-21.5-4.9l-4.8-6.2l5.3-4L574.5,1427.3z"/>
								<path fill="#FFFFFF" d="M604.4,1469.9l-5.3,4.1l-4.7-6.5l1.5-25.2l4-3l5.9,8.1L604.4,1469.9z M607,1430.1l-6.7,5.2l-3.6-4.8
									l1.7-28.2l9.5,12.7L607,1430.1z M635.4,1447.3l-1.3,9.2l-19.3,15.9l-7.1-1.7l0.5-7.4l19.2-16L635.4,1447.3z M639.7,1440.1
									l-4.1,3.1l-5.8-8.2l1.1-15.2l10.9-8.6L639.7,1440.1z"/>
								<path fill="#FFFFFF" d="M662.5,1458.8l-2.3,30.1l-9.2-13.2l1.2-16.6l6.8-5.3L662.5,1458.8z M653.6,1441.6l1.2-16.5l11-8.7
									l-2.3,30.2l-4.1,3.3L653.6,1441.6z"/>
								<path fill="#FFFFFF" d="M688.1,1467.5l-1.2,14.8l-10.9,8.4l2.3-28.3l4.1-3.2L688.1,1467.5z M679.3,1450.1l2.5-30.4l9.3,13.2
									l-1.4,16.8l-6.9,5.5L679.3,1450.1z M718.4,1503.5l-40.6-10.2l10.9-8.4l20.7,5.1L718.4,1503.5z"/>
							</g>
						</g>
						<polygon opacity="0.46" fill="#081613" points="469.5,1360.7 461.9,1359 469.4,1466.4 792.1,1547.8 791.7,1536.2 
							477.3,1460.4 						"/>
						<polygon opacity="0.99" fill="#081613" points="453.7,1348.6 461.9,1345.3 802.9,1425 805.6,1550.1 799.4,1555.8 
							795.6,1429.9 						"/>
						<polygon opacity="0.31" fill="#FFFFFF" points="655.2,1404.2 601.9,1498.9 655.2,1512.6 709.2,1416.7 						"/>
						<polygon opacity="0.31" fill="#FFFFFF" points="630.1,1398.5 573.5,1491.6 514,1477.2 615.7,1395.1 						"/>
					</g>
				</g>
				
					<radialGradient id="SVGID_1_" cx="1543.932" cy="4900.2544" r="196.6351" gradientTransform="matrix(0.9172 0.1043 -3.096751e-02 0.2724 -344.4188 37.1538)" gradientUnits="userSpaceOnUse">
					<stop  offset="0" style="stop-color:#D80000;stop-opacity:0.7407"/>
					<stop  offset="1" style="stop-color:#D80000;stop-opacity:0"/>
				</radialGradient>
				<path fill="url(#SVGID_1_)" d="M725.2,1511c-6.5,56.8,75.5,112.7,183,125s199.9-23.9,206.4-80.7c6.5-56.8-75.5-112.7-183-125
					S731.7,1454.3,725.2,1511z"/>
			</g>
			<g>
				<path fill="#D80000" d="M579.2,924.2c-12.7,6.6-21.4,19.9-21.4,35.2c0,21.9,17.8,39.7,39.7,39.7c20.8,0,37.9-16.1,39.5-36.5
					C622,967.7,588.8,973.1,579.2,924.2z"/>
				<path fill="#D80000" d="M936.1,985.7c-18.7,40-48.9,41.2-64.7,32.1c0.8,21.2,18.2,38.2,39.6,38.2c21.9,0,39.7-17.8,39.7-39.7
					C950.7,1004,945,993,936.1,985.7z"/>
				
					<ellipse transform="matrix(0.2005 -0.9797 0.9797 0.2005 -552.3668 1367.9131)" fill="#FDE0DA" cx="561.9" cy="1022.4" rx="15.5" ry="40.5"/>
				
					<ellipse transform="matrix(0.1129 -0.9936 0.9936 0.1129 -248.205 1900.6556)" fill="#FDE0DA" cx="940.4" cy="1089.3" rx="15.5" ry="40.5"/>
				<g>
					<g>
						<path fill="#D80000" d="M699.4,972.7c17.1,9.5,48.9,21.1,94.9,12.5c7.9-1.5,15.3,4.7,15,12.8c-1.3,33-11.9,103.8-80.3,92
							c-57-9.9-53.8-75.3-48.3-108.4C682.1,972.9,691.7,968.4,699.4,972.7z"/>
						<path fill="#FFFFFF" d="M805.6,995.4c0-3.1-0.8-5.9-2.4-8.5c-2.6-1.6-5.7-2.3-8.9-1.7c-46,8.6-77.9-3-94.9-12.5
							c-7.7-4.3-17.3,0.2-18.7,8.9c-0.4,2.3-0.8,4.8-1.1,7.5c0.7,11.6,5.7,24.1,22.2,30c0,0-7.4-22.7,8-21.6
							c15.5,1,72.1,3.3,68.2,14.9c-3.9,11.6-11.7,16.3-11.7,16.3S805.2,1027.5,805.6,995.4z"/>
						<path fill="#FFFFFF" d="M765.9,1051.3c0,0,6,18.2-6.4,17.3c-12.4-0.8-57.1-1.2-54-10.4c3.1-9.3,6.8-12.4,6.8-12.4
							s-18.5-0.8-26.2,11.9c7.3,15.8,20.4,28.4,42.9,32.2c25.3,4.4,42.7-2.6,54.7-14.7C783,1066,779,1056,765.9,1051.3z"/>
					</g>
					
						<path fill="none" stroke="#910000" stroke-width="3.7676" stroke-linecap="round" stroke-linejoin="round" stroke-miterlimit="10" d="
						M699.4,972.7c17.1,9.5,48.9,21.1,94.9,12.5c7.9-1.5,15.3,4.7,15,12.8c-1.3,33-11.9,103.8-80.3,92c-57-9.9-53.8-75.3-48.3-108.4
						C682.1,972.9,691.7,968.4,699.4,972.7z"/>
				</g>
			</g>
			<g>
				<defs>
					<polygon id="SVGID_201_" points="1659.4,860.7 1669.5,947.8 1861.8,994.8 1930,736.8 1652.6,743.3 					"/>
				</defs>
				<clipPath id="SVGID_2_">
					<use xlink:href="#SVGID_201_"  overflow="visible"/>
				</clipPath>
				<g clip-path="url(#SVGID_2_)">
					<path fill="#B51612" d="M1633.6,978.3c-2-6.7-12.7-76.9,4.9-91.1c61-49,0.9-101.2,20.8-114.6c22.6-15.2,151.3,0.3,209.1,39.6
						c0,0-83.7,15.8-60.3,59.1c0,0-71-5.5-51.5,41.9c0,0-50.5-22.6-52.6,17.1c0,0-46.8-27-42.5,27.2
						C1661.4,957.5,1651.3,1035.9,1633.6,978.3z"/>
					<g>
						<path fill="#991111" d="M1652.7,963.1c-0.6-15.5-0.3-31.2,4.4-46.2c4.4-14.2,14.5-24.4,22.4-36.5c12.1-18.4,14-40,9-61.2
							c-1.2-5.1-3.2-10.2-3.6-15.4c-0.9-11.3,10.2-11.4,19-12.1c13.8-1.1,27.7,0.2,41.3,3.1c22,4.7,42.6,13.6,63.7,20.8
							c2.7,0.9,3.6-3.4,0.9-4.3c-24.2-8.1-47.7-18.3-73.1-22.1c-14.3-2.1-28.9-2.4-43.2,0.2c-7.1,1.3-11.9,3.4-12.3,11.3
							c-0.7,12.3,6.1,24.8,6.5,37.3c0.6,17.8-5.2,32.6-15.6,46.8c-7.4,10.1-14.7,19.2-18.4,31.4c-4.6,15-5.7,31.5-3.2,47
							C1650.8,964.5,1652.7,964.4,1652.7,963.1L1652.7,963.1z"/>
					</g>
					<g>
						<path fill="#991111" d="M1704.9,816.3c31,12.3,58.9,29.4,86.7,47.6c1.8,1.2,4-1.9,2.2-3.2c-27.5-19-56.4-35.8-88-47
							C1704.3,813.3,1703.4,815.7,1704.9,816.3L1704.9,816.3z"/>
					</g>
					<g>
						<path fill="#991111" d="M1692.5,863.5c20.1,10.2,36.3,25.4,52.8,40.5c1.8,1.7,4.4-1.2,2.6-2.9c-15.8-15.6-33.3-31.5-54-40.3
							C1692.1,860.2,1690.8,862.6,1692.5,863.5L1692.5,863.5z"/>
					</g>
					<g>
						<path fill="#991111" d="M1674.9,901.2c4.1,3,8,6.2,11.6,9.7c4.1,3.9,7.8,9.4,12.7,12.2c0.9,0.5,2.2-0.5,1.8-1.5
							c-2.4-5.3-7.9-9.5-12.1-13.3c-3.8-3.5-7.9-6.8-12.5-9.2C1675.1,898.4,1673.7,900.3,1674.9,901.2L1674.9,901.2z"/>
					</g>
				</g>
			</g>
			<g>
				<defs>
					<path id="SVGID_203_" d="M1646.6,1428.6l6.1-17.3l62.5-291.6l138.9,37.2l0.3,66.3C1854.5,1223.2,1886.5,1479.4,1646.6,1428.6z"
						/>
				</defs>
				<clipPath id="SVGID_3_">
					<use xlink:href="#SVGID_203_"  overflow="visible"/>
				</clipPath>
				<g clip-path="url(#SVGID_3_)">
					<g>
						<path fill="#B51612" d="M1803.4,1168.8l-4.8,16.3c-0.1,0-1.8-0.5-4.6-1.1c-10.6-2.2-37.2-6.1-57.5,5l-1.3,0.7
							c-11.9,7-19.8,18.7-23.4,34.7c-7,30.6,4,56.6,14.6,81.7c10.6,25,21.5,50.9,10.1,77.4c-1.4,3.3-3.2,6.5-5.2,9.8
							c-6.8,10.4-15.5,17.9-25.2,23.2c-38.3,21-91.5,8.3-94.3,7.6l4.1-16.5c0.7,0.2,74.5,17.7,101.1-23.5c3.4-5.3,5.5-10.5,6.5-15.8
							c3.4-17.1-4-34.7-12.7-55.5c-11.1-26.3-23.7-56.2-15.5-92.1c4.7-20.8,15.3-36.1,31.4-45.6c25.7-15,58.1-10.5,71-7.7
							C1801,1168.2,1803.1,1168.7,1803.4,1168.8z"/>
						<polygon fill="#B51612" points="1788.7,1208.9 1802.4,1145.7 1843.9,1187.8 						"/>
					</g>
					<path opacity="0.1" fill="#D80000" d="M1736.5,1383.6c-1.4,3.3-3.2,6.5-5.2,9.8c-6.8,10.4-15.5,17.9-25.2,23.2
						c-38.3,21-91.5,8.3-94.3,7.6l4.1-16.5c0.7,0.2,74.5,17.7,101.1-23.5c3.4-5.3,5.5-10.5,6.5-15.8
						C1727.5,1373.9,1731.8,1379,1736.5,1383.6z"/>
				</g>
			</g>
			<g>
				<ellipse opacity="0.3" fill="#081613" cx="654.4" cy="439.8" rx="118" ry="52.7"/>
				<path fill="#ED2020" d="M719.3,398.6c0,0-119.5-54.4-154.3-105c-34.8-50.6-50.9-107.9-50.9-107.9s-39.8,61.8-28.8,123.6
					s56.8,146.7,84.8,159C598.1,480.6,819.3,453.5,719.3,398.6z"/>
				<path opacity="0.14" fill="#081613" d="M694.7,458.1C662.7,434,546.3,344.6,509.8,297.7c-21.1-27.1-17.4-60.7-8.4-87.5
					c-10.5,23.7-22.7,61.4-16,99c11,61.7,56.8,146.7,84.8,159C584.3,474.6,648.2,470.6,694.7,458.1z"/>
			</g>
			<g>
				
					<ellipse transform="matrix(0.1129 -0.9936 0.9936 0.1129 507.6629 1666.7991)" opacity="0.3" fill="#081613" cx="1187.3" cy="549.1" rx="52.7" ry="118"/>
				<g>
					<path fill="#ED2020" d="M1118.4,501.8c0,0,121-63.8,156.2-123.2s51.5-126.7,51.5-126.7s40.3,72.6,29.2,145.1
						s-57.5,172.2-85.8,186.7S1017.1,566.3,1118.4,501.8z"/>
					<path opacity="0.14" fill="#081613" d="M1318.4,369.8c8.8-35.3,11.4-78.5,12.1-109.3c-2.6-5.5-4.3-8.6-4.3-8.6
						s-16.3,67.3-51.5,126.7s-156.2,123.2-156.2,123.2c-101.3,64.4,122.8,96.4,151.1,81.9c7-3.6,15.1-12.4,23.5-24.6
						c-36.9-7.7-114.9-1.8-119.4-31.2C1167.4,487,1302.9,432.1,1318.4,369.8z"/>
				</g>
			</g>
			<g>
				<path fill="#991111" d="M727.1,1685.1l104.2,8.6l-7.4,122.5c0,0-168.5,11.6-244.6,21.5c0,0-3.8,2,20.3-30.1
					c24-32,69.7-79.4,124.4-77.7L727.1,1685.1z"/>
				<polygon opacity="0.14" fill="#081613" points="831.3,1693.7 781.3,1741.3 781.3,1790 579.2,1837.7 823.9,1816.2 				"/>
			</g>
			<g>
				<path fill="#991111" d="M925.7,1727.8c0,0,109.3,4.6,116.7,2.9v98c0,0-76,80.9-193.6,100.9c0,0,34.5-95.3,77.2-143.7
					L925.7,1727.8z"/>
				<path opacity="0.14" fill="#081613" d="M1042.5,1730.7l-116.7-2.9l4.1,60.4c0,0-30.2,27.2-54.1,80.6
					c-23.9,53.4,98.8-47.4,110-67.1s56.8-17.2,56.8-17.2V1730.7z"/>
			</g>
			<g>
				<path fill="#991111" d="M1524.7,1441.2l105.8,11.6l3.4,46.4c0,0-36.6,89-86.4,107.6l-37.8,12.6l6.3-15.5l-42.9-4.6l19.5-28.6
					l-44.1-3.4l39.5-46.4l-29.8-26.3l45.8-15.5L1524.7,1441.2z"/>
				<path opacity="0.14" fill="#081613" d="M1630.5,1452.8l3.4,46.4c0,0-40.1,81.4-78.3,103.9l-41.3,14.8l1.6-13.9l-42.9-4.6
					l39.5-17.6l56.7-51.5l17.7-67.1l-62.4-22L1630.5,1452.8z"/>
			</g>
			<polygon opacity="0.14" fill="#081613" points="1652.6,1411.6 1646.6,1428.6 1655.8,1428.6 1660.3,1411.3 			"/>
			<path opacity="0.14" fill="#081613" d="M1663,855.9l19.2,67.6c0,0-12.2,0.4-14.7,5.8l-8-66.4L1663,855.9z"/>
			<g>
				<g>
					<g>
						<path fill="#D80000" d="M972.1,442.3c26.9,0,49.9-8.2,60.2-19.9c-1.4-9.4-11.8-23.1-60.2-25.5c0,0-44.9-2.2-60.9,24.8
							C921.2,433.7,944.7,442.3,972.1,442.3z"/>
					</g>
					
						<radialGradient id="SVGID_4_" cx="972.0963" cy="408.7483" r="192.8796" gradientTransform="matrix(1 0 0 0.6863 0 128.2394)" gradientUnits="userSpaceOnUse">
						<stop  offset="0" style="stop-color:#D80000;stop-opacity:0.7407"/>
						<stop  offset="1" style="stop-color:#D80000;stop-opacity:0"/>
					</radialGradient>
					<ellipse fill="url(#SVGID_4_)" cx="972.1" cy="408.7" rx="296.9" ry="222.6"/>
					
						<radialGradient id="SVGID_5_" cx="1825.4642" cy="4793.0796" r="149.9233" gradientTransform="matrix(1.8026 0.2049 -5.041134e-02 0.4435 -2096.8257 -1033.131)" gradientUnits="userSpaceOnUse">
						<stop  offset="0" style="stop-color:#D80000;stop-opacity:0.7407"/>
						<stop  offset="1" style="stop-color:#D80000;stop-opacity:0"/>
					</radialGradient>
					<path fill="url(#SVGID_5_)" d="M536.2,1419.4c-7,61.7,173.6,133,403.3,159.1s421.7-2.8,428.7-64.5
						c7-61.7-173.6-133-403.3-159.1S543.2,1357.7,536.2,1419.4z"/>
					
						<radialGradient id="SVGID_6_" cx="-4697.8599" cy="4971.5161" r="149.9233" gradientTransform="matrix(0.6449 7.329858e-02 -5.041134e-02 0.4435 4378.8672 -260.431)" gradientUnits="userSpaceOnUse">
						<stop  offset="0" style="stop-color:#D80000;stop-opacity:0.7407"/>
						<stop  offset="1" style="stop-color:#D80000;stop-opacity:0"/>
					</radialGradient>
					<path fill="url(#SVGID_6_)" d="M949.9,1583.2c-7,61.7,53.9,119.4,136.1,128.7s154.5-33.1,161.5-94.9
						c7-61.7-53.9-119.4-136.1-128.7S956.9,1521.5,949.9,1583.2z"/>
					
						<radialGradient id="SVGID_7_" cx="9384.6514" cy="8841.9883" r="149.9233" gradientTransform="matrix(0.1705 1.0244 -0.4403 7.328888e-02 3549.165 -8700.9072)" gradientUnits="userSpaceOnUse">
						<stop  offset="0" style="stop-color:#D80000;stop-opacity:0.7407"/>
						<stop  offset="1" style="stop-color:#D80000;stop-opacity:0"/>
					</radialGradient>
					<path fill="url(#SVGID_7_)" d="M1216.7,1324.1c-61.3,10.2-93.4,124.3-71.6,254.9s89,228.1,150.3,217.9
						c61.3-10.2,93.4-124.3,71.6-254.9S1278,1313.9,1216.7,1324.1z"/>
					
						<radialGradient id="SVGID_8_" cx="9381.7529" cy="8736.9512" r="149.9233" gradientTransform="matrix(0.1705 1.0244 -0.4403 7.328888e-02 3570.3083 -8704.4258)" gradientUnits="userSpaceOnUse">
						<stop  offset="0" style="stop-color:#D80000;stop-opacity:0.7407"/>
						<stop  offset="1" style="stop-color:#D80000;stop-opacity:0"/>
					</radialGradient>
					<path fill="url(#SVGID_8_)" d="M1283.6,1309.9c-61.3,10.2-93.4,124.3-71.6,254.9c21.7,130.6,89,228.1,150.3,217.9
						c61.3-10.2,93.4-124.3,71.6-254.9S1344.9,1299.7,1283.6,1309.9z"/>
					
						<radialGradient id="SVGID_9_" cx="9380.0869" cy="8643.207" r="149.9233" gradientTransform="matrix(0.1705 1.0244 -0.4403 7.328888e-02 3589.1787 -8707.5674)" gradientUnits="userSpaceOnUse">
						<stop  offset="0" style="stop-color:#D80000;stop-opacity:0.7407"/>
						<stop  offset="1" style="stop-color:#D80000;stop-opacity:0"/>
					</radialGradient>
					<path fill="url(#SVGID_9_)" d="M1343.5,1298.2c-61.3,10.2-93.4,124.3-71.6,254.9s89,228.1,150.3,217.9
						c61.3-10.2,93.4-124.3,71.6-254.9C1472.1,1385.6,1404.8,1288,1343.5,1298.2z"/>
					
						<radialGradient id="SVGID_10_" cx="7018.2656" cy="8563.5781" r="149.9233" gradientTransform="matrix(0.6269 1.7025 -0.4189 0.1542 688.7128 -12511.5215)" gradientUnits="userSpaceOnUse">
						<stop  offset="0" style="stop-color:#D80000;stop-opacity:0.7407"/>
						<stop  offset="1" style="stop-color:#D80000;stop-opacity:0"/>
					</radialGradient>
					<path fill="url(#SVGID_10_)" d="M1356.5,365c-58.3,21.5-40.8,214.8,39.1,431.8s191.9,375.5,250.3,354s40.8-214.8-39.1-431.8
						S1414.8,343.5,1356.5,365z"/>
					
						<radialGradient id="SVGID_11_" cx="7018.2656" cy="8490.1123" r="149.9233" gradientTransform="matrix(0.6269 1.7025 -0.4189 0.1542 702.7811 -12516.7012)" gradientUnits="userSpaceOnUse">
						<stop  offset="0" style="stop-color:#D80000;stop-opacity:0.7407"/>
						<stop  offset="1" style="stop-color:#D80000;stop-opacity:0"/>
					</radialGradient>
					<path fill="url(#SVGID_11_)" d="M1401.3,348.5c-58.3,21.5-40.8,214.8,39.1,431.8s191.9,375.5,250.3,354s40.8-214.8-39.1-431.8
						S1459.6,327,1401.3,348.5z"/>
				</g>
			</g>
			<g>
				<g>
					
						<path fill="#330819" stroke="#330819" stroke-width="7.5352" stroke-linecap="round" stroke-linejoin="round" stroke-miterlimit="10" d="
						M1224.8,1035.8l9.4,6.8l1.9,30.3l-8.1,11.6L1224.8,1035.8z M1263.7,1076.4l-34,9.5l8.1-11.8l23.2-6.4l5.8,4.3L1263.7,1076.4z
						 M1261.9,1034l4.1-5.9l4.6,3.5l1.7,32.4l-4.1,5.8l-4.6-3.4L1261.9,1034z M1270.7,1021.7l34.4-9.2l-8.4,11.6l-23.4,6.3l-5.8-4.4
						L1270.7,1021.7z M1275.1,1063.7l23.2-6.4l9.1,6.9l-33.9,9.4l-3.5-2.5L1275.1,1063.7z M1306.8,1013.7l2.1,48.3l-9.1-6.7l-1.4-30
						L1306.8,1013.7z"/>
				</g>
				<g>
					
						<path fill="#330819" stroke="#330819" stroke-width="7.5352" stroke-linecap="round" stroke-linejoin="round" stroke-miterlimit="10" d="
						M1227.9,961.2l9.4,6.8l1.9,30.3l-8.1,11.6L1227.9,961.2z M1266.8,1001.7l-34,9.5l8.1-11.8l23.2-6.4l5.8,4.3L1266.8,1001.7z
						 M1265,959.4l4.1-5.9l4.6,3.5l1.7,32.4l-4.1,5.8l-4.6-3.4L1265,959.4z M1273.8,947.1l34.4-9.2l-8.4,11.6l-23.4,6.3l-5.8-4.4
						L1273.8,947.1z M1278.2,989.1l23.2-6.4l9.1,6.9l-33.9,9.4l-3.5-2.5L1278.2,989.1z M1309.9,939.1l2.1,48.3l-9.1-6.7l-1.4-30
						L1309.9,939.1z"/>
				</g>
				<g>
					
						<path fill="#330819" stroke="#330819" stroke-width="7.5352" stroke-linecap="round" stroke-linejoin="round" stroke-miterlimit="10" d="
						M1224.8,888.2l9.4,6.8l1.9,30.3l-8.1,11.6L1224.8,888.2z M1263.7,928.8l-34,9.5l8.1-11.8l23.2-6.4l5.8,4.3L1263.7,928.8z
						 M1261.9,886.4l4.1-5.9l4.6,3.5l1.7,32.4l-4.1,5.8l-4.6-3.4L1261.9,886.4z M1270.7,874.1l34.4-9.2l-8.4,11.6l-23.4,6.3
						l-5.8-4.4L1270.7,874.1z M1275.1,916.1l23.2-6.4l9.1,6.9l-33.9,9.4l-3.5-2.5L1275.1,916.1z M1306.8,866.1l2.1,48.3l-9.1-6.7
						l-1.4-30L1306.8,866.1z"/>
				</g>
			</g>
			<g>
				<g>
					<path fill="#991111" d="M350,1270.8h-37.8c0,0-68.1,30.6-68.1,60.1l23.5,81.8l25.8,52.1l14.9-33.8l30.9,37.2l2.3-37.8
						l36.6,17.2l-12-38.3l30.3,3.4l-24.6-62.4l32-2.3l-36.1-38.3L350,1270.8z"/>
					<path opacity="0.14" fill="#081613" d="M350,1270.8h-37.8c0,0-42.8,17.3-64.1,47.1l57.5,1.1l27.6,22.6l47.9,32.8l-9.4-23.9
						l32-2.3l-36.1-38.3L350,1270.8z"/>
					<polygon fill="#991111" points="341.5,1406.6 396.4,1412.8 381.2,1374.3 324,1313.8 					"/>
					<polygon opacity="0.14" fill="#081613" points="327.7,1336.7 324,1313.8 381.2,1374.3 396.4,1412.8 366.7,1399.1 					"/>
				</g>
				<g>
					<g>
						<g>
							<g>
								<path fill="#D80000" d="M405.7,1748.4L405.7,1748.4c-8.7,1.1-16.7-5.1-17.8-13.8L257.8,698.5l31.6-4l130.2,1036.1
									C420.6,1739.3,414.4,1747.3,405.7,1748.4z"/>
								<path fill="#D80000" d="M308.5,971.3c-72.8,9.3-126.6-6.3-159.8-46.2c-69.2-83-20.5-239.6-18.4-246.2l30.3,9.6
									c-0.5,1.5-45.5,146.7,12.5,216.3c25.9,31,70.1,42.8,131.4,35c60.9-7.7,100.6-30.2,118.1-66.7c39.3-82.2-39.2-211.6-40-212.9
									l27.1-16.7c3.6,5.9,88.4,145.7,41.6,243.3C428.8,933.6,380.8,962.1,308.5,971.3z"/>
								<polygon fill="#D80000" points="326.2,698.1 222.9,712.3 263.7,626.3 								"/>
								<polygon fill="#D80000" points="193.4,702.8 90.3,686.7 154.1,616 								"/>
								<polygon fill="#D80000" points="353.8,682.4 449.5,641 370,588.5 								"/>
							</g>
							<g opacity="0.2">
								<path fill="#D80000" d="M405.7,1748.4L405.7,1748.4c-8.7,1.1-16.7-5.1-17.8-13.8L257.8,698.5l31.6-4l130.2,1036.1
									C420.6,1739.3,414.4,1747.3,405.7,1748.4z"/>
								<path fill="#D80000" d="M308.5,971.3c-72.8,9.3-126.6-6.3-159.8-46.2c-69.2-83-20.5-239.6-18.4-246.2l30.3,9.6
									c-0.5,1.5-45.5,146.7,12.5,216.3c25.9,31,70.1,42.8,131.4,35c60.9-7.7,100.6-30.2,118.1-66.7c39.3-82.2-39.2-211.6-40-212.9
									l27.1-16.7c3.6,5.9,88.4,145.7,41.6,243.3C428.8,933.6,380.8,962.1,308.5,971.3z"/>
								<polygon fill="#D80000" points="326.2,698.1 222.9,712.3 263.7,626.3 								"/>
								<polygon fill="#D80000" points="193.4,702.8 90.3,686.7 154.1,616 								"/>
								<polygon fill="#D80000" points="353.8,682.4 449.5,641 370,588.5 								"/>
							</g>
						</g>
						<polygon opacity="0.14" fill="#081613" points="332.5,1286.5 348,1408.2 373.1,1414.3 368.4,1364.8 						"/>
						<path opacity="0.14" fill="#081613" d="M301.2,958.8c0,0-97.1,24.8-147.2-55.7c-50.1-80.5-10.5-215-10.5-215l17.1,0.3
							l-11.4-67l-58.9,65.2l36.1,5.6c-10.7,40.8-36,162.9,22.2,232.7c30.8,37,79.2,53,144,47.8l4,31.8l0,0L301.2,958.8z"/>
						<path opacity="0.14" fill="#081613" d="M271.3,687.7l-20.9,5.2l19-41.9l-3.5-22.3l-2.1-2.4l-40.8,86l36-4.9l29.7,233.9
							c-1.7,0.1-3.3,0.2-5,0.3c0.1,0,0.2,0.1,0.2,0.1c7.3-0.3,20.6-1.9,20.6-1.9L271.3,687.7z"/>
						<path opacity="0.14" fill="#081613" d="M353.8,682.4l33.3-14.4c16.3,29.4,69.2,134.6,35.5,205c-11.9,24.9-34.2,43.2-66.4,54.8
							c0.1,0,0.1,0,0.2,0c95.1-4.3,90.2-110.7,88.5-155.5C443,727.5,393,648.8,393,648.8l-18.6,4.5l-4.3-64.8L353.8,682.4z"/>
					</g>
					<g>
						<defs>
							<polygon id="SVGID_213_" points="384.6,1382.9 331.8,1269.6 269.7,1250.1 203.6,1374.3 265.7,1487.4 339.1,1468.3 
								341.4,1430.5 378,1447.7 366,1409.3 396.4,1412.8 							"/>
						</defs>
						<clipPath id="SVGID_12_">
							<use xlink:href="#SVGID_213_"  overflow="visible"/>
						</clipPath>
						<g clip-path="url(#SVGID_12_)">
							<path fill="#991111" d="M350,1270.8h-37.8c0,0-68.1,30.6-68.1,60.1l23.5,81.8l25.8,52.1l14.9-33.8l30.9,37.2l2.3-37.8
								l36.6,17.2l-12-38.3l30.3,3.4l-24.6-62.4l32-2.3l-36.1-38.3L350,1270.8z"/>
							<path opacity="0.14" fill="#081613" d="M350,1270.8h-37.8c0,0-42.8,17.3-64.1,47.1l57.5,1.1l27.6,22.6l47.9,32.8l-9.4-23.9
								l32-2.3l-36.1-38.3L350,1270.8z"/>
							<polygon fill="#991111" points="341.5,1406.6 396.4,1412.8 381.2,1374.3 324,1313.8 							"/>
							<polygon opacity="0.14" fill="#081613" points="327.7,1336.7 324,1313.8 381.2,1374.3 396.4,1412.8 366.7,1399.1 							"/>
						</g>
					</g>
				</g>
			</g>
		</g>
	</g>
</g>
<g id="Layer_14">
</g>
<g id="Layer_13">
</g>
<g id="Layer_12">
</g>
<g id="Layer_11">
</g>
<g id="Layer_10">
</g>
<g id="Layer_9">
</g>
<g id="Layer_8">
</g>
<g id="Layer_7">
</g>
<g id="Layer_6">
</g>
<g id="Layer_5">
</g>
<g id="Layer_4">
</g>
<g id="Layer_3">
</g>
<g id="Layer_2">
</g>
</svg>
