<svg xmlns="http://www.w3.org/2000/svg" xmlns:xlink="http://www.w3.org/1999/xlink" viewBox="0 0 1920.05 462.91"><defs><style>.cls-1{fill:#482805;}.cls-2{fill:#281613;}.cls-3{fill:#eb8500;}.cls-4{opacity:0.74;}.cls-5{fill:#1f1019;}.cls-6{fill:#281416;}.cls-7{fill:#4e2900;}.cls-8{fill:#572e00;}.cls-9{fill:#221213;}.cls-10{fill:#241511;}.cls-11{fill:#160c0d;}.cls-12{fill:#1a0b14;}.cls-13{fill:url(#linear-gradient);}.cls-14{fill:url(#linear-gradient-2);}.cls-15{fill:#190d14;}.cls-16{fill:url(#linear-gradient-3);}.cls-17{fill:url(#linear-gradient-4);}.cls-18{fill:#25131a;}.cls-19{fill:url(#linear-gradient-5);}.cls-20{fill:url(#linear-gradient-6);}.cls-21{fill:#3b2114;}.cls-22{fill:url(#linear-gradient-7);}</style><linearGradient id="linear-gradient" x1="420.42" y1="-502.66" x2="1287.19" y2="-135.05" gradientTransform="translate(0 396.69)" gradientUnits="userSpaceOnUse"><stop offset="0" stop-color="#301c1e"/><stop offset="1" stop-color="#3f251b"/></linearGradient><linearGradient id="linear-gradient-2" x1="-70.07" y1="-139.06" x2="1941.38" y2="-139.06" gradientTransform="translate(0 396.69)" gradientUnits="userSpaceOnUse"><stop offset="0" stop-color="#241319"/><stop offset="1" stop-color="#261512"/></linearGradient><linearGradient id="linear-gradient-3" x1="542.67" y1="-119.66" x2="1940.72" y2="-119.66" gradientTransform="translate(0 396.69)" gradientUnits="userSpaceOnUse"><stop offset="0" stop-color="#211216"/><stop offset="1" stop-color="#291713"/></linearGradient><linearGradient id="linear-gradient-4" x1="588.76" y1="179.9" x2="1950.91" y2="418.68" gradientUnits="userSpaceOnUse"><stop offset="0" stop-color="#4e2817"/><stop offset="1" stop-color="#2f1d15"/></linearGradient><linearGradient id="linear-gradient-5" x1="1860.7" y1="299.83" x2="1923.78" y2="304.34" gradientUnits="userSpaceOnUse"><stop offset="0" stop-color="#1c0f15"/><stop offset="1" stop-color="#231410"/></linearGradient><linearGradient id="linear-gradient-6" x1="1602.56" y1="-121.23" x2="1812.17" y2="-121.23" gradientTransform="translate(0 396.69)" xlink:href="#linear-gradient-5"/><linearGradient id="linear-gradient-7" x1="-90.63" y1="-197.73" x2="410.78" y2="-197.73" xlink:href="#linear-gradient-2"/></defs><g id="Layer_2" data-name="Layer 2"><g id="Background_Hill" data-name="Background Hill"><path class="cls-1" d="M1920.05,65.7c-4.67,2.61-7.38,10.21-7.38,10.21s1.4-11.1-2.9-10.5-4.3,18.6-4.3,18.6-.7-8.2-5.8-8.2-10.79,4.7-14.39,7-13,3.5-23,3.5-54.8,26.2-72.2,26.8-28.9,0-28.9,0-27.4-5.8-32.5-8.7-26.7-11.1-28.1-11.1a55.44,55.44,0,0,0-11.5,1.2c-5,1.2-35.4-8.2-35.4-8.2s-7.2-1.2-6.5,0-15.1,4.7-18,3.5-5,5.3-5,5.3,1.4-6.4-5.8-5.3c-5.6.9-14.5,19.8-18.3,28.4,0-3-.7-8.1-3.3-16.7-6.5-21.8-18.11-9.1-18.11-9.1-1.6-14.9-8.3-20.3-8.3-20.3-30.1-16.1-34.5,8.5-34.5,8.5s1.4-11.1-2.89-10.5-4.31,18.6-4.31,18.6-.69-8.2-5.8-8.2-10.8,4.7-14.39,7-13,3.5-23,3.5-54.81,26.2-72.11,26.8-28.89,0-28.89,0-27.4-5.8-32.5-8.7S1325.28,98,1323.87,98a55.51,55.51,0,0,0-11.5,1.2c-5,1.2-35.39-8.2-35.39-8.2s-7.2-1.2-6.5,0-15.11,4.7-18,3.5-5,5.3-5,5.3,1.39-6.4-5.81-5.3-20.19,32.6-20.19,32.6,0-15.1-3.61-15.1-9.39,19.2-9.39,19.2,1.39-18.6-5-19.2-6.5,15.1-6.5,15.1-.7-7-3.61-9.3-13.7,25.3-13.7,25.3l357.7,13.9.11,5.2,59.39-14.5.5-7.9,322.68,12.84Z"/><path class="cls-2" d="M1920.05,88.81a45.6,45.6,0,0,0-5.18.5c-7.2,1.7-30.3,24.6-35.3,24.6s-7.2,9.2-7.2,9.2-7.2-6.3-10.8-6.3-8.7,4.6-8.7,4.6,0-9.7-2.9-9.7-4.4,24.3-4.4,24.3-74.2-14.5-79.3-14.5-67.9-29.1-70.4-24.5c-15.39,28.8-31.7-5.9-34.2,2.8-4.89,17.2-94.1,9.1-102,1.7-3.39-3.2-77.3,36.4-77.3,36.4l437.68,15.16Z"/><path class="cls-2" d="M1602.57,138.91c-.5-1.2,1.1-18.1,3.3-18.5s3.7,7.5,3.7,7.5.3-5.9,1-5.8,3.2,10.4,3.2,10.4-1.2-5.4,1-5.8,4,14,4,14Z"/><path class="cls-3" d="M1536.57,136.21c.7-1.2,1.4-18.1-.8-18.6s-4.8,7.1-4.8,7.1.5-5.8-.2-5.8-4.7,10-4.7,10,2-5.3-.2-5.8-5.9,13.6-5.9,13.6Z"/><path class="cls-2" d="M1647.87,153.51c.1-2.5-12.3-33.4-16-33s-1.6,15.7-1.6,15.7-3.9-10.8-5-10.3.9,20.9.9,20.9-1.3-10.7-5-10.3,1.8,28,1.8,28Z"/><path class="cls-2" d="M1795.37,160.71c.7-2.4-3.8-36.8-7.5-38s-5.2,14.3-5.2,14.3-1.2-11.9-2.3-11.9-4,20.2-4,20.2,1.3-10.7-2.3-11.9-4.9,27.3-4.9,27.3Z"/><path class="cls-2" d="M1828.37,160.71c.6-3.2-5-50.1-8.7-51.9s-4.8,19-4.8,19-1.6-16.2-2.7-16.2-3.4,27.1-3.4,27.1,1-14.4-2.7-16.2-4,36.7-4,36.7Z"/><path class="cls-2" d="M1840.17,160.71c.6-3.2-5-50.1-8.7-51.9s-4.8,19-4.8,19-1.6-16.2-2.7-16.2-3.4,27.1-3.4,27.1,1-14.4-2.7-16.2-4,36.7-4,36.7Z"/><path class="cls-2" d="M1859.07,160.71c.6-3.2-5-50.1-8.7-51.9s-4.8,19-4.8,19-1.6-16.2-2.7-16.2-3.4,27.1-3.4,27.1,1-14.4-2.7-16.2-4,36.7-4,36.7Z"/><path class="cls-2" d="M1894.47,155.61c.6-3.2-5-50.1-8.7-51.9s-4.8,19-4.8,19-1.6-16.2-2.7-16.2-3.4,27.1-3.4,27.1,1-14.4-2.7-16.2-4,36.7-4,36.7Z"/><path class="cls-2" d="M1708.17,141.71c.6-3.2-5-50.1-8.7-51.9s-4.8,19-4.8,19-1.6-16.2-2.7-16.2-3.4,27.1-3.4,27.1,1-14.4-2.7-16.2-4,36.7-4,36.7Z"/><path class="cls-2" d="M1729.37,148c.6-3.2-5-50.1-8.7-51.9s-4.8,19-4.8,19-1.6-16.2-2.7-16.2-3.4,27.1-3.4,27.1,1-14.4-2.7-16.2-4,36.7-4,36.7Z"/><path class="cls-2" d="M1677.47,141.71c.6-3.2-5-50.1-8.7-51.9s-4.8,19-4.8,19-1.6-16.2-2.7-16.2-3.4,27.1-3.4,27.1,1-14.4-2.7-16.2-4,36.7-4,36.7Z"/><g class="cls-4"><path class="cls-5" d="M1647.07,138.61c-.5-.2-1.1-.4-1.6-.6-8.4-3-16.4-7-24.4-10.9-23.9-11.4-49.4-21.2-75.9-21.1-7,0-14.1.8-20.6,3.4s-12.3,7.3-15.3,13.6c-2.8-.6-5.7-1.2-8.4-.5-4.1,1.1-3.8,5.3-8,3.2-2.7-1.3-5-4.2-8.2-4.2-3.6,0-8.7,4.6-8.7,4.6s0-9.7-2.9-9.7-4.39,24.3-4.39,24.3-74.2-14.5-79.31-14.5-67.89-29.1-70.39-24.5c-15.4,28.8-31.7-5.9-34.2,2.8-4.9,17.2-10.8,19.5-18.8,12-3.4-3.2,2.2,34.3,2.2,34.3,6.6.2,13.1.3,19.69.5,17.5.4,34.9.9,52.4,1.3q36.6.9,73.2,1.9l82.1,2.1c26.4.7,52.8,1.3,79.2,2,21.5.5,42.9,1.1,64.4,1.6l22.9.6c2.8.1,5.7.1,8.5.2,3.9.1,10.1,3.3,12.3-.5,1.2-2.1.7-4.8-.6-6.8s-3.4-3.3-5.5-4.5C1667.47,144,1657.07,141.91,1647.07,138.61Z"/><path class="cls-6" d="M1211.67,148.41c-.5-1.2,1.1-18.1,3.3-18.5s3.7,7.5,3.7,7.5.3-5.9,1-5.8,3.2,10.4,3.2,10.4-1.2-5.4,1-5.8,4,14,4,14Z"/><path class="cls-3" d="M1159.77,140.91c.7-1.2,1.4-18.1-.8-18.6s-4.8,7.1-4.8,7.1.5-5.8-.2-5.8-4.7,10-4.7,10,2-5.3-.2-5.8-5.9,13.6-5.9,13.6Z"/><path class="cls-6" d="M1271,146.51c.1-2.1-12.3-28.3-16-28s-1.6,13.3-1.6,13.3-3.9-9.1-5-8.7.9,17.7.9,17.7-1.3-9.1-5-8.7,1.8,23.7,1.8,23.7Z"/><path class="cls-6" d="M1418.47,152.61c.7-2-3.8-31.2-7.5-32.2s-5.2,12.1-5.2,12.1-1.2-10.1-2.3-10.1-4,17.1-4,17.1,1.3-9.1-2.3-10.1-4.9,23.2-4.9,23.2Z"/><path class="cls-6" d="M1451.47,152.61c.6-2.7-5-42.5-8.7-44s-4.8,16.1-4.8,16.1-1.6-13.7-2.7-13.8-3.4,23-3.4,23,1-12.2-2.7-13.7-4,31.1-4,31.1Z"/><path class="cls-6" d="M1463.27,152.61c.6-2.7-5-42.5-8.7-44s-4.8,16.1-4.8,16.1-1.6-13.7-2.7-13.8-3.4,23-3.4,23,1-12.2-2.7-13.7-4,31.1-4,31.1Z"/><path class="cls-6" d="M1482.17,152.61c.6-2.7-5-42.5-8.7-44s-4.8,16.1-4.8,16.1-1.6-13.7-2.7-13.8-3.4,23-3.4,23,1-12.2-2.7-13.7-4,31.1-4,31.1Z"/><path class="cls-6" d="M1517.57,141.91c.6-2.7-5-42.5-8.7-44s-4.8,16.1-4.8,16.1-1.6-13.7-2.7-13.8-3.4,23-3.4,23,1-12.2-2.7-13.7-4,31.1-4,31.1Z"/><path class="cls-6" d="M1331.27,136.51c.6-2.7-5-42.5-8.7-44s-4.8,16.1-4.8,16.1-1.6-13.7-2.7-13.8-3.4,23-3.4,23,1-12.2-2.7-13.7-4,31.1-4,31.1Z"/><path class="cls-6" d="M1352.47,141.91c.6-2.7-5-42.5-8.7-44S1339,114,1339,114s-1.6-13.7-2.7-13.8-3.4,23-3.4,23,1-12.2-2.7-13.7-4,31.1-4,31.1Z"/><path class="cls-6" d="M1300.67,136.51c.6-2.7-5-42.5-8.7-44s-4.8,16.1-4.8,16.1-1.6-13.7-2.7-13.8-3.4,23-3.4,23,1-12.2-2.7-13.7-4,31.1-4,31.1Z"/></g><path class="cls-7" d="M0,87.29l208.77,37.42s-4.7-53-9.1-49.7-7.6,15.7-7.6,15.7,5.1-28.3-3.3-29.2-12.7,33.1-12.7,33.1-1.1-36.3-5.7-37.4-9.6,26.2-9.6,26.2-6.3-60.5-15.1-64.8-9.1,7.7-9.1,7.7-.7-12.2-4.7-11-23.2-9.8-21.9-11.7-8.3-2-8.3-2-41.7,7.6-47.8,4A53.19,53.19,0,0,0,39.57,0c-1.8-.4-32.1,7.7-39.5,11.5l-.07,0Z"/><path class="cls-3" d="M165.87,124.21c1-2.1,4.6-32.9,1.8-34.2s-7.2,12.4-7.2,12.4,1.5-10.6.6-10.7-7.5,17.7-7.5,17.7,3.3-9.4.61-10.7-9.7,24-9.7,24Z"/><path class="cls-8" d="M234.67,126.41c-.5-2.3,4.1-33,7.1-33.3s3.7,14.2,3.7,14.2,1.3-10.7,2.2-10.4,2.7,19.4,2.7,19.4-.8-10.1,2.2-10.4,3.1,26.2,3.1,26.2Z"/><path class="cls-3" d="M90.87,103.11c.6-3.9,24.9-47.3,29.6-45.5s-2.4,24.4-2.4,24.4,8-15.3,9.3-14.2-7,31.6-7,31.6,4.5-16,9.31-14.2-10.11,42.2-10.11,42.2Z"/><path class="cls-9" d="M205.27,82.51c-4.4,3.3-7.7,15.7-7.7,15.7s-.5-30.4-9-31.3-12.7,33.1-12.7,33.1,1.8-34.2-2.9-35.3-9.6,26.2-9.6,26.2-9.1-52-17.9-56.2-9.1,7.7-9.1,7.7-.7-22.9-4.7-21.7-23.2-9.8-21.9-11.7-8.3-2-8.3-2-41.7,7.6-47.8,4a53.19,53.19,0,0,0-14.3-5.6C37.58,4.92,7.6,13,0,16.75V92.63L208.57,130C208.77,130,209.67,79.21,205.27,82.51Z"/><path class="cls-10" d="M107.47,54.21c-12.6,11.2-26.8,4.6-19.9-27.7,1.2-5.6-41-11.9-48-15.7C36.47,9.14,19,14,0,19.81V98l93.27,18.51S112.77,49.51,107.47,54.21Z"/><path class="cls-11" d="M165.87,129.61c1-2,4.6-32.9,1.8-34.2s-7.2,12.4-7.2,12.4,1.5-10.6.6-10.7-7.5,17.7-7.5,17.7,3.3-9.4.61-10.7-9.7,24-9.7,24Z"/><path class="cls-12" d="M237.47,132.91c-.5-2.3,4.1-33,7.1-33.3s3.7,14.2,3.7,14.2,1.3-10.7,2.2-10.4,2.7,19.4,2.7,19.4-.8-10.1,2.2-10.4,3.2,26.2,3.2,26.2Z"/><path class="cls-11" d="M90.87,108.41c.6-3.9,24.9-47.3,29.6-45.5s-2.4,24.5-2.4,24.5,8-15.3,9.3-14.2-7,31.6-7,31.6,4.61-16,9.31-14.2-10.11,42.2-10.11,42.2Z"/><path class="cls-11" d="M29.07,122.81c-.1-6.2,17.4-90.3,22.6-91.8s2,37.7,2,37.7,5.6-29.2,7.1-28.7-1.5,52.1-1.5,52.1,1.9-27.2,7.1-28.7-2.8,70.2-2.8,70.2Z"/><path class="cls-11" d="M83.57,152.91c-1-6.1,3.8-92.4,8.7-94.7S99.77,95,99.77,95s1.2-29.8,2.7-29.6,6.2,51.6,6.2,51.6-2.2-27.2,2.7-29.6,7.6,69.8,7.6,69.8Z"/><path class="cls-11" d="M97.67,143c.7-4.6-3.5-69.2-7.2-70.9s-5.4,27.7-5.4,27.7-1.1-22.3-2.3-22.2-4.3,38.8-4.3,38.8,1.4-20.4-2.3-22.2-5.2,52.4-5.2,52.4Z"/><path class="cls-11" d="M128.07,132.21c-.7-4.4,2.8-66.5,6.3-68.3s5.4,26.5,5.4,26.5.9-21.5,2-21.3,4.4,37.2,4.4,37.2-1.6-19.6,2-21.3,5.5,50.3,5.5,50.3Z"/><path class="cls-11" d="M138.27,125c.5-3.3-2.5-49.8-5.2-51.1s-3.9,19.9-3.9,19.9-.8-16.1-1.6-16-3,27.9-3,27.9,1-14.7-1.6-16-3.8,37.7-3.8,37.7Z"/><path class="cls-11" d="M13.07,119.11c-.1-6.2,17.3-90.3,22.5-91.8s2,37.7,2,37.7,5.6-29.2,7.1-28.7-1.5,52.1-1.5,52.1,1.8-27.2,7.1-28.7-2.7,70.2-2.7,70.2Z"/><path class="cls-11" d="M31.07,59.71c-5.3,1.5-7.1,28.7-7.1,28.7s3-51.6,1.5-52.1S18.37,65,18.37,65s3.2-39.1-2-37.7C13.21,28.23,5.51,59.81,0,85.75V121l28.27,8.87S36.38,58.21,31.07,59.71Z"/><polygon class="cls-13" points="1920.05 152.45 1907.58 151.71 1080.17 105.61 1014.67 129.31 638.38 182.11 0 83.52 0 93.33 1920.05 391.38 1920.05 152.45"/><polygon class="cls-14" points="1920.05 390.55 298.67 129.21 0 81.28 0 277.61 1920.05 433.98 1920.05 390.55"/><polygon class="cls-15" points="335.27 244.91 0 172.69 0 273.38 380.48 310.01 384.77 310.61 335.27 244.91"/><polygon class="cls-16" points="1920.05 169.91 1689.78 169.91 1599.47 162.41 1504.58 162.41 1490.47 207.31 1450.97 304.81 1433.17 304.81 1423.78 260.91 1405.88 250.21 1417.17 199.91 1413.38 179.51 1378.67 261.91 1361.67 297.31 1249.88 279.11 1290.28 213.81 1310.97 176.31 1240.47 250.21 1192.58 270.51 1132.38 260.91 1274.28 177.41 1172.78 176.31 931.27 229.81 542.67 170.31 1920.05 391.65 1920.05 169.91"/><polygon class="cls-17" points="1920.05 387.46 297.77 129.21 678.77 204.31 800.98 242.91 1123.38 293.21 1444.78 330.71 1456.08 343.51 1920.05 398.13 1920.05 387.46"/><polygon class="cls-18" points="1909.38 151.51 1268.47 125.91 1085.88 107.71 1909.38 151.51"/><path class="cls-15" d="M0,168.91v16.25C147.81,211.32,335.77,245,335.77,245Z"/><polygon class="cls-15" points="1070.67 354.61 1041.38 346.41 758.67 324.01 728.58 335.31 635.58 326.81 549.98 302.51 529.77 304.31 424.07 304.31 332.88 296.81 257.38 284.61 208.88 273.21 29.48 269.71 23.68 250.81 0 247.68 0 360.46 320.68 367.51 300.88 349.31 253.97 338.61 247.38 326.81 445.68 333.21 702.27 338.61 1012.48 354.61 1276.58 372.81 1070.67 354.61"/><polygon class="cls-19" points="1915.78 385.11 1893.28 220.81 1886.88 224.51 1865.88 378.81 1915.78 385.11"/><path class="cls-20" d="M1812.17,370.21l-2.1-182.2-22.4-3.6-6.4,40.1-9.7-43.8-137.8,3.6s-35.9,151.9-30.7,152.6S1812.17,370.21,1812.17,370.21Z"/><polygon class="cls-21" points="991.17 239.21 1424.17 313.71 1833.78 373.41 991.17 239.21"/><polygon class="cls-22" points="400.57 165.81 288.68 135.61 288.77 217.21 276.18 137.61 0 87.61 0 176.27 335.07 244.81 380.88 310.31 410.77 310.01 400.57 165.81"/><polygon class="cls-15" points="1920.05 429.34 758.67 324.01 728.58 335.31 0 303.99 0 462.91 528.48 462.91 499.07 444.51 410.77 434.31 384.77 384.01 581.67 380.61 721.27 392.01 756.17 411.51 1920.05 429.65 1920.05 429.34"/></g></g></svg>