<svg xmlns="http://www.w3.org/2000/svg" viewBox="0 0 1495.44 505.57"><defs><style>.cls-1,.cls-3{fill:#7c5142;}.cls-1{opacity:0.55;isolation:isolate;}.cls-2{opacity:0.53;}</style></defs><g id="Layer_2" data-name="Layer 2"><g id="Clouds"><path class="cls-1" d="M636.3,317.15s-64.85,5-93,0,20.55,0,20.55,0-12.11-3.68,2.81-5.49,34.67,3.21,47.92,3.68,12.05-23,35.07-22.49,29,13.79,29,13.79,46.72-5,61.24-8.7S670.17,315.41,636.3,317.15Z"/><path class="cls-1" d="M1266.56,37.72s-63,16.34-91.62,16.27,20.21-3.62,20.21-3.62-12.52-1.47,1.8-5.89,34.67-2.87,47.86-4.75,7.83-24.69,30.58-28.24,31,8.5,31,8.5S1351.49,6.87,1365.14.71,1299.55,30,1266.56,37.72Z"/><g class="cls-2"><path class="cls-3" d="M416.92,353c76.76,6.76,103.8,3.82,103.8,3.82s-120.54-6.63-187.53-24.1c-46.31-12.05-89.2-34.1-133-52.74Q101.79,238.13,0,205.13l144.12,86.78c45.71,21.29,98.72,39.69,154.47,47.39,33,4.55,49.26,6.42,73.89,9,29.51,16.13,50.46,12.65,52.94,9.84S414,352.75,416.92,353Z"/><path class="cls-3" d="M478.42,298.61c-31.12-10-98.18,5.82-98.18,5.82S350.72,287,341.15,287c-8.36,0,4.62,10.78-41.09-3.68h-5.82c21.82,9.37,63.11,26,120.33,44.44,87.81,28.24,198.71,22.42,198.71,22.42s-85.4-9.17-105.34-12.45S509.54,308.58,478.42,298.61Z"/><path class="cls-3" d="M1063.5,402.21q33.93-4.32,68.2-9.77c73.51-11.73,277.89-64.69,363.74-88.45l-91.12,4.78c-47.38-1.38-101.44-4.3-119.49,4.36-36,17.34-45.18,52.61-45.18,52.61a61.58,61.58,0,0,0-24.89,0,75.63,75.63,0,0,0-21.22,8l-92.23,19.41s-21.21-9.37-54.41-13.72c-32.66-4.28-57.29,11.71-58.09,12.25.87-.87,26.84-28.18-25.83-31.73-53.48-3.61-76.57,27.38-76.57,27.38s-12-13-24.9-3.62-12.91,20.21-12.91,20.21S832,389.5,820,393.78s-13.85,13.72-13.85,13.72-61.78,5.75-97.79,10.77-13.85-5-37.81-5.75-74.69,6.49-138.34,5.75c0,0,128.9,9.71,303.32,2.55,9.77,1.54-16.53,2.14-16.53,7s76.09-4.28,76.09-4.28,82.52-9.7,85.4-9.1-67.6,8.5-67.6,11,168.59-12.79,168.59-17.67-54.21,1.67-55.48,1.8a307,307,0,0,1,37.21-7.43C1063.3,402.21,1063.37,402.21,1063.5,402.21Z"/><path class="cls-3" d="M569.31,193.87c149.72,13.78,261,11,261,11-54.75-2.14-98-10.58-118.73-11s-2.07,9.24-32.79,3.35-83.6-13.52-83.6-13.52-1.13-8.16-11.31-12.38-25,7.43-25,7.43.47-9.31-10.24-17.94-21.55,2-21.55,2S508.54,135.24,462.36,136c-45.44.74-24.3,25.37-23.63,26.17a79.54,79.54,0,0,0-49.39-13c-28.71,2.28-47.38,9.44-47.38,9.44l-78.44-20.75A67.91,67.91,0,0,0,245.58,130,53.57,53.57,0,0,0,224.16,129s-6.42-30.79-36.6-47.25c-14.95-8.16-36.12-6.47-52.54-7.52-26.67-1.69-53.36-2.79-80-4.33l-34.64-2c-4.3-.24-10.44.54-14.57-.83,67.28,21.37,256,78.06,310,89.49Q345,162.64,374,167.9h.26a257.49,257.49,0,0,1,31.66,8c-1.07-.2-47.38-8.17-47.59-4s144.1,24.56,144.23,22.49-60.1-12-57.62-12.38,73,11.58,73,11.58,65,11.17,65.25,7S560.88,194.8,569.31,193.87Z"/><path class="cls-3" d="M1023.61,488.21c28.11-3.61,51.2-7.56,60.5-11.71C1070.39,483.06,1045,498,1023.61,488.21Z"/><path class="cls-3" d="M685.16,464c13.52,0,13.52-2.15,13.52-2.15l48.66-6.29H663s19.67,2.14,20.34,4.22A25.91,25.91,0,0,0,685.16,464Z"/><path class="cls-3" d="M981.78,209.33c13.52,0,13.52-2.14,13.52-2.14l48.66-6.3H959.63s19.68,2.15,20.28,4.22A20.11,20.11,0,0,0,981.78,209.33Z"/><path class="cls-3" d="M882.46,491.83s79-5.42,161.56-14.46S1293.33,415,1293.33,415c-4.15,2.35-184.45,52.07-99.86-1.8,8.91-5.69-48.65-20.82-89.48,20.81-50.53,51.47-77.3,10.84-88.61,23.49s16.53,12.65,16.53,12.65L822.56,483.73C822.56,483.66,899,481.85,882.46,491.83Z"/><path class="cls-3" d="M807.3,164s79-5.42,161.57-14.46,249.3-62.37,249.3-62.37c-4.15,2.34-184.45,52.07-99.86-1.81,8.91-5.69-48.65-20.81-89.48,20.81-50.53,51.47-77.3,10.85-88.61,23.5s16.53,12.65,16.53,12.65L747.4,155.85C747.34,155.78,823.77,154,807.3,164Z"/><path class="cls-3" d="M539.86,500.59S615.29,512,648,500.33s-23.9.06-23.9.06,14.06-8.43-3.28-12.58-40.29,7.43-55.68,8.57S551,444,524.33,445.11s-33.66,31.59-33.66,31.59S436.32,465.32,419.46,457,500.51,496.51,539.86,500.59Z"/><path class="cls-3" d="M1199.9,217.69s75.23-12.51,102.8-33.73-22.69,7.43-22.69,7.43,10.78-12.38-7-11-36,19.55-50.33,25.37S1193,160.34,1168,169.64s-22.22,40.42-22.22,40.42-55.21,6-73.82,3.22S1161.21,225.92,1199.9,217.69Z"/></g></g></g></svg>