<svg xmlns="http://www.w3.org/2000/svg" xmlns:xlink="http://www.w3.org/1999/xlink" viewBox="0 0 1654.2 252.62"><defs><style>.cls-1,.cls-14,.cls-16,.cls-2,.cls-27,.cls-28,.cls-29,.cls-3,.cls-35,.cls-39,.cls-4,.cls-43,.cls-45,.cls-6{isolation:isolate;}.cls-2{fill:#a85272;}.cls-10,.cls-11,.cls-12,.cls-13,.cls-14,.cls-15,.cls-17,.cls-18,.cls-19,.cls-2,.cls-20,.cls-21,.cls-22,.cls-23,.cls-24,.cls-25,.cls-26,.cls-27,.cls-28,.cls-29,.cls-3,.cls-30,.cls-31,.cls-32,.cls-33,.cls-34,.cls-35,.cls-36,.cls-37,.cls-38,.cls-39,.cls-4,.cls-40,.cls-41,.cls-42,.cls-43,.cls-44,.cls-45,.cls-46,.cls-47,.cls-5,.cls-6,.cls-7,.cls-8,.cls-9{fill-rule:evenodd;}.cls-2,.cls-43{opacity:0.2;}.cls-3{fill:#993459;}.cls-14,.cls-16,.cls-27,.cls-3,.cls-4,.cls-45{opacity:0.3;}.cls-16,.cls-4{fill:#772442;}.cls-5{fill:url(#linear-gradient);}.cls-6{fill:#8b58c6;}.cls-28,.cls-29,.cls-6{opacity:0.5;}.cls-7{fill:url(#linear-gradient-2);}.cls-8{fill:url(#linear-gradient-3);}.cls-9{fill:#bd9aa7;}.cls-10{fill:url(#linear-gradient-4);}.cls-11{fill:url(#linear-gradient-5);}.cls-12{fill:url(#linear-gradient-6);}.cls-13{fill:#934a50;}.cls-14,.cls-15{fill:#e1e5d8;}.cls-17{fill:url(#linear-gradient-7);}.cls-18{fill:url(#linear-gradient-8);}.cls-19{fill:url(#linear-gradient-9);}.cls-20{fill:url(#linear-gradient-10);}.cls-21{fill:#fff;}.cls-22{fill:#3147a1;}.cls-23{opacity:0.39;mix-blend-mode:multiply;fill:url(#linear-gradient-11);}.cls-24{fill:url(#linear-gradient-12);}.cls-25{fill:url(#linear-gradient-13);}.cls-26{fill:url(#linear-gradient-14);}.cls-27{fill:url(#linear-gradient-15);}.cls-28{fill:url(#linear-gradient-16);}.cls-29{fill:url(#linear-gradient-17);}.cls-30{fill:#ffa974;}.cls-31{fill:#ff9a5e;}.cls-32{fill:#ff936f;}.cls-33{fill:#e8706f;}.cls-34{fill:url(#linear-gradient-18);}.cls-35{fill:#632e46;opacity:0.7;}.cls-36,.cls-39,.cls-43,.cls-45{fill:#7d3647;}.cls-37{fill:#e5a479;}.cls-38{fill:#974e5f;}.cls-39{opacity:0.38;}.cls-40{fill:#f9d1c7;}.cls-41{fill:#eec292;}.cls-42{fill:#d48d68;}.cls-44{fill:#ddbac7;}.cls-46{fill:url(#linear-gradient-19);}.cls-47{fill:#bda4c7;}</style><linearGradient id="linear-gradient" x1="1366.8" y1="-355.51" x2="1366.8" y2="-383.96" gradientTransform="translate(0 396.69)" gradientUnits="userSpaceOnUse"><stop offset="0" stop-color="#ffb8bd"/><stop offset="1" stop-color="#ffeab8"/></linearGradient><linearGradient id="linear-gradient-2" x1="1270.14" y1="-359.73" x2="1270.14" y2="-396.63" gradientTransform="translate(0 396.69)" gradientUnits="userSpaceOnUse"><stop offset="0" stop-color="#ffd1d4"/><stop offset="1" stop-color="#ffeab8"/></linearGradient><linearGradient id="linear-gradient-3" x1="1392.79" y1="-213.47" x2="1392.79" y2="-245.32" xlink:href="#linear-gradient-2"/><linearGradient id="linear-gradient-4" x1="1496.26" y1="-287.49" x2="1495.78" y2="-291.29" gradientTransform="translate(0 396.69)" gradientUnits="userSpaceOnUse"><stop offset="0" stop-color="#b9c0d8"/><stop offset="0.98" stop-color="#a194c3"/></linearGradient><linearGradient id="linear-gradient-5" x1="1267.31" y1="-322.59" x2="1266.84" y2="-326.39" xlink:href="#linear-gradient-4"/><linearGradient id="linear-gradient-6" x1="995.42" y1="-200.78" x2="995" y2="-204.13" gradientTransform="translate(0 396.69)" gradientUnits="userSpaceOnUse"><stop offset="0" stop-color="#d1dbe7"/><stop offset="1" stop-color="#d4dee7"/></linearGradient><linearGradient id="linear-gradient-7" x1="1264.4" y1="-280.88" x2="1263.81" y2="-314.66" gradientTransform="translate(0 396.69)" gradientUnits="userSpaceOnUse"><stop offset="0" stop-color="#77bdff"/><stop offset="0.16" stop-color="#6155a6"/><stop offset="0.18" stop-color="#655caa"/><stop offset="0.32" stop-color="#7f8ac4"/><stop offset="0.46" stop-color="#95b0d9"/><stop offset="0.6" stop-color="#a5ceea"/><stop offset="0.74" stop-color="#b1e3f6"/><stop offset="0.87" stop-color="#b9f0fd"/><stop offset="1" stop-color="#bbf4ff"/></linearGradient><linearGradient id="linear-gradient-8" x1="1292.82" y1="-284.84" x2="1292.34" y2="-312.01" gradientTransform="translate(0 396.69)" gradientUnits="userSpaceOnUse"><stop offset="0" stop-color="#77b6ed"/><stop offset="1" stop-color="#bbf4ff"/></linearGradient><linearGradient id="linear-gradient-9" x1="1286.91" y1="-294.61" x2="1286.55" y2="-315.1" gradientTransform="translate(0 396.69)" gradientUnits="userSpaceOnUse"><stop offset="0"/><stop offset="0.27" stop-color="#4a3021"/><stop offset="0.53" stop-color="#89593d"/><stop offset="0.74" stop-color="#b77752"/><stop offset="0.9" stop-color="#d3895e"/><stop offset="1" stop-color="#dd9063"/></linearGradient><linearGradient id="linear-gradient-10" x1="1259.5" y1="-285.97" x2="1259.02" y2="-313.83" gradientTransform="translate(0 396.69)" gradientUnits="userSpaceOnUse"><stop offset="0.01" stop-color="#940068"/><stop offset="0.09" stop-color="#a41369"/><stop offset="0.28" stop-color="#c5386c"/><stop offset="0.46" stop-color="#de566e"/><stop offset="0.65" stop-color="#f06b6f"/><stop offset="0.83" stop-color="#fb7870"/><stop offset="1" stop-color="#ff7c70"/></linearGradient><linearGradient id="linear-gradient-11" x1="1234.52" y1="-306.83" x2="1284.2" y2="-306.83" xlink:href="#linear-gradient-9"/><linearGradient id="linear-gradient-12" x1="1157.97" y1="-1262.09" x2="1184.2" y2="-1224.63" gradientTransform="matrix(0.77, 0.64, -0.64, 0.77, -675.22, 394.71)" gradientUnits="userSpaceOnUse"><stop offset="0" stop-color="#07ae81"/><stop offset="1" stop-color="#022d68"/></linearGradient><linearGradient id="linear-gradient-13" x1="1180.01" y1="-1258.41" x2="1211.96" y2="-1258.41" gradientTransform="matrix(0.77, 0.64, -0.64, 0.77, -675.22, 394.71)" gradientUnits="userSpaceOnUse"><stop offset="0" stop-color="#ffc7a4"/><stop offset="0.02" stop-color="#ffc8a5"/><stop offset="0.43" stop-color="#ffd1ac"/><stop offset="0.99" stop-color="#ffd4ae"/></linearGradient><linearGradient id="linear-gradient-14" x1="1184.41" y1="-1257.52" x2="1209.23" y2="-1260.78" gradientTransform="matrix(0.77, 0.64, -0.64, 0.77, -675.22, 394.71)" gradientUnits="userSpaceOnUse"><stop offset="0" stop-color="#ff866a"/><stop offset="0.08" stop-color="#ff8d6f"/><stop offset="0.33" stop-color="#ff9d7c"/><stop offset="0.61" stop-color="#ffa684"/><stop offset="1" stop-color="#ffa986"/></linearGradient><linearGradient id="linear-gradient-15" x1="1170.27" y1="-1244.57" x2="1184.24" y2="-1224.62" gradientTransform="matrix(0.77, 0.64, -0.64, 0.77, -675.22, 394.71)" gradientUnits="userSpaceOnUse"><stop offset="0" stop-color="#38327f"/><stop offset="1" stop-color="#7b93ff"/></linearGradient><linearGradient id="linear-gradient-16" x1="1158.79" y1="-1256.16" x2="1169.93" y2="-1240.25" gradientTransform="matrix(0.77, 0.64, -0.64, 0.77, -675.22, 394.71)" gradientUnits="userSpaceOnUse"><stop offset="0" stop-color="#b1e78d"/><stop offset="1"/></linearGradient><linearGradient id="linear-gradient-17" x1="1182.92" y1="-1274.99" x2="1192.81" y2="-1260.85" gradientTransform="matrix(0.77, 0.64, -0.64, 0.77, -675.22, 394.71)" gradientUnits="userSpaceOnUse"><stop offset="0" stop-color="#38327f"/><stop offset="1" stop-color="#fff"/></linearGradient><linearGradient id="linear-gradient-18" x1="614.45" y1="-165.28" x2="613.75" y2="-170.88" xlink:href="#linear-gradient-6"/><linearGradient id="linear-gradient-19" x1="138.86" y1="-184.97" x2="138.86" y2="-189.51" gradientTransform="translate(0 396.69)" gradientUnits="userSpaceOnUse"><stop offset="0.01" stop-color="#e3cac7"/><stop offset="0.21" stop-color="#d2b9c1"/><stop offset="0.63" stop-color="#a68cb3"/><stop offset="1" stop-color="#795ea4"/></linearGradient></defs><g class="cls-1"><g id="Layer_2" data-name="Layer 2"><g id="Garbage"><path class="cls-2" d="M1133.07,177.4c4,8.4,199,12.42,217-8.13-1.25-.62-28-13.57-51.63-14.74s-62.71,4.65-64.5,5.27,16.08,3.13,16.08,3.13-30.19,2.06-52.61,2.23c0,0,26.26-3.39,27-4.73C1212.75,156.5,1142.27,162,1133.07,177.4Z"/><path class="cls-3" d="M1313.87,150.69c-4.91,3.31,36.8,10.54,46.36,9.29s40.73-8.48,41.54-12.86S1336,135.78,1313.87,150.69Z"/><path class="cls-3" d="M1369.79,167.22c1-3.48,12.59,2.14,12.59,2.14S1368.45,171.86,1369.79,167.22Z"/><path class="cls-3" d="M1228.12,158.29c11.25-.36,33.05-6.52,33.05-8.94,0-3.39-47.35-.89-56,1.61C1193.28,154.27,1224.72,158.38,1228.12,158.29Z"/><path class="cls-4" d="M1347.9,41.72c13.49-6.17,39-4.56,51.28,1.34C1399.18,43.06,1378.18,48,1347.9,41.72Z"/><polygon class="cls-5" points="1358 40.11 1346.47 28.94 1354.87 21.35 1352.19 14.83 1356.57 12.68 1371.57 19.83 1371.57 29.12 1376.49 29.92 1377.65 37.52 1387.12 41.18 1358 40.11"/><path class="cls-6" d="M1371.57,19.83l-9.29,3.22-7.41-1.61c8.66,5.63,6.07,5.72,16.7,6.16Z"/><polygon class="cls-6" points="1346.47 28.94 1358.44 37.52 1366.75 35.28 1361.03 30.82 1368.98 33.77 1376.49 29.92 1377.65 37.52 1369.25 38.95 1387.12 41.18 1358 40.11 1346.47 28.94"/><path class="cls-4" d="M1241.87,36.36c15.46-6.08,53.42-4.38,67.44,1.34C1309.4,37.78,1281.71,42.7,1241.87,36.36Z"/><path class="cls-7" d="M1254.91,35.64l-8-5.89,8-4.29V17.51l4.2-12c6.34-1.16,20.55-4.11,27-5.54l.62,9.38,6.7,7.86-6.07,8.4-5.18,11.25-17.69-4.2Z"/><path class="cls-6" d="M1286,.09l-2,8.13c-6.34.36-19.11-.54-25.45-1.43l4.64,3.66,19,3.22,8.48,4.82-6.7,5.36-10.89-6.34,4.11,9.82-7.42,2.24-10.09-4.11-4.83-7.95v8l6.79,3,1.07,3.22-7.86,3.84,9.56-2.86,17.69,4.2,5.18-11.25,6.07-8.4-6.7-7.86Z"/><path class="cls-4" d="M1345.13,184.28c25.82-10.18,86.29-7.41,109.79,2.32C1454.92,186.6,1410,194.91,1345.13,184.28Z"/><path class="cls-8" d="M1350.05,182.58l21-3.48v-5.18l6.52-7.68,12.5-4,5.54-6,39.93-4.82-8.31,18-7.23,4,7.23,9.2C1409.54,183.66,1368.18,183.12,1350.05,182.58Z"/><path class="cls-6" d="M1395.6,156.14c6,3.31,23,8.22,29.66,10l2,3.21-7.23,4-6.79-7.23-12,6.16-14.2,2.14,11.61-3.21,1.16-4.11-7.32-1.79-2.42-3.21Z"/><polygon class="cls-6" points="1422.58 176.78 1405.34 180.97 1383.19 178.83 1377.56 166.24 1371.04 173.83 1371.04 179.1 1382.92 182.49 1427.22 182.58 1422.58 176.78"/><path class="cls-9" d="M1236.33,127.65s26.71-3.13,37.79,0C1262.33,132.2,1247.86,132.38,1236.33,127.65Z"/><path class="cls-10" d="M1484.13,106.83s16.7-2,23.67,0C1501.1,109.6,1490.56,109.69,1484.13,106.83Z"/><path class="cls-11" d="M1255.18,71.73s16.71-2,23.67,0C1272.15,74.5,1261.61,74.59,1255.18,71.73Z"/><path class="cls-9" d="M1350.14,187.67h28.31l13.94,5.63S1366.3,193.3,1350.14,187.67Z"/><path class="cls-9" d="M1121.82,47.52l4.29-.18,5.53,1.07A20.31,20.31,0,0,1,1121.82,47.52Z"/><path class="cls-12" d="M987.38,193.48l6.79-.27,8.84,1.61A29.17,29.17,0,0,1,987.38,193.48Z"/><path class="cls-9" d="M1101.45,50.92c6.43-1.88,6.52-1.34,12.77-.18C1114.22,50.74,1106.9,52.79,1101.45,50.92Z"/><path class="cls-13" d="M1282.43,123.72s11.43,6.34,17.24,10h5.09S1302.17,131,1282.43,123.72Z"/><path class="cls-13" d="M1174.52,95.22s13-2.32,16.53,0h3.21S1187.2,97.19,1174.52,95.22Z"/><path class="cls-13" d="M1146.56,204.11s20.64-3.66,26.35,0H1178C1178.09,204.11,1166.84,207.24,1146.56,204.11Z"/><path class="cls-14" d="M971.66,109.51s20.63-3.66,26.35,0h5.09C1003.19,109.51,991.94,112.55,971.66,109.51Z"/><polygon class="cls-9" points="1190.96 63.42 1192.92 59.76 1197.66 60.56 1197.66 63.42 1190.96 63.42"/><polygon class="cls-15" points="1329.68 72.53 1331.64 68.78 1336.38 69.67 1336.38 72.53 1329.68 72.53"/><polygon class="cls-15" points="1045.09 124.61 1045.09 120.06 1050.36 120.06 1053.84 124.61 1045.09 124.61"/><polygon class="cls-9" points="920.39 166.33 923.51 160.34 931.02 161.77 931.02 166.33 920.39 166.33"/><path class="cls-16" d="M1242.05,110.41s-7.41-.45-27.87,1.43c40.73,7.68,36.71,9.29,98.89,2.59C1313.07,114.43,1275.91,111.12,1242.05,110.41Z"/><path class="cls-17" d="M1237.85,113.36s-11.07-12-1.07-25.64l49.4-6.08,6.34,3s6.07,13.76,1.34,27.16l-6.61,3.57Z"/><path class="cls-18" d="M1292.52,84.68c-8.31,2.59-5.72,25.1,1.34,27.16C1297.79,108.35,1300.74,88.43,1292.52,84.68Z"/><path class="cls-19" d="M1286.27,81.64s-6.52,4.56-5.27,20.55l6.34-.89s-1.61-15,5.27-16.62Z"/><path class="cls-20" d="M1240.09,87.36c-3.22,4.74-3.93,17,.09,23h37.42s-3.39-15.81,3.31-28Z"/><path class="cls-21" d="M1283,86.2l6.08,1.25a14.93,14.93,0,0,0-1.88,7.77l-6.43.54C1280.82,95.85,1281,89.59,1283,86.2Z"/><path class="cls-22" d="M1293.59,98.26c-3.84-1.25-2.14,7.68-1.07,8.22C1293.5,106.66,1294.84,101.56,1293.59,98.26Z"/><path class="cls-23" d="M1284.12,83.25,1236.51,91s-2.32,3.93-2,5.45l46.36-2.14A32.08,32.08,0,0,1,1284.12,83.25Z"/><path class="cls-16" d="M1006.41,199.38,978.81,209s67.35,7.06,117.1,3.58l-47.7-11.26Z"/><path class="cls-24" d="M996,182.85s-5.81,9.29,4.46,21.53l23.05-.18,24.47,7.5s-13.31-19.83.36-45.91C1035.71,168.92,1007.12,176.78,996,182.85Z"/><path class="cls-25" d="M1048.21,165.79c17.15,11,19.21,34.84-.35,45.91C1036.15,204.11,1035.44,173.11,1048.21,165.79Z"/><path class="cls-26" d="M1049.91,207.68c-4,1.61-11.26-12.32-9.2-21.34h0c1-8.76,5.36-16.62,6.88-16.71C1063.58,175.88,1063.49,199.82,1049.91,207.68Z"/><path class="cls-27" d="M996,182.85s-5.27,13.4,5.18,20.46l26.44-6.88s3,5.81,20.28,15.27l-24.48-7.5-23,.18C1000.42,204.38,990.86,194.82,996,182.85Z"/><path class="cls-28" d="M1043.39,170.7s-22.33,3.31-24.21,4.11c-4,2.06-21.53,8.58-22.15,11.44,22.69-9.29,16.61-12.33,41.62-5.45Z"/><path class="cls-29" d="M1059.82,185.26c-2.14-4.28-16-8.75-19,1,1-8.76,5.36-16.62,6.88-16.71C1050.09,169.36,1058,176.33,1059.82,185.26Z"/><polygon class="cls-30" points="1497.35 137.83 1500.92 138.46 1502.62 137.83 1498.69 137.03 1497.35 137.83"/><polygon class="cls-30" points="1505.12 137.03 1509.32 137.38 1510.3 136.4 1506.46 136.31 1505.12 137.03"/><polygon class="cls-30" points="1623.92 137.47 1644.56 138.81 1638.04 141.94 1623.92 139.71 1623.92 137.47"/><polygon class="cls-31" points="1474.57 157.13 1495.2 158.47 1488.68 161.59 1474.57 159.36 1474.57 157.13"/><polygon class="cls-31" points="1487.07 218.31 1507.62 219.65 1501.1 222.78 1487.07 220.55 1487.07 218.31"/><polygon class="cls-30" points="1646.25 141.67 1647.68 140.51 1652.06 139.71 1654.2 140.69 1646.25 141.67"/><polygon class="cls-30" points="1593.28 129.97 1596.5 129.97 1597.48 131.22 1591.59 130.59 1593.28 129.97"/><polygon class="cls-30" points="1598.29 128.36 1598.91 128 1602.21 127.83 1603.47 128.36 1598.29 128.36"/><polygon class="cls-30" points="1605.43 128.36 1606.23 128 1607.22 128.18 1605.43 128.36"/><polygon class="cls-31" points="1576.94 168.47 1572.74 167.84 1568.9 169.81 1571.13 169.81 1578.81 169.27 1576.94 168.47"/><polygon class="cls-31" points="1576.94 170.17 1580.06 169.81 1582.83 170.17 1581.31 170.88 1575.68 170.88 1576.94 170.17"/><polygon class="cls-30" points="1545.85 143.99 1553.89 143.99 1556.03 141.4 1546.21 142.12 1545.85 143.99"/><polygon class="cls-30" points="1618.74 143.19 1611.95 145.33 1612.85 143.91 1616.15 142.65 1618.74 143.19"/><polygon class="cls-30" points="1596.5 198.57 1602.13 198.57 1603.91 200.18 1593.55 199.38 1596.5 198.57"/><polygon class="cls-32" points="1482.61 216.53 1488.23 216.53 1490.02 218.05 1479.75 217.33 1482.61 216.53"/><polygon class="cls-30" points="1605.25 196.52 1606.33 196.07 1612.04 195.8 1614.27 196.52 1605.25 196.52"/><polygon class="cls-30" points="1617.76 196.52 1619.01 196.07 1620.8 196.25 1617.76 196.52"/><polygon class="cls-32" points="1640.98 215.54 1629.01 218.22 1630.71 216.35 1636.34 214.83 1640.98 215.54"/><polygon class="cls-30" points="1206.68 113.89 1210.25 114.52 1211.95 113.89 1208.02 113.09 1206.68 113.89"/><polygon class="cls-30" points="1214.36 113.09 1218.56 113.44 1219.54 112.46 1215.79 112.37 1214.36 113.09"/><polygon class="cls-30" points="1333.25 113.53 1353.89 114.87 1347.37 118 1333.25 115.77 1333.25 113.53"/><polygon class="cls-31" points="1183.9 133.19 1204.53 134.53 1197.92 137.65 1183.9 135.42 1183.9 133.19"/><polygon class="cls-31" points="1196.32 194.37 1216.95 195.71 1210.43 198.84 1196.32 196.61 1196.32 194.37"/><polygon class="cls-30" points="1355.59 117.73 1357.01 116.57 1361.39 115.77 1363.54 116.75 1355.59 117.73"/><polygon class="cls-30" points="1389.8 121.31 1393.28 122.2 1394.62 120.68 1389.8 121.31"/><polygon class="cls-33" points="1510.39 180.8 1513.87 181.69 1515.3 180.26 1510.39 180.8"/><polygon class="cls-30" points="1302.53 106.03 1305.83 106.03 1306.81 107.28 1300.92 106.66 1302.53 106.03"/><polygon class="cls-30" points="1307.62 104.42 1308.24 104.06 1311.46 103.89 1312.8 104.42 1307.62 104.42"/><polygon class="cls-30" points="1314.76 104.42 1315.48 104.06 1316.55 104.24 1314.76 104.42"/><polygon class="cls-31" points="1286.18 144.53 1282.07 143.91 1278.14 145.87 1280.46 145.87 1288.14 145.33 1286.18 144.53"/><polygon class="cls-31" points="1286.18 146.23 1289.39 145.87 1292.16 146.23 1290.64 146.94 1285.02 146.94 1286.18 146.23"/><polygon class="cls-30" points="1255.09 120.06 1263.22 120.06 1265.28 117.46 1255.54 118.18 1255.09 120.06"/><polygon class="cls-30" points="1328.07 119.25 1321.28 121.39 1322.18 119.97 1325.48 118.72 1328.07 119.25"/><polygon class="cls-32" points="1359.25 184.19 1395.16 185.98 1383.81 189.91 1359.25 187.05 1359.25 184.19"/><polygon class="cls-32" points="1398.19 189.55 1400.69 188.21 1408.29 187.05 1412.04 188.3 1398.19 189.55"/><polygon class="cls-30" points="1457.77 194.11 1463.85 195.27 1466.26 193.39 1457.77 194.11"/><polygon class="cls-30" points="1305.74 174.72 1311.37 174.72 1313.24 176.24 1302.88 175.44 1305.74 174.72"/><polygon class="cls-32" points="1191.94 192.59 1197.57 192.59 1199.35 194.2 1188.99 193.39 1191.94 192.59"/><polygon class="cls-30" points="1314.58 172.58 1315.66 172.13 1321.28 171.86 1323.61 172.58 1314.58 172.58"/><polygon class="cls-30" points="1327 172.58 1328.34 172.13 1330.13 172.31 1327 172.58"/><polygon class="cls-32" points="1350.22 191.6 1338.35 194.28 1339.95 192.5 1345.67 190.89 1350.22 191.6"/><path class="cls-9" d="M561.37,215.24s26.7-3.12,37.78,0C587.27,219.71,572.89,219.89,561.37,215.24Z"/><path class="cls-13" d="M583.43,185.59s20.63-3.67,26.35,0h5.09S603.62,188.62,583.43,185.59Z"/><polygon class="cls-9" points="443.19 169.24 446.31 163.34 453.82 164.68 453.82 169.24 443.19 169.24"/><polygon class="cls-34" points="609.96 230.88 609.96 226.32 615.23 226.32 618.8 230.88 609.96 230.88"/><polygon class="cls-15" points="430.02 252.62 430.02 248.06 435.29 248.06 438.86 252.62 430.02 252.62"/><polygon class="cls-30" points="368.74 144.62 372.31 145.16 374.01 144.62 370.08 143.82 368.74 144.62"/><polygon class="cls-30" points="376.51 143.82 380.71 144.17 381.69 143.19 377.85 143.1 376.51 143.82"/><polygon class="cls-30" points="495.32 144.26 515.95 145.6 509.43 148.64 495.32 146.41 495.32 144.26"/><polygon class="cls-31" points="345.96 163.91 366.6 165.25 360.08 168.29 345.96 166.06 345.96 163.91"/><polygon class="cls-31" points="358.47 225.1 379.1 226.44 372.49 229.48 358.47 227.25 358.47 225.1"/><polygon class="cls-30" points="517.65 148.37 519.08 147.3 523.45 146.41 525.6 147.39 517.65 148.37"/><polygon class="cls-30" points="464.68 136.76 467.89 136.76 468.96 137.92 462.98 137.38 464.68 136.76"/><polygon class="cls-30" points="469.68 135.06 470.3 134.79 473.61 134.53 474.86 135.06 469.68 135.06"/><polygon class="cls-30" points="476.82 135.06 477.63 134.79 478.61 134.97 476.82 135.06"/><polygon class="cls-31" points="448.33 175.26 444.13 174.63 440.29 176.6 442.52 176.6 450.21 175.97 448.33 175.26"/><polygon class="cls-31" points="448.33 176.87 451.46 176.6 454.23 176.87 452.71 177.67 447.17 177.67 448.33 176.87"/><polygon class="cls-30" points="417.25 150.78 425.37 150.78 427.43 148.19 417.6 148.82 417.25 150.78"/><polygon class="cls-30" points="490.22 149.98 483.35 152.12 484.33 150.69 487.54 149.44 490.22 149.98"/><polygon class="cls-30" points="467.89 205.36 473.52 205.36 475.31 206.88 464.94 206.17 467.89 205.36"/><polygon class="cls-32" points="354 223.32 359.63 223.32 361.42 224.84 351.14 224.12 354 223.32"/><polygon class="cls-30" points="476.65 203.22 477.72 202.86 483.44 202.59 485.67 203.22 476.65 203.22"/><polygon class="cls-30" points="489.15 203.22 490.4 202.86 492.19 203.04 489.15 203.22"/><polygon class="cls-32" points="512.38 222.25 500.41 225.01 502.11 223.14 507.73 221.53 512.38 222.25"/><polygon class="cls-30" points="78.07 120.68 81.64 121.31 83.34 120.68 79.41 119.88 78.07 120.68"/><polygon class="cls-30" points="85.84 119.88 89.95 120.23 90.94 119.25 87.18 119.16 85.84 119.88"/><polygon class="cls-30" points="204.65 120.32 225.28 121.66 218.76 124.7 204.65 122.56 204.65 120.32"/><polygon class="cls-31" points="55.29 139.97 75.93 141.31 69.41 144.35 55.29 142.21 55.29 139.97"/><polygon class="cls-31" points="67.71 201.16 88.34 202.5 81.82 205.54 67.71 203.4 67.71 201.16"/><polygon class="cls-30" points="226.98 124.52 228.41 123.36 232.78 122.56 234.93 123.54 226.98 124.52"/><polygon class="cls-30" points="261.19 128 264.68 128.9 266.01 127.47 261.19 128"/><polygon class="cls-33" points="381.78 187.59 385.27 188.48 386.69 187.05 381.78 187.59"/><polygon class="cls-30" points="173.92 112.82 177.22 112.82 178.21 114.07 172.31 113.44 173.92 112.82"/><polygon class="cls-30" points="179.01 111.12 179.64 110.85 182.85 110.68 184.19 111.12 179.01 111.12"/><polygon class="cls-30" points="186.16 111.12 186.87 110.85 187.94 111.03 186.16 111.12"/><polygon class="cls-31" points="157.57 151.32 153.46 150.69 149.53 152.66 151.85 152.66 159.54 152.12 157.57 151.32"/><polygon class="cls-31" points="157.57 153.02 160.79 152.66 163.56 153.02 162.04 153.73 156.41 153.73 157.57 153.02"/><polygon class="cls-30" points="126.49 126.84 134.62 126.84 136.67 124.25 126.93 124.97 126.49 126.84"/><polygon class="cls-30" points="199.47 126.04 192.68 128.18 193.57 126.75 196.88 125.5 199.47 126.04"/><polygon class="cls-32" points="230.64 190.98 266.55 192.77 255.21 196.7 230.64 193.84 230.64 190.98"/><polygon class="cls-32" points="269.59 196.34 272.09 194.91 279.68 193.84 283.43 195.09 269.59 196.34"/><polygon class="cls-30" points="329.17 200.9 335.24 202.06 337.65 200.18 329.17 200.9"/><polygon class="cls-30" points="177.13 181.42 182.85 181.42 184.64 182.94 174.28 182.23 177.13 181.42"/><polygon class="cls-32" points="63.33 199.38 68.96 199.38 70.75 200.9 60.38 200.18 63.33 199.38"/><polygon class="cls-30" points="185.98 179.28 187.05 178.92 192.68 178.65 195 179.28 185.98 179.28"/><polygon class="cls-30" points="198.48 179.28 199.73 178.92 201.52 179.1 198.48 179.28"/><polygon class="cls-32" points="221.71 198.31 209.74 201.07 211.35 199.2 217.06 197.59 221.71 198.31"/><path class="cls-35" d="M217.87,229.75l-10-2.86-20.18,2L180,229.93l22.16.71,1.16.18-42.25,1.61-41.72-2-21.26,1L0,226.44l1.25-.27L58,223.85l30.64-3.66,23.49-1.43-12.95-1.7,46-1.78-1.17-.54,13.49-.27,8.67-1.87,11.52-.27,2.59-2.32,31.8,1.51,99.87,5.28,12.95.71L278.61,222l-59.22,3.84.53,3.66Zm-117.29-6.52L129,221.08h0Z"/><polygon class="cls-36" points="212.6 159.63 250.03 136.4 312.55 130.6 215.1 173.83 194.73 172.85 212.6 159.63"/><polygon class="cls-36" points="194.73 172.85 176.15 145.69 276.2 112.91 281.74 138.9 194.73 172.85"/><polygon class="cls-37" points="194.73 87.18 173.83 53.33 270.84 54.49 283.52 76.46 194.73 87.18"/><polygon class="cls-37" points="227.78 168.02 217.33 107.64 225.19 65.66 318.63 68.96 311.84 100.76 311.84 165.52 227.78 168.02"/><polygon class="cls-38" points="225.19 65.66 194.73 87.18 190 122.47 200 150.87 199.47 172.85 228.94 174.63 217.33 107.64 225.19 65.66"/><polygon class="cls-39" points="311.84 100.76 217.33 107.64 225.19 65.66 237.43 77.63 315.32 84.41 311.84 100.76"/><polygon class="cls-40" points="255.38 132.29 253.15 108.89 295.05 109.87 293.17 132.29 255.38 132.29"/><polygon class="cls-40" points="251.54 127.74 249.76 122.73 229.57 122.73 230.19 131.04 251.54 127.74"/><polygon class="cls-41" points="318.63 68.96 335.33 93.26 259.4 82.81 234.39 90.76 225.19 65.66 318.63 68.96"/><polygon class="cls-37" points="212.6 218.58 229.57 194.73 222.6 183.39 226.09 177.67 215.1 173.83 312.55 130.6 325.51 174.63 325.51 218.58 212.6 218.58"/><polygon class="cls-38" points="215.1 173.83 194.73 172.85 212.6 159.63 190 175.17 196.97 181.42 190 196.34 195.8 201.79 181.78 217.69 212.6 218.58 229.57 194.73 222.6 183.39 226.09 177.67 215.1 173.83"/><polygon class="cls-40" points="248.51 198.48 240.56 189.1 243.95 181.42 239.75 173.47 291.92 163.2 291.03 205.18 291.38 207.06 248.51 198.48"/><polygon class="cls-42" points="215.1 173.83 229.57 135.87 301.92 127.02 337.21 107.64 312.55 130.6 215.1 173.83"/><polygon class="cls-39" points="229.57 194.73 307.01 210.19 222.6 183.39 190 196.34 195.8 201.79 229.57 194.73"/><polygon class="cls-39" points="212.6 218.58 245.83 206.25 312.55 218.58 212.6 218.58"/><polygon class="cls-37" points="229.57 135.87 229.57 134.17 301.12 126.13 337.21 105.32 337.21 107.64 301.92 127.02 229.57 135.87"/><polygon class="cls-39" points="337.21 107.64 312.55 130.6 321.4 160.52 226.09 177.67 215.1 173.83 229.57 135.87 301.92 127.02 337.21 107.64"/><polygon class="cls-40" points="307.01 200.72 307.01 194.2 320.68 192.32 320.68 200.81 307.01 200.72"/><polygon class="cls-36" points="229.57 134.17 214.47 173.65 215.1 173.83 229.57 135.87 229.57 134.17"/><polygon class="cls-38" points="173.83 53.33 172.94 55.47 194.73 89.24 194.73 87.18 173.83 53.33"/><polygon class="cls-38" points="335.33 93.26 333.28 94.15 258.6 84.32 234.13 91.92 224.57 68.96 225.19 65.66 234.3 90.13 259.4 82.81 335.33 93.26"/><polygon class="cls-43" points="225.19 65.66 259.4 82.81 234.39 90.76 225.19 65.66"/><path class="cls-44" d="M410.19,219.48l2.23-4.11c-2.14-3.67-3.57-14.65-4.11-18.85h25.1l-3.48-7.42,14.74-11.43L449,200.81h-9.11l4.11,5.44-14.38,9.12,7.24,4Z"/><path class="cls-45" d="M449,200.81c-11.79-2.59-11.61-2.15-19.11-11.71l3.48,7.42h-9.2l4.56,8.57L440,200.72h9Z"/><polygon class="cls-45" points="444.04 206.25 432.97 209.83 417.33 198.48 412.06 198.48 416.8 208.85 414.48 211.79 410.19 209.47 412.42 215.37 421.26 206.88 429.66 215.37 444.04 206.25"/><polygon class="cls-44" points="341.41 218.58 347.66 217.69 341.41 209.29 354.27 188.21 366.77 202.59 363.02 209.29 372.13 200.72 397.86 214.38 390.89 217.69 399.74 218.58 341.41 218.58"/><path class="cls-45" d="M341.41,209.38l7.68,8.4v-7.42l9.11-12.77L363,209.38l-3.3,5.09,8.75,3.22,2.06-14.29,3.48,2,4.56,9.11L373.74,216l19.21.72c-10.81,2.77-40.56,1.34-51.54,1.87l6.25-.89Z"/><polygon class="cls-46" points="114.78 209.65 176.87 207.15 139.71 210.36 100.85 211.7 114.78 209.65"/><path class="cls-44" d="M109,205.09s30-2.41,36.27-10.09l45.19,1C169.63,204,143.82,213,109,205.09Z"/><path class="cls-47" d="M120.05,198.22s13.76,15.54,43.77,6.34c-17.06,4.11-27.15,10.72-74.94-4.11Z"/></g></g></g></svg>