<svg xmlns="http://www.w3.org/2000/svg" viewBox="0 0 41.32 41.32"><defs><style>.cls-1{fill:#4A3674;}.cls-2{fill:#fff;}</style></defs><g id="Layer_2" data-name="Layer 2"><g id="Discord"><circle class="cls-1" cx="20.66" cy="20.66" r="20.66"/><path class="cls-2" d="M30.18,12.24a12.92,12.92,0,0,0-5.9-1.76l-.51,1.44s-1.6-.25-1.71-.26a16.25,16.25,0,0,0-2.79,0c-.11,0-1.73.26-1.72.27L17,10.48a12.92,12.92,0,0,0-5.9,1.76c-5.4,8.34-3.94,15.2-3.94,15.2,1.8,1.91,7,3.57,7,3.57l1.39-2.41-2.21-1,.32-.65a15.88,15.88,0,0,0,6.2,1.58,16.36,16.36,0,0,0,5.64-.75c.36-.11.71-.24,1.05-.37.1,0,1-.49,1-.46l.32.65-2.21,1L27.11,31s5.2-1.66,7-3.57C34.12,27.44,35.58,20.58,30.18,12.24Zm-14,12.11a2.69,2.69,0,0,1,0-5.35,2.68,2.68,0,0,1,0,5.35Zm9,0a2.68,2.68,0,1,1,2.46-2.67A2.57,2.57,0,0,1,25.15,24.35Z"/></g></g></svg>