<svg xmlns="http://www.w3.org/2000/svg" viewBox="0 0 138.3 41.32"><defs><style>.cls-1{fill:#ffce00;}.cls-2{fill:#d3aa00;}.cls-3{fill:#ffdc4a;}.cls-4{fill:#fff;}.cls-5{fill:#aa8900;}</style></defs><g id="Layer_2" data-name="Layer 2"><g id="Dump_Paper" data-name="Dump Paper"><rect class="cls-1" width="138.3" height="41.32" rx="20.66"/><path class="cls-2" d="M117.64,37.06h-97A20.66,20.66,0,0,1,.11,18.53C0,19.23,0,19.94,0,20.66A20.66,20.66,0,0,0,20.66,41.32h97A20.66,20.66,0,0,0,138.3,20.66c0-.72,0-1.43-.11-2.13A20.66,20.66,0,0,1,117.64,37.06Z"/><path class="cls-2" d="M117.64,40.71h-97A20.64,20.64,0,0,1,0,20.36c0,.1,0,.2,0,.3A20.66,20.66,0,0,0,20.66,41.32h97A20.66,20.66,0,0,0,138.3,20.66c0-.1,0-.2,0-.3A20.66,20.66,0,0,1,117.64,40.71Z"/><path class="cls-3" d="M20.66,37.06h97a20.66,20.66,0,0,0,20.55-18.53c.06.6.08,1.21.09,1.83,0-.11,0-.21,0-.31,0-.72,0-1.43-.11-2.13a20.66,20.66,0,0,1-20.55,18.53h-97A20.66,20.66,0,0,1,.11,17.92C0,18.62,0,19.33,0,20.05c0,.1,0,.2,0,.31q0-.93.09-1.83A20.66,20.66,0,0,0,20.66,37.06Z"/><path class="cls-4" d="M16.28,17.74c.12-3.19.23-6.31.35-9.36a3.22,3.22,0,0,1,3.43-3.25h9.06a1.19,1.19,0,0,1,.86.35l7.19,6.87a1.11,1.11,0,0,1,.38.81c.18,4.78.37,9.71.56,14.82a3.33,3.33,0,0,1-3.33,3.61H19.2A3.32,3.32,0,0,1,15.9,28C16,24.51,16.15,21.09,16.28,17.74ZM28.29,7h-.18c-2.73,0-5.45,0-8.18,0a1.31,1.31,0,0,0-1.41,1.38q-.29,9.31-.6,19.52a1.36,1.36,0,0,0,1.48,1.59H34.56c1,0,1.55-.54,1.52-1.62q-.21-6.91-.41-13.4l0-.36h-4l-.51,0a3.23,3.23,0,0,1-2.81-3.24c0-1.17,0-2.34,0-3.49Zm5.83,5.18L30.19,8.34v.58c0,.62,0,1.24,0,1.86a1.27,1.27,0,0,0,1.14,1.34C32.29,12.16,33.22,12.13,34.12,12.13Z"/><path class="cls-4" d="M27,17.55H21.93a1,1,0,0,1-1.08-1,1,1,0,0,1,1.1-1H32.08a1,1,0,0,1,1.08,1,.93.93,0,0,1-1,.94Z"/><path class="cls-4" d="M27,21.67H21.86a1,1,0,0,1-1.1-1,1,1,0,0,1,1.12-1h7.55c.91,0,1.81,0,2.72,0a1,1,0,0,1,1.1,1.07.94.94,0,0,1-1,.94Z"/><path class="cls-4" d="M27,25.92H21.78a1,1,0,0,1-1.11-1,1,1,0,0,1,1.14-1c2.6,0,5.19,0,7.79,0,.87,0,1.75,0,2.63,0A1,1,0,0,1,33.34,25a1,1,0,0,1-1,1Z"/><path class="cls-5" d="M42.71,24.78v-10H46a5,5,0,0,1,1.88.35,4.31,4.31,0,0,1,1.47,1,4.66,4.66,0,0,1,1,1.52,5.54,5.54,0,0,1,.34,1.95V20a5.5,5.5,0,0,1-.34,2,4.66,4.66,0,0,1-1,1.52,4.34,4.34,0,0,1-1.46,1,4.93,4.93,0,0,1-1.86.35Zm2.43-8.18v6.32H46a1.9,1.9,0,0,0,1.6-.74A3.67,3.67,0,0,0,48.14,20v-.43a3.64,3.64,0,0,0-.56-2.2A1.93,1.93,0,0,0,46,16.6Z"/><path class="cls-5" d="M59.73,14.73V21.3a4.05,4.05,0,0,1-.28,1.56,3,3,0,0,1-.8,1.13,3.27,3.27,0,0,1-1.24.69,5.59,5.59,0,0,1-3.24,0A3.31,3.31,0,0,1,52.92,24a3,3,0,0,1-.81-1.13,3.88,3.88,0,0,1-.29-1.56V14.73h2.43V21.3a1.9,1.9,0,0,0,.4,1.34,1.76,1.76,0,0,0,2.28,0,2,2,0,0,0,.38-1.34V14.73Z"/><path class="cls-5" d="M64.43,14.73l2.24,7,2.24-7h3.18V24.78H69.66V22.43l.24-4.8-2.43,7.15h-1.6l-2.44-7.16.24,4.81v2.35H61.24v-10Z"/><path class="cls-5" d="M76.06,21.37v3.41H73.63v-10h4a4.85,4.85,0,0,1,1.63.26,3.62,3.62,0,0,1,1.23.71,3,3,0,0,1,.77,1.08,3.4,3.4,0,0,1,.27,1.36,3.19,3.19,0,0,1-.27,1.33,2.93,2.93,0,0,1-.77,1,3.52,3.52,0,0,1-1.23.65,5.14,5.14,0,0,1-1.63.23Zm0-1.87h1.58a1.87,1.87,0,0,0,.66-.1,1,1,0,0,0,.44-.28,1,1,0,0,0,.26-.43,1.51,1.51,0,0,0,.09-.53,1.87,1.87,0,0,0-.09-.59,1.3,1.3,0,0,0-.7-.84,1.65,1.65,0,0,0-.66-.13H76.06Z"/><path class="cls-5" d="M88.78,21.37v3.41H86.35v-10h4A4.85,4.85,0,0,1,92,15a3.71,3.71,0,0,1,1.23.71A3,3,0,0,1,94,16.78a3.4,3.4,0,0,1,.27,1.36A3.19,3.19,0,0,1,94,19.47a2.93,2.93,0,0,1-.77,1,3.61,3.61,0,0,1-1.23.65,5.14,5.14,0,0,1-1.63.23Zm0-1.87h1.58a1.81,1.81,0,0,0,.65-.1,1,1,0,0,0,.45-.28,1,1,0,0,0,.26-.43,1.51,1.51,0,0,0,.08-.53,1.87,1.87,0,0,0-.08-.59,1.26,1.26,0,0,0-.26-.5,1.22,1.22,0,0,0-.45-.34,1.6,1.6,0,0,0-.65-.13H88.78Z"/><path class="cls-5" d="M100,22.9H96.71l-.58,1.88H93.54l3.69-10h2.28l3.71,10.05h-2.6ZM97.29,21h2.16l-1.08-3.48Z"/><path class="cls-5" d="M106.37,21.37v3.41H104v-10h4a4.85,4.85,0,0,1,1.63.26,3.71,3.71,0,0,1,1.23.71,3,3,0,0,1,.77,1.08,3.4,3.4,0,0,1,.27,1.36,3.19,3.19,0,0,1-.27,1.33,2.93,2.93,0,0,1-.77,1,3.61,3.61,0,0,1-1.23.65,5.14,5.14,0,0,1-1.63.23Zm0-1.87H108a1.81,1.81,0,0,0,.65-.1,1,1,0,0,0,.45-.28,1,1,0,0,0,.26-.43,1.51,1.51,0,0,0,.08-.53,1.87,1.87,0,0,0-.08-.59,1.26,1.26,0,0,0-.26-.5,1.22,1.22,0,0,0-.45-.34,1.6,1.6,0,0,0-.65-.13h-1.59Z"/><path class="cls-5" d="M119.38,20.52h-3.81v2.4h4.5v1.86h-6.92v-10h6.94V16.6h-4.52v2.12h3.81Z"/><path class="cls-5" d="M124.79,21.23h-1.31v3.55h-2.42v-10h4a5.91,5.91,0,0,1,1.57.2,3.36,3.36,0,0,1,1.2.58,2.52,2.52,0,0,1,.76,1,3,3,0,0,1,.27,1.31,3.58,3.58,0,0,1-.13,1,2.6,2.6,0,0,1-.35.79,2.66,2.66,0,0,1-.56.6,3.86,3.86,0,0,1-.71.44l2.09,4.05v.1h-2.59Zm-1.31-1.87H125A1.24,1.24,0,0,0,126.4,18a1.45,1.45,0,0,0-.35-1,1.38,1.38,0,0,0-1-.37h-1.54Z"/></g></g></svg>