<svg xmlns="http://www.w3.org/2000/svg" viewBox="0 0 62.3 15.05"><defs><style>.cls-1{fill:#fdfcfe;}.cls-2{fill:#4f3377;}</style></defs><g id="Layer_2" data-name="Layer 2"><g id="Layer_4" data-name="Layer 4"><path class="cls-1" d="M25.16,4.52h-3.5V14H18.84V4.52H15.41V2.35h9.75Z"/><path class="cls-1" d="M29.7,14.17a5.1,5.1,0,0,1-1.89-.33,4.06,4.06,0,0,1-1.4-.92,3.93,3.93,0,0,1-.87-1.33,4.4,4.4,0,0,1-.3-1.62V9.66A5.55,5.55,0,0,1,25.5,7.9a3.89,3.89,0,0,1,.78-1.43,3.7,3.7,0,0,1,1.31-.94,4.48,4.48,0,0,1,1.82-.35,4.35,4.35,0,0,1,1.66.3,3.39,3.39,0,0,1,1.24.85,3.7,3.7,0,0,1,.78,1.34,5.37,5.37,0,0,1,.27,1.76v1.1H28a1.81,1.81,0,0,0,1.9,1.56A2.92,2.92,0,0,0,31,11.88a2.2,2.2,0,0,0,.92-.69l1.23,1.46a3.06,3.06,0,0,1-.53.56,3.82,3.82,0,0,1-.76.49,5,5,0,0,1-1,.34A4.74,4.74,0,0,1,29.7,14.17Zm-.3-6.9a1.4,1.4,0,0,0-.6.12,1.2,1.2,0,0,0-.41.33,1.43,1.43,0,0,0-.26.49,3.66,3.66,0,0,0-.14.63h2.72V8.63a1.36,1.36,0,0,0-.33-1A1.33,1.33,0,0,0,29.4,7.27Z"/><path class="cls-1" d="M39.32,14a2.32,2.32,0,0,1-.14-.35,4.26,4.26,0,0,1-.11-.42,2.49,2.49,0,0,1-2.08.93A3.29,3.29,0,0,1,35.85,14a2.93,2.93,0,0,1-.93-.53,2.56,2.56,0,0,1-.64-.82A2.36,2.36,0,0,1,34,11.57a2.86,2.86,0,0,1,.25-1.2,2.36,2.36,0,0,1,.74-.9,3.81,3.81,0,0,1,1.27-.56,7.39,7.39,0,0,1,1.81-.19H39V8.26a1.41,1.41,0,0,0-.24-.87.92.92,0,0,0-.8-.32,1,1,0,0,0-.71.23A.94.94,0,0,0,37,8h-2.7a2.4,2.4,0,0,1,.27-1.12,2.54,2.54,0,0,1,.77-.9,3.79,3.79,0,0,1,1.19-.59,5.46,5.46,0,0,1,1.57-.22,5.06,5.06,0,0,1,1.44.2A3.07,3.07,0,0,1,40.63,6a2.67,2.67,0,0,1,.75,1,3,3,0,0,1,.28,1.35v3.55c0,.28,0,.53,0,.73s0,.39.07.55a2.1,2.1,0,0,0,.12.42,1.87,1.87,0,0,0,.16.35V14Zm-1.69-1.76a1.46,1.46,0,0,0,.84-.22,1.37,1.37,0,0,0,.48-.48V10.16H38.1a1.76,1.76,0,0,0-.64.1,1.29,1.29,0,0,0-.42.28,1.25,1.25,0,0,0-.22.41,1.85,1.85,0,0,0-.07.48A.75.75,0,0,0,37,12,.92.92,0,0,0,37.63,12.25Z"/><path class="cls-1" d="M45.7,5.34l.09,1a3,3,0,0,1,1.05-.86,3,3,0,0,1,1.43-.32,2.91,2.91,0,0,1,1.34.31,2.07,2.07,0,0,1,.88,1,2.85,2.85,0,0,1,1-1A3.07,3.07,0,0,1,53,5.18a3.16,3.16,0,0,1,1.09.18,2,2,0,0,1,.86.56,2.76,2.76,0,0,1,.56,1,5.22,5.22,0,0,1,.2,1.59V14H53V8.56A2.42,2.42,0,0,0,53,7.9a1,1,0,0,0-.2-.39.69.69,0,0,0-.33-.19A1.52,1.52,0,0,0,52,7.27a1.28,1.28,0,0,0-.71.19A1.34,1.34,0,0,0,50.8,8s0,.08,0,.12V14H48.1V8.57A2.42,2.42,0,0,0,48,7.91a.84.84,0,0,0-.2-.4.7.7,0,0,0-.33-.2,2,2,0,0,0-.44,0,1.27,1.27,0,0,0-.7.19,1.45,1.45,0,0,0-.49.52v6h-2.7V5.34Z"/><path class="cls-2" d="M0,15.05l1,0h.57l60-2.56c0-.1,0-.21,0-.31s.1,0,.15,0,.06,0,.09-.09.09-.57.19-.56.06,0,.08,0a.55.55,0,0,0,0-.23c0-.06,0-.11,0-.18s0-.08,0-.13.15.06.22,0a.89.89,0,0,0,0-.23.36.36,0,0,0,0-.09v-.06c0-.06,0-.11,0-.14s-.08,0-.12,0a.73.73,0,0,0,0-.34C62,10,62,10,61.93,10s0,0-.07-.15a2.36,2.36,0,0,1-.08-.4c0-.21.08-.36.07-.58a.5.5,0,0,0,0-.12,2.53,2.53,0,0,1,0-.28c0-.09,0-.21,0-.3a.06.06,0,0,1,0,0,.18.18,0,0,0,.07,0s0,0,0,0,0-.09,0-.17,0-.27.06-.39a.46.46,0,0,1,0-.15s.06,0,.08-.06a.69.69,0,0,0,.1-.35s0,0-.06,0a.29.29,0,0,1,0-.17.34.34,0,0,1,0-.15c0-.07.07-.09.06-.19l0-.06a.34.34,0,0,1,0-.1s0-.11,0-.14S62,6,62,5.72a.85.85,0,0,1,0-.25.9.9,0,0,0,0-.38,2.28,2.28,0,0,1,0-.27c0-.12,0-.22,0-.33s0-.15,0-.18a.26.26,0,0,0,.08-.13,1.21,1.21,0,0,0,0-.19c0-.05,0-.07,0-.12a.75.75,0,0,0,.08-.14V3a.81.81,0,0,1,0-.19l0-.16a1.11,1.11,0,0,1,0-.17l0-.07c0-.06,0-.24-.05-.24a.15.15,0,0,0,0,.07,1.23,1.23,0,0,0,0-.34c0-.05,0-.07-.07-.12a1.09,1.09,0,0,1,0-.37,1.63,1.63,0,0,0,0-.33s0-.08,0-.12a.66.66,0,0,1,0-.14c0-.1-.06-.12-.08-.21a2.11,2.11,0,0,1,0-.38c0-.07,0-.19,0-.26L1.27,2.58h-1c0,.08,0,.19,0,.27a2.11,2.11,0,0,0,0,.38c0,.08.06.11.08.2s0,.1,0,.14l0,.13A1.43,1.43,0,0,1,.46,4a1.15,1.15,0,0,0,0,.38,1.05,1.05,0,0,1,.07.11,1.27,1.27,0,0,1,0,.35.15.15,0,0,1,0-.07S.64,5,.65,5l0,.07c0,.06,0,.11,0,.17l0,.16s0,.12,0,.19v.71a.49.49,0,0,1-.08.13c0,.06,0,.07,0,.12a.59.59,0,0,1,0,.19A.18.18,0,0,1,.6,6.9s0,.08,0,.18,0,.21,0,.34,0,.16,0,.27a1.14,1.14,0,0,1,0,.38,1.44,1.44,0,0,0-.05.24c0,.32.13.23.19.4l0,.14s0,.07,0,.1A.16.16,0,0,0,.73,9c0,.11,0,.12-.06.19a.34.34,0,0,0,0,.15c0,.07,0,.14,0,.17s0,0,.06,0a.69.69,0,0,1-.09.34s-.07,0-.09.07a.39.39,0,0,0,0,.14c0,.12-.05.26-.06.39s0,.13,0,.17,0,0-.05,0l-.06.06s0,0-.06,0A2.81,2.81,0,0,0,.3,11a1.27,1.27,0,0,0,0,.28s0,.08,0,.13c0,.21-.07.36-.06.57a1.76,1.76,0,0,0,.07.41c0,.1,0,.1.07.14s.07.06.09.1a.73.73,0,0,1,0,.34s.08,0,.12,0a.29.29,0,0,1,0,.14.13.13,0,0,0,0,.06l0,.09a1,1,0,0,1,0,.24c-.07.06-.15,0-.22,0s0,.08,0,.12,0,.12,0,.19a.52.52,0,0,1,0,.22s0,0-.07,0-.14.38-.19.57,0,.09-.1.08a.38.38,0,0,0-.15,0C0,14.85,0,15,0,15.05Z"/></g></g></svg>