<svg xmlns="http://www.w3.org/2000/svg" viewBox="0 0 78.46 16.84"><defs><style>.cls-1{fill:#fdfcfe;}.cls-2{fill:#4f3377;}</style></defs><g id="Layer_2" data-name="Layer 2"><g id="Layer_5" data-name="Layer 5"><path class="cls-1" d="M9,9.39H7.45v4.12H4.64V1.84H9.23a6.55,6.55,0,0,1,1.83.23,3.91,3.91,0,0,1,1.39.67,3,3,0,0,1,.89,1.1,3.65,3.65,0,0,1,.31,1.52,4.38,4.38,0,0,1-.15,1.2,2.86,2.86,0,0,1-.41.92,2.81,2.81,0,0,1-.64.69,4.18,4.18,0,0,1-.84.51l2.44,4.71v.12H11ZM7.45,7.21H9.23a1.6,1.6,0,0,0,1.21-.42,1.61,1.61,0,0,0,.4-1.17,1.6,1.6,0,0,0-.41-1.18A1.56,1.56,0,0,0,9.23,4H7.45Z"/><path class="cls-1" d="M14.88,9.09a5.44,5.44,0,0,1,.27-1.75A4.24,4.24,0,0,1,16,5.93,3.74,3.74,0,0,1,17.26,5a4.93,4.93,0,0,1,3.6,0,3.65,3.65,0,0,1,1.31.92A3.92,3.92,0,0,1,23,7.34a5.18,5.18,0,0,1,.28,1.75v.17A5.55,5.55,0,0,1,23,11a4,4,0,0,1-.8,1.39,3.65,3.65,0,0,1-1.31.92,4.93,4.93,0,0,1-3.6,0A3.65,3.65,0,0,1,16,12.41,4,4,0,0,1,15.15,11a5.55,5.55,0,0,1-.27-1.76Zm2.7.17a5.25,5.25,0,0,0,.07.91,2.08,2.08,0,0,0,.24.74,1.36,1.36,0,0,0,.46.49,1.51,1.51,0,0,0,1.43,0,1.25,1.25,0,0,0,.45-.49,2.08,2.08,0,0,0,.24-.74,5.22,5.22,0,0,0,.08-.91V9.09a6.44,6.44,0,0,0-.07-.9,2.57,2.57,0,0,0-.24-.74,1.39,1.39,0,0,0-.46-.5,1.27,1.27,0,0,0-.72-.19,1.21,1.21,0,0,0-.71.19,1.39,1.39,0,0,0-.46.5,2.57,2.57,0,0,0-.24.74,6.44,6.44,0,0,0-.07.9Z"/><path class="cls-1" d="M29.32,13.51a1.94,1.94,0,0,1-.15-.36c0-.13-.07-.27-.11-.42a2.51,2.51,0,0,1-.8.66,2.69,2.69,0,0,1-1.28.28,3.24,3.24,0,0,1-1.13-.2,2.8,2.8,0,0,1-.94-.53,2.54,2.54,0,0,1-.63-.82A2.33,2.33,0,0,1,24,11.06a2.86,2.86,0,0,1,.24-1.2A2.37,2.37,0,0,1,25,9,3.73,3.73,0,0,1,26.3,8.4a7.39,7.39,0,0,1,1.81-.19h.83V7.75a1.41,1.41,0,0,0-.24-.87.9.9,0,0,0-.79-.32,1,1,0,0,0-.71.23A.92.92,0,0,0,27,7.5h-2.7a2.4,2.4,0,0,1,.27-1.12,2.71,2.71,0,0,1,.76-.9,4,4,0,0,1,1.2-.59,5.46,5.46,0,0,1,1.57-.22,5,5,0,0,1,1.43.2,3.28,3.28,0,0,1,1.15.58,2.67,2.67,0,0,1,.75,1,3.16,3.16,0,0,1,.27,1.35v3.55c0,.28,0,.53,0,.74a3.75,3.75,0,0,0,.07.54,3.16,3.16,0,0,0,.11.42,2.84,2.84,0,0,0,.16.35v.14Zm-1.69-1.77a1.54,1.54,0,0,0,.84-.21,1.36,1.36,0,0,0,.47-.49V9.65h-.85a1.65,1.65,0,0,0-.63.11A.92.92,0,0,0,27,10a1,1,0,0,0-.22.4,1.51,1.51,0,0,0-.07.48.75.75,0,0,0,.25.59A.85.85,0,0,0,27.63,11.74Z"/><path class="cls-1" d="M32.81,9.11A7.31,7.31,0,0,1,33,7.3a4.4,4.4,0,0,1,.64-1.4A3,3,0,0,1,34.72,5a3.08,3.08,0,0,1,1.46-.33,2.44,2.44,0,0,1,1.1.24,2.9,2.9,0,0,1,.85.68V1.2h2.71V13.51H38.42l-.14-.93a3,3,0,0,1-.91.79,2.36,2.36,0,0,1-1.21.3,3.07,3.07,0,0,1-1.45-.34,3.15,3.15,0,0,1-1.05-.91A4.45,4.45,0,0,1,33,11a7,7,0,0,1-.21-1.76Zm2.7.16a6.42,6.42,0,0,0,.06.91,2.57,2.57,0,0,0,.22.74,1.26,1.26,0,0,0,.42.49,1.17,1.17,0,0,0,.64.17,1.46,1.46,0,0,0,.78-.19,1.43,1.43,0,0,0,.5-.56V7.53a1.27,1.27,0,0,0-1.26-.77,1.2,1.2,0,0,0-.64.17,1.39,1.39,0,0,0-.42.5,2.57,2.57,0,0,0-.23.74,5.53,5.53,0,0,0-.07.94Z"/><path class="cls-1" d="M44.93,4.83l.09,1a3,3,0,0,1,2.47-1.18A2.85,2.85,0,0,1,48.83,5a2,2,0,0,1,.88,1,3,3,0,0,1,1-1,3.11,3.11,0,0,1,1.5-.35,3.16,3.16,0,0,1,1.09.18,2,2,0,0,1,.86.57,2.64,2.64,0,0,1,.56,1A5.55,5.55,0,0,1,55,8.05v5.46H52.26V8.05a2.3,2.3,0,0,0-.07-.65A1.15,1.15,0,0,0,52,7a.78.78,0,0,0-.33-.19,2,2,0,0,0-.44,0,1.23,1.23,0,0,0-.71.19,1.34,1.34,0,0,0-.48.52v6h-2.7V8.06a2.89,2.89,0,0,0-.07-.66.94.94,0,0,0-.2-.4.61.61,0,0,0-.33-.19,1.55,1.55,0,0,0-.45,0,1.23,1.23,0,0,0-.69.19,1.45,1.45,0,0,0-.49.52v6H42.4V4.83Z"/><path class="cls-1" d="M61.4,13.51a1.94,1.94,0,0,1-.15-.36,4.26,4.26,0,0,1-.11-.42,2.66,2.66,0,0,1-.81.66,2.62,2.62,0,0,1-1.27.28,3.33,3.33,0,0,1-1.14-.2,2.85,2.85,0,0,1-.93-.53,2.56,2.56,0,0,1-.64-.82,2.46,2.46,0,0,1-.23-1.06,2.86,2.86,0,0,1,.24-1.2A2.2,2.2,0,0,1,57.11,9a3.67,3.67,0,0,1,1.26-.57,7.48,7.48,0,0,1,1.82-.19H61V7.75a1.41,1.41,0,0,0-.24-.87A.9.9,0,0,0,60,6.56a1.05,1.05,0,0,0-.72.23A1,1,0,0,0,59,7.5h-2.7a2.4,2.4,0,0,1,.26-1.12,2.74,2.74,0,0,1,.77-.9,4,4,0,0,1,1.2-.59,5.39,5.39,0,0,1,1.56-.22,5.06,5.06,0,0,1,1.44.2,3.23,3.23,0,0,1,1.14.58,2.81,2.81,0,0,1,.76,1,3.16,3.16,0,0,1,.27,1.35v3.55c0,.28,0,.53,0,.74a3.65,3.65,0,0,0,.08.54,3.16,3.16,0,0,0,.11.42,2.84,2.84,0,0,0,.16.35v.14Zm-1.69-1.77a1.53,1.53,0,0,0,.83-.21A1.39,1.39,0,0,0,61,11V9.65h-.85a1.75,1.75,0,0,0-.64.11.94.94,0,0,0-.41.28,1,1,0,0,0-.23.4,1.86,1.86,0,0,0-.06.48.78.78,0,0,0,.24.59A.88.88,0,0,0,59.71,11.74Z"/><path class="cls-1" d="M73.27,9.23A7,7,0,0,1,73.06,11a4.36,4.36,0,0,1-.65,1.41,3.16,3.16,0,0,1-1.06.93,3.06,3.06,0,0,1-1.44.34,2.46,2.46,0,0,1-1.12-.24,2.65,2.65,0,0,1-.85-.64v4.05h-2.7v-12h2.53l.08.81a2.54,2.54,0,0,1,.86-.71,2.57,2.57,0,0,1,1.18-.26A3.23,3.23,0,0,1,71.35,5a3,3,0,0,1,1.06.89,4.14,4.14,0,0,1,.64,1.39,6.73,6.73,0,0,1,.22,1.8Zm-2.7-.16a5.33,5.33,0,0,0-.07-.93,2.32,2.32,0,0,0-.23-.73,1.16,1.16,0,0,0-.42-.48,1.13,1.13,0,0,0-.62-.17,1.71,1.71,0,0,0-.81.17,1.15,1.15,0,0,0-.48.52v3.41a1.3,1.3,0,0,0,.48.53,1.56,1.56,0,0,0,.82.19,1.08,1.08,0,0,0,.64-.18,1.45,1.45,0,0,0,.41-.5,2.55,2.55,0,0,0,.22-.75,6.56,6.56,0,0,0,.06-.92Z"/><path class="cls-2" d="M78.46,4.25l-1.19-.09-.71-.06L1.86,0c0,.1,0,.2,0,.3a.41.41,0,0,1-.19,0c-.07,0-.07,0-.13.08s-.16.56-.29.54-.06,0-.09,0a.48.48,0,0,0,0,.22,1.21,1.21,0,0,1,0,.19s0,.07,0,.12-.18-.08-.27,0a.67.67,0,0,0,0,.24.36.36,0,0,1,0,.09v.06A.54.54,0,0,0,.84,2C.89,2,1,2,1,2s0,.26,0,.34.08.08.11.11a.24.24,0,0,1,.07.16A1.77,1.77,0,0,1,1.24,3c0,.2-.13.34-.14.56a.57.57,0,0,0,0,.13A2.72,2.72,0,0,1,1.1,4a1.42,1.42,0,0,1,0,.29.08.08,0,0,1-.07,0,.14.14,0,0,0-.08,0s0,0-.07,0,0,.08-.06.16-.08.27-.11.38A.42.42,0,0,1,.62,5s-.08,0-.11,0a.54.54,0,0,0-.15.33s0,0,.07,0,0,.11,0,.17a.81.81,0,0,1,0,.16c0,.07-.1.07-.09.18L.4,6a.31.31,0,0,0,0,.1.68.68,0,0,0,0,.15c.06.17.22.1.19.41a.67.67,0,0,1-.08.24.65.65,0,0,0-.08.38,2.43,2.43,0,0,1,0,.27,1.75,1.75,0,0,1-.06.33.38.38,0,0,1-.08.18s-.08,0-.11.12a.52.52,0,0,0,0,.18c0,.05,0,.06,0,.12a.52.52,0,0,0-.12.13l0,.7a1.76,1.76,0,0,1,0,.19c0,.06,0,.11,0,.17s0,.11,0,.17,0,0,0,.07,0,.24,0,.24a.14.14,0,0,0,0-.07.82.82,0,0,0,0,.35c0,.05,0,.07.07.12a1.13,1.13,0,0,1,0,.37.93.93,0,0,0,0,.34s0,.08,0,.13a.57.57,0,0,0,0,.13,1.42,1.42,0,0,0,.07.22,1.57,1.57,0,0,1,0,.38,2.25,2.25,0,0,1,0,.26l75.31,4.15.71.06.58,0a1.13,1.13,0,0,0,0-.26A1.21,1.21,0,0,0,77,16c0-.09-.06-.12-.08-.22a.71.71,0,0,0,0-.14.61.61,0,0,0,0-.13.88.88,0,0,1,0-.33,1.13,1.13,0,0,0,0-.37s-.06-.07-.08-.13a1.28,1.28,0,0,1,0-.34.08.08,0,0,1,0,.07s0-.19,0-.24a.15.15,0,0,0,0-.07,1.08,1.08,0,0,0,0-.18.78.78,0,0,1,0-.16s0-.12,0-.19l0-.7a.52.52,0,0,1,.12-.13c0-.06,0-.07,0-.12a1.08,1.08,0,0,1,0-.19.19.19,0,0,1,.11-.11s.06-.08.09-.18a1.75,1.75,0,0,0,.06-.33c0-.11,0-.17,0-.27a.74.74,0,0,1,.09-.38.76.76,0,0,0,.07-.24c0-.31-.13-.24-.19-.42s0-.1,0-.14v-.1l0-.06c0-.11.07-.11.08-.19s0-.09,0-.15,0-.13,0-.17-.05,0-.08,0a.51.51,0,0,1,.16-.33s.08,0,.11-.06a.37.37,0,0,0,.06-.14,2.38,2.38,0,0,0,.11-.38c0-.08,0-.13.07-.16s0,0,.06,0l.09-.05a.06.06,0,0,0,.07,0,2.83,2.83,0,0,0,0-.3,1.31,1.31,0,0,0,0-.28V7.81c0-.22.12-.36.14-.57a2.7,2.7,0,0,0,0-.41.2.2,0,0,0-.08-.15.57.57,0,0,1-.11-.11c0-.08,0-.22,0-.34s-.11,0-.15,0a.33.33,0,0,1,0-.15.13.13,0,0,0,0-.06l0-.09a.66.66,0,0,1,0-.24c.09-.06.19,0,.27,0s0-.08,0-.13a1.08,1.08,0,0,0,0-.18.48.48,0,0,1,.06-.22s.06,0,.09,0,.21-.37.29-.55.06-.08.13-.07a.36.36,0,0,0,.18,0C78.45,4.45,78.46,4.35,78.46,4.25Z"/></g></g></svg>