<svg xmlns="http://www.w3.org/2000/svg" viewBox="0 0 63.35 18.6"><defs><style>.cls-1{fill:#fdfcfe;}.cls-2{fill:#4f3377;}</style></defs><g id="Layer_2" data-name="Layer 2"><g id="Layer_3" data-name="Layer 3"><path class="cls-1" d="M13.07,2.85,15.68,11l2.59-8.12H22V14.52H19.16V11.79l.27-5.57-2.82,8.3H14.75L11.92,6.21l.27,5.58v2.73H9.38V2.85Z"/><path class="cls-1" d="M28.52,14.52a1.94,1.94,0,0,1-.15-.36c0-.13-.07-.27-.1-.42a2.85,2.85,0,0,1-.81.67,2.67,2.67,0,0,1-1.28.27,3.48,3.48,0,0,1-1.13-.19,2.84,2.84,0,0,1-.93-.54,2.46,2.46,0,0,1-.64-.82,2.33,2.33,0,0,1-.24-1.06,2.74,2.74,0,0,1,.25-1.2,2.26,2.26,0,0,1,.74-.89,3.81,3.81,0,0,1,1.27-.56,7.36,7.36,0,0,1,1.81-.2h.84V8.76a1.43,1.43,0,0,0-.24-.87,1,1,0,0,0-.8-.32,1,1,0,0,0-.71.23.94.94,0,0,0-.25.72h-2.7a2.44,2.44,0,0,1,.27-1.13,2.68,2.68,0,0,1,.76-.89,4.09,4.09,0,0,1,1.2-.6,5.47,5.47,0,0,1,1.57-.21,5.07,5.07,0,0,1,1.44.19,3.23,3.23,0,0,1,1.14.58,2.67,2.67,0,0,1,.75,1,3.19,3.19,0,0,1,.27,1.35v3.55c0,.28,0,.53,0,.74s0,.39.07.55a2.58,2.58,0,0,0,.12.42,2.07,2.07,0,0,0,.15.34v.14Zm-1.69-1.76a1.54,1.54,0,0,0,.84-.22,1.48,1.48,0,0,0,.48-.49V10.66H27.3a1.71,1.71,0,0,0-.64.11,1.15,1.15,0,0,0-.42.28,1,1,0,0,0-.22.4,1.55,1.55,0,0,0-.07.48.77.77,0,0,0,.25.6A.92.92,0,0,0,26.83,12.76Z"/><path class="cls-1" d="M35.25,5.85v9A3.92,3.92,0,0,1,35,16.18a2.67,2.67,0,0,1-1.71,1.63,4.25,4.25,0,0,1-1.38.21,6.4,6.4,0,0,1-.64,0,4.53,4.53,0,0,1-.64-.11v-2l.38.05a2.3,2.3,0,0,0,.38,0,1.18,1.18,0,0,0,.84-.27,1.11,1.11,0,0,0,.29-.84v-9Zm-2.9-2.24a1.32,1.32,0,0,1,.1-.53,1.27,1.27,0,0,1,.31-.41,1.64,1.64,0,0,1,.48-.28,1.89,1.89,0,0,1,.6-.09,1.91,1.91,0,0,1,.61.09,1.64,1.64,0,0,1,.48.28,1.12,1.12,0,0,1,.3.41,1.17,1.17,0,0,1,.11.53,1.17,1.17,0,0,1-.11.53,1.25,1.25,0,0,1-.3.42,1.42,1.42,0,0,1-.48.27,1.88,1.88,0,0,1-1.21,0,1.28,1.28,0,0,1-.79-.69A1.32,1.32,0,0,1,32.35,3.61Z"/><path class="cls-1" d="M36.44,10.1a5.49,5.49,0,0,1,.27-1.75,3.94,3.94,0,0,1,.8-1.4A3.64,3.64,0,0,1,38.82,6a5.07,5.07,0,0,1,3.6,0A3.55,3.55,0,0,1,43.73,7a3.94,3.94,0,0,1,.8,1.4,5.49,5.49,0,0,1,.28,1.75v.17A5.5,5.5,0,0,1,44.54,12a3.9,3.9,0,0,1-.8,1.39,3.67,3.67,0,0,1-1.31.93,5.07,5.07,0,0,1-3.6,0,3.67,3.67,0,0,1-1.31-.93A3.78,3.78,0,0,1,36.71,12a5.5,5.5,0,0,1-.27-1.76Zm2.7.17a5.17,5.17,0,0,0,.07.91,2,2,0,0,0,.24.74,1.28,1.28,0,0,0,.46.49,1.51,1.51,0,0,0,1.43,0,1.25,1.25,0,0,0,.45-.49,2,2,0,0,0,.24-.74,5.14,5.14,0,0,0,.08-.91V10.1A6.3,6.3,0,0,0,42,9.21a2.64,2.64,0,0,0-.24-.75,1.39,1.39,0,0,0-.46-.5,1.29,1.29,0,0,0-.72-.19,1.21,1.21,0,0,0-.71.19,1.39,1.39,0,0,0-.46.5,2.64,2.64,0,0,0-.24.75,5.1,5.1,0,0,0-.07.89Z"/><path class="cls-1" d="M51.24,8.29l-.2,0-.24,0h-.45a2.43,2.43,0,0,0-1.05.19,1.19,1.19,0,0,0-.58.61v5.49H46V5.85h2.53L48.64,7A2.73,2.73,0,0,1,49.43,6a1.91,1.91,0,0,1,1.11-.33l.39,0,.36.07Z"/><path class="cls-1" d="M56.75,12.08a.54.54,0,0,0-.07-.29.74.74,0,0,0-.27-.25,2.38,2.38,0,0,0-.52-.22c-.22-.07-.5-.14-.84-.22a8.13,8.13,0,0,1-1.18-.35,3.61,3.61,0,0,1-1-.55,2.24,2.24,0,0,1-.65-.76,2.09,2.09,0,0,1-.24-1,2.38,2.38,0,0,1,.24-1,2.49,2.49,0,0,1,.69-.88,3.31,3.31,0,0,1,1.12-.59,4.72,4.72,0,0,1,1.52-.22,5.47,5.47,0,0,1,1.57.21,3.53,3.53,0,0,1,1.2.58,2.5,2.5,0,0,1,.76.89,2.39,2.39,0,0,1,.26,1.14h-2.7a1.13,1.13,0,0,0-.25-.77,1.13,1.13,0,0,0-.85-.27,1.23,1.23,0,0,0-.39.06,1.07,1.07,0,0,0-.32.16.86.86,0,0,0-.21.26.68.68,0,0,0-.08.34.66.66,0,0,0,.34.58,3.15,3.15,0,0,0,1.1.37,9.67,9.67,0,0,1,1.26.31,3.91,3.91,0,0,1,1.07.5,2.33,2.33,0,0,1,.74.79A2.22,2.22,0,0,1,59.36,12a2.18,2.18,0,0,1-.27,1.07,2.49,2.49,0,0,1-.75.84,3.75,3.75,0,0,1-1.19.56,5.47,5.47,0,0,1-1.57.21,4.7,4.7,0,0,1-1.66-.27,3.66,3.66,0,0,1-1.2-.68,2.85,2.85,0,0,1-.73-1,2.37,2.37,0,0,1-.25-1h2.52a1,1,0,0,0,.4.87,1.63,1.63,0,0,0,1,.28,1.3,1.3,0,0,0,.83-.22A.74.74,0,0,0,56.75,12.08Z"/><path class="cls-2" d="M0,12.3l1,.12.57.07L61.25,18.6l0-.3s.11,0,.15,0,.06,0,.11-.08.17-.55.27-.53,0,0,.07,0a.44.44,0,0,0,.06-.22,1.24,1.24,0,0,1,0-.18l0-.12c.07,0,.14.08.22,0a1,1,0,0,0,0-.23.3.3,0,0,1,0-.1.06.06,0,0,1,0-.06.42.42,0,0,0,0-.14c0-.06-.08,0-.12,0a1.07,1.07,0,0,0,0-.35.87.87,0,0,0-.09-.11s0,0,0-.15a2.68,2.68,0,0,1,0-.41c0-.21.13-.34.15-.56v-.13a2.45,2.45,0,0,1,0-.27c0-.09,0-.21,0-.3a.07.07,0,0,1,.06,0l.07,0s0,0,0,0,.05-.08.07-.16.07-.26.11-.38a1,1,0,0,1,.06-.14s.07,0,.1,0a.73.73,0,0,0,.14-.33s0,0-.06,0a.44.44,0,0,1,0-.17c0-.05,0-.09,0-.15s.08-.08.08-.18a.64.64,0,0,1,0-.07v-.24c0-.17-.17-.11-.13-.42a1.35,1.35,0,0,1,.08-.24,1,1,0,0,0,.09-.37,2.65,2.65,0,0,1,0-.27,1.76,1.76,0,0,1,.07-.33.34.34,0,0,1,.07-.17.21.21,0,0,0,.1-.12c0-.06,0-.11,0-.18s0-.06,0-.12l.11-.12.08-.7V9.19a1,1,0,0,0,0-.17c0-.06,0-.11,0-.17s0,0,0-.07,0-.24,0-.24a.14.14,0,0,0,0,.07,1.1,1.1,0,0,0,0-.35.45.45,0,0,0-.06-.12,1.67,1.67,0,0,1,0-.38,1.21,1.21,0,0,0,0-.33s0-.09,0-.13a.57.57,0,0,1,0-.13c0-.11,0-.14-.05-.22a1.67,1.67,0,0,1,0-.38,2.45,2.45,0,0,1,0-.27L3,.13,2.47.06,2,0A2.28,2.28,0,0,0,2,.26,1.7,1.7,0,0,0,2,.64C2,.73,2,.76,2,.86A.66.66,0,0,0,2,1a.59.59,0,0,0,0,.13,1.9,1.9,0,0,1,0,.33,1.59,1.59,0,0,0,0,.37s.05.07.06.13A1,1,0,0,1,2,2.3s0,0,0-.06,0,.18,0,.24,0,0,0,.07,0,.11,0,.17a.81.81,0,0,1,0,.16v.19L2,3.77a.88.88,0,0,1-.11.13c0,.05,0,.06,0,.11s0,.13,0,.19a.21.21,0,0,1-.1.12s0,.07-.07.17a1.6,1.6,0,0,0-.07.33,2.28,2.28,0,0,0,0,.27,1,1,0,0,1-.09.37,1.12,1.12,0,0,0-.08.24c0,.3.09.24.13.42v.24a.64.64,0,0,0,0,.07c0,.1-.06.11-.08.18s0,.09,0,.15a.46.46,0,0,0,0,.17s0,0,.06,0a.73.73,0,0,1-.14.33s-.07,0-.1.05a.64.64,0,0,0-.06.14c0,.12-.08.25-.11.38s0,.13-.07.16H1L1,8.06a0,0,0,0,0-.06,0,2.89,2.89,0,0,0,0,.29c0,.1,0,.19,0,.28v.13c0,.21-.12.35-.15.56a2.75,2.75,0,0,0,0,.41.19.19,0,0,0,0,.15A.48.48,0,0,1,.84,10a1,1,0,0,1,0,.34s.09,0,.12,0a.57.57,0,0,1,0,.15.06.06,0,0,0,0,.06.29.29,0,0,0,0,.09,1.05,1.05,0,0,1,0,.24c-.08.05-.15,0-.22,0l0,.12a1.37,1.37,0,0,0,0,.19.51.51,0,0,1-.06.22s-.05,0-.07,0-.19.36-.27.53,0,.08-.11.07A.34.34,0,0,0,0,12C0,12.09,0,12.2,0,12.3Z"/></g></g></svg>