<svg xmlns="http://www.w3.org/2000/svg" viewBox="0 0 79.27 13.27"><defs><style>.cls-1{fill:#fdfcfe;}.cls-2{fill:#4f3377;}</style></defs><g id="Layer_2" data-name="Layer 2"><g id="Layer_2-2" data-name="Layer 2"><path class="cls-1" d="M11,8.76l1.34-7.32h2.79L12.7,13.11H9.78L8.22,6.46,6.69,13.11H3.78L1.29,1.44h2.8L5.43,8.76,7,1.44H9.42Z"/><path class="cls-1" d="M18.78,5.37a3.11,3.11,0,0,1,1-.81A2.7,2.7,0,0,1,21,4.28a3.7,3.7,0,0,1,1.18.18,2.31,2.31,0,0,1,.92.59,2.89,2.89,0,0,1,.59,1.07,5.28,5.28,0,0,1,.22,1.6v5.39H21.2V7.71a2.06,2.06,0,0,0-.09-.66.88.88,0,0,0-.24-.41.84.84,0,0,0-.39-.22A2,2,0,0,0,20,6.36a1.69,1.69,0,0,0-.73.14,1.07,1.07,0,0,0-.45.39v6.22h-2.7V.8h2.7Z"/><path class="cls-1" d="M30.29,13.11a1.94,1.94,0,0,1-.15-.36c0-.13-.07-.27-.1-.42a2.66,2.66,0,0,1-.81.66,2.58,2.58,0,0,1-1.28.28,3.24,3.24,0,0,1-1.13-.2,2.8,2.8,0,0,1-.94-.53,2.54,2.54,0,0,1-.63-.82A2.33,2.33,0,0,1,25,10.66a2.71,2.71,0,0,1,.25-1.2A2.26,2.26,0,0,1,26,8.57,3.54,3.54,0,0,1,27.27,8a6.9,6.9,0,0,1,1.81-.2h.84V7.35a1.41,1.41,0,0,0-.24-.87,1,1,0,0,0-.8-.32,1,1,0,0,0-.71.23.92.92,0,0,0-.25.71h-2.7A2.4,2.4,0,0,1,25.49,6a2.68,2.68,0,0,1,.76-.89,3.75,3.75,0,0,1,1.2-.6A5.47,5.47,0,0,1,29,4.28a5.07,5.07,0,0,1,1.44.19,3.23,3.23,0,0,1,1.14.58,2.67,2.67,0,0,1,.75,1,3.19,3.19,0,0,1,.27,1.35v3.55c0,.28,0,.53,0,.74a4.11,4.11,0,0,0,.07.55,2.58,2.58,0,0,0,.12.42A2.07,2.07,0,0,0,33,13v.14ZM28.6,11.34a1.54,1.54,0,0,0,.84-.21,1.48,1.48,0,0,0,.48-.49V9.25h-.85a1.67,1.67,0,0,0-.64.11,1.15,1.15,0,0,0-.42.28,1,1,0,0,0-.22.4,1.51,1.51,0,0,0-.07.48.79.79,0,0,0,.25.6A.88.88,0,0,0,28.6,11.34Z"/><path class="cls-1" d="M37.26,2.28V4.44h1.43V6.31H37.26v4a1.61,1.61,0,0,0,.05.42.5.5,0,0,0,.41.41,1.66,1.66,0,0,0,.42,0h.38l.29,0V13a4.21,4.21,0,0,1-.72.18,5,5,0,0,1-.8.06,4.08,4.08,0,0,1-1.16-.15,2.24,2.24,0,0,1-.86-.47,2,2,0,0,1-.53-.83,3.59,3.59,0,0,1-.18-1.21V6.31h-1.1V4.44h1.1V2.28Z"/><path class="cls-1" d="M43.82,2.2a1.17,1.17,0,0,1,.11-.53,1.15,1.15,0,0,1,.31-.42A1.65,1.65,0,0,1,44.71,1a1.91,1.91,0,0,1,.61-.09,2,2,0,0,1,.61.09,1.8,1.8,0,0,1,.47.27,1.43,1.43,0,0,1,.31.42,1.33,1.33,0,0,1,0,1.06,1.43,1.43,0,0,1-.31.42,1.8,1.8,0,0,1-.47.27,2,2,0,0,1-.61.09,1.91,1.91,0,0,1-.61-.09,1.65,1.65,0,0,1-.47-.27,1.15,1.15,0,0,1-.31-.42A1.17,1.17,0,0,1,43.82,2.2Zm2.87,10.91H44V4.44h2.71Z"/><path class="cls-1" d="M52.89,10.67a.61.61,0,0,0-.08-.3.88.88,0,0,0-.26-.24A2.49,2.49,0,0,0,52,9.91c-.22-.07-.49-.14-.83-.22A8.27,8.27,0,0,1,50,9.34a4,4,0,0,1-1-.55A2.48,2.48,0,0,1,48.38,8a2.09,2.09,0,0,1-.23-1,2.37,2.37,0,0,1,.23-1,2.55,2.55,0,0,1,.7-.88A3.22,3.22,0,0,1,50.2,4.5a4.7,4.7,0,0,1,1.51-.22,5.94,5.94,0,0,1,1.58.2,3.74,3.74,0,0,1,1.2.59,2.55,2.55,0,0,1,.76.88,2.59,2.59,0,0,1,.26,1.15H52.8a1.08,1.08,0,0,0-.25-.77,1.11,1.11,0,0,0-.85-.28,1.27,1.27,0,0,0-.39.06,1,1,0,0,0-.31.17,1.09,1.09,0,0,0-.22.26.81.81,0,0,0-.08.34.68.68,0,0,0,.34.58,3.31,3.31,0,0,0,1.1.37,12.39,12.39,0,0,1,1.27.3,4.24,4.24,0,0,1,1.07.51,2.43,2.43,0,0,1,.74.79,2.29,2.29,0,0,1,.27,1.16,2.17,2.17,0,0,1-.26,1.07,2.62,2.62,0,0,1-.76.84,3.65,3.65,0,0,1-1.19.56,5.42,5.42,0,0,1-1.57.21A4.68,4.68,0,0,1,50.06,13a3.82,3.82,0,0,1-1.21-.68,3,3,0,0,1-.73-1,2.51,2.51,0,0,1-.25-1H50.4a1,1,0,0,0,.4.87,1.58,1.58,0,0,0,1,.28,1.35,1.35,0,0,0,.83-.22A.72.72,0,0,0,52.89,10.67Z"/><path class="cls-1" d="M68.2,8.16H63.78v2.78H69v2.17H61V1.44h8V3.61H63.78V6.07H68.2Z"/><path class="cls-1" d="M72.87,13.11h-2.7V.8h2.7Z"/><path class="cls-1" d="M74.52,2.2a1.17,1.17,0,0,1,.11-.53,1.25,1.25,0,0,1,.3-.42A1.71,1.71,0,0,1,75.41,1,1.89,1.89,0,0,1,76,.89a1.91,1.91,0,0,1,.61.09,1.71,1.71,0,0,1,.48.27,1.43,1.43,0,0,1,.31.42,1.32,1.32,0,0,1,.1.53,1.32,1.32,0,0,1-.1.53,1.43,1.43,0,0,1-.31.42,1.71,1.71,0,0,1-.48.27,1.91,1.91,0,0,1-.61.09,1.89,1.89,0,0,1-.6-.09,1.71,1.71,0,0,1-.48-.27,1.25,1.25,0,0,1-.3-.42A1.17,1.17,0,0,1,74.52,2.2Zm2.86,10.91h-2.7V4.44h2.7Z"/><path class="cls-2" d="M0,13.14l1,0,.57,0,77-2.59c0-.08,0-.17,0-.25a.38.38,0,0,1,.15,0c.06,0,.06,0,.09-.07s.09-.49.19-.48,0,0,.07,0a.54.54,0,0,0,0-.19.88.88,0,0,1,0-.16s0-.07,0-.1.15,0,.22,0a.64.64,0,0,0,0-.2l0-.08a.09.09,0,0,0,0,0,.34.34,0,0,0,0-.12s-.08,0-.12,0a.85.85,0,0,0,0-.29.58.58,0,0,0-.1-.08.18.18,0,0,1-.07-.12,1.87,1.87,0,0,1-.08-.34c0-.18.07-.31.06-.49s0-.07,0-.1a2,2,0,0,1,0-.24,2.08,2.08,0,0,1,0-.25l0,0,.06,0s0,0,.06,0,0-.07,0-.14A2.79,2.79,0,0,1,79,6.31a.4.4,0,0,1,0-.13s.06,0,.08-.06a.41.41,0,0,0,.09-.29s0,0-.06,0,0-.08,0-.14,0-.07,0-.13.07-.07.06-.16l0-.05s0,0,0-.08a.43.43,0,0,0,0-.12c-.07-.14-.19-.07-.19-.33a.65.65,0,0,1,0-.21.66.66,0,0,0,0-.32,1.79,1.79,0,0,1,0-.23.86.86,0,0,1,0-.28c0-.09,0-.13,0-.16a.19.19,0,0,0,.07-.11.42.42,0,0,0,0-.16s0-.05,0-.1.06-.06.09-.11l0-.6a.56.56,0,0,1,0-.15c0-.05,0-.1,0-.14s0-.1,0-.15,0,0,0-.05,0-.2-.06-.2a.13.13,0,0,0,0,.06.68.68,0,0,0,0-.29c0-.05,0-.06-.07-.1a1,1,0,0,1,0-.31.82.82,0,0,0,0-.28.21.21,0,0,1,0-.1s0-.08,0-.11S78.72.61,78.7.54a1.55,1.55,0,0,1,0-.32.82.82,0,0,1,0-.22L1.16,2.6l-.58,0H.12a.9.9,0,0,0,0,.23,1.55,1.55,0,0,0,0,.32,1.38,1.38,0,0,1,.08.17s0,.08,0,.11a.21.21,0,0,0,0,.11.79.79,0,0,1,0,.28,1,1,0,0,0,0,.31s0,0,.07.1a.62.62,0,0,1,0,.28.07.07,0,0,1,0,0s0,.15.06.19,0,0,0,.06a.59.59,0,0,0,0,.14L.65,5a.61.61,0,0,0,0,.16l0,.59a.41.41,0,0,1-.09.12s0,.05,0,.1a.43.43,0,0,1,0,.16.19.19,0,0,1-.07.11s0,.07-.05.15a.86.86,0,0,0,0,.28,1.52,1.52,0,0,0,0,.23.65.65,0,0,1,0,.32.65.65,0,0,0,0,.21c0,.26.12.19.19.33s0,.09,0,.12A.19.19,0,0,0,.65,8L.68,8c0,.08-.05.1-.06.16s0,.08,0,.13,0,.11,0,.14H.73a.45.45,0,0,1-.09.29s-.06,0-.08.06a.28.28,0,0,0,0,.12,3.23,3.23,0,0,0-.06.33c0,.07,0,.11,0,.14s0,0,0,0l-.07.05s0,0,0,0a2.08,2.08,0,0,0,0,.25,1.6,1.6,0,0,0,0,.23s0,.07,0,.11-.07.31-.06.48a1.69,1.69,0,0,0,.08.34c0,.09,0,.09.07.12l.1.08a.85.85,0,0,1,0,.29s.08,0,.12,0a.28.28,0,0,1,0,.11.11.11,0,0,1,0,.05l0,.08a.67.67,0,0,1,0,.2c-.07.06-.15,0-.22,0s0,.07,0,.11a.68.68,0,0,0,0,.15.54.54,0,0,1,0,.19s0,0-.07,0-.13.33-.18.48,0,.08-.1.08a.26.26,0,0,0-.15,0C0,13,0,13.05,0,13.14Z"/></g></g></svg>