<svg xmlns="http://www.w3.org/2000/svg" viewBox="0 0 41.32 41.32"><defs><style>.cls-1{fill:#4a3674;}.cls-2{fill:#fff;}</style></defs><g id="Layer_2" data-name="Layer 2"><g id="Insta"><circle class="cls-1" cx="20.66" cy="20.66" r="20.66"/><path class="cls-2" d="M27.07,12.84a1.42,1.42,0,1,0,1.42,1.42A1.43,1.43,0,0,0,27.07,12.84Z"/><path class="cls-2" d="M20.76,14.67a6,6,0,1,0,6,6A6,6,0,0,0,20.76,14.67Zm0,9.78a3.82,3.82,0,1,1,3.82-3.82A3.82,3.82,0,0,1,20.76,24.45Z"/><path class="cls-2" d="M25.49,32.74H15.82a7.28,7.28,0,0,1-7.27-7.27V15.79a7.28,7.28,0,0,1,7.27-7.27h9.67a7.28,7.28,0,0,1,7.28,7.27v9.68A7.28,7.28,0,0,1,25.49,32.74ZM15.82,10.8a5,5,0,0,0-5,5v9.68a5,5,0,0,0,5,5h9.67a5,5,0,0,0,5-5V15.79a5,5,0,0,0-5-5Z"/></g></g></svg>