<svg xmlns="http://www.w3.org/2000/svg" viewBox="0 0 41.32 41.32"><defs><style>.cls-1{fill:#4a3674;}.cls-2{fill:#fff;}</style></defs><g id="Layer_2" data-name="Layer 2"><g id="Twitter"><circle class="cls-1" cx="20.66" cy="20.66" r="20.66"/><path class="cls-2" d="M32.07,13.58a9.37,9.37,0,0,1-2.27.65c.36-.06.9-.72,1.12-1a4.13,4.13,0,0,0,.75-1.38s0-.09,0-.12a.13.13,0,0,0-.12,0,11.56,11.56,0,0,1-2.71,1,.17.17,0,0,1-.18,0,2.72,2.72,0,0,0-.24-.24,4.75,4.75,0,0,0-1.31-.8,4.41,4.41,0,0,0-2-.32,4.72,4.72,0,0,0-1.91.54A4.81,4.81,0,0,0,20.75,15a4.87,4.87,0,0,0-.05,1.94c0,.11,0,.12-.09.11a14.47,14.47,0,0,1-9.29-4.73c-.11-.12-.16-.12-.25,0a4.68,4.68,0,0,0,.8,5.56,6.8,6.8,0,0,0,.57.5,4.6,4.6,0,0,1-1.79-.5c-.11-.07-.16,0-.17.1a2.43,2.43,0,0,0,0,.53,4.74,4.74,0,0,0,2.93,3.79,2.51,2.51,0,0,0,.59.18,5.15,5.15,0,0,1-1.75.06c-.13,0-.18,0-.13.16a4.91,4.91,0,0,0,3.69,3.09c.17,0,.34,0,.5.07l0,0c-.41.63-1.85,1.1-2.52,1.34a9.21,9.21,0,0,1-3.83.49c-.2,0-.25,0-.3,0s0,.08.06.13a8.06,8.06,0,0,0,.8.48,12.81,12.81,0,0,0,2.55,1,13.64,13.64,0,0,0,13.24-3.09C29,23.57,30,19.86,30,16.13c0-.14.17-.22.28-.3A9.13,9.13,0,0,0,32.05,14a.56.56,0,0,0,.12-.36v0C32.17,13.52,32.17,13.54,32.07,13.58Z"/></g></g></svg>