<svg xmlns="http://www.w3.org/2000/svg" viewBox="0 0 138.3 41.32"><defs><style>.cls-1{fill:#ffce00;}.cls-2{fill:#d3aa00;}.cls-3{fill:#ffdc4a;}.cls-4{fill:#aa8900;}.cls-5{fill:#fff;}</style></defs><g id="Layer_2" data-name="Layer 2"><g id="Whitepaper"><rect class="cls-1" width="138.3" height="41.32" rx="20.66"/><path class="cls-2" d="M117.64,37.06h-97A20.66,20.66,0,0,1,.11,18.53C0,19.23,0,19.94,0,20.66A20.66,20.66,0,0,0,20.66,41.32h97A20.66,20.66,0,0,0,138.3,20.66c0-.72,0-1.43-.11-2.13A20.66,20.66,0,0,1,117.64,37.06Z"/><path class="cls-2" d="M117.64,40.71h-97A20.64,20.64,0,0,1,0,20.36c0,.1,0,.2,0,.3A20.66,20.66,0,0,0,20.66,41.32h97A20.66,20.66,0,0,0,138.3,20.66c0-.1,0-.2,0-.3A20.66,20.66,0,0,1,117.64,40.71Z"/><path class="cls-3" d="M20.66,37.06h97a20.66,20.66,0,0,0,20.55-18.53c.06.6.08,1.21.09,1.83,0-.11,0-.21,0-.31,0-.72,0-1.43-.11-2.13a20.66,20.66,0,0,1-20.55,18.53h-97A20.66,20.66,0,0,1,.11,17.92C0,18.62,0,19.33,0,20.05c0,.1,0,.2,0,.31q0-.93.09-1.83A20.66,20.66,0,0,0,20.66,37.06Z"/><path class="cls-4" d="M52.82,21.17l1.11-6.06h2.31l-2.06,9.67H51.77l-1.3-5.51L49.2,24.78H46.79l-2.06-9.67h2.32l1.11,6.06,1.33-6.06h2Z"/><path class="cls-4" d="M65.23,24.78H62.91v-4H59.48v4H57.15V15.11h2.33V19h3.43V15.11h2.32Z"/><path class="cls-4" d="M69.19,24.78H66.86V15.11h2.33Z"/><path class="cls-4" d="M78.21,16.91h-2.9v7.87H73V16.91H70.13v-1.8h8.08Z"/><path class="cls-4" d="M85.19,20.68H81.52V23h4.33v1.79H79.19V15.11h6.67v1.8H81.52v2h3.67Z"/><path class="cls-4" d="M89.13,21.5v3.28H86.8V15.11h3.86a4.58,4.58,0,0,1,1.57.25,3.42,3.42,0,0,1,1.18.68,3,3,0,0,1,.74,1,3.16,3.16,0,0,1,.26,1.31,3,3,0,0,1-.26,1.28,2.83,2.83,0,0,1-.74,1,3.5,3.5,0,0,1-1.18.63,5.14,5.14,0,0,1-1.57.22Zm0-1.8h1.53a1.74,1.74,0,0,0,.63-.1,1.15,1.15,0,0,0,.43-.26,1.12,1.12,0,0,0,.25-.42,1.7,1.7,0,0,0,.08-.51,2.12,2.12,0,0,0-.08-.57,1.38,1.38,0,0,0-.25-.48,1.45,1.45,0,0,0-.43-.33,1.54,1.54,0,0,0-.63-.12H89.13Z"/><path class="cls-4" d="M100,23H96.77l-.56,1.81H93.72l3.55-9.67h2.19L103,24.78h-2.5Zm-2.63-1.8h2.08l-1-3.35Z"/><path class="cls-4" d="M106.07,21.5v3.28h-2.33V15.11h3.86a4.48,4.48,0,0,1,1.56.25,3.47,3.47,0,0,1,1.19.68,3,3,0,0,1,.74,1,3.33,3.33,0,0,1,.26,1.31,3.11,3.11,0,0,1-.26,1.28,2.83,2.83,0,0,1-.74,1,3.55,3.55,0,0,1-1.19.63,5,5,0,0,1-1.56.22Zm0-1.8h1.53a1.65,1.65,0,0,0,.62-.1,1.08,1.08,0,0,0,.43-.26,1,1,0,0,0,.25-.42,1.44,1.44,0,0,0,.08-.51,1.79,1.79,0,0,0-.08-.57,1.23,1.23,0,0,0-.25-.48,1.33,1.33,0,0,0-.43-.33,1.46,1.46,0,0,0-.62-.12h-1.53Z"/><path class="cls-4" d="M118.59,20.68h-3.67V23h4.33v1.79h-6.66V15.11h6.67v1.8h-4.34v2h3.67Z"/><path class="cls-4" d="M123.79,21.37h-1.26v3.41H120.2V15.11H124a5.48,5.48,0,0,1,1.51.19,3.39,3.39,0,0,1,1.16.56,2.5,2.5,0,0,1,.73.91,3,3,0,0,1,.26,1.26,3.75,3.75,0,0,1-.12,1,2.53,2.53,0,0,1-.35.76,2.21,2.21,0,0,1-.53.57,4,4,0,0,1-.69.42l2,3.9v.1h-2.5Zm-1.26-1.8H124a1.19,1.19,0,0,0,1.33-1.32,1.33,1.33,0,0,0-.34-1,1.29,1.29,0,0,0-1-.36h-1.48Z"/><path class="cls-5" d="M16.28,17.74c.12-3.19.23-6.31.35-9.36a3.22,3.22,0,0,1,3.43-3.25h9.06a1.19,1.19,0,0,1,.86.35l7.19,6.87a1.11,1.11,0,0,1,.38.81c.18,4.78.37,9.71.56,14.82a3.33,3.33,0,0,1-3.33,3.61H19.2A3.32,3.32,0,0,1,15.9,28C16,24.51,16.15,21.09,16.28,17.74ZM28.29,7h-.18c-2.73,0-5.45,0-8.18,0a1.31,1.31,0,0,0-1.41,1.38q-.29,9.31-.6,19.52a1.36,1.36,0,0,0,1.48,1.59H34.56c1,0,1.55-.54,1.52-1.62q-.21-6.91-.41-13.4l0-.36h-4l-.51,0a3.23,3.23,0,0,1-2.81-3.24c0-1.17,0-2.34,0-3.49Zm5.83,5.18L30.19,8.34v.58c0,.62,0,1.24,0,1.86a1.27,1.27,0,0,0,1.14,1.34C32.29,12.16,33.22,12.13,34.12,12.13Z"/><path class="cls-5" d="M27,17.55H21.93a1,1,0,0,1-1.08-1,1,1,0,0,1,1.1-1H32.08a1,1,0,0,1,1.08,1,.93.93,0,0,1-1,.94Z"/><path class="cls-5" d="M27,21.67H21.86a1,1,0,0,1-1.1-1,1,1,0,0,1,1.12-1h7.55c.91,0,1.81,0,2.72,0a1,1,0,0,1,1.1,1.07.94.94,0,0,1-1,.94Z"/><path class="cls-5" d="M27,25.92H21.78a1,1,0,0,1-1.11-1,1,1,0,0,1,1.14-1c2.6,0,5.19,0,7.79,0,.87,0,1.75,0,2.63,0A1,1,0,0,1,33.34,25a1,1,0,0,1-1,1Z"/></g></g></svg>