<svg xmlns="http://www.w3.org/2000/svg" viewBox="0 0 436.72 123.09"><defs><style>.cls-1{isolation:isolate;}.cls-2{fill:#2a0fb2;}.cls-3{fill:#e8d62a;}.cls-4{mix-blend-mode:multiply;}.cls-5{fill:#ffeed4;}.cls-6{font-size:68.97px;fill:#3737b7;font-family:Roboto-Bold, Roboto;font-weight:700;}</style></defs><g class="cls-1"><g id="Layer_2" data-name="Layer 2"><g id="Our_Team_Title" data-name="Our Team Title"><path class="cls-2" d="M414,31.82l-5.44-.17-3.26-.09L26.62,20.09c0,.67,0,1.33-.05,2a1.53,1.53,0,0,1-.85,0c-.32,0-.34-.23-.57.54-.36,1.19-.69,3.75-1.26,3.68-.12,0-.3-.16-.42,0a4.44,4.44,0,0,0-.22,1.46,10.06,10.06,0,0,1,0,1.23c0,.29-.12.52-.15.81-.4-.13-.83-.41-1.23,0a6.88,6.88,0,0,0-.05,1.56A3.86,3.86,0,0,1,22,32a2.38,2.38,0,0,1,0,.39,2.72,2.72,0,0,0,.21.93c.2.32.46,0,.67.1A7,7,0,0,0,23,35.68a3.19,3.19,0,0,0,.52.68c.22.29.26.28.35,1A18.41,18.41,0,0,1,24.17,40c0,1.37-.53,2.34-.57,3.76,0,.29,0,.57.06.83a16.09,16.09,0,0,1,0,1.84c0,.6,0,1.36-.06,2a.32.32,0,0,1-.32.12,1.76,1.76,0,0,0-.39.35c-.11.05-.18,0-.29.1s-.21.55-.28,1.11c-.11.87-.3,1.76-.46,2.54a3.16,3.16,0,0,1-.27,1c-.14.22-.36.2-.51.41a4.54,4.54,0,0,0-.65,2.23c.1,0,.24-.11.34,0a2.5,2.5,0,0,1,.12,1.12,4,4,0,0,1,0,1c-.07.48-.42.55-.37,1.24a1.74,1.74,0,0,1,.13.42c0,.21,0,.42.05.64a8.67,8.67,0,0,0,.11.94c.29,1.12,1,.62.91,2.68a6.38,6.38,0,0,1-.32,1.6,6.92,6.92,0,0,0-.33,2.5c0,.67.07,1.07.05,1.78a15.26,15.26,0,0,1-.24,2.21c-.11.64-.14,1-.35,1.17a1.37,1.37,0,0,0-.48.82A7.93,7.93,0,0,0,20,75.64c0,.33-.14.4,0,.76a4.47,4.47,0,0,0-.54.88l-.14,4.65c.05.46.1,1,.12,1.24s.06.72.11,1.07,0,.76,0,1.14c0,.18.1.26.13.44.06.38,0,1.59.23,1.57a1.1,1.1,0,0,0,.08-.45,8.93,8.93,0,0,0,0,2.27c.09.37.27.48.37.8a9.78,9.78,0,0,1,.07,2.45,10.36,10.36,0,0,0,.15,2.17c.06.26.14.57.18.85s0,.61.05.89a10.65,10.65,0,0,0,.38,1.39,16.79,16.79,0,0,1,.07,2.51c0,.5.07,1.25,0,1.74l381.51,11.55,3.26.1,2.65.08c0-.49,0-1.24,0-1.74a16.79,16.79,0,0,0-.07-2.51,10.7,10.7,0,0,1-.37-1.39c0-.28,0-.63-.06-.89s-.12-.59-.18-.84a11.25,11.25,0,0,1-.15-2.18,9.33,9.33,0,0,0-.07-2.45c-.1-.32-.28-.43-.37-.8a9.4,9.4,0,0,1,0-2.27,1.1,1.1,0,0,1-.08.45c-.2,0-.17-1.19-.23-1.57,0-.18-.11-.26-.13-.44-.05-.38,0-.75-.05-1.14s-.07-.67-.11-1.07-.06-.78-.12-1.24l.14-4.65a4.8,4.8,0,0,1,.54-.88c-.13-.36,0-.43,0-.76a8,8,0,0,1,.12-1.26,1.3,1.3,0,0,1,.48-.81c.21-.23.25-.54.35-1.18a15.12,15.12,0,0,0,.24-2.2c0-.72,0-1.11-.05-1.78a7,7,0,0,1,.33-2.51,6.83,6.83,0,0,0,.33-1.6c.1-2.06-.63-1.56-.92-2.68a8.67,8.67,0,0,1-.11-.94c0-.22,0-.43-.05-.64a1.74,1.74,0,0,0-.13-.42c-.05-.69.3-.76.37-1.24a4,4,0,0,0,0-1,2.45,2.45,0,0,0-.12-1.11c-.09-.15-.23,0-.34,0a4.54,4.54,0,0,1,.65-2.23c.15-.21.37-.19.51-.41a3.17,3.17,0,0,0,.27-1c.16-.79.35-1.68.46-2.55.07-.55,0-.86.28-1.11s.18,0,.29-.1a1.76,1.76,0,0,1,.39-.35.32.32,0,0,0,.32-.12c0-.6,0-1.35.06-2a15.89,15.89,0,0,0,0-1.83q0-.41-.06-.84c0-1.42.54-2.39.58-3.76a18.08,18.08,0,0,0-.28-2.67c-.09-.7-.13-.69-.35-1a3.38,3.38,0,0,1-.52-.67,7.11,7.11,0,0,1-.11-2.26c-.21-.11-.47.22-.67-.1a3,3,0,0,1-.21-.93,2.47,2.47,0,0,0,0-.39,3.91,3.91,0,0,0-.17-.62,6.33,6.33,0,0,1,0-1.56c.41-.41.84-.12,1.23,0,0-.29.12-.52.15-.81a8.39,8.39,0,0,0,0-1.23,4.38,4.38,0,0,1,.22-1.45c.12-.21.3-.06.42,0,.57.08.9-2.49,1.26-3.67.23-.77.26-.59.57-.55a1.53,1.53,0,0,0,.85,0C414,33.15,414,32.49,414,31.82Z"/><path class="cls-3" d="M414,30.23l-5.44-.17-3.26-.1L26.62,18.5c0,.66,0,1.33-.05,2a1.53,1.53,0,0,1-.85,0c-.32,0-.34-.23-.57.54-.36,1.19-.69,3.75-1.26,3.68-.12,0-.3-.16-.42,0a4.44,4.44,0,0,0-.22,1.46,10.06,10.06,0,0,1,0,1.23c0,.29-.12.52-.15.81-.4-.13-.83-.41-1.23,0a6.88,6.88,0,0,0-.05,1.56,3.58,3.58,0,0,1,.18.62,2.38,2.38,0,0,1,0,.39,2.72,2.72,0,0,0,.21.93c.2.32.46,0,.67.1A7,7,0,0,0,23,34.09a3.19,3.19,0,0,0,.52.68c.22.29.26.27.35,1a18.41,18.41,0,0,1,.27,2.68c0,1.37-.53,2.34-.57,3.76,0,.29,0,.56.06.83a16.06,16.06,0,0,1,0,1.84c0,.6,0,1.35-.06,2a.29.29,0,0,1-.32.11,1.83,1.83,0,0,0-.39.36c-.11,0-.18,0-.29.1s-.21.55-.28,1.11c-.11.87-.3,1.76-.46,2.54a3.16,3.16,0,0,1-.27,1c-.14.22-.36.2-.51.41a4.54,4.54,0,0,0-.65,2.23c.1,0,.24-.11.34,0a2.5,2.5,0,0,1,.12,1.12,4,4,0,0,1,0,1c-.07.47-.42.55-.37,1.24a1.74,1.74,0,0,1,.13.42c0,.21,0,.42.05.64a8.19,8.19,0,0,0,.11.93c.29,1.13,1,.63.91,2.69a6.38,6.38,0,0,1-.32,1.6,6.92,6.92,0,0,0-.33,2.5c0,.67.07,1.07.05,1.78a15.26,15.26,0,0,1-.24,2.21c-.11.64-.14.94-.35,1.17a1.37,1.37,0,0,0-.48.82A7.93,7.93,0,0,0,20,74.05c0,.33-.14.4,0,.76a4.47,4.47,0,0,0-.54.88l-.14,4.65c.05.46.1,1,.12,1.24s.06.72.11,1.07,0,.76,0,1.14c0,.18.1.25.13.44.06.38,0,1.59.23,1.57a1.1,1.1,0,0,0,.08-.45,8.93,8.93,0,0,0,0,2.27c.09.37.27.48.37.8a9.76,9.76,0,0,1,.07,2.45A10.36,10.36,0,0,0,20.64,93c.06.26.14.57.18.85s0,.61.05.89a10.65,10.65,0,0,0,.38,1.39,16.7,16.7,0,0,1,.07,2.5c0,.51.07,1.26,0,1.75L402.86,112l3.26.1,2.65.08c0-.49,0-1.24,0-1.74a16.79,16.79,0,0,0-.07-2.51,10.7,10.7,0,0,1-.37-1.39c0-.28,0-.63-.06-.89s-.12-.59-.18-.85a11.09,11.09,0,0,1-.15-2.17,9.33,9.33,0,0,0-.07-2.45c-.1-.32-.28-.43-.37-.8a9.41,9.41,0,0,1,0-2.27,1.1,1.1,0,0,1-.08.45c-.2,0-.17-1.19-.23-1.57,0-.18-.11-.26-.13-.44-.05-.38,0-.75-.05-1.14s-.07-.67-.11-1.07-.06-.78-.12-1.24l.14-4.65a4.47,4.47,0,0,1,.54-.88c-.13-.36,0-.43,0-.76a7.93,7.93,0,0,1,.12-1.26,1.37,1.37,0,0,1,.48-.82c.21-.22.25-.53.35-1.17a15.26,15.26,0,0,0,.24-2.21c0-.71,0-1.11-.05-1.78a6.92,6.92,0,0,1,.33-2.5,6.83,6.83,0,0,0,.33-1.6c.1-2.06-.63-1.56-.92-2.68a8.67,8.67,0,0,1-.11-.94c0-.22,0-.43-.05-.64a1.74,1.74,0,0,0-.13-.42c-.05-.69.3-.76.37-1.24a4,4,0,0,0,0-1,2.5,2.5,0,0,0-.12-1.12c-.09-.14-.23,0-.34,0a4.54,4.54,0,0,1,.65-2.23c.15-.21.37-.19.51-.41a3.16,3.16,0,0,0,.27-1c.16-.78.35-1.67.46-2.54.07-.56,0-.86.28-1.11s.18,0,.29-.1a1.76,1.76,0,0,1,.39-.35.32.32,0,0,0,.32-.12c0-.6,0-1.36.06-2a16.09,16.09,0,0,0,0-1.84c0-.26-.05-.54-.06-.83,0-1.42.54-2.39.58-3.76a18.37,18.37,0,0,0-.28-2.68c-.09-.69-.13-.68-.35-1a3.19,3.19,0,0,1-.52-.68,7,7,0,0,1-.11-2.25c-.21-.12-.47.22-.67-.1a3,3,0,0,1-.21-.93,2.47,2.47,0,0,0,0-.39,3.91,3.91,0,0,0-.17-.62,6.33,6.33,0,0,1,0-1.56c.41-.41.84-.13,1.23,0,0-.29.12-.52.15-.81a8.39,8.39,0,0,0,0-1.23,4.44,4.44,0,0,1,.22-1.46c.12-.2.3,0,.42,0,.57.07.9-2.49,1.26-3.68.23-.77.26-.58.57-.54a1.53,1.53,0,0,0,.85,0C414,31.56,414,30.9,414,30.23Z"/><g class="cls-4"><path class="cls-5" d="M46.19,0l-.65.86-.39.51L0,61.07l.29.21a.28.28,0,0,1-.1.14s-.07,0,0,.15.47.5.4.59-.06,0,0,.07a1.13,1.13,0,0,0,.19.19,1,1,0,0,1,.19.12,1.09,1.09,0,0,0,.1.11c-.06.05-.16.09-.14.2a.91.91,0,0,0,.23.17l.11,0,.06,0a.4.4,0,0,0,.16.06c.07,0,.05-.07.09-.09a1.25,1.25,0,0,0,.35.22.41.41,0,0,0,.16,0,.24.24,0,0,1,.18.05,3,3,0,0,1,.43.23c.2.15.29.33.49.49l.13.08a1.73,1.73,0,0,1,.28.19c.08.06.2.14.28.21s0,0,0,.06a.34.34,0,0,0,0,.1s0,0,0,.06.06.09.13.16.23.23.33.34a.72.72,0,0,1,.11.15s0,.07,0,.12a.78.78,0,0,0,.26.34s0,0,0,0,.11,0,.18.09L5,66c.06.06,0,.13.14.19l.08,0,.1.06a.74.74,0,0,0,.15.08c.2.08.21-.1.5.14a1.42,1.42,0,0,1,.21.22,1.1,1.1,0,0,0,.33.31l.27.18a3.85,3.85,0,0,1,.3.27c.08.08.12.12.13.18a.23.23,0,0,0,.07.16,1.29,1.29,0,0,0,.17.15s0,.07.11.08a1.57,1.57,0,0,0,.07.18l.67.51.2.11a.7.7,0,0,0,.17.09l.17.12.08,0c.07,0,.24.16.26.13l0-.06a1.7,1.7,0,0,0,.34.23l.16,0a1.78,1.78,0,0,1,.37.24,1.76,1.76,0,0,0,.34.2l.14.06a.67.67,0,0,1,.14.09c.11,0,.16,0,.25.08a2.47,2.47,0,0,1,.38.25c.07,0,.19.12.26.18L57,10.34l.39-.51.32-.42c-.07-.06-.19-.12-.26-.17A3.24,3.24,0,0,0,57.08,9a2.41,2.41,0,0,1-.25-.08l-.14-.09-.15-.06a1.57,1.57,0,0,1-.34-.2,1.38,1.38,0,0,0-.37-.24s-.09,0-.16,0a1.27,1.27,0,0,1-.34-.23.17.17,0,0,1,.06.06S55.2,8,55.13,8l-.08,0-.17-.11-.17-.1-.2-.11-.67-.51A.41.41,0,0,1,53.77,7c-.07,0-.07,0-.11-.08a.9.9,0,0,1-.18-.15.25.25,0,0,1-.06-.16c0-.06-.05-.1-.14-.18a2,2,0,0,0-.3-.27,2.53,2.53,0,0,0-.27-.18,1.24,1.24,0,0,1-.33-.31,1,1,0,0,0-.2-.22c-.29-.23-.3-.06-.5-.13l-.15-.08-.1-.06-.08,0c-.11-.06-.08-.12-.14-.19a.85.85,0,0,0-.15-.09c-.07-.05-.13-.1-.18-.1s0,0-.05,0a.75.75,0,0,1-.25-.34s0-.08,0-.12a.71.71,0,0,0-.12-.15c-.09-.1-.2-.23-.32-.34S50,3.73,50,3.66s0,0,0-.05a.18.18,0,0,1,0-.1.08.08,0,0,0,0-.07l-.29-.21L49.48,3,49.35,3c-.21-.15-.29-.33-.49-.48a3.09,3.09,0,0,0-.43-.24.25.25,0,0,0-.18-.05.44.44,0,0,1-.16,0A1.13,1.13,0,0,1,47.74,2s0,.1-.09.1A.43.43,0,0,1,47.49,2l-.07,0-.11,0a1.09,1.09,0,0,1-.22-.17c0-.11.07-.15.14-.2a.52.52,0,0,1-.1-.11l-.19-.12a.85.85,0,0,1-.19-.19s0,0,0-.07-.26-.41-.4-.59,0-.1,0-.15a.64.64,0,0,0,.1-.13Z"/></g><g class="cls-4"><path class="cls-5" d="M366.74,123.09l1-.44.59-.27,68.34-30.54-.15-.33s.1-.05.15-.07.08,0,.06-.13-.18-.67-.07-.71.07,0,.07,0a.59.59,0,0,0-.08-.26c0-.07-.07-.12-.1-.2a.7.7,0,0,0,0-.14c.08,0,.18,0,.22-.11a1,1,0,0,0-.12-.26.6.6,0,0,1-.08-.08l0-.07a.47.47,0,0,0-.11-.13c-.06,0-.08,0-.12,0a1.71,1.71,0,0,0-.2-.36,1.56,1.56,0,0,0-.15-.06c-.06,0-.07,0-.14-.13a3.21,3.21,0,0,1-.26-.41c-.1-.23-.09-.43-.2-.66,0,0-.05-.09-.07-.14a1.59,1.59,0,0,1-.15-.29,3.31,3.31,0,0,1-.15-.33.07.07,0,0,1,.05,0,.36.36,0,0,0,0-.09s0,0,.05,0,0-.1,0-.2a4.32,4.32,0,0,1-.12-.45.45.45,0,0,1,0-.18s.05-.07.06-.12a.84.84,0,0,0-.06-.41s0,0-.07,0-.07-.1-.11-.17a.6.6,0,0,1-.08-.16c0-.09,0-.13,0-.24l-.05,0-.06-.1-.1-.15c-.14-.16-.23,0-.37-.36a.82.82,0,0,1-.07-.29,1.43,1.43,0,0,0-.14-.43,2.64,2.64,0,0,1-.15-.29,2.92,2.92,0,0,1-.14-.38.49.49,0,0,1,0-.22.22.22,0,0,0,0-.17.94.94,0,0,0-.07-.22s0-.08-.06-.12a.92.92,0,0,0,0-.19l-.34-.77a1.16,1.16,0,0,1-.12-.2l-.1-.16a1.62,1.62,0,0,1-.1-.18s0,0-.06-.06-.13-.26-.17-.24a.31.31,0,0,0,0,.08,1.34,1.34,0,0,0-.18-.36c-.05-.06-.09-.06-.13-.1a1.88,1.88,0,0,1-.21-.4,1.39,1.39,0,0,0-.2-.34l-.1-.12a1,1,0,0,0-.08-.14,1.77,1.77,0,0,0-.17-.2,2.11,2.11,0,0,1-.22-.4c0-.08-.11-.2-.14-.28L362.24,108.8l-.58.27-.48.21c0,.08.1.2.14.28a2.61,2.61,0,0,0,.21.41,1.11,1.11,0,0,1,.18.19s.05.1.08.14l.1.12a2.55,2.55,0,0,1,.2.34,1.37,1.37,0,0,0,.21.4s.08,0,.12.1a1.52,1.52,0,0,1,.19.36.12.12,0,0,1,0-.08s.12.18.16.24,0,0,.06.06.06.12.1.18l.11.17.12.19.34.77a.5.5,0,0,1,0,.19c.06,0,0,.07.06.12a1.19,1.19,0,0,1,.08.22.22.22,0,0,1,0,.17c0,.06,0,.11,0,.22s.08.25.13.38.1.18.15.29a1,1,0,0,1,.14.44,2.38,2.38,0,0,0,.07.29c.15.34.24.2.38.35a.75.75,0,0,1,.09.15l.06.1.06.05c.06.11,0,.15,0,.24s.06.1.09.16.06.14.11.17,0,0,.06,0a.76.76,0,0,1,.06.42s0,.06-.06.11,0,.11,0,.18.07.3.12.45.07.14,0,.21,0,0,0,0l0,.09s0,0-.05,0,.1.23.14.33l.15.3.08.13c.11.23.09.43.2.66a2.39,2.39,0,0,0,.26.41c.07.11.07.1.14.13a.46.46,0,0,1,.14.07,1.07,1.07,0,0,1,.2.35c.05,0,.07-.07.13,0a.57.57,0,0,1,.11.14l0,.06a.3.3,0,0,0,.08.08,1,1,0,0,1,.11.26c0,.1-.14.09-.22.11s0,.09,0,.14.07.13.1.2a1.08,1.08,0,0,1,.08.26s-.05,0-.07,0,0,.48.06.71,0,.11-.05.13a.35.35,0,0,0-.16.08C366.64,122.87,366.69,123,366.74,123.09Z"/></g><g class="cls-4"><path class="cls-5" d="M46.19,0l-.65.86-.39.51L0,61.07l.29.21a.28.28,0,0,1-.1.14s-.07,0,0,.15.47.5.4.59-.06,0,0,.07a1.13,1.13,0,0,0,.19.19,1,1,0,0,1,.19.12,1.09,1.09,0,0,0,.1.11c-.06.05-.16.09-.14.2a.91.91,0,0,0,.23.17l.11,0,.06,0a.4.4,0,0,0,.16.06c.07,0,.05-.07.09-.09a1.25,1.25,0,0,0,.35.22.41.41,0,0,0,.16,0,.24.24,0,0,1,.18.05,3,3,0,0,1,.43.23c.2.15.29.33.49.49l.13.08a1.73,1.73,0,0,1,.28.19c.08.06.2.14.28.21s0,0,0,.06a.34.34,0,0,0,0,.1s0,0,0,.06.06.09.13.16.23.23.33.34a.72.72,0,0,1,.11.15s0,.07,0,.12a.78.78,0,0,0,.26.34s0,0,0,0,.11,0,.18.09L5,66c.06.06,0,.13.14.19l.08,0,.1.06a.74.74,0,0,0,.15.08c.2.08.21-.1.5.14a1.42,1.42,0,0,1,.21.22,1.1,1.1,0,0,0,.33.31l.27.18a3.85,3.85,0,0,1,.3.27c.08.08.12.12.13.18a.23.23,0,0,0,.07.16,1.29,1.29,0,0,0,.17.15s0,.07.11.08a1.57,1.57,0,0,0,.07.18l.67.51.2.11a.7.7,0,0,0,.17.09l.17.12.08,0c.07,0,.24.16.26.13l0-.06a1.7,1.7,0,0,0,.34.23l.16,0a1.78,1.78,0,0,1,.37.24,1.76,1.76,0,0,0,.34.2l.14.06a.67.67,0,0,1,.14.09c.11,0,.16,0,.25.08a2.47,2.47,0,0,1,.38.25c.07,0,.19.12.26.18L57,10.34l.39-.51.32-.42c-.07-.06-.19-.12-.26-.17A3.24,3.24,0,0,0,57.08,9a2.41,2.41,0,0,1-.25-.08l-.14-.09-.15-.06a1.57,1.57,0,0,1-.34-.2,1.38,1.38,0,0,0-.37-.24s-.09,0-.16,0a1.27,1.27,0,0,1-.34-.23.17.17,0,0,1,.06.06S55.2,8,55.13,8l-.08,0-.17-.11-.17-.1-.2-.11-.67-.51A.41.41,0,0,1,53.77,7c-.07,0-.07,0-.11-.08a.9.9,0,0,1-.18-.15.25.25,0,0,1-.06-.16c0-.06-.05-.1-.14-.18a2,2,0,0,0-.3-.27,2.53,2.53,0,0,0-.27-.18,1.24,1.24,0,0,1-.33-.31,1,1,0,0,0-.2-.22c-.29-.23-.3-.06-.5-.13l-.15-.08-.1-.06-.08,0c-.11-.06-.08-.12-.14-.19a.85.85,0,0,0-.15-.09c-.07-.05-.13-.1-.18-.1s0,0-.05,0a.75.75,0,0,1-.25-.34s0-.08,0-.12a.71.71,0,0,0-.12-.15c-.09-.1-.2-.23-.32-.34S50,3.73,50,3.66s0,0,0-.05a.18.18,0,0,1,0-.1.08.08,0,0,0,0-.07l-.29-.21L49.48,3,49.35,3c-.21-.15-.29-.33-.49-.48a3.09,3.09,0,0,0-.43-.24.25.25,0,0,0-.18-.05.44.44,0,0,1-.16,0A1.13,1.13,0,0,1,47.74,2s0,.1-.09.1A.43.43,0,0,1,47.49,2l-.07,0-.11,0a1.09,1.09,0,0,1-.22-.17c0-.11.07-.15.14-.2a.52.52,0,0,1-.1-.11l-.19-.12a.85.85,0,0,1-.19-.19s0,0,0-.07-.26-.41-.4-.59,0-.1,0-.15a.64.64,0,0,0,.1-.13Z"/></g><g class="cls-4"><path class="cls-5" d="M366.74,123.09l1-.44.59-.27,68.34-30.54-.15-.33s.1-.05.15-.07.08,0,.06-.13-.18-.67-.07-.71.07,0,.07,0a.59.59,0,0,0-.08-.26c0-.07-.07-.12-.1-.2a.7.7,0,0,0,0-.14c.08,0,.18,0,.22-.11a1,1,0,0,0-.12-.26.6.6,0,0,1-.08-.08l0-.07a.47.47,0,0,0-.11-.13c-.06,0-.08,0-.12,0a1.71,1.71,0,0,0-.2-.36,1.56,1.56,0,0,0-.15-.06c-.06,0-.07,0-.14-.13a3.21,3.21,0,0,1-.26-.41c-.1-.23-.09-.43-.2-.66,0,0-.05-.09-.07-.14a1.59,1.59,0,0,1-.15-.29,3.31,3.31,0,0,1-.15-.33.07.07,0,0,1,.05,0,.36.36,0,0,0,0-.09s0,0,.05,0,0-.1,0-.2a4.32,4.32,0,0,1-.12-.45.45.45,0,0,1,0-.18s.05-.07.06-.12a.84.84,0,0,0-.06-.41s0,0-.07,0-.07-.1-.11-.17a.6.6,0,0,1-.08-.16c0-.09,0-.13,0-.24l-.05,0-.06-.1-.1-.15c-.14-.16-.23,0-.37-.36a.82.82,0,0,1-.07-.29,1.43,1.43,0,0,0-.14-.43,2.64,2.64,0,0,1-.15-.29,2.92,2.92,0,0,1-.14-.38.49.49,0,0,1,0-.22.22.22,0,0,0,0-.17.94.94,0,0,0-.07-.22s0-.08-.06-.12a.92.92,0,0,0,0-.19l-.34-.77a1.16,1.16,0,0,1-.12-.2l-.1-.16a1.62,1.62,0,0,1-.1-.18s0,0-.06-.06-.13-.26-.17-.24a.31.31,0,0,0,0,.08,1.34,1.34,0,0,0-.18-.36c-.05-.06-.09-.06-.13-.1a1.88,1.88,0,0,1-.21-.4,1.39,1.39,0,0,0-.2-.34l-.1-.12a1,1,0,0,0-.08-.14,1.77,1.77,0,0,0-.17-.2,2.11,2.11,0,0,1-.22-.4c0-.08-.11-.2-.14-.28L362.24,108.8l-.58.27-.48.21c0,.08.1.2.14.28a2.61,2.61,0,0,0,.21.41,1.11,1.11,0,0,1,.18.19s.05.1.08.14l.1.12a2.55,2.55,0,0,1,.2.34,1.37,1.37,0,0,0,.21.4s.08,0,.12.1a1.52,1.52,0,0,1,.19.36.12.12,0,0,1,0-.08s.12.18.16.24,0,0,.06.06.06.12.1.18l.11.17.12.19.34.77a.5.5,0,0,1,0,.19c.06,0,0,.07.06.12a1.19,1.19,0,0,1,.08.22.22.22,0,0,1,0,.17c0,.06,0,.11,0,.22s.08.25.13.38.1.18.15.29a1,1,0,0,1,.14.44,2.38,2.38,0,0,0,.07.29c.15.34.24.2.38.35a.75.75,0,0,1,.09.15l.06.1.06.05c.06.11,0,.15,0,.24s.06.1.09.16.06.14.11.17,0,0,.06,0a.76.76,0,0,1,.06.42s0,.06-.06.11,0,.11,0,.18.07.3.12.45.07.14,0,.21,0,0,0,0l0,.09s0,0-.05,0,.1.23.14.33l.15.3.08.13c.11.23.09.43.2.66a2.39,2.39,0,0,0,.26.41c.07.11.07.1.14.13a.46.46,0,0,1,.14.07,1.07,1.07,0,0,1,.2.35c.05,0,.07-.07.13,0a.57.57,0,0,1,.11.14l0,.06a.3.3,0,0,0,.08.08,1,1,0,0,1,.11.26c0,.1-.14.09-.22.11s0,.09,0,.14.07.13.1.2a1.08,1.08,0,0,1,.08.26s-.05,0-.07,0,0,.48.06.71,0,.11-.05.13a.35.35,0,0,0-.16.08C366.64,122.87,366.69,123,366.74,123.09Z"/></g><text class="cls-6" transform="translate(54.58 88.58)">Our Team</text></g></g></g></svg>