<svg xmlns="http://www.w3.org/2000/svg" xmlns:xlink="http://www.w3.org/1999/xlink" viewBox="0 0 1920 249.91"><defs><style>.cls-1{isolation:isolate;}.cls-2{fill:#06062d;}.cls-10,.cls-11,.cls-12,.cls-13,.cls-14,.cls-15,.cls-16,.cls-17,.cls-18,.cls-19,.cls-2,.cls-20,.cls-21,.cls-22,.cls-23,.cls-24,.cls-25,.cls-26,.cls-27,.cls-28,.cls-29,.cls-3,.cls-30,.cls-31,.cls-32,.cls-33,.cls-35,.cls-36,.cls-37,.cls-4,.cls-5,.cls-6,.cls-7,.cls-8,.cls-9{fill-rule:evenodd;}.cls-3{fill:#ffa974;}.cls-4{fill:#ff936f;}.cls-5{fill:#ff9a5e;}.cls-6{fill:#060623;}.cls-7{fill:#ab275f;}.cls-8{fill:#ffa479;}.cls-12,.cls-14,.cls-9{fill:#9f2247;}.cls-9{opacity:0.23;}.cls-10{fill:#ffcf9d;}.cls-11{fill:#f9d1c7;}.cls-12{opacity:0.38;}.cls-13{fill:#ffcf92;}.cls-14{opacity:0.2;}.cls-15{fill:url(#Áåçûìÿííûé_ãðàäèåíò_42);}.cls-16{fill:url(#Áåçûìÿííûé_ãðàäèåíò_83);}.cls-17{fill:url(#Áåçûìÿííûé_ãðàäèåíò_83-2);}.cls-18{fill:url(#Áåçûìÿííûé_ãðàäèåíò_66);}.cls-19{fill:#8b3d5c;opacity:0.67;mix-blend-mode:multiply;}.cls-20{fill:url(#Áåçûìÿííûé_ãðàäèåíò_17);}.cls-21{fill:#a42f38;}.cls-22{fill:#822b36;}.cls-23{fill:url(#Áåçûìÿííûé_ãðàäèåíò_83-3);}.cls-24{fill:#ffffe5;}.cls-24,.cls-30{opacity:0.5;mix-blend-mode:soft-light;}.cls-25{fill:#cebdac;}.cls-26{fill:#ffe7c7;}.cls-27{fill:#bf5e89;}.cls-28{fill:url(#Áåçûìÿííûé_ãðàäèåíò_162);}.cls-29,.cls-34{fill:#2a1032;}.cls-30{fill:#fff;}.cls-31{fill:url(#Áåçûìÿííûé_ãðàäèåíò_42-2);}.cls-32{fill:url(#Áåçûìÿííûé_ãðàäèåíò_162-2);}.cls-33,.cls-35{fill:#d6c79a;opacity:0.11;}.cls-35{mix-blend-mode:overlay;}.cls-36{fill:#af9c98;}.cls-37{fill:#89665f;}</style><radialGradient id="Áåçûìÿííûé_ãðàäèåíò_42" cx="5072.76" cy="-1359.49" r="6.98" gradientTransform="matrix(0.99, 0.14, -0.18, 1.25, -3579.2, 1085.61)" gradientUnits="userSpaceOnUse"><stop offset="0.02" stop-color="#371b32"/><stop offset="0.99" stop-color="#2a1032"/></radialGradient><linearGradient id="Áåçûìÿííûé_ãðàäèåíò_83" x1="5065.37" y1="-371.95" x2="5065.37" y2="-463.08" gradientTransform="translate(-3399.98 -163.56) rotate(8.16)" gradientUnits="userSpaceOnUse"><stop offset="0.02" stop-color="#5a959c"/><stop offset="0.95" stop-color="#3e5e6b"/></linearGradient><linearGradient id="Áåçûìÿííûé_ãðàäèåíò_83-2" x1="-3487.36" y1="-372.28" x2="-3487.36" y2="-463.42" gradientTransform="matrix(-0.99, -0.14, -0.14, 0.99, -1821.27, 63.24)" xlink:href="#Áåçûìÿííûé_ãðàäèåíò_83"/><linearGradient id="Áåçûìÿííûé_ãðàäèåíò_66" x1="5069.11" y1="1021.94" x2="5069.11" y2="971.19" gradientTransform="matrix(0.99, 0.14, -0.11, 0.74, -3236.65, -1301.96)" gradientUnits="userSpaceOnUse"><stop offset="0.03" stop-color="#ffdbc7"/><stop offset="1" stop-color="#ffe3ca"/></linearGradient><linearGradient id="Áåçûìÿííûé_ãðàäèåíò_17" x1="1685.57" y1="193.37" x2="1685.57" y2="182.9" gradientUnits="userSpaceOnUse"><stop offset="0" stop-color="#ffae86"/><stop offset="1" stop-color="#ffe588"/></linearGradient><linearGradient id="Áåçûìÿííûé_ãðàäèåíò_83-3" x1="5064.91" y1="-1363.23" x2="5082.15" y2="-1363.23" gradientTransform="matrix(0.99, 0.14, -0.18, 1.25, -3579.2, 1085.61)" xlink:href="#Áåçûìÿííûé_ãðàäèåíò_83"/><radialGradient id="Áåçûìÿííûé_ãðàäèåíò_162" cx="1115.73" cy="24.16" r="87.27" gradientTransform="translate(-536.44) scale(0.9 1)" gradientUnits="userSpaceOnUse"><stop offset="0.02" stop-color="#5a4153"/><stop offset="0.95" stop-color="#3e2645"/></radialGradient><radialGradient id="Áåçûìÿííûé_ãðàäèåíò_42-2" cx="1186.1" cy="53.15" r="33.21" gradientTransform="translate(-536.44) scale(0.9 1)" xlink:href="#Áåçûìÿííûé_ãðàäèåíò_42"/><radialGradient id="Áåçûìÿííûé_ãðàäèåíò_162-2" cx="-476.97" cy="123.75" r="26.94" gradientTransform="translate(1061.83) scale(1.2 1)" xlink:href="#Áåçûìÿííûé_ãðàäèåíò_162"/></defs><g class="cls-1"><g id="Layer_2" data-name="Layer 2"><g id="Separator_2" data-name="Separator 2"><path class="cls-2" d="M1376.62,80.41C1228.85,73,796.49,89.07,796.49,89.07,621.58,90.85,0,142.25,0,142.25V249.91H1920V138.66C1688.62,79.93,1376.62,80.41,1376.62,80.41Z"/><polygon class="cls-3" points="1431.5 121.88 1455.43 123.49 1447.85 127.04 1431.5 124.46 1431.5 121.88"/><polygon class="cls-4" points="1508.33 185.04 1532.26 186.65 1524.68 190.21 1508.33 187.63 1508.33 185.04"/><polygon class="cls-3" points="1457.4 126.74 1459.07 125.46 1464.15 124.46 1466.67 125.6 1457.4 126.74"/><polygon class="cls-3" points="1783.82 116.63 1785.49 115.35 1790.57 114.36 1793.08 115.5 1783.82 116.63"/><polygon class="cls-3" points="1497.13 130.86 1501.13 131.89 1502.75 130.2 1497.13 130.86"/><polygon class="cls-3" points="1395.88 113.21 1399.64 113.21 1400.83 114.61 1393.94 113.91 1395.88 113.21"/><polygon class="cls-3" points="1401.75 111.28 1402.45 110.92 1406.24 110.67 1407.75 111.28 1401.75 111.28"/><polygon class="cls-3" points="1410.05 111.28 1410.9 110.92 1412.08 111.1 1410.05 111.28"/><polygon class="cls-5" points="1376.89 157.88 1372.1 157.14 1367.56 159.43 1370.19 159.43 1379.1 158.78 1376.89 157.88"/><polygon class="cls-5" points="1376.89 159.81 1380.55 159.43 1383.82 159.81 1382.01 160.65 1375.53 160.65 1376.89 159.81"/><polygon class="cls-3" points="1425.51 128.55 1417.58 131.04 1418.67 129.35 1422.45 127.9 1425.51 128.55"/><polygon class="cls-4" points="1685.46 163.27 1727.17 165.32 1713.95 169.87 1685.46 166.57 1685.46 163.27"/><polygon class="cls-4" points="1730.61 169.47 1733.51 167.84 1742.37 166.57 1746.75 168.02 1730.61 169.47"/><polygon class="cls-3" points="1623.36 152.18 1629.92 152.18 1631.99 153.96 1619.98 153.07 1623.36 152.18"/><polygon class="cls-3" points="1754.45 113.71 1761.01 113.71 1763.09 115.5 1751.08 114.61 1754.45 113.71"/><polygon class="cls-4" points="1491.23 173 1497.78 173 1499.86 174.78 1487.85 173.89 1491.23 173"/><polygon class="cls-3" points="1633.61 149.71 1634.82 149.25 1641.42 148.93 1644.06 149.71 1633.61 149.71"/><polygon class="cls-3" points="1648.06 149.71 1649.55 149.25 1651.61 149.48 1648.06 149.71"/><polygon class="cls-4" points="1675.02 171.79 1661.18 174.98 1663.09 172.81 1669.68 170.96 1675.02 171.79"/><path class="cls-6" d="M1742.31,123.29s-11.85-.63-25.17-1.09-24.31-1.71-24.31-1.71-12.23,3.41-38.1,5.54-16.7,1.31-31.85,1.23-11.18-.28-27.28,1.91-35.69,4.11-35.69,4.11-1.86,0-14.52,1.29-5-1.93-16.53,0-13.18,5.33-21.64,3.62-60.55,2.83-60.55,2.83l19.85,11.49s10,9,13.44,9,75.56,4.14,75.56,4.14l30.08-7.52,27.18-10.88s25.93-2.29,33.5-2,15.06-5.44,27.33-5.15,45.89-1.85,45.89-1.85l47.72-14.9Z"/><polygon class="cls-7" points="1608.69 48.38 1579.92 61.38 1572.19 76.88 1583.81 114.23 1578.64 138.09 1612.78 147.22 1607.29 71.64 1608.69 48.38"/><polygon class="cls-8" points="1579.92 61.38 1548.45 51.48 1658.21 38.52 1673.45 51.15 1703.33 56.13 1603.29 60.39 1600.41 63.6 1591.28 61.11 1587.21 66.55 1579.92 61.38"/><polygon class="cls-9" points="1591.28 61.11 1600.41 63.6 1603.29 60.39 1609.02 60.15 1610.45 49.06 1701.51 55.83 1673.45 51.15 1660.9 40.75 1660.17 49.49 1608.69 48.38 1606.22 53.6 1590.45 52.81 1589.27 56.43 1548.45 51.48 1579.92 61.38 1587.21 66.55 1591.28 61.11"/><polygon class="cls-10" points="1548.45 51.48 1658.21 38.52 1671.79 51.98 1703.23 55.95 1722.11 86.75 1703.88 55.24 1673.1 51.22 1658.51 37.04 1548.45 51.48"/><polygon class="cls-8" points="1612.78 147.22 1611.33 127.25 1609.54 123.36 1610.73 119.05 1606.22 113.4 1608.71 109.25 1606.22 95.97 1607.29 71.64 1608.69 48.38 1703.23 55.95 1697.04 83.67 1698.03 98.8 1695.86 105.93 1695.86 110.91 1699.18 118.38 1697.52 120.04 1699.6 122.91 1700.01 129.17 1612.78 147.22"/><polygon class="cls-11" points="1651.24 118.38 1648.55 86.01 1692.05 95.34 1687.56 125.02 1651.24 118.38"/><polygon class="cls-11" points="1642.74 111.74 1641.91 93.48 1617.84 90.99 1618.87 104.89 1642.74 111.74"/><polygon class="cls-12" points="1697.52 120.04 1699.18 118.38 1695.86 110.91 1695.86 105.93 1698.03 98.8 1697.04 83.67 1698.03 80.81 1697.84 80.78 1703.96 58.59 1623.8 51.59 1608.69 48.38 1607.29 71.64 1655.43 78.09 1692.05 95.34 1685.53 111.74 1692.05 116.72 1687.23 122.2 1670.3 124.14 1642.74 141.02 1700.01 129.17 1699.6 122.91 1697.52 120.04"/><polygon class="cls-13" points="1703.23 55.95 1722.11 86.75 1651.87 69.41 1620.65 75.08 1608.69 48.38 1703.23 55.95"/><polygon class="cls-7" points="1548.45 51.48 1547.46 53.69 1579.85 63.48 1579.92 61.38 1548.45 51.48"/><polygon class="cls-7" points="1722.11 86.75 1719.95 87.65 1651.87 71.07 1620.39 76.27 1608.06 51.8 1608.69 48.38 1620.62 74.37 1651.87 68.58 1722.11 86.75"/><polygon class="cls-14" points="1608.69 48.38 1653.53 69.41 1620.65 75.08 1608.69 48.38"/><polygon class="cls-12" points="1606.22 95.97 1585.47 99.29 1575.03 86.01 1583.81 114.23 1581.15 126.53 1611.33 127.25 1609.54 123.36 1610.73 119.05 1606.22 113.4 1608.71 109.25 1606.22 95.97"/><polygon class="cls-12" points="1606.22 95.97 1622.82 97.63 1648.55 107.59 1621.86 105.98 1608.71 109.25 1606.22 95.97"/><polygon class="cls-12" points="1698.03 98.8 1689.22 104.27 1669.3 113.4 1648.55 112.16 1671.79 116.72 1695.86 110.91 1695.86 105.93 1690.83 107.76 1698.03 98.8"/><polygon class="cls-12" points="1699.18 118.38 1680.61 118.38 1654.72 126.03 1681.75 120.04 1697.52 120.04 1699.18 118.38"/><polygon class="cls-12" points="1610.73 119.05 1639.42 121.7 1609.54 123.36 1610.73 119.05"/><polygon class="cls-12" points="1606.22 113.4 1618.96 111.74 1633.61 115.89 1614.93 116.72 1610.73 119.05 1606.22 113.4"/><polygon class="cls-12" points="1632.78 113.4 1642.74 121.21 1655.63 117.3 1666.62 119.05 1655.63 115.4 1642.74 115.4 1629.58 109.95 1626.14 109.95 1632.78 113.4"/><polygon class="cls-12" points="1578.64 138.09 1598.75 133.32 1612.39 141.83 1631.11 138.7 1653.53 132.27 1700.01 129.17 1612.78 147.22 1578.64 138.09"/><polygon class="cls-12" points="1579.92 61.38 1585.47 71.07 1587.52 90.99 1589.62 69.41 1591.28 61.11 1587.21 66.55 1579.92 61.38"/><polygon class="cls-12" points="1595.6 62.29 1599.58 92.65 1602.07 64.43 1603.29 60.39 1600.41 63.6 1595.6 62.29"/><path class="cls-6" d="M1689.81,189.33l-44.25,4c-15.14,1.36-34,1.44-53.3.23h0L1581,194.64h0l-1.25.13c.81.33,1.25.53,1.25.53l-10.4,1a39.55,39.55,0,0,1-4.68-.74l-8.64.6s-6-1-8-2.15l0,0h0c-.43-.26-.68-.53-.61-.8l6.19-.41,2.17-.15c-1.44-.77-1.23-1.09-1.23-1.09l11.58-.66,1.93.46,2.36-.16,2.52-.22,8.57-.52h0l.3-.16.2-.1c5.73-3,17.22-5.14,32.63-6.13h0l48-3.09,5.37,1.73h0l7.53,2.44Z"/><path class="cls-15" d="M1679.68,101s8.79,3,15.7,2.25A20.71,20.71,0,0,0,1679.68,101Z"/><path class="cls-16" d="M1660.44,186.58l3.84-38.67a58.38,58.38,0,0,1,16.43-35.1h0l1-15.24,6.6.94-12.94,90.16Z"/><path class="cls-17" d="M1690.33,190.87l7.31-38.87a56.36,56.36,0,0,0-5.7-37l-.33-.61,2.71-15-6-.86-12.94,90.16Z"/><path class="cls-18" d="M1672.74,178h0c4.86.69,9.22-1.7,9.74-5.35l3.52-24.49c.47-3.32-2.39-6.63-6.72-7.65a20.56,20.56,0,0,0-2.65-.46c-4.72-.51-8.89,2.06-9.25,5.61l-2.5,24.68C1664.51,173.91,1668,177.3,1672.74,178Z"/><path class="cls-19" d="M1687.58,113.79l2.53-8.66a24.57,24.57,0,0,0-8.72-2.42l0-.12c.28-.86-.45-3.1.46-3.07,1.77,0,8.11-.07,11.62.83,1,.25-.07,3.2-.18,4.21l-.32,3-1.4,6.86.33.61a56.35,56.35,0,0,1,5.7,37l-7.31,38.88-6.2-.89,6.62-40.15A72.64,72.64,0,0,0,1687.58,113.79Z"/><polygon class="cls-20" points="1651.65 193.37 1663.52 182.9 1719.5 190.44 1651.65 193.37"/><path class="cls-21" d="M1682.8,95.93l2.11-12.54s6.63-2.1,10.46,2l-2.2,12.07S1689.28,94.48,1682.8,95.93Z"/><path class="cls-22" d="M1694.46,90.39A10.44,10.44,0,0,0,1686,87.9l.83-4.15s.88-.88,6.25,0a13.9,13.9,0,0,0-8.21-.33l-1.44,8.66,10.43,1.76Z"/><path class="cls-23" d="M1679.68,101a32.51,32.51,0,0,1,15.7,2.25l2-9.15s-7.93-5.48-17.07-2.45Z"/><path class="cls-24" d="M1696,93.71s-12.73-1.94-16.32,7.33l.63-9.35A18.73,18.73,0,0,1,1696,93.71Z"/><path class="cls-24" d="M1683.63,105v11s-9.29,10.77-9.25,31.2a241.36,241.36,0,0,1-2.48,35.76l-9.1,1.28s-1.84-54.65,18.59-70.07l.5-10.44Z"/><path class="cls-25" d="M1697.38,94.14s-1.72-2.15-8.19-3.36-8.88.91-8.88.91A26.18,26.18,0,0,1,1697.38,94.14Z"/><polygon class="cls-26" points="1589.75 157.07 1584.91 123.94 1556.06 123.29 1555.52 165.62 1589.75 157.07"/><polygon class="cls-27" points="1540.19 158.33 1555.52 165.62 1556.06 123.29 1536.9 125.09 1540.19 158.33"/><polygon class="cls-27" points="1535.1 125.26 1534.3 118.44 1553.78 115.72 1554.95 123.39 1535.1 125.26"/><polygon class="cls-26" points="1553.78 115.72 1554.95 123.39 1588.11 124.16 1588.54 114.33 1553.78 115.72"/><polygon class="cls-27" points="1584.95 124.37 1584.82 125.39 1556.21 124.95 1554.95 123.39 1584.95 124.37"/><polygon class="cls-6" points="531.96 135.31 319.26 136.03 267.58 126.13 481.53 126.13 531.96 135.31"/><polygon class="cls-28" points="397.94 109.57 389.13 3.79 393.6 0 531.62 0.6 547.81 108.62 541.64 110.6 397.94 109.57"/><polygon class="cls-29" points="379.01 7.72 394.09 0 402.78 106.78 398.82 109.16 384.55 107.58 379.01 7.72"/><polygon class="cls-30" points="409.3 98.07 401.44 5.34 528 6.72 538.97 99.61 409.3 98.07"/><polygon class="cls-31" points="528 6.72 526.58 6.68 537.65 99.61 538.97 99.61 528 6.72"/><polygon class="cls-29" points="381.96 14.7 376.44 29.41 380.27 102.08 387.72 104.28 381.96 14.7"/><polygon class="cls-29" points="547.81 108.62 401.45 106.31 397.94 109.57 541.64 110.6 547.81 108.62"/><polygon class="cls-30" points="423.1 0.58 425.73 4.55 528.19 5.98 532.89 36.25 535.74 36.25 530.74 1.38 423.1 0.58"/><polygon class="cls-29" points="438.77 109.93 429.94 127.3 487.2 125.81 486.25 109.95 438.77 109.93"/><polygon class="cls-32" points="531.96 135.31 519.97 122.51 448.49 120.52 444.34 135.31 531.96 135.31"/><polygon class="cls-29" points="448.49 120.52 426.24 124.22 423.39 131.35 444.34 135.31 448.49 120.52"/><polygon class="cls-33" points="480.82 6.28 440.13 98.38 477.14 98.38 517.17 6.52 480.82 6.28"/><path class="cls-33" d="M410.29,9.38a5.4,5.4,0,0,0,1.38,5.47A8.51,8.51,0,0,0,416,16.56a41.52,41.52,0,0,1,14,5.76,2.17,2.17,0,0,1-1,2.49c-.72.46-1.62.93-1.72,2a3.27,3.27,0,0,0,.2,1.28c1,3.16,3.13,5.58,5.56,6.31-.79,2.12-1.45,5.13-.06,6.55a3,3,0,0,0,1.9.74c6.33.79,12.77,1.59,19-.13a2,2,0,0,0,1.58-1.22,3.85,3.85,0,0,0-.08-2.07,29.19,29.19,0,0,0-4-9.41,4,4,0,0,1-.82-1.77A3.51,3.51,0,0,1,452.44,24a52.65,52.65,0,0,1,8.23-4.83,24.44,24.44,0,0,1-2-4.4,2.55,2.55,0,0,1-.17-1.44,1.76,1.76,0,0,1,.59-.83l2.32-2.21c-1.1-1.67-2.89-1.94-4.51-2.1a92.22,92.22,0,0,0-13-.7c-9,.37-17.85,3.37-26.82,2.92C415.11,10.28,412.25,8.67,410.29,9.38Z"/><path class="cls-33" d="M506.87,79.81a5.76,5.76,0,0,0-.1-1.9,6.62,6.62,0,0,0-1.28-2.09,15.49,15.49,0,0,1-3-8.1c.64,0,.8-1,.83-1.7a12.58,12.58,0,0,1,5.14-9.62,6.34,6.34,0,0,1,4.45-1.27,8.25,8.25,0,0,1,3.2,1.48,36.91,36.91,0,0,1,8.59,8.12c2.28-.91,4.86.29,6.67,2.08a9.31,9.31,0,0,1,3,6.94c-.15,2.66-2.22,5.22-4.61,5a7.83,7.83,0,0,0,.18,5.08,5.43,5.43,0,0,1,.57,1.82,3.35,3.35,0,0,1-1.84,2.66,12.85,12.85,0,0,1-16.61-2.85c-.45,1.7,1,4-.25,5.06a2.23,2.23,0,0,1-1.32.42,18.92,18.92,0,0,1-6.35-.62c-.37-2,1-2.52,1.7-4C506.88,84.32,506.75,82.14,506.87,79.81Z"/><path class="cls-33" d="M495,77.43c-.18-1.36,1.49-3.42,2.39-4.09.17.24.53.1.78,0a4.93,4.93,0,0,1,4.5-.07,3,3,0,0,1,1.47,1.43,3.71,3.71,0,0,1,.24,1.52,15.86,15.86,0,0,1-.78,5,3.09,3.09,0,0,1,.84,3,3.56,3.56,0,0,1-1.68,2.6c-.76.4-3.93-.84-3.83-1.3A1.61,1.61,0,0,1,497,86.6a1,1,0,0,1-.78-.87c0-.52.57-.83,1-1.13s.78-1,.38-1.3a5.15,5.15,0,0,1-3.09-.36,1.92,1.92,0,0,1-.8-2.67c.87-.59,2.47.65,2.93-.3.19-.41-.11-.89-.47-1.18s-.8-.5-1-.9A1.19,1.19,0,0,1,495,77.43Z"/><path class="cls-33" d="M441.78,50.92c-.42.76-2.83,1.73-3.94,2,0-.14-.44-.1-.73,0a6.82,6.82,0,0,1-4.12-.36c-.43-.22-.75-.53-.72-.91a1.79,1.79,0,0,1,.44-.85,13.66,13.66,0,0,1,2.86-2.65c-.48-.45-.12-1.14.51-1.7a5.58,5.58,0,0,1,2.65-1.28c.87-.15,3.22.81,2.93,1a2.9,2.9,0,0,1,2.25-.46c.32.09.52.31.33.54a3,3,0,0,1-1.39.53c-.52.13-1.13.46-.91.68a6.07,6.07,0,0,1,2.66.47c.6.36.52,1.13-.42,1.53-1.05.24-2-.58-2.8-.1a.4.4,0,0,0-.09.69c.21.19.51.35.55.58A.46.46,0,0,1,441.78,50.92Z"/><path class="cls-33" d="M526.57,36.86a6.78,6.78,0,0,1,.54,2.29,2.29,2.29,0,0,1-1,2,3.3,3.3,0,0,1-1.77.28c-2.37,0-5.13-.3-6.45-2.27a5.72,5.72,0,0,1-.62-4.07,2.93,2.93,0,0,1,1-2c.92-.67,2.21-.23,3.26.23a13.22,13.22,0,0,1,3.15,1.73,4.54,4.54,0,0,1,1.79,3"/><path class="cls-33" d="M433.05,42.41a6.78,6.78,0,0,1,.54,2.29,2.3,2.3,0,0,1-1,2,3.46,3.46,0,0,1-1.78.28c-2.37-.05-5.12-.3-6.44-2.27a5.67,5.67,0,0,1-.63-4.07,3,3,0,0,1,1-2c.93-.67,2.22-.23,3.27.23a13.41,13.41,0,0,1,3.15,1.73,4.59,4.59,0,0,1,1.79,3"/><circle class="cls-34" cx="464.2" cy="2.57" r="1.19"/><circle class="cls-34" cx="474.5" cy="103.22" r="2.77"/><polygon class="cls-35" points="394.09 0 515.32 12.48 547.81 108.62 530.74 1.38 394.09 0"/><polygon class="cls-3" points="387.89 154.67 389.56 153.39 394.63 152.39 397.15 153.53 387.89 154.67"/><polygon class="cls-4" points="374.75 181.46 377.66 179.82 386.51 178.55 390.89 180.01 374.75 181.46"/><polygon class="cls-3" points="443.59 186.03 450.56 187.35 453.39 185.18 443.59 186.03"/><polygon class="cls-3" points="358.52 151.75 365.08 151.75 367.16 153.53 355.14 152.64 358.52 151.75"/><polygon class="cls-3" points="469.13 159.15 473.26 159.85 475.23 159.15 470.71 158.24 469.13 159.15"/><polygon class="cls-3" points="478.12 158.24 482.97 158.67 484.11 157.5 479.7 157.37 478.12 158.24"/><polygon class="cls-3" points="525.37 166.31 534.8 166.31 537.2 163.31 525.88 164.09 525.37 166.31"/><path class="cls-6" d="M511.83,141H503l8.87,7.41s9.45-1.28,10.06-1,12.05,2.16,12.05,2.16S555.58,143,554.78,143s-37.5-2-37.5-2Z"/><polygon class="cls-36" points="552.47 111.03 544.47 108.89 536.54 116.28 531.13 113.27 513.7 121.85 515.62 126.29 511.96 132.88 515.22 134.37 507.44 140.68 514.27 145.37 524.21 141.04 528.31 145.69 547.61 143.41 547.03 135.14 542.63 133.8 548.54 133.36 550.82 119.89 547.24 119.57 552.47 111.03"/><polygon class="cls-37" points="547.03 135.14 532.43 138.48 532.43 140.03 530.91 138.48 538.97 135.14 537.13 134.37 543.2 133.75 547.03 135.14"/><path class="cls-37" d="M550.82,119.89c-1,.79-11.21,5.84-10.79,6.08s7.21-6.4,7.21-6.4Z"/><polygon class="cls-37" points="538.26 124.42 537.68 123.16 534.72 122.91 532 124.6 518.6 120.94 511.96 132.88 515.22 134.37 507.44 140.68 513.7 144.84 516.11 140.13 517.73 139.27 518.14 137.62 521.18 137.42 519.63 132.27 533.26 127.15 534.3 126.09 538.3 124.55 538.26 124.42 538.26 124.42"/><path class="cls-36" d="M521.18,137.42s-6.52-2.19-6.16-1.87,4.27,4.49,4.27,4.49l-.94-2,3.5.44Z"/><polygon class="cls-37" points="528.36 122.31 523.93 117.48 514.02 121.88 518.5 125.97 523.27 122.83 528.36 122.31 528.36 122.31"/><path class="cls-6" d="M273.06,129H261.88l11.18,9.33s11.68-3.87,12.44-3.46,15.41,5,15.41,5,27.25-8.38,26.24-8.38S279.91,129,279.91,129Z"/><polygon class="cls-36" points="281.57 103.65 298.46 108.26 301.88 106.13 305.62 106.44 307.96 118.65 317.39 121.54 318.12 131.95 293.81 134.82 288.65 128.97 276.13 134.42 267.53 128.51 277.33 120.57 273.21 118.69 281.57 103.65 281.57 103.65"/><polygon class="cls-37" points="306.35 108.03 305.62 106.44 301.88 106.13 298.46 108.26 281.57 103.65 273.21 118.69 277.33 120.57 274.8 122.62 267.53 128.51 275.41 133.75 278.45 127.83 284.82 124.4 282.87 117.91 300.05 111.47 301.36 110.13 306.39 108.2 306.35 108.03 306.35 108.03"/><path class="cls-36" d="M282.79,123.53l-5.46-3L274,123.24C274.22,123.09,282.79,123.53,282.79,123.53Z"/><path class="cls-36" d="M300.91,111.64s-12.88-2-12.39-1.66,9.4,4.42,9.4,4.42Z"/><path class="cls-37" d="M317.39,121.54c-.6-.19-15.81,4.14-15.81,4.14s-5.78,7.12-5.77,7.16,3.32-8.16,3.32-8.16,9.9-3.26,9.41-3.15a16.22,16.22,0,0,1-3.54,0,34.38,34.38,0,0,0,3-2.88Z"/></g></g></g></svg>