<svg xmlns="http://www.w3.org/2000/svg" viewBox="0 0 1920 249.91"><defs><style>.cls-1{fill:#120a2d;}.cls-1,.cls-2{fill-rule:evenodd;}.cls-2{fill:#110828;}</style></defs><g id="Layer_2" data-name="Layer 2"><g id="Separator_2" data-name="Separator 2"><path class="cls-1" d="M1376.62,80.41C1228.85,73,796.49,89.07,796.49,89.07,621.58,90.85,0,142.25,0,142.25V249.91H1920V138.66C1688.62,79.93,1376.62,80.41,1376.62,80.41Z"/><polygon class="cls-2" points="1455.43 123.49 1431.5 121.88 1431.5 124.46 1447.85 127.04 1455.43 123.49"/><polygon class="cls-2" points="1508.33 187.63 1524.68 190.21 1532.26 186.65 1508.33 185.04 1508.33 187.63"/><polygon class="cls-2" points="1464.15 124.46 1459.07 125.46 1457.4 126.74 1466.67 125.6 1464.15 124.46"/><polygon class="cls-2" points="1790.57 114.36 1785.49 115.35 1783.82 116.63 1793.08 115.5 1790.57 114.36"/><polygon class="cls-2" points="1502.75 130.2 1497.13 130.86 1501.13 131.89 1502.75 130.2"/><polygon class="cls-2" points="1395.88 113.21 1393.94 113.91 1400.83 114.61 1399.64 113.21 1395.88 113.21"/><polygon class="cls-2" points="1402.45 110.92 1401.75 111.28 1407.75 111.28 1406.24 110.67 1402.45 110.92"/><polygon class="cls-2" points="1410.05 111.28 1412.08 111.1 1410.9 110.92 1410.05 111.28"/><polygon class="cls-2" points="1376.89 157.88 1372.1 157.14 1367.56 159.43 1370.19 159.43 1379.1 158.78 1376.89 157.88"/><polygon class="cls-2" points="1376.89 159.81 1375.53 160.65 1382.01 160.65 1383.82 159.81 1380.55 159.43 1376.89 159.81"/><polygon class="cls-2" points="1418.67 129.35 1417.58 131.04 1425.51 128.55 1422.45 127.9 1418.67 129.35"/><polygon class="cls-2" points="1733.51 167.84 1730.61 169.47 1746.75 168.02 1742.37 166.57 1733.51 167.84"/><polygon class="cls-2" points="1623.36 152.18 1619.98 153.07 1631.99 153.96 1629.92 152.18 1623.36 152.18"/><polygon class="cls-2" points="1761.01 113.71 1754.45 113.71 1751.08 114.61 1763.09 115.5 1761.01 113.71"/><polygon class="cls-2" points="1491.23 173 1487.85 173.89 1499.86 174.78 1497.78 173 1491.23 173"/><polygon class="cls-2" points="1634.82 149.25 1633.61 149.71 1644.06 149.71 1641.42 148.93 1634.82 149.25"/><polygon class="cls-2" points="1648.06 149.71 1651.61 149.48 1649.55 149.25 1648.06 149.71"/><path class="cls-2" d="M1717.14,122.2c-7.59-.26-14.43-.78-18.91-1.18l-.71-1,1.66-1.66-3.32-7.47v-5L1698,98.8l-.48-7.32-.51-7.81h0l.51-1.47,22.4,5.45,2.16-.9-18.23-31.51-27.3-3.57-3.13-.52-2.84-2.35L1658.51,37,1548.45,51.48l-1,2.21L1579,63.23l-6.81,13.65,11.62,37.35-.06.29-30,1.2-19.48,2.72.8,6.82,1.8-.17.95,9.58c-2.11-.44-1.52-1.35-9-.1-11.52,1.92-13.18,5.33-21.64,3.62s-60.55,2.83-60.55,2.83l19.85,11.49s10,9,13.44,9,75.56,4.14,75.56,4.14l30.08-7.52h0l4.15-1-.09-.59,23.12-9.26s25.93-2.29,33.5-2c5.73.2,11.42-3,19.18-4.47a57.63,57.63,0,0,0-1.18,7.19l-2.64,26.55-.46.52.42-.1-.63,6.31-45,2.9h0c-15.41,1-26.9,3.15-32.63,6.13l-.2.1-.3.16h0l-8.57.52-2.52.22-2.36.16-1.93-.46-11.58.66s-.21.32,1.23,1.09l-2.17.15-6.19.41c-.07.27.18.54.61.8h0l0,0c2,1.18,8,2.15,8,2.15l8.64-.6a39.55,39.55,0,0,0,4.68.74l10.4-1s-.44-.2-1.25-.53l1.25-.13h0l11.23-1.12c19.35,1.21,38.16,1.13,53.3-.23l6.87-.61-.78.69,67.85-2.93-28.37-3.82,1.44-7.66,2.13-11.32,19.25,2.23,13.22-4.55-31.74-1.56,2.21-11.76h0a56.6,56.6,0,0,0,.92-12.64c11-.53,20.94-1.16,20.94-1.16l47.72-14.9h-24.91S1730.46,122.66,1717.14,122.2Zm-105.81,5.06Zm91.9-71.3-1.84-.15-2.12-.35Z"/><polygon class="cls-2" points="389.56 153.39 387.89 154.67 397.15 153.53 394.63 152.39 389.56 153.39"/><polygon class="cls-2" points="377.66 179.82 374.75 181.46 390.89 180.01 386.51 178.55 377.66 179.82"/><polygon class="cls-2" points="450.56 187.35 453.39 185.18 443.59 186.03 450.56 187.35"/><polygon class="cls-2" points="358.52 151.75 355.14 152.64 367.16 153.53 365.08 151.75 358.52 151.75"/><polygon class="cls-2" points="469.13 159.15 473.26 159.85 475.23 159.15 470.71 158.24 469.13 159.15"/><polygon class="cls-2" points="478.12 158.24 482.97 158.67 484.11 157.5 479.7 157.37 478.12 158.24"/><polygon class="cls-2" points="525.37 166.31 534.8 166.31 537.2 163.31 525.88 164.09 525.37 166.31"/><path class="cls-2" d="M547.56,142.63l-.53-7.49-3.83-1.39-.53.06h0l5.91-.44,2.28-13.47-3.58-.32,5.23-8.54-6.64-1.78,2-.63L531.62.6,394.47,0h-.87l-.75.63L379,7.72l.72,12.94-3.29,8.75,3.83,72.67,4.05,1.2.23,4.3,13.35,1.48,0,.51,50.84.36h-10L432,123.26l-5.75,1-.76,1.91H317.71l-.32-4.59L308,118.65l-2-10.3.41-.15,0-.17-.73-1.59-1.91-.16-1.83-.15-2.68,1.67-.74.46-8.76-2.39-8.12-2.22-8.37,15h0l4.12,1.88-6.85,5.56h-2.9l2.34.44-2.39,1.94.63.44h-6.28l11.18,9.33s11.68-3.87,12.44-3.46,15.41,5,15.41,5,7.51-2.31,14.51-4.51l3.84.74L514,135.38l-6.55,5.3.51.34h-5l8.87,7.41s9.45-1.28,10.06-1,12.05,2.16,12.05,2.16S555.58,143,554.78,143C554.56,143,551.65,142.84,547.56,142.63ZM524.21,141l.33.37-1,0Zm17.43-30.44,1.53-.49-6.63,6.17-5.41-3-17.43,8.58.21.49-27-.75-.68-11.39Z"/></g></g></svg>