<svg xmlns="http://www.w3.org/2000/svg" xmlns:xlink="http://www.w3.org/1999/xlink" viewBox="0 0 1920 232.54"><defs><style>.cls-1{isolation:isolate;}.cls-2{fill:#814c63;}.cls-10,.cls-11,.cls-12,.cls-14,.cls-15,.cls-16,.cls-17,.cls-18,.cls-19,.cls-2,.cls-20,.cls-21,.cls-22,.cls-23,.cls-24,.cls-25,.cls-26,.cls-27,.cls-28,.cls-29,.cls-3,.cls-30,.cls-31,.cls-32,.cls-33,.cls-34,.cls-35,.cls-4,.cls-5,.cls-55,.cls-56,.cls-57,.cls-58,.cls-59,.cls-6,.cls-60,.cls-61,.cls-62,.cls-63,.cls-64,.cls-7,.cls-8,.cls-9{fill-rule:evenodd;}.cls-3{fill:#6d4156;opacity:0.44;}.cls-4{fill:#ffa974;}.cls-5{fill:#ff936f;}.cls-6{fill:#ff9a5e;}.cls-7{fill:url(#Áåçûìÿííûé_ãðàäèåíò_162);}.cls-13,.cls-8{fill:#2a1032;}.cls-9{fill:#fff;}.cls-32,.cls-9{opacity:0.5;mix-blend-mode:soft-light;}.cls-10{fill:url(#Áåçûìÿííûé_ãðàäèåíò_42);}.cls-11{fill:url(#Áåçûìÿííûé_ãðàäèåíò_162-2);}.cls-12,.cls-14{fill:#d6c79a;opacity:0.11;}.cls-14{mix-blend-mode:overlay;}.cls-15{fill:#ab275f;}.cls-16{fill:#ffa479;}.cls-17,.cls-20,.cls-22{fill:#9f2247;}.cls-17{opacity:0.23;}.cls-18{fill:#ffcf9d;}.cls-19{fill:#f9d1c7;}.cls-20{opacity:0.38;}.cls-21{fill:#ffcf92;}.cls-22{opacity:0.2;}.cls-23{fill:url(#Áåçûìÿííûé_ãðàäèåíò_42-2);}.cls-24{fill:url(#Áåçûìÿííûé_ãðàäèåíò_83);}.cls-25{fill:url(#Áåçûìÿííûé_ãðàäèåíò_83-2);}.cls-26{fill:url(#Áåçûìÿííûé_ãðàäèåíò_66);}.cls-27{fill:#8b3d5c;opacity:0.67;mix-blend-mode:multiply;}.cls-28{fill:url(#Áåçûìÿííûé_ãðàäèåíò_17);}.cls-29{fill:#a42f38;}.cls-30{fill:#822b36;}.cls-31{fill:url(#Áåçûìÿííûé_ãðàäèåíò_83-3);}.cls-32{fill:#ffffe5;}.cls-33{fill:#cebdac;}.cls-34{fill:#ffe7c7;}.cls-35{fill:#bf5e89;}.cls-36{fill:url(#Áåçûìÿííûé_ãðàäèåíò_102);}.cls-37{fill:url(#Áåçûìÿííûé_ãðàäèåíò_102-2);}.cls-38{fill:url(#Áåçûìÿííûé_ãðàäèåíò_102-3);}.cls-39{fill:url(#Áåçûìÿííûé_ãðàäèåíò_102-4);}.cls-40{fill:url(#Áåçûìÿííûé_ãðàäèåíò_102-5);}.cls-41{fill:url(#Áåçûìÿííûé_ãðàäèåíò_102-6);}.cls-42{fill:url(#Áåçûìÿííûé_ãðàäèåíò_102-7);}.cls-43{fill:url(#Áåçûìÿííûé_ãðàäèåíò_102-8);}.cls-44{fill:url(#Áåçûìÿííûé_ãðàäèåíò_102-9);}.cls-45{fill:url(#Áåçûìÿííûé_ãðàäèåíò_102-10);}.cls-46{fill:url(#Áåçûìÿííûé_ãðàäèåíò_102-11);}.cls-47{fill:url(#Áåçûìÿííûé_ãðàäèåíò_102-12);}.cls-48{fill:url(#Áåçûìÿííûé_ãðàäèåíò_102-13);}.cls-49{fill:url(#Áåçûìÿííûé_ãðàäèåíò_102-14);}.cls-50{fill:url(#Áåçûìÿííûé_ãðàäèåíò_102-15);}.cls-51{fill:url(#Áåçûìÿííûé_ãðàäèåíò_102-16);}.cls-52{fill:url(#Áåçûìÿííûé_ãðàäèåíò_102-17);}.cls-53{fill:url(#Áåçûìÿííûé_ãðàäèåíò_102-18);}.cls-54{fill:url(#Áåçûìÿííûé_ãðàäèåíò_102-19);}.cls-55{fill:#a67438;}.cls-56{fill:#a69589;}.cls-57{fill:#9a5c66;}.cls-58{fill:#aed9fe;}.cls-59{fill:#f18664;}.cls-60{fill:#a6b3cd;}.cls-61{fill:#e8706f;}.cls-62{fill:#e87f6f;}.cls-63{fill:#af9c98;}.cls-64{fill:#89665f;}</style><radialGradient id="Áåçûìÿííûé_ãðàäèåíò_162" cx="1883.24" cy="24.16" r="87.27" gradientTransform="translate(-329.63) scale(0.9 1)" gradientUnits="userSpaceOnUse"><stop offset="0.02" stop-color="#5a4153"/><stop offset="0.95" stop-color="#3e2645"/></radialGradient><radialGradient id="Áåçûìÿííûé_ãðàäèåíò_42" cx="1953.61" cy="53.15" r="33.21" gradientTransform="translate(-329.63) scale(0.9 1)" gradientUnits="userSpaceOnUse"><stop offset="0.02" stop-color="#371b32"/><stop offset="0.99" stop-color="#2a1032"/></radialGradient><radialGradient id="Áåçûìÿííûé_ãðàäèåíò_162-2" cx="623.13" cy="123.75" r="26.94" gradientTransform="translate(638.46) scale(1.2 1)" xlink:href="#Áåçûìÿííûé_ãðàäèåíò_162"/><radialGradient id="Áåçûìÿííûé_ãðàäèåíò_42-2" cx="5189.63" cy="-1288.74" r="6.98" gradientTransform="matrix(0.99, 0.14, -0.18, 1.25, -3682.16, 962.93)" xlink:href="#Áåçûìÿííûé_ãðàäèåíò_42"/><linearGradient id="Áåçûìÿííûé_ãðàäèåíò_83" x1="5182.24" y1="-98.2" x2="5182.24" y2="-189.33" gradientTransform="translate(-3476.79 -468.52) rotate(8.16)" gradientUnits="userSpaceOnUse"><stop offset="0.02" stop-color="#5a959c"/><stop offset="0.95" stop-color="#3e5e6b"/></linearGradient><linearGradient id="Áåçûìÿííûé_ãðàäèåíò_83-2" x1="592.7" y1="-98.53" x2="592.7" y2="-189.66" gradientTransform="matrix(-0.99, -0.14, -0.14, 0.99, 2256.46, 354.25)" xlink:href="#Áåçûìÿííûé_ãðàäèåíò_83"/><linearGradient id="Áåçûìÿííûé_ãðàäèåíò_66" x1="5185.98" y1="1614.79" x2="5185.98" y2="1564.04" gradientTransform="matrix(0.99, 0.14, -0.11, 0.74, -3289.09, -1776.84)" gradientUnits="userSpaceOnUse"><stop offset="0.03" stop-color="#ffdbc7"/><stop offset="1" stop-color="#ffe3ca"/></linearGradient><linearGradient id="Áåçûìÿííûé_ãðàäèåíò_17" x1="1685.57" y1="176" x2="1685.57" y2="165.53" gradientUnits="userSpaceOnUse"><stop offset="0" stop-color="#ffae86"/><stop offset="1" stop-color="#ffe588"/></linearGradient><linearGradient id="Áåçûìÿííûé_ãðàäèåíò_83-3" x1="5181.78" y1="-1292.48" x2="5199.02" y2="-1292.48" gradientTransform="matrix(0.99, 0.14, -0.18, 1.25, -3682.16, 962.93)" xlink:href="#Áåçûìÿííûé_ãðàäèåíò_83"/><linearGradient id="Áåçûìÿííûé_ãðàäèåíò_102" x1="172.35" y1="117.21" x2="172.35" y2="105.24" gradientTransform="translate(-4.34 30.66) rotate(-3.61)" gradientUnits="userSpaceOnUse"><stop offset="0.01" stop-color="#fb6b4f"/><stop offset="0.98" stop-color="#ff9c21"/></linearGradient><linearGradient id="Áåçûìÿííûé_ãðàäèåíò_102-2" x1="196.75" y1="120.53" x2="196.75" y2="114.38" xlink:href="#Áåçûìÿííûé_ãðàäèåíò_102"/><linearGradient id="Áåçûìÿííûé_ãðàäèåíò_102-3" x1="222.4" y1="94.26" x2="222.4" y2="92.12" xlink:href="#Áåçûìÿííûé_ãðàäèåíò_102"/><linearGradient id="Áåçûìÿííûé_ãðàäèåíò_102-4" x1="230.87" y1="111.08" x2="230.87" y2="108.14" xlink:href="#Áåçûìÿííûé_ãðàäèåíò_102"/><linearGradient id="Áåçûìÿííûé_ãðàäèåíò_102-5" x1="296.98" y1="130.88" x2="296.98" y2="123.77" xlink:href="#Áåçûìÿííûé_ãðàäèåíò_102"/><linearGradient id="Áåçûìÿííûé_ãðàäèåíò_102-6" x1="307.51" y1="130.7" x2="307.51" y2="127.53" xlink:href="#Áåçûìÿííûé_ãðàäèåíò_102"/><linearGradient id="Áåçûìÿííûé_ãðàäèåíò_102-7" x1="326.27" y1="121.87" x2="326.27" y2="119.26" xlink:href="#Áåçûìÿííûé_ãðàäèåíò_102"/><linearGradient id="Áåçûìÿííûé_ãðàäèåíò_102-8" x1="374.26" y1="136.26" x2="374.26" y2="133.53" xlink:href="#Áåçûìÿííûé_ãðàäèåíò_102"/><linearGradient id="Áåçûìÿííûé_ãðàäèåíò_102-9" x1="307.01" y1="125.16" x2="307.01" y2="123.31" xlink:href="#Áåçûìÿííûé_ãðàäèåíò_102"/><linearGradient id="Áåçûìÿííûé_ãðàäèåíò_102-10" x1="318.34" y1="135.17" x2="318.34" y2="131.72" xlink:href="#Áåçûìÿííûé_ãðàäèåíò_102"/><linearGradient id="Áåçûìÿííûé_ãðàäèåíò_102-11" x1="333.01" y1="137.69" x2="333.01" y2="135.34" xlink:href="#Áåçûìÿííûé_ãðàäèåíò_102"/><linearGradient id="Áåçûìÿííûé_ãðàäèåíò_102-12" x1="564.56" y1="100.13" x2="564.56" y2="96.76" xlink:href="#Áåçûìÿííûé_ãðàäèåíò_102"/><linearGradient id="Áåçûìÿííûé_ãðàäèåíò_102-13" x1="577.85" y1="119.39" x2="577.85" y2="115.44" xlink:href="#Áåçûìÿííûé_ãðàäèåíò_102"/><linearGradient id="Áåçûìÿííûé_ãðàäèåíò_102-14" x1="606.6" y1="121.81" x2="606.6" y2="120.11" xlink:href="#Áåçûìÿííûé_ãðàäèåíò_102"/><linearGradient id="Áåçûìÿííûé_ãðàäèåíò_102-15" x1="504.06" y1="124.33" x2="504.06" y2="121.63" xlink:href="#Áåçûìÿííûé_ãðàäèåíò_102"/><linearGradient id="Áåçûìÿííûé_ãðàäèåíò_102-16" x1="478.69" y1="128.71" x2="478.69" y2="126.31" xlink:href="#Áåçûìÿííûé_ãðàäèåíò_102"/><linearGradient id="Áåçûìÿííûé_ãðàäèåíò_102-17" x1="539.31" y1="133.28" x2="539.31" y2="127.53" xlink:href="#Áåçûìÿííûé_ãðàäèåíò_102"/><linearGradient id="Áåçûìÿííûé_ãðàäèåíò_102-18" x1="595.63" y1="113.58" x2="595.63" y2="108.09" xlink:href="#Áåçûìÿííûé_ãðàäèåíò_102"/><linearGradient id="Áåçûìÿííûé_ãðàäèåíò_102-19" x1="620.63" y1="112.93" x2="620.63" y2="110.07" xlink:href="#Áåçûìÿííûé_ãðàäèåíò_102"/></defs><g class="cls-1"><g id="Layer_2" data-name="Layer 2"><g id="Separator_2" data-name="Separator 2"><path class="cls-2" d="M1376.62,63c-147.77-7.45-580.13,8.67-580.13,8.67C621.58,73.48,0,124.87,0,124.87V232.54H1920V121.29C1688.62,62.56,1376.62,63,1376.62,63Z"/><path class="cls-3" d="M850.78,70S824.84,84.64,797.9,89.66s-73,7.82-95.43,8.94-38.62-2-76,.4-32.86,1.15-58.4,2.34-24.43.86-40.15,1-125.72,3.93-147,6.25-15.06,1.53-44.29,3.33-15.36,2.4-52,3.19-60.45,5.19-78.9,5-21.81-1.92-40.89-1.34-15.72-1.14-28.63,0S98.05,117,98.05,117,369.1,92.32,383.69,91.81,850.78,70,850.78,70Z"/><polygon class="cls-4" points="1203.32 100.45 1204.99 99.17 1210.07 98.18 1212.58 99.32 1203.32 100.45"/><polygon class="cls-5" points="1150.11 153.29 1153.02 151.66 1161.87 150.39 1166.25 151.84 1150.11 153.29"/><polygon class="cls-4" points="1219.35 158.57 1226.33 159.88 1229.15 157.72 1219.35 158.57"/><polygon class="cls-4" points="1173.96 97.53 1180.51 97.53 1182.59 99.32 1170.58 98.42 1173.96 97.53"/><polygon class="cls-4" points="1284.57 104.94 1288.69 105.64 1290.66 104.94 1286.15 104.02 1284.57 104.94"/><polygon class="cls-4" points="1293.55 104.02 1298.4 104.45 1299.55 103.29 1295.13 103.15 1293.55 104.02"/><polygon class="cls-4" points="1431.5 104.51 1455.43 106.11 1447.85 109.67 1431.5 107.09 1431.5 104.51"/><polygon class="cls-5" points="1508.33 167.67 1532.26 169.28 1524.68 172.83 1508.33 170.25 1508.33 167.67"/><polygon class="cls-4" points="1457.4 109.36 1459.07 108.08 1464.15 107.09 1466.67 108.23 1457.4 109.36"/><polygon class="cls-4" points="1783.82 99.26 1785.49 97.98 1790.57 96.99 1793.08 98.12 1783.82 99.26"/><polygon class="cls-4" points="1497.13 113.49 1501.13 114.52 1502.75 112.82 1497.13 113.49"/><polygon class="cls-4" points="1395.88 95.84 1399.64 95.84 1400.83 97.23 1393.94 96.53 1395.88 95.84"/><polygon class="cls-4" points="1401.75 93.9 1402.45 93.54 1406.24 93.29 1407.75 93.9 1401.75 93.9"/><polygon class="cls-4" points="1410.05 93.9 1410.9 93.54 1412.08 93.72 1410.05 93.9"/><polygon class="cls-6" points="1376.89 140.51 1372.1 139.77 1367.56 142.06 1370.19 142.06 1379.1 141.4 1376.89 140.51"/><polygon class="cls-6" points="1376.89 142.44 1380.55 142.06 1383.82 142.44 1382.01 143.28 1375.53 143.28 1376.89 142.44"/><polygon class="cls-4" points="1340.81 112.1 1350.23 112.1 1352.63 109.1 1341.31 109.88 1340.81 112.1"/><polygon class="cls-4" points="1425.51 111.18 1417.58 113.67 1418.67 111.98 1422.45 110.53 1425.51 111.18"/><polygon class="cls-5" points="1685.46 145.89 1727.17 147.95 1713.95 152.49 1685.46 149.19 1685.46 145.89"/><polygon class="cls-5" points="1730.61 152.1 1733.51 150.46 1742.37 149.19 1746.75 150.65 1730.61 152.1"/><polygon class="cls-4" points="1623.36 134.81 1629.92 134.81 1631.99 136.59 1619.98 135.7 1623.36 134.81"/><polygon class="cls-4" points="1754.45 96.34 1761.01 96.34 1763.09 98.12 1751.08 97.23 1754.45 96.34"/><polygon class="cls-5" points="1491.23 155.63 1497.78 155.63 1499.86 157.41 1487.85 156.52 1491.23 155.63"/><polygon class="cls-4" points="1633.61 132.34 1634.82 131.87 1641.42 131.56 1644.06 132.34 1633.61 132.34"/><polygon class="cls-4" points="1648.06 132.34 1649.55 131.87 1651.61 132.1 1648.06 132.34"/><polygon class="cls-5" points="1675.02 154.42 1661.18 157.6 1663.09 155.44 1669.68 153.59 1675.02 154.42"/><polygon class="cls-3" points="1430.63 135.31 1217.93 136.03 1166.25 126.13 1380.2 126.13 1430.63 135.31"/><polygon class="cls-7" points="1296.62 109.57 1287.8 3.79 1292.28 0 1430.29 0.6 1446.48 108.62 1440.32 110.6 1296.62 109.57"/><polygon class="cls-8" points="1277.68 7.72 1292.77 0 1301.46 106.78 1297.49 109.16 1283.23 107.58 1277.68 7.72"/><polygon class="cls-9" points="1307.97 98.07 1300.11 5.34 1426.68 6.72 1437.64 99.61 1307.97 98.07"/><polygon class="cls-10" points="1426.68 6.72 1425.26 6.68 1436.32 99.61 1437.64 99.61 1426.68 6.72"/><polygon class="cls-8" points="1280.64 14.7 1275.12 29.41 1278.95 102.08 1286.4 104.28 1280.64 14.7"/><polygon class="cls-8" points="1446.48 108.62 1300.12 106.31 1296.62 109.57 1440.32 110.6 1446.48 108.62"/><polygon class="cls-9" points="1321.78 0.58 1324.4 4.55 1426.87 5.98 1431.56 36.25 1434.42 36.25 1429.42 1.38 1321.78 0.58"/><polygon class="cls-8" points="1337.44 109.93 1328.62 127.3 1385.87 125.81 1384.92 109.95 1337.44 109.93"/><polygon class="cls-11" points="1430.63 135.31 1418.64 122.51 1347.16 120.52 1343.01 135.31 1430.63 135.31"/><polygon class="cls-8" points="1347.16 120.52 1324.92 124.22 1322.06 131.35 1343.01 135.31 1347.16 120.52"/><polygon class="cls-12" points="1379.49 6.28 1338.8 98.38 1375.82 98.38 1415.85 6.52 1379.49 6.28"/><path class="cls-12" d="M1309,9.38a5.42,5.42,0,0,0,1.38,5.47,8.55,8.55,0,0,0,4.37,1.71,41.44,41.44,0,0,1,14,5.76c.46.88-.28,2-1,2.49s-1.61.93-1.72,2a3.27,3.27,0,0,0,.2,1.28c1,3.16,3.14,5.58,5.57,6.31-.79,2.12-1.45,5.13-.07,6.55a3,3,0,0,0,1.9.74c6.34.79,12.77,1.59,19-.13a2,2,0,0,0,1.58-1.22,3.85,3.85,0,0,0-.07-2.07,29.21,29.21,0,0,0-4-9.41,4.13,4.13,0,0,1-.82-1.77,3.53,3.53,0,0,1,1.79-3.13,52.28,52.28,0,0,1,8.24-4.83,23.76,23.76,0,0,1-2-4.4,2.47,2.47,0,0,1-.17-1.44,1.81,1.81,0,0,1,.58-.83l2.32-2.21c-1.09-1.67-2.88-1.94-4.5-2.1a92.36,92.36,0,0,0-13-.7c-9,.37-17.85,3.37-26.82,2.92C1313.79,10.28,1310.92,8.67,1309,9.38Z"/><path class="cls-12" d="M1405.55,79.81a6,6,0,0,0-.11-1.9,6.62,6.62,0,0,0-1.28-2.09,15.66,15.66,0,0,1-3-8.1c.64,0,.81-1,.84-1.7a12.54,12.54,0,0,1,5.13-9.62,6.36,6.36,0,0,1,4.46-1.27,8.15,8.15,0,0,1,3.19,1.48,37,37,0,0,1,8.6,8.12c2.28-.91,4.85.29,6.67,2.08a9.35,9.35,0,0,1,3,6.94c-.15,2.66-2.22,5.22-4.61,5a7.7,7.7,0,0,0,.18,5.08,5.41,5.41,0,0,1,.56,1.82,3.32,3.32,0,0,1-1.83,2.66,12.86,12.86,0,0,1-16.62-2.85c-.44,1.7,1,4-.25,5.06a2.23,2.23,0,0,1-1.32.42,18.86,18.86,0,0,1-6.34-.62c-.38-2,1-2.52,1.7-4C1405.56,84.32,1405.43,82.14,1405.55,79.81Z"/><path class="cls-12" d="M1393.66,77.43c-.18-1.36,1.49-3.42,2.4-4.09.16.24.52.1.78,0a4.91,4.91,0,0,1,4.49-.07,3,3,0,0,1,1.48,1.43,3.71,3.71,0,0,1,.24,1.52,16.15,16.15,0,0,1-.78,5,3.12,3.12,0,0,1,.84,3,3.61,3.61,0,0,1-1.68,2.6c-.76.4-3.94-.84-3.83-1.3a1.61,1.61,0,0,1-1.93,1.15,1,1,0,0,1-.78-.87c0-.52.57-.83,1-1.13s.78-1,.37-1.3a5.12,5.12,0,0,1-3.08-.36,1.93,1.93,0,0,1-.81-2.67c.87-.59,2.48.65,2.93-.3.2-.41-.1-.89-.46-1.18a3.73,3.73,0,0,1-1-.9A1.19,1.19,0,0,1,1393.66,77.43Z"/><path class="cls-12" d="M1340.45,50.92c-.42.76-2.83,1.73-3.94,2,0-.14-.43-.1-.72,0a6.81,6.81,0,0,1-4.12-.36c-.44-.22-.75-.53-.73-.91a1.79,1.79,0,0,1,.44-.85,13.66,13.66,0,0,1,2.86-2.65c-.48-.45-.12-1.14.52-1.7a5.49,5.49,0,0,1,2.65-1.28c.86-.15,3.21.81,2.92,1a2.9,2.9,0,0,1,2.25-.46c.32.09.52.31.34.54a3,3,0,0,1-1.4.53c-.52.13-1.13.46-.91.68a6.07,6.07,0,0,1,2.66.47c.61.36.53,1.13-.42,1.53-1,.24-2-.58-2.79-.1a.39.39,0,0,0-.09.69c.2.19.51.35.54.58A.4.4,0,0,1,1340.45,50.92Z"/><path class="cls-12" d="M1425.24,36.86a6.78,6.78,0,0,1,.54,2.29,2.3,2.3,0,0,1-1,2,3.36,3.36,0,0,1-1.78.28c-2.37,0-5.12-.3-6.44-2.27a5.67,5.67,0,0,1-.63-4.07,3,3,0,0,1,1-2c.93-.67,2.22-.23,3.27.23a13.41,13.41,0,0,1,3.15,1.73,4.62,4.62,0,0,1,1.79,3"/><path class="cls-12" d="M1331.72,42.41a6.79,6.79,0,0,1,.55,2.29,2.29,2.29,0,0,1-1,2,3.43,3.43,0,0,1-1.77.28c-2.38-.05-5.13-.3-6.45-2.27a5.72,5.72,0,0,1-.62-4.07,2.94,2.94,0,0,1,1-2c.93-.67,2.22-.23,3.27.23a13.22,13.22,0,0,1,3.15,1.73,4.55,4.55,0,0,1,1.79,3"/><circle class="cls-13" cx="1362.88" cy="2.57" r="1.19"/><circle class="cls-13" cx="1373.18" cy="103.22" r="2.77"/><polygon class="cls-14" points="1292.77 0 1413.99 12.48 1446.48 108.62 1429.42 1.38 1292.77 0"/><path class="cls-3" d="M1742.31,105.91s-11.85-.62-25.17-1.08-24.31-1.71-24.31-1.71-12.23,3.41-38.1,5.54-16.7,1.31-31.85,1.22-11.18-.28-27.28,1.92-35.69,4.11-35.69,4.11-1.86,0-14.52,1.28-5-1.92-16.53,0-13.18,5.34-21.64,3.63-60.55,2.83-60.55,2.83l19.85,11.49s10,9,13.44,9,75.56,4.14,75.56,4.14l30.08-7.52,27.18-10.88s25.93-2.3,33.5-2,15.06-5.44,27.33-5.15,45.89-1.85,45.89-1.85l47.72-14.91Z"/><polygon class="cls-15" points="1608.69 31 1579.92 44.01 1572.19 59.51 1583.81 96.86 1578.64 120.72 1612.78 129.85 1607.29 54.27 1608.69 31"/><polygon class="cls-16" points="1579.92 44.01 1548.45 34.11 1658.21 21.15 1673.45 33.78 1703.33 38.76 1603.29 43.02 1600.41 46.23 1591.28 43.74 1587.21 49.17 1579.92 44.01"/><polygon class="cls-17" points="1591.28 43.74 1600.41 46.23 1603.29 43.02 1609.02 42.77 1610.45 31.69 1701.51 38.45 1673.45 33.78 1660.9 23.38 1660.17 32.12 1608.69 31 1606.22 36.23 1590.45 35.44 1589.27 39.06 1548.45 34.11 1579.92 44.01 1587.21 49.17 1591.28 43.74"/><polygon class="cls-18" points="1548.45 34.11 1658.21 21.15 1671.79 34.61 1703.23 38.58 1722.11 69.38 1703.88 37.87 1673.1 33.84 1658.51 19.67 1548.45 34.11"/><polygon class="cls-16" points="1612.78 129.85 1611.33 109.88 1609.54 105.99 1610.73 101.68 1606.22 96.03 1608.71 91.88 1606.22 78.6 1607.29 54.27 1608.69 31 1703.23 38.58 1697.04 66.3 1698.03 81.42 1695.86 88.56 1695.86 93.54 1699.18 101.01 1697.52 102.67 1699.6 105.53 1700.01 111.8 1612.78 129.85"/><polygon class="cls-19" points="1651.24 101.01 1648.55 68.64 1692.05 77.97 1687.56 107.65 1651.24 101.01"/><polygon class="cls-19" points="1642.74 94.37 1641.91 76.11 1617.84 73.62 1618.87 87.52 1642.74 94.37"/><polygon class="cls-20" points="1697.52 102.67 1699.18 101.01 1695.86 93.54 1695.86 88.56 1698.03 81.42 1697.04 66.3 1698.03 63.43 1697.84 63.41 1703.96 41.22 1623.8 34.21 1608.69 31 1607.29 54.27 1655.43 60.72 1692.05 77.97 1685.53 94.37 1692.05 99.35 1687.23 104.83 1670.3 106.76 1642.74 123.65 1700.01 111.8 1699.6 105.53 1697.52 102.67"/><polygon class="cls-21" points="1703.23 38.58 1722.11 69.38 1651.87 52.04 1620.65 57.71 1608.69 31 1703.23 38.58"/><polygon class="cls-15" points="1548.45 34.11 1547.46 36.32 1579.85 46.11 1579.92 44.01 1548.45 34.11"/><polygon class="cls-15" points="1722.11 69.38 1719.95 70.28 1651.87 53.7 1620.39 58.9 1608.06 34.43 1608.69 31 1620.62 57 1651.87 51.21 1722.11 69.38"/><polygon class="cls-22" points="1608.69 31 1653.53 52.04 1620.65 57.71 1608.69 31"/><polygon class="cls-20" points="1606.22 78.6 1585.47 81.92 1575.03 68.64 1583.81 96.86 1581.15 109.16 1611.33 109.88 1609.54 105.99 1610.73 101.68 1606.22 96.03 1608.71 91.88 1606.22 78.6"/><polygon class="cls-20" points="1606.22 78.6 1622.82 80.26 1648.55 90.22 1621.86 88.61 1608.71 91.88 1606.22 78.6"/><polygon class="cls-20" points="1698.03 81.42 1689.22 86.9 1669.3 96.03 1648.55 94.78 1671.79 99.35 1695.86 93.54 1695.86 88.56 1690.83 90.39 1698.03 81.42"/><polygon class="cls-20" points="1699.18 101.01 1680.61 101.01 1654.72 108.66 1681.75 102.67 1697.52 102.67 1699.18 101.01"/><polygon class="cls-20" points="1610.73 101.68 1639.42 104.33 1609.54 105.99 1610.73 101.68"/><polygon class="cls-20" points="1606.22 96.03 1618.96 94.37 1633.61 98.52 1614.93 99.35 1610.73 101.68 1606.22 96.03"/><polygon class="cls-20" points="1632.78 96.03 1642.74 103.83 1655.63 99.93 1666.62 101.68 1655.63 98.02 1642.74 98.02 1629.58 92.58 1626.14 92.58 1632.78 96.03"/><polygon class="cls-20" points="1578.64 120.72 1598.75 115.95 1612.39 124.46 1631.11 121.33 1653.53 114.9 1700.01 111.8 1612.78 129.85 1578.64 120.72"/><polygon class="cls-20" points="1579.92 44.01 1585.47 53.7 1587.52 73.62 1589.62 52.04 1591.28 43.74 1587.21 49.17 1579.92 44.01"/><polygon class="cls-20" points="1595.6 44.92 1599.58 75.28 1602.07 47.06 1603.29 43.02 1600.41 46.23 1595.6 44.92"/><path class="cls-3" d="M1689.81,172l-44.25,4c-15.14,1.36-34,1.44-53.3.23h0L1581,177.27h0l-1.25.12c.81.33,1.25.54,1.25.54l-10.4,1a38.05,38.05,0,0,1-4.68-.73l-8.64.6s-6-1-8-2.16l0,0h0c-.43-.26-.68-.53-.61-.8l6.19-.41,2.17-.16c-1.44-.76-1.23-1.08-1.23-1.08l11.58-.66,1.93.45,2.36-.15,2.52-.22,8.57-.52h0l.3-.16.2-.1c5.73-3,17.22-5.14,32.63-6.14h0l48-3.08,5.37,1.73h0l7.53,2.44Z"/><path class="cls-23" d="M1679.68,83.67s8.79,3,15.7,2.25A20.66,20.66,0,0,0,1679.68,83.67Z"/><path class="cls-24" d="M1660.44,169.21l3.84-38.67a58.35,58.35,0,0,1,16.43-35.1h0l1-15.25,6.6,1-12.94,90.16Z"/><path class="cls-25" d="M1690.33,173.49l7.31-38.87a56.35,56.35,0,0,0-5.7-37l-.33-.61,2.71-15-6-.86-12.94,90.16Z"/><path class="cls-26" d="M1672.74,160.61h0c4.86.7,9.22-1.69,9.74-5.34l3.52-24.5c.47-3.31-2.39-6.62-6.72-7.64a20.56,20.56,0,0,0-2.65-.46c-4.72-.52-8.89,2.06-9.25,5.61l-2.5,24.67C1664.51,156.54,1668,159.93,1672.74,160.61Z"/><path class="cls-27" d="M1687.58,96.42l2.53-8.67a24.79,24.79,0,0,0-8.72-2.42l0-.12c.28-.86-.45-3.09.46-3.06,1.77,0,8.11-.08,11.62.83,1,.25-.07,3.2-.18,4.21l-.32,3-1.4,6.86.33.61a56.33,56.33,0,0,1,5.7,37l-7.31,38.87-6.2-.89,6.62-40.14A72.63,72.63,0,0,0,1687.58,96.42Z"/><polygon class="cls-28" points="1651.65 176 1663.52 165.53 1719.5 173.06 1651.65 176"/><path class="cls-29" d="M1682.8,78.55,1684.91,66s6.63-2.1,10.46,2L1693.17,80S1689.28,77.11,1682.8,78.55Z"/><path class="cls-30" d="M1694.46,73a10.45,10.45,0,0,0-8.42-2.48l.83-4.15s.88-.89,6.25,0a13.81,13.81,0,0,0-8.21-.33l-1.44,8.66,10.43,1.76Z"/><path class="cls-31" d="M1679.68,83.67a32.51,32.51,0,0,1,15.7,2.25l2-9.16s-7.93-5.47-17.07-2.45Z"/><path class="cls-32" d="M1696,76.34s-12.73-1.94-16.32,7.33l.63-9.36A18.75,18.75,0,0,1,1696,76.34Z"/><path class="cls-32" d="M1683.63,87.6v11s-9.29,10.77-9.25,31.2a241.52,241.52,0,0,1-2.48,35.76l-9.1,1.27s-1.84-54.64,18.59-70.06l.5-10.44Z"/><path class="cls-33" d="M1697.38,76.76s-1.72-2.14-8.19-3.36-8.88.91-8.88.91A26.25,26.25,0,0,1,1697.38,76.76Z"/><polygon class="cls-34" points="1589.75 139.69 1584.91 106.57 1556.06 105.92 1555.52 148.25 1589.75 139.69"/><polygon class="cls-35" points="1540.19 140.96 1555.52 148.25 1556.06 105.92 1536.9 107.72 1540.19 140.96"/><polygon class="cls-35" points="1535.1 107.89 1534.3 101.06 1553.78 98.34 1554.95 106.02 1535.1 107.89"/><polygon class="cls-34" points="1553.78 98.34 1554.95 106.02 1588.11 106.79 1588.54 96.96 1553.78 98.34"/><polygon class="cls-35" points="1584.95 106.99 1584.82 108.02 1556.21 107.57 1554.95 106.02 1584.95 106.99"/><path class="cls-36" d="M179.17,124.55c-20.64,8-10.74,17.28.89,9.51C186.1,126.22,177.68,128.33,179.17,124.55Z"/><path class="cls-37" d="M195.23,133.85c8-4.15,13.87,1.36,3.67,4.77C197.67,137.11,192.42,136.29,195.23,133.85Z"/><path class="cls-38" d="M223.28,108.62c-5.18.55,3.35,3.8,1.93.85C224.78,108.64,221.81,108.87,223.28,108.62Z"/><path class="cls-39" d="M233.31,124.49c-.11-1.86,2.92,2.56,0,2.32C230.37,128.07,231.16,123.58,233.31,124.49Z"/><path class="cls-40" d="M297.24,136.7c-8.29,6.24,11.66,9,7.06.58C302.85,134.72,295.42,135.39,297.24,136.7Z"/><path class="cls-41" d="M309.37,141.09c-1.91-1.3,2.32-4.18,3-1.21C314.7,143.12,306.41,141.13,309.37,141.09Z"/><path class="cls-42" d="M328,130.12c.63-1.88,2.82-.74,2.39.9C330.15,132.76,325.59,130.91,328,130.12Z"/><path class="cls-43" d="M377.13,140.43c-7.78,1,3.65,4.55,3.75,1.24A4.11,4.11,0,0,0,377.13,140.43Z"/><path class="cls-44" d="M308.74,135.2c-2.84.77,2.09,1.33,3,.83C312.93,135.1,308.32,133.48,308.74,135.2Z"/><path class="cls-45" d="M319,143.06c1.68-1.17,8.38-2.1,5.38,1.47C323,146.91,316.08,144.38,319,143.06Z"/><path class="cls-46" d="M335.16,145.4c.6-1.17,3.64-.56,2.79,1.12C337.13,148,334.59,146.34,335.16,145.4Z"/><path class="cls-47" d="M565.6,91.82c-6.9-.59-.54,5.29,2.37,2.43C568.65,92.11,565.84,92.71,565.6,91.82Z"/><path class="cls-48" d="M580.39,110c8.66-1.25,1.77,6-3.81,2.53C570.41,111,584.36,108.35,580.39,110Z"/><path class="cls-49" d="M607.64,113.47c-2.67-.82,1.75,1.48,2.81.15C611.44,112.68,605.48,111.57,607.64,113.47Z"/><path class="cls-50" d="M507.63,120.27c-1.05.22-5.12,1.09-4.22,2.13C506,124.31,513.09,121.65,507.63,120.27Z"/><path class="cls-51" d="M481.8,127.6c-9.05,2,5.82,2.28,1.44-1.09C482,126.48,478.8,128.07,481.8,127.6Z"/><path class="cls-52" d="M539.39,128.44c-3-7.08,9.83-4.72,4.58.77C543.11,130,538.7,130.18,539.39,128.44Z"/><path class="cls-53" d="M596.56,103c2.6-7.23,6.19,7.85-1.84,2.23C593.68,103.46,598.46,100.33,596.56,103Z"/><path class="cls-54" d="M620.37,103c-2,.57,2.73,2.24,3.77.64C625.51,101.73,618.8,100.33,620.37,103Z"/><path class="cls-55" d="M279.19,107.21C254.25,26.76,498.33,41.93,552.28,41.36c54.83,19.81,1.18,15.22,38,28.7,2.19-12.57,88.52-25.78,98-29l61.64,13.78c39.69,7.57,106,13.78,100.87,15.14C780.44,88.75,270.32,92.31,279.19,107.21Z"/><path class="cls-55" d="M232.77,110.07C222.2,92.86,266.4,87.36,277.1,87.14l2.09,20.07Z"/><path class="cls-56" d="M641.67,56C623.08,36.7,709,30.54,713.44,24.6l-9.07,24.85Z"/><path class="cls-57" d="M685.36,68.89C703,66.62,737.58,60.3,752,75.19,741.85,71.79,587.3,92.38,685.36,68.89Z"/><path class="cls-58" d="M351.71,56.39c-60.35-10.31-53.95-3.32-8.55-38.95l72.59,27.84Z"/><path class="cls-57" d="M333.37,60.31c-5.54.1-31.55-3.06-35.71,1.7C301.5,61.17,333.15,68.12,333.37,60.31Z"/><path class="cls-57" d="M493,43.48C480.31,28,549.58,27.15,553.1,22.92,530,49.78,526.32,46.81,493,43.48Z"/><path class="cls-59" d="M429.9,73.78c30.54-5.51,83.47-18.81,111.41,2.79C526.16,74.85,434,100.82,429.9,73.78Z"/><path class="cls-60" d="M531.71,49.83c16.75-3.43,42.14-17.08,56.46-.24C585.72,47.08,524.73,63,531.71,49.83Z"/><path class="cls-60" d="M392.43,52c15.7-14.18,28.15-33.48,52.87-27.43C430.11,38.72,415.55,54.13,392.43,52Z"/><path class="cls-61" d="M300.74,98c6.87-2.33,15.67-5.19,20.79,2C319.75,98.8,297.23,104.9,300.74,98Z"/><path class="cls-61" d="M366.46,91.94c2.16.61,5,1.76,5.9-1.24Z"/><path class="cls-61" d="M285.59,99.64a19.64,19.64,0,0,1,7.36-.47C292.6,100.31,281.25,102.08,285.59,99.64Z"/><path class="cls-61" d="M325.36,111.66a19.59,19.59,0,0,1,7.35-.46C332.36,112.33,321,114.1,325.36,111.66Z"/><path class="cls-6" d="M479,131.26a19.6,19.6,0,0,1,7.35-.47C486,131.93,474.62,133.7,479,131.26Z"/><path class="cls-62" d="M205.7,112.54l25.5.48C227.51,118.47,206,120.27,205.7,112.54Z"/><path class="cls-61" d="M271.42,106.51c2.16.61,5.05,1.76,5.91-1.24Z"/><path class="cls-61" d="M190.56,114.21a19.59,19.59,0,0,1,7.35-.47C197.56,114.88,186.21,116.65,190.56,114.21Z"/><path class="cls-61" d="M230.32,126.23a19.6,19.6,0,0,1,7.35-.46C237.33,126.9,226,128.67,230.32,126.23Z"/><path class="cls-61" d="M169.68,130.39a19.59,19.59,0,0,1,7.35-.46C176.68,131.06,165.33,132.83,169.68,130.39Z"/><path class="cls-3" d="M234,128.5H222.86L234,137.84s11.69-3.88,12.45-3.46,15.4,5,15.4,5S289.14,131,288.12,131s-47.23-2.48-47.23-2.48Z"/><polygon class="cls-63" points="242.55 103.2 259.44 107.82 262.86 105.69 266.59 106 268.94 118.2 278.37 121.1 279.1 131.51 254.79 134.38 249.63 128.52 237.11 133.97 228.51 128.07 238.31 120.13 234.19 118.25 242.55 103.2 242.55 103.2"/><polygon class="cls-64" points="267.32 107.59 266.59 106 262.86 105.69 259.44 107.82 242.55 103.2 234.19 118.25 238.31 120.13 235.78 122.18 228.51 128.07 236.39 133.31 239.43 127.38 245.8 123.96 243.85 117.47 261.02 111.02 262.33 109.69 267.37 107.75 267.32 107.59 267.32 107.59"/><path class="cls-63" d="M243.77,123.08l-5.46-3L235,122.79C235.2,122.64,243.77,123.08,243.77,123.08Z"/><path class="cls-63" d="M261.88,111.2s-12.88-2-12.38-1.66,9.4,4.42,9.4,4.42Z"/><path class="cls-64" d="M278.37,121.1c-.61-.19-15.82,4.14-15.82,4.14s-5.78,7.12-5.76,7.16,3.32-8.16,3.32-8.16,9.9-3.26,9.41-3.15a16.88,16.88,0,0,1-3.54,0,35.64,35.64,0,0,0,2.95-2.88Z"/><path class="cls-3" d="M611.21,114.24H596.73l14.48,12.09s15.43-2.09,16.42-1.55,19.68,3.52,19.68,3.52,35.32-10.86,34-10.86-61.22-3.2-61.22-3.2Z"/><polygon class="cls-63" points="677.56 65.28 664.5 61.78 651.55 73.85 642.72 68.93 614.25 82.94 617.4 90.18 611.41 100.95 616.75 103.38 604.05 113.67 615.2 121.33 631.42 114.26 638.11 121.85 669.62 118.13 668.67 104.64 661.5 102.44 671.14 101.73 674.86 79.73 669.02 79.22 677.56 65.28"/><polygon class="cls-64" points="668.67 104.64 644.84 110.09 644.84 112.61 642.35 110.09 655.51 104.64 652.5 103.38 662.42 102.37 668.67 104.64"/><path class="cls-64" d="M674.86,79.73c-1.6,1.3-18.29,9.54-17.62,9.93S669,79.22,669,79.22Z"/><polygon class="cls-64" points="654.36 87.13 653.41 85.06 648.57 84.67 644.14 87.43 622.25 81.45 611.41 100.95 616.75 103.38 604.05 113.67 614.27 120.46 618.2 112.78 620.83 111.37 621.51 108.68 626.47 108.35 623.93 99.94 646.19 91.58 647.89 89.85 654.41 87.34 654.36 87.13 654.36 87.13"/><path class="cls-63" d="M626.47,108.35s-10.64-3.58-10.06-3,7,7.33,7,7.33l-1.54-3.27,5.72.73Z"/><polygon class="cls-64" points="638.18 83.69 630.96 75.8 614.78 82.99 622.09 89.66 629.89 84.54 638.18 83.69 638.18 83.69"/></g></g></g></svg>