<?xml version="1.0" encoding="utf-8"?>
<!-- Generator: Adobe Illustrator 24.0.2, SVG Export Plug-In . SVG Version: 6.00 Build 0)  -->
<svg version="1.1" xmlns="http://www.w3.org/2000/svg" xmlns:xlink="http://www.w3.org/1999/xlink" x="0px" y="0px"
	 viewBox="0 0 1982.6 2048" enable-background="new 0 0 1982.6 2048" xml:space="preserve">
<g id="Layer_1">
	<g id="Layer_23">
	</g>
</g>
<g id="Layer_22">
</g>
<g id="Layer_21">
</g>
<g id="Layer_20">
</g>
<g id="Layer_19">
</g>
<g id="Layer_18">
</g>
<g id="Layer_17">
</g>
<g id="Layer_16">
</g>
<g id="Layer_15">
</g>
<g id="Layer_14">
</g>
<g id="Layer_13">
	<g>
		<path fill="#3737B7" d="M733.5,1597.6l-6,123.7c-0.2,4.4-2.9,8.2-7,9.8c-16.8,6.6-59.7,26.5-59.2,58.4
			c0.7,44.8,116.3,27.2,141.7,12.7c21.9-12.4,16.8-99.9,20.1-165.9c3.9-77.1-3.2-91.8-46.8-92.8
			C726.5,1542.4,733.5,1597.6,733.5,1597.6z"/>
		<path fill="#3737B7" d="M934,1596.6l-2.1,175c-0.1,4.5-1.6,8.8-4.5,12.2c-12.1,14.5-44.1,57.1-31.7,88.6
			c16.7,42.2,81.5,6.9,106.3-20.2c24.8-27.2,25.7-22.6,29-85.4c3.3-62.8,4.7-148.6,4.7-148.6s7.3-52.2-55.5-52.2
			C931.7,1565.9,934,1596.6,934,1596.6z"/>
		<path fill="#3737B7" d="M389.6,1004.1c0,0,65.7,3.4,51.6,106.1c0,0-119.2,90.3-95.4,185.8c0,0,25.3,12.8,20.4,41.5
			c-4.9,28.7,10.7,66.2-45.7,66.9c-56.5,0.7-103.7-93.7-55.5-209.5S362.8,1018.2,389.6,1004.1z"/>
		<path fill="#736CFF" d="M1672,1262c18.9-276.1-27.7-656.3-143.5-774.6c0,0-226.1-196-720.6-200.4c-13.7-0.1-27.3,1.9-40.4,5.9
			c-81.7,25-373.3,135.4-410.9,443.7c-23.9,196.1-9.5,382.3,8.5,510.9l4.5,1.8l3.2,23.3l-3.9,1.4c13.9,91.5,28.5,147.8,28.5,147.8
			s20.7,148.2,371.8,212.2c0,0,293,66.2,420.5,44.8s435.4-56,472.7-323.7c2.7-19.7,5.1-40.3,7-61.6l-2.4-1l1.9-28.7L1672,1262z"/>
		<path fill="#4848ED" d="M1662.6,1355c2.8-20,5-39.9,7-61.6c0,0-2.5,0.2-2.4-1c0.8-8.9,1.3-19.6,1.9-28.7l3-1.7
			c18-273.7-27.7-651.3-141-771.9c-58.3,35.8-226.2,136.2-340.9,176.2c-5.1,1.8-10.1,3.4-14.9,5c0,0-10.2,10.2,0,51.1
			c10.2,40.9,17.5,873.8,14.6,956.3C1317.4,1657.3,1625.2,1622.7,1662.6,1355z"/>
		<path fill="#3D3DD1" d="M1669.1,1263.7L1669.1,1263.7c-145,87.7-428.5,157.2-473.8,165.8c-36.3,6.9-149.7-10.8-418.5-65.1
			c-222.5-45-379-104.1-407.1-115.1l3.2,23.3l-3.9,1.4c1.6,0.7,155,65.5,402.7,115.5c234.9,47.5,351,66.9,405.3,66.9
			c9.5,0,17.1-0.6,23.1-1.7c46-8.7,321.3-71.7,469.5-161.3l-2.4-1L1669.1,1263.7z"/>
		<path fill="#8D8DFF" d="M1177,1456.4c9.5,0,17.1-0.6,23.1-1.7c46-8.7,321.3-71.7,469.5-161.3l-2.4-1
			c-156.3,95.2-476.8,158.5-476.8,158.5c-77.5,0.5-314.7-43.3-462.8-75.4c-207.2-44.8-354.6-102.9-354.6-102.9l-3.9,1.4
			c1.6,0.7,155,65.5,402.7,115.5C1006.5,1437,1122.7,1456.4,1177,1456.4z"/>
		<g>
			<path fill="#4848ED" d="M1124.1,678.3c-2.2,0-4.3-0.5-6.4-1.7c-2.8-1.6-279.5-157.5-611.5-126.8c-7.1,0.6-13.3-4.5-13.9-11.6
				c-0.7-7,4.5-13.3,11.6-13.9c340.3-31.4,623.8,128.5,626.6,130.1c6.1,3.5,8.3,11.3,4.7,17.5C1132.9,676,1128.6,678.3,1124.1,678.3
				z"/>
		</g>
		<ellipse fill="#4848ED" cx="969.6" cy="406.4" rx="65.9" ry="33.5"/>
		<path fill="#121266" d="M969.6,439.9c26.8,0,49.8-8.2,60.1-19.9c-1.4-9.4-11.8-23-60.1-25.5c0,0-44.8-2.2-60.8,24.7
			C918.7,431.4,942.2,439.9,969.6,439.9z"/>
		<path fill="#4848ED" d="M442.3,907.8c0,0-15.1-202.5,96.4-218c111.4-15.6,343.6,44.8,343.6,44.8s182.8,35.5,186.7,181.5
			c3.9,146,37.7,343.1-109.8,348c0,0-85.7,2.4-242.4-43.8s-263-78.8-266.4-184.4L442.3,907.8z"/>
		<path fill="#D2F1FC" d="M1069,916.1c-3.9-146-186.7-181.5-186.7-181.5S667.6,678.8,552,688.3c-17,31.8-39.6,100.2-44,242.1v71.5
			c0,0-5.8,96.4,104.4,132.9c0,0,133.2,46.4,237.3,68.6c88.6,19,170.8,10.8,214-25.4C1083.9,1106.3,1071.3,1002.3,1069,916.1z"/>
		<path fill="#F6F5FD" d="M960.2,1212.7c0,0,14.6,0.7,55.2-9.6c0,0-27.5-0.7-67.4-3.5c-108.6-7.7-191.6-41.4-324.9-83.2
			c-133.2-41.9-86.1-243.6-71.5-340c8.2-54,43.8-77.2,73.6-87.3c-26.5-2-51.5-2.5-73.2-0.7c-17,31.8-39.6,100.2-44,242.1v71.5
			c0,0-5.8,96.4,104.4,132.9c0,0,133.2,46.4,237.3,68.6C888.7,1211.8,926.5,1214.9,960.2,1212.7z"/>
		<g>
			<polygon fill="#121266" points="815.9,1422.5 1051.6,1469.2 1051.6,1511.8 819.1,1463.3 			"/>
			<polygon fill="#8D8DFF" points="833.2,1452.3 831.6,1426.2 815.9,1422.5 819.1,1463.3 1051.6,1511.8 1051.6,1494.5 			"/>
		</g>
		<path fill="#121266" d="M1264.3,1617.4L1264.3,1617.4c-6.2,0-11.3-5.1-11.3-11.3v-99.3c0-6.2,5.1-11.3,11.3-11.3l0,0
			c6.2,0,11.3,5.1,11.3,11.3v99.3C1275.6,1612.3,1270.5,1617.4,1264.3,1617.4z"/>
		<path fill="#121266" d="M1319.8,1608.3L1319.8,1608.3c-6.2,0-11.3-5.1-11.3-11.3v-99.3c0-6.2,5.1-11.3,11.3-11.3l0,0
			c6.2,0,11.3,5.1,11.3,11.3v99.3C1331.1,1603.2,1326,1608.3,1319.8,1608.3z"/>
		<path fill="#121266" d="M1375.1,1595.8L1375.1,1595.8c-6.2,0-11.3-5.1-11.3-11.3v-99.3c0-6.2,5.1-11.3,11.3-11.3l0,0
			c6.2,0,11.3,5.1,11.3,11.3v99.3C1386.4,1590.8,1381.3,1595.8,1375.1,1595.8z"/>
		<path fill="#121266" d="M1513.5,864.4L1513.5,864.4c-6.2,0.9-11.9-3.4-12.8-9.6l-28.3-194.5c-0.9-6.2,3.4-11.9,9.6-12.8l0,0
			c6.2-0.9,11.9,3.4,12.8,9.6l28.3,194.5C1523.9,857.7,1519.6,863.5,1513.5,864.4z"/>
		<path fill="#121266" d="M1565,834.3L1565,834.3c-6.2,0.9-11.9-3.4-12.8-9.6l-28.3-194.5c-0.9-6.2,3.4-11.9,9.6-12.8l0,0
			c6.2-0.9,11.9,3.4,12.8,9.6l28.3,194.5C1575.4,827.7,1571.1,833.4,1565,834.3z"/>
		
			<ellipse transform="matrix(0.24 -0.9708 0.9708 0.24 -92.9057 2343.5247)" fill="#121266" cx="1450.3" cy="1231.1" rx="110.4" ry="83.7"/>
		<g>
			<g>
				<path fill="#121266" d="M1226.2,1281.5l12.2,10l0,28.2l-12.2,17.4L1226.2,1281.5z M1260.4,1329.5l-31.8,9.5l12-17.3l16.7-5
					l7.8,6.2L1260.4,1329.5z M1261.1,1285.5l6-8.6l6.1,5l0.1,29.1l-6.1,8.7l-6.1-5L1261.1,1285.5z M1277.2,1310.7l16.5-4.9l12.2,10
					l-31.7,9.5l-4.6-3.8L1277.2,1310.7z M1307.8,1257.2l0.4,55.3l-12.2-10l-0.2-28.1L1307.8,1257.2z"/>
				<path fill="#121266" d="M1228.6,1342.2c-1,0-2-0.5-2.6-1.3c-0.2-0.2-0.3-0.5-0.4-0.7c-0.1,0-0.2,0-0.3-0.1
					c-1.3-0.4-2.2-1.7-2.2-3.1l0-55.6c0-1.2,0.7-2.4,1.8-2.9c1.1-0.5,2.5-0.4,3.4,0.4l12.2,10c0.7,0.6,1.2,1.5,1.2,2.5l0,26.6
					l14.7-4.4c0.5-0.2,1.1-0.2,1.6-0.1l-0.1-28.1c0-0.7,0.2-1.3,0.6-1.9l6-8.6c0.5-0.7,1.3-1.2,2.2-1.3c0.9-0.1,1.8,0.1,2.5,0.7
					l6.1,5c0.7,0.6,1.2,1.5,1.2,2.5l0.1,25.7l16.3-4.9c0-0.1,0-0.1,0-0.2l-0.2-28.1c0-0.7,0.2-1.3,0.6-1.9l12-17.1
					c0.8-1.1,2.3-1.6,3.6-1.2c1.3,0.4,2.2,1.6,2.3,3l0.4,55.3c0,1.2-0.7,2.4-1.8,2.9c-0.2,0.1-0.3,0.1-0.5,0.2c0,0.3,0,0.6-0.1,0.9
					c-0.2,1.2-1.1,2.1-2.2,2.4l-31.7,9.5c-1,0.3-2.1,0.1-2.9-0.6l-4.2-3.5c-0.1,0.2-0.2,0.3-0.3,0.5l-4.7,6.5c-0.4,0.6-1,1-1.7,1.2
					l-31.8,9.5C1229.2,1342.2,1228.9,1342.2,1228.6,1342.2z M1242.6,1324.4l-6.2,8.9l22-6.6l2.3-3.2l-4.1-3.3L1242.6,1324.4z
					 M1260.4,1329.5L1260.4,1329.5L1260.4,1329.5z M1229.4,1288.2l0,38.7l5.8-8.2l0-25.7L1229.4,1288.2z M1274,1321l1,0.8l24.3-7.3
					l-6.3-5.1l-13.8,4.1L1274,1321z M1264.4,1313.1l2.3,1.9l3.5-5l-0.1-26.6l-2.3-1.8l-3.5,4.9L1264.4,1313.1z M1299.2,1301l5.8,4.7
					l-0.3-38.4l-5.7,8.1L1299.2,1301z"/>
			</g>
			<g>
				<path fill="#121266" d="M1260.1,1256.1l-33.9,10.1l12.2-17.2l18.6-5.5l7.7,6.2L1260.1,1256.1z M1276.8,1237.7l16.4-4.8l12.1,9.9
					l-31.5,9.3l-4.6-3.7L1276.8,1237.7z M1307.2,1184.9l0.4,54.5l-12.1-9.9l-0.2-27.7L1307.2,1184.9z"/>
				<path fill="#121266" d="M1226.2,1269.4c-1,0-2-0.5-2.6-1.3c-0.8-1.1-0.8-2.6,0-3.7l12.2-17.2c0.4-0.6,1-1,1.7-1.2l18.6-5.5
					c1-0.3,2.1-0.1,2.9,0.6l7.4,5.9c0.1-0.1,0.2-0.3,0.3-0.4l7.5-10.7c0.4-0.6,1-1,1.7-1.2l16.3-4.8c0-0.1,0-0.1,0-0.2l-0.2-27.7
					c0-0.7,0.2-1.3,0.6-1.9l11.9-16.9c0.8-1.1,2.2-1.6,3.6-1.2c1.3,0.4,2.2,1.6,2.2,3l0.4,54.5c0,1.2-0.7,2.4-1.8,2.9
					c-0.2,0.1-0.3,0.1-0.5,0.2c0,0.3,0,0.6-0.1,0.8c-0.2,1.2-1.1,2.1-2.2,2.4l-31.5,9.3c-1,0.3-2.1,0.1-2.9-0.6l-4.2-3.4
					c-0.1,0.2-0.2,0.3-0.3,0.4l-4.6,6.5c-0.4,0.6-1,1-1.7,1.2l-33.9,10.1C1226.8,1269.4,1226.5,1269.4,1226.2,1269.4z
					 M1240.4,1251.8l-6.2,8.7l24-7.1l2.2-3.1l-4-3.2L1240.4,1251.8z M1260.1,1256.1L1260.1,1256.1L1260.1,1256.1z M1273.6,1247.7
					l0.9,0.8l24.1-7.1l-6.1-5l-13.7,4L1273.6,1247.7z M1298.7,1228l5.7,4.6l-0.3-37.7l-5.6,7.9L1298.7,1228z"/>
			</g>
			<g>
				<path fill="#121266" d="M1256.8,1178.6l-18.5,5.4l-12.2-9.8l33.6-9.8l4.6,3.6L1256.8,1178.6z M1273.4,1160.5l33.5-9.8
					l-11.9,16.8l-18.6,5.4l-7.5-6.1L1273.4,1160.5z"/>
				<path fill="#121266" d="M1238.3,1187.3c-0.7,0-1.4-0.2-2-0.7l-12.2-9.8c-0.9-0.8-1.4-2-1.1-3.1c0.2-1.2,1.1-2.1,2.2-2.4
					l33.6-9.8c1-0.3,2.1-0.1,2.9,0.6l4.3,3.4c0.1-0.1,0.2-0.3,0.2-0.4l4.5-6.3c0.4-0.6,1-1,1.7-1.2l33.5-9.8
					c1.3-0.4,2.7,0.1,3.5,1.2c0.8,1.1,0.8,2.6,0,3.7l-11.9,16.8c-0.4,0.6-1,1-1.7,1.2l-18.6,5.4c-1,0.3-2.1,0.1-2.9-0.6l-7.2-5.8
					c-0.1,0.1-0.2,0.3-0.2,0.4l-7.6,10.6c-0.4,0.6-1,1-1.7,1.2l-18.5,5.4C1238.9,1187.2,1238.6,1187.3,1238.3,1187.3z M1233,1175.6
					l6.1,4.9l15.9-4.6l5.2-7.2l-0.9-0.7L1233,1175.6z M1256.8,1178.6L1256.8,1178.6L1256.8,1178.6z M1273.3,1166.2l3.9,3.2l15.9-4.7
					l5.9-8.4l-23.6,6.9L1273.3,1166.2z"/>
			</g>
			<g>
				<path fill="#121266" d="M1266.3,1089.5l6,4.8l0.2,40.4l-6,8.4l-6-4.9l-0.1-40.4L1266.3,1089.5z"/>
				<path fill="#121266" d="M1266.5,1146.3c-0.7,0-1.4-0.3-2-0.7l-6-4.9c-0.8-0.6-1.2-1.5-1.2-2.5l-0.1-40.4c0-0.7,0.2-1.3,0.6-1.9
					l5.9-8.3c0.5-0.7,1.3-1.2,2.2-1.3c0.9-0.1,1.8,0.1,2.4,0.7l6,4.8c0.7,0.6,1.2,1.5,1.2,2.5l0.2,40.4c0,0.7-0.2,1.3-0.6,1.9
					l-6,8.4c-0.5,0.7-1.3,1.2-2.2,1.3C1266.8,1146.2,1266.7,1146.3,1266.5,1146.3z M1263.7,1136.6l2.2,1.8l3.4-4.7l-0.2-37.8
					l-2.2-1.7l-3.3,4.7L1263.7,1136.6z"/>
			</g>
			<g>
				<path fill="#121266" d="M1256.5,1073.2l-16.2,4.7l-11.9-9.6l31-8.9l4.6,3.6L1256.5,1073.2z M1272.9,1055.4l30.9-8.9l-11.8,16.4
					l-16.1,4.6l-7.5-6L1272.9,1055.4z"/>
				<path fill="#121266" d="M1240.3,1081c-0.7,0-1.4-0.2-2-0.7l-11.9-9.6c-0.9-0.8-1.4-2-1.1-3.1c0.2-1.2,1.1-2.1,2.3-2.4l31-8.9
					c1-0.3,2-0.1,2.9,0.6l4.3,3.3c0.1-0.1,0.1-0.2,0.2-0.4l4.4-6.2c0.4-0.6,1-1,1.7-1.2l30.9-8.9c1.3-0.4,2.7,0.1,3.5,1.2
					c0.8,1.1,0.8,2.6,0,3.7l-11.8,16.4c-0.4,0.6-1,1-1.7,1.2l-16.1,4.6c-1,0.3-2.1,0.1-2.9-0.6l-7.1-5.7c-0.1,0.1-0.1,0.2-0.2,0.4
					l-7.5,10.3c-0.4,0.6-1,1-1.7,1.2l-16.2,4.7C1240.9,1081,1240.6,1081,1240.3,1081z M1235.2,1069.6l5.9,4.7l13.5-3.9l5.1-6.9
					l-0.9-0.7L1235.2,1069.6z M1256.5,1073.2L1256.5,1073.2L1256.5,1073.2z M1272.9,1060.9l3.8,3.1l13.4-3.9l5.8-8l-21,6
					L1272.9,1060.9z"/>
			</g>
			<g>
				<path fill="#121266" d="M1226.1,995.6l11.8,9.5l0,24.4l-11.9,16.4L1226.1,995.6z M1259.4,1038.9l-31,8.9l11.7-16.4l16.2-4.6
					l7.6,5.9L1259.4,1038.9z M1256.2,997.5l-16.1,4.6l-11.7-9.6l30.7-8.7l4.5,3.5L1256.2,997.5z M1272.5,980l30.6-8.7l-11.7,16.2
					l-15.9,4.5l-7.4-5.9L1272.5,980z M1275.7,1021.2l16.1-4.6l11.9,9.5l-30.9,8.9l-4.5-3.6L1275.7,1021.2z M1305.5,973l0.4,50
					l-11.9-9.5l-0.2-24.3L1305.5,973z"/>
				<path fill="#121266" d="M1228.4,1051c-1,0-2-0.5-2.6-1.4c-0.1-0.2-0.2-0.4-0.3-0.6c-0.1,0-0.2-0.1-0.3-0.1
					c-1.3-0.4-2.2-1.7-2.2-3l0-50.3c0-1.2,0.7-2.4,1.8-2.9c0.2-0.1,0.3-0.1,0.5-0.2c0-0.2,0-0.4,0.1-0.6c0.2-1.2,1.1-2.1,2.3-2.4
					l30.7-8.7c1-0.3,2-0.1,2.8,0.5l4.2,3.3c0.1-0.1,0.1-0.2,0.2-0.3l4.4-6.1c0.4-0.6,1-1,1.7-1.2l30.6-8.7c1.3-0.4,2.7,0.1,3.5,1.2
					c0.1,0.1,0.2,0.2,0.2,0.4c0.2,0,0.3,0.1,0.5,0.1c1.3,0.4,2.2,1.6,2.2,3l0.4,50c0,1.2-0.7,2.4-1.8,2.9c-0.1,0.1-0.3,0.1-0.4,0.2
					c0,0.2,0,0.5-0.1,0.7c-0.2,1.2-1.1,2.1-2.3,2.4l-30.9,8.9c-1,0.3-2.1,0.1-2.9-0.6l-4.1-3.3c-0.1,0.1-0.2,0.3-0.2,0.4l-4.5,6.2
					c-0.4,0.6-1,1-1.7,1.2l-31,8.9C1229,1050.9,1228.7,1051,1228.4,1051z M1242,1034.2l-5.7,8l21.1-6.1l2.1-2.8l-3.9-3L1242,1034.2z
					 M1259.4,1038.9L1259.4,1038.9L1259.4,1038.9z M1229.3,1002.3l0,33.7l5.5-7.5l0-21.8L1229.3,1002.3z M1272.7,1030.8l0.8,0.6
					l23.3-6.7l-5.8-4.6l-13.4,3.8L1272.7,1030.8z M1256.3,1023.5c0.7,0,1.4,0.2,2,0.7l7.3,5.7c0.1-0.1,0.1-0.2,0.2-0.4l7.4-10.2
					c0.4-0.6,1-1,1.7-1.2l15.9-4.6c0,0,0,0,0-0.1l-0.2-22.4l-14.2,4c-1,0.3-2.1,0.1-2.9-0.6l-7-5.6c-0.1,0.1-0.1,0.2-0.2,0.3
					l-7.5,10.2c-0.4,0.6-1,1-1.7,1.2l-15.9,4.6l0,22.6l14.2-4.1C1255.7,1023.6,1256,1023.5,1256.3,1023.5z M1297.2,1011.9l5.5,4.4
					l-0.3-33.5l-5.3,7.4L1297.2,1011.9z M1235.2,994l5.6,4.6l13.4-3.8l5-6.8l-0.8-0.6L1235.2,994z M1256.2,997.5L1256.2,997.5
					L1256.2,997.5z M1272.5,985.5l3.7,3l13.3-3.8l5.6-7.8l-20.7,5.9L1272.5,985.5z"/>
			</g>
			<g>
				<path fill="#121266" d="M1251.8,949l-25.7-9l-4.2-16.4l38.4,13.3l1.6,6.1L1251.8,949z M1271.8,941l38.3,13.3l-16.1,9.4l-25.5-9
					l-2.6-10.3L1271.8,941z"/>
				<path fill="#121266" d="M1293.9,966.9c-0.4,0-0.7-0.1-1.1-0.2l-25.5-9c-1-0.4-1.8-1.2-2-2.2l-2.4-9.3l-9.5,5.6
					c-0.8,0.5-1.8,0.6-2.7,0.3l-25.7-9c-1-0.4-1.8-1.2-2-2.2l-4.2-16.4c-0.3-1.1,0.1-2.4,0.9-3.2c0.9-0.8,2.1-1.1,3.2-0.7l38.4,13.3
					c1,0.4,1.8,1.2,2,2.2l1.4,5.2l5.5-3.1c0.8-0.5,1.8-0.6,2.6-0.2l38.3,13.3c1.2,0.4,2,1.5,2.1,2.7c0.1,1.2-0.5,2.4-1.6,3.1
					l-16.1,9.4C1295.1,966.8,1294.5,966.9,1293.9,966.9z M1271.1,952.2l22.5,8l8.8-5.2l-30.3-10.6l-2.6,1.5L1271.1,952.2z
					 M1228.8,937.6l22.7,7.9l6.7-4l-0.6-2.1l-31.1-10.8L1228.8,937.6z"/>
			</g>
			<g>
				<path fill="#121266" d="M1255.9,898.5L1240,903l-11.7-9.4l30.5-8.6l4.5,3.5L1255.9,898.5z M1272.1,881.4l30.4-8.5l-11.6,15.9
					l-15.8,4.5l-7.3-5.8L1272.1,881.4z"/>
				<path fill="#121266" d="M1240,906.2c-0.7,0-1.4-0.2-2-0.7l-11.7-9.4c-0.9-0.7-1.4-2-1.1-3.1c0.2-1.2,1.1-2.1,2.3-2.4l30.5-8.6
					c1-0.3,2-0.1,2.8,0.5l4.2,3.2c0.1-0.1,0.1-0.2,0.2-0.3l4.4-6c0.4-0.6,1-1,1.7-1.2l30.4-8.5c1.3-0.4,2.7,0.1,3.5,1.3
					c0.8,1.1,0.8,2.6,0,3.7l-11.6,15.9c-0.4,0.6-1,1-1.7,1.2l-15.8,4.5c-1,0.3-2.1,0.1-2.9-0.6l-6.9-5.5c-0.1,0.1-0.1,0.2-0.2,0.3
					l-7.4,10c-0.4,0.6-1,1-1.7,1.2l-15.9,4.5C1240.6,906.2,1240.3,906.2,1240,906.2z M1235.2,895l5.6,4.4l13.3-3.7l4.9-6.6l-0.7-0.6
					L1235.2,895z M1255.9,898.5L1255.9,898.5L1255.9,898.5z M1272.1,886.7l3.6,2.9l13.2-3.7l5.5-7.5l-20.4,5.7L1272.1,886.7z"/>
			</g>
			<g>
				<path fill="#121266" d="M1226.1,823.4l11.6,9.2l0,23.6l-11.7,15.8L1226.1,823.4z M1255.6,825.4l-15.8,4.4l-11.5-9.3l30.1-8.4
					l4.5,3.4L1255.6,825.4z M1259.4,825.1l5.8-7.8l5.8,4.6l0.1,26.6l-5.8,7.9l-5.8-4.6L1259.4,825.1z M1274.9,848.3l15.8-4.4
					l11.7,9.3l-30.3,8.5l-4.4-3.5L1274.9,848.3z M1304.1,801.8l0.4,48.4l-11.7-9.3l-0.2-23.5L1304.1,801.8z"/>
				<path fill="#121266" d="M1226.1,875.3c-0.3,0-0.7-0.1-1-0.2c-1.3-0.4-2.2-1.7-2.2-3l0-48.6c0-1.2,0.7-2.3,1.8-2.9
					c0.2-0.1,0.3-0.1,0.5-0.2c0-0.2,0-0.3,0.1-0.5c0.2-1.2,1.1-2.1,2.3-2.4l30.1-8.3c1-0.3,2-0.1,2.8,0.5l4.5,3.4
					c0.4,0.3,0.7,0.7,0.9,1.1c0.5,0.1,1,0.3,1.4,0.6l5.8,4.6c0.8,0.6,1.2,1.5,1.2,2.5l0.1,23.3l15.3-4.3l-0.2-23.4
					c0-0.7,0.2-1.4,0.6-1.9l11.5-15.6c0.8-1.1,2.3-1.6,3.6-1.2c1.3,0.4,2.2,1.6,2.2,3l0.4,48.4c0,1.2-0.7,2.4-1.8,2.9
					c-0.1,0.1-0.3,0.1-0.4,0.2c0,0.2,0,0.4-0.1,0.6c-0.2,1.2-1.1,2.1-2.3,2.5l-30.3,8.5c-1,0.3-2.1,0.1-2.9-0.6l-4.4-3.5
					c-0.4-0.3-0.7-0.7-0.9-1.1c-0.5-0.1-1-0.3-1.4-0.6l-5.9-4.6c-0.8-0.6-1.2-1.5-1.2-2.5l-0.1-23.2l-15.3,4.2l0,23.4
					c0,0.7-0.2,1.4-0.6,1.9l-11.7,15.8C1228,874.8,1227.1,875.3,1226.1,875.3z M1229.3,830.1l0,32.3l5.3-7.1l0-21L1229.3,830.1z
					 M1272,857.6l0.7,0.6l22.7-6.3l-5.5-4.3l-13.1,3.7L1272,857.6z M1262.7,850.2l2,1.6l3.2-4.4l-0.1-24l-2-1.6l-3.2,4.3
					L1262.7,850.2z M1296,839.3l5.3,4.1l-0.3-32l-5.1,7L1296,839.3z M1235.2,821.9l5.4,4.3l13.1-3.6l4.8-6.4l-0.7-0.5L1235.2,821.9z
					 M1255.6,825.4L1255.6,825.4L1255.6,825.4z"/>
			</g>
		</g>
		<path fill="#3737B7" d="M1478,1169.6c0,0-65.7,3.4-51.6,106.1c0,0,119.2,90.3,95.4,185.8c0,0-25.3,12.8-20.4,41.5
			c4.9,28.7-10.7,66.2,45.7,66.9c56.5,0.7,103.7-93.7,55.5-209.5C1554.4,1244.6,1504.7,1183.8,1478,1169.6z"/>
		<g>
			<g>
				<g>
					
						<ellipse transform="matrix(1.654234e-02 -0.9999 0.9999 1.654234e-02 -505.614 2737.3174)" fill="#3D3DD1" cx="1138.7" cy="1625.7" rx="14.4" ry="12"/>
				</g>
				<path fill="#121266" d="M1140.8,1611.5c5.7,1.2,10,7.2,9.9,14.4c-0.1,7.2-4.6,13-10.4,14c-5-1.2-8.8-7.1-8.7-14.3
					C1131.7,1618.4,1135.7,1612.5,1140.8,1611.5z"/>
			</g>
			<g>
				<g>
					
						<ellipse transform="matrix(1.654234e-02 -0.9999 0.9999 1.654234e-02 -475.9163 2675.9812)" fill="#3D3DD1" cx="1122.4" cy="1579.9" rx="14.4" ry="12"/>
				</g>
				<path fill="#121266" d="M1124.4,1565.8c5.7,1.2,10,7.2,9.9,14.4c-0.1,7.2-4.6,13-10.4,14c-5-1.2-8.8-7.1-8.7-14.3
					C1115.4,1572.6,1119.4,1566.8,1124.4,1565.8z"/>
			</g>
			<g>
				<g>
					
						<ellipse transform="matrix(1.654234e-02 -0.9999 0.9999 1.654234e-02 -536.9998 2676.2207)" fill="#3D3DD1" cx="1091.9" cy="1611.1" rx="14.4" ry="12"/>
				</g>
				<path fill="#121266" d="M1094,1597c5.7,1.2,10,7.2,9.9,14.4c-0.1,7.2-4.6,13-10.4,14c-5-1.2-8.8-7.1-8.7-14.3
					C1085,1603.8,1089,1597.9,1094,1597z"/>
			</g>
			<path fill="none" stroke="#3D3DD1" stroke-width="3.7618" stroke-miterlimit="10" d="M1160.2,1642.3c0,0-13.5-101.8-36.6-103
				c-21.8-1.2-57.6,50.9-62.2,66.2c-3.9,13-1.5,24.7,7.7,32c9.2,7.4,38.7,24.7,77.2,17.2C1146.3,1654.6,1161.3,1652.9,1160.2,1642.3
				z"/>
			<path fill="#3D3DD1" d="M1145.5,1573.1c0,0-7.8-26.8-22-24.5s-51.4,46.8-54.9,62.3c-3.3,14.6,6.5,22.9,14.8,27.2
				c8.3,4.3,43.6,18.3,76.8,4.2c0,0,2,11.1-18.4,13.1c-20.3,2.1-35.3-1.2-35.3-1.2s-35.8-7.7-42.7-22.6s-3.3-23.1-3.3-23.1
				s5.8-15.7,13.6-26.5s29.2-39,43.2-41.9c14.1-2.9,18.1,7.8,21.8,16.1S1145.5,1573.1,1145.5,1573.1z"/>
		</g>
		<g>
			<path fill="#121266" d="M634.4,1486.8l-4.2-63.7l-28.5-6.3l-2.4-42.9l-66.7-13.5l-17.9,4.3l6,34.5l-20.4-4.6l-15,4.7l36.3,72.5
				l74.9,62.2l12.3-7.5l-2.6-38.9l17.2,8.1L634.4,1486.8z M563.8,1470.4c-8,2-18-7.4-21.8-22.6c-3.8-15.3,0.5-30.2,8.7-30.3
				c7-0.1,16.3,7.7,20.2,23C574.7,1455.8,571.8,1468.4,563.8,1470.4z"/>
			<path fill="#FFE000" d="M588,1380.1l-73.2-15.3l9.5,146.9l72.3,22.3L588,1380.1z M563.8,1470.4c-19.3,6.7-33.3-51.5-13.1-52.9
				C567.7,1414.3,582.4,1466.7,563.8,1470.4z"/>
			<path fill="#FFE000" d="M618.3,1428.6l-133-29.3l4.6,65.1l133.6,31.4L618.3,1428.6z M563.8,1470.4c-19.3,6.7-33.3-51.5-13.1-52.9
				C567.7,1414.3,582.4,1466.7,563.8,1470.4z"/>
			<g>
				<path fill="#736CFF" d="M572.5,1454.3c0,0.6,0,1.2-0.1,1.7C572.5,1455.5,572.5,1454.9,572.5,1454.3z"/>
				<path fill="#736CFF" d="M570,1437.7c0.2,0.6,0.4,1.2,0.6,1.9C570.4,1439,570.2,1438.3,570,1437.7z"/>
				<path fill="#736CFF" d="M571.1,1441.4c0-0.1-0.1-0.3-0.1-0.4c1.1,4.5,1.6,8.8,1.6,12.6C572.6,1449.8,572.2,1445.6,571.1,1441.4z
					"/>
				<path fill="#121266" d="M563.8,1470.4c-22.3,7.8-35.2-67.3-5.4-50.1c-17.4-10.5-35.5,4.7-28,31.3c6.2,25.8,39.4,34.9,41.9,5.1
					C571.6,1464.1,568.7,1469.2,563.8,1470.4z"/>
				<path fill="#736CFF" d="M570.9,1440.6c-0.1-0.3-0.2-0.6-0.3-1c0.1,0.5,0.3,1,0.4,1.4C571,1440.9,570.9,1440.7,570.9,1440.6z"/>
				<path fill="#736CFF" d="M572.4,1456.8c0-0.3,0.1-0.5,0.1-0.7C572.4,1456.3,572.4,1456.5,572.4,1456.8z"/>
				<path fill="#736CFF" d="M572.6,1453.7c0,0.2,0,0.4,0,0.6C572.5,1454.1,572.6,1453.9,572.6,1453.7z"/>
				<path fill="#736CFF" d="M570,1437.7c-2.7-8.4-7-14.3-11.6-17.4C563.4,1424,567.5,1430.2,570,1437.7z"/>
			</g>
		</g>
		<g>
			<path fill="none" stroke="#3D3DD1" stroke-width="3.7618" stroke-miterlimit="10" d="M720,1507.2l44.8,73
				c14.9,22.1,33.6,19.7,47.5,11.3h0c17.3-13,12.4-34.5,4-48.4l-37-60.2l-31.3-51.5c-13.8-22.8-32.6-21.3-46.9-13.6h0
				c-17.9,12.1-14,33.8-6.3,48.2L720,1507.2z"/>
			<path fill="#3D3DD1" d="M705.7,1417.1c0,0-15.9,13.2-10.3,31.8c5.6,18.6,57.7,96.8,57.7,96.8s11.4,37.3,36.4,44.2
				c0,0,15.3,6.6,28.6-4c0,0-12.4,17.5-34.1,10.2c-21.7-7.3-47.7-62.3-47.7-62.3l-44.7-74.7C691.7,1459.2,677.5,1428.6,705.7,1417.1
				z"/>
			<g>
				<path fill="#C50E59" d="M753.4,1557.6c17,42.4,68.4,18.3,49.5-24.1C779.6,1491.3,731.2,1516.3,753.4,1557.6z"/>
				<path fill="#F83571" d="M749.1,1557.8c20.8,41.3,65.7,21.1,45.1-21.7C775.3,1495.6,729.3,1517.6,749.1,1557.8z"/>
			</g>
			<g>
				<path fill="#C50E59" d="M704.6,1480.4c17,42.4,68.4,18.3,49.5-24.1C730.8,1414.2,682.4,1439.2,704.6,1480.4z"/>
				<path fill="#F83571" d="M700.3,1480.7c20.8,41.3,65.7,21.1,45.1-21.7C726.5,1418.4,680.5,1440.5,700.3,1480.7z"/>
			</g>
			<path fill="#3D3DD1" d="M716.4,1414.7c0,0-17.3,0.2-21.6,20.8c0,0-3.7-14.4,6.3-17.8C711.1,1414.4,716.4,1414.7,716.4,1414.7z"/>
			<path fill="#3D3DD1" d="M821.4,1574.7c0,0-14.7,19.9-31.9,15.2c0,0,1.9,5.7,8.5,5.5c6.5-0.3,20.6-10,20.6-10L821.4,1574.7z"/>
		</g>
		<g>
			<circle fill="#041C16" cx="595.4" cy="956.2" r="39.6"/>
			<circle fill="#041C16" cx="908.4" cy="1013.1" r="39.6"/>
			<g>
				<path fill="#011D16" d="M751.7,1037.3c-2.7,0-5.4-0.2-8.3-0.7c-32.5-5.3-38-33.2-36.3-47.3c0.4-3.2,3.3-5.6,6.5-5.2
					c3.2,0.4,5.5,3.3,5.2,6.5c-0.3,3.1-2.3,29.6,26.5,34.3c8.7,1.4,15.7,0.1,20.9-4c9.2-7.2,10.4-20.9,10.4-21.1
					c0.3-3.2,3.1-5.7,6.3-5.4c3.2,0.2,5.7,3.1,5.4,6.3c-0.1,0.8-1.5,18.9-14.8,29.4C767.6,1034.9,760.2,1037.3,751.7,1037.3z"/>
			</g>
			
				<ellipse transform="matrix(0.2005 -0.9797 0.9797 0.2005 -550.7664 1363.2871)" fill="#FDE0DA" cx="559.8" cy="1019.1" rx="15.5" ry="40.4"/>
			
				<ellipse transform="matrix(0.1129 -0.9936 0.9936 0.1129 -247.1496 1895.0452)" fill="#FDE0DA" cx="937.7" cy="1085.9" rx="15.5" ry="40.4"/>
		</g>
	</g>
</g>
<g id="Layer_12">
</g>
<g id="Layer_11">
</g>
<g id="Layer_10">
</g>
<g id="Layer_9">
</g>
<g id="Layer_8">
</g>
<g id="Layer_7">
</g>
<g id="Layer_6">
</g>
<g id="Layer_5">
</g>
<g id="Layer_4">
</g>
<g id="Layer_3">
</g>
<g id="Layer_2">
</g>
</svg>
