<svg xmlns="http://www.w3.org/2000/svg" xmlns:xlink="http://www.w3.org/1999/xlink" viewBox="0 0 1126.6 271.62"><defs><style>.cls-1{fill:#482805;}.cls-2{fill:#281613;}.cls-3{fill:#eb8500;}.cls-4{opacity:0.74;}.cls-5{fill:#1f1019;}.cls-6{fill:#281416;}.cls-7{fill:#4e2900;}.cls-8{fill:#572e00;}.cls-9{fill:#221213;}.cls-10{fill:#241511;}.cls-11{fill:#160c0d;}.cls-12{fill:#1a0b14;}.cls-13{fill:url(#linear-gradient);}.cls-14{fill:url(#linear-gradient-2);}.cls-15{fill:#190d14;}.cls-16{fill:url(#linear-gradient-3);}.cls-17{fill:url(#linear-gradient-4);}.cls-18{fill:#25131a;}.cls-19{fill:url(#linear-gradient-5);}.cls-20{fill:url(#linear-gradient-6);}.cls-21{fill:#3b2114;}.cls-22{fill:url(#linear-gradient-7);}</style><linearGradient id="linear-gradient" x1="246.68" y1="-458.87" x2="755.27" y2="-243.17" gradientTransform="translate(0 396.69)" gradientUnits="userSpaceOnUse"><stop offset="0" stop-color="#301c1e"/><stop offset="1" stop-color="#3f251b"/></linearGradient><linearGradient id="linear-gradient-2" x1="-41.11" y1="-245.53" x2="1139.12" y2="-245.53" gradientTransform="translate(0 396.69)" gradientUnits="userSpaceOnUse"><stop offset="0" stop-color="#241319"/><stop offset="1" stop-color="#261512"/></linearGradient><linearGradient id="linear-gradient-3" x1="318.42" y1="-234.14" x2="1138.73" y2="-234.14" gradientTransform="translate(0 396.69)" gradientUnits="userSpaceOnUse"><stop offset="0" stop-color="#211216"/><stop offset="1" stop-color="#291713"/></linearGradient><linearGradient id="linear-gradient-4" x1="345.46" y1="105.55" x2="1144.71" y2="245.67" gradientUnits="userSpaceOnUse"><stop offset="0" stop-color="#4e2817"/><stop offset="1" stop-color="#2f1d15"/></linearGradient><linearGradient id="linear-gradient-5" x1="1091.78" y1="175.93" x2="1128.79" y2="178.57" gradientUnits="userSpaceOnUse"><stop offset="0" stop-color="#1c0f15"/><stop offset="1" stop-color="#231410"/></linearGradient><linearGradient id="linear-gradient-6" x1="940.31" y1="-235.06" x2="1063.3" y2="-235.06" gradientTransform="translate(0 396.69)" xlink:href="#linear-gradient-5"/><linearGradient id="linear-gradient-7" x1="-53.18" y1="-279.95" x2="241.03" y2="-279.95" xlink:href="#linear-gradient-2"/></defs><g id="Layer_2" data-name="Layer 2"><g id="Background_hill" data-name="Background hill"><path class="cls-1" d="M1126.6,38.55c-2.74,1.53-4.33,6-4.33,6s.82-6.51-1.7-6.16-2.52,10.92-2.52,10.92-.41-4.82-3.41-4.82-6.33,2.76-8.45,4.11-7.62,2.06-13.49,2.06S1060.55,66,1050.34,66.37s-17,0-17,0-16.08-3.4-19.07-5.1-15.67-6.52-16.49-6.52a32.51,32.51,0,0,0-6.75.71c-2.93.7-20.77-4.81-20.77-4.81s-4.22-.71-3.81,0-8.86,2.75-10.56,2.05S953,55.81,953,55.81s.82-3.76-3.4-3.11c-3.29.53-8.51,11.62-10.74,16.66,0-1.76-.41-4.75-1.93-9.8-3.82-12.79-10.62-5.34-10.62-5.34-.94-8.74-4.87-11.91-4.87-11.91-17.67-9.44-20.25,5-20.25,5s.82-6.51-1.7-6.16S897,52.05,897,52.05s-.41-4.81-3.41-4.81-6.33,2.76-8.44,4.11-7.63,2-13.5,2S839.46,68.78,829.3,69.13s-16.95,0-16.95,0-16.08-3.4-19.07-5.11-15.67-6.51-16.49-6.51a33.19,33.19,0,0,0-6.75.7c-2.93.71-20.77-4.81-20.77-4.81s-4.22-.7-3.81,0-8.86,2.76-10.56,2.06S732,58.57,732,58.57s.82-3.76-3.4-3.11-11.85,19.13-11.85,19.13,0-8.86-2.12-8.86S709.08,77,709.08,77s.82-10.91-2.94-11.26-3.81,8.86-3.81,8.86-.41-4.11-2.11-5.46-8,14.84-8,14.84l209.88,8.16.06,3.05L937,86.67l.3-4.63,189.33,7.53Z"/><path class="cls-2" d="M1126.6,52.11a24.25,24.25,0,0,0-3,.3c-4.22,1-17.78,14.43-20.71,14.43s-4.22,5.4-4.22,5.4-4.23-3.7-6.34-3.7-5.11,2.7-5.11,2.7,0-5.69-1.7-5.69-2.58,14.26-2.58,14.26-43.54-8.51-46.53-8.51-39.84-17.08-41.31-14.38c-9,16.9-18.6-3.46-20.06,1.65-2.88,10.09-55.22,5.34-59.85,1-2-1.87-45.36,21.36-45.36,21.36l256.81,8.89Z"/><path class="cls-2" d="M940.32,81.51c-.29-.71.64-10.62,1.94-10.86s2.17,4.4,2.17,4.4.17-3.46.58-3.4,1.88,6.1,1.88,6.1-.7-3.16.59-3.4,2.34,8.21,2.34,8.21Z"/><path class="cls-3" d="M901.59,79.92c.41-.7.82-10.62-.47-10.91s-2.81,4.17-2.81,4.17.29-3.41-.12-3.41-2.76,5.87-2.76,5.87,1.18-3.11-.12-3.4-3.46,8-3.46,8Z"/><path class="cls-2" d="M966.9,90.08c.06-1.47-7.22-19.6-9.39-19.37s-.94,9.21-.94,9.21-2.29-6.33-2.93-6,.53,12.26.53,12.26-.77-6.27-2.94-6,1.06,16.43,1.06,16.43Z"/><path class="cls-2" d="M1053.45,94.3c.41-1.41-2.23-21.59-4.41-22.3s-3,8.39-3,8.39-.7-7-1.35-7-2.34,11.85-2.34,11.85.76-6.27-1.35-7-2.88,16-2.88,16Z"/><path class="cls-2" d="M1072.81,94.3c.35-1.88-2.94-29.4-5.11-30.45S1064.89,75,1064.89,75s-.94-9.51-1.59-9.51-2,15.9-2,15.9.58-8.45-1.59-9.5-2.34,21.53-2.34,21.53Z"/><path class="cls-2" d="M1079.73,94.3c.35-1.88-2.93-29.4-5.1-30.45S1071.81,75,1071.81,75s-.94-9.51-1.58-9.51-2,15.9-2,15.9.59-8.45-1.58-9.5-2.35,21.53-2.35,21.53Z"/><path class="cls-2" d="M1090.82,94.3c.35-1.88-2.93-29.4-5.1-30.45S1082.9,75,1082.9,75s-.94-9.51-1.58-9.51-2,15.9-2,15.9.59-8.45-1.58-9.5-2.35,21.53-2.35,21.53Z"/><path class="cls-2" d="M1111.59,91.31c.35-1.88-2.93-29.4-5.1-30.46S1103.67,72,1103.67,72s-.94-9.5-1.58-9.5-2,15.9-2,15.9.59-8.45-1.58-9.51-2.35,21.54-2.35,21.54Z"/><path class="cls-2" d="M1002.28,83.15c.35-1.88-2.93-29.39-5.1-30.45s-2.82,11.15-2.82,11.15-.94-9.51-1.59-9.51-2,15.9-2,15.9.59-8.45-1.58-9.5-2.35,21.53-2.35,21.53Z"/><path class="cls-2" d="M1014.72,86.85c.35-1.88-2.93-29.4-5.11-30.45s-2.81,11.14-2.81,11.14-.94-9.5-1.59-9.5-2,15.9-2,15.9.59-8.45-1.59-9.51S999.29,86,999.29,86Z"/><path class="cls-2" d="M984.27,83.15c.35-1.88-2.94-29.39-5.11-30.45s-2.81,11.15-2.81,11.15-.94-9.51-1.59-9.51-2,15.9-2,15.9.58-8.45-1.59-9.5-2.34,21.53-2.34,21.53Z"/><g class="cls-4"><path class="cls-5" d="M966.43,81.33c-.29-.11-.65-.23-.94-.35a144.26,144.26,0,0,1-14.32-6.39c-14-6.69-29-12.44-44.53-12.39a32.44,32.44,0,0,0-12.09,2,16.68,16.68,0,0,0-9,8,10.86,10.86,0,0,0-4.92-.29c-2.41.64-2.23,3.11-4.7,1.87-1.58-.76-2.93-2.46-4.81-2.46C869,71.3,866,74,866,74s0-5.69-1.71-5.69-2.58,14.25-2.58,14.25-43.53-8.5-46.53-8.5S775.38,57,773.92,59.68c-9,16.9-18.6-3.46-20.07,1.64-2.88,10.1-6.34,11.45-11,7.05-2-1.88,1.29,20.12,1.29,20.12,3.87.12,7.68.18,11.56.29,10.27.24,20.47.53,30.74.77q21.48.53,43,1.11l48.18,1.23c15.49.42,31,.77,46.47,1.18,12.61.29,25.17.64,37.78.94l13.44.35c1.64.06,3.35.06,5,.12,2.29,0,5.92,1.93,7.22-.3a3.92,3.92,0,0,0-.36-4,9,9,0,0,0-3.22-2.64C978.4,84.5,972.3,83.27,966.43,81.33Z"/><path class="cls-6" d="M711,87.08c-.3-.7.64-10.62,1.93-10.85s2.17,4.4,2.17,4.4.18-3.46.59-3.4,1.88,6.1,1.88,6.1-.71-3.17.58-3.41,2.35,8.22,2.35,8.22Z"/><path class="cls-3" d="M680.5,82.68c.41-.7.82-10.62-.47-10.91s-2.81,4.16-2.81,4.16.29-3.4-.12-3.4-2.76,5.87-2.76,5.87,1.18-3.11-.11-3.4-3.47,8-3.47,8Z"/><path class="cls-6" d="M745.75,86c.06-1.23-7.22-16.61-9.39-16.43s-.94,7.8-.94,7.8-2.28-5.34-2.93-5.1.53,10.38.53,10.38-.76-5.34-2.94-5.1,1.06,13.9,1.06,13.9Z"/><path class="cls-6" d="M832.3,89.55c.41-1.18-2.23-18.31-4.4-18.9s-3,7.1-3,7.1-.71-5.92-1.35-5.92-2.35,10-2.35,10,.76-5.34-1.35-5.93-2.88,13.62-2.88,13.62Z"/><path class="cls-6" d="M851.66,89.55c.35-1.59-2.93-24.94-5.1-25.82s-2.82,9.45-2.82,9.45-.94-8-1.59-8.1-2,13.49-2,13.49.59-7.15-1.58-8-2.35,18.24-2.35,18.24Z"/><path class="cls-6" d="M858.58,89.55c.36-1.59-2.93-24.94-5.1-25.82s-2.82,9.45-2.82,9.45-.94-8-1.58-8.1-2,13.49-2,13.49.59-7.15-1.58-8-2.35,18.24-2.35,18.24Z"/><path class="cls-6" d="M869.67,89.55c.36-1.59-2.93-24.94-5.1-25.82s-2.82,9.45-2.82,9.45-.94-8-1.58-8.1-2,13.49-2,13.49.59-7.15-1.58-8-2.35,18.24-2.35,18.24Z"/><path class="cls-6" d="M890.44,83.27c.36-1.59-2.93-24.94-5.1-25.82s-2.82,9.45-2.82,9.45-.94-8-1.58-8.1-2,13.5-2,13.5.59-7.16-1.58-8S875,82.51,875,82.51Z"/><path class="cls-6" d="M781.13,80.1c.35-1.58-2.93-24.94-5.1-25.82s-2.82,9.45-2.82,9.45-.94-8-1.58-8.1-2,13.5-2,13.5.59-7.16-1.58-8-2.35,18.25-2.35,18.25Z"/><path class="cls-6" d="M793.57,83.27c.35-1.59-2.93-24.94-5.1-25.82s-2.82,9.45-2.82,9.45-.94-8-1.58-8.1-2,13.5-2,13.5.59-7.16-1.58-8-2.35,18.25-2.35,18.25Z"/><path class="cls-6" d="M763.18,80.1c.35-1.58-2.94-24.94-5.11-25.82s-2.81,9.45-2.81,9.45-.94-8-1.59-8.1-2,13.5-2,13.5.58-7.16-1.59-8-2.34,18.25-2.34,18.25Z"/></g><path class="cls-7" d="M0,51.22l122.5,22s-2.76-31.1-5.34-29.16-4.46,9.21-4.46,9.21,3-16.61-1.94-17.14-7.45,19.43-7.45,19.43-.64-21.3-3.34-22-5.63,15.37-5.63,15.37-3.7-35.49-8.86-38-5.34,4.52-5.34,4.52S79.72,8.28,77.38,9,63.77,3.24,64.53,2.12,59.66,1,59.66,1s-24.47,4.46-28,2.34A31.28,31.28,0,0,0,23.22,0C22.16-.23,4.39,4.53,0,6.76l0,0Z"/><path class="cls-3" d="M97.33,72.88c.58-1.23,2.7-19.3,1-20.06s-4.22,7.27-4.22,7.27.88-6.22.35-6.28-4.4,10.39-4.4,10.39,1.94-5.52.35-6.28S84.77,72,84.77,72Z"/><path class="cls-8" d="M137.7,74.17c-.3-1.35,2.4-19.36,4.16-19.53S144,63,144,63s.77-6.28,1.29-6.11,1.59,11.39,1.59,11.39-.47-5.93,1.29-6.1S150,77.52,150,77.52Z"/><path class="cls-3" d="M53.32,60.5c.35-2.29,14.61-27.75,17.37-26.69s-1.41,14.31-1.41,14.31,4.7-9,5.46-8.33-4.11,18.54-4.11,18.54,2.64-9.39,5.46-8.33-5.93,24.76-5.93,24.76Z"/><path class="cls-9" d="M120.45,48.42c-2.59,1.93-4.52,9.21-4.52,9.21s-.3-17.84-5.28-18.37-7.45,19.42-7.45,19.42,1-20.06-1.71-20.71-5.63,15.37-5.63,15.37-5.34-30.51-10.5-33S80,24.89,80,24.89s-.41-13.44-2.76-12.74S63.65,6.4,64.41,5.29s-4.87-1.17-4.87-1.17-24.47,4.45-28,2.34A31.15,31.15,0,0,0,23.1,3.18C22.05,2.89,4.46,7.64,0,9.83V54.35L122.38,76.29C122.5,76.29,123,46.48,120.45,48.42Z"/><path class="cls-10" d="M63.06,31.81c-7.39,6.57-15.72,2.7-11.68-16.25.71-3.29-24.05-7-28.16-9.21C21.4,5.36,11.15,8.22,0,11.62V57.5L54.73,68.37S66.17,29.05,63.06,31.81Z"/><path class="cls-11" d="M97.33,76.05c.58-1.17,2.7-19.3,1-20.07s-4.22,7.28-4.22,7.28S95,57,94.51,57s-4.4,10.39-4.4,10.39,1.94-5.52.35-6.28-5.69,14.08-5.69,14.08Z"/><path class="cls-12" d="M139.34,78c-.29-1.35,2.41-19.36,4.17-19.54s2.17,8.33,2.17,8.33.76-6.28,1.29-6.1,1.58,11.38,1.58,11.38-.47-5.92,1.29-6.1,1.88,15.37,1.88,15.37Z"/><path class="cls-11" d="M53.32,63.61c.35-2.29,14.61-27.75,17.37-26.69s-1.41,14.37-1.41,14.37,4.7-9,5.46-8.33S70.63,61.5,70.63,61.5s2.7-9.39,5.46-8.33-5.93,24.76-5.93,24.76Z"/><path class="cls-11" d="M17.06,72.06c-.06-3.64,10.21-53,13.26-53.86s1.17,22.12,1.17,22.12,3.29-17.13,4.17-16.84-.88,30.57-.88,30.57,1.11-16,4.17-16.84S37.3,78.4,37.3,78.4Z"/><path class="cls-11" d="M49,89.72c-.59-3.58,2.23-54.21,5.1-55.56s4.4,21.59,4.4,21.59.71-17.49,1.59-17.37,3.64,30.28,3.64,30.28-1.3-16,1.58-17.37,4.46,41,4.46,41Z"/><path class="cls-11" d="M57.31,83.91c.41-2.69-2.05-40.6-4.22-41.6s-3.17,16.26-3.17,16.26-.65-13.09-1.35-13-2.52,22.77-2.52,22.77.82-12-1.35-13S41.64,86,41.64,86Z"/><path class="cls-11" d="M75.15,77.58c-.41-2.58,1.64-39,3.7-40.08S82,53.05,82,53.05s.53-12.61,1.18-12.5,2.58,21.83,2.58,21.83-.94-11.5,1.17-12.5S90.17,79.4,90.17,79.4Z"/><path class="cls-11" d="M81.13,73.35c.3-1.93-1.46-29.22-3-30s-2.29,11.68-2.29,11.68-.47-9.45-.93-9.39S73.09,62,73.09,62s.59-8.63-.93-9.39-2.23,22.12-2.23,22.12Z"/><path class="cls-11" d="M7.67,69.89c-.06-3.64,10.15-53,13.2-53.86s1.18,22.12,1.18,22.12S25.33,21,26.21,21.31s-.88,30.57-.88,30.57,1.06-16,4.17-16.84-1.59,41.19-1.59,41.19Z"/><path class="cls-11" d="M18.23,35c-3.11.88-4.16,16.84-4.16,16.84S15.83,21.6,15,21.31s-4.17,16.84-4.17,16.84S12.66,15.21,9.61,16C7.75,16.56,3.23,35.09,0,50.31V71l16.59,5.21S21.34,34.16,18.23,35Z"/><polygon class="cls-13" points="1126.6 89.45 1119.28 89.02 633.8 61.97 595.37 75.88 374.57 106.86 0 49 0 54.76 1126.6 229.64 1126.6 89.45"/><polygon class="cls-14" points="1126.6 229.16 175.25 75.82 0 47.69 0 162.89 1126.6 254.64 1126.6 229.16"/><polygon class="cls-15" points="196.72 143.71 0 101.33 0 160.41 223.25 181.9 225.77 182.25 196.72 143.71"/><polygon class="cls-16" points="1126.6 99.7 991.48 99.7 938.5 95.3 882.82 95.3 874.54 121.64 851.37 178.85 840.92 178.85 835.41 153.09 824.9 146.81 831.53 117.3 829.3 105.33 808.94 153.68 798.97 174.45 733.37 163.77 757.08 125.46 769.22 103.45 727.86 146.81 699.75 158.73 664.43 153.09 747.69 104.1 688.13 103.45 546.43 134.84 318.42 99.93 1126.6 229.8 1126.6 99.7"/><polygon class="cls-17" points="1126.6 227.34 174.72 75.82 398.27 119.88 469.98 142.53 659.15 172.04 847.73 194.05 854.36 201.56 1126.6 233.6 1126.6 227.34"/><polygon class="cls-18" points="1120.34 88.9 744.28 73.88 637.14 63.2 1120.34 88.9"/><path class="cls-15" d="M0,99.11v9.54C86.73,124,197,143.76,197,143.76Z"/><polygon class="cls-15" points="628.22 208.07 611.03 203.26 445.16 190.12 427.5 196.75 372.93 191.76 322.7 177.5 310.85 178.56 248.83 178.56 195.32 174.16 151.02 167 122.56 160.31 17.29 158.26 13.89 147.17 0 145.32 0 211.5 188.16 215.64 176.54 204.96 149.02 198.68 145.15 191.76 261.5 195.51 412.06 198.68 594.08 208.07 749.04 218.75 628.22 208.07"/><polygon class="cls-19" points="1124.09 225.97 1110.89 129.56 1107.13 131.74 1094.81 222.27 1124.09 225.97"/><path class="cls-20" d="M1063.3,217.23l-1.23-106.91-13.14-2.11-3.76,23.52L1039.48,106l-80.85,2.11s-21.07,89.13-18,89.54S1063.3,217.23,1063.3,217.23Z"/><polygon class="cls-21" points="581.58 140.36 835.64 184.07 1075.98 219.1 581.58 140.36"/><polygon class="cls-22" points="235.04 97.29 169.38 79.57 169.44 127.45 162.05 80.75 0 51.41 0 103.43 196.61 143.65 223.48 182.08 241.02 181.9 235.04 97.29"/><polygon class="cls-15" points="1126.6 251.92 445.16 190.12 427.5 196.75 0 178.37 0 271.62 310.08 271.62 292.83 260.82 241.02 254.84 225.77 225.32 341.3 223.33 423.21 230.02 443.69 241.46 1126.6 252.1 1126.6 251.92"/></g></g></svg>