<svg xmlns="http://www.w3.org/2000/svg" viewBox="0 0 388.65 298"><defs><style>.cls-1{isolation:isolate;}.cls-2{fill:#7688c3;}.cls-3{font-size:25.96px;font-family:Roboto-Medium, Roboto;font-weight:500;}.cls-3,.cls-5{fill:#fff;}.cls-4{font-size:43.32px;font-family:Roboto-Black, Roboto;font-weight:800;}.cls-6{opacity:0.81;mix-blend-mode:luminosity;}.cls-7{fill:#4394d0;}</style></defs><g class="cls-1"><g id="Layer_2" data-name="Layer 2"><g id="Buttons"><rect class="cls-2" y="166.62" width="388.65" height="131.38" rx="65.69"/><text class="cls-3" transform="translate(190.65 221.89)">JOIN THE<tspan class="cls-4"><tspan x="-35.06" y="45.08">DISCORD</tspan></tspan></text><path class="cls-5" d="M107.27,261.11c.64,2.28,1.1,4.11,1.68,5.9.46,1.42.08,1.94-1.43,1.94-16.08,0-32.15,0-48.23,0a9,9,0,0,1-9-8.43c-.06-.67,0-1.35,0-2q0-28.17,0-56.34c0-7.06,3.57-10.64,10.61-10.64h57.19c5.83.11,9.63,3.89,9.63,9.73q0,37.83,0,75.64c0,.55-.06,1.11-.1,1.66l-.45.37Zm-11-49,0,.54,8.69,4.11-.21.54a36.26,36.26,0,0,0-16-3.46,38,38,0,0,0-16.17,3.72l-.23-.56,9.8-4.64c-3.2-.69-11,2.33-12.55,4.75a3.75,3.75,0,0,0-.24.44,57.52,57.52,0,0,0-5.84,23.29,4.42,4.42,0,0,0,1.05,2.7,15.46,15.46,0,0,0,9.33,5c3.11.56,4.2-.07,5.61-3.27-1.18-.61-2.42-1.15-3.54-1.86s-2-1.54-3-2.31l.23-.34c10.95,5.74,21.88,5.87,32.79-.2l.26.56-7.29,4.5c1.26,1.08,1.59,3.28,3.82,3.1a15.81,15.81,0,0,0,11.07-5.13,5,5,0,0,0,1.15-3.15c-.14-6.31-1.86-12.3-3.71-18.32-1.69-5.51-5.43-8.15-10.59-9.48a26.85,26.85,0,0,0-2.81-.56A10,10,0,0,0,96.32,212.09Z"/><path class="cls-5" d="M85.43,233.21A4.56,4.56,0,0,1,81,238a4.85,4.85,0,1,1,4.39-4.81Z"/><path class="cls-5" d="M97.12,228.38a4.83,4.83,0,1,1-4.45,4.79A4.65,4.65,0,0,1,97.12,228.38Z"/><g class="cls-6"><rect y="166.62" width="388.65" height="131.38" rx="65.69"/></g><rect class="cls-7" width="388.65" height="131.38" rx="65.69"/><text class="cls-3" transform="translate(157.18 55.27)">FOLLOW US ON<tspan class="cls-4"><tspan x="-3.11" y="45.08">TWITTER</tspan></tspan></text><path class="cls-5" d="M49.39,93.28c8.49.26,16.25-1.6,23.53-7-7.48-1-12.34-4.67-15.11-11.61H64.1l.23-.4C56.77,71.5,52.52,66.34,52,58.1L58.57,60l.3-.39a16.77,16.77,0,0,1-6.75-13.44A14.71,14.71,0,0,1,54.39,38a15.8,15.8,0,0,1,1.2,1.09A47,47,0,0,0,86.64,55c1.34.14,1.79-.37,1.6-1.64a16.51,16.51,0,0,1,8.89-16.7c6.64-3.15,12.85-2.34,18.52,2.28a2.73,2.73,0,0,0,2.93.66c2.77-1,5.54-2,8.47-3-.78,3.57-3.42,5.76-5.72,8.5l8-2.11a19.5,19.5,0,0,1-1.6,2.3,64.72,64.72,0,0,1-4.86,4.8,3.53,3.53,0,0,0-1.35,2.92A48.41,48.41,0,0,1,113.09,80c-9.08,13.14-21.62,20-37.7,20.33a47.13,47.13,0,0,1-25-6.38C50,93.73,49.72,93.5,49.39,93.28Z"/></g></g></g></svg>