<svg xmlns="http://www.w3.org/2000/svg" viewBox="0 0 1127.72 442.47"><defs><style>.cls-1,.cls-2{fill:#7c5142;}.cls-2{opacity:0.55;isolation:isolate;}.cls-3{opacity:0.53;}</style></defs><g id="Layer_2" data-name="Layer 2"><g id="Clouds"><path class="cls-1" d="M1127.72,320.42c-32.39,5.93-62.92,27.47-82,39.09,13.8-7.89,43.72-17.29,82-27.24Z"/><path class="cls-2" d="M455.56,277.56s-56.76,4.4-81.42,0,18,0,18,0-10.61-3.22,2.46-4.8,30.34,2.81,41.93,3.22,10.55-20.09,30.7-19.68,25.36,12.07,25.36,12.07,40.88-4.4,53.6-7.62S485.2,276,455.56,277.56Z"/><path class="cls-2" d="M1007.15,33S952,47.31,927,47.25s17.68-3.16,17.68-3.16-10.95-1.29,1.59-5.16,30.34-2.52,41.88-4.16,6.85-21.61,26.76-24.71S1042,17.49,1042,17.49,1081.48,6,1093.43.62,1036,26.28,1007.15,33Z"/><g class="cls-3"><path class="cls-1" d="M263.56,308.9c67.18,5.92,90.84,3.34,90.84,3.34s-105.49-5.8-164.12-21.09C161.93,283.77,37.34,221.8.85,204.87l-.85,1v38.17l24.81,11.39C64.81,274.11,111.2,290.21,160,297c28.87,4,43.11,5.62,64.66,7.85,25.83,14.12,44.17,11.07,46.33,8.61S261,308.72,263.56,308.9Z"/><path class="cls-1" d="M317.38,261.34c-27.23-8.73-85.92,5.09-85.92,5.09s-25.83-15.28-34.21-15.28c-7.32,0,4,9.43-36-3.23h-5.1c19.09,8.2,55.23,22.79,105.32,38.9,76.84,24.72,173.9,19.62,173.9,19.62s-74.74-8-92.19-10.89S344.62,270.07,317.38,261.34Z"/><path class="cls-1" d="M829.44,352q29.7-3.78,59.69-8.55c64.33-10.27,163.46-33.64,238.59-54.44V270.23c-41.47-1.2-88.78-3.76-104.58,3.82-31.51,15.17-39.53,46-39.53,46a53.94,53.94,0,0,0-21.79,0,66.36,66.36,0,0,0-18.57,7l-80.72,17s-18.56-8.2-47.62-12a80.3,80.3,0,0,0-50.84,10.72c.76-.77,23.49-24.66-22.61-27.77-46.8-3.16-67,24-67,24s-10.48-11.36-21.79-3.16-11.3,17.68-11.3,17.68-14.53-12.59-25-8.84-12.13,12-12.13,12-54.06,5-85.57,9.43-12.13-4.39-33.1-5-65.37,5.68-121.07,5c0,0,112.81,8.49,265.46,2.22,8.55,1.35-14.47,1.88-14.47,6.15s66.6-3.74,66.6-3.74,72.22-8.5,74.74-8-59.16,7.44-59.16,9.61S845.2,361.15,845.2,356.87s-47.45,1.47-48.56,1.58A268.32,268.32,0,0,1,829.2,352C829.26,352,829.32,352,829.44,352Z"/><path class="cls-1" d="M396.93,169.67c131,12.07,228.38,9.66,228.38,9.66-47.91-1.87-85.81-9.25-103.91-9.6s-1.82,8.08-28.7,2.93-73.16-11.83-73.16-11.83-1-7.15-9.9-10.84-21.91,6.5-21.91,6.5.41-8.14-9-15.7-18.86,1.76-18.86,1.76S343.74,118.36,303.33,119c-39.77.65-21.27,22.2-20.68,22.91a69.67,69.67,0,0,0-43.23-11.43c-25.13,2-41.47,8.26-41.47,8.26L129.3,120.58a59.24,59.24,0,0,0-15.69-6.79,46.81,46.81,0,0,0-18.75-.94s-5.62-26.94-32-41.35c-10-5.43-35.54-6.69-62.82-7.31V88.81C58.89,107.52,127.8,127,175.05,137q25.57,5.35,51,9.95h.23A225.77,225.77,0,0,1,254,154c-.94-.17-41.47-7.14-41.65-3.45S338.41,172,338.53,170.2s-52.6-10.49-50.43-10.84S352,169.49,352,169.49s56.94,9.79,57.11,6.1S389.55,170.49,396.93,169.67Z"/><path class="cls-1" d="M794.53,427.28c24.6-3.16,44.81-6.62,53-10.25C835.47,422.77,813.27,435.83,794.53,427.28Z"/><path class="cls-1" d="M498.32,406.07c11.83,0,11.83-1.87,11.83-1.87l42.59-5.51H478.93s17.22,1.88,17.81,3.69A22.89,22.89,0,0,0,498.32,406.07Z"/><path class="cls-1" d="M757.92,183.2c11.83,0,11.83-1.87,11.83-1.87l42.59-5.51H738.53s17.22,1.87,17.75,3.69A17.38,17.38,0,0,0,757.92,183.2Z"/><path class="cls-1" d="M671,430.44s69.17-4.74,141.39-12.65,218.19-54.59,218.19-54.59c-3.63,2.05-161.43,45.57-87.39-1.58,7.79-5-42.58-18.22-78.31,18.21-44.23,45.05-67.66,9.49-77.56,20.56s14.47,11.07,14.47,11.07L618.57,423.35C618.57,423.3,685.46,421.71,671,430.44Z"/><path class="cls-1" d="M605.22,143.49s69.17-4.75,141.4-12.65S964.8,76.24,964.8,76.24c-3.63,2.05-161.43,45.57-87.39-1.58,7.79-5-42.58-18.21-78.31,18.22-44.23,45-67.66,9.49-77.55,20.56S736,124.51,736,124.51L552.79,136.4C552.74,136.34,619.63,134.76,605.22,143.49Z"/><path class="cls-1" d="M371.16,438.11s66,10,94.65-.23-20.91.06-20.91.06,12.3-7.38-2.87-11-35.26,6.5-48.73,7.49-12.42-45.86-35.73-44.86S328.1,417.2,328.1,417.2s-47.56-9.95-62.32-17.28S336.71,434.54,371.16,438.11Z"/><path class="cls-1" d="M948.81,190.52s65.84-11,90-29.52-19.85,6.5-19.85,6.5,9.43-10.83-6.15-9.6-31.52,17.1-44,22.2-26-39.78-47.86-31.63-19.44,35.37-19.44,35.37-48.33,5.22-64.61,2.82S915,197.73,948.81,190.52Z"/></g></g></g></svg>