<svg xmlns="http://www.w3.org/2000/svg" xmlns:xlink="http://www.w3.org/1999/xlink" viewBox="0 0 1126.95 865.03"><defs><style>.cls-1,.cls-10,.cls-11,.cls-12,.cls-13,.cls-16,.cls-17,.cls-18,.cls-19,.cls-2,.cls-20,.cls-21,.cls-23,.cls-24,.cls-25,.cls-26,.cls-27,.cls-28,.cls-29,.cls-3,.cls-30,.cls-31,.cls-32,.cls-33,.cls-34,.cls-35,.cls-36,.cls-37,.cls-38,.cls-39,.cls-4,.cls-40,.cls-42,.cls-43,.cls-44,.cls-45,.cls-46,.cls-47,.cls-48,.cls-49,.cls-5,.cls-50,.cls-51,.cls-52,.cls-53,.cls-54,.cls-55,.cls-56,.cls-57,.cls-58,.cls-59,.cls-6,.cls-60,.cls-62,.cls-63,.cls-64,.cls-65,.cls-66,.cls-67,.cls-68,.cls-69,.cls-7,.cls-70,.cls-71,.cls-8,.cls-9{fill-rule:evenodd;}.cls-1{fill:url(#linear-gradient);}.cls-2{fill:#37191c;}.cls-3{fill:url(#linear-gradient-2);}.cls-4{fill:#1b0c12;}.cls-5{fill:#1c0c11;}.cls-6{fill:#371b16;}.cls-7{fill:#391c16;}.cls-8{fill:#1b0b0b;}.cls-9{fill:#441f1d;}.cls-10{fill:#421e1d;}.cls-11{fill:#251014;}.cls-12{fill:#3d1e17;}.cls-13{fill:#271312;}.cls-14,.cls-21{fill:#431f00;}.cls-15{fill:url(#Áåçûìÿííûé_ãðàäèåíò_53);}.cls-16{fill:url(#Áåçûìÿííûé_ãðàäèåíò_4);}.cls-17,.cls-35,.cls-62{fill:#160910;}.cls-17{opacity:0.53;}.cls-18{fill:#361a16;}.cls-19{fill:#2c1513;}.cls-20{fill:#281313;}.cls-22{opacity:0.4;}.cls-23{fill:#30191e;}.cls-24{fill:#2f171d;}.cls-25{fill:#3e2021;}.cls-26{fill:#2d151c;}.cls-27{fill:#6c392c;}.cls-28{fill:#f4ae85;}.cls-29{fill:#2e181e;}.cls-30{fill:#52291c;}.cls-31{fill:#6c3422;}.cls-32{fill:url(#linear-gradient-3);}.cls-33{fill:#2d1419;}.cls-34{fill:url(#linear-gradient-4);}.cls-36{fill:#2b1513;}.cls-37{fill:#150909;}.cls-38{fill:#3a1b1b;}.cls-39{fill:#1e0d12;}.cls-40{fill:#200f10;}.cls-41{fill:#371a00;}.cls-42{fill:#231010;}.cls-43{fill:#1f0e10;}.cls-44{fill:#391c17;}.cls-45{fill:#331b1d;}.cls-46{fill:#341b1e;}.cls-47{fill:#422320;}.cls-48{fill:#5b3126;}.cls-49{fill:#241219;}.cls-50{fill:#452318;}.cls-51{fill:#6b301c;}.cls-52{fill:url(#linear-gradient-5);}.cls-53{fill:#2c141b;}.cls-54{fill:url(#linear-gradient-6);}.cls-55{fill:#16090f;}.cls-56{fill:#15090f;}.cls-57{fill:#130809;}.cls-58{fill:#37191a;}.cls-59{fill:#1c0c13;}.cls-60{fill:#1e0e11;}.cls-61{fill:#361900;}.cls-62{opacity:0.72;}.cls-63{fill:#211011;}.cls-64{fill:#1e0e10;}.cls-65{fill:#371b17;}.cls-66{fill:#25131a;}.cls-67{fill:#321a1d;}.cls-68{fill:#422221;}.cls-69{fill:#5d3128;}.cls-70{fill:#442219;}.cls-71{fill:#692f1d;}</style><linearGradient id="linear-gradient" x1="488.98" y1="330.11" x2="488.98" gradientUnits="userSpaceOnUse"><stop offset="0" stop-color="#321822"/><stop offset="0.31" stop-color="#3c1d22"/><stop offset="0.84" stop-color="#582c24"/><stop offset="1" stop-color="#623124"/></linearGradient><linearGradient id="linear-gradient-2" x1="428.84" y1="623.8" x2="428.84" y2="139.13" gradientUnits="userSpaceOnUse"><stop offset="0" stop-color="#1d0d18"/><stop offset="0.25" stop-color="#251119"/><stop offset="0.65" stop-color="#3c1d1c"/><stop offset="1" stop-color="#552a20"/></linearGradient><linearGradient id="Áåçûìÿííûé_ãðàäèåíò_53" x1="87.88" y1="582.51" x2="171.38" y2="582.51" gradientUnits="userSpaceOnUse"><stop offset="0" stop-color="#b17500"/><stop offset="1" stop-color="#b86600"/></linearGradient><linearGradient id="Áåçûìÿííûé_ãðàäèåíò_4" x1="185.8" y1="584.72" x2="185.8" y2="552.27" gradientUnits="userSpaceOnUse"><stop offset="0" stop-color="#b87251"/><stop offset="1" stop-color="#b67247"/></linearGradient><linearGradient id="linear-gradient-3" x1="-8852.13" y1="406.13" x2="-8852.13" y2="117.4" gradientTransform="matrix(-1, 0, 0, 1, -7852.01, 0)" gradientUnits="userSpaceOnUse"><stop offset="0.28" stop-color="#2a141d"/><stop offset="0.48" stop-color="#34191e"/><stop offset="0.82" stop-color="#502822"/><stop offset="1" stop-color="#623124"/></linearGradient><linearGradient id="linear-gradient-4" x1="897.45" y1="699.22" x2="897.45" y2="243.27" gradientUnits="userSpaceOnUse"><stop offset="0" stop-color="#140914"/><stop offset="0.27" stop-color="#170b15"/><stop offset="0.51" stop-color="#221017"/><stop offset="0.73" stop-color="#33191a"/><stop offset="0.94" stop-color="#4c251e"/><stop offset="1" stop-color="#552a20"/></linearGradient><linearGradient id="linear-gradient-5" x1="130.25" y1="609.16" x2="130.25" y2="253.6" gradientUnits="userSpaceOnUse"><stop offset="0" stop-color="#1d0d18"/><stop offset="0.26" stop-color="#210f19"/><stop offset="0.54" stop-color="#2e161a"/><stop offset="0.82" stop-color="#43211d"/><stop offset="1" stop-color="#552a20"/></linearGradient><linearGradient id="linear-gradient-6" x1="232.9" y1="887.41" x2="232.9" y2="150.35" gradientUnits="userSpaceOnUse"><stop offset="0.05" stop-color="#1d0d18"/><stop offset="0.3" stop-color="#200e18"/><stop offset="0.45" stop-color="#28131a"/><stop offset="0.58" stop-color="#361a1c"/><stop offset="0.69" stop-color="#4b251f"/><stop offset="0.73" stop-color="#552a20"/></linearGradient></defs><g id="Layer_2" data-name="Layer 2"><g id="Rocks"><path class="cls-1" d="M623.28,330.11l10.63-41.66,10.69-20.3s2.79-10.86-15.62-23.63c0,0,1.6-41.5-15.56-70.16H585.55l-15-19.05S553.38,127.25,520,117.24l7.5-24L512.87,65.46S470.56,12.64,450.52,0c0,0-54.29,17.66-76.39,45.71l-7.77,30.21-32.57,51.7s-5.15,110.51,15.45,142.53l20.18-40.42,6.83-27.35S596.92,329.86,623.28,330.11Z"/><path class="cls-2" d="M366.36,75.92l7.77,7.2s8.05,15.5,24.67,24a347.17,347.17,0,0,0,35.59,15.24s-33.82,2.41-48.77,2.63l-31.7,2.66s1.95,20,6.15,23.51c0,0-.1,32.25-15.3,47.38,0,0-10.87-29.35-11-70.89Z"/><path class="cls-3" d="M7.62,593.19l122.62-15.63L158,557l17.43-18s15.65-41.32,36.25-65.26L236,481.1l4.77-13.37s7.76,1.9,21.76-30.53c0,0,13-56.42,24.9-78.68,0,0,15.87-6.65,29.48-26.28L331,313.8s1.1-2.76,9.24-5.1c0,0,2.91-49.46,21.26-94.24,0,0,22.87-38,80.07-51.3l10.78,11.2,4.07-30.17s18.64-21.33,36.44-10.13a388.36,388.36,0,0,1,22.21,71.7l9.5,8.7s25.13,2,40.55,13c0,0,8.57,18.79,11.62,63.43,0,0,41,12.31,72.91,39.42l5.46,16.35L692.56,357s17.3,43.5,14.32,86.17c0,0,24.53,59.51,45.34,87.49l22.3-2.09L850.06,581,655.18,568.22s48,3,51.7,9.34l12.64,15.63S677.72,619.34,549,615s-213.74.49-213.74.49-35.83-8.89-110.77-11.42Z"/><path class="cls-4" d="M655.18,568.22s-72.16-.72-100.48-11l-31.12,11s34.16-18.22,42.8-22.61h12.07L557.9,522.94s11.43-34.37,37.91-48c0,0,58.68-6.85,86.08,13.34l31.51,57.28h-13l18.45,26.78Z"/><path class="cls-5" d="M470.58,613.32l-30.05-18.9H399l26.63-11.92s3.05-40-5.64-66.29l-7.31-4.48V493L402,475,406.06,493l-20.44,3.3s-38.88,28.21-53.87,66l10.37,4.28L316.9,577.11l-83.8-5.23s50,42.53,88.61,49.61S470.58,613.32,470.58,613.32Z"/><path class="cls-6" d="M540.09,431.6s19.52-8.32,36.31-8.73,37.05,0,37.05,0l25.28,7.28s-16.09,1.93-40.75,8.66S540.09,431.6,540.09,431.6Z"/><path class="cls-7" d="M603.34,413.6s24.51-13,36.65-11.68A88,88,0,0,1,659.45,406S652,424.7,637.94,422.07,603.34,413.6,603.34,413.6Z"/><path class="cls-8" d="M554.7,557.24s-23.29,1.8-51.14,25.26l30.88-12.63s41.88,20.06,61.44,23.27,67.52-17.95,67.52-17.95l40.22.16S599.46,554.67,554.7,557.24Z"/><polygon class="cls-9" points="393.27 202.38 416.56 237.77 473.68 245.2 475.5 215.7 453.09 200.83 432.53 185.57 393.27 202.38"/><path class="cls-10" d="M565.12,227.5s-25.49,15-37.82,14.67-27.4-7.33-27.4-7.33L475.5,215.7l-16.65-21.92-6.5-19.42a237.13,237.13,0,0,0,17.39,18.77c10.53,10.26,32.45,9.25,32.45,9.25l12.88,3.38,9.5,8.7S556.81,218.28,565.12,227.5Z"/><path class="cls-11" d="M303.05,411.15l18,4,7.49,7.68s32.62-5.56,45.13-20.53l6.79-12s13.83,9.51,37.4,4.21l5.44-5.63,26.15-1.42L399,382.74a69.66,69.66,0,0,0-25.33-28.26s-21,4.74-36,29.93l-14.38,19.46S316.9,408.84,303.05,411.15Z"/><path class="cls-12" d="M373.69,354.48s-15.79,20.85-34.34,29.39l-2.44,20.88-.63-23.15,1.4-13.35S361.05,349.94,373.69,354.48Z"/><path class="cls-13" d="M376.25,572.73l33-3.84,22.11,13.61,12.87-2.65,39.22,33.61a171.12,171.12,0,0,1-39.22-6.86c-22-6.41-45.21-12.18-45.21-12.18l7-10.06Z"/><path class="cls-14" d="M576.74,290.93s-33,6-44.4,15.62A233.1,233.1,0,0,0,512.87,325H552l24.78-9.16L566.38,325s13.64,23.4,83.27,5.35C649.65,330.35,627.77,304.11,576.74,290.93Z"/><path class="cls-15" d="M112,572s49.77,14.19,59.36,19.19c0,0-49.77,2.24-59.36,1.94s-24.14-10.56-24.14-10.56S100.1,570.72,112,572Z"/><path class="cls-16" d="M159.9,584.72l13.49-14.35,4,1.51s9.48-7.14,12-14l22.29-5.64-20.24,25h-10l-12.77,7.49Z"/><path class="cls-17" d="M399,408.84l26.73,3.24,17.41-5.14,91.29,8.25h42.64l31.27,7.5s-30.85-.42-37.41.58-30.85,8.33-30.85,8.33l17.36,21.48L581.26,475,552,460.4S521.73,441.13,512.87,436s-100-19.72-100-19.72S412.25,418.71,399,408.84Z"/><path class="cls-18" d="M328.55,422.87l45.13-20.53,25.33,6.5s10.05,7.17,21,6.35c0,0,90.27,14.51,103.58,20.59S552,460.4,552,460.4s-5.79,12.07-57,8c0,0,.76-16.65-12.44-24.15,0,0-20.72,13.53-60.35,12.95s-85.78-18.45-85.78-18.45,3.5-10.75,11.13-15.35Z"/><polygon class="cls-19" points="734.64 538.12 758.14 530.11 773.53 533.97 792.63 541.14 763.97 547.73 734.64 538.12"/><polygon class="cls-20" points="627.62 572.39 616.97 591.17 652.43 587.36 706.88 577.56 711.63 583.43 711.63 565.11 705.4 563.57 705.06 568.88 656.86 580.95 627.62 572.39"/><polygon class="cls-21" points="329.85 314.32 331 313.8 342.83 316.93 380.47 312.81 399.1 297.57 425.64 284.9 406.06 272.48 409.91 287.01 389.02 290.93 367.9 296.76 342.46 310.44 339.35 299.89 329.85 314.32"/><g class="cls-22"><path class="cls-23" d="M469.38,529.13c.87,2.32,2.22,4.86,3.67,1.59a5.05,5.05,0,0,0-.47-4.45,2.71,2.71,0,0,0-1.07-.95c-.36-.22-.91-.7-1.36-.58-1.54.41-1.15,4.07-1.15,5.48Z"/><path class="cls-23" d="M469.49,512.05a7.05,7.05,0,0,0-.67-2.21,14.82,14.82,0,0,0-1-2,5.58,5.58,0,0,0-2.62-2.19c-1.61-.44-2.38,1.3-2.89,3.22a.26.26,0,0,0-.21-.06c-.81.09-1.36,1.09-1.38,2.2a7.42,7.42,0,0,0,1.09,3.34c.25.55.5,1.11.78,1.64a.92.92,0,0,0,.5.46,16.29,16.29,0,0,0,.92,4.24c.56,1.24,1.32,2.86,2.37,1.88s1.65-3,2.22-4.54c.4-1.09.54-2.26.85-3.26.19-.62.49-.85.43-1.63C469.88,512.64,469.58,512.48,469.49,512.05Z"/><path class="cls-23" d="M473.65,537.29c-.08.78-.76,4.84.78,4.4.51-.15,1.14-1.37,1.33-2,.54-1.65-.68-3.57-2.05-2.9l-.06.45Z"/><path class="cls-24" d="M360.75,432.91q2.31,1.06,4.76,1.95c-.06-.19.68-.21.86-.29a1.44,1.44,0,0,0,.63-.45,1.72,1.72,0,0,0-.19-1.85,4,4,0,0,0-3.45-1.48,4.82,4.82,0,0,0-2,.3,2,2,0,0,0-.78.53,1.09,1.09,0,0,0-.19.83,1.61,1.61,0,0,0,.72,1.56,1.4,1.4,0,0,0,1,.08c.22-.14.4-.72-.16-.58Z"/><path class="cls-25" d="M544.62,395.35a52.09,52.09,0,0,0,4.77,3.51c-.06-.34.67-.37.86-.51a2.1,2.1,0,0,0,.63-.81,5.29,5.29,0,0,0-.2-3.34,3.61,3.61,0,0,0-3.44-2.66,2.92,2.92,0,0,0-2,.54,2.56,2.56,0,0,0-.77.95,3.17,3.17,0,0,0-.2,1.5,4,4,0,0,0,.73,2.8c.18.17.76.42,1,.15s.41-1.3-.16-1Z"/><path class="cls-23" d="M498.76,536.3a.87.87,0,0,0-.24-.43.46.46,0,0,0-.39-.07,2.73,2.73,0,0,0-1.74,2,.58.58,0,0,0-.19.16,1,1,0,0,0,0,1c.05.08,0,0,0,0s0,.06,0,.08a.14.14,0,0,0,0,.06l0,.14v.08c0,.39.23.71.51.71C498.07,540,499.13,538,498.76,536.3Z"/><path class="cls-24" d="M365.09,437.18a.45.45,0,0,0-.23-.24.76.76,0,0,0-.4,0,2.31,2.31,0,0,0-1.73,1.09.48.48,0,0,0-.19.09.34.34,0,0,0,0,.56c0,.05,0,0,0,0l0,0,0,0a.31.31,0,0,0,0,.08v0a.48.48,0,0,0,.52.4C364.41,439.23,365.46,438.15,365.09,437.18Z"/><path class="cls-23" d="M504.94,531.18a.81.81,0,0,0-.23-.43.47.47,0,0,0-.4-.07,2.72,2.72,0,0,0-1.73,2,.42.42,0,0,0-.19.16,1,1,0,0,0,0,1c0,.07,0,0,0,0a.21.21,0,0,0,0,.07l0,.07a.78.78,0,0,0,0,.14v.07c0,.39.24.72.52.72C504.26,534.87,505.31,532.92,504.94,531.18Z"/><path class="cls-23" d="M485.27,514.69a.76.76,0,0,0-.24-.43.46.46,0,0,0-.39-.07,2.75,2.75,0,0,0-1.74,2,.58.58,0,0,0-.19.16,1,1,0,0,0,0,1c.05.08,0,0,0,0l0,.07a.64.64,0,0,0,0,.07l0,.14v.07c0,.4.23.72.51.72C484.58,518.39,485.64,516.43,485.27,514.69Z"/><path class="cls-23" d="M493.35,523.94c-.51-1.32-1.26-3.29-2.51-3.2s-2,1.54-2.39,3a9.34,9.34,0,0,0-.12,4.21,9,9,0,0,0,.27,1.05,4.83,4.83,0,0,0,1,2.92,2.22,2.22,0,0,0,3.06.46,4.55,4.55,0,0,0,1.61-3.67A12,12,0,0,0,493.35,523.94Z"/><path class="cls-26" d="M374.17,364.68c.87,2.32,2.22,4.86,3.67,1.59a5,5,0,0,0-.47-4.45,2.76,2.76,0,0,0-1.06-.95c-.37-.22-.92-.7-1.37-.58-1.54.41-1.15,4.07-1.15,5.48Z"/><path class="cls-26" d="M378.44,372.84c-.07.78-.76,4.84.79,4.4.5-.15,1.13-1.37,1.32-1.95.54-1.65-.68-3.57-2-2.9,0,.15-.05.3-.07.45Z"/><path class="cls-27" d="M403.55,371.85a.73.73,0,0,0-.24-.42.43.43,0,0,0-.39-.08,2.75,2.75,0,0,0-1.74,2,.58.58,0,0,0-.19.16,1,1,0,0,0,0,1c.05.08,0,0,0,0l0,.08s0,0,0,.06l0,.14v.08c0,.39.23.71.51.71C402.86,375.55,403.92,373.59,403.55,371.85Z"/><path class="cls-27" d="M409.73,366.73a.75.75,0,0,0-.23-.43.47.47,0,0,0-.4-.07,2.72,2.72,0,0,0-1.73,2,.49.49,0,0,0-.19.16,1,1,0,0,0,0,1c0,.07,0,0,0,0a.21.21,0,0,0,0,.07l0,.07s0,.09,0,.14,0,.05,0,.07c0,.4.23.72.51.72C409.05,370.42,410.11,368.47,409.73,366.73Z"/><path class="cls-27" d="M398.14,359.49c-.5-1.32-1.26-3.29-2.51-3.2s-2,1.54-2.39,3a9.49,9.49,0,0,0-.12,4.21,9,9,0,0,0,.27,1.05,4.78,4.78,0,0,0,1,2.92,2.21,2.21,0,0,0,3.05.46,4.55,4.55,0,0,0,1.61-3.67A11.82,11.82,0,0,0,398.14,359.49Z"/><path class="cls-28" d="M290,440.69v0h0v0Z"/><path class="cls-24" d="M291.91,441.89a2.31,2.31,0,0,0-.9-1,.69.69,0,0,0-.11-.68,1.66,1.66,0,0,0-1.37-.54,1.71,1.71,0,0,0-1.32.78,2,2,0,0,0,.4,2.5,2.39,2.39,0,0,0,2.81.2A1.06,1.06,0,0,0,291.91,441.89Zm65.85-5.49a2.38,2.38,0,0,0-.9-1,.69.69,0,0,0-.11-.68,1.65,1.65,0,0,0-1.37-.53,1.67,1.67,0,0,0-1.32.77,2,2,0,0,0,.39,2.5,2.4,2.4,0,0,0,2.82.2A1.07,1.07,0,0,0,357.76,436.4Zm-68.8,5s0-.13,0-.11,0,0,0,0l0-.1a1.17,1.17,0,0,1,.09-.24l.06-.08,0-.05,0-.05.08-.07s.12-.08.06-.05l.12-.05h.1c-.1,0,0,0,.06,0h.06l.13,0c-.1,0,0,0,.07,0h0l0,0,0,0s0,0,0,0h0s0,0,0,0,0,0,0,0h0l0,0a.3.3,0,0,0-.12.17l-.14.09v0a.41.41,0,0,0-.18.12,1.74,1.74,0,0,0-.4.36.76.76,0,0,0-.13.31.31.31,0,0,1,0-.08s0-.08,0-.1A2.26,2.26,0,0,1,289,441.35Z"/><path class="cls-23" d="M488.94,511.59c-.18-.43-.37-.85-.56-1.26a17.65,17.65,0,0,0-1.26-2.36,3.43,3.43,0,0,0-.8-.85.5.5,0,0,0-.34-.18,1.08,1.08,0,0,0-.56-.08,1.9,1.9,0,0,0-1.38,1.55,2.81,2.81,0,0,0,0,1.47h0a.92.92,0,0,0,.18,1l0,0a3.1,3.1,0,0,0,.08,1.09,2.85,2.85,0,0,0,1.33,1.81,3.81,3.81,0,0,0,1.95.38,1.41,1.41,0,0,0,1.49-1.1A2.41,2.41,0,0,0,488.94,511.59Z"/><path class="cls-23" d="M457.61,502.49c3.1,1.43,7,2.32,6-4.28-.43-2.83-2.61-4.73-4.44-4.77a3.58,3.58,0,0,0-2.16.63c-.66.35-1.77.69-2.23,1.6-1.57,3.15,2.09,7.08,3.31,8.85Z"/><path class="cls-23" d="M442.93,480.87a6.14,6.14,0,0,0-2.75-1.63c-1-.25-2-.93-3-.94a7.64,7.64,0,0,0-5.19,1.75c-2.4,2.19-1.86,5.71-.83,9a.64.64,0,0,0-.31.28,5,5,0,0,0,.17,5.13c1.07,1.62,2.81,1.9,4.26,2.34.8.24,1.6.53,2.4.71a1.2,1.2,0,0,0,1-.28c1.49,1.54,3.3,3.22,4.84,3.75,1.78.61,4.13,1.34,4.6-1.69s-.55-6.61-1.15-9.49c-.44-2.06-1.28-3.76-1.76-5.54-.29-1.11-.12-1.91-.88-2.78C443.94,480.94,443.42,481.26,442.93,480.87Z"/><path class="cls-23" d="M470.05,505.45c.58,1.1,3.24,7.36,4.8,4.16.51-1,.23-3.65,0-4.69-.75-3-3.95-3.33-5.08-.15.11.22.21.45.31.68Z"/><path class="cls-27" d="M457.58,294.76c.87,2.32,2.21,4.86,3.67,1.59a5,5,0,0,0-.47-4.44,2.8,2.8,0,0,0-1.07-1c-.37-.22-.92-.7-1.36-.58-1.54.41-1.16,4.07-1.16,5.48Z"/><path class="cls-27" d="M457.69,277.68a7.13,7.13,0,0,0-.67-2.21,14.82,14.82,0,0,0-1-2.05,5.6,5.6,0,0,0-2.63-2.19c-1.6-.44-2.38,1.31-2.88,3.22a.32.32,0,0,0-.21-.06c-.81.09-1.37,1.09-1.38,2.2a7.62,7.62,0,0,0,1.08,3.35c.26.54.5,1.11.79,1.63a.92.92,0,0,0,.5.46,16.29,16.29,0,0,0,.92,4.24c.56,1.25,1.32,2.86,2.37,1.88s1.65-3,2.22-4.54c.4-1.09.54-2.26.85-3.25.19-.62.49-.86.43-1.64C458.08,278.27,457.78,278.11,457.69,277.68Z"/><path class="cls-27" d="M461.85,302.93c-.08.77-.76,4.83.78,4.39.51-.15,1.13-1.37,1.32-1.94.55-1.66-.68-3.58-2-2.91l-.06.46Z"/><path class="cls-27" d="M487,301.94a.72.72,0,0,0-.23-.43.45.45,0,0,0-.4-.08,2.72,2.72,0,0,0-1.73,2,.51.51,0,0,0-.19.17,1,1,0,0,0,0,1c.05.08,0,0,0,0a.26.26,0,0,0,0,.08l0,.06c0,.05,0,.09,0,.14s0,.05,0,.08c0,.39.23.71.51.72C486.27,305.63,487.33,303.68,487,301.94Z"/><path class="cls-27" d="M493.14,296.81a.76.76,0,0,0-.24-.43.46.46,0,0,0-.39-.07,2.75,2.75,0,0,0-1.74,2,.58.58,0,0,0-.19.16,1,1,0,0,0,0,1c.05.08,0,0,0,0l0,.07a.64.64,0,0,0,0,.07l0,.14v.07c0,.4.23.72.51.72C492.45,300.51,493.51,298.55,493.14,296.81Z"/><path class="cls-27" d="M473.47,280.32a.87.87,0,0,0-.24-.43.46.46,0,0,0-.39-.07,2.73,2.73,0,0,0-1.74,2,.58.58,0,0,0-.19.16,1,1,0,0,0,0,1c0,.08,0,0,0,0s0,.06,0,.08l0,.06,0,.14v.08c0,.39.23.71.51.71C472.78,284,473.84,282.06,473.47,280.32Z"/><path class="cls-27" d="M481.55,289.57c-.51-1.32-1.27-3.28-2.51-3.2s-2,1.54-2.39,3a9.35,9.35,0,0,0-.12,4.21,9,9,0,0,0,.27,1,4.77,4.77,0,0,0,1,2.92,2.23,2.23,0,0,0,3.06.47,4.61,4.61,0,0,0,1.61-3.68A12.21,12.21,0,0,0,481.55,289.57Z"/><path class="cls-27" d="M477.14,277.22c-.18-.43-.37-.85-.56-1.26a18.93,18.93,0,0,0-1.27-2.36,3.1,3.1,0,0,0-.8-.85.45.45,0,0,0-.33-.17,1,1,0,0,0-.56-.09,1.9,1.9,0,0,0-1.38,1.55,2.81,2.81,0,0,0,0,1.47h0a.9.9,0,0,0,.18,1l0,0a3.1,3.1,0,0,0,.08,1.09,2.9,2.9,0,0,0,1.33,1.82,3.92,3.92,0,0,0,2,.38,1.42,1.42,0,0,0,1.49-1.1A2.5,2.5,0,0,0,477.14,277.22Z"/><path class="cls-27" d="M445.81,268.12c3.1,1.44,7,2.32,6-4.28-.43-2.82-2.61-4.73-4.44-4.77a3.61,3.61,0,0,0-2.17.63c-.65.35-1.76.69-2.22,1.6-1.57,3.15,2.08,7.08,3.31,8.85Z"/><path class="cls-27" d="M431.13,246.5a6.09,6.09,0,0,0-2.75-1.62,13.84,13.84,0,0,0-3-.95,7.73,7.73,0,0,0-5.2,1.75c-2.4,2.19-1.85,5.71-.82,9a.64.64,0,0,0-.31.28,5,5,0,0,0,.17,5.13c1.07,1.62,2.8,1.9,4.26,2.34.8.24,1.6.54,2.4.71a1.23,1.23,0,0,0,1-.27c1.49,1.53,3.3,3.22,4.84,3.74,1.78.61,4.13,1.34,4.6-1.69s-.55-6.6-1.16-9.49c-.43-2.05-1.28-3.76-1.75-5.54-.29-1.11-.13-1.91-.88-2.78C432.14,246.58,431.62,246.89,431.13,246.5Z"/><path class="cls-27" d="M458.25,271.08c.58,1.1,3.24,7.36,4.79,4.16.51-1,.24-3.65,0-4.69-.75-3-4-3.33-5.08-.15l.31.68Z"/><path class="cls-27" d="M452.28,89.07c.87,2.32,2.22,4.86,3.67,1.59a5,5,0,0,0-.47-4.45,2.76,2.76,0,0,0-1.06-.95c-.37-.22-.92-.7-1.37-.58-1.54.41-1.15,4.07-1.15,5.48Z"/><path class="cls-27" d="M452.39,72a6.87,6.87,0,0,0-.67-2.21,14.82,14.82,0,0,0-1-2,5.58,5.58,0,0,0-2.62-2.19c-1.61-.44-2.38,1.31-2.89,3.22a.25.25,0,0,0-.2-.06c-.82.09-1.37,1.09-1.39,2.2a7.42,7.42,0,0,0,1.09,3.34c.25.55.5,1.12.78,1.64a.92.92,0,0,0,.5.46,16.29,16.29,0,0,0,.92,4.24c.56,1.24,1.32,2.86,2.37,1.88s1.65-3,2.22-4.54c.4-1.09.54-2.26.85-3.25.2-.63.49-.86.43-1.64C452.78,72.58,452.48,72.42,452.39,72Z"/><path class="cls-27" d="M456.55,97.24c-.08.77-.76,4.83.79,4.39.5-.15,1.13-1.37,1.32-1.95.54-1.65-.68-3.57-2-2.9,0,.15-.05.31-.07.46Z"/><path class="cls-27" d="M490,70.43a.79.79,0,0,0-.24-.43.43.43,0,0,0-.39-.08,2.73,2.73,0,0,0-1.74,2,.51.51,0,0,0-.19.17,1,1,0,0,0,0,1c.05.08,0,0,0,0s0,.06,0,.08a.14.14,0,0,0,0,.06l0,.14v.08c0,.39.23.71.51.72C489.26,74.12,490.32,72.17,490,70.43Z"/><path class="cls-27" d="M496.13,65.3a.75.75,0,0,0-.23-.43.47.47,0,0,0-.4-.07,2.72,2.72,0,0,0-1.73,2,.49.49,0,0,0-.19.16,1,1,0,0,0,0,1c0,.08,0,0,0,0a.21.21,0,0,0,0,.07l0,.07a.78.78,0,0,0,0,.14v.07c0,.4.24.72.52.72C495.45,69,496.5,67,496.13,65.3Z"/><path class="cls-27" d="M468.17,74.63a.8.8,0,0,0-.24-.43.46.46,0,0,0-.39-.07,2.75,2.75,0,0,0-1.74,2,.58.58,0,0,0-.19.16,1,1,0,0,0,0,1c.05.08,0,0,0,0a.59.59,0,0,1,0,.08s0,0,0,.06l0,.14v.08c0,.39.23.71.51.71C467.48,78.33,468.54,76.37,468.17,74.63Z"/><path class="cls-27" d="M484.54,58.06c-.51-1.32-1.26-3.28-2.51-3.2s-2,1.54-2.39,3a9.35,9.35,0,0,0-.12,4.21,9,9,0,0,0,.27,1,4.83,4.83,0,0,0,1,2.92,2.23,2.23,0,0,0,3.06.47,4.58,4.58,0,0,0,1.61-3.68A12,12,0,0,0,484.54,58.06Z"/><path class="cls-27" d="M480.13,45.71c-.18-.43-.36-.85-.56-1.26a17.65,17.65,0,0,0-1.26-2.36,3.43,3.43,0,0,0-.8-.85.45.45,0,0,0-.34-.17,1.09,1.09,0,0,0-.56-.09,1.9,1.9,0,0,0-1.38,1.55,2.81,2.81,0,0,0,0,1.47h0a.94.94,0,0,0,.18,1l0,0a3.1,3.1,0,0,0,.08,1.09,2.87,2.87,0,0,0,1.33,1.82,3.92,3.92,0,0,0,1.95.38,1.42,1.42,0,0,0,1.49-1.1A2.43,2.43,0,0,0,480.13,45.71Z"/><path class="cls-27" d="M440.52,62.43c3.09,1.44,7,2.32,6-4.28-.43-2.82-2.61-4.73-4.44-4.77a3.58,3.58,0,0,0-2.16.63c-.66.35-1.77.69-2.22,1.6-1.58,3.15,2.08,7.08,3.3,8.85Z"/><path class="cls-27" d="M425.83,40.81a6,6,0,0,0-2.75-1.62c-1-.26-2-.94-3-.95A7.64,7.64,0,0,0,414.9,40c-2.4,2.19-1.86,5.71-.83,9a.64.64,0,0,0-.31.28,5,5,0,0,0,.17,5.13c1.07,1.62,2.81,1.9,4.26,2.34.8.24,1.6.54,2.4.71a1.2,1.2,0,0,0,1-.28c1.49,1.54,3.3,3.23,4.84,3.75,1.78.61,4.13,1.34,4.6-1.69s-.55-6.61-1.15-9.49c-.44-2.06-1.28-3.76-1.76-5.54-.29-1.11-.12-1.91-.88-2.78C426.84,40.89,426.32,41.2,425.83,40.81Z"/><path class="cls-27" d="M453,65.39c.58,1.1,3.24,7.36,4.8,4.16.51-1,.23-3.65,0-4.69-.75-3-4-3.33-5.08-.15.11.22.21.45.31.68Z"/><path class="cls-25" d="M615.15,386.26c.86,2.32,2.21,4.86,3.66,1.59a5,5,0,0,0-.47-4.44,2.61,2.61,0,0,0-1.06-1c-.37-.23-.92-.71-1.37-.59-1.54.42-1.15,4.07-1.15,5.48Z"/><path class="cls-25" d="M572,375.74a6.74,6.74,0,0,0-.67-2.2,15.56,15.56,0,0,0-.95-2.06,5.71,5.71,0,0,0-2.63-2.19c-1.61-.44-2.38,1.31-2.89,3.22a.3.3,0,0,0-.2-.06c-.81.09-1.37,1.09-1.39,2.21a7.5,7.5,0,0,0,1.09,3.34c.26.54.5,1.11.78,1.63a1,1,0,0,0,.5.46,16.71,16.71,0,0,0,.92,4.24c.56,1.25,1.32,2.86,2.37,1.88s1.65-3,2.22-4.54c.41-1.08.54-2.26.85-3.25.2-.62.49-.86.43-1.63C572.36,376.34,572.05,376.17,572,375.74Z"/><path class="cls-25" d="M619.41,394.43c-.07.78-.76,4.83.79,4.39.5-.14,1.13-1.37,1.32-1.94.55-1.66-.68-3.58-2-2.9,0,.15-.05.3-.07.45Z"/><path class="cls-25" d="M644.52,393.44a.73.73,0,0,0-.24-.43.43.43,0,0,0-.39-.07,2.71,2.71,0,0,0-1.74,2,.41.41,0,0,0-.19.16,1,1,0,0,0,0,1c0,.07,0,0,0,0l0,.07a.14.14,0,0,1,0,.06l0,.14v.08c0,.39.24.71.51.72C643.84,397.13,644.89,395.18,644.52,393.44Z"/><path class="cls-25" d="M631,371.83a.72.72,0,0,0-.23-.43.42.42,0,0,0-.4-.07,2.68,2.68,0,0,0-1.73,2,.37.37,0,0,0-.19.16,1,1,0,0,0,0,1c0,.08,0,0,0,0a.19.19,0,0,0,0,.08l0,.06a.59.59,0,0,0,0,.14v.08c0,.39.24.71.52.72C630.35,375.52,631.4,373.57,631,371.83Z"/><path class="cls-25" d="M639.12,381.07c-.51-1.31-1.27-3.28-2.52-3.2s-2,1.54-2.39,3a9.49,9.49,0,0,0-.12,4.21,9,9,0,0,0,.27,1,4.87,4.87,0,0,0,1,2.93,2.23,2.23,0,0,0,3.06.46,4.65,4.65,0,0,0,1.61-3.68A12.21,12.21,0,0,0,639.12,381.07Z"/><path class="cls-25" d="M634.7,368.72c-.17-.43-.36-.85-.56-1.26a16.94,16.94,0,0,0-1.26-2.35,3.27,3.27,0,0,0-.8-.85.46.46,0,0,0-.34-.18,1.18,1.18,0,0,0-.56-.09,1.89,1.89,0,0,0-1.37,1.55,2.62,2.62,0,0,0,0,1.47h0a.9.9,0,0,0,.19,1l0,0a3.3,3.3,0,0,0,.09,1.08,2.86,2.86,0,0,0,1.32,1.82,4,4,0,0,0,2,.38,1.41,1.41,0,0,0,1.48-1.1A2.37,2.37,0,0,0,634.7,368.72Z"/><path class="cls-25" d="M615.81,362.58c.59,1.1,3.24,7.36,4.8,4.17.51-1,.23-3.65,0-4.7-.75-3-4-3.33-5.07-.15l.3.68Z"/><path class="cls-29" d="M711.45,516.34c.87,2.32,2.22,4.86,3.67,1.59a5,5,0,0,0-.47-4.44,2.71,2.71,0,0,0-1.06-1c-.37-.22-.92-.7-1.37-.58-1.54.41-1.15,4.07-1.15,5.48Z"/><path class="cls-29" d="M715.72,524.51c-.07.77-.76,4.83.79,4.39.5-.15,1.13-1.37,1.32-1.94.54-1.66-.68-3.58-2-2.9,0,.15,0,.3-.07.45Z"/><path class="cls-29" d="M740.83,523.52a.73.73,0,0,0-.24-.43.43.43,0,0,0-.39-.08,2.74,2.74,0,0,0-1.74,2,.41.41,0,0,0-.19.16,1,1,0,0,0,0,1c.05.08,0,0,0,0l0,.08,0,.06,0,.14v.08c0,.39.23.71.51.72C740.14,527.21,741.2,525.26,740.83,523.52Z"/><path class="cls-29" d="M727.34,501.91a.73.73,0,0,0-.24-.43.43.43,0,0,0-.39-.08,2.75,2.75,0,0,0-1.74,2,.48.48,0,0,0-.18.17.94.94,0,0,0,0,1c0,.08,0,0,0,0l0,.08a.14.14,0,0,1,0,.06l0,.14v.08c0,.39.24.71.51.72C726.66,505.6,727.71,503.65,727.34,501.91Z"/><path class="cls-29" d="M735.42,511.15c-.5-1.32-1.26-3.28-2.51-3.2s-2,1.54-2.39,3a9.49,9.49,0,0,0-.12,4.21,9,9,0,0,0,.27,1,4.83,4.83,0,0,0,1,2.93,2.22,2.22,0,0,0,3,.46,4.58,4.58,0,0,0,1.61-3.68A11.85,11.85,0,0,0,735.42,511.15Z"/><path class="cls-29" d="M731,498.8c-.17-.43-.36-.85-.56-1.26a17.65,17.65,0,0,0-1.26-2.36,3.43,3.43,0,0,0-.8-.85.45.45,0,0,0-.34-.17,1.09,1.09,0,0,0-.56-.09,1.89,1.89,0,0,0-1.37,1.55,2.71,2.71,0,0,0,0,1.47h0a.94.94,0,0,0,.18,1l0,0a2.88,2.88,0,0,0,.09,1.09,2.83,2.83,0,0,0,1.32,1.82,4,4,0,0,0,2,.38,1.41,1.41,0,0,0,1.48-1.1A2.37,2.37,0,0,0,731,498.8Z"/><path class="cls-29" d="M712.12,492.66c.58,1.1,3.24,7.36,4.8,4.17.51-1.05.23-3.66,0-4.7-.75-3-3.95-3.33-5.08-.15l.31.68Z"/><path class="cls-24" d="M353.4,457.74a1.17,1.17,0,0,0-.67-.08,1.13,1.13,0,0,0-.56.33,2.63,2.63,0,0,0-.47,3,.6.6,0,0,0-.1.3c0,.4.38.67.88.7h-.06l.11,0,.09,0,.15.07.07.05a1.1,1.1,0,0,0,1.26,0A2.53,2.53,0,0,0,353.4,457.74Z"/><path class="cls-24" d="M356.72,448.29a1.17,1.17,0,0,0-.67-.07,1,1,0,0,0-.56.32,2.66,2.66,0,0,0-.48,3,.45.45,0,0,0-.09.29c0,.4.38.67.88.71h-.06l.11,0,.08,0,.16.07.07,0a1.1,1.1,0,0,0,1.26,0A2.53,2.53,0,0,0,356.72,448.29Z"/><path class="cls-24" d="M335.89,454.25c-1.78-.44-4.44-1.09-5.93.15s-1.17,3-.43,4.34a7.54,7.54,0,0,0,3.5,3.05,10.37,10.37,0,0,0,1.25.47,6,6,0,0,0,3.82,1.07,5,5,0,0,0,4.24-2.58,3.45,3.45,0,0,0-1.17-4.1A12.43,12.43,0,0,0,335.89,454.25Z"/></g><polygon class="cls-30" points="585.55 174.36 563.23 185.57 537.17 194.16 572.4 190.75 585.55 187.87 613.42 174.36 585.55 174.36"/><path class="cls-2" d="M520,117.24s-13-7.15-25.6-5.77l-22.6,11-25.54-5.11s20.54-4,24.3-5.93c0,0,13.8-22.66,23.84-28.91s33.1,10.67,33.1,10.67Z"/><path class="cls-31" d="M374.13,45.71s18.62-.48,42.28-7.62l-7.17-3.19s16.47-2.34,31-8.11,14.3-11.34,14.3-11.34L450.52,0S391.76,19,374.13,45.71Z"/><polygon class="cls-30" points="620.97 190.75 620.97 190.75 605.88 183.21 575.29 179.51 563.23 185.57 588.27 187.87 609.18 191.81 618.27 190.74 620.97 190.75"/><polygon class="cls-21" points="337.74 315.78 349.24 311 339.35 320.06 323.29 342.72 315.5 342.72 316.9 340.11 319.46 340.11 337.74 315.78"/><path class="cls-32" d="M1127,143.48c-25.17-16.32-59.46-26.08-59.46-26.08-20,11.06-62.34,57.26-62.34,57.26L990.5,199l7.5,21c-33.37,8.75-50.51,33.3-50.51,33.3l-15,16.66H904.6C887.44,295,889,331.27,889,331.27c-18.4,11.17-15.61,20.67-15.61,20.67l10.69,17.76,10.62,36.43C917,406,1077.07,326.78,1127,301.85Z"/><path class="cls-33" d="M1127,206.84a55.34,55.34,0,0,1-7.73,4.23,375.16,375.16,0,0,1-35.59,13.33s26.9,1.67,43.32,2.17Z"/><path class="cls-34" d="M1127,279.45c-12.4-7.56-29-15-50.5-19.34l-10.79,9.8-4.06-26.39s-18.64-18.66-36.44-8.86A310.18,310.18,0,0,0,1003,297.38l-9.5,7.6s-25.14,1.75-40.55,11.41c0,0-8.58,16.43-11.62,55.47,0,0-40.95,10.77-72.91,34.49l-5.46,14.29-37.45,9s-17.3,38-14.33,75.36c0,0-24.52,52.05-45.34,76.53l-22.29-1.83L668,625.57l194.43-11.15.44,0-.44,0c-4.83.28-47.75,2.93-51.26,8.14L798.5,636.24S840.3,659.11,969,655.32c66-2,120.49-1.79,157.94-1.17Z"/><path class="cls-35" d="M862.83,614.4s72.17-.64,100.48-9.61l31.12,9.61s-34.15-15.94-42.79-19.78H939.57l20.55-19.82s-11.43-30.07-37.91-41.95c0,0-58.68-6-86.08,11.67l-31.51,50.1h13l-18.45,23.43Z"/><path class="cls-35" d="M1127,550.76l-15-2.12,4.11-15.79-10.73,15.79V565l-7.31,3.93c-8.69,23-5.64,58-5.64,58L1119,637.31h-41.53l-30,16.53s39.51,4.78,79.51,7.29Z"/><path class="cls-36" d="M977.93,494.9s-19.53-7.28-36.31-7.63-37,0-37,0l-25.29,6.37s16.1,1.68,40.76,7.57S977.93,494.9,977.93,494.9Z"/><path class="cls-36" d="M914.68,479.16S890.17,467.79,878,468.94a98.78,98.78,0,0,0-19.46,3.56s7.47,16.37,21.51,14.07S914.68,479.16,914.68,479.16Z"/><path class="cls-37" d="M963.31,604.79s23.29,1.58,51.15,22.1l-30.89-11s-41.87,17.55-61.43,20.35-67.52-15.7-67.52-15.7l-40.22.15S918.56,602.55,963.31,604.79Z"/><polygon class="cls-38" points="1124.75 294.42 1101.46 325.37 1044.34 331.87 1042.52 306.06 1064.92 293.06 1085.49 279.71 1124.75 294.42"/><path class="cls-38" d="M952.9,316.39s25.48,13.11,37.81,12.83,27.4-6.42,27.4-6.42l24.41-16.73,16.64-19.18,6.5-17a220,220,0,0,1-17.38,16.42c-10.53,9-32.45,8.09-32.45,8.09l-12.88,3-9.5,7.6S961.21,308.32,952.9,316.39Z"/><path class="cls-39" d="M1127,441.17a53.7,53.7,0,0,0-7.94,11l-50.45,4.19,26.15,1.24,5.43,4.93a65.77,65.77,0,0,0,26.81.05Z"/><path class="cls-40" d="M1127,623.42v-6.59L1108.78,615l-22.11,11.91-12.87-2.32L1034.57,654a194.05,194.05,0,0,0,39.23-6c22-5.6,45.21-10.65,45.21-10.65l-7-8.79Z"/><path class="cls-41" d="M941.28,371.86s33,5.22,44.4,13.67a222.5,222.5,0,0,1,19.47,16.14h-39.1l-24.77-8,10.36,8s-13.64,20.46-83.28,4.68C868.36,406.35,890.24,383.39,941.28,371.86Z"/><path class="cls-35" d="M1119,475l-26.73,2.84-17.41-4.49-91.3,7.21H940.94l-31.27,6.56s30.85-.37,37.4.5,30.86,7.29,30.86,7.29l-17.36,18.79-23.81,19.16,29.29-12.76s30.24-16.85,39.1-21.3,100-17.25,100-17.25S1105.77,483.63,1119,475Z"/><path class="cls-36" d="M1127,473.21,1119,475s-10.06,6.28-21,5.56c0,0-90.27,12.69-103.59,18s-28.38,21.54-28.38,21.54,5.8,10.56,57,7c0,0-.76-14.56,12.44-21.12,0,0,20.72,11.83,60.35,11.32a218.92,218.92,0,0,0,31.09-2.89Z"/><polygon class="cls-42" points="783.38 588.07 759.88 581.06 744.49 584.44 725.38 590.71 754.04 596.48 783.38 588.07"/><polygon class="cls-43" points="890.4 618.05 901.05 634.47 865.58 631.14 811.13 622.56 806.38 627.7 806.38 611.67 812.62 610.33 812.96 614.98 861.16 625.53 890.4 618.05"/><polygon class="cls-44" points="1126.95 371.53 1108.11 368.43 1111.95 355.73 1092.38 366.59 1118.91 377.68 1126.95 383.42 1126.95 371.53"/><g class="cls-22"><path class="cls-45" d="M973.4,463.19a50.76,50.76,0,0,1-4.77,3.07c.06-.29-.68-.32-.86-.44a1.9,1.9,0,0,1-.63-.71,4.08,4.08,0,0,1,.19-2.92,3.6,3.6,0,0,1,3.45-2.33,3.23,3.23,0,0,1,2,.48,2.22,2.22,0,0,1,.77.83,2.46,2.46,0,0,1,.19,1.31,3.13,3.13,0,0,1-.72,2.44c-.19.16-.76.37-1,.14s-.4-1.14.16-.91Z"/><path class="cls-46" d="M1114.47,442.65a.63.63,0,0,1,.24-.38.49.49,0,0,1,.39-.06,2.52,2.52,0,0,1,1.74,1.71.52.52,0,0,1,.19.14.77.77,0,0,1,0,.89l0,0,0,.06a.14.14,0,0,0,0,.06l0,.12v.07a.6.6,0,0,1-.51.63C1115.15,445.88,1114.1,444.17,1114.47,442.65Z"/><path class="cls-46" d="M1108.29,438.16a.62.62,0,0,1,.23-.37.49.49,0,0,1,.39-.06,2.5,2.5,0,0,1,1.74,1.71.52.52,0,0,1,.19.14.75.75,0,0,1,0,.89c0,.07,0,0,0,0s0,0,0,.06l0,.06,0,.12v.07a.59.59,0,0,1-.51.63C1109,441.4,1107.91,439.69,1108.29,438.16Z"/><path class="cls-46" d="M1119.87,431.83c.51-1.15,1.27-2.87,2.52-2.8s2,1.35,2.39,2.59a7.28,7.28,0,0,1,.12,3.68,7.45,7.45,0,0,1-.27.92,3.94,3.94,0,0,1-1,2.56,2.45,2.45,0,0,1-3.06.4,3.85,3.85,0,0,1-1.61-3.21A9.55,9.55,0,0,1,1119.87,431.83Z"/><path class="cls-47" d="M1060.44,375.22c-.87,2-2.22,4.25-3.67,1.38a3.93,3.93,0,0,1,.47-3.88,2.63,2.63,0,0,1,1.07-.84c.36-.19.92-.61,1.36-.51,1.54.37,1.16,3.56,1.16,4.8Z"/><path class="cls-47" d="M1060.33,360.27a5.58,5.58,0,0,1,.67-1.92,11.87,11.87,0,0,1,1-1.8,5.47,5.47,0,0,1,2.63-1.92c1.6-.38,2.38,1.15,2.88,2.82a.3.3,0,0,1,.21-.05,1.8,1.8,0,0,1,1.38,1.93,6.09,6.09,0,0,1-1.08,2.92c-.26.47-.51,1-.79,1.43a.87.87,0,0,1-.5.4,12.77,12.77,0,0,1-.92,3.71c-.56,1.09-1.32,2.5-2.37,1.64s-1.65-2.63-2.22-4c-.4-.95-.54-2-.85-2.84-.19-.55-.49-.75-.43-1.43C1059.94,360.8,1060.24,360.65,1060.33,360.27Z"/><path class="cls-47" d="M1056.17,382.36c.08.68.76,4.22-.78,3.84-.51-.13-1.14-1.2-1.32-1.7-.55-1.45.67-3.13,2-2.54l.06.4Z"/><path class="cls-47" d="M1031.06,381.49a.65.65,0,0,1,.24-.37.5.5,0,0,1,.39-.07,2.54,2.54,0,0,1,1.74,1.72.43.43,0,0,1,.19.14.75.75,0,0,1,0,.89c0,.06,0,0,0,0s0,.05,0,.07l0,.05,0,.13v.06a.58.58,0,0,1-.51.63C1031.75,384.72,1030.69,383,1031.06,381.49Z"/><path class="cls-47" d="M1024.88,377a.7.7,0,0,1,.23-.38.52.52,0,0,1,.4-.06,2.56,2.56,0,0,1,1.74,1.72.4.4,0,0,1,.18.14.75.75,0,0,1,0,.89c0,.06,0,0,0,0a.21.21,0,0,1,0,.07s0,0,0,0l0,.12v.07a.59.59,0,0,1-.51.63C1025.56,380.24,1024.51,378.53,1024.88,377Z"/><path class="cls-47" d="M1044.55,362.59a.66.66,0,0,1,.24-.38.49.49,0,0,1,.39-.06,2.56,2.56,0,0,1,1.74,1.71.55.55,0,0,1,.19.15.75.75,0,0,1,0,.88l0,0,0,.07s0,0,0,.05l0,.12v.07a.59.59,0,0,1-.51.63C1045.24,365.82,1044.18,364.11,1044.55,362.59Z"/><path class="cls-47" d="M1036.47,370.68c.51-1.16,1.26-2.88,2.51-2.8s2,1.34,2.39,2.58a7.21,7.21,0,0,1,.12,3.69,6.83,6.83,0,0,1-.27.91,3.91,3.91,0,0,1-1,2.56,2.44,2.44,0,0,1-3.06.41,3.83,3.83,0,0,1-1.61-3.22A9.47,9.47,0,0,1,1036.47,370.68Z"/><path class="cls-47" d="M1040.88,359.87c.18-.37.37-.74.56-1.1a14.72,14.72,0,0,1,1.26-2.06,3.11,3.11,0,0,1,.8-.74.52.52,0,0,1,.34-.16,1.19,1.19,0,0,1,.56-.07,1.76,1.76,0,0,1,1.38,1.35,2.18,2.18,0,0,1,0,1.29h0a.74.74,0,0,1-.18.86l0,0a2.41,2.41,0,0,1-.08,1,2.56,2.56,0,0,1-1.33,1.58,4.38,4.38,0,0,1-1.95.34,1.41,1.41,0,0,1-1.49-1A1.9,1.9,0,0,1,1040.88,359.87Z"/><path class="cls-47" d="M1072.21,351.92c-3.1,1.25-7,2-6-3.75a5,5,0,0,1,4.44-4.17,3.89,3.89,0,0,1,2.16.55c.66.3,1.77.6,2.23,1.4,1.57,2.75-2.09,6.19-3.31,7.74Z"/><path class="cls-47" d="M1086.89,333a6.37,6.37,0,0,1,2.75-1.43,15.08,15.08,0,0,1,3-.82,8.44,8.44,0,0,1,5.2,1.53c2.39,1.91,1.85,5,.82,7.84a.68.68,0,0,1,.31.25,3.91,3.91,0,0,1-.17,4.49c-1.07,1.41-2.81,1.66-4.26,2-.8.21-1.6.47-2.4.62a1.29,1.29,0,0,1-1-.24,15.15,15.15,0,0,1-4.84,3.28c-1.78.53-4.13,1.17-4.6-1.48s.55-5.78,1.15-8.3c.44-1.8,1.28-3.29,1.76-4.85.29-1,.12-1.67.88-2.43C1085.88,333.07,1086.4,333.34,1086.89,333Z"/><path class="cls-47" d="M1059.77,354.5c-.58,1-3.24,6.44-4.8,3.65-.51-.92-.23-3.2,0-4.11.75-2.63,4-2.91,5.08-.13l-.31.59Z"/><path class="cls-48" d="M1065.73,195.31c-.86,2-2.21,4.25-3.66,1.39a3.92,3.92,0,0,1,.47-3.89,2.64,2.64,0,0,1,1.06-.83c.37-.2.92-.62,1.37-.51,1.54.36,1.15,3.56,1.15,4.79Z"/><path class="cls-48" d="M1065.63,180.37a5.42,5.42,0,0,1,.67-1.93,13.37,13.37,0,0,1,1-1.8,5.61,5.61,0,0,1,2.63-1.91c1.61-.39,2.38,1.14,2.89,2.81a.29.29,0,0,1,.2,0,1.83,1.83,0,0,1,1.39,1.93,6,6,0,0,1-1.09,2.92c-.26.48-.5,1-.78,1.43a.9.9,0,0,1-.5.4,13.09,13.09,0,0,1-.92,3.71c-.56,1.09-1.32,2.5-2.37,1.65s-1.65-2.64-2.22-4c-.41-.94-.54-2-.85-2.84-.2-.54-.49-.75-.43-1.43C1065.23,180.89,1065.54,180.74,1065.63,180.37Z"/><path class="cls-48" d="M1061.47,202.45c.07.68.76,4.23-.79,3.84-.5-.12-1.13-1.2-1.32-1.7-.54-1.45.68-3.13,2-2.54,0,.14,0,.27.07.4Z"/><path class="cls-48" d="M1028.07,179a.61.61,0,0,1,.24-.37.46.46,0,0,1,.39-.07,2.56,2.56,0,0,1,1.74,1.72.43.43,0,0,1,.19.14.77.77,0,0,1,0,.89c-.05.06,0,0,0,0l0,.07,0,0,0,.12v.07a.58.58,0,0,1-.51.63C1028.76,182.23,1027.7,180.52,1028.07,179Z"/><path class="cls-48" d="M1021.89,174.52a.65.65,0,0,1,.23-.38.51.51,0,0,1,.4-.06,2.53,2.53,0,0,1,1.73,1.72.43.43,0,0,1,.19.14.75.75,0,0,1,0,.89c0,.06,0,0,0,0a.21.21,0,0,1,0,.07l0,0s0,.08,0,.12,0,.05,0,.07a.59.59,0,0,1-.51.63C1022.57,177.75,1021.51,176,1021.89,174.52Z"/><path class="cls-48" d="M1049.85,182.68a.61.61,0,0,1,.24-.37.49.49,0,0,1,.39-.07,2.56,2.56,0,0,1,1.74,1.72.4.4,0,0,1,.18.14.75.75,0,0,1,0,.89l0,0,0,.07,0,0,0,.12v.07a.59.59,0,0,1-.51.63C1050.53,185.91,1049.48,184.2,1049.85,182.68Z"/><path class="cls-48" d="M1033.48,168.19c.5-1.16,1.26-2.88,2.51-2.81s2,1.35,2.39,2.59a7.32,7.32,0,0,1,.12,3.69,6.83,6.83,0,0,1-.27.91,3.87,3.87,0,0,1-1,2.56,2.43,2.43,0,0,1-3,.41,3.81,3.81,0,0,1-1.61-3.22A9.2,9.2,0,0,1,1033.48,168.19Z"/><path class="cls-48" d="M1037.89,157.38c.17-.37.36-.74.56-1.1a14.72,14.72,0,0,1,1.26-2.06,3.11,3.11,0,0,1,.8-.74.52.52,0,0,1,.34-.16,1.17,1.17,0,0,1,.56-.07,1.74,1.74,0,0,1,1.37,1.35,2.1,2.1,0,0,1,0,1.29h0a.74.74,0,0,1-.18.86l0,0a2.19,2.19,0,0,1-.09.95,2.51,2.51,0,0,1-1.32,1.59,4.42,4.42,0,0,1-2,.34,1.4,1.4,0,0,1-1.48-1A1.84,1.84,0,0,1,1037.89,157.38Z"/><path class="cls-48" d="M1077.5,172c-3.1,1.25-7,2-6-3.74a5,5,0,0,1,4.45-4.18,4,4,0,0,1,2.16.55c.66.31,1.77.6,2.22,1.4,1.57,2.76-2.08,6.19-3.3,7.74Z"/><path class="cls-48" d="M1092.19,153.1a6.24,6.24,0,0,1,2.75-1.42,14.46,14.46,0,0,1,3-.83,8.39,8.39,0,0,1,5.19,1.53c2.4,1.92,1.86,5,.83,7.84a.73.73,0,0,1,.31.25,3.93,3.93,0,0,1-.17,4.49c-1.08,1.42-2.81,1.66-4.27,2-.79.21-1.59.47-2.39.62a1.28,1.28,0,0,1-1-.24,15,15,0,0,1-4.84,3.28c-1.78.53-4.14,1.17-4.61-1.48s.55-5.78,1.16-8.3c.43-1.8,1.28-3.29,1.75-4.84.3-1,.13-1.67.88-2.44C1091.18,153.16,1091.7,153.44,1092.19,153.1Z"/><path class="cls-48" d="M1065.07,174.59c-.58,1-3.24,6.44-4.8,3.65-.51-.91-.23-3.19,0-4.11.75-2.63,4-2.91,5.08-.13l-.31.59Z"/><path class="cls-45" d="M902.87,455.25c-.86,2-2.21,4.25-3.67,1.39a3.94,3.94,0,0,1,.47-3.89,2.73,2.73,0,0,1,1.07-.83c.37-.2.92-.62,1.37-.51,1.53.36,1.15,3.56,1.15,4.79Z"/><path class="cls-45" d="M946.06,446.05a5.34,5.34,0,0,1,.66-1.93,12.83,12.83,0,0,1,1-1.8,5.52,5.52,0,0,1,2.63-1.92c1.61-.38,2.38,1.15,2.88,2.82a.33.33,0,0,1,.21-.05,1.83,1.83,0,0,1,1.39,1.93A6.1,6.1,0,0,1,953.7,448c-.26.47-.5,1-.78,1.43a.9.9,0,0,1-.5.4,12.76,12.76,0,0,1-.93,3.71c-.55,1.09-1.31,2.5-2.37,1.64s-1.64-2.63-2.21-4c-.41-1-.54-2-.86-2.84-.19-.55-.48-.75-.42-1.43C945.66,446.57,946,446.42,946.06,446.05Z"/><path class="cls-45" d="M898.61,462.39c.07.68.75,4.23-.79,3.84-.51-.12-1.13-1.19-1.32-1.7-.55-1.44.68-3.13,2-2.53,0,.13,0,.26.07.39Z"/><path class="cls-45" d="M873.5,461.52a.62.62,0,0,1,.23-.37.51.51,0,0,1,.4-.06,2.49,2.49,0,0,1,1.73,1.71.45.45,0,0,1,.19.14.75.75,0,0,1,0,.89c0,.07,0,0,0,0s0,0,0,.06l0,.06a.5.5,0,0,1,0,.12v.07a.59.59,0,0,1-.52.62C874.18,464.75,873.13,463.05,873.5,461.52Z"/><path class="cls-45" d="M887,442.62a.62.62,0,0,1,.23-.37.51.51,0,0,1,.4-.07,2.53,2.53,0,0,1,1.73,1.72.43.43,0,0,1,.19.14.75.75,0,0,1,0,.89c0,.07,0,0,0,0a.21.21,0,0,1,0,.07l0,.05s0,.09,0,.13a.13.13,0,0,0,0,.06.58.58,0,0,1-.51.63C887.67,445.85,886.61,444.14,887,442.62Z"/><path class="cls-45" d="M878.9,450.71c.51-1.15,1.27-2.87,2.52-2.8s2,1.34,2.38,2.59a7.28,7.28,0,0,1,.13,3.68,6.08,6.08,0,0,1-.28.92,3.9,3.9,0,0,1-1,2.56,2.45,2.45,0,0,1-3.06.4,3.85,3.85,0,0,1-1.61-3.21A9.49,9.49,0,0,1,878.9,450.71Z"/><path class="cls-45" d="M883.31,439.91c.18-.38.37-.75.56-1.11a15.79,15.79,0,0,1,1.27-2.06,3,3,0,0,1,.8-.74.46.46,0,0,1,.33-.15,1.21,1.21,0,0,1,.56-.08,1.76,1.76,0,0,1,1.38,1.35,2.1,2.1,0,0,1,0,1.29h0a.72.72,0,0,1-.19.86l0,0a2.38,2.38,0,0,1-.08.95,2.59,2.59,0,0,1-1.32,1.59,4.41,4.41,0,0,1-2,.33,1.4,1.4,0,0,1-1.48-1A1.87,1.87,0,0,1,883.31,439.91Z"/><path class="cls-45" d="M902.2,434.54c-.58,1-3.24,6.43-4.79,3.64-.51-.91-.24-3.19,0-4.11.75-2.63,4-2.91,5.08-.13-.1.2-.2.4-.31.6Z"/><path class="cls-49" d="M806.56,569c-.86,2-2.21,4.25-3.66,1.39a3.92,3.92,0,0,1,.47-3.89,2.73,2.73,0,0,1,1.06-.83c.37-.19.92-.62,1.37-.51,1.54.36,1.15,3.56,1.15,4.79Z"/><path class="cls-49" d="M802.3,576.16c.07.68.76,4.23-.79,3.84-.5-.12-1.13-1.19-1.32-1.69-.55-1.45.68-3.13,2-2.54,0,.13,0,.26.07.39Z"/><path class="cls-49" d="M777.19,575.3a.66.66,0,0,1,.24-.38.49.49,0,0,1,.39-.06,2.52,2.52,0,0,1,1.74,1.71.52.52,0,0,1,.19.14.78.78,0,0,1,0,.89l0,0,0,.06a.14.14,0,0,0,0,.06l0,.12v.07a.6.6,0,0,1-.51.63C777.87,578.53,776.82,576.82,777.19,575.3Z"/><path class="cls-49" d="M790.68,556.39a.62.62,0,0,1,.23-.37.51.51,0,0,1,.4-.06,2.49,2.49,0,0,1,1.73,1.71.45.45,0,0,1,.19.14.75.75,0,0,1,0,.89c0,.07,0,0,0,0s0,0,0,.06l0,.06a.5.5,0,0,1,0,.12V559a.61.61,0,0,1-.52.63C791.36,559.63,790.31,557.92,790.68,556.39Z"/><path class="cls-49" d="M782.59,564.48c.51-1.15,1.27-2.87,2.52-2.8s2,1.35,2.39,2.59a7.29,7.29,0,0,1-.15,4.6,3.92,3.92,0,0,1-1,2.56,2.44,2.44,0,0,1-3.06.4,3.84,3.84,0,0,1-1.61-3.21A9.55,9.55,0,0,1,782.59,564.48Z"/><path class="cls-49" d="M787,553.68c.17-.38.36-.74.56-1.1a14.16,14.16,0,0,1,1.26-2.06,3.15,3.15,0,0,1,.8-.75.46.46,0,0,1,.34-.15,1.32,1.32,0,0,1,.56-.08,1.76,1.76,0,0,1,1.37,1.36,2,2,0,0,1,0,1.28h0a.73.73,0,0,1-.19.86l0,0a2.58,2.58,0,0,1-.09.95,2.54,2.54,0,0,1-1.32,1.59,4.41,4.41,0,0,1-2,.33,1.39,1.39,0,0,1-1.48-1A1.82,1.82,0,0,1,787,553.68Z"/><path class="cls-49" d="M805.9,548.31c-.59,1-3.24,6.44-4.8,3.64-.51-.91-.23-3.19,0-4.1.75-2.64,4-2.92,5.07-.14l-.3.6Z"/></g><polygon class="cls-50" points="932.47 269.91 954.79 279.71 980.85 287.22 945.62 284.24 932.47 281.72 904.6 269.91 932.47 269.91"/><path class="cls-33" d="M998,220s13-6.26,25.6-5l22.6,9.65,25.54-4.46s-20.54-3.45-24.3-5.19c0,0-13.8-19.82-23.84-25.29S990.5,199,990.5,199Z"/><path class="cls-51" d="M1127,155.79v-13c-24.09-15.4-59.46-25.39-59.46-25.39l-4,13.52s-.24,4.87,14.31,9.91a175.55,175.55,0,0,0,31,7.1l-7.17,2.79A217.08,217.08,0,0,0,1127,155.79Z"/><polygon class="cls-50" points="897.05 284.24 897.05 284.24 912.14 277.65 942.72 274.41 954.79 279.71 929.75 281.72 908.84 285.17 899.75 284.24 897.05 284.24"/><path class="cls-52" d="M244.73,458.33s1.6-44.7-15.56-75.58H201.3l-15-20.51s-17.14-30.23-50.5-41l7.49-25.86-14.64-29.92S86.31,208.56,66.27,195c0,0-41,14.37-66.27,38v185c39.81,24.59,215.67,132.38,239,132.62l10.63-44.87,10.68-21.86S263.14,472.08,244.73,458.33Z"/><path class="cls-53" d="M14.54,310.3A58.18,58.18,0,0,1,0,298.73v30.94l1.36-.13c15-.24,48.77-2.83,48.77-2.83A334.33,334.33,0,0,1,14.54,310.3Z"/><path class="cls-54" d="M271.4,807l-.47,0,.47,0,194.41,13.73-75.54-56.46L368,766.53c-20.81-30.14-45.34-94.24-45.34-94.24,3-46-14.33-92.81-14.33-92.81l-37.45-11.1-5.45-17.6c-32-29.21-72.92-42.47-72.92-42.47-3-48.08-11.62-68.32-11.62-68.32-15.41-11.89-40.55-14.05-40.55-14.05l-9.49-9.36a442.44,442.44,0,0,0-22.21-77.23c-17.8-12.07-36.45,10.91-36.45,10.91L68.1,382.75,57.31,370.69A139.26,139.26,0,0,0,0,400V856.09c37.5-.87,94.65-1.25,164.75,1.29,128.71,4.67,170.51-23.49,170.51-23.49l-12.63-16.84C319.13,810.64,276.34,807.38,271.4,807Z"/><path class="cls-55" d="M270.93,807s-72.17-.78-100.48-11.83L139.33,807s34.15-19.63,42.8-24.36H194.2l-20.55-24.41s11.42-37,37.9-51.66c0,0,58.68-7.37,86.09,14.38l31.51,61.69h-13l18.45,28.85Z"/><path class="cls-56" d="M0,730.67V865c42.19-2.9,86.32-9.46,86.32-9.46l-30-20.36H14.75l26.64-12.84s3-43.09-5.65-71.4l-7.31-4.83V726L17.7,706.56,21.81,726,1.36,729.57S.88,729.94,0,730.67Z"/><path class="cls-36" d="M155.84,659.83s19.52-9,36.3-9.4,37.05,0,37.05,0l25.29,7.85s-16.1,2.07-40.76,9.32S155.84,659.83,155.84,659.83Z"/><path class="cls-36" d="M219.09,640.44s24.5-14,36.64-12.57,19.46,4.37,19.46,4.37-7.47,20.16-21.51,17.33S219.09,640.44,219.09,640.44Z"/><path class="cls-57" d="M170.45,795.16s-23.29,2-51.15,27.21l30.89-13.6s41.87,21.6,61.44,25.06,67.51-19.34,67.51-19.34l40.22.18S215.2,792.4,170.45,795.16Z"/><polygon class="cls-58" points="9.02 412.94 32.3 451.06 89.42 459.06 91.25 427.28 68.84 411.26 48.27 394.83 9.02 412.94"/><path class="cls-58" d="M180.86,440s-25.48,16.15-37.81,15.81-27.4-7.9-27.4-7.9l-24.4-20.62L74.6,403.67l-6.5-20.92A246.84,246.84,0,0,0,85.49,403c10.52,11,32.44,10,32.44,10l12.89,3.64,9.49,9.36S172.55,430.06,180.86,440Z"/><path class="cls-59" d="M14.75,607.2A73.3,73.3,0,0,0,0,585.63v31.93c5.61,2.64,17.27,6.35,33.62,2.4l5.43-6.07,26.16-1.52Z"/><path class="cls-60" d="M60,819.51l-12.87,2.86L25,807.71,0,810.84v4.38l21.71,9.16-7,10.83S38,841.42,60,848.33s39.23,7.39,39.23,7.39Z"/><path class="cls-61" d="M192.48,508.31s-33,6.43-44.4,16.83A240,240,0,0,0,128.62,545h39.09l24.77-9.86L182.13,545s13.63,25.21,83.27,5.77C265.4,550.78,243.52,522.51,192.48,508.31Z"/><path class="cls-62" d="M14.75,635.32l26.73,3.48,17.41-5.53,91.3,8.88h42.64l31.26,8.08s-30.84-.45-37.4.63-30.85,9-30.85,9L173.19,683,197,706.56l-29.3-15.71s-30.24-20.75-39.09-26.23-100-21.25-100-21.25S28,646,14.75,635.32Z"/><path class="cls-36" d="M139.33,664.33C126,657.78,35.74,642.15,35.74,642.15c-10.93.89-21-6.83-21-6.83L0,631.24v51.15c12.18,2.73,25.37,4.8,37.91,5,39.62.63,60.34-13.94,60.34-13.94,13.21,8.08,12.44,26,12.44,26,51.22,4.41,57-8.6,57-8.6S152.64,670.88,139.33,664.33Z"/><polygon class="cls-63" points="350.38 774.57 373.88 765.94 389.28 770.1 408.38 777.82 379.72 784.92 350.38 774.57"/><polygon class="cls-64" points="243.36 811.48 232.71 831.71 268.18 827.61 322.63 817.04 327.38 823.38 327.38 803.64 321.14 801.98 320.8 807.71 272.6 820.7 243.36 811.48"/><polygon class="cls-65" points="21.81 488.44 25.65 504.09 4.76 508.31 0 509.73 0 528.55 14.85 515.47 41.38 501.82 21.81 488.44"/><path class="cls-66" d="M85.13,764.88c.86,2.5,2.21,5.24,3.67,1.71a5.82,5.82,0,0,0-.47-4.78,2.88,2.88,0,0,0-1.07-1c-.37-.24-.92-.76-1.37-.63-1.54.45-1.15,4.39-1.15,5.91Z"/><path class="cls-66" d="M85.23,746.48a7.69,7.69,0,0,0-.66-2.37,18.56,18.56,0,0,0-1-2.22A5.78,5.78,0,0,0,81,739.54c-1.61-.48-2.38,1.41-2.88,3.46a.34.34,0,0,0-.21-.06c-.81.1-1.37,1.17-1.39,2.37a8.67,8.67,0,0,0,1.09,3.61c.26.58.5,1.19.78,1.75a1,1,0,0,0,.5.5,18.82,18.82,0,0,0,.93,4.57c.55,1.34,1.31,3.08,2.37,2s1.64-3.25,2.21-4.89c.41-1.17.54-2.43.86-3.5a3.91,3.91,0,0,0,.42-1.76C85.63,747.12,85.32,747,85.23,746.48Z"/><path class="cls-66" d="M89.39,773.68c-.07.84-.76,5.2.79,4.73.5-.16,1.13-1.48,1.32-2.09.55-1.79-.68-3.86-2-3.13,0,.16,0,.33-.07.49Z"/><path class="cls-67" d="M160.37,620.78a50.53,50.53,0,0,0,4.76,3.78c-.06-.36.68-.4.86-.54a2.22,2.22,0,0,0,.63-.88,6,6,0,0,0-.19-3.59c-.7-2-2-2.87-3.45-2.87a2.76,2.76,0,0,0-2,.59,2.59,2.59,0,0,0-.78,1,3.78,3.78,0,0,0-.19,1.61c0,1,.08,2.37.72,3,.19.19.76.46,1,.17s.4-1.4-.16-1.12Z"/><path class="cls-66" d="M114.5,772.61a.87.87,0,0,0-.23-.46.45.45,0,0,0-.4-.08,2.87,2.87,0,0,0-1.74,2.11.44.44,0,0,0-.18.18,1.09,1.09,0,0,0,0,1.09c0,.08,0,0,0,0a.26.26,0,0,0,0,.08.19.19,0,0,1,0,.07l0,.15v.08c0,.42.24.77.51.77C113.82,776.59,114.87,774.49,114.5,772.61Z"/><path class="cls-66" d="M120.69,767.09a.88.88,0,0,0-.24-.46.43.43,0,0,0-.39-.08,2.87,2.87,0,0,0-1.74,2.12.44.44,0,0,0-.19.17,1.11,1.11,0,0,0,0,1.09c.05.09,0,0,0,0s0,.06,0,.08l0,.07,0,.15v.08c0,.43.23.77.51.78C120,771.07,121.06,769,120.69,767.09Z"/><path class="cls-66" d="M101,749.33a.81.81,0,0,0-.23-.46.45.45,0,0,0-.4-.08,2.86,2.86,0,0,0-1.73,2.12.39.39,0,0,0-.19.17,1.09,1.09,0,0,0,0,1.09c0,.09,0,0,0,0a.19.19,0,0,0,0,.08l0,.07a.77.77,0,0,0,0,.15s0,.06,0,.08c0,.43.23.77.51.78C100.33,753.31,101.38,751.21,101,749.33Z"/><path class="cls-66" d="M109.1,759.29c-.51-1.42-1.27-3.53-2.52-3.45s-2,1.66-2.39,3.19a11,11,0,0,0,.15,5.67,5.49,5.49,0,0,0,1,3.15,2.12,2.12,0,0,0,3.06.5,5.18,5.18,0,0,0,1.61-4A14,14,0,0,0,109.1,759.29Z"/><path class="cls-68" d="M19.29,595.48a.81.81,0,0,0-.23-.46.42.42,0,0,0-.4-.08,2.84,2.84,0,0,0-1.73,2.11.44.44,0,0,0-.19.17,1.11,1.11,0,0,0,0,1.1c0,.08,0,0,0,0a.41.41,0,0,0,0,.08l0,.07a.77.77,0,0,0,0,.15v.08c0,.42.24.77.52.77C18.61,599.46,19.66,597.35,19.29,595.48Z"/><path class="cls-68" d="M25.48,590a.82.82,0,0,0-.24-.46.43.43,0,0,0-.39-.08,2.87,2.87,0,0,0-1.74,2.11.46.46,0,0,0-.19.18,1.11,1.11,0,0,0,0,1.09c0,.08,0,0,0,0l0,.08a.64.64,0,0,1,0,.07l0,.15v.08c0,.42.23.77.51.77C24.79,593.94,25.85,591.84,25.48,590Z"/><path class="cls-68" d="M13.89,582.16c-.51-1.42-1.27-3.54-2.52-3.45s-2,1.66-2.38,3.19a11,11,0,0,0-.13,4.54,10.18,10.18,0,0,0,.28,1.12,5.42,5.42,0,0,0,1,3.16,2.12,2.12,0,0,0,3.06.49,5.15,5.15,0,0,0,1.61-4A14,14,0,0,0,13.89,582.16Z"/><path class="cls-66" d="M104.69,746c-.18-.46-.37-.92-.57-1.36a19.37,19.37,0,0,0-1.26-2.54,3.54,3.54,0,0,0-.8-.91.48.48,0,0,0-.34-.19,1.08,1.08,0,0,0-.56-.1,2,2,0,0,0-1.37,1.67,3.06,3.06,0,0,0,0,1.59h0a1,1,0,0,0,.19,1.06l0,0a3.56,3.56,0,0,0,.08,1.17,3.1,3.1,0,0,0,1.32,2,3.77,3.77,0,0,0,2,.41,1.42,1.42,0,0,0,1.48-1.19A2.79,2.79,0,0,0,104.69,746Z"/><path class="cls-66" d="M73.36,736.19c3.1,1.55,7,2.5,6-4.61-.44-3-2.61-5.09-4.44-5.14a3.38,3.38,0,0,0-2.17.68c-.65.37-1.76.74-2.22,1.72-1.57,3.4,2.08,7.63,3.31,9.54Z"/><path class="cls-66" d="M58.67,712.9a6,6,0,0,0-2.75-1.75c-1-.28-2-1-3-1a7.34,7.34,0,0,0-5.2,1.88c-2.4,2.36-1.85,6.15-.83,9.66a.8.8,0,0,0-.31.3,5.75,5.75,0,0,0,.18,5.53c1.07,1.75,2.8,2,4.26,2.52.79.26,1.59.57,2.4.76a1.13,1.13,0,0,0,1-.29c1.49,1.65,3.31,3.47,4.84,4,1.78.65,4.14,1.44,4.61-1.82s-.55-7.12-1.16-10.22c-.43-2.22-1.28-4-1.75-6-.3-1.2-.13-2.06-.88-3C59.68,713,59.16,713.32,58.67,712.9Z"/><path class="cls-66" d="M85.8,739.37c.58,1.19,3.23,7.93,4.79,4.49.51-1.12.23-3.93,0-5.05-.75-3.25-4-3.59-5.07-.17.1.25.2.49.31.73Z"/><path class="cls-68" d="M73.32,512.44c.87,2.5,2.22,5.24,3.67,1.71a5.76,5.76,0,0,0-.47-4.79,2.83,2.83,0,0,0-1.06-1c-.37-.24-.92-.76-1.37-.63-1.54.44-1.15,4.38-1.15,5.9Z"/><path class="cls-68" d="M73.43,494a7.77,7.77,0,0,0-.67-2.38,17.71,17.71,0,0,0-1-2.21,5.85,5.85,0,0,0-2.63-2.36c-1.61-.47-2.38,1.41-2.89,3.47a.25.25,0,0,0-.2-.06c-.81.09-1.37,1.17-1.39,2.37a8.48,8.48,0,0,0,1.09,3.6c.26.59.5,1.2.78,1.76a1,1,0,0,0,.5.5,19.14,19.14,0,0,0,.92,4.56c.56,1.35,1.32,3.09,2.37,2s1.65-3.25,2.22-4.89c.41-1.17.54-2.43.85-3.51a3.74,3.74,0,0,0,.43-1.75C73.83,494.68,73.52,494.5,73.43,494Z"/><path class="cls-68" d="M77.59,521.23c-.07.84-.76,5.21.79,4.73.5-.15,1.13-1.47,1.32-2.09.54-1.78-.68-3.85-2-3.12,0,.16,0,.32-.07.48Z"/><path class="cls-68" d="M102.7,520.17a.82.82,0,0,0-.24-.46.38.38,0,0,0-.39-.08,2.87,2.87,0,0,0-1.74,2.11.51.51,0,0,0-.19.17,1.13,1.13,0,0,0,0,1.1c0,.08,0,0,0,0l0,.09s0,0,0,.06l0,.15v.09c0,.42.23.77.51.77C102,524.15,103.07,522,102.7,520.17Z"/><path class="cls-68" d="M108.88,514.65a.81.81,0,0,0-.23-.46.42.42,0,0,0-.4-.08,2.84,2.84,0,0,0-1.73,2.11.51.51,0,0,0-.19.17,1.11,1.11,0,0,0,0,1.1c0,.08,0,0,0,0a.26.26,0,0,0,0,.08l0,.07s0,.1,0,.15,0,0,0,.08c0,.42.23.77.51.77C108.2,518.63,109.26,516.52,108.88,514.65Z"/><path class="cls-68" d="M89.21,496.89a.82.82,0,0,0-.24-.46.4.4,0,0,0-.39-.08,2.87,2.87,0,0,0-1.74,2.11.48.48,0,0,0-.18.17,1.11,1.11,0,0,0,0,1.1c0,.08,0,0,0,0l0,.08a.14.14,0,0,1,0,.07l0,.15v.08c0,.42.24.77.51.77C88.53,500.87,89.58,498.76,89.21,496.89Z"/><path class="cls-68" d="M97.29,506.85c-.5-1.42-1.26-3.54-2.51-3.45s-2,1.66-2.39,3.19a11,11,0,0,0-.12,4.54,10.16,10.16,0,0,0,.27,1.12,5.45,5.45,0,0,0,1,3.16,2.11,2.11,0,0,0,3.05.49,5.08,5.08,0,0,0,1.61-4A13.63,13.63,0,0,0,97.29,506.85Z"/><path class="cls-68" d="M92.88,493.54c-.17-.46-.36-.91-.56-1.35a18.77,18.77,0,0,0-1.26-2.54,3.61,3.61,0,0,0-.8-.92.48.48,0,0,0-.34-.19,1.07,1.07,0,0,0-.56-.09c-.64.1-1.15.76-1.37,1.67a3.12,3.12,0,0,0,0,1.58h0a1.06,1.06,0,0,0,.18,1.06s0,0,0,0a3.33,3.33,0,0,0,.09,1.17,3,3,0,0,0,1.32,1.95,3.68,3.68,0,0,0,2,.41,1.41,1.41,0,0,0,1.48-1.18A2.75,2.75,0,0,0,92.88,493.54Z"/><path class="cls-68" d="M61.56,483.75c3.1,1.54,7,2.49,6-4.61-.44-3.05-2.62-5.1-4.45-5.14a3.36,3.36,0,0,0-2.16.67c-.66.38-1.77.74-2.22,1.73-1.57,3.39,2.08,7.62,3.3,9.53Z"/><path class="cls-68" d="M46.87,460.46a6,6,0,0,0-2.75-1.75c-1-.28-2-1-3-1a7.35,7.35,0,0,0-5.19,1.88c-2.4,2.36-1.86,6.15-.83,9.66a.8.8,0,0,0-.31.3,5.8,5.8,0,0,0,.17,5.54c1.08,1.74,2.81,2,4.27,2.51.79.26,1.59.58,2.39.77a1.15,1.15,0,0,0,1-.3c1.49,1.65,3.3,3.47,4.84,4,1.78.65,4.14,1.44,4.6-1.83S51.56,473.15,51,470c-.43-2.21-1.28-4.05-1.75-6-.3-1.2-.13-2.06-.88-3C47.88,460.54,47.36,460.88,46.87,460.46Z"/><path class="cls-68" d="M74,486.93c.58,1.19,3.24,7.93,4.8,4.49.51-1.13.23-3.93,0-5.06-.75-3.24-4-3.58-5.08-.16l.31.73Z"/><path class="cls-69" d="M68,290.89c.86,2.5,2.21,5.23,3.67,1.7a5.78,5.78,0,0,0-.47-4.78,2.88,2.88,0,0,0-1.07-1c-.37-.24-.92-.76-1.37-.63-1.53.45-1.15,4.39-1.15,5.91Z"/><path class="cls-69" d="M68.13,272.49a7.68,7.68,0,0,0-.66-2.38,18.56,18.56,0,0,0-1-2.22,5.78,5.78,0,0,0-2.63-2.35C62.27,265.06,61.5,267,61,269a.34.34,0,0,0-.21-.06c-.81.1-1.37,1.17-1.39,2.38a8.67,8.67,0,0,0,1.09,3.6c.26.58.5,1.19.78,1.75a1,1,0,0,0,.5.5,18.72,18.72,0,0,0,.93,4.57c.56,1.34,1.31,3.08,2.37,2s1.64-3.24,2.21-4.89c.41-1.17.55-2.43.86-3.5.19-.67.49-.92.42-1.76C68.53,273.13,68.23,273,68.13,272.49Z"/><path class="cls-69" d="M72.29,299.68c-.07.84-.76,5.2.79,4.73.5-.15,1.13-1.47,1.32-2.09.55-1.78-.68-3.85-2-3.13,0,.17,0,.33-.07.49Z"/><path class="cls-69" d="M105.69,270.8a.87.87,0,0,0-.23-.46.45.45,0,0,0-.4-.08,2.87,2.87,0,0,0-1.74,2.11.52.52,0,0,0-.18.18,1.09,1.09,0,0,0,0,1.09c0,.08,0,0,0,0a.26.26,0,0,0,0,.08.19.19,0,0,1,0,.07l0,.15V274c0,.42.24.77.51.78C105,274.78,106.06,272.68,105.69,270.8Z"/><path class="cls-69" d="M111.88,265.28a.88.88,0,0,0-.24-.46.43.43,0,0,0-.39-.08,2.87,2.87,0,0,0-1.74,2.12.44.44,0,0,0-.19.17,1.11,1.11,0,0,0,0,1.09c.05.09,0,0,0,0s0,.06,0,.08l0,.07,0,.15v.08c0,.43.23.77.51.78C111.19,269.26,112.25,267.16,111.88,265.28Z"/><path class="cls-69" d="M83.91,275.33a.81.81,0,0,0-.23-.46.45.45,0,0,0-.4-.08,2.86,2.86,0,0,0-1.73,2.12.39.39,0,0,0-.19.17,1.09,1.09,0,0,0,0,1.09c0,.09,0,0,0,0a.19.19,0,0,0,0,.08l0,.07c0,.05,0,.1,0,.15s0,.06,0,.08c0,.43.23.77.51.78C83.23,279.31,84.29,277.21,83.91,275.33Z"/><path class="cls-69" d="M100.29,257.49C99.78,256.07,99,254,97.77,254s-2,1.66-2.39,3.19a11,11,0,0,0,.15,5.67,5.49,5.49,0,0,0,1,3.15,2.12,2.12,0,0,0,3.06.5,5.18,5.18,0,0,0,1.61-4A14,14,0,0,0,100.29,257.49Z"/><path class="cls-69" d="M95.88,244.18c-.18-.46-.37-.91-.56-1.36a20.75,20.75,0,0,0-1.27-2.54,3.54,3.54,0,0,0-.8-.91.48.48,0,0,0-.34-.19,1,1,0,0,0-.56-.09c-.64.09-1.15.76-1.37,1.66a3.06,3.06,0,0,0,0,1.59h0a1,1,0,0,0,.19,1.06l0,0a3.56,3.56,0,0,0,.08,1.17,3.1,3.1,0,0,0,1.32,2,3.68,3.68,0,0,0,2,.41,1.42,1.42,0,0,0,1.48-1.19A2.8,2.8,0,0,0,95.88,244.18Z"/><path class="cls-69" d="M56.26,262.19c3.1,1.55,7,2.5,6-4.61-.44-3-2.61-5.09-4.44-5.14a3.44,3.44,0,0,0-2.17.68c-.65.37-1.76.74-2.22,1.72-1.57,3.4,2.08,7.63,3.31,9.54Z"/><path class="cls-69" d="M41.57,238.9a6,6,0,0,0-2.75-1.75c-1-.28-2-1-3-1a7.34,7.34,0,0,0-5.2,1.88c-2.4,2.36-1.85,6.15-.83,9.66a.8.8,0,0,0-.31.3,5.75,5.75,0,0,0,.18,5.53c1.07,1.75,2.8,2.05,4.26,2.52.79.26,1.59.58,2.4.76a1.13,1.13,0,0,0,1-.29c1.49,1.65,3.31,3.47,4.84,4,1.78.65,4.14,1.44,4.61-1.82s-.55-7.11-1.16-10.22c-.43-2.21-1.28-4.05-1.75-6-.3-1.19-.13-2.06-.88-3C42.58,239,42.06,239.32,41.57,238.9Z"/><path class="cls-69" d="M68.7,265.38c.58,1.18,3.23,7.92,4.79,4.48.51-1.12.24-3.93,0-5.05-.76-3.24-4-3.59-5.08-.17.1.25.2.49.31.74Z"/><path class="cls-67" d="M230.89,611c.87,2.5,2.21,5.24,3.67,1.71a5.8,5.8,0,0,0-.47-4.79,2.78,2.78,0,0,0-1.07-1c-.36-.24-.92-.76-1.36-.63-1.54.44-1.16,4.38-1.16,5.9Z"/><path class="cls-67" d="M187.71,599.67a8,8,0,0,0-.67-2.38,16.36,16.36,0,0,0-1-2.21,5.74,5.74,0,0,0-2.63-2.36c-1.6-.48-2.38,1.41-2.88,3.47a.28.28,0,0,0-.21-.07c-.81.1-1.37,1.17-1.38,2.38a8.66,8.66,0,0,0,1.08,3.6c.26.58.5,1.19.79,1.75a1,1,0,0,0,.49.5,19.2,19.2,0,0,0,.93,4.57c.56,1.34,1.32,3.08,2.37,2s1.65-3.24,2.22-4.89c.4-1.16.54-2.43.85-3.5.19-.67.49-.92.43-1.76C188.1,600.31,187.8,600.13,187.71,599.67Z"/><path class="cls-67" d="M235.16,619.79c-.08.84-.76,5.21.78,4.73.51-.15,1.13-1.47,1.32-2.09.55-1.78-.67-3.85-2-3.12l-.06.48Z"/><path class="cls-67" d="M260.26,618.73a.81.81,0,0,0-.23-.46.4.4,0,0,0-.4-.08,2.84,2.84,0,0,0-1.73,2.11.51.51,0,0,0-.19.17,1.11,1.11,0,0,0,0,1.1c.05.08,0,0,0-.05a.32.32,0,0,0,0,.09l0,.06a.77.77,0,0,1,0,.15.28.28,0,0,1,0,.09c0,.42.23.77.51.77C259.58,622.71,260.64,620.6,260.26,618.73Z"/><path class="cls-67" d="M246.78,595.45a.88.88,0,0,0-.24-.46.41.41,0,0,0-.39-.08,2.85,2.85,0,0,0-1.74,2.11.46.46,0,0,0-.19.18,1.11,1.11,0,0,0,0,1.09c.05.08,0,0,0,0s0,.06,0,.08a.25.25,0,0,0,0,.07l0,.15v.08c0,.42.23.77.51.77C246.09,599.43,247.15,597.32,246.78,595.45Z"/><path class="cls-67" d="M254.86,605.41c-.51-1.42-1.26-3.54-2.51-3.45s-2,1.66-2.39,3.19a10.84,10.84,0,0,0-.12,4.54,10.16,10.16,0,0,0,.27,1.12,5.44,5.44,0,0,0,1,3.16,2.12,2.12,0,0,0,3.06.49,5.11,5.11,0,0,0,1.61-4A14,14,0,0,0,254.86,605.41Z"/><path class="cls-67" d="M250.45,592.1c-.18-.46-.37-.91-.56-1.35a18.81,18.81,0,0,0-1.27-2.54,3.21,3.21,0,0,0-.79-.91.48.48,0,0,0-.34-.2,1.09,1.09,0,0,0-.56-.09c-.65.1-1.15.76-1.38,1.67a3.24,3.24,0,0,0,0,1.58h0a1,1,0,0,0,.18,1.06s0,0,0,0a3.58,3.58,0,0,0,.08,1.17,3.06,3.06,0,0,0,1.33,2,3.64,3.64,0,0,0,1.95.41,1.42,1.42,0,0,0,1.49-1.18A2.92,2.92,0,0,0,250.45,592.1Z"/><path class="cls-67" d="M231.56,585.49c.58,1.19,3.24,7.93,4.8,4.49.5-1.12.23-3.93,0-5.06-.75-3.24-4-3.58-5.08-.16l.31.73Z"/><path class="cls-66" d="M327.2,751.11c.86,2.5,2.21,5.24,3.67,1.71a5.8,5.8,0,0,0-.47-4.79,2.93,2.93,0,0,0-1.07-1c-.37-.24-.92-.76-1.37-.63-1.53.44-1.15,4.38-1.15,5.9Z"/><path class="cls-66" d="M331.46,759.9c-.07.84-.75,5.21.79,4.73.51-.15,1.13-1.47,1.32-2.09.55-1.78-.68-3.85-2-3.12,0,.16,0,.32-.07.48Z"/><path class="cls-66" d="M356.57,758.84a.81.81,0,0,0-.23-.46.4.4,0,0,0-.4-.08,2.84,2.84,0,0,0-1.73,2.11.44.44,0,0,0-.19.17,1.11,1.11,0,0,0,0,1.1c0,.08,0,0,0,0a.32.32,0,0,0,0,.09l0,.06a.77.77,0,0,0,0,.15V762c0,.42.24.77.52.77C355.89,762.82,356.94,760.71,356.57,758.84Z"/><path class="cls-66" d="M343.08,735.56a.81.81,0,0,0-.23-.46.42.42,0,0,0-.4-.08,2.84,2.84,0,0,0-1.73,2.11.46.46,0,0,0-.19.18,1.09,1.09,0,0,0,0,1.09c.05.08,0,0,0,0a.26.26,0,0,0,0,.08l0,.07,0,.15v.08c0,.42.23.77.51.77C342.4,739.54,343.46,737.43,343.08,735.56Z"/><path class="cls-66" d="M351.17,745.52c-.51-1.42-1.27-3.54-2.52-3.45s-2,1.66-2.38,3.19a11,11,0,0,0-.13,4.54,10.18,10.18,0,0,0,.28,1.12,5.44,5.44,0,0,0,1,3.16,2.12,2.12,0,0,0,3.06.49,5.15,5.15,0,0,0,1.61-4A14,14,0,0,0,351.17,745.52Z"/><path class="cls-66" d="M346.76,732.21c-.18-.46-.37-.91-.56-1.35a20.06,20.06,0,0,0-1.27-2.54,3.23,3.23,0,0,0-.8-.91.46.46,0,0,0-.33-.2,1.09,1.09,0,0,0-.56-.09c-.65.1-1.16.76-1.38,1.67a3.12,3.12,0,0,0,0,1.58h0a1,1,0,0,0,.18,1.06l0,0a3.58,3.58,0,0,0,.08,1.17,3.05,3.05,0,0,0,1.32,2,3.7,3.7,0,0,0,2,.41,1.41,1.41,0,0,0,1.48-1.18A2.83,2.83,0,0,0,346.76,732.21Z"/><path class="cls-66" d="M327.87,725.6c.58,1.19,3.24,7.93,4.79,4.49.51-1.12.24-3.93,0-5.06-.75-3.24-4-3.58-5.08-.16l.31.73Z"/><polygon class="cls-70" points="201.29 382.75 178.97 394.83 152.91 404.08 188.14 400.41 201.29 397.3 229.17 382.75 201.29 382.75"/><path class="cls-53" d="M135.77,321.23s-13-7.71-25.6-6.22L87.56,326.9,62,321.4s20.55-4.25,24.3-6.39c0,0,13.8-24.41,23.85-31.14s33.09,11.5,33.09,11.5Z"/><path class="cls-71" d="M70.31,211.59l-4-16.64S23.51,209.8,0,232.06v11.19A181,181,0,0,0,32.16,236L25,232.54S41.45,230,56,223.8,70.31,211.59,70.31,211.59Z"/><polygon class="cls-70" points="236.71 400.41 236.71 400.41 221.62 392.29 191.04 388.3 178.97 394.83 204.01 397.3 224.93 401.55 234.02 400.4 236.71 400.41"/></g></g></svg>