<svg id="Layer_1" data-name="Layer 1" xmlns="http://www.w3.org/2000/svg" viewBox="0 0 260.7 72.57"><defs><style>.cls-1{fill:#4560aa;}.cls-1,.cls-2{fill-rule:evenodd;}.cls-2{fill:#7789c4;}.cls-3{fill:#8fa2d3;}.cls-4{fill:#fff;}.cls-5{fill:#efda84;}</style></defs><path class="cls-1" d="M0,43.68v8.47A20.41,20.41,0,0,0,20.41,72.57H240.29A20.41,20.41,0,0,0,260.7,52.15V43.68Z"/><path class="cls-2" d="M240.29,0H20.41A20.41,20.41,0,0,0,0,20.41V49H0V46.7A20.41,20.41,0,0,0,20.41,67.11H240.29A20.41,20.41,0,0,0,260.7,46.7V49h0V20.41A20.41,20.41,0,0,0,240.29,0Z"/><path class="cls-3" d="M260.7,45.78a20.41,20.41,0,0,1-20.41,20.41H20.41A20.41,20.41,0,0,1,0,45.79v.92a20.41,20.41,0,0,0,20.41,20.4H240.29A20.41,20.41,0,0,0,260.7,46.7Z"/><path class="cls-4" d="M124.19,16.15h2V24.4a4.05,4.05,0,0,1-.29,1.56,3.3,3.3,0,0,1-.8,1.16,3.44,3.44,0,0,1-1.22.71,4.67,4.67,0,0,1-1.53.25,5.43,5.43,0,0,1-1.55-.21,3.28,3.28,0,0,1-1.21-.65,3,3,0,0,1-.8-1.1,3.91,3.91,0,0,1-.29-1.56h2a2.49,2.49,0,0,0,.13.87,1.61,1.61,0,0,0,.37.58,1.47,1.47,0,0,0,.57.33,2.45,2.45,0,0,0,.74.11,1.94,1.94,0,0,0,.73-.14,1.61,1.61,0,0,0,.57-.39,1.83,1.83,0,0,0,.37-.64,2.59,2.59,0,0,0,.13-.88Z"/><path class="cls-4" d="M138,22.34a7.44,7.44,0,0,1-.35,2.4,5.18,5.18,0,0,1-1,1.81,4.36,4.36,0,0,1-1.53,1.13,5.13,5.13,0,0,1-4,0,4.34,4.34,0,0,1-1.55-1.13,5.38,5.38,0,0,1-1-1.81,7.43,7.43,0,0,1-.36-2.4v-.6a7.58,7.58,0,0,1,.36-2.41,5.37,5.37,0,0,1,1-1.81,4.45,4.45,0,0,1,1.54-1.14,5.25,5.25,0,0,1,4,0,4.49,4.49,0,0,1,1.55,1.14,5.18,5.18,0,0,1,1,1.81,7.58,7.58,0,0,1,.35,2.41Zm-2-.61a7.62,7.62,0,0,0-.19-1.75,3.65,3.65,0,0,0-.56-1.26,2.34,2.34,0,0,0-.89-.77,2.58,2.58,0,0,0-1.2-.26,2.56,2.56,0,0,0-1.18.26,2.34,2.34,0,0,0-.89.77,3.66,3.66,0,0,0-.57,1.26,7.08,7.08,0,0,0-.2,1.75v.61a7.08,7.08,0,0,0,.2,1.75,3.91,3.91,0,0,0,.57,1.27,2.44,2.44,0,0,0,.9.77,2.6,2.6,0,0,0,1.19.27,2.42,2.42,0,0,0,2.09-1,5.26,5.26,0,0,0,.73-3Z"/><path class="cls-4" d="M142.15,27.92h-2V16.15h2Z"/><path class="cls-4" d="M154,27.92h-2l-5.25-8.35v8.35h-2V16.15h2L152,24.53V16.15h2Z"/><path class="cls-4" d="M168.55,17.8h-3.67V27.92h-2V17.8h-3.64V16.15h9.34Z"/><path class="cls-4" d="M179.43,27.92h-2V22.69h-5.26v5.23h-2V16.15h2v4.9h5.26v-4.9h2Z"/><path class="cls-4" d="M188.72,22.66h-4.83v3.62h5.65v1.64h-7.69V16.15h7.63V17.8h-5.59v3.25h4.83Z"/><path class="cls-4" d="M97.3,56.66V37h6.33a9.56,9.56,0,0,1,3.67.69,8.56,8.56,0,0,1,2.88,1.94,8.85,8.85,0,0,1,1.88,3,10.37,10.37,0,0,1,.67,3.81v.82a10.43,10.43,0,0,1-.67,3.82,8.76,8.76,0,0,1-1.88,3A8.49,8.49,0,0,1,107.31,56a9.35,9.35,0,0,1-3.63.69Zm4.74-16V53h1.64a3.7,3.7,0,0,0,3.13-1.45,7.1,7.1,0,0,0,1.09-4.31v-.85a7,7,0,0,0-1.09-4.29,3.75,3.75,0,0,0-3.18-1.44Z"/><path class="cls-4" d="M120.2,56.66h-4.72V37h4.72Z"/><path class="cls-4" d="M133.62,51.44a2.41,2.41,0,0,0-.13-.83,1.61,1.61,0,0,0-.5-.7,4.53,4.53,0,0,0-1.06-.65,14.8,14.8,0,0,0-1.79-.69c-.86-.29-1.69-.61-2.49-1a10.11,10.11,0,0,1-2.13-1.28A6,6,0,0,1,124,44.58a4.54,4.54,0,0,1-.56-2.31A4.71,4.71,0,0,1,124,40a5.41,5.41,0,0,1,1.58-1.73,7.73,7.73,0,0,1,2.39-1.1,10.76,10.76,0,0,1,3-.4,9.56,9.56,0,0,1,2.95.44,6.84,6.84,0,0,1,2.32,1.22,5.68,5.68,0,0,1,1.52,1.92,5.78,5.78,0,0,1,.54,2.52h-4.71a3,3,0,0,0-.17-1A2.14,2.14,0,0,0,133,41a2.34,2.34,0,0,0-.85-.52,3.27,3.27,0,0,0-1.19-.19,4.3,4.3,0,0,0-1.19.15,2.71,2.71,0,0,0-.85.43,2,2,0,0,0-.52.64,1.67,1.67,0,0,0-.18.76,1.4,1.4,0,0,0,.25.8,2.78,2.78,0,0,0,.72.68,6.24,6.24,0,0,0,1.13.59c.45.18.95.37,1.5.55a20.2,20.2,0,0,1,2.8,1.1,9.23,9.23,0,0,1,2.07,1.39,5.49,5.49,0,0,1,1.28,1.77,5.43,5.43,0,0,1,.43,2.22,5.28,5.28,0,0,1-.51,2.36,5,5,0,0,1-1.47,1.73,6.78,6.78,0,0,1-2.3,1.06,11.05,11.05,0,0,1-3,.37,12.21,12.21,0,0,1-2-.17,10,10,0,0,1-1.91-.52,8.55,8.55,0,0,1-1.7-.88,5.94,5.94,0,0,1-2.27-3,6.36,6.36,0,0,1-.33-2.11h4.75a4,4,0,0,0,.23,1.45,2.28,2.28,0,0,0,.67.95,2.57,2.57,0,0,0,1.09.52,6,6,0,0,0,1.48.16,3.55,3.55,0,0,0,1.15-.16,2.36,2.36,0,0,0,.79-.41,1.6,1.6,0,0,0,.45-.62A2,2,0,0,0,133.62,51.44Z"/><path class="cls-4" d="M156.67,50a7.57,7.57,0,0,1-.66,2.81A6.6,6.6,0,0,1,154.36,55a7.53,7.53,0,0,1-2.52,1.41,10,10,0,0,1-3.29.51,8.86,8.86,0,0,1-3.51-.66,7.11,7.11,0,0,1-2.62-1.9,8.34,8.34,0,0,1-1.63-3,13.36,13.36,0,0,1-.56-4V46.32a12.39,12.39,0,0,1,.59-4,8.45,8.45,0,0,1,1.67-3,7.18,7.18,0,0,1,2.61-1.91,8.29,8.29,0,0,1,3.4-.67,10.14,10.14,0,0,1,3.39.53,7.37,7.37,0,0,1,2.5,1.48A6.76,6.76,0,0,1,156,41a8.61,8.61,0,0,1,.72,2.82H152a5.68,5.68,0,0,0-.22-1.46,2.51,2.51,0,0,0-.62-1.05,2.74,2.74,0,0,0-1.06-.64,5.24,5.24,0,0,0-1.59-.21,3.45,3.45,0,0,0-1.53.32,2.72,2.72,0,0,0-1.08,1,5.32,5.32,0,0,0-.64,1.81,14.71,14.71,0,0,0-.21,2.68v1.09a16.85,16.85,0,0,0,.19,2.67,5.57,5.57,0,0,0,.6,1.81,2.57,2.57,0,0,0,1.08,1,3.84,3.84,0,0,0,1.64.32,3.62,3.62,0,0,0,2.49-.77A3.21,3.21,0,0,0,152,50Z"/><path class="cls-4" d="M175.53,47.25a12.11,12.11,0,0,1-.63,4,8.81,8.81,0,0,1-1.77,3.05,7.62,7.62,0,0,1-2.71,1.92,8.66,8.66,0,0,1-3.45.67,8.83,8.83,0,0,1-3.49-.67,7.57,7.57,0,0,1-2.72-1.92A8.81,8.81,0,0,1,159,51.29a11.85,11.85,0,0,1-.64-4v-.8A12.21,12.21,0,0,1,159,42.4a8.77,8.77,0,0,1,1.77-3,7.63,7.63,0,0,1,2.72-1.93,9.17,9.17,0,0,1,6.93,0,7.68,7.68,0,0,1,2.71,1.93,8.78,8.78,0,0,1,1.78,3,12,12,0,0,1,.64,4.05Zm-4.81-.83a8.26,8.26,0,0,0-1-4.44,3.37,3.37,0,0,0-5.63,0,8.48,8.48,0,0,0-.94,4.44v.83a8.45,8.45,0,0,0,1,4.43,3.33,3.33,0,0,0,5.62,0,8.36,8.36,0,0,0,1-4.44Z"/><path class="cls-4" d="M185.27,49.73h-2.56v6.93H178V37h7.72a11.28,11.28,0,0,1,3.08.39,6.63,6.63,0,0,1,2.34,1.13,4.9,4.9,0,0,1,1.49,1.86,5.88,5.88,0,0,1,.52,2.56,7.69,7.69,0,0,1-.24,2,5.11,5.11,0,0,1-.69,1.55,5,5,0,0,1-1.09,1.16,7.29,7.29,0,0,1-1.4.86l4.1,7.92v.2h-5.07Zm-2.56-3.66h3a2.65,2.65,0,0,0,2-.71,2.7,2.7,0,0,0,.68-2,2.79,2.79,0,0,0-.68-2,2.69,2.69,0,0,0-2-.72h-3Z"/><path class="cls-4" d="M196,56.66V37h6.33a9.56,9.56,0,0,1,3.67.69,8.42,8.42,0,0,1,2.87,1.94,8.72,8.72,0,0,1,1.89,3,10.37,10.37,0,0,1,.67,3.81v.82a10.43,10.43,0,0,1-.67,3.82,8.63,8.63,0,0,1-1.89,3A8.45,8.45,0,0,1,206,56a9.39,9.39,0,0,1-3.63.69Zm4.74-16V53h1.64a3.7,3.7,0,0,0,3.13-1.45,7.1,7.1,0,0,0,1.09-4.31v-.85a7,7,0,0,0-1.09-4.29,3.75,3.75,0,0,0-3.18-1.44Z"/><path class="cls-4" d="M65,52.92c.41,1.45.7,2.62,1.07,3.76.29.91,0,1.24-.92,1.24-10.25,0-20.49,0-30.74,0a5.72,5.72,0,0,1-5.72-5.37c0-.43,0-.86,0-1.29V15.3c0-4.5,2.28-6.78,6.77-6.78H71.91a5.84,5.84,0,0,1,6.14,6.2q0,24.12,0,48.23c0,.35,0,.7-.06,1.06l-.28.23ZM58,21.67,58,22l5.54,2.62-.13.34a23.22,23.22,0,0,0-10.23-2.2,24.16,24.16,0,0,0-10.31,2.37l-.14-.35,6.25-3c-2-.44-7,1.49-8,3a2.69,2.69,0,0,0-.16.29A36.63,36.63,0,0,0,37.1,40a2.76,2.76,0,0,0,.67,1.72,9.77,9.77,0,0,0,5.95,3.22c2,.36,2.68,0,3.57-2.08-.75-.39-1.54-.73-2.26-1.19s-1.26-1-1.89-1.47l.14-.22c7,3.67,13.95,3.75,20.91-.13l.16.36-4.64,2.87c.8.69,1,2.09,2.43,2a10.13,10.13,0,0,0,7.06-3.27,3.22,3.22,0,0,0,.73-2,43.38,43.38,0,0,0-2.36-11.68c-1.08-3.51-3.47-5.2-6.75-6-.59-.15-1.2-.26-1.8-.35A6.53,6.53,0,0,0,58,21.67Z"/><path class="cls-4" d="M51.09,35.13a2.91,2.91,0,0,1-2.8,3.07,3,3,0,0,1-2.85-3.14,2.83,2.83,0,1,1,5.65.07Z"/><path class="cls-4" d="M58.55,32.05a3.08,3.08,0,1,1-2.84,3.06A3,3,0,0,1,58.55,32.05Z"/><rect class="cls-5" y="48.08" height="0.92"/><rect class="cls-5" x="260.7" y="48.08" height="0.92"/></svg>