<svg xmlns="http://www.w3.org/2000/svg" xmlns:xlink="http://www.w3.org/1999/xlink" viewBox="0 0 665.99 84.96"><defs><style>.cls-1{fill:#2929a8;}.cls-10,.cls-11,.cls-12,.cls-13,.cls-14,.cls-15,.cls-17,.cls-18,.cls-19,.cls-2,.cls-20,.cls-21,.cls-22,.cls-23,.cls-24,.cls-25,.cls-26,.cls-27,.cls-29,.cls-3,.cls-4,.cls-5,.cls-6,.cls-7,.cls-8,.cls-9{opacity:0.46;}.cls-2{fill:url(#linear-gradient);}.cls-3{fill:url(#linear-gradient-2);}.cls-4{fill:url(#linear-gradient-3);}.cls-5{fill:url(#linear-gradient-4);}.cls-6{fill:url(#linear-gradient-5);}.cls-7{fill:url(#linear-gradient-6);}.cls-8{fill:url(#linear-gradient-7);}.cls-9{fill:url(#linear-gradient-8);}.cls-10{fill:url(#linear-gradient-9);}.cls-11{fill:url(#linear-gradient-10);}.cls-12{fill:url(#linear-gradient-11);}.cls-13{fill:url(#linear-gradient-12);}.cls-14{fill:url(#linear-gradient-13);}.cls-15{fill:url(#linear-gradient-14);}.cls-16{opacity:0.18;fill:url(#linear-gradient-15);}.cls-17{fill:url(#linear-gradient-16);}.cls-18{fill:url(#linear-gradient-17);}.cls-19{fill:url(#linear-gradient-18);}.cls-20{fill:url(#linear-gradient-19);}.cls-21{fill:url(#linear-gradient-20);}.cls-22{fill:url(#linear-gradient-21);}.cls-23{fill:url(#linear-gradient-22);}.cls-24{fill:url(#linear-gradient-23);}.cls-25{fill:url(#linear-gradient-24);}.cls-26{fill:url(#linear-gradient-25);}.cls-27{fill:url(#linear-gradient-26);}.cls-28{opacity:0.2;fill:url(#linear-gradient-27);}.cls-29{fill:url(#linear-gradient-28);}.cls-30{fill:#6060ea;}</style><linearGradient id="linear-gradient" x1="18.92" y1="77.35" x2="-7.8" y2="67.3" gradientUnits="userSpaceOnUse"><stop offset="0" stop-color="#fff"/><stop offset="1" stop-color="#6060ea" stop-opacity="0"/></linearGradient><linearGradient id="linear-gradient-2" x1="51.48" y1="76.66" x2="29.26" y2="68.46" xlink:href="#linear-gradient"/><linearGradient id="linear-gradient-3" x1="72.28" y1="78.51" x2="51.25" y2="71.11" xlink:href="#linear-gradient"/><linearGradient id="linear-gradient-4" x1="101.5" y1="76.58" x2="83.24" y2="70.37" xlink:href="#linear-gradient"/><linearGradient id="linear-gradient-5" x1="175.03" y1="82.08" x2="171.3" y2="68.39" xlink:href="#linear-gradient"/><linearGradient id="linear-gradient-6" x1="174.64" y1="86.04" x2="163.56" y2="57.26" xlink:href="#linear-gradient"/><linearGradient id="linear-gradient-7" x1="199.61" y1="77.07" x2="189.42" y2="72.35" xlink:href="#linear-gradient"/><linearGradient id="linear-gradient-8" x1="232.32" y1="75.43" x2="222.5" y2="73.44" xlink:href="#linear-gradient"/><linearGradient id="linear-gradient-9" x1="240.06" y1="46.85" x2="251.97" y2="46.71" xlink:href="#linear-gradient"/><linearGradient id="linear-gradient-10" x1="251.75" y1="55.87" x2="283.24" y2="52.76" xlink:href="#linear-gradient"/><linearGradient id="linear-gradient-11" x1="304.1" y1="79.2" x2="316.38" y2="67.53" xlink:href="#linear-gradient"/><linearGradient id="linear-gradient-12" x1="295.4" y1="77.36" x2="282.65" y2="68.53" xlink:href="#linear-gradient"/><linearGradient id="linear-gradient-13" x1="311.11" y1="79.72" x2="330.87" y2="71.75" gradientUnits="userSpaceOnUse"><stop offset="0" stop-color="#fff"/><stop offset="1" stop-color="#6060ea"/></linearGradient><linearGradient id="linear-gradient-14" x1="327.02" y1="75.72" x2="372.63" y2="70.06" xlink:href="#linear-gradient-13"/><linearGradient id="linear-gradient-15" x1="382.8" y1="46.87" x2="387.06" y2="46.67" xlink:href="#linear-gradient"/><linearGradient id="linear-gradient-16" x1="403.01" y1="57.08" x2="403.52" y2="39.66" xlink:href="#linear-gradient"/><linearGradient id="linear-gradient-17" x1="413.87" y1="64.21" x2="420.94" y2="48.27" xlink:href="#linear-gradient"/><linearGradient id="linear-gradient-18" x1="404.24" y1="78.27" x2="442.73" y2="73.86" xlink:href="#linear-gradient"/><linearGradient id="linear-gradient-19" x1="474.02" y1="71.47" x2="482.5" y2="71.69" xlink:href="#linear-gradient"/><linearGradient id="linear-gradient-20" x1="507.92" y1="71.45" x2="519.16" y2="71.45" xlink:href="#linear-gradient"/><linearGradient id="linear-gradient-21" x1="548.51" y1="71.97" x2="550.66" y2="51.04" xlink:href="#linear-gradient-13"/><linearGradient id="linear-gradient-22" x1="514.12" y1="79.72" x2="533.88" y2="71.75" xlink:href="#linear-gradient-13"/><linearGradient id="linear-gradient-23" x1="527.04" y1="76.26" x2="575.98" y2="69.83" xlink:href="#linear-gradient-13"/><linearGradient id="linear-gradient-24" x1="582.41" y1="72.73" x2="590.57" y2="74.09" xlink:href="#linear-gradient"/><linearGradient id="linear-gradient-25" x1="616.5" y1="77.67" x2="659.55" y2="37.75" xlink:href="#linear-gradient-13"/><linearGradient id="linear-gradient-26" x1="624.3" y1="73.41" x2="638.24" y2="76.89" xlink:href="#linear-gradient-13"/><linearGradient id="linear-gradient-27" x1="666.63" y1="68.41" x2="651.32" y2="82" xlink:href="#linear-gradient-13"/><linearGradient id="linear-gradient-28" x1="643.97" y1="84.41" x2="643.97" y2="70.79" xlink:href="#linear-gradient-13"/></defs><g id="Layer_2" data-name="Layer 2"><g id="Layer_1-2" data-name="Layer 1"><path class="cls-1" d="M44.15,59.14A65.66,65.66,0,0,0,43.86,51a4.61,4.61,0,0,0-1.78-2.76l-1.18-.88,1.18-.89a9.4,9.4,0,0,0,1.58-1.78q.5-1,.49-14.48,0-9.85-.15-11.88a4,4,0,0,0-.83-2.61,3,3,0,0,0-1.68-.79c-.59,0-.89-.26-.89-.79a2.45,2.45,0,0,0-.79-1.77c-.39-.39-1.47-.64-3.25-.74s-6.7-.15-14.78-.15h-17l-.79,1.78c-.39,1.11-.89,1.67-1.48,1.67-.39,0-.92.4-1.57,1.19A4.52,4.52,0,0,0,.1,18.83Q0,20.81,0,30.66V44l3.25,3.26L0,50.76v14Q0,75,.1,77.08a4.76,4.76,0,0,0,.79,2.86A3.24,3.24,0,0,0,3.55,81a4,4,0,0,0,2-.44,19.68,19.68,0,0,0,2.71-2.42l3-3V52.93H22.17c4.87,0,7.92,0,9.17.15s1.94.31,2.07.64.29,4.08.29,11l-.09,10.45,3,3q3,2.86,4.53,2.86a3.07,3.07,0,0,0,2.67-1,7.4,7.4,0,0,0,.68-3.84c0-1.31,0-2.4-.09-3.25Q44.15,68.41,44.15,59.14ZM33.31,32.24l-.1,9.46h-22v-19H33.31Z"/><path class="cls-2" d="M4.89,65.68V80.85a3.21,3.21,0,0,0,.68-.27,19.68,19.68,0,0,0,2.71-2.42l3-3V65.68Z"/><path class="cls-3" d="M44.45,72.94c-.12-1.84-.21-4.26-.25-7.26H39.45V80.41a3.64,3.64,0,0,0,1.74.61,3.07,3.07,0,0,0,2.67-1,7.4,7.4,0,0,0,.68-3.84C44.54,74.88,44.51,73.79,44.45,72.94Z"/><path class="cls-1" d="M95.2,30.46c-.79-.19-1.18-.55-1.18-1.08s-.63-1.51-1.88-2.76l-1.87-1.87H62.78l-2.07,2.17c-1.32,1.44-2,2.36-2,2.75s-.27.69-.79.69a3.2,3.2,0,0,0-2.17,1.38L54.4,33.22V57.07q0,17.25.15,20.65c.1,2.27.37,3.6.83,4a4,4,0,0,0,2.47.69,3,3,0,0,0,1.72-.49,22.51,22.51,0,0,0,2.71-2.47l3-2.86V56.88q0-19.92.2-20.31.19-.69,11.23-.69H87.61V76.49l2.86,3A24.21,24.21,0,0,0,93.23,82a3.69,3.69,0,0,0,2,.44,3.24,3.24,0,0,0,2.66-1.08c.46-.53.72-1.84.79-3.95s.1-8.87.1-20.3V34l-1.19-1.67A4.17,4.17,0,0,0,95.2,30.46Z"/><path class="cls-4" d="M58.59,67.41V82.32a3,3,0,0,0,1-.41,24.23,24.23,0,0,0,2.71-2.47l3-2.86V67.41Z"/><path class="cls-5" d="M93.89,67.41V82.23a4.6,4.6,0,0,0,1.32.17,3.24,3.24,0,0,0,2.66-1.08c.46-.53.72-1.84.79-3.95,0-1.36.07-4.69.09-10Z"/><path class="cls-1" d="M177.14,12.08a1.27,1.27,0,0,0-.44-.74,4.8,4.8,0,0,0-1.28-.39q-.49,0-4.83,4.14l-4.24,4.24V71.66H144.47V19.82l-4.23-4.24c-2.83-2.76-4.6-4.14-5.33-4.14h-.19l-1.28.2q0,10.35-.1,30.94t-.1,30.85q6.1,6.31,9.26,9.36h25.62l2.17-2c1.38-1.25,2.07-2,2.07-2.36,0-.07.89-1,2.66-2.76l2.57-2.47V25c0-3.74-.05-6.75-.15-9A31.71,31.71,0,0,0,177.14,12.08Z"/><path class="cls-6" d="M167.88,64.8v2.06H168V82.79h.17l2.16-2c1.38-1.25,2.07-2,2.07-2.36,0-.07.89-1,2.66-2.76l2.57-2.47V64.8Z"/><path class="cls-7" d="M168,52.34h9.56V25c0-3.74-.05-6.75-.15-9a31.71,31.71,0,0,0-.3-4,1.27,1.27,0,0,0-.44-.74,4.8,4.8,0,0,0-1.28-.39q-.49,0-4.83,4.14l-4.24,4.24V71.66H144.47V19.82l-4.23-4.24c-2.83-2.76-4.6-4.14-5.33-4.14h-.19l-1.28.2q0,8.52-.07,24h9v47l.15.14H168Z"/><path class="cls-1" d="M228.24,30.46c-.79-.19-1.18-.55-1.18-1.08s-.63-1.51-1.87-2.76l-1.88-1.87H195.82l-2.07,2.17c-1.32,1.44-2,2.36-2,2.75s-.27.69-.79.69a3.2,3.2,0,0,0-2.17,1.38l-1.38,1.48V57.07q0,17.25.15,20.65t.84,4a3.91,3.91,0,0,0,2.46.69,3,3,0,0,0,1.72-.49,22.51,22.51,0,0,0,2.71-2.47l3-2.86V56.88q0-19.92.2-20.31.2-.69,11.23-.69h10.94V76.49l2.86,3A24.21,24.21,0,0,0,226.27,82a3.71,3.71,0,0,0,2,.44,3.24,3.24,0,0,0,2.66-1.08c.46-.53.72-1.84.79-3.95s.1-8.87.1-20.3V34l-1.18-1.67A4.21,4.21,0,0,0,228.24,30.46Z"/><path class="cls-8" d="M191.47,67.41V82.35a3,3,0,0,0,1.14-.44,22.51,22.51,0,0,0,2.71-2.47l3-2.86V67.41Z"/><path class="cls-9" d="M227,67.41V82.26a5,5,0,0,0,1.24.14,3.24,3.24,0,0,0,2.66-1.08c.46-.53.72-1.84.79-3.95,0-1.36.07-4.69.09-10Z"/><path class="cls-1" d="M252.29,15.58,250.91,14q-2.28-2.46-4.54-2.46a3.11,3.11,0,0,0-.88.1,7.07,7.07,0,0,0-3.26,3.25q-.58,1.18-.59,32.23V78.26L243.51,80c1.32,1.32,2.5,2,3.55,2a3.3,3.3,0,0,0,1.73-.4,13.7,13.7,0,0,0,2-1.77l2.07-2.17V56.48q0-20.29-.4-31.14Z"/><path class="cls-10" d="M247,11.59a4,4,0,0,0-.6-.05,3.11,3.11,0,0,0-.88.1,7.07,7.07,0,0,0-3.26,3.25q-.58,1.18-.59,32.23V78.26L243.51,80A5.59,5.59,0,0,0,247,82Z"/><path class="cls-1" d="M269.43,26.13a4,4,0,0,0-2.17.69,14.69,14.69,0,0,0-2.85,2.56l-1.68,1.77V75.7l3.15,3.15C268,81,269.56,82,270.62,82a3.82,3.82,0,0,0,2.16-1l1.19-.79V29.38l-1.68-1.68A4.34,4.34,0,0,0,269.43,26.13Z"/><path class="cls-11" d="M272.29,27.7a4.34,4.34,0,0,0-2.86-1.57h-.11V81.62a3,3,0,0,0,1.3.39,3.82,3.82,0,0,0,2.16-1l1.19-.79V29.38Z"/><path class="cls-1" d="M274,5.81l-1.22-.07a10.63,10.63,0,0,0-4.38-.6,24.2,24.2,0,0,0-3.21.14l-2.41-.14v6.4h0c.06,2,.33,3.25.83,3.8s2.05,1,4.48,1h2a3.73,3.73,0,0,0,2.76-1,3.46,3.46,0,0,0,1-1.58,16.68,16.68,0,0,0,.2-3.25c0-.36,0-.69,0-1Z"/><path class="cls-1" d="M311.89,20.23A10,10,0,0,0,312,21.7h-3.88L295.05,34.8V21.59l-3.15-3.15A20.27,20.27,0,0,0,289,15.78a3.43,3.43,0,0,0-1.87-.49,3.32,3.32,0,0,0-2.46.79c-.46.46-.73,2.1-.79,4.92s-.1,12.09-.1,27.79,0,25,.1,27.79.33,4.47.79,4.93a3.33,3.33,0,0,0,2.46.89,3.43,3.43,0,0,0,1.87-.49,20.27,20.27,0,0,0,2.86-2.66L295.05,76V54.41h9.86V76l3,3.26a20.86,20.86,0,0,0,2.86,2.66,4,4,0,0,0,4.44-.4,4.93,4.93,0,0,0,.74-2.86q.15-2.27.14-12.41V51.75l-1.47-1.48c-1-1-1.71-1.48-2.17-1.48s-.73-.36-1-1.08c-.06-.46-.79-1.38-2.17-2.76a7.42,7.42,0,0,0-1.92-1.43,7.86,7.86,0,0,0-2.41-.25h-2.47l6.8-6.8q6.81-6.79,6.8-7.48V18.72S311.93,19.67,311.89,20.23Z"/><path class="cls-12" d="M304.91,65.5V76l3,3.26a20.86,20.86,0,0,0,2.86,2.66,4,4,0,0,0,4.44-.4,4.93,4.93,0,0,0,.74-2.86q.15-2.27.14-12.41V65.5Z"/><path class="cls-13" d="M283.84,65.5c0,5.78,0,9.48.08,11.08.06,2.83.33,4.47.79,4.93a3.33,3.33,0,0,0,2.46.89,3.43,3.43,0,0,0,1.87-.49,20.27,20.27,0,0,0,2.86-2.66L295.05,76V65.5Z"/><path class="cls-1" d="M367.59,28.39c-.73-.26-1.09-.55-1.09-.88a2.21,2.21,0,0,0-.78-1.48c-.4-.4-1.45-.64-3.16-.74s-6.5-.15-14.39-.15q-11.32,0-14.14.15c-1.87.1-3,.31-3.3.64a9.06,9.06,0,0,0-.64,1,6.38,6.38,0,0,1-.69,1,3.06,3.06,0,0,1-.94.69.26.26,0,0,0-.19.1c-1.06.33-1.68,1.33-1.88,3s-.29,7-.29,16.11v4.93q0,22.07.39,23a3.74,3.74,0,0,0,1.73,1.62q1.42.84,1.62,1.53c.33,1.12,1.3,1.78,2.91,2s6.82.3,15.62.3q11.63,0,14.19-.15c1.71-.1,2.76-.34,3.16-.74a3.38,3.38,0,0,0,.78-2.46c0-.14,0-.26,0-.39h0l0-6.88-4.66-.42-1,.3-.1-.1-11.73.1H337.33V58.75h11.53a106.47,106.47,0,0,0,11.68-.35,6,6,0,0,0,3.6-2.21,8.21,8.21,0,0,0,.89-1.34,8.23,8.23,0,0,1,.78-1.23,3.48,3.48,0,0,1,1.19-.88A5.79,5.79,0,0,0,369.17,51a4.44,4.44,0,0,0,.69-2.36Q370,47,370,40.12a74,74,0,0,0-.34-9.61A2.52,2.52,0,0,0,367.59,28.39Zm-8.38,19.12H337.33V35.88h21.88Z"/><path class="cls-14" d="M330,66.65h-3.79c.06,5.66.17,8.69.33,9a3.79,3.79,0,0,0,1.73,1.62c.95.56,1.49,1.07,1.63,1.53a1.25,1.25,0,0,0,.1.27Z"/><path class="cls-15" d="M366.49,77.38l0-6.88-4.67-.42-1,.3-.1-.1-11.73.1H337.34V65.65H330V79.21a3.18,3.18,0,0,0,2.77,1.61q2.42.3,15.62.3,11.64,0,14.2-.15c1.7-.1,2.75-.34,3.15-.74a3.38,3.38,0,0,0,.79-2.46c0-.14,0-.26,0-.39Z"/><path class="cls-1" d="M390.45,15.58,389.07,14q-2.26-2.46-4.53-2.46a3.19,3.19,0,0,0-.89.1,7.05,7.05,0,0,0-3.25,3.25q-.6,1.18-.59,32.23V78.26L381.68,80c1.31,1.32,2.5,2,3.55,2a3.29,3.29,0,0,0,1.72-.4,13.2,13.2,0,0,0,2-1.77L391,77.67V56.48q0-20.29-.39-31.14Z"/><path class="cls-16" d="M390.45,15.58,389.07,14q-2.26-2.46-4.53-2.46a3.19,3.19,0,0,0-.89.1,7.05,7.05,0,0,0-3.25,3.25q-.6,1.18-.59,32.23V78.26L381.68,80c1.31,1.32,2.5,2,3.55,2a3.29,3.29,0,0,0,1.72-.4,13.2,13.2,0,0,0,2-1.77L391,77.67V56.48q0-20.29-.39-31.14Z"/><path class="cls-1" d="M436.47,24.75a3.25,3.25,0,0,0-1.77.49,20.13,20.13,0,0,0-2.76,2.46l-3,3V49.29H412.23V31.05l-3.15-3.15a20.86,20.86,0,0,0-2.86-2.66,3.45,3.45,0,0,0-1.87-.49,3.33,3.33,0,0,0-2.47.88,4.47,4.47,0,0,0-.74,2.62C401,29.59,401,33.19,401,39V51.65L402.38,53a13.23,13.23,0,0,0,2.36,1.78c.66.39,1,.72,1,1A4.34,4.34,0,0,0,407,57.86a7.61,7.61,0,0,0,2.21,2c.79.4,4.31.59,10.55.59H429V73.83H416.85C416,72.24,415,70.45,415,70.45l-9.33.74,0,8.25q0,2.07,2.46,4.14L409.67,85h20.59l2-1.77a7.39,7.39,0,0,0,2.16-2.76,1.39,1.39,0,0,1,1.19-1.18c.52-.07,1.44-.83,2.76-2.27l1.77-1.87V26.82l-1.08-1A3.33,3.33,0,0,0,436.47,24.75Z"/><path class="cls-17" d="M405.77,56V25a3.78,3.78,0,0,0-1.42-.26,3.33,3.33,0,0,0-2.47.88,4.47,4.47,0,0,0-.74,2.62C401,29.59,401,33.19,401,39V51.65L402.38,53a13.23,13.23,0,0,0,2.36,1.78c.66.39,1,.72,1,1A.86.86,0,0,0,405.77,56Z"/><path class="cls-18" d="M407,57.86a7.61,7.61,0,0,0,2.21,2c.79.4,4.31.59,10.55.59H429V63h11.14V26.82l-1.08-1a3.33,3.33,0,0,0-2.57-1.08,3.25,3.25,0,0,0-1.77.49,20.13,20.13,0,0,0-2.76,2.46l-3,3V49.29H412.23V31.05l-3.15-3.15a20.86,20.86,0,0,0-2.86-2.66,3.5,3.5,0,0,0-.65-.3V55.46a.63.63,0,0,1,.16.33A4.34,4.34,0,0,0,407,57.86Z"/><path class="cls-19" d="M430.43,65.76H429v8.07H416.85C416,72.24,415,70.45,415,70.45l-9.33.74,0,8.25q0,2.07,2.46,4.14L409.67,85h20.59l.17-.15Z"/><path class="cls-1" d="M518.27,14.1a3.62,3.62,0,0,0-2.66-.88,3.38,3.38,0,0,0-1.87.44,26.85,26.85,0,0,0-2.86,2.51l-3,3V41.3H485.85V19.62l-3.16-3.25a20.27,20.27,0,0,0-2.86-2.66,3.43,3.43,0,0,0-1.87-.49,3.32,3.32,0,0,0-2.46.88,4.91,4.91,0,0,0-.74,2.86q-.15,2.26-.15,12.52V44l1.48,1.48,1.58,1.38-1.58,1.48-1.48,1.58V64.37q0,10.25.15,12.51a4.91,4.91,0,0,0,.74,2.86,3.33,3.33,0,0,0,2.46.89,3.44,3.44,0,0,0,1.87-.5,19.64,19.64,0,0,0,2.86-2.66l3.16-3.25V52.54h22.07V74.61l3,3.06a17.42,17.42,0,0,0,2.71,2.51,3.64,3.64,0,0,0,1.92.45,3.58,3.58,0,0,0,2.66-1A4.29,4.29,0,0,0,519,77q.15-2,.15-12.61V50.08l-1.88-1.78c-1.24-1.25-1.67-1.87-1.28-1.87s1-.46,1.78-1.38l1.38-1.38V29.28q0-10.16-.15-12.37A4.87,4.87,0,0,0,518.27,14.1Z"/><path class="cls-20" d="M478.56,62.53h-3.95v1.84q0,10.25.15,12.51a4.91,4.91,0,0,0,.74,2.86,3.33,3.33,0,0,0,2.46.89,3.83,3.83,0,0,0,.6,0Z"/><path class="cls-21" d="M514.06,62.53h-6.14V74.61l3,3.06a17.42,17.42,0,0,0,2.71,2.51,2.43,2.43,0,0,0,.47.19Z"/><path class="cls-1" d="M570.6,28.39c-.72-.26-1.09-.55-1.09-.88a2.21,2.21,0,0,0-.78-1.48c-.4-.4-1.45-.64-3.16-.74s-6.5-.15-14.39-.15q-11.32,0-14.14.15c-1.87.1-3,.31-3.3.64a9.06,9.06,0,0,0-.64,1,6.38,6.38,0,0,1-.69,1,3.06,3.06,0,0,1-.94.69.26.26,0,0,0-.19.1c-1,.33-1.68,1.33-1.88,3s-.29,7-.29,16.11v4.93q0,22.07.39,23a3.74,3.74,0,0,0,1.73,1.62q1.42.84,1.62,1.53c.33,1.12,1.3,1.78,2.91,2s6.82.3,15.62.3q11.63,0,14.19-.15c1.71-.1,2.76-.34,3.16-.74a3.38,3.38,0,0,0,.78-2.46c0-.14,0-.26,0-.39h0l0-6.88-4.66-.42-1.05.3-.1-.1-11.73.1H540.34V58.75h11.53a106.34,106.34,0,0,0,11.68-.35,6,6,0,0,0,3.6-2.21,8.21,8.21,0,0,0,.89-1.34,7.49,7.49,0,0,1,.79-1.23,3.34,3.34,0,0,1,1.18-.88A5.79,5.79,0,0,0,572.18,51a4.44,4.44,0,0,0,.69-2.36Q573,47,573,40.12a74,74,0,0,0-.34-9.61A2.52,2.52,0,0,0,570.6,28.39Zm-8.38,19.12H540.34V35.88h21.88Z"/><path class="cls-22" d="M540.34,59.6v-.85h11.53a106.34,106.34,0,0,0,11.68-.35,6,6,0,0,0,3.6-2.21,8.21,8.21,0,0,0,.89-1.34,7.49,7.49,0,0,1,.79-1.23,3.34,3.34,0,0,1,1.18-.88A5.79,5.79,0,0,0,572.18,51a4.44,4.44,0,0,0,.69-2.36c0-.33,0-7.81,0-8.48l-10.7,7v.44H540.34v-.44H529.11v5.67c0,2.49,0,4.77,0,6.86Z"/><path class="cls-23" d="M533,66.65h-3.79c.06,5.66.17,8.69.33,9a3.74,3.74,0,0,0,1.73,1.62q1.42.84,1.62,1.53a2.18,2.18,0,0,0,.11.27Z"/><path class="cls-24" d="M569.49,77.38l0-6.88-4.66-.42-1.05.3-.1-.1-11.73.1H540.34V65.65H533V79.21a3.18,3.18,0,0,0,2.77,1.61q2.41.3,15.62.3,11.63,0,14.19-.15c1.71-.1,2.76-.34,3.16-.74a3.38,3.38,0,0,0,.78-2.46c0-.14,0-.26,0-.39Z"/><path class="cls-1" d="M610.61,28.79a3,3,0,0,0-1.77-1.09.52.52,0,0,1-.6-.59,3,3,0,0,0-1.08-1.77,3,3,0,0,0-2-.94q-1.29-.15-8.08-.15c-4.47,0-7.11.05-7.94.15a3.16,3.16,0,0,0-1.92.84,3.5,3.5,0,0,0-1,1.77c0,.46-.27.69-.79.69a2.21,2.21,0,0,0-1.68,1l-1,1V65.55q0,13.8,1,15.37c.2.4.92.69,2.17.89a2.76,2.76,0,0,0,.79.1c.66,0,2-1,4-3.06l3.25-3.15V35.49h6.41V46.13L603,48.5q2.57,2.46,4,2.46a4.62,4.62,0,0,0,3-1.67l1.67-1.68V38.74q0-6.7-.14-8A3,3,0,0,0,610.61,28.79Z"/><path class="cls-25" d="M588.15,65.18h-5.33v.37q0,13.8,1,15.37c.2.4.92.69,2.17.89a2.76,2.76,0,0,0,.79.1,3,3,0,0,0,1.39-.68Z"/><path class="cls-1" d="M664.12,33a15.21,15.21,0,0,0-2.76-2.27c-.65-.33-1-.69-1-1.09s-.73-1.24-2.17-2.56l-2.07-2H631.5l-1.87,1.78a7.26,7.26,0,0,0-2.17,2.75A2.08,2.08,0,0,1,626.18,31a7.39,7.39,0,0,0-2.76,2.16l-1.77,2v37l1.77,2a7.34,7.34,0,0,0,2.76,2.17c.72.26,1.08.62,1.08,1.09s.73,1.34,2.17,2.66L631.5,82h24.93L658,80.63a8.24,8.24,0,0,0,2.27-2.86c.33-.92.72-1.38,1.18-1.38s1.18-.63,2.56-1.87l2-1.88V34.8Zm-9.36,37.74H632.88V36.38h21.88Z"/><path class="cls-26" d="M627,64.08h-5.38v8l1.77,2a7.34,7.34,0,0,0,2.76,2.17,2,2,0,0,1,.85.53Z"/><path class="cls-27" d="M631.66,68.46h-4.61v8.29a.82.82,0,0,1,.21.53c0,.45.73,1.34,2.17,2.66L631.5,82h.16Z"/><path class="cls-28" d="M660.86,76.69l-.3-7.46-4.13,4.4V82s1.22-1,2.49-2.26A7.15,7.15,0,0,0,660.18,78,3.38,3.38,0,0,1,660.86,76.69Z"/><rect class="cls-29" x="631.5" y="74.11" width="24.93" height="7.9"/><path class="cls-30" d="M44.15,51.25a65.54,65.54,0,0,0-.29-8.18,4.61,4.61,0,0,0-1.78-2.76l-1.18-.89,1.18-.89a9.68,9.68,0,0,0,1.58-1.77q.5-1,.49-14.49,0-9.85-.15-11.87a3.94,3.94,0,0,0-.83-2.61A2.91,2.91,0,0,0,41.49,7c-.59,0-.89-.26-.89-.79a2.45,2.45,0,0,0-.79-1.78c-.39-.39-1.47-.64-3.25-.73s-6.7-.15-14.78-.15h-17L3.94,5.32C3.55,6.44,3.05,7,2.46,7c-.39,0-.92.39-1.57,1.18A4.55,4.55,0,0,0,.1,10.94C0,12.25,0,16.2,0,22.76V36.07l3.25,3.25L0,42.87v14Q0,67.12.1,69.18A4.76,4.76,0,0,0,.89,72a3.24,3.24,0,0,0,2.66,1.08,3.88,3.88,0,0,0,2-.44,19.36,19.36,0,0,0,2.71-2.41l3-3.06V45H22.17c4.87,0,7.92.05,9.17.15s1.94.31,2.07.64.29,4.07.29,11l-.09,10.45,3,3q3,2.85,4.53,2.85a3.09,3.09,0,0,0,2.67-1,7.45,7.45,0,0,0,.68-3.84c0-1.32,0-2.4-.09-3.26Q44.15,60.51,44.15,51.25ZM33.31,24.34l-.1,9.46h-22v-19H33.31Z"/><path class="cls-30" d="M95.2,22.57C94.41,22.37,94,22,94,21.48s-.63-1.51-1.88-2.76l-1.87-1.87H62.78L60.71,19c-1.32,1.45-2,2.36-2,2.76s-.27.69-.79.69a3.16,3.16,0,0,0-2.17,1.38L54.4,25.33V49.18q0,17.24.15,20.64c.1,2.27.37,3.6.83,4a4,4,0,0,0,2.47.69A3,3,0,0,0,59.57,74a23,23,0,0,0,2.71-2.46l3-2.86V49q0-19.9.2-20.3Q65.63,28,76.67,28H87.61v40.6l2.86,3a23.75,23.75,0,0,0,2.76,2.51,3.6,3.6,0,0,0,2,.44,3.24,3.24,0,0,0,2.66-1.08c.46-.53.72-1.84.79-3.94s.1-8.87.1-20.3V26.12l-1.19-1.68A4.1,4.1,0,0,0,95.2,22.57Z"/><path class="cls-30" d="M177.14,4.19a1.23,1.23,0,0,0-.44-.74,5,5,0,0,0-1.28-.4q-.49,0-4.83,4.14l-4.24,4.24V63.76H144.47V11.92l-4.23-4.23c-2.83-2.76-4.6-4.14-5.33-4.14h-.19l-1.28.19q0,10.35-.1,30.95t-.1,30.85q6.1,6.3,9.26,9.36h25.62l2.17-2q2.07-1.87,2.07-2.37c0-.06.89-1,2.66-2.76l2.57-2.46V17.15c0-3.75-.05-6.75-.15-9A31.24,31.24,0,0,0,177.14,4.19Z"/><path class="cls-30" d="M228.24,22.57c-.79-.2-1.18-.56-1.18-1.09s-.63-1.51-1.87-2.76l-1.88-1.87H195.82L193.75,19c-1.32,1.45-2,2.36-2,2.76s-.27.69-.79.69a3.16,3.16,0,0,0-2.17,1.38l-1.38,1.48V49.18q0,17.24.15,20.64t.84,4a3.91,3.91,0,0,0,2.46.69,3,3,0,0,0,1.72-.49,23,23,0,0,0,2.71-2.46l3-2.86V49q0-19.9.2-20.3.2-.69,11.23-.69h10.94v40.6l2.86,3a23.75,23.75,0,0,0,2.76,2.51,3.62,3.62,0,0,0,2,.44,3.24,3.24,0,0,0,2.66-1.08c.46-.53.72-1.84.79-3.94s.1-8.87.1-20.3V26.12l-1.18-1.68A4.15,4.15,0,0,0,228.24,22.57Z"/><path class="cls-30" d="M252.29,7.69l-1.38-1.58q-2.28-2.46-4.54-2.46a3.19,3.19,0,0,0-.88.09A7.1,7.1,0,0,0,242.23,7q-.58,1.19-.59,32.22V70.37l1.87,1.77c1.32,1.31,2.5,2,3.55,2a3.31,3.31,0,0,0,1.73-.39,14.64,14.64,0,0,0,2-1.78l2.07-2.17V48.58q0-20.3-.4-31.14Z"/><path class="cls-30" d="M268.35,0a17.36,17.36,0,0,0-3.45.2,2.51,2.51,0,0,0-1.28,1,8.18,8.18,0,0,0-.89,4.44c0,2.43.28,4,.84,4.58s2.05,1,4.48,1h2a3.7,3.7,0,0,0,2.76-1,3.46,3.46,0,0,0,1-1.58,16.68,16.68,0,0,0,.2-3.25c0-2.5-.3-4-.89-4.58S270.91,0,268.35,0Z"/><path class="cls-30" d="M269.43,18.23a4,4,0,0,0-2.17.69,15.36,15.36,0,0,0-2.85,2.56l-1.68,1.78V67.8L265.88,71c2.11,2.1,3.68,3.15,4.74,3.15a3.82,3.82,0,0,0,2.16-1l1.19-.78V21.48l-1.68-1.67A4.36,4.36,0,0,0,269.43,18.23Z"/><path class="cls-30" d="M311.32,13.8h-3.16L295.05,26.9V13.7l-3.15-3.16A20.27,20.27,0,0,0,289,7.88a3.52,3.52,0,0,0-1.87-.49,3.32,3.32,0,0,0-2.46.79c-.46.46-.73,2.1-.79,4.93s-.1,12.09-.1,27.79,0,25,.1,27.79.33,4.47.79,4.93a3.32,3.32,0,0,0,2.46.88A3.43,3.43,0,0,0,289,74a20.27,20.27,0,0,0,2.86-2.66l3.15-3.25V46.52h9.86V68.1l3,3.25A20.86,20.86,0,0,0,310.82,74a4,4,0,0,0,4.44-.39,5,5,0,0,0,.74-2.86q.15-2.27.14-12.42V43.85l-1.47-1.47c-1-1-1.71-1.48-2.17-1.48s-.73-.36-1-1.09c-.06-.45-.79-1.38-2.17-2.76a7.32,7.32,0,0,0-1.92-1.42,7.54,7.54,0,0,0-2.41-.25h-2.47l6.8-6.8q6.81-6.79,6.8-7.49V18q-.09-2.65-.93-3.45C314.65,14.06,313.35,13.8,311.32,13.8Z"/><path class="cls-30" d="M367.59,20.5c-.73-.26-1.09-.56-1.09-.89a2.23,2.23,0,0,0-.78-1.48c-.4-.39-1.45-.64-3.16-.74s-6.5-.14-14.39-.14q-11.32,0-14.14.14c-1.87.1-3,.32-3.3.64a11.54,11.54,0,0,0-.64,1,7.06,7.06,0,0,1-.69,1,3.06,3.06,0,0,1-.94.69.28.28,0,0,0-.19.09c-1.06.33-1.68,1.33-1.88,3s-.29,7.05-.29,16.11v4.93q0,22.08.39,23a3.75,3.75,0,0,0,1.73,1.63q1.42.84,1.62,1.53c.33,1.11,1.3,1.77,2.91,2s6.82.29,15.62.29q11.63,0,14.19-.14c1.71-.1,2.76-.35,3.16-.74a3.4,3.4,0,0,0,.78-2.47A3.45,3.45,0,0,0,366,68a19.61,19.61,0,0,0-2.36-2.66l-3-3-11.73.1H337.33V50.85h11.53a107.68,107.68,0,0,0,11.68-.34,6,6,0,0,0,3.6-2.22A8.11,8.11,0,0,0,365,47a8.23,8.23,0,0,1,.78-1.23,3.49,3.49,0,0,1,1.19-.89,5.76,5.76,0,0,0,2.17-1.77,4.51,4.51,0,0,0,.69-2.37q.09-1.58.09-8.47a73.84,73.84,0,0,0-.34-9.61A2.51,2.51,0,0,0,367.59,20.5Zm-8.38,19.12H337.33V28h21.88Z"/><path class="cls-30" d="M390.45,7.69l-1.38-1.58q-2.26-2.46-4.53-2.46a3.27,3.27,0,0,0-.89.09A7.08,7.08,0,0,0,380.4,7q-.6,1.19-.59,32.22V70.37l1.87,1.77c1.31,1.31,2.5,2,3.55,2a3.29,3.29,0,0,0,1.72-.39,14.06,14.06,0,0,0,2-1.78L391,69.77V48.58q0-20.3-.39-31.14Z"/><path class="cls-30" d="M436.47,16.85a3.34,3.34,0,0,0-1.77.49,20.45,20.45,0,0,0-2.76,2.47l-3,3V41.39H412.23V23.16L409.08,20a20.49,20.49,0,0,0-2.86-2.67,3.54,3.54,0,0,0-1.87-.49,3.34,3.34,0,0,0-2.47.89,4.4,4.4,0,0,0-.74,2.61c-.1,1.35-.14,4.94-.14,10.79V43.76l1.38,1.38a12.57,12.57,0,0,0,2.36,1.77q1,.59,1,1A4.37,4.37,0,0,0,407,50a7.68,7.68,0,0,0,2.21,2q1.18.59,10.55.59H429v13.4H409.67l-1.58,1.38q-2.46,2.26-2.46,4.24t2.46,4.14l1.58,1.38h20.59l2-1.78a7.39,7.39,0,0,0,2.16-2.76,1.4,1.4,0,0,1,1.19-1.18c.52-.07,1.44-.82,2.76-2.27l1.77-1.87V18.92l-1.08-1A3.3,3.3,0,0,0,436.47,16.85Z"/><path class="cls-30" d="M518.27,6.21a3.62,3.62,0,0,0-2.66-.89,3.47,3.47,0,0,0-1.87.44,27.43,27.43,0,0,0-2.86,2.52l-3,3V33.41H485.85V11.73l-3.16-3.26a20.27,20.27,0,0,0-2.86-2.66A3.52,3.52,0,0,0,478,5.32a3.33,3.33,0,0,0-2.46.89,4.88,4.88,0,0,0-.74,2.86q-.15,2.27-.15,12.51V36.07l1.48,1.48,1.58,1.38-1.58,1.48L474.61,42V56.47q0,10.25.15,12.52a4.84,4.84,0,0,0,.74,2.85,3.33,3.33,0,0,0,2.46.89,3.43,3.43,0,0,0,1.87-.49,20.27,20.27,0,0,0,2.86-2.66l3.16-3.26V44.64h22.07V66.72l3,3a18.24,18.24,0,0,0,2.71,2.52,3.74,3.74,0,0,0,1.92.44,3.62,3.62,0,0,0,2.66-1,4.33,4.33,0,0,0,.84-2.67q.15-2,.15-12.61V42.18l-1.88-1.77c-1.24-1.25-1.67-1.88-1.28-1.88s1-.46,1.78-1.38l1.38-1.38V21.38q0-10.14-.15-12.36A4.84,4.84,0,0,0,518.27,6.21Z"/><path class="cls-30" d="M570.6,20.5c-.72-.26-1.09-.56-1.09-.89a2.23,2.23,0,0,0-.78-1.48c-.4-.39-1.45-.64-3.16-.74s-6.5-.14-14.39-.14q-11.32,0-14.14.14c-1.87.1-3,.32-3.3.64a11.54,11.54,0,0,0-.64,1,7.06,7.06,0,0,1-.69,1,3.06,3.06,0,0,1-.94.69.28.28,0,0,0-.19.09c-1,.33-1.68,1.33-1.88,3s-.29,7.05-.29,16.11v4.93q0,22.08.39,23a3.75,3.75,0,0,0,1.73,1.63q1.42.84,1.62,1.53c.33,1.11,1.3,1.77,2.91,2s6.82.29,15.62.29q11.63,0,14.19-.14c1.71-.1,2.76-.35,3.16-.74a3.4,3.4,0,0,0,.78-2.47A3.45,3.45,0,0,0,569,68a19.61,19.61,0,0,0-2.36-2.66l-3-3-11.73.1H540.34V50.85h11.53a107.55,107.55,0,0,0,11.68-.34,6,6,0,0,0,3.6-2.22A8.11,8.11,0,0,0,568,47a7.49,7.49,0,0,1,.79-1.23,3.35,3.35,0,0,1,1.18-.89,5.76,5.76,0,0,0,2.17-1.77,4.51,4.51,0,0,0,.69-2.37q.09-1.58.09-8.47a73.84,73.84,0,0,0-.34-9.61A2.51,2.51,0,0,0,570.6,20.5Zm-8.38,19.12H540.34V28h21.88Z"/><path class="cls-30" d="M610.61,20.89a3,3,0,0,0-1.77-1.08.53.53,0,0,1-.6-.59,3,3,0,0,0-1.08-1.78,3,3,0,0,0-2-.93q-1.29-.15-8.08-.15c-4.47,0-7.11.05-7.94.15a3.22,3.22,0,0,0-1.92.83,3.48,3.48,0,0,0-1,1.78c0,.46-.27.69-.79.69a2.22,2.22,0,0,0-1.68,1l-1,1V57.65q0,13.8,1,15.38c.2.39.92.69,2.17.88a2.45,2.45,0,0,0,.79.1c.66,0,2-1,4-3.05l3.25-3.16V27.59h6.41V38.24L603,40.6q2.57,2.48,4,2.47a4.6,4.6,0,0,0,3-1.68l1.67-1.67V30.85q0-6.71-.14-8A3,3,0,0,0,610.61,20.89Z"/><path class="cls-30" d="M664.12,25.13a15.21,15.21,0,0,0-2.76-2.27c-.65-.32-1-.69-1-1.08s-.73-1.25-2.17-2.56l-2.07-2H631.5L629.63,19a7.34,7.34,0,0,0-2.17,2.76,1.8,1.8,0,0,1-.49.79,1.71,1.71,0,0,1-.79.49,7.46,7.46,0,0,0-2.76,2.17l-1.77,2v37l1.77,2a7.57,7.57,0,0,0,2.76,2.17q1.08.39,1.08,1.08c0,.46.73,1.35,2.17,2.66l2.07,2.07h24.93L658,72.73a8.06,8.06,0,0,0,2.27-2.86c.33-.92.72-1.38,1.18-1.38s1.18-.62,2.56-1.87l2-1.87V26.9Zm-9.36,37.75H632.88V28.48h21.88Z"/></g></g></svg>