<svg id="Layer_1" data-name="Layer 1" xmlns="http://www.w3.org/2000/svg" viewBox="0 0 260.7 72.57"><defs><style>.cls-1{fill:#0b6994;}.cls-1,.cls-2{fill-rule:evenodd;}.cls-2{fill:#4496d2;}.cls-3{fill:#fff;}.cls-4{fill:#52b3e5;}.cls-5{fill:#efda84;}</style></defs><path class="cls-1" d="M0,43.68v8.47A20.41,20.41,0,0,0,20.41,72.57H240.29A20.41,20.41,0,0,0,260.7,52.15V43.68Z"/><path class="cls-2" d="M240.29,0H20.41A20.41,20.41,0,0,0,0,20.41V49H0V46.7A20.41,20.41,0,0,0,20.41,67.11H240.29A20.41,20.41,0,0,0,260.7,46.7V49h0V20.41A20.41,20.41,0,0,0,240.29,0Z"/><path class="cls-3" d="M116.63,21.74H111.9v5h-2.05V15h7.48v1.65H111.9V20.1h4.73Z"/><path class="cls-3" d="M128.33,21.15a7.48,7.48,0,0,1-.35,2.4,5,5,0,0,1-1,1.8,4.3,4.3,0,0,1-1.53,1.14,5.25,5.25,0,0,1-4,0,4.46,4.46,0,0,1-1.55-1.14,5.24,5.24,0,0,1-1-1.8,7.47,7.47,0,0,1-.36-2.4v-.6a7.49,7.49,0,0,1,.36-2.41,5.54,5.54,0,0,1,1-1.81,4.22,4.22,0,0,1,1.54-1.14,5.25,5.25,0,0,1,4,0A4.17,4.17,0,0,1,127,16.33a5.18,5.18,0,0,1,1,1.81,7.5,7.5,0,0,1,.35,2.41Zm-2-.62a7,7,0,0,0-.19-1.74,3.84,3.84,0,0,0-.55-1.26,2.49,2.49,0,0,0-.9-.78,2.85,2.85,0,0,0-2.38,0,2.46,2.46,0,0,0-.89.78,3.86,3.86,0,0,0-.57,1.26,7,7,0,0,0-.19,1.74v.62a7,7,0,0,0,.19,1.74,4,4,0,0,0,.57,1.27,2.38,2.38,0,0,0,.9.78,2.6,2.6,0,0,0,1.19.26,2.41,2.41,0,0,0,2.09-1,5.2,5.2,0,0,0,.73-3Z"/><path class="cls-3" d="M132.41,25.09h5.35v1.63h-7.39V15h2Z"/><path class="cls-3" d="M141.37,25.09h5.34v1.63h-7.39V15h2.05Z"/><path class="cls-3" d="M157.15,21.15a7.77,7.77,0,0,1-.35,2.4,5.38,5.38,0,0,1-1,1.8,4.33,4.33,0,0,1-1.54,1.14,5.25,5.25,0,0,1-4,0,4.42,4.42,0,0,1-1.54-1.14,5.08,5.08,0,0,1-1-1.8,7.47,7.47,0,0,1-.36-2.4v-.6a7.49,7.49,0,0,1,.36-2.41,5.37,5.37,0,0,1,1-1.81,4.22,4.22,0,0,1,1.54-1.14,5.25,5.25,0,0,1,4,0,4.22,4.22,0,0,1,1.54,1.14,5.37,5.37,0,0,1,1,1.81,7.79,7.79,0,0,1,.35,2.41Zm-2.05-.62a7,7,0,0,0-.19-1.74,3.64,3.64,0,0,0-.55-1.26,2.46,2.46,0,0,0-.89-.78,2.75,2.75,0,0,0-1.2-.26,2.66,2.66,0,0,0-1.18.26,2.57,2.57,0,0,0-.9.78,3.85,3.85,0,0,0-.56,1.26,7,7,0,0,0-.2,1.74v.62a7,7,0,0,0,.2,1.74,3.63,3.63,0,0,0,.57,1.27,2.38,2.38,0,0,0,.9.78,2.56,2.56,0,0,0,1.18.26,2.39,2.39,0,0,0,2.09-1,5.2,5.2,0,0,0,.73-3Z"/><path class="cls-3" d="M168.41,23.81,170.22,15h2l-2.71,11.76h-2l-2.24-8.59-2.28,8.59h-2L158.38,15h2l1.82,8.84L164.48,15h1.71Z"/><path class="cls-3" d="M186.47,15v7.87a4.27,4.27,0,0,1-.34,1.77,3.63,3.63,0,0,1-.94,1.27,4.21,4.21,0,0,1-1.4.76,5.57,5.57,0,0,1-1.71.25,5.74,5.74,0,0,1-1.75-.25,4,4,0,0,1-1.39-.76A3.49,3.49,0,0,1,178,24.6a4.44,4.44,0,0,1-.33-1.77V15h2v7.87a3.15,3.15,0,0,0,.16,1.08,1.9,1.9,0,0,0,.48.76,1.78,1.78,0,0,0,.74.44,3.5,3.5,0,0,0,2,0,1.78,1.78,0,0,0,.74-.44,1.89,1.89,0,0,0,.47-.76,3.14,3.14,0,0,0,.17-1.08V15Z"/><path class="cls-3" d="M194.81,23.69a1.73,1.73,0,0,0-.11-.63,1.32,1.32,0,0,0-.38-.52,3.57,3.57,0,0,0-.77-.44,9.78,9.78,0,0,0-1.26-.45,11.65,11.65,0,0,1-1.55-.58,5,5,0,0,1-1.22-.75,3.15,3.15,0,0,1-.81-1,2.8,2.8,0,0,1-.29-1.28,2.9,2.9,0,0,1,.3-1.31,3.14,3.14,0,0,1,.86-1,4,4,0,0,1,1.31-.68,5.72,5.72,0,0,1,1.7-.24,5.3,5.3,0,0,1,1.79.28,4,4,0,0,1,1.33.78,3.25,3.25,0,0,1,.84,1.15,3.38,3.38,0,0,1,.29,1.38h-2a2.26,2.26,0,0,0-.14-.79,1.6,1.6,0,0,0-.41-.62,2,2,0,0,0-.69-.41,3.26,3.26,0,0,0-1-.14,3.18,3.18,0,0,0-.93.12,1.72,1.72,0,0,0-.66.34,1.27,1.27,0,0,0-.39.51,1.78,1.78,0,0,0-.12.65,1.29,1.29,0,0,0,.61,1.09A6.75,6.75,0,0,0,193,20a10.19,10.19,0,0,1,1.72.65,4.63,4.63,0,0,1,1.21.8,2.87,2.87,0,0,1,.71,1,3.23,3.23,0,0,1,.24,1.27,2.89,2.89,0,0,1-.3,1.33,2.64,2.64,0,0,1-.84,1,3.87,3.87,0,0,1-1.32.64,6.15,6.15,0,0,1-1.73.22,6,6,0,0,1-1.67-.23,4.68,4.68,0,0,1-1.48-.69,3.64,3.64,0,0,1-1-1.16,3.18,3.18,0,0,1-.4-1.63h2a2.12,2.12,0,0,0,.2.95,1.75,1.75,0,0,0,.54.66,2.32,2.32,0,0,0,.81.37,4.11,4.11,0,0,0,1,.12,2.6,2.6,0,0,0,1.61-.43A1.4,1.4,0,0,0,194.81,23.69Z"/><path class="cls-3" d="M212.15,21.15a7.48,7.48,0,0,1-.35,2.4,5,5,0,0,1-1,1.8,4.21,4.21,0,0,1-1.53,1.14,5.25,5.25,0,0,1-4,0,4.46,4.46,0,0,1-1.55-1.14,5.24,5.24,0,0,1-1-1.8,7.47,7.47,0,0,1-.36-2.4v-.6a7.49,7.49,0,0,1,.36-2.41,5.54,5.54,0,0,1,1-1.81,4.3,4.3,0,0,1,1.54-1.14,4.93,4.93,0,0,1,2-.39,5,5,0,0,1,2,.39,4.22,4.22,0,0,1,1.54,1.14,5.18,5.18,0,0,1,1,1.81,7.5,7.5,0,0,1,.35,2.41Zm-2-.62a7,7,0,0,0-.19-1.74,3.84,3.84,0,0,0-.55-1.26,2.49,2.49,0,0,0-.9-.78,2.85,2.85,0,0,0-2.38,0,2.54,2.54,0,0,0-.89.78,3.85,3.85,0,0,0-.56,1.26,6.55,6.55,0,0,0-.2,1.74v.62a6.55,6.55,0,0,0,.2,1.74,3.63,3.63,0,0,0,.57,1.27,2.24,2.24,0,0,0,.9.78,2.53,2.53,0,0,0,1.18.26,2.41,2.41,0,0,0,2.09-1,5.2,5.2,0,0,0,.73-3Z"/><path class="cls-3" d="M223.52,26.72h-2l-5.25-8.35v8.35h-2V15h2l5.27,8.38V15h2Z"/><path class="cls-3" d="M123.57,39.49h-5.89v16H113v-16h-5.79V35.83h16.41Z"/><path class="cls-3" d="M141,48.14l2.26-12.31h4.69l-4.17,19.64h-4.91l-2.63-11.2-2.57,11.2h-4.9l-4.18-19.64h4.71l2.25,12.31,2.7-12.31h4Z"/><path class="cls-3" d="M154.82,55.47H150.1V35.83h4.72Z"/><path class="cls-3" d="M173.13,39.49h-5.89v16h-4.73v-16h-5.79V35.83h16.41Z"/><path class="cls-3" d="M190.76,39.49h-5.89v16h-4.74v-16h-5.78V35.83h16.41Z"/><path class="cls-3" d="M204.93,47.15h-7.44v4.67h8.79v3.65H192.76V35.83h13.55v3.66h-8.82v4.13h7.44Z"/><path class="cls-3" d="M215.51,48.53h-2.57v6.94h-4.73V35.83h7.73a11.68,11.68,0,0,1,3.07.38,6.87,6.87,0,0,1,2.35,1.14,5,5,0,0,1,1.49,1.85,6.06,6.06,0,0,1,.52,2.56,7.3,7.3,0,0,1-.25,2,5.11,5.11,0,0,1-.69,1.55,4.81,4.81,0,0,1-1.09,1.16,7.83,7.83,0,0,1-1.4.86l4.1,7.91v.21H219Zm-2.57-3.65h3a2.71,2.71,0,0,0,2-.71,3.2,3.2,0,0,0,0-4,2.66,2.66,0,0,0-2-.72h-3Z"/><path class="cls-3" d="M39.93,51a22.82,22.82,0,0,0,15-4.48c-4.77-.64-7.86-3-9.63-7.41h4l.14-.26c-4.82-1.74-7.52-5-7.88-10.29l4.21,1.19.2-.25a10.66,10.66,0,0,1-4.31-8.57,9.29,9.29,0,0,1,1.45-5.19,9.45,9.45,0,0,1,.76.69,30,30,0,0,0,19.8,10.14c.86.09,1.14-.23,1-1a10.53,10.53,0,0,1,5.67-10.65,10.4,10.4,0,0,1,11.81,1.45,1.73,1.73,0,0,0,1.86.42l5.41-1.94c-.5,2.28-2.18,3.67-3.65,5.42l5.07-1.35a13.08,13.08,0,0,1-1,1.47,42.61,42.61,0,0,1-3.1,3.06,2.25,2.25,0,0,0-.86,1.86,30.9,30.9,0,0,1-5.34,17.25c-5.8,8.37-13.79,12.74-24,13a30,30,0,0,1-15.95-4.07C40.34,51.24,40.14,51.09,39.93,51Z"/><path class="cls-4" d="M260.7,45.78a20.41,20.41,0,0,1-20.41,20.41H20.41A20.41,20.41,0,0,1,0,45.79v.92a20.41,20.41,0,0,0,20.41,20.4H240.29A20.41,20.41,0,0,0,260.7,46.7Z"/><rect class="cls-5" y="48.08" height="0.92"/><rect class="cls-5" x="260.7" y="48.08" height="0.92"/></svg>