<svg xmlns="http://www.w3.org/2000/svg" viewBox="0 0 600 1298.9"><defs><style>.cls-1,.cls-8{isolation:isolate;}.cls-2,.cls-8,.cls-9{fill:#120a2d;}.cls-3{fill:#0d0723;}.cls-4,.cls-5{fill:#110828;}.cls-4{mix-blend-mode:multiply;}.cls-6,.cls-7{fill:#100a2b;}.cls-6,.cls-9{opacity:0.25;}.cls-8{opacity:0.15;}</style></defs><g class="cls-1"><g id="Layer_2" data-name="Layer 2"><g id="Slider_2" data-name="Slider 2"><rect class="cls-2" width="600" height="1298.9"/><rect class="cls-3" x="45.13" y="136.83" width="509.75" height="1011.44"/><polygon class="cls-4" points="75.86 1172.6 72.47 1178.49 525.38 1178.49 518.96 1172.15 75.86 1172.6"/><polygon class="cls-3" points="66.14 1173.32 51.64 1190 548.36 1190 528.57 1172.04 66.14 1173.32"/><polygon class="cls-5" points="76.44 1160.16 76.78 1176.06 521.67 1176.06 522.04 1160.16 76.44 1160.16"/><polygon class="cls-5" points="76.44 1162.6 76.71 1172.6 521.91 1168.43 522.04 1162.6 76.44 1162.6"/><rect class="cls-3" x="45.13" y="1017.36" width="509.51" height="147.8"/><polygon class="cls-6" points="81.91 697.84 81.91 268.17 88.4 241.99 505.11 247.16 511.6 671.66 498.78 697.84 81.91 697.84"/><rect class="cls-7" x="85.16" y="245.23" width="429.67" height="423.2" transform="translate(756.83 156.83) rotate(90)"/><rect class="cls-7" x="98.92" y="253.17" width="402.83" height="407.32"/><g id="Layer_2-2" data-name="Layer 2"><g id="Layer_1-2" data-name="Layer 1-2"><g id="Layer_3" data-name="Layer 3"><path class="cls-8" d="M71.09,1069.8l2.41-1.14v27.83h48v9.36c0,2.84-1.52,6.2-3.92,9.23a23.76,23.76,0,0,1-14.8,8.48l-31.62,5.25c-10.88,2-13.54-.51-13.54-6.27v-35.86C57.62,1080.93,63.63,1073.4,71.09,1069.8Z"/><path class="cls-2" d="M111.07,1116.92H82.54a10.45,10.45,0,0,1-10.43-10.44V1078a10.45,10.45,0,0,1,10.43-10.44h28.53A10.45,10.45,0,0,1,121.5,1078v28.52A10.45,10.45,0,0,1,111.07,1116.92Z"/><path class="cls-2" d="M106.89,1116.92H78.37a10.45,10.45,0,0,1-10.44-10.44V1078a10.45,10.45,0,0,1,10.44-10.44h28.52A10.39,10.39,0,0,1,117.26,1078v28.52A10.39,10.39,0,0,1,106.89,1116.92Z"/><path class="cls-8" d="M91.78,1108.76l9.61-3-22.26-12.9-3.29,1.27a1.77,1.77,0,0,0-1,2.34,1.72,1.72,0,0,0,.56.76l14.74,11.19A2,2,0,0,0,91.78,1108.76Z"/><path class="cls-2" d="M116.88,1106.48V1078a10.45,10.45,0,0,0-10.43-10.44h.38A10.4,10.4,0,0,1,117.26,1078h0v28.52a10.45,10.45,0,0,1-10.43,10.44h-.38a10.45,10.45,0,0,0,10.43-10.44Z"/><polygon class="cls-2" points="79.13 1092.88 99.74 1105.72 99.74 1092.88 99.74 1080.04 79.13 1092.88"/><path class="cls-2" d="M99.55,1080.11l.13-.13v25.68l-.13-.13Q99.75,1093,99.55,1080.11Z"/><polygon class="cls-2" points="99.74 1080.04 101.39 1080.04 101.39 1092.88 101.39 1105.72 99.74 1105.72 99.74 1080.04"/></g></g></g><g id="Layer_2-3" data-name="Layer 2"><g id="Layer_2-2-2" data-name="Layer 2-2"><path class="cls-8" d="M532.12,1069.83l-2.4-1.14v27.83h-48v9.36c0,2.85,1.52,6.2,3.92,9.24a23.79,23.79,0,0,0,14.8,8.47l31.63,5.25c10.81,1.9,13.47-.63,13.47-6.39v-35.73C545.59,1081,539.52,1073.44,532.12,1069.83Z"/><path class="cls-2" d="M492.15,1067.56h28.52A10.45,10.45,0,0,1,531.11,1078v28.52A10.45,10.45,0,0,1,520.67,1117H492.15a10.45,10.45,0,0,1-10.44-10.44V1078A10.45,10.45,0,0,1,492.15,1067.56Z"/><path class="cls-2" d="M496.32,1067.56h28.53A10.44,10.44,0,0,1,535.28,1078v28.52A10.45,10.45,0,0,1,524.85,1117H496.32a10.45,10.45,0,0,1-10.43-10.44V1078A10.44,10.44,0,0,1,496.32,1067.56Z"/><path class="cls-8" d="M511.44,1108.79l-9.68-3L524,1093l3.29,1.26a1.78,1.78,0,0,1,1,2.35,1.69,1.69,0,0,1-.56.75L513,1108.48A2,2,0,0,1,511.44,1108.79Z"/><path class="cls-2" d="M486.27,1106.51V1078a10.44,10.44,0,0,1,10.43-10.43h-.38A10.44,10.44,0,0,0,485.89,1078h0v28.52A10.45,10.45,0,0,0,496.32,1117h.38a10.45,10.45,0,0,1-10.43-10.44Z"/><polygon class="cls-2" points="524.02 1092.92 503.47 1105.76 503.47 1092.92 503.47 1080.08 524.02 1092.92"/><path class="cls-2" d="M503.66,1080.14l-.19-.13v25.68l.19-.12Q503.46,1093,503.66,1080.14Z"/><polygon class="cls-2" points="503.47 1080.08 501.76 1080.08 501.76 1092.92 501.76 1105.76 503.47 1105.76 503.47 1080.08"/></g></g><polygon class="cls-9" points="393 774.13 389.11 782.52 69.69 782.29 67.14 707.01 393 774.13"/><polygon class="cls-2" points="395.93 707.01 67.14 707.01 71.15 768.49 395.93 768.49 395.93 707.01"/><polygon class="cls-2" points="71.15 768.49 76.76 774.61 393 774.13 395.93 768.49 71.15 768.49"/><rect class="cls-2" x="504.59" y="729.81" width="6.99" height="255.51"/><polygon class="cls-2" points="524.58 757.71 491.59 757.71 490.76 755.12 525.41 755.12 524.58 757.71"/><rect class="cls-2" x="490.76" y="743.98" width="34.65" height="11.15"/></g></g></g></svg>