<?xml version="1.0" encoding="utf-8"?>
<!-- Generator: Adobe Illustrator 25.0.1, SVG Export Plug-In . SVG Version: 6.00 Build 0)  -->
<svg version="1.1" id="Layer_1" xmlns="http://www.w3.org/2000/svg" xmlns:xlink="http://www.w3.org/1999/xlink" x="0px" y="0px"
	 viewBox="0 0 32 32" style="enable-background:new 0 0 32 32;" xml:space="preserve">
<style type="text/css">
	.st0{fill:#3D3DD1;}
	.st1{fill:#3030B7;}
	.st2{fill:#736CFF;}
	.st3{fill:#D2F1FC;}
</style>
<g>
	<path class="st0" d="M31.8,22V10.5C31.8,4.7,27.1,0,21.3,0H9.1c-5,0-9,4-9,9v13.2h0.3v1.1H0.2c0.2,4.8,4.1,8.7,9,8.7h17.2
		c3,0,5.4-2.4,5.4-5.4v-3.4h-0.3V22H31.8z"/>
	<polygon class="st1" points="23.3,22 31.5,22 31.5,23.2 23.3,23.2 	"/>
	<path class="st2" d="M23.3,22V9c0-4.5-3.7-8.2-8.2-8.2H9.1C4.6,0.8,0.9,4.5,0.9,9v7h0v6.2h0.2v1.1H0.9c0.2,4.4,3.7,7.9,8.2,7.9
		h10.2c2.2,0,4-1.8,4-4v-4H6.1V22H23.3z"/>
	<g>
		<path class="st0" d="M12,6.3L12,6.3c-3.2,0-5.9,2.6-5.9,5.9v4.3h11.8v-4.3C17.9,8.9,15.3,6.3,12,6.3z"/>
		<path class="st3" d="M12,7.2L12,7.2c-2.8,0-5,2.3-5,5v3.4h10.1v-3.4C17.1,9.4,14.8,7.2,12,7.2z"/>
		<circle class="st0" cx="9.3" cy="13.3" r="1.2"/>
		<circle class="st0" cx="14.4" cy="13.3" r="1.2"/>
	</g>
</g>
</svg>
