<?xml version="1.0" encoding="utf-8"?>
<!-- Generator: Adobe Illustrator 25.0.1, SVG Export Plug-In . SVG Version: 6.00 Build 0)  -->
<svg version="1.1" id="Layer_1" xmlns="http://www.w3.org/2000/svg" xmlns:xlink="http://www.w3.org/1999/xlink" x="0px" y="0px"
	 viewBox="0 0 3082.6 1236.9" style="enable-background:new 0 0 3082.6 1236.9;" xml:space="preserve">
<style type="text/css">
	.st0{fill:#3D3DD1;}
	.st1{fill:#3030B7;}
	.st2{fill:#736CFF;}
	.st3{fill:#D2F1FC;}
	.st4{fill:#FFFFFF;}
</style>
<g>
	<g>
		<path class="st0" d="M1222.8,851V404.8C1222.8,181.2,1041.6,0,818,0H346.6C155.2,0,0,155.2,0,346.6v510.4h10.4v44.2H0.2
			c5.8,186.4,158.7,335.7,346.4,335.7h665.6c116.3,0,210.6-94.3,210.6-210.6V895.2h-12.4V851H1222.8z"/>
		<polygon class="st1" points="894.2,851.4 1210.5,851 1210.5,895.2 894.1,895 		"/>
		<path class="st2" d="M894.2,851.4V346.9c0-174.2-141.3-315.5-315.5-315.5H344.2c-174.2,0-315.5,141.3-315.5,315.5v271.5h-0.9
			v238.6H36v44.2h-7.1c5.9,169,144.8,304.2,315.3,304.2h394.7c85.7,0,155.2-69.5,155.2-155.2V895h-664v-43.6H894.2z"/>
		<g>
			<path class="st0" d="M457.5,244L457.5,244c-125.6,0-227.4,101.8-227.4,227.4v165.7h454.7V471.4C684.9,345.8,583.1,244,457.5,244z
				"/>
			<path class="st3" d="M457.5,276.6L457.5,276.6c-107.6,0-194.8,87.2-194.8,194.8v133.1h389.6V471.4
				C652.3,363.8,565.1,276.6,457.5,276.6z"/>
			<circle class="st0" cx="353.1" cy="513" r="45"/>
			<circle class="st0" cx="549.2" cy="513" r="45"/>
		</g>
	</g>
	<g>
		<g>
			<g>
				<path class="st4" d="M1446.1,178.6c2.6-2.1,7.2-3.4,13.8-3.8c6.6-0.4,25.3-0.6,56.2-0.6h64.9l9.9,9.1c6.3,5.8,9.5,10,9.5,12.7
					c0,2.4,1.1,3.6,3.2,3.6c2.4,0,6.6,3,12.7,9.1l9.5,9.1v104.8l-6.7,6.3c-4.5,4.5-8,6.7-10.7,6.7c-2.6,0-4,1.5-4,4.4
					c0,3.4-2.8,7.7-8.3,12.7l-8.3,8.3h-111.6v47.5c0,26.6-0.6,42.7-1.8,48.1c-1.2,5.4-5.6,11.8-13.3,19.2
					c-8.7,8.7-15.6,13.1-20.6,13.1c-1.3,0-2.4-0.1-3.2-0.4c-5-1.3-8-3.2-9.1-5.5c-1.8-4-2.8-22.3-2.8-55v-12.3v-66.1
					c3.4-2.6,8.3-6.9,14.6-12.7c-6.3-6.3-11.2-11.1-14.6-14.2V197.9l5.1-4c3.2-2.6,5.7-4,7.5-4c1.8,0,2.8-1.3,2.8-4
					C1440.9,183.4,1442.6,180.9,1446.1,178.6z M1575,310.3v-85.4h-98.9v85.4H1575z"/>
				<path class="st4" d="M1690.5,181.7c1.8-1.8,6.2-3,13.1-3.4c6.9-0.4,26-0.6,57.4-0.6h66.9l7.9,7.1c5.3,4.7,8.2,8.6,8.7,11.5
					c1.1,3.4,3,5.4,5.9,5.9c2.9,0.5,7,3.7,12.3,9.5l7.9,8.7v102.5l-5.9,6.7c-4.2,4.7-7.8,7.4-10.7,7.9c-3.2,0.8-4.7,2.4-4.7,4.7
					c0,2.1-3.3,6.2-9.9,12.3l-9.1,9.1h-59.3l99.7,99.7V476c0,8.2-1.5,14.1-4.4,17.8c-1.8,2.4-3.7,3.8-5.5,4.3
					c-1.8,0.5-5.9,0.8-12.3,0.8h-13.8l-109.2-109.2v-13.1c0-8.7-0.8-13.1-2.4-13.1c-0.8,0-1.6,1.1-2.4,3.2
					c-0.5,1.1-0.8,17.7-0.8,49.8V463l-13.5,13.1c-5.8,5.8-10,9.5-12.5,11.1c-2.5,1.6-5.2,2.4-8.1,2.4c-4.5,0-8-1.3-10.7-4
					c-1.8-1.8-3-5.9-3.4-12.3c-0.4-6.3-0.7-24-1-53V355c0-2.4,2.8-6.1,8.3-11.1l7.5-6.7l-4.7-2.4c-5.3-2.4-8.4-6.7-9.3-13.1
					c-0.9-6.3-1.4-26.2-1.4-59.7c0-41.1,1.1-62.9,3.2-65.3c1.8-2.4,4.5-3.6,7.9-3.6c2.9,0,4.4-1.2,4.4-3.6
					C1686.6,187,1687.9,184.4,1690.5,181.7z M1820.3,313.5V228h-100.9v42.7l0.4,42.7H1820.3z"/>
				<path class="st4" d="M1955.6,178.2c2.9-1.6,7.7-2.6,14.4-3.2c6.7-0.5,22.2-0.8,46.5-0.8h55l9.9,9.1c6.3,5.8,9.5,10,9.5,12.7
					c0,2.4,1.2,3.6,3.6,3.6c2.4,0,6.6,3.3,12.7,9.9l9.1,9.5v235.4l-7.9,8.3c-5.5,6.1-9.6,9.4-12.3,9.9c-2.9,0.5-4.9,2.4-5.9,5.5
					c-0.5,3.2-3.8,7.5-9.9,13.1l-8.7,7.9h-111.2l-9.5-9.1c-6.3-5.8-9.5-9.6-9.5-11.5c0-2.1-1.5-3.8-4.4-5.1
					c-3.7-1.8-7.9-5.1-12.7-9.9l-8.3-7.9V217.3l6.3-7.1c4.2-4.7,8.4-8,12.7-9.9c4.2-1.3,6.3-3.2,6.3-5.5c0-1.8,1.5-4.5,4.5-8.1
					C1948.9,183.1,1952.1,180.3,1955.6,178.2z M2065.5,448.3V224.8h-98.9v223.5H2065.5z"/>
				<path class="st4" d="M2325.8,199.9c9.5-9.5,16.6-14.2,21.4-14.2c3.2,0,6.5,1.7,9.9,5.1l4.7,4.7v278.9l-4.4,4.4
					c-2.9,2.9-5.3,4.4-7.1,4.4c-2.1,0-4,2.2-5.5,6.7c-1.3,4.2-3.8,7.1-7.5,8.7c-3.2,1.6-28.9,2.4-77.1,2.4
					c-34.6,0-55.5-0.2-62.9-0.6c-7.4-0.4-12.4-1.6-15-3.8c-3.2-2.6-4.7-5.5-4.7-8.7s-1.6-4.7-4.7-4.7c-2.9,0-4.9-0.3-6.1-1
					c-1.2-0.7-2.2-2.8-3.2-6.5c-0.9-3.7-1.5-8.3-1.6-13.8c-0.1-5.5-0.2-14.4-0.2-26.5v-16.2c0-14.2,0.6-23.3,1.8-27.1
					c1.2-3.8,4-7.1,8.5-9.7c3.7-2.4,6.9-3.6,9.5-3.6c4.2,0,10.1,3.7,17.8,11.1l11.5,11.1v24.9l-0.4,24.5h100.9V213.8L2325.8,199.9z"
					/>
				<path class="st4" d="M2456.4,175.8c3.4,0,14.6-0.2,33.6-0.6c19-0.4,34-0.6,45.1-0.6h28.9c11.6,0,18.9,0.3,22,0.8
					c3,0.5,5.3,1.6,6.9,3.2c2.9,2.6,4.4,6.3,4.4,11.1c0,2.9-0.8,5.7-2.4,8.3c-1.6,2.6-5.3,6.9-11.1,12.7l-13.5,14.2h-43.1
					c-28.2,0-47.1,0.5-56.6,1.6l-13.1,1.2v83.9c12.1,0,30.5-0.3,55-0.8c24.5-0.5,43-0.8,55.4-0.8l8.7,8.7c4,4,6.5,6.9,7.5,8.7
					c1.1,1.8,1.6,4.6,1.6,8.3c0,3.4-0.5,6.1-1.6,8.1c-1.1,2-3.4,4.8-7.1,8.5l-8.3,8.7h-51c-32.4,0-51,0.4-55.8,1.2
					c-2.1,0.5-3.4,2.6-3.8,6.1c-0.4,3.6-0.6,15.8-0.6,36.6v41.5h111.2l14.2,13.8c6.3,6.1,10.3,10.3,11.9,12.9
					c1.6,2.5,2.4,5.3,2.4,8.5c0,4.5-1.2,8.2-3.6,11.1c-1.8,1.8-6.3,3-13.4,3.4c-7.1,0.4-30.3,0.9-69.6,1.4h-33.2
					c-30.9,0-47.3-0.3-49.4-0.8c-2.1-0.8-3.7-3.3-4.7-7.5c-0.5-4-2-5.9-4.4-5.9c-2.1,0-4.6-1.2-7.5-3.6c-2.1-1.8-3.4-5.6-3.8-11.3
					c-0.4-5.7-0.6-24.1-0.6-55.2v-62.5l13.5-13.4c-1.6-1.6-3.8-3.8-6.7-6.5c-2.9-2.8-5.1-4.8-6.7-6.1V262c0-29.3,0.2-47.2,0.6-53.8
					c0.4-6.6,1.5-10.8,3.4-12.7c2.4-2.4,4.9-3.6,7.5-3.6c2.6,0,4-1.2,4-3.6c0-2.1,1.6-4.7,4.7-7.9c2.1-1.8,4.8-3,8.1-3.6
					C2438.5,176.5,2445.6,176.1,2456.4,175.8z"/>
				<path class="st4" d="M2677.1,184.9l8.7-8.7h70c33.2,0,53.5,0.2,60.7,0.6c7.3,0.4,11.8,1.5,13.6,3.4c2.4,2.4,3.6,6.5,3.6,12.3
					c0,3.7-0.7,6.6-2,8.7c-1.3,2.1-5,6.3-11.1,12.7l-13.4,13.1h-113.1v221.5h54.2c36.4,0,56.4,0.9,60.1,2.8
					c4.2,2.4,9.4,6.9,15.4,13.5c4.2,4.7,6.9,8.2,8.1,10.3c1.2,2.1,1.8,4.9,1.8,8.3c0,5.5-1.2,9.5-3.6,11.9c-1.8,1.8-6.4,3-13.6,3.4
					c-7.3,0.4-27.5,0.6-60.7,0.6h-70l-8.7-8.7c-5.5-5.5-8.3-9.8-8.3-12.7c0-2.6-1.3-4-4-4c-2.6,0-6.9-2.9-12.7-8.7l-8.7-8.3V218.5
					l8.7-8.3c5.8-5.8,10-8.7,12.7-8.7c2.6,0,4-1.3,4-4C2668.8,194.6,2671.6,190.4,2677.1,184.9z"/>
				<path class="st4" d="M2884,180.1c1.6-1.6,34.3-2.4,98.1-2.4c64.1,0,96.9,0.8,98.5,2.4c1.3,1.3,2,2.8,2,4.4
					c0,4-6.1,12.1-18.2,24.5l-19,19h-46.3c0.8,1.1,2.1,2.6,4,4.5c1.8,2,3.3,3.5,4.4,4.5V478l-9.1,10.7c-6.1,6.9-10.7,10.3-13.8,10.3
					c-3.4,0-8.7-3.6-15.8-10.7l-10.3-10.7c0-26.6-0.3-66.7-0.8-120.1c-0.5-53.4-0.8-93.4-0.8-120.1c1.1-1.1,2.6-2.6,4.5-4.7
					c2-2.1,3.4-3.7,4.2-4.7h-46.3l-18.6-19c-12.4-12.4-18.6-20.6-18.6-24.5C2882,182.9,2882.7,181.5,2884,180.1z"/>
				<path class="st2" d="M1519.2,569.5c5.5,0,23.6-0.3,54.3-1c30.7-0.6,54.9-1,72.8-1h46.6c18.7,0,30.6,0.4,35.5,1.3
					c4.9,0.9,8.6,2.6,11.2,5.1c4.7,4.3,7,10.2,7,17.9c0,4.7-1.3,9.2-3.8,13.4c-2.6,4.3-8.5,11.1-17.9,20.4l-21.7,23h-69.6
					c-45.6,0-76,0.9-91.3,2.6l-21.1,1.9v135.4c19.6,0,49.2-0.4,88.8-1.3c39.6-0.8,69.4-1.3,89.4-1.3l14.1,14.1
					c6.4,6.4,10.4,11.1,12.1,14.1c1.7,3,2.6,7.5,2.6,13.4c0,5.5-0.9,9.9-2.6,13.1c-1.7,3.2-5.5,7.8-11.5,13.7l-13.4,14.1h-82.4
					c-52.4,0-82.4,0.6-90.1,1.9c-3.4,0.9-5.4,4.2-6.1,9.9c-0.6,5.7-1,25.4-1,59.1v67.1h179.5l23,22.4c10.2,9.8,16.6,16.7,19.2,20.8
					c2.6,4,3.8,8.6,3.8,13.7c0,7.2-1.9,13.2-5.7,17.9c-3,3-10.2,4.8-21.7,5.4c-11.5,0.6-49,1.4-112.4,2.2H1553
					c-49.8,0-76.4-0.4-79.8-1.3c-3.4-1.3-6-5.3-7.7-12.1c-0.9-6.4-3.2-9.6-7-9.6c-3.4,0-7.5-1.9-12.1-5.7c-3.4-3-5.4-9.1-6.1-18.2
					c-0.6-9.2-1-38.9-1-89.1V851.8l21.7-21.7c-2.6-2.6-6.2-6.1-10.9-10.5c-4.7-4.5-8.3-7.8-10.9-9.9V708.7c0-47.3,0.3-76.2,1-86.9
					c0.6-10.6,2.4-17.5,5.4-20.4c3.8-3.8,7.9-5.7,12.1-5.7c4.3,0,6.4-1.9,6.4-5.7c0-3.4,2.6-7.7,7.7-12.8c3.4-3,7.8-4.9,13.1-5.7
					C1490.3,570.6,1501.7,569.9,1519.2,569.5z"/>
				<path class="st2" d="M1829.6,591.8c4.7-3.8,9.8-5.7,15.3-5.7c11.1,0,24.7,8.7,40.9,26.2l16,17.2v383.2H2087l17.9,16
					c17,16.6,25.6,29.4,25.6,38.3c0,6-3,11.9-8.9,17.9l-8.9,9.6h-249.1l-8.9-9.6c-6-6-8.9-10.6-8.9-14.1c0-3.4-2.1-5.1-6.4-5.1
					c-4.3,0-8.3-2.8-12.1-8.3c-3-3.8-4.8-12-5.4-24.6c-0.6-12.6-1-47.4-1-104.4V823.7l1.3-225.5L1829.6,591.8z"/>
				<path class="st2" d="M2220.5,585.5c10.2-10.2,18.5-15.3,24.9-15.3c6.4,0,14.9,4.9,25.5,14.7l16,14.7v456.1l-16,14.7
					c-10.6,9.8-19.2,14.7-25.5,14.7c-6.4,0-14.7-5.1-24.9-15.3l-15.3-15.3V600.8L2220.5,585.5z"/>
			</g>
		</g>
	</g>
</g>
</svg>
